<?xml version="1.0" encoding="UTF-8" standalone="no"?>
<!DOCTYPE svg PUBLIC "-//W3C//DTD SVG 1.1//EN"
 "http://www.w3.org/Graphics/SVG/1.1/DTD/svg11.dtd">
<!-- Generated by graphviz version 2.43.0 (0)
 -->
<!-- Title: Accumulator.hpp Pages: 1 -->
<!--zoomable 302 -->

<svg id="main" version="1.1" xmlns="http://www.w3.org/2000/svg" xmlns:xlink="http://www.w3.org/1999/xlink" xml:space="preserve" onload="init(evt)">
<style type="text/css"><![CDATA[
.node, .edge {opacity: 0.7;}
.node.selected, .edge.selected {opacity: 1;}
.edge:hover path { stroke: red; }
.edge:hover polygon { stroke: red; fill: red; }
]]></style>

<defs>
  <circle id="rim" cx="0" cy="0" r="7"/>
  <circle id="rim2" cx="0" cy="0" r="3.5"/>
  <g id="zoomPlus">
    <use xlink:href="#rim" fill="#404040"><set attributeName="fill" to="#808080" begin="zoomplus.mouseover" end="zoomplus.mouseout"/></use>
    <path d="M-4,0h8M0,-4v8" fill="none" stroke="white" stroke-width="1.5" pointer-events="none"/>
  </g>
  <g id="zoomMin">
    <use xlink:href="#rim" fill="#404040"><set attributeName="fill" to="#808080" begin="zoomminus.mouseover" end="zoomminus.mouseout"/></use>
    <path d="M-4,0h8" fill="none" stroke="white" stroke-width="1.5" pointer-events="none"/>
  </g>
  <g id="arrowUp" transform="translate(30 24)">
    <use xlink:href="#rim"/>
    <path pointer-events="none" fill="none" stroke="white" stroke-width="1.5" d="M0,-3.0v7 M-2.5,-0.5L0,-3.0L2.5,-0.5"/>
  </g>
  <g id="arrowRight" transform="rotate(90) translate(36 -43)">
    <use xlink:href="#rim"/>
    <path pointer-events="none" fill="none" stroke="white" stroke-width="1.5" d="M0,-3.0v7 M-2.5,-0.5L0,-3.0L2.5,-0.5"/>
  </g>
  <g id="arrowDown" transform="rotate(180) translate(-30 -48)">
    <use xlink:href="#rim"/>
    <path pointer-events="none" fill="none" stroke="white" stroke-width="1.5" d="M0,-3.0v7 M-2.5,-0.5L0,-3.0L2.5,-0.5"/>
  </g>
  <g id="arrowLeft" transform="rotate(270) translate(-36 17)">
    <use xlink:href="#rim"/>
    <path pointer-events="none" fill="none" stroke="white" stroke-width="1.5" d="M0,-3.0v7 M-2.5,-0.5L0,-3.0L2.5,-0.5"/>
  </g>
  <g id="resetDef">
    <use xlink:href="#rim2" fill="#404040"><set attributeName="fill" to="#808080" begin="reset.mouseover" end="reset.mouseout"/></use>
  </g>
</defs>
<script type="application/ecmascript">
var viewWidth = 797;
var viewHeight = 302;
var sectionId = 'dynsection-1';
</script>
<script type="application/ecmascript" xlink:href="svg.min.js"/>
<svg id="graph" class="graph">
<g id="viewport">
<title>Accumulator.hpp</title>
<!-- Node1 -->
<g id="Node000001" class="node">
<title>Node1</title>
<g id="a_Node000001"><a xlink:title=" ">
<polygon fill="#999999" stroke="#666666" points="379.5,-294 281.5,-294 281.5,-275 379.5,-275 379.5,-294"/>
<text text-anchor="middle" x="330.5" y="-282" font-family="Helvetica,sans-Serif" font-size="10.00">Accumulator.hpp</text>
</a>
</g>
</g>
<!-- Node2 -->
<g id="Node000002" class="node">
<title>Node2</title>
<g id="a_Node000002"><a xlink:href="core_2accumulators_2MeanVarianceCalculator_8hpp.html" target="_top" xlink:title=" ">
<polygon fill="white" stroke="#666666" points="328,-239 173,-239 173,-220 328,-220 328,-239"/>
<text text-anchor="middle" x="250.5" y="-227" font-family="Helvetica,sans-Serif" font-size="10.00">MeanVarianceCalculator.hpp</text>
</a>
</g>
</g>
<!-- Node1&#45;&gt;Node2 -->
<g id="edge1_Node000001_Node000002" class="edge">
<title>Node1&#45;&gt;Node2</title>
<g id="a_edge1_Node000001_Node000002"><a xlink:title=" ">
<path fill="none" stroke="#63b8ff" d="M309.25,-269.42C294.74,-259.81 275.96,-247.37 263.59,-239.17"/>
<polygon fill="#63b8ff" stroke="#63b8ff" points="307.38,-272.38 317.65,-274.98 311.24,-266.54 307.38,-272.38"/>
</a>
</g>
</g>
<!-- Node6 -->
<g id="Node000006" class="node">
<title>Node6</title>
<g id="a_Node000006"><a xlink:href="core_2reaction__methods_2SingleReaction_8hpp.html" target="_top" xlink:title=" ">
<polygon fill="white" stroke="#666666" points="504.5,-239 394.5,-239 394.5,-220 504.5,-220 504.5,-239"/>
<text text-anchor="middle" x="449.5" y="-227" font-family="Helvetica,sans-Serif" font-size="10.00">SingleReaction.hpp</text>
</a>
</g>
</g>
<!-- Node1&#45;&gt;Node6 -->
<g id="edge5_Node000001_Node000006" class="edge">
<title>Node1&#45;&gt;Node6</title>
<g id="a_edge5_Node000001_Node000006"><a xlink:title=" ">
<path fill="none" stroke="#63b8ff" d="M358.8,-270.9C380.78,-261.11 410.68,-247.79 430.03,-239.17"/>
<polygon fill="#63b8ff" stroke="#63b8ff" points="357.33,-267.72 349.62,-274.98 360.18,-274.11 357.33,-267.72"/>
</a>
</g>
</g>
<!-- Node3 -->
<g id="Node000003" class="node">
<title>Node3</title>
<g id="a_Node000003"><a xlink:href="MeanVarianceCalculator_8cpp.html" target="_top" xlink:title=" ">
<polygon fill="white" stroke="#666666" points="155,-184 0,-184 0,-165 155,-165 155,-184"/>
<text text-anchor="middle" x="77.5" y="-172" font-family="Helvetica,sans-Serif" font-size="10.00">MeanVarianceCalculator.cpp</text>
</a>
</g>
</g>
<!-- Node2&#45;&gt;Node3 -->
<g id="edge2_Node000002_Node000003" class="edge">
<title>Node2&#45;&gt;Node3</title>
<g id="a_edge2_Node000002_Node000003"><a xlink:title=" ">
<path fill="none" stroke="#63b8ff" d="M212.73,-216.93C180.41,-207.03 134.64,-193.01 105.51,-184.08"/>
<polygon fill="#63b8ff" stroke="#63b8ff" points="212.12,-220.4 222.7,-219.98 214.17,-213.71 212.12,-220.4"/>
</a>
</g>
</g>
<!-- Node4 -->
<g id="Node000004" class="node">
<title>Node4</title>
<g id="a_Node000004"><a xlink:href="script__interface_2accumulators_2MeanVarianceCalculator_8hpp.html" target="_top" xlink:title=" ">
<polygon fill="white" stroke="#666666" points="328,-184 173,-184 173,-165 328,-165 328,-184"/>
<text text-anchor="middle" x="250.5" y="-172" font-family="Helvetica,sans-Serif" font-size="10.00">MeanVarianceCalculator.hpp</text>
</a>
</g>
</g>
<!-- Node2&#45;&gt;Node4 -->
<g id="edge3_Node000002_Node000004" class="edge">
<title>Node2&#45;&gt;Node4</title>
<g id="a_edge3_Node000002_Node000004"><a xlink:title=" ">
<path fill="none" stroke="#63b8ff" d="M250.5,-209.66C250.5,-200.93 250.5,-190.99 250.5,-184.09"/>
<polygon fill="#63b8ff" stroke="#63b8ff" points="247,-209.75 250.5,-219.75 254,-209.75 247,-209.75"/>
</a>
</g>
</g>
<!-- Node5 -->
<g id="Node000005" class="node">
<title>Node5</title>
<g id="a_Node000005"><a xlink:href="accumulators_2initialize_8cpp.html" target="_top" xlink:title=" ">
<polygon fill="white" stroke="#666666" points="231,-129 152,-129 152,-110 231,-110 231,-129"/>
<text text-anchor="middle" x="191.5" y="-117" font-family="Helvetica,sans-Serif" font-size="10.00">initialize.cpp</text>
</a>
</g>
</g>
<!-- Node4&#45;&gt;Node5 -->
<g id="edge4_Node000004_Node000005" class="edge">
<title>Node4&#45;&gt;Node5</title>
<g id="a_edge4_Node000004_Node000005"><a xlink:title=" ">
<path fill="none" stroke="#63b8ff" d="M233.3,-158.04C222.83,-148.64 209.85,-136.98 201.15,-129.17"/>
<polygon fill="#63b8ff" stroke="#63b8ff" points="231.24,-160.91 241.02,-164.98 235.92,-155.7 231.24,-160.91"/>
</a>
</g>
</g>
<!-- Node7 -->
<g id="Node000007" class="node">
<title>Node7</title>
<g id="a_Node000007"><a xlink:href="core_2reaction__methods_2ReactionAlgorithm_8hpp.html" target="_top" xlink:title=" ">
<polygon fill="white" stroke="#666666" points="513.5,-184 385.5,-184 385.5,-165 513.5,-165 513.5,-184"/>
<text text-anchor="middle" x="449.5" y="-172" font-family="Helvetica,sans-Serif" font-size="10.00">ReactionAlgorithm.hpp</text>
</a>
</g>
</g>
<!-- Node6&#45;&gt;Node7 -->
<g id="edge6_Node000006_Node000007" class="edge">
<title>Node6&#45;&gt;Node7</title>
<g id="a_edge6_Node000006_Node000007"><a xlink:title=" ">
<path fill="none" stroke="#63b8ff" d="M449.5,-209.66C449.5,-200.93 449.5,-190.99 449.5,-184.09"/>
<polygon fill="#63b8ff" stroke="#63b8ff" points="446,-209.75 449.5,-219.75 453,-209.75 446,-209.75"/>
</a>
</g>
</g>
<!-- Node15 -->
<g id="Node000015" class="node">
<title>Node15</title>
<g id="a_Node000015"><a xlink:href="script__interface_2reaction__methods_2SingleReaction_8hpp.html" target="_top" xlink:title=" ">
<polygon fill="white" stroke="#666666" points="706.5,-184 596.5,-184 596.5,-165 706.5,-165 706.5,-184"/>
<text text-anchor="middle" x="651.5" y="-172" font-family="Helvetica,sans-Serif" font-size="10.00">SingleReaction.hpp</text>
</a>
</g>
</g>
<!-- Node6&#45;&gt;Node15 -->
<g id="edge21_Node000006_Node000015" class="edge">
<title>Node6&#45;&gt;Node15</title>
<g id="a_edge21_Node000006_Node000015"><a xlink:title=" ">
<path fill="none" stroke="#63b8ff" d="M491.66,-217.44C529.48,-207.52 584.19,-193.16 618.79,-184.08"/>
<polygon fill="#63b8ff" stroke="#63b8ff" points="490.74,-214.06 481.95,-219.98 492.52,-220.83 490.74,-214.06"/>
</a>
</g>
</g>
<!-- Node8 -->
<g id="Node000008" class="node">
<title>Node8</title>
<g id="a_Node000008"><a xlink:href="script__interface_2reaction__methods_2ConstantpHEnsemble_8hpp.html" target="_top" xlink:title=" ">
<polygon fill="white" stroke="#666666" points="478,-74 335,-74 335,-55 478,-55 478,-74"/>
<text text-anchor="middle" x="406.5" y="-62" font-family="Helvetica,sans-Serif" font-size="10.00">ConstantpHEnsemble.hpp</text>
</a>
</g>
</g>
<!-- Node7&#45;&gt;Node8 -->
<g id="edge7_Node000007_Node000008" class="edge">
<title>Node7&#45;&gt;Node8</title>
<g id="a_edge7_Node000007_Node000008"><a xlink:title=" ">
<path fill="none" stroke="#63b8ff" d="M442.18,-155.12C432.8,-131.56 416.91,-91.66 409.95,-74.16"/>
<polygon fill="#63b8ff" stroke="#63b8ff" points="439.03,-156.67 445.98,-164.66 445.53,-154.08 439.03,-156.67"/>
</a>
</g>
</g>
<!-- Node10 -->
<g id="Node000010" class="node">
<title>Node10</title>
<g id="a_Node000010"><a xlink:href="script__interface_2reaction__methods_2ReactionAlgorithm_8cpp.html" target="_top" xlink:title=" ">
<polygon fill="white" stroke="#666666" points="770.5,-74 642.5,-74 642.5,-55 770.5,-55 770.5,-74"/>
<text text-anchor="middle" x="706.5" y="-62" font-family="Helvetica,sans-Serif" font-size="10.00">ReactionAlgorithm.cpp</text>
</a>
</g>
</g>
<!-- Node7&#45;&gt;Node10 -->
<g id="edge9_Node000007_Node000010" class="edge">
<title>Node7&#45;&gt;Node10</title>
<g id="a_edge9_Node000007_Node000010"><a xlink:title=" ">
<path fill="none" stroke="#63b8ff" d="M523.97,-163.83C558.64,-157.27 599.61,-146.5 633.5,-129 660.96,-114.82 686.66,-88.22 698.94,-74.38"/>
<polygon fill="#63b8ff" stroke="#63b8ff" points="523.11,-160.43 513.9,-165.65 524.36,-167.32 523.11,-160.43"/>
</a>
</g>
</g>
<!-- Node11 -->
<g id="Node000011" class="node">
<title>Node11</title>
<g id="a_Node000011"><a xlink:href="script__interface_2reaction__methods_2ReactionAlgorithm_8hpp.html" target="_top" xlink:title=" ">
<polygon fill="white" stroke="#666666" points="624.5,-129 496.5,-129 496.5,-110 624.5,-110 624.5,-129"/>
<text text-anchor="middle" x="560.5" y="-117" font-family="Helvetica,sans-Serif" font-size="10.00">ReactionAlgorithm.hpp</text>
</a>
</g>
</g>
<!-- Node7&#45;&gt;Node11 -->
<g id="edge10_Node000007_Node000011" class="edge">
<title>Node7&#45;&gt;Node11</title>
<g id="a_edge10_Node000007_Node000011"><a xlink:title=" ">
<path fill="none" stroke="#63b8ff" d="M476.45,-160.63C496.89,-150.87 524.45,-137.71 542.34,-129.17"/>
<polygon fill="#63b8ff" stroke="#63b8ff" points="474.85,-157.52 467.33,-164.98 477.87,-163.83 474.85,-157.52"/>
</a>
</g>
</g>
<!-- Node12 -->
<g id="Node000012" class="node">
<title>Node12</title>
<g id="a_Node000012"><a xlink:href="script__interface_2reaction__methods_2ReactionEnsemble_8hpp.html" target="_top" xlink:title=" ">
<polygon fill="white" stroke="#666666" points="624.5,-74 496.5,-74 496.5,-55 624.5,-55 624.5,-74"/>
<text text-anchor="middle" x="560.5" y="-62" font-family="Helvetica,sans-Serif" font-size="10.00">ReactionEnsemble.hpp</text>
</a>
</g>
</g>
<!-- Node7&#45;&gt;Node12 -->
<g id="edge17_Node000007_Node000012" class="edge">
<title>Node7&#45;&gt;Node12</title>
<g id="a_edge17_Node000007_Node000012"><a xlink:title=" ">
<path fill="none" stroke="#63b8ff" d="M457.33,-155.51C463.93,-141.85 474.38,-123.23 487.5,-110 503.07,-94.3 525.25,-81.8 541.06,-74.09"/>
<polygon fill="#63b8ff" stroke="#63b8ff" points="454.05,-154.26 453.06,-164.81 460.42,-157.18 454.05,-154.26"/>
</a>
</g>
</g>
<!-- Node13 -->
<g id="Node000013" class="node">
<title>Node13</title>
<g id="a_Node000013"><a xlink:href="script__interface_2reaction__methods_2WidomInsertion_8hpp.html" target="_top" xlink:title=" ">
<polygon fill="white" stroke="#666666" points="317,-74 202,-74 202,-55 317,-55 317,-74"/>
<text text-anchor="middle" x="259.5" y="-62" font-family="Helvetica,sans-Serif" font-size="10.00">WidomInsertion.hpp</text>
</a>
</g>
</g>
<!-- Node7&#45;&gt;Node13 -->
<g id="edge20_Node000007_Node000013" class="edge">
<title>Node7&#45;&gt;Node13</title>
<g id="a_edge20_Node000007_Node000013"><a xlink:title=" ">
<path fill="none" stroke="#63b8ff" d="M433.39,-157.62C418.55,-143.66 395.43,-123.51 372.5,-110 345.61,-94.16 312.05,-81.76 288.51,-74.12"/>
<polygon fill="#63b8ff" stroke="#63b8ff" points="431.09,-160.26 440.73,-164.66 435.94,-155.21 431.09,-160.26"/>
</a>
</g>
</g>
<!-- Node14 -->
<g id="Node000014" class="node">
<title>Node14</title>
<g id="a_Node000014"><a xlink:href="core_2reaction__methods_2WidomInsertion_8hpp.html" target="_top" xlink:title=" ">
<polygon fill="white" stroke="#666666" points="364,-129 249,-129 249,-110 364,-110 364,-129"/>
<text text-anchor="middle" x="306.5" y="-117" font-family="Helvetica,sans-Serif" font-size="10.00">WidomInsertion.hpp</text>
</a>
</g>
</g>
<!-- Node7&#45;&gt;Node14 -->
<g id="edge18_Node000007_Node000014" class="edge">
<title>Node7&#45;&gt;Node14</title>
<g id="a_edge18_Node000007_Node000014"><a xlink:title=" ">
<path fill="none" stroke="#63b8ff" d="M416.91,-161.42C390.38,-151.59 353.57,-137.95 329.89,-129.17"/>
<polygon fill="#63b8ff" stroke="#63b8ff" points="415.93,-164.79 426.52,-164.98 418.36,-158.23 415.93,-164.79"/>
</a>
</g>
</g>
<!-- Node9 -->
<g id="Node000009" class="node">
<title>Node9</title>
<g id="a_Node000009"><a xlink:href="reaction__methods_2initialize_8cpp.html" target="_top" xlink:title=" ">
<polygon fill="white" stroke="#666666" points="523,-19 444,-19 444,0 523,0 523,-19"/>
<text text-anchor="middle" x="483.5" y="-7" font-family="Helvetica,sans-Serif" font-size="10.00">initialize.cpp</text>
</a>
</g>
</g>
<!-- Node8&#45;&gt;Node9 -->
<g id="edge8_Node000008_Node000009" class="edge">
<title>Node8&#45;&gt;Node9</title>
<g id="a_edge8_Node000008_Node000009"><a xlink:title=" ">
<path fill="none" stroke="#63b8ff" d="M427.35,-49.15C441.26,-39.57 459.11,-27.29 470.9,-19.17"/>
<polygon fill="#63b8ff" stroke="#63b8ff" points="425.12,-46.43 418.87,-54.98 429.09,-52.2 425.12,-46.43"/>
</a>
</g>
</g>
<!-- Node11&#45;&gt;Node8 -->
<g id="edge11_Node000011_Node000008" class="edge">
<title>Node11&#45;&gt;Node8</title>
<g id="a_edge11_Node000011_Node000008"><a xlink:title=" ">
<path fill="none" stroke="#63b8ff" d="M526.12,-106.67C497.41,-96.79 457.14,-82.93 431.44,-74.08"/>
<polygon fill="#63b8ff" stroke="#63b8ff" points="525.16,-110.04 535.76,-109.98 527.44,-103.42 525.16,-110.04"/>
</a>
</g>
</g>
<!-- Node11&#45;&gt;Node10 -->
<g id="edge12_Node000011_Node000010" class="edge">
<title>Node11&#45;&gt;Node10</title>
<g id="a_edge12_Node000011_Node000010"><a xlink:title=" ">
<path fill="none" stroke="#63b8ff" d="M593.42,-106.55C620.53,-96.71 658.33,-82.98 682.62,-74.17"/>
<polygon fill="#63b8ff" stroke="#63b8ff" points="592.16,-103.28 583.96,-109.98 594.55,-109.86 592.16,-103.28"/>
</a>
</g>
</g>
<!-- Node11&#45;&gt;Node12 -->
<g id="edge13_Node000011_Node000012" class="edge">
<title>Node11&#45;&gt;Node12</title>
<g id="a_edge13_Node000011_Node000012"><a xlink:title=" ">
<path fill="none" stroke="#63b8ff" d="M560.5,-99.66C560.5,-90.93 560.5,-80.99 560.5,-74.09"/>
<polygon fill="#63b8ff" stroke="#63b8ff" points="557,-99.75 560.5,-109.75 564,-99.75 557,-99.75"/>
</a>
</g>
</g>
<!-- Node11&#45;&gt;Node13 -->
<g id="edge15_Node000011_Node000013" class="edge">
<title>Node11&#45;&gt;Node13</title>
<g id="a_edge15_Node000011_Node000013"><a xlink:title=" ">
<path fill="none" stroke="#63b8ff" d="M501.94,-108.19C445.51,-98.25 361.11,-83.39 308.24,-74.08"/>
<polygon fill="#63b8ff" stroke="#63b8ff" points="501.68,-111.7 512.14,-109.98 502.9,-104.8 501.68,-111.7"/>
</a>
</g>
</g>
<!-- Node12&#45;&gt;Node9 -->
<g id="edge14_Node000012_Node000009" class="edge">
<title>Node12&#45;&gt;Node9</title>
<g id="a_edge14_Node000012_Node000009"><a xlink:title=" ">
<path fill="none" stroke="#63b8ff" d="M539.65,-49.15C525.74,-39.57 507.89,-27.29 496.1,-19.17"/>
<polygon fill="#63b8ff" stroke="#63b8ff" points="537.91,-52.2 548.13,-54.98 541.88,-46.43 537.91,-52.2"/>
</a>
</g>
</g>
<!-- Node13&#45;&gt;Node9 -->
<g id="edge16_Node000013_Node000009" class="edge">
<title>Node13&#45;&gt;Node9</title>
<g id="a_edge16_Node000013_Node000009"><a xlink:title=" ">
<path fill="none" stroke="#63b8ff" d="M305.45,-52.63C347.41,-42.7 408.62,-28.22 447.23,-19.08"/>
<polygon fill="#63b8ff" stroke="#63b8ff" points="304.41,-49.28 295.49,-54.98 306.03,-56.09 304.41,-49.28"/>
</a>
</g>
</g>
<!-- Node14&#45;&gt;Node13 -->
<g id="edge19_Node000014_Node000013" class="edge">
<title>Node14&#45;&gt;Node13</title>
<g id="a_edge19_Node000014_Node000013"><a xlink:title=" ">
<path fill="none" stroke="#63b8ff" d="M292.08,-102.24C283.84,-92.95 273.85,-81.68 267.12,-74.09"/>
<polygon fill="#63b8ff" stroke="#63b8ff" points="289.49,-104.59 298.74,-109.75 294.72,-99.94 289.49,-104.59"/>
</a>
</g>
</g>
<!-- Node15&#45;&gt;Node9 -->
<g id="edge24_Node000015_Node000009" class="edge">
<title>Node15&#45;&gt;Node9</title>
<g id="a_edge24_Node000015_Node000009"><a xlink:title=" ">
<path fill="none" stroke="#63b8ff" d="M683.89,-161.06C732.79,-140.51 816.08,-97.49 779.5,-55 746.87,-17.09 595.94,-11.03 523.08,-10.36"/>
<polygon fill="#63b8ff" stroke="#63b8ff" points="682.53,-157.83 674.61,-164.86 685.19,-164.31 682.53,-157.83"/>
</a>
</g>
</g>
<!-- Node15&#45;&gt;Node10 -->
<g id="edge22_Node000015_Node000010" class="edge">
<title>Node15&#45;&gt;Node10</title>
<g id="a_edge22_Node000015_Node000010"><a xlink:title=" ">
<path fill="none" stroke="#63b8ff" d="M660.7,-155.44C672.67,-131.92 693.14,-91.73 702.09,-74.16"/>
<polygon fill="#63b8ff" stroke="#63b8ff" points="657.42,-154.16 656,-164.66 663.66,-157.34 657.42,-154.16"/>
</a>
</g>
</g>
<!-- Node15&#45;&gt;Node11 -->
<g id="edge23_Node000015_Node000011" class="edge">
<title>Node15&#45;&gt;Node11</title>
<g id="a_edge23_Node000015_Node000011"><a xlink:title=" ">
<path fill="none" stroke="#63b8ff" d="M627.8,-159.7C611.22,-150.04 589.59,-137.44 575.39,-129.17"/>
<polygon fill="#63b8ff" stroke="#63b8ff" points="626.48,-162.98 636.88,-164.98 630,-156.93 626.48,-162.98"/>
</a>
</g>
</g>
</g>
</svg>

<g id="navigator" transform="translate(0 0)" fill="#404254">
  <rect fill="#f2f5e9" fill-opacity="0.5" stroke="#606060" stroke-width=".5" x="0" y="0" width="60" height="60"/>
  <use id="zoomplus" xlink:href="#zoomPlus" x="17" y="9" onmousedown="handleZoom(evt,'in')"/>
  <use id="zoomminus" xlink:href="#zoomMin" x="42" y="9" onmousedown="handleZoom(evt,'out')"/>
  <use id="reset" xlink:href="#resetDef" x="30" y="36" onmousedown="handleReset()"/>
   <use id="arrowup" xlink:href="#arrowUp" x="0" y="0" onmousedown="handlePan(0,-1)"/>
  <use id="arrowright" xlink:href="#arrowRight" x="0" y="0" onmousedown="handlePan(1,0)"/>
  <use id="arrowdown" xlink:href="#arrowDown" x="0" y="0" onmousedown="handlePan(0,1)"/>
  <use id="arrowleft" xlink:href="#arrowLeft" x="0" y="0" onmousedown="handlePan(-1,0)"/>
</g>
<svg viewBox="0 0 15 15" width="100%" height="30px" preserveAspectRatio="xMaxYMin meet">
 <g id="arrow_out" transform="scale(0.3 0.3)">
  <a xlink:href="Accumulator_8hpp__dep__incl_org.svg" target="_base">
   <rect id="button" ry="5" rx="5" y="6" x="6" height="38" width="38"
        fill="#f2f5e9" fill-opacity="0.5" stroke="#606060" stroke-width="1.0"/>
   <path id="arrow"
     d="M 11.500037,31.436501 C 11.940474,20.09759 22.043105,11.32322 32.158766,21.979434 L 37.068811,17.246167 C 37.068811,17.246167 37.088388,32 37.088388,32 L 22.160133,31.978069 C 22.160133,31.978069 26.997745,27.140456 26.997745,27.140456 C 18.528582,18.264221 13.291696,25.230495 11.500037,31.436501 z"
     style="fill:#404040;"/>
  </a>
 </g>
</svg>

<style type='text/css'>
<![CDATA[
[data-mouse-over-selected='false'] { opacity: 0.7; }
[data-mouse-over-selected='true']  { opacity: 1.0; }
]]>
</style>
<script type="application/ecmascript"><![CDATA[
document.addEventListener('DOMContentLoaded', (event) => {
  highlightEdges();
  highlightAdjacentNodes();
});
]]></script>
</svg>
