<?xml version="1.0" encoding="UTF-8" standalone="no"?>
<!DOCTYPE svg PUBLIC "-//W3C//DTD SVG 1.1//EN"
 "http://www.w3.org/Graphics/SVG/1.1/DTD/svg11.dtd">
<!-- Generated by graphviz version 2.43.0 (0)
 -->
<!-- Title: Accumulator.hpp Pages: 1 -->
<svg width="670pt" height="95pt"
 viewBox="0.00 0.00 670.00 95.00" xmlns="http://www.w3.org/2000/svg" xmlns:xlink="http://www.w3.org/1999/xlink">
<g id="graph0" class="graph" transform="scale(1 1) rotate(0) translate(4 91)">
<title>Accumulator.hpp</title>
<!-- Node1 -->
<g id="node1" class="node">
<title>Node1</title>
<g id="a_node1"><a xlink:title=" ">
<polygon fill="#bfbfbf" stroke="black" points="341,-67.5 341,-86.5 440,-86.5 440,-67.5 341,-67.5"/>
<text text-anchor="middle" x="390.5" y="-74.5" font-family="Helvetica,sans-Serif" font-size="10.00">Accumulator.hpp</text>
</a>
</g>
</g>
<!-- Node2 -->
<g id="node2" class="node">
<title>Node2</title>
<g id="a_node2"><a xlink:title=" ">
<polygon fill="none" stroke="#bfbfbf" points="0,-0.5 0,-30.5 107,-30.5 107,-0.5 0,-0.5"/>
<text text-anchor="start" x="8" y="-18.5" font-family="Helvetica,sans-Serif" font-size="10.00">boost/serialization</text>
<text text-anchor="middle" x="53.5" y="-7.5" font-family="Helvetica,sans-Serif" font-size="10.00">/access.hpp</text>
</a>
</g>
</g>
<!-- Node1&#45;&gt;Node2 -->
<g id="edge1" class="edge">
<title>Node1&#45;&gt;Node2</title>
<path fill="none" stroke="midnightblue" d="M340.89,-68.91C287.78,-61.1 200.85,-47.64 117.15,-31.26"/>
<polygon fill="midnightblue" stroke="midnightblue" points="117.71,-27.8 107.22,-29.3 116.35,-34.67 117.71,-27.8"/>
</g>
<!-- Node3 -->
<g id="node3" class="node">
<title>Node3</title>
<g id="a_node3"><a xlink:title=" ">
<polygon fill="none" stroke="#bfbfbf" points="125,-0.5 125,-30.5 232,-30.5 232,-0.5 125,-0.5"/>
<text text-anchor="start" x="133" y="-18.5" font-family="Helvetica,sans-Serif" font-size="10.00">boost/serialization</text>
<text text-anchor="middle" x="178.5" y="-7.5" font-family="Helvetica,sans-Serif" font-size="10.00">/vector.hpp</text>
</a>
</g>
</g>
<!-- Node1&#45;&gt;Node3 -->
<g id="edge2" class="edge">
<title>Node1&#45;&gt;Node3</title>
<path fill="none" stroke="midnightblue" d="M360.13,-67.48C328.46,-58.59 278.01,-44.43 238.31,-33.29"/>
<polygon fill="midnightblue" stroke="midnightblue" points="239.04,-29.86 228.46,-30.52 237.15,-36.6 239.04,-29.86"/>
</g>
<!-- Node4 -->
<g id="node4" class="node">
<title>Node4</title>
<g id="a_node4"><a xlink:title=" ">
<polygon fill="none" stroke="#bfbfbf" points="250.5,-6 250.5,-25 314.5,-25 314.5,-6 250.5,-6"/>
<text text-anchor="middle" x="282.5" y="-13" font-family="Helvetica,sans-Serif" font-size="10.00">algorithm</text>
</a>
</g>
</g>
<!-- Node1&#45;&gt;Node4 -->
<g id="edge3" class="edge">
<title>Node1&#45;&gt;Node4</title>
<path fill="none" stroke="midnightblue" d="M375.03,-67.48C357.22,-57.67 327.76,-41.43 306.87,-29.92"/>
<polygon fill="midnightblue" stroke="midnightblue" points="308.39,-26.77 297.95,-25.01 305.01,-32.9 308.39,-26.77"/>
</g>
<!-- Node5 -->
<g id="node5" class="node">
<title>Node5</title>
<g id="a_node5"><a xlink:title=" ">
<polygon fill="none" stroke="#bfbfbf" points="333,-6 333,-25 380,-25 380,-6 333,-6"/>
<text text-anchor="middle" x="356.5" y="-13" font-family="Helvetica,sans-Serif" font-size="10.00">cmath</text>
</a>
</g>
</g>
<!-- Node1&#45;&gt;Node5 -->
<g id="edge4" class="edge">
<title>Node1&#45;&gt;Node5</title>
<path fill="none" stroke="midnightblue" d="M385.63,-67.48C380.63,-58.73 372.71,-44.87 366.39,-33.81"/>
<polygon fill="midnightblue" stroke="midnightblue" points="369.36,-31.96 361.36,-25.01 363.28,-35.43 369.36,-31.96"/>
</g>
<!-- Node6 -->
<g id="node6" class="node">
<title>Node6</title>
<g id="a_node6"><a xlink:title=" ">
<polygon fill="none" stroke="#bfbfbf" points="398,-6 398,-25 451,-25 451,-6 398,-6"/>
<text text-anchor="middle" x="424.5" y="-13" font-family="Helvetica,sans-Serif" font-size="10.00">cstddef</text>
</a>
</g>
</g>
<!-- Node1&#45;&gt;Node6 -->
<g id="edge5" class="edge">
<title>Node1&#45;&gt;Node6</title>
<path fill="none" stroke="midnightblue" d="M395.37,-67.48C400.37,-58.73 408.29,-44.87 414.61,-33.81"/>
<polygon fill="midnightblue" stroke="midnightblue" points="417.72,-35.43 419.64,-25.01 411.64,-31.96 417.72,-35.43"/>
</g>
<!-- Node7 -->
<g id="node7" class="node">
<title>Node7</title>
<g id="a_node7"><a xlink:title=" ">
<polygon fill="none" stroke="#bfbfbf" points="469.5,-6 469.5,-25 513.5,-25 513.5,-6 469.5,-6"/>
<text text-anchor="middle" x="491.5" y="-13" font-family="Helvetica,sans-Serif" font-size="10.00">limits</text>
</a>
</g>
</g>
<!-- Node1&#45;&gt;Node7 -->
<g id="edge6" class="edge">
<title>Node1&#45;&gt;Node7</title>
<path fill="none" stroke="midnightblue" d="M404.97,-67.48C421.47,-57.75 448.68,-41.73 468.18,-30.24"/>
<polygon fill="midnightblue" stroke="midnightblue" points="470.22,-33.1 477.06,-25.01 466.66,-27.07 470.22,-33.1"/>
</g>
<!-- Node8 -->
<g id="node8" class="node">
<title>Node8</title>
<g id="a_node8"><a xlink:title=" ">
<polygon fill="none" stroke="#bfbfbf" points="532,-6 532,-25 597,-25 597,-6 532,-6"/>
<text text-anchor="middle" x="564.5" y="-13" font-family="Helvetica,sans-Serif" font-size="10.00">stdexcept</text>
</a>
</g>
</g>
<!-- Node1&#45;&gt;Node8 -->
<g id="edge7" class="edge">
<title>Node1&#45;&gt;Node8</title>
<path fill="none" stroke="midnightblue" d="M415.82,-67.4C442.39,-58.37 485.4,-43.73 522.5,-31 524.93,-30.17 527.43,-29.31 529.95,-28.44"/>
<polygon fill="midnightblue" stroke="midnightblue" points="531.32,-31.67 539.63,-25.1 529.04,-25.05 531.32,-31.67"/>
</g>
<!-- Node9 -->
<g id="node9" class="node">
<title>Node9</title>
<g id="a_node9"><a xlink:title=" ">
<polygon fill="none" stroke="#bfbfbf" points="615,-6 615,-25 662,-25 662,-6 615,-6"/>
<text text-anchor="middle" x="638.5" y="-13" font-family="Helvetica,sans-Serif" font-size="10.00">vector</text>
</a>
</g>
</g>
<!-- Node1&#45;&gt;Node9 -->
<g id="edge8" class="edge">
<title>Node1&#45;&gt;Node9</title>
<path fill="none" stroke="midnightblue" d="M440.2,-68.84C484.51,-61.7 550.78,-49.18 606.5,-31 608.37,-30.39 610.28,-29.7 612.18,-28.97"/>
<polygon fill="midnightblue" stroke="midnightblue" points="613.65,-32.15 621.5,-25.04 610.93,-25.7 613.65,-32.15"/>
</g>
</g>
</svg>
