<?xml version="1.0" encoding="UTF-8" standalone="no"?>
<!DOCTYPE svg PUBLIC "-//W3C//DTD SVG 1.1//EN"
 "http://www.w3.org/Graphics/SVG/1.1/DTD/svg11.dtd">
<!-- Generated by graphviz version 2.43.0 (0)
 -->
<!-- Title: AdvectiveFluxKernel_single_precision.cpp Pages: 1 -->
<svg width="925pt" height="170pt"
 viewBox="0.00 0.00 924.50 170.00" xmlns="http://www.w3.org/2000/svg" xmlns:xlink="http://www.w3.org/1999/xlink">
<g id="graph0" class="graph" transform="scale(1 1) rotate(0) translate(4 166)">
<title>AdvectiveFluxKernel_single_precision.cpp</title>
<!-- Node1 -->
<g id="Node000001" class="node">
<title>Node1</title>
<g id="a_Node000001"><a xlink:title=" ">
<polygon fill="#999999" stroke="#666666" points="427,-162 306,-162 306,-132 427,-132 427,-162"/>
<text text-anchor="start" x="314" y="-150" font-family="Helvetica,sans-Serif" font-size="10.00">AdvectiveFluxKernel</text>
<text text-anchor="middle" x="366.5" y="-139" font-family="Helvetica,sans-Serif" font-size="10.00">_single_precision.cpp</text>
</a>
</g>
</g>
<!-- Node2 -->
<g id="Node000002" class="node">
<title>Node2</title>
<g id="a_Node000002"><a xlink:title=" ">
<polygon fill="#e0e0e0" stroke="#999999" points="295,-90.5 248,-90.5 248,-71.5 295,-71.5 295,-90.5"/>
<text text-anchor="middle" x="271.5" y="-78.5" font-family="Helvetica,sans-Serif" font-size="10.00">cmath</text>
</a>
</g>
</g>
<!-- Node1&#45;&gt;Node2 -->
<g id="edge1_Node000001_Node000002" class="edge">
<title>Node1&#45;&gt;Node2</title>
<g id="a_edge1_Node000001_Node000002"><a xlink:title=" ">
<path fill="none" stroke="#63b8ff" d="M345.42,-131.8C329.79,-121.27 308.57,-106.97 292.87,-96.4"/>
<polygon fill="#63b8ff" stroke="#63b8ff" points="294.6,-93.34 284.35,-90.66 290.69,-99.15 294.6,-93.34"/>
</a>
</g>
</g>
<!-- Node3 -->
<g id="Node000003" class="node">
<title>Node3</title>
<g id="a_Node000003"><a xlink:href="AdvectiveFluxKernel__single__precision_8h.html" target="_top" xlink:title=" ">
<polygon fill="white" stroke="#666666" points="469,-96 352,-96 352,-66 469,-66 469,-96"/>
<text text-anchor="start" x="360" y="-84" font-family="Helvetica,sans-Serif" font-size="10.00">AdvectiveFluxKernel</text>
<text text-anchor="middle" x="410.5" y="-73" font-family="Helvetica,sans-Serif" font-size="10.00">_single_precision.h</text>
</a>
</g>
</g>
<!-- Node1&#45;&gt;Node3 -->
<g id="edge2_Node000001_Node000003" class="edge">
<title>Node1&#45;&gt;Node3</title>
<g id="a_edge2_Node000001_Node000003"><a xlink:title=" ">
<path fill="none" stroke="#63b8ff" d="M376.27,-131.8C381.79,-123.76 388.83,-113.53 395.08,-104.43"/>
<polygon fill="#63b8ff" stroke="#63b8ff" points="397.98,-106.39 400.76,-96.16 392.21,-102.42 397.98,-106.39"/>
</a>
</g>
</g>
<!-- Node4 -->
<g id="Node000004" class="node">
<title>Node4</title>
<g id="a_Node000004"><a xlink:title=" ">
<polygon fill="#e0e0e0" stroke="#999999" points="101,-24.5 0,-24.5 0,-5.5 101,-5.5 101,-24.5"/>
<text text-anchor="middle" x="50.5" y="-12.5" font-family="Helvetica,sans-Serif" font-size="10.00">core/DataTypes.h</text>
</a>
</g>
</g>
<!-- Node1&#45;&gt;Node4 -->
<g id="edge10_Node000001_Node000004" class="edge">
<title>Node1&#45;&gt;Node4</title>
<g id="a_edge10_Node000001_Node000004"><a xlink:title=" ">
<path fill="none" stroke="#63b8ff" d="M359.69,-131.84C350.09,-113.51 330.76,-81.99 304.5,-66 229.23,-20.16 195.74,-48.18 109.5,-30 104.79,-29.01 99.88,-27.92 94.99,-26.81"/>
<polygon fill="#63b8ff" stroke="#63b8ff" points="95.6,-23.36 85.06,-24.51 94.02,-30.18 95.6,-23.36"/>
</a>
</g>
</g>
<!-- Node11 -->
<g id="Node000011" class="node">
<title>Node11</title>
<g id="a_Node000011"><a xlink:title=" ">
<polygon fill="#e0e0e0" stroke="#999999" points="572,-90.5 487,-90.5 487,-71.5 572,-71.5 572,-90.5"/>
<text text-anchor="middle" x="529.5" y="-78.5" font-family="Helvetica,sans-Serif" font-size="10.00">core/Macros.h</text>
</a>
</g>
</g>
<!-- Node1&#45;&gt;Node11 -->
<g id="edge11_Node000001_Node000011" class="edge">
<title>Node1&#45;&gt;Node11</title>
<g id="a_edge11_Node000001_Node000011"><a xlink:title=" ">
<path fill="none" stroke="#63b8ff" d="M402.27,-131.95C430.98,-120.68 470.89,-105.01 498.31,-94.25"/>
<polygon fill="#63b8ff" stroke="#63b8ff" points="499.78,-97.43 507.81,-90.52 497.22,-90.91 499.78,-97.43"/>
</a>
</g>
</g>
<!-- Node3&#45;&gt;Node4 -->
<g id="edge3_Node000003_Node000004" class="edge">
<title>Node3&#45;&gt;Node4</title>
<g id="a_edge3_Node000003_Node000004"><a xlink:title=" ">
<path fill="none" stroke="#63b8ff" d="M351.96,-68.6C347.07,-67.7 342.2,-66.82 337.5,-66 236.44,-48.34 210.15,-49.86 109.5,-30 104.53,-29.02 99.34,-27.91 94.19,-26.76"/>
<polygon fill="#63b8ff" stroke="#63b8ff" points="94.94,-23.34 84.41,-24.51 93.37,-30.16 94.94,-23.34"/>
</a>
</g>
</g>
<!-- Node5 -->
<g id="Node000005" class="node">
<title>Node5</title>
<g id="a_Node000005"><a xlink:title=" ">
<polygon fill="#e0e0e0" stroke="#999999" points="250,-30 119,-30 119,0 250,0 250,-30"/>
<text text-anchor="start" x="127" y="-18" font-family="Helvetica,sans-Serif" font-size="10.00">domain_decomposition</text>
<text text-anchor="middle" x="184.5" y="-7" font-family="Helvetica,sans-Serif" font-size="10.00">/BlockDataID.h</text>
</a>
</g>
</g>
<!-- Node3&#45;&gt;Node5 -->
<g id="edge4_Node000003_Node000005" class="edge">
<title>Node3&#45;&gt;Node5</title>
<g id="a_edge4_Node000003_Node000005"><a xlink:title=" ">
<path fill="none" stroke="#63b8ff" d="M360.9,-65.95C326.46,-56.2 280.4,-43.16 243.98,-32.84"/>
<polygon fill="#63b8ff" stroke="#63b8ff" points="244.56,-29.37 233.98,-30.01 242.65,-36.1 244.56,-29.37"/>
</a>
</g>
</g>
<!-- Node6 -->
<g id="Node000006" class="node">
<title>Node6</title>
<g id="a_Node000006"><a xlink:title=" ">
<polygon fill="#e0e0e0" stroke="#999999" points="399,-30 268,-30 268,0 399,0 399,-30"/>
<text text-anchor="start" x="276" y="-18" font-family="Helvetica,sans-Serif" font-size="10.00">domain_decomposition</text>
<text text-anchor="middle" x="333.5" y="-7" font-family="Helvetica,sans-Serif" font-size="10.00">/IBlock.h</text>
</a>
</g>
</g>
<!-- Node3&#45;&gt;Node6 -->
<g id="edge5_Node000003_Node000006" class="edge">
<title>Node3&#45;&gt;Node6</title>
<g id="a_edge5_Node000003_Node000006"><a xlink:title=" ">
<path fill="none" stroke="#63b8ff" d="M393.41,-65.8C383.14,-57.26 369.9,-46.25 358.47,-36.75"/>
<polygon fill="#63b8ff" stroke="#63b8ff" points="360.47,-33.86 350.54,-30.16 355.99,-39.25 360.47,-33.86"/>
</a>
</g>
</g>
<!-- Node7 -->
<g id="Node000007" class="node">
<title>Node7</title>
<g id="a_Node000007"><a xlink:title=" ">
<polygon fill="#e0e0e0" stroke="#999999" points="560,-30 417,-30 417,0 560,0 560,-30"/>
<text text-anchor="start" x="425" y="-18" font-family="Helvetica,sans-Serif" font-size="10.00">domain_decomposition</text>
<text text-anchor="middle" x="488.5" y="-7" font-family="Helvetica,sans-Serif" font-size="10.00">/StructuredBlockStorage.h</text>
</a>
</g>
</g>
<!-- Node3&#45;&gt;Node7 -->
<g id="edge6_Node000003_Node000007" class="edge">
<title>Node3&#45;&gt;Node7</title>
<g id="a_edge6_Node000003_Node000007"><a xlink:title=" ">
<path fill="none" stroke="#63b8ff" d="M427.81,-65.8C438.21,-57.26 451.63,-46.25 463.21,-36.75"/>
<polygon fill="#63b8ff" stroke="#63b8ff" points="465.73,-39.21 471.24,-30.16 461.29,-33.8 465.73,-39.21"/>
</a>
</g>
</g>
<!-- Node8 -->
<g id="Node000008" class="node">
<title>Node8</title>
<g id="a_Node000008"><a xlink:title=" ">
<polygon fill="#e0e0e0" stroke="#999999" points="706.5,-24.5 578.5,-24.5 578.5,-5.5 706.5,-5.5 706.5,-24.5"/>
<text text-anchor="middle" x="642.5" y="-12.5" font-family="Helvetica,sans-Serif" font-size="10.00">field/GhostLayerField.h</text>
</a>
</g>
</g>
<!-- Node3&#45;&gt;Node8 -->
<g id="edge7_Node000003_Node000008" class="edge">
<title>Node3&#45;&gt;Node8</title>
<g id="a_edge7_Node000003_Node000008"><a xlink:title=" ">
<path fill="none" stroke="#63b8ff" d="M461.41,-65.95C503.53,-54.34 562.58,-38.05 601.65,-27.27"/>
<polygon fill="#63b8ff" stroke="#63b8ff" points="602.92,-30.55 611.62,-24.52 601.05,-23.8 602.92,-30.55"/>
</a>
</g>
</g>
<!-- Node9 -->
<g id="Node000009" class="node">
<title>Node9</title>
<g id="a_Node000009"><a xlink:title=" ">
<polygon fill="#e0e0e0" stroke="#999999" points="866,-24.5 725,-24.5 725,-5.5 866,-5.5 866,-24.5"/>
<text text-anchor="middle" x="795.5" y="-12.5" font-family="Helvetica,sans-Serif" font-size="10.00">field/SwapableCompare.h</text>
</a>
</g>
</g>
<!-- Node3&#45;&gt;Node9 -->
<g id="edge8_Node000003_Node000009" class="edge">
<title>Node3&#45;&gt;Node9</title>
<g id="a_edge8_Node000003_Node000009"><a xlink:title=" ">
<path fill="none" stroke="#63b8ff" d="M469.07,-67.74C472.26,-67.14 475.42,-66.55 478.5,-66 583.38,-47.25 610.35,-47.18 715.5,-30 722.68,-28.83 730.21,-27.56 737.66,-26.28"/>
<polygon fill="#63b8ff" stroke="#63b8ff" points="738.47,-29.69 747.73,-24.54 737.28,-22.8 738.47,-29.69"/>
</a>
</g>
</g>
<!-- Node10 -->
<g id="Node000010" class="node">
<title>Node10</title>
<g id="a_Node000010"><a xlink:title=" ">
<polygon fill="#e0e0e0" stroke="#999999" points="916.5,-24.5 884.5,-24.5 884.5,-5.5 916.5,-5.5 916.5,-24.5"/>
<text text-anchor="middle" x="900.5" y="-12.5" font-family="Helvetica,sans-Serif" font-size="10.00">set</text>
</a>
</g>
</g>
<!-- Node3&#45;&gt;Node10 -->
<g id="edge9_Node000003_Node000010" class="edge">
<title>Node3&#45;&gt;Node10</title>
<g id="a_edge9_Node000003_Node000010"><a xlink:title=" ">
<path fill="none" stroke="#63b8ff" d="M469.03,-67.51C472.23,-66.97 475.4,-66.46 478.5,-66 653.76,-40.1 706.27,-82.43 875.5,-30 876.55,-29.68 877.6,-29.3 878.64,-28.9"/>
<polygon fill="#63b8ff" stroke="#63b8ff" points="880.25,-32 887.73,-24.5 877.21,-25.7 880.25,-32"/>
</a>
</g>
</g>
</g>
</svg>
