<?xml version="1.0" encoding="UTF-8" standalone="no"?>
<!DOCTYPE svg PUBLIC "-//W3C//DTD SVG 1.1//EN"
 "http://www.w3.org/Graphics/SVG/1.1/DTD/svg11.dtd">
<!-- Generated by graphviz version 2.43.0 (0)
 -->
<!-- Title: angle_cosine.hpp Pages: 1 -->
<svg width="1755pt" height="401pt"
 viewBox="0.00 0.00 1754.50 401.00" xmlns="http://www.w3.org/2000/svg" xmlns:xlink="http://www.w3.org/1999/xlink">
<g id="graph0" class="graph" transform="scale(1 1) rotate(0) translate(4 397)">
<title>angle_cosine.hpp</title>
<!-- Node1 -->
<g id="Node000001" class="node">
<title>Node1</title>
<g id="a_Node000001"><a xlink:title="Routines to calculate the angle energy or/and and force for a particle triple using the potential des...">
<polygon fill="#999999" stroke="#666666" points="746.5,-393 645.5,-393 645.5,-374 746.5,-374 746.5,-393"/>
<text text-anchor="middle" x="696" y="-381" font-family="Helvetica,sans-Serif" font-size="10.00">angle_cosine.hpp</text>
</a>
</g>
</g>
<!-- Node2 -->
<g id="Node000002" class="node">
<title>Node2</title>
<g id="a_Node000002"><a xlink:href="BoxGeometry_8hpp.html" target="_top" xlink:title=" ">
<polygon fill="white" stroke="#666666" points="350,-338 246,-338 246,-319 350,-319 350,-338"/>
<text text-anchor="middle" x="298" y="-326" font-family="Helvetica,sans-Serif" font-size="10.00">BoxGeometry.hpp</text>
</a>
</g>
</g>
<!-- Node1&#45;&gt;Node2 -->
<g id="edge1_Node000001_Node000002" class="edge">
<title>Node1&#45;&gt;Node2</title>
<g id="a_edge1_Node000001_Node000002"><a xlink:title=" ">
<path fill="none" stroke="#63b8ff" d="M645.19,-375.73C572.49,-366.05 438.91,-348.26 360.33,-337.8"/>
<polygon fill="#63b8ff" stroke="#63b8ff" points="360.46,-334.29 350.09,-336.44 359.54,-341.23 360.46,-334.29"/>
</a>
</g>
</g>
<!-- Node4 -->
<g id="Node000004" class="node">
<title>Node4</title>
<g id="a_Node000004"><a xlink:title=" ">
<polygon fill="#e0e0e0" stroke="#999999" points="435.5,-151 388.5,-151 388.5,-132 435.5,-132 435.5,-151"/>
<text text-anchor="middle" x="412" y="-139" font-family="Helvetica,sans-Serif" font-size="10.00">cmath</text>
</a>
</g>
</g>
<!-- Node1&#45;&gt;Node4 -->
<g id="edge68_Node000001_Node000004" class="edge">
<title>Node1&#45;&gt;Node4</title>
<g id="a_edge68_Node000001_Node000004"><a xlink:title=" ">
<path fill="none" stroke="#63b8ff" d="M645.35,-378.64C584.32,-371.1 483.46,-348.81 431,-283 402.83,-247.66 405.29,-190.73 408.94,-161.37"/>
<polygon fill="#63b8ff" stroke="#63b8ff" points="412.44,-161.64 410.39,-151.24 405.51,-160.65 412.44,-161.64"/>
</a>
</g>
</g>
<!-- Node10 -->
<g id="Node000010" class="node">
<title>Node10</title>
<g id="a_Node000010"><a xlink:href="Vector_8hpp.html" target="_top" xlink:title="Vector implementation and trait types for boost qvm interoperability.">
<polygon fill="white" stroke="#666666" points="793,-211.5 701,-211.5 701,-192.5 793,-192.5 793,-211.5"/>
<text text-anchor="middle" x="747" y="-199.5" font-family="Helvetica,sans-Serif" font-size="10.00">utils/Vector.hpp</text>
</a>
</g>
</g>
<!-- Node1&#45;&gt;Node10 -->
<g id="edge65_Node000001_Node000010" class="edge">
<title>Node1&#45;&gt;Node10</title>
<g id="a_edge65_Node000001_Node000010"><a xlink:title=" ">
<path fill="none" stroke="#63b8ff" d="M700.78,-373.88C705.48,-365.08 712.57,-350.93 717,-338 730.82,-297.63 739.91,-248.26 744.18,-221.83"/>
<polygon fill="#63b8ff" stroke="#63b8ff" points="747.67,-222.13 745.75,-211.71 740.75,-221.05 747.67,-222.13"/>
</a>
</g>
</g>
<!-- Node39 -->
<g id="Node000039" class="node">
<title>Node39</title>
<g id="a_Node000039"><a xlink:href="angle__common_8hpp.html" target="_top" xlink:title="Common code for functions calculating angle forces.">
<polygon fill="white" stroke="#666666" points="877.5,-277.5 764.5,-277.5 764.5,-258.5 877.5,-258.5 877.5,-277.5"/>
<text text-anchor="middle" x="821" y="-265.5" font-family="Helvetica,sans-Serif" font-size="10.00">angle_common.hpp</text>
</a>
</g>
</g>
<!-- Node1&#45;&gt;Node39 -->
<g id="edge58_Node000001_Node000039" class="edge">
<title>Node1&#45;&gt;Node39</title>
<g id="a_edge58_Node000001_Node000039"><a xlink:title=" ">
<path fill="none" stroke="#63b8ff" d="M706.98,-373.89C718.05,-365.11 735.52,-350.96 750,-338 769.67,-320.39 791.29,-299.08 805.44,-284.85"/>
<polygon fill="#63b8ff" stroke="#63b8ff" points="807.93,-287.3 812.47,-277.73 802.95,-282.38 807.93,-287.3"/>
</a>
</g>
</g>
<!-- Node42 -->
<g id="Node000042" class="node">
<title>Node42</title>
<g id="a_Node000042"><a xlink:title=" ">
<polygon fill="#e0e0e0" stroke="#999999" points="1007.5,-211.5 966.5,-211.5 966.5,-192.5 1007.5,-192.5 1007.5,-211.5"/>
<text text-anchor="middle" x="987" y="-199.5" font-family="Helvetica,sans-Serif" font-size="10.00">tuple</text>
</a>
</g>
</g>
<!-- Node1&#45;&gt;Node42 -->
<g id="edge69_Node000001_Node000042" class="edge">
<title>Node1&#45;&gt;Node42</title>
<g id="a_edge69_Node000001_Node000042"><a xlink:title=" ">
<path fill="none" stroke="#63b8ff" d="M715.39,-373.93C750.7,-358 827.32,-321.89 887,-283 917.83,-262.91 950.59,-235.36 969.9,-218.39"/>
<polygon fill="#63b8ff" stroke="#63b8ff" points="972.39,-220.87 977.54,-211.61 967.74,-215.63 972.39,-220.87"/>
</a>
</g>
</g>
<!-- Node43 -->
<g id="Node000043" class="node">
<title>Node43</title>
<g id="a_Node000043"><a xlink:href="sqr_8hpp.html" target="_top" xlink:title=" ">
<polygon fill="white" stroke="#666666" points="708,-338 604,-338 604,-319 708,-319 708,-338"/>
<text text-anchor="middle" x="656" y="-326" font-family="Helvetica,sans-Serif" font-size="10.00">utils/math/sqr.hpp</text>
</a>
</g>
</g>
<!-- Node1&#45;&gt;Node43 -->
<g id="edge66_Node000001_Node000043" class="edge">
<title>Node1&#45;&gt;Node43</title>
<g id="a_edge66_Node000001_Node000043"><a xlink:title=" ">
<path fill="none" stroke="#63b8ff" d="M689.39,-373.75C683.74,-366.26 675.46,-355.28 668.55,-346.13"/>
<polygon fill="#63b8ff" stroke="#63b8ff" points="671.3,-343.96 662.48,-338.09 665.71,-348.18 671.3,-343.96"/>
</a>
</g>
</g>
<!-- Node3 -->
<g id="Node000003" class="node">
<title>Node3</title>
<g id="a_Node000003"><a xlink:href="periodic__fold_8hpp.html" target="_top" xlink:title=" ">
<polygon fill="white" stroke="#666666" points="208,-217 102,-217 102,-187 208,-187 208,-217"/>
<text text-anchor="start" x="110" y="-205" font-family="Helvetica,sans-Serif" font-size="10.00">algorithm/periodic</text>
<text text-anchor="middle" x="155" y="-194" font-family="Helvetica,sans-Serif" font-size="10.00">_fold.hpp</text>
</a>
</g>
</g>
<!-- Node2&#45;&gt;Node3 -->
<g id="edge2_Node000002_Node000003" class="edge">
<title>Node2&#45;&gt;Node3</title>
<g id="a_edge2_Node000002_Node000003"><a xlink:title=" ">
<path fill="none" stroke="#63b8ff" d="M292.93,-318.81C283.95,-303.93 263.97,-273.24 241,-253 227.26,-240.9 210.16,-230.25 194.83,-221.92"/>
<polygon fill="#63b8ff" stroke="#63b8ff" points="196.04,-218.6 185.56,-217.04 192.78,-224.79 196.04,-218.6"/>
</a>
</g>
</g>
<!-- Node2&#45;&gt;Node4 -->
<g id="edge54_Node000002_Node000004" class="edge">
<title>Node2&#45;&gt;Node4</title>
<g id="a_edge54_Node000002_Node000004"><a xlink:title=" ">
<path fill="none" stroke="#63b8ff" d="M310.99,-318.93C322.48,-310.81 339.08,-297.69 350,-283 365.29,-262.44 392.57,-193.56 405.22,-160.5"/>
<polygon fill="#63b8ff" stroke="#63b8ff" points="408.49,-161.72 408.77,-151.13 401.95,-159.24 408.49,-161.72"/>
</a>
</g>
</g>
<!-- Node6 -->
<g id="Node000006" class="node">
<title>Node6</title>
<g id="a_Node000006"><a xlink:title=" ">
<polygon fill="#e0e0e0" stroke="#999999" points="72,-151 28,-151 28,-132 72,-132 72,-151"/>
<text text-anchor="middle" x="50" y="-139" font-family="Helvetica,sans-Serif" font-size="10.00">limits</text>
</a>
</g>
</g>
<!-- Node2&#45;&gt;Node6 -->
<g id="edge55_Node000002_Node000006" class="edge">
<title>Node2&#45;&gt;Node6</title>
<g id="a_edge55_Node000002_Node000006"><a xlink:title=" ">
<path fill="none" stroke="#63b8ff" d="M245.55,-320.88C196.14,-313.68 126.7,-300.78 106,-283 69.08,-251.29 56.27,-191.86 52.01,-161.46"/>
<polygon fill="#63b8ff" stroke="#63b8ff" points="55.46,-160.85 50.76,-151.35 48.51,-161.71 55.46,-160.85"/>
</a>
</g>
</g>
<!-- Node8 -->
<g id="Node000008" class="node">
<title>Node8</title>
<g id="a_Node000008"><a xlink:title=" ">
<polygon fill="#e0e0e0" stroke="#999999" points="265.5,-24.5 220.5,-24.5 220.5,-5.5 265.5,-5.5 265.5,-24.5"/>
<text text-anchor="middle" x="243" y="-12.5" font-family="Helvetica,sans-Serif" font-size="10.00">utility</text>
</a>
</g>
</g>
<!-- Node2&#45;&gt;Node8 -->
<g id="edge57_Node000002_Node000008" class="edge">
<title>Node2&#45;&gt;Node8</title>
<g id="a_edge57_Node000002_Node000008"><a xlink:title=" ">
<path fill="none" stroke="#63b8ff" d="M245.75,-328.12C160.29,-326.1 0,-308.27 0,-203 0,-203 0,-203 0,-140.5 0,-47.33 143.25,-23.84 209.78,-17.95"/>
<polygon fill="#63b8ff" stroke="#63b8ff" points="210.45,-21.41 220.14,-17.12 209.89,-14.43 210.45,-21.41"/>
</a>
</g>
</g>
<!-- Node9 -->
<g id="Node000009" class="node">
<title>Node9</title>
<g id="a_Node000009"><a xlink:href="LeesEdwardsBC_8hpp.html" target="_top" xlink:title=" ">
<polygon fill="white" stroke="#666666" points="590,-283 440,-283 440,-253 590,-253 590,-283"/>
<text text-anchor="start" x="448" y="-271" font-family="Helvetica,sans-Serif" font-size="10.00">lees_edwards/LeesEdwards</text>
<text text-anchor="middle" x="515" y="-260" font-family="Helvetica,sans-Serif" font-size="10.00">BC.hpp</text>
</a>
</g>
</g>
<!-- Node2&#45;&gt;Node9 -->
<g id="edge8_Node000002_Node000009" class="edge">
<title>Node2&#45;&gt;Node9</title>
<g id="a_edge8_Node000002_Node000009"><a xlink:title=" ">
<path fill="none" stroke="#63b8ff" d="M329.55,-318.99C361.81,-310.3 412.75,-296.57 453.08,-285.69"/>
<polygon fill="#63b8ff" stroke="#63b8ff" points="454.09,-289.05 462.83,-283.06 452.26,-282.29 454.09,-289.05"/>
</a>
</g>
</g>
<!-- Node2&#45;&gt;Node10 -->
<g id="edge50_Node000002_Node000010" class="edge">
<title>Node2&#45;&gt;Node10</title>
<g id="a_edge50_Node000002_Node000010"><a xlink:title=" ">
<path fill="none" stroke="#63b8ff" d="M350.13,-325.29C411.17,-321.46 514.67,-311.06 599,-283 647.31,-266.93 698.44,-235.66 726.16,-217.33"/>
<polygon fill="#63b8ff" stroke="#63b8ff" points="728.27,-220.13 734.62,-211.66 724.37,-214.32 728.27,-220.13"/>
</a>
</g>
</g>
<!-- Node15 -->
<g id="Node000015" class="node">
<title>Node15</title>
<g id="a_Node000015"><a xlink:title=" ">
<polygon fill="#e0e0e0" stroke="#999999" points="542,-24.5 490,-24.5 490,-5.5 542,-5.5 542,-24.5"/>
<text text-anchor="middle" x="516" y="-12.5" font-family="Helvetica,sans-Serif" font-size="10.00">cassert</text>
</a>
</g>
</g>
<!-- Node2&#45;&gt;Node15 -->
<g id="edge53_Node000002_Node000015" class="edge">
<title>Node2&#45;&gt;Node15</title>
<g id="a_edge53_Node000002_Node000015"><a xlink:title=" ">
<path fill="none" stroke="#63b8ff" d="M297.39,-318.98C294.21,-274.53 279.93,-71.04 284,-66 308.17,-36.06 420.58,-23.19 479.59,-18.42"/>
<polygon fill="#63b8ff" stroke="#63b8ff" points="479.92,-21.91 489.62,-17.65 479.38,-14.93 479.92,-21.91"/>
</a>
</g>
</g>
<!-- Node30 -->
<g id="Node000030" class="node">
<title>Node30</title>
<g id="a_Node000030"><a xlink:title=" ">
<polygon fill="#e0e0e0" stroke="#999999" points="357.5,-90.5 292.5,-90.5 292.5,-71.5 357.5,-71.5 357.5,-90.5"/>
<text text-anchor="middle" x="325" y="-78.5" font-family="Helvetica,sans-Serif" font-size="10.00">stdexcept</text>
</a>
</g>
</g>
<!-- Node2&#45;&gt;Node30 -->
<g id="edge56_Node000002_Node000030" class="edge">
<title>Node2&#45;&gt;Node30</title>
<g id="a_edge56_Node000002_Node000030"><a xlink:title=" ">
<path fill="none" stroke="#63b8ff" d="M298.96,-318.76C302.85,-283.42 317.46,-150.54 322.92,-100.88"/>
<polygon fill="#63b8ff" stroke="#63b8ff" points="326.44,-100.96 324.05,-90.63 319.48,-100.19 326.44,-100.96"/>
</a>
</g>
</g>
<!-- Node37 -->
<g id="Node000037" class="node">
<title>Node37</title>
<g id="a_Node000037"><a xlink:title=" ">
<polygon fill="#e0e0e0" stroke="#999999" points="270,-211.5 226,-211.5 226,-192.5 270,-192.5 270,-211.5"/>
<text text-anchor="middle" x="248" y="-199.5" font-family="Helvetica,sans-Serif" font-size="10.00">bitset</text>
</a>
</g>
</g>
<!-- Node2&#45;&gt;Node37 -->
<g id="edge52_Node000002_Node000037" class="edge">
<title>Node2&#45;&gt;Node37</title>
<g id="a_edge52_Node000002_Node000037"><a xlink:title=" ">
<path fill="none" stroke="#63b8ff" d="M245.84,-321.88C197.89,-315.5 131.92,-303.28 116,-283 107.77,-272.51 108.32,-263.9 116,-253 143.46,-214.05 172.8,-234.82 217,-217 218.17,-216.53 219.36,-216.04 220.56,-215.53"/>
<polygon fill="#63b8ff" stroke="#63b8ff" points="221.97,-218.74 229.75,-211.54 219.18,-212.32 221.97,-218.74"/>
</a>
</g>
</g>
<!-- Node38 -->
<g id="Node000038" class="node">
<title>Node38</title>
<g id="a_Node000038"><a xlink:href="sgn_8hpp.html" target="_top" xlink:title=" ">
<polygon fill="white" stroke="#666666" points="231.5,-277.5 124.5,-277.5 124.5,-258.5 231.5,-258.5 231.5,-277.5"/>
<text text-anchor="middle" x="178" y="-265.5" font-family="Helvetica,sans-Serif" font-size="10.00">utils/math/sgn.hpp</text>
</a>
</g>
</g>
<!-- Node2&#45;&gt;Node38 -->
<g id="edge51_Node000002_Node000038" class="edge">
<title>Node2&#45;&gt;Node38</title>
<g id="a_edge51_Node000002_Node000038"><a xlink:title=" ">
<path fill="none" stroke="#63b8ff" d="M280.55,-318.99C260.64,-309.29 227.86,-293.31 204.73,-282.03"/>
<polygon fill="#63b8ff" stroke="#63b8ff" points="205.99,-278.75 195.47,-277.52 202.93,-285.04 205.99,-278.75"/>
</a>
</g>
</g>
<!-- Node3&#45;&gt;Node4 -->
<g id="edge3_Node000003_Node000004" class="edge">
<title>Node3&#45;&gt;Node4</title>
<g id="a_edge3_Node000003_Node000004"><a xlink:title=" ">
<path fill="none" stroke="#63b8ff" d="M208.25,-188.88C259.32,-177.25 334.88,-160.06 378.19,-150.2"/>
<polygon fill="#63b8ff" stroke="#63b8ff" points="379.24,-153.55 388.21,-147.92 377.68,-146.72 379.24,-153.55"/>
</a>
</g>
</g>
<!-- Node5 -->
<g id="Node000005" class="node">
<title>Node5</title>
<g id="a_Node000005"><a xlink:title=" ">
<polygon fill="#e0e0e0" stroke="#999999" points="188,-151 128,-151 128,-132 188,-132 188,-151"/>
<text text-anchor="middle" x="158" y="-139" font-family="Helvetica,sans-Serif" font-size="10.00">concepts</text>
</a>
</g>
</g>
<!-- Node3&#45;&gt;Node5 -->
<g id="edge4_Node000003_Node000005" class="edge">
<title>Node3&#45;&gt;Node5</title>
<g id="a_edge4_Node000003_Node000005"><a xlink:title=" ">
<path fill="none" stroke="#63b8ff" d="M155.73,-186.84C156.12,-179.21 156.6,-169.7 157.03,-161.45"/>
<polygon fill="#63b8ff" stroke="#63b8ff" points="160.53,-161.43 157.55,-151.27 153.54,-161.07 160.53,-161.43"/>
</a>
</g>
</g>
<!-- Node3&#45;&gt;Node6 -->
<g id="edge5_Node000003_Node000006" class="edge">
<title>Node3&#45;&gt;Node6</title>
<g id="a_edge5_Node000003_Node000006"><a xlink:title=" ">
<path fill="none" stroke="#63b8ff" d="M129.85,-186.99C113.11,-177.66 91.23,-165.47 74.61,-156.21"/>
<polygon fill="#63b8ff" stroke="#63b8ff" points="75.95,-152.95 65.51,-151.14 72.54,-159.06 75.95,-152.95"/>
</a>
</g>
</g>
<!-- Node7 -->
<g id="Node000007" class="node">
<title>Node7</title>
<g id="a_Node000007"><a xlink:title=" ">
<polygon fill="#e0e0e0" stroke="#999999" points="275.5,-151 206.5,-151 206.5,-132 275.5,-132 275.5,-151"/>
<text text-anchor="middle" x="241" y="-139" font-family="Helvetica,sans-Serif" font-size="10.00">type_traits</text>
</a>
</g>
</g>
<!-- Node3&#45;&gt;Node7 -->
<g id="edge6_Node000003_Node000007" class="edge">
<title>Node3&#45;&gt;Node7</title>
<g id="a_edge6_Node000003_Node000007"><a xlink:title=" ">
<path fill="none" stroke="#63b8ff" d="M175.82,-186.84C189.15,-177.77 206.39,-166.04 219.79,-156.92"/>
<polygon fill="#63b8ff" stroke="#63b8ff" points="222.07,-159.61 228.37,-151.09 218.13,-153.83 222.07,-159.61"/>
</a>
</g>
</g>
<!-- Node3&#45;&gt;Node8 -->
<g id="edge7_Node000003_Node000008" class="edge">
<title>Node3&#45;&gt;Node8</title>
<g id="a_edge7_Node000003_Node000008"><a xlink:title=" ">
<path fill="none" stroke="#63b8ff" d="M139.22,-186.76C126.01,-173 110.56,-151.46 119,-132 139.31,-85.19 188.84,-48.65 218.8,-29.89"/>
<polygon fill="#63b8ff" stroke="#63b8ff" points="220.69,-32.84 227.41,-24.65 217.05,-26.86 220.69,-32.84"/>
</a>
</g>
</g>
<!-- Node9&#45;&gt;Node4 -->
<g id="edge48_Node000009_Node000004" class="edge">
<title>Node9&#45;&gt;Node4</title>
<g id="a_edge48_Node000009_Node000004"><a xlink:title=" ">
<path fill="none" stroke="#63b8ff" d="M503.18,-252.72C483.9,-229.41 445.77,-183.33 425.47,-158.78"/>
<polygon fill="#63b8ff" stroke="#63b8ff" points="428.16,-156.54 419.09,-151.07 422.77,-161.01 428.16,-156.54"/>
</a>
</g>
</g>
<!-- Node9&#45;&gt;Node10 -->
<g id="edge9_Node000009_Node000010" class="edge">
<title>Node9&#45;&gt;Node10</title>
<g id="a_edge9_Node000009_Node000010"><a xlink:title=" ">
<path fill="none" stroke="#63b8ff" d="M565.91,-252.95C608.03,-241.34 667.08,-225.05 706.15,-214.27"/>
<polygon fill="#63b8ff" stroke="#63b8ff" points="707.42,-217.55 716.12,-211.52 705.55,-210.8 707.42,-217.55"/>
</a>
</g>
</g>
<!-- Node33 -->
<g id="Node000033" class="node">
<title>Node33</title>
<g id="a_Node000033"><a xlink:title=" ">
<polygon fill="#e0e0e0" stroke="#999999" points="575.5,-151 492.5,-151 492.5,-132 575.5,-132 575.5,-151"/>
<text text-anchor="middle" x="534" y="-139" font-family="Helvetica,sans-Serif" font-size="10.00">initializer_list</text>
</a>
</g>
</g>
<!-- Node9&#45;&gt;Node33 -->
<g id="edge49_Node000009_Node000033" class="edge">
<title>Node9&#45;&gt;Node33</title>
<g id="a_edge49_Node000009_Node000033"><a xlink:title=" ">
<path fill="none" stroke="#63b8ff" d="M517.18,-252.72C520.63,-230.12 527.34,-186.12 531.16,-161.09"/>
<polygon fill="#63b8ff" stroke="#63b8ff" points="534.64,-161.48 532.69,-151.07 527.72,-160.43 534.64,-161.48"/>
</a>
</g>
</g>
<!-- Node9&#45;&gt;Node37 -->
<g id="edge47_Node000009_Node000037" class="edge">
<title>Node9&#45;&gt;Node37</title>
<g id="a_edge47_Node000009_Node000037"><a xlink:title=" ">
<path fill="none" stroke="#63b8ff" d="M456.41,-252.95C402.12,-239.94 323.4,-221.07 279.9,-210.65"/>
<polygon fill="#63b8ff" stroke="#63b8ff" points="280.68,-207.24 270.14,-208.31 279.05,-214.04 280.68,-207.24"/>
</a>
</g>
</g>
<!-- Node10&#45;&gt;Node4 -->
<g id="edge38_Node000010_Node000004" class="edge">
<title>Node10&#45;&gt;Node4</title>
<g id="a_edge38_Node000010_Node000004"><a xlink:title=" ">
<path fill="none" stroke="#63b8ff" d="M700.77,-192.93C632.53,-181.01 506.42,-158.99 446,-148.44"/>
<polygon fill="#63b8ff" stroke="#63b8ff" points="446.31,-144.94 435.86,-146.67 445.1,-151.83 446.31,-144.94"/>
</a>
</g>
</g>
<!-- Node10&#45;&gt;Node7 -->
<g id="edge45_Node000010_Node000007" class="edge">
<title>Node10&#45;&gt;Node7</title>
<g id="a_edge45_Node000010_Node000007"><a xlink:title=" ">
<path fill="none" stroke="#63b8ff" d="M700.75,-195.65C603.99,-184.47 381.24,-158.71 285.77,-147.68"/>
<polygon fill="#63b8ff" stroke="#63b8ff" points="285.92,-144.17 275.58,-146.5 285.12,-151.12 285.92,-144.17"/>
</a>
</g>
</g>
<!-- Node11 -->
<g id="Node000011" class="node">
<title>Node11</title>
<g id="a_Node000011"><a xlink:title=" ">
<polygon fill="#e0e0e0" stroke="#999999" points="1401,-151 1251,-151 1251,-132 1401,-132 1401,-151"/>
<text text-anchor="middle" x="1326" y="-139" font-family="Helvetica,sans-Serif" font-size="10.00">boost/qvm/deduce_vec.hpp</text>
</a>
</g>
</g>
<!-- Node10&#45;&gt;Node11 -->
<g id="edge10_Node000010_Node000011" class="edge">
<title>Node10&#45;&gt;Node11</title>
<g id="a_edge10_Node000010_Node000011"><a xlink:title=" ">
<path fill="none" stroke="#63b8ff" d="M779.53,-192.49C788.39,-190.43 798.02,-188.41 807,-187 995.8,-157.34 1047.63,-168.5 1240.7,-151.19"/>
<polygon fill="#63b8ff" stroke="#63b8ff" points="1241.26,-154.65 1250.91,-150.26 1240.63,-147.68 1241.26,-154.65"/>
</a>
</g>
</g>
<!-- Node12 -->
<g id="Node000012" class="node">
<title>Node12</title>
<g id="a_Node000012"><a xlink:title=" ">
<polygon fill="#e0e0e0" stroke="#999999" points="914,-151 774,-151 774,-132 914,-132 914,-151"/>
<text text-anchor="middle" x="844" y="-139" font-family="Helvetica,sans-Serif" font-size="10.00">boost/qvm/vec_traits.hpp</text>
</a>
</g>
</g>
<!-- Node10&#45;&gt;Node12 -->
<g id="edge11_Node000010_Node000012" class="edge">
<title>Node10&#45;&gt;Node12</title>
<g id="a_edge11_Node000010_Node000012"><a xlink:title=" ">
<path fill="none" stroke="#63b8ff" d="M761.31,-192.37C777,-182.91 802.4,-167.59 820.91,-156.42"/>
<polygon fill="#63b8ff" stroke="#63b8ff" points="822.87,-159.33 829.63,-151.17 819.26,-153.33 822.87,-159.33"/>
</a>
</g>
</g>
<!-- Node13 -->
<g id="Node000013" class="node">
<title>Node13</title>
<g id="a_Node000013"><a xlink:href="Array_8hpp.html" target="_top" xlink:title="Array implementation with CUDA support.">
<polygon fill="white" stroke="#666666" points="718,-151 632,-151 632,-132 718,-132 718,-151"/>
<text text-anchor="middle" x="675" y="-139" font-family="Helvetica,sans-Serif" font-size="10.00">utils/Array.hpp</text>
</a>
</g>
</g>
<!-- Node10&#45;&gt;Node13 -->
<g id="edge12_Node000010_Node000013" class="edge">
<title>Node10&#45;&gt;Node13</title>
<g id="a_edge12_Node000010_Node000013"><a xlink:title=" ">
<path fill="none" stroke="#63b8ff" d="M736.38,-192.37C725.1,-183.21 707.08,-168.56 693.47,-157.51"/>
<polygon fill="#63b8ff" stroke="#63b8ff" points="695.64,-154.76 685.67,-151.17 691.22,-160.19 695.64,-154.76"/>
</a>
</g>
</g>
<!-- Node10&#45;&gt;Node15 -->
<g id="edge37_Node000010_Node000015" class="edge">
<title>Node10&#45;&gt;Node15</title>
<g id="a_edge37_Node000010_Node000015"><a xlink:title=" ">
<path fill="none" stroke="#63b8ff" d="M747.19,-192.47C747.91,-178.48 751.13,-150.38 765,-132 783.96,-106.87 810.39,-123.34 826,-96 832.61,-84.42 834.67,-76.13 826,-66 792.52,-26.85 647.83,-38.39 597,-30 582.41,-27.59 566.37,-24.84 552.43,-22.42"/>
<polygon fill="#63b8ff" stroke="#63b8ff" points="552.7,-18.91 542.25,-20.64 551.5,-25.81 552.7,-18.91"/>
</a>
</g>
</g>
<!-- Node16 -->
<g id="Node000016" class="node">
<title>Node16</title>
<g id="a_Node000016"><a xlink:href="get_8hpp.html" target="_top" xlink:title=" ">
<polygon fill="white" stroke="#666666" points="599.5,-90.5 546.5,-90.5 546.5,-71.5 599.5,-71.5 599.5,-90.5"/>
<text text-anchor="middle" x="573" y="-78.5" font-family="Helvetica,sans-Serif" font-size="10.00">get.hpp</text>
</a>
</g>
</g>
<!-- Node10&#45;&gt;Node16 -->
<g id="edge35_Node000010_Node000016" class="edge">
<title>Node10&#45;&gt;Node16</title>
<g id="a_edge35_Node000010_Node000016"><a xlink:title=" ">
<path fill="none" stroke="#63b8ff" d="M711.69,-192.48C685.28,-184.83 649.33,-171.59 623,-151 605.22,-137.1 590.87,-115.26 582.18,-99.88"/>
<polygon fill="#63b8ff" stroke="#63b8ff" points="585.14,-97.99 577.31,-90.85 578.98,-101.32 585.14,-97.99"/>
</a>
</g>
</g>
<!-- Node17 -->
<g id="Node000017" class="node">
<title>Node17</title>
<g id="a_Node000017"><a xlink:title=" ">
<polygon fill="#e0e0e0" stroke="#999999" points="658.5,-24.5 605.5,-24.5 605.5,-5.5 658.5,-5.5 658.5,-24.5"/>
<text text-anchor="middle" x="632" y="-12.5" font-family="Helvetica,sans-Serif" font-size="10.00">cstddef</text>
</a>
</g>
</g>
<!-- Node10&#45;&gt;Node17 -->
<g id="edge39_Node000010_Node000017" class="edge">
<title>Node10&#45;&gt;Node17</title>
<g id="a_edge39_Node000010_Node000017"><a xlink:title=" ">
<path fill="none" stroke="#63b8ff" d="M786.19,-192.48C835.45,-181.38 914.62,-162.09 923,-151 935.25,-134.79 953.36,-103.83 918,-66 879.67,-25 722.29,-44.26 668,-30 665.7,-29.4 663.35,-28.69 661,-27.92"/>
<polygon fill="#63b8ff" stroke="#63b8ff" points="662.13,-24.61 651.54,-24.53 659.77,-31.2 662.13,-24.61"/>
</a>
</g>
</g>
<!-- Node28 -->
<g id="Node000028" class="node">
<title>Node28</title>
<g id="a_Node000028"><a xlink:title=" ">
<polygon fill="#e0e0e0" stroke="#999999" points="1340.5,-90.5 1287.5,-90.5 1287.5,-71.5 1340.5,-71.5 1340.5,-90.5"/>
<text text-anchor="middle" x="1314" y="-78.5" font-family="Helvetica,sans-Serif" font-size="10.00">iterator</text>
</a>
</g>
</g>
<!-- Node10&#45;&gt;Node28 -->
<g id="edge42_Node000010_Node000028" class="edge">
<title>Node10&#45;&gt;Node28</title>
<g id="a_edge42_Node000010_Node000028"><a xlink:title=" ">
<path fill="none" stroke="#63b8ff" d="M779.19,-192.43C788.14,-190.34 797.9,-188.32 807,-187 873.42,-177.34 1363.98,-199.85 1410,-151 1433.22,-126.35 1386.64,-104.81 1350.58,-92.62"/>
<polygon fill="#63b8ff" stroke="#63b8ff" points="1351.35,-89.19 1340.75,-89.43 1349.19,-95.84 1351.35,-89.19"/>
</a>
</g>
</g>
<!-- Node31 -->
<g id="Node000031" class="node">
<title>Node31</title>
<g id="a_Node000031"><a xlink:title=" ">
<polygon fill="#e0e0e0" stroke="#999999" points="1521,-151 1457,-151 1457,-132 1521,-132 1521,-151"/>
<text text-anchor="middle" x="1489" y="-139" font-family="Helvetica,sans-Serif" font-size="10.00">algorithm</text>
</a>
</g>
</g>
<!-- Node10&#45;&gt;Node31 -->
<g id="edge36_Node000010_Node000031" class="edge">
<title>Node10&#45;&gt;Node31</title>
<g id="a_edge36_Node000010_Node000031"><a xlink:title=" ">
<path fill="none" stroke="#63b8ff" d="M778.88,-192.48C787.91,-190.37 797.79,-188.33 807,-187 1087.23,-146.68 1161.9,-184.79 1443,-151 1444.27,-150.85 1445.56,-150.68 1446.86,-150.5"/>
<polygon fill="#63b8ff" stroke="#63b8ff" points="1447.55,-153.94 1456.91,-148.96 1446.49,-147.02 1447.55,-153.94"/>
</a>
</g>
</g>
<!-- Node32 -->
<g id="Node000032" class="node">
<title>Node32</title>
<g id="a_Node000032"><a xlink:title=" ">
<polygon fill="#e0e0e0" stroke="#999999" points="1035.5,-151 970.5,-151 970.5,-132 1035.5,-132 1035.5,-151"/>
<text text-anchor="middle" x="1003" y="-139" font-family="Helvetica,sans-Serif" font-size="10.00">functional</text>
</a>
</g>
</g>
<!-- Node10&#45;&gt;Node32 -->
<g id="edge40_Node000010_Node000032" class="edge">
<title>Node10&#45;&gt;Node32</title>
<g id="a_edge40_Node000010_Node000032"><a xlink:title=" ">
<path fill="none" stroke="#63b8ff" d="M783.48,-192.45C791.24,-190.64 799.39,-188.75 807,-187 859.87,-174.83 920.81,-161.03 960.52,-152.07"/>
<polygon fill="#63b8ff" stroke="#63b8ff" points="961.4,-155.46 970.39,-149.84 959.86,-148.63 961.4,-155.46"/>
</a>
</g>
</g>
<!-- Node10&#45;&gt;Node33 -->
<g id="edge41_Node000010_Node000033" class="edge">
<title>Node10&#45;&gt;Node33</title>
<g id="a_edge41_Node000010_Node000033"><a xlink:title=" ">
<path fill="none" stroke="#63b8ff" d="M716.03,-192.49C678.72,-182.25 615.94,-165 574.73,-153.69"/>
<polygon fill="#63b8ff" stroke="#63b8ff" points="575.58,-150.29 565.01,-151.02 573.73,-157.04 575.58,-150.29"/>
</a>
</g>
</g>
<!-- Node34 -->
<g id="Node000034" class="node">
<title>Node34</title>
<g id="a_Node000034"><a xlink:title=" ">
<polygon fill="#e0e0e0" stroke="#999999" points="1110,-151 1054,-151 1054,-132 1110,-132 1110,-151"/>
<text text-anchor="middle" x="1082" y="-139" font-family="Helvetica,sans-Serif" font-size="10.00">numeric</text>
</a>
</g>
</g>
<!-- Node10&#45;&gt;Node34 -->
<g id="edge43_Node000010_Node000034" class="edge">
<title>Node10&#45;&gt;Node34</title>
<g id="a_edge43_Node000010_Node000034"><a xlink:title=" ">
<path fill="none" stroke="#63b8ff" d="M781.48,-192.46C789.81,-190.54 798.7,-188.59 807,-187 908.88,-167.44 938.15,-170.76 1043.66,-151.13"/>
<polygon fill="#63b8ff" stroke="#63b8ff" points="1044.59,-154.51 1053.76,-149.22 1043.29,-147.63 1044.59,-154.51"/>
</a>
</g>
</g>
<!-- Node35 -->
<g id="Node000035" class="node">
<title>Node35</title>
<g id="a_Node000035"><a xlink:title=" ">
<polygon fill="#e0e0e0" stroke="#999999" points="1168,-151 1128,-151 1128,-132 1168,-132 1168,-151"/>
<text text-anchor="middle" x="1148" y="-139" font-family="Helvetica,sans-Serif" font-size="10.00">span</text>
</a>
</g>
</g>
<!-- Node10&#45;&gt;Node35 -->
<g id="edge44_Node000010_Node000035" class="edge">
<title>Node10&#45;&gt;Node35</title>
<g id="a_edge44_Node000010_Node000035"><a xlink:title=" ">
<path fill="none" stroke="#63b8ff" d="M780.5,-192.47C789.1,-190.48 798.36,-188.5 807,-187 941.3,-163.66 980.38,-178.02 1117.76,-150.91"/>
<polygon fill="#63b8ff" stroke="#63b8ff" points="1118.72,-154.29 1127.83,-148.89 1117.33,-147.43 1118.72,-154.29"/>
</a>
</g>
</g>
<!-- Node36 -->
<g id="Node000036" class="node">
<title>Node36</title>
<g id="a_Node000036"><a xlink:title=" ">
<polygon fill="#e0e0e0" stroke="#999999" points="1233.5,-151 1186.5,-151 1186.5,-132 1233.5,-132 1233.5,-151"/>
<text text-anchor="middle" x="1210" y="-139" font-family="Helvetica,sans-Serif" font-size="10.00">vector</text>
</a>
</g>
</g>
<!-- Node10&#45;&gt;Node36 -->
<g id="edge46_Node000010_Node000036" class="edge">
<title>Node10&#45;&gt;Node36</title>
<g id="a_edge46_Node000010_Node000036"><a xlink:title=" ">
<path fill="none" stroke="#63b8ff" d="M780.17,-192.44C788.85,-190.42 798.24,-188.44 807,-187 966.84,-160.69 1012.52,-178.95 1176.37,-150.81"/>
<polygon fill="#63b8ff" stroke="#63b8ff" points="1177.06,-154.24 1186.3,-149.07 1175.85,-147.35 1177.06,-154.24"/>
</a>
</g>
</g>
<!-- Node13&#45;&gt;Node8 -->
<g id="edge34_Node000013_Node000008" class="edge">
<title>Node13&#45;&gt;Node8</title>
<g id="a_edge34_Node000013_Node000008"><a xlink:title=" ">
<path fill="none" stroke="#63b8ff" d="M631.89,-136.05C566.31,-128.84 444.87,-113.61 405,-96 385.32,-87.31 385.61,-76.8 367,-66 337.58,-48.93 301.21,-35.02 275.48,-26.24"/>
<polygon fill="#63b8ff" stroke="#63b8ff" points="276.44,-22.87 265.84,-23.02 274.22,-29.51 276.44,-22.87"/>
</a>
</g>
</g>
<!-- Node14 -->
<g id="Node000014" class="node">
<title>Node14</title>
<g id="a_Node000014"><a xlink:href="device__qualifier_8hpp.html" target="_top" xlink:title=" ">
<polygon fill="white" stroke="#666666" points="528,-90.5 414,-90.5 414,-71.5 528,-71.5 528,-90.5"/>
<text text-anchor="middle" x="471" y="-78.5" font-family="Helvetica,sans-Serif" font-size="10.00">device_qualifier.hpp</text>
</a>
</g>
</g>
<!-- Node13&#45;&gt;Node14 -->
<g id="edge13_Node000013_Node000014" class="edge">
<title>Node13&#45;&gt;Node14</title>
<g id="a_edge13_Node000013_Node000014"><a xlink:title=" ">
<path fill="none" stroke="#63b8ff" d="M645.34,-131.99C609.76,-121.79 549.98,-104.65 510.52,-93.33"/>
<polygon fill="#63b8ff" stroke="#63b8ff" points="511.28,-89.91 500.7,-90.52 509.35,-96.64 511.28,-89.91"/>
</a>
</g>
</g>
<!-- Node13&#45;&gt;Node15 -->
<g id="edge29_Node000013_Node000015" class="edge">
<title>Node13&#45;&gt;Node15</title>
<g id="a_edge29_Node000013_Node000015"><a xlink:title=" ">
<path fill="none" stroke="#63b8ff" d="M718.35,-133C767.9,-122.58 838.54,-100.98 809,-66 778.17,-29.49 644.1,-38.07 597,-30 582.43,-27.5 566.39,-24.73 552.45,-22.32"/>
<polygon fill="#63b8ff" stroke="#63b8ff" points="552.71,-18.82 542.26,-20.56 551.52,-25.71 552.71,-18.82"/>
</a>
</g>
</g>
<!-- Node13&#45;&gt;Node16 -->
<g id="edge15_Node000013_Node000016" class="edge">
<title>Node13&#45;&gt;Node16</title>
<g id="a_edge15_Node000013_Node000016"><a xlink:title=" ">
<path fill="none" stroke="#63b8ff" d="M659.95,-131.87C643.38,-122.36 616.5,-106.95 597.01,-95.77"/>
<polygon fill="#63b8ff" stroke="#63b8ff" points="598.53,-92.61 588.11,-90.67 595.05,-98.68 598.53,-92.61"/>
</a>
</g>
</g>
<!-- Node13&#45;&gt;Node17 -->
<g id="edge30_Node000013_Node000017" class="edge">
<title>Node13&#45;&gt;Node17</title>
<g id="a_edge30_Node000013_Node000017"><a xlink:title=" ">
<path fill="none" stroke="#63b8ff" d="M718.19,-136.63C778.96,-129.51 878.43,-110.74 842,-66 792.14,-4.76 743.73,-52.39 668,-30 666.07,-29.43 664.1,-28.8 662.12,-28.13"/>
<polygon fill="#63b8ff" stroke="#63b8ff" points="662.95,-24.71 652.36,-24.6 660.57,-31.29 662.95,-24.71"/>
</a>
</g>
</g>
<!-- Node18 -->
<g id="Node000018" class="node">
<title>Node18</title>
<g id="a_Node000018"><a xlink:href="array_8hpp.html" target="_top" xlink:title=" ">
<polygon fill="white" stroke="#666666" points="1152.5,-90.5 1027.5,-90.5 1027.5,-71.5 1152.5,-71.5 1152.5,-90.5"/>
<text text-anchor="middle" x="1090" y="-78.5" font-family="Helvetica,sans-Serif" font-size="10.00">serialization/array.hpp</text>
</a>
</g>
</g>
<!-- Node13&#45;&gt;Node18 -->
<g id="edge18_Node000013_Node000018" class="edge">
<title>Node13&#45;&gt;Node18</title>
<g id="a_edge18_Node000013_Node000018"><a xlink:title=" ">
<path fill="none" stroke="#63b8ff" d="M718.24,-134.41C789.73,-124.33 933.23,-104.1 1019.53,-91.93"/>
<polygon fill="#63b8ff" stroke="#63b8ff" points="1020.09,-95.39 1029.5,-90.53 1019.11,-88.46 1020.09,-95.39"/>
</a>
</g>
</g>
<!-- Node27 -->
<g id="Node000027" class="node">
<title>Node27</title>
<g id="a_Node000027"><a xlink:title=" ">
<polygon fill="#e0e0e0" stroke="#999999" points="724.5,-96 617.5,-96 617.5,-66 724.5,-66 724.5,-96"/>
<text text-anchor="start" x="625.5" y="-84" font-family="Helvetica,sans-Serif" font-size="10.00">boost/serialization</text>
<text text-anchor="middle" x="671" y="-73" font-family="Helvetica,sans-Serif" font-size="10.00">/access.hpp</text>
</a>
</g>
</g>
<!-- Node13&#45;&gt;Node27 -->
<g id="edge28_Node000013_Node000027" class="edge">
<title>Node13&#45;&gt;Node27</title>
<g id="a_edge28_Node000013_Node000027"><a xlink:title=" ">
<path fill="none" stroke="#63b8ff" d="M674.41,-131.87C673.95,-125.11 673.28,-115.35 672.66,-106.26"/>
<polygon fill="#63b8ff" stroke="#63b8ff" points="676.14,-105.85 671.97,-96.11 669.16,-106.33 676.14,-105.85"/>
</a>
</g>
</g>
<!-- Node13&#45;&gt;Node28 -->
<g id="edge31_Node000013_Node000028" class="edge">
<title>Node13&#45;&gt;Node28</title>
<g id="a_edge31_Node000013_Node000028"><a xlink:title=" ">
<path fill="none" stroke="#63b8ff" d="M718.03,-136.4C732.91,-135 749.68,-133.42 765,-132 941.41,-115.67 985.57,-112.12 1162,-96 1201.31,-92.41 1246.33,-88.26 1277.11,-85.41"/>
<polygon fill="#63b8ff" stroke="#63b8ff" points="1277.73,-88.87 1287.37,-84.46 1277.09,-81.9 1277.73,-88.87"/>
</a>
</g>
</g>
<!-- Node29 -->
<g id="Node000029" class="node">
<title>Node29</title>
<g id="a_Node000029"><a xlink:title=" ">
<polygon fill="#e0e0e0" stroke="#999999" points="799.5,-90.5 742.5,-90.5 742.5,-71.5 799.5,-71.5 799.5,-90.5"/>
<text text-anchor="middle" x="771" y="-78.5" font-family="Helvetica,sans-Serif" font-size="10.00">ostream</text>
</a>
</g>
</g>
<!-- Node13&#45;&gt;Node29 -->
<g id="edge32_Node000013_Node000029" class="edge">
<title>Node13&#45;&gt;Node29</title>
<g id="a_edge32_Node000013_Node000029"><a xlink:title=" ">
<path fill="none" stroke="#63b8ff" d="M689.17,-131.87C704.69,-122.41 729.83,-107.09 748.15,-95.92"/>
<polygon fill="#63b8ff" stroke="#63b8ff" points="750.06,-98.86 756.78,-90.67 746.42,-92.88 750.06,-98.86"/>
</a>
</g>
</g>
<!-- Node13&#45;&gt;Node30 -->
<g id="edge33_Node000013_Node000030" class="edge">
<title>Node13&#45;&gt;Node30</title>
<g id="a_edge33_Node000013_Node000030"><a xlink:title=" ">
<path fill="none" stroke="#63b8ff" d="M632,-136.15C572.94,-129.74 463.63,-116.27 372,-96 368.38,-95.2 364.63,-94.27 360.9,-93.27"/>
<polygon fill="#63b8ff" stroke="#63b8ff" points="361.75,-89.87 351.18,-90.52 359.85,-96.61 361.75,-89.87"/>
</a>
</g>
</g>
<!-- Node14&#45;&gt;Node15 -->
<g id="edge14_Node000014_Node000015" class="edge">
<title>Node14&#45;&gt;Node15</title>
<g id="a_edge14_Node000014_Node000015"><a xlink:title=" ">
<path fill="none" stroke="#63b8ff" d="M477.07,-71.37C483.87,-61.69 495.09,-45.74 503.74,-33.44"/>
<polygon fill="#63b8ff" stroke="#63b8ff" points="506.85,-35.1 509.74,-24.91 501.12,-31.07 506.85,-35.1"/>
</a>
</g>
</g>
<!-- Node16&#45;&gt;Node8 -->
<g id="edge17_Node000016_Node000008" class="edge">
<title>Node16&#45;&gt;Node8</title>
<g id="a_edge17_Node000016_Node000008"><a xlink:title=" ">
<path fill="none" stroke="#63b8ff" d="M553.06,-71.42C547.9,-69.43 542.3,-67.47 537,-66 444.13,-40.33 330.92,-25.56 276.02,-19.41"/>
<polygon fill="#63b8ff" stroke="#63b8ff" points="276.16,-15.9 265.84,-18.29 275.4,-22.86 276.16,-15.9"/>
</a>
</g>
</g>
<!-- Node16&#45;&gt;Node17 -->
<g id="edge16_Node000016_Node000017" class="edge">
<title>Node16&#45;&gt;Node17</title>
<g id="a_edge16_Node000016_Node000017"><a xlink:title=" ">
<path fill="none" stroke="#63b8ff" d="M580.96,-71.37C590.14,-61.4 605.46,-44.79 616.92,-32.36"/>
<polygon fill="#63b8ff" stroke="#63b8ff" points="619.59,-34.63 623.79,-24.91 614.44,-29.89 619.59,-34.63"/>
</a>
</g>
</g>
<!-- Node18&#45;&gt;Node17 -->
<g id="edge27_Node000018_Node000017" class="edge">
<title>Node18&#45;&gt;Node17</title>
<g id="a_edge27_Node000018_Node000017"><a xlink:title=" ">
<path fill="none" stroke="#63b8ff" d="M1027.1,-73.43C917.99,-61.91 702,-38.48 668,-30 665.69,-29.42 663.34,-28.74 660.99,-27.99"/>
<polygon fill="#63b8ff" stroke="#63b8ff" points="662.11,-24.67 651.51,-24.62 659.76,-31.27 662.11,-24.67"/>
</a>
</g>
</g>
<!-- Node19 -->
<g id="Node000019" class="node">
<title>Node19</title>
<g id="a_Node000019"><a xlink:title=" ">
<polygon fill="#e0e0e0" stroke="#999999" points="1065.5,-24.5 932.5,-24.5 932.5,-5.5 1065.5,-5.5 1065.5,-24.5"/>
<text text-anchor="middle" x="999" y="-12.5" font-family="Helvetica,sans-Serif" font-size="10.00">boost/mpl/bool_fwd.hpp</text>
</a>
</g>
</g>
<!-- Node18&#45;&gt;Node19 -->
<g id="edge19_Node000018_Node000019" class="edge">
<title>Node18&#45;&gt;Node19</title>
<g id="a_edge19_Node000018_Node000019"><a xlink:title=" ">
<path fill="none" stroke="#63b8ff" d="M1077.73,-71.37C1062.94,-60.97 1037.85,-43.32 1019.97,-30.75"/>
<polygon fill="#63b8ff" stroke="#63b8ff" points="1021.56,-27.59 1011.37,-24.7 1017.54,-33.31 1021.56,-27.59"/>
</a>
</g>
</g>
<!-- Node20 -->
<g id="Node000020" class="node">
<title>Node20</title>
<g id="a_Node000020"><a xlink:title=" ">
<polygon fill="#e0e0e0" stroke="#999999" points="1208,-24.5 1084,-24.5 1084,-5.5 1208,-5.5 1208,-24.5"/>
<text text-anchor="middle" x="1146" y="-12.5" font-family="Helvetica,sans-Serif" font-size="10.00">boost/mpl/greater.hpp</text>
</a>
</g>
</g>
<!-- Node18&#45;&gt;Node20 -->
<g id="edge20_Node000018_Node000020" class="edge">
<title>Node18&#45;&gt;Node20</title>
<g id="a_edge20_Node000018_Node000020"><a xlink:title=" ">
<path fill="none" stroke="#63b8ff" d="M1097.55,-71.37C1106.19,-61.5 1120.53,-45.11 1131.37,-32.72"/>
<polygon fill="#63b8ff" stroke="#63b8ff" points="1134.26,-34.74 1138.21,-24.91 1128.99,-30.13 1134.26,-34.74"/>
</a>
</g>
</g>
<!-- Node21 -->
<g id="Node000021" class="node">
<title>Node21</title>
<g id="a_Node000021"><a xlink:title=" ">
<polygon fill="#e0e0e0" stroke="#999999" points="1328,-24.5 1226,-24.5 1226,-5.5 1328,-5.5 1328,-24.5"/>
<text text-anchor="middle" x="1277" y="-12.5" font-family="Helvetica,sans-Serif" font-size="10.00">boost/mpl/int.hpp</text>
</a>
</g>
</g>
<!-- Node18&#45;&gt;Node21 -->
<g id="edge21_Node000018_Node000021" class="edge">
<title>Node18&#45;&gt;Node21</title>
<g id="a_edge21_Node000018_Node000021"><a xlink:title=" ">
<path fill="none" stroke="#63b8ff" d="M1115.22,-71.37C1147.93,-60.17 1205.17,-40.58 1242.06,-27.96"/>
<polygon fill="#63b8ff" stroke="#63b8ff" points="1243.55,-31.15 1251.88,-24.6 1241.29,-24.52 1243.55,-31.15"/>
</a>
</g>
</g>
<!-- Node22 -->
<g id="Node000022" class="node">
<title>Node22</title>
<g id="a_Node000022"><a xlink:title=" ">
<polygon fill="#e0e0e0" stroke="#999999" points="1452,-30 1346,-30 1346,0 1452,0 1452,-30"/>
<text text-anchor="start" x="1354" y="-18" font-family="Helvetica,sans-Serif" font-size="10.00">boost/mpl/integral</text>
<text text-anchor="middle" x="1399" y="-7" font-family="Helvetica,sans-Serif" font-size="10.00">_c_tag.hpp</text>
</a>
</g>
</g>
<!-- Node18&#45;&gt;Node22 -->
<g id="edge22_Node000018_Node000022" class="edge">
<title>Node18&#45;&gt;Node22</title>
<g id="a_edge22_Node000018_Node000022"><a xlink:title=" ">
<path fill="none" stroke="#63b8ff" d="M1133.79,-71.44C1181.18,-62.11 1259.25,-46.55 1336.07,-30.17"/>
<polygon fill="#63b8ff" stroke="#63b8ff" points="1336.87,-33.58 1345.92,-28.07 1335.41,-26.74 1336.87,-33.58"/>
</a>
</g>
</g>
<!-- Node23 -->
<g id="Node000023" class="node">
<title>Node23</title>
<g id="a_Node000023"><a xlink:title=" ">
<polygon fill="#e0e0e0" stroke="#999999" points="1621.5,-30 1470.5,-30 1470.5,0 1621.5,0 1621.5,-30"/>
<text text-anchor="start" x="1478.5" y="-18" font-family="Helvetica,sans-Serif" font-size="10.00">boost/serialization</text>
<text text-anchor="middle" x="1546" y="-7" font-family="Helvetica,sans-Serif" font-size="10.00">/is_bitwise_serializable.hpp</text>
</a>
</g>
</g>
<!-- Node18&#45;&gt;Node23 -->
<g id="edge23_Node000018_Node000023" class="edge">
<title>Node18&#45;&gt;Node23</title>
<g id="a_edge23_Node000018_Node000023"><a xlink:title=" ">
<path fill="none" stroke="#63b8ff" d="M1152.77,-72.11C1224.52,-62.96 1345.75,-47.12 1460.46,-30.05"/>
<polygon fill="#63b8ff" stroke="#63b8ff" points="1461.1,-33.5 1470.47,-28.56 1460.07,-26.57 1461.1,-33.5"/>
</a>
</g>
</g>
<!-- Node24 -->
<g id="Node000024" class="node">
<title>Node24</title>
<g id="a_Node000024"><a xlink:title=" ">
<polygon fill="#e0e0e0" stroke="#999999" points="1746.5,-30 1639.5,-30 1639.5,0 1746.5,0 1746.5,-30"/>
<text text-anchor="start" x="1647.5" y="-18" font-family="Helvetica,sans-Serif" font-size="10.00">boost/serialization</text>
<text text-anchor="middle" x="1693" y="-7" font-family="Helvetica,sans-Serif" font-size="10.00">/level.hpp</text>
</a>
</g>
</g>
<!-- Node18&#45;&gt;Node24 -->
<g id="edge24_Node000018_Node000024" class="edge">
<title>Node18&#45;&gt;Node24</title>
<g id="a_edge24_Node000018_Node000024"><a xlink:title=" ">
<path fill="none" stroke="#63b8ff" d="M1152.51,-75.25C1270.57,-66.12 1523.3,-45.74 1629.23,-30.12"/>
<polygon fill="#63b8ff" stroke="#63b8ff" points="1629.96,-33.54 1639.31,-28.57 1628.9,-26.63 1629.96,-33.54"/>
</a>
</g>
</g>
<!-- Node25 -->
<g id="Node000025" class="node">
<title>Node25</title>
<g id="a_Node000025"><a xlink:title=" ">
<polygon fill="#e0e0e0" stroke="#999999" points="783.5,-30 676.5,-30 676.5,0 783.5,0 783.5,-30"/>
<text text-anchor="start" x="684.5" y="-18" font-family="Helvetica,sans-Serif" font-size="10.00">boost/serialization</text>
<text text-anchor="middle" x="730" y="-7" font-family="Helvetica,sans-Serif" font-size="10.00">/tracking.hpp</text>
</a>
</g>
</g>
<!-- Node18&#45;&gt;Node25 -->
<g id="edge25_Node000018_Node000025" class="edge">
<title>Node18&#45;&gt;Node25</title>
<g id="a_edge25_Node000018_Node000025"><a xlink:title=" ">
<path fill="none" stroke="#63b8ff" d="M1034.01,-71.46C976.29,-62.46 883.46,-47.43 793.41,-30.02"/>
<polygon fill="#63b8ff" stroke="#63b8ff" points="794.06,-26.58 783.58,-28.1 792.72,-33.45 794.06,-26.58"/>
</a>
</g>
</g>
<!-- Node26 -->
<g id="Node000026" class="node">
<title>Node26</title>
<g id="a_Node000026"><a xlink:title=" ">
<polygon fill="#e0e0e0" stroke="#999999" points="914.5,-30 801.5,-30 801.5,0 914.5,0 914.5,-30"/>
<text text-anchor="start" x="809.5" y="-18" font-family="Helvetica,sans-Serif" font-size="10.00">boost/serialization</text>
<text text-anchor="middle" x="858" y="-7" font-family="Helvetica,sans-Serif" font-size="10.00">/tracking_enum.hpp</text>
</a>
</g>
</g>
<!-- Node18&#45;&gt;Node26 -->
<g id="edge26_Node000018_Node000026" class="edge">
<title>Node18&#45;&gt;Node26</title>
<g id="a_edge26_Node000018_Node000026"><a xlink:title=" ">
<path fill="none" stroke="#63b8ff" d="M1058.71,-71.37C1023.07,-61.54 963.95,-45.23 919.09,-32.85"/>
<polygon fill="#63b8ff" stroke="#63b8ff" points="919.74,-29.4 909.17,-30.12 917.88,-36.15 919.74,-29.4"/>
</a>
</g>
</g>
<!-- Node39&#45;&gt;Node4 -->
<g id="edge63_Node000039_Node000004" class="edge">
<title>Node39&#45;&gt;Node4</title>
<g id="a_edge63_Node000039_Node000004"><a xlink:title=" ">
<path fill="none" stroke="#63b8ff" d="M792.89,-258.44C719.83,-236.2 524.18,-176.65 445.48,-152.69"/>
<polygon fill="#63b8ff" stroke="#63b8ff" points="446.19,-149.25 435.61,-149.69 444.15,-155.95 446.19,-149.25"/>
</a>
</g>
</g>
<!-- Node39&#45;&gt;Node10 -->
<g id="edge61_Node000039_Node000010" class="edge">
<title>Node39&#45;&gt;Node10</title>
<g id="a_edge61_Node000039_Node000010"><a xlink:title=" ">
<path fill="none" stroke="#63b8ff" d="M811.02,-258.37C799.28,-248.21 779.56,-231.16 765.1,-218.65"/>
<polygon fill="#63b8ff" stroke="#63b8ff" points="767.15,-215.8 757.3,-211.91 762.57,-221.09 767.15,-215.8"/>
</a>
</g>
</g>
<!-- Node39&#45;&gt;Node31 -->
<g id="edge62_Node000039_Node000031" class="edge">
<title>Node39&#45;&gt;Node31</title>
<g id="a_edge62_Node000039_Node000031"><a xlink:title=" ">
<path fill="none" stroke="#63b8ff" d="M820.19,-258.32C819.17,-241.54 819.64,-204.76 841,-187 891.16,-145.3 1362.08,-157.43 1427,-151 1433.39,-150.37 1440.12,-149.57 1446.71,-148.73"/>
<polygon fill="#63b8ff" stroke="#63b8ff" points="1447.43,-152.16 1456.87,-147.37 1446.5,-145.23 1447.43,-152.16"/>
</a>
</g>
</g>
<!-- Node40 -->
<g id="Node000040" class="node">
<title>Node40</title>
<g id="a_Node000040"><a xlink:href="config_8hpp.html" target="_top" xlink:title="This file contains the defaults for ESPResSo.">
<polygon fill="white" stroke="#666666" points="948.5,-211.5 849.5,-211.5 849.5,-192.5 948.5,-192.5 948.5,-211.5"/>
<text text-anchor="middle" x="899" y="-199.5" font-family="Helvetica,sans-Serif" font-size="10.00">config/config.hpp</text>
</a>
</g>
</g>
<!-- Node39&#45;&gt;Node40 -->
<g id="edge59_Node000039_Node000040" class="edge">
<title>Node39&#45;&gt;Node40</title>
<g id="a_edge59_Node000039_Node000040"><a xlink:title=" ">
<path fill="none" stroke="#63b8ff" d="M831.52,-258.37C844.08,-248.06 865.31,-230.65 880.6,-218.09"/>
<polygon fill="#63b8ff" stroke="#63b8ff" points="882.89,-220.75 888.4,-211.7 878.45,-215.34 882.89,-220.75"/>
</a>
</g>
</g>
<!-- Node39&#45;&gt;Node42 -->
<g id="edge64_Node000039_Node000042" class="edge">
<title>Node39&#45;&gt;Node42</title>
<g id="a_edge64_Node000039_Node000042"><a xlink:title=" ">
<path fill="none" stroke="#63b8ff" d="M846.8,-258.45C874.56,-249.04 919.87,-233.12 958,-217 958.86,-216.64 959.72,-216.26 960.6,-215.88"/>
<polygon fill="#63b8ff" stroke="#63b8ff" points="962.33,-218.94 969.95,-211.58 959.41,-212.58 962.33,-218.94"/>
</a>
</g>
</g>
<!-- Node41 -->
<g id="Node000041" class="node">
<title>Node41</title>
<g id="a_Node000041"><a xlink:title=" ">
<polygon fill="#e0e0e0" stroke="#999999" points="1682.5,-151 1539.5,-151 1539.5,-132 1682.5,-132 1682.5,-151"/>
<text text-anchor="middle" x="1611" y="-139" font-family="Helvetica,sans-Serif" font-size="10.00">config/config&#45;features.hpp</text>
</a>
</g>
</g>
<!-- Node40&#45;&gt;Node41 -->
<g id="edge60_Node000040_Node000041" class="edge">
<title>Node40&#45;&gt;Node41</title>
<g id="a_edge60_Node000040_Node000041"><a xlink:title=" ">
<path fill="none" stroke="#63b8ff" d="M930.65,-192.44C939.45,-190.35 949.05,-188.33 958,-187 1206.62,-149.95 1274.39,-171.71 1529.15,-151.02"/>
<polygon fill="#63b8ff" stroke="#63b8ff" points="1529.78,-154.48 1539.46,-150.17 1529.21,-147.51 1529.78,-154.48"/>
</a>
</g>
</g>
<!-- Node43&#45;&gt;Node14 -->
<g id="edge67_Node000043_Node000014" class="edge">
<title>Node43&#45;&gt;Node14</title>
<g id="a_edge67_Node000043_Node000014"><a xlink:title=" ">
<path fill="none" stroke="#63b8ff" d="M650.17,-318.81C640.37,-304.46 619.63,-275.18 599,-253 552.47,-202.97 517.69,-210.43 484,-151 475.27,-135.6 472.26,-115.48 471.29,-100.94"/>
<polygon fill="#63b8ff" stroke="#63b8ff" points="474.78,-100.53 470.88,-90.67 467.78,-100.81 474.78,-100.53"/>
</a>
</g>
</g>
</g>
</svg>
