<?xml version="1.0" encoding="UTF-8" standalone="no"?>
<!DOCTYPE svg PUBLIC "-//W3C//DTD SVG 1.1//EN"
 "http://www.w3.org/Graphics/SVG/1.1/DTD/svg11.dtd">
<!-- Generated by graphviz version 2.43.0 (0)
 -->
<!-- Title: angle_common.hpp Pages: 1 -->
<svg width="1423pt" height="269pt"
 viewBox="0.00 0.00 1423.00 269.00" xmlns="http://www.w3.org/2000/svg" xmlns:xlink="http://www.w3.org/1999/xlink">
<g id="graph0" class="graph" transform="scale(1 1) rotate(0) translate(4 265)">
<title>angle_common.hpp</title>
<!-- Node1 -->
<g id="Node000001" class="node">
<title>Node1</title>
<g id="a_Node000001"><a xlink:title="Common code for functions calculating angle forces.">
<polygon fill="#999999" stroke="#666666" points="1168,-261 1055,-261 1055,-242 1168,-242 1168,-261"/>
<text text-anchor="middle" x="1111.5" y="-249" font-family="Helvetica,sans-Serif" font-size="10.00">angle_common.hpp</text>
</a>
</g>
</g>
<!-- Node2 -->
<g id="Node000002" class="node">
<title>Node2</title>
<g id="a_Node000002"><a xlink:href="config_8hpp.html" target="_top" xlink:title="This file contains the defaults for ESPResSo.">
<polygon fill="white" stroke="#666666" points="481,-206 382,-206 382,-187 481,-187 481,-206"/>
<text text-anchor="middle" x="431.5" y="-194" font-family="Helvetica,sans-Serif" font-size="10.00">config/config.hpp</text>
</a>
</g>
</g>
<!-- Node1&#45;&gt;Node2 -->
<g id="edge1_Node000001_Node000002" class="edge">
<title>Node1&#45;&gt;Node2</title>
<g id="a_edge1_Node000001_Node000002"><a xlink:title=" ">
<path fill="none" stroke="#63b8ff" d="M1054.98,-246.1C928.07,-236.2 621.42,-212.3 491.39,-202.17"/>
<polygon fill="#63b8ff" stroke="#63b8ff" points="491.46,-198.66 481.22,-201.38 490.92,-205.64 491.46,-198.66"/>
</a>
</g>
</g>
<!-- Node4 -->
<g id="Node000004" class="node">
<title>Node4</title>
<g id="a_Node000004"><a xlink:href="Vector_8hpp.html" target="_top" xlink:title="Vector implementation and trait types for boost qvm interoperability.">
<polygon fill="white" stroke="#666666" points="870.5,-206 778.5,-206 778.5,-187 870.5,-187 870.5,-206"/>
<text text-anchor="middle" x="824.5" y="-194" font-family="Helvetica,sans-Serif" font-size="10.00">utils/Vector.hpp</text>
</a>
</g>
</g>
<!-- Node1&#45;&gt;Node4 -->
<g id="edge3_Node000001_Node000004" class="edge">
<title>Node1&#45;&gt;Node4</title>
<g id="a_edge3_Node000001_Node000004"><a xlink:title=" ">
<path fill="none" stroke="#63b8ff" d="M1065.39,-241.98C1015.22,-232.72 934.99,-217.9 881.06,-207.94"/>
<polygon fill="#63b8ff" stroke="#63b8ff" points="881.44,-204.46 870.97,-206.08 880.17,-211.34 881.44,-204.46"/>
</a>
</g>
</g>
<!-- Node26 -->
<g id="Node000026" class="node">
<title>Node26</title>
<g id="a_Node000026"><a xlink:title=" ">
<polygon fill="#e0e0e0" stroke="#999999" points="1276.5,-151 1212.5,-151 1212.5,-132 1276.5,-132 1276.5,-151"/>
<text text-anchor="middle" x="1244.5" y="-139" font-family="Helvetica,sans-Serif" font-size="10.00">algorithm</text>
</a>
</g>
</g>
<!-- Node1&#45;&gt;Node26 -->
<g id="edge41_Node000001_Node000026" class="edge">
<title>Node1&#45;&gt;Node26</title>
<g id="a_edge41_Node000001_Node000026"><a xlink:title=" ">
<path fill="none" stroke="#63b8ff" d="M1112.54,-241.94C1114.59,-228.54 1120.37,-202.53 1135.5,-187 1153.51,-168.51 1180.29,-157.43 1202.79,-150.95"/>
<polygon fill="#63b8ff" stroke="#63b8ff" points="1203.7,-154.33 1212.46,-148.37 1201.89,-147.57 1203.7,-154.33"/>
</a>
</g>
</g>
<!-- Node27 -->
<g id="Node000027" class="node">
<title>Node27</title>
<g id="a_Node000027"><a xlink:title=" ">
<polygon fill="#e0e0e0" stroke="#999999" points="1342,-151 1295,-151 1295,-132 1342,-132 1342,-151"/>
<text text-anchor="middle" x="1318.5" y="-139" font-family="Helvetica,sans-Serif" font-size="10.00">cmath</text>
</a>
</g>
</g>
<!-- Node1&#45;&gt;Node27 -->
<g id="edge42_Node000001_Node000027" class="edge">
<title>Node1&#45;&gt;Node27</title>
<g id="a_edge42_Node000001_Node000027"><a xlink:title=" ">
<path fill="none" stroke="#63b8ff" d="M1117.16,-241.72C1126.45,-228.02 1146.23,-201.6 1169.5,-187 1179.41,-180.78 1244.19,-162.59 1285.01,-151.48"/>
<polygon fill="#63b8ff" stroke="#63b8ff" points="1286.08,-154.82 1294.82,-148.82 1284.25,-148.06 1286.08,-154.82"/>
</a>
</g>
</g>
<!-- Node34 -->
<g id="Node000034" class="node">
<title>Node34</title>
<g id="a_Node000034"><a xlink:title=" ">
<polygon fill="#e0e0e0" stroke="#999999" points="1219,-206 1178,-206 1178,-187 1219,-187 1219,-206"/>
<text text-anchor="middle" x="1198.5" y="-194" font-family="Helvetica,sans-Serif" font-size="10.00">tuple</text>
</a>
</g>
</g>
<!-- Node1&#45;&gt;Node34 -->
<g id="edge43_Node000001_Node000034" class="edge">
<title>Node1&#45;&gt;Node34</title>
<g id="a_edge43_Node000001_Node000034"><a xlink:title=" ">
<path fill="none" stroke="#63b8ff" d="M1125.48,-241.98C1138.97,-233.77 1159.63,-221.18 1175.54,-211.49"/>
<polygon fill="#63b8ff" stroke="#63b8ff" points="1177.55,-214.36 1184.27,-206.17 1173.91,-208.38 1177.55,-214.36"/>
</a>
</g>
</g>
<!-- Node3 -->
<g id="Node000003" class="node">
<title>Node3</title>
<g id="a_Node000003"><a xlink:title=" ">
<polygon fill="#e0e0e0" stroke="#999999" points="143,-151 0,-151 0,-132 143,-132 143,-151"/>
<text text-anchor="middle" x="71.5" y="-139" font-family="Helvetica,sans-Serif" font-size="10.00">config/config&#45;features.hpp</text>
</a>
</g>
</g>
<!-- Node2&#45;&gt;Node3 -->
<g id="edge2_Node000002_Node000003" class="edge">
<title>Node2&#45;&gt;Node3</title>
<g id="a_edge2_Node000002_Node000003"><a xlink:title=" ">
<path fill="none" stroke="#63b8ff" d="M381.82,-188.19C318.85,-178.92 210.03,-162.89 139.42,-152.5"/>
<polygon fill="#63b8ff" stroke="#63b8ff" points="139.69,-149 129.29,-151.01 138.68,-155.93 139.69,-149"/>
</a>
</g>
</g>
<!-- Node5 -->
<g id="Node000005" class="node">
<title>Node5</title>
<g id="a_Node000005"><a xlink:title=" ">
<polygon fill="#e0e0e0" stroke="#999999" points="818.5,-151 668.5,-151 668.5,-132 818.5,-132 818.5,-151"/>
<text text-anchor="middle" x="743.5" y="-139" font-family="Helvetica,sans-Serif" font-size="10.00">boost/qvm/deduce_vec.hpp</text>
</a>
</g>
</g>
<!-- Node4&#45;&gt;Node5 -->
<g id="edge4_Node000004_Node000005" class="edge">
<title>Node4&#45;&gt;Node5</title>
<g id="a_edge4_Node000004_Node000005"><a xlink:title=" ">
<path fill="none" stroke="#63b8ff" d="M811.49,-186.98C799.04,-178.84 780.04,-166.41 765.29,-156.76"/>
<polygon fill="#63b8ff" stroke="#63b8ff" points="767.04,-153.72 756.75,-151.17 763.2,-159.57 767.04,-153.72"/>
</a>
</g>
</g>
<!-- Node6 -->
<g id="Node000006" class="node">
<title>Node6</title>
<g id="a_Node000006"><a xlink:title=" ">
<polygon fill="#e0e0e0" stroke="#999999" points="976.5,-151 836.5,-151 836.5,-132 976.5,-132 976.5,-151"/>
<text text-anchor="middle" x="906.5" y="-139" font-family="Helvetica,sans-Serif" font-size="10.00">boost/qvm/vec_traits.hpp</text>
</a>
</g>
</g>
<!-- Node4&#45;&gt;Node6 -->
<g id="edge5_Node000004_Node000006" class="edge">
<title>Node4&#45;&gt;Node6</title>
<g id="a_edge5_Node000004_Node000006"><a xlink:title=" ">
<path fill="none" stroke="#63b8ff" d="M837.67,-186.98C850.27,-178.84 869.5,-166.41 884.44,-156.76"/>
<polygon fill="#63b8ff" stroke="#63b8ff" points="886.59,-159.54 893.09,-151.17 882.79,-153.66 886.59,-159.54"/>
</a>
</g>
</g>
<!-- Node7 -->
<g id="Node000007" class="node">
<title>Node7</title>
<g id="a_Node000007"><a xlink:href="Array_8hpp.html" target="_top" xlink:title="Array implementation with CUDA support.">
<polygon fill="white" stroke="#666666" points="1118.5,-151 1032.5,-151 1032.5,-132 1118.5,-132 1118.5,-151"/>
<text text-anchor="middle" x="1075.5" y="-139" font-family="Helvetica,sans-Serif" font-size="10.00">utils/Array.hpp</text>
</a>
</g>
</g>
<!-- Node4&#45;&gt;Node7 -->
<g id="edge6_Node000004_Node000007" class="edge">
<title>Node4&#45;&gt;Node7</title>
<g id="a_edge6_Node000004_Node000007"><a xlink:title=" ">
<path fill="none" stroke="#63b8ff" d="M864.83,-186.98C908.34,-177.8 977.7,-163.15 1024.85,-153.19"/>
<polygon fill="#63b8ff" stroke="#63b8ff" points="1025.8,-156.57 1034.86,-151.08 1024.35,-149.72 1025.8,-156.57"/>
</a>
</g>
</g>
<!-- Node9 -->
<g id="Node000009" class="node">
<title>Node9</title>
<g id="a_Node000009"><a xlink:title=" ">
<polygon fill="#e0e0e0" stroke="#999999" points="192.5,-24.5 140.5,-24.5 140.5,-5.5 192.5,-5.5 192.5,-24.5"/>
<text text-anchor="middle" x="166.5" y="-12.5" font-family="Helvetica,sans-Serif" font-size="10.00">cassert</text>
</a>
</g>
</g>
<!-- Node4&#45;&gt;Node9 -->
<g id="edge31_Node000004_Node000009" class="edge">
<title>Node4&#45;&gt;Node9</title>
<g id="a_edge31_Node000004_Node000009"><a xlink:title=" ">
<path fill="none" stroke="#63b8ff" d="M778.45,-193.81C636.24,-188.39 212.33,-170.63 190.5,-151 157.84,-121.63 159.79,-64.47 163.43,-34.83"/>
<polygon fill="#63b8ff" stroke="#63b8ff" points="166.94,-35.01 164.89,-24.62 160.01,-34.02 166.94,-35.01"/>
</a>
</g>
</g>
<!-- Node10 -->
<g id="Node000010" class="node">
<title>Node10</title>
<g id="a_Node000010"><a xlink:href="get_8hpp.html" target="_top" xlink:title=" ">
<polygon fill="white" stroke="#666666" points="1352,-90.5 1299,-90.5 1299,-71.5 1352,-71.5 1352,-90.5"/>
<text text-anchor="middle" x="1325.5" y="-78.5" font-family="Helvetica,sans-Serif" font-size="10.00">get.hpp</text>
</a>
</g>
</g>
<!-- Node4&#45;&gt;Node10 -->
<g id="edge29_Node000004_Node000010" class="edge">
<title>Node4&#45;&gt;Node10</title>
<g id="a_edge29_Node000004_Node000010"><a xlink:title=" ">
<path fill="none" stroke="#63b8ff" d="M870.71,-193.53C936.26,-189.81 1059.52,-179.37 1160.5,-151 1180.61,-145.35 1184.28,-140.18 1203.5,-132 1234.23,-118.92 1269.56,-104.51 1294.26,-94.53"/>
<polygon fill="#63b8ff" stroke="#63b8ff" points="1295.86,-97.66 1303.83,-90.68 1293.25,-91.17 1295.86,-97.66"/>
</a>
</g>
</g>
<!-- Node11 -->
<g id="Node000011" class="node">
<title>Node11</title>
<g id="a_Node000011"><a xlink:title=" ">
<polygon fill="#e0e0e0" stroke="#999999" points="1352,-24.5 1299,-24.5 1299,-5.5 1352,-5.5 1352,-24.5"/>
<text text-anchor="middle" x="1325.5" y="-12.5" font-family="Helvetica,sans-Serif" font-size="10.00">cstddef</text>
</a>
</g>
</g>
<!-- Node4&#45;&gt;Node11 -->
<g id="edge33_Node000004_Node000011" class="edge">
<title>Node4&#45;&gt;Node11</title>
<g id="a_edge33_Node000004_Node000011"><a xlink:title=" ">
<path fill="none" stroke="#63b8ff" d="M870.65,-194.71C931.37,-192.34 1040.58,-183.46 1127.5,-151 1138.13,-147.03 1204.1,-102.35 1213.5,-96 1246.21,-73.88 1283.35,-46.99 1305.58,-30.7"/>
<polygon fill="#63b8ff" stroke="#63b8ff" points="1307.88,-33.35 1313.87,-24.61 1303.74,-27.71 1307.88,-33.35"/>
</a>
</g>
</g>
<!-- Node23 -->
<g id="Node000023" class="node">
<title>Node23</title>
<g id="a_Node000023"><a xlink:title=" ">
<polygon fill="#e0e0e0" stroke="#999999" points="568,-90.5 515,-90.5 515,-71.5 568,-71.5 568,-90.5"/>
<text text-anchor="middle" x="541.5" y="-78.5" font-family="Helvetica,sans-Serif" font-size="10.00">iterator</text>
</a>
</g>
</g>
<!-- Node4&#45;&gt;Node23 -->
<g id="edge36_Node000004_Node000023" class="edge">
<title>Node4&#45;&gt;Node23</title>
<g id="a_edge36_Node000004_Node000023"><a xlink:title=" ">
<path fill="none" stroke="#63b8ff" d="M870.53,-192.37C929.92,-186.71 1021.55,-171.41 985.5,-132 955.16,-98.83 626.48,-105.33 582.5,-96 579.44,-95.35 576.28,-94.54 573.15,-93.64"/>
<polygon fill="#63b8ff" stroke="#63b8ff" points="573.95,-90.22 563.36,-90.55 571.84,-96.9 573.95,-90.22"/>
</a>
</g>
</g>
<!-- Node4&#45;&gt;Node26 -->
<g id="edge30_Node000004_Node000026" class="edge">
<title>Node4&#45;&gt;Node26</title>
<g id="a_edge30_Node000004_Node000026"><a xlink:title=" ">
<path fill="none" stroke="#63b8ff" d="M870.69,-190.97C941.45,-183.81 1080.84,-168.85 1198.5,-151 1199.76,-150.81 1201.05,-150.61 1202.34,-150.4"/>
<polygon fill="#63b8ff" stroke="#63b8ff" points="1203.1,-153.82 1212.37,-148.71 1201.93,-146.92 1203.1,-153.82"/>
</a>
</g>
</g>
<!-- Node4&#45;&gt;Node27 -->
<g id="edge32_Node000004_Node000027" class="edge">
<title>Node4&#45;&gt;Node27</title>
<g id="a_edge32_Node000004_Node000027"><a xlink:title=" ">
<path fill="none" stroke="#63b8ff" d="M870.62,-193.43C952.27,-189.25 1127.65,-177.95 1284.95,-150.8"/>
<polygon fill="#63b8ff" stroke="#63b8ff" points="1285.56,-154.25 1294.8,-149.07 1284.35,-147.35 1285.56,-154.25"/>
</a>
</g>
</g>
<!-- Node28 -->
<g id="Node000028" class="node">
<title>Node28</title>
<g id="a_Node000028"><a xlink:title=" ">
<polygon fill="#e0e0e0" stroke="#999999" points="265,-151 200,-151 200,-132 265,-132 265,-151"/>
<text text-anchor="middle" x="232.5" y="-139" font-family="Helvetica,sans-Serif" font-size="10.00">functional</text>
</a>
</g>
</g>
<!-- Node4&#45;&gt;Node28 -->
<g id="edge34_Node000004_Node000028" class="edge">
<title>Node4&#45;&gt;Node28</title>
<g id="a_edge34_Node000004_Node000028"><a xlink:title=" ">
<path fill="none" stroke="#63b8ff" d="M778.21,-193.7C684.82,-189.65 467.07,-178.09 275.1,-151.06"/>
<polygon fill="#63b8ff" stroke="#63b8ff" points="275.5,-147.59 265.11,-149.64 274.52,-154.52 275.5,-147.59"/>
</a>
</g>
</g>
<!-- Node29 -->
<g id="Node000029" class="node">
<title>Node29</title>
<g id="a_Node000029"><a xlink:title=" ">
<polygon fill="#e0e0e0" stroke="#999999" points="366,-151 283,-151 283,-132 366,-132 366,-151"/>
<text text-anchor="middle" x="324.5" y="-139" font-family="Helvetica,sans-Serif" font-size="10.00">initializer_list</text>
</a>
</g>
</g>
<!-- Node4&#45;&gt;Node29 -->
<g id="edge35_Node000004_Node000029" class="edge">
<title>Node4&#45;&gt;Node29</title>
<g id="a_edge35_Node000004_Node000029"><a xlink:title=" ">
<path fill="none" stroke="#63b8ff" d="M778.49,-191.95C698.8,-185.59 529.73,-171.12 376.3,-151.02"/>
<polygon fill="#63b8ff" stroke="#63b8ff" points="376.59,-147.52 366.21,-149.68 375.67,-154.46 376.59,-147.52"/>
</a>
</g>
</g>
<!-- Node30 -->
<g id="Node000030" class="node">
<title>Node30</title>
<g id="a_Node000030"><a xlink:title=" ">
<polygon fill="#e0e0e0" stroke="#999999" points="440.5,-151 384.5,-151 384.5,-132 440.5,-132 440.5,-151"/>
<text text-anchor="middle" x="412.5" y="-139" font-family="Helvetica,sans-Serif" font-size="10.00">numeric</text>
</a>
</g>
</g>
<!-- Node4&#45;&gt;Node30 -->
<g id="edge37_Node000004_Node000030" class="edge">
<title>Node4&#45;&gt;Node30</title>
<g id="a_edge37_Node000004_Node000030"><a xlink:title=" ">
<path fill="none" stroke="#63b8ff" d="M778.37,-191.64C709.26,-185.5 574.57,-172.17 450.75,-151.05"/>
<polygon fill="#63b8ff" stroke="#63b8ff" points="451.17,-147.57 440.72,-149.31 449.98,-154.46 451.17,-147.57"/>
</a>
</g>
</g>
<!-- Node31 -->
<g id="Node000031" class="node">
<title>Node31</title>
<g id="a_Node000031"><a xlink:title=" ">
<polygon fill="#e0e0e0" stroke="#999999" points="498.5,-151 458.5,-151 458.5,-132 498.5,-132 498.5,-151"/>
<text text-anchor="middle" x="478.5" y="-139" font-family="Helvetica,sans-Serif" font-size="10.00">span</text>
</a>
</g>
</g>
<!-- Node4&#45;&gt;Node31 -->
<g id="edge38_Node000004_Node000031" class="edge">
<title>Node4&#45;&gt;Node31</title>
<g id="a_edge38_Node000004_Node000031"><a xlink:title=" ">
<path fill="none" stroke="#63b8ff" d="M778.46,-191.16C718.38,-185.04 609.89,-172.37 508.48,-150.93"/>
<polygon fill="#63b8ff" stroke="#63b8ff" points="509.2,-147.5 498.69,-148.82 507.73,-154.35 509.2,-147.5"/>
</a>
</g>
</g>
<!-- Node32 -->
<g id="Node000032" class="node">
<title>Node32</title>
<g id="a_Node000032"><a xlink:title=" ">
<polygon fill="#e0e0e0" stroke="#999999" points="586,-151 517,-151 517,-132 586,-132 586,-151"/>
<text text-anchor="middle" x="551.5" y="-139" font-family="Helvetica,sans-Serif" font-size="10.00">type_traits</text>
</a>
</g>
</g>
<!-- Node4&#45;&gt;Node32 -->
<g id="edge39_Node000004_Node000032" class="edge">
<title>Node4&#45;&gt;Node32</title>
<g id="a_edge39_Node000004_Node000032"><a xlink:title=" ">
<path fill="none" stroke="#63b8ff" d="M779.97,-186.94C735.8,-178.44 665.9,-164.95 596.47,-151.38"/>
<polygon fill="#63b8ff" stroke="#63b8ff" points="596.72,-147.86 586.23,-149.38 595.37,-154.73 596.72,-147.86"/>
</a>
</g>
</g>
<!-- Node33 -->
<g id="Node000033" class="node">
<title>Node33</title>
<g id="a_Node000033"><a xlink:title=" ">
<polygon fill="#e0e0e0" stroke="#999999" points="651,-151 604,-151 604,-132 651,-132 651,-151"/>
<text text-anchor="middle" x="627.5" y="-139" font-family="Helvetica,sans-Serif" font-size="10.00">vector</text>
</a>
</g>
</g>
<!-- Node4&#45;&gt;Node33 -->
<g id="edge40_Node000004_Node000033" class="edge">
<title>Node4&#45;&gt;Node33</title>
<g id="a_edge40_Node000004_Node000033"><a xlink:title=" ">
<path fill="none" stroke="#63b8ff" d="M792.85,-186.98C756.66,-177.25 697.68,-161.38 660.81,-151.46"/>
<polygon fill="#63b8ff" stroke="#63b8ff" points="661.6,-148.05 651.04,-148.83 659.78,-154.81 661.6,-148.05"/>
</a>
</g>
</g>
<!-- Node8 -->
<g id="Node000008" class="node">
<title>Node8</title>
<g id="a_Node000008"><a xlink:href="device__qualifier_8hpp.html" target="_top" xlink:title=" ">
<polygon fill="white" stroke="#666666" points="738.5,-90.5 624.5,-90.5 624.5,-71.5 738.5,-71.5 738.5,-90.5"/>
<text text-anchor="middle" x="681.5" y="-78.5" font-family="Helvetica,sans-Serif" font-size="10.00">device_qualifier.hpp</text>
</a>
</g>
</g>
<!-- Node7&#45;&gt;Node8 -->
<g id="edge7_Node000007_Node000008" class="edge">
<title>Node7&#45;&gt;Node8</title>
<g id="a_edge7_Node000007_Node000008"><a xlink:title=" ">
<path fill="none" stroke="#63b8ff" d="M1032.25,-133.98C1027.61,-133.3 1022.96,-132.63 1018.5,-132 898.19,-115.04 867.24,-116.62 747.5,-96 741.66,-94.99 735.55,-93.84 729.5,-92.63"/>
<polygon fill="#63b8ff" stroke="#63b8ff" points="729.94,-89.15 719.45,-90.57 728.54,-96.01 729.94,-89.15"/>
</a>
</g>
</g>
<!-- Node7&#45;&gt;Node9 -->
<g id="edge23_Node000007_Node000009" class="edge">
<title>Node7&#45;&gt;Node9</title>
<g id="a_edge23_Node000007_Node000009"><a xlink:title=" ">
<path fill="none" stroke="#63b8ff" d="M1032.34,-135.15C1023.16,-134.06 1013.51,-132.96 1004.5,-132 831.84,-113.68 777.13,-159.43 615.5,-96 595.14,-88.01 596.84,-74.02 576.5,-66 420.75,-4.56 364.21,-69.49 201.5,-30 199.19,-29.44 196.84,-28.76 194.49,-28"/>
<polygon fill="#63b8ff" stroke="#63b8ff" points="195.66,-24.7 185.07,-24.57 193.27,-31.28 195.66,-24.7"/>
</a>
</g>
</g>
<!-- Node7&#45;&gt;Node10 -->
<g id="edge9_Node000007_Node000010" class="edge">
<title>Node7&#45;&gt;Node10</title>
<g id="a_edge9_Node000007_Node000010"><a xlink:title=" ">
<path fill="none" stroke="#63b8ff" d="M1111.85,-131.99C1159.16,-120.92 1241.39,-101.68 1288.85,-90.58"/>
<polygon fill="#63b8ff" stroke="#63b8ff" points="1289.76,-93.96 1298.7,-88.27 1288.17,-87.14 1289.76,-93.96"/>
</a>
</g>
</g>
<!-- Node7&#45;&gt;Node11 -->
<g id="edge24_Node000007_Node000011" class="edge">
<title>Node7&#45;&gt;Node11</title>
<g id="a_edge24_Node000007_Node000011"><a xlink:title=" ">
<path fill="none" stroke="#63b8ff" d="M1054.35,-131.93C1039.67,-124.73 1021.25,-112.88 1012.5,-96 1006.37,-84.16 1003.7,-76.02 1012.5,-66 1053.47,-19.36 1229.36,-45.36 1289.5,-30 1291.8,-29.41 1294.16,-28.72 1296.51,-27.96"/>
<polygon fill="#63b8ff" stroke="#63b8ff" points="1297.73,-31.24 1305.98,-24.58 1295.38,-24.65 1297.73,-31.24"/>
</a>
</g>
</g>
<!-- Node12 -->
<g id="Node000012" class="node">
<title>Node12</title>
<g id="a_Node000012"><a xlink:title=" ">
<polygon fill="#e0e0e0" stroke="#999999" points="1415,-24.5 1370,-24.5 1370,-5.5 1415,-5.5 1415,-24.5"/>
<text text-anchor="middle" x="1392.5" y="-12.5" font-family="Helvetica,sans-Serif" font-size="10.00">utility</text>
</a>
</g>
</g>
<!-- Node7&#45;&gt;Node12 -->
<g id="edge28_Node000007_Node000012" class="edge">
<title>Node7&#45;&gt;Node12</title>
<g id="a_edge28_Node000007_Node000012"><a xlink:title=" ">
<path fill="none" stroke="#63b8ff" d="M1105.16,-131.94C1133.33,-123.58 1176.71,-110.09 1213.5,-96 1280.76,-70.24 1295.79,-59.49 1361.5,-30 1362.35,-29.62 1363.21,-29.23 1364.08,-28.84"/>
<polygon fill="#63b8ff" stroke="#63b8ff" points="1365.81,-31.9 1373.49,-24.6 1362.93,-25.52 1365.81,-31.9"/>
</a>
</g>
</g>
<!-- Node13 -->
<g id="Node000013" class="node">
<title>Node13</title>
<g id="a_Node000013"><a xlink:href="array_8hpp.html" target="_top" xlink:title=" ">
<polygon fill="white" stroke="#666666" points="965,-90.5 840,-90.5 840,-71.5 965,-71.5 965,-90.5"/>
<text text-anchor="middle" x="902.5" y="-78.5" font-family="Helvetica,sans-Serif" font-size="10.00">serialization/array.hpp</text>
</a>
</g>
</g>
<!-- Node7&#45;&gt;Node13 -->
<g id="edge12_Node000007_Node000013" class="edge">
<title>Node7&#45;&gt;Node13</title>
<g id="a_edge12_Node000007_Node000013"><a xlink:title=" ">
<path fill="none" stroke="#63b8ff" d="M1050.34,-131.99C1020.62,-121.94 970.98,-105.16 937.51,-93.84"/>
<polygon fill="#63b8ff" stroke="#63b8ff" points="938.28,-90.4 927.69,-90.52 936.04,-97.04 938.28,-90.4"/>
</a>
</g>
</g>
<!-- Node22 -->
<g id="Node000022" class="node">
<title>Node22</title>
<g id="a_Node000022"><a xlink:title=" ">
<polygon fill="#e0e0e0" stroke="#999999" points="1129,-96 1022,-96 1022,-66 1129,-66 1129,-96"/>
<text text-anchor="start" x="1030" y="-84" font-family="Helvetica,sans-Serif" font-size="10.00">boost/serialization</text>
<text text-anchor="middle" x="1075.5" y="-73" font-family="Helvetica,sans-Serif" font-size="10.00">/access.hpp</text>
</a>
</g>
</g>
<!-- Node7&#45;&gt;Node22 -->
<g id="edge22_Node000007_Node000022" class="edge">
<title>Node7&#45;&gt;Node22</title>
<g id="a_edge22_Node000007_Node000022"><a xlink:title=" ">
<path fill="none" stroke="#63b8ff" d="M1075.5,-131.87C1075.5,-125.11 1075.5,-115.35 1075.5,-106.26"/>
<polygon fill="#63b8ff" stroke="#63b8ff" points="1079,-106.11 1075.5,-96.11 1072,-106.11 1079,-106.11"/>
</a>
</g>
</g>
<!-- Node7&#45;&gt;Node23 -->
<g id="edge25_Node000007_Node000023" class="edge">
<title>Node7&#45;&gt;Node23</title>
<g id="a_edge25_Node000007_Node000023"><a xlink:title=" ">
<path fill="none" stroke="#63b8ff" d="M1032.28,-133.75C1027.63,-133.12 1022.97,-132.52 1018.5,-132 825.35,-109.65 772.84,-135.72 582.5,-96 579.43,-95.36 576.28,-94.56 573.15,-93.66"/>
<polygon fill="#63b8ff" stroke="#63b8ff" points="573.94,-90.24 563.35,-90.57 571.84,-96.92 573.94,-90.24"/>
</a>
</g>
</g>
<!-- Node24 -->
<g id="Node000024" class="node">
<title>Node24</title>
<g id="a_Node000024"><a xlink:title=" ">
<polygon fill="#e0e0e0" stroke="#999999" points="1204,-90.5 1147,-90.5 1147,-71.5 1204,-71.5 1204,-90.5"/>
<text text-anchor="middle" x="1175.5" y="-78.5" font-family="Helvetica,sans-Serif" font-size="10.00">ostream</text>
</a>
</g>
</g>
<!-- Node7&#45;&gt;Node24 -->
<g id="edge26_Node000007_Node000024" class="edge">
<title>Node7&#45;&gt;Node24</title>
<g id="a_edge26_Node000007_Node000024"><a xlink:title=" ">
<path fill="none" stroke="#63b8ff" d="M1090.26,-131.87C1106.5,-122.36 1132.85,-106.95 1151.96,-95.77"/>
<polygon fill="#63b8ff" stroke="#63b8ff" points="1153.82,-98.74 1160.68,-90.67 1150.29,-92.7 1153.82,-98.74"/>
</a>
</g>
</g>
<!-- Node25 -->
<g id="Node000025" class="node">
<title>Node25</title>
<g id="a_Node000025"><a xlink:title=" ">
<polygon fill="#e0e0e0" stroke="#999999" points="822,-90.5 757,-90.5 757,-71.5 822,-71.5 822,-90.5"/>
<text text-anchor="middle" x="789.5" y="-78.5" font-family="Helvetica,sans-Serif" font-size="10.00">stdexcept</text>
</a>
</g>
</g>
<!-- Node7&#45;&gt;Node25 -->
<g id="edge27_Node000007_Node000025" class="edge">
<title>Node7&#45;&gt;Node25</title>
<g id="a_edge27_Node000007_Node000025"><a xlink:title=" ">
<path fill="none" stroke="#63b8ff" d="M1032.25,-133.45C972.52,-123.56 867.89,-105.72 830.5,-96 827.86,-95.31 825.15,-94.54 822.43,-93.72"/>
<polygon fill="#63b8ff" stroke="#63b8ff" points="823.32,-90.33 812.73,-90.61 821.18,-97 823.32,-90.33"/>
</a>
</g>
</g>
<!-- Node8&#45;&gt;Node9 -->
<g id="edge8_Node000008_Node000009" class="edge">
<title>Node8&#45;&gt;Node9</title>
<g id="a_edge8_Node000008_Node000009"><a xlink:title=" ">
<path fill="none" stroke="#63b8ff" d="M642.19,-71.47C631.92,-69.46 620.82,-67.47 610.5,-66 429.84,-40.31 379,-72.34 201.5,-30 199.19,-29.45 196.83,-28.77 194.49,-28.02"/>
<polygon fill="#63b8ff" stroke="#63b8ff" points="195.66,-24.72 185.06,-24.59 193.26,-31.3 195.66,-24.72"/>
</a>
</g>
</g>
<!-- Node10&#45;&gt;Node11 -->
<g id="edge10_Node000010_Node000011" class="edge">
<title>Node10&#45;&gt;Node11</title>
<g id="a_edge10_Node000010_Node000011"><a xlink:title=" ">
<path fill="none" stroke="#63b8ff" d="M1325.5,-71.37C1325.5,-62.16 1325.5,-47.29 1325.5,-35.27"/>
<polygon fill="#63b8ff" stroke="#63b8ff" points="1329,-34.91 1325.5,-24.91 1322,-34.91 1329,-34.91"/>
</a>
</g>
</g>
<!-- Node10&#45;&gt;Node12 -->
<g id="edge11_Node000010_Node000012" class="edge">
<title>Node10&#45;&gt;Node12</title>
<g id="a_edge11_Node000010_Node000012"><a xlink:title=" ">
<path fill="none" stroke="#63b8ff" d="M1334.54,-71.37C1345.07,-61.31 1362.69,-44.48 1375.74,-32.01"/>
<polygon fill="#63b8ff" stroke="#63b8ff" points="1378.36,-34.34 1383.18,-24.91 1373.53,-29.28 1378.36,-34.34"/>
</a>
</g>
</g>
<!-- Node13&#45;&gt;Node11 -->
<g id="edge21_Node000013_Node000011" class="edge">
<title>Node13&#45;&gt;Node11</title>
<g id="a_edge21_Node000013_Node000011"><a xlink:title=" ">
<path fill="none" stroke="#63b8ff" d="M946.8,-71.44C957.49,-69.52 968.88,-67.58 979.5,-66 1116.69,-45.58 1154.88,-63.41 1289.5,-30 1291.81,-29.43 1294.16,-28.75 1296.51,-27.99"/>
<polygon fill="#63b8ff" stroke="#63b8ff" points="1297.74,-31.28 1305.99,-24.63 1295.39,-24.68 1297.74,-31.28"/>
</a>
</g>
</g>
<!-- Node14 -->
<g id="Node000014" class="node">
<title>Node14</title>
<g id="a_Node000014"><a xlink:title=" ">
<polygon fill="#e0e0e0" stroke="#999999" points="1018,-24.5 885,-24.5 885,-5.5 1018,-5.5 1018,-24.5"/>
<text text-anchor="middle" x="951.5" y="-12.5" font-family="Helvetica,sans-Serif" font-size="10.00">boost/mpl/bool_fwd.hpp</text>
</a>
</g>
</g>
<!-- Node13&#45;&gt;Node14 -->
<g id="edge13_Node000013_Node000014" class="edge">
<title>Node13&#45;&gt;Node14</title>
<g id="a_edge13_Node000013_Node000014"><a xlink:title=" ">
<path fill="none" stroke="#63b8ff" d="M909.11,-71.37C916.59,-61.59 928.97,-45.42 938.43,-33.08"/>
<polygon fill="#63b8ff" stroke="#63b8ff" points="941.38,-34.97 944.68,-24.91 935.82,-30.72 941.38,-34.97"/>
</a>
</g>
</g>
<!-- Node15 -->
<g id="Node000015" class="node">
<title>Node15</title>
<g id="a_Node000015"><a xlink:title=" ">
<polygon fill="#e0e0e0" stroke="#999999" points="1160.5,-24.5 1036.5,-24.5 1036.5,-5.5 1160.5,-5.5 1160.5,-24.5"/>
<text text-anchor="middle" x="1098.5" y="-12.5" font-family="Helvetica,sans-Serif" font-size="10.00">boost/mpl/greater.hpp</text>
</a>
</g>
</g>
<!-- Node13&#45;&gt;Node15 -->
<g id="edge14_Node000013_Node000015" class="edge">
<title>Node13&#45;&gt;Node15</title>
<g id="a_edge14_Node000013_Node000015"><a xlink:title=" ">
<path fill="none" stroke="#63b8ff" d="M928.93,-71.37C963.37,-60.12 1023.72,-40.42 1062.37,-27.8"/>
<polygon fill="#63b8ff" stroke="#63b8ff" points="1063.75,-31.03 1072.17,-24.6 1061.58,-24.37 1063.75,-31.03"/>
</a>
</g>
</g>
<!-- Node16 -->
<g id="Node000016" class="node">
<title>Node16</title>
<g id="a_Node000016"><a xlink:title=" ">
<polygon fill="#e0e0e0" stroke="#999999" points="1280.5,-24.5 1178.5,-24.5 1178.5,-5.5 1280.5,-5.5 1280.5,-24.5"/>
<text text-anchor="middle" x="1229.5" y="-12.5" font-family="Helvetica,sans-Serif" font-size="10.00">boost/mpl/int.hpp</text>
</a>
</g>
</g>
<!-- Node13&#45;&gt;Node16 -->
<g id="edge15_Node000013_Node000016" class="edge">
<title>Node13&#45;&gt;Node16</title>
<g id="a_edge15_Node000013_Node000016"><a xlink:title=" ">
<path fill="none" stroke="#63b8ff" d="M949.5,-71.46C1014.43,-59.61 1128.25,-38.67 1169.5,-30 1174.22,-29.01 1179.15,-27.93 1184.05,-26.83"/>
<polygon fill="#63b8ff" stroke="#63b8ff" points="1185.05,-30.19 1194.02,-24.55 1183.5,-23.36 1185.05,-30.19"/>
</a>
</g>
</g>
<!-- Node17 -->
<g id="Node000017" class="node">
<title>Node17</title>
<g id="a_Node000017"><a xlink:title=" ">
<polygon fill="#e0e0e0" stroke="#999999" points="316.5,-30 210.5,-30 210.5,0 316.5,0 316.5,-30"/>
<text text-anchor="start" x="218.5" y="-18" font-family="Helvetica,sans-Serif" font-size="10.00">boost/mpl/integral</text>
<text text-anchor="middle" x="263.5" y="-7" font-family="Helvetica,sans-Serif" font-size="10.00">_c_tag.hpp</text>
</a>
</g>
</g>
<!-- Node13&#45;&gt;Node17 -->
<g id="edge16_Node000013_Node000017" class="edge">
<title>Node13&#45;&gt;Node17</title>
<g id="a_edge16_Node000013_Node000017"><a xlink:title=" ">
<path fill="none" stroke="#63b8ff" d="M863.03,-71.43C852.5,-69.39 841.1,-67.4 830.5,-66 610.7,-36.9 549.87,-62.11 326.57,-29.99"/>
<polygon fill="#63b8ff" stroke="#63b8ff" points="326.9,-26.5 316.5,-28.52 325.89,-33.43 326.9,-26.5"/>
</a>
</g>
</g>
<!-- Node18 -->
<g id="Node000018" class="node">
<title>Node18</title>
<g id="a_Node000018"><a xlink:title=" ">
<polygon fill="#e0e0e0" stroke="#999999" points="486,-30 335,-30 335,0 486,0 486,-30"/>
<text text-anchor="start" x="343" y="-18" font-family="Helvetica,sans-Serif" font-size="10.00">boost/serialization</text>
<text text-anchor="middle" x="410.5" y="-7" font-family="Helvetica,sans-Serif" font-size="10.00">/is_bitwise_serializable.hpp</text>
</a>
</g>
</g>
<!-- Node13&#45;&gt;Node18 -->
<g id="edge17_Node000013_Node000018" class="edge">
<title>Node13&#45;&gt;Node18</title>
<g id="a_edge17_Node000013_Node000018"><a xlink:title=" ">
<path fill="none" stroke="#63b8ff" d="M861.86,-71.47C851.65,-69.5 840.7,-67.54 830.5,-66 685.18,-44.13 645.02,-50.08 496,-30.15"/>
<polygon fill="#63b8ff" stroke="#63b8ff" points="496.4,-26.67 486.02,-28.8 495.46,-33.61 496.4,-26.67"/>
</a>
</g>
</g>
<!-- Node19 -->
<g id="Node000019" class="node">
<title>Node19</title>
<g id="a_Node000019"><a xlink:title=" ">
<polygon fill="#e0e0e0" stroke="#999999" points="611,-30 504,-30 504,0 611,0 611,-30"/>
<text text-anchor="start" x="512" y="-18" font-family="Helvetica,sans-Serif" font-size="10.00">boost/serialization</text>
<text text-anchor="middle" x="557.5" y="-7" font-family="Helvetica,sans-Serif" font-size="10.00">/level.hpp</text>
</a>
</g>
</g>
<!-- Node13&#45;&gt;Node19 -->
<g id="edge18_Node000013_Node000019" class="edge">
<title>Node13&#45;&gt;Node19</title>
<g id="a_edge18_Node000013_Node000019"><a xlink:title=" ">
<path fill="none" stroke="#63b8ff" d="M859.51,-71.47C849.97,-69.63 839.9,-67.71 830.5,-66 740.02,-49.49 714.5,-48.53 621.1,-30.26"/>
<polygon fill="#63b8ff" stroke="#63b8ff" points="621.72,-26.82 611.23,-28.32 620.37,-33.68 621.72,-26.82"/>
</a>
</g>
</g>
<!-- Node20 -->
<g id="Node000020" class="node">
<title>Node20</title>
<g id="a_Node000020"><a xlink:title=" ">
<polygon fill="#e0e0e0" stroke="#999999" points="736,-30 629,-30 629,0 736,0 736,-30"/>
<text text-anchor="start" x="637" y="-18" font-family="Helvetica,sans-Serif" font-size="10.00">boost/serialization</text>
<text text-anchor="middle" x="682.5" y="-7" font-family="Helvetica,sans-Serif" font-size="10.00">/tracking.hpp</text>
</a>
</g>
</g>
<!-- Node13&#45;&gt;Node20 -->
<g id="edge19_Node000013_Node000020" class="edge">
<title>Node13&#45;&gt;Node20</title>
<g id="a_edge19_Node000013_Node000020"><a xlink:title=" ">
<path fill="none" stroke="#63b8ff" d="M872.83,-71.37C839.1,-61.56 783.21,-45.3 740.7,-32.93"/>
<polygon fill="#63b8ff" stroke="#63b8ff" points="741.6,-29.55 731.02,-30.12 739.65,-36.27 741.6,-29.55"/>
</a>
</g>
</g>
<!-- Node21 -->
<g id="Node000021" class="node">
<title>Node21</title>
<g id="a_Node000021"><a xlink:title=" ">
<polygon fill="#e0e0e0" stroke="#999999" points="867,-30 754,-30 754,0 867,0 867,-30"/>
<text text-anchor="start" x="762" y="-18" font-family="Helvetica,sans-Serif" font-size="10.00">boost/serialization</text>
<text text-anchor="middle" x="810.5" y="-7" font-family="Helvetica,sans-Serif" font-size="10.00">/tracking_enum.hpp</text>
</a>
</g>
</g>
<!-- Node13&#45;&gt;Node21 -->
<g id="edge20_Node000013_Node000021" class="edge">
<title>Node13&#45;&gt;Node21</title>
<g id="a_edge20_Node000013_Node000021"><a xlink:title=" ">
<path fill="none" stroke="#63b8ff" d="M890.09,-71.37C877.14,-62.36 856.39,-47.92 839.32,-36.05"/>
<polygon fill="#63b8ff" stroke="#63b8ff" points="841,-32.95 830.79,-30.12 837,-38.7 841,-32.95"/>
</a>
</g>
</g>
</g>
</svg>
