<?xml version="1.0" encoding="UTF-8" standalone="no"?>
<!DOCTYPE svg PUBLIC "-//W3C//DTD SVG 1.1//EN"
 "http://www.w3.org/Graphics/SVG/1.1/DTD/svg11.dtd">
<!-- Generated by graphviz version 2.43.0 (0)
 -->
<!-- Title: angle_cosine.hpp Pages: 1 -->
<!--zoomable 520 -->
<svg id="main" version="1.1" xmlns="http://www.w3.org/2000/svg" xmlns:xlink="http://www.w3.org/1999/xlink" xml:space="preserve" onload="init(evt)">
<style type="text/css"><![CDATA[
.edge:hover path { stroke: red; }
.edge:hover polygon { stroke: red; fill: red; }
]]></style>
<script type="text/javascript"><![CDATA[
var edges = document.getElementsByTagName('g');
if (edges && edges.length) {
  for (var i=0;i<edges.length;i++) {
    if (edges[i].id.substr(0,4)=='edge') {
      edges[i].setAttribute('class','edge');
    }
  }
}
]]></script>
        <defs>
                <circle id="rim" cx="0" cy="0" r="7"/>
                <circle id="rim2" cx="0" cy="0" r="3.5"/>
                <g id="zoomPlus">
                        <use xlink:href="#rim" fill="#404040">
                                <set attributeName="fill" to="#808080" begin="zoomplus.mouseover" end="zoomplus.mouseout"/>
                        </use>
                        <path d="M-4,0h8M0,-4v8" fill="none" stroke="white" stroke-width="1.5" pointer-events="none"/>
                </g>
                <g id="zoomMin">
                        <use xlink:href="#rim" fill="#404040">
                                <set attributeName="fill" to="#808080" begin="zoomminus.mouseover" end="zoomminus.mouseout"/>
                        </use>
                        <path d="M-4,0h8" fill="none" stroke="white" stroke-width="1.5" pointer-events="none"/>
                </g>
                <g id="dirArrow">
                        <path fill="none" stroke="white" stroke-width="1.5" d="M0,-3.0v7 M-2.5,-0.5L0,-3.0L2.5,-0.5"/>
                </g>
               <g id="resetDef">
                       <use xlink:href="#rim2" fill="#404040">
                               <set attributeName="fill" to="#808080" begin="reset.mouseover" end="reset.mouseout"/>
                       </use>
               </g>
        </defs>

<script type="text/javascript">
var viewWidth = 1357;
var viewHeight = 520;
var sectionId = 'dynsection-0';
</script>
<script xlink:href="svgpan.js"/>
<svg id="graph" class="graph">
<g id="viewport">
<title>angle_cosine.hpp</title>
<!-- Node1 -->
<g id="node1" class="node">
<title>Node1</title>
<g id="a_node1"><a xlink:title=" ">
<polygon fill="#bfbfbf" stroke="black" points="795,-492.5 795,-511.5 896,-511.5 896,-492.5 795,-492.5"/>
<text text-anchor="middle" x="845.5" y="-499.5" font-family="Helvetica,sans-Serif" font-size="10.00">angle_cosine.hpp</text>
</a>
</g>
</g>
<!-- Node2 -->
<g id="node2" class="node">
<title>Node2</title>
<g id="a_node2"><a xlink:href="angle__common_8hpp.html" target="_top" xlink:title=" ">
<polygon fill="none" stroke="black" points="789,-436.5 789,-455.5 902,-455.5 902,-436.5 789,-436.5"/>
<text text-anchor="middle" x="845.5" y="-443.5" font-family="Helvetica,sans-Serif" font-size="10.00">angle_common.hpp</text>
</a>
</g>
</g>
<!-- Node1&#45;&gt;Node2 -->
<g id="edge1" class="edge">
<title>Node1&#45;&gt;Node2</title>
<path fill="none" stroke="midnightblue" d="M845.5,-492.08C845.5,-485.01 845.5,-474.86 845.5,-465.99"/>
<polygon fill="midnightblue" stroke="midnightblue" points="849,-465.75 845.5,-455.75 842,-465.75 849,-465.75"/>
</g>
<!-- Node8 -->
<g id="node8" class="node">
<title>Node8</title>
<g id="a_node8"><a xlink:title=" ">
<polygon fill="none" stroke="#bfbfbf" points="140,-134.5 140,-153.5 187,-153.5 187,-134.5 140,-134.5"/>
<text text-anchor="middle" x="163.5" y="-141.5" font-family="Helvetica,sans-Serif" font-size="10.00">cmath</text>
</a>
</g>
</g>
<!-- Node1&#45;&gt;Node8 -->
<g id="edge66" class="edge">
<title>Node1&#45;&gt;Node8</title>
<path fill="none" stroke="midnightblue" d="M794.87,-498.52C632.2,-489.9 133.5,-457.99 133.5,-391 133.5,-391 133.5,-391 133.5,-333 133.5,-270.05 150.11,-196.7 158.61,-163.27"/>
<polygon fill="midnightblue" stroke="midnightblue" points="162.01,-164.1 161.15,-153.54 155.24,-162.34 162.01,-164.1"/>
</g>
<!-- Node12 -->
<g id="node12" class="node">
<title>Node12</title>
<g id="a_node12"><a xlink:href="Vector_8hpp.html" target="_top" xlink:title="Vector implementation and trait types for boost qvm interoperability.">
<polygon fill="none" stroke="black" points="733,-196 733,-215 826,-215 826,-196 733,-196"/>
<text text-anchor="middle" x="779.5" y="-203" font-family="Helvetica,sans-Serif" font-size="10.00">utils/Vector.hpp</text>
</a>
</g>
</g>
<!-- Node1&#45;&gt;Node12 -->
<g id="edge63" class="edge">
<title>Node1&#45;&gt;Node12</title>
<path fill="none" stroke="midnightblue" d="M896.09,-501.48C972.75,-499.26 1109.5,-482.49 1109.5,-391 1109.5,-391 1109.5,-391 1109.5,-333 1109.5,-275.13 930.34,-233.86 836.04,-216.15"/>
<polygon fill="midnightblue" stroke="midnightblue" points="836.55,-212.68 826.08,-214.31 835.28,-219.57 836.55,-212.68"/>
</g>
<!-- Node20 -->
<g id="node20" class="node">
<title>Node20</title>
<g id="a_node20"><a xlink:title=" ">
<polygon fill="none" stroke="#bfbfbf" points="1303,-6 1303,-25 1344,-25 1344,-6 1303,-6"/>
<text text-anchor="middle" x="1323.5" y="-13" font-family="Helvetica,sans-Serif" font-size="10.00">tuple</text>
</a>
</g>
</g>
<!-- Node1&#45;&gt;Node20 -->
<g id="edge67" class="edge">
<title>Node1&#45;&gt;Node20</title>
<path fill="none" stroke="midnightblue" d="M896.03,-500.58C1023.59,-498.16 1348.5,-482.96 1348.5,-391 1348.5,-391 1348.5,-391 1348.5,-143 1348.5,-103.98 1336.91,-59.45 1329.51,-35"/>
<polygon fill="midnightblue" stroke="midnightblue" points="1332.8,-33.77 1326.47,-25.28 1326.12,-35.87 1332.8,-33.77"/>
</g>
<!-- Node45 -->
<g id="node45" class="node">
<title>Node45</title>
<g id="a_node45"><a xlink:href="sqr_8hpp.html" target="_top" xlink:title=" ">
<polygon fill="none" stroke="black" points="0,-436.5 0,-455.5 105,-455.5 105,-436.5 0,-436.5"/>
<text text-anchor="middle" x="52.5" y="-443.5" font-family="Helvetica,sans-Serif" font-size="10.00">utils/math/sqr.hpp</text>
</a>
</g>
</g>
<!-- Node1&#45;&gt;Node45 -->
<g id="edge64" class="edge">
<title>Node1&#45;&gt;Node45</title>
<path fill="none" stroke="midnightblue" d="M794.79,-499.11C676.36,-494.42 372.43,-480.79 119.5,-456 118.04,-455.86 116.56,-455.71 115.07,-455.55"/>
<polygon fill="midnightblue" stroke="midnightblue" points="115.45,-452.07 105.13,-454.43 114.67,-459.03 115.45,-452.07"/>
</g>
<!-- Node3 -->
<g id="node3" class="node">
<title>Node3</title>
<g id="a_node3"><a xlink:href="config_8hpp.html" target="_top" xlink:title=" ">
<polygon fill="none" stroke="black" points="526.5,-380.5 526.5,-399.5 594.5,-399.5 594.5,-380.5 526.5,-380.5"/>
<text text-anchor="middle" x="560.5" y="-387.5" font-family="Helvetica,sans-Serif" font-size="10.00">config.hpp</text>
</a>
</g>
</g>
<!-- Node2&#45;&gt;Node3 -->
<g id="edge2" class="edge">
<title>Node2&#45;&gt;Node3</title>
<path fill="none" stroke="midnightblue" d="M800.34,-436.44C746.78,-426.29 658.07,-409.49 604.86,-399.41"/>
<polygon fill="midnightblue" stroke="midnightblue" points="605.19,-395.91 594.71,-397.48 603.89,-402.78 605.19,-395.91"/>
</g>
<!-- Node5 -->
<g id="node5" class="node">
<title>Node5</title>
<g id="a_node5"><a xlink:href="grid_8hpp.html" target="_top" xlink:title=" ">
<polygon fill="none" stroke="black" points="845.5,-380.5 845.5,-399.5 901.5,-399.5 901.5,-380.5 845.5,-380.5"/>
<text text-anchor="middle" x="873.5" y="-387.5" font-family="Helvetica,sans-Serif" font-size="10.00">grid.hpp</text>
</a>
</g>
</g>
<!-- Node2&#45;&gt;Node5 -->
<g id="edge4" class="edge">
<title>Node2&#45;&gt;Node5</title>
<path fill="none" stroke="midnightblue" d="M850.12,-436.08C853.96,-428.69 859.52,-417.95 864.26,-408.81"/>
<polygon fill="midnightblue" stroke="midnightblue" points="867.47,-410.24 868.96,-399.75 861.25,-407.02 867.47,-410.24"/>
</g>
<!-- Node2&#45;&gt;Node12 -->
<g id="edge61" class="edge">
<title>Node2&#45;&gt;Node12</title>
<path fill="none" stroke="midnightblue" d="M843.07,-436.23C833.45,-401.46 797.86,-272.85 784.56,-224.78"/>
<polygon fill="midnightblue" stroke="midnightblue" points="787.92,-223.8 781.88,-215.1 781.17,-225.67 787.92,-223.8"/>
</g>
<!-- Node2&#45;&gt;Node20 -->
<g id="edge62" class="edge">
<title>Node2&#45;&gt;Node20</title>
<path fill="none" stroke="midnightblue" d="M902.15,-436.7C985.01,-421.66 1139.09,-382.22 1228.5,-288 1299.15,-213.55 1317.59,-83.65 1322.12,-35.32"/>
<polygon fill="midnightblue" stroke="midnightblue" points="1325.6,-35.6 1322.96,-25.34 1318.63,-35.01 1325.6,-35.6"/>
</g>
<!-- Node4 -->
<g id="node4" class="node">
<title>Node4</title>
<g id="a_node4"><a xlink:title=" ">
<polygon fill="none" stroke="#bfbfbf" points="309.5,-324.5 309.5,-343.5 421.5,-343.5 421.5,-324.5 309.5,-324.5"/>
<text text-anchor="middle" x="365.5" y="-331.5" font-family="Helvetica,sans-Serif" font-size="10.00">config&#45;features.hpp</text>
</a>
</g>
</g>
<!-- Node3&#45;&gt;Node4 -->
<g id="edge3" class="edge">
<title>Node3&#45;&gt;Node4</title>
<path fill="none" stroke="midnightblue" d="M529.6,-380.44C496.23,-371.2 442.91,-356.44 406.15,-346.26"/>
<polygon fill="midnightblue" stroke="midnightblue" points="406.83,-342.81 396.25,-343.52 404.96,-349.56 406.83,-342.81"/>
</g>
<!-- Node6 -->
<g id="node6" class="node">
<title>Node6</title>
<g id="a_node6"><a xlink:href="BoxGeometry_8hpp.html" target="_top" xlink:title=" ">
<polygon fill="none" stroke="black" points="439.5,-324.5 439.5,-343.5 543.5,-343.5 543.5,-324.5 439.5,-324.5"/>
<text text-anchor="middle" x="491.5" y="-331.5" font-family="Helvetica,sans-Serif" font-size="10.00">BoxGeometry.hpp</text>
</a>
</g>
</g>
<!-- Node5&#45;&gt;Node6 -->
<g id="edge5" class="edge">
<title>Node5&#45;&gt;Node6</title>
<path fill="none" stroke="midnightblue" d="M845.41,-385.03C784.23,-376.38 637.7,-355.67 553.62,-343.78"/>
<polygon fill="midnightblue" stroke="midnightblue" points="554.08,-340.31 543.69,-342.38 553.1,-347.24 554.08,-340.31"/>
</g>
<!-- Node5&#45;&gt;Node12 -->
<g id="edge59" class="edge">
<title>Node5&#45;&gt;Node12</title>
<path fill="none" stroke="midnightblue" d="M872.25,-380.36C868.77,-358.35 857.44,-298.92 831.5,-257 823.06,-243.36 810.13,-230.78 799.27,-221.58"/>
<polygon fill="midnightblue" stroke="midnightblue" points="801.45,-218.85 791.48,-215.25 797.04,-224.28 801.45,-218.85"/>
</g>
<!-- Node42 -->
<g id="node42" class="node">
<title>Node42</title>
<g id="a_node42"><a xlink:href="LocalBox_8hpp.html" target="_top" xlink:title=" ">
<polygon fill="none" stroke="black" points="1137.5,-263 1137.5,-282 1219.5,-282 1219.5,-263 1137.5,-263"/>
<text text-anchor="middle" x="1178.5" y="-270" font-family="Helvetica,sans-Serif" font-size="10.00">LocalBox.hpp</text>
</a>
</g>
</g>
<!-- Node5&#45;&gt;Node42 -->
<g id="edge55" class="edge">
<title>Node5&#45;&gt;Node42</title>
<path fill="none" stroke="midnightblue" d="M901.5,-384.33C937.35,-377.82 1000.98,-364.47 1052.5,-344 1091.33,-328.57 1133.02,-303.34 1157.38,-287.62"/>
<polygon fill="midnightblue" stroke="midnightblue" points="1159.37,-290.5 1165.82,-282.1 1155.54,-284.64 1159.37,-290.5"/>
</g>
<!-- Node44 -->
<g id="node44" class="node">
<title>Node44</title>
<g id="a_node44"><a xlink:title=" ">
<polygon fill="none" stroke="#bfbfbf" points="883.5,-324.5 883.5,-343.5 1043.5,-343.5 1043.5,-324.5 883.5,-324.5"/>
<text text-anchor="middle" x="963.5" y="-331.5" font-family="Helvetica,sans-Serif" font-size="10.00">boost/mpi/communicator.hpp</text>
</a>
</g>
</g>
<!-- Node5&#45;&gt;Node44 -->
<g id="edge60" class="edge">
<title>Node5&#45;&gt;Node44</title>
<path fill="none" stroke="midnightblue" d="M887.96,-380.32C902,-371.9 923.55,-358.97 940.04,-349.07"/>
<polygon fill="midnightblue" stroke="midnightblue" points="942.3,-351.8 949.08,-343.65 938.7,-345.8 942.3,-351.8"/>
</g>
<!-- Node7 -->
<g id="node7" class="node">
<title>Node7</title>
<g id="a_node7"><a xlink:href="periodic__fold_8hpp.html" target="_top" xlink:title=" ">
<polygon fill="none" stroke="black" points="275.5,-257.5 275.5,-287.5 381.5,-287.5 381.5,-257.5 275.5,-257.5"/>
<text text-anchor="start" x="283.5" y="-275.5" font-family="Helvetica,sans-Serif" font-size="10.00">algorithm/periodic</text>
<text text-anchor="middle" x="328.5" y="-264.5" font-family="Helvetica,sans-Serif" font-size="10.00">_fold.hpp</text>
</a>
</g>
</g>
<!-- Node6&#45;&gt;Node7 -->
<g id="edge6" class="edge">
<title>Node6&#45;&gt;Node7</title>
<path fill="none" stroke="midnightblue" d="M468.15,-324.48C444.32,-315.78 406.65,-302.03 376.44,-291"/>
<polygon fill="midnightblue" stroke="midnightblue" points="377.51,-287.66 366.92,-287.52 375.11,-294.24 377.51,-287.66"/>
</g>
<!-- Node6&#45;&gt;Node8 -->
<g id="edge52" class="edge">
<title>Node6&#45;&gt;Node8</title>
<path fill="none" stroke="midnightblue" d="M440.62,-324.49C372.77,-312.99 260.25,-293.31 252.5,-288 207.17,-256.98 180.44,-194.48 169.43,-163.41"/>
<polygon fill="midnightblue" stroke="midnightblue" points="172.7,-162.18 166.18,-153.83 166.07,-164.43 172.7,-162.18"/>
</g>
<!-- Node9 -->
<g id="node9" class="node">
<title>Node9</title>
<g id="a_node9"><a xlink:title=" ">
<polygon fill="none" stroke="#bfbfbf" points="242.5,-196 242.5,-215 286.5,-215 286.5,-196 242.5,-196"/>
<text text-anchor="middle" x="264.5" y="-203" font-family="Helvetica,sans-Serif" font-size="10.00">limits</text>
</a>
</g>
</g>
<!-- Node6&#45;&gt;Node9 -->
<g id="edge53" class="edge">
<title>Node6&#45;&gt;Node9</title>
<path fill="none" stroke="midnightblue" d="M440.69,-324.48C376.08,-313.41 272.13,-294.7 266.5,-288 251.95,-270.69 254.78,-243.25 258.97,-225.06"/>
<polygon fill="midnightblue" stroke="midnightblue" points="262.36,-225.9 261.53,-215.33 255.6,-224.11 262.36,-225.9"/>
</g>
<!-- Node10 -->
<g id="node10" class="node">
<title>Node10</title>
<g id="a_node10"><a xlink:title=" ">
<polygon fill="none" stroke="#bfbfbf" points="372,-196 372,-215 417,-215 417,-196 372,-196"/>
<text text-anchor="middle" x="394.5" y="-203" font-family="Helvetica,sans-Serif" font-size="10.00">utility</text>
</a>
</g>
</g>
<!-- Node6&#45;&gt;Node10 -->
<g id="edge54" class="edge">
<title>Node6&#45;&gt;Node10</title>
<path fill="none" stroke="midnightblue" d="M475.09,-324.42C461.36,-316.53 442.04,-303.69 429.5,-288 414.44,-269.15 404.7,-242.85 399.41,-225.27"/>
<polygon fill="midnightblue" stroke="midnightblue" points="402.65,-223.83 396.57,-215.15 395.91,-225.72 402.65,-223.83"/>
</g>
<!-- Node11 -->
<g id="node11" class="node">
<title>Node11</title>
<g id="a_node11"><a xlink:href="LeesEdwardsBC_8hpp.html" target="_top" xlink:title=" ">
<polygon fill="none" stroke="black" points="601.5,-257.5 601.5,-287.5 751.5,-287.5 751.5,-257.5 601.5,-257.5"/>
<text text-anchor="start" x="609.5" y="-275.5" font-family="Helvetica,sans-Serif" font-size="10.00">lees_edwards/LeesEdwards</text>
<text text-anchor="middle" x="676.5" y="-264.5" font-family="Helvetica,sans-Serif" font-size="10.00">BC.hpp</text>
</a>
</g>
</g>
<!-- Node6&#45;&gt;Node11 -->
<g id="edge10" class="edge">
<title>Node6&#45;&gt;Node11</title>
<path fill="none" stroke="midnightblue" d="M518.01,-324.48C545.29,-315.7 588.55,-301.79 622.98,-290.71"/>
<polygon fill="midnightblue" stroke="midnightblue" points="624.45,-293.92 632.9,-287.52 622.31,-287.25 624.45,-293.92"/>
</g>
<!-- Node6&#45;&gt;Node12 -->
<g id="edge48" class="edge">
<title>Node6&#45;&gt;Node12</title>
<path fill="none" stroke="midnightblue" d="M543.52,-331C612.72,-327.24 729.9,-316.72 760.5,-288 777.52,-272.03 780.66,-244 780.64,-225.35"/>
<polygon fill="midnightblue" stroke="midnightblue" points="784.13,-225.01 780.31,-215.13 777.13,-225.24 784.13,-225.01"/>
</g>
<!-- Node17 -->
<g id="node17" class="node">
<title>Node17</title>
<g id="a_node17"><a xlink:title=" ">
<polygon fill="none" stroke="#bfbfbf" points="70.5,-6 70.5,-25 122.5,-25 122.5,-6 70.5,-6"/>
<text text-anchor="middle" x="96.5" y="-13" font-family="Helvetica,sans-Serif" font-size="10.00">cassert</text>
</a>
</g>
</g>
<!-- Node6&#45;&gt;Node17 -->
<g id="edge51" class="edge">
<title>Node6&#45;&gt;Node17</title>
<path fill="none" stroke="midnightblue" d="M439.33,-324.94C361.38,-312.82 223.12,-291 218.5,-288 128.28,-229.34 104.11,-86.45 98.23,-35.19"/>
<polygon fill="midnightblue" stroke="midnightblue" points="101.71,-34.79 97.19,-25.21 94.75,-35.52 101.71,-34.79"/>
</g>
<!-- Node40 -->
<g id="node40" class="node">
<title>Node40</title>
<g id="a_node40"><a xlink:title=" ">
<polygon fill="none" stroke="#bfbfbf" points="564.5,-196 564.5,-215 608.5,-215 608.5,-196 564.5,-196"/>
<text text-anchor="middle" x="586.5" y="-203" font-family="Helvetica,sans-Serif" font-size="10.00">bitset</text>
</a>
</g>
</g>
<!-- Node6&#45;&gt;Node40 -->
<g id="edge50" class="edge">
<title>Node6&#45;&gt;Node40</title>
<path fill="none" stroke="midnightblue" d="M508.58,-324.42C522.6,-316.62 542.1,-303.9 554.5,-288 569.22,-269.13 577.93,-242.65 582.47,-225.05"/>
<polygon fill="midnightblue" stroke="midnightblue" points="585.91,-225.7 584.81,-215.17 579.1,-224.09 585.91,-225.7"/>
</g>
<!-- Node41 -->
<g id="node41" class="node">
<title>Node41</title>
<g id="a_node41"><a xlink:href="sgn_8hpp.html" target="_top" xlink:title=" ">
<polygon fill="none" stroke="black" points="438,-263 438,-282 545,-282 545,-263 438,-263"/>
<text text-anchor="middle" x="491.5" y="-270" font-family="Helvetica,sans-Serif" font-size="10.00">utils/math/sgn.hpp</text>
</a>
</g>
</g>
<!-- Node6&#45;&gt;Node41 -->
<g id="edge49" class="edge">
<title>Node6&#45;&gt;Node41</title>
<path fill="none" stroke="midnightblue" d="M491.5,-324.48C491.5,-316.08 491.5,-302.98 491.5,-292.16"/>
<polygon fill="midnightblue" stroke="midnightblue" points="495,-292.01 491.5,-282.01 488,-292.01 495,-292.01"/>
</g>
<!-- Node7&#45;&gt;Node8 -->
<g id="edge7" class="edge">
<title>Node7&#45;&gt;Node8</title>
<path fill="none" stroke="midnightblue" d="M326.45,-257.39C323.11,-239.34 314.8,-208.25 295.5,-190 288.1,-183.01 233.45,-165.78 196.83,-154.78"/>
<polygon fill="midnightblue" stroke="midnightblue" points="197.61,-151.37 187.03,-151.86 195.61,-158.07 197.61,-151.37"/>
</g>
<!-- Node7&#45;&gt;Node9 -->
<g id="edge8" class="edge">
<title>Node7&#45;&gt;Node9</title>
<path fill="none" stroke="midnightblue" d="M314.61,-257.4C304.54,-247.16 290.88,-233.3 280.37,-222.62"/>
<polygon fill="midnightblue" stroke="midnightblue" points="282.57,-219.86 273.06,-215.19 277.58,-224.78 282.57,-219.86"/>
</g>
<!-- Node7&#45;&gt;Node10 -->
<g id="edge9" class="edge">
<title>Node7&#45;&gt;Node10</title>
<path fill="none" stroke="midnightblue" d="M342.82,-257.4C353.32,-247.06 367.57,-233.02 378.45,-222.31"/>
<polygon fill="midnightblue" stroke="midnightblue" points="381,-224.71 385.67,-215.19 376.09,-219.72 381,-224.71"/>
</g>
<!-- Node11&#45;&gt;Node8 -->
<g id="edge47" class="edge">
<title>Node11&#45;&gt;Node8</title>
<path fill="none" stroke="midnightblue" d="M670.8,-257.35C662.31,-238.35 644.41,-205.22 617.5,-190 538.32,-145.22 304.22,-168.83 197.13,-153.61"/>
<polygon fill="midnightblue" stroke="midnightblue" points="197.6,-150.14 187.18,-152.01 196.5,-157.05 197.6,-150.14"/>
</g>
<!-- Node11&#45;&gt;Node12 -->
<g id="edge11" class="edge">
<title>Node11&#45;&gt;Node12</title>
<path fill="none" stroke="midnightblue" d="M698.85,-257.4C716.12,-246.5 739.92,-231.48 757.18,-220.58"/>
<polygon fill="midnightblue" stroke="midnightblue" points="759.43,-223.3 766.02,-215.01 755.69,-217.38 759.43,-223.3"/>
</g>
<!-- Node11&#45;&gt;Node40 -->
<g id="edge46" class="edge">
<title>Node11&#45;&gt;Node40</title>
<path fill="none" stroke="midnightblue" d="M656.97,-257.4C642.02,-246.6 621.47,-231.76 606.42,-220.89"/>
<polygon fill="midnightblue" stroke="midnightblue" points="608.43,-218.02 598.28,-215.01 604.34,-223.7 608.43,-218.02"/>
</g>
<!-- Node12&#45;&gt;Node8 -->
<g id="edge38" class="edge">
<title>Node12&#45;&gt;Node8</title>
<path fill="none" stroke="midnightblue" d="M732.84,-198.09C711.96,-195.36 687.02,-192.28 664.5,-190 460.19,-169.27 403.81,-188.97 197.13,-153.75"/>
<polygon fill="midnightblue" stroke="midnightblue" points="197.62,-150.29 187.17,-152.03 196.43,-157.18 197.62,-150.29"/>
</g>
<!-- Node13 -->
<g id="node13" class="node">
<title>Node13</title>
<g id="a_node13"><a xlink:title=" ">
<polygon fill="none" stroke="#bfbfbf" points="363.5,-134.5 363.5,-153.5 513.5,-153.5 513.5,-134.5 363.5,-134.5"/>
<text text-anchor="middle" x="438.5" y="-141.5" font-family="Helvetica,sans-Serif" font-size="10.00">boost/qvm/deduce_vec.hpp</text>
</a>
</g>
</g>
<!-- Node12&#45;&gt;Node13 -->
<g id="edge12" class="edge">
<title>Node12&#45;&gt;Node13</title>
<path fill="none" stroke="midnightblue" d="M732.8,-196.35C671.56,-185.67 564.07,-166.91 497.33,-155.27"/>
<polygon fill="midnightblue" stroke="midnightblue" points="497.84,-151.8 487.39,-153.53 496.64,-158.7 497.84,-151.8"/>
</g>
<!-- Node14 -->
<g id="node14" class="node">
<title>Node14</title>
<g id="a_node14"><a xlink:title=" ">
<polygon fill="none" stroke="#bfbfbf" points="205.5,-134.5 205.5,-153.5 345.5,-153.5 345.5,-134.5 205.5,-134.5"/>
<text text-anchor="middle" x="275.5" y="-141.5" font-family="Helvetica,sans-Serif" font-size="10.00">boost/qvm/vec_traits.hpp</text>
</a>
</g>
</g>
<!-- Node12&#45;&gt;Node14 -->
<g id="edge13" class="edge">
<title>Node12&#45;&gt;Node14</title>
<path fill="none" stroke="midnightblue" d="M732.79,-198.5C711.91,-195.85 686.98,-192.72 664.5,-190 606.57,-183 451.4,-165.15 355.46,-154.15"/>
<polygon fill="midnightblue" stroke="midnightblue" points="355.84,-150.67 345.5,-153.01 355.04,-157.63 355.84,-150.67"/>
</g>
<!-- Node15 -->
<g id="node15" class="node">
<title>Node15</title>
<g id="a_node15"><a xlink:href="Array_8hpp.html" target="_top" xlink:title="Array implementation with CUDA support.">
<polygon fill="none" stroke="black" points="1139.5,-134.5 1139.5,-153.5 1225.5,-153.5 1225.5,-134.5 1139.5,-134.5"/>
<text text-anchor="middle" x="1182.5" y="-141.5" font-family="Helvetica,sans-Serif" font-size="10.00">utils/Array.hpp</text>
</a>
</g>
</g>
<!-- Node12&#45;&gt;Node15 -->
<g id="edge14" class="edge">
<title>Node12&#45;&gt;Node15</title>
<path fill="none" stroke="midnightblue" d="M826.12,-198.22C891.51,-189.32 1014.44,-172.25 1129.36,-154.14"/>
<polygon fill="midnightblue" stroke="midnightblue" points="1130.05,-157.58 1139.39,-152.56 1128.96,-150.66 1130.05,-157.58"/>
</g>
<!-- Node12&#45;&gt;Node17 -->
<g id="edge37" class="edge">
<title>Node12&#45;&gt;Node17</title>
<path fill="none" stroke="midnightblue" d="M746.65,-195.99C708.9,-186.15 645.11,-169.32 590.5,-154 560.17,-145.49 552.85,-142.46 522.5,-134 349.39,-85.75 301.79,-88.41 131.5,-31 129.58,-30.35 127.62,-29.65 125.66,-28.92"/>
<polygon fill="midnightblue" stroke="midnightblue" points="126.53,-25.51 115.94,-25.1 123.97,-32.02 126.53,-25.51"/>
</g>
<!-- Node19 -->
<g id="node19" class="node">
<title>Node19</title>
<g id="a_node19"><a xlink:title=" ">
<polygon fill="none" stroke="#bfbfbf" points="1232,-6 1232,-25 1285,-25 1285,-6 1232,-6"/>
<text text-anchor="middle" x="1258.5" y="-13" font-family="Helvetica,sans-Serif" font-size="10.00">cstddef</text>
</a>
</g>
</g>
<!-- Node12&#45;&gt;Node19 -->
<g id="edge39" class="edge">
<title>Node12&#45;&gt;Node19</title>
<path fill="none" stroke="midnightblue" d="M732.75,-198.45C680.38,-189.76 606.49,-170.6 636.5,-134 688.22,-70.91 738.08,-120.5 816.5,-98 853.95,-87.25 860.62,-76.11 898.5,-67 1039.8,-33.04 1082.75,-67.17 1223.5,-31 1226.01,-30.36 1228.57,-29.57 1231.12,-28.69"/>
<polygon fill="midnightblue" stroke="midnightblue" points="1232.59,-31.88 1240.67,-25.03 1230.08,-25.34 1232.59,-31.88"/>
</g>
<!-- Node31 -->
<g id="node31" class="node">
<title>Node31</title>
<g id="a_node31"><a xlink:title=" ">
<polygon fill="none" stroke="#bfbfbf" points="572,-73 572,-92 625,-92 625,-73 572,-73"/>
<text text-anchor="middle" x="598.5" y="-80" font-family="Helvetica,sans-Serif" font-size="10.00">iterator</text>
</a>
</g>
</g>
<!-- Node12&#45;&gt;Node31 -->
<g id="edge42" class="edge">
<title>Node12&#45;&gt;Node31</title>
<path fill="none" stroke="midnightblue" d="M732.72,-197.24C686.29,-189.01 619.76,-174.07 603.5,-154 591.94,-139.73 592.19,-118.05 594.39,-102.5"/>
<polygon fill="midnightblue" stroke="midnightblue" points="597.87,-102.92 596.19,-92.45 590.98,-101.68 597.87,-102.92"/>
</g>
<!-- Node34 -->
<g id="node34" class="node">
<title>Node34</title>
<g id="a_node34"><a xlink:title=" ">
<polygon fill="none" stroke="#bfbfbf" points="645.5,-134.5 645.5,-153.5 709.5,-153.5 709.5,-134.5 645.5,-134.5"/>
<text text-anchor="middle" x="677.5" y="-141.5" font-family="Helvetica,sans-Serif" font-size="10.00">algorithm</text>
</a>
</g>
</g>
<!-- Node12&#45;&gt;Node34 -->
<g id="edge36" class="edge">
<title>Node12&#45;&gt;Node34</title>
<path fill="none" stroke="midnightblue" d="M764.89,-195.98C748.15,-186.21 720.5,-170.08 700.78,-158.58"/>
<polygon fill="midnightblue" stroke="midnightblue" points="702.49,-155.52 692.09,-153.51 698.96,-161.57 702.49,-155.52"/>
</g>
<!-- Node35 -->
<g id="node35" class="node">
<title>Node35</title>
<g id="a_node35"><a xlink:title=" ">
<polygon fill="none" stroke="#bfbfbf" points="728,-134.5 728,-153.5 793,-153.5 793,-134.5 728,-134.5"/>
<text text-anchor="middle" x="760.5" y="-141.5" font-family="Helvetica,sans-Serif" font-size="10.00">functional</text>
</a>
</g>
</g>
<!-- Node12&#45;&gt;Node35 -->
<g id="edge40" class="edge">
<title>Node12&#45;&gt;Node35</title>
<path fill="none" stroke="midnightblue" d="M776.78,-195.98C774.07,-187.49 769.83,-174.2 766.35,-163.32"/>
<polygon fill="midnightblue" stroke="midnightblue" points="769.59,-161.97 763.22,-153.51 762.93,-164.1 769.59,-161.97"/>
</g>
<!-- Node36 -->
<g id="node36" class="node">
<title>Node36</title>
<g id="a_node36"><a xlink:title=" ">
<polygon fill="none" stroke="#bfbfbf" points="811,-134.5 811,-153.5 894,-153.5 894,-134.5 811,-134.5"/>
<text text-anchor="middle" x="852.5" y="-141.5" font-family="Helvetica,sans-Serif" font-size="10.00">initializer_list</text>
</a>
</g>
</g>
<!-- Node12&#45;&gt;Node36 -->
<g id="edge41" class="edge">
<title>Node12&#45;&gt;Node36</title>
<path fill="none" stroke="midnightblue" d="M789.96,-195.98C801.45,-186.61 820.13,-171.38 834.09,-160.01"/>
<polygon fill="midnightblue" stroke="midnightblue" points="836.52,-162.54 842.06,-153.51 832.1,-157.11 836.52,-162.54"/>
</g>
<!-- Node37 -->
<g id="node37" class="node">
<title>Node37</title>
<g id="a_node37"><a xlink:title=" ">
<polygon fill="none" stroke="#bfbfbf" points="912.5,-134.5 912.5,-153.5 968.5,-153.5 968.5,-134.5 912.5,-134.5"/>
<text text-anchor="middle" x="940.5" y="-141.5" font-family="Helvetica,sans-Serif" font-size="10.00">numeric</text>
</a>
</g>
</g>
<!-- Node12&#45;&gt;Node37 -->
<g id="edge43" class="edge">
<title>Node12&#45;&gt;Node37</title>
<path fill="none" stroke="midnightblue" d="M802.57,-195.98C830.18,-185.77 876.62,-168.61 907.9,-157.05"/>
<polygon fill="midnightblue" stroke="midnightblue" points="909.31,-160.26 917.48,-153.51 906.88,-153.69 909.31,-160.26"/>
</g>
<!-- Node38 -->
<g id="node38" class="node">
<title>Node38</title>
<g id="a_node38"><a xlink:title=" ">
<polygon fill="none" stroke="#bfbfbf" points="987,-134.5 987,-153.5 1056,-153.5 1056,-134.5 987,-134.5"/>
<text text-anchor="middle" x="1021.5" y="-141.5" font-family="Helvetica,sans-Serif" font-size="10.00">type_traits</text>
</a>
</g>
</g>
<!-- Node12&#45;&gt;Node38 -->
<g id="edge44" class="edge">
<title>Node12&#45;&gt;Node38</title>
<path fill="none" stroke="midnightblue" d="M814.17,-195.98C857.03,-185.44 930.04,-167.49 977,-155.94"/>
<polygon fill="midnightblue" stroke="midnightblue" points="978.02,-159.3 986.89,-153.51 976.35,-152.5 978.02,-159.3"/>
</g>
<!-- Node39 -->
<g id="node39" class="node">
<title>Node39</title>
<g id="a_node39"><a xlink:title=" ">
<polygon fill="none" stroke="#bfbfbf" points="1074,-134.5 1074,-153.5 1121,-153.5 1121,-134.5 1074,-134.5"/>
<text text-anchor="middle" x="1097.5" y="-141.5" font-family="Helvetica,sans-Serif" font-size="10.00">vector</text>
</a>
</g>
</g>
<!-- Node12&#45;&gt;Node39 -->
<g id="edge45" class="edge">
<title>Node12&#45;&gt;Node39</title>
<path fill="none" stroke="midnightblue" d="M826.35,-197.69C881.18,-189.4 974.86,-174.23 1063.82,-154.22"/>
<polygon fill="midnightblue" stroke="midnightblue" points="1064.83,-157.58 1073.8,-151.95 1063.27,-150.75 1064.83,-157.58"/>
</g>
<!-- Node16 -->
<g id="node16" class="node">
<title>Node16</title>
<g id="a_node16"><a xlink:href="device__qualifier_8hpp.html" target="_top" xlink:title=" ">
<polygon fill="none" stroke="black" points="437.5,-73 437.5,-92 553.5,-92 553.5,-73 437.5,-73"/>
<text text-anchor="middle" x="495.5" y="-80" font-family="Helvetica,sans-Serif" font-size="10.00">device_qualifier.hpp</text>
</a>
</g>
</g>
<!-- Node15&#45;&gt;Node16 -->
<g id="edge15" class="edge">
<title>Node15&#45;&gt;Node16</title>
<path fill="none" stroke="midnightblue" d="M1139.42,-135.18C1136.41,-134.74 1133.41,-134.34 1130.5,-134 879.73,-104.43 813.65,-132.42 563.5,-98 556.02,-96.97 548.13,-95.58 540.48,-94.06"/>
<polygon fill="midnightblue" stroke="midnightblue" points="541.12,-90.62 530.62,-92.02 539.7,-97.47 541.12,-90.62"/>
</g>
<!-- Node15&#45;&gt;Node17 -->
<g id="edge31" class="edge">
<title>Node15&#45;&gt;Node17</title>
<path fill="none" stroke="midnightblue" d="M1139.42,-135.23C1136.4,-134.78 1133.41,-134.37 1130.5,-134 1029.42,-121.3 768.29,-135.32 673.5,-98 652.9,-89.89 655.13,-75.04 634.5,-67 425.66,14.37 349.62,-82.56 131.5,-31 128.83,-30.37 126.1,-29.56 123.41,-28.65"/>
<polygon fill="midnightblue" stroke="midnightblue" points="124.53,-25.33 113.94,-25.01 122.02,-31.86 124.53,-25.33"/>
</g>
<!-- Node18 -->
<g id="node18" class="node">
<title>Node18</title>
<g id="a_node18"><a xlink:href="get_8hpp.html" target="_top" xlink:title=" ">
<polygon fill="none" stroke="black" points="1229,-73 1229,-92 1282,-92 1282,-73 1229,-73"/>
<text text-anchor="middle" x="1255.5" y="-80" font-family="Helvetica,sans-Serif" font-size="10.00">get.hpp</text>
</a>
</g>
</g>
<!-- Node15&#45;&gt;Node18 -->
<g id="edge17" class="edge">
<title>Node15&#45;&gt;Node18</title>
<path fill="none" stroke="midnightblue" d="M1192.96,-134.48C1204.45,-125.11 1223.13,-109.88 1237.09,-98.51"/>
<polygon fill="midnightblue" stroke="midnightblue" points="1239.52,-101.04 1245.06,-92.01 1235.1,-95.61 1239.52,-101.04"/>
</g>
<!-- Node15&#45;&gt;Node19 -->
<g id="edge32" class="edge">
<title>Node15&#45;&gt;Node19</title>
<path fill="none" stroke="midnightblue" d="M1142.08,-134.43C1096.58,-124.38 1027.98,-107.85 1020.5,-98 1012.16,-87.03 1011.65,-77.56 1020.5,-67 1079.36,3.22 1135.54,-56.69 1223.5,-31 1225.79,-30.33 1228.13,-29.56 1230.47,-28.73"/>
<polygon fill="midnightblue" stroke="midnightblue" points="1231.81,-31.96 1239.88,-25.09 1229.29,-25.44 1231.81,-31.96"/>
</g>
<!-- Node21 -->
<g id="node21" class="node">
<title>Node21</title>
<g id="a_node21"><a xlink:href="array_8hpp.html" target="_top" xlink:title=" ">
<polygon fill="none" stroke="black" points="682,-73 682,-92 807,-92 807,-73 682,-73"/>
<text text-anchor="middle" x="744.5" y="-80" font-family="Helvetica,sans-Serif" font-size="10.00">serialization/array.hpp</text>
</a>
</g>
</g>
<!-- Node15&#45;&gt;Node21 -->
<g id="edge20" class="edge">
<title>Node15&#45;&gt;Node21</title>
<path fill="none" stroke="midnightblue" d="M1139.39,-135.4C1136.39,-134.91 1133.4,-134.44 1130.5,-134 1021.63,-117.46 894.98,-101.52 817.28,-92.11"/>
<polygon fill="midnightblue" stroke="midnightblue" points="817.47,-88.61 807.12,-90.89 816.63,-95.56 817.47,-88.61"/>
</g>
<!-- Node30 -->
<g id="node30" class="node">
<title>Node30</title>
<g id="a_node30"><a xlink:title=" ">
<polygon fill="none" stroke="#bfbfbf" points="1029,-67.5 1029,-97.5 1136,-97.5 1136,-67.5 1029,-67.5"/>
<text text-anchor="start" x="1037" y="-85.5" font-family="Helvetica,sans-Serif" font-size="10.00">boost/serialization</text>
<text text-anchor="middle" x="1082.5" y="-74.5" font-family="Helvetica,sans-Serif" font-size="10.00">/access.hpp</text>
</a>
</g>
</g>
<!-- Node15&#45;&gt;Node30 -->
<g id="edge30" class="edge">
<title>Node15&#45;&gt;Node30</title>
<path fill="none" stroke="midnightblue" d="M1168.17,-134.48C1154.38,-126.27 1133.02,-113.56 1115.08,-102.88"/>
<polygon fill="midnightblue" stroke="midnightblue" points="1116.45,-99.63 1106.07,-97.52 1112.87,-105.64 1116.45,-99.63"/>
</g>
<!-- Node15&#45;&gt;Node31 -->
<g id="edge33" class="edge">
<title>Node15&#45;&gt;Node31</title>
<path fill="none" stroke="midnightblue" d="M1139.42,-135.21C1136.4,-134.77 1133.41,-134.36 1130.5,-134 913.33,-107.31 853.66,-142.88 639.5,-98 636.07,-97.28 632.54,-96.35 629.05,-95.3"/>
<polygon fill="midnightblue" stroke="midnightblue" points="630.06,-91.95 619.47,-92.13 627.86,-98.59 630.06,-91.95"/>
</g>
<!-- Node32 -->
<g id="node32" class="node">
<title>Node32</title>
<g id="a_node32"><a xlink:title=" ">
<polygon fill="none" stroke="#bfbfbf" points="1154,-73 1154,-92 1211,-92 1211,-73 1154,-73"/>
<text text-anchor="middle" x="1182.5" y="-80" font-family="Helvetica,sans-Serif" font-size="10.00">ostream</text>
</a>
</g>
</g>
<!-- Node15&#45;&gt;Node32 -->
<g id="edge34" class="edge">
<title>Node15&#45;&gt;Node32</title>
<path fill="none" stroke="midnightblue" d="M1182.5,-134.48C1182.5,-126.08 1182.5,-112.98 1182.5,-102.16"/>
<polygon fill="midnightblue" stroke="midnightblue" points="1186,-102.01 1182.5,-92.01 1179,-102.01 1186,-102.01"/>
</g>
<!-- Node33 -->
<g id="node33" class="node">
<title>Node33</title>
<g id="a_node33"><a xlink:title=" ">
<polygon fill="none" stroke="#bfbfbf" points="907,-73 907,-92 972,-92 972,-73 907,-73"/>
<text text-anchor="middle" x="939.5" y="-80" font-family="Helvetica,sans-Serif" font-size="10.00">stdexcept</text>
</a>
</g>
</g>
<!-- Node15&#45;&gt;Node33 -->
<g id="edge35" class="edge">
<title>Node15&#45;&gt;Node33</title>
<path fill="none" stroke="midnightblue" d="M1141.36,-134.48C1101.55,-126.01 1039.6,-112.27 986.5,-98 983.1,-97.09 979.57,-96.09 976.05,-95.06"/>
<polygon fill="midnightblue" stroke="midnightblue" points="976.83,-91.64 966.24,-92.12 974.82,-98.35 976.83,-91.64"/>
</g>
<!-- Node16&#45;&gt;Node17 -->
<g id="edge16" class="edge">
<title>Node16&#45;&gt;Node17</title>
<path fill="none" stroke="midnightblue" d="M455.99,-72.98C445.46,-70.86 434.07,-68.71 423.5,-67 294.42,-46.08 257.94,-64.33 131.5,-31 129.05,-30.35 126.55,-29.58 124.06,-28.72"/>
<polygon fill="midnightblue" stroke="midnightblue" points="125.3,-25.44 114.71,-25.13 122.79,-31.98 125.3,-25.44"/>
</g>
<!-- Node18&#45;&gt;Node19 -->
<g id="edge18" class="edge">
<title>Node18&#45;&gt;Node19</title>
<path fill="none" stroke="midnightblue" d="M1255.9,-72.73C1256.35,-63.18 1257.06,-47.62 1257.63,-35.28"/>
<polygon fill="midnightblue" stroke="midnightblue" points="1261.14,-35.28 1258.1,-25.13 1254.14,-34.96 1261.14,-35.28"/>
</g>
<!-- Node18&#45;&gt;Node20 -->
<g id="edge19" class="edge">
<title>Node18&#45;&gt;Node20</title>
<path fill="none" stroke="midnightblue" d="M1264.67,-72.73C1275.48,-62.4 1293.65,-45.04 1306.94,-32.33"/>
<polygon fill="midnightblue" stroke="midnightblue" points="1309.66,-34.57 1314.47,-25.13 1304.83,-29.51 1309.66,-34.57"/>
</g>
<!-- Node21&#45;&gt;Node19 -->
<g id="edge29" class="edge">
<title>Node21&#45;&gt;Node19</title>
<path fill="none" stroke="midnightblue" d="M785.94,-72.93C797.42,-70.77 809.91,-68.61 821.5,-67 999.18,-42.37 1049.3,-73.82 1223.5,-31 1226.01,-30.38 1228.58,-29.61 1231.13,-28.75"/>
<polygon fill="midnightblue" stroke="midnightblue" points="1232.59,-31.94 1240.69,-25.1 1230.1,-25.4 1232.59,-31.94"/>
</g>
<!-- Node22 -->
<g id="node22" class="node">
<title>Node22</title>
<g id="a_node22"><a xlink:title=" ">
<polygon fill="none" stroke="#bfbfbf" points="397.5,-6 397.5,-25 531.5,-25 531.5,-6 397.5,-6"/>
<text text-anchor="middle" x="464.5" y="-13" font-family="Helvetica,sans-Serif" font-size="10.00">boost/mpl/bool_fwd.hpp</text>
</a>
</g>
</g>
<!-- Node21&#45;&gt;Node22 -->
<g id="edge21" class="edge">
<title>Node21&#45;&gt;Node22</title>
<path fill="none" stroke="midnightblue" d="M707.61,-72.94C657.14,-61.22 566.56,-40.19 511.35,-27.38"/>
<polygon fill="midnightblue" stroke="midnightblue" points="512.01,-23.94 501.47,-25.08 510.42,-30.75 512.01,-23.94"/>
</g>
<!-- Node23 -->
<g id="node23" class="node">
<title>Node23</title>
<g id="a_node23"><a xlink:title=" ">
<polygon fill="none" stroke="#bfbfbf" points="550,-6 550,-25 675,-25 675,-6 550,-6"/>
<text text-anchor="middle" x="612.5" y="-13" font-family="Helvetica,sans-Serif" font-size="10.00">boost/mpl/greater.hpp</text>
</a>
</g>
</g>
<!-- Node21&#45;&gt;Node23 -->
<g id="edge22" class="edge">
<title>Node21&#45;&gt;Node23</title>
<path fill="none" stroke="midnightblue" d="M726.97,-72.87C704.49,-61.8 665.27,-42.49 639.1,-29.6"/>
<polygon fill="midnightblue" stroke="midnightblue" points="640.62,-26.44 630.1,-25.17 637.53,-32.72 640.62,-26.44"/>
</g>
<!-- Node24 -->
<g id="node24" class="node">
<title>Node24</title>
<g id="a_node24"><a xlink:title=" ">
<polygon fill="none" stroke="#bfbfbf" points="693.5,-6 693.5,-25 795.5,-25 795.5,-6 693.5,-6"/>
<text text-anchor="middle" x="744.5" y="-13" font-family="Helvetica,sans-Serif" font-size="10.00">boost/mpl/int.hpp</text>
</a>
</g>
</g>
<!-- Node21&#45;&gt;Node24 -->
<g id="edge23" class="edge">
<title>Node21&#45;&gt;Node24</title>
<path fill="none" stroke="midnightblue" d="M744.5,-72.73C744.5,-63.18 744.5,-47.62 744.5,-35.28"/>
<polygon fill="midnightblue" stroke="midnightblue" points="748,-35.13 744.5,-25.13 741,-35.13 748,-35.13"/>
</g>
<!-- Node25 -->
<g id="node25" class="node">
<title>Node25</title>
<g id="a_node25"><a xlink:title=" ">
<polygon fill="none" stroke="#bfbfbf" points="813.5,-0.5 813.5,-30.5 919.5,-30.5 919.5,-0.5 813.5,-0.5"/>
<text text-anchor="start" x="821.5" y="-18.5" font-family="Helvetica,sans-Serif" font-size="10.00">boost/mpl/integral</text>
<text text-anchor="middle" x="866.5" y="-7.5" font-family="Helvetica,sans-Serif" font-size="10.00">_c_tag.hpp</text>
</a>
</g>
</g>
<!-- Node21&#45;&gt;Node25 -->
<g id="edge24" class="edge">
<title>Node21&#45;&gt;Node25</title>
<path fill="none" stroke="midnightblue" d="M760.7,-72.87C778.55,-63.36 807.82,-47.77 831.05,-35.39"/>
<polygon fill="midnightblue" stroke="midnightblue" points="832.76,-38.44 839.94,-30.65 829.47,-32.26 832.76,-38.44"/>
</g>
<!-- Node26 -->
<g id="node26" class="node">
<title>Node26</title>
<g id="a_node26"><a xlink:title=" ">
<polygon fill="none" stroke="#bfbfbf" points="938,-0.5 938,-30.5 1089,-30.5 1089,-0.5 938,-0.5"/>
<text text-anchor="start" x="946" y="-18.5" font-family="Helvetica,sans-Serif" font-size="10.00">boost/serialization</text>
<text text-anchor="middle" x="1013.5" y="-7.5" font-family="Helvetica,sans-Serif" font-size="10.00">/is_bitwise_serializable.hpp</text>
</a>
</g>
</g>
<!-- Node21&#45;&gt;Node26 -->
<g id="edge25" class="edge">
<title>Node21&#45;&gt;Node26</title>
<path fill="none" stroke="midnightblue" d="M779.94,-72.94C821.89,-62.8 892.69,-45.69 945.37,-32.96"/>
<polygon fill="midnightblue" stroke="midnightblue" points="946.42,-36.31 955.32,-30.56 944.77,-29.51 946.42,-36.31"/>
</g>
<!-- Node27 -->
<g id="node27" class="node">
<title>Node27</title>
<g id="a_node27"><a xlink:title=" ">
<polygon fill="none" stroke="#bfbfbf" points="1107,-0.5 1107,-30.5 1214,-30.5 1214,-0.5 1107,-0.5"/>
<text text-anchor="start" x="1115" y="-18.5" font-family="Helvetica,sans-Serif" font-size="10.00">boost/serialization</text>
<text text-anchor="middle" x="1160.5" y="-7.5" font-family="Helvetica,sans-Serif" font-size="10.00">/level.hpp</text>
</a>
</g>
</g>
<!-- Node21&#45;&gt;Node27 -->
<g id="edge26" class="edge">
<title>Node21&#45;&gt;Node27</title>
<path fill="none" stroke="midnightblue" d="M787.59,-72.94C798.62,-70.87 810.48,-68.75 821.5,-67 940.87,-48.02 974.58,-52.88 1096.68,-31.23"/>
<polygon fill="midnightblue" stroke="midnightblue" points="1097.58,-34.62 1106.8,-29.41 1096.34,-27.73 1097.58,-34.62"/>
</g>
<!-- Node28 -->
<g id="node28" class="node">
<title>Node28</title>
<g id="a_node28"><a xlink:title=" ">
<polygon fill="none" stroke="#bfbfbf" points="141,-0.5 141,-30.5 248,-30.5 248,-0.5 141,-0.5"/>
<text text-anchor="start" x="149" y="-18.5" font-family="Helvetica,sans-Serif" font-size="10.00">boost/serialization</text>
<text text-anchor="middle" x="194.5" y="-7.5" font-family="Helvetica,sans-Serif" font-size="10.00">/tracking.hpp</text>
</a>
</g>
</g>
<!-- Node21&#45;&gt;Node28 -->
<g id="edge27" class="edge">
<title>Node21&#45;&gt;Node28</title>
<path fill="none" stroke="midnightblue" d="M703.46,-73C691.87,-70.8 679.22,-68.61 667.5,-67 489.13,-42.45 439.35,-59.32 258.3,-31.15"/>
<polygon fill="midnightblue" stroke="midnightblue" points="258.6,-27.65 248.18,-29.55 257.51,-34.56 258.6,-27.65"/>
</g>
<!-- Node29 -->
<g id="node29" class="node">
<title>Node29</title>
<g id="a_node29"><a xlink:title=" ">
<polygon fill="none" stroke="#bfbfbf" points="266,-0.5 266,-30.5 379,-30.5 379,-0.5 266,-0.5"/>
<text text-anchor="start" x="274" y="-18.5" font-family="Helvetica,sans-Serif" font-size="10.00">boost/serialization</text>
<text text-anchor="middle" x="322.5" y="-7.5" font-family="Helvetica,sans-Serif" font-size="10.00">/tracking_enum.hpp</text>
</a>
</g>
</g>
<!-- Node21&#45;&gt;Node29 -->
<g id="edge28" class="edge">
<title>Node21&#45;&gt;Node29</title>
<path fill="none" stroke="midnightblue" d="M701.41,-72.93C690.38,-70.86 678.52,-68.75 667.5,-67 547.15,-47.92 513.38,-52.2 389.21,-31.02"/>
<polygon fill="midnightblue" stroke="midnightblue" points="389.77,-27.57 379.32,-29.32 388.58,-34.47 389.77,-27.57"/>
</g>
<!-- Node42&#45;&gt;Node12 -->
<g id="edge58" class="edge">
<title>Node42&#45;&gt;Node12</title>
<path fill="none" stroke="midnightblue" d="M1148.67,-262.99C1140.55,-260.85 1131.72,-258.68 1123.5,-257 1023.23,-236.49 904.89,-221 836.39,-212.87"/>
<polygon fill="midnightblue" stroke="midnightblue" points="836.59,-209.37 826.25,-211.68 835.77,-216.32 836.59,-209.37"/>
</g>
<!-- Node42&#45;&gt;Node15 -->
<g id="edge57" class="edge">
<title>Node42&#45;&gt;Node15</title>
<path fill="none" stroke="midnightblue" d="M1178.77,-262.81C1179.42,-242.49 1181.03,-191.55 1181.91,-163.78"/>
<polygon fill="midnightblue" stroke="midnightblue" points="1185.41,-163.86 1182.22,-153.76 1178.41,-163.64 1185.41,-163.86"/>
</g>
<!-- Node43 -->
<g id="node43" class="node">
<title>Node43</title>
<g id="a_node43"><a xlink:href="CellStructureType_8hpp.html" target="_top" xlink:title=" ">
<polygon fill="none" stroke="black" points="1013,-190.5 1013,-220.5 1154,-220.5 1154,-190.5 1013,-190.5"/>
<text text-anchor="start" x="1021" y="-208.5" font-family="Helvetica,sans-Serif" font-size="10.00">cell_system/CellStructure</text>
<text text-anchor="middle" x="1083.5" y="-197.5" font-family="Helvetica,sans-Serif" font-size="10.00">Type.hpp</text>
</a>
</g>
</g>
<!-- Node42&#45;&gt;Node43 -->
<g id="edge56" class="edge">
<title>Node42&#45;&gt;Node43</title>
<path fill="none" stroke="midnightblue" d="M1165.69,-262.73C1152.11,-253.44 1130.21,-238.46 1112.43,-226.3"/>
<polygon fill="midnightblue" stroke="midnightblue" points="1114.32,-223.35 1104.09,-220.59 1110.37,-229.12 1114.32,-223.35"/>
</g>
<!-- Node45&#45;&gt;Node16 -->
<g id="edge65" class="edge">
<title>Node45&#45;&gt;Node16</title>
<path fill="none" stroke="midnightblue" d="M53.94,-436.47C56.92,-418.02 63.5,-373 63.5,-335 63.5,-335 63.5,-335 63.5,-204.5 63.5,-161.27 92.04,-153.74 130.5,-134 180.85,-108.16 335.95,-93.92 426.96,-87.58"/>
<polygon fill="midnightblue" stroke="midnightblue" points="427.45,-91.06 437.19,-86.88 426.97,-84.07 427.45,-91.06"/>
</g>
</g>
</svg>
        <g id="navigator" transform="translate(0 0)" fill="#404254">
                <rect fill="#f2f5e9" fill-opacity="0.5" stroke="#606060" stroke-width=".5" x="0" y="0" width="60" height="60"/>
                <use id="zoomplus" xlink:href="#zoomPlus" x="17" y="9" onmousedown="handleZoom(evt,'in')"/>
                <use id="zoomminus" xlink:href="#zoomMin" x="42" y="9" onmousedown="handleZoom(evt,'out')"/>
                <use id="reset" xlink:href="#resetDef" x="30" y="36" onmousedown="handleReset()"/>
                <g id="arrowUp" xlink:href="#dirArrow" transform="translate(30 24)" onmousedown="handlePan(0,-1)">
                  <use xlink:href="#rim" fill="#404040">
                        <set attributeName="fill" to="#808080" begin="arrowUp.mouseover" end="arrowUp.mouseout"/>
                  </use>
                  <path fill="none" stroke="white" stroke-width="1.5" d="M0,-3.0v7 M-2.5,-0.5L0,-3.0L2.5,-0.5"/>
                </g>
                <g id="arrowRight" xlink:href="#dirArrow" transform="rotate(90) translate(36 -43)" onmousedown="handlePan(1,0)">
                  <use xlink:href="#rim" fill="#404040">
                        <set attributeName="fill" to="#808080" begin="arrowRight.mouseover" end="arrowRight.mouseout"/>
                  </use>
                  <path fill="none" stroke="white" stroke-width="1.5" d="M0,-3.0v7 M-2.5,-0.5L0,-3.0L2.5,-0.5"/>
                </g>
                <g id="arrowDown" xlink:href="#dirArrow" transform="rotate(180) translate(-30 -48)" onmousedown="handlePan(0,1)">
                  <use xlink:href="#rim" fill="#404040">
                        <set attributeName="fill" to="#808080" begin="arrowDown.mouseover" end="arrowDown.mouseout"/>
                  </use>
                  <path fill="none" stroke="white" stroke-width="1.5" d="M0,-3.0v7 M-2.5,-0.5L0,-3.0L2.5,-0.5"/>
                </g>
                <g id="arrowLeft" xlink:href="#dirArrow" transform="rotate(270) translate(-36 17)" onmousedown="handlePan(-1,0)">
                  <use xlink:href="#rim" fill="#404040">
                        <set attributeName="fill" to="#808080" begin="arrowLeft.mouseover" end="arrowLeft.mouseout"/>
                  </use>
                  <path fill="none" stroke="white" stroke-width="1.5" d="M0,-3.0v7 M-2.5,-0.5L0,-3.0L2.5,-0.5"/>
                </g>
        </g>
        <svg viewBox="0 0 15 15" width="100%" height="30px" preserveAspectRatio="xMaxYMin meet">
         <g id="arrow_out" transform="scale(0.3 0.3)">
          <a xlink:href="angle__cosine_8hpp__incl_org.svg" target="_base">
           <rect id="button" ry="5" rx="5" y="6" x="6" height="38" width="38"
                fill="#f2f5e9" fill-opacity="0.5" stroke="#606060" stroke-width="1.0"/>
           <path id="arrow"
             d="M 11.500037,31.436501 C 11.940474,20.09759 22.043105,11.32322 32.158766,21.979434 L 37.068811,17.246167 C 37.068811,17.246167 37.088388,32 37.088388,32 L 22.160133,31.978069 C 22.160133,31.978069 26.997745,27.140456 26.997745,27.140456 C 18.528582,18.264221 13.291696,25.230495 11.500037,31.436501 z"
             style="fill:#404040;"/>
          </a>
         </g>
        </svg>
</svg>
