<?xml version="1.0" encoding="UTF-8" standalone="no"?>
<!DOCTYPE svg PUBLIC "-//W3C//DTD SVG 1.1//EN"
 "http://www.w3.org/Graphics/SVG/1.1/DTD/svg11.dtd">
<!-- Generated by graphviz version 2.43.0 (0)
 -->
<!-- Title: barnes_hut_gpu_cuda.cuh Pages: 1 -->
<!--zoomable 420 -->
<svg id="main" version="1.1" xmlns="http://www.w3.org/2000/svg" xmlns:xlink="http://www.w3.org/1999/xlink" xml:space="preserve" onload="init(evt)">
<style type="text/css"><![CDATA[
.edge:hover path { stroke: red; }
.edge:hover polygon { stroke: red; fill: red; }
]]></style>
<script type="text/javascript"><![CDATA[
var edges = document.getElementsByTagName('g');
if (edges && edges.length) {
  for (var i=0;i<edges.length;i++) {
    if (edges[i].id.substr(0,4)=='edge') {
      edges[i].setAttribute('class','edge');
    }
  }
}
]]></script>
        <defs>
                <circle id="rim" cx="0" cy="0" r="7"/>
                <circle id="rim2" cx="0" cy="0" r="3.5"/>
                <g id="zoomPlus">
                        <use xlink:href="#rim" fill="#404040">
                                <set attributeName="fill" to="#808080" begin="zoomplus.mouseover" end="zoomplus.mouseout"/>
                        </use>
                        <path d="M-4,0h8M0,-4v8" fill="none" stroke="white" stroke-width="1.5" pointer-events="none"/>
                </g>
                <g id="zoomMin">
                        <use xlink:href="#rim" fill="#404040">
                                <set attributeName="fill" to="#808080" begin="zoomminus.mouseover" end="zoomminus.mouseout"/>
                        </use>
                        <path d="M-4,0h8" fill="none" stroke="white" stroke-width="1.5" pointer-events="none"/>
                </g>
                <g id="dirArrow">
                        <path fill="none" stroke="white" stroke-width="1.5" d="M0,-3.0v7 M-2.5,-0.5L0,-3.0L2.5,-0.5"/>
                </g>
               <g id="resetDef">
                       <use xlink:href="#rim2" fill="#404040">
                               <set attributeName="fill" to="#808080" begin="reset.mouseover" end="reset.mouseout"/>
                       </use>
               </g>
        </defs>

<script type="text/javascript">
var viewWidth = 989;
var viewHeight = 420;
var sectionId = 'dynsection-1';
</script>
<script xlink:href="svgpan.js"/>
<svg id="graph" class="graph">
<g id="viewport">
<title>barnes_hut_gpu_cuda.cuh</title>
<!-- Node1 -->
<g id="node1" class="node">
<title>Node1</title>
<g id="a_node1"><a xlink:title=" ">
<polygon fill="#bfbfbf" stroke="black" points="116.5,-392.5 116.5,-411.5 259.5,-411.5 259.5,-392.5 116.5,-392.5"/>
<text text-anchor="middle" x="188" y="-399.5" font-family="Helvetica,sans-Serif" font-size="10.00">barnes_hut_gpu_cuda.cuh</text>
</a>
</g>
</g>
<!-- Node2 -->
<g id="node2" class="node">
<title>Node2</title>
<g id="a_node2"><a xlink:href="barnes__hut__gpu_8cpp.html" target="_top" xlink:title=" ">
<polygon fill="none" stroke="black" points="0,-280.5 0,-299.5 114,-299.5 114,-280.5 0,-280.5"/>
<text text-anchor="middle" x="57" y="-287.5" font-family="Helvetica,sans-Serif" font-size="10.00">barnes_hut_gpu.cpp</text>
</a>
</g>
</g>
<!-- Node1&#45;&gt;Node2 -->
<g id="edge1" class="edge">
<title>Node1&#45;&gt;Node2</title>
<path fill="none" stroke="midnightblue" d="M164.99,-386.82C151.95,-378.42 135.58,-367.25 122,-356 99.63,-337.47 76.22,-312.43 64.55,-299.51"/>
<polygon fill="midnightblue" stroke="midnightblue" points="163.49,-390.02 173.81,-392.41 167.23,-384.1 163.49,-390.02"/>
</g>
<!-- Node3 -->
<g id="node3" class="node">
<title>Node3</title>
<g id="a_node3"><a xlink:href="barnes__hut__gpu_8hpp.html" target="_top" xlink:title=" ">
<polygon fill="none" stroke="black" points="130.5,-336.5 130.5,-355.5 245.5,-355.5 245.5,-336.5 130.5,-336.5"/>
<text text-anchor="middle" x="188" y="-343.5" font-family="Helvetica,sans-Serif" font-size="10.00">barnes_hut_gpu.hpp</text>
</a>
</g>
</g>
<!-- Node1&#45;&gt;Node3 -->
<g id="edge2" class="edge">
<title>Node1&#45;&gt;Node3</title>
<path fill="none" stroke="midnightblue" d="M188,-381.8C188,-372.91 188,-362.78 188,-355.75"/>
<polygon fill="midnightblue" stroke="midnightblue" points="184.5,-382.08 188,-392.08 191.5,-382.08 184.5,-382.08"/>
</g>
<!-- Node25 -->
<g id="node25" class="node">
<title>Node25</title>
<g id="a_node25"><a xlink:href="barnes__hut__gpu__cuda_8cu.html" target="_top" xlink:title=" ">
<polygon fill="none" stroke="black" points="263.5,-336.5 263.5,-355.5 400.5,-355.5 400.5,-336.5 263.5,-336.5"/>
<text text-anchor="middle" x="332" y="-343.5" font-family="Helvetica,sans-Serif" font-size="10.00">barnes_hut_gpu_cuda.cu</text>
</a>
</g>
</g>
<!-- Node1&#45;&gt;Node25 -->
<g id="edge33" class="edge">
<title>Node1&#45;&gt;Node25</title>
<path fill="none" stroke="midnightblue" d="M220.25,-388.91C247.32,-378.75 285.32,-364.51 309.29,-355.52"/>
<polygon fill="midnightblue" stroke="midnightblue" points="218.95,-385.66 210.82,-392.44 221.41,-392.21 218.95,-385.66"/>
</g>
<!-- Node3&#45;&gt;Node2 -->
<g id="edge30" class="edge">
<title>Node3&#45;&gt;Node2</title>
<path fill="none" stroke="midnightblue" d="M157.68,-332.5C133.12,-322.38 99.18,-308.39 77.66,-299.52"/>
<polygon fill="midnightblue" stroke="midnightblue" points="156.66,-335.87 167.24,-336.44 159.33,-329.4 156.66,-335.87"/>
</g>
<!-- Node4 -->
<g id="node4" class="node">
<title>Node4</title>
<g id="a_node4"><a xlink:href="dipoles_8hpp.html" target="_top" xlink:title=" ">
<polygon fill="none" stroke="black" points="454.5,-280.5 454.5,-299.5 527.5,-299.5 527.5,-280.5 454.5,-280.5"/>
<text text-anchor="middle" x="491" y="-287.5" font-family="Helvetica,sans-Serif" font-size="10.00">dipoles.hpp</text>
</a>
</g>
</g>
<!-- Node3&#45;&gt;Node4 -->
<g id="edge3" class="edge">
<title>Node3&#45;&gt;Node4</title>
<path fill="none" stroke="midnightblue" d="M245.93,-334.68C307.3,-323.74 402.33,-306.8 454.17,-297.56"/>
<polygon fill="midnightblue" stroke="midnightblue" points="245.24,-331.24 236.01,-336.44 246.47,-338.13 245.24,-331.24"/>
</g>
<!-- Node24 -->
<g id="node24" class="node">
<title>Node24</title>
<g id="a_node24"><a xlink:href="DipolarBarnesHutGpu_8hpp.html" target="_top" xlink:title=" ">
<polygon fill="none" stroke="black" points="132.5,-280.5 132.5,-299.5 275.5,-299.5 275.5,-280.5 132.5,-280.5"/>
<text text-anchor="middle" x="204" y="-287.5" font-family="Helvetica,sans-Serif" font-size="10.00">DipolarBarnesHutGpu.hpp</text>
</a>
</g>
</g>
<!-- Node3&#45;&gt;Node24 -->
<g id="edge31" class="edge">
<title>Node3&#45;&gt;Node24</title>
<path fill="none" stroke="midnightblue" d="M193.51,-326.4C196.19,-317.36 199.28,-306.94 201.41,-299.75"/>
<polygon fill="midnightblue" stroke="midnightblue" points="190.13,-325.5 190.64,-336.08 196.84,-327.49 190.13,-325.5"/>
</g>
<!-- Node5 -->
<g id="node5" class="node">
<title>Node5</title>
<g id="a_node5"><a xlink:href="dipoles__inline_8hpp.html" target="_top" xlink:title=" ">
<polygon fill="none" stroke="black" points="750.5,-224.5 750.5,-243.5 855.5,-243.5 855.5,-224.5 750.5,-224.5"/>
<text text-anchor="middle" x="803" y="-231.5" font-family="Helvetica,sans-Serif" font-size="10.00">dipoles_inline.hpp</text>
</a>
</g>
</g>
<!-- Node4&#45;&gt;Node5 -->
<g id="edge4" class="edge">
<title>Node4&#45;&gt;Node5</title>
<path fill="none" stroke="midnightblue" d="M537.72,-280.91C595.85,-270.85 694.66,-253.75 753.88,-243.5"/>
<polygon fill="midnightblue" stroke="midnightblue" points="536.96,-277.49 527.71,-282.65 538.16,-284.39 536.96,-277.49"/>
</g>
<!-- Node8 -->
<g id="node8" class="node">
<title>Node8</title>
<g id="a_node8"><a xlink:href="energy_8cpp.html" target="_top" xlink:title=" ">
<polygon fill="none" stroke="black" points="768.5,-112.5 768.5,-131.5 837.5,-131.5 837.5,-112.5 768.5,-112.5"/>
<text text-anchor="middle" x="803" y="-119.5" font-family="Helvetica,sans-Serif" font-size="10.00">energy.cpp</text>
</a>
</g>
</g>
<!-- Node4&#45;&gt;Node8 -->
<g id="edge16" class="edge">
<title>Node4&#45;&gt;Node8</title>
<path fill="none" stroke="midnightblue" d="M532.81,-277.65C559.1,-269.79 593.34,-258.2 622,-244 657.56,-226.38 756.58,-156.24 791.01,-131.61"/>
<polygon fill="midnightblue" stroke="midnightblue" points="531.77,-274.31 523.16,-280.48 533.74,-281.03 531.77,-274.31"/>
</g>
<!-- Node13 -->
<g id="node13" class="node">
<title>Node13</title>
<g id="a_node13"><a xlink:href="forces_8cpp.html" target="_top" xlink:title=" ">
<polygon fill="none" stroke="black" points="387.5,-112.5 387.5,-131.5 454.5,-131.5 454.5,-112.5 387.5,-112.5"/>
<text text-anchor="middle" x="421" y="-119.5" font-family="Helvetica,sans-Serif" font-size="10.00">forces.cpp</text>
</a>
</g>
</g>
<!-- Node4&#45;&gt;Node13 -->
<g id="edge18" class="edge">
<title>Node4&#45;&gt;Node13</title>
<path fill="none" stroke="midnightblue" d="M537.4,-281.28C576.85,-272.44 624.39,-255 606,-224 573.23,-168.77 498.44,-141.8 454.65,-130.3"/>
<polygon fill="midnightblue" stroke="midnightblue" points="536.66,-277.86 527.59,-283.34 538.1,-284.71 536.66,-277.86"/>
</g>
<!-- Node15 -->
<g id="node15" class="node">
<title>Node15</title>
<g id="a_node15"><a xlink:href="pressure_8cpp.html" target="_top" xlink:title=" ">
<polygon fill="none" stroke="black" points="624.5,-56.5 624.5,-75.5 703.5,-75.5 703.5,-56.5 624.5,-56.5"/>
<text text-anchor="middle" x="664" y="-63.5" font-family="Helvetica,sans-Serif" font-size="10.00">pressure.cpp</text>
</a>
</g>
</g>
<!-- Node4&#45;&gt;Node15 -->
<g id="edge27" class="edge">
<title>Node4&#45;&gt;Node15</title>
<path fill="none" stroke="midnightblue" d="M537.86,-287.03C645.77,-282.12 904.93,-267.93 936,-244 978.12,-211.56 968.51,-184.31 978,-132 979.59,-123.25 983.82,-118.72 978,-112 960.23,-91.51 783.87,-75.91 703.52,-69.8"/>
<polygon fill="midnightblue" stroke="midnightblue" points="537.43,-283.55 527.6,-287.49 537.75,-290.54 537.43,-283.55"/>
</g>
<!-- Node16 -->
<g id="node16" class="node">
<title>Node16</title>
<g id="a_node16"><a xlink:href="event_8cpp.html" target="_top" xlink:title=" ">
<polygon fill="none" stroke="black" points="258.5,-224.5 258.5,-243.5 323.5,-243.5 323.5,-224.5 258.5,-224.5"/>
<text text-anchor="middle" x="291" y="-231.5" font-family="Helvetica,sans-Serif" font-size="10.00">event.cpp</text>
</a>
</g>
</g>
<!-- Node4&#45;&gt;Node16 -->
<g id="edge17" class="edge">
<title>Node4&#45;&gt;Node16</title>
<path fill="none" stroke="midnightblue" d="M449.63,-277.83C411.86,-267.63 356.86,-252.78 322.54,-243.52"/>
<polygon fill="midnightblue" stroke="midnightblue" points="448.74,-281.22 459.31,-280.44 450.57,-274.46 448.74,-281.22"/>
</g>
<!-- Node17 -->
<g id="node17" class="node">
<title>Node17</title>
<g id="a_node17"><a xlink:href="interactions_8cpp.html" target="_top" xlink:title=" ">
<polygon fill="none" stroke="black" points="341.5,-224.5 341.5,-243.5 436.5,-243.5 436.5,-224.5 341.5,-224.5"/>
<text text-anchor="middle" x="389" y="-231.5" font-family="Helvetica,sans-Serif" font-size="10.00">interactions.cpp</text>
</a>
</g>
</g>
<!-- Node4&#45;&gt;Node17 -->
<g id="edge19" class="edge">
<title>Node4&#45;&gt;Node17</title>
<path fill="none" stroke="midnightblue" d="M465.67,-275.59C446.81,-265.61 421.62,-252.27 405.35,-243.65"/>
<polygon fill="midnightblue" stroke="midnightblue" points="464.14,-278.74 474.61,-280.32 467.41,-272.55 464.14,-278.74"/>
</g>
<!-- Node18 -->
<g id="node18" class="node">
<title>Node18</title>
<g id="a_node18"><a xlink:href="dipoles_8cpp.html" target="_top" xlink:title=" ">
<polygon fill="none" stroke="black" points="455,-224.5 455,-243.5 527,-243.5 527,-224.5 455,-224.5"/>
<text text-anchor="middle" x="491" y="-231.5" font-family="Helvetica,sans-Serif" font-size="10.00">dipoles.cpp</text>
</a>
</g>
</g>
<!-- Node4&#45;&gt;Node18 -->
<g id="edge20" class="edge">
<title>Node4&#45;&gt;Node18</title>
<path fill="none" stroke="midnightblue" d="M491,-269.8C491,-260.91 491,-250.78 491,-243.75"/>
<polygon fill="midnightblue" stroke="midnightblue" points="487.5,-270.08 491,-280.08 494.5,-270.08 487.5,-270.08"/>
</g>
<!-- Node19 -->
<g id="node19" class="node">
<title>Node19</title>
<g id="a_node19"><a xlink:href="dlc_8cpp.html" target="_top" xlink:title=" ">
<polygon fill="none" stroke="black" points="545.5,-224.5 545.5,-243.5 596.5,-243.5 596.5,-224.5 545.5,-224.5"/>
<text text-anchor="middle" x="571" y="-231.5" font-family="Helvetica,sans-Serif" font-size="10.00">dlc.cpp</text>
</a>
</g>
</g>
<!-- Node4&#45;&gt;Node19 -->
<g id="edge21" class="edge">
<title>Node4&#45;&gt;Node19</title>
<path fill="none" stroke="midnightblue" d="M512.3,-274.62C526.92,-264.76 545.83,-251.99 558.18,-243.65"/>
<polygon fill="midnightblue" stroke="midnightblue" points="510.18,-271.83 503.85,-280.32 514.1,-277.63 510.18,-271.83"/>
</g>
<!-- Node20 -->
<g id="node20" class="node">
<title>Node20</title>
<g id="a_node20"><a xlink:href="magnetostatics_2registration_8hpp.html" target="_top" xlink:title=" ">
<polygon fill="none" stroke="black" points="108,-224.5 108,-243.5 202,-243.5 202,-224.5 108,-224.5"/>
<text text-anchor="middle" x="155" y="-231.5" font-family="Helvetica,sans-Serif" font-size="10.00">registration.hpp</text>
</a>
</g>
</g>
<!-- Node4&#45;&gt;Node20 -->
<g id="edge22" class="edge">
<title>Node4&#45;&gt;Node20</title>
<path fill="none" stroke="midnightblue" d="M444.2,-281.48C380.23,-271.2 266.12,-252.86 202.02,-242.56"/>
<polygon fill="midnightblue" stroke="midnightblue" points="443.97,-284.99 454.4,-283.12 445.08,-278.08 443.97,-284.99"/>
</g>
<!-- Node21 -->
<g id="node21" class="node">
<title>Node21</title>
<g id="a_node21"><a xlink:href="magnetostatics_2Actor__impl_8hpp.html" target="_top" xlink:title=" ">
<polygon fill="none" stroke="black" points="146,-168.5 146,-187.5 236,-187.5 236,-168.5 146,-168.5"/>
<text text-anchor="middle" x="191" y="-175.5" font-family="Helvetica,sans-Serif" font-size="10.00">Actor_impl.hpp</text>
</a>
</g>
</g>
<!-- Node4&#45;&gt;Node21 -->
<g id="edge28" class="edge">
<title>Node4&#45;&gt;Node21</title>
<path fill="none" stroke="midnightblue" d="M444.22,-288.95C393.37,-287 311.19,-278.16 250,-244 225.25,-230.18 205.32,-202.13 196.27,-187.82"/>
<polygon fill="midnightblue" stroke="midnightblue" points="444.16,-292.45 454.27,-289.26 444.38,-285.45 444.16,-292.45"/>
</g>
<!-- Node22 -->
<g id="node22" class="node">
<title>Node22</title>
<g id="a_node22"><a xlink:href="magnetostatics_2initialize_8cpp.html" target="_top" xlink:title=" ">
<polygon fill="none" stroke="black" points="59.5,-112.5 59.5,-131.5 138.5,-131.5 138.5,-112.5 59.5,-112.5"/>
<text text-anchor="middle" x="99" y="-119.5" font-family="Helvetica,sans-Serif" font-size="10.00">initialize.cpp</text>
</a>
</g>
</g>
<!-- Node4&#45;&gt;Node22 -->
<g id="edge29" class="edge">
<title>Node4&#45;&gt;Node22</title>
<path fill="none" stroke="midnightblue" d="M444.31,-287.06C345.34,-282.48 121.65,-269.4 99,-244 70.34,-211.86 87.58,-153.6 95.59,-131.67"/>
<polygon fill="midnightblue" stroke="midnightblue" points="444.18,-290.56 454.33,-287.52 444.5,-283.57 444.18,-290.56"/>
</g>
<!-- Node23 -->
<g id="node23" class="node">
<title>Node23</title>
<g id="a_node23"><a xlink:href="npt_8cpp.html" target="_top" xlink:title=" ">
<polygon fill="none" stroke="black" points="873.5,-224.5 873.5,-243.5 926.5,-243.5 926.5,-224.5 873.5,-224.5"/>
<text text-anchor="middle" x="900" y="-231.5" font-family="Helvetica,sans-Serif" font-size="10.00">npt.cpp</text>
</a>
</g>
</g>
<!-- Node4&#45;&gt;Node23 -->
<g id="edge26" class="edge">
<title>Node4&#45;&gt;Node23</title>
<path fill="none" stroke="midnightblue" d="M537.59,-285.38C608.63,-279.42 748.14,-265.96 865,-244 867.71,-243.49 870.53,-242.89 873.33,-242.25"/>
<polygon fill="midnightblue" stroke="midnightblue" points="537.29,-281.9 527.61,-286.21 537.86,-288.87 537.29,-281.9"/>
</g>
<!-- Node6 -->
<g id="node6" class="node">
<title>Node6</title>
<g id="a_node6"><a xlink:href="energy__inline_8hpp.html" target="_top" xlink:title=" ">
<polygon fill="none" stroke="black" points="751,-168.5 751,-187.5 855,-187.5 855,-168.5 751,-168.5"/>
<text text-anchor="middle" x="803" y="-175.5" font-family="Helvetica,sans-Serif" font-size="10.00">energy_inline.hpp</text>
</a>
</g>
</g>
<!-- Node5&#45;&gt;Node6 -->
<g id="edge5" class="edge">
<title>Node5&#45;&gt;Node6</title>
<path fill="none" stroke="midnightblue" d="M803,-213.8C803,-204.91 803,-194.78 803,-187.75"/>
<polygon fill="midnightblue" stroke="midnightblue" points="799.5,-214.08 803,-224.08 806.5,-214.08 799.5,-214.08"/>
</g>
<!-- Node12 -->
<g id="node12" class="node">
<title>Node12</title>
<g id="a_node12"><a xlink:href="forces__inline_8hpp.html" target="_top" xlink:title=" ">
<polygon fill="none" stroke="black" points="594,-168.5 594,-187.5 694,-187.5 694,-168.5 594,-168.5"/>
<text text-anchor="middle" x="644" y="-175.5" font-family="Helvetica,sans-Serif" font-size="10.00">forces_inline.hpp</text>
</a>
</g>
</g>
<!-- Node5&#45;&gt;Node12 -->
<g id="edge11" class="edge">
<title>Node5&#45;&gt;Node12</title>
<path fill="none" stroke="midnightblue" d="M768.17,-221.17C738.23,-211 695.78,-196.59 669.08,-187.52"/>
<polygon fill="midnightblue" stroke="midnightblue" points="767.21,-224.54 777.81,-224.44 769.46,-217.91 767.21,-224.54"/>
</g>
<!-- Node7 -->
<g id="node7" class="node">
<title>Node7</title>
<g id="a_node7"><a xlink:href="ShapeBasedConstraint_8cpp.html" target="_top" xlink:title=" ">
<polygon fill="none" stroke="black" points="603.5,-112.5 603.5,-131.5 750.5,-131.5 750.5,-112.5 603.5,-112.5"/>
<text text-anchor="middle" x="677" y="-119.5" font-family="Helvetica,sans-Serif" font-size="10.00">ShapeBasedConstraint.cpp</text>
</a>
</g>
</g>
<!-- Node6&#45;&gt;Node7 -->
<g id="edge6" class="edge">
<title>Node6&#45;&gt;Node7</title>
<path fill="none" stroke="midnightblue" d="M773.84,-164.5C750.22,-154.38 717.57,-140.39 696.87,-131.52"/>
<polygon fill="midnightblue" stroke="midnightblue" points="772.46,-167.72 783.03,-168.44 775.22,-161.29 772.46,-167.72"/>
</g>
<!-- Node6&#45;&gt;Node8 -->
<g id="edge7" class="edge">
<title>Node6&#45;&gt;Node8</title>
<path fill="none" stroke="midnightblue" d="M803,-157.8C803,-148.91 803,-138.78 803,-131.75"/>
<polygon fill="midnightblue" stroke="midnightblue" points="799.5,-158.08 803,-168.08 806.5,-158.08 799.5,-158.08"/>
</g>
<!-- Node9 -->
<g id="node9" class="node">
<title>Node9</title>
<g id="a_node9"><a xlink:href="core_2pair__criteria_2EnergyCriterion_8hpp.html" target="_top" xlink:title=" ">
<polygon fill="none" stroke="black" points="855.5,-112.5 855.5,-131.5 968.5,-131.5 968.5,-112.5 855.5,-112.5"/>
<text text-anchor="middle" x="912" y="-119.5" font-family="Helvetica,sans-Serif" font-size="10.00">EnergyCriterion.hpp</text>
</a>
</g>
</g>
<!-- Node6&#45;&gt;Node9 -->
<g id="edge8" class="edge">
<title>Node6&#45;&gt;Node9</title>
<path fill="none" stroke="midnightblue" d="M829.52,-163.86C849.73,-153.85 876.99,-140.35 894.53,-131.65"/>
<polygon fill="midnightblue" stroke="midnightblue" points="827.92,-160.75 820.51,-168.32 831.03,-167.02 827.92,-160.75"/>
</g>
<!-- Node10 -->
<g id="node10" class="node">
<title>Node10</title>
<g id="a_node10"><a xlink:href="script__interface_2pair__criteria_2EnergyCriterion_8hpp.html" target="_top" xlink:title=" ">
<polygon fill="none" stroke="black" points="855.5,-56.5 855.5,-75.5 968.5,-75.5 968.5,-56.5 855.5,-56.5"/>
<text text-anchor="middle" x="912" y="-63.5" font-family="Helvetica,sans-Serif" font-size="10.00">EnergyCriterion.hpp</text>
</a>
</g>
</g>
<!-- Node9&#45;&gt;Node10 -->
<g id="edge9" class="edge">
<title>Node9&#45;&gt;Node10</title>
<path fill="none" stroke="midnightblue" d="M912,-101.8C912,-92.91 912,-82.78 912,-75.75"/>
<polygon fill="midnightblue" stroke="midnightblue" points="908.5,-102.08 912,-112.08 915.5,-102.08 908.5,-102.08"/>
</g>
<!-- Node11 -->
<g id="node11" class="node">
<title>Node11</title>
<g id="a_node11"><a xlink:href="pair__criteria_2initialize_8cpp.html" target="_top" xlink:title=" ">
<polygon fill="none" stroke="black" points="872.5,-0.5 872.5,-19.5 951.5,-19.5 951.5,-0.5 872.5,-0.5"/>
<text text-anchor="middle" x="912" y="-7.5" font-family="Helvetica,sans-Serif" font-size="10.00">initialize.cpp</text>
</a>
</g>
</g>
<!-- Node10&#45;&gt;Node11 -->
<g id="edge10" class="edge">
<title>Node10&#45;&gt;Node11</title>
<path fill="none" stroke="midnightblue" d="M912,-45.8C912,-36.91 912,-26.78 912,-19.75"/>
<polygon fill="midnightblue" stroke="midnightblue" points="908.5,-46.08 912,-56.08 915.5,-46.08 908.5,-46.08"/>
</g>
<!-- Node12&#45;&gt;Node7 -->
<g id="edge12" class="edge">
<title>Node12&#45;&gt;Node7</title>
<path fill="none" stroke="midnightblue" d="M654.83,-159.27C660.47,-150.05 667.12,-139.17 671.65,-131.75"/>
<polygon fill="midnightblue" stroke="midnightblue" points="651.68,-157.73 649.45,-168.08 657.65,-161.38 651.68,-157.73"/>
</g>
<!-- Node12&#45;&gt;Node13 -->
<g id="edge13" class="edge">
<title>Node12&#45;&gt;Node13</title>
<path fill="none" stroke="midnightblue" d="M598.82,-166.06C556.16,-155.73 493.14,-140.47 454.71,-131.16"/>
<polygon fill="midnightblue" stroke="midnightblue" points="598.12,-169.49 608.66,-168.44 599.77,-162.69 598.12,-169.49"/>
</g>
<!-- Node14 -->
<g id="node14" class="node">
<title>Node14</title>
<g id="a_node14"><a xlink:href="pressure__inline_8hpp.html" target="_top" xlink:title=" ">
<polygon fill="none" stroke="black" points="473,-112.5 473,-131.5 585,-131.5 585,-112.5 473,-112.5"/>
<text text-anchor="middle" x="529" y="-119.5" font-family="Helvetica,sans-Serif" font-size="10.00">pressure_inline.hpp</text>
</a>
</g>
</g>
<!-- Node12&#45;&gt;Node14 -->
<g id="edge14" class="edge">
<title>Node12&#45;&gt;Node14</title>
<path fill="none" stroke="midnightblue" d="M616.52,-164.1C595.03,-154.01 565.78,-140.27 547.14,-131.52"/>
<polygon fill="midnightblue" stroke="midnightblue" points="615.24,-167.36 625.78,-168.44 618.21,-161.02 615.24,-167.36"/>
</g>
<!-- Node14&#45;&gt;Node15 -->
<g id="edge15" class="edge">
<title>Node14&#45;&gt;Node15</title>
<path fill="none" stroke="midnightblue" d="M559.91,-108.64C585.24,-98.5 620.43,-84.43 642.71,-75.52"/>
<polygon fill="midnightblue" stroke="midnightblue" points="558.38,-105.48 550.39,-112.44 560.98,-111.98 558.38,-105.48"/>
</g>
<!-- Node20&#45;&gt;Node21 -->
<g id="edge23" class="edge">
<title>Node20&#45;&gt;Node21</title>
<path fill="none" stroke="midnightblue" d="M166.62,-215.57C172.82,-206.27 180.17,-195.25 185.17,-187.75"/>
<polygon fill="midnightblue" stroke="midnightblue" points="163.58,-213.82 160.94,-224.08 169.4,-217.7 163.58,-213.82"/>
</g>
<!-- Node20&#45;&gt;Node22 -->
<g id="edge25" class="edge">
<title>Node20&#45;&gt;Node22</title>
<path fill="none" stroke="midnightblue" d="M146,-215.32C133.81,-191.37 112.52,-149.55 103.37,-131.59"/>
<polygon fill="midnightblue" stroke="midnightblue" points="142.95,-217.04 150.61,-224.37 149.19,-213.87 142.95,-217.04"/>
</g>
<!-- Node21&#45;&gt;Node22 -->
<g id="edge24" class="edge">
<title>Node21&#45;&gt;Node22</title>
<path fill="none" stroke="midnightblue" d="M167.45,-163.18C150.52,-153.24 128.22,-140.15 113.74,-131.65"/>
<polygon fill="midnightblue" stroke="midnightblue" points="165.82,-166.28 176.22,-168.32 169.37,-160.24 165.82,-166.28"/>
</g>
<!-- Node24&#45;&gt;Node22 -->
<g id="edge32" class="edge">
<title>Node24&#45;&gt;Node22</title>
<path fill="none" stroke="midnightblue" d="M149.83,-278.16C115.71,-270.11 76.24,-258.11 66,-244 46.16,-216.66 55.49,-200.1 66,-168 70.7,-153.64 81.93,-140.07 89.98,-131.66"/>
<polygon fill="midnightblue" stroke="midnightblue" points="149.22,-281.61 159.75,-280.43 150.78,-274.79 149.22,-281.61"/>
</g>
</g>
</svg>
        <g id="navigator" transform="translate(0 0)" fill="#404254">
                <rect fill="#f2f5e9" fill-opacity="0.5" stroke="#606060" stroke-width=".5" x="0" y="0" width="60" height="60"/>
                <use id="zoomplus" xlink:href="#zoomPlus" x="17" y="9" onmousedown="handleZoom(evt,'in')"/>
                <use id="zoomminus" xlink:href="#zoomMin" x="42" y="9" onmousedown="handleZoom(evt,'out')"/>
                <use id="reset" xlink:href="#resetDef" x="30" y="36" onmousedown="handleReset()"/>
                <g id="arrowUp" xlink:href="#dirArrow" transform="translate(30 24)" onmousedown="handlePan(0,-1)">
                  <use xlink:href="#rim" fill="#404040">
                        <set attributeName="fill" to="#808080" begin="arrowUp.mouseover" end="arrowUp.mouseout"/>
                  </use>
                  <path fill="none" stroke="white" stroke-width="1.5" d="M0,-3.0v7 M-2.5,-0.5L0,-3.0L2.5,-0.5"/>
                </g>
                <g id="arrowRight" xlink:href="#dirArrow" transform="rotate(90) translate(36 -43)" onmousedown="handlePan(1,0)">
                  <use xlink:href="#rim" fill="#404040">
                        <set attributeName="fill" to="#808080" begin="arrowRight.mouseover" end="arrowRight.mouseout"/>
                  </use>
                  <path fill="none" stroke="white" stroke-width="1.5" d="M0,-3.0v7 M-2.5,-0.5L0,-3.0L2.5,-0.5"/>
                </g>
                <g id="arrowDown" xlink:href="#dirArrow" transform="rotate(180) translate(-30 -48)" onmousedown="handlePan(0,1)">
                  <use xlink:href="#rim" fill="#404040">
                        <set attributeName="fill" to="#808080" begin="arrowDown.mouseover" end="arrowDown.mouseout"/>
                  </use>
                  <path fill="none" stroke="white" stroke-width="1.5" d="M0,-3.0v7 M-2.5,-0.5L0,-3.0L2.5,-0.5"/>
                </g>
                <g id="arrowLeft" xlink:href="#dirArrow" transform="rotate(270) translate(-36 17)" onmousedown="handlePan(-1,0)">
                  <use xlink:href="#rim" fill="#404040">
                        <set attributeName="fill" to="#808080" begin="arrowLeft.mouseover" end="arrowLeft.mouseout"/>
                  </use>
                  <path fill="none" stroke="white" stroke-width="1.5" d="M0,-3.0v7 M-2.5,-0.5L0,-3.0L2.5,-0.5"/>
                </g>
        </g>
        <svg viewBox="0 0 15 15" width="100%" height="30px" preserveAspectRatio="xMaxYMin meet">
         <g id="arrow_out" transform="scale(0.3 0.3)">
          <a xlink:href="barnes__hut__gpu__cuda_8cuh__dep__incl_org.svg" target="_base">
           <rect id="button" ry="5" rx="5" y="6" x="6" height="38" width="38"
                fill="#f2f5e9" fill-opacity="0.5" stroke="#606060" stroke-width="1.0"/>
           <path id="arrow"
             d="M 11.500037,31.436501 C 11.940474,20.09759 22.043105,11.32322 32.158766,21.979434 L 37.068811,17.246167 C 37.068811,17.246167 37.088388,32 37.088388,32 L 22.160133,31.978069 C 22.160133,31.978069 26.997745,27.140456 26.997745,27.140456 C 18.528582,18.264221 13.291696,25.230495 11.500037,31.436501 z"
             style="fill:#404040;"/>
          </a>
         </g>
        </svg>
</svg>
