<?xml version="1.0" encoding="UTF-8" standalone="no"?>
<!DOCTYPE svg PUBLIC "-//W3C//DTD SVG 1.1//EN"
 "http://www.w3.org/Graphics/SVG/1.1/DTD/svg11.dtd">
<!-- Generated by graphviz version 2.43.0 (0)
 -->
<!-- Title: bmhtf&#45;nacl.cpp Pages: 1 -->
<!--zoomable 464 -->
<svg id="main" version="1.1" xmlns="http://www.w3.org/2000/svg" xmlns:xlink="http://www.w3.org/1999/xlink" xml:space="preserve" onload="init(evt)">
<style type="text/css"><![CDATA[
.edge:hover path { stroke: red; }
.edge:hover polygon { stroke: red; fill: red; }
]]></style>
<script type="text/javascript"><![CDATA[
var edges = document.getElementsByTagName('g');
if (edges && edges.length) {
  for (var i=0;i<edges.length;i++) {
    if (edges[i].id.substr(0,4)=='edge') {
      edges[i].setAttribute('class','edge');
    }
  }
}
]]></script>
        <defs>
                <circle id="rim" cx="0" cy="0" r="7"/>
                <circle id="rim2" cx="0" cy="0" r="3.5"/>
                <g id="zoomPlus">
                        <use xlink:href="#rim" fill="#404040">
                                <set attributeName="fill" to="#808080" begin="zoomplus.mouseover" end="zoomplus.mouseout"/>
                        </use>
                        <path d="M-4,0h8M0,-4v8" fill="none" stroke="white" stroke-width="1.5" pointer-events="none"/>
                </g>
                <g id="zoomMin">
                        <use xlink:href="#rim" fill="#404040">
                                <set attributeName="fill" to="#808080" begin="zoomminus.mouseover" end="zoomminus.mouseout"/>
                        </use>
                        <path d="M-4,0h8" fill="none" stroke="white" stroke-width="1.5" pointer-events="none"/>
                </g>
                <g id="dirArrow">
                        <path fill="none" stroke="white" stroke-width="1.5" d="M0,-3.0v7 M-2.5,-0.5L0,-3.0L2.5,-0.5"/>
                </g>
               <g id="resetDef">
                       <use xlink:href="#rim2" fill="#404040">
                               <set attributeName="fill" to="#808080" begin="reset.mouseover" end="reset.mouseout"/>
                       </use>
               </g>
        </defs>

<script type="text/javascript">
var viewWidth = 1703;
var viewHeight = 464;
var sectionId = 'dynsection-0';
</script>
<script xlink:href="svgpan.js"/>
<svg id="graph" class="graph">
<g id="viewport">
<title>bmhtf&#45;nacl.cpp</title>
<!-- Node1 -->
<g id="node1" class="node">
<title>Node1</title>
<g id="a_node1"><a xlink:title="Implementation of bmhtf&#45;nacl.hpp.">
<polygon fill="#bfbfbf" stroke="black" points="1356.5,-436.5 1356.5,-455.5 1445.5,-455.5 1445.5,-436.5 1356.5,-436.5"/>
<text text-anchor="middle" x="1401" y="-443.5" font-family="Helvetica,sans-Serif" font-size="10.00">bmhtf&#45;nacl.cpp</text>
</a>
</g>
</g>
<!-- Node2 -->
<g id="node2" class="node">
<title>Node2</title>
<g id="a_node2"><a xlink:href="bmhtf-nacl_8hpp.html" target="_top" xlink:title="Routines to calculate the Born&#45;Meyer&#45;Huggins&#45;Tosi&#45;Fumi potential between particle pairs.">
<polygon fill="none" stroke="black" points="1393,-380.5 1393,-399.5 1483,-399.5 1483,-380.5 1393,-380.5"/>
<text text-anchor="middle" x="1438" y="-387.5" font-family="Helvetica,sans-Serif" font-size="10.00">bmhtf&#45;nacl.hpp</text>
</a>
</g>
</g>
<!-- Node1&#45;&gt;Node2 -->
<g id="edge1" class="edge">
<title>Node1&#45;&gt;Node2</title>
<path fill="none" stroke="midnightblue" d="M1407.11,-436.08C1412.28,-428.53 1419.85,-417.49 1426.19,-408.23"/>
<polygon fill="midnightblue" stroke="midnightblue" points="1429.24,-409.98 1432,-399.75 1423.46,-406.02 1429.24,-409.98"/>
</g>
<!-- Node5 -->
<g id="node5" class="node">
<title>Node5</title>
<g id="a_node5"><a xlink:href="nonbonded__interaction__data_8hpp.html" target="_top" xlink:title="Various procedures concerning interactions between particles.">
<polygon fill="none" stroke="black" points="1181,-313.5 1181,-343.5 1309,-343.5 1309,-313.5 1181,-313.5"/>
<text text-anchor="start" x="1189" y="-331.5" font-family="Helvetica,sans-Serif" font-size="10.00">nonbonded_interaction</text>
<text text-anchor="middle" x="1245" y="-320.5" font-family="Helvetica,sans-Serif" font-size="10.00">_data.hpp</text>
</a>
</g>
</g>
<!-- Node1&#45;&gt;Node5 -->
<g id="edge65" class="edge">
<title>Node1&#45;&gt;Node5</title>
<path fill="none" stroke="midnightblue" d="M1389.27,-436.32C1364.58,-418.04 1306.67,-375.16 1272.2,-349.64"/>
<polygon fill="midnightblue" stroke="midnightblue" points="1274.09,-346.68 1263.97,-343.55 1269.92,-352.31 1274.09,-346.68"/>
</g>
<!-- Node17 -->
<g id="node17" class="node">
<title>Node17</title>
<g id="a_node17"><a xlink:title=" ">
<polygon fill="none" stroke="#bfbfbf" points="1295.5,-73 1295.5,-92 1360.5,-92 1360.5,-73 1295.5,-73"/>
<text text-anchor="middle" x="1328" y="-80" font-family="Helvetica,sans-Serif" font-size="10.00">stdexcept</text>
</a>
</g>
</g>
<!-- Node1&#45;&gt;Node17 -->
<g id="edge67" class="edge">
<title>Node1&#45;&gt;Node17</title>
<path fill="none" stroke="midnightblue" d="M1445.65,-437.07C1527.9,-421.19 1695,-382.42 1695,-329.5 1695,-329.5 1695,-329.5 1695,-266 1695,-122.51 1467.28,-91.84 1370.6,-85.28"/>
<polygon fill="midnightblue" stroke="midnightblue" points="1370.77,-81.79 1360.57,-84.66 1370.33,-88.77 1370.77,-81.79"/>
</g>
<!-- Node39 -->
<g id="node39" class="node">
<title>Node39</title>
<g id="a_node39"><a xlink:href="int__pow_8hpp.html" target="_top" xlink:title=" ">
<polygon fill="none" stroke="black" points="1301,-257.5 1301,-276.5 1429,-276.5 1429,-257.5 1301,-257.5"/>
<text text-anchor="middle" x="1365" y="-264.5" font-family="Helvetica,sans-Serif" font-size="10.00">utils/math/int_pow.hpp</text>
</a>
</g>
</g>
<!-- Node1&#45;&gt;Node39 -->
<g id="edge66" class="edge">
<title>Node1&#45;&gt;Node39</title>
<path fill="none" stroke="midnightblue" d="M1397.03,-436.22C1393.14,-427.28 1387.33,-412.94 1384,-400 1373.83,-360.53 1368.66,-312.93 1366.43,-287.04"/>
<polygon fill="midnightblue" stroke="midnightblue" points="1369.89,-286.46 1365.6,-276.78 1362.92,-287.03 1369.89,-286.46"/>
</g>
<!-- Node3 -->
<g id="node3" class="node">
<title>Node3</title>
<g id="a_node3"><a xlink:href="config_8hpp.html" target="_top" xlink:title="This file contains the defaults for ESPResSo.">
<polygon fill="none" stroke="black" points="1523.5,-257.5 1523.5,-276.5 1622.5,-276.5 1622.5,-257.5 1523.5,-257.5"/>
<text text-anchor="middle" x="1573" y="-264.5" font-family="Helvetica,sans-Serif" font-size="10.00">config/config.hpp</text>
</a>
</g>
</g>
<!-- Node2&#45;&gt;Node3 -->
<g id="edge2" class="edge">
<title>Node2&#45;&gt;Node3</title>
<path fill="none" stroke="midnightblue" d="M1454.48,-380.46C1469.53,-372.24 1491.96,-358.88 1509,-344 1529.42,-326.17 1548.89,-301.59 1560.88,-285.27"/>
<polygon fill="midnightblue" stroke="midnightblue" points="1564.02,-286.88 1567.02,-276.72 1558.34,-282.8 1564.02,-286.88"/>
</g>
<!-- Node2&#45;&gt;Node5 -->
<g id="edge4" class="edge">
<title>Node2&#45;&gt;Node5</title>
<path fill="none" stroke="midnightblue" d="M1410.35,-380.48C1381.77,-371.66 1336.37,-357.67 1300.37,-346.57"/>
<polygon fill="midnightblue" stroke="midnightblue" points="1301.07,-343.12 1290.49,-343.52 1299.01,-349.81 1301.07,-343.12"/>
</g>
<!-- Node35 -->
<g id="node35" class="node">
<title>Node35</title>
<g id="a_node35"><a xlink:title=" ">
<polygon fill="none" stroke="#bfbfbf" points="1420.5,-140 1420.5,-159 1467.5,-159 1467.5,-140 1420.5,-140"/>
<text text-anchor="middle" x="1444" y="-147" font-family="Helvetica,sans-Serif" font-size="10.00">cmath</text>
</a>
</g>
</g>
<!-- Node2&#45;&gt;Node35 -->
<g id="edge64" class="edge">
<title>Node2&#45;&gt;Node35</title>
<path fill="none" stroke="midnightblue" d="M1438.22,-380.23C1439.09,-345.6 1442.3,-217.93 1443.52,-169.4"/>
<polygon fill="midnightblue" stroke="midnightblue" points="1447.03,-169.18 1443.78,-159.1 1440.03,-169.01 1447.03,-169.18"/>
</g>
<!-- Node2&#45;&gt;Node39 -->
<g id="edge63" class="edge">
<title>Node2&#45;&gt;Node39</title>
<path fill="none" stroke="midnightblue" d="M1432.75,-380.3C1420.81,-360.5 1391.41,-311.78 1375.55,-285.49"/>
<polygon fill="midnightblue" stroke="midnightblue" points="1378.37,-283.38 1370.2,-276.62 1372.37,-286.99 1378.37,-283.38"/>
</g>
<!-- Node4 -->
<g id="node4" class="node">
<title>Node4</title>
<g id="a_node4"><a xlink:title=" ">
<polygon fill="none" stroke="#bfbfbf" points="1523.5,-201.5 1523.5,-220.5 1666.5,-220.5 1666.5,-201.5 1523.5,-201.5"/>
<text text-anchor="middle" x="1595" y="-208.5" font-family="Helvetica,sans-Serif" font-size="10.00">config/config&#45;features.hpp</text>
</a>
</g>
</g>
<!-- Node3&#45;&gt;Node4 -->
<g id="edge3" class="edge">
<title>Node3&#45;&gt;Node4</title>
<path fill="none" stroke="midnightblue" d="M1576.63,-257.08C1579.61,-249.77 1583.93,-239.18 1587.62,-230.1"/>
<polygon fill="midnightblue" stroke="midnightblue" points="1590.9,-231.33 1591.43,-220.75 1584.42,-228.69 1590.9,-231.33"/>
</g>
<!-- Node5&#45;&gt;Node3 -->
<g id="edge12" class="edge">
<title>Node5&#45;&gt;Node3</title>
<path fill="none" stroke="midnightblue" d="M1309.02,-315.89C1369.17,-304.98 1458.33,-288.8 1516.06,-278.33"/>
<polygon fill="midnightblue" stroke="midnightblue" points="1516.89,-281.74 1526.11,-276.51 1515.64,-274.85 1516.89,-281.74"/>
</g>
<!-- Node6 -->
<g id="node6" class="node">
<title>Node6</title>
<g id="a_node6"><a xlink:href="TabulatedPotential_8hpp.html" target="_top" xlink:title=" ">
<polygon fill="none" stroke="black" points="141,-201.5 141,-220.5 269,-220.5 269,-201.5 141,-201.5"/>
<text text-anchor="middle" x="205" y="-208.5" font-family="Helvetica,sans-Serif" font-size="10.00">TabulatedPotential.hpp</text>
</a>
</g>
</g>
<!-- Node5&#45;&gt;Node6 -->
<g id="edge5" class="edge">
<title>Node5&#45;&gt;Node6</title>
<path fill="none" stroke="midnightblue" d="M1180.74,-326.25C980.32,-322.07 375.01,-307.05 292,-277 263.62,-266.73 236.71,-243.88 220.53,-228.21"/>
<polygon fill="midnightblue" stroke="midnightblue" points="222.64,-225.37 213.1,-220.77 217.69,-230.32 222.64,-225.37"/>
</g>
<!-- Node8 -->
<g id="node8" class="node">
<title>Node8</title>
<g id="a_node8"><a xlink:title=" ">
<polygon fill="none" stroke="#bfbfbf" points="321,-6 321,-25 373,-25 373,-6 321,-6"/>
<text text-anchor="middle" x="347" y="-13" font-family="Helvetica,sans-Serif" font-size="10.00">cassert</text>
</a>
</g>
</g>
<!-- Node5&#45;&gt;Node8 -->
<g id="edge58" class="edge">
<title>Node5&#45;&gt;Node8</title>
<path fill="none" stroke="midnightblue" d="M1180.76,-325.93C990.53,-321 432.13,-304.52 252,-277 137.66,-259.53 0,-327.67 0,-212 0,-212 0,-212 0,-148.5 0,-97.12 36.55,-90.97 82,-67 156.61,-27.65 257.39,-18.67 310.6,-16.81"/>
<polygon fill="midnightblue" stroke="midnightblue" points="311,-20.3 320.89,-16.52 310.8,-13.3 311,-20.3"/>
</g>
<!-- Node11 -->
<g id="node11" class="node">
<title>Node11</title>
<g id="a_node11"><a xlink:title=" ">
<polygon fill="none" stroke="#bfbfbf" points="296,-140 296,-159 360,-159 360,-140 296,-140"/>
<text text-anchor="middle" x="328" y="-147" font-family="Helvetica,sans-Serif" font-size="10.00">algorithm</text>
</a>
</g>
</g>
<!-- Node5&#45;&gt;Node11 -->
<g id="edge57" class="edge">
<title>Node5&#45;&gt;Node11</title>
<path fill="none" stroke="midnightblue" d="M1180.99,-326.64C1003.36,-323.19 508.5,-305.99 374,-221 354.74,-208.83 341.88,-185.35 334.77,-168.84"/>
<polygon fill="midnightblue" stroke="midnightblue" points="337.87,-167.17 330.92,-159.18 331.37,-169.77 337.87,-167.17"/>
</g>
<!-- Node12 -->
<g id="node12" class="node">
<title>Node12</title>
<g id="a_node12"><a xlink:title=" ">
<polygon fill="none" stroke="#bfbfbf" points="230.5,-140 230.5,-159 277.5,-159 277.5,-140 230.5,-140"/>
<text text-anchor="middle" x="254" y="-147" font-family="Helvetica,sans-Serif" font-size="10.00">vector</text>
</a>
</g>
</g>
<!-- Node5&#45;&gt;Node12 -->
<g id="edge62" class="edge">
<title>Node5&#45;&gt;Node12</title>
<path fill="none" stroke="midnightblue" d="M1180.72,-326.33C1020.12,-322.94 604.68,-311.03 471,-277 389.19,-256.17 307.02,-194.5 271.81,-165.67"/>
<polygon fill="midnightblue" stroke="midnightblue" points="273.83,-162.8 263.91,-159.1 269.36,-168.18 273.83,-162.8"/>
</g>
<!-- Node13 -->
<g id="node13" class="node">
<title>Node13</title>
<g id="a_node13"><a xlink:href="index_8hpp.html" target="_top" xlink:title=" ">
<polygon fill="none" stroke="black" points="797.5,-257.5 797.5,-276.5 886.5,-276.5 886.5,-257.5 797.5,-257.5"/>
<text text-anchor="middle" x="842" y="-264.5" font-family="Helvetica,sans-Serif" font-size="10.00">utils/index.hpp</text>
</a>
</g>
</g>
<!-- Node5&#45;&gt;Node13 -->
<g id="edge13" class="edge">
<title>Node5&#45;&gt;Node13</title>
<path fill="none" stroke="midnightblue" d="M1180.7,-318.01C1102.17,-306.41 970.7,-287 896.77,-276.09"/>
<polygon fill="midnightblue" stroke="midnightblue" points="897.14,-272.6 886.73,-274.6 896.11,-279.53 897.14,-272.6"/>
</g>
<!-- Node14 -->
<g id="node14" class="node">
<title>Node14</title>
<g id="a_node14"><a xlink:title=" ">
<polygon fill="none" stroke="#bfbfbf" points="1539.5,-6 1539.5,-25 1592.5,-25 1592.5,-6 1539.5,-6"/>
<text text-anchor="middle" x="1566" y="-13" font-family="Helvetica,sans-Serif" font-size="10.00">cstddef</text>
</a>
</g>
</g>
<!-- Node5&#45;&gt;Node14 -->
<g id="edge60" class="edge">
<title>Node5&#45;&gt;Node14</title>
<path fill="none" stroke="midnightblue" d="M1309.09,-322.55C1349.27,-316.75 1400.39,-304.19 1438,-277 1514.83,-221.47 1520.55,-186.7 1554,-98 1561.71,-77.56 1564.49,-52.5 1565.48,-35.6"/>
<polygon fill="midnightblue" stroke="midnightblue" points="1568.99,-35.51 1565.92,-25.37 1561.99,-35.21 1568.99,-35.51"/>
</g>
<!-- Node5&#45;&gt;Node35 -->
<g id="edge59" class="edge">
<title>Node5&#45;&gt;Node35</title>
<path fill="none" stroke="midnightblue" d="M1252.31,-313.41C1260.59,-298.34 1275.14,-274.26 1292,-257 1330.98,-217.11 1386.74,-182.47 1418.76,-164.22"/>
<polygon fill="midnightblue" stroke="midnightblue" points="1420.89,-167.04 1427.9,-159.1 1417.46,-160.94 1420.89,-167.04"/>
</g>
<!-- Node5&#45;&gt;Node39 -->
<g id="edge54" class="edge">
<title>Node5&#45;&gt;Node39</title>
<path fill="none" stroke="midnightblue" d="M1273.44,-313.4C1293.12,-303.64 1319.14,-290.74 1338.41,-281.18"/>
<polygon fill="midnightblue" stroke="midnightblue" points="1340.13,-284.24 1347.54,-276.66 1337.02,-277.96 1340.13,-284.24"/>
</g>
<!-- Node40 -->
<g id="node40" class="node">
<title>Node40</title>
<g id="a_node40"><a xlink:title=" ">
<polygon fill="none" stroke="#bfbfbf" points="1187,-257.5 1187,-276.5 1245,-276.5 1245,-257.5 1187,-257.5"/>
<text text-anchor="middle" x="1216" y="-264.5" font-family="Helvetica,sans-Serif" font-size="10.00">memory</text>
</a>
</g>
</g>
<!-- Node5&#45;&gt;Node40 -->
<g id="edge61" class="edge">
<title>Node5&#45;&gt;Node40</title>
<path fill="none" stroke="midnightblue" d="M1238.13,-313.4C1234.09,-305.11 1228.94,-294.55 1224.63,-285.71"/>
<polygon fill="midnightblue" stroke="midnightblue" points="1227.75,-284.11 1220.22,-276.66 1221.45,-287.18 1227.75,-284.11"/>
</g>
<!-- Node7 -->
<g id="node7" class="node">
<title>Node7</title>
<g id="a_node7"><a xlink:href="linear__interpolation_8hpp.html" target="_top" xlink:title=" ">
<polygon fill="none" stroke="black" points="91.5,-73 91.5,-92 248.5,-92 248.5,-73 91.5,-73"/>
<text text-anchor="middle" x="170" y="-80" font-family="Helvetica,sans-Serif" font-size="10.00">utils/linear_interpolation.hpp</text>
</a>
</g>
</g>
<!-- Node6&#45;&gt;Node7 -->
<g id="edge6" class="edge">
<title>Node6&#45;&gt;Node7</title>
<path fill="none" stroke="midnightblue" d="M140.7,-207.38C110.19,-202.49 76.27,-191 57,-165 33.33,-133.07 86.61,-108.55 127.8,-95.08"/>
<polygon fill="midnightblue" stroke="midnightblue" points="128.94,-98.4 137.43,-92.06 126.84,-91.72 128.94,-98.4"/>
</g>
<!-- Node9 -->
<g id="node9" class="node">
<title>Node9</title>
<g id="a_node9"><a xlink:title=" ">
<polygon fill="none" stroke="#bfbfbf" points="375.5,-67.5 375.5,-97.5 482.5,-97.5 482.5,-67.5 375.5,-67.5"/>
<text text-anchor="start" x="383.5" y="-85.5" font-family="Helvetica,sans-Serif" font-size="10.00">boost/serialization</text>
<text text-anchor="middle" x="429" y="-74.5" font-family="Helvetica,sans-Serif" font-size="10.00">/access.hpp</text>
</a>
</g>
</g>
<!-- Node6&#45;&gt;Node9 -->
<g id="edge8" class="edge">
<title>Node6&#45;&gt;Node9</title>
<path fill="none" stroke="midnightblue" d="M204.1,-201.36C202.99,-185.69 203.07,-152.49 221,-134 240.87,-113.51 311.78,-99.43 365.32,-91.44"/>
<polygon fill="midnightblue" stroke="midnightblue" points="366.05,-94.87 375.44,-89.97 365.04,-87.95 366.05,-94.87"/>
</g>
<!-- Node10 -->
<g id="node10" class="node">
<title>Node10</title>
<g id="a_node10"><a xlink:title=" ">
<polygon fill="none" stroke="#bfbfbf" points="66.5,-134.5 66.5,-164.5 173.5,-164.5 173.5,-134.5 66.5,-134.5"/>
<text text-anchor="start" x="74.5" y="-152.5" font-family="Helvetica,sans-Serif" font-size="10.00">boost/serialization</text>
<text text-anchor="middle" x="120" y="-141.5" font-family="Helvetica,sans-Serif" font-size="10.00">/vector.hpp</text>
</a>
</g>
</g>
<!-- Node6&#45;&gt;Node10 -->
<g id="edge9" class="edge">
<title>Node6&#45;&gt;Node10</title>
<path fill="none" stroke="midnightblue" d="M192.82,-201.48C181.31,-193.42 163.6,-181.02 148.53,-170.47"/>
<polygon fill="midnightblue" stroke="midnightblue" points="150.23,-167.39 140.03,-164.52 146.22,-173.12 150.23,-167.39"/>
</g>
<!-- Node6&#45;&gt;Node11 -->
<g id="edge10" class="edge">
<title>Node6&#45;&gt;Node11</title>
<path fill="none" stroke="midnightblue" d="M222.62,-201.48C243.17,-191.53 277.36,-174.99 301.21,-163.46"/>
<polygon fill="midnightblue" stroke="midnightblue" points="302.93,-166.51 310.41,-159.01 299.88,-160.21 302.93,-166.51"/>
</g>
<!-- Node6&#45;&gt;Node12 -->
<g id="edge11" class="edge">
<title>Node6&#45;&gt;Node12</title>
<path fill="none" stroke="midnightblue" d="M212.02,-201.48C219.44,-192.46 231.33,-178.02 240.57,-166.81"/>
<polygon fill="midnightblue" stroke="midnightblue" points="243.34,-168.95 246.99,-159.01 237.93,-164.5 243.34,-168.95"/>
</g>
<!-- Node7&#45;&gt;Node8 -->
<g id="edge7" class="edge">
<title>Node7&#45;&gt;Node8</title>
<path fill="none" stroke="midnightblue" d="M193.5,-72.87C224.4,-61.52 278.86,-41.52 313.91,-28.65"/>
<polygon fill="midnightblue" stroke="midnightblue" points="315.5,-31.8 323.68,-25.06 313.09,-25.23 315.5,-31.8"/>
</g>
<!-- Node13&#45;&gt;Node8 -->
<g id="edge14" class="edge">
<title>Node13&#45;&gt;Node8</title>
<path fill="none" stroke="midnightblue" d="M797.46,-263.47C716.88,-258.36 550.36,-245.16 498,-221 425.19,-187.4 405.72,-167.66 366,-98 354.89,-78.52 350.27,-52.89 348.35,-35.62"/>
<polygon fill="midnightblue" stroke="midnightblue" points="351.8,-34.82 347.41,-25.18 344.82,-35.45 351.8,-34.82"/>
</g>
<!-- Node13&#45;&gt;Node14 -->
<g id="edge15" class="edge">
<title>Node13&#45;&gt;Node14</title>
<path fill="none" stroke="midnightblue" d="M886.81,-263.95C1015.08,-257.31 1380.58,-232.76 1476,-165 1522.39,-132.06 1549.3,-66.97 1560.23,-35.04"/>
<polygon fill="midnightblue" stroke="midnightblue" points="1563.66,-35.83 1563.44,-25.24 1557.01,-33.65 1563.66,-35.83"/>
</g>
<!-- Node15 -->
<g id="node15" class="node">
<title>Node15</title>
<g id="a_node15"><a xlink:title=" ">
<polygon fill="none" stroke="#bfbfbf" points="500.5,-73 500.5,-92 553.5,-92 553.5,-73 500.5,-73"/>
<text text-anchor="middle" x="527" y="-80" font-family="Helvetica,sans-Serif" font-size="10.00">iterator</text>
</a>
</g>
</g>
<!-- Node13&#45;&gt;Node15 -->
<g id="edge16" class="edge">
<title>Node13&#45;&gt;Node15</title>
<path fill="none" stroke="midnightblue" d="M797.32,-261.55C702.71,-251.09 487.35,-221.47 445,-165 436.73,-153.98 438.28,-146.03 445,-134 451.14,-123 478.47,-107.45 499.91,-96.52"/>
<polygon fill="midnightblue" stroke="midnightblue" points="501.57,-99.6 508.95,-92 498.44,-93.34 501.57,-99.6"/>
</g>
<!-- Node16 -->
<g id="node16" class="node">
<title>Node16</title>
<g id="a_node16"><a xlink:title=" ">
<polygon fill="none" stroke="#bfbfbf" points="454,-140 454,-159 510,-159 510,-140 454,-140"/>
<text text-anchor="middle" x="482" y="-147" font-family="Helvetica,sans-Serif" font-size="10.00">numeric</text>
</a>
</g>
</g>
<!-- Node13&#45;&gt;Node16 -->
<g id="edge17" class="edge">
<title>Node13&#45;&gt;Node16</title>
<path fill="none" stroke="midnightblue" d="M815.24,-257.41C751.58,-236.99 591.09,-185.5 518.57,-162.23"/>
<polygon fill="midnightblue" stroke="midnightblue" points="519.53,-158.87 508.94,-159.14 517.39,-165.53 519.53,-158.87"/>
</g>
<!-- Node13&#45;&gt;Node17 -->
<g id="edge18" class="edge">
<title>Node13&#45;&gt;Node17</title>
<path fill="none" stroke="midnightblue" d="M886.63,-266.97C971.76,-266.59 1159.66,-254.77 1281,-165 1302.39,-149.17 1315.59,-120.48 1322.36,-101.71"/>
<polygon fill="midnightblue" stroke="midnightblue" points="1325.69,-102.8 1325.55,-92.21 1319.05,-100.58 1325.69,-102.8"/>
</g>
<!-- Node18 -->
<g id="node18" class="node">
<title>Node18</title>
<g id="a_node18"><a xlink:href="Vector_8hpp.html" target="_top" xlink:title="Vector implementation and trait types for boost qvm interoperability.">
<polygon fill="none" stroke="black" points="808,-201.5 808,-220.5 876,-220.5 876,-201.5 808,-201.5"/>
<text text-anchor="middle" x="842" y="-208.5" font-family="Helvetica,sans-Serif" font-size="10.00">Vector.hpp</text>
</a>
</g>
</g>
<!-- Node13&#45;&gt;Node18 -->
<g id="edge19" class="edge">
<title>Node13&#45;&gt;Node18</title>
<path fill="none" stroke="midnightblue" d="M842,-257.08C842,-250.01 842,-239.86 842,-230.99"/>
<polygon fill="midnightblue" stroke="midnightblue" points="845.5,-230.75 842,-220.75 838.5,-230.75 845.5,-230.75"/>
</g>
<!-- Node18&#45;&gt;Node8 -->
<g id="edge45" class="edge">
<title>Node18&#45;&gt;Node8</title>
<path fill="none" stroke="midnightblue" d="M807.93,-208C747.84,-203.82 626.4,-192.16 595,-165 560.24,-134.93 596.5,-97.36 562,-67 500.76,-13.1 460.06,-54.73 382,-31 379.72,-30.31 377.38,-29.52 375.04,-28.68"/>
<polygon fill="midnightblue" stroke="midnightblue" points="376.23,-25.38 365.64,-25.01 373.69,-31.9 376.23,-25.38"/>
</g>
<!-- Node18&#45;&gt;Node11 -->
<g id="edge44" class="edge">
<title>Node18&#45;&gt;Node11</title>
<path fill="none" stroke="midnightblue" d="M808,-206.27C739.36,-198.7 579.32,-180.94 445,-165 420.26,-162.06 392.59,-158.64 370.38,-155.86"/>
<polygon fill="midnightblue" stroke="midnightblue" points="370.63,-152.36 360.27,-154.59 369.75,-159.31 370.63,-152.36"/>
</g>
<!-- Node18&#45;&gt;Node12 -->
<g id="edge53" class="edge">
<title>Node18&#45;&gt;Node12</title>
<path fill="none" stroke="midnightblue" d="M808,-208.72C703.25,-204.56 386.58,-190.16 287,-165 284.7,-164.42 282.35,-163.69 280.02,-162.87"/>
<polygon fill="midnightblue" stroke="midnightblue" points="281.33,-159.62 270.74,-159.14 278.72,-166.12 281.33,-159.62"/>
</g>
<!-- Node18&#45;&gt;Node14 -->
<g id="edge47" class="edge">
<title>Node18&#45;&gt;Node14</title>
<path fill="none" stroke="midnightblue" d="M876.1,-210.62C963.04,-211.53 1190.17,-209.48 1248,-165 1285.03,-136.52 1249.49,-96.14 1286,-67 1371.67,1.39 1424.2,-59.68 1530,-31 1532.5,-30.32 1535.07,-29.52 1537.62,-28.65"/>
<polygon fill="midnightblue" stroke="midnightblue" points="1539.1,-31.83 1547.23,-25.03 1536.64,-25.27 1539.1,-31.83"/>
</g>
<!-- Node18&#45;&gt;Node15 -->
<g id="edge50" class="edge">
<title>Node18&#45;&gt;Node15</title>
<path fill="none" stroke="midnightblue" d="M807.82,-208.55C741.77,-205.12 599.76,-194.44 562,-165 542.3,-149.64 533.51,-121.01 529.72,-102.1"/>
<polygon fill="midnightblue" stroke="midnightblue" points="533.13,-101.29 527.98,-92.03 526.23,-102.48 533.13,-101.29"/>
</g>
<!-- Node18&#45;&gt;Node16 -->
<g id="edge51" class="edge">
<title>Node18&#45;&gt;Node16</title>
<path fill="none" stroke="midnightblue" d="M807.71,-207.32C748.98,-202.25 625.64,-189.5 524,-165 520.78,-164.22 517.45,-163.3 514.15,-162.3"/>
<polygon fill="midnightblue" stroke="midnightblue" points="515.03,-158.9 504.43,-159.13 512.86,-165.56 515.03,-158.9"/>
</g>
<!-- Node19 -->
<g id="node19" class="node">
<title>Node19</title>
<g id="a_node19"><a xlink:title=" ">
<polygon fill="none" stroke="#bfbfbf" points="604,-140 604,-159 754,-159 754,-140 604,-140"/>
<text text-anchor="middle" x="679" y="-147" font-family="Helvetica,sans-Serif" font-size="10.00">boost/qvm/deduce_vec.hpp</text>
</a>
</g>
</g>
<!-- Node18&#45;&gt;Node19 -->
<g id="edge20" class="edge">
<title>Node18&#45;&gt;Node19</title>
<path fill="none" stroke="midnightblue" d="M818.65,-201.48C790.69,-191.27 743.67,-174.11 712.01,-162.55"/>
<polygon fill="midnightblue" stroke="midnightblue" points="712.9,-159.15 702.31,-159.01 710.5,-165.73 712.9,-159.15"/>
</g>
<!-- Node20 -->
<g id="node20" class="node">
<title>Node20</title>
<g id="a_node20"><a xlink:title=" ">
<polygon fill="none" stroke="#bfbfbf" points="772,-140 772,-159 912,-159 912,-140 772,-140"/>
<text text-anchor="middle" x="842" y="-147" font-family="Helvetica,sans-Serif" font-size="10.00">boost/qvm/vec_traits.hpp</text>
</a>
</g>
</g>
<!-- Node18&#45;&gt;Node20 -->
<g id="edge21" class="edge">
<title>Node18&#45;&gt;Node20</title>
<path fill="none" stroke="midnightblue" d="M842,-201.48C842,-193.08 842,-179.98 842,-169.16"/>
<polygon fill="midnightblue" stroke="midnightblue" points="845.5,-169.01 842,-159.01 838.5,-169.01 845.5,-169.01"/>
</g>
<!-- Node21 -->
<g id="node21" class="node">
<title>Node21</title>
<g id="a_node21"><a xlink:href="Array_8hpp.html" target="_top" xlink:title="Array implementation with CUDA support.">
<polygon fill="none" stroke="black" points="1153,-140 1153,-159 1239,-159 1239,-140 1153,-140"/>
<text text-anchor="middle" x="1196" y="-147" font-family="Helvetica,sans-Serif" font-size="10.00">utils/Array.hpp</text>
</a>
</g>
</g>
<!-- Node18&#45;&gt;Node21 -->
<g id="edge22" class="edge">
<title>Node18&#45;&gt;Node21</title>
<path fill="none" stroke="midnightblue" d="M876.26,-204.24C938.24,-193.82 1069.37,-171.78 1142.99,-159.41"/>
<polygon fill="midnightblue" stroke="midnightblue" points="1143.7,-162.84 1152.98,-157.73 1142.54,-155.94 1143.7,-162.84"/>
</g>
<!-- Node18&#45;&gt;Node35 -->
<g id="edge46" class="edge">
<title>Node18&#45;&gt;Node35</title>
<path fill="none" stroke="midnightblue" d="M876.1,-208.8C982.71,-204.8 1308.65,-190.75 1411,-165 1413.3,-164.42 1415.65,-163.69 1417.98,-162.88"/>
<polygon fill="midnightblue" stroke="midnightblue" points="1419.28,-166.12 1427.26,-159.15 1416.67,-159.63 1419.28,-166.12"/>
</g>
<!-- Node36 -->
<g id="node36" class="node">
<title>Node36</title>
<g id="a_node36"><a xlink:title=" ">
<polygon fill="none" stroke="#bfbfbf" points="930.5,-140 930.5,-159 995.5,-159 995.5,-140 930.5,-140"/>
<text text-anchor="middle" x="963" y="-147" font-family="Helvetica,sans-Serif" font-size="10.00">functional</text>
</a>
</g>
</g>
<!-- Node18&#45;&gt;Node36 -->
<g id="edge48" class="edge">
<title>Node18&#45;&gt;Node36</title>
<path fill="none" stroke="midnightblue" d="M859.34,-201.48C879.55,-191.53 913.19,-174.99 936.64,-163.46"/>
<polygon fill="midnightblue" stroke="midnightblue" points="938.27,-166.56 945.7,-159.01 935.18,-160.28 938.27,-166.56"/>
</g>
<!-- Node37 -->
<g id="node37" class="node">
<title>Node37</title>
<g id="a_node37"><a xlink:title=" ">
<polygon fill="none" stroke="#bfbfbf" points="1013.5,-140 1013.5,-159 1096.5,-159 1096.5,-140 1013.5,-140"/>
<text text-anchor="middle" x="1055" y="-147" font-family="Helvetica,sans-Serif" font-size="10.00">initializer_list</text>
</a>
</g>
</g>
<!-- Node18&#45;&gt;Node37 -->
<g id="edge49" class="edge">
<title>Node18&#45;&gt;Node37</title>
<path fill="none" stroke="midnightblue" d="M873.07,-201.43C905.7,-192.42 958.48,-177.79 1004,-165 1007.63,-163.98 1011.39,-162.92 1015.17,-161.85"/>
<polygon fill="midnightblue" stroke="midnightblue" points="1016.41,-165.14 1025.07,-159.04 1014.5,-158.4 1016.41,-165.14"/>
</g>
<!-- Node38 -->
<g id="node38" class="node">
<title>Node38</title>
<g id="a_node38"><a xlink:title=" ">
<polygon fill="none" stroke="#bfbfbf" points="1333.5,-140 1333.5,-159 1402.5,-159 1402.5,-140 1333.5,-140"/>
<text text-anchor="middle" x="1368" y="-147" font-family="Helvetica,sans-Serif" font-size="10.00">type_traits</text>
</a>
</g>
</g>
<!-- Node18&#45;&gt;Node38 -->
<g id="edge52" class="edge">
<title>Node18&#45;&gt;Node38</title>
<path fill="none" stroke="midnightblue" d="M876.24,-207.23C950.26,-201.08 1130.66,-185.21 1281,-165 1294.79,-163.15 1309.74,-160.78 1323.31,-158.5"/>
<polygon fill="midnightblue" stroke="midnightblue" points="1324.09,-161.92 1333.36,-156.79 1322.91,-155.02 1324.09,-161.92"/>
</g>
<!-- Node21&#45;&gt;Node8 -->
<g id="edge39" class="edge">
<title>Node21&#45;&gt;Node8</title>
<path fill="none" stroke="midnightblue" d="M1164.46,-139.96C1156.2,-137.87 1147.3,-135.73 1139,-134 1042.45,-113.82 1009.92,-138.55 920,-98 900.13,-89.04 902.26,-75.05 882,-67 674.94,15.24 598.81,-82.3 382,-31 379.33,-30.37 376.6,-29.56 373.91,-28.64"/>
<polygon fill="midnightblue" stroke="midnightblue" points="375.03,-25.33 364.44,-25.01 372.52,-31.86 375.03,-25.33"/>
</g>
<!-- Node21&#45;&gt;Node9 -->
<g id="edge38" class="edge">
<title>Node21&#45;&gt;Node9</title>
<path fill="none" stroke="midnightblue" d="M1152.61,-140.68C1137.57,-138.22 1120.59,-135.69 1105,-134 836.56,-104.82 763.3,-136.48 492.78,-98.1"/>
<polygon fill="midnightblue" stroke="midnightblue" points="493.06,-94.6 482.66,-96.64 492.06,-101.53 493.06,-94.6"/>
</g>
<!-- Node21&#45;&gt;Node14 -->
<g id="edge40" class="edge">
<title>Node21&#45;&gt;Node14</title>
<path fill="none" stroke="midnightblue" d="M1199.26,-139.8C1206.21,-122.6 1224.21,-84.45 1253,-67 1359.17,-2.65 1409.9,-62.44 1530,-31 1532.51,-30.34 1535.08,-29.56 1537.63,-28.69"/>
<polygon fill="midnightblue" stroke="midnightblue" points="1539.11,-31.88 1547.25,-25.1 1536.66,-25.32 1539.11,-31.88"/>
</g>
<!-- Node21&#45;&gt;Node15 -->
<g id="edge41" class="edge">
<title>Node21&#45;&gt;Node15</title>
<path fill="none" stroke="midnightblue" d="M1152.58,-140.94C1137.54,-138.49 1120.56,-135.92 1105,-134 901.13,-108.88 655.29,-91.74 563.71,-85.8"/>
<polygon fill="midnightblue" stroke="midnightblue" points="563.78,-82.3 553.57,-85.15 563.33,-89.28 563.78,-82.3"/>
</g>
<!-- Node21&#45;&gt;Node17 -->
<g id="edge43" class="edge">
<title>Node21&#45;&gt;Node17</title>
<path fill="none" stroke="midnightblue" d="M1213.53,-139.87C1236.01,-128.8 1275.23,-109.49 1301.4,-96.6"/>
<polygon fill="midnightblue" stroke="midnightblue" points="1302.97,-99.72 1310.4,-92.17 1299.88,-93.44 1302.97,-99.72"/>
</g>
<!-- Node22 -->
<g id="node22" class="node">
<title>Node22</title>
<g id="a_node22"><a xlink:href="device__qualifier_8hpp.html" target="_top" xlink:title=" ">
<polygon fill="none" stroke="black" points="759,-73 759,-92 873,-92 873,-73 759,-73"/>
<text text-anchor="middle" x="816" y="-80" font-family="Helvetica,sans-Serif" font-size="10.00">device_qualifier.hpp</text>
</a>
</g>
</g>
<!-- Node21&#45;&gt;Node22 -->
<g id="edge23" class="edge">
<title>Node21&#45;&gt;Node22</title>
<path fill="none" stroke="midnightblue" d="M1165.08,-139.99C1156.66,-137.85 1147.51,-135.69 1139,-134 1028.02,-112.02 998.47,-117.33 887,-98 880.17,-96.82 872.99,-95.47 865.93,-94.09"/>
<polygon fill="midnightblue" stroke="midnightblue" points="866.22,-90.57 855.73,-92.05 864.85,-97.44 866.22,-90.57"/>
</g>
<!-- Node23 -->
<g id="node23" class="node">
<title>Node23</title>
<g id="a_node23"><a xlink:href="get_8hpp.html" target="_top" xlink:title=" ">
<polygon fill="none" stroke="black" points="1004.5,-73 1004.5,-92 1057.5,-92 1057.5,-73 1004.5,-73"/>
<text text-anchor="middle" x="1031" y="-80" font-family="Helvetica,sans-Serif" font-size="10.00">get.hpp</text>
</a>
</g>
</g>
<!-- Node21&#45;&gt;Node23 -->
<g id="edge25" class="edge">
<title>Node21&#45;&gt;Node23</title>
<path fill="none" stroke="midnightblue" d="M1173.39,-139.89C1147.41,-129.96 1103.53,-113.06 1066,-98 1064.36,-97.34 1062.69,-96.66 1060.99,-95.98"/>
<polygon fill="midnightblue" stroke="midnightblue" points="1061.91,-92.57 1051.33,-92.01 1059.25,-99.04 1061.91,-92.57"/>
</g>
<!-- Node25 -->
<g id="node25" class="node">
<title>Node25</title>
<g id="a_node25"><a xlink:href="array_8hpp.html" target="_top" xlink:title=" ">
<polygon fill="none" stroke="black" points="1075.5,-73 1075.5,-92 1200.5,-92 1200.5,-73 1075.5,-73"/>
<text text-anchor="middle" x="1138" y="-80" font-family="Helvetica,sans-Serif" font-size="10.00">serialization/array.hpp</text>
</a>
</g>
</g>
<!-- Node21&#45;&gt;Node25 -->
<g id="edge28" class="edge">
<title>Node21&#45;&gt;Node25</title>
<path fill="none" stroke="midnightblue" d="M1188.18,-139.73C1179.05,-129.5 1163.76,-112.36 1152.45,-99.69"/>
<polygon fill="midnightblue" stroke="midnightblue" points="1154.97,-97.26 1145.7,-92.13 1149.74,-101.92 1154.97,-97.26"/>
</g>
<!-- Node34 -->
<g id="node34" class="node">
<title>Node34</title>
<g id="a_node34"><a xlink:title=" ">
<polygon fill="none" stroke="#bfbfbf" points="929.5,-73 929.5,-92 986.5,-92 986.5,-73 929.5,-73"/>
<text text-anchor="middle" x="958" y="-80" font-family="Helvetica,sans-Serif" font-size="10.00">ostream</text>
</a>
</g>
</g>
<!-- Node21&#45;&gt;Node34 -->
<g id="edge42" class="edge">
<title>Node21&#45;&gt;Node34</title>
<path fill="none" stroke="midnightblue" d="M1162.55,-139.97C1154.82,-138 1146.62,-135.92 1139,-134 1075.03,-117.87 1057.84,-118.08 995,-98 992.73,-97.27 990.39,-96.48 988.05,-95.65"/>
<polygon fill="midnightblue" stroke="midnightblue" points="989.17,-92.33 978.57,-92.1 986.72,-98.88 989.17,-92.33"/>
</g>
<!-- Node22&#45;&gt;Node8 -->
<g id="edge24" class="edge">
<title>Node22&#45;&gt;Node8</title>
<path fill="none" stroke="midnightblue" d="M758.64,-76.81C657.57,-68.22 451.84,-49.15 382,-31 379.49,-30.35 376.93,-29.55 374.39,-28.68"/>
<polygon fill="midnightblue" stroke="midnightblue" points="375.43,-25.33 364.84,-25.01 372.91,-31.86 375.43,-25.33"/>
</g>
<!-- Node23&#45;&gt;Node14 -->
<g id="edge26" class="edge">
<title>Node23&#45;&gt;Node14</title>
<path fill="none" stroke="midnightblue" d="M1048.8,-72.86C1054.21,-70.58 1060.24,-68.38 1066,-67 1267.15,-18.82 1328.61,-78.19 1530,-31 1532.68,-30.37 1535.41,-29.58 1538.12,-28.68"/>
<polygon fill="midnightblue" stroke="midnightblue" points="1539.51,-31.9 1547.67,-25.14 1537.07,-25.34 1539.51,-31.9"/>
</g>
<!-- Node24 -->
<g id="node24" class="node">
<title>Node24</title>
<g id="a_node24"><a xlink:title=" ">
<polygon fill="none" stroke="#bfbfbf" points="391.5,-6 391.5,-25 432.5,-25 432.5,-6 391.5,-6"/>
<text text-anchor="middle" x="412" y="-13" font-family="Helvetica,sans-Serif" font-size="10.00">tuple</text>
</a>
</g>
</g>
<!-- Node23&#45;&gt;Node24 -->
<g id="edge27" class="edge">
<title>Node23&#45;&gt;Node24</title>
<path fill="none" stroke="midnightblue" d="M1013.05,-72.97C1007.39,-70.64 1001.04,-68.38 995,-67 754.85,-12.3 680.17,-93.75 442,-31 440.07,-30.49 438.12,-29.86 436.18,-29.14"/>
<polygon fill="midnightblue" stroke="midnightblue" points="437.39,-25.85 426.83,-25.06 434.59,-32.27 437.39,-25.85"/>
</g>
<!-- Node25&#45;&gt;Node14 -->
<g id="edge37" class="edge">
<title>Node25&#45;&gt;Node14</title>
<path fill="none" stroke="midnightblue" d="M1180.27,-72.97C1191.53,-70.86 1203.7,-68.71 1215,-67 1354.33,-45.95 1393.41,-65.64 1530,-31 1532.66,-30.32 1535.39,-29.5 1538.1,-28.58"/>
<polygon fill="midnightblue" stroke="midnightblue" points="1539.5,-31.79 1547.63,-25 1537.04,-25.24 1539.5,-31.79"/>
</g>
<!-- Node26 -->
<g id="node26" class="node">
<title>Node26</title>
<g id="a_node26"><a xlink:title=" ">
<polygon fill="none" stroke="#bfbfbf" points="1125.5,-6 1125.5,-25 1258.5,-25 1258.5,-6 1125.5,-6"/>
<text text-anchor="middle" x="1192" y="-13" font-family="Helvetica,sans-Serif" font-size="10.00">boost/mpl/bool_fwd.hpp</text>
</a>
</g>
</g>
<!-- Node25&#45;&gt;Node26 -->
<g id="edge29" class="edge">
<title>Node25&#45;&gt;Node26</title>
<path fill="none" stroke="midnightblue" d="M1145.28,-72.73C1153.7,-62.6 1167.75,-45.69 1178.25,-33.06"/>
<polygon fill="midnightblue" stroke="midnightblue" points="1181.13,-35.06 1184.83,-25.13 1175.75,-30.58 1181.13,-35.06"/>
</g>
<!-- Node27 -->
<g id="node27" class="node">
<title>Node27</title>
<g id="a_node27"><a xlink:title=" ">
<polygon fill="none" stroke="#bfbfbf" points="1277,-6 1277,-25 1401,-25 1401,-6 1277,-6"/>
<text text-anchor="middle" x="1339" y="-13" font-family="Helvetica,sans-Serif" font-size="10.00">boost/mpl/greater.hpp</text>
</a>
</g>
</g>
<!-- Node25&#45;&gt;Node27 -->
<g id="edge30" class="edge">
<title>Node25&#45;&gt;Node27</title>
<path fill="none" stroke="midnightblue" d="M1164.69,-72.87C1200.23,-61.38 1263.21,-41.01 1302.95,-28.16"/>
<polygon fill="midnightblue" stroke="midnightblue" points="1304.08,-31.47 1312.52,-25.06 1301.93,-24.81 1304.08,-31.47"/>
</g>
<!-- Node28 -->
<g id="node28" class="node">
<title>Node28</title>
<g id="a_node28"><a xlink:title=" ">
<polygon fill="none" stroke="#bfbfbf" points="1419,-6 1419,-25 1521,-25 1521,-6 1419,-6"/>
<text text-anchor="middle" x="1470" y="-13" font-family="Helvetica,sans-Serif" font-size="10.00">boost/mpl/int.hpp</text>
</a>
</g>
</g>
<!-- Node25&#45;&gt;Node28 -->
<g id="edge31" class="edge">
<title>Node25&#45;&gt;Node28</title>
<path fill="none" stroke="midnightblue" d="M1183.19,-72.96C1193.63,-71 1204.7,-68.92 1215,-67 1301.64,-50.85 1323.8,-49.36 1410,-31 1415.31,-29.87 1420.86,-28.62 1426.36,-27.34"/>
<polygon fill="midnightblue" stroke="midnightblue" points="1427.2,-30.74 1436.12,-25.03 1425.58,-23.93 1427.2,-30.74"/>
</g>
<!-- Node29 -->
<g id="node29" class="node">
<title>Node29</title>
<g id="a_node29"><a xlink:title=" ">
<polygon fill="none" stroke="#bfbfbf" points="451,-0.5 451,-30.5 557,-30.5 557,-0.5 451,-0.5"/>
<text text-anchor="start" x="459" y="-18.5" font-family="Helvetica,sans-Serif" font-size="10.00">boost/mpl/integral</text>
<text text-anchor="middle" x="504" y="-7.5" font-family="Helvetica,sans-Serif" font-size="10.00">_c_tag.hpp</text>
</a>
</g>
</g>
<!-- Node25&#45;&gt;Node29 -->
<g id="edge32" class="edge">
<title>Node25&#45;&gt;Node29</title>
<path fill="none" stroke="midnightblue" d="M1100.41,-72.99C1089.37,-70.75 1077.24,-68.53 1066,-67 848.47,-37.39 788.03,-63.68 567.28,-31.03"/>
<polygon fill="midnightblue" stroke="midnightblue" points="567.74,-27.56 557.33,-29.54 566.7,-34.48 567.74,-27.56"/>
</g>
<!-- Node30 -->
<g id="node30" class="node">
<title>Node30</title>
<g id="a_node30"><a xlink:title=" ">
<polygon fill="none" stroke="#bfbfbf" points="575.5,-0.5 575.5,-30.5 726.5,-30.5 726.5,-0.5 575.5,-0.5"/>
<text text-anchor="start" x="583.5" y="-18.5" font-family="Helvetica,sans-Serif" font-size="10.00">boost/serialization</text>
<text text-anchor="middle" x="651" y="-7.5" font-family="Helvetica,sans-Serif" font-size="10.00">/is_bitwise_serializable.hpp</text>
</a>
</g>
</g>
<!-- Node25&#45;&gt;Node30 -->
<g id="edge33" class="edge">
<title>Node25&#45;&gt;Node30</title>
<path fill="none" stroke="midnightblue" d="M1098.88,-72.95C1088.25,-70.81 1076.71,-68.66 1066,-67 923.05,-44.88 883.31,-51.29 736.79,-31.19"/>
<polygon fill="midnightblue" stroke="midnightblue" points="736.91,-27.68 726.52,-29.77 735.94,-34.61 736.91,-27.68"/>
</g>
<!-- Node31 -->
<g id="node31" class="node">
<title>Node31</title>
<g id="a_node31"><a xlink:title=" ">
<polygon fill="none" stroke="#bfbfbf" points="744.5,-0.5 744.5,-30.5 851.5,-30.5 851.5,-0.5 744.5,-0.5"/>
<text text-anchor="start" x="752.5" y="-18.5" font-family="Helvetica,sans-Serif" font-size="10.00">boost/serialization</text>
<text text-anchor="middle" x="798" y="-7.5" font-family="Helvetica,sans-Serif" font-size="10.00">/level.hpp</text>
</a>
</g>
</g>
<!-- Node25&#45;&gt;Node31 -->
<g id="edge34" class="edge">
<title>Node25&#45;&gt;Node31</title>
<path fill="none" stroke="midnightblue" d="M1096.54,-72.96C1086.55,-70.96 1075.9,-68.86 1066,-67 977.78,-50.41 952.76,-49.63 861.65,-31.28"/>
<polygon fill="midnightblue" stroke="midnightblue" points="862.22,-27.82 851.73,-29.26 860.83,-34.68 862.22,-27.82"/>
</g>
<!-- Node32 -->
<g id="node32" class="node">
<title>Node32</title>
<g id="a_node32"><a xlink:title=" ">
<polygon fill="none" stroke="#bfbfbf" points="869.5,-0.5 869.5,-30.5 976.5,-30.5 976.5,-0.5 869.5,-0.5"/>
<text text-anchor="start" x="877.5" y="-18.5" font-family="Helvetica,sans-Serif" font-size="10.00">boost/serialization</text>
<text text-anchor="middle" x="923" y="-7.5" font-family="Helvetica,sans-Serif" font-size="10.00">/tracking.hpp</text>
</a>
</g>
</g>
<!-- Node25&#45;&gt;Node32 -->
<g id="edge35" class="edge">
<title>Node25&#45;&gt;Node32</title>
<path fill="none" stroke="midnightblue" d="M1109.45,-72.87C1076.35,-62.86 1021,-46.13 979.18,-33.48"/>
<polygon fill="midnightblue" stroke="midnightblue" points="979.99,-30.07 969.4,-30.53 977.96,-36.77 979.99,-30.07"/>
</g>
<!-- Node33 -->
<g id="node33" class="node">
<title>Node33</title>
<g id="a_node33"><a xlink:title=" ">
<polygon fill="none" stroke="#bfbfbf" points="994.5,-0.5 994.5,-30.5 1107.5,-30.5 1107.5,-0.5 994.5,-0.5"/>
<text text-anchor="start" x="1002.5" y="-18.5" font-family="Helvetica,sans-Serif" font-size="10.00">boost/serialization</text>
<text text-anchor="middle" x="1051" y="-7.5" font-family="Helvetica,sans-Serif" font-size="10.00">/tracking_enum.hpp</text>
</a>
</g>
</g>
<!-- Node25&#45;&gt;Node33 -->
<g id="edge36" class="edge">
<title>Node25&#45;&gt;Node33</title>
<path fill="none" stroke="midnightblue" d="M1126.27,-72.73C1113.94,-63.53 1094.14,-48.73 1077.94,-36.63"/>
<polygon fill="midnightblue" stroke="midnightblue" points="1079.96,-33.77 1069.86,-30.59 1075.77,-39.38 1079.96,-33.77"/>
</g>
<!-- Node39&#45;&gt;Node22 -->
<g id="edge55" class="edge">
<title>Node39&#45;&gt;Node22</title>
<path fill="none" stroke="midnightblue" d="M1341.48,-257.43C1300.03,-241.87 1211.97,-206.68 1144,-165 1125.12,-153.42 1125.27,-142.92 1105,-134 1011.5,-92.87 978.24,-117.64 878,-98 872.3,-96.88 866.33,-95.61 860.44,-94.3"/>
<polygon fill="midnightblue" stroke="midnightblue" points="861.19,-90.88 850.66,-92.07 859.64,-97.71 861.19,-90.88"/>
</g>
<!-- Node39&#45;&gt;Node38 -->
<g id="edge56" class="edge">
<title>Node39&#45;&gt;Node38</title>
<path fill="none" stroke="midnightblue" d="M1365.23,-257.32C1365.71,-238.76 1366.85,-194.84 1367.51,-169.47"/>
<polygon fill="midnightblue" stroke="midnightblue" points="1371.01,-169.37 1367.77,-159.28 1364.01,-169.19 1371.01,-169.37"/>
</g>
</g>
</svg>
        <g id="navigator" transform="translate(0 0)" fill="#404254">
                <rect fill="#f2f5e9" fill-opacity="0.5" stroke="#606060" stroke-width=".5" x="0" y="0" width="60" height="60"/>
                <use id="zoomplus" xlink:href="#zoomPlus" x="17" y="9" onmousedown="handleZoom(evt,'in')"/>
                <use id="zoomminus" xlink:href="#zoomMin" x="42" y="9" onmousedown="handleZoom(evt,'out')"/>
                <use id="reset" xlink:href="#resetDef" x="30" y="36" onmousedown="handleReset()"/>
                <g id="arrowUp" xlink:href="#dirArrow" transform="translate(30 24)" onmousedown="handlePan(0,-1)">
                  <use xlink:href="#rim" fill="#404040">
                        <set attributeName="fill" to="#808080" begin="arrowUp.mouseover" end="arrowUp.mouseout"/>
                  </use>
                  <path fill="none" stroke="white" stroke-width="1.5" d="M0,-3.0v7 M-2.5,-0.5L0,-3.0L2.5,-0.5"/>
                </g>
                <g id="arrowRight" xlink:href="#dirArrow" transform="rotate(90) translate(36 -43)" onmousedown="handlePan(1,0)">
                  <use xlink:href="#rim" fill="#404040">
                        <set attributeName="fill" to="#808080" begin="arrowRight.mouseover" end="arrowRight.mouseout"/>
                  </use>
                  <path fill="none" stroke="white" stroke-width="1.5" d="M0,-3.0v7 M-2.5,-0.5L0,-3.0L2.5,-0.5"/>
                </g>
                <g id="arrowDown" xlink:href="#dirArrow" transform="rotate(180) translate(-30 -48)" onmousedown="handlePan(0,1)">
                  <use xlink:href="#rim" fill="#404040">
                        <set attributeName="fill" to="#808080" begin="arrowDown.mouseover" end="arrowDown.mouseout"/>
                  </use>
                  <path fill="none" stroke="white" stroke-width="1.5" d="M0,-3.0v7 M-2.5,-0.5L0,-3.0L2.5,-0.5"/>
                </g>
                <g id="arrowLeft" xlink:href="#dirArrow" transform="rotate(270) translate(-36 17)" onmousedown="handlePan(-1,0)">
                  <use xlink:href="#rim" fill="#404040">
                        <set attributeName="fill" to="#808080" begin="arrowLeft.mouseover" end="arrowLeft.mouseout"/>
                  </use>
                  <path fill="none" stroke="white" stroke-width="1.5" d="M0,-3.0v7 M-2.5,-0.5L0,-3.0L2.5,-0.5"/>
                </g>
        </g>
        <svg viewBox="0 0 15 15" width="100%" height="30px" preserveAspectRatio="xMaxYMin meet">
         <g id="arrow_out" transform="scale(0.3 0.3)">
          <a xlink:href="bmhtf-nacl_8cpp__incl_org.svg" target="_base">
           <rect id="button" ry="5" rx="5" y="6" x="6" height="38" width="38"
                fill="#f2f5e9" fill-opacity="0.5" stroke="#606060" stroke-width="1.0"/>
           <path id="arrow"
             d="M 11.500037,31.436501 C 11.940474,20.09759 22.043105,11.32322 32.158766,21.979434 L 37.068811,17.246167 C 37.068811,17.246167 37.088388,32 37.088388,32 L 22.160133,31.978069 C 22.160133,31.978069 26.997745,27.140456 26.997745,27.140456 C 18.528582,18.264221 13.291696,25.230495 11.500037,31.436501 z"
             style="fill:#404040;"/>
          </a>
         </g>
        </svg>
</svg>
