<?xml version="1.0" encoding="UTF-8" standalone="no"?>
<!DOCTYPE svg PUBLIC "-//W3C//DTD SVG 1.1//EN"
 "http://www.w3.org/Graphics/SVG/1.1/DTD/svg11.dtd">
<!-- Generated by graphviz version 2.43.0 (0)
 -->
<!-- Title: BondedInteractions.hpp Pages: 1 -->
<svg width="1418pt" height="247pt"
 viewBox="0.00 0.00 1417.50 247.00" xmlns="http://www.w3.org/2000/svg" xmlns:xlink="http://www.w3.org/1999/xlink">
<g id="graph0" class="graph" transform="scale(1 1) rotate(0) translate(4 243)">
<title>BondedInteractions.hpp</title>
<!-- Node1 -->
<g id="Node000001" class="node">
<title>Node1</title>
<g id="a_Node000001"><a xlink:title=" ">
<polygon fill="#999999" stroke="#666666" points="1114,-239 982,-239 982,-220 1114,-220 1114,-239"/>
<text text-anchor="middle" x="1048" y="-227" font-family="Helvetica,sans-Serif" font-size="10.00">BondedInteractions.hpp</text>
</a>
</g>
</g>
<!-- Node2 -->
<g id="Node000002" class="node">
<title>Node2</title>
<g id="a_Node000002"><a xlink:href="CollisionDetection_8hpp.html" target="_top" xlink:title=" ">
<polygon fill="white" stroke="#666666" points="1312.5,-184 1185.5,-184 1185.5,-165 1312.5,-165 1312.5,-184"/>
<text text-anchor="middle" x="1249" y="-172" font-family="Helvetica,sans-Serif" font-size="10.00">CollisionDetection.hpp</text>
</a>
</g>
</g>
<!-- Node1&#45;&gt;Node2 -->
<g id="edge1_Node000001_Node000002" class="edge">
<title>Node1&#45;&gt;Node2</title>
<g id="a_edge1_Node000001_Node000002"><a xlink:title=" ">
<path fill="none" stroke="#63b8ff" d="M1090.43,-217.31C1128.04,-207.39 1182.17,-193.12 1216.45,-184.08"/>
<polygon fill="#63b8ff" stroke="#63b8ff" points="1089.07,-214.05 1080.29,-219.98 1090.86,-220.82 1089.07,-214.05"/>
</a>
</g>
</g>
<!-- Node3 -->
<g id="Node000003" class="node">
<title>Node3</title>
<g id="a_Node000003"><a xlink:href="script__interface_2system_2System_8cpp.html" target="_top" xlink:title=" ">
<polygon fill="white" stroke="#666666" points="1094,-129 1020,-129 1020,-110 1094,-110 1094,-129"/>
<text text-anchor="middle" x="1057" y="-117" font-family="Helvetica,sans-Serif" font-size="10.00">System.cpp</text>
</a>
</g>
</g>
<!-- Node1&#45;&gt;Node3 -->
<g id="edge35_Node000001_Node000003" class="edge">
<title>Node1&#45;&gt;Node3</title>
<g id="a_edge35_Node000001_Node000003"><a xlink:title=" ">
<path fill="none" stroke="#63b8ff" d="M1049.58,-209.48C1051.55,-185.84 1054.83,-146.5 1056.28,-129.16"/>
<polygon fill="#63b8ff" stroke="#63b8ff" points="1046.08,-209.41 1048.74,-219.66 1053.05,-209.99 1046.08,-209.41"/>
</a>
</g>
</g>
<!-- Node5 -->
<g id="Node000005" class="node">
<title>Node5</title>
<g id="a_Node000005"><a xlink:href="ParticleHandle_8cpp.html" target="_top" xlink:title=" ">
<polygon fill="white" stroke="#666666" points="1001.5,-129 894.5,-129 894.5,-110 1001.5,-110 1001.5,-129"/>
<text text-anchor="middle" x="948" y="-117" font-family="Helvetica,sans-Serif" font-size="10.00">ParticleHandle.cpp</text>
</a>
</g>
</g>
<!-- Node1&#45;&gt;Node5 -->
<g id="edge4_Node000001_Node000005" class="edge">
<title>Node1&#45;&gt;Node5</title>
<g id="a_edge4_Node000001_Node000005"><a xlink:title=" ">
<path fill="none" stroke="#63b8ff" d="M1033,-212.3C1011.52,-189.1 972.73,-147.21 956.02,-129.16"/>
<polygon fill="#63b8ff" stroke="#63b8ff" points="1030.45,-214.7 1039.82,-219.66 1035.59,-209.95 1030.45,-214.7"/>
</a>
</g>
</g>
<!-- Node6 -->
<g id="Node000006" class="node">
<title>Node6</title>
<g id="a_Node000006"><a xlink:href="ParticleHandle_8hpp.html" target="_top" xlink:title=" ">
<polygon fill="white" stroke="#666666" points="887,-184 779,-184 779,-165 887,-165 887,-184"/>
<text text-anchor="middle" x="833" y="-172" font-family="Helvetica,sans-Serif" font-size="10.00">ParticleHandle.hpp</text>
</a>
</g>
</g>
<!-- Node1&#45;&gt;Node6 -->
<g id="edge5_Node000001_Node000006" class="edge">
<title>Node1&#45;&gt;Node6</title>
<g id="a_edge5_Node000001_Node000006"><a xlink:title=" ">
<path fill="none" stroke="#63b8ff" d="M1003.64,-217.56C963.37,-207.64 904.8,-193.2 867.81,-184.08"/>
<polygon fill="#63b8ff" stroke="#63b8ff" points="1002.91,-220.99 1013.46,-219.98 1004.58,-214.19 1002.91,-220.99"/>
</a>
</g>
</g>
<!-- Node10 -->
<g id="Node000010" class="node">
<title>Node10</title>
<g id="a_Node000010"><a xlink:href="ParticleSlice_8hpp.html" target="_top" xlink:title=" ">
<polygon fill="white" stroke="#666666" points="799.5,-129 702.5,-129 702.5,-110 799.5,-110 799.5,-129"/>
<text text-anchor="middle" x="751" y="-117" font-family="Helvetica,sans-Serif" font-size="10.00">ParticleSlice.hpp</text>
</a>
</g>
</g>
<!-- Node1&#45;&gt;Node10 -->
<g id="edge34_Node000001_Node000010" class="edge">
<title>Node1&#45;&gt;Node10</title>
<g id="a_edge34_Node000001_Node000010"><a xlink:title=" ">
<path fill="none" stroke="#63b8ff" d="M971.33,-225.22C899.61,-220.59 799.26,-209.63 770,-184 754.07,-170.05 751.23,-143.35 750.88,-129.43"/>
<polygon fill="#63b8ff" stroke="#63b8ff" points="971.5,-228.73 981.69,-225.86 971.93,-221.75 971.5,-228.73"/>
</a>
</g>
</g>
<!-- Node18 -->
<g id="Node000018" class="node">
<title>Node18</title>
<g id="a_Node000018"><a xlink:href="script__interface_2particle__data_2ParticleList_8hpp.html" target="_top" xlink:title=" ">
<polygon fill="white" stroke="#666666" points="1167.5,-184 1076.5,-184 1076.5,-165 1167.5,-165 1167.5,-184"/>
<text text-anchor="middle" x="1122" y="-172" font-family="Helvetica,sans-Serif" font-size="10.00">ParticleList.hpp</text>
</a>
</g>
</g>
<!-- Node1&#45;&gt;Node18 -->
<g id="edge25_Node000001_Node000018" class="edge">
<title>Node1&#45;&gt;Node18</title>
<g id="a_edge25_Node000001_Node000018"><a xlink:title=" ">
<path fill="none" stroke="#63b8ff" d="M1068.03,-214.15C1081.41,-204.57 1098.56,-192.29 1109.89,-184.17"/>
<polygon fill="#63b8ff" stroke="#63b8ff" points="1065.98,-211.32 1059.89,-219.98 1070.06,-217.01 1065.98,-211.32"/>
</a>
</g>
</g>
<!-- Node22 -->
<g id="Node000022" class="node">
<title>Node22</title>
<g id="a_Node000022"><a xlink:href="interactions_2initialize_8cpp.html" target="_top" xlink:title=" ">
<polygon fill="white" stroke="#666666" points="1409.5,-184 1330.5,-184 1330.5,-165 1409.5,-165 1409.5,-184"/>
<text text-anchor="middle" x="1370" y="-172" font-family="Helvetica,sans-Serif" font-size="10.00">initialize.cpp</text>
</a>
</g>
</g>
<!-- Node1&#45;&gt;Node22 -->
<g id="edge36_Node000001_Node000022" class="edge">
<title>Node1&#45;&gt;Node22</title>
<g id="a_edge36_Node000001_Node000022"><a xlink:title=" ">
<path fill="none" stroke="#63b8ff" d="M1111.9,-218.39C1167.46,-209.53 1250.1,-196.2 1322,-184 1324.75,-183.53 1327.59,-183.04 1330.46,-182.55"/>
<polygon fill="#63b8ff" stroke="#63b8ff" points="1111.17,-214.96 1101.85,-219.99 1112.27,-221.87 1111.17,-214.96"/>
</a>
</g>
</g>
<!-- Node2&#45;&gt;Node3 -->
<g id="edge2_Node000002_Node000003" class="edge">
<title>Node2&#45;&gt;Node3</title>
<g id="a_edge2_Node000002_Node000003"><a xlink:title=" ">
<path fill="none" stroke="#63b8ff" d="M1208.47,-162.31C1172.54,-152.39 1120.84,-138.12 1088.09,-129.08"/>
<polygon fill="#63b8ff" stroke="#63b8ff" points="1207.58,-165.7 1218.15,-164.98 1209.44,-158.95 1207.58,-165.7"/>
</a>
</g>
</g>
<!-- Node4 -->
<g id="Node000004" class="node">
<title>Node4</title>
<g id="a_Node000004"><a xlink:href="collision__detection_2initialize_8cpp.html" target="_top" xlink:title=" ">
<polygon fill="white" stroke="#666666" points="1394.5,-129 1315.5,-129 1315.5,-110 1394.5,-110 1394.5,-129"/>
<text text-anchor="middle" x="1355" y="-117" font-family="Helvetica,sans-Serif" font-size="10.00">initialize.cpp</text>
</a>
</g>
</g>
<!-- Node2&#45;&gt;Node4 -->
<g id="edge3_Node000002_Node000004" class="edge">
<title>Node2&#45;&gt;Node4</title>
<g id="a_edge3_Node000002_Node000004"><a xlink:title=" ">
<path fill="none" stroke="#63b8ff" d="M1275,-160.5C1294.5,-150.75 1320.65,-137.68 1337.66,-129.17"/>
<polygon fill="#63b8ff" stroke="#63b8ff" points="1273.41,-157.38 1266.03,-164.98 1276.54,-163.64 1273.41,-157.38"/>
</a>
</g>
</g>
<!-- Node6&#45;&gt;Node3 -->
<g id="edge23_Node000006_Node000003" class="edge">
<title>Node6&#45;&gt;Node3</title>
<g id="a_edge23_Node000006_Node000003"><a xlink:title=" ">
<path fill="none" stroke="#63b8ff" d="M878.95,-162.63C920.91,-152.7 982.12,-138.22 1020.73,-129.08"/>
<polygon fill="#63b8ff" stroke="#63b8ff" points="877.91,-159.28 868.99,-164.98 879.53,-166.09 877.91,-159.28"/>
</a>
</g>
</g>
<!-- Node6&#45;&gt;Node5 -->
<g id="edge7_Node000006_Node000005" class="edge">
<title>Node6&#45;&gt;Node5</title>
<g id="a_edge7_Node000006_Node000005"><a xlink:title=" ">
<path fill="none" stroke="#63b8ff" d="M860.63,-160.77C881.84,-150.99 910.56,-137.75 929.19,-129.17"/>
<polygon fill="#63b8ff" stroke="#63b8ff" points="859.09,-157.62 851.48,-164.98 862.02,-163.98 859.09,-157.62"/>
</a>
</g>
</g>
<!-- Node7 -->
<g id="Node000007" class="node">
<title>Node7</title>
<g id="a_Node000007"><a xlink:href="CellSystem_8cpp.html" target="_top" xlink:title=" ">
<polygon fill="white" stroke="#666666" points="794,-74 702,-74 702,-55 794,-55 794,-74"/>
<text text-anchor="middle" x="748" y="-62" font-family="Helvetica,sans-Serif" font-size="10.00">CellSystem.cpp</text>
</a>
</g>
</g>
<!-- Node6&#45;&gt;Node7 -->
<g id="edge6_Node000006_Node000007" class="edge">
<title>Node6&#45;&gt;Node7</title>
<g id="a_edge6_Node000006_Node000007"><a xlink:title=" ">
<path fill="none" stroke="#63b8ff" d="M768.82,-169.34C741.15,-163.97 711.23,-152.61 694,-129 678.98,-108.43 710.14,-86.13 731.08,-74.2"/>
<polygon fill="#63b8ff" stroke="#63b8ff" points="768.45,-172.83 778.89,-171.06 769.62,-165.93 768.45,-172.83"/>
</a>
</g>
</g>
<!-- Node8 -->
<g id="Node000008" class="node">
<title>Node8</title>
<g id="a_Node000008"><a xlink:href="ParticleList_8cpp.html" target="_top" xlink:title=" ">
<polygon fill="white" stroke="#666666" points="902,-74 812,-74 812,-55 902,-55 902,-74"/>
<text text-anchor="middle" x="857" y="-62" font-family="Helvetica,sans-Serif" font-size="10.00">ParticleList.cpp</text>
</a>
</g>
</g>
<!-- Node6&#45;&gt;Node8 -->
<g id="edge8_Node000006_Node000008" class="edge">
<title>Node6&#45;&gt;Node8</title>
<g id="a_edge8_Node000006_Node000008"><a xlink:title=" ">
<path fill="none" stroke="#63b8ff" d="M837.15,-154.8C842.4,-131.2 851.21,-91.58 855.08,-74.16"/>
<polygon fill="#63b8ff" stroke="#63b8ff" points="833.72,-154.14 834.96,-164.66 840.55,-155.66 833.72,-154.14"/>
</a>
</g>
</g>
<!-- Node9 -->
<g id="Node000009" class="node">
<title>Node9</title>
<g id="a_Node000009"><a xlink:href="ParticleSlice_8cpp.html" target="_top" xlink:title=" ">
<polygon fill="white" stroke="#666666" points="684,-74 588,-74 588,-55 684,-55 684,-74"/>
<text text-anchor="middle" x="636" y="-62" font-family="Helvetica,sans-Serif" font-size="10.00">ParticleSlice.cpp</text>
</a>
</g>
</g>
<!-- Node6&#45;&gt;Node9 -->
<g id="edge9_Node000006_Node000009" class="edge">
<title>Node6&#45;&gt;Node9</title>
<g id="a_edge9_Node000006_Node000009"><a xlink:title=" ">
<path fill="none" stroke="#63b8ff" d="M769.04,-163.04C741.76,-156.41 710.62,-145.8 686,-129 664.67,-114.45 648.17,-88.01 640.58,-74.29"/>
<polygon fill="#63b8ff" stroke="#63b8ff" points="768.37,-166.48 778.89,-165.3 769.93,-159.65 768.37,-166.48"/>
</a>
</g>
</g>
<!-- Node6&#45;&gt;Node10 -->
<g id="edge10_Node000006_Node000010" class="edge">
<title>Node6&#45;&gt;Node10</title>
<g id="a_edge10_Node000006_Node000010"><a xlink:title=" ">
<path fill="none" stroke="#63b8ff" d="M811.22,-159.42C796.34,-149.81 777.09,-137.37 764.41,-129.17"/>
<polygon fill="#63b8ff" stroke="#63b8ff" points="809.53,-162.5 819.83,-164.98 813.33,-156.62 809.53,-162.5"/>
</a>
</g>
</g>
<!-- Node11 -->
<g id="Node000011" class="node">
<title>Node11</title>
<g id="a_Node000011"><a xlink:href="particle__data_2initialize_8cpp.html" target="_top" xlink:title=" ">
<polygon fill="white" stroke="#666666" points="999.5,-74 920.5,-74 920.5,-55 999.5,-55 999.5,-74"/>
<text text-anchor="middle" x="960" y="-62" font-family="Helvetica,sans-Serif" font-size="10.00">initialize.cpp</text>
</a>
</g>
</g>
<!-- Node6&#45;&gt;Node11 -->
<g id="edge24_Node000006_Node000011" class="edge">
<title>Node6&#45;&gt;Node11</title>
<g id="a_edge24_Node000006_Node000011"><a xlink:title=" ">
<path fill="none" stroke="#63b8ff" d="M844.75,-156.48C854.69,-142.86 869.87,-123.81 886,-110 903.42,-95.08 926.45,-82.1 942.16,-74.07"/>
<polygon fill="#63b8ff" stroke="#63b8ff" points="841.69,-154.73 838.75,-164.91 847.4,-158.79 841.69,-154.73"/>
</a>
</g>
</g>
<!-- Node12 -->
<g id="Node000012" class="node">
<title>Node12</title>
<g id="a_Node000012"><a xlink:href="script__interface_2reaction__methods_2ReactionAlgorithm_8hpp.html" target="_top" xlink:title=" ">
<polygon fill="white" stroke="#666666" points="436,-129 308,-129 308,-110 436,-110 436,-129"/>
<text text-anchor="middle" x="372" y="-117" font-family="Helvetica,sans-Serif" font-size="10.00">ReactionAlgorithm.hpp</text>
</a>
</g>
</g>
<!-- Node6&#45;&gt;Node12 -->
<g id="edge15_Node000006_Node000012" class="edge">
<title>Node6&#45;&gt;Node12</title>
<g id="a_edge15_Node000006_Node000012"><a xlink:title=" ">
<path fill="none" stroke="#63b8ff" d="M768.66,-166.1C680.81,-156 524.23,-138 436.37,-127.9"/>
<polygon fill="#63b8ff" stroke="#63b8ff" points="768.43,-169.6 778.76,-167.26 769.23,-162.65 768.43,-169.6"/>
</a>
</g>
</g>
<!-- Node10&#45;&gt;Node7 -->
<g id="edge11_Node000010_Node000007" class="edge">
<title>Node10&#45;&gt;Node7</title>
<g id="a_edge11_Node000010_Node000007"><a xlink:title=" ">
<path fill="none" stroke="#63b8ff" d="M749.93,-99.66C749.44,-90.93 748.88,-80.99 748.49,-74.09"/>
<polygon fill="#63b8ff" stroke="#63b8ff" points="746.44,-99.96 750.5,-109.75 753.43,-99.57 746.44,-99.96"/>
</a>
</g>
</g>
<!-- Node10&#45;&gt;Node8 -->
<g id="edge12_Node000010_Node000008" class="edge">
<title>Node10&#45;&gt;Node8</title>
<g id="a_edge12_Node000010_Node000008"><a xlink:title=" ">
<path fill="none" stroke="#63b8ff" d="M777,-105.5C796.5,-95.75 822.65,-82.68 839.66,-74.17"/>
<polygon fill="#63b8ff" stroke="#63b8ff" points="775.41,-102.38 768.03,-109.98 778.54,-108.64 775.41,-102.38"/>
</a>
</g>
</g>
<!-- Node10&#45;&gt;Node9 -->
<g id="edge13_Node000010_Node000009" class="edge">
<title>Node10&#45;&gt;Node9</title>
<g id="a_edge13_Node000010_Node000009"><a xlink:title=" ">
<path fill="none" stroke="#63b8ff" d="M723.37,-105.77C702.16,-95.99 673.44,-82.75 654.81,-74.17"/>
<polygon fill="#63b8ff" stroke="#63b8ff" points="721.98,-108.98 732.52,-109.98 724.91,-102.62 721.98,-108.98"/>
</a>
</g>
</g>
<!-- Node10&#45;&gt;Node11 -->
<g id="edge14_Node000010_Node000011" class="edge">
<title>Node10&#45;&gt;Node11</title>
<g id="a_edge14_Node000010_Node000011"><a xlink:title=" ">
<path fill="none" stroke="#63b8ff" d="M794.37,-107.5C833.51,-97.58 890.28,-83.18 926.16,-74.08"/>
<polygon fill="#63b8ff" stroke="#63b8ff" points="793.41,-104.13 784.58,-109.98 795.13,-110.92 793.41,-104.13"/>
</a>
</g>
</g>
<!-- Node13 -->
<g id="Node000013" class="node">
<title>Node13</title>
<g id="a_Node000013"><a xlink:href="script__interface_2reaction__methods_2ConstantpHEnsemble_8hpp.html" target="_top" xlink:title=" ">
<polygon fill="white" stroke="#666666" points="289.5,-74 146.5,-74 146.5,-55 289.5,-55 289.5,-74"/>
<text text-anchor="middle" x="218" y="-62" font-family="Helvetica,sans-Serif" font-size="10.00">ConstantpHEnsemble.hpp</text>
</a>
</g>
</g>
<!-- Node12&#45;&gt;Node13 -->
<g id="edge16_Node000012_Node000013" class="edge">
<title>Node12&#45;&gt;Node13</title>
<g id="a_edge16_Node000012_Node000013"><a xlink:title=" ">
<path fill="none" stroke="#63b8ff" d="M337.62,-106.67C308.91,-96.79 268.64,-82.93 242.94,-74.08"/>
<polygon fill="#63b8ff" stroke="#63b8ff" points="336.66,-110.04 347.26,-109.98 338.94,-103.42 336.66,-110.04"/>
</a>
</g>
</g>
<!-- Node15 -->
<g id="Node000015" class="node">
<title>Node15</title>
<g id="a_Node000015"><a xlink:href="script__interface_2reaction__methods_2ReactionAlgorithm_8cpp.html" target="_top" xlink:title=" ">
<polygon fill="white" stroke="#666666" points="128,-74 0,-74 0,-55 128,-55 128,-74"/>
<text text-anchor="middle" x="64" y="-62" font-family="Helvetica,sans-Serif" font-size="10.00">ReactionAlgorithm.cpp</text>
</a>
</g>
</g>
<!-- Node12&#45;&gt;Node15 -->
<g id="edge18_Node000012_Node000015" class="edge">
<title>Node12&#45;&gt;Node15</title>
<g id="a_edge18_Node000012_Node000015"><a xlink:title=" ">
<path fill="none" stroke="#63b8ff" d="M312.42,-108.25C254.59,-98.3 167.81,-83.36 113.62,-74.04"/>
<polygon fill="#63b8ff" stroke="#63b8ff" points="312.07,-111.74 322.51,-109.98 313.25,-104.84 312.07,-111.74"/>
</a>
</g>
</g>
<!-- Node16 -->
<g id="Node000016" class="node">
<title>Node16</title>
<g id="a_Node000016"><a xlink:href="script__interface_2reaction__methods_2ReactionEnsemble_8hpp.html" target="_top" xlink:title=" ">
<polygon fill="white" stroke="#666666" points="436,-74 308,-74 308,-55 436,-55 436,-74"/>
<text text-anchor="middle" x="372" y="-62" font-family="Helvetica,sans-Serif" font-size="10.00">ReactionEnsemble.hpp</text>
</a>
</g>
</g>
<!-- Node12&#45;&gt;Node16 -->
<g id="edge19_Node000012_Node000016" class="edge">
<title>Node12&#45;&gt;Node16</title>
<g id="a_edge19_Node000012_Node000016"><a xlink:title=" ">
<path fill="none" stroke="#63b8ff" d="M372,-99.66C372,-90.93 372,-80.99 372,-74.09"/>
<polygon fill="#63b8ff" stroke="#63b8ff" points="368.5,-99.75 372,-109.75 375.5,-99.75 368.5,-99.75"/>
</a>
</g>
</g>
<!-- Node17 -->
<g id="Node000017" class="node">
<title>Node17</title>
<g id="a_Node000017"><a xlink:href="script__interface_2reaction__methods_2WidomInsertion_8hpp.html" target="_top" xlink:title=" ">
<polygon fill="white" stroke="#666666" points="569.5,-74 454.5,-74 454.5,-55 569.5,-55 569.5,-74"/>
<text text-anchor="middle" x="512" y="-62" font-family="Helvetica,sans-Serif" font-size="10.00">WidomInsertion.hpp</text>
</a>
</g>
</g>
<!-- Node12&#45;&gt;Node17 -->
<g id="edge21_Node000012_Node000017" class="edge">
<title>Node12&#45;&gt;Node17</title>
<g id="a_edge21_Node000012_Node000017"><a xlink:title=" ">
<path fill="none" stroke="#63b8ff" d="M403.91,-106.42C429.88,-96.59 465.92,-82.95 489.1,-74.17"/>
<polygon fill="#63b8ff" stroke="#63b8ff" points="402.61,-103.17 394.49,-109.98 405.08,-109.72 402.61,-103.17"/>
</a>
</g>
</g>
<!-- Node14 -->
<g id="Node000014" class="node">
<title>Node14</title>
<g id="a_Node000014"><a xlink:href="reaction__methods_2initialize_8cpp.html" target="_top" xlink:title=" ">
<polygon fill="white" stroke="#666666" points="411.5,-19 332.5,-19 332.5,0 411.5,0 411.5,-19"/>
<text text-anchor="middle" x="372" y="-7" font-family="Helvetica,sans-Serif" font-size="10.00">initialize.cpp</text>
</a>
</g>
</g>
<!-- Node13&#45;&gt;Node14 -->
<g id="edge17_Node000013_Node000014" class="edge">
<title>Node13&#45;&gt;Node14</title>
<g id="a_edge17_Node000013_Node000014"><a xlink:title=" ">
<path fill="none" stroke="#63b8ff" d="M252.38,-51.67C281.09,-41.79 321.36,-27.93 347.06,-19.08"/>
<polygon fill="#63b8ff" stroke="#63b8ff" points="251.06,-48.42 242.74,-54.98 253.34,-55.04 251.06,-48.42"/>
</a>
</g>
</g>
<!-- Node16&#45;&gt;Node14 -->
<g id="edge20_Node000016_Node000014" class="edge">
<title>Node16&#45;&gt;Node14</title>
<g id="a_edge20_Node000016_Node000014"><a xlink:title=" ">
<path fill="none" stroke="#63b8ff" d="M372,-44.66C372,-35.93 372,-25.99 372,-19.09"/>
<polygon fill="#63b8ff" stroke="#63b8ff" points="368.5,-44.75 372,-54.75 375.5,-44.75 368.5,-44.75"/>
</a>
</g>
</g>
<!-- Node17&#45;&gt;Node14 -->
<g id="edge22_Node000017_Node000014" class="edge">
<title>Node17&#45;&gt;Node14</title>
<g id="a_edge22_Node000017_Node000014"><a xlink:title=" ">
<path fill="none" stroke="#63b8ff" d="M480.09,-51.42C454.12,-41.59 418.08,-27.95 394.9,-19.17"/>
<polygon fill="#63b8ff" stroke="#63b8ff" points="478.92,-54.72 489.51,-54.98 481.39,-48.17 478.92,-54.72"/>
</a>
</g>
</g>
<!-- Node18&#45;&gt;Node3 -->
<g id="edge32_Node000018_Node000003" class="edge">
<title>Node18&#45;&gt;Node3</title>
<g id="a_edge32_Node000018_Node000003"><a xlink:title=" ">
<path fill="none" stroke="#63b8ff" d="M1103.73,-158.6C1092.08,-149.11 1077.4,-137.13 1067.63,-129.17"/>
<polygon fill="#63b8ff" stroke="#63b8ff" points="1101.59,-161.38 1111.56,-164.98 1106.02,-155.95 1101.59,-161.38"/>
</a>
</g>
</g>
<!-- Node18&#45;&gt;Node8 -->
<g id="edge31_Node000018_Node000008" class="edge">
<title>Node18&#45;&gt;Node8</title>
<g id="a_edge31_Node000018_Node000008"><a xlink:title=" ">
<path fill="none" stroke="#63b8ff" d="M1121.4,-154.37C1119.89,-140.06 1115.46,-121.14 1103,-110 1099.25,-106.65 972.11,-84.85 902.12,-73.05"/>
<polygon fill="#63b8ff" stroke="#63b8ff" points="1117.93,-154.86 1122.08,-164.61 1124.91,-154.4 1117.93,-154.86"/>
</a>
</g>
</g>
<!-- Node18&#45;&gt;Node11 -->
<g id="edge33_Node000018_Node000011" class="edge">
<title>Node18&#45;&gt;Node11</title>
<g id="a_edge33_Node000018_Node000011"><a xlink:title=" ">
<path fill="none" stroke="#63b8ff" d="M1133.08,-155.73C1140.11,-141.95 1146.16,-123.05 1136,-110 1119.44,-88.74 1046.48,-76.03 999.85,-69.93"/>
<polygon fill="#63b8ff" stroke="#63b8ff" points="1129.87,-154.29 1128,-164.71 1135.97,-157.73 1129.87,-154.29"/>
</a>
</g>
</g>
<!-- Node19 -->
<g id="Node000019" class="node">
<title>Node19</title>
<g id="a_Node000019"><a xlink:href="script__interface_2cluster__analysis_2Cluster_8hpp.html" target="_top" xlink:title=" ">
<polygon fill="white" stroke="#666666" points="1297.5,-129 1226.5,-129 1226.5,-110 1297.5,-110 1297.5,-129"/>
<text text-anchor="middle" x="1262" y="-117" font-family="Helvetica,sans-Serif" font-size="10.00">Cluster.hpp</text>
</a>
</g>
</g>
<!-- Node18&#45;&gt;Node19 -->
<g id="edge26_Node000018_Node000019" class="edge">
<title>Node18&#45;&gt;Node19</title>
<g id="a_edge26_Node000018_Node000019"><a xlink:title=" ">
<path fill="none" stroke="#63b8ff" d="M1153.91,-161.42C1179.88,-151.59 1215.92,-137.95 1239.1,-129.17"/>
<polygon fill="#63b8ff" stroke="#63b8ff" points="1152.61,-158.17 1144.49,-164.98 1155.08,-164.72 1152.61,-158.17"/>
</a>
</g>
</g>
<!-- Node20 -->
<g id="Node000020" class="node">
<title>Node20</title>
<g id="a_Node000020"><a xlink:href="script__interface_2cluster__analysis_2ClusterStructure_8hpp.html" target="_top" xlink:title=" ">
<polygon fill="white" stroke="#666666" points="1256,-74 1140,-74 1140,-55 1256,-55 1256,-74"/>
<text text-anchor="middle" x="1198" y="-62" font-family="Helvetica,sans-Serif" font-size="10.00">ClusterStructure.hpp</text>
</a>
</g>
</g>
<!-- Node18&#45;&gt;Node20 -->
<g id="edge30_Node000018_Node000020" class="edge">
<title>Node18&#45;&gt;Node20</title>
<g id="a_edge30_Node000018_Node000020"><a xlink:title=" ">
<path fill="none" stroke="#63b8ff" d="M1143.82,-158.8C1154.12,-150.96 1165.89,-140.55 1174,-129 1186.19,-111.64 1193.1,-87.3 1196.13,-74.38"/>
<polygon fill="#63b8ff" stroke="#63b8ff" points="1141.66,-156.04 1135.63,-164.75 1145.78,-161.7 1141.66,-156.04"/>
</a>
</g>
</g>
<!-- Node19&#45;&gt;Node20 -->
<g id="edge27_Node000019_Node000020" class="edge">
<title>Node19&#45;&gt;Node20</title>
<g id="a_edge27_Node000019_Node000020"><a xlink:title=" ">
<path fill="none" stroke="#63b8ff" d="M1244.01,-103.6C1232.54,-94.11 1218.09,-82.13 1208.47,-74.17"/>
<polygon fill="#63b8ff" stroke="#63b8ff" points="1241.78,-106.3 1251.72,-109.98 1246.25,-100.91 1241.78,-106.3"/>
</a>
</g>
</g>
<!-- Node21 -->
<g id="Node000021" class="node">
<title>Node21</title>
<g id="a_Node000021"><a xlink:href="cluster__analysis_2initialize_8cpp.html" target="_top" xlink:title=" ">
<polygon fill="white" stroke="#666666" points="1280.5,-19 1201.5,-19 1201.5,0 1280.5,0 1280.5,-19"/>
<text text-anchor="middle" x="1241" y="-7" font-family="Helvetica,sans-Serif" font-size="10.00">initialize.cpp</text>
</a>
</g>
</g>
<!-- Node19&#45;&gt;Node21 -->
<g id="edge29_Node000019_Node000021" class="edge">
<title>Node19&#45;&gt;Node21</title>
<g id="a_edge29_Node000019_Node000021"><a xlink:title=" ">
<path fill="none" stroke="#63b8ff" d="M1265.71,-99.78C1267.57,-86.98 1268.72,-69.73 1265,-55 1261.61,-41.55 1253.26,-27.75 1247.37,-19.16"/>
<polygon fill="#63b8ff" stroke="#63b8ff" points="1262.25,-99.26 1264.01,-109.71 1269.15,-100.45 1262.25,-99.26"/>
</a>
</g>
</g>
<!-- Node20&#45;&gt;Node21 -->
<g id="edge28_Node000020_Node000021" class="edge">
<title>Node20&#45;&gt;Node21</title>
<g id="a_edge28_Node000020_Node000021"><a xlink:title=" ">
<path fill="none" stroke="#63b8ff" d="M1211.42,-46.96C1218.91,-37.72 1227.94,-26.6 1234.03,-19.09"/>
<polygon fill="#63b8ff" stroke="#63b8ff" points="1208.68,-44.78 1205.1,-54.75 1214.12,-49.19 1208.68,-44.78"/>
</a>
</g>
</g>
</g>
</svg>
