<?xml version="1.0" encoding="UTF-8" standalone="no"?>
<!DOCTYPE svg PUBLIC "-//W3C//DTD SVG 1.1//EN"
 "http://www.w3.org/Graphics/SVG/1.1/DTD/svg11.dtd">
<!-- Generated by graphviz version 2.43.0 (0)
 -->
<!-- Title: BondedInteractions.hpp Pages: 1 -->
<!--zoomable 302 -->

<svg id="main" version="1.1" xmlns="http://www.w3.org/2000/svg" xmlns:xlink="http://www.w3.org/1999/xlink" xml:space="preserve" onload="init(evt)">
<style type="text/css"><![CDATA[
.node, .edge {opacity: 0.7;}
.node.selected, .edge.selected {opacity: 1;}
.edge:hover path { stroke: red; }
.edge:hover polygon { stroke: red; fill: red; }
]]></style>

<defs>
  <circle id="rim" cx="0" cy="0" r="7"/>
  <circle id="rim2" cx="0" cy="0" r="3.5"/>
  <g id="zoomPlus">
    <use xlink:href="#rim" fill="#404040"><set attributeName="fill" to="#808080" begin="zoomplus.mouseover" end="zoomplus.mouseout"/></use>
    <path d="M-4,0h8M0,-4v8" fill="none" stroke="white" stroke-width="1.5" pointer-events="none"/>
  </g>
  <g id="zoomMin">
    <use xlink:href="#rim" fill="#404040"><set attributeName="fill" to="#808080" begin="zoomminus.mouseover" end="zoomminus.mouseout"/></use>
    <path d="M-4,0h8" fill="none" stroke="white" stroke-width="1.5" pointer-events="none"/>
  </g>
  <g id="arrowUp" transform="translate(30 24)">
    <use xlink:href="#rim"/>
    <path pointer-events="none" fill="none" stroke="white" stroke-width="1.5" d="M0,-3.0v7 M-2.5,-0.5L0,-3.0L2.5,-0.5"/>
  </g>
  <g id="arrowRight" transform="rotate(90) translate(36 -43)">
    <use xlink:href="#rim"/>
    <path pointer-events="none" fill="none" stroke="white" stroke-width="1.5" d="M0,-3.0v7 M-2.5,-0.5L0,-3.0L2.5,-0.5"/>
  </g>
  <g id="arrowDown" transform="rotate(180) translate(-30 -48)">
    <use xlink:href="#rim"/>
    <path pointer-events="none" fill="none" stroke="white" stroke-width="1.5" d="M0,-3.0v7 M-2.5,-0.5L0,-3.0L2.5,-0.5"/>
  </g>
  <g id="arrowLeft" transform="rotate(270) translate(-36 17)">
    <use xlink:href="#rim"/>
    <path pointer-events="none" fill="none" stroke="white" stroke-width="1.5" d="M0,-3.0v7 M-2.5,-0.5L0,-3.0L2.5,-0.5"/>
  </g>
  <g id="resetDef">
    <use xlink:href="#rim2" fill="#404040"><set attributeName="fill" to="#808080" begin="reset.mouseover" end="reset.mouseout"/></use>
  </g>
</defs>
<script type="application/ecmascript">
var viewWidth = 1730;
var viewHeight = 302;
var sectionId = 'dynsection-1';
</script>
<script type="application/ecmascript" xlink:href="svg.min.js"/>
<svg id="graph" class="graph">
<g id="viewport">
<title>BondedInteractions.hpp</title>
<!-- Node1 -->
<g id="Node000001" class="node">
<title>Node1</title>
<g id="a_Node000001"><a xlink:title=" ">
<polygon fill="#999999" stroke="#666666" points="1083,-294 951,-294 951,-275 1083,-275 1083,-294"/>
<text text-anchor="middle" x="1017" y="-282" font-family="Helvetica,sans-Serif" font-size="10.00">BondedInteractions.hpp</text>
</a>
</g>
</g>
<!-- Node2 -->
<g id="Node000002" class="node">
<title>Node2</title>
<g id="a_Node000002"><a xlink:href="script__interface_2collision__detection_2CollisionDetection_8hpp.html" target="_top" xlink:title=" ">
<polygon fill="white" stroke="#666666" points="1244.5,-184 1117.5,-184 1117.5,-165 1244.5,-165 1244.5,-184"/>
<text text-anchor="middle" x="1181" y="-172" font-family="Helvetica,sans-Serif" font-size="10.00">CollisionDetection.hpp</text>
</a>
</g>
</g>
<!-- Node1&#45;&gt;Node2 -->
<g id="edge1_Node000001_Node000002" class="edge">
<title>Node1&#45;&gt;Node2</title>
<g id="a_edge1_Node000001_Node000002"><a xlink:title=" ">
<path fill="none" stroke="#63b8ff" d="M1038.57,-269.3C1073.04,-246.59 1139.55,-202.8 1167.79,-184.2"/>
<polygon fill="#63b8ff" stroke="#63b8ff" points="1036.57,-266.42 1030.14,-274.84 1040.42,-272.27 1036.57,-266.42"/>
</a>
</g>
</g>
<!-- Node3 -->
<g id="Node000003" class="node">
<title>Node3</title>
<g id="a_Node000003"><a xlink:href="script__interface_2system_2System_8cpp.html" target="_top" xlink:title=" ">
<polygon fill="white" stroke="#666666" points="1091,-129 1017,-129 1017,-110 1091,-110 1091,-129"/>
<text text-anchor="middle" x="1054" y="-117" font-family="Helvetica,sans-Serif" font-size="10.00">System.cpp</text>
</a>
</g>
</g>
<!-- Node1&#45;&gt;Node3 -->
<g id="edge45_Node000001_Node000003" class="edge">
<title>Node1&#45;&gt;Node3</title>
<g id="a_edge45_Node000001_Node000003"><a xlink:title=" ">
<path fill="none" stroke="#63b8ff" d="M1008.2,-265.68C997.64,-241.65 983.23,-198.05 999,-165 1006.72,-148.82 1023.53,-136.62 1036.54,-129.12"/>
<polygon fill="#63b8ff" stroke="#63b8ff" points="1005.13,-267.38 1012.52,-274.97 1011.47,-264.43 1005.13,-267.38"/>
</a>
</g>
</g>
<!-- Node5 -->
<g id="Node000005" class="node">
<title>Node5</title>
<g id="a_Node000005"><a xlink:href="ParticleHandle_8cpp.html" target="_top" xlink:title=" ">
<polygon fill="white" stroke="#666666" points="422.5,-184 315.5,-184 315.5,-165 422.5,-165 422.5,-184"/>
<text text-anchor="middle" x="369" y="-172" font-family="Helvetica,sans-Serif" font-size="10.00">ParticleHandle.cpp</text>
</a>
</g>
</g>
<!-- Node1&#45;&gt;Node5 -->
<g id="edge4_Node000001_Node000005" class="edge">
<title>Node1&#45;&gt;Node5</title>
<g id="a_edge4_Node000001_Node000005"><a xlink:title=" ">
<path fill="none" stroke="#63b8ff" d="M940.71,-274.6C873.69,-266.45 773.64,-253.48 687,-239 585.66,-222.07 467.2,-197 407.53,-184.01"/>
<polygon fill="#63b8ff" stroke="#63b8ff" points="940.41,-278.09 950.76,-275.81 941.25,-271.14 940.41,-278.09"/>
</a>
</g>
</g>
<!-- Node6 -->
<g id="Node000006" class="node">
<title>Node6</title>
<g id="a_Node000006"><a xlink:href="ParticleHandle_8hpp.html" target="_top" xlink:title=" ">
<polygon fill="white" stroke="#666666" points="804,-239 696,-239 696,-220 804,-220 804,-239"/>
<text text-anchor="middle" x="750" y="-227" font-family="Helvetica,sans-Serif" font-size="10.00">ParticleHandle.hpp</text>
</a>
</g>
</g>
<!-- Node1&#45;&gt;Node6 -->
<g id="edge5_Node000001_Node000006" class="edge">
<title>Node1&#45;&gt;Node6</title>
<g id="a_edge5_Node000001_Node000006"><a xlink:title=" ">
<path fill="none" stroke="#63b8ff" d="M964.12,-273C914.07,-263.07 839.84,-248.33 793.23,-239.08"/>
<polygon fill="#63b8ff" stroke="#63b8ff" points="963.61,-276.47 974.1,-274.98 964.97,-269.6 963.61,-276.47"/>
</a>
</g>
</g>
<!-- Node10 -->
<g id="Node000010" class="node">
<title>Node10</title>
<g id="a_Node000010"><a xlink:href="ParticleSlice_8hpp.html" target="_top" xlink:title=" ">
<polygon fill="white" stroke="#666666" points="875.5,-184 778.5,-184 778.5,-165 875.5,-165 875.5,-184"/>
<text text-anchor="middle" x="827" y="-172" font-family="Helvetica,sans-Serif" font-size="10.00">ParticleSlice.hpp</text>
</a>
</g>
</g>
<!-- Node1&#45;&gt;Node10 -->
<g id="edge34_Node000001_Node000010" class="edge">
<title>Node1&#45;&gt;Node10</title>
<g id="a_edge34_Node000001_Node000010"><a xlink:title=" ">
<path fill="none" stroke="#63b8ff" d="M993,-269.86C953.25,-247.26 874.88,-202.71 842.04,-184.05"/>
<polygon fill="#63b8ff" stroke="#63b8ff" points="991.35,-272.95 1001.77,-274.84 994.81,-266.86 991.35,-272.95"/>
</a>
</g>
</g>
<!-- Node18 -->
<g id="Node000018" class="node">
<title>Node18</title>
<g id="a_Node000018"><a xlink:href="script__interface_2particle__data_2ParticleList_8hpp.html" target="_top" xlink:title=" ">
<polygon fill="white" stroke="#666666" points="1099.5,-184 1008.5,-184 1008.5,-165 1099.5,-165 1099.5,-184"/>
<text text-anchor="middle" x="1054" y="-172" font-family="Helvetica,sans-Serif" font-size="10.00">ParticleList.hpp</text>
</a>
</g>
</g>
<!-- Node1&#45;&gt;Node18 -->
<g id="edge25_Node000001_Node000018" class="edge">
<title>Node1&#45;&gt;Node18</title>
<g id="a_edge25_Node000001_Node000018"><a xlink:title=" ">
<path fill="none" stroke="#63b8ff" d="M1023.3,-265.12C1031.37,-241.56 1045.04,-201.66 1051.03,-184.16"/>
<polygon fill="#63b8ff" stroke="#63b8ff" points="1019.96,-264.07 1020.03,-274.66 1026.58,-266.34 1019.96,-264.07"/>
</a>
</g>
</g>
<!-- Node22 -->
<g id="Node000022" class="node">
<title>Node22</title>
<g id="a_Node000022"><a xlink:href="collision__detection_2Protocol_8hpp.html" target="_top" xlink:title=" ">
<polygon fill="white" stroke="#666666" points="1354.5,-239 1277.5,-239 1277.5,-220 1354.5,-220 1354.5,-239"/>
<text text-anchor="middle" x="1316" y="-227" font-family="Helvetica,sans-Serif" font-size="10.00">Protocol.hpp</text>
</a>
</g>
</g>
<!-- Node1&#45;&gt;Node22 -->
<g id="edge35_Node000001_Node000022" class="edge">
<title>Node1&#45;&gt;Node22</title>
<g id="a_edge35_Node000001_Node000022"><a xlink:title=" ">
<path fill="none" stroke="#63b8ff" d="M1075.05,-273.21C1134.64,-262.65 1225.71,-246.5 1277.13,-237.39"/>
<polygon fill="#63b8ff" stroke="#63b8ff" points="1074.28,-269.79 1065.04,-274.98 1075.5,-276.69 1074.28,-269.79"/>
</a>
</g>
</g>
<!-- Node27 -->
<g id="Node000027" class="node">
<title>Node27</title>
<g id="a_Node000027"><a xlink:href="interactions_2initialize_8cpp.html" target="_top" xlink:title=" ">
<polygon fill="white" stroke="#666666" points="1451.5,-239 1372.5,-239 1372.5,-220 1451.5,-220 1451.5,-239"/>
<text text-anchor="middle" x="1412" y="-227" font-family="Helvetica,sans-Serif" font-size="10.00">initialize.cpp</text>
</a>
</g>
</g>
<!-- Node1&#45;&gt;Node27 -->
<g id="edge46_Node000001_Node000027" class="edge">
<title>Node1&#45;&gt;Node27</title>
<g id="a_edge46_Node000001_Node000027"><a xlink:title=" ">
<path fill="none" stroke="#63b8ff" d="M1093.12,-274.8C1163.52,-266.5 1271.01,-253.19 1364,-239 1366.76,-238.58 1369.61,-238.12 1372.47,-237.65"/>
<polygon fill="#63b8ff" stroke="#63b8ff" points="1092.53,-271.34 1083.01,-275.99 1093.35,-278.29 1092.53,-271.34"/>
</a>
</g>
</g>
<!-- Node2&#45;&gt;Node3 -->
<g id="edge2_Node000002_Node000003" class="edge">
<title>Node2&#45;&gt;Node3</title>
<g id="a_edge2_Node000002_Node000003"><a xlink:title=" ">
<path fill="none" stroke="#63b8ff" d="M1151.12,-161.03C1127.63,-151.23 1095.53,-137.83 1074.78,-129.17"/>
<polygon fill="#63b8ff" stroke="#63b8ff" points="1150.02,-164.36 1160.6,-164.98 1152.71,-157.9 1150.02,-164.36"/>
</a>
</g>
</g>
<!-- Node4 -->
<g id="Node000004" class="node">
<title>Node4</title>
<g id="a_Node000004"><a xlink:href="collision__detection_2initialize_8cpp.html" target="_top" xlink:title=" ">
<polygon fill="white" stroke="#666666" points="1453.5,-129 1374.5,-129 1374.5,-110 1453.5,-110 1453.5,-129"/>
<text text-anchor="middle" x="1414" y="-117" font-family="Helvetica,sans-Serif" font-size="10.00">initialize.cpp</text>
</a>
</g>
</g>
<!-- Node2&#45;&gt;Node4 -->
<g id="edge3_Node000002_Node000004" class="edge">
<title>Node2&#45;&gt;Node4</title>
<g id="a_edge3_Node000002_Node000004"><a xlink:title=" ">
<path fill="none" stroke="#63b8ff" d="M1228.25,-162.75C1271.91,-152.82 1335.94,-138.26 1376.27,-129.08"/>
<polygon fill="#63b8ff" stroke="#63b8ff" points="1227.41,-159.35 1218.44,-164.98 1228.96,-166.18 1227.41,-159.35"/>
</a>
</g>
</g>
<!-- Node6&#45;&gt;Node3 -->
<g id="edge23_Node000006_Node000003" class="edge">
<title>Node6&#45;&gt;Node3</title>
<g id="a_edge23_Node000006_Node000003"><a xlink:title=" ">
<path fill="none" stroke="#63b8ff" d="M797.23,-217.55C829.87,-209.49 874.06,-197.61 912,-184 958.27,-167.41 1010.52,-142.31 1036.86,-129.19"/>
<polygon fill="#63b8ff" stroke="#63b8ff" points="796.38,-214.15 787.5,-219.92 798.04,-220.95 796.38,-214.15"/>
</a>
</g>
</g>
<!-- Node6&#45;&gt;Node5 -->
<g id="edge7_Node000006_Node000005" class="edge">
<title>Node6&#45;&gt;Node5</title>
<g id="a_edge7_Node000006_Node000005"><a xlink:title=" ">
<path fill="none" stroke="#63b8ff" d="M685.7,-219.56C611.79,-209.27 491.81,-192.58 422.69,-182.97"/>
<polygon fill="#63b8ff" stroke="#63b8ff" points="685.43,-223.05 695.82,-220.96 686.39,-216.12 685.43,-223.05"/>
</a>
</g>
</g>
<!-- Node7 -->
<g id="Node000007" class="node">
<title>Node7</title>
<g id="a_Node000007"><a xlink:href="CellSystem_8cpp.html" target="_top" xlink:title=" ">
<polygon fill="white" stroke="#666666" points="679,-129 587,-129 587,-110 679,-110 679,-129"/>
<text text-anchor="middle" x="633" y="-117" font-family="Helvetica,sans-Serif" font-size="10.00">CellSystem.cpp</text>
</a>
</g>
</g>
<!-- Node6&#45;&gt;Node7 -->
<g id="edge6_Node000006_Node000007" class="edge">
<title>Node6&#45;&gt;Node7</title>
<g id="a_edge6_Node000006_Node000007"><a xlink:title=" ">
<path fill="none" stroke="#63b8ff" d="M732.78,-212.61C707.71,-189.47 662.02,-147.29 642.38,-129.16"/>
<polygon fill="#63b8ff" stroke="#63b8ff" points="730.7,-215.45 740.43,-219.66 735.45,-210.31 730.7,-215.45"/>
</a>
</g>
</g>
<!-- Node8 -->
<g id="Node000008" class="node">
<title>Node8</title>
<g id="a_Node000008"><a xlink:href="ParticleList_8cpp.html" target="_top" xlink:title=" ">
<polygon fill="white" stroke="#666666" points="901,-129 811,-129 811,-110 901,-110 901,-129"/>
<text text-anchor="middle" x="856" y="-117" font-family="Helvetica,sans-Serif" font-size="10.00">ParticleList.cpp</text>
</a>
</g>
</g>
<!-- Node6&#45;&gt;Node8 -->
<g id="edge8_Node000006_Node000008" class="edge">
<title>Node6&#45;&gt;Node8</title>
<g id="a_edge8_Node000006_Node000008"><a xlink:title=" ">
<path fill="none" stroke="#63b8ff" d="M751.72,-209.46C753.83,-195.77 758.53,-177.57 769,-165 783.66,-147.4 807.05,-135.99 825.89,-129.13"/>
<polygon fill="#63b8ff" stroke="#63b8ff" points="748.21,-209.34 750.49,-219.68 755.16,-210.18 748.21,-209.34"/>
</a>
</g>
</g>
<!-- Node9 -->
<g id="Node000009" class="node">
<title>Node9</title>
<g id="a_Node000009"><a xlink:href="ParticleSlice_8cpp.html" target="_top" xlink:title=" ">
<polygon fill="white" stroke="#666666" points="793,-129 697,-129 697,-110 793,-110 793,-129"/>
<text text-anchor="middle" x="745" y="-117" font-family="Helvetica,sans-Serif" font-size="10.00">ParticleSlice.cpp</text>
</a>
</g>
</g>
<!-- Node6&#45;&gt;Node9 -->
<g id="edge9_Node000006_Node000009" class="edge">
<title>Node6&#45;&gt;Node9</title>
<g id="a_edge9_Node000006_Node000009"><a xlink:title=" ">
<path fill="none" stroke="#63b8ff" d="M742.85,-210.18C740.13,-202.26 737.35,-192.81 736,-184 732.99,-164.41 738.52,-141.36 742.16,-129.14"/>
<polygon fill="#63b8ff" stroke="#63b8ff" points="739.66,-211.65 746.4,-219.82 746.23,-209.23 739.66,-211.65"/>
</a>
</g>
</g>
<!-- Node6&#45;&gt;Node10 -->
<g id="edge10_Node000006_Node000010" class="edge">
<title>Node6&#45;&gt;Node10</title>
<g id="a_edge10_Node000006_Node000010"><a xlink:title=" ">
<path fill="none" stroke="#63b8ff" d="M770.85,-214.15C784.76,-204.57 802.61,-192.29 814.4,-184.17"/>
<polygon fill="#63b8ff" stroke="#63b8ff" points="768.62,-211.43 762.37,-219.98 772.59,-217.2 768.62,-211.43"/>
</a>
</g>
</g>
<!-- Node11 -->
<g id="Node000011" class="node">
<title>Node11</title>
<g id="a_Node000011"><a xlink:href="particle__data_2initialize_8cpp.html" target="_top" xlink:title=" ">
<polygon fill="white" stroke="#666666" points="998.5,-129 919.5,-129 919.5,-110 998.5,-110 998.5,-129"/>
<text text-anchor="middle" x="959" y="-117" font-family="Helvetica,sans-Serif" font-size="10.00">initialize.cpp</text>
</a>
</g>
</g>
<!-- Node6&#45;&gt;Node11 -->
<g id="edge24_Node000006_Node000011" class="edge">
<title>Node6&#45;&gt;Node11</title>
<g id="a_edge24_Node000006_Node000011"><a xlink:title=" ">
<path fill="none" stroke="#63b8ff" d="M798.07,-217.33C824.46,-210.04 857.18,-199.06 884,-184 911.37,-168.63 938.14,-142.55 951.03,-129.1"/>
<polygon fill="#63b8ff" stroke="#63b8ff" points="797.05,-213.98 788.29,-219.95 798.85,-220.75 797.05,-213.98"/>
</a>
</g>
</g>
<!-- Node12 -->
<g id="Node000012" class="node">
<title>Node12</title>
<g id="a_Node000012"><a xlink:href="script__interface_2reaction__methods_2ReactionAlgorithm_8hpp.html" target="_top" xlink:title=" ">
<polygon fill="white" stroke="#666666" points="569,-184 441,-184 441,-165 569,-165 569,-184"/>
<text text-anchor="middle" x="505" y="-172" font-family="Helvetica,sans-Serif" font-size="10.00">ReactionAlgorithm.hpp</text>
</a>
</g>
</g>
<!-- Node6&#45;&gt;Node12 -->
<g id="edge15_Node000006_Node000012" class="edge">
<title>Node6&#45;&gt;Node12</title>
<g id="a_edge15_Node000006_Node000012"><a xlink:title=" ">
<path fill="none" stroke="#63b8ff" d="M700.61,-217.82C654.7,-207.88 587.17,-193.28 544.67,-184.08"/>
<polygon fill="#63b8ff" stroke="#63b8ff" points="700.12,-221.29 710.64,-219.98 701.6,-214.45 700.12,-221.29"/>
</a>
</g>
</g>
<!-- Node10&#45;&gt;Node7 -->
<g id="edge11_Node000010_Node000007" class="edge">
<title>Node10&#45;&gt;Node7</title>
<g id="a_edge11_Node000010_Node000007"><a xlink:title=" ">
<path fill="none" stroke="#63b8ff" d="M786.04,-162.31C749.74,-152.39 697.5,-138.12 664.41,-129.08"/>
<polygon fill="#63b8ff" stroke="#63b8ff" points="785.26,-165.73 795.83,-164.98 787.11,-158.97 785.26,-165.73"/>
</a>
</g>
</g>
<!-- Node10&#45;&gt;Node8 -->
<g id="edge12_Node000010_Node000008" class="edge">
<title>Node10&#45;&gt;Node8</title>
<g id="a_edge12_Node000010_Node000008"><a xlink:title=" ">
<path fill="none" stroke="#63b8ff" d="M836.68,-155.82C841.6,-146.82 847.36,-136.29 851.3,-129.09"/>
<polygon fill="#63b8ff" stroke="#63b8ff" points="833.52,-154.3 831.79,-164.75 839.66,-157.66 833.52,-154.3"/>
</a>
</g>
</g>
<!-- Node10&#45;&gt;Node9 -->
<g id="edge13_Node000010_Node000009" class="edge">
<title>Node10&#45;&gt;Node9</title>
<g id="a_edge13_Node000010_Node000009"><a xlink:title=" ">
<path fill="none" stroke="#63b8ff" d="M805.22,-159.42C790.34,-149.81 771.09,-137.37 758.41,-129.17"/>
<polygon fill="#63b8ff" stroke="#63b8ff" points="803.53,-162.5 813.83,-164.98 807.33,-156.62 803.53,-162.5"/>
</a>
</g>
</g>
<!-- Node10&#45;&gt;Node11 -->
<g id="edge14_Node000010_Node000011" class="edge">
<title>Node10&#45;&gt;Node11</title>
<g id="a_edge14_Node000010_Node000011"><a xlink:title=" ">
<path fill="none" stroke="#63b8ff" d="M857.73,-161.16C882.17,-151.35 915.74,-137.87 937.41,-129.17"/>
<polygon fill="#63b8ff" stroke="#63b8ff" points="856.18,-158.01 848.21,-164.98 858.79,-164.51 856.18,-158.01"/>
</a>
</g>
</g>
<!-- Node13 -->
<g id="Node000013" class="node">
<title>Node13</title>
<g id="a_Node000013"><a xlink:href="script__interface_2reaction__methods_2ConstantpHEnsemble_8hpp.html" target="_top" xlink:title=" ">
<polygon fill="white" stroke="#666666" points="422.5,-129 279.5,-129 279.5,-110 422.5,-110 422.5,-129"/>
<text text-anchor="middle" x="351" y="-117" font-family="Helvetica,sans-Serif" font-size="10.00">ConstantpHEnsemble.hpp</text>
</a>
</g>
</g>
<!-- Node12&#45;&gt;Node13 -->
<g id="edge16_Node000012_Node000013" class="edge">
<title>Node12&#45;&gt;Node13</title>
<g id="a_edge16_Node000012_Node000013"><a xlink:title=" ">
<path fill="none" stroke="#63b8ff" d="M470.62,-161.67C441.91,-151.79 401.64,-137.93 375.94,-129.08"/>
<polygon fill="#63b8ff" stroke="#63b8ff" points="469.66,-165.04 480.26,-164.98 471.94,-158.42 469.66,-165.04"/>
</a>
</g>
</g>
<!-- Node15 -->
<g id="Node000015" class="node">
<title>Node15</title>
<g id="a_Node000015"><a xlink:href="script__interface_2reaction__methods_2ReactionAlgorithm_8cpp.html" target="_top" xlink:title=" ">
<polygon fill="white" stroke="#666666" points="569,-129 441,-129 441,-110 569,-110 569,-129"/>
<text text-anchor="middle" x="505" y="-117" font-family="Helvetica,sans-Serif" font-size="10.00">ReactionAlgorithm.cpp</text>
</a>
</g>
</g>
<!-- Node12&#45;&gt;Node15 -->
<g id="edge18_Node000012_Node000015" class="edge">
<title>Node12&#45;&gt;Node15</title>
<g id="a_edge18_Node000012_Node000015"><a xlink:title=" ">
<path fill="none" stroke="#63b8ff" d="M505,-154.66C505,-145.93 505,-135.99 505,-129.09"/>
<polygon fill="#63b8ff" stroke="#63b8ff" points="501.5,-154.75 505,-164.75 508.5,-154.75 501.5,-154.75"/>
</a>
</g>
</g>
<!-- Node16 -->
<g id="Node000016" class="node">
<title>Node16</title>
<g id="a_Node000016"><a xlink:href="script__interface_2reaction__methods_2ReactionEnsemble_8hpp.html" target="_top" xlink:title=" ">
<polygon fill="white" stroke="#666666" points="128,-129 0,-129 0,-110 128,-110 128,-129"/>
<text text-anchor="middle" x="64" y="-117" font-family="Helvetica,sans-Serif" font-size="10.00">ReactionEnsemble.hpp</text>
</a>
</g>
</g>
<!-- Node12&#45;&gt;Node16 -->
<g id="edge19_Node000012_Node000016" class="edge">
<title>Node12&#45;&gt;Node16</title>
<g id="a_edge19_Node000012_Node000016"><a xlink:title=" ">
<path fill="none" stroke="#63b8ff" d="M430.8,-164.58C346,-154.39 208.58,-137.88 128.2,-128.22"/>
<polygon fill="#63b8ff" stroke="#63b8ff" points="430.53,-168.08 440.87,-165.79 431.36,-161.13 430.53,-168.08"/>
</a>
</g>
</g>
<!-- Node17 -->
<g id="Node000017" class="node">
<title>Node17</title>
<g id="a_Node000017"><a xlink:href="script__interface_2reaction__methods_2WidomInsertion_8hpp.html" target="_top" xlink:title=" ">
<polygon fill="white" stroke="#666666" points="261.5,-129 146.5,-129 146.5,-110 261.5,-110 261.5,-129"/>
<text text-anchor="middle" x="204" y="-117" font-family="Helvetica,sans-Serif" font-size="10.00">WidomInsertion.hpp</text>
</a>
</g>
</g>
<!-- Node12&#45;&gt;Node17 -->
<g id="edge21_Node000012_Node000017" class="edge">
<title>Node12&#45;&gt;Node17</title>
<g id="a_edge21_Node000012_Node000017"><a xlink:title=" ">
<path fill="none" stroke="#63b8ff" d="M446.44,-163.19C390.01,-153.25 305.61,-138.39 252.74,-129.08"/>
<polygon fill="#63b8ff" stroke="#63b8ff" points="446.18,-166.7 456.64,-164.98 447.4,-159.8 446.18,-166.7"/>
</a>
</g>
</g>
<!-- Node14 -->
<g id="Node000014" class="node">
<title>Node14</title>
<g id="a_Node000014"><a xlink:href="reaction__methods_2initialize_8cpp.html" target="_top" xlink:title=" ">
<polygon fill="white" stroke="#666666" points="243.5,-74 164.5,-74 164.5,-55 243.5,-55 243.5,-74"/>
<text text-anchor="middle" x="204" y="-62" font-family="Helvetica,sans-Serif" font-size="10.00">initialize.cpp</text>
</a>
</g>
</g>
<!-- Node13&#45;&gt;Node14 -->
<g id="edge17_Node000013_Node000014" class="edge">
<title>Node13&#45;&gt;Node14</title>
<g id="a_edge17_Node000013_Node000014"><a xlink:title=" ">
<path fill="none" stroke="#63b8ff" d="M317.86,-106.55C290.56,-96.71 252.5,-82.98 228.05,-74.17"/>
<polygon fill="#63b8ff" stroke="#63b8ff" points="316.79,-109.89 327.38,-109.98 319.16,-103.3 316.79,-109.89"/>
</a>
</g>
</g>
<!-- Node16&#45;&gt;Node14 -->
<g id="edge20_Node000016_Node000014" class="edge">
<title>Node16&#45;&gt;Node14</title>
<g id="a_edge20_Node000016_Node000014"><a xlink:title=" ">
<path fill="none" stroke="#63b8ff" d="M95.91,-106.42C121.88,-96.59 157.92,-82.95 181.1,-74.17"/>
<polygon fill="#63b8ff" stroke="#63b8ff" points="94.61,-103.17 86.49,-109.98 97.08,-109.72 94.61,-103.17"/>
</a>
</g>
</g>
<!-- Node17&#45;&gt;Node14 -->
<g id="edge22_Node000017_Node000014" class="edge">
<title>Node17&#45;&gt;Node14</title>
<g id="a_edge22_Node000017_Node000014"><a xlink:title=" ">
<path fill="none" stroke="#63b8ff" d="M204,-99.66C204,-90.93 204,-80.99 204,-74.09"/>
<polygon fill="#63b8ff" stroke="#63b8ff" points="200.5,-99.75 204,-109.75 207.5,-99.75 200.5,-99.75"/>
</a>
</g>
</g>
<!-- Node18&#45;&gt;Node3 -->
<g id="edge32_Node000018_Node000003" class="edge">
<title>Node18&#45;&gt;Node3</title>
<g id="a_edge32_Node000018_Node000003"><a xlink:title=" ">
<path fill="none" stroke="#63b8ff" d="M1054,-154.66C1054,-145.93 1054,-135.99 1054,-129.09"/>
<polygon fill="#63b8ff" stroke="#63b8ff" points="1050.5,-154.75 1054,-164.75 1057.5,-154.75 1050.5,-154.75"/>
</a>
</g>
</g>
<!-- Node18&#45;&gt;Node8 -->
<g id="edge31_Node000018_Node000008" class="edge">
<title>Node18&#45;&gt;Node8</title>
<g id="a_edge31_Node000018_Node000008"><a xlink:title=" ">
<path fill="none" stroke="#63b8ff" d="M1012.2,-162.31C975.15,-152.39 921.83,-138.12 888.06,-129.08"/>
<polygon fill="#63b8ff" stroke="#63b8ff" points="1011.62,-165.78 1022.19,-164.98 1013.43,-159.02 1011.62,-165.78"/>
</a>
</g>
</g>
<!-- Node18&#45;&gt;Node11 -->
<g id="edge33_Node000018_Node000011" class="edge">
<title>Node18&#45;&gt;Node11</title>
<g id="a_edge33_Node000018_Node000011"><a xlink:title=" ">
<path fill="none" stroke="#63b8ff" d="M1029.74,-159.97C1012.37,-150.28 989.51,-137.52 974.54,-129.17"/>
<polygon fill="#63b8ff" stroke="#63b8ff" points="1028.3,-163.17 1038.74,-164.98 1031.71,-157.06 1028.3,-163.17"/>
</a>
</g>
</g>
<!-- Node19 -->
<g id="Node000019" class="node">
<title>Node19</title>
<g id="a_Node000019"><a xlink:href="script__interface_2cluster__analysis_2Cluster_8hpp.html" target="_top" xlink:title=" ">
<polygon fill="white" stroke="#666666" points="1218.5,-129 1147.5,-129 1147.5,-110 1218.5,-110 1218.5,-129"/>
<text text-anchor="middle" x="1183" y="-117" font-family="Helvetica,sans-Serif" font-size="10.00">Cluster.hpp</text>
</a>
</g>
</g>
<!-- Node18&#45;&gt;Node19 -->
<g id="edge26_Node000018_Node000019" class="edge">
<title>Node18&#45;&gt;Node19</title>
<g id="a_edge26_Node000018_Node000019"><a xlink:title=" ">
<path fill="none" stroke="#63b8ff" d="M1084.04,-161.16C1107.92,-151.35 1140.72,-137.87 1161.9,-129.17"/>
<polygon fill="#63b8ff" stroke="#63b8ff" points="1082.65,-157.95 1074.73,-164.98 1085.31,-164.42 1082.65,-157.95"/>
</a>
</g>
</g>
<!-- Node20 -->
<g id="Node000020" class="node">
<title>Node20</title>
<g id="a_Node000020"><a xlink:href="script__interface_2cluster__analysis_2ClusterStructure_8hpp.html" target="_top" xlink:title=" ">
<polygon fill="white" stroke="#666666" points="1177,-74 1061,-74 1061,-55 1177,-55 1177,-74"/>
<text text-anchor="middle" x="1119" y="-62" font-family="Helvetica,sans-Serif" font-size="10.00">ClusterStructure.hpp</text>
</a>
</g>
</g>
<!-- Node18&#45;&gt;Node20 -->
<g id="edge30_Node000018_Node000020" class="edge">
<title>Node18&#45;&gt;Node20</title>
<g id="a_edge30_Node000018_Node000020"><a xlink:title=" ">
<path fill="none" stroke="#63b8ff" d="M1073.77,-158.4C1082.9,-150.52 1093.19,-140.19 1100,-129 1110.76,-111.3 1115.78,-87.1 1117.82,-74.29"/>
<polygon fill="#63b8ff" stroke="#63b8ff" points="1071.36,-155.85 1065.85,-164.9 1075.8,-161.26 1071.36,-155.85"/>
</a>
</g>
</g>
<!-- Node19&#45;&gt;Node20 -->
<g id="edge27_Node000019_Node000020" class="edge">
<title>Node19&#45;&gt;Node20</title>
<g id="a_edge27_Node000019_Node000020"><a xlink:title=" ">
<path fill="none" stroke="#63b8ff" d="M1165.01,-103.6C1153.54,-94.11 1139.09,-82.13 1129.47,-74.17"/>
<polygon fill="#63b8ff" stroke="#63b8ff" points="1162.78,-106.3 1172.72,-109.98 1167.25,-100.91 1162.78,-106.3"/>
</a>
</g>
</g>
<!-- Node21 -->
<g id="Node000021" class="node">
<title>Node21</title>
<g id="a_Node000021"><a xlink:href="cluster__analysis_2initialize_8cpp.html" target="_top" xlink:title=" ">
<polygon fill="white" stroke="#666666" points="1201.5,-19 1122.5,-19 1122.5,0 1201.5,0 1201.5,-19"/>
<text text-anchor="middle" x="1162" y="-7" font-family="Helvetica,sans-Serif" font-size="10.00">initialize.cpp</text>
</a>
</g>
</g>
<!-- Node19&#45;&gt;Node21 -->
<g id="edge29_Node000019_Node000021" class="edge">
<title>Node19&#45;&gt;Node21</title>
<g id="a_edge29_Node000019_Node000021"><a xlink:title=" ">
<path fill="none" stroke="#63b8ff" d="M1186.71,-99.78C1188.57,-86.98 1189.72,-69.73 1186,-55 1182.61,-41.55 1174.26,-27.75 1168.37,-19.16"/>
<polygon fill="#63b8ff" stroke="#63b8ff" points="1183.25,-99.26 1185.01,-109.71 1190.15,-100.45 1183.25,-99.26"/>
</a>
</g>
</g>
<!-- Node20&#45;&gt;Node21 -->
<g id="edge28_Node000020_Node000021" class="edge">
<title>Node20&#45;&gt;Node21</title>
<g id="a_edge28_Node000020_Node000021"><a xlink:title=" ">
<path fill="none" stroke="#63b8ff" d="M1132.42,-46.96C1139.91,-37.72 1148.94,-26.6 1155.03,-19.09"/>
<polygon fill="#63b8ff" stroke="#63b8ff" points="1129.68,-44.78 1126.1,-54.75 1135.12,-49.19 1129.68,-44.78"/>
</a>
</g>
</g>
<!-- Node22&#45;&gt;Node2 -->
<g id="edge40_Node000022_Node000002" class="edge">
<title>Node22&#45;&gt;Node2</title>
<g id="a_edge40_Node000022_Node000002"><a xlink:title=" ">
<path fill="none" stroke="#63b8ff" d="M1284.9,-216.29C1259.88,-206.47 1225.34,-192.91 1203.08,-184.17"/>
<polygon fill="#63b8ff" stroke="#63b8ff" points="1283.72,-219.59 1294.31,-219.98 1286.28,-213.07 1283.72,-219.59"/>
</a>
</g>
</g>
<!-- Node23 -->
<g id="Node000023" class="node">
<title>Node23</title>
<g id="a_Node000023"><a xlink:href="script__interface_2collision__detection_2BindAtPointOfCollision_8hpp.html" target="_top" xlink:title=" ">
<polygon fill="white" stroke="#666666" points="1606,-184 1458,-184 1458,-165 1606,-165 1606,-184"/>
<text text-anchor="middle" x="1532" y="-172" font-family="Helvetica,sans-Serif" font-size="10.00">BindAtPointOfCollision.hpp</text>
</a>
</g>
</g>
<!-- Node22&#45;&gt;Node23 -->
<g id="edge36_Node000022_Node000023" class="edge">
<title>Node22&#45;&gt;Node23</title>
<g id="a_edge36_Node000022_Node000023"><a xlink:title=" ">
<path fill="none" stroke="#63b8ff" d="M1360.57,-217.56C1401.02,-207.64 1459.87,-193.2 1497.02,-184.08"/>
<polygon fill="#63b8ff" stroke="#63b8ff" points="1359.58,-214.2 1350.7,-219.98 1361.25,-221 1359.58,-214.2"/>
</a>
</g>
</g>
<!-- Node24 -->
<g id="Node000024" class="node">
<title>Node24</title>
<g id="a_Node000024"><a xlink:href="script__interface_2collision__detection_2BindCenters_8hpp.html" target="_top" xlink:title=" ">
<polygon fill="white" stroke="#666666" points="1721.5,-184 1624.5,-184 1624.5,-165 1721.5,-165 1721.5,-184"/>
<text text-anchor="middle" x="1673" y="-172" font-family="Helvetica,sans-Serif" font-size="10.00">BindCenters.hpp</text>
</a>
</g>
</g>
<!-- Node22&#45;&gt;Node24 -->
<g id="edge38_Node000022_Node000024" class="edge">
<title>Node22&#45;&gt;Node24</title>
<g id="a_edge38_Node000022_Node000024"><a xlink:title=" ">
<path fill="none" stroke="#63b8ff" d="M1364.78,-219.92C1476.94,-202.05 1506.63,-199.71 1615,-184 1618.02,-183.56 1621.13,-183.11 1624.27,-182.65"/>
<polygon fill="#63b8ff" stroke="#63b8ff" points="1364.08,-216.49 1354.75,-221.52 1365.18,-223.4 1364.08,-216.49"/>
</a>
</g>
</g>
<!-- Node25 -->
<g id="Node000025" class="node">
<title>Node25</title>
<g id="a_Node000025"><a xlink:href="script__interface_2collision__detection_2GlueToSurface_8hpp.html" target="_top" xlink:title=" ">
<polygon fill="white" stroke="#666666" points="1369.5,-184 1262.5,-184 1262.5,-165 1369.5,-165 1369.5,-184"/>
<text text-anchor="middle" x="1316" y="-172" font-family="Helvetica,sans-Serif" font-size="10.00">GlueToSurface.hpp</text>
</a>
</g>
</g>
<!-- Node22&#45;&gt;Node25 -->
<g id="edge41_Node000022_Node000025" class="edge">
<title>Node22&#45;&gt;Node25</title>
<g id="a_edge41_Node000022_Node000025"><a xlink:title=" ">
<path fill="none" stroke="#63b8ff" d="M1316,-209.66C1316,-200.93 1316,-190.99 1316,-184.09"/>
<polygon fill="#63b8ff" stroke="#63b8ff" points="1312.5,-209.75 1316,-219.75 1319.5,-209.75 1312.5,-209.75"/>
</a>
</g>
</g>
<!-- Node26 -->
<g id="Node000026" class="node">
<title>Node26</title>
<g id="a_Node000026"><a xlink:href="script__interface_2collision__detection_2Off_8hpp.html" target="_top" xlink:title=" ">
<polygon fill="white" stroke="#666666" points="1440,-184 1388,-184 1388,-165 1440,-165 1440,-184"/>
<text text-anchor="middle" x="1414" y="-172" font-family="Helvetica,sans-Serif" font-size="10.00">Off.hpp</text>
</a>
</g>
</g>
<!-- Node22&#45;&gt;Node26 -->
<g id="edge43_Node000022_Node000026" class="edge">
<title>Node22&#45;&gt;Node26</title>
<g id="a_edge43_Node000022_Node000026"><a xlink:title=" ">
<path fill="none" stroke="#63b8ff" d="M1341.03,-214.97C1358.94,-205.28 1382.53,-192.52 1397.97,-184.17"/>
<polygon fill="#63b8ff" stroke="#63b8ff" points="1338.88,-212.15 1331.75,-219.98 1342.21,-218.31 1338.88,-212.15"/>
</a>
</g>
</g>
<!-- Node23&#45;&gt;Node4 -->
<g id="edge37_Node000023_Node000004" class="edge">
<title>Node23&#45;&gt;Node4</title>
<g id="a_edge37_Node000023_Node000004"><a xlink:title=" ">
<path fill="none" stroke="#63b8ff" d="M1503.65,-160.77C1481.88,-150.99 1452.41,-137.75 1433.3,-129.17"/>
<polygon fill="#63b8ff" stroke="#63b8ff" points="1502.49,-164.08 1513.04,-164.98 1505.35,-157.69 1502.49,-164.08"/>
</a>
</g>
</g>
<!-- Node24&#45;&gt;Node4 -->
<g id="edge39_Node000024_Node000004" class="edge">
<title>Node24&#45;&gt;Node4</title>
<g id="a_edge39_Node000024_Node000004"><a xlink:title=" ">
<path fill="none" stroke="#63b8ff" d="M1621.55,-162.97C1572.23,-152.88 1498.82,-137.86 1453.81,-128.65"/>
<polygon fill="#63b8ff" stroke="#63b8ff" points="1620.89,-166.41 1631.39,-164.98 1622.29,-159.55 1620.89,-166.41"/>
</a>
</g>
</g>
<!-- Node25&#45;&gt;Node4 -->
<g id="edge42_Node000025_Node000004" class="edge">
<title>Node25&#45;&gt;Node4</title>
<g id="a_edge42_Node000025_Node000004"><a xlink:title=" ">
<path fill="none" stroke="#63b8ff" d="M1341.03,-159.97C1358.94,-150.28 1382.53,-137.52 1397.97,-129.17"/>
<polygon fill="#63b8ff" stroke="#63b8ff" points="1338.88,-157.15 1331.75,-164.98 1342.21,-163.31 1338.88,-157.15"/>
</a>
</g>
</g>
<!-- Node26&#45;&gt;Node4 -->
<g id="edge44_Node000026_Node000004" class="edge">
<title>Node26&#45;&gt;Node4</title>
<g id="a_edge44_Node000026_Node000004"><a xlink:title=" ">
<path fill="none" stroke="#63b8ff" d="M1414,-154.66C1414,-145.93 1414,-135.99 1414,-129.09"/>
<polygon fill="#63b8ff" stroke="#63b8ff" points="1410.5,-154.75 1414,-164.75 1417.5,-154.75 1410.5,-154.75"/>
</a>
</g>
</g>
</g>
</svg>

<g id="navigator" transform="translate(0 0)" fill="#404254">
  <rect fill="#f2f5e9" fill-opacity="0.5" stroke="#606060" stroke-width=".5" x="0" y="0" width="60" height="60"/>
  <use id="zoomplus" xlink:href="#zoomPlus" x="17" y="9" onmousedown="handleZoom(evt,'in')"/>
  <use id="zoomminus" xlink:href="#zoomMin" x="42" y="9" onmousedown="handleZoom(evt,'out')"/>
  <use id="reset" xlink:href="#resetDef" x="30" y="36" onmousedown="handleReset()"/>
   <use id="arrowup" xlink:href="#arrowUp" x="0" y="0" onmousedown="handlePan(0,-1)"/>
  <use id="arrowright" xlink:href="#arrowRight" x="0" y="0" onmousedown="handlePan(1,0)"/>
  <use id="arrowdown" xlink:href="#arrowDown" x="0" y="0" onmousedown="handlePan(0,1)"/>
  <use id="arrowleft" xlink:href="#arrowLeft" x="0" y="0" onmousedown="handlePan(-1,0)"/>
</g>
<svg viewBox="0 0 15 15" width="100%" height="30px" preserveAspectRatio="xMaxYMin meet">
 <g id="arrow_out" transform="scale(0.3 0.3)">
  <a xlink:href="BondedInteractions_8hpp__dep__incl_org.svg" target="_base">
   <rect id="button" ry="5" rx="5" y="6" x="6" height="38" width="38"
        fill="#f2f5e9" fill-opacity="0.5" stroke="#606060" stroke-width="1.0"/>
   <path id="arrow"
     d="M 11.500037,31.436501 C 11.940474,20.09759 22.043105,11.32322 32.158766,21.979434 L 37.068811,17.246167 C 37.068811,17.246167 37.088388,32 37.088388,32 L 22.160133,31.978069 C 22.160133,31.978069 26.997745,27.140456 26.997745,27.140456 C 18.528582,18.264221 13.291696,25.230495 11.500037,31.436501 z"
     style="fill:#404040;"/>
  </a>
 </g>
</svg>

<style type='text/css'>
<![CDATA[
[data-mouse-over-selected='false'] { opacity: 0.7; }
[data-mouse-over-selected='true']  { opacity: 1.0; }
]]>
</style>
<script type="application/ecmascript"><![CDATA[
document.addEventListener('DOMContentLoaded', (event) => {
  highlightEdges();
  highlightAdjacentNodes();
});
]]></script>
</svg>
