<?xml version="1.0" encoding="UTF-8" standalone="no"?>
<!DOCTYPE svg PUBLIC "-//W3C//DTD SVG 1.1//EN"
 "http://www.w3.org/Graphics/SVG/1.1/DTD/svg11.dtd">
<!-- Generated by graphviz version 2.43.0 (0)
 -->
<!-- Title: boundary.hpp Pages: 1 -->
<svg width="1639pt" height="445pt"
 viewBox="0.00 0.00 1639.00 445.00" xmlns="http://www.w3.org/2000/svg" xmlns:xlink="http://www.w3.org/1999/xlink">
<g id="graph0" class="graph" transform="scale(1 1) rotate(0) translate(4 441)">
<title>boundary.hpp</title>
<!-- Node1 -->
<g id="Node000001" class="node">
<title>Node1</title>
<g id="a_Node000001"><a xlink:title=" ">
<polygon fill="#999999" stroke="#666666" points="1471,-437 1389,-437 1389,-418 1471,-418 1471,-437"/>
<text text-anchor="middle" x="1430" y="-425" font-family="Helvetica,sans-Serif" font-size="10.00">boundary.hpp</text>
</a>
</g>
</g>
<!-- Node2 -->
<g id="Node000002" class="node">
<title>Node2</title>
<g id="a_Node000002"><a xlink:href="types__conversion_8hpp.html" target="_top" xlink:title=" ">
<polygon fill="white" stroke="#666666" points="713.5,-382 590.5,-382 590.5,-363 713.5,-363 713.5,-382"/>
<text text-anchor="middle" x="652" y="-370" font-family="Helvetica,sans-Serif" font-size="10.00">types_conversion.hpp</text>
</a>
</g>
</g>
<!-- Node1&#45;&gt;Node2 -->
<g id="edge1_Node000001_Node000002" class="edge">
<title>Node1&#45;&gt;Node2</title>
<g id="a_edge1_Node000001_Node000002"><a xlink:title=" ">
<path fill="none" stroke="#63b8ff" d="M1388.99,-423.71C1263.49,-415.16 883.46,-389.27 723.83,-378.39"/>
<polygon fill="#63b8ff" stroke="#63b8ff" points="723.85,-374.89 713.64,-377.7 723.37,-381.87 723.85,-374.89"/>
</a>
</g>
</g>
<!-- Node7 -->
<g id="Node000007" class="node">
<title>Node7</title>
<g id="a_Node000007"><a xlink:href="Vector_8hpp.html" target="_top" xlink:title="Vector implementation and trait types for boost qvm interoperability.">
<polygon fill="white" stroke="#666666" points="900,-206 808,-206 808,-187 900,-187 900,-206"/>
<text text-anchor="middle" x="854" y="-194" font-family="Helvetica,sans-Serif" font-size="10.00">utils/Vector.hpp</text>
</a>
</g>
</g>
<!-- Node1&#45;&gt;Node7 -->
<g id="edge61_Node000001_Node000007" class="edge">
<title>Node1&#45;&gt;Node7</title>
<g id="a_edge61_Node000001_Node000007"><a xlink:title=" ">
<path fill="none" stroke="#63b8ff" d="M1408.47,-417.94C1320.62,-383.01 988.98,-251.16 885.23,-209.91"/>
<polygon fill="#63b8ff" stroke="#63b8ff" points="886.22,-206.54 875.64,-206.1 883.64,-213.05 886.22,-206.54"/>
</a>
</g>
</g>
<!-- Node12 -->
<g id="Node000012" class="node">
<title>Node12</title>
<g id="a_Node000012"><a xlink:title=" ">
<polygon fill="#e0e0e0" stroke="#999999" points="125,-24.5 73,-24.5 73,-5.5 125,-5.5 125,-24.5"/>
<text text-anchor="middle" x="99" y="-12.5" font-family="Helvetica,sans-Serif" font-size="10.00">cassert</text>
</a>
</g>
</g>
<!-- Node1&#45;&gt;Node12 -->
<g id="edge62_Node000001_Node000012" class="edge">
<title>Node1&#45;&gt;Node12</title>
<g id="a_edge62_Node000001_Node000012"><a xlink:title=" ">
<path fill="none" stroke="#63b8ff" d="M1388.75,-425.44C1154.28,-419.16 0,-384.6 0,-313 0,-313 0,-313 0,-140.5 0,-91.7 47.18,-50.95 76.4,-30.38"/>
<polygon fill="#63b8ff" stroke="#63b8ff" points="78.51,-33.18 84.82,-24.67 74.58,-27.39 78.51,-33.18"/>
</a>
</g>
</g>
<!-- Node22 -->
<g id="Node000022" class="node">
<title>Node22</title>
<g id="a_Node000022"><a xlink:title=" ">
<polygon fill="#e0e0e0" stroke="#999999" points="1284.5,-24.5 1231.5,-24.5 1231.5,-5.5 1284.5,-5.5 1284.5,-24.5"/>
<text text-anchor="middle" x="1258" y="-12.5" font-family="Helvetica,sans-Serif" font-size="10.00">cstddef</text>
</a>
</g>
</g>
<!-- Node1&#45;&gt;Node22 -->
<g id="edge63_Node000001_Node000022" class="edge">
<title>Node1&#45;&gt;Node22</title>
<g id="a_edge63_Node000001_Node000022"><a xlink:title=" ">
<path fill="none" stroke="#63b8ff" d="M1471.16,-421.74C1529.97,-412.39 1631,-385.74 1631,-313 1631,-313 1631,-313 1631,-140.5 1631,-82.92 1578.06,-88.36 1525,-66 1447.35,-33.27 1348.01,-21.87 1295.1,-17.97"/>
<polygon fill="#63b8ff" stroke="#63b8ff" points="1295.06,-14.46 1284.84,-17.27 1294.58,-21.44 1295.06,-14.46"/>
</a>
</g>
</g>
<!-- Node24 -->
<g id="Node000024" class="node">
<title>Node24</title>
<g id="a_Node000024"><a xlink:title=" ">
<polygon fill="#e0e0e0" stroke="#999999" points="1515.5,-90.5 1462.5,-90.5 1462.5,-71.5 1515.5,-71.5 1515.5,-90.5"/>
<text text-anchor="middle" x="1489" y="-78.5" font-family="Helvetica,sans-Serif" font-size="10.00">iterator</text>
</a>
</g>
</g>
<!-- Node1&#45;&gt;Node24 -->
<g id="edge64_Node000001_Node000024" class="edge">
<title>Node1&#45;&gt;Node24</title>
<g id="a_edge64_Node000001_Node000024"><a xlink:title=" ">
<path fill="none" stroke="#63b8ff" d="M1467.81,-417.96C1515.96,-404.58 1593,-373.69 1593,-313 1593,-313 1593,-313 1593,-195.5 1593,-166.04 1592.18,-155.18 1574,-132 1560.81,-115.17 1540.26,-102.87 1522.67,-94.67"/>
<polygon fill="#63b8ff" stroke="#63b8ff" points="1523.84,-91.36 1513.27,-90.54 1521.02,-97.77 1523.84,-91.36"/>
</a>
</g>
</g>
<!-- Node38 -->
<g id="Node000038" class="node">
<title>Node38</title>
<g id="a_Node000038"><a xlink:title=" ">
<polygon fill="#e0e0e0" stroke="#999999" points="1564.5,-151 1517.5,-151 1517.5,-132 1564.5,-132 1564.5,-151"/>
<text text-anchor="middle" x="1541" y="-139" font-family="Helvetica,sans-Serif" font-size="10.00">vector</text>
</a>
</g>
</g>
<!-- Node1&#45;&gt;Node38 -->
<g id="edge65_Node000001_Node000038" class="edge">
<title>Node1&#45;&gt;Node38</title>
<g id="a_edge65_Node000001_Node000038"><a xlink:title=" ">
<path fill="none" stroke="#63b8ff" d="M1452.93,-417.91C1489.01,-402.73 1555,-367.52 1555,-313 1555,-313 1555,-313 1555,-250.5 1555,-218.93 1549.04,-182.59 1544.9,-161.14"/>
<polygon fill="#63b8ff" stroke="#63b8ff" points="1548.29,-160.24 1542.89,-151.13 1541.43,-161.62 1548.29,-160.24"/>
</a>
</g>
</g>
<!-- Node45 -->
<g id="Node000045" class="node">
<title>Node45</title>
<g id="a_Node000045"><a xlink:href="walberla__bridge_2include_2walberla__bridge_2LatticeWalberla_8hpp.html" target="_top" xlink:title=" ">
<polygon fill="white" stroke="#666666" points="1527,-261 1333,-261 1333,-242 1527,-242 1527,-261"/>
<text text-anchor="middle" x="1430" y="-249" font-family="Helvetica,sans-Serif" font-size="10.00">walberla_bridge/LatticeWalberla.hpp</text>
</a>
</g>
</g>
<!-- Node1&#45;&gt;Node45 -->
<g id="edge57_Node000001_Node000045" class="edge">
<title>Node1&#45;&gt;Node45</title>
<g id="a_edge57_Node000001_Node000045"><a xlink:title=" ">
<path fill="none" stroke="#63b8ff" d="M1430,-417.63C1430,-390.64 1430,-309.03 1430,-271.61"/>
<polygon fill="#63b8ff" stroke="#63b8ff" points="1433.5,-271.14 1430,-261.14 1426.5,-271.14 1433.5,-271.14"/>
</a>
</g>
</g>
<!-- Node3 -->
<g id="Node000003" class="node">
<title>Node3</title>
<g id="a_Node000003"><a xlink:title=" ">
<polygon fill="#e0e0e0" stroke="#999999" points="895.5,-321.5 794.5,-321.5 794.5,-302.5 895.5,-302.5 895.5,-321.5"/>
<text text-anchor="middle" x="845" y="-309.5" font-family="Helvetica,sans-Serif" font-size="10.00">core/DataTypes.h</text>
</a>
</g>
</g>
<!-- Node2&#45;&gt;Node3 -->
<g id="edge2_Node000002_Node000003" class="edge">
<title>Node2&#45;&gt;Node3</title>
<g id="a_edge2_Node000002_Node000003"><a xlink:title=" ">
<path fill="none" stroke="#63b8ff" d="M680.06,-362.99C713.51,-352.86 769.56,-335.87 806.9,-324.55"/>
<polygon fill="#63b8ff" stroke="#63b8ff" points="808.35,-327.77 816.9,-321.52 806.32,-321.07 808.35,-327.77"/>
</a>
</g>
</g>
<!-- Node4 -->
<g id="Node000004" class="node">
<title>Node4</title>
<g id="a_Node000004"><a xlink:title=" ">
<polygon fill="#e0e0e0" stroke="#999999" points="509.5,-321.5 420.5,-321.5 420.5,-302.5 509.5,-302.5 509.5,-321.5"/>
<text text-anchor="middle" x="465" y="-309.5" font-family="Helvetica,sans-Serif" font-size="10.00">core/cell/Cell.h</text>
</a>
</g>
</g>
<!-- Node2&#45;&gt;Node4 -->
<g id="edge3_Node000002_Node000004" class="edge">
<title>Node2&#45;&gt;Node4</title>
<g id="a_edge3_Node000002_Node000004"><a xlink:title=" ">
<path fill="none" stroke="#63b8ff" d="M624.81,-362.99C592.4,-352.86 538.1,-335.87 501.92,-324.55"/>
<polygon fill="#63b8ff" stroke="#63b8ff" points="502.81,-321.16 492.22,-321.52 500.72,-327.84 502.81,-321.16"/>
</a>
</g>
</g>
<!-- Node5 -->
<g id="Node000005" class="node">
<title>Node5</title>
<g id="a_Node000005"><a xlink:title=" ">
<polygon fill="#e0e0e0" stroke="#999999" points="643,-321.5 527,-321.5 527,-302.5 643,-302.5 643,-321.5"/>
<text text-anchor="middle" x="585" y="-309.5" font-family="Helvetica,sans-Serif" font-size="10.00">core/math/Matrix3.h</text>
</a>
</g>
</g>
<!-- Node2&#45;&gt;Node5 -->
<g id="edge4_Node000002_Node000005" class="edge">
<title>Node2&#45;&gt;Node5</title>
<g id="a_edge4_Node000002_Node000005"><a xlink:title=" ">
<path fill="none" stroke="#63b8ff" d="M642.11,-362.87C631.72,-353.8 615.16,-339.34 602.55,-328.32"/>
<polygon fill="#63b8ff" stroke="#63b8ff" points="604.76,-325.61 594.93,-321.67 600.16,-330.88 604.76,-325.61"/>
</a>
</g>
</g>
<!-- Node6 -->
<g id="Node000006" class="node">
<title>Node6</title>
<g id="a_Node000006"><a xlink:title=" ">
<polygon fill="#e0e0e0" stroke="#999999" points="776.5,-321.5 661.5,-321.5 661.5,-302.5 776.5,-302.5 776.5,-321.5"/>
<text text-anchor="middle" x="719" y="-309.5" font-family="Helvetica,sans-Serif" font-size="10.00">core/math/Vector3.h</text>
</a>
</g>
</g>
<!-- Node2&#45;&gt;Node6 -->
<g id="edge5_Node000002_Node000006" class="edge">
<title>Node2&#45;&gt;Node6</title>
<g id="a_edge5_Node000002_Node000006"><a xlink:title=" ">
<path fill="none" stroke="#63b8ff" d="M661.89,-362.87C672.28,-353.8 688.84,-339.34 701.45,-328.32"/>
<polygon fill="#63b8ff" stroke="#63b8ff" points="703.84,-330.88 709.07,-321.67 699.24,-325.61 703.84,-330.88"/>
</a>
</g>
</g>
<!-- Node2&#45;&gt;Node7 -->
<g id="edge6_Node000002_Node000007" class="edge">
<title>Node2&#45;&gt;Node7</title>
<g id="a_edge6_Node000002_Node000007"><a xlink:title=" ">
<path fill="none" stroke="#63b8ff" d="M713.55,-369.41C780.18,-365.7 880.16,-355.42 904,-327 932.79,-292.68 893.41,-239.92 869.68,-213.6"/>
<polygon fill="#63b8ff" stroke="#63b8ff" points="872.01,-210.97 862.63,-206.04 866.89,-215.74 872.01,-210.97"/>
</a>
</g>
</g>
<!-- Node37 -->
<g id="Node000037" class="node">
<title>Node37</title>
<g id="a_Node000037"><a xlink:title=" ">
<polygon fill="#e0e0e0" stroke="#999999" points="305.5,-151 236.5,-151 236.5,-132 305.5,-132 305.5,-151"/>
<text text-anchor="middle" x="271" y="-139" font-family="Helvetica,sans-Serif" font-size="10.00">type_traits</text>
</a>
</g>
</g>
<!-- Node2&#45;&gt;Node37 -->
<g id="edge56_Node000002_Node000037" class="edge">
<title>Node2&#45;&gt;Node37</title>
<g id="a_edge56_Node000002_Node000037"><a xlink:title=" ">
<path fill="none" stroke="#63b8ff" d="M590.23,-368.05C492.37,-361.99 310.61,-348.02 290,-327 246.07,-282.2 258.01,-198.72 266.21,-161.39"/>
<polygon fill="#63b8ff" stroke="#63b8ff" points="269.69,-161.91 268.58,-151.38 262.87,-160.31 269.69,-161.91"/>
</a>
</g>
</g>
<!-- Node39 -->
<g id="Node000039" class="node">
<title>Node39</title>
<g id="a_Node000039"><a xlink:href="bspline__3d_8hpp.html" target="_top" xlink:title=" ">
<polygon fill="white" stroke="#666666" points="402.5,-327 299.5,-327 299.5,-297 402.5,-297 402.5,-327"/>
<text text-anchor="start" x="307.5" y="-315" font-family="Helvetica,sans-Serif" font-size="10.00">utils/interpolation</text>
<text text-anchor="middle" x="351" y="-304" font-family="Helvetica,sans-Serif" font-size="10.00">/bspline_3d.hpp</text>
</a>
</g>
</g>
<!-- Node2&#45;&gt;Node39 -->
<g id="edge43_Node000002_Node000039" class="edge">
<title>Node2&#45;&gt;Node39</title>
<g id="a_edge43_Node000002_Node000039"><a xlink:title=" ">
<path fill="none" stroke="#63b8ff" d="M602.02,-362.97C555.38,-354.86 483.61,-341.97 412.68,-327.3"/>
<polygon fill="#63b8ff" stroke="#63b8ff" points="413.18,-323.83 402.68,-325.22 411.75,-330.68 413.18,-323.83"/>
</a>
</g>
</g>
<!-- Node8 -->
<g id="Node000008" class="node">
<title>Node8</title>
<g id="a_Node000008"><a xlink:title=" ">
<polygon fill="#e0e0e0" stroke="#999999" points="1263,-151 1113,-151 1113,-132 1263,-132 1263,-151"/>
<text text-anchor="middle" x="1188" y="-139" font-family="Helvetica,sans-Serif" font-size="10.00">boost/qvm/deduce_vec.hpp</text>
</a>
</g>
</g>
<!-- Node7&#45;&gt;Node8 -->
<g id="edge7_Node000007_Node000008" class="edge">
<title>Node7&#45;&gt;Node8</title>
<g id="a_edge7_Node000007_Node000008"><a xlink:title=" ">
<path fill="none" stroke="#63b8ff" d="M900.09,-188.19C958.27,-178.95 1058.65,-163.03 1124.18,-152.63"/>
<polygon fill="#63b8ff" stroke="#63b8ff" points="1125.05,-156.03 1134.38,-151.01 1123.96,-149.12 1125.05,-156.03"/>
</a>
</g>
</g>
<!-- Node9 -->
<g id="Node000009" class="node">
<title>Node9</title>
<g id="a_Node000009"><a xlink:title=" ">
<polygon fill="#e0e0e0" stroke="#999999" points="1095,-151 955,-151 955,-132 1095,-132 1095,-151"/>
<text text-anchor="middle" x="1025" y="-139" font-family="Helvetica,sans-Serif" font-size="10.00">boost/qvm/vec_traits.hpp</text>
</a>
</g>
</g>
<!-- Node7&#45;&gt;Node9 -->
<g id="edge8_Node000007_Node000009" class="edge">
<title>Node7&#45;&gt;Node9</title>
<g id="a_edge8_Node000007_Node000009"><a xlink:title=" ">
<path fill="none" stroke="#63b8ff" d="M881.47,-186.98C910.18,-178.09 955.42,-164.07 987.42,-154.15"/>
<polygon fill="#63b8ff" stroke="#63b8ff" points="988.8,-157.39 997.31,-151.08 986.72,-150.7 988.8,-157.39"/>
</a>
</g>
</g>
<!-- Node10 -->
<g id="Node000010" class="node">
<title>Node10</title>
<g id="a_Node000010"><a xlink:href="Array_8hpp.html" target="_top" xlink:title="Array implementation with CUDA support.">
<polygon fill="white" stroke="#666666" points="597,-151 511,-151 511,-132 597,-132 597,-151"/>
<text text-anchor="middle" x="554" y="-139" font-family="Helvetica,sans-Serif" font-size="10.00">utils/Array.hpp</text>
</a>
</g>
</g>
<!-- Node7&#45;&gt;Node10 -->
<g id="edge9_Node000007_Node000010" class="edge">
<title>Node7&#45;&gt;Node10</title>
<g id="a_edge9_Node000007_Node000010"><a xlink:title=" ">
<path fill="none" stroke="#63b8ff" d="M807.78,-187.33C753.67,-177.77 664.21,-161.97 607.24,-151.91"/>
<polygon fill="#63b8ff" stroke="#63b8ff" points="607.8,-148.45 597.35,-150.16 606.58,-155.34 607.8,-148.45"/>
</a>
</g>
</g>
<!-- Node7&#45;&gt;Node12 -->
<g id="edge31_Node000007_Node000012" class="edge">
<title>Node7&#45;&gt;Node12</title>
<g id="a_edge31_Node000007_Node000012"><a xlink:title=" ">
<path fill="none" stroke="#63b8ff" d="M807.82,-196.05C727.13,-195.85 555.94,-190.3 418,-151 399.46,-145.72 396.87,-139.24 379,-132 331.32,-112.69 316.58,-115.56 269,-96 241.42,-84.67 235.91,-78.84 209,-66 181.62,-52.94 150.08,-38.68 127.81,-28.74"/>
<polygon fill="#63b8ff" stroke="#63b8ff" points="129.13,-25.5 118.57,-24.63 126.29,-31.9 129.13,-25.5"/>
</a>
</g>
</g>
<!-- Node7&#45;&gt;Node22 -->
<g id="edge34_Node000007_Node000022" class="edge">
<title>Node7&#45;&gt;Node22</title>
<g id="a_edge34_Node000007_Node000022"><a xlink:title=" ">
<path fill="none" stroke="#63b8ff" d="M807.79,-195.9C732.7,-195.01 597.04,-186.18 644,-132 680.91,-89.42 839.47,-105.58 895,-96 1041.11,-70.8 1079.72,-71.69 1222,-30 1223.93,-29.43 1225.9,-28.81 1227.88,-28.15"/>
<polygon fill="#63b8ff" stroke="#63b8ff" points="1229.44,-31.31 1237.65,-24.61 1227.06,-24.72 1229.44,-31.31"/>
</a>
</g>
</g>
<!-- Node7&#45;&gt;Node24 -->
<g id="edge37_Node000007_Node000024" class="edge">
<title>Node7&#45;&gt;Node24</title>
<g id="a_edge37_Node000007_Node000024"><a xlink:title=" ">
<path fill="none" stroke="#63b8ff" d="M900.11,-194.02C1028.76,-189.59 1385.27,-175.25 1432,-151 1453.7,-139.74 1470.26,-116.26 1479.8,-99.83"/>
<polygon fill="#63b8ff" stroke="#63b8ff" points="1483.07,-101.13 1484.81,-90.68 1476.94,-97.77 1483.07,-101.13"/>
</a>
</g>
</g>
<!-- Node29 -->
<g id="Node000029" class="node">
<title>Node29</title>
<g id="a_Node000029"><a xlink:title=" ">
<polygon fill="#e0e0e0" stroke="#999999" points="1345,-151 1281,-151 1281,-132 1345,-132 1345,-151"/>
<text text-anchor="middle" x="1313" y="-139" font-family="Helvetica,sans-Serif" font-size="10.00">algorithm</text>
</a>
</g>
</g>
<!-- Node7&#45;&gt;Node29 -->
<g id="edge30_Node000007_Node000029" class="edge">
<title>Node7&#45;&gt;Node29</title>
<g id="a_edge30_Node000007_Node000029"><a xlink:title=" ">
<path fill="none" stroke="#63b8ff" d="M900.27,-192.07C975.76,-186.15 1130.25,-172.67 1270.74,-151.05"/>
<polygon fill="#63b8ff" stroke="#63b8ff" points="1271.48,-154.48 1280.83,-149.48 1270.41,-147.56 1271.48,-154.48"/>
</a>
</g>
</g>
<!-- Node30 -->
<g id="Node000030" class="node">
<title>Node30</title>
<g id="a_Node000030"><a xlink:title=" ">
<polygon fill="#e0e0e0" stroke="#999999" points="370.5,-151 323.5,-151 323.5,-132 370.5,-132 370.5,-151"/>
<text text-anchor="middle" x="347" y="-139" font-family="Helvetica,sans-Serif" font-size="10.00">cmath</text>
</a>
</g>
</g>
<!-- Node7&#45;&gt;Node30 -->
<g id="edge32_Node000007_Node000030" class="edge">
<title>Node7&#45;&gt;Node30</title>
<g id="a_edge32_Node000007_Node000030"><a xlink:title=" ">
<path fill="none" stroke="#63b8ff" d="M807.82,-193.05C723.45,-188.13 538.88,-175.41 385,-151 383.54,-150.77 382.05,-150.51 380.55,-150.24"/>
<polygon fill="#63b8ff" stroke="#63b8ff" points="381.12,-146.79 370.63,-148.27 379.75,-153.65 381.12,-146.79"/>
</a>
</g>
</g>
<!-- Node31 -->
<g id="Node000031" class="node">
<title>Node31</title>
<g id="a_Node000031"><a xlink:title=" ">
<polygon fill="#e0e0e0" stroke="#999999" points="1423,-151 1363,-151 1363,-132 1423,-132 1423,-151"/>
<text text-anchor="middle" x="1393" y="-139" font-family="Helvetica,sans-Serif" font-size="10.00">concepts</text>
</a>
</g>
</g>
<!-- Node7&#45;&gt;Node31 -->
<g id="edge33_Node000007_Node000031" class="edge">
<title>Node7&#45;&gt;Node31</title>
<g id="a_edge33_Node000007_Node000031"><a xlink:title=" ">
<path fill="none" stroke="#63b8ff" d="M900.07,-193.34C986.81,-188.86 1180.39,-176.85 1352.82,-150.99"/>
<polygon fill="#63b8ff" stroke="#63b8ff" points="1353.48,-154.43 1362.84,-149.47 1352.42,-147.51 1353.48,-154.43"/>
</a>
</g>
</g>
<!-- Node32 -->
<g id="Node000032" class="node">
<title>Node32</title>
<g id="a_Node000032"><a xlink:title=" ">
<polygon fill="#e0e0e0" stroke="#999999" points="492.5,-151 427.5,-151 427.5,-132 492.5,-132 492.5,-151"/>
<text text-anchor="middle" x="460" y="-139" font-family="Helvetica,sans-Serif" font-size="10.00">functional</text>
</a>
</g>
</g>
<!-- Node7&#45;&gt;Node32 -->
<g id="edge35_Node000007_Node000032" class="edge">
<title>Node7&#45;&gt;Node32</title>
<g id="a_edge35_Node000007_Node000032"><a xlink:title=" ">
<path fill="none" stroke="#63b8ff" d="M808,-190.78C742.53,-183.83 618.54,-169.76 502.63,-150.98"/>
<polygon fill="#63b8ff" stroke="#63b8ff" points="502.95,-147.49 492.52,-149.33 501.82,-154.4 502.95,-147.49"/>
</a>
</g>
</g>
<!-- Node33 -->
<g id="Node000033" class="node">
<title>Node33</title>
<g id="a_Node000033"><a xlink:title=" ">
<polygon fill="#e0e0e0" stroke="#999999" points="736.5,-151 653.5,-151 653.5,-132 736.5,-132 736.5,-151"/>
<text text-anchor="middle" x="695" y="-139" font-family="Helvetica,sans-Serif" font-size="10.00">initializer_list</text>
</a>
</g>
</g>
<!-- Node7&#45;&gt;Node33 -->
<g id="edge36_Node000007_Node000033" class="edge">
<title>Node7&#45;&gt;Node33</title>
<g id="a_edge36_Node000007_Node000033"><a xlink:title=" ">
<path fill="none" stroke="#63b8ff" d="M828.45,-186.98C801.88,-178.13 760.06,-164.19 730.33,-154.28"/>
<polygon fill="#63b8ff" stroke="#63b8ff" points="731.34,-150.92 720.75,-151.08 729.13,-157.56 731.34,-150.92"/>
</a>
</g>
</g>
<!-- Node34 -->
<g id="Node000034" class="node">
<title>Node34</title>
<g id="a_Node000034"><a xlink:title=" ">
<polygon fill="#e0e0e0" stroke="#999999" points="811,-151 755,-151 755,-132 811,-132 811,-151"/>
<text text-anchor="middle" x="783" y="-139" font-family="Helvetica,sans-Serif" font-size="10.00">numeric</text>
</a>
</g>
</g>
<!-- Node7&#45;&gt;Node34 -->
<g id="edge38_Node000007_Node000034" class="edge">
<title>Node7&#45;&gt;Node34</title>
<g id="a_edge38_Node000007_Node000034"><a xlink:title=" ">
<path fill="none" stroke="#63b8ff" d="M842.59,-186.98C831.89,-179 815.66,-166.88 802.84,-157.31"/>
<polygon fill="#63b8ff" stroke="#63b8ff" points="804.72,-154.35 794.61,-151.17 800.53,-159.96 804.72,-154.35"/>
</a>
</g>
</g>
<!-- Node35 -->
<g id="Node000035" class="node">
<title>Node35</title>
<g id="a_Node000035"><a xlink:title=" ">
<polygon fill="#e0e0e0" stroke="#999999" points="879,-151 829,-151 829,-132 879,-132 879,-151"/>
<text text-anchor="middle" x="854" y="-139" font-family="Helvetica,sans-Serif" font-size="10.00">ranges</text>
</a>
</g>
</g>
<!-- Node7&#45;&gt;Node35 -->
<g id="edge39_Node000007_Node000035" class="edge">
<title>Node7&#45;&gt;Node35</title>
<g id="a_edge39_Node000007_Node000035"><a xlink:title=" ">
<path fill="none" stroke="#63b8ff" d="M854,-186.75C854,-179.8 854,-169.85 854,-161.13"/>
<polygon fill="#63b8ff" stroke="#63b8ff" points="857.5,-161.09 854,-151.09 850.5,-161.09 857.5,-161.09"/>
</a>
</g>
</g>
<!-- Node36 -->
<g id="Node000036" class="node">
<title>Node36</title>
<g id="a_Node000036"><a xlink:title=" ">
<polygon fill="#e0e0e0" stroke="#999999" points="937,-151 897,-151 897,-132 937,-132 937,-151"/>
<text text-anchor="middle" x="917" y="-139" font-family="Helvetica,sans-Serif" font-size="10.00">span</text>
</a>
</g>
</g>
<!-- Node7&#45;&gt;Node36 -->
<g id="edge40_Node000007_Node000036" class="edge">
<title>Node7&#45;&gt;Node36</title>
<g id="a_edge40_Node000007_Node000036"><a xlink:title=" ">
<path fill="none" stroke="#63b8ff" d="M864.12,-186.98C873.44,-179.15 887.47,-167.34 898.74,-157.86"/>
<polygon fill="#63b8ff" stroke="#63b8ff" points="901.29,-160.29 906.69,-151.17 896.79,-154.93 901.29,-160.29"/>
</a>
</g>
</g>
<!-- Node7&#45;&gt;Node37 -->
<g id="edge41_Node000007_Node000037" class="edge">
<title>Node7&#45;&gt;Node37</title>
<g id="a_edge41_Node000007_Node000037"><a xlink:title=" ">
<path fill="none" stroke="#63b8ff" d="M807.94,-193.46C716.1,-189.02 503.55,-176.83 315.73,-151.1"/>
<polygon fill="#63b8ff" stroke="#63b8ff" points="316.06,-147.61 305.68,-149.7 315.1,-154.54 316.06,-147.61"/>
</a>
</g>
</g>
<!-- Node7&#45;&gt;Node38 -->
<g id="edge42_Node000007_Node000038" class="edge">
<title>Node7&#45;&gt;Node38</title>
<g id="a_edge42_Node000007_Node000038"><a xlink:title=" ">
<path fill="none" stroke="#63b8ff" d="M900.29,-194.73C1007.06,-192.43 1278.63,-183.59 1503,-151 1504.46,-150.79 1505.95,-150.55 1507.46,-150.29"/>
<polygon fill="#63b8ff" stroke="#63b8ff" points="1508.24,-153.71 1517.39,-148.36 1506.9,-146.83 1508.24,-153.71"/>
</a>
</g>
</g>
<!-- Node11 -->
<g id="Node000011" class="node">
<title>Node11</title>
<g id="a_Node000011"><a xlink:href="device__qualifier_8hpp.html" target="_top" xlink:title=" ">
<polygon fill="white" stroke="#666666" points="200,-90.5 86,-90.5 86,-71.5 200,-71.5 200,-90.5"/>
<text text-anchor="middle" x="143" y="-78.5" font-family="Helvetica,sans-Serif" font-size="10.00">device_qualifier.hpp</text>
</a>
</g>
</g>
<!-- Node10&#45;&gt;Node11 -->
<g id="edge10_Node000010_Node000011" class="edge">
<title>Node10&#45;&gt;Node11</title>
<g id="a_edge10_Node000010_Node000011"><a xlink:title=" ">
<path fill="none" stroke="#63b8ff" d="M510.91,-133.51C507.56,-132.99 504.23,-132.48 501,-132 399.85,-116.83 282.39,-100.71 210.38,-91"/>
<polygon fill="#63b8ff" stroke="#63b8ff" points="210.47,-87.48 200.09,-89.61 209.54,-94.41 210.47,-87.48"/>
</a>
</g>
</g>
<!-- Node10&#45;&gt;Node12 -->
<g id="edge23_Node000010_Node000012" class="edge">
<title>Node10&#45;&gt;Node12</title>
<g id="a_edge23_Node000010_Node000012"><a xlink:title=" ">
<path fill="none" stroke="#63b8ff" d="M510.82,-133.47C476.98,-126.85 429.36,-115.06 391,-96 371.42,-86.27 372.06,-74.71 352,-66 261.93,-26.89 228.59,-56.39 134,-30 132.06,-29.46 130.08,-28.85 128.1,-28.19"/>
<polygon fill="#63b8ff" stroke="#63b8ff" points="128.96,-24.77 118.36,-24.61 126.55,-31.34 128.96,-24.77"/>
</a>
</g>
</g>
<!-- Node13 -->
<g id="Node000013" class="node">
<title>Node13</title>
<g id="a_Node000013"><a xlink:href="array_8hpp.html" target="_top" xlink:title=" ">
<polygon fill="white" stroke="#666666" points="784.5,-90.5 659.5,-90.5 659.5,-71.5 784.5,-71.5 784.5,-90.5"/>
<text text-anchor="middle" x="722" y="-78.5" font-family="Helvetica,sans-Serif" font-size="10.00">serialization/array.hpp</text>
</a>
</g>
</g>
<!-- Node10&#45;&gt;Node13 -->
<g id="edge12_Node000010_Node000013" class="edge">
<title>Node10&#45;&gt;Node13</title>
<g id="a_edge12_Node000010_Node000013"><a xlink:title=" ">
<path fill="none" stroke="#63b8ff" d="M578.43,-131.99C607.29,-121.94 655.5,-105.16 688,-93.84"/>
<polygon fill="#63b8ff" stroke="#63b8ff" points="689.25,-97.11 697.54,-90.52 686.95,-90.5 689.25,-97.11"/>
</a>
</g>
</g>
<!-- Node10&#45;&gt;Node22 -->
<g id="edge24_Node000010_Node000022" class="edge">
<title>Node10&#45;&gt;Node22</title>
<g id="a_edge24_Node000010_Node000022"><a xlink:title=" ">
<path fill="none" stroke="#63b8ff" d="M597.18,-133.59C661.13,-123.18 775.39,-103.86 793,-96 812.97,-87.09 811.64,-73.99 832,-66 994.05,-2.43 1052.57,-69.93 1222,-30 1224.37,-29.44 1226.79,-28.76 1229.2,-28"/>
<polygon fill="#63b8ff" stroke="#63b8ff" points="1230.63,-31.21 1238.88,-24.57 1228.29,-24.61 1230.63,-31.21"/>
</a>
</g>
</g>
<!-- Node23 -->
<g id="Node000023" class="node">
<title>Node23</title>
<g id="a_Node000023"><a xlink:title=" ">
<polygon fill="#e0e0e0" stroke="#999999" points="507.5,-96 400.5,-96 400.5,-66 507.5,-66 507.5,-96"/>
<text text-anchor="start" x="408.5" y="-84" font-family="Helvetica,sans-Serif" font-size="10.00">boost/serialization</text>
<text text-anchor="middle" x="454" y="-73" font-family="Helvetica,sans-Serif" font-size="10.00">/access.hpp</text>
</a>
</g>
</g>
<!-- Node10&#45;&gt;Node23 -->
<g id="edge22_Node000010_Node000023" class="edge">
<title>Node10&#45;&gt;Node23</title>
<g id="a_edge22_Node000010_Node000023"><a xlink:title=" ">
<path fill="none" stroke="#63b8ff" d="M539.24,-131.87C525.55,-123.86 504.68,-111.65 487.02,-101.31"/>
<polygon fill="#63b8ff" stroke="#63b8ff" points="488.53,-98.14 478.13,-96.11 484.99,-104.19 488.53,-98.14"/>
</a>
</g>
</g>
<!-- Node10&#45;&gt;Node24 -->
<g id="edge25_Node000010_Node000024" class="edge">
<title>Node10&#45;&gt;Node24</title>
<g id="a_edge25_Node000010_Node000024"><a xlink:title=" ">
<path fill="none" stroke="#63b8ff" d="M597.01,-136.13C611.88,-134.7 628.66,-133.18 644,-132 956.24,-108.02 1334.17,-89.32 1452.07,-83.72"/>
<polygon fill="#63b8ff" stroke="#63b8ff" points="1452.51,-87.2 1462.34,-83.24 1452.18,-80.21 1452.51,-87.2"/>
</a>
</g>
</g>
<!-- Node25 -->
<g id="Node000025" class="node">
<title>Node25</title>
<g id="a_Node000025"><a xlink:title=" ">
<polygon fill="#e0e0e0" stroke="#999999" points="582.5,-90.5 525.5,-90.5 525.5,-71.5 582.5,-71.5 582.5,-90.5"/>
<text text-anchor="middle" x="554" y="-78.5" font-family="Helvetica,sans-Serif" font-size="10.00">ostream</text>
</a>
</g>
</g>
<!-- Node10&#45;&gt;Node25 -->
<g id="edge26_Node000010_Node000025" class="edge">
<title>Node10&#45;&gt;Node25</title>
<g id="a_edge26_Node000010_Node000025"><a xlink:title=" ">
<path fill="none" stroke="#63b8ff" d="M554,-131.87C554,-123.75 554,-111.31 554,-100.89"/>
<polygon fill="#63b8ff" stroke="#63b8ff" points="557.5,-100.67 554,-90.67 550.5,-100.67 557.5,-100.67"/>
</a>
</g>
</g>
<!-- Node26 -->
<g id="Node000026" class="node">
<title>Node26</title>
<g id="a_Node000026"><a xlink:title=" ">
<polygon fill="#e0e0e0" stroke="#999999" points="343.5,-90.5 278.5,-90.5 278.5,-71.5 343.5,-71.5 343.5,-90.5"/>
<text text-anchor="middle" x="311" y="-78.5" font-family="Helvetica,sans-Serif" font-size="10.00">stdexcept</text>
</a>
</g>
</g>
<!-- Node10&#45;&gt;Node26 -->
<g id="edge27_Node000010_Node000026" class="edge">
<title>Node10&#45;&gt;Node26</title>
<g id="a_edge27_Node000010_Node000026"><a xlink:title=" ">
<path fill="none" stroke="#63b8ff" d="M512.89,-132C473.1,-123.57 411.16,-109.94 358,-96 354.87,-95.18 351.63,-94.29 348.39,-93.38"/>
<polygon fill="#63b8ff" stroke="#63b8ff" points="349.33,-90.01 338.75,-90.6 347.39,-96.73 349.33,-90.01"/>
</a>
</g>
</g>
<!-- Node27 -->
<g id="Node000027" class="node">
<title>Node27</title>
<g id="a_Node000027"><a xlink:title=" ">
<polygon fill="#e0e0e0" stroke="#999999" points="641.5,-90.5 600.5,-90.5 600.5,-71.5 641.5,-71.5 641.5,-90.5"/>
<text text-anchor="middle" x="621" y="-78.5" font-family="Helvetica,sans-Serif" font-size="10.00">tuple</text>
</a>
</g>
</g>
<!-- Node10&#45;&gt;Node27 -->
<g id="edge28_Node000010_Node000027" class="edge">
<title>Node10&#45;&gt;Node27</title>
<g id="a_edge28_Node000010_Node000027"><a xlink:title=" ">
<path fill="none" stroke="#63b8ff" d="M563.89,-131.87C574.28,-122.8 590.84,-108.34 603.45,-97.32"/>
<polygon fill="#63b8ff" stroke="#63b8ff" points="605.84,-99.88 611.07,-90.67 601.24,-94.61 605.84,-99.88"/>
</a>
</g>
</g>
<!-- Node28 -->
<g id="Node000028" class="node">
<title>Node28</title>
<g id="a_Node000028"><a xlink:title=" ">
<polygon fill="#e0e0e0" stroke="#999999" points="886.5,-90.5 841.5,-90.5 841.5,-71.5 886.5,-71.5 886.5,-90.5"/>
<text text-anchor="middle" x="864" y="-78.5" font-family="Helvetica,sans-Serif" font-size="10.00">utility</text>
</a>
</g>
</g>
<!-- Node10&#45;&gt;Node28 -->
<g id="edge29_Node000010_Node000028" class="edge">
<title>Node10&#45;&gt;Node28</title>
<g id="a_edge29_Node000010_Node000028"><a xlink:title=" ">
<path fill="none" stroke="#63b8ff" d="M597.22,-133.94C668.55,-123.04 805.23,-101.83 827,-96 829.3,-95.39 831.65,-94.68 833.99,-93.92"/>
<polygon fill="#63b8ff" stroke="#63b8ff" points="835.22,-97.2 843.5,-90.59 832.9,-90.6 835.22,-97.2"/>
</a>
</g>
</g>
<!-- Node11&#45;&gt;Node12 -->
<g id="edge11_Node000011_Node000012" class="edge">
<title>Node11&#45;&gt;Node12</title>
<g id="a_edge11_Node000011_Node000012"><a xlink:title=" ">
<path fill="none" stroke="#63b8ff" d="M137.07,-71.37C130.41,-61.69 119.44,-45.74 110.99,-33.44"/>
<polygon fill="#63b8ff" stroke="#63b8ff" points="113.67,-31.16 105.12,-24.91 107.9,-35.13 113.67,-31.16"/>
</a>
</g>
</g>
<!-- Node14 -->
<g id="Node000014" class="node">
<title>Node14</title>
<g id="a_Node000014"><a xlink:title=" ">
<polygon fill="#e0e0e0" stroke="#999999" points="532.5,-24.5 399.5,-24.5 399.5,-5.5 532.5,-5.5 532.5,-24.5"/>
<text text-anchor="middle" x="466" y="-12.5" font-family="Helvetica,sans-Serif" font-size="10.00">boost/mpl/bool_fwd.hpp</text>
</a>
</g>
</g>
<!-- Node13&#45;&gt;Node14 -->
<g id="edge13_Node000013_Node000014" class="edge">
<title>Node13&#45;&gt;Node14</title>
<g id="a_edge13_Node000013_Node000014"><a xlink:title=" ">
<path fill="none" stroke="#63b8ff" d="M687.74,-71.44C641.85,-59.96 560.39,-39.6 510.01,-27"/>
<polygon fill="#63b8ff" stroke="#63b8ff" points="510.61,-23.54 500.06,-24.51 508.91,-30.34 510.61,-23.54"/>
</a>
</g>
</g>
<!-- Node15 -->
<g id="Node000015" class="node">
<title>Node15</title>
<g id="a_Node000015"><a xlink:title=" ">
<polygon fill="#e0e0e0" stroke="#999999" points="675,-24.5 551,-24.5 551,-5.5 675,-5.5 675,-24.5"/>
<text text-anchor="middle" x="613" y="-12.5" font-family="Helvetica,sans-Serif" font-size="10.00">boost/mpl/greater.hpp</text>
</a>
</g>
</g>
<!-- Node13&#45;&gt;Node15 -->
<g id="edge14_Node000013_Node000015" class="edge">
<title>Node13&#45;&gt;Node15</title>
<g id="a_edge14_Node000013_Node000015"><a xlink:title=" ">
<path fill="none" stroke="#63b8ff" d="M707.3,-71.37C689.18,-60.73 658.15,-42.51 636.66,-29.89"/>
<polygon fill="#63b8ff" stroke="#63b8ff" points="638.21,-26.74 627.82,-24.7 634.67,-32.78 638.21,-26.74"/>
</a>
</g>
</g>
<!-- Node16 -->
<g id="Node000016" class="node">
<title>Node16</title>
<g id="a_Node000016"><a xlink:title=" ">
<polygon fill="#e0e0e0" stroke="#999999" points="795,-24.5 693,-24.5 693,-5.5 795,-5.5 795,-24.5"/>
<text text-anchor="middle" x="744" y="-12.5" font-family="Helvetica,sans-Serif" font-size="10.00">boost/mpl/int.hpp</text>
</a>
</g>
</g>
<!-- Node13&#45;&gt;Node16 -->
<g id="edge15_Node000013_Node000016" class="edge">
<title>Node13&#45;&gt;Node16</title>
<g id="a_edge15_Node000013_Node000016"><a xlink:title=" ">
<path fill="none" stroke="#63b8ff" d="M724.97,-71.37C728.2,-61.97 733.46,-46.67 737.63,-34.53"/>
<polygon fill="#63b8ff" stroke="#63b8ff" points="741,-35.5 740.94,-24.91 734.38,-33.22 741,-35.5"/>
</a>
</g>
</g>
<!-- Node17 -->
<g id="Node000017" class="node">
<title>Node17</title>
<g id="a_Node000017"><a xlink:title=" ">
<polygon fill="#e0e0e0" stroke="#999999" points="919,-30 813,-30 813,0 919,0 919,-30"/>
<text text-anchor="start" x="821" y="-18" font-family="Helvetica,sans-Serif" font-size="10.00">boost/mpl/integral</text>
<text text-anchor="middle" x="866" y="-7" font-family="Helvetica,sans-Serif" font-size="10.00">_c_tag.hpp</text>
</a>
</g>
</g>
<!-- Node13&#45;&gt;Node17 -->
<g id="edge16_Node000013_Node000017" class="edge">
<title>Node13&#45;&gt;Node17</title>
<g id="a_edge16_Node000013_Node000017"><a xlink:title=" ">
<path fill="none" stroke="#63b8ff" d="M741.42,-71.37C762.71,-61.91 797.48,-46.45 824.89,-34.27"/>
<polygon fill="#63b8ff" stroke="#63b8ff" points="826.52,-37.38 834.24,-30.12 823.68,-30.98 826.52,-37.38"/>
</a>
</g>
</g>
<!-- Node18 -->
<g id="Node000018" class="node">
<title>Node18</title>
<g id="a_Node000018"><a xlink:title=" ">
<polygon fill="#e0e0e0" stroke="#999999" points="1088.5,-30 937.5,-30 937.5,0 1088.5,0 1088.5,-30"/>
<text text-anchor="start" x="945.5" y="-18" font-family="Helvetica,sans-Serif" font-size="10.00">boost/serialization</text>
<text text-anchor="middle" x="1013" y="-7" font-family="Helvetica,sans-Serif" font-size="10.00">/is_bitwise_serializable.hpp</text>
</a>
</g>
</g>
<!-- Node13&#45;&gt;Node18 -->
<g id="edge17_Node000013_Node000018" class="edge">
<title>Node13&#45;&gt;Node18</title>
<g id="a_edge17_Node000013_Node000018"><a xlink:title=" ">
<path fill="none" stroke="#63b8ff" d="M760.94,-71.44C806.38,-61.44 882.51,-44.7 939.23,-32.22"/>
<polygon fill="#63b8ff" stroke="#63b8ff" points="940.22,-35.59 949.23,-30.02 938.71,-28.75 940.22,-35.59"/>
</a>
</g>
</g>
<!-- Node19 -->
<g id="Node000019" class="node">
<title>Node19</title>
<g id="a_Node000019"><a xlink:title=" ">
<polygon fill="#e0e0e0" stroke="#999999" points="1213.5,-30 1106.5,-30 1106.5,0 1213.5,0 1213.5,-30"/>
<text text-anchor="start" x="1114.5" y="-18" font-family="Helvetica,sans-Serif" font-size="10.00">boost/serialization</text>
<text text-anchor="middle" x="1160" y="-7" font-family="Helvetica,sans-Serif" font-size="10.00">/level.hpp</text>
</a>
</g>
</g>
<!-- Node13&#45;&gt;Node19 -->
<g id="edge18_Node000013_Node000019" class="edge">
<title>Node13&#45;&gt;Node19</title>
<g id="a_edge18_Node000013_Node000019"><a xlink:title=" ">
<path fill="none" stroke="#63b8ff" d="M766.31,-71.48C776.99,-69.55 788.39,-67.6 799,-66 927.69,-46.55 963.76,-52.2 1096.32,-30"/>
<polygon fill="#63b8ff" stroke="#63b8ff" points="1097.18,-33.4 1106.45,-28.28 1096.01,-26.5 1097.18,-33.4"/>
</a>
</g>
</g>
<!-- Node20 -->
<g id="Node000020" class="node">
<title>Node20</title>
<g id="a_Node000020"><a xlink:title=" ">
<polygon fill="#e0e0e0" stroke="#999999" points="250.5,-30 143.5,-30 143.5,0 250.5,0 250.5,-30"/>
<text text-anchor="start" x="151.5" y="-18" font-family="Helvetica,sans-Serif" font-size="10.00">boost/serialization</text>
<text text-anchor="middle" x="197" y="-7" font-family="Helvetica,sans-Serif" font-size="10.00">/tracking.hpp</text>
</a>
</g>
</g>
<!-- Node13&#45;&gt;Node20 -->
<g id="edge19_Node000013_Node000020" class="edge">
<title>Node13&#45;&gt;Node20</title>
<g id="a_edge19_Node000013_Node000020"><a xlink:title=" ">
<path fill="none" stroke="#63b8ff" d="M681.76,-71.44C671.44,-69.44 660.34,-67.48 650,-66 480.45,-41.77 433.11,-56.7 260.61,-30.12"/>
<polygon fill="#63b8ff" stroke="#63b8ff" points="261.11,-26.66 250.69,-28.57 260.02,-33.58 261.11,-26.66"/>
</a>
</g>
</g>
<!-- Node21 -->
<g id="Node000021" class="node">
<title>Node21</title>
<g id="a_Node000021"><a xlink:title=" ">
<polygon fill="#e0e0e0" stroke="#999999" points="381.5,-30 268.5,-30 268.5,0 381.5,0 381.5,-30"/>
<text text-anchor="start" x="276.5" y="-18" font-family="Helvetica,sans-Serif" font-size="10.00">boost/serialization</text>
<text text-anchor="middle" x="325" y="-7" font-family="Helvetica,sans-Serif" font-size="10.00">/tracking_enum.hpp</text>
</a>
</g>
</g>
<!-- Node13&#45;&gt;Node21 -->
<g id="edge20_Node000013_Node000021" class="edge">
<title>Node13&#45;&gt;Node21</title>
<g id="a_edge20_Node000013_Node000021"><a xlink:title=" ">
<path fill="none" stroke="#63b8ff" d="M680.19,-71.47C670.31,-69.57 659.8,-67.63 650,-66 538.07,-47.38 506.59,-50.12 391.57,-30.2"/>
<polygon fill="#63b8ff" stroke="#63b8ff" points="392.13,-26.74 381.67,-28.47 390.92,-33.64 392.13,-26.74"/>
</a>
</g>
</g>
<!-- Node13&#45;&gt;Node22 -->
<g id="edge21_Node000013_Node000022" class="edge">
<title>Node13&#45;&gt;Node22</title>
<g id="a_edge21_Node000013_Node000022"><a xlink:title=" ">
<path fill="none" stroke="#63b8ff" d="M765.05,-71.43C776.09,-69.44 787.96,-67.47 799,-66 986.03,-41.1 1038.2,-72.63 1222,-30 1224.37,-29.45 1226.79,-28.78 1229.2,-28.02"/>
<polygon fill="#63b8ff" stroke="#63b8ff" points="1230.63,-31.23 1238.89,-24.6 1228.3,-24.63 1230.63,-31.23"/>
</a>
</g>
</g>
<!-- Node39&#45;&gt;Node7 -->
<g id="edge44_Node000039_Node000007" class="edge">
<title>Node39&#45;&gt;Node7</title>
<g id="a_edge44_Node000039_Node000007"><a xlink:title=" ">
<path fill="none" stroke="#63b8ff" d="M402.7,-298.91C405.51,-298.26 408.29,-297.62 411,-297 554.32,-264.18 723.96,-226.37 805.49,-208.26"/>
<polygon fill="#63b8ff" stroke="#63b8ff" points="806.46,-211.63 815.46,-206.04 804.94,-204.79 806.46,-211.63"/>
</a>
</g>
</g>
<!-- Node40 -->
<g id="Node000040" class="node">
<title>Node40</title>
<g id="a_Node000040"><a xlink:href="ll__and__dist_8hpp.html" target="_top" xlink:title=" ">
<polygon fill="white" stroke="#666666" points="498.5,-261 377.5,-261 377.5,-242 498.5,-242 498.5,-261"/>
<text text-anchor="middle" x="438" y="-249" font-family="Helvetica,sans-Serif" font-size="10.00">detail/ll_and_dist.hpp</text>
</a>
</g>
</g>
<!-- Node39&#45;&gt;Node40 -->
<g id="edge45_Node000039_Node000040" class="edge">
<title>Node39&#45;&gt;Node40</title>
<g id="a_edge45_Node000039_Node000040"><a xlink:title=" ">
<path fill="none" stroke="#63b8ff" d="M372.06,-296.84C385.54,-287.77 402.99,-276.04 416.55,-266.92"/>
<polygon fill="#63b8ff" stroke="#63b8ff" points="418.87,-269.58 425.22,-261.09 414.97,-263.77 418.87,-269.58"/>
</a>
</g>
</g>
<!-- Node41 -->
<g id="Node000041" class="node">
<title>Node41</title>
<g id="a_Node000041"><a xlink:title=" ">
<polygon fill="#e0e0e0" stroke="#999999" points="390,-206 348,-206 348,-187 390,-187 390,-206"/>
<text text-anchor="middle" x="369" y="-194" font-family="Helvetica,sans-Serif" font-size="10.00">array</text>
</a>
</g>
</g>
<!-- Node39&#45;&gt;Node41 -->
<g id="edge55_Node000039_Node000041" class="edge">
<title>Node39&#45;&gt;Node41</title>
<g id="a_edge55_Node000039_Node000041"><a xlink:title=" ">
<path fill="none" stroke="#63b8ff" d="M353.28,-296.63C356.52,-276.21 362.45,-238.81 366.03,-216.24"/>
<polygon fill="#63b8ff" stroke="#63b8ff" points="369.51,-216.65 367.62,-206.23 362.59,-215.56 369.51,-216.65"/>
</a>
</g>
</g>
<!-- Node42 -->
<g id="Node000042" class="node">
<title>Node42</title>
<g id="a_Node000042"><a xlink:href="bspline_8hpp.html" target="_top" xlink:title=" ">
<polygon fill="white" stroke="#666666" points="232.5,-206 107.5,-206 107.5,-187 232.5,-187 232.5,-206"/>
<text text-anchor="middle" x="170" y="-194" font-family="Helvetica,sans-Serif" font-size="10.00">utils/math/bspline.hpp</text>
</a>
</g>
</g>
<!-- Node39&#45;&gt;Node42 -->
<g id="edge49_Node000039_Node000042" class="edge">
<title>Node39&#45;&gt;Node42</title>
<g id="a_edge49_Node000039_Node000042"><a xlink:title=" ">
<path fill="none" stroke="#63b8ff" d="M328.44,-296.85C293.65,-275.03 227.27,-233.41 192.5,-211.61"/>
<polygon fill="#63b8ff" stroke="#63b8ff" points="194.32,-208.62 183.99,-206.27 190.6,-214.55 194.32,-208.62"/>
</a>
</g>
</g>
<!-- Node40&#45;&gt;Node7 -->
<g id="edge46_Node000040_Node000007" class="edge">
<title>Node40&#45;&gt;Node7</title>
<g id="a_edge46_Node000040_Node000007"><a xlink:title=" ">
<path fill="none" stroke="#63b8ff" d="M498.94,-242.74C579.28,-232.5 719.57,-214.63 797.59,-204.69"/>
<polygon fill="#63b8ff" stroke="#63b8ff" points="798.23,-208.13 807.71,-203.4 797.34,-201.19 798.23,-208.13"/>
</a>
</g>
</g>
<!-- Node40&#45;&gt;Node30 -->
<g id="edge48_Node000040_Node000030" class="edge">
<title>Node40&#45;&gt;Node30</title>
<g id="a_edge48_Node000040_Node000030"><a xlink:title=" ">
<path fill="none" stroke="#63b8ff" d="M433.73,-241.72C427.26,-228.91 414.12,-204.71 399,-187 389.59,-175.99 377.36,-165.38 367.12,-157.28"/>
<polygon fill="#63b8ff" stroke="#63b8ff" points="369.16,-154.43 359.09,-151.11 364.89,-159.98 369.16,-154.43"/>
</a>
</g>
</g>
<!-- Node40&#45;&gt;Node41 -->
<g id="edge47_Node000040_Node000041" class="edge">
<title>Node40&#45;&gt;Node41</title>
<g id="a_edge47_Node000040_Node000041"><a xlink:title=" ">
<path fill="none" stroke="#63b8ff" d="M426.91,-241.98C416.51,-234 400.74,-221.88 388.28,-212.31"/>
<polygon fill="#63b8ff" stroke="#63b8ff" points="390.35,-209.49 380.29,-206.17 386.09,-215.04 390.35,-209.49"/>
</a>
</g>
</g>
<!-- Node42&#45;&gt;Node11 -->
<g id="edge52_Node000042_Node000011" class="edge">
<title>Node42&#45;&gt;Node11</title>
<g id="a_edge52_Node000042_Node000011"><a xlink:title=" ">
<path fill="none" stroke="#63b8ff" d="M167.97,-186.97C163.63,-168.73 153.36,-125.57 147.44,-100.64"/>
<polygon fill="#63b8ff" stroke="#63b8ff" points="150.77,-99.55 145.05,-90.63 143.96,-101.17 150.77,-99.55"/>
</a>
</g>
</g>
<!-- Node42&#45;&gt;Node26 -->
<g id="edge54_Node000042_Node000026" class="edge">
<title>Node42&#45;&gt;Node26</title>
<g id="a_edge54_Node000042_Node000026"><a xlink:title=" ">
<path fill="none" stroke="#63b8ff" d="M176.31,-186.94C186.15,-173.99 206.17,-149.12 227,-132 244.7,-117.45 267.09,-104.34 284.3,-95.2"/>
<polygon fill="#63b8ff" stroke="#63b8ff" points="286.01,-98.26 293.27,-90.55 282.78,-92.05 286.01,-98.26"/>
</a>
</g>
</g>
<!-- Node43 -->
<g id="Node000043" class="node">
<title>Node43</title>
<g id="a_Node000043"><a xlink:href="sqr_8hpp.html" target="_top" xlink:title=" ">
<polygon fill="white" stroke="#666666" points="142,-151 90,-151 90,-132 142,-132 142,-151"/>
<text text-anchor="middle" x="116" y="-139" font-family="Helvetica,sans-Serif" font-size="10.00">sqr.hpp</text>
</a>
</g>
</g>
<!-- Node42&#45;&gt;Node43 -->
<g id="edge50_Node000042_Node000043" class="edge">
<title>Node42&#45;&gt;Node43</title>
<g id="a_edge50_Node000042_Node000043"><a xlink:title=" ">
<path fill="none" stroke="#63b8ff" d="M161.08,-186.75C153.22,-179.03 141.57,-167.6 132.08,-158.28"/>
<polygon fill="#63b8ff" stroke="#63b8ff" points="134.34,-155.6 124.75,-151.09 129.44,-160.59 134.34,-155.6"/>
</a>
</g>
</g>
<!-- Node44 -->
<g id="Node000044" class="node">
<title>Node44</title>
<g id="a_Node000044"><a xlink:title=" ">
<polygon fill="#e0e0e0" stroke="#999999" points="72,-151 28,-151 28,-132 72,-132 72,-151"/>
<text text-anchor="middle" x="50" y="-139" font-family="Helvetica,sans-Serif" font-size="10.00">limits</text>
</a>
</g>
</g>
<!-- Node42&#45;&gt;Node44 -->
<g id="edge53_Node000042_Node000044" class="edge">
<title>Node42&#45;&gt;Node44</title>
<g id="a_edge53_Node000042_Node000044"><a xlink:title=" ">
<path fill="none" stroke="#63b8ff" d="M150.72,-186.98C131.33,-178.42 101.19,-165.11 78.93,-155.28"/>
<polygon fill="#63b8ff" stroke="#63b8ff" points="80.19,-152.01 69.63,-151.17 77.36,-158.41 80.19,-152.01"/>
</a>
</g>
</g>
<!-- Node43&#45;&gt;Node11 -->
<g id="edge51_Node000043_Node000011" class="edge">
<title>Node43&#45;&gt;Node11</title>
<g id="a_edge51_Node000043_Node000011"><a xlink:title=" ">
<path fill="none" stroke="#63b8ff" d="M119.98,-131.87C123.85,-123.49 129.84,-110.51 134.74,-99.89"/>
<polygon fill="#63b8ff" stroke="#63b8ff" points="137.99,-101.21 139,-90.67 131.63,-98.28 137.99,-101.21"/>
</a>
</g>
</g>
<!-- Node45&#45;&gt;Node7 -->
<g id="edge58_Node000045_Node000007" class="edge">
<title>Node45&#45;&gt;Node7</title>
<g id="a_edge58_Node000045_Node000007"><a xlink:title=" ">
<path fill="none" stroke="#63b8ff" d="M1337.46,-241.98C1216.9,-230.89 1009.84,-211.84 910.45,-202.69"/>
<polygon fill="#63b8ff" stroke="#63b8ff" points="910.59,-199.19 900.32,-201.76 909.95,-206.16 910.59,-199.19"/>
</a>
</g>
</g>
<!-- Node45&#45;&gt;Node28 -->
<g id="edge60_Node000045_Node000028" class="edge">
<title>Node45&#45;&gt;Node28</title>
<g id="a_edge60_Node000045_Node000028"><a xlink:title=" ">
<path fill="none" stroke="#63b8ff" d="M1433.6,-241.97C1442.07,-220.38 1460.49,-163.11 1432,-132 1395.69,-92.36 1012.06,-83.99 896.66,-82.37"/>
<polygon fill="#63b8ff" stroke="#63b8ff" points="896.7,-78.87 886.65,-82.23 896.6,-85.87 896.7,-78.87"/>
</a>
</g>
</g>
<!-- Node46 -->
<g id="Node000046" class="node">
<title>Node46</title>
<g id="a_Node000046"><a xlink:title=" ">
<polygon fill="#e0e0e0" stroke="#999999" points="1527,-206 1469,-206 1469,-187 1527,-187 1527,-206"/>
<text text-anchor="middle" x="1498" y="-194" font-family="Helvetica,sans-Serif" font-size="10.00">memory</text>
</a>
</g>
</g>
<!-- Node45&#45;&gt;Node46 -->
<g id="edge59_Node000045_Node000046" class="edge">
<title>Node45&#45;&gt;Node46</title>
<g id="a_edge59_Node000045_Node000046"><a xlink:title=" ">
<path fill="none" stroke="#63b8ff" d="M1440.93,-241.98C1451.08,-234.07 1466.42,-222.11 1478.65,-212.58"/>
<polygon fill="#63b8ff" stroke="#63b8ff" points="1481.14,-215.08 1486.88,-206.17 1476.84,-209.56 1481.14,-215.08"/>
</a>
</g>
</g>
</g>
</svg>
