<?xml version="1.0" encoding="UTF-8" standalone="no"?>
<!DOCTYPE svg PUBLIC "-//W3C//DTD SVG 1.1//EN"
 "http://www.w3.org/Graphics/SVG/1.1/DTD/svg11.dtd">
<!-- Generated by graphviz version 2.43.0 (0)
 -->
<!-- Title: buckingham.hpp Pages: 1 -->
<svg width="1964pt" height="401pt"
 viewBox="0.00 0.00 1964.00 401.00" xmlns="http://www.w3.org/2000/svg" xmlns:xlink="http://www.w3.org/1999/xlink">
<g id="graph0" class="graph" transform="scale(1 1) rotate(0) translate(4 397)">
<title>buckingham.hpp</title>
<!-- Node1 -->
<g id="Node000001" class="node">
<title>Node1</title>
<g id="a_Node000001"><a xlink:title="Routines to calculate the Buckingham potential between particle pairs.">
<polygon fill="#999999" stroke="#666666" points="493.5,-393 395.5,-393 395.5,-374 493.5,-374 493.5,-393"/>
<text text-anchor="middle" x="444.5" y="-381" font-family="Helvetica,sans-Serif" font-size="10.00">buckingham.hpp</text>
</a>
</g>
</g>
<!-- Node2 -->
<g id="Node000002" class="node">
<title>Node2</title>
<g id="a_Node000002"><a xlink:href="config_8hpp.html" target="_top" xlink:title="This file contains the defaults for ESPResSo.">
<polygon fill="white" stroke="#666666" points="121,-272 22,-272 22,-253 121,-253 121,-272"/>
<text text-anchor="middle" x="71.5" y="-260" font-family="Helvetica,sans-Serif" font-size="10.00">config/config.hpp</text>
</a>
</g>
</g>
<!-- Node1&#45;&gt;Node2 -->
<g id="edge1_Node000001_Node000002" class="edge">
<title>Node1&#45;&gt;Node2</title>
<g id="a_edge1_Node000001_Node000002"><a xlink:title=" ">
<path fill="none" stroke="#63b8ff" d="M417.67,-373.94C352.02,-353 183.19,-299.13 108.26,-275.23"/>
<polygon fill="#63b8ff" stroke="#63b8ff" points="108.92,-271.77 98.33,-272.06 106.8,-278.43 108.92,-271.77"/>
</a>
</g>
</g>
<!-- Node4 -->
<g id="Node000004" class="node">
<title>Node4</title>
<g id="a_Node000004"><a xlink:href="nonbonded__interaction__data_8hpp.html" target="_top" xlink:title="Various procedures concerning interactions between particles.">
<polygon fill="white" stroke="#666666" points="508.5,-338 380.5,-338 380.5,-308 508.5,-308 508.5,-338"/>
<text text-anchor="start" x="388.5" y="-326" font-family="Helvetica,sans-Serif" font-size="10.00">nonbonded_interaction</text>
<text text-anchor="middle" x="444.5" y="-315" font-family="Helvetica,sans-Serif" font-size="10.00">_data.hpp</text>
</a>
</g>
</g>
<!-- Node1&#45;&gt;Node4 -->
<g id="edge3_Node000001_Node000004" class="edge">
<title>Node1&#45;&gt;Node4</title>
<g id="a_edge3_Node000001_Node000004"><a xlink:title=" ">
<path fill="none" stroke="#63b8ff" d="M444.5,-373.87C444.5,-367.11 444.5,-357.35 444.5,-348.26"/>
<polygon fill="#63b8ff" stroke="#63b8ff" points="448,-348.11 444.5,-338.11 441,-348.11 448,-348.11"/>
</a>
</g>
</g>
<!-- Node36 -->
<g id="Node000036" class="node">
<title>Node36</title>
<g id="a_Node000036"><a xlink:title=" ">
<polygon fill="#e0e0e0" stroke="#999999" points="1956,-156.5 1909,-156.5 1909,-137.5 1956,-137.5 1956,-156.5"/>
<text text-anchor="middle" x="1932.5" y="-144.5" font-family="Helvetica,sans-Serif" font-size="10.00">cmath</text>
</a>
</g>
</g>
<!-- Node1&#45;&gt;Node36 -->
<g id="edge68_Node000001_Node000036" class="edge">
<title>Node1&#45;&gt;Node36</title>
<g id="a_edge68_Node000001_Node000036"><a xlink:title=" ">
<path fill="none" stroke="#63b8ff" d="M493.52,-380.78C661.44,-374.34 1228.71,-347.98 1690.5,-272 1792.93,-255.15 1844.97,-291.27 1917.5,-217 1930.46,-203.73 1933.34,-182.05 1933.53,-166.53"/>
<polygon fill="#63b8ff" stroke="#63b8ff" points="1937.03,-166.44 1933.3,-156.53 1930.03,-166.61 1937.03,-166.44"/>
</a>
</g>
</g>
<!-- Node3 -->
<g id="Node000003" class="node">
<title>Node3</title>
<g id="a_Node000003"><a xlink:title=" ">
<polygon fill="#e0e0e0" stroke="#999999" points="143,-217 0,-217 0,-198 143,-198 143,-217"/>
<text text-anchor="middle" x="71.5" y="-205" font-family="Helvetica,sans-Serif" font-size="10.00">config/config&#45;features.hpp</text>
</a>
</g>
</g>
<!-- Node2&#45;&gt;Node3 -->
<g id="edge2_Node000002_Node000003" class="edge">
<title>Node2&#45;&gt;Node3</title>
<g id="a_edge2_Node000002_Node000003"><a xlink:title=" ">
<path fill="none" stroke="#63b8ff" d="M71.5,-252.75C71.5,-245.8 71.5,-235.85 71.5,-227.13"/>
<polygon fill="#63b8ff" stroke="#63b8ff" points="75,-227.09 71.5,-217.09 68,-227.09 75,-227.09"/>
</a>
</g>
</g>
<!-- Node4&#45;&gt;Node2 -->
<g id="edge12_Node000004_Node000002" class="edge">
<title>Node4&#45;&gt;Node2</title>
<g id="a_edge12_Node000004_Node000002"><a xlink:title=" ">
<path fill="none" stroke="#63b8ff" d="M380.38,-311.94C310.44,-300.97 199.4,-283.56 131.24,-272.87"/>
<polygon fill="#63b8ff" stroke="#63b8ff" points="131.51,-269.37 121.09,-271.28 130.43,-276.28 131.51,-269.37"/>
</a>
</g>
</g>
<!-- Node5 -->
<g id="Node000005" class="node">
<title>Node5</title>
<g id="a_Node000005"><a xlink:href="TabulatedPotential_8hpp.html" target="_top" xlink:title=" ">
<polygon fill="white" stroke="#666666" points="388.5,-217 260.5,-217 260.5,-198 388.5,-198 388.5,-217"/>
<text text-anchor="middle" x="324.5" y="-205" font-family="Helvetica,sans-Serif" font-size="10.00">TabulatedPotential.hpp</text>
</a>
</g>
</g>
<!-- Node4&#45;&gt;Node5 -->
<g id="edge4_Node000004_Node000005" class="edge">
<title>Node4&#45;&gt;Node5</title>
<g id="a_edge4_Node000004_Node000005"><a xlink:title=" ">
<path fill="none" stroke="#63b8ff" d="M429.3,-307.63C406.74,-286.28 364.53,-246.36 341.15,-224.25"/>
<polygon fill="#63b8ff" stroke="#63b8ff" points="343.4,-221.56 333.73,-217.23 338.59,-226.64 343.4,-221.56"/>
</a>
</g>
</g>
<!-- Node7 -->
<g id="Node000007" class="node">
<title>Node7</title>
<g id="a_Node000007"><a xlink:title=" ">
<polygon fill="#e0e0e0" stroke="#999999" points="433.5,-24.5 381.5,-24.5 381.5,-5.5 433.5,-5.5 433.5,-24.5"/>
<text text-anchor="middle" x="407.5" y="-12.5" font-family="Helvetica,sans-Serif" font-size="10.00">cassert</text>
</a>
</g>
</g>
<!-- Node4&#45;&gt;Node7 -->
<g id="edge64_Node000004_Node000007" class="edge">
<title>Node4&#45;&gt;Node7</title>
<g id="a_edge64_Node000004_Node000007"><a xlink:title=" ">
<path fill="none" stroke="#63b8ff" d="M401.78,-307.92C358.89,-291.89 293.34,-261.95 251.5,-217 233.21,-197.35 232.18,-188.24 226.5,-162 223.68,-148.97 220.38,-143.85 226.5,-132 249.76,-86.97 276.75,-93.22 319.5,-66 340.14,-52.86 364.35,-39.23 382.15,-29.52"/>
<polygon fill="#63b8ff" stroke="#63b8ff" points="384.19,-32.4 391.32,-24.56 380.86,-26.24 384.19,-32.4"/>
</a>
</g>
</g>
<!-- Node11 -->
<g id="Node000011" class="node">
<title>Node11</title>
<g id="a_Node000011"><a xlink:title=" ">
<polygon fill="#e0e0e0" stroke="#999999" points="605.5,-156.5 541.5,-156.5 541.5,-137.5 605.5,-137.5 605.5,-156.5"/>
<text text-anchor="middle" x="573.5" y="-144.5" font-family="Helvetica,sans-Serif" font-size="10.00">algorithm</text>
</a>
</g>
</g>
<!-- Node4&#45;&gt;Node11 -->
<g id="edge63_Node000004_Node000011" class="edge">
<title>Node4&#45;&gt;Node11</title>
<g id="a_edge63_Node000004_Node000011"><a xlink:title=" ">
<path fill="none" stroke="#63b8ff" d="M479.32,-307.99C513.61,-291.92 563.39,-261.88 581.5,-217 588.04,-200.78 584.6,-180.79 580.39,-166.51"/>
<polygon fill="#63b8ff" stroke="#63b8ff" points="583.66,-165.24 577.18,-156.86 577.02,-167.45 583.66,-165.24"/>
</a>
</g>
</g>
<!-- Node12 -->
<g id="Node000012" class="node">
<title>Node12</title>
<g id="a_Node000012"><a xlink:title=" ">
<polygon fill="#e0e0e0" stroke="#999999" points="485,-156.5 438,-156.5 438,-137.5 485,-137.5 485,-156.5"/>
<text text-anchor="middle" x="461.5" y="-144.5" font-family="Helvetica,sans-Serif" font-size="10.00">vector</text>
</a>
</g>
</g>
<!-- Node4&#45;&gt;Node12 -->
<g id="edge67_Node000004_Node000012" class="edge">
<title>Node4&#45;&gt;Node12</title>
<g id="a_edge67_Node000004_Node000012"><a xlink:title=" ">
<path fill="none" stroke="#63b8ff" d="M440.62,-307.63C434.94,-284.27 426.02,-236.79 435.5,-198 438.33,-186.43 444.34,-174.56 449.88,-165.29"/>
<polygon fill="#63b8ff" stroke="#63b8ff" points="452.93,-167.01 455.32,-156.69 447.01,-163.27 452.93,-167.01"/>
</a>
</g>
</g>
<!-- Node13 -->
<g id="Node000013" class="node">
<title>Node13</title>
<g id="a_Node000013"><a xlink:title=" ">
<polygon fill="#e0e0e0" stroke="#999999" points="236,-272 139,-272 139,-253 236,-253 236,-272"/>
<text text-anchor="middle" x="187.5" y="-260" font-family="Helvetica,sans-Serif" font-size="10.00">system/Leaf.hpp</text>
</a>
</g>
</g>
<!-- Node4&#45;&gt;Node13 -->
<g id="edge13_Node000004_Node000013" class="edge">
<title>Node4&#45;&gt;Node13</title>
<g id="a_edge13_Node000004_Node000013"><a xlink:title=" ">
<path fill="none" stroke="#63b8ff" d="M382.94,-307.99C337.53,-297.65 276.65,-283.79 234.98,-274.31"/>
<polygon fill="#63b8ff" stroke="#63b8ff" points="235.6,-270.86 225.08,-272.05 234.05,-277.69 235.6,-270.86"/>
</a>
</g>
</g>
<!-- Node14 -->
<g id="Node000014" class="node">
<title>Node14</title>
<g id="a_Node000014"><a xlink:href="index_8hpp.html" target="_top" xlink:title=" ">
<polygon fill="white" stroke="#666666" points="1296,-272 1207,-272 1207,-253 1296,-253 1296,-272"/>
<text text-anchor="middle" x="1251.5" y="-260" font-family="Helvetica,sans-Serif" font-size="10.00">utils/index.hpp</text>
</a>
</g>
</g>
<!-- Node4&#45;&gt;Node14 -->
<g id="edge14_Node000004_Node000014" class="edge">
<title>Node4&#45;&gt;Node14</title>
<g id="a_edge14_Node000004_Node000014"><a xlink:title=" ">
<path fill="none" stroke="#63b8ff" d="M508.84,-317.34C663.12,-306.15 1052.01,-277.96 1196.4,-267.49"/>
<polygon fill="#63b8ff" stroke="#63b8ff" points="1197.06,-270.96 1206.78,-266.74 1196.55,-263.97 1197.06,-270.96"/>
</a>
</g>
</g>
<!-- Node4&#45;&gt;Node36 -->
<g id="edge65_Node000004_Node000036" class="edge">
<title>Node4&#45;&gt;Node36</title>
<g id="a_edge65_Node000004_Node000036"><a xlink:title=" ">
<path fill="none" stroke="#63b8ff" d="M508.68,-320.99C774.09,-316.33 1777.41,-293.74 1894.5,-217 1912.16,-205.43 1922.34,-182.72 1927.64,-166.52"/>
<polygon fill="#63b8ff" stroke="#63b8ff" points="1931.1,-167.13 1930.56,-156.55 1924.39,-165.16 1931.1,-167.13"/>
</a>
</g>
</g>
<!-- Node43 -->
<g id="Node000043" class="node">
<title>Node43</title>
<g id="a_Node000043"><a xlink:href="int__pow_8hpp.html" target="_top" xlink:title=" ">
<polygon fill="white" stroke="#666666" points="572.5,-217 444.5,-217 444.5,-198 572.5,-198 572.5,-217"/>
<text text-anchor="middle" x="508.5" y="-205" font-family="Helvetica,sans-Serif" font-size="10.00">utils/math/int_pow.hpp</text>
</a>
</g>
</g>
<!-- Node4&#45;&gt;Node43 -->
<g id="edge61_Node000004_Node000043" class="edge">
<title>Node4&#45;&gt;Node43</title>
<g id="a_edge61_Node000004_Node000043"><a xlink:title=" ">
<path fill="none" stroke="#63b8ff" d="M474.53,-307.84C488.48,-299.53 503.69,-287.57 511.5,-272 518.46,-258.13 516.87,-240.33 514.02,-227.11"/>
<polygon fill="#63b8ff" stroke="#63b8ff" points="517.37,-226.09 511.49,-217.27 510.59,-227.83 517.37,-226.09"/>
</a>
</g>
</g>
<!-- Node44 -->
<g id="Node000044" class="node">
<title>Node44</title>
<g id="a_Node000044"><a xlink:title=" ">
<polygon fill="#e0e0e0" stroke="#999999" points="502.5,-272 444.5,-272 444.5,-253 502.5,-253 502.5,-272"/>
<text text-anchor="middle" x="473.5" y="-260" font-family="Helvetica,sans-Serif" font-size="10.00">memory</text>
</a>
</g>
</g>
<!-- Node4&#45;&gt;Node44 -->
<g id="edge66_Node000004_Node000044" class="edge">
<title>Node4&#45;&gt;Node44</title>
<g id="a_edge66_Node000004_Node000044"><a xlink:title=" ">
<path fill="none" stroke="#63b8ff" d="M451.52,-307.84C455.47,-299.87 460.44,-289.84 464.66,-281.33"/>
<polygon fill="#63b8ff" stroke="#63b8ff" points="467.85,-282.78 469.15,-272.27 461.58,-279.67 467.85,-282.78"/>
</a>
</g>
</g>
<!-- Node6 -->
<g id="Node000006" class="node">
<title>Node6</title>
<g id="a_Node000006"><a xlink:href="linear__interpolation_8hpp.html" target="_top" xlink:title=" ">
<polygon fill="white" stroke="#666666" points="486,-90.5 329,-90.5 329,-71.5 486,-71.5 486,-90.5"/>
<text text-anchor="middle" x="407.5" y="-78.5" font-family="Helvetica,sans-Serif" font-size="10.00">utils/linear_interpolation.hpp</text>
</a>
</g>
</g>
<!-- Node5&#45;&gt;Node6 -->
<g id="edge5_Node000005_Node000006" class="edge">
<title>Node5&#45;&gt;Node6</title>
<g id="a_edge5_Node000005_Node000006"><a xlink:title=" ">
<path fill="none" stroke="#63b8ff" d="M330.2,-197.94C343.77,-177.6 378.15,-126.03 396.14,-99.04"/>
<polygon fill="#63b8ff" stroke="#63b8ff" points="399.12,-100.88 401.76,-90.62 393.3,-97 399.12,-100.88"/>
</a>
</g>
</g>
<!-- Node9 -->
<g id="Node000009" class="node">
<title>Node9</title>
<g id="a_Node000009"><a xlink:title=" ">
<polygon fill="#e0e0e0" stroke="#999999" points="807,-96 700,-96 700,-66 807,-66 807,-96"/>
<text text-anchor="start" x="708" y="-84" font-family="Helvetica,sans-Serif" font-size="10.00">boost/serialization</text>
<text text-anchor="middle" x="753.5" y="-73" font-family="Helvetica,sans-Serif" font-size="10.00">/access.hpp</text>
</a>
</g>
</g>
<!-- Node5&#45;&gt;Node9 -->
<g id="edge8_Node000005_Node000009" class="edge">
<title>Node5&#45;&gt;Node9</title>
<g id="a_edge8_Node000005_Node000009"><a xlink:title=" ">
<path fill="none" stroke="#63b8ff" d="M335.3,-197.77C357.58,-179.92 408.24,-140.26 428.5,-132 514.61,-96.89 622.72,-86.22 689.97,-83.1"/>
<polygon fill="#63b8ff" stroke="#63b8ff" points="690.15,-86.59 699.99,-82.68 689.85,-79.6 690.15,-86.59"/>
</a>
</g>
</g>
<!-- Node10 -->
<g id="Node000010" class="node">
<title>Node10</title>
<g id="a_Node000010"><a xlink:title=" ">
<polygon fill="#e0e0e0" stroke="#999999" points="343,-162 236,-162 236,-132 343,-132 343,-162"/>
<text text-anchor="start" x="244" y="-150" font-family="Helvetica,sans-Serif" font-size="10.00">boost/serialization</text>
<text text-anchor="middle" x="289.5" y="-139" font-family="Helvetica,sans-Serif" font-size="10.00">/vector.hpp</text>
</a>
</g>
</g>
<!-- Node5&#45;&gt;Node10 -->
<g id="edge9_Node000005_Node000010" class="edge">
<title>Node5&#45;&gt;Node10</title>
<g id="a_edge9_Node000005_Node000010"><a xlink:title=" ">
<path fill="none" stroke="#63b8ff" d="M319.34,-197.87C315.07,-190.74 308.82,-180.28 303.13,-170.79"/>
<polygon fill="#63b8ff" stroke="#63b8ff" points="306.08,-168.9 297.94,-162.11 300.08,-172.49 306.08,-168.9"/>
</a>
</g>
</g>
<!-- Node5&#45;&gt;Node11 -->
<g id="edge10_Node000005_Node000011" class="edge">
<title>Node5&#45;&gt;Node11</title>
<g id="a_edge10_Node000005_Node000011"><a xlink:title=" ">
<path fill="none" stroke="#63b8ff" d="M360.71,-197.99C406.04,-187.34 483.55,-169.13 531.46,-157.88"/>
<polygon fill="#63b8ff" stroke="#63b8ff" points="532.28,-161.28 541.21,-155.59 530.68,-154.47 532.28,-161.28"/>
</a>
</g>
</g>
<!-- Node5&#45;&gt;Node12 -->
<g id="edge11_Node000005_Node000012" class="edge">
<title>Node5&#45;&gt;Node12</title>
<g id="a_edge11_Node000005_Node000012"><a xlink:title=" ">
<path fill="none" stroke="#63b8ff" d="M344.42,-197.99C367.45,-188.16 405.58,-171.88 432.04,-160.58"/>
<polygon fill="#63b8ff" stroke="#63b8ff" points="433.73,-163.66 441.55,-156.52 430.98,-157.22 433.73,-163.66"/>
</a>
</g>
</g>
<!-- Node6&#45;&gt;Node7 -->
<g id="edge6_Node000006_Node000007" class="edge">
<title>Node6&#45;&gt;Node7</title>
<g id="a_edge6_Node000006_Node000007"><a xlink:title=" ">
<path fill="none" stroke="#63b8ff" d="M407.5,-71.37C407.5,-62.16 407.5,-47.29 407.5,-35.27"/>
<polygon fill="#63b8ff" stroke="#63b8ff" points="411,-34.91 407.5,-24.91 404,-34.91 411,-34.91"/>
</a>
</g>
</g>
<!-- Node8 -->
<g id="Node000008" class="node">
<title>Node8</title>
<g id="a_Node000008"><a xlink:title=" ">
<polygon fill="#e0e0e0" stroke="#999999" points="1656,-24.5 1603,-24.5 1603,-5.5 1656,-5.5 1656,-24.5"/>
<text text-anchor="middle" x="1629.5" y="-12.5" font-family="Helvetica,sans-Serif" font-size="10.00">cstddef</text>
</a>
</g>
</g>
<!-- Node6&#45;&gt;Node8 -->
<g id="edge7_Node000006_Node000008" class="edge">
<title>Node6&#45;&gt;Node8</title>
<g id="a_edge7_Node000006_Node000008"><a xlink:title=" ">
<path fill="none" stroke="#63b8ff" d="M486.17,-75.91C542.95,-73 621.45,-69.08 690.5,-66 891.13,-57.04 1396.89,-70.95 1593.5,-30 1596.03,-29.47 1598.61,-28.79 1601.17,-28.01"/>
<polygon fill="#63b8ff" stroke="#63b8ff" points="1602.53,-31.24 1610.8,-24.62 1600.21,-24.63 1602.53,-31.24"/>
</a>
</g>
</g>
<!-- Node14&#45;&gt;Node7 -->
<g id="edge15_Node000014_Node000007" class="edge">
<title>Node14&#45;&gt;Node7</title>
<g id="a_edge15_Node000014_Node000007"><a xlink:title=" ">
<path fill="none" stroke="#63b8ff" d="M1206.63,-257.36C1084.94,-245.61 751.17,-209.79 652.5,-162 633.13,-152.62 632.39,-143.96 614.5,-132 552.34,-90.42 474.25,-49.48 434.08,-29.18"/>
<polygon fill="#63b8ff" stroke="#63b8ff" points="435.45,-25.95 424.94,-24.59 432.31,-32.21 435.45,-25.95"/>
</a>
</g>
</g>
<!-- Node14&#45;&gt;Node8 -->
<g id="edge16_Node000014_Node000008" class="edge">
<title>Node14&#45;&gt;Node8</title>
<g id="a_edge16_Node000014_Node000008"><a xlink:title=" ">
<path fill="none" stroke="#63b8ff" d="M1296.03,-259.99C1396.83,-256.12 1639.67,-244.2 1716.5,-217 1758.22,-202.23 1768.85,-193.92 1799.5,-162 1831.52,-128.66 1868.15,-102.27 1839.5,-66 1818.32,-39.19 1720.77,-25.2 1666.39,-19.38"/>
<polygon fill="#63b8ff" stroke="#63b8ff" points="1666.43,-15.86 1656.12,-18.32 1665.71,-22.83 1666.43,-15.86"/>
</a>
</g>
</g>
<!-- Node15 -->
<g id="Node000015" class="node">
<title>Node15</title>
<g id="a_Node000015"><a xlink:title=" ">
<polygon fill="#e0e0e0" stroke="#999999" points="1831,-90.5 1778,-90.5 1778,-71.5 1831,-71.5 1831,-90.5"/>
<text text-anchor="middle" x="1804.5" y="-78.5" font-family="Helvetica,sans-Serif" font-size="10.00">iterator</text>
</a>
</g>
</g>
<!-- Node14&#45;&gt;Node15 -->
<g id="edge17_Node000014_Node000015" class="edge">
<title>Node14&#45;&gt;Node15</title>
<g id="a_edge17_Node000014_Node000015"><a xlink:title=" ">
<path fill="none" stroke="#63b8ff" d="M1296.04,-262.35C1374.25,-262.62 1540.57,-257.8 1673.5,-217 1723.11,-201.77 1742.73,-201.41 1776.5,-162 1791.5,-144.49 1798.63,-118.45 1801.9,-100.88"/>
<polygon fill="#63b8ff" stroke="#63b8ff" points="1805.4,-101.16 1803.54,-90.73 1798.49,-100.04 1805.4,-101.16"/>
</a>
</g>
</g>
<!-- Node16 -->
<g id="Node000016" class="node">
<title>Node16</title>
<g id="a_Node000016"><a xlink:title=" ">
<polygon fill="#e0e0e0" stroke="#999999" points="717.5,-156.5 661.5,-156.5 661.5,-137.5 717.5,-137.5 717.5,-156.5"/>
<text text-anchor="middle" x="689.5" y="-144.5" font-family="Helvetica,sans-Serif" font-size="10.00">numeric</text>
</a>
</g>
</g>
<!-- Node14&#45;&gt;Node16 -->
<g id="edge18_Node000014_Node000016" class="edge">
<title>Node14&#45;&gt;Node16</title>
<g id="a_edge18_Node000014_Node000016"><a xlink:title=" ">
<path fill="none" stroke="#63b8ff" d="M1206.88,-255.01C1116.4,-241.4 905.14,-207.34 731.5,-162 728.71,-161.27 725.84,-160.46 722.97,-159.6"/>
<polygon fill="#63b8ff" stroke="#63b8ff" points="723.91,-156.22 713.32,-156.55 721.8,-162.9 723.91,-156.22"/>
</a>
</g>
</g>
<!-- Node17 -->
<g id="Node000017" class="node">
<title>Node17</title>
<g id="a_Node000017"><a xlink:title=" ">
<polygon fill="#e0e0e0" stroke="#999999" points="1643,-90.5 1578,-90.5 1578,-71.5 1643,-71.5 1643,-90.5"/>
<text text-anchor="middle" x="1610.5" y="-78.5" font-family="Helvetica,sans-Serif" font-size="10.00">stdexcept</text>
</a>
</g>
</g>
<!-- Node14&#45;&gt;Node17 -->
<g id="edge19_Node000014_Node000017" class="edge">
<title>Node14&#45;&gt;Node17</title>
<g id="a_edge19_Node000014_Node000017"><a xlink:title=" ">
<path fill="none" stroke="#63b8ff" d="M1296.24,-259.48C1407.09,-253.45 1689.64,-231.43 1746.5,-162 1776.62,-125.22 1703.4,-101.54 1653.11,-90.11"/>
<polygon fill="#63b8ff" stroke="#63b8ff" points="1653.6,-86.63 1643.09,-87.92 1652.11,-93.47 1653.6,-86.63"/>
</a>
</g>
</g>
<!-- Node18 -->
<g id="Node000018" class="node">
<title>Node18</title>
<g id="a_Node000018"><a xlink:href="Vector_8hpp.html" target="_top" xlink:title="Vector implementation and trait types for boost qvm interoperability.">
<polygon fill="white" stroke="#666666" points="1285.5,-217 1217.5,-217 1217.5,-198 1285.5,-198 1285.5,-217"/>
<text text-anchor="middle" x="1251.5" y="-205" font-family="Helvetica,sans-Serif" font-size="10.00">Vector.hpp</text>
</a>
</g>
</g>
<!-- Node14&#45;&gt;Node18 -->
<g id="edge20_Node000014_Node000018" class="edge">
<title>Node14&#45;&gt;Node18</title>
<g id="a_edge20_Node000014_Node000018"><a xlink:title=" ">
<path fill="none" stroke="#63b8ff" d="M1251.5,-252.75C1251.5,-245.8 1251.5,-235.85 1251.5,-227.13"/>
<polygon fill="#63b8ff" stroke="#63b8ff" points="1255,-227.09 1251.5,-217.09 1248,-227.09 1255,-227.09"/>
</a>
</g>
</g>
<!-- Node18&#45;&gt;Node7 -->
<g id="edge49_Node000018_Node000007" class="edge">
<title>Node18&#45;&gt;Node7</title>
<g id="a_edge49_Node000018_Node000007"><a xlink:title=" ">
<path fill="none" stroke="#63b8ff" d="M1217.28,-205.97C1120.54,-204.06 846.79,-195.74 764.5,-162 756.72,-158.81 655.14,-69.51 647.5,-66 563.43,-27.4 531.47,-55.31 442.5,-30 440.56,-29.45 438.59,-28.83 436.61,-28.16"/>
<polygon fill="#63b8ff" stroke="#63b8ff" points="437.47,-24.75 426.87,-24.58 435.05,-31.32 437.47,-24.75"/>
</a>
</g>
</g>
<!-- Node18&#45;&gt;Node8 -->
<g id="edge52_Node000018_Node000008" class="edge">
<title>Node18&#45;&gt;Node8</title>
<g id="a_edge52_Node000018_Node000008"><a xlink:title=" ">
<path fill="none" stroke="#63b8ff" d="M1251.06,-197.77C1250.79,-182.29 1252.57,-149.94 1270.5,-132 1316.23,-86.26 1349.69,-115.05 1411.5,-96 1493.73,-70.66 1512.95,-60.26 1593.5,-30 1595.1,-29.4 1596.73,-28.78 1598.38,-28.15"/>
<polygon fill="#63b8ff" stroke="#63b8ff" points="1599.75,-31.38 1607.83,-24.52 1597.24,-24.84 1599.75,-31.38"/>
</a>
</g>
</g>
<!-- Node18&#45;&gt;Node11 -->
<g id="edge48_Node000018_Node000011" class="edge">
<title>Node18&#45;&gt;Node11</title>
<g id="a_edge48_Node000018_Node000011"><a xlink:title=" ">
<path fill="none" stroke="#63b8ff" d="M1217.27,-205.17C1125.5,-201.35 866.42,-188.83 652.5,-162 640.53,-160.5 627.61,-158.41 615.76,-156.3"/>
<polygon fill="#63b8ff" stroke="#63b8ff" points="616.14,-152.82 605.67,-154.46 614.88,-159.7 616.14,-152.82"/>
</a>
</g>
</g>
<!-- Node18&#45;&gt;Node12 -->
<g id="edge60_Node000018_Node000012" class="edge">
<title>Node18&#45;&gt;Node12</title>
<g id="a_edge60_Node000018_Node000012"><a xlink:title=" ">
<path fill="none" stroke="#63b8ff" d="M1217.29,-205.99C1113.71,-204.12 794.53,-195.79 532.5,-162 520.16,-160.41 506.75,-157.96 494.94,-155.54"/>
<polygon fill="#63b8ff" stroke="#63b8ff" points="495.54,-152.09 485.04,-153.46 494.1,-158.94 495.54,-152.09"/>
</a>
</g>
</g>
<!-- Node18&#45;&gt;Node15 -->
<g id="edge55_Node000018_Node000015" class="edge">
<title>Node18&#45;&gt;Node15</title>
<g id="a_edge55_Node000018_Node000015"><a xlink:title=" ">
<path fill="none" stroke="#63b8ff" d="M1285.72,-207.04C1384.42,-208.03 1667.63,-206.8 1746.5,-162 1771.04,-148.06 1788,-118.99 1796.98,-100"/>
<polygon fill="#63b8ff" stroke="#63b8ff" points="1800.27,-101.21 1801.14,-90.65 1793.88,-98.36 1800.27,-101.21"/>
</a>
</g>
</g>
<!-- Node18&#45;&gt;Node16 -->
<g id="edge56_Node000018_Node000016" class="edge">
<title>Node18&#45;&gt;Node16</title>
<g id="a_edge56_Node000018_Node000016"><a xlink:title=" ">
<path fill="none" stroke="#63b8ff" d="M1217.34,-206.35C1133.61,-205.39 911.86,-199.23 731.5,-162 728.26,-161.33 724.93,-160.49 721.62,-159.56"/>
<polygon fill="#63b8ff" stroke="#63b8ff" points="722.49,-156.16 711.9,-156.55 720.42,-162.85 722.49,-156.16"/>
</a>
</g>
</g>
<!-- Node19 -->
<g id="Node000019" class="node">
<title>Node19</title>
<g id="a_Node000019"><a xlink:title=" ">
<polygon fill="#e0e0e0" stroke="#999999" points="923.5,-156.5 773.5,-156.5 773.5,-137.5 923.5,-137.5 923.5,-156.5"/>
<text text-anchor="middle" x="848.5" y="-144.5" font-family="Helvetica,sans-Serif" font-size="10.00">boost/qvm/deduce_vec.hpp</text>
</a>
</g>
</g>
<!-- Node18&#45;&gt;Node19 -->
<g id="edge21_Node000018_Node000019" class="edge">
<title>Node18&#45;&gt;Node19</title>
<g id="a_edge21_Node000018_Node000019"><a xlink:title=" ">
<path fill="none" stroke="#63b8ff" d="M1217.46,-202.05C1159.09,-194.36 1036.14,-177.86 932.5,-162 924.6,-160.79 916.3,-159.47 908.11,-158.14"/>
<polygon fill="#63b8ff" stroke="#63b8ff" points="908.65,-154.68 898.21,-156.51 907.51,-161.58 908.65,-154.68"/>
</a>
</g>
</g>
<!-- Node20 -->
<g id="Node000020" class="node">
<title>Node20</title>
<g id="a_Node000020"><a xlink:title=" ">
<polygon fill="#e0e0e0" stroke="#999999" points="1081.5,-156.5 941.5,-156.5 941.5,-137.5 1081.5,-137.5 1081.5,-156.5"/>
<text text-anchor="middle" x="1011.5" y="-144.5" font-family="Helvetica,sans-Serif" font-size="10.00">boost/qvm/vec_traits.hpp</text>
</a>
</g>
</g>
<!-- Node18&#45;&gt;Node20 -->
<g id="edge22_Node000018_Node000020" class="edge">
<title>Node18&#45;&gt;Node20</title>
<g id="a_edge22_Node000018_Node000020"><a xlink:title=" ">
<path fill="none" stroke="#63b8ff" d="M1217.37,-198.18C1175.17,-187.89 1103.22,-170.36 1056.53,-158.98"/>
<polygon fill="#63b8ff" stroke="#63b8ff" points="1057.23,-155.54 1046.68,-156.58 1055.57,-162.34 1057.23,-155.54"/>
</a>
</g>
</g>
<!-- Node21 -->
<g id="Node000021" class="node">
<title>Node21</title>
<g id="a_Node000021"><a xlink:href="Array_8hpp.html" target="_top" xlink:title="Array implementation with CUDA support.">
<polygon fill="white" stroke="#666666" points="1185.5,-156.5 1099.5,-156.5 1099.5,-137.5 1185.5,-137.5 1185.5,-156.5"/>
<text text-anchor="middle" x="1142.5" y="-144.5" font-family="Helvetica,sans-Serif" font-size="10.00">utils/Array.hpp</text>
</a>
</g>
</g>
<!-- Node18&#45;&gt;Node21 -->
<g id="edge23_Node000018_Node000021" class="edge">
<title>Node18&#45;&gt;Node21</title>
<g id="a_edge23_Node000018_Node000021"><a xlink:title=" ">
<path fill="none" stroke="#63b8ff" d="M1235.42,-197.87C1217.55,-188.28 1188.46,-172.67 1167.59,-161.47"/>
<polygon fill="#63b8ff" stroke="#63b8ff" points="1169.12,-158.31 1158.65,-156.67 1165.81,-164.48 1169.12,-158.31"/>
</a>
</g>
</g>
<!-- Node23 -->
<g id="Node000023" class="node">
<title>Node23</title>
<g id="a_Node000023"><a xlink:href="get_8hpp.html" target="_top" xlink:title=" ">
<polygon fill="white" stroke="#666666" points="1403,-90.5 1350,-90.5 1350,-71.5 1403,-71.5 1403,-90.5"/>
<text text-anchor="middle" x="1376.5" y="-78.5" font-family="Helvetica,sans-Serif" font-size="10.00">get.hpp</text>
</a>
</g>
</g>
<!-- Node18&#45;&gt;Node23 -->
<g id="edge47_Node000018_Node000023" class="edge">
<title>Node18&#45;&gt;Node23</title>
<g id="a_edge47_Node000018_Node000023"><a xlink:title=" ">
<path fill="none" stroke="#63b8ff" d="M1246.05,-197.81C1237.49,-182.93 1223.27,-152.24 1237.5,-132 1239.09,-129.74 1301.5,-107.87 1342.14,-93.82"/>
<polygon fill="#63b8ff" stroke="#63b8ff" points="1343.4,-97.09 1351.71,-90.51 1341.11,-90.47 1343.4,-97.09"/>
</a>
</g>
</g>
<!-- Node18&#45;&gt;Node36 -->
<g id="edge50_Node000018_Node000036" class="edge">
<title>Node18&#45;&gt;Node36</title>
<g id="a_edge50_Node000018_Node000036"><a xlink:title=" ">
<path fill="none" stroke="#63b8ff" d="M1285.74,-204.34C1374.07,-198.65 1616.85,-182.28 1818.5,-162 1845.56,-159.28 1876.15,-155.48 1898.82,-152.53"/>
<polygon fill="#63b8ff" stroke="#63b8ff" points="1899.5,-155.97 1908.95,-151.2 1898.58,-149.03 1899.5,-155.97"/>
</a>
</g>
</g>
<!-- Node37 -->
<g id="Node000037" class="node">
<title>Node37</title>
<g id="a_Node000037"><a xlink:title=" ">
<polygon fill="#e0e0e0" stroke="#999999" points="1339.5,-156.5 1279.5,-156.5 1279.5,-137.5 1339.5,-137.5 1339.5,-156.5"/>
<text text-anchor="middle" x="1309.5" y="-144.5" font-family="Helvetica,sans-Serif" font-size="10.00">concepts</text>
</a>
</g>
</g>
<!-- Node18&#45;&gt;Node37 -->
<g id="edge51_Node000018_Node000037" class="edge">
<title>Node18&#45;&gt;Node37</title>
<g id="a_edge51_Node000018_Node000037"><a xlink:title=" ">
<path fill="none" stroke="#63b8ff" d="M1260.06,-197.87C1268.88,-188.97 1282.84,-174.89 1293.68,-163.95"/>
<polygon fill="#63b8ff" stroke="#63b8ff" points="1296.35,-166.23 1300.91,-156.67 1291.38,-161.3 1296.35,-166.23"/>
</a>
</g>
</g>
<!-- Node38 -->
<g id="Node000038" class="node">
<title>Node38</title>
<g id="a_Node000038"><a xlink:title=" ">
<polygon fill="#e0e0e0" stroke="#999999" points="1423,-156.5 1358,-156.5 1358,-137.5 1423,-137.5 1423,-156.5"/>
<text text-anchor="middle" x="1390.5" y="-144.5" font-family="Helvetica,sans-Serif" font-size="10.00">functional</text>
</a>
</g>
</g>
<!-- Node18&#45;&gt;Node38 -->
<g id="edge53_Node000018_Node000038" class="edge">
<title>Node18&#45;&gt;Node38</title>
<g id="a_edge53_Node000018_Node000038"><a xlink:title=" ">
<path fill="none" stroke="#63b8ff" d="M1271.71,-197.99C1295.18,-188.12 1334.11,-171.73 1360.96,-160.43"/>
<polygon fill="#63b8ff" stroke="#63b8ff" points="1362.4,-163.62 1370.26,-156.52 1359.69,-157.17 1362.4,-163.62"/>
</a>
</g>
</g>
<!-- Node39 -->
<g id="Node000039" class="node">
<title>Node39</title>
<g id="a_Node000039"><a xlink:title=" ">
<polygon fill="#e0e0e0" stroke="#999999" points="1524,-156.5 1441,-156.5 1441,-137.5 1524,-137.5 1524,-156.5"/>
<text text-anchor="middle" x="1482.5" y="-144.5" font-family="Helvetica,sans-Serif" font-size="10.00">initializer_list</text>
</a>
</g>
</g>
<!-- Node18&#45;&gt;Node39 -->
<g id="edge54_Node000018_Node000039" class="edge">
<title>Node18&#45;&gt;Node39</title>
<g id="a_edge54_Node000018_Node000039"><a xlink:title=" ">
<path fill="none" stroke="#63b8ff" d="M1285.74,-198.31C1322,-189.57 1380.88,-175.2 1431.5,-162 1434.89,-161.12 1438.4,-160.18 1441.93,-159.24"/>
<polygon fill="#63b8ff" stroke="#63b8ff" points="1443.05,-162.56 1451.79,-156.57 1441.22,-155.8 1443.05,-162.56"/>
</a>
</g>
</g>
<!-- Node40 -->
<g id="Node000040" class="node">
<title>Node40</title>
<g id="a_Node000040"><a xlink:title=" ">
<polygon fill="#e0e0e0" stroke="#999999" points="1592.5,-156.5 1542.5,-156.5 1542.5,-137.5 1592.5,-137.5 1592.5,-156.5"/>
<text text-anchor="middle" x="1567.5" y="-144.5" font-family="Helvetica,sans-Serif" font-size="10.00">ranges</text>
</a>
</g>
</g>
<!-- Node18&#45;&gt;Node40 -->
<g id="edge57_Node000018_Node000040" class="edge">
<title>Node18&#45;&gt;Node40</title>
<g id="a_edge57_Node000018_Node000040"><a xlink:title=" ">
<path fill="none" stroke="#63b8ff" d="M1285.76,-203.56C1339.21,-198.43 1445.36,-186 1532.5,-162 1534.44,-161.47 1536.42,-160.86 1538.4,-160.2"/>
<polygon fill="#63b8ff" stroke="#63b8ff" points="1539.95,-163.36 1548.14,-156.64 1537.55,-156.79 1539.95,-163.36"/>
</a>
</g>
</g>
<!-- Node41 -->
<g id="Node000041" class="node">
<title>Node41</title>
<g id="a_Node000041"><a xlink:title=" ">
<polygon fill="#e0e0e0" stroke="#999999" points="1650.5,-156.5 1610.5,-156.5 1610.5,-137.5 1650.5,-137.5 1650.5,-156.5"/>
<text text-anchor="middle" x="1630.5" y="-144.5" font-family="Helvetica,sans-Serif" font-size="10.00">span</text>
</a>
</g>
</g>
<!-- Node18&#45;&gt;Node41 -->
<g id="edge58_Node000018_Node000041" class="edge">
<title>Node18&#45;&gt;Node41</title>
<g id="a_edge58_Node000018_Node000041"><a xlink:title=" ">
<path fill="none" stroke="#63b8ff" d="M1285.54,-205.8C1348.98,-203.7 1489.04,-195.33 1601.5,-162 1602.94,-161.57 1604.4,-161.08 1605.85,-160.54"/>
<polygon fill="#63b8ff" stroke="#63b8ff" points="1607.42,-163.68 1615.22,-156.51 1604.65,-157.25 1607.42,-163.68"/>
</a>
</g>
</g>
<!-- Node42 -->
<g id="Node000042" class="node">
<title>Node42</title>
<g id="a_Node000042"><a xlink:title=" ">
<polygon fill="#e0e0e0" stroke="#999999" points="1738,-156.5 1669,-156.5 1669,-137.5 1738,-137.5 1738,-156.5"/>
<text text-anchor="middle" x="1703.5" y="-144.5" font-family="Helvetica,sans-Serif" font-size="10.00">type_traits</text>
</a>
</g>
</g>
<!-- Node18&#45;&gt;Node42 -->
<g id="edge59_Node000018_Node000042" class="edge">
<title>Node18&#45;&gt;Node42</title>
<g id="a_edge59_Node000018_Node000042"><a xlink:title=" ">
<path fill="none" stroke="#63b8ff" d="M1285.71,-205.07C1356.29,-201.63 1522.86,-190.89 1659.5,-162 1662.9,-161.28 1666.4,-160.41 1669.89,-159.45"/>
<polygon fill="#63b8ff" stroke="#63b8ff" points="1670.94,-162.79 1679.52,-156.58 1668.94,-156.08 1670.94,-162.79"/>
</a>
</g>
</g>
<!-- Node21&#45;&gt;Node7 -->
<g id="edge40_Node000021_Node000007" class="edge">
<title>Node21&#45;&gt;Node7</title>
<g id="a_edge40_Node000021_Node000007"><a xlink:title=" ">
<path fill="none" stroke="#63b8ff" d="M1111.46,-137.48C1072.56,-126.55 1008.34,-107.63 986.5,-96 967.51,-85.89 968.56,-73.77 948.5,-66 738.27,15.46 662.24,-80.47 442.5,-30 440.13,-29.46 437.71,-28.78 435.31,-28.01"/>
<polygon fill="#63b8ff" stroke="#63b8ff" points="436.28,-24.64 425.68,-24.51 433.89,-31.22 436.28,-24.64"/>
</a>
</g>
</g>
<!-- Node21&#45;&gt;Node8 -->
<g id="edge41_Node000021_Node000008" class="edge">
<title>Node21&#45;&gt;Node8</title>
<g id="a_edge41_Node000021_Node000008"><a xlink:title=" ">
<path fill="none" stroke="#63b8ff" d="M1180.96,-137.46C1213.6,-129.35 1261.12,-115.5 1299.5,-96 1319.63,-85.77 1319.59,-74.51 1340.5,-66 1445.7,-23.19 1483.63,-58.77 1593.5,-30 1595.8,-29.4 1598.15,-28.69 1600.5,-27.93"/>
<polygon fill="#63b8ff" stroke="#63b8ff" points="1601.73,-31.2 1609.96,-24.53 1599.37,-24.62 1601.73,-31.2"/>
</a>
</g>
</g>
<!-- Node21&#45;&gt;Node9 -->
<g id="edge39_Node000021_Node000009" class="edge">
<title>Node21&#45;&gt;Node9</title>
<g id="a_edge39_Node000021_Node000009"><a xlink:title=" ">
<path fill="none" stroke="#63b8ff" d="M1113.51,-137.47C1106.06,-135.47 1098.02,-133.5 1090.5,-132 973.22,-108.62 939.24,-116.87 817.17,-96"/>
<polygon fill="#63b8ff" stroke="#63b8ff" points="817.5,-92.5 807.05,-94.24 816.3,-99.4 817.5,-92.5"/>
</a>
</g>
</g>
<!-- Node21&#45;&gt;Node15 -->
<g id="edge42_Node000021_Node000015" class="edge">
<title>Node21&#45;&gt;Node15</title>
<g id="a_edge42_Node000021_Node000015"><a xlink:title=" ">
<path fill="none" stroke="#63b8ff" d="M1185.73,-141.1C1210.53,-138.33 1242.25,-134.87 1270.5,-132 1367.56,-122.15 1663.53,-94.92 1767.73,-85.37"/>
<polygon fill="#63b8ff" stroke="#63b8ff" points="1768.13,-88.85 1777.77,-84.45 1767.49,-81.87 1768.13,-88.85"/>
</a>
</g>
</g>
<!-- Node21&#45;&gt;Node17 -->
<g id="edge44_Node000021_Node000017" class="edge">
<title>Node21&#45;&gt;Node17</title>
<g id="a_edge44_Node000021_Node000017"><a xlink:title=" ">
<path fill="none" stroke="#63b8ff" d="M1185.69,-140.09C1275.04,-127.87 1479.24,-99.95 1568,-87.81"/>
<polygon fill="#63b8ff" stroke="#63b8ff" points="1568.55,-91.27 1577.99,-86.45 1567.6,-84.33 1568.55,-91.27"/>
</a>
</g>
</g>
<!-- Node22 -->
<g id="Node000022" class="node">
<title>Node22</title>
<g id="a_Node000022"><a xlink:href="device__qualifier_8hpp.html" target="_top" xlink:title=" ">
<polygon fill="white" stroke="#666666" points="939.5,-90.5 825.5,-90.5 825.5,-71.5 939.5,-71.5 939.5,-90.5"/>
<text text-anchor="middle" x="882.5" y="-78.5" font-family="Helvetica,sans-Serif" font-size="10.00">device_qualifier.hpp</text>
</a>
</g>
</g>
<!-- Node21&#45;&gt;Node22 -->
<g id="edge24_Node000021_Node000022" class="edge">
<title>Node21&#45;&gt;Node22</title>
<g id="a_edge24_Node000021_Node000022"><a xlink:title=" ">
<path fill="none" stroke="#63b8ff" d="M1111.46,-137.5C1104.57,-135.65 1097.29,-133.73 1090.5,-132 1035.31,-117.94 971.6,-102.78 929.38,-92.89"/>
<polygon fill="#63b8ff" stroke="#63b8ff" points="929.93,-89.42 919.4,-90.55 928.34,-96.24 929.93,-89.42"/>
</a>
</g>
</g>
<!-- Node21&#45;&gt;Node23 -->
<g id="edge26_Node000021_Node000023" class="edge">
<title>Node21&#45;&gt;Node23</title>
<g id="a_edge26_Node000021_Node000023"><a xlink:title=" ">
<path fill="none" stroke="#63b8ff" d="M1176.72,-137.47C1223.75,-125.68 1305.91,-104.87 1335.5,-96 1337.81,-95.31 1340.18,-94.57 1342.57,-93.81"/>
<polygon fill="#63b8ff" stroke="#63b8ff" points="1343.91,-97.05 1352.32,-90.6 1341.72,-90.4 1343.91,-97.05"/>
</a>
</g>
</g>
<!-- Node24 -->
<g id="Node000024" class="node">
<title>Node24</title>
<g id="a_Node000024"><a xlink:title=" ">
<polygon fill="#e0e0e0" stroke="#999999" points="1585,-24.5 1540,-24.5 1540,-5.5 1585,-5.5 1585,-24.5"/>
<text text-anchor="middle" x="1562.5" y="-12.5" font-family="Helvetica,sans-Serif" font-size="10.00">utility</text>
</a>
</g>
</g>
<!-- Node21&#45;&gt;Node24 -->
<g id="edge46_Node000021_Node000024" class="edge">
<title>Node21&#45;&gt;Node24</title>
<g id="a_edge46_Node000021_Node000024"><a xlink:title=" ">
<path fill="none" stroke="#63b8ff" d="M1167.29,-137.47C1192.23,-128.49 1231.5,-113.28 1263.5,-96 1284.33,-84.75 1285.51,-74.76 1307.5,-66 1400.76,-28.83 1434.19,-58.35 1530.5,-30 1532.18,-29.51 1533.89,-28.94 1535.6,-28.34"/>
<polygon fill="#63b8ff" stroke="#63b8ff" points="1537.2,-31.47 1545.19,-24.52 1534.61,-24.97 1537.2,-31.47"/>
</a>
</g>
</g>
<!-- Node25 -->
<g id="Node000025" class="node">
<title>Node25</title>
<g id="a_Node000025"><a xlink:href="array_8hpp.html" target="_top" xlink:title=" ">
<polygon fill="white" stroke="#666666" points="1255,-90.5 1130,-90.5 1130,-71.5 1255,-71.5 1255,-90.5"/>
<text text-anchor="middle" x="1192.5" y="-78.5" font-family="Helvetica,sans-Serif" font-size="10.00">serialization/array.hpp</text>
</a>
</g>
</g>
<!-- Node21&#45;&gt;Node25 -->
<g id="edge29_Node000021_Node000025" class="edge">
<title>Node21&#45;&gt;Node25</title>
<g id="a_edge29_Node000021_Node000025"><a xlink:title=" ">
<path fill="none" stroke="#63b8ff" d="M1149.24,-137.37C1156.88,-127.59 1169.51,-111.42 1179.16,-99.08"/>
<polygon fill="#63b8ff" stroke="#63b8ff" points="1182.14,-100.94 1185.54,-90.91 1176.63,-96.63 1182.14,-100.94"/>
</a>
</g>
</g>
<!-- Node34 -->
<g id="Node000034" class="node">
<title>Node34</title>
<g id="a_Node000034"><a xlink:title=" ">
<polygon fill="#e0e0e0" stroke="#999999" points="1053,-90.5 996,-90.5 996,-71.5 1053,-71.5 1053,-90.5"/>
<text text-anchor="middle" x="1024.5" y="-78.5" font-family="Helvetica,sans-Serif" font-size="10.00">ostream</text>
</a>
</g>
</g>
<!-- Node21&#45;&gt;Node34 -->
<g id="edge43_Node000021_Node000034" class="edge">
<title>Node21&#45;&gt;Node34</title>
<g id="a_edge43_Node000021_Node000034"><a xlink:title=" ">
<path fill="none" stroke="#63b8ff" d="M1126.59,-137.37C1106.79,-126.63 1072.77,-108.18 1049.49,-95.55"/>
<polygon fill="#63b8ff" stroke="#63b8ff" points="1051,-92.39 1040.54,-90.7 1047.66,-98.54 1051,-92.39"/>
</a>
</g>
</g>
<!-- Node35 -->
<g id="Node000035" class="node">
<title>Node35</title>
<g id="a_Node000035"><a xlink:title=" ">
<polygon fill="#e0e0e0" stroke="#999999" points="1112,-90.5 1071,-90.5 1071,-71.5 1112,-71.5 1112,-90.5"/>
<text text-anchor="middle" x="1091.5" y="-78.5" font-family="Helvetica,sans-Serif" font-size="10.00">tuple</text>
</a>
</g>
</g>
<!-- Node21&#45;&gt;Node35 -->
<g id="edge45_Node000021_Node000035" class="edge">
<title>Node21&#45;&gt;Node35</title>
<g id="a_edge45_Node000021_Node000035"><a xlink:title=" ">
<path fill="none" stroke="#63b8ff" d="M1135.62,-137.37C1127.83,-127.59 1114.95,-111.42 1105.11,-99.08"/>
<polygon fill="#63b8ff" stroke="#63b8ff" points="1107.57,-96.54 1098.6,-90.91 1102.09,-100.91 1107.57,-96.54"/>
</a>
</g>
</g>
<!-- Node22&#45;&gt;Node7 -->
<g id="edge25_Node000022_Node000007" class="edge">
<title>Node22&#45;&gt;Node7</title>
<g id="a_edge25_Node000022_Node000007"><a xlink:title=" ">
<path fill="none" stroke="#63b8ff" d="M845.42,-71.49C835.72,-69.48 825.25,-67.48 815.5,-66 650.85,-40.93 604.34,-69.32 442.5,-30 440.19,-29.44 437.84,-28.76 435.49,-28"/>
<polygon fill="#63b8ff" stroke="#63b8ff" points="436.66,-24.7 426.07,-24.56 434.27,-31.28 436.66,-24.7"/>
</a>
</g>
</g>
<!-- Node23&#45;&gt;Node8 -->
<g id="edge27_Node000023_Node000008" class="edge">
<title>Node23&#45;&gt;Node8</title>
<g id="a_edge27_Node000023_Node000008"><a xlink:title=" ">
<path fill="none" stroke="#63b8ff" d="M1399.76,-71.49C1405.51,-69.54 1411.69,-67.58 1417.5,-66 1494.55,-45.06 1516.91,-52.55 1593.5,-30 1595.43,-29.43 1597.4,-28.8 1599.38,-28.14"/>
<polygon fill="#63b8ff" stroke="#63b8ff" points="1600.94,-31.3 1609.15,-24.6 1598.55,-24.72 1600.94,-31.3"/>
</a>
</g>
</g>
<!-- Node23&#45;&gt;Node24 -->
<g id="edge28_Node000023_Node000024" class="edge">
<title>Node23&#45;&gt;Node24</title>
<g id="a_edge28_Node000023_Node000024"><a xlink:title=" ">
<path fill="none" stroke="#63b8ff" d="M1401.19,-71.48C1406.56,-69.65 1412.21,-67.74 1417.5,-66 1467.55,-49.48 1481.18,-48.59 1530.5,-30 1531.71,-29.54 1532.95,-29.06 1534.19,-28.57"/>
<polygon fill="#63b8ff" stroke="#63b8ff" points="1535.79,-31.69 1543.68,-24.62 1533.11,-25.23 1535.79,-31.69"/>
</a>
</g>
</g>
<!-- Node25&#45;&gt;Node8 -->
<g id="edge38_Node000025_Node000008" class="edge">
<title>Node25&#45;&gt;Node8</title>
<g id="a_edge38_Node000025_Node000008"><a xlink:title=" ">
<path fill="none" stroke="#63b8ff" d="M1255.26,-72.27C1367.06,-58.5 1589.43,-31.03 1593.5,-30 1595.8,-29.42 1598.16,-28.73 1600.51,-27.97"/>
<polygon fill="#63b8ff" stroke="#63b8ff" points="1601.74,-31.25 1609.98,-24.6 1599.39,-24.66 1601.74,-31.25"/>
</a>
</g>
</g>
<!-- Node26 -->
<g id="Node000026" class="node">
<title>Node26</title>
<g id="a_Node000026"><a xlink:title=" ">
<polygon fill="#e0e0e0" stroke="#999999" points="1259,-24.5 1126,-24.5 1126,-5.5 1259,-5.5 1259,-24.5"/>
<text text-anchor="middle" x="1192.5" y="-12.5" font-family="Helvetica,sans-Serif" font-size="10.00">boost/mpl/bool_fwd.hpp</text>
</a>
</g>
</g>
<!-- Node25&#45;&gt;Node26 -->
<g id="edge30_Node000025_Node000026" class="edge">
<title>Node25&#45;&gt;Node26</title>
<g id="a_edge30_Node000025_Node000026"><a xlink:title=" ">
<path fill="none" stroke="#63b8ff" d="M1192.5,-71.37C1192.5,-62.16 1192.5,-47.29 1192.5,-35.27"/>
<polygon fill="#63b8ff" stroke="#63b8ff" points="1196,-34.91 1192.5,-24.91 1189,-34.91 1196,-34.91"/>
</a>
</g>
</g>
<!-- Node27 -->
<g id="Node000027" class="node">
<title>Node27</title>
<g id="a_Node000027"><a xlink:title=" ">
<polygon fill="#e0e0e0" stroke="#999999" points="1401.5,-24.5 1277.5,-24.5 1277.5,-5.5 1401.5,-5.5 1401.5,-24.5"/>
<text text-anchor="middle" x="1339.5" y="-12.5" font-family="Helvetica,sans-Serif" font-size="10.00">boost/mpl/greater.hpp</text>
</a>
</g>
</g>
<!-- Node25&#45;&gt;Node27 -->
<g id="edge31_Node000025_Node000027" class="edge">
<title>Node25&#45;&gt;Node27</title>
<g id="a_edge31_Node000025_Node000027"><a xlink:title=" ">
<path fill="none" stroke="#63b8ff" d="M1212.33,-71.37C1237.53,-60.39 1281.26,-41.36 1310.29,-28.72"/>
<polygon fill="#63b8ff" stroke="#63b8ff" points="1311.75,-31.9 1319.52,-24.7 1308.95,-25.48 1311.75,-31.9"/>
</a>
</g>
</g>
<!-- Node28 -->
<g id="Node000028" class="node">
<title>Node28</title>
<g id="a_Node000028"><a xlink:title=" ">
<polygon fill="#e0e0e0" stroke="#999999" points="1521.5,-24.5 1419.5,-24.5 1419.5,-5.5 1521.5,-5.5 1521.5,-24.5"/>
<text text-anchor="middle" x="1470.5" y="-12.5" font-family="Helvetica,sans-Serif" font-size="10.00">boost/mpl/int.hpp</text>
</a>
</g>
</g>
<!-- Node25&#45;&gt;Node28 -->
<g id="edge32_Node000025_Node000028" class="edge">
<title>Node25&#45;&gt;Node28</title>
<g id="a_edge32_Node000025_Node000028"><a xlink:title=" ">
<path fill="none" stroke="#63b8ff" d="M1229.93,-71.46C1273.36,-61.54 1347.13,-44.66 1410.5,-30 1414.9,-28.98 1419.48,-27.92 1424.06,-26.86"/>
<polygon fill="#63b8ff" stroke="#63b8ff" points="1425.07,-30.21 1434.02,-24.54 1423.48,-23.4 1425.07,-30.21"/>
</a>
</g>
</g>
<!-- Node29 -->
<g id="Node000029" class="node">
<title>Node29</title>
<g id="a_Node000029"><a xlink:title=" ">
<polygon fill="#e0e0e0" stroke="#999999" points="557.5,-30 451.5,-30 451.5,0 557.5,0 557.5,-30"/>
<text text-anchor="start" x="459.5" y="-18" font-family="Helvetica,sans-Serif" font-size="10.00">boost/mpl/integral</text>
<text text-anchor="middle" x="504.5" y="-7" font-family="Helvetica,sans-Serif" font-size="10.00">_c_tag.hpp</text>
</a>
</g>
</g>
<!-- Node25&#45;&gt;Node29 -->
<g id="edge33_Node000025_Node000029" class="edge">
<title>Node25&#45;&gt;Node29</title>
<g id="a_edge33_Node000025_Node000029"><a xlink:title=" ">
<path fill="none" stroke="#63b8ff" d="M1153.41,-71.46C1142.78,-69.4 1131.23,-67.39 1120.5,-66 879.02,-34.81 812.45,-64.48 567.74,-30.02"/>
<polygon fill="#63b8ff" stroke="#63b8ff" points="568.23,-26.55 557.84,-28.6 567.24,-33.48 568.23,-26.55"/>
</a>
</g>
</g>
<!-- Node30 -->
<g id="Node000030" class="node">
<title>Node30</title>
<g id="a_Node000030"><a xlink:title=" ">
<polygon fill="#e0e0e0" stroke="#999999" points="727,-30 576,-30 576,0 727,0 727,-30"/>
<text text-anchor="start" x="584" y="-18" font-family="Helvetica,sans-Serif" font-size="10.00">boost/serialization</text>
<text text-anchor="middle" x="651.5" y="-7" font-family="Helvetica,sans-Serif" font-size="10.00">/is_bitwise_serializable.hpp</text>
</a>
</g>
</g>
<!-- Node25&#45;&gt;Node30 -->
<g id="edge34_Node000025_Node000030" class="edge">
<title>Node25&#45;&gt;Node30</title>
<g id="a_edge34_Node000025_Node000030"><a xlink:title=" ">
<path fill="none" stroke="#63b8ff" d="M1152.25,-71.45C1141.94,-69.45 1130.84,-67.48 1120.5,-66 953.63,-42.03 907.66,-51.75 737.09,-30.14"/>
<polygon fill="#63b8ff" stroke="#63b8ff" points="737.38,-26.65 727.02,-28.85 736.49,-33.6 737.38,-26.65"/>
</a>
</g>
</g>
<!-- Node31 -->
<g id="Node000031" class="node">
<title>Node31</title>
<g id="a_Node000031"><a xlink:title=" ">
<polygon fill="#e0e0e0" stroke="#999999" points="852,-30 745,-30 745,0 852,0 852,-30"/>
<text text-anchor="start" x="753" y="-18" font-family="Helvetica,sans-Serif" font-size="10.00">boost/serialization</text>
<text text-anchor="middle" x="798.5" y="-7" font-family="Helvetica,sans-Serif" font-size="10.00">/level.hpp</text>
</a>
</g>
</g>
<!-- Node25&#45;&gt;Node31 -->
<g id="edge35_Node000025_Node000031" class="edge">
<title>Node25&#45;&gt;Node31</title>
<g id="a_edge35_Node000025_Node000031"><a xlink:title=" ">
<path fill="none" stroke="#63b8ff" d="M1150.69,-71.47C1140.81,-69.57 1130.3,-67.63 1120.5,-66 1008.57,-47.38 976.99,-50.66 862.1,-30.2"/>
<polygon fill="#63b8ff" stroke="#63b8ff" points="862.67,-26.75 852.21,-28.42 861.43,-33.64 862.67,-26.75"/>
</a>
</g>
</g>
<!-- Node32 -->
<g id="Node000032" class="node">
<title>Node32</title>
<g id="a_Node000032"><a xlink:title=" ">
<polygon fill="#e0e0e0" stroke="#999999" points="977,-30 870,-30 870,0 977,0 977,-30"/>
<text text-anchor="start" x="878" y="-18" font-family="Helvetica,sans-Serif" font-size="10.00">boost/serialization</text>
<text text-anchor="middle" x="923.5" y="-7" font-family="Helvetica,sans-Serif" font-size="10.00">/tracking.hpp</text>
</a>
</g>
</g>
<!-- Node25&#45;&gt;Node32 -->
<g id="edge36_Node000025_Node000032" class="edge">
<title>Node25&#45;&gt;Node32</title>
<g id="a_edge36_Node000025_Node000032"><a xlink:title=" ">
<path fill="none" stroke="#63b8ff" d="M1156.5,-71.44C1113.33,-61.16 1040.18,-43.76 987.35,-31.19"/>
<polygon fill="#63b8ff" stroke="#63b8ff" points="987.94,-27.73 977.4,-28.82 986.32,-34.54 987.94,-27.73"/>
</a>
</g>
</g>
<!-- Node33 -->
<g id="Node000033" class="node">
<title>Node33</title>
<g id="a_Node000033"><a xlink:title=" ">
<polygon fill="#e0e0e0" stroke="#999999" points="1108,-30 995,-30 995,0 1108,0 1108,-30"/>
<text text-anchor="start" x="1003" y="-18" font-family="Helvetica,sans-Serif" font-size="10.00">boost/serialization</text>
<text text-anchor="middle" x="1051.5" y="-7" font-family="Helvetica,sans-Serif" font-size="10.00">/tracking_enum.hpp</text>
</a>
</g>
</g>
<!-- Node25&#45;&gt;Node33 -->
<g id="edge37_Node000025_Node000033" class="edge">
<title>Node25&#45;&gt;Node33</title>
<g id="a_edge37_Node000025_Node000033"><a xlink:title=" ">
<path fill="none" stroke="#63b8ff" d="M1173.48,-71.37C1152.64,-61.91 1118.59,-46.45 1091.76,-34.27"/>
<polygon fill="#63b8ff" stroke="#63b8ff" points="1093.15,-31.06 1082.6,-30.12 1090.26,-37.44 1093.15,-31.06"/>
</a>
</g>
</g>
<!-- Node43&#45;&gt;Node22 -->
<g id="edge62_Node000043_Node000022" class="edge">
<title>Node43&#45;&gt;Node22</title>
<g id="a_edge62_Node000043_Node000022"><a xlink:title=" ">
<path fill="none" stroke="#63b8ff" d="M508.49,-197.98C508.96,-182.24 512.43,-148.66 532.5,-132 581.28,-91.51 752.98,-106.49 815.5,-96 821.65,-94.97 828.1,-93.77 834.46,-92.52"/>
<polygon fill="#63b8ff" stroke="#63b8ff" points="835.23,-95.93 844.33,-90.52 833.84,-89.07 835.23,-95.93"/>
</a>
</g>
</g>
</g>
</svg>
