<?xml version="1.0" encoding="UTF-8" standalone="no"?>
<!DOCTYPE svg PUBLIC "-//W3C//DTD SVG 1.1//EN"
 "http://www.w3.org/Graphics/SVG/1.1/DTD/svg11.dtd">
<!-- Generated by graphviz version 2.43.0 (0)
 -->
<!-- Title: ScriptInterface::Coulomb::CoulombP3M Pages: 1 -->
<svg width="236pt" height="240pt"
 viewBox="0.00 0.00 236.00 240.00" xmlns="http://www.w3.org/2000/svg" xmlns:xlink="http://www.w3.org/1999/xlink">
<g id="graph0" class="graph" transform="scale(1 1) rotate(0) translate(4 236)">
<title>ScriptInterface::Coulomb::CoulombP3M</title>
<!-- Node1 -->
<g id="node1" class="node">
<title>Node1</title>
<g id="a_node1"><a xlink:title=" ">
<polygon fill="#bfbfbf" stroke="black" points="45.5,-0.5 45.5,-30.5 182.5,-30.5 182.5,-0.5 45.5,-0.5"/>
<text text-anchor="start" x="53.5" y="-18.5" font-family="Helvetica,sans-Serif" font-size="10.00">ScriptInterface::Coulomb</text>
<text text-anchor="middle" x="114" y="-7.5" font-family="Helvetica,sans-Serif" font-size="10.00">::CoulombP3M</text>
</a>
</g>
</g>
<!-- Node2 -->
<g id="node2" class="node">
<title>Node2</title>
<g id="a_node2"><a xlink:href="classScriptInterface_1_1Coulomb_1_1Actor.html" target="_top" xlink:title=" ">
<polygon fill="none" stroke="black" points="45.5,-67.5 45.5,-108.5 182.5,-108.5 182.5,-67.5 45.5,-67.5"/>
<text text-anchor="start" x="53.5" y="-96.5" font-family="Helvetica,sans-Serif" font-size="10.00">ScriptInterface::Coulomb</text>
<text text-anchor="start" x="53.5" y="-85.5" font-family="Helvetica,sans-Serif" font-size="10.00">::Actor&lt; CoulombP3M, ::</text>
<text text-anchor="middle" x="114" y="-74.5" font-family="Helvetica,sans-Serif" font-size="10.00">CoulombP3M &gt;</text>
</a>
</g>
</g>
<!-- Node2&#45;&gt;Node1 -->
<g id="edge1" class="edge">
<title>Node2&#45;&gt;Node1</title>
<path fill="none" stroke="midnightblue" d="M114,-57.08C114,-48.01 114,-38.45 114,-30.89"/>
<polygon fill="midnightblue" stroke="midnightblue" points="110.5,-57.36 114,-67.36 117.5,-57.36 110.5,-57.36"/>
</g>
<!-- Node3 -->
<g id="node3" class="node">
<title>Node3</title>
<g id="a_node3"><a xlink:href="classScriptInterface_1_1AutoParameters.html" target="_top" xlink:title=" ">
<polygon fill="none" stroke="black" points="0,-145.5 0,-175.5 228,-175.5 228,-145.5 0,-145.5"/>
<text text-anchor="start" x="8" y="-163.5" font-family="Helvetica,sans-Serif" font-size="10.00">ScriptInterface::AutoParameters</text>
<text text-anchor="middle" x="114" y="-152.5" font-family="Helvetica,sans-Serif" font-size="10.00">&lt; Actor&lt; CoulombP3M, ::CoulombP3M &gt; &gt;</text>
</a>
</g>
</g>
<!-- Node3&#45;&gt;Node2 -->
<g id="edge2" class="edge">
<title>Node3&#45;&gt;Node2</title>
<path fill="none" stroke="midnightblue" d="M114,-134.98C114,-126.35 114,-116.76 114,-108.59"/>
<polygon fill="midnightblue" stroke="midnightblue" points="110.5,-135.23 114,-145.23 117.5,-135.23 110.5,-135.23"/>
</g>
<!-- Node4 -->
<g id="node4" class="node">
<title>Node4</title>
<g id="a_node4"><a xlink:href="classScriptInterface_1_1ObjectHandle.html" target="_top" xlink:title="Base class for interface handles.">
<polygon fill="none" stroke="black" points="34,-212.5 34,-231.5 194,-231.5 194,-212.5 34,-212.5"/>
<text text-anchor="middle" x="114" y="-219.5" font-family="Helvetica,sans-Serif" font-size="10.00">ScriptInterface::ObjectHandle</text>
</a>
</g>
</g>
<!-- Node4&#45;&gt;Node3 -->
<g id="edge3" class="edge">
<title>Node4&#45;&gt;Node3</title>
<path fill="none" stroke="midnightblue" d="M114,-202.23C114,-193.59 114,-183.5 114,-175.52"/>
<polygon fill="midnightblue" stroke="midnightblue" points="110.5,-202.48 114,-212.48 117.5,-202.48 110.5,-202.48"/>
</g>
</g>
</svg>
