<?xml version="1.0" encoding="UTF-8" standalone="no"?>
<!DOCTYPE svg PUBLIC "-//W3C//DTD SVG 1.1//EN"
 "http://www.w3.org/Graphics/SVG/1.1/DTD/svg11.dtd">
<!-- Generated by graphviz version 2.43.0 (0)
 -->
<!-- Title: ScriptInterface::ReactionMethods::ReactionAlgorithm Pages: 1 -->
<svg width="773pt" height="134pt"
 viewBox="0.00 0.00 773.00 134.00" xmlns="http://www.w3.org/2000/svg" xmlns:xlink="http://www.w3.org/1999/xlink">
<g id="graph0" class="graph" transform="scale(1 1) rotate(0) translate(4 130)">
<title>ScriptInterface::ReactionMethods::ReactionAlgorithm</title>
<!-- Node1 -->
<g id="Node000001" class="node">
<title>Node1</title>
<g id="a_Node000001"><a xlink:title=" ">
<polygon fill="#999999" stroke="#666666" points="559,-78 404,-78 404,-48 559,-48 559,-78"/>
<text text-anchor="start" x="412" y="-66" font-family="Helvetica,sans-Serif" font-size="10.00">ScriptInterface::Reaction</text>
<text text-anchor="middle" x="481.5" y="-55" font-family="Helvetica,sans-Serif" font-size="10.00">Methods::ReactionAlgorithm</text>
</a>
</g>
</g>
<!-- Node4 -->
<g id="Node000004" class="node">
<title>Node4</title>
<g id="a_Node000004"><a xlink:href="classScriptInterface_1_1ReactionMethods_1_1ConstantpHEnsemble.html" target="_top" xlink:title=" ">
<polygon fill="white" stroke="#666666" points="765,-126 595,-126 595,-96 765,-96 765,-126"/>
<text text-anchor="start" x="603" y="-114" font-family="Helvetica,sans-Serif" font-size="10.00">ScriptInterface::Reaction</text>
<text text-anchor="middle" x="680" y="-103" font-family="Helvetica,sans-Serif" font-size="10.00">Methods::ConstantpHEnsemble</text>
</a>
</g>
</g>
<!-- Node1&#45;&gt;Node4 -->
<g id="edge3_Node000001_Node000004" class="edge">
<title>Node1&#45;&gt;Node4</title>
<g id="a_edge3_Node000001_Node000004"><a xlink:title=" ">
<path fill="none" stroke="#63b8ff" d="M553.9,-80.44C574.77,-85.54 597.39,-91.07 617.58,-96"/>
<polygon fill="#63b8ff" stroke="#63b8ff" points="554.68,-77.03 544.13,-78.06 553.02,-83.83 554.68,-77.03"/>
</a>
</g>
</g>
<!-- Node5 -->
<g id="Node000005" class="node">
<title>Node5</title>
<g id="a_Node000005"><a xlink:href="classScriptInterface_1_1ReactionMethods_1_1ReactionEnsemble.html" target="_top" xlink:title=" ">
<polygon fill="white" stroke="#666666" points="757.5,-78 602.5,-78 602.5,-48 757.5,-48 757.5,-78"/>
<text text-anchor="start" x="610.5" y="-66" font-family="Helvetica,sans-Serif" font-size="10.00">ScriptInterface::Reaction</text>
<text text-anchor="middle" x="680" y="-55" font-family="Helvetica,sans-Serif" font-size="10.00">Methods::ReactionEnsemble</text>
</a>
</g>
</g>
<!-- Node1&#45;&gt;Node5 -->
<g id="edge4_Node000001_Node000005" class="edge">
<title>Node1&#45;&gt;Node5</title>
<g id="a_edge4_Node000001_Node000005"><a xlink:title=" ">
<path fill="none" stroke="#63b8ff" d="M569.13,-63C580.19,-63 591.46,-63 602.35,-63"/>
<polygon fill="#63b8ff" stroke="#63b8ff" points="569.03,-59.5 559.03,-63 569.03,-66.5 569.03,-59.5"/>
</a>
</g>
</g>
<!-- Node6 -->
<g id="Node000006" class="node">
<title>Node6</title>
<g id="a_Node000006"><a xlink:href="classScriptInterface_1_1ReactionMethods_1_1WidomInsertion.html" target="_top" xlink:title=" ">
<polygon fill="white" stroke="#666666" points="751,-30 609,-30 609,0 751,0 751,-30"/>
<text text-anchor="start" x="617" y="-18" font-family="Helvetica,sans-Serif" font-size="10.00">ScriptInterface::Reaction</text>
<text text-anchor="middle" x="680" y="-7" font-family="Helvetica,sans-Serif" font-size="10.00">Methods::WidomInsertion</text>
</a>
</g>
</g>
<!-- Node1&#45;&gt;Node6 -->
<g id="edge5_Node000001_Node000006" class="edge">
<title>Node1&#45;&gt;Node6</title>
<g id="a_edge5_Node000001_Node000006"><a xlink:title=" ">
<path fill="none" stroke="#63b8ff" d="M553.9,-45.56C574.77,-40.46 597.39,-34.93 617.58,-30"/>
<polygon fill="#63b8ff" stroke="#63b8ff" points="553.02,-42.17 544.13,-47.94 554.68,-48.97 553.02,-42.17"/>
</a>
</g>
</g>
<!-- Node2 -->
<g id="Node000002" class="node">
<title>Node2</title>
<g id="a_Node000002"><a xlink:href="classScriptInterface_1_1AutoParameters.html" target="_top" xlink:title=" ">
<polygon fill="white" stroke="#666666" points="368,-78 196,-78 196,-48 368,-48 368,-78"/>
<text text-anchor="start" x="204" y="-66" font-family="Helvetica,sans-Serif" font-size="10.00">ScriptInterface::AutoParameters</text>
<text text-anchor="middle" x="282" y="-55" font-family="Helvetica,sans-Serif" font-size="10.00">&lt; ReactionAlgorithm &gt;</text>
</a>
</g>
</g>
<!-- Node2&#45;&gt;Node1 -->
<g id="edge1_Node000001_Node000002" class="edge">
<title>Node2&#45;&gt;Node1</title>
<g id="a_edge1_Node000001_Node000002"><a xlink:title=" ">
<path fill="none" stroke="#63b8ff" d="M378.28,-63C386.9,-63 395.56,-63 403.99,-63"/>
<polygon fill="#63b8ff" stroke="#63b8ff" points="378.19,-59.5 368.19,-63 378.19,-66.5 378.19,-59.5"/>
</a>
</g>
</g>
<!-- Node3 -->
<g id="Node000003" class="node">
<title>Node3</title>
<g id="a_Node000003"><a xlink:href="classScriptInterface_1_1ObjectHandle.html" target="_top" xlink:title="Base class for interface handles.">
<polygon fill="white" stroke="#666666" points="160,-72.5 0,-72.5 0,-53.5 160,-53.5 160,-72.5"/>
<text text-anchor="middle" x="80" y="-60.5" font-family="Helvetica,sans-Serif" font-size="10.00">ScriptInterface::ObjectHandle</text>
</a>
</g>
</g>
<!-- Node3&#45;&gt;Node2 -->
<g id="edge2_Node000002_Node000003" class="edge">
<title>Node3&#45;&gt;Node2</title>
<g id="a_edge2_Node000002_Node000003"><a xlink:title=" ">
<path fill="none" stroke="#63b8ff" d="M170.08,-63C178.68,-63 187.39,-63 195.95,-63"/>
<polygon fill="#63b8ff" stroke="#63b8ff" points="170.05,-59.5 160.05,-63 170.05,-66.5 170.05,-59.5"/>
</a>
</g>
</g>
</g>
</svg>
