<?xml version="1.0" encoding="UTF-8" standalone="no"?>
<!DOCTYPE svg PUBLIC "-//W3C//DTD SVG 1.1//EN"
 "http://www.w3.org/Graphics/SVG/1.1/DTD/svg11.dtd">
<!-- Generated by graphviz version 2.43.0 (0)
 -->
<!-- Title: ScriptInterface::ReactionMethods::ReactionAlgorithm Pages: 1 -->
<svg width="1409pt" height="81pt"
 viewBox="0.00 0.00 1409.00 81.00" xmlns="http://www.w3.org/2000/svg" xmlns:xlink="http://www.w3.org/1999/xlink">
<g id="graph0" class="graph" transform="scale(1 1) rotate(0) translate(4 77)">
<title>ScriptInterface::ReactionMethods::ReactionAlgorithm</title>
<!-- Node1 -->
<g id="Node000001" class="node">
<title>Node1</title>
<g id="a_Node000001"><a xlink:title=" ">
<polygon fill="#999999" stroke="#666666" points="1401,-56 1246,-56 1246,-26 1401,-26 1401,-56"/>
<text text-anchor="start" x="1254" y="-44" font-family="Helvetica,sans-Serif" font-size="10.00">ScriptInterface::Reaction</text>
<text text-anchor="middle" x="1323.5" y="-33" font-family="Helvetica,sans-Serif" font-size="10.00">Methods::ReactionAlgorithm</text>
</a>
</g>
</g>
<!-- Node2 -->
<g id="Node000002" class="node">
<title>Node2</title>
<g id="a_Node000002"><a xlink:href="classScriptInterface_1_1AutoParameters.html" target="_top" xlink:title=" ">
<polygon fill="white" stroke="#666666" points="559,-73 387,-73 387,-43 559,-43 559,-73"/>
<text text-anchor="start" x="395" y="-61" font-family="Helvetica,sans-Serif" font-size="10.00">ScriptInterface::AutoParameters</text>
<text text-anchor="middle" x="473" y="-50" font-family="Helvetica,sans-Serif" font-size="10.00">&lt; ReactionAlgorithm &gt;</text>
</a>
</g>
</g>
<!-- Node2&#45;&gt;Node1 -->
<g id="edge1_Node000001_Node000002" class="edge">
<title>Node2&#45;&gt;Node1</title>
<g id="a_edge1_Node000001_Node000002"><a xlink:title=" ">
<path fill="none" stroke="#63b8ff" d="M569.15,-58C617.35,-58 676.79,-58 730,-58 730,-58 730,-58 1024,-58 1099.52,-58 1185.62,-52.51 1245.88,-47.77"/>
<polygon fill="#63b8ff" stroke="#63b8ff" points="569.04,-54.5 559.04,-58 569.04,-61.5 569.04,-54.5"/>
</a>
</g>
</g>
<!-- Node3 -->
<g id="Node000003" class="node">
<title>Node3</title>
<g id="a_Node000003"><a xlink:href="classScriptInterface_1_1ObjectHandle.html" target="_top" xlink:title="Base class for interface handles.">
<polygon fill="white" stroke="#666666" points="160,-45.5 0,-45.5 0,-26.5 160,-26.5 160,-45.5"/>
<text text-anchor="middle" x="80" y="-33.5" font-family="Helvetica,sans-Serif" font-size="10.00">ScriptInterface::ObjectHandle</text>
</a>
</g>
</g>
<!-- Node3&#45;&gt;Node2 -->
<g id="edge2_Node000002_Node000003" class="edge">
<title>Node3&#45;&gt;Node2</title>
<g id="a_edge2_Node000002_Node000003"><a xlink:title=" ">
<path fill="none" stroke="#63b8ff" d="M170.36,-41.03C235.38,-44.69 322.88,-49.61 386.9,-53.21"/>
<polygon fill="#63b8ff" stroke="#63b8ff" points="170.31,-37.52 160.12,-40.45 169.91,-44.51 170.31,-37.52"/>
</a>
</g>
</g>
<!-- Node7 -->
<g id="Node000007" class="node">
<title>Node7</title>
<g id="a_Node000007"><a xlink:href="classScriptInterface_1_1AutoParameters.html" target="_top" xlink:title=" ">
<polygon fill="white" stroke="#666666" points="369,-30 197,-30 197,0 369,0 369,-30"/>
<text text-anchor="start" x="205" y="-18" font-family="Helvetica,sans-Serif" font-size="10.00">ScriptInterface::AutoParameters</text>
<text text-anchor="middle" x="283" y="-7" font-family="Helvetica,sans-Serif" font-size="10.00">&lt; ParticleHandle &gt;</text>
</a>
</g>
</g>
<!-- Node3&#45;&gt;Node7 -->
<g id="edge7_Node000007_Node000003" class="edge">
<title>Node3&#45;&gt;Node7</title>
<g id="a_edge7_Node000007_Node000003"><a xlink:title=" ">
<path fill="none" stroke="#63b8ff" d="M170.15,-26.69C179.06,-25.76 188.09,-24.81 196.96,-23.89"/>
<polygon fill="#63b8ff" stroke="#63b8ff" points="169.73,-23.21 160.15,-27.73 170.46,-30.17 169.73,-23.21"/>
</a>
</g>
</g>
<!-- Node4 -->
<g id="Node000004" class="node">
<title>Node4</title>
<g id="a_Node000004"><a xlink:title=" ">
<polygon fill="white" stroke="#666666" points="1109,-30 937,-30 937,0 1109,0 1109,-30"/>
<text text-anchor="start" x="945" y="-18" font-family="Helvetica,sans-Serif" font-size="10.00">std::shared_ptr&lt; ScriptInterface</text>
<text text-anchor="middle" x="1023" y="-7" font-family="Helvetica,sans-Serif" font-size="10.00">::Particles::ParticleModifier &gt;</text>
</a>
</g>
</g>
<!-- Node4&#45;&gt;Node1 -->
<g id="edge3_Node000001_Node000004" class="edge">
<title>Node4&#45;&gt;Node1</title>
<g id="a_edge3_Node000001_Node000004"><a xlink:title=" ">
<path fill="none" stroke="#9a32cd" stroke-dasharray="5,2" d="M1119.13,-23.29C1160.06,-26.85 1207.28,-30.96 1245.91,-34.33"/>
<polygon fill="#9a32cd" stroke="#9a32cd" points="1119.4,-19.8 1109.14,-22.42 1118.8,-26.77 1119.4,-19.8"/>
</a>
</g>
<text text-anchor="middle" x="1177.5" y="-35" font-family="Helvetica,sans-Serif" font-size="10.00" fill="grey"> m_particle_modifier</text>
</g>
<!-- Node5 -->
<g id="Node000005" class="node">
<title>Node5</title>
<g id="a_Node000005"><a xlink:href="classScriptInterface_1_1Particles_1_1ParticleModifier.html" target="_top" xlink:title="Thin wrapper to read and write particle attributes in batches.">
<polygon fill="white" stroke="#666666" points="884,-30 749,-30 749,0 884,0 884,-30"/>
<text text-anchor="start" x="757" y="-18" font-family="Helvetica,sans-Serif" font-size="10.00">ScriptInterface::Particles</text>
<text text-anchor="middle" x="816.5" y="-7" font-family="Helvetica,sans-Serif" font-size="10.00">::ParticleModifier</text>
</a>
</g>
</g>
<!-- Node5&#45;&gt;Node4 -->
<g id="edge4_Node000004_Node000005" class="edge">
<title>Node5&#45;&gt;Node4</title>
<g id="a_edge4_Node000004_Node000005"><a xlink:title=" ">
<path fill="none" stroke="#9a32cd" stroke-dasharray="5,2" d="M894.57,-15C908.35,-15 922.77,-15 936.76,-15"/>
<polygon fill="#9a32cd" stroke="#9a32cd" points="894.18,-11.5 884.18,-15 894.18,-18.5 894.18,-11.5"/>
</a>
</g>
<text text-anchor="middle" x="910.5" y="-18" font-family="Helvetica,sans-Serif" font-size="10.00" fill="grey"> ptr</text>
</g>
<!-- Node6 -->
<g id="Node000006" class="node">
<title>Node6</title>
<g id="a_Node000006"><a xlink:href="classScriptInterface_1_1Particles_1_1ParticleHandle.html" target="_top" xlink:title=" ">
<polygon fill="white" stroke="#666666" points="712,-30 577,-30 577,0 712,0 712,-30"/>
<text text-anchor="start" x="585" y="-18" font-family="Helvetica,sans-Serif" font-size="10.00">ScriptInterface::Particles</text>
<text text-anchor="middle" x="644.5" y="-7" font-family="Helvetica,sans-Serif" font-size="10.00">::ParticleHandle</text>
</a>
</g>
</g>
<!-- Node6&#45;&gt;Node5 -->
<g id="edge5_Node000005_Node000006" class="edge">
<title>Node6&#45;&gt;Node5</title>
<g id="a_edge5_Node000005_Node000006"><a xlink:title=" ">
<path fill="none" stroke="#63b8ff" d="M722.22,-15C731.15,-15 740.21,-15 748.99,-15"/>
<polygon fill="#63b8ff" stroke="#63b8ff" points="722.2,-11.5 712.2,-15 722.2,-18.5 722.2,-11.5"/>
</a>
</g>
</g>
<!-- Node7&#45;&gt;Node6 -->
<g id="edge6_Node000006_Node000007" class="edge">
<title>Node7&#45;&gt;Node6</title>
<g id="a_edge6_Node000006_Node000007"><a xlink:title=" ">
<path fill="none" stroke="#63b8ff" d="M379.42,-15C441.68,-15 521.39,-15 576.87,-15"/>
<polygon fill="#63b8ff" stroke="#63b8ff" points="379.2,-11.5 369.2,-15 379.2,-18.5 379.2,-11.5"/>
</a>
</g>
</g>
</g>
</svg>
