<?xml version="1.0" encoding="UTF-8" standalone="no"?>
<!DOCTYPE svg PUBLIC "-//W3C//DTD SVG 1.1//EN"
 "http://www.w3.org/Graphics/SVG/1.1/DTD/svg11.dtd">
<!-- Generated by graphviz version 2.43.0 (0)
 -->
<!-- Title: ScriptInterface::Shapes::Shape Pages: 1 -->
<svg width="709pt" height="529pt"
 viewBox="0.00 0.00 709.00 529.00" xmlns="http://www.w3.org/2000/svg" xmlns:xlink="http://www.w3.org/1999/xlink">
<g id="graph0" class="graph" transform="scale(1 1) rotate(0) translate(4 525)">
<title>ScriptInterface::Shapes::Shape</title>
<!-- Node1 -->
<g id="node1" class="node">
<title>Node1</title>
<g id="a_node1"><a xlink:title=" ">
<polygon fill="#bfbfbf" stroke="black" points="404,-245.5 404,-275.5 533,-275.5 533,-245.5 404,-245.5"/>
<text text-anchor="start" x="412" y="-263.5" font-family="Helvetica,sans-Serif" font-size="10.00">ScriptInterface::Shapes</text>
<text text-anchor="middle" x="468.5" y="-252.5" font-family="Helvetica,sans-Serif" font-size="10.00">::Shape</text>
</a>
</g>
</g>
<!-- Node4 -->
<g id="node4" class="node">
<title>Node4</title>
<g id="a_node4"><a xlink:href="classScriptInterface_1_1Shapes_1_1Cylinder.html" target="_top" xlink:title=" ">
<polygon fill="none" stroke="black" points="570.5,-490.5 570.5,-520.5 699.5,-520.5 699.5,-490.5 570.5,-490.5"/>
<text text-anchor="start" x="578.5" y="-508.5" font-family="Helvetica,sans-Serif" font-size="10.00">ScriptInterface::Shapes</text>
<text text-anchor="middle" x="635" y="-497.5" font-family="Helvetica,sans-Serif" font-size="10.00">::Cylinder</text>
</a>
</g>
</g>
<!-- Node1&#45;&gt;Node4 -->
<g id="edge3" class="edge">
<title>Node1&#45;&gt;Node4</title>
<path fill="none" stroke="midnightblue" d="M474.17,-285.61C483.85,-330.93 510.32,-426.76 569,-481.5 572.69,-484.95 576.93,-487.91 581.42,-490.45"/>
<polygon fill="midnightblue" stroke="midnightblue" points="477.58,-284.83 472.15,-275.73 470.72,-286.23 477.58,-284.83"/>
</g>
<!-- Node5 -->
<g id="node5" class="node">
<title>Node5</title>
<g id="a_node5"><a xlink:href="classScriptInterface_1_1Shapes_1_1Ellipsoid.html" target="_top" xlink:title=" ">
<polygon fill="none" stroke="black" points="570.5,-441.5 570.5,-471.5 699.5,-471.5 699.5,-441.5 570.5,-441.5"/>
<text text-anchor="start" x="578.5" y="-459.5" font-family="Helvetica,sans-Serif" font-size="10.00">ScriptInterface::Shapes</text>
<text text-anchor="middle" x="635" y="-448.5" font-family="Helvetica,sans-Serif" font-size="10.00">::Ellipsoid</text>
</a>
</g>
</g>
<!-- Node1&#45;&gt;Node5 -->
<g id="edge4" class="edge">
<title>Node1&#45;&gt;Node5</title>
<path fill="none" stroke="midnightblue" d="M477.62,-285.23C490.98,-322.26 521.01,-392.07 569,-432.5 573.05,-435.91 577.62,-438.86 582.43,-441.4"/>
<polygon fill="midnightblue" stroke="midnightblue" points="480.9,-283.99 474.29,-275.71 474.29,-286.3 480.9,-283.99"/>
</g>
<!-- Node6 -->
<g id="node6" class="node">
<title>Node6</title>
<g id="a_node6"><a xlink:href="classScriptInterface_1_1Shapes_1_1HollowConicalFrustum.html" target="_top" xlink:title=" ">
<polygon fill="none" stroke="black" points="569,-392.5 569,-422.5 701,-422.5 701,-392.5 569,-392.5"/>
<text text-anchor="start" x="577" y="-410.5" font-family="Helvetica,sans-Serif" font-size="10.00">ScriptInterface::Shapes</text>
<text text-anchor="middle" x="635" y="-399.5" font-family="Helvetica,sans-Serif" font-size="10.00">::HollowConicalFrustum</text>
</a>
</g>
</g>
<!-- Node1&#45;&gt;Node6 -->
<g id="edge5" class="edge">
<title>Node1&#45;&gt;Node6</title>
<path fill="none" stroke="midnightblue" d="M483.12,-284.13C500.03,-311.56 531.3,-356.46 569,-383.5 573.69,-386.87 578.91,-389.81 584.29,-392.38"/>
<polygon fill="midnightblue" stroke="midnightblue" points="486.11,-282.31 477.95,-275.56 480.12,-285.93 486.11,-282.31"/>
</g>
<!-- Node7 -->
<g id="node7" class="node">
<title>Node7</title>
<g id="a_node7"><a xlink:href="classScriptInterface_1_1Shapes_1_1NoWhere.html" target="_top" xlink:title=" ">
<polygon fill="none" stroke="black" points="570.5,-343.5 570.5,-373.5 699.5,-373.5 699.5,-343.5 570.5,-343.5"/>
<text text-anchor="start" x="578.5" y="-361.5" font-family="Helvetica,sans-Serif" font-size="10.00">ScriptInterface::Shapes</text>
<text text-anchor="middle" x="635" y="-350.5" font-family="Helvetica,sans-Serif" font-size="10.00">::NoWhere</text>
</a>
</g>
</g>
<!-- Node1&#45;&gt;Node7 -->
<g id="edge6" class="edge">
<title>Node1&#45;&gt;Node7</title>
<path fill="none" stroke="midnightblue" d="M494.52,-282.29C513.86,-298.31 541.84,-319.78 569,-334.5 575.03,-337.77 581.59,-340.77 588.16,-343.46"/>
<polygon fill="midnightblue" stroke="midnightblue" points="496.7,-279.54 486.79,-275.79 492.19,-284.9 496.7,-279.54"/>
</g>
<!-- Node8 -->
<g id="node8" class="node">
<title>Node8</title>
<g id="a_node8"><a xlink:href="classScriptInterface_1_1Shapes_1_1Rhomboid.html" target="_top" xlink:title=" ">
<polygon fill="none" stroke="black" points="570.5,-294.5 570.5,-324.5 699.5,-324.5 699.5,-294.5 570.5,-294.5"/>
<text text-anchor="start" x="578.5" y="-312.5" font-family="Helvetica,sans-Serif" font-size="10.00">ScriptInterface::Shapes</text>
<text text-anchor="middle" x="635" y="-301.5" font-family="Helvetica,sans-Serif" font-size="10.00">::Rhomboid</text>
</a>
</g>
</g>
<!-- Node1&#45;&gt;Node8 -->
<g id="edge7" class="edge">
<title>Node1&#45;&gt;Node8</title>
<path fill="none" stroke="midnightblue" d="M529.82,-278.47C547.44,-283.72 566.52,-289.4 583.47,-294.45"/>
<polygon fill="midnightblue" stroke="midnightblue" points="530.78,-275.1 520.2,-275.6 528.78,-281.81 530.78,-275.1"/>
</g>
<!-- Node9 -->
<g id="node9" class="node">
<title>Node9</title>
<g id="a_node9"><a xlink:href="classScriptInterface_1_1Shapes_1_1SimplePore.html" target="_top" xlink:title=" ">
<polygon fill="none" stroke="black" points="570.5,-245.5 570.5,-275.5 699.5,-275.5 699.5,-245.5 570.5,-245.5"/>
<text text-anchor="start" x="578.5" y="-263.5" font-family="Helvetica,sans-Serif" font-size="10.00">ScriptInterface::Shapes</text>
<text text-anchor="middle" x="635" y="-252.5" font-family="Helvetica,sans-Serif" font-size="10.00">::SimplePore</text>
</a>
</g>
</g>
<!-- Node1&#45;&gt;Node9 -->
<g id="edge8" class="edge">
<title>Node1&#45;&gt;Node9</title>
<path fill="none" stroke="midnightblue" d="M543.22,-260.5C552.25,-260.5 561.43,-260.5 570.3,-260.5"/>
<polygon fill="midnightblue" stroke="midnightblue" points="543.1,-257 533.1,-260.5 543.1,-264 543.1,-257"/>
</g>
<!-- Node10 -->
<g id="node10" class="node">
<title>Node10</title>
<g id="a_node10"><a xlink:href="classScriptInterface_1_1Shapes_1_1Slitpore.html" target="_top" xlink:title=" ">
<polygon fill="none" stroke="black" points="570.5,-196.5 570.5,-226.5 699.5,-226.5 699.5,-196.5 570.5,-196.5"/>
<text text-anchor="start" x="578.5" y="-214.5" font-family="Helvetica,sans-Serif" font-size="10.00">ScriptInterface::Shapes</text>
<text text-anchor="middle" x="635" y="-203.5" font-family="Helvetica,sans-Serif" font-size="10.00">::Slitpore</text>
</a>
</g>
</g>
<!-- Node1&#45;&gt;Node10 -->
<g id="edge9" class="edge">
<title>Node1&#45;&gt;Node10</title>
<path fill="none" stroke="midnightblue" d="M529.82,-242.53C547.44,-237.28 566.52,-231.6 583.47,-226.55"/>
<polygon fill="midnightblue" stroke="midnightblue" points="528.78,-239.19 520.2,-245.4 530.78,-245.9 528.78,-239.19"/>
</g>
<!-- Node11 -->
<g id="node11" class="node">
<title>Node11</title>
<g id="a_node11"><a xlink:href="classScriptInterface_1_1Shapes_1_1Sphere.html" target="_top" xlink:title=" ">
<polygon fill="none" stroke="black" points="570.5,-147.5 570.5,-177.5 699.5,-177.5 699.5,-147.5 570.5,-147.5"/>
<text text-anchor="start" x="578.5" y="-165.5" font-family="Helvetica,sans-Serif" font-size="10.00">ScriptInterface::Shapes</text>
<text text-anchor="middle" x="635" y="-154.5" font-family="Helvetica,sans-Serif" font-size="10.00">::Sphere</text>
</a>
</g>
</g>
<!-- Node1&#45;&gt;Node11 -->
<g id="edge10" class="edge">
<title>Node1&#45;&gt;Node11</title>
<path fill="none" stroke="midnightblue" d="M494.52,-238.71C513.86,-222.69 541.84,-201.22 569,-186.5 575.03,-183.23 581.59,-180.23 588.16,-177.54"/>
<polygon fill="midnightblue" stroke="midnightblue" points="492.19,-236.1 486.79,-245.21 496.7,-241.46 492.19,-236.1"/>
</g>
<!-- Node12 -->
<g id="node12" class="node">
<title>Node12</title>
<g id="a_node12"><a xlink:href="classScriptInterface_1_1Shapes_1_1SpheroCylinder.html" target="_top" xlink:title=" ">
<polygon fill="none" stroke="black" points="570.5,-98.5 570.5,-128.5 699.5,-128.5 699.5,-98.5 570.5,-98.5"/>
<text text-anchor="start" x="578.5" y="-116.5" font-family="Helvetica,sans-Serif" font-size="10.00">ScriptInterface::Shapes</text>
<text text-anchor="middle" x="635" y="-105.5" font-family="Helvetica,sans-Serif" font-size="10.00">::SpheroCylinder</text>
</a>
</g>
</g>
<!-- Node1&#45;&gt;Node12 -->
<g id="edge11" class="edge">
<title>Node1&#45;&gt;Node12</title>
<path fill="none" stroke="midnightblue" d="M483.12,-236.87C500.03,-209.44 531.3,-164.54 569,-137.5 573.69,-134.13 578.91,-131.19 584.29,-128.62"/>
<polygon fill="midnightblue" stroke="midnightblue" points="480.12,-235.07 477.95,-245.44 486.11,-238.69 480.12,-235.07"/>
</g>
<!-- Node13 -->
<g id="node13" class="node">
<title>Node13</title>
<g id="a_node13"><a xlink:href="classScriptInterface_1_1Shapes_1_1Torus.html" target="_top" xlink:title=" ">
<polygon fill="none" stroke="black" points="570.5,-49.5 570.5,-79.5 699.5,-79.5 699.5,-49.5 570.5,-49.5"/>
<text text-anchor="start" x="578.5" y="-67.5" font-family="Helvetica,sans-Serif" font-size="10.00">ScriptInterface::Shapes</text>
<text text-anchor="middle" x="635" y="-56.5" font-family="Helvetica,sans-Serif" font-size="10.00">::Torus</text>
</a>
</g>
</g>
<!-- Node1&#45;&gt;Node13 -->
<g id="edge12" class="edge">
<title>Node1&#45;&gt;Node13</title>
<path fill="none" stroke="midnightblue" d="M477.62,-235.77C490.98,-198.74 521.01,-128.93 569,-88.5 573.05,-85.09 577.62,-82.14 582.43,-79.6"/>
<polygon fill="midnightblue" stroke="midnightblue" points="474.29,-234.7 474.29,-245.29 480.9,-237.01 474.29,-234.7"/>
</g>
<!-- Node14 -->
<g id="node14" class="node">
<title>Node14</title>
<g id="a_node14"><a xlink:href="classScriptInterface_1_1Shapes_1_1Wall.html" target="_top" xlink:title=" ">
<polygon fill="none" stroke="black" points="570.5,-0.5 570.5,-30.5 699.5,-30.5 699.5,-0.5 570.5,-0.5"/>
<text text-anchor="start" x="578.5" y="-18.5" font-family="Helvetica,sans-Serif" font-size="10.00">ScriptInterface::Shapes</text>
<text text-anchor="middle" x="635" y="-7.5" font-family="Helvetica,sans-Serif" font-size="10.00">::Wall</text>
</a>
</g>
</g>
<!-- Node1&#45;&gt;Node14 -->
<g id="edge13" class="edge">
<title>Node1&#45;&gt;Node14</title>
<path fill="none" stroke="midnightblue" d="M474.17,-235.39C483.85,-190.07 510.32,-94.24 569,-39.5 572.69,-36.05 576.93,-33.09 581.42,-30.55"/>
<polygon fill="midnightblue" stroke="midnightblue" points="470.72,-234.77 472.15,-245.27 477.58,-236.17 470.72,-234.77"/>
</g>
<!-- Node2 -->
<g id="node2" class="node">
<title>Node2</title>
<g id="a_node2"><a xlink:href="classScriptInterface_1_1AutoParameters.html" target="_top" xlink:title=" ">
<polygon fill="none" stroke="black" points="196,-245.5 196,-275.5 368,-275.5 368,-245.5 196,-245.5"/>
<text text-anchor="start" x="204" y="-263.5" font-family="Helvetica,sans-Serif" font-size="10.00">ScriptInterface::AutoParameters</text>
<text text-anchor="middle" x="282" y="-252.5" font-family="Helvetica,sans-Serif" font-size="10.00">&lt; Shape &gt;</text>
</a>
</g>
</g>
<!-- Node2&#45;&gt;Node1 -->
<g id="edge1" class="edge">
<title>Node2&#45;&gt;Node1</title>
<path fill="none" stroke="midnightblue" d="M378.37,-260.5C387,-260.5 395.6,-260.5 403.86,-260.5"/>
<polygon fill="midnightblue" stroke="midnightblue" points="378.23,-257 368.23,-260.5 378.23,-264 378.23,-257"/>
</g>
<!-- Node3 -->
<g id="node3" class="node">
<title>Node3</title>
<g id="a_node3"><a xlink:href="classScriptInterface_1_1ObjectHandle.html" target="_top" xlink:title="Base class for interface handles.">
<polygon fill="none" stroke="black" points="0,-251 0,-270 160,-270 160,-251 0,-251"/>
<text text-anchor="middle" x="80" y="-258" font-family="Helvetica,sans-Serif" font-size="10.00">ScriptInterface::ObjectHandle</text>
</a>
</g>
</g>
<!-- Node3&#45;&gt;Node2 -->
<g id="edge2" class="edge">
<title>Node3&#45;&gt;Node2</title>
<path fill="none" stroke="midnightblue" d="M170.08,-260.5C178.68,-260.5 187.39,-260.5 195.95,-260.5"/>
<polygon fill="midnightblue" stroke="midnightblue" points="170.05,-257 160.05,-260.5 170.05,-264 170.05,-257"/>
</g>
</g>
</svg>
