<?xml version="1.0" encoding="UTF-8" standalone="no"?>
<!DOCTYPE svg PUBLIC "-//W3C//DTD SVG 1.1//EN"
 "http://www.w3.org/Graphics/SVG/1.1/DTD/svg11.dtd">
<!-- Generated by graphviz version 2.43.0 (0)
 -->
<!-- Title: ScriptInterface::Observables::CylindricalPidProfileObservable&lt; CoreObs &gt; Pages: 1 -->
<svg width="510pt" height="50pt"
 viewBox="0.00 0.00 510.00 50.00" xmlns="http://www.w3.org/2000/svg" xmlns:xlink="http://www.w3.org/1999/xlink">
<g id="graph0" class="graph" transform="scale(1 1) rotate(0) translate(4 46)">
<title>ScriptInterface::Observables::CylindricalPidProfileObservable&lt; CoreObs &gt;</title>
<!-- Node1 -->
<g id="node1" class="node">
<title>Node1</title>
<g id="a_node1"><a xlink:title=" ">
<polygon fill="#bfbfbf" stroke="black" points="326,-0.5 326,-41.5 502,-41.5 502,-0.5 326,-0.5"/>
<text text-anchor="start" x="334" y="-29.5" font-family="Helvetica,sans-Serif" font-size="10.00">ScriptInterface::Observables</text>
<text text-anchor="start" x="334" y="-18.5" font-family="Helvetica,sans-Serif" font-size="10.00">::CylindricalPidProfileObservable</text>
<text text-anchor="middle" x="414" y="-7.5" font-family="Helvetica,sans-Serif" font-size="10.00">&lt; CoreObs &gt;</text>
</a>
</g>
</g>
<!-- Node2 -->
<g id="node2" class="node">
<title>Node2</title>
<g id="a_node2"><a xlink:href="classScriptInterface_1_1AutoParameters.html" target="_top" xlink:title=" ">
<polygon fill="none" stroke="black" points="108,-0.5 108,-41.5 290,-41.5 290,-0.5 108,-0.5"/>
<text text-anchor="start" x="116" y="-29.5" font-family="Helvetica,sans-Serif" font-size="10.00">ScriptInterface::AutoParameters</text>
<text text-anchor="start" x="116" y="-18.5" font-family="Helvetica,sans-Serif" font-size="10.00">&lt; CylindricalPidProfileObservable</text>
<text text-anchor="middle" x="199" y="-7.5" font-family="Helvetica,sans-Serif" font-size="10.00">&lt; CoreObs &gt;, Observable &gt;</text>
</a>
</g>
</g>
<!-- Node2&#45;&gt;Node1 -->
<g id="edge1" class="edge">
<title>Node2&#45;&gt;Node1</title>
<path fill="none" stroke="midnightblue" d="M300.04,-21C308.6,-21 317.22,-21 325.68,-21"/>
<polygon fill="midnightblue" stroke="midnightblue" points="300.02,-17.5 290.02,-21 300.02,-24.5 300.02,-17.5"/>
</g>
<!-- Node3 -->
<g id="node3" class="node">
<title>Node3</title>
<g id="a_node3"><a xlink:title=" ">
<polygon fill="none" stroke="#bfbfbf" points="0,-11.5 0,-30.5 72,-30.5 72,-11.5 0,-11.5"/>
<text text-anchor="middle" x="36" y="-18.5" font-family="Helvetica,sans-Serif" font-size="10.00">Observable</text>
</a>
</g>
</g>
<!-- Node3&#45;&gt;Node2 -->
<g id="edge2" class="edge">
<title>Node3&#45;&gt;Node2</title>
<path fill="none" stroke="midnightblue" d="M82.46,-21C90.44,-21 99,-21 107.7,-21"/>
<polygon fill="midnightblue" stroke="midnightblue" points="82.33,-17.5 72.33,-21 82.33,-24.5 82.33,-17.5"/>
</g>
</g>
</svg>
