<?xml version="1.0" encoding="UTF-8" standalone="no"?>
<!DOCTYPE svg PUBLIC "-//W3C//DTD SVG 1.1//EN"
 "http://www.w3.org/Graphics/SVG/1.1/DTD/svg11.dtd">
<!-- Generated by graphviz version 2.43.0 (0)
 -->
<!-- Title: ScriptInterface::walberla::LBFluidNode Pages: 1 -->
<svg width="182pt" height="229pt"
 viewBox="0.00 0.00 182.00 229.00" xmlns="http://www.w3.org/2000/svg" xmlns:xlink="http://www.w3.org/1999/xlink">
<g id="graph0" class="graph" transform="scale(1 1) rotate(0) translate(4 225)">
<title>ScriptInterface::walberla::LBFluidNode</title>
<!-- Node1 -->
<g id="node1" class="node">
<title>Node1</title>
<g id="a_node1"><a xlink:title=" ">
<polygon fill="#bfbfbf" stroke="black" points="19,-0.5 19,-30.5 155,-30.5 155,-0.5 19,-0.5"/>
<text text-anchor="start" x="27" y="-18.5" font-family="Helvetica,sans-Serif" font-size="10.00">ScriptInterface::walberla</text>
<text text-anchor="middle" x="87" y="-7.5" font-family="Helvetica,sans-Serif" font-size="10.00">::LBFluidNode</text>
</a>
</g>
</g>
<!-- Node2 -->
<g id="node2" class="node">
<title>Node2</title>
<g id="a_node2"><a xlink:href="classScriptInterface_1_1AutoParameters.html" target="_top" xlink:title=" ">
<polygon fill="none" stroke="black" points="0,-67.5 0,-97.5 174,-97.5 174,-67.5 0,-67.5"/>
<text text-anchor="start" x="8" y="-85.5" font-family="Helvetica,sans-Serif" font-size="10.00">ScriptInterface::AutoParameters</text>
<text text-anchor="middle" x="87" y="-74.5" font-family="Helvetica,sans-Serif" font-size="10.00">&lt; LBFluidNode, LatticeIndices &gt;</text>
</a>
</g>
</g>
<!-- Node2&#45;&gt;Node1 -->
<g id="edge1" class="edge">
<title>Node2&#45;&gt;Node1</title>
<path fill="none" stroke="midnightblue" d="M87,-57.11C87,-48.15 87,-38.32 87,-30.58"/>
<polygon fill="midnightblue" stroke="midnightblue" points="83.5,-57.4 87,-67.4 90.5,-57.4 83.5,-57.4"/>
</g>
<!-- Node3 -->
<g id="node3" class="node">
<title>Node3</title>
<g id="a_node3"><a xlink:href="classScriptInterface_1_1LatticeIndices.html" target="_top" xlink:title="Interface to carry out simple operations on lattice indices.">
<polygon fill="none" stroke="black" points="23.5,-134.5 23.5,-164.5 150.5,-164.5 150.5,-134.5 23.5,-134.5"/>
<text text-anchor="start" x="31.5" y="-152.5" font-family="Helvetica,sans-Serif" font-size="10.00">ScriptInterface::Lattice</text>
<text text-anchor="middle" x="87" y="-141.5" font-family="Helvetica,sans-Serif" font-size="10.00">Indices</text>
</a>
</g>
</g>
<!-- Node3&#45;&gt;Node2 -->
<g id="edge2" class="edge">
<title>Node3&#45;&gt;Node2</title>
<path fill="none" stroke="midnightblue" d="M87,-124.11C87,-115.15 87,-105.32 87,-97.58"/>
<polygon fill="midnightblue" stroke="midnightblue" points="83.5,-124.4 87,-134.4 90.5,-124.4 83.5,-124.4"/>
</g>
<!-- Node4 -->
<g id="node4" class="node">
<title>Node4</title>
<g id="a_node4"><a xlink:href="classScriptInterface_1_1ObjectHandle.html" target="_top" xlink:title="Base class for interface handles.">
<polygon fill="none" stroke="black" points="7,-201.5 7,-220.5 167,-220.5 167,-201.5 7,-201.5"/>
<text text-anchor="middle" x="87" y="-208.5" font-family="Helvetica,sans-Serif" font-size="10.00">ScriptInterface::ObjectHandle</text>
</a>
</g>
</g>
<!-- Node4&#45;&gt;Node3 -->
<g id="edge3" class="edge">
<title>Node4&#45;&gt;Node3</title>
<path fill="none" stroke="midnightblue" d="M87,-191.23C87,-182.59 87,-172.5 87,-164.52"/>
<polygon fill="midnightblue" stroke="midnightblue" points="83.5,-191.48 87,-201.48 90.5,-191.48 83.5,-191.48"/>
</g>
</g>
</svg>
