<?xml version="1.0" encoding="UTF-8" standalone="no"?>
<!DOCTYPE svg PUBLIC "-//W3C//DTD SVG 1.1//EN"
 "http://www.w3.org/Graphics/SVG/1.1/DTD/svg11.dtd">
<!-- Generated by graphviz version 2.43.0 (0)
 -->
<!-- Title: ScriptInterface::Dipoles::DipolarLayerCorrection Pages: 1 -->
<svg width="803pt" height="86pt"
 viewBox="0.00 0.00 803.00 86.00" xmlns="http://www.w3.org/2000/svg" xmlns:xlink="http://www.w3.org/1999/xlink">
<g id="graph0" class="graph" transform="scale(1 1) rotate(0) translate(4 82)">
<title>ScriptInterface::Dipoles::DipolarLayerCorrection</title>
<!-- Node1 -->
<g id="Node000001" class="node">
<title>Node1</title>
<g id="a_Node000001"><a xlink:title=" ">
<polygon fill="#999999" stroke="#666666" points="795,-43 660,-43 660,-13 795,-13 795,-43"/>
<text text-anchor="start" x="668" y="-31" font-family="Helvetica,sans-Serif" font-size="10.00">ScriptInterface::Dipoles</text>
<text text-anchor="middle" x="727.5" y="-20" font-family="Helvetica,sans-Serif" font-size="10.00">::DipolarLayerCorrection</text>
</a>
</g>
</g>
<!-- Node2 -->
<g id="Node000002" class="node">
<title>Node2</title>
<g id="a_Node000002"><a xlink:href="classScriptInterface_1_1Dipoles_1_1Actor.html" target="_top" xlink:title=" ">
<polygon fill="white" stroke="#666666" points="623,-48.5 448,-48.5 448,-7.5 623,-7.5 623,-48.5"/>
<text text-anchor="start" x="456" y="-36.5" font-family="Helvetica,sans-Serif" font-size="10.00">ScriptInterface::Dipoles</text>
<text text-anchor="start" x="456" y="-25.5" font-family="Helvetica,sans-Serif" font-size="10.00">::Actor&lt; DipolarLayerCorrection,</text>
<text text-anchor="middle" x="535.5" y="-14.5" font-family="Helvetica,sans-Serif" font-size="10.00"> ::DipolarLayerCorrection &gt;</text>
</a>
</g>
</g>
<!-- Node2&#45;&gt;Node1 -->
<g id="edge1_Node000001_Node000002" class="edge">
<title>Node2&#45;&gt;Node1</title>
<g id="a_edge1_Node000001_Node000002"><a xlink:title=" ">
<path fill="none" stroke="#63b8ff" d="M633.3,-28C642.29,-28 651.26,-28 659.88,-28"/>
<polygon fill="#63b8ff" stroke="#63b8ff" points="633.16,-24.5 623.16,-28 633.16,-31.5 633.16,-24.5"/>
</a>
</g>
</g>
<!-- Node3 -->
<g id="Node000003" class="node">
<title>Node3</title>
<g id="a_Node000003"><a xlink:href="classScriptInterface_1_1AutoParameters.html" target="_top" xlink:title="Bind parameters in the script interface.">
<polygon fill="white" stroke="#666666" points="369,-78 197,-78 197,-48 369,-48 369,-78"/>
<text text-anchor="start" x="205" y="-66" font-family="Helvetica,sans-Serif" font-size="10.00">ScriptInterface::AutoParameters</text>
<text text-anchor="middle" x="283" y="-55" font-family="Helvetica,sans-Serif" font-size="10.00">&lt; Derived, Base &gt;</text>
</a>
</g>
</g>
<!-- Node3&#45;&gt;Node2 -->
<g id="edge2_Node000002_Node000003" class="edge">
<title>Node3&#45;&gt;Node2</title>
<g id="a_edge2_Node000002_Node000003"><a xlink:title=" ">
<path fill="none" stroke="#63b8ff" d="M379.09,-49.71C401.69,-46.56 425.68,-43.2 447.87,-40.1"/>
<polygon fill="#63b8ff" stroke="#63b8ff" points="378.58,-46.25 369.16,-51.1 379.55,-53.18 378.58,-46.25"/>
</a>
</g>
</g>
<!-- Node4 -->
<g id="Node000004" class="node">
<title>Node4</title>
<g id="a_Node000004"><a xlink:href="classScriptInterface_1_1ObjectHandle.html" target="_top" xlink:title="Base class for interface handles.">
<polygon fill="white" stroke="#666666" points="160,-72.5 0,-72.5 0,-53.5 160,-53.5 160,-72.5"/>
<text text-anchor="middle" x="80" y="-60.5" font-family="Helvetica,sans-Serif" font-size="10.00">ScriptInterface::ObjectHandle</text>
</a>
</g>
</g>
<!-- Node4&#45;&gt;Node3 -->
<g id="edge3_Node000003_Node000004" class="edge">
<title>Node4&#45;&gt;Node3</title>
<g id="a_edge3_Node000003_Node000004"><a xlink:title=" ">
<path fill="none" stroke="#63b8ff" d="M170.43,-63C179.25,-63 188.19,-63 196.96,-63"/>
<polygon fill="#63b8ff" stroke="#63b8ff" points="170.15,-59.5 160.15,-63 170.15,-66.5 170.15,-59.5"/>
</a>
</g>
</g>
<!-- Node5 -->
<g id="Node000005" class="node">
<title>Node5</title>
<g id="a_Node000005"><a xlink:title=" ">
<polygon fill="white" stroke="#666666" points="357.5,-30 208.5,-30 208.5,0 357.5,0 357.5,-30"/>
<text text-anchor="start" x="216.5" y="-18" font-family="Helvetica,sans-Serif" font-size="10.00">std::shared_ptr&lt; CoreActor</text>
<text text-anchor="middle" x="283" y="-7" font-family="Helvetica,sans-Serif" font-size="10.00">Class &gt;</text>
</a>
</g>
</g>
<!-- Node5&#45;&gt;Node2 -->
<g id="edge4_Node000002_Node000005" class="edge">
<title>Node5&#45;&gt;Node2</title>
<g id="a_edge4_Node000002_Node000005"><a xlink:title=" ">
<path fill="none" stroke="#9a32cd" stroke-dasharray="5,2" d="M367.91,-19.35C393.67,-20.69 422.06,-22.16 447.99,-23.51"/>
<polygon fill="#9a32cd" stroke="#9a32cd" points="367.97,-15.85 357.8,-18.83 367.61,-22.84 367.97,-15.85"/>
</a>
</g>
<text text-anchor="middle" x="408.5" y="-26" font-family="Helvetica,sans-Serif" font-size="10.00" fill="grey"> m_actor</text>
</g>
</g>
</svg>
