<?xml version="1.0" encoding="UTF-8" standalone="no"?>
<!DOCTYPE svg PUBLIC "-//W3C//DTD SVG 1.1//EN"
 "http://www.w3.org/Graphics/SVG/1.1/DTD/svg11.dtd">
<!-- Generated by graphviz version 2.43.0 (0)
 -->
<!-- Title: Observables::ProfileObservable Pages: 1 -->
<!--zoomable 339 -->
<svg id="main" version="1.1" xmlns="http://www.w3.org/2000/svg" xmlns:xlink="http://www.w3.org/1999/xlink" xml:space="preserve" onload="init(evt)">
<style type="text/css"><![CDATA[
.edge:hover path { stroke: red; }
.edge:hover polygon { stroke: red; fill: red; }
]]></style>
<script type="text/javascript"><![CDATA[
var edges = document.getElementsByTagName('g');
if (edges && edges.length) {
  for (var i=0;i<edges.length;i++) {
    if (edges[i].id.substr(0,4)=='edge') {
      edges[i].setAttribute('class','edge');
    }
  }
}
]]></script>
        <defs>
                <circle id="rim" cx="0" cy="0" r="7"/>
                <circle id="rim2" cx="0" cy="0" r="3.5"/>
                <g id="zoomPlus">
                        <use xlink:href="#rim" fill="#404040">
                                <set attributeName="fill" to="#808080" begin="zoomplus.mouseover" end="zoomplus.mouseout"/>
                        </use>
                        <path d="M-4,0h8M0,-4v8" fill="none" stroke="white" stroke-width="1.5" pointer-events="none"/>
                </g>
                <g id="zoomMin">
                        <use xlink:href="#rim" fill="#404040">
                                <set attributeName="fill" to="#808080" begin="zoomminus.mouseover" end="zoomminus.mouseout"/>
                        </use>
                        <path d="M-4,0h8" fill="none" stroke="white" stroke-width="1.5" pointer-events="none"/>
                </g>
                <g id="dirArrow">
                        <path fill="none" stroke="white" stroke-width="1.5" d="M0,-3.0v7 M-2.5,-0.5L0,-3.0L2.5,-0.5"/>
                </g>
               <g id="resetDef">
                       <use xlink:href="#rim2" fill="#404040">
                               <set attributeName="fill" to="#808080" begin="reset.mouseover" end="reset.mouseout"/>
                       </use>
               </g>
        </defs>

<script type="text/javascript">
var viewWidth = 1000;
var viewHeight = 339;
var sectionId = 'dynsection-0';
</script>
<script xlink:href="svgpan.js"/>
<svg id="graph" class="graph">
<g id="viewport">
<title>Observables::ProfileObservable</title>
<!-- Node1 -->
<g id="node1" class="node">
<title>Node1</title>
<g id="a_node1"><a xlink:title="Cartesian profile observable.">
<polygon fill="#bfbfbf" stroke="black" points="175,-137 175,-156 345,-156 345,-137 175,-137"/>
<text text-anchor="middle" x="260" y="-144" font-family="Helvetica,sans-Serif" font-size="10.00">Observables::ProfileObservable</text>
</a>
</g>
</g>
<!-- Node3 -->
<g id="node3" class="node">
<title>Node3</title>
<g id="a_node3"><a xlink:href="classObservables_1_1CylindricalProfileObservable.html" target="_top" xlink:title="Cylindrical profile observable.">
<polygon fill="none" stroke="black" points="406,-175.5 406,-205.5 541,-205.5 541,-175.5 406,-175.5"/>
<text text-anchor="start" x="414" y="-193.5" font-family="Helvetica,sans-Serif" font-size="10.00">Observables::Cylindrical</text>
<text text-anchor="middle" x="473.5" y="-182.5" font-family="Helvetica,sans-Serif" font-size="10.00">ProfileObservable</text>
</a>
</g>
</g>
<!-- Node1&#45;&gt;Node3 -->
<g id="edge2" class="edge">
<title>Node1&#45;&gt;Node3</title>
<path fill="none" stroke="midnightblue" d="M317.04,-158.16C344.3,-163.83 377.27,-170.69 405.82,-176.63"/>
<polygon fill="midnightblue" stroke="midnightblue" points="317.4,-154.66 306.89,-156.05 315.97,-161.51 317.4,-154.66"/>
</g>
<!-- Node12 -->
<g id="node12" class="node">
<title>Node12</title>
<g id="a_node12"><a xlink:href="classObservables_1_1LBProfileObservable.html" target="_top" xlink:title=" ">
<polygon fill="none" stroke="black" points="382.5,-137 382.5,-156 564.5,-156 564.5,-137 382.5,-137"/>
<text text-anchor="middle" x="473.5" y="-144" font-family="Helvetica,sans-Serif" font-size="10.00">Observables::LBProfileObservable</text>
</a>
</g>
</g>
<!-- Node1&#45;&gt;Node12 -->
<g id="edge11" class="edge">
<title>Node1&#45;&gt;Node12</title>
<path fill="none" stroke="midnightblue" d="M355.29,-146.5C364.28,-146.5 373.39,-146.5 382.34,-146.5"/>
<polygon fill="midnightblue" stroke="midnightblue" points="355.2,-143 345.2,-146.5 355.2,-150 355.2,-143"/>
</g>
<!-- Node14 -->
<g id="node14" class="node">
<title>Node14</title>
<g id="a_node14"><a xlink:href="classObservables_1_1PidProfileObservable.html" target="_top" xlink:title=" ">
<polygon fill="none" stroke="black" points="381,-77 381,-96 566,-96 566,-77 381,-77"/>
<text text-anchor="middle" x="473.5" y="-84" font-family="Helvetica,sans-Serif" font-size="10.00">Observables::PidProfileObservable</text>
</a>
</g>
</g>
<!-- Node1&#45;&gt;Node14 -->
<g id="edge13" class="edge">
<title>Node1&#45;&gt;Node14</title>
<path fill="none" stroke="midnightblue" d="M304.21,-134.24C344.03,-122.94 402.32,-106.41 438.79,-96.06"/>
<polygon fill="midnightblue" stroke="midnightblue" points="303.18,-130.9 294.51,-136.99 305.09,-137.63 303.18,-130.9"/>
</g>
<!-- Node2 -->
<g id="node2" class="node">
<title>Node2</title>
<g id="a_node2"><a xlink:href="classObservables_1_1Observable.html" target="_top" xlink:title="Base class for observables.">
<polygon fill="none" stroke="black" points="0,-137 0,-156 139,-156 139,-137 0,-137"/>
<text text-anchor="middle" x="69.5" y="-144" font-family="Helvetica,sans-Serif" font-size="10.00">Observables::Observable</text>
</a>
</g>
</g>
<!-- Node2&#45;&gt;Node1 -->
<g id="edge1" class="edge">
<title>Node2&#45;&gt;Node1</title>
<path fill="none" stroke="midnightblue" d="M149.25,-146.5C157.67,-146.5 166.25,-146.5 174.73,-146.5"/>
<polygon fill="midnightblue" stroke="midnightblue" points="149.09,-143 139.09,-146.5 149.09,-150 149.09,-143"/>
</g>
<!-- Node4 -->
<g id="node4" class="node">
<title>Node4</title>
<g id="a_node4"><a xlink:href="classObservables_1_1CylindricalLBProfileObservable.html" target="_top" xlink:title=" ">
<polygon fill="none" stroke="black" points="617,-248.5 617,-278.5 752,-278.5 752,-248.5 617,-248.5"/>
<text text-anchor="start" x="625" y="-266.5" font-family="Helvetica,sans-Serif" font-size="10.00">Observables::Cylindrical</text>
<text text-anchor="middle" x="684.5" y="-255.5" font-family="Helvetica,sans-Serif" font-size="10.00">LBProfileObservable</text>
</a>
</g>
</g>
<!-- Node3&#45;&gt;Node4 -->
<g id="edge3" class="edge">
<title>Node3&#45;&gt;Node4</title>
<path fill="none" stroke="midnightblue" d="M527.14,-208.89C562.18,-221.12 607.64,-237 640.5,-248.48"/>
<polygon fill="midnightblue" stroke="midnightblue" points="528.15,-205.53 517.55,-205.54 525.84,-212.14 528.15,-205.53"/>
</g>
<!-- Node6 -->
<g id="node6" class="node">
<title>Node6</title>
<g id="a_node6"><a xlink:href="classObservables_1_1CylindricalPidProfileObservable.html" target="_top" xlink:title=" ">
<polygon fill="none" stroke="black" points="617,-175.5 617,-205.5 752,-205.5 752,-175.5 617,-175.5"/>
<text text-anchor="start" x="625" y="-193.5" font-family="Helvetica,sans-Serif" font-size="10.00">Observables::Cylindrical</text>
<text text-anchor="middle" x="684.5" y="-182.5" font-family="Helvetica,sans-Serif" font-size="10.00">PidProfileObservable</text>
</a>
</g>
</g>
<!-- Node3&#45;&gt;Node6 -->
<g id="edge5" class="edge">
<title>Node3&#45;&gt;Node6</title>
<path fill="none" stroke="midnightblue" d="M551.26,-190.5C572.73,-190.5 595.87,-190.5 616.71,-190.5"/>
<polygon fill="midnightblue" stroke="midnightblue" points="551.2,-187 541.2,-190.5 551.2,-194 551.2,-187"/>
</g>
<!-- Node5 -->
<g id="node5" class="node">
<title>Node5</title>
<g id="a_node5"><a xlink:href="classObservables_1_1CylindricalLBVelocityProfile.html" target="_top" xlink:title=" ">
<polygon fill="none" stroke="black" points="830,-300.5 830,-330.5 965,-330.5 965,-300.5 830,-300.5"/>
<text text-anchor="start" x="838" y="-318.5" font-family="Helvetica,sans-Serif" font-size="10.00">Observables::Cylindrical</text>
<text text-anchor="middle" x="897.5" y="-307.5" font-family="Helvetica,sans-Serif" font-size="10.00">LBVelocityProfile</text>
</a>
</g>
</g>
<!-- Node4&#45;&gt;Node5 -->
<g id="edge4" class="edge">
<title>Node4&#45;&gt;Node5</title>
<path fill="none" stroke="midnightblue" d="M756.57,-281.01C782.21,-287.33 810.91,-294.41 835.61,-300.49"/>
<polygon fill="midnightblue" stroke="midnightblue" points="757.08,-277.54 746.53,-278.54 755.4,-284.33 757.08,-277.54"/>
</g>
<!-- Node7 -->
<g id="node7" class="node">
<title>Node7</title>
<g id="a_node7"><a xlink:href="classObservables_1_1CylindricalDensityProfile.html" target="_top" xlink:title=" ">
<polygon fill="none" stroke="black" points="830,-251.5 830,-281.5 965,-281.5 965,-251.5 830,-251.5"/>
<text text-anchor="start" x="838" y="-269.5" font-family="Helvetica,sans-Serif" font-size="10.00">Observables::Cylindrical</text>
<text text-anchor="middle" x="897.5" y="-258.5" font-family="Helvetica,sans-Serif" font-size="10.00">DensityProfile</text>
</a>
</g>
</g>
<!-- Node6&#45;&gt;Node7 -->
<g id="edge6" class="edge">
<title>Node6&#45;&gt;Node7</title>
<path fill="none" stroke="midnightblue" d="M725.08,-209.98C747.57,-220.55 776.45,-233.29 803,-242.5 812.34,-245.74 822.34,-248.76 832.21,-251.49"/>
<polygon fill="midnightblue" stroke="midnightblue" points="726.4,-206.73 715.87,-205.6 723.4,-213.06 726.4,-206.73"/>
</g>
<!-- Node8 -->
<g id="node8" class="node">
<title>Node8</title>
<g id="a_node8"><a xlink:href="classObservables_1_1CylindricalFluxDensityProfile.html" target="_top" xlink:title=" ">
<polygon fill="none" stroke="black" points="830,-202.5 830,-232.5 965,-232.5 965,-202.5 830,-202.5"/>
<text text-anchor="start" x="838" y="-220.5" font-family="Helvetica,sans-Serif" font-size="10.00">Observables::Cylindrical</text>
<text text-anchor="middle" x="897.5" y="-209.5" font-family="Helvetica,sans-Serif" font-size="10.00">FluxDensityProfile</text>
</a>
</g>
</g>
<!-- Node6&#45;&gt;Node8 -->
<g id="edge7" class="edge">
<title>Node6&#45;&gt;Node8</title>
<path fill="none" stroke="midnightblue" d="M762.28,-200.33C784.41,-203.16 808.35,-206.22 829.81,-208.97"/>
<polygon fill="midnightblue" stroke="midnightblue" points="762.63,-196.84 752.26,-199.04 761.74,-203.78 762.63,-196.84"/>
</g>
<!-- Node9 -->
<g id="node9" class="node">
<title>Node9</title>
<g id="a_node9"><a xlink:href="classObservables_1_1CylindricalLBFluxDensityProfileAtParticlePositions.html" target="_top" xlink:title=" ">
<polygon fill="none" stroke="black" points="815.5,-142 815.5,-183 979.5,-183 979.5,-142 815.5,-142"/>
<text text-anchor="start" x="823.5" y="-171" font-family="Helvetica,sans-Serif" font-size="10.00">Observables::Cylindrical</text>
<text text-anchor="start" x="823.5" y="-160" font-family="Helvetica,sans-Serif" font-size="10.00">LBFluxDensityProfileAtParticle</text>
<text text-anchor="middle" x="897.5" y="-149" font-family="Helvetica,sans-Serif" font-size="10.00">Positions</text>
</a>
</g>
</g>
<!-- Node6&#45;&gt;Node9 -->
<g id="edge8" class="edge">
<title>Node6&#45;&gt;Node9</title>
<path fill="none" stroke="midnightblue" d="M762.29,-180.31C779.55,-178.02 797.93,-175.58 815.37,-173.27"/>
<polygon fill="midnightblue" stroke="midnightblue" points="761.71,-176.86 752.26,-181.64 762.64,-183.79 761.71,-176.86"/>
</g>
<!-- Node10 -->
<g id="node10" class="node">
<title>Node10</title>
<g id="a_node10"><a xlink:href="classObservables_1_1CylindricalLBVelocityProfileAtParticlePositions.html" target="_top" xlink:title=" ">
<polygon fill="none" stroke="black" points="803,-92.5 803,-122.5 992,-122.5 992,-92.5 803,-92.5"/>
<text text-anchor="start" x="811" y="-110.5" font-family="Helvetica,sans-Serif" font-size="10.00">Observables::Cylindrical</text>
<text text-anchor="middle" x="897.5" y="-99.5" font-family="Helvetica,sans-Serif" font-size="10.00">LBVelocityProfileAtParticlePositions</text>
</a>
</g>
</g>
<!-- Node6&#45;&gt;Node10 -->
<g id="edge9" class="edge">
<title>Node6&#45;&gt;Node10</title>
<path fill="none" stroke="midnightblue" d="M754.87,-171.62C759.06,-169.75 763.14,-167.71 767,-165.5 785.84,-154.72 783.97,-142.94 803,-132.5 810.07,-128.62 817.78,-125.32 825.63,-122.51"/>
<polygon fill="midnightblue" stroke="midnightblue" points="753.46,-168.41 745.55,-175.46 756.13,-174.88 753.46,-168.41"/>
</g>
<!-- Node11 -->
<g id="node11" class="node">
<title>Node11</title>
<g id="a_node11"><a xlink:href="classObservables_1_1CylindricalVelocityProfile.html" target="_top" xlink:title=" ">
<polygon fill="none" stroke="black" points="830,-43.5 830,-73.5 965,-73.5 965,-43.5 830,-43.5"/>
<text text-anchor="start" x="838" y="-61.5" font-family="Helvetica,sans-Serif" font-size="10.00">Observables::Cylindrical</text>
<text text-anchor="middle" x="897.5" y="-50.5" font-family="Helvetica,sans-Serif" font-size="10.00">VelocityProfile</text>
</a>
</g>
</g>
<!-- Node6&#45;&gt;Node11 -->
<g id="edge10" class="edge">
<title>Node6&#45;&gt;Node11</title>
<path fill="none" stroke="midnightblue" d="M760.88,-170.33C763.02,-168.83 765.07,-167.23 767,-165.5 796.97,-138.7 772.41,-108.6 803,-82.5 810.78,-75.86 820.16,-71.03 829.93,-67.51"/>
<polygon fill="midnightblue" stroke="midnightblue" points="758.97,-167.4 752.23,-175.57 762.59,-173.38 758.97,-167.4"/>
</g>
<!-- Node13 -->
<g id="node13" class="node">
<title>Node13</title>
<g id="a_node13"><a xlink:href="classObservables_1_1LBVelocityProfile.html" target="_top" xlink:title=" ">
<polygon fill="none" stroke="black" points="602,-137 602,-156 767,-156 767,-137 602,-137"/>
<text text-anchor="middle" x="684.5" y="-144" font-family="Helvetica,sans-Serif" font-size="10.00">Observables::LBVelocityProfile</text>
</a>
</g>
</g>
<!-- Node12&#45;&gt;Node13 -->
<g id="edge12" class="edge">
<title>Node12&#45;&gt;Node13</title>
<path fill="none" stroke="midnightblue" d="M574.85,-146.5C583.91,-146.5 593.01,-146.5 601.88,-146.5"/>
<polygon fill="midnightblue" stroke="midnightblue" points="574.65,-143 564.65,-146.5 574.65,-150 574.65,-143"/>
</g>
<!-- Node15 -->
<g id="node15" class="node">
<title>Node15</title>
<g id="a_node15"><a xlink:href="classObservables_1_1DensityProfile.html" target="_top" xlink:title=" ">
<polygon fill="none" stroke="black" points="608.5,-99 608.5,-118 760.5,-118 760.5,-99 608.5,-99"/>
<text text-anchor="middle" x="684.5" y="-106" font-family="Helvetica,sans-Serif" font-size="10.00">Observables::DensityProfile</text>
</a>
</g>
</g>
<!-- Node14&#45;&gt;Node15 -->
<g id="edge14" class="edge">
<title>Node14&#45;&gt;Node15</title>
<path fill="none" stroke="midnightblue" d="M575.16,-97.1C586.31,-98.27 597.52,-99.45 608.27,-100.58"/>
<polygon fill="midnightblue" stroke="midnightblue" points="575.27,-93.59 564.95,-96.02 574.53,-100.55 575.27,-93.59"/>
</g>
<!-- Node16 -->
<g id="node16" class="node">
<title>Node16</title>
<g id="a_node16"><a xlink:href="classObservables_1_1FluxDensityProfile.html" target="_top" xlink:title=" ">
<polygon fill="none" stroke="black" points="613.5,-49.5 613.5,-79.5 755.5,-79.5 755.5,-49.5 613.5,-49.5"/>
<text text-anchor="start" x="621.5" y="-67.5" font-family="Helvetica,sans-Serif" font-size="10.00">Observables::FluxDensity</text>
<text text-anchor="middle" x="684.5" y="-56.5" font-family="Helvetica,sans-Serif" font-size="10.00">Profile</text>
</a>
</g>
</g>
<!-- Node14&#45;&gt;Node16 -->
<g id="edge15" class="edge">
<title>Node14&#45;&gt;Node16</title>
<path fill="none" stroke="midnightblue" d="M575.26,-75.89C588.16,-74.54 601.13,-73.17 613.38,-71.88"/>
<polygon fill="midnightblue" stroke="midnightblue" points="574.53,-72.45 564.95,-76.98 575.27,-79.41 574.53,-72.45"/>
</g>
<!-- Node17 -->
<g id="node17" class="node">
<title>Node17</title>
<g id="a_node17"><a xlink:href="classObservables_1_1ForceDensityProfile.html" target="_top" xlink:title=" ">
<polygon fill="none" stroke="black" points="611,-0.5 611,-30.5 758,-30.5 758,-0.5 611,-0.5"/>
<text text-anchor="start" x="619" y="-18.5" font-family="Helvetica,sans-Serif" font-size="10.00">Observables::ForceDensity</text>
<text text-anchor="middle" x="684.5" y="-7.5" font-family="Helvetica,sans-Serif" font-size="10.00">Profile</text>
</a>
</g>
</g>
<!-- Node14&#45;&gt;Node17 -->
<g id="edge16" class="edge">
<title>Node14&#45;&gt;Node17</title>
<path fill="none" stroke="midnightblue" d="M508.84,-73.13C534.38,-63.36 570.17,-50.04 602,-39.5 611.1,-36.49 620.84,-33.46 630.29,-30.61"/>
<polygon fill="midnightblue" stroke="midnightblue" points="507.33,-69.97 499.25,-76.82 509.84,-76.5 507.33,-69.97"/>
</g>
</g>
</svg>
        <g id="navigator" transform="translate(0 0)" fill="#404254">
                <rect fill="#f2f5e9" fill-opacity="0.5" stroke="#606060" stroke-width=".5" x="0" y="0" width="60" height="60"/>
                <use id="zoomplus" xlink:href="#zoomPlus" x="17" y="9" onmousedown="handleZoom(evt,'in')"/>
                <use id="zoomminus" xlink:href="#zoomMin" x="42" y="9" onmousedown="handleZoom(evt,'out')"/>
                <use id="reset" xlink:href="#resetDef" x="30" y="36" onmousedown="handleReset()"/>
                <g id="arrowUp" xlink:href="#dirArrow" transform="translate(30 24)" onmousedown="handlePan(0,-1)">
                  <use xlink:href="#rim" fill="#404040">
                        <set attributeName="fill" to="#808080" begin="arrowUp.mouseover" end="arrowUp.mouseout"/>
                  </use>
                  <path fill="none" stroke="white" stroke-width="1.5" d="M0,-3.0v7 M-2.5,-0.5L0,-3.0L2.5,-0.5"/>
                </g>
                <g id="arrowRight" xlink:href="#dirArrow" transform="rotate(90) translate(36 -43)" onmousedown="handlePan(1,0)">
                  <use xlink:href="#rim" fill="#404040">
                        <set attributeName="fill" to="#808080" begin="arrowRight.mouseover" end="arrowRight.mouseout"/>
                  </use>
                  <path fill="none" stroke="white" stroke-width="1.5" d="M0,-3.0v7 M-2.5,-0.5L0,-3.0L2.5,-0.5"/>
                </g>
                <g id="arrowDown" xlink:href="#dirArrow" transform="rotate(180) translate(-30 -48)" onmousedown="handlePan(0,1)">
                  <use xlink:href="#rim" fill="#404040">
                        <set attributeName="fill" to="#808080" begin="arrowDown.mouseover" end="arrowDown.mouseout"/>
                  </use>
                  <path fill="none" stroke="white" stroke-width="1.5" d="M0,-3.0v7 M-2.5,-0.5L0,-3.0L2.5,-0.5"/>
                </g>
                <g id="arrowLeft" xlink:href="#dirArrow" transform="rotate(270) translate(-36 17)" onmousedown="handlePan(-1,0)">
                  <use xlink:href="#rim" fill="#404040">
                        <set attributeName="fill" to="#808080" begin="arrowLeft.mouseover" end="arrowLeft.mouseout"/>
                  </use>
                  <path fill="none" stroke="white" stroke-width="1.5" d="M0,-3.0v7 M-2.5,-0.5L0,-3.0L2.5,-0.5"/>
                </g>
        </g>
        <svg viewBox="0 0 15 15" width="100%" height="30px" preserveAspectRatio="xMaxYMin meet">
         <g id="arrow_out" transform="scale(0.3 0.3)">
          <a xlink:href="classObservables_1_1ProfileObservable__inherit__graph_org.svg" target="_base">
           <rect id="button" ry="5" rx="5" y="6" x="6" height="38" width="38"
                fill="#f2f5e9" fill-opacity="0.5" stroke="#606060" stroke-width="1.0"/>
           <path id="arrow"
             d="M 11.500037,31.436501 C 11.940474,20.09759 22.043105,11.32322 32.158766,21.979434 L 37.068811,17.246167 C 37.068811,17.246167 37.088388,32 37.088388,32 L 22.160133,31.978069 C 22.160133,31.978069 26.997745,27.140456 26.997745,27.140456 C 18.528582,18.264221 13.291696,25.230495 11.500037,31.436501 z"
             style="fill:#404040;"/>
          </a>
         </g>
        </svg>
</svg>
