<?xml version="1.0" encoding="UTF-8" standalone="no"?>
<!DOCTYPE svg PUBLIC "-//W3C//DTD SVG 1.1//EN"
 "http://www.w3.org/Graphics/SVG/1.1/DTD/svg11.dtd">
<!-- Generated by graphviz version 2.43.0 (0)
 -->
<!-- Title: ScriptInterface::Coulomb::ElectrostaticLayerCorrection Pages: 1 -->
<svg width="809pt" height="50pt"
 viewBox="0.00 0.00 809.00 50.00" xmlns="http://www.w3.org/2000/svg" xmlns:xlink="http://www.w3.org/1999/xlink">
<g id="graph0" class="graph" transform="scale(1 1) rotate(0) translate(4 46)">
<title>ScriptInterface::Coulomb::ElectrostaticLayerCorrection</title>
<!-- Node1 -->
<g id="node1" class="node">
<title>Node1</title>
<g id="a_node1"><a xlink:title=" ">
<polygon fill="#bfbfbf" stroke="black" points="640,-6 640,-36 801,-36 801,-6 640,-6"/>
<text text-anchor="start" x="648" y="-24" font-family="Helvetica,sans-Serif" font-size="10.00">ScriptInterface::Coulomb</text>
<text text-anchor="middle" x="720.5" y="-13" font-family="Helvetica,sans-Serif" font-size="10.00">::ElectrostaticLayerCorrection</text>
</a>
</g>
</g>
<!-- Node2 -->
<g id="node2" class="node">
<title>Node2</title>
<g id="a_node2"><a xlink:href="classScriptInterface_1_1Coulomb_1_1Actor.html" target="_top" xlink:title=" ">
<polygon fill="none" stroke="black" points="404,-0.5 404,-41.5 604,-41.5 604,-0.5 404,-0.5"/>
<text text-anchor="start" x="412" y="-29.5" font-family="Helvetica,sans-Serif" font-size="10.00">ScriptInterface::Coulomb</text>
<text text-anchor="start" x="412" y="-18.5" font-family="Helvetica,sans-Serif" font-size="10.00">::Actor&lt; ElectrostaticLayerCorrection,</text>
<text text-anchor="middle" x="504" y="-7.5" font-family="Helvetica,sans-Serif" font-size="10.00"> ::ElectrostaticLayerCorrection &gt;</text>
</a>
</g>
</g>
<!-- Node2&#45;&gt;Node1 -->
<g id="edge1" class="edge">
<title>Node2&#45;&gt;Node1</title>
<path fill="none" stroke="midnightblue" d="M614.2,-21C622.82,-21 631.43,-21 639.79,-21"/>
<polygon fill="midnightblue" stroke="midnightblue" points="614.09,-17.5 604.09,-21 614.09,-24.5 614.09,-17.5"/>
</g>
<!-- Node3 -->
<g id="node3" class="node">
<title>Node3</title>
<g id="a_node3"><a xlink:href="classScriptInterface_1_1AutoParameters.html" target="_top" xlink:title="Bind parameters in the script interface.">
<polygon fill="none" stroke="black" points="196,-6 196,-36 368,-36 368,-6 196,-6"/>
<text text-anchor="start" x="204" y="-24" font-family="Helvetica,sans-Serif" font-size="10.00">ScriptInterface::AutoParameters</text>
<text text-anchor="middle" x="282" y="-13" font-family="Helvetica,sans-Serif" font-size="10.00">&lt; Derived, Base &gt;</text>
</a>
</g>
</g>
<!-- Node3&#45;&gt;Node2 -->
<g id="edge2" class="edge">
<title>Node3&#45;&gt;Node2</title>
<path fill="none" stroke="midnightblue" d="M378.31,-21C386.78,-21 395.37,-21 403.87,-21"/>
<polygon fill="midnightblue" stroke="midnightblue" points="378.06,-17.5 368.06,-21 378.06,-24.5 378.06,-17.5"/>
</g>
<!-- Node4 -->
<g id="node4" class="node">
<title>Node4</title>
<g id="a_node4"><a xlink:href="classScriptInterface_1_1ObjectHandle.html" target="_top" xlink:title="Base class for interface handles.">
<polygon fill="none" stroke="black" points="0,-11.5 0,-30.5 160,-30.5 160,-11.5 0,-11.5"/>
<text text-anchor="middle" x="80" y="-18.5" font-family="Helvetica,sans-Serif" font-size="10.00">ScriptInterface::ObjectHandle</text>
</a>
</g>
</g>
<!-- Node4&#45;&gt;Node3 -->
<g id="edge3" class="edge">
<title>Node4&#45;&gt;Node3</title>
<path fill="none" stroke="midnightblue" d="M170.08,-21C178.68,-21 187.39,-21 195.95,-21"/>
<polygon fill="midnightblue" stroke="midnightblue" points="170.05,-17.5 160.05,-21 170.05,-24.5 170.05,-17.5"/>
</g>
</g>
</svg>
