<?xml version="1.0" encoding="UTF-8" standalone="no"?>
<!DOCTYPE svg PUBLIC "-//W3C//DTD SVG 1.1//EN"
 "http://www.w3.org/Graphics/SVG/1.1/DTD/svg11.dtd">
<!-- Generated by graphviz version 2.43.0 (0)
 -->
<!-- Title: ScriptInterface::Coulomb::CoulombMMM1D Pages: 1 -->
<svg width="871pt" height="88pt"
 viewBox="0.00 0.00 871.00 88.00" xmlns="http://www.w3.org/2000/svg" xmlns:xlink="http://www.w3.org/1999/xlink">
<g id="graph0" class="graph" transform="scale(1 1) rotate(0) translate(4 84)">
<title>ScriptInterface::Coulomb::CoulombMMM1D</title>
<!-- Node1 -->
<g id="node1" class="node">
<title>Node1</title>
<g id="a_node1"><a xlink:title=" ">
<polygon fill="#bfbfbf" stroke="black" points="726,-13.5 726,-43.5 863,-43.5 863,-13.5 726,-13.5"/>
<text text-anchor="start" x="734" y="-31.5" font-family="Helvetica,sans-Serif" font-size="10.00">ScriptInterface::Coulomb</text>
<text text-anchor="middle" x="794.5" y="-20.5" font-family="Helvetica,sans-Serif" font-size="10.00">::CoulombMMM1D</text>
</a>
</g>
</g>
<!-- Node2 -->
<g id="node2" class="node">
<title>Node2</title>
<g id="a_node2"><a xlink:href="classScriptInterface_1_1Coulomb_1_1Actor.html" target="_top" xlink:title=" ">
<polygon fill="none" stroke="black" points="543,-8 543,-49 689,-49 689,-8 543,-8"/>
<text text-anchor="start" x="551" y="-37" font-family="Helvetica,sans-Serif" font-size="10.00">ScriptInterface::Coulomb</text>
<text text-anchor="start" x="551" y="-26" font-family="Helvetica,sans-Serif" font-size="10.00">::Actor&lt; CoulombMMM1D,</text>
<text text-anchor="middle" x="616" y="-15" font-family="Helvetica,sans-Serif" font-size="10.00"> ::CoulombMMM1D &gt;</text>
</a>
</g>
</g>
<!-- Node2&#45;&gt;Node1 -->
<g id="edge1" class="edge">
<title>Node2&#45;&gt;Node1</title>
<path fill="none" stroke="midnightblue" d="M699.13,-28.5C708.11,-28.5 717.18,-28.5 725.95,-28.5"/>
<polygon fill="midnightblue" stroke="midnightblue" points="699.04,-25 689.04,-28.5 699.04,-32 699.04,-25"/>
</g>
<!-- Node3 -->
<g id="node3" class="node">
<title>Node3</title>
<g id="a_node3"><a xlink:href="classScriptInterface_1_1AutoParameters.html" target="_top" xlink:title=" ">
<polygon fill="none" stroke="black" points="197,-49.5 197,-79.5 464,-79.5 464,-49.5 197,-49.5"/>
<text text-anchor="start" x="205" y="-67.5" font-family="Helvetica,sans-Serif" font-size="10.00">ScriptInterface::AutoParameters</text>
<text text-anchor="middle" x="330.5" y="-56.5" font-family="Helvetica,sans-Serif" font-size="10.00">&lt; Actor&lt; CoulombMMM1D, ::CoulombMMM1D &gt; &gt;</text>
</a>
</g>
</g>
<!-- Node3&#45;&gt;Node2 -->
<g id="edge2" class="edge">
<title>Node3&#45;&gt;Node2</title>
<path fill="none" stroke="midnightblue" d="M459.72,-48.22C488.23,-44.6 517.47,-40.88 542.78,-37.67"/>
<polygon fill="midnightblue" stroke="midnightblue" points="459.16,-44.76 449.68,-49.49 460.04,-51.71 459.16,-44.76"/>
</g>
<!-- Node4 -->
<g id="node4" class="node">
<title>Node4</title>
<g id="a_node4"><a xlink:href="classScriptInterface_1_1ObjectHandle.html" target="_top" xlink:title="Base class for interface handles.">
<polygon fill="none" stroke="black" points="0,-55 0,-74 160,-74 160,-55 0,-55"/>
<text text-anchor="middle" x="80" y="-62" font-family="Helvetica,sans-Serif" font-size="10.00">ScriptInterface::ObjectHandle</text>
</a>
</g>
</g>
<!-- Node4&#45;&gt;Node3 -->
<g id="edge3" class="edge">
<title>Node4&#45;&gt;Node3</title>
<path fill="none" stroke="midnightblue" d="M170.55,-64.5C179.05,-64.5 187.79,-64.5 196.59,-64.5"/>
<polygon fill="midnightblue" stroke="midnightblue" points="170.31,-61 160.31,-64.5 170.31,-68 170.31,-61"/>
</g>
<!-- Node5 -->
<g id="node5" class="node">
<title>Node5</title>
<g id="a_node5"><a xlink:title=" ">
<polygon fill="none" stroke="#bfbfbf" points="256,-0.5 256,-30.5 405,-30.5 405,-0.5 256,-0.5"/>
<text text-anchor="start" x="264" y="-18.5" font-family="Helvetica,sans-Serif" font-size="10.00">std::shared_ptr&lt; CoreActor</text>
<text text-anchor="middle" x="330.5" y="-7.5" font-family="Helvetica,sans-Serif" font-size="10.00">Class &gt;</text>
</a>
</g>
</g>
<!-- Node5&#45;&gt;Node2 -->
<g id="edge4" class="edge">
<title>Node5&#45;&gt;Node2</title>
<path fill="none" stroke="#9a32cd" stroke-dasharray="5,2" d="M415.35,-19.35C455.78,-21.2 503.79,-23.4 542.6,-25.18"/>
<polygon fill="#9a32cd" stroke="#9a32cd" points="415.4,-15.84 405.25,-18.88 415.08,-22.84 415.4,-15.84"/>
<text text-anchor="middle" x="503.5" y="-27.5" font-family="Helvetica,sans-Serif" font-size="10.00"> m_actor</text>
</g>
</g>
</svg>
