<?xml version="1.0" encoding="UTF-8" standalone="no"?>
<!DOCTYPE svg PUBLIC "-//W3C//DTD SVG 1.1//EN"
 "http://www.w3.org/Graphics/SVG/1.1/DTD/svg11.dtd">
<!-- Generated by graphviz version 2.43.0 (0)
 -->
<!-- Title: ScriptInterface::Dipoles::DipolarP3M Pages: 1 -->
<svg width="220pt" height="240pt"
 viewBox="0.00 0.00 220.00 240.00" xmlns="http://www.w3.org/2000/svg" xmlns:xlink="http://www.w3.org/1999/xlink">
<g id="graph0" class="graph" transform="scale(1 1) rotate(0) translate(4 236)">
<title>ScriptInterface::Dipoles::DipolarP3M</title>
<!-- Node1 -->
<g id="node1" class="node">
<title>Node1</title>
<g id="a_node1"><a xlink:title=" ">
<polygon fill="#bfbfbf" stroke="black" points="40.5,-0.5 40.5,-30.5 171.5,-30.5 171.5,-0.5 40.5,-0.5"/>
<text text-anchor="start" x="48.5" y="-18.5" font-family="Helvetica,sans-Serif" font-size="10.00">ScriptInterface::Dipoles</text>
<text text-anchor="middle" x="106" y="-7.5" font-family="Helvetica,sans-Serif" font-size="10.00">::DipolarP3M</text>
</a>
</g>
</g>
<!-- Node2 -->
<g id="node2" class="node">
<title>Node2</title>
<g id="a_node2"><a xlink:href="classScriptInterface_1_1Dipoles_1_1Actor.html" target="_top" xlink:title=" ">
<polygon fill="none" stroke="black" points="40.5,-67.5 40.5,-108.5 171.5,-108.5 171.5,-67.5 40.5,-67.5"/>
<text text-anchor="start" x="48.5" y="-96.5" font-family="Helvetica,sans-Serif" font-size="10.00">ScriptInterface::Dipoles</text>
<text text-anchor="start" x="48.5" y="-85.5" font-family="Helvetica,sans-Serif" font-size="10.00">::Actor&lt; DipolarP3M, ::</text>
<text text-anchor="middle" x="106" y="-74.5" font-family="Helvetica,sans-Serif" font-size="10.00">DipolarP3M &gt;</text>
</a>
</g>
</g>
<!-- Node2&#45;&gt;Node1 -->
<g id="edge1" class="edge">
<title>Node2&#45;&gt;Node1</title>
<path fill="none" stroke="midnightblue" d="M106,-57.08C106,-48.01 106,-38.45 106,-30.89"/>
<polygon fill="midnightblue" stroke="midnightblue" points="102.5,-57.36 106,-67.36 109.5,-57.36 102.5,-57.36"/>
</g>
<!-- Node3 -->
<g id="node3" class="node">
<title>Node3</title>
<g id="a_node3"><a xlink:href="classScriptInterface_1_1AutoParameters.html" target="_top" xlink:title=" ">
<polygon fill="none" stroke="black" points="0,-145.5 0,-175.5 212,-175.5 212,-145.5 0,-145.5"/>
<text text-anchor="start" x="8" y="-163.5" font-family="Helvetica,sans-Serif" font-size="10.00">ScriptInterface::AutoParameters</text>
<text text-anchor="middle" x="106" y="-152.5" font-family="Helvetica,sans-Serif" font-size="10.00">&lt; Actor&lt; DipolarP3M, ::DipolarP3M &gt; &gt;</text>
</a>
</g>
</g>
<!-- Node3&#45;&gt;Node2 -->
<g id="edge2" class="edge">
<title>Node3&#45;&gt;Node2</title>
<path fill="none" stroke="midnightblue" d="M106,-134.98C106,-126.35 106,-116.76 106,-108.59"/>
<polygon fill="midnightblue" stroke="midnightblue" points="102.5,-135.23 106,-145.23 109.5,-135.23 102.5,-135.23"/>
</g>
<!-- Node4 -->
<g id="node4" class="node">
<title>Node4</title>
<g id="a_node4"><a xlink:href="classScriptInterface_1_1ObjectHandle.html" target="_top" xlink:title="Base class for interface handles.">
<polygon fill="none" stroke="black" points="26,-212.5 26,-231.5 186,-231.5 186,-212.5 26,-212.5"/>
<text text-anchor="middle" x="106" y="-219.5" font-family="Helvetica,sans-Serif" font-size="10.00">ScriptInterface::ObjectHandle</text>
</a>
</g>
</g>
<!-- Node4&#45;&gt;Node3 -->
<g id="edge3" class="edge">
<title>Node4&#45;&gt;Node3</title>
<path fill="none" stroke="midnightblue" d="M106,-202.23C106,-193.59 106,-183.5 106,-175.52"/>
<polygon fill="midnightblue" stroke="midnightblue" points="102.5,-202.48 106,-212.48 109.5,-202.48 102.5,-202.48"/>
</g>
</g>
</svg>
