<?xml version="1.0" encoding="UTF-8" standalone="no"?>
<!DOCTYPE svg PUBLIC "-//W3C//DTD SVG 1.1//EN"
 "http://www.w3.org/Graphics/SVG/1.1/DTD/svg11.dtd">
<!-- Generated by graphviz version 2.43.0 (0)
 -->
<!-- Title: ScriptInterface::Observables::PidProfileObservable&lt; CoreObs &gt; Pages: 1 -->
<svg width="196pt" height="170pt"
 viewBox="0.00 0.00 196.00 170.00" xmlns="http://www.w3.org/2000/svg" xmlns:xlink="http://www.w3.org/1999/xlink">
<g id="graph0" class="graph" transform="scale(1 1) rotate(0) translate(4 166)">
<title>ScriptInterface::Observables::PidProfileObservable&lt; CoreObs &gt;</title>
<!-- Node1 -->
<g id="Node000001" class="node">
<title>Node1</title>
<g id="a_Node000001"><a xlink:title=" ">
<polygon fill="#999999" stroke="#666666" points="188,-30 0,-30 0,0 188,0 188,-30"/>
<text text-anchor="start" x="8" y="-18" font-family="Helvetica,sans-Serif" font-size="10.00">ScriptInterface::Observables</text>
<text text-anchor="middle" x="94" y="-7" font-family="Helvetica,sans-Serif" font-size="10.00">::PidProfileObservable&lt; CoreObs &gt;</text>
</a>
</g>
</g>
<!-- Node2 -->
<g id="Node000002" class="node">
<title>Node2</title>
<g id="a_Node000002"><a xlink:href="classScriptInterface_1_1AutoParameters.html" target="_top" xlink:title=" ">
<polygon fill="white" stroke="#666666" points="185,-107 3,-107 3,-66 185,-66 185,-107"/>
<text text-anchor="start" x="11" y="-95" font-family="Helvetica,sans-Serif" font-size="10.00">ScriptInterface::AutoParameters</text>
<text text-anchor="start" x="11" y="-84" font-family="Helvetica,sans-Serif" font-size="10.00">&lt; PidProfileObservable&lt; CoreObs</text>
<text text-anchor="middle" x="94" y="-73" font-family="Helvetica,sans-Serif" font-size="10.00"> &gt;, Observable &gt;</text>
</a>
</g>
</g>
<!-- Node2&#45;&gt;Node1 -->
<g id="edge1_Node000001_Node000002" class="edge">
<title>Node2&#45;&gt;Node1</title>
<g id="a_edge1_Node000001_Node000002"><a xlink:title=" ">
<path fill="none" stroke="#63b8ff" d="M94,-55.66C94,-46.76 94,-37.42 94,-30.04"/>
<polygon fill="#63b8ff" stroke="#63b8ff" points="90.5,-55.77 94,-65.77 97.5,-55.77 90.5,-55.77"/>
</a>
</g>
</g>
<!-- Node3 -->
<g id="Node000003" class="node">
<title>Node3</title>
<g id="a_Node000003"><a xlink:title=" ">
<polygon fill="white" stroke="#666666" points="130,-162 58,-162 58,-143 130,-143 130,-162"/>
<text text-anchor="middle" x="94" y="-150" font-family="Helvetica,sans-Serif" font-size="10.00">Observable</text>
</a>
</g>
</g>
<!-- Node3&#45;&gt;Node2 -->
<g id="edge2_Node000002_Node000003" class="edge">
<title>Node3&#45;&gt;Node2</title>
<g id="a_edge2_Node000002_Node000003"><a xlink:title=" ">
<path fill="none" stroke="#63b8ff" d="M94,-132.63C94,-124.56 94,-115.15 94,-107.01"/>
<polygon fill="#63b8ff" stroke="#63b8ff" points="90.5,-132.87 94,-142.87 97.5,-132.87 90.5,-132.87"/>
</a>
</g>
</g>
</g>
</svg>
