<?xml version="1.0" encoding="UTF-8" standalone="no"?>
<!DOCTYPE svg PUBLIC "-//W3C//DTD SVG 1.1//EN"
 "http://www.w3.org/Graphics/SVG/1.1/DTD/svg11.dtd">
<!-- Generated by graphviz version 2.43.0 (0)
 -->
<!-- Title: Observables::CylindricalPidProfileObservable Pages: 1 -->
<!--zoomable 247 -->
<svg id="main" version="1.1" xmlns="http://www.w3.org/2000/svg" xmlns:xlink="http://www.w3.org/1999/xlink" xml:space="preserve" onload="init(evt)">
<style type="text/css"><![CDATA[
.edge:hover path { stroke: red; }
.edge:hover polygon { stroke: red; fill: red; }
]]></style>
<script type="text/javascript"><![CDATA[
var edges = document.getElementsByTagName('g');
if (edges && edges.length) {
  for (var i=0;i<edges.length;i++) {
    if (edges[i].id.substr(0,4)=='edge') {
      edges[i].setAttribute('class','edge');
    }
  }
}
]]></script>
        <defs>
                <circle id="rim" cx="0" cy="0" r="7"/>
                <circle id="rim2" cx="0" cy="0" r="3.5"/>
                <g id="zoomPlus">
                        <use xlink:href="#rim" fill="#404040">
                                <set attributeName="fill" to="#808080" begin="zoomplus.mouseover" end="zoomplus.mouseout"/>
                        </use>
                        <path d="M-4,0h8M0,-4v8" fill="none" stroke="white" stroke-width="1.5" pointer-events="none"/>
                </g>
                <g id="zoomMin">
                        <use xlink:href="#rim" fill="#404040">
                                <set attributeName="fill" to="#808080" begin="zoomminus.mouseover" end="zoomminus.mouseout"/>
                        </use>
                        <path d="M-4,0h8" fill="none" stroke="white" stroke-width="1.5" pointer-events="none"/>
                </g>
                <g id="dirArrow">
                        <path fill="none" stroke="white" stroke-width="1.5" d="M0,-3.0v7 M-2.5,-0.5L0,-3.0L2.5,-0.5"/>
                </g>
               <g id="resetDef">
                       <use xlink:href="#rim2" fill="#404040">
                               <set attributeName="fill" to="#808080" begin="reset.mouseover" end="reset.mouseout"/>
                       </use>
               </g>
        </defs>

<script type="text/javascript">
var viewWidth = 939;
var viewHeight = 247;
var sectionId = 'dynsection-0';
</script>
<script xlink:href="svgpan.js"/>
<svg id="graph" class="graph">
<g id="viewport">
<title>Observables::CylindricalPidProfileObservable</title>
<!-- Node1 -->
<g id="node1" class="node">
<title>Node1</title>
<g id="a_node1"><a xlink:title=" ">
<polygon fill="#bfbfbf" stroke="black" points="571,-104.5 571,-134.5 706,-134.5 706,-104.5 571,-104.5"/>
<text text-anchor="start" x="579" y="-122.5" font-family="Helvetica,sans-Serif" font-size="10.00">Observables::Cylindrical</text>
<text text-anchor="middle" x="638.5" y="-111.5" font-family="Helvetica,sans-Serif" font-size="10.00">PidProfileObservable</text>
</a>
</g>
</g>
<!-- Node6 -->
<g id="node6" class="node">
<title>Node6</title>
<g id="a_node6"><a xlink:href="classObservables_1_1CylindricalDensityProfile.html" target="_top" xlink:title=" ">
<polygon fill="none" stroke="black" points="769,-208.5 769,-238.5 904,-238.5 904,-208.5 769,-208.5"/>
<text text-anchor="start" x="777" y="-226.5" font-family="Helvetica,sans-Serif" font-size="10.00">Observables::Cylindrical</text>
<text text-anchor="middle" x="836.5" y="-215.5" font-family="Helvetica,sans-Serif" font-size="10.00">DensityProfile</text>
</a>
</g>
</g>
<!-- Node1&#45;&gt;Node6 -->
<g id="edge6" class="edge">
<title>Node1&#45;&gt;Node6</title>
<path fill="none" stroke="midnightblue" d="M662.27,-141.82C681.88,-159.86 711.73,-184.62 742,-199.5 750.42,-203.64 759.63,-207.12 768.89,-210.03"/>
<polygon fill="midnightblue" stroke="midnightblue" points="664.46,-139.07 654.77,-134.79 659.67,-144.18 664.46,-139.07"/>
</g>
<!-- Node7 -->
<g id="node7" class="node">
<title>Node7</title>
<g id="a_node7"><a xlink:href="classObservables_1_1CylindricalFluxDensityProfile.html" target="_top" xlink:title=" ">
<polygon fill="none" stroke="black" points="769,-159.5 769,-189.5 904,-189.5 904,-159.5 769,-159.5"/>
<text text-anchor="start" x="777" y="-177.5" font-family="Helvetica,sans-Serif" font-size="10.00">Observables::Cylindrical</text>
<text text-anchor="middle" x="836.5" y="-166.5" font-family="Helvetica,sans-Serif" font-size="10.00">FluxDensityProfile</text>
</a>
</g>
</g>
<!-- Node1&#45;&gt;Node7 -->
<g id="edge7" class="edge">
<title>Node1&#45;&gt;Node7</title>
<path fill="none" stroke="midnightblue" d="M699.89,-137.43C713.71,-141.46 728.35,-145.68 742,-149.5 753.65,-152.76 766.14,-156.17 778.08,-159.38"/>
<polygon fill="midnightblue" stroke="midnightblue" points="700.58,-133.99 690,-134.54 698.62,-140.71 700.58,-133.99"/>
</g>
<!-- Node8 -->
<g id="node8" class="node">
<title>Node8</title>
<g id="a_node8"><a xlink:href="classObservables_1_1CylindricalLBFluxDensityProfileAtParticlePositions.html" target="_top" xlink:title=" ">
<polygon fill="none" stroke="black" points="754.5,-99 754.5,-140 918.5,-140 918.5,-99 754.5,-99"/>
<text text-anchor="start" x="762.5" y="-128" font-family="Helvetica,sans-Serif" font-size="10.00">Observables::Cylindrical</text>
<text text-anchor="start" x="762.5" y="-117" font-family="Helvetica,sans-Serif" font-size="10.00">LBFluxDensityProfileAtParticle</text>
<text text-anchor="middle" x="836.5" y="-106" font-family="Helvetica,sans-Serif" font-size="10.00">Positions</text>
</a>
</g>
</g>
<!-- Node1&#45;&gt;Node8 -->
<g id="edge8" class="edge">
<title>Node1&#45;&gt;Node8</title>
<path fill="none" stroke="midnightblue" d="M716.48,-119.5C728.95,-119.5 741.9,-119.5 754.46,-119.5"/>
<polygon fill="midnightblue" stroke="midnightblue" points="716.13,-116 706.13,-119.5 716.13,-123 716.13,-116"/>
</g>
<!-- Node9 -->
<g id="node9" class="node">
<title>Node9</title>
<g id="a_node9"><a xlink:href="classObservables_1_1CylindricalLBVelocityProfileAtParticlePositions.html" target="_top" xlink:title=" ">
<polygon fill="none" stroke="black" points="742,-49.5 742,-79.5 931,-79.5 931,-49.5 742,-49.5"/>
<text text-anchor="start" x="750" y="-67.5" font-family="Helvetica,sans-Serif" font-size="10.00">Observables::Cylindrical</text>
<text text-anchor="middle" x="836.5" y="-56.5" font-family="Helvetica,sans-Serif" font-size="10.00">LBVelocityProfileAtParticlePositions</text>
</a>
</g>
</g>
<!-- Node1&#45;&gt;Node9 -->
<g id="edge9" class="edge">
<title>Node1&#45;&gt;Node9</title>
<path fill="none" stroke="midnightblue" d="M699.89,-101.57C713.71,-97.54 728.35,-93.32 742,-89.5 753.65,-86.24 766.14,-82.83 778.08,-79.62"/>
<polygon fill="midnightblue" stroke="midnightblue" points="698.62,-98.29 690,-104.46 700.58,-105.01 698.62,-98.29"/>
</g>
<!-- Node10 -->
<g id="node10" class="node">
<title>Node10</title>
<g id="a_node10"><a xlink:href="classObservables_1_1CylindricalVelocityProfile.html" target="_top" xlink:title=" ">
<polygon fill="none" stroke="black" points="769,-0.5 769,-30.5 904,-30.5 904,-0.5 769,-0.5"/>
<text text-anchor="start" x="777" y="-18.5" font-family="Helvetica,sans-Serif" font-size="10.00">Observables::Cylindrical</text>
<text text-anchor="middle" x="836.5" y="-7.5" font-family="Helvetica,sans-Serif" font-size="10.00">VelocityProfile</text>
</a>
</g>
</g>
<!-- Node1&#45;&gt;Node10 -->
<g id="edge10" class="edge">
<title>Node1&#45;&gt;Node10</title>
<path fill="none" stroke="midnightblue" d="M662.27,-97.18C681.88,-79.14 711.73,-54.38 742,-39.5 750.42,-35.36 759.63,-31.88 768.89,-28.97"/>
<polygon fill="midnightblue" stroke="midnightblue" points="659.67,-94.82 654.77,-104.21 664.46,-99.93 659.67,-94.82"/>
</g>
<!-- Node2 -->
<g id="node2" class="node">
<title>Node2</title>
<g id="a_node2"><a xlink:href="classObservables_1_1PidObservable.html" target="_top" xlink:title="Particle&#45;based observable.">
<polygon fill="none" stroke="black" points="381,-132 381,-151 535,-151 535,-132 381,-132"/>
<text text-anchor="middle" x="458" y="-139" font-family="Helvetica,sans-Serif" font-size="10.00">Observables::PidObservable</text>
</a>
</g>
</g>
<!-- Node2&#45;&gt;Node1 -->
<g id="edge1" class="edge">
<title>Node2&#45;&gt;Node1</title>
<path fill="none" stroke="midnightblue" d="M545.27,-130.87C553.86,-129.81 562.49,-128.75 570.83,-127.72"/>
<polygon fill="midnightblue" stroke="midnightblue" points="544.71,-127.41 535.22,-132.11 545.57,-134.36 544.71,-127.41"/>
</g>
<!-- Node3 -->
<g id="node3" class="node">
<title>Node3</title>
<g id="a_node3"><a xlink:href="classObservables_1_1Observable.html" target="_top" xlink:title="Base class for observables.">
<polygon fill="none" stroke="black" points="0,-110 0,-129 139,-129 139,-110 0,-110"/>
<text text-anchor="middle" x="69.5" y="-117" font-family="Helvetica,sans-Serif" font-size="10.00">Observables::Observable</text>
</a>
</g>
</g>
<!-- Node3&#45;&gt;Node2 -->
<g id="edge2" class="edge">
<title>Node3&#45;&gt;Node2</title>
<path fill="none" stroke="midnightblue" d="M149.33,-123.99C216.96,-127.84 313.82,-133.35 380.71,-137.16"/>
<polygon fill="midnightblue" stroke="midnightblue" points="149.34,-120.48 139.15,-123.41 148.94,-127.47 149.34,-120.48"/>
</g>
<!-- Node5 -->
<g id="node5" class="node">
<title>Node5</title>
<g id="a_node5"><a xlink:href="classObservables_1_1ProfileObservable.html" target="_top" xlink:title="Cartesian profile observable.">
<polygon fill="none" stroke="black" points="175,-91 175,-110 345,-110 345,-91 175,-91"/>
<text text-anchor="middle" x="260" y="-98" font-family="Helvetica,sans-Serif" font-size="10.00">Observables::ProfileObservable</text>
</a>
</g>
</g>
<!-- Node3&#45;&gt;Node5 -->
<g id="edge5" class="edge">
<title>Node3&#45;&gt;Node5</title>
<path fill="none" stroke="midnightblue" d="M149.25,-111.56C157.67,-110.71 166.25,-109.85 174.73,-108.99"/>
<polygon fill="midnightblue" stroke="midnightblue" points="148.68,-108.1 139.09,-112.59 149.39,-115.07 148.68,-108.1"/>
</g>
<!-- Node4 -->
<g id="node4" class="node">
<title>Node4</title>
<g id="a_node4"><a xlink:href="classObservables_1_1CylindricalProfileObservable.html" target="_top" xlink:title="Cylindrical profile observable.">
<polygon fill="none" stroke="black" points="390.5,-82.5 390.5,-112.5 525.5,-112.5 525.5,-82.5 390.5,-82.5"/>
<text text-anchor="start" x="398.5" y="-100.5" font-family="Helvetica,sans-Serif" font-size="10.00">Observables::Cylindrical</text>
<text text-anchor="middle" x="458" y="-89.5" font-family="Helvetica,sans-Serif" font-size="10.00">ProfileObservable</text>
</a>
</g>
</g>
<!-- Node4&#45;&gt;Node1 -->
<g id="edge3" class="edge">
<title>Node4&#45;&gt;Node1</title>
<path fill="none" stroke="midnightblue" d="M535.86,-106.97C547.51,-108.41 559.45,-109.88 570.86,-111.29"/>
<polygon fill="midnightblue" stroke="midnightblue" points="536.07,-103.47 525.72,-105.72 535.22,-110.42 536.07,-103.47"/>
</g>
<!-- Node5&#45;&gt;Node4 -->
<g id="edge4" class="edge">
<title>Node5&#45;&gt;Node4</title>
<path fill="none" stroke="midnightblue" d="M355.54,-99.05C367.27,-98.87 379.07,-98.69 390.26,-98.52"/>
<polygon fill="midnightblue" stroke="midnightblue" points="355.2,-95.56 345.26,-99.21 355.31,-102.56 355.2,-95.56"/>
</g>
</g>
</svg>
        <g id="navigator" transform="translate(0 0)" fill="#404254">
                <rect fill="#f2f5e9" fill-opacity="0.5" stroke="#606060" stroke-width=".5" x="0" y="0" width="60" height="60"/>
                <use id="zoomplus" xlink:href="#zoomPlus" x="17" y="9" onmousedown="handleZoom(evt,'in')"/>
                <use id="zoomminus" xlink:href="#zoomMin" x="42" y="9" onmousedown="handleZoom(evt,'out')"/>
                <use id="reset" xlink:href="#resetDef" x="30" y="36" onmousedown="handleReset()"/>
                <g id="arrowUp" xlink:href="#dirArrow" transform="translate(30 24)" onmousedown="handlePan(0,-1)">
                  <use xlink:href="#rim" fill="#404040">
                        <set attributeName="fill" to="#808080" begin="arrowUp.mouseover" end="arrowUp.mouseout"/>
                  </use>
                  <path fill="none" stroke="white" stroke-width="1.5" d="M0,-3.0v7 M-2.5,-0.5L0,-3.0L2.5,-0.5"/>
                </g>
                <g id="arrowRight" xlink:href="#dirArrow" transform="rotate(90) translate(36 -43)" onmousedown="handlePan(1,0)">
                  <use xlink:href="#rim" fill="#404040">
                        <set attributeName="fill" to="#808080" begin="arrowRight.mouseover" end="arrowRight.mouseout"/>
                  </use>
                  <path fill="none" stroke="white" stroke-width="1.5" d="M0,-3.0v7 M-2.5,-0.5L0,-3.0L2.5,-0.5"/>
                </g>
                <g id="arrowDown" xlink:href="#dirArrow" transform="rotate(180) translate(-30 -48)" onmousedown="handlePan(0,1)">
                  <use xlink:href="#rim" fill="#404040">
                        <set attributeName="fill" to="#808080" begin="arrowDown.mouseover" end="arrowDown.mouseout"/>
                  </use>
                  <path fill="none" stroke="white" stroke-width="1.5" d="M0,-3.0v7 M-2.5,-0.5L0,-3.0L2.5,-0.5"/>
                </g>
                <g id="arrowLeft" xlink:href="#dirArrow" transform="rotate(270) translate(-36 17)" onmousedown="handlePan(-1,0)">
                  <use xlink:href="#rim" fill="#404040">
                        <set attributeName="fill" to="#808080" begin="arrowLeft.mouseover" end="arrowLeft.mouseout"/>
                  </use>
                  <path fill="none" stroke="white" stroke-width="1.5" d="M0,-3.0v7 M-2.5,-0.5L0,-3.0L2.5,-0.5"/>
                </g>
        </g>
        <svg viewBox="0 0 15 15" width="100%" height="30px" preserveAspectRatio="xMaxYMin meet">
         <g id="arrow_out" transform="scale(0.3 0.3)">
          <a xlink:href="classObservables_1_1CylindricalPidProfileObservable__inherit__graph_org.svg" target="_base">
           <rect id="button" ry="5" rx="5" y="6" x="6" height="38" width="38"
                fill="#f2f5e9" fill-opacity="0.5" stroke="#606060" stroke-width="1.0"/>
           <path id="arrow"
             d="M 11.500037,31.436501 C 11.940474,20.09759 22.043105,11.32322 32.158766,21.979434 L 37.068811,17.246167 C 37.068811,17.246167 37.088388,32 37.088388,32 L 22.160133,31.978069 C 22.160133,31.978069 26.997745,27.140456 26.997745,27.140456 C 18.528582,18.264221 13.291696,25.230495 11.500037,31.436501 z"
             style="fill:#404040;"/>
          </a>
         </g>
        </svg>
</svg>
