<?xml version="1.0" encoding="UTF-8" standalone="no"?>
<!DOCTYPE svg PUBLIC "-//W3C//DTD SVG 1.1//EN"
 "http://www.w3.org/Graphics/SVG/1.1/DTD/svg11.dtd">
<!-- Generated by graphviz version 2.43.0 (0)
 -->
<!-- Title: ScriptInterface::LeesEdwards::Off Pages: 1 -->
<svg width="186pt" height="218pt"
 viewBox="0.00 0.00 186.00 218.00" xmlns="http://www.w3.org/2000/svg" xmlns:xlink="http://www.w3.org/1999/xlink">
<g id="graph0" class="graph" transform="scale(1 1) rotate(0) translate(4 214)">
<title>ScriptInterface::LeesEdwards::Off</title>
<!-- Node1 -->
<g id="node1" class="node">
<title>Node1</title>
<g id="a_node1"><a xlink:title=" ">
<polygon fill="#bfbfbf" stroke="black" points="0,-0.5 0,-19.5 178,-19.5 178,-0.5 0,-0.5"/>
<text text-anchor="middle" x="89" y="-7.5" font-family="Helvetica,sans-Serif" font-size="10.00">ScriptInterface::LeesEdwards::Off</text>
</a>
</g>
</g>
<!-- Node2 -->
<g id="node2" class="node">
<title>Node2</title>
<g id="a_node2"><a xlink:href="classScriptInterface_1_1LeesEdwards_1_1Protocol.html" target="_top" xlink:title=" ">
<polygon fill="none" stroke="black" points="10,-56.5 10,-86.5 168,-86.5 168,-56.5 10,-56.5"/>
<text text-anchor="start" x="18" y="-74.5" font-family="Helvetica,sans-Serif" font-size="10.00">ScriptInterface::LeesEdwards</text>
<text text-anchor="middle" x="89" y="-63.5" font-family="Helvetica,sans-Serif" font-size="10.00">::Protocol</text>
</a>
</g>
</g>
<!-- Node2&#45;&gt;Node1 -->
<g id="edge1" class="edge">
<title>Node2&#45;&gt;Node1</title>
<path fill="none" stroke="midnightblue" d="M89,-46.29C89,-36.86 89,-26.65 89,-19.66"/>
<polygon fill="midnightblue" stroke="midnightblue" points="85.5,-46.4 89,-56.4 92.5,-46.4 85.5,-46.4"/>
</g>
<!-- Node3 -->
<g id="node3" class="node">
<title>Node3</title>
<g id="a_node3"><a xlink:href="classScriptInterface_1_1AutoParameters.html" target="_top" xlink:title=" ">
<polygon fill="none" stroke="black" points="3,-123.5 3,-153.5 175,-153.5 175,-123.5 3,-123.5"/>
<text text-anchor="start" x="11" y="-141.5" font-family="Helvetica,sans-Serif" font-size="10.00">ScriptInterface::AutoParameters</text>
<text text-anchor="middle" x="89" y="-130.5" font-family="Helvetica,sans-Serif" font-size="10.00">&lt; Protocol &gt;</text>
</a>
</g>
</g>
<!-- Node3&#45;&gt;Node2 -->
<g id="edge2" class="edge">
<title>Node3&#45;&gt;Node2</title>
<path fill="none" stroke="midnightblue" d="M89,-113.11C89,-104.15 89,-94.32 89,-86.58"/>
<polygon fill="midnightblue" stroke="midnightblue" points="85.5,-113.4 89,-123.4 92.5,-113.4 85.5,-113.4"/>
</g>
<!-- Node4 -->
<g id="node4" class="node">
<title>Node4</title>
<g id="a_node4"><a xlink:href="classScriptInterface_1_1ObjectHandle.html" target="_top" xlink:title="Base class for interface handles.">
<polygon fill="none" stroke="black" points="9,-190.5 9,-209.5 169,-209.5 169,-190.5 9,-190.5"/>
<text text-anchor="middle" x="89" y="-197.5" font-family="Helvetica,sans-Serif" font-size="10.00">ScriptInterface::ObjectHandle</text>
</a>
</g>
</g>
<!-- Node4&#45;&gt;Node3 -->
<g id="edge3" class="edge">
<title>Node4&#45;&gt;Node3</title>
<path fill="none" stroke="midnightblue" d="M89,-180.23C89,-171.59 89,-161.5 89,-153.52"/>
<polygon fill="midnightblue" stroke="midnightblue" points="85.5,-180.48 89,-190.48 92.5,-180.48 85.5,-180.48"/>
</g>
</g>
</svg>
