<?xml version="1.0" encoding="UTF-8" standalone="no"?>
<!DOCTYPE svg PUBLIC "-//W3C//DTD SVG 1.1//EN"
 "http://www.w3.org/Graphics/SVG/1.1/DTD/svg11.dtd">
<!-- Generated by graphviz version 2.43.0 (0)
 -->
<!-- Title: ScriptInterface::Constraints::Constraint Pages: 1 -->
<!--zoomable 209 -->
<svg id="main" version="1.1" xmlns="http://www.w3.org/2000/svg" xmlns:xlink="http://www.w3.org/1999/xlink" xml:space="preserve" onload="init(evt)">
<style type="text/css"><![CDATA[
.edge:hover path { stroke: red; }
.edge:hover polygon { stroke: red; fill: red; }
]]></style>
<script type="text/javascript"><![CDATA[
var edges = document.getElementsByTagName('g');
if (edges && edges.length) {
  for (var i=0;i<edges.length;i++) {
    if (edges[i].id.substr(0,4)=='edge') {
      edges[i].setAttribute('class','edge');
    }
  }
}
]]></script>
        <defs>
                <circle id="rim" cx="0" cy="0" r="7"/>
                <circle id="rim2" cx="0" cy="0" r="3.5"/>
                <g id="zoomPlus">
                        <use xlink:href="#rim" fill="#404040">
                                <set attributeName="fill" to="#808080" begin="zoomplus.mouseover" end="zoomplus.mouseout"/>
                        </use>
                        <path d="M-4,0h8M0,-4v8" fill="none" stroke="white" stroke-width="1.5" pointer-events="none"/>
                </g>
                <g id="zoomMin">
                        <use xlink:href="#rim" fill="#404040">
                                <set attributeName="fill" to="#808080" begin="zoomminus.mouseover" end="zoomminus.mouseout"/>
                        </use>
                        <path d="M-4,0h8" fill="none" stroke="white" stroke-width="1.5" pointer-events="none"/>
                </g>
                <g id="dirArrow">
                        <path fill="none" stroke="white" stroke-width="1.5" d="M0,-3.0v7 M-2.5,-0.5L0,-3.0L2.5,-0.5"/>
                </g>
               <g id="resetDef">
                       <use xlink:href="#rim2" fill="#404040">
                               <set attributeName="fill" to="#808080" begin="reset.mouseover" end="reset.mouseout"/>
                       </use>
               </g>
        </defs>

<script type="text/javascript">
var viewWidth = 762;
var viewHeight = 209;
var sectionId = 'dynsection-0';
</script>
<script xlink:href="svgpan.js"/>
<svg id="graph" class="graph">
<g id="viewport">
<title>ScriptInterface::Constraints::Constraint</title>
<!-- Node1 -->
<g id="node1" class="node">
<title>Node1</title>
<g id="a_node1"><a xlink:title=" ">
<polygon fill="#bfbfbf" stroke="black" points="405,-76.5 405,-106.5 554,-106.5 554,-76.5 405,-76.5"/>
<text text-anchor="start" x="413" y="-94.5" font-family="Helvetica,sans-Serif" font-size="10.00">ScriptInterface::Constraints</text>
<text text-anchor="middle" x="479.5" y="-83.5" font-family="Helvetica,sans-Serif" font-size="10.00">::Constraint</text>
</a>
</g>
</g>
<!-- Node4 -->
<g id="node4" class="node">
<title>Node4</title>
<g id="a_node4"><a xlink:href="classScriptInterface_1_1Constraints_1_1ExternalField.html" target="_top" xlink:title=" ">
<polygon fill="none" stroke="black" points="597.5,-159 597.5,-200 746.5,-200 746.5,-159 597.5,-159"/>
<text text-anchor="start" x="605.5" y="-188" font-family="Helvetica,sans-Serif" font-size="10.00">ScriptInterface::Constraints</text>
<text text-anchor="start" x="605.5" y="-177" font-family="Helvetica,sans-Serif" font-size="10.00">::ExternalField&lt; Coupling,</text>
<text text-anchor="middle" x="672" y="-166" font-family="Helvetica,sans-Serif" font-size="10.00"> Field &gt;</text>
</a>
</g>
</g>
<!-- Node1&#45;&gt;Node4 -->
<g id="edge3" class="edge">
<title>Node1&#45;&gt;Node4</title>
<path fill="none" stroke="midnightblue" d="M515.52,-111.57C536.72,-123.34 564.52,-138.09 590,-149.5 597.25,-152.75 604.98,-155.94 612.66,-158.95"/>
<polygon fill="midnightblue" stroke="midnightblue" points="517,-108.39 506.56,-106.56 513.58,-114.5 517,-108.39"/>
</g>
<!-- Node5 -->
<g id="node5" class="node">
<title>Node5</title>
<g id="a_node5"><a xlink:href="classScriptInterface_1_1Constraints_1_1ExternalPotential.html" target="_top" xlink:title=" ">
<polygon fill="none" stroke="black" points="590,-99 590,-140 754,-140 754,-99 590,-99"/>
<text text-anchor="start" x="598" y="-128" font-family="Helvetica,sans-Serif" font-size="10.00">ScriptInterface::Constraints</text>
<text text-anchor="start" x="598" y="-117" font-family="Helvetica,sans-Serif" font-size="10.00">::ExternalPotential&lt; Coupling,</text>
<text text-anchor="middle" x="672" y="-106" font-family="Helvetica,sans-Serif" font-size="10.00"> Field &gt;</text>
</a>
</g>
</g>
<!-- Node1&#45;&gt;Node5 -->
<g id="edge4" class="edge">
<title>Node1&#45;&gt;Node5</title>
<path fill="none" stroke="midnightblue" d="M564.14,-103.79C572.71,-105.05 581.41,-106.33 589.95,-107.59"/>
<polygon fill="midnightblue" stroke="midnightblue" points="564.55,-100.32 554.15,-102.33 563.54,-107.24 564.55,-100.32"/>
</g>
<!-- Node6 -->
<g id="node6" class="node">
<title>Node6</title>
<g id="a_node6"><a xlink:href="classScriptInterface_1_1Constraints_1_1HomogeneousMagneticField.html" target="_top" xlink:title=" ">
<polygon fill="none" stroke="black" points="591.5,-49.5 591.5,-79.5 752.5,-79.5 752.5,-49.5 591.5,-49.5"/>
<text text-anchor="start" x="599.5" y="-67.5" font-family="Helvetica,sans-Serif" font-size="10.00">ScriptInterface::Constraints</text>
<text text-anchor="middle" x="672" y="-56.5" font-family="Helvetica,sans-Serif" font-size="10.00">::HomogeneousMagneticField</text>
</a>
</g>
</g>
<!-- Node1&#45;&gt;Node6 -->
<g id="edge5" class="edge">
<title>Node1&#45;&gt;Node6</title>
<path fill="none" stroke="midnightblue" d="M564.21,-79.64C573.18,-78.36 582.3,-77.07 591.22,-75.81"/>
<polygon fill="midnightblue" stroke="midnightblue" points="563.56,-76.19 554.15,-81.06 564.54,-83.12 563.56,-76.19"/>
</g>
<!-- Node7 -->
<g id="node7" class="node">
<title>Node7</title>
<g id="a_node7"><a xlink:href="classScriptInterface_1_1Constraints_1_1ShapeBasedConstraint.html" target="_top" xlink:title=" ">
<polygon fill="none" stroke="black" points="597.5,-0.5 597.5,-30.5 746.5,-30.5 746.5,-0.5 597.5,-0.5"/>
<text text-anchor="start" x="605.5" y="-18.5" font-family="Helvetica,sans-Serif" font-size="10.00">ScriptInterface::Constraints</text>
<text text-anchor="middle" x="672" y="-7.5" font-family="Helvetica,sans-Serif" font-size="10.00">::ShapeBasedConstraint</text>
</a>
</g>
</g>
<!-- Node1&#45;&gt;Node7 -->
<g id="edge6" class="edge">
<title>Node1&#45;&gt;Node7</title>
<path fill="none" stroke="midnightblue" d="M518.37,-71.73C539.17,-61.33 565.63,-48.83 590,-39.5 598.22,-36.35 607.03,-33.36 615.71,-30.63"/>
<polygon fill="midnightblue" stroke="midnightblue" points="516.59,-68.71 509.24,-76.34 519.75,-74.95 516.59,-68.71"/>
</g>
<!-- Node2 -->
<g id="node2" class="node">
<title>Node2</title>
<g id="a_node2"><a xlink:href="classScriptInterface_1_1AutoParameters.html" target="_top" xlink:title=" ">
<polygon fill="none" stroke="black" points="196,-76.5 196,-106.5 369,-106.5 369,-76.5 196,-76.5"/>
<text text-anchor="start" x="204" y="-94.5" font-family="Helvetica,sans-Serif" font-size="10.00">ScriptInterface::AutoParameters</text>
<text text-anchor="middle" x="282.5" y="-83.5" font-family="Helvetica,sans-Serif" font-size="10.00">&lt; Constraint &gt;</text>
</a>
</g>
</g>
<!-- Node2&#45;&gt;Node1 -->
<g id="edge1" class="edge">
<title>Node2&#45;&gt;Node1</title>
<path fill="none" stroke="midnightblue" d="M379.17,-91.5C387.84,-91.5 396.52,-91.5 404.94,-91.5"/>
<polygon fill="midnightblue" stroke="midnightblue" points="379.03,-88 369.03,-91.5 379.03,-95 379.03,-88"/>
</g>
<!-- Node3 -->
<g id="node3" class="node">
<title>Node3</title>
<g id="a_node3"><a xlink:href="classScriptInterface_1_1ObjectHandle.html" target="_top" xlink:title="Base class for interface handles.">
<polygon fill="none" stroke="black" points="0,-82 0,-101 160,-101 160,-82 0,-82"/>
<text text-anchor="middle" x="80" y="-89" font-family="Helvetica,sans-Serif" font-size="10.00">ScriptInterface::ObjectHandle</text>
</a>
</g>
</g>
<!-- Node3&#45;&gt;Node2 -->
<g id="edge2" class="edge">
<title>Node3&#45;&gt;Node2</title>
<path fill="none" stroke="midnightblue" d="M170.48,-91.5C178.93,-91.5 187.49,-91.5 195.9,-91.5"/>
<polygon fill="midnightblue" stroke="midnightblue" points="170.24,-88 160.24,-91.5 170.24,-95 170.24,-88"/>
</g>
</g>
</svg>
        <g id="navigator" transform="translate(0 0)" fill="#404254">
                <rect fill="#f2f5e9" fill-opacity="0.5" stroke="#606060" stroke-width=".5" x="0" y="0" width="60" height="60"/>
                <use id="zoomplus" xlink:href="#zoomPlus" x="17" y="9" onmousedown="handleZoom(evt,'in')"/>
                <use id="zoomminus" xlink:href="#zoomMin" x="42" y="9" onmousedown="handleZoom(evt,'out')"/>
                <use id="reset" xlink:href="#resetDef" x="30" y="36" onmousedown="handleReset()"/>
                <g id="arrowUp" xlink:href="#dirArrow" transform="translate(30 24)" onmousedown="handlePan(0,-1)">
                  <use xlink:href="#rim" fill="#404040">
                        <set attributeName="fill" to="#808080" begin="arrowUp.mouseover" end="arrowUp.mouseout"/>
                  </use>
                  <path fill="none" stroke="white" stroke-width="1.5" d="M0,-3.0v7 M-2.5,-0.5L0,-3.0L2.5,-0.5"/>
                </g>
                <g id="arrowRight" xlink:href="#dirArrow" transform="rotate(90) translate(36 -43)" onmousedown="handlePan(1,0)">
                  <use xlink:href="#rim" fill="#404040">
                        <set attributeName="fill" to="#808080" begin="arrowRight.mouseover" end="arrowRight.mouseout"/>
                  </use>
                  <path fill="none" stroke="white" stroke-width="1.5" d="M0,-3.0v7 M-2.5,-0.5L0,-3.0L2.5,-0.5"/>
                </g>
                <g id="arrowDown" xlink:href="#dirArrow" transform="rotate(180) translate(-30 -48)" onmousedown="handlePan(0,1)">
                  <use xlink:href="#rim" fill="#404040">
                        <set attributeName="fill" to="#808080" begin="arrowDown.mouseover" end="arrowDown.mouseout"/>
                  </use>
                  <path fill="none" stroke="white" stroke-width="1.5" d="M0,-3.0v7 M-2.5,-0.5L0,-3.0L2.5,-0.5"/>
                </g>
                <g id="arrowLeft" xlink:href="#dirArrow" transform="rotate(270) translate(-36 17)" onmousedown="handlePan(-1,0)">
                  <use xlink:href="#rim" fill="#404040">
                        <set attributeName="fill" to="#808080" begin="arrowLeft.mouseover" end="arrowLeft.mouseout"/>
                  </use>
                  <path fill="none" stroke="white" stroke-width="1.5" d="M0,-3.0v7 M-2.5,-0.5L0,-3.0L2.5,-0.5"/>
                </g>
        </g>
        <svg viewBox="0 0 15 15" width="100%" height="30px" preserveAspectRatio="xMaxYMin meet">
         <g id="arrow_out" transform="scale(0.3 0.3)">
          <a xlink:href="classScriptInterface_1_1Constraints_1_1Constraint__inherit__graph_org.svg" target="_base">
           <rect id="button" ry="5" rx="5" y="6" x="6" height="38" width="38"
                fill="#f2f5e9" fill-opacity="0.5" stroke="#606060" stroke-width="1.0"/>
           <path id="arrow"
             d="M 11.500037,31.436501 C 11.940474,20.09759 22.043105,11.32322 32.158766,21.979434 L 37.068811,17.246167 C 37.068811,17.246167 37.088388,32 37.088388,32 L 22.160133,31.978069 C 22.160133,31.978069 26.997745,27.140456 26.997745,27.140456 C 18.528582,18.264221 13.291696,25.230495 11.500037,31.436501 z"
             style="fill:#404040;"/>
          </a>
         </g>
        </svg>
</svg>
