<?xml version="1.0" encoding="UTF-8" standalone="no"?>
<!DOCTYPE svg PUBLIC "-//W3C//DTD SVG 1.1//EN"
 "http://www.w3.org/Graphics/SVG/1.1/DTD/svg11.dtd">
<!-- Generated by graphviz version 2.43.0 (0)
 -->
<!-- Title: ScriptInterface::Interactions::InteractionThole Pages: 1 -->
<svg width="820pt" height="76pt"
 viewBox="0.00 0.00 820.00 75.50" xmlns="http://www.w3.org/2000/svg" xmlns:xlink="http://www.w3.org/1999/xlink">
<g id="graph0" class="graph" transform="scale(1 1) rotate(0) translate(4 71.5)">
<title>ScriptInterface::Interactions::InteractionThole</title>
<!-- Node1 -->
<g id="Node000001" class="node">
<title>Node1</title>
<g id="a_Node000001"><a xlink:title=" ">
<polygon fill="#999999" stroke="#666666" points="812,-37.5 660,-37.5 660,-7.5 812,-7.5 812,-37.5"/>
<text text-anchor="start" x="668" y="-25.5" font-family="Helvetica,sans-Serif" font-size="10.00">ScriptInterface::Interactions</text>
<text text-anchor="middle" x="736" y="-14.5" font-family="Helvetica,sans-Serif" font-size="10.00">::InteractionThole</text>
</a>
</g>
</g>
<!-- Node2 -->
<g id="Node000002" class="node">
<title>Node2</title>
<g id="a_Node000002"><a xlink:href="classScriptInterface_1_1Interactions_1_1InteractionPotentialInterface.html" target="_top" xlink:title=" ">
<polygon fill="white" stroke="#666666" points="623,-43 461,-43 461,-2 623,-2 623,-43"/>
<text text-anchor="start" x="469" y="-31" font-family="Helvetica,sans-Serif" font-size="10.00">ScriptInterface::Interactions</text>
<text text-anchor="start" x="469" y="-20" font-family="Helvetica,sans-Serif" font-size="10.00">::InteractionPotentialInterface</text>
<text text-anchor="middle" x="542" y="-9" font-family="Helvetica,sans-Serif" font-size="10.00">&lt;::Thole_Parameters &gt;</text>
</a>
</g>
</g>
<!-- Node2&#45;&gt;Node1 -->
<g id="edge1_Node000001_Node000002" class="edge">
<title>Node2&#45;&gt;Node1</title>
<g id="a_edge1_Node000001_Node000002"><a xlink:title=" ">
<path fill="none" stroke="#63b8ff" d="M633.06,-22.5C641.97,-22.5 650.96,-22.5 659.71,-22.5"/>
<polygon fill="#63b8ff" stroke="#63b8ff" points="633.04,-19 623.03,-22.5 633.03,-26 633.04,-19"/>
</a>
</g>
</g>
<!-- Node3 -->
<g id="Node000003" class="node">
<title>Node3</title>
<g id="a_Node000003"><a xlink:href="classScriptInterface_1_1AutoParameters.html" target="_top" xlink:title="Bind parameters in the script interface.">
<polygon fill="white" stroke="#666666" points="376.5,-67.5 204.5,-67.5 204.5,-37.5 376.5,-37.5 376.5,-67.5"/>
<text text-anchor="start" x="212.5" y="-55.5" font-family="Helvetica,sans-Serif" font-size="10.00">ScriptInterface::AutoParameters</text>
<text text-anchor="middle" x="290.5" y="-44.5" font-family="Helvetica,sans-Serif" font-size="10.00">&lt; Derived, Base &gt;</text>
</a>
</g>
</g>
<!-- Node3&#45;&gt;Node2 -->
<g id="edge2_Node000002_Node000003" class="edge">
<title>Node3&#45;&gt;Node2</title>
<g id="a_edge2_Node000002_Node000003"><a xlink:title=" ">
<path fill="none" stroke="#63b8ff" d="M386.68,-41.06C411.14,-38.11 437.22,-34.98 460.84,-32.14"/>
<polygon fill="#63b8ff" stroke="#63b8ff" points="386.18,-37.59 376.67,-42.26 387.01,-44.54 386.18,-37.59"/>
</a>
</g>
</g>
<!-- Node4 -->
<g id="Node000004" class="node">
<title>Node4</title>
<g id="a_Node000004"><a xlink:href="classScriptInterface_1_1ObjectHandle.html" target="_top" xlink:title="Base class for interface handles.">
<polygon fill="white" stroke="#666666" points="160,-62 0,-62 0,-43 160,-43 160,-62"/>
<text text-anchor="middle" x="80" y="-50" font-family="Helvetica,sans-Serif" font-size="10.00">ScriptInterface::ObjectHandle</text>
</a>
</g>
</g>
<!-- Node4&#45;&gt;Node3 -->
<g id="edge3_Node000003_Node000004" class="edge">
<title>Node4&#45;&gt;Node3</title>
<g id="a_edge3_Node000003_Node000004"><a xlink:title=" ">
<path fill="none" stroke="#63b8ff" d="M170.34,-52.5C181.56,-52.5 193.02,-52.5 204.17,-52.5"/>
<polygon fill="#63b8ff" stroke="#63b8ff" points="170.12,-49 160.12,-52.5 170.12,-56 170.12,-49"/>
</a>
</g>
</g>
<!-- Node5 -->
<g id="Node000005" class="node">
<title>Node5</title>
<g id="a_Node000005"><a xlink:title=" ">
<polygon fill="white" stroke="#666666" points="384,-19 197,-19 197,0 384,0 384,-19"/>
<text text-anchor="middle" x="290.5" y="-7" font-family="Helvetica,sans-Serif" font-size="10.00">std::shared_ptr&lt; CoreInteraction &gt;</text>
</a>
</g>
</g>
<!-- Node5&#45;&gt;Node2 -->
<g id="edge4_Node000002_Node000005" class="edge">
<title>Node5&#45;&gt;Node2</title>
<g id="a_edge4_Node000002_Node000005"><a xlink:title=" ">
<path fill="none" stroke="#9a32cd" stroke-dasharray="5,2" d="M394.2,-14.85C416.45,-16.01 439.67,-17.22 460.9,-18.33"/>
<polygon fill="#9a32cd" stroke="#9a32cd" points="394.22,-11.35 384.05,-14.32 393.85,-18.34 394.22,-11.35"/>
</a>
</g>
<text text-anchor="middle" x="422.5" y="-20.5" font-family="Helvetica,sans-Serif" font-size="10.00" fill="grey"> m_ia_si</text>
</g>
</g>
</svg>
