<?xml version="1.0" encoding="UTF-8" standalone="no"?>
<!DOCTYPE svg PUBLIC "-//W3C//DTD SVG 1.1//EN"
 "http://www.w3.org/Graphics/SVG/1.1/DTD/svg11.dtd">
<!-- Generated by graphviz version 2.43.0 (0)
 -->
<!-- Title: Observables::CylindricalLBVelocityProfile Pages: 1 -->
<svg width="178pt" height="285pt"
 viewBox="0.00 0.00 178.00 285.00" xmlns="http://www.w3.org/2000/svg" xmlns:xlink="http://www.w3.org/1999/xlink">
<g id="graph0" class="graph" transform="scale(1 1) rotate(0) translate(4 281)">
<title>Observables::CylindricalLBVelocityProfile</title>
<!-- Node1 -->
<g id="node1" class="node">
<title>Node1</title>
<g id="a_node1"><a xlink:title=" ">
<polygon fill="#bfbfbf" stroke="black" points="17.5,-0.5 17.5,-30.5 152.5,-30.5 152.5,-0.5 17.5,-0.5"/>
<text text-anchor="start" x="25.5" y="-18.5" font-family="Helvetica,sans-Serif" font-size="10.00">Observables::Cylindrical</text>
<text text-anchor="middle" x="85" y="-7.5" font-family="Helvetica,sans-Serif" font-size="10.00">LBVelocityProfile</text>
</a>
</g>
</g>
<!-- Node2 -->
<g id="node2" class="node">
<title>Node2</title>
<g id="a_node2"><a xlink:href="classObservables_1_1CylindricalLBProfileObservable.html" target="_top" xlink:title=" ">
<polygon fill="none" stroke="black" points="17.5,-67.5 17.5,-97.5 152.5,-97.5 152.5,-67.5 17.5,-67.5"/>
<text text-anchor="start" x="25.5" y="-85.5" font-family="Helvetica,sans-Serif" font-size="10.00">Observables::Cylindrical</text>
<text text-anchor="middle" x="85" y="-74.5" font-family="Helvetica,sans-Serif" font-size="10.00">LBProfileObservable</text>
</a>
</g>
</g>
<!-- Node2&#45;&gt;Node1 -->
<g id="edge1" class="edge">
<title>Node2&#45;&gt;Node1</title>
<path fill="none" stroke="midnightblue" d="M85,-57.11C85,-48.15 85,-38.32 85,-30.58"/>
<polygon fill="midnightblue" stroke="midnightblue" points="81.5,-57.4 85,-67.4 88.5,-57.4 81.5,-57.4"/>
</g>
<!-- Node3 -->
<g id="node3" class="node">
<title>Node3</title>
<g id="a_node3"><a xlink:href="classObservables_1_1CylindricalProfileObservable.html" target="_top" xlink:title="Cylindrical profile observable.">
<polygon fill="none" stroke="black" points="17.5,-134.5 17.5,-164.5 152.5,-164.5 152.5,-134.5 17.5,-134.5"/>
<text text-anchor="start" x="25.5" y="-152.5" font-family="Helvetica,sans-Serif" font-size="10.00">Observables::Cylindrical</text>
<text text-anchor="middle" x="85" y="-141.5" font-family="Helvetica,sans-Serif" font-size="10.00">ProfileObservable</text>
</a>
</g>
</g>
<!-- Node3&#45;&gt;Node2 -->
<g id="edge2" class="edge">
<title>Node3&#45;&gt;Node2</title>
<path fill="none" stroke="midnightblue" d="M85,-124.11C85,-115.15 85,-105.32 85,-97.58"/>
<polygon fill="midnightblue" stroke="midnightblue" points="81.5,-124.4 85,-134.4 88.5,-124.4 81.5,-124.4"/>
</g>
<!-- Node4 -->
<g id="node4" class="node">
<title>Node4</title>
<g id="a_node4"><a xlink:href="classObservables_1_1ProfileObservable.html" target="_top" xlink:title="Cartesian profile observable.">
<polygon fill="none" stroke="black" points="0,-201.5 0,-220.5 170,-220.5 170,-201.5 0,-201.5"/>
<text text-anchor="middle" x="85" y="-208.5" font-family="Helvetica,sans-Serif" font-size="10.00">Observables::ProfileObservable</text>
</a>
</g>
</g>
<!-- Node4&#45;&gt;Node3 -->
<g id="edge3" class="edge">
<title>Node4&#45;&gt;Node3</title>
<path fill="none" stroke="midnightblue" d="M85,-191.23C85,-182.59 85,-172.5 85,-164.52"/>
<polygon fill="midnightblue" stroke="midnightblue" points="81.5,-191.48 85,-201.48 88.5,-191.48 81.5,-191.48"/>
</g>
<!-- Node5 -->
<g id="node5" class="node">
<title>Node5</title>
<g id="a_node5"><a xlink:href="classObservables_1_1Observable.html" target="_top" xlink:title="Base class for observables.">
<polygon fill="none" stroke="black" points="15.5,-257.5 15.5,-276.5 154.5,-276.5 154.5,-257.5 15.5,-257.5"/>
<text text-anchor="middle" x="85" y="-264.5" font-family="Helvetica,sans-Serif" font-size="10.00">Observables::Observable</text>
</a>
</g>
</g>
<!-- Node5&#45;&gt;Node4 -->
<g id="edge4" class="edge">
<title>Node5&#45;&gt;Node4</title>
<path fill="none" stroke="midnightblue" d="M85,-246.8C85,-237.91 85,-227.78 85,-220.75"/>
<polygon fill="midnightblue" stroke="midnightblue" points="81.5,-247.08 85,-257.08 88.5,-247.08 81.5,-247.08"/>
</g>
</g>
</svg>
