<?xml version="1.0" encoding="UTF-8" standalone="no"?>
<!DOCTYPE svg PUBLIC "-//W3C//DTD SVG 1.1//EN"
 "http://www.w3.org/Graphics/SVG/1.1/DTD/svg11.dtd">
<!-- Generated by graphviz version 2.43.0 (0)
 -->
<!-- Title: System::Leaf&lt; Class &gt; Pages: 1 -->
<!--zoomable 458 -->

<svg id="main" version="1.1" xmlns="http://www.w3.org/2000/svg" xmlns:xlink="http://www.w3.org/1999/xlink" xml:space="preserve" onload="init(evt)">
<style type="text/css"><![CDATA[
.node, .edge {opacity: 0.7;}
.node.selected, .edge.selected {opacity: 1;}
.edge:hover path { stroke: red; }
.edge:hover polygon { stroke: red; fill: red; }
]]></style>

<defs>
  <circle id="rim" cx="0" cy="0" r="7"/>
  <circle id="rim2" cx="0" cy="0" r="3.5"/>
  <g id="zoomPlus">
    <use xlink:href="#rim" fill="#404040"><set attributeName="fill" to="#808080" begin="zoomplus.mouseover" end="zoomplus.mouseout"/></use>
    <path d="M-4,0h8M0,-4v8" fill="none" stroke="white" stroke-width="1.5" pointer-events="none"/>
  </g>
  <g id="zoomMin">
    <use xlink:href="#rim" fill="#404040"><set attributeName="fill" to="#808080" begin="zoomminus.mouseover" end="zoomminus.mouseout"/></use>
    <path d="M-4,0h8" fill="none" stroke="white" stroke-width="1.5" pointer-events="none"/>
  </g>
  <g id="arrowUp" transform="translate(30 24)">
    <use xlink:href="#rim"/>
    <path pointer-events="none" fill="none" stroke="white" stroke-width="1.5" d="M0,-3.0v7 M-2.5,-0.5L0,-3.0L2.5,-0.5"/>
  </g>
  <g id="arrowRight" transform="rotate(90) translate(36 -43)">
    <use xlink:href="#rim"/>
    <path pointer-events="none" fill="none" stroke="white" stroke-width="1.5" d="M0,-3.0v7 M-2.5,-0.5L0,-3.0L2.5,-0.5"/>
  </g>
  <g id="arrowDown" transform="rotate(180) translate(-30 -48)">
    <use xlink:href="#rim"/>
    <path pointer-events="none" fill="none" stroke="white" stroke-width="1.5" d="M0,-3.0v7 M-2.5,-0.5L0,-3.0L2.5,-0.5"/>
  </g>
  <g id="arrowLeft" transform="rotate(270) translate(-36 17)">
    <use xlink:href="#rim"/>
    <path pointer-events="none" fill="none" stroke="white" stroke-width="1.5" d="M0,-3.0v7 M-2.5,-0.5L0,-3.0L2.5,-0.5"/>
  </g>
  <g id="resetDef">
    <use xlink:href="#rim2" fill="#404040"><set attributeName="fill" to="#808080" begin="reset.mouseover" end="reset.mouseout"/></use>
  </g>
</defs>
<script type="application/ecmascript">
var viewWidth = 765;
var viewHeight = 458;
var sectionId = 'dynsection-0';
</script>
<script type="application/ecmascript" xlink:href="svg.min.js"/>
<svg id="graph" class="graph">
<g id="viewport">
<title>System::Leaf&lt; Class &gt;</title>
<!-- Node1 -->
<g id="Node000001" class="node">
<title>Node1</title>
<g id="a_Node000001"><a xlink:title="Abstract class that represents a component of the system.">
<polygon fill="#999999" stroke="#666666" points="129,-248 0,-248 0,-229 129,-229 129,-248"/>
<text text-anchor="middle" x="64.5" y="-236" font-family="Helvetica,sans-Serif" font-size="10.00">System::Leaf&lt; Class &gt;</text>
</a>
</g>
</g>
<!-- Node2 -->
<g id="Node000002" class="node">
<title>Node2</title>
<g id="a_Node000002"><a xlink:href="classCoulomb_1_1Actor.html" target="_top" xlink:title=" ">
<polygon fill="white" stroke="#666666" points="364.5,-450 166.5,-450 166.5,-431 364.5,-431 364.5,-450"/>
<text text-anchor="middle" x="265.5" y="-438" font-family="Helvetica,sans-Serif" font-size="10.00">Coulomb::Actor&lt; CoulombMMM1D &gt;</text>
</a>
</g>
</g>
<!-- Node1&#45;&gt;Node2 -->
<g id="edge1_Node000001_Node000002" class="edge">
<title>Node1&#45;&gt;Node2</title>
<g id="a_edge1_Node000001_Node000002"><a xlink:title=" ">
<path fill="none" stroke="#63b8ff" d="M70.02,-257.92C80,-296.14 107.72,-381 165,-422.5 169.55,-425.8 174.52,-428.55 179.72,-430.84"/>
<polygon fill="#63b8ff" stroke="#63b8ff" points="73.38,-256.91 67.57,-248.05 66.59,-258.6 73.38,-256.91"/>
</a>
</g>
</g>
<!-- Node4 -->
<g id="Node000004" class="node">
<title>Node4</title>
<g id="a_Node000004"><a xlink:href="classCoulomb_1_1Actor.html" target="_top" xlink:title=" ">
<polygon fill="white" stroke="#666666" points="355,-413 176,-413 176,-394 355,-394 355,-413"/>
<text text-anchor="middle" x="265.5" y="-401" font-family="Helvetica,sans-Serif" font-size="10.00">Coulomb::Actor&lt; CoulombP3M &gt;</text>
</a>
</g>
</g>
<!-- Node1&#45;&gt;Node4 -->
<g id="edge3_Node000001_Node000004" class="edge">
<title>Node1&#45;&gt;Node4</title>
<g id="a_edge3_Node000001_Node000004"><a xlink:title=" ">
<path fill="none" stroke="#63b8ff" d="M72.79,-257.99C85.92,-290.19 116.75,-354.07 165,-385.5 170.15,-388.85 175.75,-391.63 181.58,-393.92"/>
<polygon fill="#63b8ff" stroke="#63b8ff" points="75.93,-256.41 69.02,-248.38 69.41,-258.96 75.93,-256.41"/>
</a>
</g>
</g>
<!-- Node7 -->
<g id="Node000007" class="node">
<title>Node7</title>
<g id="a_Node000007"><a xlink:href="classCoulomb_1_1Actor.html" target="_top" xlink:title=" ">
<polygon fill="white" stroke="#666666" points="366,-376 165,-376 165,-357 366,-357 366,-376"/>
<text text-anchor="middle" x="265.5" y="-364" font-family="Helvetica,sans-Serif" font-size="10.00">Coulomb::Actor&lt; CoulombScafacos &gt;</text>
</a>
</g>
</g>
<!-- Node1&#45;&gt;Node7 -->
<g id="edge6_Node000001_Node000007" class="edge">
<title>Node1&#45;&gt;Node7</title>
<g id="a_edge6_Node000001_Node000007"><a xlink:title=" ">
<path fill="none" stroke="#63b8ff" d="M76.36,-256.61C92.4,-281.64 124.88,-326.21 165,-348.5 171.14,-351.91 177.79,-354.7 184.64,-356.97"/>
<polygon fill="#63b8ff" stroke="#63b8ff" points="79.3,-254.71 71.04,-248.07 73.36,-258.41 79.3,-254.71"/>
</a>
</g>
</g>
<!-- Node10 -->
<g id="Node000010" class="node">
<title>Node10</title>
<g id="a_Node000010"><a xlink:href="classCoulomb_1_1Actor.html" target="_top" xlink:title=" ">
<polygon fill="white" stroke="#666666" points="358,-339 173,-339 173,-320 358,-320 358,-339"/>
<text text-anchor="middle" x="265.5" y="-327" font-family="Helvetica,sans-Serif" font-size="10.00">Coulomb::Actor&lt; DebyeHueckel &gt;</text>
</a>
</g>
</g>
<!-- Node1&#45;&gt;Node10 -->
<g id="edge9_Node000001_Node000010" class="edge">
<title>Node1&#45;&gt;Node10</title>
<g id="a_edge9_Node000001_Node000010"><a xlink:title=" ">
<path fill="none" stroke="#63b8ff" d="M83.06,-254.95C101.86,-271.61 133.28,-296.81 165,-310.5 174.04,-314.4 183.89,-317.51 193.76,-319.98"/>
<polygon fill="#63b8ff" stroke="#63b8ff" points="85.34,-252.3 75.58,-248.18 80.65,-257.49 85.34,-252.3"/>
</a>
</g>
</g>
<!-- Node12 -->
<g id="Node000012" class="node">
<title>Node12</title>
<g id="a_Node000012"><a xlink:href="classCoulomb_1_1Actor.html" target="_top" xlink:title=" ">
<polygon fill="white" stroke="#666666" points="347.5,-301.5 183.5,-301.5 183.5,-271.5 347.5,-271.5 347.5,-301.5"/>
<text text-anchor="start" x="191.5" y="-289.5" font-family="Helvetica,sans-Serif" font-size="10.00">Coulomb::Actor&lt; Electrostatic</text>
<text text-anchor="middle" x="265.5" y="-278.5" font-family="Helvetica,sans-Serif" font-size="10.00">LayerCorrection &gt;</text>
</a>
</g>
</g>
<!-- Node1&#45;&gt;Node12 -->
<g id="edge11_Node000001_Node000012" class="edge">
<title>Node1&#45;&gt;Node12</title>
<g id="a_edge11_Node000001_Node000012"><a xlink:title=" ">
<path fill="none" stroke="#63b8ff" d="M115.05,-250.45C141.38,-256.8 174.01,-264.67 202.05,-271.44"/>
<polygon fill="#63b8ff" stroke="#63b8ff" points="115.83,-247.04 105.29,-248.1 114.19,-253.85 115.83,-247.04"/>
</a>
</g>
</g>
<!-- Node14 -->
<g id="Node000014" class="node">
<title>Node14</title>
<g id="a_Node000014"><a xlink:href="classCoulomb_1_1Actor.html" target="_top" xlink:title=" ">
<polygon fill="white" stroke="#666666" points="338.5,-253.5 192.5,-253.5 192.5,-223.5 338.5,-223.5 338.5,-253.5"/>
<text text-anchor="start" x="200.5" y="-241.5" font-family="Helvetica,sans-Serif" font-size="10.00">Coulomb::Actor&lt; Reaction</text>
<text text-anchor="middle" x="265.5" y="-230.5" font-family="Helvetica,sans-Serif" font-size="10.00">Field &gt;</text>
</a>
</g>
</g>
<!-- Node1&#45;&gt;Node14 -->
<g id="edge13_Node000001_Node000014" class="edge">
<title>Node1&#45;&gt;Node14</title>
<g id="a_edge13_Node000001_Node000014"><a xlink:title=" ">
<path fill="none" stroke="#63b8ff" d="M139.09,-238.5C156.45,-238.5 174.95,-238.5 192.25,-238.5"/>
<polygon fill="#63b8ff" stroke="#63b8ff" points="139.01,-235 129.01,-238.5 139.01,-242 139.01,-235"/>
</a>
</g>
</g>
<!-- Node16 -->
<g id="Node000016" class="node">
<title>Node16</title>
<g id="a_Node000016"><a xlink:href="classDipoles_1_1Actor.html" target="_top" xlink:title=" ">
<polygon fill="white" stroke="#666666" points="346,-205.5 185,-205.5 185,-175.5 346,-175.5 346,-205.5"/>
<text text-anchor="start" x="193" y="-193.5" font-family="Helvetica,sans-Serif" font-size="10.00">Dipoles::Actor&lt; DipolarDirect</text>
<text text-anchor="middle" x="265.5" y="-182.5" font-family="Helvetica,sans-Serif" font-size="10.00">Sum &gt;</text>
</a>
</g>
</g>
<!-- Node1&#45;&gt;Node16 -->
<g id="edge15_Node000001_Node000016" class="edge">
<title>Node1&#45;&gt;Node16</title>
<g id="a_edge15_Node000001_Node000016"><a xlink:title=" ">
<path fill="none" stroke="#63b8ff" d="M115.05,-226.55C141.38,-220.2 174.01,-212.33 202.05,-205.56"/>
<polygon fill="#63b8ff" stroke="#63b8ff" points="114.19,-223.15 105.29,-228.9 115.83,-229.96 114.19,-223.15"/>
</a>
</g>
</g>
<!-- Node18 -->
<g id="Node000018" class="node">
<title>Node18</title>
<g id="a_Node000018"><a xlink:href="classDipoles_1_1Actor.html" target="_top" xlink:title=" ">
<polygon fill="white" stroke="#666666" points="346,-157.5 185,-157.5 185,-127.5 346,-127.5 346,-157.5"/>
<text text-anchor="start" x="193" y="-145.5" font-family="Helvetica,sans-Serif" font-size="10.00">Dipoles::Actor&lt; DipolarDirect</text>
<text text-anchor="middle" x="265.5" y="-134.5" font-family="Helvetica,sans-Serif" font-size="10.00">SumGpu &gt;</text>
</a>
</g>
</g>
<!-- Node1&#45;&gt;Node18 -->
<g id="edge17_Node000001_Node000018" class="edge">
<title>Node1&#45;&gt;Node18</title>
<g id="a_edge17_Node000001_Node000018"><a xlink:title=" ">
<path fill="none" stroke="#63b8ff" d="M83.5,-222.09C102.44,-205.68 133.79,-180.87 165,-166.5 172.42,-163.08 180.39,-160.12 188.47,-157.55"/>
<polygon fill="#63b8ff" stroke="#63b8ff" points="81.12,-219.52 75.95,-228.76 85.76,-224.77 81.12,-219.52"/>
</a>
</g>
</g>
<!-- Node20 -->
<g id="Node000020" class="node">
<title>Node20</title>
<g id="a_Node000020"><a xlink:href="classDipoles_1_1Actor.html" target="_top" xlink:title=" ">
<polygon fill="white" stroke="#666666" points="344.5,-109.5 186.5,-109.5 186.5,-79.5 344.5,-79.5 344.5,-109.5"/>
<text text-anchor="start" x="194.5" y="-97.5" font-family="Helvetica,sans-Serif" font-size="10.00">Dipoles::Actor&lt; DipolarLayer</text>
<text text-anchor="middle" x="265.5" y="-86.5" font-family="Helvetica,sans-Serif" font-size="10.00">Correction &gt;</text>
</a>
</g>
</g>
<!-- Node1&#45;&gt;Node20 -->
<g id="edge19_Node000001_Node000020" class="edge">
<title>Node1&#45;&gt;Node20</title>
<g id="a_edge19_Node000001_Node000020"><a xlink:title=" ">
<path fill="none" stroke="#63b8ff" d="M75.47,-220.22C90.98,-193.56 123.48,-144.39 165,-118.5 171.63,-114.36 178.93,-110.94 186.46,-108.1"/>
<polygon fill="#63b8ff" stroke="#63b8ff" points="72.41,-218.51 70.53,-228.94 78.5,-221.96 72.41,-218.51"/>
</a>
</g>
</g>
<!-- Node22 -->
<g id="Node000022" class="node">
<title>Node22</title>
<g id="a_Node000022"><a xlink:href="classDipoles_1_1Actor.html" target="_top" xlink:title=" ">
<polygon fill="white" stroke="#666666" points="347.5,-61 183.5,-61 183.5,-42 347.5,-42 347.5,-61"/>
<text text-anchor="middle" x="265.5" y="-49" font-family="Helvetica,sans-Serif" font-size="10.00">Dipoles::Actor&lt; DipolarP3M &gt;</text>
</a>
</g>
</g>
<!-- Node1&#45;&gt;Node22 -->
<g id="edge21_Node000001_Node000022" class="edge">
<title>Node1&#45;&gt;Node22</title>
<g id="a_edge21_Node000001_Node000022"><a xlink:title=" ">
<path fill="none" stroke="#63b8ff" d="M71.04,-219.33C82.36,-183.8 111.71,-107.94 165,-70.5 170.61,-66.56 176.82,-63.38 183.32,-60.81"/>
<polygon fill="#63b8ff" stroke="#63b8ff" points="67.67,-218.39 68.1,-228.98 74.36,-220.44 67.67,-218.39"/>
</a>
</g>
</g>
<!-- Node25 -->
<g id="Node000025" class="node">
<title>Node25</title>
<g id="a_Node000025"><a xlink:href="classDipoles_1_1Actor.html" target="_top" xlink:title=" ">
<polygon fill="white" stroke="#666666" points="358.5,-23 172.5,-23 172.5,-4 358.5,-4 358.5,-23"/>
<text text-anchor="middle" x="265.5" y="-11" font-family="Helvetica,sans-Serif" font-size="10.00">Dipoles::Actor&lt; DipolarScafacos &gt;</text>
</a>
</g>
</g>
<!-- Node1&#45;&gt;Node25 -->
<g id="edge24_Node000001_Node000025" class="edge">
<title>Node1&#45;&gt;Node25</title>
<g id="a_edge24_Node000001_Node000025"><a xlink:title=" ">
<path fill="none" stroke="#63b8ff" d="M68.92,-218.86C77.25,-177.29 102.67,-80.36 165,-32.5 169.88,-28.75 175.29,-25.67 180.99,-23.15"/>
<polygon fill="#63b8ff" stroke="#63b8ff" points="65.46,-218.33 67.04,-228.81 72.34,-219.63 65.46,-218.33"/>
</a>
</g>
</g>
<!-- Node3 -->
<g id="Node000003" class="node">
<title>Node3</title>
<g id="a_Node000003"><a xlink:href="structCoulombMMM1D.html" target="_top" xlink:title="Parameters for the MMM1D electrostatic interaction.">
<polygon fill="white" stroke="#666666" points="530,-450 429,-450 429,-431 530,-431 530,-450"/>
<text text-anchor="middle" x="479.5" y="-438" font-family="Helvetica,sans-Serif" font-size="10.00">CoulombMMM1D</text>
</a>
</g>
</g>
<!-- Node2&#45;&gt;Node3 -->
<g id="edge2_Node000002_Node000003" class="edge">
<title>Node2&#45;&gt;Node3</title>
<g id="a_edge2_Node000002_Node000003"><a xlink:title=" ">
<path fill="none" stroke="#63b8ff" d="M374.91,-440.5C393.77,-440.5 412.53,-440.5 428.8,-440.5"/>
<polygon fill="#63b8ff" stroke="#63b8ff" points="374.74,-437 364.74,-440.5 374.74,-444 374.74,-437"/>
</a>
</g>
</g>
<!-- Node5 -->
<g id="Node000005" class="node">
<title>Node5</title>
<g id="a_Node000005"><a xlink:href="structCoulombP3M.html" target="_top" xlink:title="P3M solver.">
<polygon fill="white" stroke="#666666" points="520,-413 439,-413 439,-394 520,-394 520,-413"/>
<text text-anchor="middle" x="479.5" y="-401" font-family="Helvetica,sans-Serif" font-size="10.00">CoulombP3M</text>
</a>
</g>
</g>
<!-- Node4&#45;&gt;Node5 -->
<g id="edge4_Node000004_Node000005" class="edge">
<title>Node4&#45;&gt;Node5</title>
<g id="a_edge4_Node000004_Node000005"><a xlink:title=" ">
<path fill="none" stroke="#63b8ff" d="M365.49,-403.5C391.49,-403.5 418.06,-403.5 438.9,-403.5"/>
<polygon fill="#63b8ff" stroke="#63b8ff" points="365.18,-400 355.18,-403.5 365.18,-407 365.18,-400"/>
</a>
</g>
</g>
<!-- Node6 -->
<g id="Node000006" class="node">
<title>Node6</title>
<g id="a_Node000006"><a xlink:href="structCoulombP3MImpl.html" target="_top" xlink:title=" ">
<polygon fill="white" stroke="#666666" points="757,-421.5 593,-421.5 593,-391.5 757,-391.5 757,-421.5"/>
<text text-anchor="start" x="601" y="-409.5" font-family="Helvetica,sans-Serif" font-size="10.00">CoulombP3MImpl&lt; FloatType,</text>
<text text-anchor="middle" x="675" y="-398.5" font-family="Helvetica,sans-Serif" font-size="10.00"> Architecture &gt;</text>
</a>
</g>
</g>
<!-- Node5&#45;&gt;Node6 -->
<g id="edge5_Node000005_Node000006" class="edge">
<title>Node5&#45;&gt;Node6</title>
<g id="a_edge5_Node000005_Node000006"><a xlink:title=" ">
<path fill="none" stroke="#63b8ff" d="M530.36,-404.27C549.41,-404.57 571.67,-404.91 592.9,-405.24"/>
<polygon fill="#63b8ff" stroke="#63b8ff" points="530.18,-400.77 520.12,-404.11 530.07,-407.77 530.18,-400.77"/>
</a>
</g>
</g>
<!-- Node8 -->
<g id="Node000008" class="node">
<title>Node8</title>
<g id="a_Node000008"><a xlink:href="structCoulombScafacos.html" target="_top" xlink:title=" ">
<polygon fill="white" stroke="#666666" points="531.5,-376 427.5,-376 427.5,-357 531.5,-357 531.5,-376"/>
<text text-anchor="middle" x="479.5" y="-364" font-family="Helvetica,sans-Serif" font-size="10.00">CoulombScafacos</text>
</a>
</g>
</g>
<!-- Node7&#45;&gt;Node8 -->
<g id="edge7_Node000007_Node000008" class="edge">
<title>Node7&#45;&gt;Node8</title>
<g id="a_edge7_Node000007_Node000008"><a xlink:title=" ">
<path fill="none" stroke="#63b8ff" d="M376.72,-366.5C394.42,-366.5 411.96,-366.5 427.37,-366.5"/>
<polygon fill="#63b8ff" stroke="#63b8ff" points="376.29,-363 366.29,-366.5 376.29,-370 376.29,-363"/>
</a>
</g>
</g>
<!-- Node9 -->
<g id="Node000009" class="node">
<title>Node9</title>
<g id="a_Node000009"><a xlink:href="structCoulombScafacosImpl.html" target="_top" xlink:title=" ">
<polygon fill="white" stroke="#666666" points="737.5,-373 612.5,-373 612.5,-354 737.5,-354 737.5,-373"/>
<text text-anchor="middle" x="675" y="-361" font-family="Helvetica,sans-Serif" font-size="10.00">CoulombScafacosImpl</text>
</a>
</g>
</g>
<!-- Node8&#45;&gt;Node9 -->
<g id="edge8_Node000008_Node000009" class="edge">
<title>Node8&#45;&gt;Node9</title>
<g id="a_edge8_Node000008_Node000009"><a xlink:title=" ">
<path fill="none" stroke="#63b8ff" d="M541.7,-365.55C564.22,-365.2 589.71,-364.81 612.27,-364.46"/>
<polygon fill="#63b8ff" stroke="#63b8ff" points="541.54,-362.05 531.59,-365.71 541.65,-369.05 541.54,-362.05"/>
</a>
</g>
</g>
<!-- Node11 -->
<g id="Node000011" class="node">
<title>Node11</title>
<g id="a_Node000011"><a xlink:href="structDebyeHueckel.html" target="_top" xlink:title="Debye&#45;Hückel parameters.">
<polygon fill="white" stroke="#666666" points="523,-339 436,-339 436,-320 523,-320 523,-339"/>
<text text-anchor="middle" x="479.5" y="-327" font-family="Helvetica,sans-Serif" font-size="10.00">DebyeHueckel</text>
</a>
</g>
</g>
<!-- Node10&#45;&gt;Node11 -->
<g id="edge10_Node000010_Node000011" class="edge">
<title>Node10&#45;&gt;Node11</title>
<g id="a_edge10_Node000010_Node000011"><a xlink:title=" ">
<path fill="none" stroke="#63b8ff" d="M368.41,-329.5C392.19,-329.5 416.23,-329.5 435.77,-329.5"/>
<polygon fill="#63b8ff" stroke="#63b8ff" points="368.25,-326 358.25,-329.5 368.25,-333 368.25,-326"/>
</a>
</g>
</g>
<!-- Node13 -->
<g id="Node000013" class="node">
<title>Node13</title>
<g id="a_Node000013"><a xlink:href="structElectrostaticLayerCorrection.html" target="_top" xlink:title=" ">
<polygon fill="white" stroke="#666666" points="557,-296 402,-296 402,-277 557,-277 557,-296"/>
<text text-anchor="middle" x="479.5" y="-284" font-family="Helvetica,sans-Serif" font-size="10.00">ElectrostaticLayerCorrection</text>
</a>
</g>
</g>
<!-- Node12&#45;&gt;Node13 -->
<g id="edge12_Node000012_Node000013" class="edge">
<title>Node12&#45;&gt;Node13</title>
<g id="a_edge12_Node000012_Node000013"><a xlink:title=" ">
<path fill="none" stroke="#63b8ff" d="M357.64,-286.5C372.32,-286.5 387.38,-286.5 401.68,-286.5"/>
<polygon fill="#63b8ff" stroke="#63b8ff" points="357.56,-283 347.56,-286.5 357.56,-290 357.56,-283"/>
</a>
</g>
</g>
<!-- Node15 -->
<g id="Node000015" class="node">
<title>Node15</title>
<g id="a_Node000015"><a xlink:href="structReactionField.html" target="_top" xlink:title="Reaction Field parameters.">
<polygon fill="white" stroke="#666666" points="521,-248 438,-248 438,-229 521,-229 521,-248"/>
<text text-anchor="middle" x="479.5" y="-236" font-family="Helvetica,sans-Serif" font-size="10.00">ReactionField</text>
</a>
</g>
</g>
<!-- Node14&#45;&gt;Node15 -->
<g id="edge14_Node000014_Node000015" class="edge">
<title>Node14&#45;&gt;Node15</title>
<g id="a_edge14_Node000014_Node000015"><a xlink:title=" ">
<path fill="none" stroke="#63b8ff" d="M348.8,-238.5C379.33,-238.5 412.62,-238.5 437.83,-238.5"/>
<polygon fill="#63b8ff" stroke="#63b8ff" points="348.57,-235 338.57,-238.5 348.57,-242 348.57,-235"/>
</a>
</g>
</g>
<!-- Node17 -->
<g id="Node000017" class="node">
<title>Node17</title>
<g id="a_Node000017"><a xlink:href="structDipolarDirectSum.html" target="_top" xlink:title="Dipolar all with all and no replica.">
<polygon fill="white" stroke="#666666" points="531,-200 428,-200 428,-181 531,-181 531,-200"/>
<text text-anchor="middle" x="479.5" y="-188" font-family="Helvetica,sans-Serif" font-size="10.00">DipolarDirectSum</text>
</a>
</g>
</g>
<!-- Node16&#45;&gt;Node17 -->
<g id="edge16_Node000016_Node000017" class="edge">
<title>Node16&#45;&gt;Node17</title>
<g id="a_edge16_Node000016_Node000017"><a xlink:title=" ">
<path fill="none" stroke="#63b8ff" d="M356.09,-190.5C380.58,-190.5 406.27,-190.5 427.76,-190.5"/>
<polygon fill="#63b8ff" stroke="#63b8ff" points="356.04,-187 346.04,-190.5 356.04,-194 356.04,-187"/>
</a>
</g>
</g>
<!-- Node19 -->
<g id="Node000019" class="node">
<title>Node19</title>
<g id="a_Node000019"><a xlink:href="structDipolarDirectSumGpu.html" target="_top" xlink:title=" ">
<polygon fill="white" stroke="#666666" points="540.5,-152 418.5,-152 418.5,-133 540.5,-133 540.5,-152"/>
<text text-anchor="middle" x="479.5" y="-140" font-family="Helvetica,sans-Serif" font-size="10.00">DipolarDirectSumGpu</text>
</a>
</g>
</g>
<!-- Node18&#45;&gt;Node19 -->
<g id="edge18_Node000018_Node000019" class="edge">
<title>Node18&#45;&gt;Node19</title>
<g id="a_edge18_Node000018_Node000019"><a xlink:title=" ">
<path fill="none" stroke="#63b8ff" d="M356.26,-142.5C377.23,-142.5 399.07,-142.5 418.39,-142.5"/>
<polygon fill="#63b8ff" stroke="#63b8ff" points="356.04,-139 346.04,-142.5 356.04,-146 356.04,-139"/>
</a>
</g>
</g>
<!-- Node21 -->
<g id="Node000021" class="node">
<title>Node21</title>
<g id="a_Node000021"><a xlink:href="structDipolarLayerCorrection.html" target="_top" xlink:title="Adapt a magnetostatics solver to remove contributions from the z&#45;direction.">
<polygon fill="white" stroke="#666666" points="544,-104 415,-104 415,-85 544,-85 544,-104"/>
<text text-anchor="middle" x="479.5" y="-92" font-family="Helvetica,sans-Serif" font-size="10.00">DipolarLayerCorrection</text>
</a>
</g>
</g>
<!-- Node20&#45;&gt;Node21 -->
<g id="edge20_Node000020_Node000021" class="edge">
<title>Node20&#45;&gt;Node21</title>
<g id="a_edge20_Node000020_Node000021"><a xlink:title=" ">
<path fill="none" stroke="#63b8ff" d="M354.68,-94.5C374.86,-94.5 395.93,-94.5 414.85,-94.5"/>
<polygon fill="#63b8ff" stroke="#63b8ff" points="354.54,-91 344.54,-94.5 354.54,-98 354.54,-91"/>
</a>
</g>
</g>
<!-- Node23 -->
<g id="Node000023" class="node">
<title>Node23</title>
<g id="a_Node000023"><a xlink:href="structDipolarP3M.html" target="_top" xlink:title="Dipolar P3M solver.">
<polygon fill="white" stroke="#666666" points="516,-61 443,-61 443,-42 516,-42 516,-61"/>
<text text-anchor="middle" x="479.5" y="-49" font-family="Helvetica,sans-Serif" font-size="10.00">DipolarP3M</text>
</a>
</g>
</g>
<!-- Node22&#45;&gt;Node23 -->
<g id="edge22_Node000022_Node000023" class="edge">
<title>Node22&#45;&gt;Node23</title>
<g id="a_edge22_Node000022_Node000023"><a xlink:title=" ">
<path fill="none" stroke="#63b8ff" d="M357.69,-51.5C387.8,-51.5 419.54,-51.5 442.92,-51.5"/>
<polygon fill="#63b8ff" stroke="#63b8ff" points="357.56,-48 347.56,-51.5 357.56,-55 357.56,-48"/>
</a>
</g>
</g>
<!-- Node24 -->
<g id="Node000024" class="node">
<title>Node24</title>
<g id="a_Node000024"><a xlink:href="structDipolarP3MImpl.html" target="_top" xlink:title=" ">
<polygon fill="white" stroke="#666666" points="753,-67.5 597,-67.5 597,-37.5 753,-37.5 753,-67.5"/>
<text text-anchor="start" x="605" y="-55.5" font-family="Helvetica,sans-Serif" font-size="10.00">DipolarP3MImpl&lt; FloatType,</text>
<text text-anchor="middle" x="675" y="-44.5" font-family="Helvetica,sans-Serif" font-size="10.00"> Architecture &gt;</text>
</a>
</g>
</g>
<!-- Node23&#45;&gt;Node24 -->
<g id="edge23_Node000023_Node000024" class="edge">
<title>Node23&#45;&gt;Node24</title>
<g id="a_edge23_Node000023_Node000024"><a xlink:title=" ">
<path fill="none" stroke="#63b8ff" d="M526.69,-51.74C547.72,-51.85 573.17,-51.98 596.96,-52.1"/>
<polygon fill="#63b8ff" stroke="#63b8ff" points="526.46,-48.24 516.44,-51.69 526.42,-55.24 526.46,-48.24"/>
</a>
</g>
</g>
<!-- Node26 -->
<g id="Node000026" class="node">
<title>Node26</title>
<g id="a_Node000026"><a xlink:href="structDipolarScafacos.html" target="_top" xlink:title=" ">
<polygon fill="white" stroke="#666666" points="527,-22 432,-22 432,-3 527,-3 527,-22"/>
<text text-anchor="middle" x="479.5" y="-10" font-family="Helvetica,sans-Serif" font-size="10.00">DipolarScafacos</text>
</a>
</g>
</g>
<!-- Node25&#45;&gt;Node26 -->
<g id="edge25_Node000025_Node000026" class="edge">
<title>Node25&#45;&gt;Node26</title>
<g id="a_edge25_Node000025_Node000026"><a xlink:title=" ">
<path fill="none" stroke="#63b8ff" d="M368.71,-13.02C390.87,-12.91 413.24,-12.81 431.96,-12.72"/>
<polygon fill="#63b8ff" stroke="#63b8ff" points="368.54,-9.52 358.56,-13.07 368.58,-16.52 368.54,-9.52"/>
</a>
</g>
</g>
<!-- Node27 -->
<g id="Node000027" class="node">
<title>Node27</title>
<g id="a_Node000027"><a xlink:href="structDipolarScafacosImpl.html" target="_top" xlink:title=" ">
<polygon fill="white" stroke="#666666" points="733.5,-19 616.5,-19 616.5,0 733.5,0 733.5,-19"/>
<text text-anchor="middle" x="675" y="-7" font-family="Helvetica,sans-Serif" font-size="10.00">DipolarScafacosImpl</text>
</a>
</g>
</g>
<!-- Node26&#45;&gt;Node27 -->
<g id="edge26_Node000026_Node000027" class="edge">
<title>Node26&#45;&gt;Node27</title>
<g id="a_edge26_Node000026_Node000027"><a xlink:title=" ">
<path fill="none" stroke="#63b8ff" d="M537.67,-11.61C562.42,-11.23 591.35,-10.78 616.18,-10.4"/>
<polygon fill="#63b8ff" stroke="#63b8ff" points="537.29,-8.12 527.34,-11.77 537.39,-15.12 537.29,-8.12"/>
</a>
</g>
</g>
</g>
</svg>

<g id="navigator" transform="translate(0 0)" fill="#404254">
  <rect fill="#f2f5e9" fill-opacity="0.5" stroke="#606060" stroke-width=".5" x="0" y="0" width="60" height="60"/>
  <use id="zoomplus" xlink:href="#zoomPlus" x="17" y="9" onmousedown="handleZoom(evt,'in')"/>
  <use id="zoomminus" xlink:href="#zoomMin" x="42" y="9" onmousedown="handleZoom(evt,'out')"/>
  <use id="reset" xlink:href="#resetDef" x="30" y="36" onmousedown="handleReset()"/>
   <use id="arrowup" xlink:href="#arrowUp" x="0" y="0" onmousedown="handlePan(0,-1)"/>
  <use id="arrowright" xlink:href="#arrowRight" x="0" y="0" onmousedown="handlePan(1,0)"/>
  <use id="arrowdown" xlink:href="#arrowDown" x="0" y="0" onmousedown="handlePan(0,1)"/>
  <use id="arrowleft" xlink:href="#arrowLeft" x="0" y="0" onmousedown="handlePan(-1,0)"/>
</g>
<svg viewBox="0 0 15 15" width="100%" height="30px" preserveAspectRatio="xMaxYMin meet">
 <g id="arrow_out" transform="scale(0.3 0.3)">
  <a xlink:href="classSystem_1_1Leaf__inherit__graph_org.svg" target="_base">
   <rect id="button" ry="5" rx="5" y="6" x="6" height="38" width="38"
        fill="#f2f5e9" fill-opacity="0.5" stroke="#606060" stroke-width="1.0"/>
   <path id="arrow"
     d="M 11.500037,31.436501 C 11.940474,20.09759 22.043105,11.32322 32.158766,21.979434 L 37.068811,17.246167 C 37.068811,17.246167 37.088388,32 37.088388,32 L 22.160133,31.978069 C 22.160133,31.978069 26.997745,27.140456 26.997745,27.140456 C 18.528582,18.264221 13.291696,25.230495 11.500037,31.436501 z"
     style="fill:#404040;"/>
  </a>
 </g>
</svg>

<style type='text/css'>
<![CDATA[
[data-mouse-over-selected='false'] { opacity: 0.7; }
[data-mouse-over-selected='true']  { opacity: 1.0; }
]]>
</style>
<script type="application/ecmascript"><![CDATA[
document.addEventListener('DOMContentLoaded', (event) => {
  highlightEdges();
  highlightAdjacentNodes();
});
]]></script>
</svg>
