<?xml version="1.0" encoding="UTF-8" standalone="no"?>
<!DOCTYPE svg PUBLIC "-//W3C//DTD SVG 1.1//EN"
 "http://www.w3.org/Graphics/SVG/1.1/DTD/svg11.dtd">
<!-- Generated by graphviz version 2.43.0 (0)
 -->
<!-- Title: EKinWalberlaBase Pages: 1 -->
<svg width="277pt" height="309pt"
 viewBox="0.00 0.00 277.00 309.00" xmlns="http://www.w3.org/2000/svg" xmlns:xlink="http://www.w3.org/1999/xlink">
<g id="graph0" class="graph" transform="scale(1 1) rotate(0) translate(4 305)">
<title>EKinWalberlaBase</title>
<!-- Node1 -->
<g id="node1" class="node">
<title>Node1</title>
<g id="a_node1"><a xlink:title="Interface of a lattice&#45;based electrokinetic model.">
<polygon fill="#bfbfbf" stroke="black" points="66.5,-0.5 66.5,-19.5 171.5,-19.5 171.5,-0.5 66.5,-0.5"/>
<text text-anchor="middle" x="119" y="-7.5" font-family="Helvetica,sans-Serif" font-size="10.00">EKinWalberlaBase</text>
</a>
</g>
</g>
<!-- Node2 -->
<g id="node2" class="node">
<title>Node2</title>
<g id="a_node2"><a xlink:href="classLatticeModel.html" target="_top" xlink:title="Abstract representation of a lattice&#45;based model.">
<polygon fill="none" stroke="black" points="79,-57.5 79,-76.5 159,-76.5 159,-57.5 79,-57.5"/>
<text text-anchor="middle" x="119" y="-64.5" font-family="Helvetica,sans-Serif" font-size="10.00">LatticeModel</text>
</a>
</g>
</g>
<!-- Node2&#45;&gt;Node1 -->
<g id="edge1" class="edge">
<title>Node2&#45;&gt;Node1</title>
<path fill="none" stroke="midnightblue" d="M119,-47.12C119,-37.82 119,-27.06 119,-19.71"/>
<polygon fill="midnightblue" stroke="midnightblue" points="115.5,-47.41 119,-57.41 122.5,-47.41 115.5,-47.41"/>
</g>
<!-- Node3 -->
<g id="node3" class="node">
<title>Node3</title>
<g id="a_node3"><a xlink:title=" ">
<polygon fill="none" stroke="#bfbfbf" points="29,-135.5 29,-165.5 209,-165.5 209,-135.5 29,-135.5"/>
<text text-anchor="start" x="37" y="-153.5" font-family="Helvetica,sans-Serif" font-size="10.00">std::map&lt; std::string,</text>
<text text-anchor="middle" x="119" y="-142.5" font-family="Helvetica,sans-Serif" font-size="10.00"> std::shared_ptr&lt; VTKHandle &gt; &gt;</text>
</a>
</g>
</g>
<!-- Node3&#45;&gt;Node2 -->
<g id="edge2" class="edge">
<title>Node3&#45;&gt;Node2</title>
<path fill="none" stroke="#9a32cd" stroke-dasharray="5,2" d="M119,-125.25C119,-108.78 119,-87.99 119,-76.54"/>
<polygon fill="#9a32cd" stroke="#9a32cd" points="115.5,-125.3 119,-135.3 122.5,-125.3 115.5,-125.3"/>
<text text-anchor="middle" x="155.5" y="-109" font-family="Helvetica,sans-Serif" font-size="10.00"> m_vtk_auto</text>
<text text-anchor="middle" x="155.5" y="-98" font-family="Helvetica,sans-Serif" font-size="10.00">m_vtk_manual</text>
</g>
<!-- Node4 -->
<g id="node4" class="node">
<title>Node4</title>
<g id="a_node4"><a xlink:title=" ">
<polygon fill="none" stroke="#bfbfbf" points="0,-213.5 0,-232.5 166,-232.5 166,-213.5 0,-213.5"/>
<text text-anchor="middle" x="83" y="-220.5" font-family="Helvetica,sans-Serif" font-size="10.00">std::shared_ptr&lt; VTKHandle &gt;</text>
</a>
</g>
</g>
<!-- Node4&#45;&gt;Node3 -->
<g id="edge3" class="edge">
<title>Node4&#45;&gt;Node3</title>
<path fill="none" stroke="#9a32cd" stroke-dasharray="5,2" d="M92.03,-204.32C98.14,-192.34 106.12,-176.72 111.81,-165.58"/>
<polygon fill="#9a32cd" stroke="#9a32cd" points="88.85,-202.86 87.41,-213.36 95.08,-206.04 88.85,-202.86"/>
<text text-anchor="middle" x="127.5" y="-187" font-family="Helvetica,sans-Serif" font-size="10.00"> elements</text>
</g>
<!-- Node5 -->
<g id="node5" class="node">
<title>Node5</title>
<g id="a_node5"><a xlink:title=" ">
<polygon fill="none" stroke="#bfbfbf" points="184.5,-213.5 184.5,-232.5 249.5,-232.5 249.5,-213.5 184.5,-213.5"/>
<text text-anchor="middle" x="217" y="-220.5" font-family="Helvetica,sans-Serif" font-size="10.00">std::string</text>
</a>
</g>
</g>
<!-- Node5&#45;&gt;Node3 -->
<g id="edge4" class="edge">
<title>Node5&#45;&gt;Node3</title>
<path fill="none" stroke="#9a32cd" stroke-dasharray="5,2" d="M196.8,-207.47C179.73,-195.19 155.45,-177.72 138.57,-165.58"/>
<polygon fill="#9a32cd" stroke="#9a32cd" points="194.82,-210.36 204.98,-213.36 198.91,-204.67 194.82,-210.36"/>
<text text-anchor="middle" x="189" y="-187" font-family="Helvetica,sans-Serif" font-size="10.00"> keys</text>
</g>
<!-- Node6 -->
<g id="node6" class="node">
<title>Node6</title>
<g id="a_node6"><a xlink:title=" ">
<polygon fill="none" stroke="#bfbfbf" points="165,-270.5 165,-300.5 269,-300.5 269,-270.5 165,-270.5"/>
<text text-anchor="start" x="173" y="-288.5" font-family="Helvetica,sans-Serif" font-size="10.00">std::basic_string&lt;</text>
<text text-anchor="middle" x="217" y="-277.5" font-family="Helvetica,sans-Serif" font-size="10.00"> Char &gt;</text>
</a>
</g>
</g>
<!-- Node6&#45;&gt;Node5 -->
<g id="edge5" class="edge">
<title>Node6&#45;&gt;Node5</title>
<path fill="none" stroke="midnightblue" d="M217,-260.35C217,-250.51 217,-239.78 217,-232.54"/>
<polygon fill="midnightblue" stroke="midnightblue" points="213.5,-260.47 217,-270.47 220.5,-260.47 213.5,-260.47"/>
</g>
</g>
</svg>
