<?xml version="1.0" encoding="UTF-8" standalone="no"?>
<!DOCTYPE svg PUBLIC "-//W3C//DTD SVG 1.1//EN"
 "http://www.w3.org/Graphics/SVG/1.1/DTD/svg11.dtd">
<!-- Generated by graphviz version 2.43.0 (0)
 -->
<!-- Title: ScriptInterface::walberla::LatticeModel&lt; Method, VTKHandle &gt; Pages: 1 -->
<svg width="743pt" height="49pt"
 viewBox="0.00 0.00 743.00 49.00" xmlns="http://www.w3.org/2000/svg" xmlns:xlink="http://www.w3.org/1999/xlink">
<g id="graph0" class="graph" transform="scale(1 1) rotate(0) translate(4 45)">
<title>ScriptInterface::walberla::LatticeModel&lt; Method, VTKHandle &gt;</title>
<!-- Node1 -->
<g id="Node000001" class="node">
<title>Node1</title>
<g id="a_Node000001"><a xlink:title=" ">
<polygon fill="#999999" stroke="#666666" points="735,-41 598,-41 598,0 735,0 735,-41"/>
<text text-anchor="start" x="606" y="-29" font-family="Helvetica,sans-Serif" font-size="10.00">ScriptInterface::walberla</text>
<text text-anchor="start" x="606" y="-18" font-family="Helvetica,sans-Serif" font-size="10.00">::LatticeModel&lt; Method,</text>
<text text-anchor="middle" x="666.5" y="-7" font-family="Helvetica,sans-Serif" font-size="10.00"> VTKHandle &gt;</text>
</a>
</g>
</g>
<!-- Node2 -->
<g id="Node000002" class="node">
<title>Node2</title>
<g id="a_Node000002"><a xlink:href="classScriptInterface_1_1AutoParameters.html" target="_top" xlink:title=" ">
<polygon fill="white" stroke="#666666" points="562,-41 363,-41 363,0 562,0 562,-41"/>
<text text-anchor="start" x="371" y="-29" font-family="Helvetica,sans-Serif" font-size="10.00">ScriptInterface::AutoParameters</text>
<text text-anchor="start" x="371" y="-18" font-family="Helvetica,sans-Serif" font-size="10.00">&lt; LatticeModel&lt; Method, VTKHandle</text>
<text text-anchor="middle" x="462.5" y="-7" font-family="Helvetica,sans-Serif" font-size="10.00"> &gt;, System::Leaf &gt;</text>
</a>
</g>
</g>
<!-- Node2&#45;&gt;Node1 -->
<g id="edge1_Node000001_Node000002" class="edge">
<title>Node2&#45;&gt;Node1</title>
<g id="a_edge1_Node000001_Node000002"><a xlink:title=" ">
<path fill="none" stroke="#63b8ff" d="M572.35,-20.5C581.04,-20.5 589.65,-20.5 597.93,-20.5"/>
<polygon fill="#63b8ff" stroke="#63b8ff" points="572.13,-17 562.13,-20.5 572.13,-24 572.13,-17"/>
</a>
</g>
</g>
<!-- Node3 -->
<g id="Node000003" class="node">
<title>Node3</title>
<g id="a_Node000003"><a xlink:href="classScriptInterface_1_1System_1_1Leaf.html" target="_top" xlink:title="Script interface wrapper for a component of the system class.">
<polygon fill="white" stroke="#666666" points="327,-35.5 196,-35.5 196,-5.5 327,-5.5 327,-35.5"/>
<text text-anchor="start" x="204" y="-23.5" font-family="Helvetica,sans-Serif" font-size="10.00">ScriptInterface::System</text>
<text text-anchor="middle" x="261.5" y="-12.5" font-family="Helvetica,sans-Serif" font-size="10.00">::Leaf</text>
</a>
</g>
</g>
<!-- Node3&#45;&gt;Node2 -->
<g id="edge2_Node000002_Node000003" class="edge">
<title>Node3&#45;&gt;Node2</title>
<g id="a_edge2_Node000002_Node000003"><a xlink:title=" ">
<path fill="none" stroke="#63b8ff" d="M337.21,-20.5C345.61,-20.5 354.25,-20.5 362.89,-20.5"/>
<polygon fill="#63b8ff" stroke="#63b8ff" points="337.11,-17 327.11,-20.5 337.11,-24 337.11,-17"/>
</a>
</g>
</g>
<!-- Node4 -->
<g id="Node000004" class="node">
<title>Node4</title>
<g id="a_Node000004"><a xlink:href="classScriptInterface_1_1ObjectHandle.html" target="_top" xlink:title="Base class for interface handles.">
<polygon fill="white" stroke="#666666" points="160,-30 0,-30 0,-11 160,-11 160,-30"/>
<text text-anchor="middle" x="80" y="-18" font-family="Helvetica,sans-Serif" font-size="10.00">ScriptInterface::ObjectHandle</text>
</a>
</g>
</g>
<!-- Node4&#45;&gt;Node3 -->
<g id="edge3_Node000003_Node000004" class="edge">
<title>Node4&#45;&gt;Node3</title>
<g id="a_edge3_Node000003_Node000004"><a xlink:title=" ">
<path fill="none" stroke="#63b8ff" d="M170.36,-20.5C178.98,-20.5 187.61,-20.5 195.93,-20.5"/>
<polygon fill="#63b8ff" stroke="#63b8ff" points="170.25,-17 160.25,-20.5 170.25,-24 170.25,-17"/>
</a>
</g>
</g>
</g>
</svg>
