<?xml version="1.0" encoding="UTF-8" standalone="no"?>
<!DOCTYPE svg PUBLIC "-//W3C//DTD SVG 1.1//EN"
 "http://www.w3.org/Graphics/SVG/1.1/DTD/svg11.dtd">
<!-- Generated by graphviz version 2.43.0 (0)
 -->
<!-- Title: CollideSweepDoublePrecisionThermalized.cpp Pages: 1 -->
<svg width="1078pt" height="173pt"
 viewBox="0.00 0.00 1078.00 173.00" xmlns="http://www.w3.org/2000/svg" xmlns:xlink="http://www.w3.org/1999/xlink">
<g id="graph0" class="graph" transform="scale(1 1) rotate(0) translate(4 169)">
<title>CollideSweepDoublePrecisionThermalized.cpp</title>
<!-- Node1 -->
<g id="node1" class="node">
<title>Node1</title>
<g id="a_node1"><a xlink:title=" ">
<polygon fill="#bfbfbf" stroke="black" points="408,-134.5 408,-164.5 569,-164.5 569,-134.5 408,-134.5"/>
<text text-anchor="start" x="416" y="-152.5" font-family="Helvetica,sans-Serif" font-size="10.00">CollideSweepDoublePrecision</text>
<text text-anchor="middle" x="488.5" y="-141.5" font-family="Helvetica,sans-Serif" font-size="10.00">Thermalized.cpp</text>
</a>
</g>
</g>
<!-- Node2 -->
<g id="node2" class="node">
<title>Node2</title>
<g id="a_node2"><a xlink:title=" ">
<polygon fill="none" stroke="#bfbfbf" points="304,-73 304,-92 351,-92 351,-73 304,-73"/>
<text text-anchor="middle" x="327.5" y="-80" font-family="Helvetica,sans-Serif" font-size="10.00">cmath</text>
</a>
</g>
</g>
<!-- Node1&#45;&gt;Node2 -->
<g id="edge1" class="edge">
<title>Node1&#45;&gt;Node2</title>
<path fill="none" stroke="midnightblue" d="M453.57,-134.4C425.07,-122.89 385.21,-106.8 357.98,-95.81"/>
<polygon fill="midnightblue" stroke="midnightblue" points="359.15,-92.51 348.57,-92.01 356.53,-99 359.15,-92.51"/>
</g>
<!-- Node3 -->
<g id="node3" class="node">
<title>Node3</title>
<g id="a_node3"><a xlink:href="CollideSweepDoublePrecisionThermalized_8h.html" target="_top" xlink:title=" ">
<polygon fill="none" stroke="black" points="408,-67.5 408,-97.5 569,-97.5 569,-67.5 408,-67.5"/>
<text text-anchor="start" x="416" y="-85.5" font-family="Helvetica,sans-Serif" font-size="10.00">CollideSweepDoublePrecision</text>
<text text-anchor="middle" x="488.5" y="-74.5" font-family="Helvetica,sans-Serif" font-size="10.00">Thermalized.h</text>
</a>
</g>
</g>
<!-- Node1&#45;&gt;Node3 -->
<g id="edge2" class="edge">
<title>Node1&#45;&gt;Node3</title>
<path fill="none" stroke="midnightblue" d="M488.5,-134.4C488.5,-126.64 488.5,-116.81 488.5,-107.86"/>
<polygon fill="midnightblue" stroke="midnightblue" points="492,-107.58 488.5,-97.58 485,-107.58 492,-107.58"/>
</g>
<!-- Node4 -->
<g id="node4" class="node">
<title>Node4</title>
<g id="a_node4"><a xlink:title=" ">
<polygon fill="none" stroke="#bfbfbf" points="0,-6 0,-25 101,-25 101,-6 0,-6"/>
<text text-anchor="middle" x="50.5" y="-13" font-family="Helvetica,sans-Serif" font-size="10.00">core/DataTypes.h</text>
</a>
</g>
</g>
<!-- Node1&#45;&gt;Node4 -->
<g id="edge10" class="edge">
<title>Node1&#45;&gt;Node4</title>
<path fill="none" stroke="midnightblue" d="M460.64,-134.36C442.51,-124.79 418.58,-111.49 398.5,-98 380.12,-85.65 379.83,-75.77 359.5,-67 256.43,-22.53 219.69,-52.42 109.5,-31 104.06,-29.94 98.38,-28.71 92.77,-27.42"/>
<polygon fill="midnightblue" stroke="midnightblue" points="93.37,-23.96 82.83,-25.05 91.75,-30.77 93.37,-23.96"/>
</g>
<!-- Node11 -->
<g id="node11" class="node">
<title>Node11</title>
<g id="a_node11"><a xlink:title=" ">
<polygon fill="none" stroke="#bfbfbf" points="587,-73 587,-92 672,-92 672,-73 587,-73"/>
<text text-anchor="middle" x="629.5" y="-80" font-family="Helvetica,sans-Serif" font-size="10.00">core/Macros.h</text>
</a>
</g>
</g>
<!-- Node1&#45;&gt;Node11 -->
<g id="edge11" class="edge">
<title>Node1&#45;&gt;Node11</title>
<path fill="none" stroke="midnightblue" d="M519.09,-134.4C543.73,-123.04 578.05,-107.22 601.86,-96.24"/>
<polygon fill="midnightblue" stroke="midnightblue" points="603.43,-99.37 611.05,-92.01 600.5,-93.02 603.43,-99.37"/>
</g>
<!-- Node12 -->
<g id="node12" class="node">
<title>Node12</title>
<g id="a_node12"><a xlink:href="philox__rand_8h.html" target="_top" xlink:title=" ">
<polygon fill="none" stroke="black" points="918,-73 918,-92 1001,-92 1001,-73 918,-73"/>
<text text-anchor="middle" x="959.5" y="-80" font-family="Helvetica,sans-Serif" font-size="10.00">philox_rand.h</text>
</a>
</g>
</g>
<!-- Node1&#45;&gt;Node12 -->
<g id="edge12" class="edge">
<title>Node1&#45;&gt;Node12</title>
<path fill="none" stroke="midnightblue" d="M569.2,-137.36C666.13,-123.99 825.88,-101.94 907.69,-90.65"/>
<polygon fill="midnightblue" stroke="midnightblue" points="908.32,-94.1 917.75,-89.26 907.36,-87.16 908.32,-94.1"/>
</g>
<!-- Node3&#45;&gt;Node4 -->
<g id="edge3" class="edge">
<title>Node3&#45;&gt;Node4</title>
<path fill="none" stroke="midnightblue" d="M407.93,-69.06C403.05,-68.35 398.21,-67.66 393.5,-67 267.49,-49.4 234.6,-54.22 109.5,-31 103.93,-29.97 98.09,-28.73 92.35,-27.41"/>
<polygon fill="midnightblue" stroke="midnightblue" points="92.74,-23.91 82.2,-25 91.12,-30.72 92.74,-23.91"/>
</g>
<!-- Node5 -->
<g id="node5" class="node">
<title>Node5</title>
<g id="a_node5"><a xlink:title=" ">
<polygon fill="none" stroke="#bfbfbf" points="119,-0.5 119,-30.5 250,-30.5 250,-0.5 119,-0.5"/>
<text text-anchor="start" x="127" y="-18.5" font-family="Helvetica,sans-Serif" font-size="10.00">domain_decomposition</text>
<text text-anchor="middle" x="184.5" y="-7.5" font-family="Helvetica,sans-Serif" font-size="10.00">/BlockDataID.h</text>
</a>
</g>
</g>
<!-- Node3&#45;&gt;Node5 -->
<g id="edge4" class="edge">
<title>Node3&#45;&gt;Node5</title>
<path fill="none" stroke="midnightblue" d="M422.91,-67.48C375.05,-57.24 310.07,-43.35 260.03,-32.65"/>
<polygon fill="midnightblue" stroke="midnightblue" points="260.74,-29.22 250.23,-30.55 259.28,-36.07 260.74,-29.22"/>
</g>
<!-- Node6 -->
<g id="node6" class="node">
<title>Node6</title>
<g id="a_node6"><a xlink:title=" ">
<polygon fill="none" stroke="#bfbfbf" points="268,-0.5 268,-30.5 399,-30.5 399,-0.5 268,-0.5"/>
<text text-anchor="start" x="276" y="-18.5" font-family="Helvetica,sans-Serif" font-size="10.00">domain_decomposition</text>
<text text-anchor="middle" x="333.5" y="-7.5" font-family="Helvetica,sans-Serif" font-size="10.00">/IBlock.h</text>
</a>
</g>
</g>
<!-- Node3&#45;&gt;Node6 -->
<g id="edge5" class="edge">
<title>Node3&#45;&gt;Node6</title>
<path fill="none" stroke="midnightblue" d="M454.87,-67.4C431.92,-57.77 401.31,-44.94 376.58,-34.56"/>
<polygon fill="midnightblue" stroke="midnightblue" points="377.64,-31.22 367.07,-30.58 374.94,-37.67 377.64,-31.22"/>
</g>
<!-- Node7 -->
<g id="node7" class="node">
<title>Node7</title>
<g id="a_node7"><a xlink:title=" ">
<polygon fill="none" stroke="#bfbfbf" points="417,-0.5 417,-30.5 560,-30.5 560,-0.5 417,-0.5"/>
<text text-anchor="start" x="425" y="-18.5" font-family="Helvetica,sans-Serif" font-size="10.00">domain_decomposition</text>
<text text-anchor="middle" x="488.5" y="-7.5" font-family="Helvetica,sans-Serif" font-size="10.00">/StructuredBlockStorage.h</text>
</a>
</g>
</g>
<!-- Node3&#45;&gt;Node7 -->
<g id="edge6" class="edge">
<title>Node3&#45;&gt;Node7</title>
<path fill="none" stroke="midnightblue" d="M488.5,-67.4C488.5,-59.64 488.5,-49.81 488.5,-40.86"/>
<polygon fill="midnightblue" stroke="midnightblue" points="492,-40.58 488.5,-30.58 485,-40.58 492,-40.58"/>
</g>
<!-- Node8 -->
<g id="node8" class="node">
<title>Node8</title>
<g id="a_node8"><a xlink:title=" ">
<polygon fill="none" stroke="#bfbfbf" points="578.5,-6 578.5,-25 706.5,-25 706.5,-6 578.5,-6"/>
<text text-anchor="middle" x="642.5" y="-13" font-family="Helvetica,sans-Serif" font-size="10.00">field/GhostLayerField.h</text>
</a>
</g>
</g>
<!-- Node3&#45;&gt;Node8 -->
<g id="edge7" class="edge">
<title>Node3&#45;&gt;Node8</title>
<path fill="none" stroke="midnightblue" d="M521.92,-67.4C549.06,-55.94 586.97,-39.94 613,-28.95"/>
<polygon fill="midnightblue" stroke="midnightblue" points="614.49,-32.12 622.34,-25.01 611.77,-25.67 614.49,-32.12"/>
</g>
<!-- Node9 -->
<g id="node9" class="node">
<title>Node9</title>
<g id="a_node9"><a xlink:title=" ">
<polygon fill="none" stroke="#bfbfbf" points="725,-6 725,-25 866,-25 866,-6 725,-6"/>
<text text-anchor="middle" x="795.5" y="-13" font-family="Helvetica,sans-Serif" font-size="10.00">field/SwapableCompare.h</text>
</a>
</g>
</g>
<!-- Node3&#45;&gt;Node9 -->
<g id="edge8" class="edge">
<title>Node3&#45;&gt;Node9</title>
<path fill="none" stroke="midnightblue" d="M554.74,-67.48C611.91,-55.37 693.28,-38.14 745.24,-27.14"/>
<polygon fill="midnightblue" stroke="midnightblue" points="746.16,-30.52 755.22,-25.03 744.71,-23.68 746.16,-30.52"/>
</g>
<!-- Node10 -->
<g id="node10" class="node">
<title>Node10</title>
<g id="a_node10"><a xlink:title=" ">
<polygon fill="none" stroke="#bfbfbf" points="884.5,-6 884.5,-25 916.5,-25 916.5,-6 884.5,-6"/>
<text text-anchor="middle" x="900.5" y="-13" font-family="Helvetica,sans-Serif" font-size="10.00">set</text>
</a>
</g>
</g>
<!-- Node3&#45;&gt;Node10 -->
<g id="edge9" class="edge">
<title>Node3&#45;&gt;Node10</title>
<path fill="none" stroke="midnightblue" d="M569.01,-68.23C571.87,-67.81 574.71,-67.4 577.5,-67 709.15,-48.31 748.06,-72.15 874.5,-31 875.74,-30.6 877,-30.13 878.24,-29.62"/>
<polygon fill="midnightblue" stroke="midnightblue" points="880.04,-32.63 887.46,-25.07 876.94,-26.35 880.04,-32.63"/>
</g>
<!-- Node13 -->
<g id="node13" class="node">
<title>Node13</title>
<g id="a_node13"><a xlink:title=" ">
<polygon fill="none" stroke="#bfbfbf" points="934.5,-6 934.5,-25 984.5,-25 984.5,-6 934.5,-6"/>
<text text-anchor="middle" x="959.5" y="-13" font-family="Helvetica,sans-Serif" font-size="10.00">cstdint</text>
</a>
</g>
</g>
<!-- Node12&#45;&gt;Node13 -->
<g id="edge13" class="edge">
<title>Node12&#45;&gt;Node13</title>
<path fill="none" stroke="midnightblue" d="M959.5,-72.73C959.5,-63.18 959.5,-47.62 959.5,-35.28"/>
<polygon fill="midnightblue" stroke="midnightblue" points="963,-35.13 959.5,-25.13 956,-35.13 963,-35.13"/>
</g>
<!-- Node14 -->
<g id="node14" class="node">
<title>Node14</title>
<g id="a_node14"><a xlink:href="myintrin_8h.html" target="_top" xlink:title=" ">
<polygon fill="none" stroke="black" points="1003,-6 1003,-25 1070,-25 1070,-6 1003,-6"/>
<text text-anchor="middle" x="1036.5" y="-13" font-family="Helvetica,sans-Serif" font-size="10.00">myintrin.h</text>
</a>
</g>
</g>
<!-- Node12&#45;&gt;Node14 -->
<g id="edge14" class="edge">
<title>Node12&#45;&gt;Node14</title>
<path fill="none" stroke="midnightblue" d="M969.88,-72.73C982.35,-62.21 1003.47,-44.38 1018.59,-31.62"/>
<polygon fill="midnightblue" stroke="midnightblue" points="1020.9,-34.25 1026.28,-25.13 1016.38,-28.9 1020.9,-34.25"/>
</g>
</g>
</svg>
