<?xml version="1.0" encoding="UTF-8" standalone="no"?>
<!DOCTYPE svg PUBLIC "-//W3C//DTD SVG 1.1//EN"
 "http://www.w3.org/Graphics/SVG/1.1/DTD/svg11.dtd">
<!-- Generated by graphviz version 2.43.0 (0)
 -->
<!-- Title: coordinate_transformation.hpp Pages: 1 -->
<!--zoomable 207 -->
<svg id="main" version="1.1" xmlns="http://www.w3.org/2000/svg" xmlns:xlink="http://www.w3.org/1999/xlink" xml:space="preserve" onload="init(evt)">
<style type="text/css"><![CDATA[
.edge:hover path { stroke: red; }
.edge:hover polygon { stroke: red; fill: red; }
]]></style>
<script type="text/javascript"><![CDATA[
var edges = document.getElementsByTagName('g');
if (edges && edges.length) {
  for (var i=0;i<edges.length;i++) {
    if (edges[i].id.substr(0,4)=='edge') {
      edges[i].setAttribute('class','edge');
    }
  }
}
]]></script>
        <defs>
                <circle id="rim" cx="0" cy="0" r="7"/>
                <circle id="rim2" cx="0" cy="0" r="3.5"/>
                <g id="zoomPlus">
                        <use xlink:href="#rim" fill="#404040">
                                <set attributeName="fill" to="#808080" begin="zoomplus.mouseover" end="zoomplus.mouseout"/>
                        </use>
                        <path d="M-4,0h8M0,-4v8" fill="none" stroke="white" stroke-width="1.5" pointer-events="none"/>
                </g>
                <g id="zoomMin">
                        <use xlink:href="#rim" fill="#404040">
                                <set attributeName="fill" to="#808080" begin="zoomminus.mouseover" end="zoomminus.mouseout"/>
                        </use>
                        <path d="M-4,0h8" fill="none" stroke="white" stroke-width="1.5" pointer-events="none"/>
                </g>
                <g id="dirArrow">
                        <path fill="none" stroke="white" stroke-width="1.5" d="M0,-3.0v7 M-2.5,-0.5L0,-3.0L2.5,-0.5"/>
                </g>
               <g id="resetDef">
                       <use xlink:href="#rim2" fill="#404040">
                               <set attributeName="fill" to="#808080" begin="reset.mouseover" end="reset.mouseout"/>
                       </use>
               </g>
        </defs>

<script type="text/javascript">
var viewWidth = 1141;
var viewHeight = 207;
var sectionId = 'dynsection-1';
</script>
<script xlink:href="svgpan.js"/>
<svg id="graph" class="graph">
<g id="viewport">
<title>coordinate_transformation.hpp</title>
<!-- Node1 -->
<g id="node1" class="node">
<title>Node1</title>
<g id="a_node1"><a xlink:title=" ">
<polygon fill="#bfbfbf" stroke="black" points="502.5,-179.5 502.5,-198.5 669.5,-198.5 669.5,-179.5 502.5,-179.5"/>
<text text-anchor="middle" x="586" y="-186.5" font-family="Helvetica,sans-Serif" font-size="10.00">coordinate_transformation.hpp</text>
</a>
</g>
</g>
<!-- Node2 -->
<g id="node2" class="node">
<title>Node2</title>
<g id="a_node2"><a xlink:href="CylindricalDensityProfile_8hpp.html" target="_top" xlink:title=" ">
<polygon fill="none" stroke="black" points="0,-56.5 0,-75.5 158,-75.5 158,-56.5 0,-56.5"/>
<text text-anchor="middle" x="79" y="-63.5" font-family="Helvetica,sans-Serif" font-size="10.00">CylindricalDensityProfile.hpp</text>
</a>
</g>
</g>
<!-- Node1&#45;&gt;Node2 -->
<g id="edge1" class="edge">
<title>Node1&#45;&gt;Node2</title>
<path fill="none" stroke="midnightblue" d="M492.21,-178.48C433.53,-171.36 356.68,-159.91 290,-143 217.72,-124.68 135.51,-91.24 98.67,-75.55"/>
<polygon fill="midnightblue" stroke="midnightblue" points="491.86,-181.96 502.2,-179.67 492.69,-175.01 491.86,-181.96"/>
</g>
<!-- Node4 -->
<g id="node4" class="node">
<title>Node4</title>
<g id="a_node4"><a xlink:href="CylindricalFluxDensityProfile_8hpp.html" target="_top" xlink:title=" ">
<polygon fill="none" stroke="black" points="176.5,-56.5 176.5,-75.5 355.5,-75.5 355.5,-56.5 176.5,-56.5"/>
<text text-anchor="middle" x="266" y="-63.5" font-family="Helvetica,sans-Serif" font-size="10.00">CylindricalFluxDensityProfile.hpp</text>
</a>
</g>
</g>
<!-- Node1&#45;&gt;Node4 -->
<g id="edge3" class="edge">
<title>Node1&#45;&gt;Node4</title>
<path fill="none" stroke="midnightblue" d="M492.27,-178.59C430.26,-171.06 355.51,-159.1 328,-143 299.78,-126.48 279.02,-91.99 270.4,-75.78"/>
<polygon fill="midnightblue" stroke="midnightblue" points="492.15,-182.1 502.49,-179.81 492.98,-175.15 492.15,-182.1"/>
</g>
<!-- Node5 -->
<g id="node5" class="node">
<title>Node5</title>
<g id="a_node5"><a xlink:href="CylindricalLBFluxDensityProfileAtParticlePositions_8cpp.html" target="_top" xlink:title=" ">
<polygon fill="none" stroke="black" points="337,-112.5 337,-142.5 497,-142.5 497,-112.5 337,-112.5"/>
<text text-anchor="start" x="345" y="-130.5" font-family="Helvetica,sans-Serif" font-size="10.00">CylindricalLBFluxDensity</text>
<text text-anchor="middle" x="417" y="-119.5" font-family="Helvetica,sans-Serif" font-size="10.00">ProfileAtParticlePositions.cpp</text>
</a>
</g>
</g>
<!-- Node1&#45;&gt;Node5 -->
<g id="edge5" class="edge">
<title>Node1&#45;&gt;Node5</title>
<path fill="none" stroke="midnightblue" d="M552.21,-176.1C524.71,-166.42 485.84,-152.74 456.83,-142.52"/>
<polygon fill="midnightblue" stroke="midnightblue" points="551.19,-179.46 561.79,-179.48 553.52,-172.85 551.19,-179.46"/>
</g>
<!-- Node6 -->
<g id="node6" class="node">
<title>Node6</title>
<g id="a_node6"><a xlink:href="core_2observables_2CylindricalLBProfileObservable_8hpp.html" target="_top" xlink:title=" ">
<polygon fill="none" stroke="black" points="553,-118 553,-137 741,-137 741,-118 553,-118"/>
<text text-anchor="middle" x="647" y="-125" font-family="Helvetica,sans-Serif" font-size="10.00">CylindricalLBProfileObservable.hpp</text>
</a>
</g>
</g>
<!-- Node1&#45;&gt;Node6 -->
<g id="edge6" class="edge">
<title>Node1&#45;&gt;Node6</title>
<path fill="none" stroke="midnightblue" d="M602.07,-172.32C613.66,-161.02 628.86,-146.19 638.28,-137.01"/>
<polygon fill="midnightblue" stroke="midnightblue" points="599.45,-169.99 594.74,-179.48 604.34,-175 599.45,-169.99"/>
</g>
<!-- Node8 -->
<g id="node8" class="node">
<title>Node8</title>
<g id="a_node8"><a xlink:href="CylindricalLBVelocityProfile_8cpp.html" target="_top" xlink:title=" ">
<polygon fill="none" stroke="black" points="816.5,-0.5 816.5,-19.5 987.5,-19.5 987.5,-0.5 816.5,-0.5"/>
<text text-anchor="middle" x="902" y="-7.5" font-family="Helvetica,sans-Serif" font-size="10.00">CylindricalLBVelocityProfile.cpp</text>
</a>
</g>
</g>
<!-- Node1&#45;&gt;Node8 -->
<g id="edge12" class="edge">
<title>Node1&#45;&gt;Node8</title>
<path fill="none" stroke="midnightblue" d="M679.93,-186.47C765.88,-183.14 884.87,-173.03 920,-143 950.16,-117.22 953.63,-93.26 940,-56 934.59,-41.21 921.94,-27.93 912.71,-19.7"/>
<polygon fill="midnightblue" stroke="midnightblue" points="679.75,-182.97 669.88,-186.83 680,-189.97 679.75,-182.97"/>
</g>
<!-- Node10 -->
<g id="node10" class="node">
<title>Node10</title>
<g id="a_node10"><a xlink:href="CylindricalLBVelocityProfileAtParticlePositions_8cpp.html" target="_top" xlink:title=" ">
<polygon fill="none" stroke="black" points="759.5,-112.5 759.5,-142.5 910.5,-142.5 910.5,-112.5 759.5,-112.5"/>
<text text-anchor="start" x="767.5" y="-130.5" font-family="Helvetica,sans-Serif" font-size="10.00">CylindricalLBVelocityProfile</text>
<text text-anchor="middle" x="835" y="-119.5" font-family="Helvetica,sans-Serif" font-size="10.00">AtParticlePositions.cpp</text>
</a>
</g>
</g>
<!-- Node1&#45;&gt;Node10 -->
<g id="edge13" class="edge">
<title>Node1&#45;&gt;Node10</title>
<path fill="none" stroke="midnightblue" d="M631.59,-177.11C672.27,-167.39 732.07,-153.1 776.32,-142.52"/>
<polygon fill="midnightblue" stroke="midnightblue" points="630.59,-173.75 621.68,-179.48 632.22,-180.56 630.59,-173.75"/>
</g>
<!-- Node11 -->
<g id="node11" class="node">
<title>Node11</title>
<g id="a_node11"><a xlink:href="CylindricalVelocityProfile_8hpp.html" target="_top" xlink:title=" ">
<polygon fill="none" stroke="black" points="373.5,-56.5 373.5,-75.5 534.5,-75.5 534.5,-56.5 373.5,-56.5"/>
<text text-anchor="middle" x="454" y="-63.5" font-family="Helvetica,sans-Serif" font-size="10.00">CylindricalVelocityProfile.hpp</text>
</a>
</g>
</g>
<!-- Node1&#45;&gt;Node11 -->
<g id="edge14" class="edge">
<title>Node1&#45;&gt;Node11</title>
<path fill="none" stroke="midnightblue" d="M569.78,-172.17C553.77,-156.64 528.48,-132.38 506,-112 491.85,-99.17 475.07,-84.8 464.48,-75.82"/>
<polygon fill="midnightblue" stroke="midnightblue" points="567.64,-174.97 577.25,-179.43 572.52,-169.95 567.64,-174.97"/>
</g>
<!-- Node12 -->
<g id="node12" class="node">
<title>Node12</title>
<g id="a_node12"><a xlink:href="HollowConicalFrustum_8cpp.html" target="_top" xlink:title=" ">
<polygon fill="none" stroke="black" points="987,-118 987,-137 1133,-137 1133,-118 987,-118"/>
<text text-anchor="middle" x="1060" y="-125" font-family="Helvetica,sans-Serif" font-size="10.00">HollowConicalFrustum.cpp</text>
</a>
</g>
</g>
<!-- Node1&#45;&gt;Node12 -->
<g id="edge16" class="edge">
<title>Node1&#45;&gt;Node12</title>
<path fill="none" stroke="midnightblue" d="M679.92,-178.39C758.39,-170.05 873.17,-157.11 973,-143 985.43,-141.24 998.83,-139.12 1011.29,-137.05"/>
<polygon fill="midnightblue" stroke="midnightblue" points="679.15,-174.95 669.57,-179.49 679.88,-181.91 679.15,-174.95"/>
</g>
<!-- Node3 -->
<g id="node3" class="node">
<title>Node3</title>
<g id="a_node3"><a xlink:href="observables_2initialize_8cpp.html" target="_top" xlink:title=" ">
<polygon fill="none" stroke="black" points="414.5,-0.5 414.5,-19.5 493.5,-19.5 493.5,-0.5 414.5,-0.5"/>
<text text-anchor="middle" x="454" y="-7.5" font-family="Helvetica,sans-Serif" font-size="10.00">initialize.cpp</text>
</a>
</g>
</g>
<!-- Node2&#45;&gt;Node3 -->
<g id="edge2" class="edge">
<title>Node2&#45;&gt;Node3</title>
<path fill="none" stroke="midnightblue" d="M148.67,-54.97C226.95,-43.7 351.28,-25.79 414.41,-16.7"/>
<polygon fill="midnightblue" stroke="midnightblue" points="147.82,-51.55 138.42,-56.44 148.82,-58.48 147.82,-51.55"/>
</g>
<!-- Node4&#45;&gt;Node3 -->
<g id="edge4" class="edge">
<title>Node4&#45;&gt;Node3</title>
<path fill="none" stroke="midnightblue" d="M305.8,-53.57C341.27,-43.38 392.37,-28.7 424.35,-19.52"/>
<polygon fill="midnightblue" stroke="midnightblue" points="304.43,-50.32 295.79,-56.44 306.37,-57.05 304.43,-50.32"/>
</g>
<!-- Node7 -->
<g id="node7" class="node">
<title>Node7</title>
<g id="a_node7"><a xlink:href="CylindricalLBVelocityProfile_8hpp.html" target="_top" xlink:title=" ">
<polygon fill="none" stroke="black" points="759,-56.5 759,-75.5 931,-75.5 931,-56.5 759,-56.5"/>
<text text-anchor="middle" x="845" y="-63.5" font-family="Helvetica,sans-Serif" font-size="10.00">CylindricalLBVelocityProfile.hpp</text>
</a>
</g>
</g>
<!-- Node6&#45;&gt;Node7 -->
<g id="edge7" class="edge">
<title>Node6&#45;&gt;Node7</title>
<path fill="none" stroke="midnightblue" d="M685.17,-115.03C723.66,-103.46 782.16,-85.88 816.68,-75.51"/>
<polygon fill="midnightblue" stroke="midnightblue" points="683.94,-111.75 675.37,-117.98 685.95,-118.45 683.94,-111.75"/>
</g>
<!-- Node9 -->
<g id="node9" class="node">
<title>Node9</title>
<g id="a_node9"><a xlink:href="script__interface_2observables_2CylindricalLBProfileObservable_8hpp.html" target="_top" xlink:title=" ">
<polygon fill="none" stroke="black" points="553,-56.5 553,-75.5 741,-75.5 741,-56.5 553,-56.5"/>
<text text-anchor="middle" x="647" y="-63.5" font-family="Helvetica,sans-Serif" font-size="10.00">CylindricalLBProfileObservable.hpp</text>
</a>
</g>
</g>
<!-- Node6&#45;&gt;Node9 -->
<g id="edge10" class="edge">
<title>Node6&#45;&gt;Node9</title>
<path fill="none" stroke="midnightblue" d="M647,-107.82C647,-97 647,-83.9 647,-75.51"/>
<polygon fill="midnightblue" stroke="midnightblue" points="643.5,-107.98 647,-117.98 650.5,-107.98 643.5,-107.98"/>
</g>
<!-- Node7&#45;&gt;Node3 -->
<g id="edge9" class="edge">
<title>Node7&#45;&gt;Node3</title>
<path fill="none" stroke="midnightblue" d="M773.02,-55.06C690.77,-43.7 559.1,-25.52 493.63,-16.47"/>
<polygon fill="midnightblue" stroke="midnightblue" points="772.66,-58.54 783.04,-56.44 773.62,-51.61 772.66,-58.54"/>
</g>
<!-- Node7&#45;&gt;Node8 -->
<g id="edge8" class="edge">
<title>Node7&#45;&gt;Node8</title>
<path fill="none" stroke="midnightblue" d="M861.62,-49.25C871.73,-39.67 884.28,-27.79 892.68,-19.83"/>
<polygon fill="midnightblue" stroke="midnightblue" points="859.01,-46.91 854.16,-56.32 863.82,-51.99 859.01,-46.91"/>
</g>
<!-- Node9&#45;&gt;Node3 -->
<g id="edge11" class="edge">
<title>Node9&#45;&gt;Node3</title>
<path fill="none" stroke="midnightblue" d="M606.61,-53.7C570.18,-43.51 517.41,-28.74 484.44,-19.52"/>
<polygon fill="midnightblue" stroke="midnightblue" points="605.85,-57.12 616.42,-56.44 607.73,-50.38 605.85,-57.12"/>
</g>
<!-- Node11&#45;&gt;Node3 -->
<g id="edge15" class="edge">
<title>Node11&#45;&gt;Node3</title>
<path fill="none" stroke="midnightblue" d="M454,-45.8C454,-36.91 454,-26.78 454,-19.75"/>
<polygon fill="midnightblue" stroke="midnightblue" points="450.5,-46.08 454,-56.08 457.5,-46.08 450.5,-46.08"/>
</g>
</g>
</svg>
        <g id="navigator" transform="translate(0 0)" fill="#404254">
                <rect fill="#f2f5e9" fill-opacity="0.5" stroke="#606060" stroke-width=".5" x="0" y="0" width="60" height="60"/>
                <use id="zoomplus" xlink:href="#zoomPlus" x="17" y="9" onmousedown="handleZoom(evt,'in')"/>
                <use id="zoomminus" xlink:href="#zoomMin" x="42" y="9" onmousedown="handleZoom(evt,'out')"/>
                <use id="reset" xlink:href="#resetDef" x="30" y="36" onmousedown="handleReset()"/>
                <g id="arrowUp" xlink:href="#dirArrow" transform="translate(30 24)" onmousedown="handlePan(0,-1)">
                  <use xlink:href="#rim" fill="#404040">
                        <set attributeName="fill" to="#808080" begin="arrowUp.mouseover" end="arrowUp.mouseout"/>
                  </use>
                  <path fill="none" stroke="white" stroke-width="1.5" d="M0,-3.0v7 M-2.5,-0.5L0,-3.0L2.5,-0.5"/>
                </g>
                <g id="arrowRight" xlink:href="#dirArrow" transform="rotate(90) translate(36 -43)" onmousedown="handlePan(1,0)">
                  <use xlink:href="#rim" fill="#404040">
                        <set attributeName="fill" to="#808080" begin="arrowRight.mouseover" end="arrowRight.mouseout"/>
                  </use>
                  <path fill="none" stroke="white" stroke-width="1.5" d="M0,-3.0v7 M-2.5,-0.5L0,-3.0L2.5,-0.5"/>
                </g>
                <g id="arrowDown" xlink:href="#dirArrow" transform="rotate(180) translate(-30 -48)" onmousedown="handlePan(0,1)">
                  <use xlink:href="#rim" fill="#404040">
                        <set attributeName="fill" to="#808080" begin="arrowDown.mouseover" end="arrowDown.mouseout"/>
                  </use>
                  <path fill="none" stroke="white" stroke-width="1.5" d="M0,-3.0v7 M-2.5,-0.5L0,-3.0L2.5,-0.5"/>
                </g>
                <g id="arrowLeft" xlink:href="#dirArrow" transform="rotate(270) translate(-36 17)" onmousedown="handlePan(-1,0)">
                  <use xlink:href="#rim" fill="#404040">
                        <set attributeName="fill" to="#808080" begin="arrowLeft.mouseover" end="arrowLeft.mouseout"/>
                  </use>
                  <path fill="none" stroke="white" stroke-width="1.5" d="M0,-3.0v7 M-2.5,-0.5L0,-3.0L2.5,-0.5"/>
                </g>
        </g>
        <svg viewBox="0 0 15 15" width="100%" height="30px" preserveAspectRatio="xMaxYMin meet">
         <g id="arrow_out" transform="scale(0.3 0.3)">
          <a xlink:href="coordinate__transformation_8hpp__dep__incl_org.svg" target="_base">
           <rect id="button" ry="5" rx="5" y="6" x="6" height="38" width="38"
                fill="#f2f5e9" fill-opacity="0.5" stroke="#606060" stroke-width="1.0"/>
           <path id="arrow"
             d="M 11.500037,31.436501 C 11.940474,20.09759 22.043105,11.32322 32.158766,21.979434 L 37.068811,17.246167 C 37.068811,17.246167 37.088388,32 37.088388,32 L 22.160133,31.978069 C 22.160133,31.978069 26.997745,27.140456 26.997745,27.140456 C 18.528582,18.264221 13.291696,25.230495 11.500037,31.436501 z"
             style="fill:#404040;"/>
          </a>
         </g>
        </svg>
</svg>
