<?xml version="1.0" encoding="UTF-8" standalone="no"?>
<!DOCTYPE svg PUBLIC "-//W3C//DTD SVG 1.1//EN"
 "http://www.w3.org/Graphics/SVG/1.1/DTD/svg11.dtd">
<!-- Generated by graphviz version 2.43.0 (0)
 -->
<!-- Title: Correlator.hpp Pages: 1 -->
<svg width="1908pt" height="274pt"
 viewBox="0.00 0.00 1908.24 274.00" xmlns="http://www.w3.org/2000/svg" xmlns:xlink="http://www.w3.org/1999/xlink">
<g id="graph0" class="graph" transform="scale(1 1) rotate(0) translate(4 270)">
<title>Correlator.hpp</title>
<!-- Node1 -->
<g id="node1" class="node">
<title>Node1</title>
<g id="a_node1"><a xlink:title="This module computes correlations (and other two time averages) on the fly and from files.">
<polygon fill="#bfbfbf" stroke="black" points="553.24,-246.5 553.24,-265.5 639.24,-265.5 639.24,-246.5 553.24,-246.5"/>
<text text-anchor="middle" x="596.24" y="-253.5" font-family="Helvetica,sans-Serif" font-size="10.00">Correlator.hpp</text>
</a>
</g>
</g>
<!-- Node2 -->
<g id="node2" class="node">
<title>Node2</title>
<g id="a_node2"><a xlink:href="core_2accumulators_2AccumulatorBase_8hpp.html" target="_top" xlink:title=" ">
<polygon fill="none" stroke="black" points="59.74,-190.5 59.74,-209.5 182.74,-209.5 182.74,-190.5 59.74,-190.5"/>
<text text-anchor="middle" x="121.24" y="-197.5" font-family="Helvetica,sans-Serif" font-size="10.00">AccumulatorBase.hpp</text>
</a>
</g>
</g>
<!-- Node1&#45;&gt;Node2 -->
<g id="edge1" class="edge">
<title>Node1&#45;&gt;Node2</title>
<path fill="none" stroke="midnightblue" d="M552.83,-250.06C470.9,-240.75 292.78,-220.5 192.87,-209.14"/>
<polygon fill="midnightblue" stroke="midnightblue" points="193.2,-205.66 182.86,-208.01 192.41,-212.61 193.2,-205.66"/>
</g>
<!-- Node3 -->
<g id="node3" class="node">
<title>Node3</title>
<g id="a_node3"><a xlink:title=" ">
<polygon fill="none" stroke="#bfbfbf" points="264.74,-6 264.74,-25 317.74,-25 317.74,-6 264.74,-6"/>
<text text-anchor="middle" x="291.24" y="-13" font-family="Helvetica,sans-Serif" font-size="10.00">cstddef</text>
</a>
</g>
</g>
<!-- Node1&#45;&gt;Node3 -->
<g id="edge43" class="edge">
<title>Node1&#45;&gt;Node3</title>
<path fill="none" stroke="midnightblue" d="M552.97,-254.72C429.81,-253.48 84.07,-246.73 50.24,-210 12.69,-169.23 -64.35,-212.36 109.24,-67 150.78,-32.22 214.52,-21.3 254.49,-17.92"/>
<polygon fill="midnightblue" stroke="midnightblue" points="254.89,-21.41 264.61,-17.19 254.38,-14.42 254.89,-21.41"/>
</g>
<!-- Node4 -->
<g id="node4" class="node">
<title>Node4</title>
<g id="a_node4"><a xlink:title=" ">
<polygon fill="none" stroke="#bfbfbf" points="97.74,-134.5 97.74,-153.5 144.74,-153.5 144.74,-134.5 97.74,-134.5"/>
<text text-anchor="middle" x="121.24" y="-141.5" font-family="Helvetica,sans-Serif" font-size="10.00">vector</text>
</a>
</g>
</g>
<!-- Node1&#45;&gt;Node4 -->
<g id="edge47" class="edge">
<title>Node1&#45;&gt;Node4</title>
<path fill="none" stroke="midnightblue" d="M553.22,-254.96C484.49,-253.74 346.42,-246.44 236.24,-210 217.36,-203.76 171.3,-176.15 143.54,-158.98"/>
<polygon fill="midnightblue" stroke="midnightblue" points="145.23,-155.92 134.89,-153.61 141.53,-161.86 145.23,-155.92"/>
</g>
<!-- Node5 -->
<g id="node5" class="node">
<title>Node5</title>
<g id="a_node5"><a xlink:title=" ">
<polygon fill="none" stroke="#bfbfbf" points="245.74,-190.5 245.74,-209.5 400.74,-209.5 400.74,-190.5 245.74,-190.5"/>
<text text-anchor="middle" x="323.24" y="-197.5" font-family="Helvetica,sans-Serif" font-size="10.00">observables/Observable.hpp</text>
</a>
</g>
</g>
<!-- Node1&#45;&gt;Node5 -->
<g id="edge4" class="edge">
<title>Node1&#45;&gt;Node5</title>
<path fill="none" stroke="midnightblue" d="M552.98,-246.44C505.06,-236.96 427.76,-221.67 376.24,-211.48"/>
<polygon fill="midnightblue" stroke="midnightblue" points="376.78,-208.02 366.3,-209.52 375.43,-214.89 376.78,-208.02"/>
</g>
<!-- Node6 -->
<g id="node6" class="node">
<title>Node6</title>
<g id="a_node6"><a xlink:title=" ">
<polygon fill="none" stroke="#bfbfbf" points="418.74,-190.5 418.74,-209.5 531.74,-209.5 531.74,-190.5 418.74,-190.5"/>
<text text-anchor="middle" x="475.24" y="-197.5" font-family="Helvetica,sans-Serif" font-size="10.00">system/System.hpp</text>
</a>
</g>
</g>
<!-- Node1&#45;&gt;Node6 -->
<g id="edge5" class="edge">
<title>Node1&#45;&gt;Node6</title>
<path fill="none" stroke="midnightblue" d="M577.07,-246.44C557.33,-237.64 526.35,-223.81 503.75,-213.72"/>
<polygon fill="midnightblue" stroke="midnightblue" points="504.88,-210.4 494.32,-209.52 502.03,-216.79 504.88,-210.4"/>
</g>
<!-- Node7 -->
<g id="node7" class="node">
<title>Node7</title>
<g id="a_node7"><a xlink:href="Vector_8hpp.html" target="_top" xlink:title="Vector implementation and trait types for boost qvm interoperability.">
<polygon fill="none" stroke="black" points="550.24,-190.5 550.24,-209.5 642.24,-209.5 642.24,-190.5 550.24,-190.5"/>
<text text-anchor="middle" x="596.24" y="-197.5" font-family="Helvetica,sans-Serif" font-size="10.00">utils/Vector.hpp</text>
</a>
</g>
</g>
<!-- Node1&#45;&gt;Node7 -->
<g id="edge6" class="edge">
<title>Node1&#45;&gt;Node7</title>
<path fill="none" stroke="midnightblue" d="M596.24,-246.08C596.24,-239.01 596.24,-228.86 596.24,-219.99"/>
<polygon fill="midnightblue" stroke="midnightblue" points="599.74,-219.75 596.24,-209.75 592.74,-219.75 599.74,-219.75"/>
</g>
<!-- Node24 -->
<g id="node24" class="node">
<title>Node24</title>
<g id="a_node24"><a xlink:title=" ">
<polygon fill="none" stroke="#bfbfbf" points="1020.74,-67.5 1020.74,-97.5 1127.74,-97.5 1127.74,-67.5 1020.74,-67.5"/>
<text text-anchor="start" x="1028.74" y="-85.5" font-family="Helvetica,sans-Serif" font-size="10.00">boost/serialization</text>
<text text-anchor="middle" x="1074.24" y="-74.5" font-family="Helvetica,sans-Serif" font-size="10.00">/access.hpp</text>
</a>
</g>
</g>
<!-- Node1&#45;&gt;Node24 -->
<g id="edge42" class="edge">
<title>Node1&#45;&gt;Node24</title>
<path fill="none" stroke="midnightblue" d="M607.11,-246.29C627.57,-230.1 671.34,-196.4 689.24,-190 786.82,-155.08 1083.84,-230.06 1154.24,-154 1171.92,-134.9 1146.05,-115.51 1119.13,-101.92"/>
<polygon fill="midnightblue" stroke="midnightblue" points="1120.55,-98.72 1110.02,-97.54 1117.52,-105.02 1120.55,-98.72"/>
</g>
<!-- Node34 -->
<g id="node34" class="node">
<title>Node34</title>
<g id="a_node34"><a xlink:title=" ">
<polygon fill="none" stroke="#bfbfbf" points="698.24,-190.5 698.24,-209.5 820.24,-209.5 820.24,-190.5 698.24,-190.5"/>
<text text-anchor="middle" x="759.24" y="-197.5" font-family="Helvetica,sans-Serif" font-size="10.00">boost/multi_array.hpp</text>
</a>
</g>
</g>
<!-- Node1&#45;&gt;Node34 -->
<g id="edge41" class="edge">
<title>Node1&#45;&gt;Node34</title>
<path fill="none" stroke="midnightblue" d="M622.07,-246.44C649.49,-237.36 693.02,-222.94 723.67,-212.78"/>
<polygon fill="midnightblue" stroke="midnightblue" points="725.14,-215.98 733.53,-209.52 722.94,-209.34 725.14,-215.98"/>
</g>
<!-- Node35 -->
<g id="node35" class="node">
<title>Node35</title>
<g id="a_node35"><a xlink:title=" ">
<polygon fill="none" stroke="#bfbfbf" points="838.24,-190.5 838.24,-209.5 896.24,-209.5 896.24,-190.5 838.24,-190.5"/>
<text text-anchor="middle" x="867.24" y="-197.5" font-family="Helvetica,sans-Serif" font-size="10.00">memory</text>
</a>
</g>
</g>
<!-- Node1&#45;&gt;Node35 -->
<g id="edge44" class="edge">
<title>Node1&#45;&gt;Node35</title>
<path fill="none" stroke="midnightblue" d="M639.29,-247.24C684.03,-239.06 756.32,-225.48 828.1,-210.18"/>
<polygon fill="midnightblue" stroke="midnightblue" points="829.18,-213.52 838.22,-208 827.71,-206.68 829.18,-213.52"/>
</g>
<!-- Node36 -->
<g id="node36" class="node">
<title>Node36</title>
<g id="a_node36"><a xlink:title=" ">
<polygon fill="none" stroke="#bfbfbf" points="914.24,-190.5 914.24,-209.5 958.24,-209.5 958.24,-190.5 914.24,-190.5"/>
<text text-anchor="middle" x="936.24" y="-197.5" font-family="Helvetica,sans-Serif" font-size="10.00">string</text>
</a>
</g>
</g>
<!-- Node1&#45;&gt;Node36 -->
<g id="edge45" class="edge">
<title>Node1&#45;&gt;Node36</title>
<path fill="none" stroke="midnightblue" d="M639.31,-250.63C697.4,-244.31 804.17,-231.25 904.03,-210.01"/>
<polygon fill="midnightblue" stroke="midnightblue" points="904.95,-213.39 913.98,-207.86 903.47,-206.55 904.95,-213.39"/>
</g>
<!-- Node37 -->
<g id="node37" class="node">
<title>Node37</title>
<g id="a_node37"><a xlink:title=" ">
<polygon fill="none" stroke="#bfbfbf" points="976.74,-190.5 976.74,-209.5 1021.74,-209.5 1021.74,-190.5 976.74,-190.5"/>
<text text-anchor="middle" x="999.24" y="-197.5" font-family="Helvetica,sans-Serif" font-size="10.00">utility</text>
</a>
</g>
</g>
<!-- Node1&#45;&gt;Node37 -->
<g id="edge46" class="edge">
<title>Node1&#45;&gt;Node37</title>
<path fill="none" stroke="midnightblue" d="M639.43,-251.92C707.14,-246.63 842.48,-234.16 966.56,-209.83"/>
<polygon fill="midnightblue" stroke="midnightblue" points="967.5,-213.21 976.62,-207.83 966.13,-206.35 967.5,-213.21"/>
</g>
<!-- Node2&#45;&gt;Node3 -->
<g id="edge2" class="edge">
<title>Node2&#45;&gt;Node3</title>
<path fill="none" stroke="midnightblue" d="M111.43,-190.34C98.76,-178.03 79.32,-154.69 88.24,-134 117.06,-67.19 204.55,-36.4 254.77,-23.9"/>
<polygon fill="midnightblue" stroke="midnightblue" points="255.66,-27.28 264.58,-21.57 254.04,-20.47 255.66,-27.28"/>
</g>
<!-- Node2&#45;&gt;Node4 -->
<g id="edge3" class="edge">
<title>Node2&#45;&gt;Node4</title>
<path fill="none" stroke="midnightblue" d="M121.24,-190.08C121.24,-183.01 121.24,-172.86 121.24,-163.99"/>
<polygon fill="midnightblue" stroke="midnightblue" points="124.74,-163.75 121.24,-153.75 117.74,-163.75 124.74,-163.75"/>
</g>
<!-- Node7&#45;&gt;Node3 -->
<g id="edge34" class="edge">
<title>Node7&#45;&gt;Node3</title>
<path fill="none" stroke="midnightblue" d="M550.12,-191.41C546.78,-190.92 543.46,-190.44 540.24,-190 469.56,-180.34 268.77,-207.2 221.24,-154 211.41,-142.99 195.66,-121.26 224.24,-67 232.7,-50.93 248.82,-38.54 263.12,-30.05"/>
<polygon fill="midnightblue" stroke="midnightblue" points="265.11,-32.94 272.16,-25.03 261.72,-26.82 265.11,-32.94"/>
</g>
<!-- Node7&#45;&gt;Node4 -->
<g id="edge40" class="edge">
<title>Node7&#45;&gt;Node4</title>
<path fill="none" stroke="midnightblue" d="M550.13,-191.35C546.79,-190.87 543.46,-190.41 540.24,-190 371.52,-168.49 327.06,-181.67 159.24,-154 157.78,-153.76 156.29,-153.49 154.78,-153.21"/>
<polygon fill="midnightblue" stroke="midnightblue" points="155.36,-149.75 144.85,-151.13 153.92,-156.6 155.36,-149.75"/>
</g>
<!-- Node8 -->
<g id="node8" class="node">
<title>Node8</title>
<g id="a_node8"><a xlink:title=" ">
<polygon fill="none" stroke="#bfbfbf" points="837.24,-134.5 837.24,-153.5 987.24,-153.5 987.24,-134.5 837.24,-134.5"/>
<text text-anchor="middle" x="912.24" y="-141.5" font-family="Helvetica,sans-Serif" font-size="10.00">boost/qvm/deduce_vec.hpp</text>
</a>
</g>
</g>
<!-- Node7&#45;&gt;Node8 -->
<g id="edge7" class="edge">
<title>Node7&#45;&gt;Node8</title>
<path fill="none" stroke="midnightblue" d="M642.53,-191.09C698.15,-181.59 791.58,-165.62 852.57,-155.2"/>
<polygon fill="midnightblue" stroke="midnightblue" points="853.17,-158.65 862.44,-153.51 851.99,-151.75 853.17,-158.65"/>
</g>
<!-- Node9 -->
<g id="node9" class="node">
<title>Node9</title>
<g id="a_node9"><a xlink:title=" ">
<polygon fill="none" stroke="#bfbfbf" points="1005.24,-134.5 1005.24,-153.5 1145.24,-153.5 1145.24,-134.5 1005.24,-134.5"/>
<text text-anchor="middle" x="1075.24" y="-141.5" font-family="Helvetica,sans-Serif" font-size="10.00">boost/qvm/vec_traits.hpp</text>
</a>
</g>
</g>
<!-- Node7&#45;&gt;Node9 -->
<g id="edge8" class="edge">
<title>Node7&#45;&gt;Node9</title>
<path fill="none" stroke="midnightblue" d="M642.4,-191.87C647.07,-191.21 651.75,-190.57 656.24,-190 803.73,-171.14 843.5,-170.61 994.9,-154.14"/>
<polygon fill="midnightblue" stroke="midnightblue" points="995.47,-157.59 1005.03,-153.03 994.71,-150.64 995.47,-157.59"/>
</g>
<!-- Node10 -->
<g id="node10" class="node">
<title>Node10</title>
<g id="a_node10"><a xlink:href="Array_8hpp.html" target="_top" xlink:title="Array implementation with CUDA support.">
<polygon fill="none" stroke="black" points="733.24,-134.5 733.24,-153.5 819.24,-153.5 819.24,-134.5 733.24,-134.5"/>
<text text-anchor="middle" x="776.24" y="-141.5" font-family="Helvetica,sans-Serif" font-size="10.00">utils/Array.hpp</text>
</a>
</g>
</g>
<!-- Node7&#45;&gt;Node10 -->
<g id="edge9" class="edge">
<title>Node7&#45;&gt;Node10</title>
<path fill="none" stroke="midnightblue" d="M624.76,-190.44C655.31,-181.28 703.95,-166.69 737.84,-156.52"/>
<polygon fill="midnightblue" stroke="midnightblue" points="739.28,-159.74 747.85,-153.52 737.27,-153.04 739.28,-159.74"/>
</g>
<!-- Node12 -->
<g id="node12" class="node">
<title>Node12</title>
<g id="a_node12"><a xlink:title=" ">
<polygon fill="none" stroke="#bfbfbf" points="760.24,-6 760.24,-25 812.24,-25 812.24,-6 760.24,-6"/>
<text text-anchor="middle" x="786.24" y="-13" font-family="Helvetica,sans-Serif" font-size="10.00">cassert</text>
</a>
</g>
</g>
<!-- Node7&#45;&gt;Node12 -->
<g id="edge32" class="edge">
<title>Node7&#45;&gt;Node12</title>
<path fill="none" stroke="midnightblue" d="M642.58,-194.34C657.48,-192.89 674.05,-191.32 689.24,-190 740.87,-185.5 1119.04,-192.03 1154.24,-154 1172.32,-134.46 1174.88,-99.87 1137.24,-67 1084.01,-20.51 889.66,-48.7 821.24,-31 818.73,-30.35 816.17,-29.56 813.62,-28.68"/>
<polygon fill="midnightblue" stroke="midnightblue" points="814.67,-25.33 804.08,-25.01 812.15,-31.87 814.67,-25.33"/>
</g>
<!-- Node25 -->
<g id="node25" class="node">
<title>Node25</title>
<g id="a_node25"><a xlink:title=" ">
<polygon fill="none" stroke="#bfbfbf" points="233.74,-73 233.74,-92 286.74,-92 286.74,-73 233.74,-73"/>
<text text-anchor="middle" x="260.24" y="-80" font-family="Helvetica,sans-Serif" font-size="10.00">iterator</text>
</a>
</g>
</g>
<!-- Node7&#45;&gt;Node25 -->
<g id="edge37" class="edge">
<title>Node7&#45;&gt;Node25</title>
<path fill="none" stroke="midnightblue" d="M550.12,-191.42C546.78,-190.93 543.46,-190.45 540.24,-190 471.54,-180.5 276.36,-205.79 230.24,-154 216.36,-138.41 230.77,-115.44 244,-100"/>
<polygon fill="midnightblue" stroke="midnightblue" points="246.89,-102.03 251.05,-92.29 241.72,-97.31 246.89,-102.03"/>
</g>
<!-- Node28 -->
<g id="node28" class="node">
<title>Node28</title>
<g id="a_node28"><a xlink:title=" ">
<polygon fill="none" stroke="#bfbfbf" points="239.24,-134.5 239.24,-153.5 303.24,-153.5 303.24,-134.5 239.24,-134.5"/>
<text text-anchor="middle" x="271.24" y="-141.5" font-family="Helvetica,sans-Serif" font-size="10.00">algorithm</text>
</a>
</g>
</g>
<!-- Node7&#45;&gt;Node28 -->
<g id="edge31" class="edge">
<title>Node7&#45;&gt;Node28</title>
<path fill="none" stroke="midnightblue" d="M550.1,-191.57C546.76,-191.04 543.45,-190.51 540.24,-190 442.09,-174.37 414.74,-173.07 313.47,-154.14"/>
<polygon fill="midnightblue" stroke="midnightblue" points="313.91,-150.67 303.43,-152.26 312.61,-157.54 313.91,-150.67"/>
</g>
<!-- Node29 -->
<g id="node29" class="node">
<title>Node29</title>
<g id="a_node29"><a xlink:title=" ">
<polygon fill="none" stroke="#bfbfbf" points="321.74,-134.5 321.74,-153.5 368.74,-153.5 368.74,-134.5 321.74,-134.5"/>
<text text-anchor="middle" x="345.24" y="-141.5" font-family="Helvetica,sans-Serif" font-size="10.00">cmath</text>
</a>
</g>
</g>
<!-- Node7&#45;&gt;Node29 -->
<g id="edge33" class="edge">
<title>Node7&#45;&gt;Node29</title>
<path fill="none" stroke="midnightblue" d="M549.88,-190.47C507.58,-182.47 443.13,-169.71 378.85,-154.27"/>
<polygon fill="midnightblue" stroke="midnightblue" points="379.5,-150.83 368.96,-151.87 377.85,-157.63 379.5,-150.83"/>
</g>
<!-- Node30 -->
<g id="node30" class="node">
<title>Node30</title>
<g id="a_node30"><a xlink:title=" ">
<polygon fill="none" stroke="#bfbfbf" points="386.74,-134.5 386.74,-153.5 451.74,-153.5 451.74,-134.5 386.74,-134.5"/>
<text text-anchor="middle" x="419.24" y="-141.5" font-family="Helvetica,sans-Serif" font-size="10.00">functional</text>
</a>
</g>
</g>
<!-- Node7&#45;&gt;Node30 -->
<g id="edge35" class="edge">
<title>Node7&#45;&gt;Node30</title>
<path fill="none" stroke="midnightblue" d="M568.19,-190.44C538.16,-181.28 490.33,-166.69 457,-156.52"/>
<polygon fill="midnightblue" stroke="midnightblue" points="457.74,-153.09 447.16,-153.52 455.7,-159.78 457.74,-153.09"/>
</g>
<!-- Node31 -->
<g id="node31" class="node">
<title>Node31</title>
<g id="a_node31"><a xlink:title=" ">
<polygon fill="none" stroke="#bfbfbf" points="469.74,-134.5 469.74,-153.5 552.74,-153.5 552.74,-134.5 469.74,-134.5"/>
<text text-anchor="middle" x="511.24" y="-141.5" font-family="Helvetica,sans-Serif" font-size="10.00">initializer_list</text>
</a>
</g>
</g>
<!-- Node7&#45;&gt;Node31 -->
<g id="edge36" class="edge">
<title>Node7&#45;&gt;Node31</title>
<path fill="none" stroke="midnightblue" d="M582.58,-190.32C569.32,-181.9 548.97,-168.97 533.39,-159.07"/>
<polygon fill="midnightblue" stroke="midnightblue" points="535.18,-156.06 524.86,-153.65 531.43,-161.97 535.18,-156.06"/>
</g>
<!-- Node32 -->
<g id="node32" class="node">
<title>Node32</title>
<g id="a_node32"><a xlink:title=" ">
<polygon fill="none" stroke="#bfbfbf" points="571.24,-134.5 571.24,-153.5 627.24,-153.5 627.24,-134.5 571.24,-134.5"/>
<text text-anchor="middle" x="599.24" y="-141.5" font-family="Helvetica,sans-Serif" font-size="10.00">numeric</text>
</a>
</g>
</g>
<!-- Node7&#45;&gt;Node32 -->
<g id="edge38" class="edge">
<title>Node7&#45;&gt;Node32</title>
<path fill="none" stroke="midnightblue" d="M596.74,-190.08C597.13,-183.01 597.69,-172.86 598.19,-163.99"/>
<polygon fill="midnightblue" stroke="midnightblue" points="601.69,-163.93 598.75,-153.75 594.7,-163.54 601.69,-163.93"/>
</g>
<!-- Node33 -->
<g id="node33" class="node">
<title>Node33</title>
<g id="a_node33"><a xlink:title=" ">
<polygon fill="none" stroke="#bfbfbf" points="645.74,-134.5 645.74,-153.5 714.74,-153.5 714.74,-134.5 645.74,-134.5"/>
<text text-anchor="middle" x="680.24" y="-141.5" font-family="Helvetica,sans-Serif" font-size="10.00">type_traits</text>
</a>
</g>
</g>
<!-- Node7&#45;&gt;Node33 -->
<g id="edge39" class="edge">
<title>Node7&#45;&gt;Node33</title>
<path fill="none" stroke="midnightblue" d="M609.74,-190.32C622.84,-181.9 642.95,-168.97 658.35,-159.07"/>
<polygon fill="midnightblue" stroke="midnightblue" points="660.26,-162.01 666.78,-153.65 656.47,-156.12 660.26,-162.01"/>
</g>
<!-- Node10&#45;&gt;Node3 -->
<g id="edge27" class="edge">
<title>Node10&#45;&gt;Node3</title>
<path fill="none" stroke="midnightblue" d="M733.21,-135.53C663.67,-123.44 533.33,-100.65 523.24,-98 449.31,-78.58 365.3,-46.45 321.48,-28.9"/>
<polygon fill="midnightblue" stroke="midnightblue" points="322.58,-25.57 312,-25.07 319.96,-32.06 322.58,-25.57"/>
</g>
<!-- Node11 -->
<g id="node11" class="node">
<title>Node11</title>
<g id="a_node11"><a xlink:href="device__qualifier_8hpp.html" target="_top" xlink:title=" ">
<polygon fill="none" stroke="black" points="687.24,-73 687.24,-92 801.24,-92 801.24,-73 687.24,-73"/>
<text text-anchor="middle" x="744.24" y="-80" font-family="Helvetica,sans-Serif" font-size="10.00">device_qualifier.hpp</text>
</a>
</g>
</g>
<!-- Node10&#45;&gt;Node11 -->
<g id="edge10" class="edge">
<title>Node10&#45;&gt;Node11</title>
<path fill="none" stroke="midnightblue" d="M771.66,-134.48C767,-125.82 759.65,-112.15 753.73,-101.15"/>
<polygon fill="midnightblue" stroke="midnightblue" points="756.64,-99.16 748.82,-92.01 750.47,-102.47 756.64,-99.16"/>
</g>
<!-- Node10&#45;&gt;Node12 -->
<g id="edge26" class="edge">
<title>Node10&#45;&gt;Node12</title>
<path fill="none" stroke="midnightblue" d="M785.53,-134.39C793.82,-126.02 805.38,-112.48 810.24,-98 817.61,-76.02 806.89,-50.31 797.51,-33.74"/>
<polygon fill="midnightblue" stroke="midnightblue" points="800.47,-31.87 792.29,-25.13 794.48,-35.5 800.47,-31.87"/>
</g>
<!-- Node13 -->
<g id="node13" class="node">
<title>Node13</title>
<g id="a_node13"><a xlink:href="get_8hpp.html" target="_top" xlink:title=" ">
<polygon fill="none" stroke="black" points="615.74,-73 615.74,-92 668.74,-92 668.74,-73 615.74,-73"/>
<text text-anchor="middle" x="642.24" y="-80" font-family="Helvetica,sans-Serif" font-size="10.00">get.hpp</text>
</a>
</g>
</g>
<!-- Node10&#45;&gt;Node13 -->
<g id="edge12" class="edge">
<title>Node10&#45;&gt;Node13</title>
<path fill="none" stroke="midnightblue" d="M757.04,-134.48C734.45,-124.45 696.74,-107.7 670.74,-96.15"/>
<polygon fill="midnightblue" stroke="midnightblue" points="671.96,-92.87 661.4,-92.01 669.12,-99.27 671.96,-92.87"/>
</g>
<!-- Node15 -->
<g id="node15" class="node">
<title>Node15</title>
<g id="a_node15"><a xlink:href="array_8hpp.html" target="_top" xlink:title=" ">
<polygon fill="none" stroke="black" points="1239.74,-73 1239.74,-92 1364.74,-92 1364.74,-73 1239.74,-73"/>
<text text-anchor="middle" x="1302.24" y="-80" font-family="Helvetica,sans-Serif" font-size="10.00">serialization/array.hpp</text>
</a>
</g>
</g>
<!-- Node10&#45;&gt;Node15 -->
<g id="edge15" class="edge">
<title>Node10&#45;&gt;Node15</title>
<path fill="none" stroke="midnightblue" d="M819.34,-135.32C822.35,-134.85 825.34,-134.41 828.24,-134 969.85,-114.22 1136.21,-98.14 1229.42,-89.77"/>
<polygon fill="midnightblue" stroke="midnightblue" points="1229.94,-93.24 1239.59,-88.86 1229.32,-86.27 1229.94,-93.24"/>
</g>
<!-- Node10&#45;&gt;Node24 -->
<g id="edge25" class="edge">
<title>Node10&#45;&gt;Node24</title>
<path fill="none" stroke="midnightblue" d="M818.94,-134.48C869.04,-124.47 952.6,-107.79 1010.41,-96.25"/>
<polygon fill="midnightblue" stroke="midnightblue" points="1011.41,-99.61 1020.53,-94.22 1010.04,-92.75 1011.41,-99.61"/>
</g>
<!-- Node10&#45;&gt;Node25 -->
<g id="edge28" class="edge">
<title>Node10&#45;&gt;Node25</title>
<path fill="none" stroke="midnightblue" d="M733.14,-135.33C730.13,-134.86 727.14,-134.41 724.24,-134 565.99,-111.72 376.18,-93.79 297.36,-86.74"/>
<polygon fill="midnightblue" stroke="midnightblue" points="297.26,-83.22 286.99,-85.82 296.64,-90.19 297.26,-83.22"/>
</g>
<!-- Node26 -->
<g id="node26" class="node">
<title>Node26</title>
<g id="a_node26"><a xlink:title=" ">
<polygon fill="none" stroke="#bfbfbf" points="857.74,-73 857.74,-92 914.74,-92 914.74,-73 857.74,-73"/>
<text text-anchor="middle" x="886.24" y="-80" font-family="Helvetica,sans-Serif" font-size="10.00">ostream</text>
</a>
</g>
</g>
<!-- Node10&#45;&gt;Node26 -->
<g id="edge29" class="edge">
<title>Node10&#45;&gt;Node26</title>
<path fill="none" stroke="midnightblue" d="M792,-134.48C810.22,-124.62 840.41,-108.29 861.71,-96.77"/>
<polygon fill="midnightblue" stroke="midnightblue" points="863.38,-99.85 870.51,-92.01 860.05,-93.69 863.38,-99.85"/>
</g>
<!-- Node27 -->
<g id="node27" class="node">
<title>Node27</title>
<g id="a_node27"><a xlink:title=" ">
<polygon fill="none" stroke="#bfbfbf" points="532.74,-73 532.74,-92 597.74,-92 597.74,-73 532.74,-73"/>
<text text-anchor="middle" x="565.24" y="-80" font-family="Helvetica,sans-Serif" font-size="10.00">stdexcept</text>
</a>
</g>
</g>
<!-- Node10&#45;&gt;Node27 -->
<g id="edge30" class="edge">
<title>Node10&#45;&gt;Node27</title>
<path fill="none" stroke="midnightblue" d="M740.51,-134.44C705.95,-125.95 652.19,-112.18 606.24,-98 603.62,-97.19 600.93,-96.32 598.23,-95.43"/>
<polygon fill="midnightblue" stroke="midnightblue" points="599.14,-92.04 588.55,-92.11 596.87,-98.66 599.14,-92.04"/>
</g>
<!-- Node11&#45;&gt;Node12 -->
<g id="edge11" class="edge">
<title>Node11&#45;&gt;Node12</title>
<path fill="none" stroke="midnightblue" d="M749.9,-72.73C756.33,-62.79 766.96,-46.34 775.07,-33.79"/>
<polygon fill="midnightblue" stroke="midnightblue" points="778.18,-35.43 780.67,-25.13 772.3,-31.63 778.18,-35.43"/>
</g>
<!-- Node13&#45;&gt;Node3 -->
<g id="edge13" class="edge">
<title>Node13&#45;&gt;Node3</title>
<path fill="none" stroke="midnightblue" d="M623.09,-72.86C617.72,-70.7 611.82,-68.55 606.24,-67 507.57,-39.59 387.11,-25.43 327.81,-19.68"/>
<polygon fill="midnightblue" stroke="midnightblue" points="328.09,-16.19 317.8,-18.73 327.43,-23.16 328.09,-16.19"/>
</g>
<!-- Node14 -->
<g id="node14" class="node">
<title>Node14</title>
<g id="a_node14"><a xlink:title=" ">
<polygon fill="none" stroke="#bfbfbf" points="621.74,-6 621.74,-25 662.74,-25 662.74,-6 621.74,-6"/>
<text text-anchor="middle" x="642.24" y="-13" font-family="Helvetica,sans-Serif" font-size="10.00">tuple</text>
</a>
</g>
</g>
<!-- Node13&#45;&gt;Node14 -->
<g id="edge14" class="edge">
<title>Node13&#45;&gt;Node14</title>
<path fill="none" stroke="midnightblue" d="M642.24,-72.73C642.24,-63.18 642.24,-47.62 642.24,-35.28"/>
<polygon fill="midnightblue" stroke="midnightblue" points="645.74,-35.13 642.24,-25.13 638.74,-35.13 645.74,-35.13"/>
</g>
<!-- Node15&#45;&gt;Node3 -->
<g id="edge24" class="edge">
<title>Node15&#45;&gt;Node3</title>
<path fill="none" stroke="midnightblue" d="M1239.59,-75.58C1208.78,-72.77 1171.08,-69.5 1137.24,-67 824.55,-43.93 446.23,-24.28 328.21,-18.34"/>
<polygon fill="midnightblue" stroke="midnightblue" points="328.09,-14.83 317.93,-17.82 327.74,-21.82 328.09,-14.83"/>
</g>
<!-- Node16 -->
<g id="node16" class="node">
<title>Node16</title>
<g id="a_node16"><a xlink:title=" ">
<polygon fill="none" stroke="#bfbfbf" points="1504.74,-6 1504.74,-25 1637.74,-25 1637.74,-6 1504.74,-6"/>
<text text-anchor="middle" x="1571.24" y="-13" font-family="Helvetica,sans-Serif" font-size="10.00">boost/mpl/bool_fwd.hpp</text>
</a>
</g>
</g>
<!-- Node15&#45;&gt;Node16 -->
<g id="edge16" class="edge">
<title>Node15&#45;&gt;Node16</title>
<path fill="none" stroke="midnightblue" d="M1337.68,-72.94C1386.07,-61.24 1472.83,-40.28 1525.9,-27.46"/>
<polygon fill="midnightblue" stroke="midnightblue" points="1526.82,-30.83 1535.72,-25.08 1525.18,-24.03 1526.82,-30.83"/>
</g>
<!-- Node17 -->
<g id="node17" class="node">
<title>Node17</title>
<g id="a_node17"><a xlink:title=" ">
<polygon fill="none" stroke="#bfbfbf" points="1656.24,-6 1656.24,-25 1780.24,-25 1780.24,-6 1656.24,-6"/>
<text text-anchor="middle" x="1718.24" y="-13" font-family="Helvetica,sans-Serif" font-size="10.00">boost/mpl/greater.hpp</text>
</a>
</g>
</g>
<!-- Node15&#45;&gt;Node17 -->
<g id="edge17" class="edge">
<title>Node15&#45;&gt;Node17</title>
<path fill="none" stroke="midnightblue" d="M1365.05,-73.38C1434.32,-64.18 1549.01,-48.21 1647.24,-31 1654.07,-29.8 1661.24,-28.45 1668.3,-27.06"/>
<polygon fill="midnightblue" stroke="midnightblue" points="1669.39,-30.42 1678.51,-25.02 1668.02,-23.55 1669.39,-30.42"/>
</g>
<!-- Node18 -->
<g id="node18" class="node">
<title>Node18</title>
<g id="a_node18"><a xlink:title=" ">
<polygon fill="none" stroke="#bfbfbf" points="1798.24,-6 1798.24,-25 1900.24,-25 1900.24,-6 1798.24,-6"/>
<text text-anchor="middle" x="1849.24" y="-13" font-family="Helvetica,sans-Serif" font-size="10.00">boost/mpl/int.hpp</text>
</a>
</g>
</g>
<!-- Node15&#45;&gt;Node18 -->
<g id="edge18" class="edge">
<title>Node15&#45;&gt;Node18</title>
<path fill="none" stroke="midnightblue" d="M1364.87,-77.7C1457.94,-71.44 1638.03,-56.99 1789.24,-31 1795.13,-29.99 1801.29,-28.73 1807.34,-27.38"/>
<polygon fill="midnightblue" stroke="midnightblue" points="1808.39,-30.73 1817.33,-25.05 1806.8,-23.91 1808.39,-30.73"/>
</g>
<!-- Node19 -->
<g id="node19" class="node">
<title>Node19</title>
<g id="a_node19"><a xlink:title=" ">
<polygon fill="none" stroke="#bfbfbf" points="830.24,-0.5 830.24,-30.5 936.24,-30.5 936.24,-0.5 830.24,-0.5"/>
<text text-anchor="start" x="838.24" y="-18.5" font-family="Helvetica,sans-Serif" font-size="10.00">boost/mpl/integral</text>
<text text-anchor="middle" x="883.24" y="-7.5" font-family="Helvetica,sans-Serif" font-size="10.00">_c_tag.hpp</text>
</a>
</g>
</g>
<!-- Node15&#45;&gt;Node19 -->
<g id="edge19" class="edge">
<title>Node15&#45;&gt;Node19</title>
<path fill="none" stroke="midnightblue" d="M1259.15,-72.93C1248.12,-70.86 1236.26,-68.75 1225.24,-67 1104.89,-47.92 1071.02,-52.78 946.37,-30.9"/>
<polygon fill="midnightblue" stroke="midnightblue" points="946.9,-27.43 936.44,-29.13 945.67,-34.33 946.9,-27.43"/>
</g>
<!-- Node20 -->
<g id="node20" class="node">
<title>Node20</title>
<g id="a_node20"><a xlink:title=" ">
<polygon fill="none" stroke="#bfbfbf" points="954.74,-0.5 954.74,-30.5 1105.74,-30.5 1105.74,-0.5 954.74,-0.5"/>
<text text-anchor="start" x="962.74" y="-18.5" font-family="Helvetica,sans-Serif" font-size="10.00">boost/serialization</text>
<text text-anchor="middle" x="1030.24" y="-7.5" font-family="Helvetica,sans-Serif" font-size="10.00">/is_bitwise_serializable.hpp</text>
</a>
</g>
</g>
<!-- Node15&#45;&gt;Node20 -->
<g id="edge20" class="edge">
<title>Node15&#45;&gt;Node20</title>
<path fill="none" stroke="midnightblue" d="M1266.4,-72.94C1223.98,-62.8 1152.39,-45.69 1099.13,-32.96"/>
<polygon fill="midnightblue" stroke="midnightblue" points="1099.61,-29.48 1089.07,-30.56 1097.98,-36.29 1099.61,-29.48"/>
</g>
<!-- Node21 -->
<g id="node21" class="node">
<title>Node21</title>
<g id="a_node21"><a xlink:title=" ">
<polygon fill="none" stroke="#bfbfbf" points="1123.74,-0.5 1123.74,-30.5 1230.74,-30.5 1230.74,-0.5 1123.74,-0.5"/>
<text text-anchor="start" x="1131.74" y="-18.5" font-family="Helvetica,sans-Serif" font-size="10.00">boost/serialization</text>
<text text-anchor="middle" x="1177.24" y="-7.5" font-family="Helvetica,sans-Serif" font-size="10.00">/level.hpp</text>
</a>
</g>
</g>
<!-- Node15&#45;&gt;Node21 -->
<g id="edge21" class="edge">
<title>Node15&#45;&gt;Node21</title>
<path fill="none" stroke="midnightblue" d="M1285.64,-72.87C1267.35,-63.36 1237.37,-47.77 1213.56,-35.39"/>
<polygon fill="midnightblue" stroke="midnightblue" points="1214.94,-32.16 1204.45,-30.65 1211.71,-38.37 1214.94,-32.16"/>
</g>
<!-- Node22 -->
<g id="node22" class="node">
<title>Node22</title>
<g id="a_node22"><a xlink:title=" ">
<polygon fill="none" stroke="#bfbfbf" points="1248.74,-0.5 1248.74,-30.5 1355.74,-30.5 1355.74,-0.5 1248.74,-0.5"/>
<text text-anchor="start" x="1256.74" y="-18.5" font-family="Helvetica,sans-Serif" font-size="10.00">boost/serialization</text>
<text text-anchor="middle" x="1302.24" y="-7.5" font-family="Helvetica,sans-Serif" font-size="10.00">/tracking.hpp</text>
</a>
</g>
</g>
<!-- Node15&#45;&gt;Node22 -->
<g id="edge22" class="edge">
<title>Node15&#45;&gt;Node22</title>
<path fill="none" stroke="midnightblue" d="M1302.24,-72.73C1302.24,-64.54 1302.24,-51.92 1302.24,-40.71"/>
<polygon fill="midnightblue" stroke="midnightblue" points="1305.74,-40.59 1302.24,-30.59 1298.74,-40.59 1305.74,-40.59"/>
</g>
<!-- Node23 -->
<g id="node23" class="node">
<title>Node23</title>
<g id="a_node23"><a xlink:title=" ">
<polygon fill="none" stroke="#bfbfbf" points="1373.74,-0.5 1373.74,-30.5 1486.74,-30.5 1486.74,-0.5 1373.74,-0.5"/>
<text text-anchor="start" x="1381.74" y="-18.5" font-family="Helvetica,sans-Serif" font-size="10.00">boost/serialization</text>
<text text-anchor="middle" x="1430.24" y="-7.5" font-family="Helvetica,sans-Serif" font-size="10.00">/tracking_enum.hpp</text>
</a>
</g>
</g>
<!-- Node15&#45;&gt;Node23 -->
<g id="edge23" class="edge">
<title>Node15&#45;&gt;Node23</title>
<path fill="none" stroke="midnightblue" d="M1319.24,-72.87C1338.05,-63.31 1368.94,-47.63 1393.37,-35.22"/>
<polygon fill="midnightblue" stroke="midnightblue" points="1395.04,-38.3 1402.37,-30.65 1391.87,-32.06 1395.04,-38.3"/>
</g>
</g>
</svg>
