<?xml version="1.0" encoding="UTF-8" standalone="no"?>
<!DOCTYPE svg PUBLIC "-//W3C//DTD SVG 1.1//EN"
 "http://www.w3.org/Graphics/SVG/1.1/DTD/svg11.dtd">
<!-- Generated by graphviz version 2.43.0 (0)
 -->
<!-- Title: scafacos.hpp Pages: 1 -->
<!--zoomable 335 -->

<svg id="main" version="1.1" xmlns="http://www.w3.org/2000/svg" xmlns:xlink="http://www.w3.org/1999/xlink" xml:space="preserve" onload="init(evt)">
<style type="text/css"><![CDATA[
.node, .edge {opacity: 0.7;}
.node.selected, .edge.selected {opacity: 1;}
.edge:hover path { stroke: red; }
.edge:hover polygon { stroke: red; fill: red; }
]]></style>

<defs>
  <circle id="rim" cx="0" cy="0" r="7"/>
  <circle id="rim2" cx="0" cy="0" r="3.5"/>
  <g id="zoomPlus">
    <use xlink:href="#rim" fill="#404040"><set attributeName="fill" to="#808080" begin="zoomplus.mouseover" end="zoomplus.mouseout"/></use>
    <path d="M-4,0h8M0,-4v8" fill="none" stroke="white" stroke-width="1.5" pointer-events="none"/>
  </g>
  <g id="zoomMin">
    <use xlink:href="#rim" fill="#404040"><set attributeName="fill" to="#808080" begin="zoomminus.mouseover" end="zoomminus.mouseout"/></use>
    <path d="M-4,0h8" fill="none" stroke="white" stroke-width="1.5" pointer-events="none"/>
  </g>
  <g id="arrowUp" transform="translate(30 24)">
    <use xlink:href="#rim"/>
    <path pointer-events="none" fill="none" stroke="white" stroke-width="1.5" d="M0,-3.0v7 M-2.5,-0.5L0,-3.0L2.5,-0.5"/>
  </g>
  <g id="arrowRight" transform="rotate(90) translate(36 -43)">
    <use xlink:href="#rim"/>
    <path pointer-events="none" fill="none" stroke="white" stroke-width="1.5" d="M0,-3.0v7 M-2.5,-0.5L0,-3.0L2.5,-0.5"/>
  </g>
  <g id="arrowDown" transform="rotate(180) translate(-30 -48)">
    <use xlink:href="#rim"/>
    <path pointer-events="none" fill="none" stroke="white" stroke-width="1.5" d="M0,-3.0v7 M-2.5,-0.5L0,-3.0L2.5,-0.5"/>
  </g>
  <g id="arrowLeft" transform="rotate(270) translate(-36 17)">
    <use xlink:href="#rim"/>
    <path pointer-events="none" fill="none" stroke="white" stroke-width="1.5" d="M0,-3.0v7 M-2.5,-0.5L0,-3.0L2.5,-0.5"/>
  </g>
  <g id="resetDef">
    <use xlink:href="#rim2" fill="#404040"><set attributeName="fill" to="#808080" begin="reset.mouseover" end="reset.mouseout"/></use>
  </g>
</defs>
<script type="application/ecmascript">
var viewWidth = 2047;
var viewHeight = 335;
var sectionId = 'dynsection-0';
</script>
<script type="application/ecmascript" xlink:href="svg.min.js"/>
<svg id="graph" class="graph">
<g id="viewport">
<title>scafacos.hpp</title>
<!-- Node1 -->
<g id="Node000001" class="node">
<title>Node1</title>
<g id="a_Node000001"><a xlink:title=" ">
<polygon fill="#999999" stroke="#666666" points="779.5,-327 699.5,-327 699.5,-308 779.5,-308 779.5,-327"/>
<text text-anchor="middle" x="739.5" y="-315" font-family="Helvetica,sans-Serif" font-size="10.00">scafacos.hpp</text>
</a>
</g>
</g>
<!-- Node2 -->
<g id="Node000002" class="node">
<title>Node2</title>
<g id="a_Node000002"><a xlink:href="config_8hpp.html" target="_top" xlink:title="This file contains the defaults for ESPResSo.">
<polygon fill="white" stroke="#666666" points="440,-206 341,-206 341,-187 440,-187 440,-206"/>
<text text-anchor="middle" x="390.5" y="-194" font-family="Helvetica,sans-Serif" font-size="10.00">config/config.hpp</text>
</a>
</g>
</g>
<!-- Node1&#45;&gt;Node2 -->
<g id="edge1_Node000001_Node000002" class="edge">
<title>Node1&#45;&gt;Node2</title>
<g id="a_edge1_Node000001_Node000002"><a xlink:title=" ">
<path fill="none" stroke="#63b8ff" d="M714.4,-307.94C653.18,-287.07 496.03,-233.48 425.58,-209.46"/>
<polygon fill="#63b8ff" stroke="#63b8ff" points="426.44,-206.06 415.84,-206.14 424.18,-212.68 426.44,-206.06"/>
</a>
</g>
</g>
<!-- Node4 -->
<g id="Node000004" class="node">
<title>Node4</title>
<g id="a_Node000004"><a xlink:href="electrostatics_2actor_8hpp.html" target="_top" xlink:title=" ">
<polygon fill="white" stroke="#666666" points="407,-266.5 276,-266.5 276,-247.5 407,-247.5 407,-266.5"/>
<text text-anchor="middle" x="341.5" y="-254.5" font-family="Helvetica,sans-Serif" font-size="10.00">electrostatics/actor.hpp</text>
</a>
</g>
</g>
<!-- Node1&#45;&gt;Node4 -->
<g id="edge3_Node000001_Node000004" class="edge">
<title>Node1&#45;&gt;Node4</title>
<g id="a_edge3_Node000001_Node000004"><a xlink:title=" ">
<path fill="none" stroke="#63b8ff" d="M699.17,-311.15C639.21,-303.13 523.02,-287.26 424.5,-272 416.78,-270.8 408.67,-269.5 400.67,-268.18"/>
<polygon fill="#63b8ff" stroke="#63b8ff" points="401.06,-264.7 390.62,-266.51 399.91,-271.6 401.06,-264.7"/>
</a>
</g>
</g>
<!-- Node7 -->
<g id="Node000007" class="node">
<title>Node7</title>
<g id="a_Node000007"><a xlink:href="ScafacosContextBase_8hpp.html" target="_top" xlink:title="ScafacosContextBase provides the public interface of the ScaFaCoS bridge.">
<polygon fill="white" stroke="#666666" points="861.5,-272 717.5,-272 717.5,-242 861.5,-242 861.5,-272"/>
<text text-anchor="start" x="725.5" y="-260" font-family="Helvetica,sans-Serif" font-size="10.00">scafacos/ScafacosContext</text>
<text text-anchor="middle" x="789.5" y="-249" font-family="Helvetica,sans-Serif" font-size="10.00">Base.hpp</text>
</a>
</g>
</g>
<!-- Node1&#45;&gt;Node7 -->
<g id="edge7_Node000001_Node000007" class="edge">
<title>Node1&#45;&gt;Node7</title>
<g id="a_edge7_Node000001_Node000007"><a xlink:title=" ">
<path fill="none" stroke="#63b8ff" d="M746.88,-307.87C753.16,-300.52 762.46,-289.63 770.77,-279.91"/>
<polygon fill="#63b8ff" stroke="#63b8ff" points="773.6,-281.99 777.44,-272.11 768.28,-277.44 773.6,-281.99"/>
</a>
</g>
</g>
<!-- Node8 -->
<g id="Node000008" class="node">
<title>Node8</title>
<g id="a_Node000008"><a xlink:href="Vector_8hpp.html" target="_top" xlink:title="Vector implementation and trait types for boost qvm interoperability.">
<polygon fill="white" stroke="#666666" points="823.5,-206 731.5,-206 731.5,-187 823.5,-187 823.5,-206"/>
<text text-anchor="middle" x="777.5" y="-194" font-family="Helvetica,sans-Serif" font-size="10.00">utils/Vector.hpp</text>
</a>
</g>
</g>
<!-- Node1&#45;&gt;Node8 -->
<g id="edge47_Node000001_Node000008" class="edge">
<title>Node1&#45;&gt;Node8</title>
<g id="a_edge47_Node000001_Node000008"><a xlink:title=" ">
<path fill="none" stroke="#63b8ff" d="M731.02,-307.97C718.05,-293.84 696.03,-264.88 708.5,-242 716.15,-227.97 730.33,-217.69 743.86,-210.57"/>
<polygon fill="#63b8ff" stroke="#63b8ff" points="745.55,-213.64 753.03,-206.14 742.51,-207.34 745.55,-213.64"/>
</a>
</g>
</g>
<!-- Node37 -->
<g id="Node000037" class="node">
<title>Node37</title>
<g id="a_Node000037"><a xlink:title=" ">
<polygon fill="#e0e0e0" stroke="#999999" points="923.5,-206 879.5,-206 879.5,-187 923.5,-187 923.5,-206"/>
<text text-anchor="middle" x="901.5" y="-194" font-family="Helvetica,sans-Serif" font-size="10.00">string</text>
</a>
</g>
</g>
<!-- Node1&#45;&gt;Node37 -->
<g id="edge49_Node000001_Node000037" class="edge">
<title>Node1&#45;&gt;Node37</title>
<g id="a_edge49_Node000001_Node000037"><a xlink:title=" ">
<path fill="none" stroke="#63b8ff" d="M779.78,-311.69C808.27,-306.36 845.68,-295.22 870.5,-272 886.29,-257.23 894.31,-233.18 898.19,-216.42"/>
<polygon fill="#63b8ff" stroke="#63b8ff" points="901.71,-216.67 900.26,-206.18 894.85,-215.29 901.71,-216.67"/>
</a>
</g>
</g>
<!-- Node38 -->
<g id="Node000038" class="node">
<title>Node38</title>
<g id="a_Node000038"><a xlink:title=" ">
<polygon fill="#e0e0e0" stroke="#999999" points="975.5,-266.5 917.5,-266.5 917.5,-247.5 975.5,-247.5 975.5,-266.5"/>
<text text-anchor="middle" x="946.5" y="-254.5" font-family="Helvetica,sans-Serif" font-size="10.00">memory</text>
</a>
</g>
</g>
<!-- Node1&#45;&gt;Node38 -->
<g id="edge48_Node000001_Node000038" class="edge">
<title>Node1&#45;&gt;Node38</title>
<g id="a_edge48_Node000001_Node000038"><a xlink:title=" ">
<path fill="none" stroke="#63b8ff" d="M772.93,-307.95C806.17,-299.33 858.55,-285.41 903.5,-272 906.09,-271.23 908.76,-270.41 911.45,-269.57"/>
<polygon fill="#63b8ff" stroke="#63b8ff" points="912.63,-272.87 921.1,-266.5 910.51,-266.2 912.63,-272.87"/>
</a>
</g>
</g>
<!-- Node3 -->
<g id="Node000003" class="node">
<title>Node3</title>
<g id="a_Node000003"><a xlink:title=" ">
<polygon fill="#e0e0e0" stroke="#999999" points="297,-151 154,-151 154,-132 297,-132 297,-151"/>
<text text-anchor="middle" x="225.5" y="-139" font-family="Helvetica,sans-Serif" font-size="10.00">config/config&#45;features.hpp</text>
</a>
</g>
</g>
<!-- Node2&#45;&gt;Node3 -->
<g id="edge2_Node000002_Node000003" class="edge">
<title>Node2&#45;&gt;Node3</title>
<g id="a_edge2_Node000002_Node000003"><a xlink:title=" ">
<path fill="none" stroke="#63b8ff" d="M363.99,-186.98C336.29,-178.09 292.64,-164.07 261.76,-154.15"/>
<polygon fill="#63b8ff" stroke="#63b8ff" points="262.81,-150.81 252.22,-151.08 260.67,-157.47 262.81,-150.81"/>
</a>
</g>
</g>
<!-- Node4&#45;&gt;Node2 -->
<g id="edge4_Node000004_Node000002" class="edge">
<title>Node4&#45;&gt;Node2</title>
<g id="a_edge4_Node000004_Node000002"><a xlink:title=" ">
<path fill="none" stroke="#63b8ff" d="M348.73,-247.37C356.04,-238.64 367.52,-224.93 376.6,-214.09"/>
<polygon fill="#63b8ff" stroke="#63b8ff" points="379.5,-216.08 383.24,-206.17 374.14,-211.59 379.5,-216.08"/>
</a>
</g>
</g>
<!-- Node5 -->
<g id="Node000005" class="node">
<title>Node5</title>
<g id="a_Node000005"><a xlink:title=" ">
<polygon fill="#e0e0e0" stroke="#999999" points="97,-206 0,-206 0,-187 97,-187 97,-206"/>
<text text-anchor="middle" x="48.5" y="-194" font-family="Helvetica,sans-Serif" font-size="10.00">system/Leaf.hpp</text>
</a>
</g>
</g>
<!-- Node4&#45;&gt;Node5 -->
<g id="edge5_Node000004_Node000005" class="edge">
<title>Node4&#45;&gt;Node5</title>
<g id="a_edge5_Node000004_Node000005"><a xlink:title=" ">
<path fill="none" stroke="#63b8ff" d="M298.9,-247.49C246.49,-237.03 157.54,-219.27 100.98,-207.98"/>
<polygon fill="#63b8ff" stroke="#63b8ff" points="101.65,-204.54 91.16,-206.02 100.28,-211.41 101.65,-204.54"/>
</a>
</g>
</g>
<!-- Node6 -->
<g id="Node000006" class="node">
<title>Node6</title>
<g id="a_Node000006"><a xlink:title=" ">
<polygon fill="#e0e0e0" stroke="#999999" points="971,-90.5 906,-90.5 906,-71.5 971,-71.5 971,-90.5"/>
<text text-anchor="middle" x="938.5" y="-78.5" font-family="Helvetica,sans-Serif" font-size="10.00">stdexcept</text>
</a>
</g>
</g>
<!-- Node4&#45;&gt;Node6 -->
<g id="edge6_Node000004_Node000006" class="edge">
<title>Node4&#45;&gt;Node6</title>
<g id="a_edge6_Node000004_Node000006"><a xlink:title=" ">
<path fill="none" stroke="#63b8ff" d="M301.88,-247.5C230.19,-230.46 91.11,-188.86 144.5,-132 170.4,-104.41 734.02,-87.41 895.57,-83.09"/>
<polygon fill="#63b8ff" stroke="#63b8ff" points="895.72,-86.59 905.62,-82.83 895.53,-79.59 895.72,-86.59"/>
</a>
</g>
</g>
<!-- Node7&#45;&gt;Node2 -->
<g id="edge8_Node000007_Node000002" class="edge">
<title>Node7&#45;&gt;Node2</title>
<g id="a_edge8_Node000007_Node000002"><a xlink:title=" ">
<path fill="none" stroke="#63b8ff" d="M717.24,-245.41C640.83,-234.2 521.67,-216.73 450.33,-206.27"/>
<polygon fill="#63b8ff" stroke="#63b8ff" points="450.56,-202.77 440.16,-204.78 449.55,-209.7 450.56,-202.77"/>
</a>
</g>
</g>
<!-- Node7&#45;&gt;Node8 -->
<g id="edge9_Node000007_Node000008" class="edge">
<title>Node7&#45;&gt;Node8</title>
<g id="a_edge9_Node000007_Node000008"><a xlink:title=" ">
<path fill="none" stroke="#63b8ff" d="M786.6,-241.84C785.01,-234.13 783.04,-224.49 781.33,-216.17"/>
<polygon fill="#63b8ff" stroke="#63b8ff" points="784.74,-215.36 779.3,-206.27 777.88,-216.77 784.74,-215.36"/>
</a>
</g>
</g>
<!-- Node36 -->
<g id="Node000036" class="node">
<title>Node36</title>
<g id="a_Node000036"><a xlink:title=" ">
<polygon fill="#e0e0e0" stroke="#999999" points="1770,-151 1723,-151 1723,-132 1770,-132 1770,-151"/>
<text text-anchor="middle" x="1746.5" y="-139" font-family="Helvetica,sans-Serif" font-size="10.00">vector</text>
</a>
</g>
</g>
<!-- Node7&#45;&gt;Node36 -->
<g id="edge46_Node000007_Node000036" class="edge">
<title>Node7&#45;&gt;Node36</title>
<g id="a_edge46_Node000007_Node000036"><a xlink:title=" ">
<path fill="none" stroke="#63b8ff" d="M800.89,-241.76C815.14,-225.14 841.27,-198.48 870.5,-187 1043.99,-118.86 1523.72,-175.44 1708.5,-151 1709.97,-150.81 1711.46,-150.58 1712.96,-150.34"/>
<polygon fill="#63b8ff" stroke="#63b8ff" points="1713.72,-153.76 1722.9,-148.46 1712.42,-146.88 1713.72,-153.76"/>
</a>
</g>
</g>
<!-- Node7&#45;&gt;Node37 -->
<g id="edge45_Node000007_Node000037" class="edge">
<title>Node7&#45;&gt;Node37</title>
<g id="a_edge45_Node000007_Node000037"><a xlink:title=" ">
<path fill="none" stroke="#63b8ff" d="M816.33,-241.99C834.35,-232.58 857.96,-220.24 875.75,-210.95"/>
<polygon fill="#63b8ff" stroke="#63b8ff" points="877.72,-213.87 884.96,-206.14 874.48,-207.67 877.72,-213.87"/>
</a>
</g>
</g>
<!-- Node9 -->
<g id="Node000009" class="node">
<title>Node9</title>
<g id="a_Node000009"><a xlink:title=" ">
<polygon fill="#e0e0e0" stroke="#999999" points="1093.5,-151 943.5,-151 943.5,-132 1093.5,-132 1093.5,-151"/>
<text text-anchor="middle" x="1018.5" y="-139" font-family="Helvetica,sans-Serif" font-size="10.00">boost/qvm/deduce_vec.hpp</text>
</a>
</g>
</g>
<!-- Node8&#45;&gt;Node9 -->
<g id="edge10_Node000008_Node000009" class="edge">
<title>Node8&#45;&gt;Node9</title>
<g id="a_edge10_Node000008_Node000009"><a xlink:title=" ">
<path fill="none" stroke="#63b8ff" d="M816.22,-186.98C857.91,-177.82 924.32,-163.21 969.59,-153.26"/>
<polygon fill="#63b8ff" stroke="#63b8ff" points="970.46,-156.65 979.48,-151.08 968.96,-149.81 970.46,-156.65"/>
</a>
</g>
</g>
<!-- Node10 -->
<g id="Node000010" class="node">
<title>Node10</title>
<g id="a_Node000010"><a xlink:title=" ">
<polygon fill="#e0e0e0" stroke="#999999" points="1251.5,-151 1111.5,-151 1111.5,-132 1251.5,-132 1251.5,-151"/>
<text text-anchor="middle" x="1181.5" y="-139" font-family="Helvetica,sans-Serif" font-size="10.00">boost/qvm/vec_traits.hpp</text>
</a>
</g>
</g>
<!-- Node8&#45;&gt;Node10 -->
<g id="edge11_Node000008_Node000010" class="edge">
<title>Node8&#45;&gt;Node10</title>
<g id="a_edge11_Node000008_Node000010"><a xlink:title=" ">
<path fill="none" stroke="#63b8ff" d="M823.68,-188.9C828.35,-188.25 833.02,-187.61 837.5,-187 928.79,-174.63 1033.81,-161.15 1103.56,-152.31"/>
<polygon fill="#63b8ff" stroke="#63b8ff" points="1104.11,-155.77 1113.59,-151.04 1103.23,-148.82 1104.11,-155.77"/>
</a>
</g>
</g>
<!-- Node11 -->
<g id="Node000011" class="node">
<title>Node11</title>
<g id="a_Node000011"><a xlink:href="Array_8hpp.html" target="_top" xlink:title="Array implementation with CUDA support.">
<polygon fill="white" stroke="#666666" points="1355.5,-151 1269.5,-151 1269.5,-132 1355.5,-132 1355.5,-151"/>
<text text-anchor="middle" x="1312.5" y="-139" font-family="Helvetica,sans-Serif" font-size="10.00">utils/Array.hpp</text>
</a>
</g>
</g>
<!-- Node8&#45;&gt;Node11 -->
<g id="edge12_Node000008_Node000011" class="edge">
<title>Node8&#45;&gt;Node11</title>
<g id="a_edge12_Node000008_Node000011"><a xlink:title=" ">
<path fill="none" stroke="#63b8ff" d="M823.65,-188.7C828.33,-188.09 833,-187.51 837.5,-187 1021.78,-166.12 1071.57,-173.96 1259.48,-151.03"/>
<polygon fill="#63b8ff" stroke="#63b8ff" points="1259.91,-154.5 1269.41,-149.81 1259.05,-147.56 1259.91,-154.5"/>
</a>
</g>
</g>
<!-- Node13 -->
<g id="Node000013" class="node">
<title>Node13</title>
<g id="a_Node000013"><a xlink:title=" ">
<polygon fill="#e0e0e0" stroke="#999999" points="2038.5,-24.5 1986.5,-24.5 1986.5,-5.5 2038.5,-5.5 2038.5,-24.5"/>
<text text-anchor="middle" x="2012.5" y="-12.5" font-family="Helvetica,sans-Serif" font-size="10.00">cassert</text>
</a>
</g>
</g>
<!-- Node8&#45;&gt;Node13 -->
<g id="edge35_Node000008_Node000013" class="edge">
<title>Node8&#45;&gt;Node13</title>
<g id="a_edge35_Node000008_Node000013"><a xlink:title=" ">
<path fill="none" stroke="#63b8ff" d="M823.5,-188.32C827.22,-187.83 830.92,-187.39 834.5,-187 1069.22,-161.57 1130.14,-179.6 1364.5,-151 1503.83,-134 1537.8,-123.21 1675.5,-96 1810.28,-69.36 1846.16,-70.32 1977.5,-30 1979.38,-29.42 1981.29,-28.79 1983.22,-28.12"/>
<polygon fill="#63b8ff" stroke="#63b8ff" points="1984.57,-31.35 1992.71,-24.57 1982.12,-24.79 1984.57,-31.35"/>
</a>
</g>
</g>
<!-- Node15 -->
<g id="Node000015" class="node">
<title>Node15</title>
<g id="a_Node000015"><a xlink:title=" ">
<polygon fill="#e0e0e0" stroke="#999999" points="821,-24.5 768,-24.5 768,-5.5 821,-5.5 821,-24.5"/>
<text text-anchor="middle" x="794.5" y="-12.5" font-family="Helvetica,sans-Serif" font-size="10.00">cstddef</text>
</a>
</g>
</g>
<!-- Node8&#45;&gt;Node15 -->
<g id="edge37_Node000008_Node000015" class="edge">
<title>Node8&#45;&gt;Node15</title>
<g id="a_edge37_Node000008_Node000015"><a xlink:title=" ">
<path fill="none" stroke="#63b8ff" d="M808.55,-186.87C826.25,-180.18 846.95,-168.95 857.5,-151 881.74,-109.78 838.11,-57.69 812,-31.93"/>
<polygon fill="#63b8ff" stroke="#63b8ff" points="814.2,-29.19 804.55,-24.82 809.37,-34.25 814.2,-29.19"/>
</a>
</g>
</g>
<!-- Node27 -->
<g id="Node000027" class="node">
<title>Node27</title>
<g id="a_Node000027"><a xlink:title=" ">
<polygon fill="#e0e0e0" stroke="#999999" points="1042,-90.5 989,-90.5 989,-71.5 1042,-71.5 1042,-90.5"/>
<text text-anchor="middle" x="1015.5" y="-78.5" font-family="Helvetica,sans-Serif" font-size="10.00">iterator</text>
</a>
</g>
</g>
<!-- Node8&#45;&gt;Node27 -->
<g id="edge40_Node000008_Node000027" class="edge">
<title>Node8&#45;&gt;Node27</title>
<g id="a_edge40_Node000008_Node000027"><a xlink:title=" ">
<path fill="none" stroke="#63b8ff" d="M802.37,-186.9C825.74,-178.55 861.51,-165.12 891.5,-151 927.87,-133.88 968.25,-110.56 992.75,-95.89"/>
<polygon fill="#63b8ff" stroke="#63b8ff" points="994.57,-98.88 1001.32,-90.72 990.95,-92.89 994.57,-98.88"/>
</a>
</g>
</g>
<!-- Node29 -->
<g id="Node000029" class="node">
<title>Node29</title>
<g id="a_Node000029"><a xlink:title=" ">
<polygon fill="#e0e0e0" stroke="#999999" points="379.5,-151 315.5,-151 315.5,-132 379.5,-132 379.5,-151"/>
<text text-anchor="middle" x="347.5" y="-139" font-family="Helvetica,sans-Serif" font-size="10.00">algorithm</text>
</a>
</g>
</g>
<!-- Node8&#45;&gt;Node29 -->
<g id="edge34_Node000008_Node000029" class="edge">
<title>Node8&#45;&gt;Node29</title>
<g id="a_edge34_Node000008_Node000029"><a xlink:title=" ">
<path fill="none" stroke="#63b8ff" d="M731.21,-191.57C659.98,-185.23 519.05,-171.49 389.76,-151.07"/>
<polygon fill="#63b8ff" stroke="#63b8ff" points="390.1,-147.58 379.68,-149.46 389,-154.49 390.1,-147.58"/>
</a>
</g>
</g>
<!-- Node30 -->
<g id="Node000030" class="node">
<title>Node30</title>
<g id="a_Node000030"><a xlink:title=" ">
<polygon fill="#e0e0e0" stroke="#999999" points="445,-151 398,-151 398,-132 445,-132 445,-151"/>
<text text-anchor="middle" x="421.5" y="-139" font-family="Helvetica,sans-Serif" font-size="10.00">cmath</text>
</a>
</g>
</g>
<!-- Node8&#45;&gt;Node30 -->
<g id="edge36_Node000008_Node000030" class="edge">
<title>Node8&#45;&gt;Node30</title>
<g id="a_edge36_Node000008_Node000030"><a xlink:title=" ">
<path fill="none" stroke="#63b8ff" d="M731.33,-190.97C670.18,-184.57 558.85,-171.54 455.19,-151.14"/>
<polygon fill="#63b8ff" stroke="#63b8ff" points="455.68,-147.67 445.19,-149.14 454.31,-154.53 455.68,-147.67"/>
</a>
</g>
</g>
<!-- Node31 -->
<g id="Node000031" class="node">
<title>Node31</title>
<g id="a_Node000031"><a xlink:title=" ">
<polygon fill="#e0e0e0" stroke="#999999" points="528,-151 463,-151 463,-132 528,-132 528,-151"/>
<text text-anchor="middle" x="495.5" y="-139" font-family="Helvetica,sans-Serif" font-size="10.00">functional</text>
</a>
</g>
</g>
<!-- Node8&#45;&gt;Node31 -->
<g id="edge38_Node000008_Node000031" class="edge">
<title>Node8&#45;&gt;Node31</title>
<g id="a_edge38_Node000008_Node000031"><a xlink:title=" ">
<path fill="none" stroke="#63b8ff" d="M731.24,-187.27C684.86,-178.95 611.14,-165.53 538.41,-151.34"/>
<polygon fill="#63b8ff" stroke="#63b8ff" points="538.65,-147.82 528.16,-149.34 537.3,-154.69 538.65,-147.82"/>
</a>
</g>
</g>
<!-- Node32 -->
<g id="Node000032" class="node">
<title>Node32</title>
<g id="a_Node000032"><a xlink:title=" ">
<polygon fill="#e0e0e0" stroke="#999999" points="629,-151 546,-151 546,-132 629,-132 629,-151"/>
<text text-anchor="middle" x="587.5" y="-139" font-family="Helvetica,sans-Serif" font-size="10.00">initializer_list</text>
</a>
</g>
</g>
<!-- Node8&#45;&gt;Node32 -->
<g id="edge39_Node000008_Node000032" class="edge">
<title>Node8&#45;&gt;Node32</title>
<g id="a_edge39_Node000008_Node000032"><a xlink:title=" ">
<path fill="none" stroke="#63b8ff" d="M746.97,-186.98C714.8,-178.01 663.94,-163.82 628.33,-153.89"/>
<polygon fill="#63b8ff" stroke="#63b8ff" points="628.84,-150.4 618.27,-151.08 626.96,-157.14 628.84,-150.4"/>
</a>
</g>
</g>
<!-- Node33 -->
<g id="Node000033" class="node">
<title>Node33</title>
<g id="a_Node000033"><a xlink:title=" ">
<polygon fill="#e0e0e0" stroke="#999999" points="703.5,-151 647.5,-151 647.5,-132 703.5,-132 703.5,-151"/>
<text text-anchor="middle" x="675.5" y="-139" font-family="Helvetica,sans-Serif" font-size="10.00">numeric</text>
</a>
</g>
</g>
<!-- Node8&#45;&gt;Node33 -->
<g id="edge41_Node000008_Node000033" class="edge">
<title>Node8&#45;&gt;Node33</title>
<g id="a_edge41_Node000008_Node000033"><a xlink:title=" ">
<path fill="none" stroke="#63b8ff" d="M761.11,-186.98C744.93,-178.57 719.93,-165.59 701.12,-155.81"/>
<polygon fill="#63b8ff" stroke="#63b8ff" points="702.67,-152.68 692.19,-151.17 699.45,-158.89 702.67,-152.68"/>
</a>
</g>
</g>
<!-- Node34 -->
<g id="Node000034" class="node">
<title>Node34</title>
<g id="a_Node000034"><a xlink:title=" ">
<polygon fill="#e0e0e0" stroke="#999999" points="761.5,-151 721.5,-151 721.5,-132 761.5,-132 761.5,-151"/>
<text text-anchor="middle" x="741.5" y="-139" font-family="Helvetica,sans-Serif" font-size="10.00">span</text>
</a>
</g>
</g>
<!-- Node8&#45;&gt;Node34 -->
<g id="edge42_Node000008_Node000034" class="edge">
<title>Node8&#45;&gt;Node34</title>
<g id="a_edge42_Node000008_Node000034"><a xlink:title=" ">
<path fill="none" stroke="#63b8ff" d="M771.56,-186.75C766.52,-179.34 759.16,-168.5 752.99,-159.41"/>
<polygon fill="#63b8ff" stroke="#63b8ff" points="755.85,-157.39 747.33,-151.09 750.06,-161.33 755.85,-157.39"/>
</a>
</g>
</g>
<!-- Node35 -->
<g id="Node000035" class="node">
<title>Node35</title>
<g id="a_Node000035"><a xlink:title=" ">
<polygon fill="#e0e0e0" stroke="#999999" points="849,-151 780,-151 780,-132 849,-132 849,-151"/>
<text text-anchor="middle" x="814.5" y="-139" font-family="Helvetica,sans-Serif" font-size="10.00">type_traits</text>
</a>
</g>
</g>
<!-- Node8&#45;&gt;Node35 -->
<g id="edge43_Node000008_Node000035" class="edge">
<title>Node8&#45;&gt;Node35</title>
<g id="a_edge43_Node000008_Node000035"><a xlink:title=" ">
<path fill="none" stroke="#63b8ff" d="M783.61,-186.75C788.78,-179.34 796.35,-168.5 802.69,-159.41"/>
<polygon fill="#63b8ff" stroke="#63b8ff" points="805.65,-161.29 808.5,-151.09 799.91,-157.29 805.65,-161.29"/>
</a>
</g>
</g>
<!-- Node8&#45;&gt;Node36 -->
<g id="edge44_Node000008_Node000036" class="edge">
<title>Node8&#45;&gt;Node36</title>
<g id="a_edge44_Node000008_Node000036"><a xlink:title=" ">
<path fill="none" stroke="#63b8ff" d="M823.63,-188.49C828.31,-187.92 832.99,-187.41 837.5,-187 1223.34,-151.78 1324.36,-201.49 1708.5,-151 1709.97,-150.81 1711.46,-150.59 1712.96,-150.34"/>
<polygon fill="#63b8ff" stroke="#63b8ff" points="1713.72,-153.76 1722.9,-148.46 1712.42,-146.88 1713.72,-153.76"/>
</a>
</g>
</g>
<!-- Node11&#45;&gt;Node6 -->
<g id="edge33_Node000011_Node000006" class="edge">
<title>Node11&#45;&gt;Node6</title>
<g id="a_edge33_Node000011_Node000006"><a xlink:title=" ">
<path fill="none" stroke="#63b8ff" d="M1269.39,-133.33C1266.38,-132.87 1263.4,-132.42 1260.5,-132 1135.91,-113.84 1102.14,-124.49 979.5,-96 976.52,-95.31 973.45,-94.48 970.4,-93.58"/>
<polygon fill="#63b8ff" stroke="#63b8ff" points="971.41,-90.23 960.82,-90.53 969.29,-96.9 971.41,-90.23"/>
</a>
</g>
</g>
<!-- Node12 -->
<g id="Node000012" class="node">
<title>Node12</title>
<g id="a_Node000012"><a xlink:href="device__qualifier_8hpp.html" target="_top" xlink:title=" ">
<polygon fill="white" stroke="#666666" points="1502.5,-90.5 1388.5,-90.5 1388.5,-71.5 1502.5,-71.5 1502.5,-90.5"/>
<text text-anchor="middle" x="1445.5" y="-78.5" font-family="Helvetica,sans-Serif" font-size="10.00">device_qualifier.hpp</text>
</a>
</g>
</g>
<!-- Node11&#45;&gt;Node12 -->
<g id="edge13_Node000011_Node000012" class="edge">
<title>Node11&#45;&gt;Node12</title>
<g id="a_edge13_Node000011_Node000012"><a xlink:title=" ">
<path fill="none" stroke="#63b8ff" d="M1331.84,-131.99C1354.2,-122.16 1391.21,-105.88 1416.9,-94.58"/>
<polygon fill="#63b8ff" stroke="#63b8ff" points="1418.39,-97.75 1426.14,-90.52 1415.57,-91.34 1418.39,-97.75"/>
</a>
</g>
</g>
<!-- Node11&#45;&gt;Node13 -->
<g id="edge29_Node000011_Node000013" class="edge">
<title>Node11&#45;&gt;Node13</title>
<g id="a_edge29_Node000011_Node000013"><a xlink:title=" ">
<path fill="none" stroke="#63b8ff" d="M1355.78,-136.31C1397.32,-131.04 1461,-119.64 1511.5,-96 1531.31,-86.73 1530.11,-73.91 1550.5,-66 1728.07,2.85 1792.16,-73.85 1977.5,-30 1979.81,-29.45 1982.17,-28.78 1984.52,-28.03"/>
<polygon fill="#63b8ff" stroke="#63b8ff" points="1985.74,-31.31 1993.94,-24.61 1983.35,-24.73 1985.74,-31.31"/>
</a>
</g>
</g>
<!-- Node14 -->
<g id="Node000014" class="node">
<title>Node14</title>
<g id="a_Node000014"><a xlink:href="get_8hpp.html" target="_top" xlink:title=" ">
<polygon fill="white" stroke="#666666" points="1227,-90.5 1174,-90.5 1174,-71.5 1227,-71.5 1227,-90.5"/>
<text text-anchor="middle" x="1200.5" y="-78.5" font-family="Helvetica,sans-Serif" font-size="10.00">get.hpp</text>
</a>
</g>
</g>
<!-- Node11&#45;&gt;Node14 -->
<g id="edge15_Node000011_Node000014" class="edge">
<title>Node11&#45;&gt;Node14</title>
<g id="a_edge15_Node000011_Node000014"><a xlink:title=" ">
<path fill="none" stroke="#63b8ff" d="M1295.97,-131.87C1277.53,-122.23 1247.46,-106.53 1225.99,-95.31"/>
<polygon fill="#63b8ff" stroke="#63b8ff" points="1227.58,-92.19 1217.09,-90.67 1224.34,-98.4 1227.58,-92.19"/>
</a>
</g>
</g>
<!-- Node11&#45;&gt;Node15 -->
<g id="edge30_Node000011_Node000015" class="edge">
<title>Node11&#45;&gt;Node15</title>
<g id="a_edge30_Node000011_Node000015"><a xlink:title=" ">
<path fill="none" stroke="#63b8ff" d="M1269.43,-132.95C1209.53,-122.29 1106.58,-103.31 1090.5,-96 1070.59,-86.95 1071.57,-74.68 1051.5,-66 959.76,-26.32 925.82,-56.72 829.5,-30 827.56,-29.46 825.58,-28.85 823.6,-28.19"/>
<polygon fill="#63b8ff" stroke="#63b8ff" points="824.45,-24.78 813.86,-24.62 822.05,-31.35 824.45,-24.78"/>
</a>
</g>
</g>
<!-- Node17 -->
<g id="Node000017" class="node">
<title>Node17</title>
<g id="a_Node000017"><a xlink:href="array_8hpp.html" target="_top" xlink:title=" ">
<polygon fill="white" stroke="#666666" points="1370,-90.5 1245,-90.5 1245,-71.5 1370,-71.5 1370,-90.5"/>
<text text-anchor="middle" x="1307.5" y="-78.5" font-family="Helvetica,sans-Serif" font-size="10.00">serialization/array.hpp</text>
</a>
</g>
</g>
<!-- Node11&#45;&gt;Node17 -->
<g id="edge18_Node000011_Node000017" class="edge">
<title>Node11&#45;&gt;Node17</title>
<g id="a_edge18_Node000011_Node000017"><a xlink:title=" ">
<path fill="none" stroke="#63b8ff" d="M1311.76,-131.87C1311.07,-123.75 1310,-111.31 1309.11,-100.89"/>
<polygon fill="#63b8ff" stroke="#63b8ff" points="1312.58,-100.33 1308.24,-90.67 1305.61,-100.93 1312.58,-100.33"/>
</a>
</g>
</g>
<!-- Node26 -->
<g id="Node000026" class="node">
<title>Node26</title>
<g id="a_Node000026"><a xlink:title=" ">
<polygon fill="#e0e0e0" stroke="#999999" points="1666,-96 1559,-96 1559,-66 1666,-66 1666,-96"/>
<text text-anchor="start" x="1567" y="-84" font-family="Helvetica,sans-Serif" font-size="10.00">boost/serialization</text>
<text text-anchor="middle" x="1612.5" y="-73" font-family="Helvetica,sans-Serif" font-size="10.00">/access.hpp</text>
</a>
</g>
</g>
<!-- Node11&#45;&gt;Node26 -->
<g id="edge28_Node000011_Node000026" class="edge">
<title>Node11&#45;&gt;Node26</title>
<g id="a_edge28_Node000011_Node000026"><a xlink:title=" ">
<path fill="none" stroke="#63b8ff" d="M1355.72,-132.39C1402.34,-123.6 1478.73,-109.08 1544.5,-96 1545.94,-95.71 1547.4,-95.42 1548.87,-95.13"/>
<polygon fill="#63b8ff" stroke="#63b8ff" points="1549.58,-98.56 1558.69,-93.15 1548.2,-91.69 1549.58,-98.56"/>
</a>
</g>
</g>
<!-- Node11&#45;&gt;Node27 -->
<g id="edge31_Node000011_Node000027" class="edge">
<title>Node11&#45;&gt;Node27</title>
<g id="a_edge31_Node000011_Node000027"><a xlink:title=" ">
<path fill="none" stroke="#63b8ff" d="M1269.29,-133.37C1201.74,-122.17 1076.74,-101.18 1056.5,-96 1053.86,-95.32 1051.14,-94.56 1048.43,-93.74"/>
<polygon fill="#63b8ff" stroke="#63b8ff" points="1049.32,-90.35 1038.72,-90.64 1047.18,-97.02 1049.32,-90.35"/>
</a>
</g>
</g>
<!-- Node28 -->
<g id="Node000028" class="node">
<title>Node28</title>
<g id="a_Node000028"><a xlink:title=" ">
<polygon fill="#e0e0e0" stroke="#999999" points="1156,-90.5 1099,-90.5 1099,-71.5 1156,-71.5 1156,-90.5"/>
<text text-anchor="middle" x="1127.5" y="-78.5" font-family="Helvetica,sans-Serif" font-size="10.00">ostream</text>
</a>
</g>
</g>
<!-- Node11&#45;&gt;Node28 -->
<g id="edge32_Node000011_Node000028" class="edge">
<title>Node11&#45;&gt;Node28</title>
<g id="a_edge32_Node000011_Node000028"><a xlink:title=" ">
<path fill="none" stroke="#63b8ff" d="M1282.49,-131.98C1252.67,-123.38 1205.7,-109.48 1165.5,-96 1163.6,-95.36 1161.65,-94.69 1159.69,-94.01"/>
<polygon fill="#63b8ff" stroke="#63b8ff" points="1160.52,-90.59 1149.93,-90.51 1158.16,-97.18 1160.52,-90.59"/>
</a>
</g>
</g>
<!-- Node12&#45;&gt;Node13 -->
<g id="edge14_Node000012_Node000013" class="edge">
<title>Node12&#45;&gt;Node13</title>
<g id="a_edge14_Node000012_Node000013"><a xlink:title=" ">
<path fill="none" stroke="#63b8ff" d="M1484.42,-71.47C1494.81,-69.43 1506.04,-67.43 1516.5,-66 1720.11,-38.07 1777.36,-76.7 1977.5,-30 1979.81,-29.46 1982.17,-28.79 1984.52,-28.04"/>
<polygon fill="#63b8ff" stroke="#63b8ff" points="1985.74,-31.33 1993.95,-24.63 1983.35,-24.74 1985.74,-31.33"/>
</a>
</g>
</g>
<!-- Node14&#45;&gt;Node15 -->
<g id="edge16_Node000014_Node000015" class="edge">
<title>Node14&#45;&gt;Node15</title>
<g id="a_edge16_Node000014_Node000015"><a xlink:title=" ">
<path fill="none" stroke="#63b8ff" d="M1181.92,-71.47C1176.7,-69.38 1170.96,-67.36 1165.5,-66 1019.75,-29.77 975.25,-66.23 829.5,-30 827.2,-29.43 824.84,-28.74 822.5,-27.97"/>
<polygon fill="#63b8ff" stroke="#63b8ff" points="823.67,-24.67 813.08,-24.53 821.27,-31.25 823.67,-24.67"/>
</a>
</g>
</g>
<!-- Node16 -->
<g id="Node000016" class="node">
<title>Node16</title>
<g id="a_Node000016"><a xlink:title=" ">
<polygon fill="#e0e0e0" stroke="#999999" points="880,-24.5 839,-24.5 839,-5.5 880,-5.5 880,-24.5"/>
<text text-anchor="middle" x="859.5" y="-12.5" font-family="Helvetica,sans-Serif" font-size="10.00">tuple</text>
</a>
</g>
</g>
<!-- Node14&#45;&gt;Node16 -->
<g id="edge17_Node000014_Node000016" class="edge">
<title>Node14&#45;&gt;Node16</title>
<g id="a_edge17_Node000014_Node000016"><a xlink:title=" ">
<path fill="none" stroke="#63b8ff" d="M1181.54,-71.41C1176.42,-69.37 1170.82,-67.39 1165.5,-66 1045.8,-34.78 1008.28,-64.56 889.5,-30 888.05,-29.58 886.58,-29.1 885.12,-28.57"/>
<polygon fill="#63b8ff" stroke="#63b8ff" points="886.23,-25.24 875.65,-24.64 883.55,-31.71 886.23,-25.24"/>
</a>
</g>
</g>
<!-- Node17&#45;&gt;Node15 -->
<g id="edge27_Node000017_Node000015" class="edge">
<title>Node17&#45;&gt;Node15</title>
<g id="a_edge27_Node000017_Node000015"><a xlink:title=" ">
<path fill="none" stroke="#63b8ff" d="M1268.19,-71.47C1257.92,-69.46 1246.82,-67.47 1236.5,-66 1056.72,-40.4 1006.13,-72.17 829.5,-30 827.19,-29.45 824.83,-28.77 822.49,-28.02"/>
<polygon fill="#63b8ff" stroke="#63b8ff" points="823.66,-24.72 813.06,-24.59 821.27,-31.3 823.66,-24.72"/>
</a>
</g>
</g>
<!-- Node18 -->
<g id="Node000018" class="node">
<title>Node18</title>
<g id="a_Node000018"><a xlink:title=" ">
<polygon fill="#e0e0e0" stroke="#999999" points="1706,-24.5 1573,-24.5 1573,-5.5 1706,-5.5 1706,-24.5"/>
<text text-anchor="middle" x="1639.5" y="-12.5" font-family="Helvetica,sans-Serif" font-size="10.00">boost/mpl/bool_fwd.hpp</text>
</a>
</g>
</g>
<!-- Node17&#45;&gt;Node18 -->
<g id="edge19_Node000017_Node000018" class="edge">
<title>Node17&#45;&gt;Node18</title>
<g id="a_edge19_Node000017_Node000018"><a xlink:title=" ">
<path fill="none" stroke="#63b8ff" d="M1351.28,-71.47C1360.6,-69.66 1370.37,-67.76 1379.5,-66 1450.37,-52.3 1532.12,-36.59 1584.74,-26.5"/>
<polygon fill="#63b8ff" stroke="#63b8ff" points="1585.71,-29.88 1594.87,-24.55 1584.39,-23 1585.71,-29.88"/>
</a>
</g>
</g>
<!-- Node19 -->
<g id="Node000019" class="node">
<title>Node19</title>
<g id="a_Node000019"><a xlink:title=" ">
<polygon fill="#e0e0e0" stroke="#999999" points="1848.5,-24.5 1724.5,-24.5 1724.5,-5.5 1848.5,-5.5 1848.5,-24.5"/>
<text text-anchor="middle" x="1786.5" y="-12.5" font-family="Helvetica,sans-Serif" font-size="10.00">boost/mpl/greater.hpp</text>
</a>
</g>
</g>
<!-- Node17&#45;&gt;Node19 -->
<g id="edge20_Node000017_Node000019" class="edge">
<title>Node17&#45;&gt;Node19</title>
<g id="a_edge20_Node000017_Node000019"><a xlink:title=" ">
<path fill="none" stroke="#63b8ff" d="M1348.14,-71.47C1358.35,-69.5 1369.3,-67.54 1379.5,-66 1528.02,-43.65 1567.01,-52.55 1715.5,-30 1722.26,-28.97 1729.35,-27.75 1736.34,-26.46"/>
<polygon fill="#63b8ff" stroke="#63b8ff" points="1737.26,-29.85 1746.43,-24.54 1735.95,-22.97 1737.26,-29.85"/>
</a>
</g>
</g>
<!-- Node20 -->
<g id="Node000020" class="node">
<title>Node20</title>
<g id="a_Node000020"><a xlink:title=" ">
<polygon fill="#e0e0e0" stroke="#999999" points="1968.5,-24.5 1866.5,-24.5 1866.5,-5.5 1968.5,-5.5 1968.5,-24.5"/>
<text text-anchor="middle" x="1917.5" y="-12.5" font-family="Helvetica,sans-Serif" font-size="10.00">boost/mpl/int.hpp</text>
</a>
</g>
</g>
<!-- Node17&#45;&gt;Node20 -->
<g id="edge21_Node000017_Node000020" class="edge">
<title>Node17&#45;&gt;Node20</title>
<g id="a_edge21_Node000017_Node000020"><a xlink:title=" ">
<path fill="none" stroke="#63b8ff" d="M1346.97,-71.46C1357.5,-69.42 1368.9,-67.42 1379.5,-66 1590.65,-37.62 1646.92,-62.3 1857.5,-30 1863.26,-29.12 1869.28,-27.98 1875.19,-26.73"/>
<polygon fill="#63b8ff" stroke="#63b8ff" points="1875.98,-30.14 1884.98,-24.55 1874.46,-23.31 1875.98,-30.14"/>
</a>
</g>
</g>
<!-- Node21 -->
<g id="Node000021" class="node">
<title>Node21</title>
<g id="a_Node000021"><a xlink:title=" ">
<polygon fill="#e0e0e0" stroke="#999999" points="1004.5,-30 898.5,-30 898.5,0 1004.5,0 1004.5,-30"/>
<text text-anchor="start" x="906.5" y="-18" font-family="Helvetica,sans-Serif" font-size="10.00">boost/mpl/integral</text>
<text text-anchor="middle" x="951.5" y="-7" font-family="Helvetica,sans-Serif" font-size="10.00">_c_tag.hpp</text>
</a>
</g>
</g>
<!-- Node17&#45;&gt;Node21 -->
<g id="edge22_Node000017_Node000021" class="edge">
<title>Node17&#45;&gt;Node21</title>
<g id="a_edge22_Node000017_Node000021"><a xlink:title=" ">
<path fill="none" stroke="#63b8ff" d="M1265.5,-71.47C1255.97,-69.6 1245.9,-67.68 1236.5,-66 1140.77,-48.84 1113.74,-49.03 1014.4,-30.1"/>
<polygon fill="#63b8ff" stroke="#63b8ff" points="1015.04,-26.66 1004.55,-28.21 1013.71,-33.53 1015.04,-26.66"/>
</a>
</g>
</g>
<!-- Node22 -->
<g id="Node000022" class="node">
<title>Node22</title>
<g id="a_Node000022"><a xlink:title=" ">
<polygon fill="#e0e0e0" stroke="#999999" points="1174,-30 1023,-30 1023,0 1174,0 1174,-30"/>
<text text-anchor="start" x="1031" y="-18" font-family="Helvetica,sans-Serif" font-size="10.00">boost/serialization</text>
<text text-anchor="middle" x="1098.5" y="-7" font-family="Helvetica,sans-Serif" font-size="10.00">/is_bitwise_serializable.hpp</text>
</a>
</g>
</g>
<!-- Node17&#45;&gt;Node22 -->
<g id="edge23_Node000017_Node000022" class="edge">
<title>Node17&#45;&gt;Node22</title>
<g id="a_edge23_Node000017_Node000022"><a xlink:title=" ">
<path fill="none" stroke="#63b8ff" d="M1279.31,-71.37C1247.4,-61.6 1194.62,-45.43 1154.3,-33.09"/>
<polygon fill="#63b8ff" stroke="#63b8ff" points="1155.18,-29.7 1144.6,-30.12 1153.13,-36.39 1155.18,-29.7"/>
</a>
</g>
</g>
<!-- Node23 -->
<g id="Node000023" class="node">
<title>Node23</title>
<g id="a_Node000023"><a xlink:title=" ">
<polygon fill="#e0e0e0" stroke="#999999" points="1299,-30 1192,-30 1192,0 1299,0 1299,-30"/>
<text text-anchor="start" x="1200" y="-18" font-family="Helvetica,sans-Serif" font-size="10.00">boost/serialization</text>
<text text-anchor="middle" x="1245.5" y="-7" font-family="Helvetica,sans-Serif" font-size="10.00">/level.hpp</text>
</a>
</g>
</g>
<!-- Node17&#45;&gt;Node23 -->
<g id="edge24_Node000017_Node000023" class="edge">
<title>Node17&#45;&gt;Node23</title>
<g id="a_edge24_Node000017_Node000023"><a xlink:title=" ">
<path fill="none" stroke="#63b8ff" d="M1299.14,-71.37C1290.79,-62.75 1277.62,-49.15 1266.42,-37.59"/>
<polygon fill="#63b8ff" stroke="#63b8ff" points="1268.88,-35.11 1259.41,-30.36 1263.86,-39.98 1268.88,-35.11"/>
</a>
</g>
</g>
<!-- Node24 -->
<g id="Node000024" class="node">
<title>Node24</title>
<g id="a_Node000024"><a xlink:title=" ">
<polygon fill="#e0e0e0" stroke="#999999" points="1424,-30 1317,-30 1317,0 1424,0 1424,-30"/>
<text text-anchor="start" x="1325" y="-18" font-family="Helvetica,sans-Serif" font-size="10.00">boost/serialization</text>
<text text-anchor="middle" x="1370.5" y="-7" font-family="Helvetica,sans-Serif" font-size="10.00">/tracking.hpp</text>
</a>
</g>
</g>
<!-- Node17&#45;&gt;Node24 -->
<g id="edge25_Node000017_Node000024" class="edge">
<title>Node17&#45;&gt;Node24</title>
<g id="a_edge25_Node000017_Node000024"><a xlink:title=" ">
<path fill="none" stroke="#63b8ff" d="M1316,-71.37C1324.48,-62.75 1337.87,-49.15 1349.25,-37.59"/>
<polygon fill="#63b8ff" stroke="#63b8ff" points="1351.84,-39.94 1356.36,-30.36 1346.85,-35.03 1351.84,-39.94"/>
</a>
</g>
</g>
<!-- Node25 -->
<g id="Node000025" class="node">
<title>Node25</title>
<g id="a_Node000025"><a xlink:title=" ">
<polygon fill="#e0e0e0" stroke="#999999" points="1555,-30 1442,-30 1442,0 1555,0 1555,-30"/>
<text text-anchor="start" x="1450" y="-18" font-family="Helvetica,sans-Serif" font-size="10.00">boost/serialization</text>
<text text-anchor="middle" x="1498.5" y="-7" font-family="Helvetica,sans-Serif" font-size="10.00">/tracking_enum.hpp</text>
</a>
</g>
</g>
<!-- Node17&#45;&gt;Node25 -->
<g id="edge26_Node000017_Node000025" class="edge">
<title>Node17&#45;&gt;Node25</title>
<g id="a_edge26_Node000017_Node000025"><a xlink:title=" ">
<path fill="none" stroke="#63b8ff" d="M1333.26,-71.37C1362.24,-61.66 1410.05,-45.64 1446.81,-33.32"/>
<polygon fill="#63b8ff" stroke="#63b8ff" points="1448,-36.61 1456.37,-30.12 1445.78,-29.97 1448,-36.61"/>
</a>
</g>
</g>
</g>
</svg>

<g id="navigator" transform="translate(0 0)" fill="#404254">
  <rect fill="#f2f5e9" fill-opacity="0.5" stroke="#606060" stroke-width=".5" x="0" y="0" width="60" height="60"/>
  <use id="zoomplus" xlink:href="#zoomPlus" x="17" y="9" onmousedown="handleZoom(evt,'in')"/>
  <use id="zoomminus" xlink:href="#zoomMin" x="42" y="9" onmousedown="handleZoom(evt,'out')"/>
  <use id="reset" xlink:href="#resetDef" x="30" y="36" onmousedown="handleReset()"/>
   <use id="arrowup" xlink:href="#arrowUp" x="0" y="0" onmousedown="handlePan(0,-1)"/>
  <use id="arrowright" xlink:href="#arrowRight" x="0" y="0" onmousedown="handlePan(1,0)"/>
  <use id="arrowdown" xlink:href="#arrowDown" x="0" y="0" onmousedown="handlePan(0,1)"/>
  <use id="arrowleft" xlink:href="#arrowLeft" x="0" y="0" onmousedown="handlePan(-1,0)"/>
</g>
<svg viewBox="0 0 15 15" width="100%" height="30px" preserveAspectRatio="xMaxYMin meet">
 <g id="arrow_out" transform="scale(0.3 0.3)">
  <a xlink:href="core_2electrostatics_2scafacos_8hpp__incl_org.svg" target="_base">
   <rect id="button" ry="5" rx="5" y="6" x="6" height="38" width="38"
        fill="#f2f5e9" fill-opacity="0.5" stroke="#606060" stroke-width="1.0"/>
   <path id="arrow"
     d="M 11.500037,31.436501 C 11.940474,20.09759 22.043105,11.32322 32.158766,21.979434 L 37.068811,17.246167 C 37.068811,17.246167 37.088388,32 37.088388,32 L 22.160133,31.978069 C 22.160133,31.978069 26.997745,27.140456 26.997745,27.140456 C 18.528582,18.264221 13.291696,25.230495 11.500037,31.436501 z"
     style="fill:#404040;"/>
  </a>
 </g>
</svg>

<style type='text/css'>
<![CDATA[
[data-mouse-over-selected='false'] { opacity: 0.7; }
[data-mouse-over-selected='true']  { opacity: 1.0; }
]]>
</style>
<script type="application/ecmascript"><![CDATA[
document.addEventListener('DOMContentLoaded', (event) => {
  highlightEdges();
  highlightAdjacentNodes();
});
]]></script>
</svg>
