<?xml version="1.0" encoding="UTF-8" standalone="no"?>
<!DOCTYPE svg PUBLIC "-//W3C//DTD SVG 1.1//EN"
 "http://www.w3.org/Graphics/SVG/1.1/DTD/svg11.dtd">
<!-- Generated by graphviz version 2.43.0 (0)
 -->
<!-- Title: scafacos.hpp Pages: 1 -->
<svg width="945pt" height="412pt"
 viewBox="0.00 0.00 945.00 412.00" xmlns="http://www.w3.org/2000/svg" xmlns:xlink="http://www.w3.org/1999/xlink">
<g id="graph0" class="graph" transform="scale(1 1) rotate(0) translate(4 408)">
<title>scafacos.hpp</title>
<!-- Node1 -->
<g id="Node000001" class="node">
<title>Node1</title>
<g id="a_Node000001"><a xlink:title=" ">
<polygon fill="#999999" stroke="#666666" points="561.5,-404 481.5,-404 481.5,-385 561.5,-385 561.5,-404"/>
<text text-anchor="middle" x="521.5" y="-392" font-family="Helvetica,sans-Serif" font-size="10.00">scafacos.hpp</text>
</a>
</g>
</g>
<!-- Node2 -->
<g id="Node000002" class="node">
<title>Node2</title>
<g id="a_Node000002"><a xlink:href="DipolarScafacos_8hpp.html" target="_top" xlink:title=" ">
<polygon fill="white" stroke="#666666" points="244.5,-349 128.5,-349 128.5,-330 244.5,-330 244.5,-349"/>
<text text-anchor="middle" x="186.5" y="-337" font-family="Helvetica,sans-Serif" font-size="10.00">DipolarScafacos.hpp</text>
</a>
</g>
</g>
<!-- Node1&#45;&gt;Node2 -->
<g id="edge1_Node000001_Node000002" class="edge">
<title>Node1&#45;&gt;Node2</title>
<g id="a_edge1_Node000001_Node000002"><a xlink:title=" ">
<path fill="none" stroke="#63b8ff" d="M471.49,-385.59C409.49,-375.78 304.22,-359.12 240.45,-349.04"/>
<polygon fill="#63b8ff" stroke="#63b8ff" points="471,-389.05 481.42,-387.16 472.09,-382.14 471,-389.05"/>
</a>
</g>
</g>
<!-- Node4 -->
<g id="Node000004" class="node">
<title>Node4</title>
<g id="a_Node000004"><a xlink:href="dipoles_8hpp.html" target="_top" xlink:title=" ">
<polygon fill="white" stroke="#666666" points="526,-349 453,-349 453,-330 526,-330 526,-349"/>
<text text-anchor="middle" x="489.5" y="-337" font-family="Helvetica,sans-Serif" font-size="10.00">dipoles.hpp</text>
</a>
</g>
</g>
<!-- Node1&#45;&gt;Node4 -->
<g id="edge3_Node000001_Node000004" class="edge">
<title>Node1&#45;&gt;Node4</title>
<g id="a_edge3_Node000001_Node000004"><a xlink:title=" ">
<path fill="none" stroke="#63b8ff" d="M511,-376.1C505.53,-367.04 499.08,-356.37 494.69,-349.09"/>
<polygon fill="#63b8ff" stroke="#63b8ff" points="508.05,-378 516.22,-384.75 514.04,-374.38 508.05,-378"/>
</a>
</g>
</g>
<!-- Node30 -->
<g id="Node000030" class="node">
<title>Node30</title>
<g id="a_Node000030"><a xlink:href="magnetostatics_2scafacos__impl_8cpp.html" target="_top" xlink:title=" ">
<polygon fill="white" stroke="#666666" points="937,-294 830,-294 830,-275 937,-275 937,-294"/>
<text text-anchor="middle" x="883.5" y="-282" font-family="Helvetica,sans-Serif" font-size="10.00">scafacos_impl.cpp</text>
</a>
</g>
</g>
<!-- Node1&#45;&gt;Node30 -->
<g id="edge39_Node000001_Node000030" class="edge">
<title>Node1&#45;&gt;Node30</title>
<g id="a_edge39_Node000001_Node000030"><a xlink:title=" ">
<path fill="none" stroke="#63b8ff" d="M559.93,-382.03C632.93,-360.26 790.1,-313.36 854.79,-294.07"/>
<polygon fill="#63b8ff" stroke="#63b8ff" points="558.79,-378.72 550.21,-384.94 560.79,-385.43 558.79,-378.72"/>
</a>
</g>
</g>
<!-- Node31 -->
<g id="Node000031" class="node">
<title>Node31</title>
<g id="a_Node000031"><a xlink:href="magnetostatics_2scafacos__impl_8hpp.html" target="_top" xlink:title=" ">
<polygon fill="white" stroke="#666666" points="875,-349 768,-349 768,-330 875,-330 875,-349"/>
<text text-anchor="middle" x="821.5" y="-337" font-family="Helvetica,sans-Serif" font-size="10.00">scafacos_impl.hpp</text>
</a>
</g>
</g>
<!-- Node1&#45;&gt;Node31 -->
<g id="edge40_Node000001_Node000031" class="edge">
<title>Node1&#45;&gt;Node31</title>
<g id="a_edge40_Node000001_Node000031"><a xlink:title=" ">
<path fill="none" stroke="#63b8ff" d="M571.7,-384.63C627.76,-374.73 717.86,-358.81 773.16,-349.04"/>
<polygon fill="#63b8ff" stroke="#63b8ff" points="570.89,-381.22 561.65,-386.41 572.1,-388.11 570.89,-381.22"/>
</a>
</g>
</g>
<!-- Node3 -->
<g id="Node000003" class="node">
<title>Node3</title>
<g id="a_Node000003"><a xlink:href="magnetostatics_2initialize_8cpp.html" target="_top" xlink:title=" ">
<polygon fill="white" stroke="#666666" points="142,-239 63,-239 63,-220 142,-220 142,-239"/>
<text text-anchor="middle" x="102.5" y="-227" font-family="Helvetica,sans-Serif" font-size="10.00">initialize.cpp</text>
</a>
</g>
</g>
<!-- Node2&#45;&gt;Node3 -->
<g id="edge2_Node000002_Node000003" class="edge">
<title>Node2&#45;&gt;Node3</title>
<g id="a_edge2_Node000002_Node000003"><a xlink:title=" ">
<path fill="none" stroke="#63b8ff" d="M118.62,-330.86C95.72,-324.68 72.46,-313.63 58.5,-294 44.67,-274.54 71.34,-251.44 88.88,-239.17"/>
<polygon fill="#63b8ff" stroke="#63b8ff" points="117.84,-334.28 128.38,-333.23 119.48,-327.47 117.84,-334.28"/>
</a>
</g>
</g>
<!-- Node4&#45;&gt;Node3 -->
<g id="edge35_Node000004_Node000003" class="edge">
<title>Node4&#45;&gt;Node3</title>
<g id="a_edge35_Node000004_Node000003"><a xlink:title=" ">
<path fill="none" stroke="#63b8ff" d="M442.83,-336.71C342.72,-332.4 114.58,-319.81 91.5,-294 77.78,-278.66 89.46,-252.56 97.12,-239.1"/>
<polygon fill="#63b8ff" stroke="#63b8ff" points="442.82,-340.21 452.96,-337.14 443.11,-333.22 442.82,-340.21"/>
</a>
</g>
</g>
<!-- Node5 -->
<g id="Node000005" class="node">
<title>Node5</title>
<g id="a_Node000005"><a xlink:href="magnetostatics_2Actor_8impl_8hpp.html" target="_top" xlink:title=" ">
<polygon fill="white" stroke="#666666" points="188,-294 101,-294 101,-275 188,-275 188,-294"/>
<text text-anchor="middle" x="144.5" y="-282" font-family="Helvetica,sans-Serif" font-size="10.00">Actor.impl.hpp</text>
</a>
</g>
</g>
<!-- Node4&#45;&gt;Node5 -->
<g id="edge4_Node000004_Node000005" class="edge">
<title>Node4&#45;&gt;Node5</title>
<g id="a_edge4_Node000004_Node000005"><a xlink:title=" ">
<path fill="none" stroke="#63b8ff" d="M442.7,-331.48C385.02,-322.81 284.01,-307.53 197.5,-294 194.46,-293.52 191.33,-293.03 188.17,-292.53"/>
<polygon fill="#63b8ff" stroke="#63b8ff" points="442.2,-334.95 452.61,-332.97 443.24,-328.02 442.2,-334.95"/>
</a>
</g>
</g>
<!-- Node6 -->
<g id="Node000006" class="node">
<title>Node6</title>
<g id="a_Node000006"><a xlink:href="System_8impl_8hpp.html" target="_top" xlink:title=" ">
<polygon fill="white" stroke="#666666" points="659,-294 560,-294 560,-275 659,-275 659,-294"/>
<text text-anchor="middle" x="609.5" y="-282" font-family="Helvetica,sans-Serif" font-size="10.00">System.impl.hpp</text>
</a>
</g>
</g>
<!-- Node4&#45;&gt;Node6 -->
<g id="edge6_Node000004_Node000006" class="edge">
<title>Node4&#45;&gt;Node6</title>
<g id="a_edge6_Node000004_Node000006"><a xlink:title=" ">
<path fill="none" stroke="#63b8ff" d="M518.03,-325.9C540.2,-316.11 570.35,-302.79 589.87,-294.17"/>
<polygon fill="#63b8ff" stroke="#63b8ff" points="516.51,-322.74 508.78,-329.98 519.34,-329.15 516.51,-322.74"/>
</a>
</g>
</g>
<!-- Node9 -->
<g id="Node000009" class="node">
<title>Node9</title>
<g id="a_Node000009"><a xlink:href="dipoles_8cpp.html" target="_top" xlink:title=" ">
<polygon fill="white" stroke="#666666" points="278.5,-294 206.5,-294 206.5,-275 278.5,-275 278.5,-294"/>
<text text-anchor="middle" x="242.5" y="-282" font-family="Helvetica,sans-Serif" font-size="10.00">dipoles.cpp</text>
</a>
</g>
</g>
<!-- Node4&#45;&gt;Node9 -->
<g id="edge9_Node000004_Node000009" class="edge">
<title>Node4&#45;&gt;Node9</title>
<g id="a_edge9_Node000004_Node000009"><a xlink:title=" ">
<path fill="none" stroke="#63b8ff" d="M442.72,-328.46C395.02,-318.23 322.03,-302.57 278.61,-293.25"/>
<polygon fill="#63b8ff" stroke="#63b8ff" points="442.28,-331.95 452.79,-330.62 443.75,-325.1 442.28,-331.95"/>
</a>
</g>
</g>
<!-- Node10 -->
<g id="Node000010" class="node">
<title>Node10</title>
<g id="a_Node000010"><a xlink:href="dipoles__inline_8hpp.html" target="_top" xlink:title=" ">
<polygon fill="white" stroke="#666666" points="542,-294 437,-294 437,-275 542,-275 542,-294"/>
<text text-anchor="middle" x="489.5" y="-282" font-family="Helvetica,sans-Serif" font-size="10.00">dipoles_inline.hpp</text>
</a>
</g>
</g>
<!-- Node4&#45;&gt;Node10 -->
<g id="edge10_Node000004_Node000010" class="edge">
<title>Node4&#45;&gt;Node10</title>
<g id="a_edge10_Node000004_Node000010"><a xlink:title=" ">
<path fill="none" stroke="#63b8ff" d="M489.5,-319.66C489.5,-310.93 489.5,-300.99 489.5,-294.09"/>
<polygon fill="#63b8ff" stroke="#63b8ff" points="486,-319.75 489.5,-329.75 493,-319.75 486,-319.75"/>
</a>
</g>
</g>
<!-- Node16 -->
<g id="Node000016" class="node">
<title>Node16</title>
<g id="a_Node000016"><a xlink:href="energy_8cpp.html" target="_top" xlink:title=" ">
<polygon fill="white" stroke="#666666" points="69,-184 0,-184 0,-165 69,-165 69,-184"/>
<text text-anchor="middle" x="34.5" y="-172" font-family="Helvetica,sans-Serif" font-size="10.00">energy.cpp</text>
</a>
</g>
</g>
<!-- Node4&#45;&gt;Node16 -->
<g id="edge33_Node000004_Node000016" class="edge">
<title>Node4&#45;&gt;Node16</title>
<g id="a_edge33_Node000004_Node000016"><a xlink:title=" ">
<path fill="none" stroke="#63b8ff" d="M442.47,-335.88C341.49,-329.89 110.7,-314.16 81.5,-294 43.8,-267.97 36.34,-206.56 34.86,-184"/>
<polygon fill="#63b8ff" stroke="#63b8ff" points="442.5,-339.39 452.69,-336.48 442.91,-332.4 442.5,-339.39"/>
</a>
</g>
</g>
<!-- Node18 -->
<g id="Node000018" class="node">
<title>Node18</title>
<g id="a_Node000018"><a xlink:href="forces_8cpp.html" target="_top" xlink:title="Force calculation.">
<polygon fill="white" stroke="#666666" points="660,-74 593,-74 593,-55 660,-55 660,-74"/>
<text text-anchor="middle" x="626.5" y="-62" font-family="Helvetica,sans-Serif" font-size="10.00">forces.cpp</text>
</a>
</g>
</g>
<!-- Node4&#45;&gt;Node18 -->
<g id="edge34_Node000004_Node000018" class="edge">
<title>Node4&#45;&gt;Node18</title>
<g id="a_edge34_Node000004_Node000018"><a xlink:title=" ">
<path fill="none" stroke="#63b8ff" d="M536.26,-337.63C582.84,-334.86 654.93,-325.3 708.5,-294 740.74,-275.17 763.5,-267.84 763.5,-230.5 763.5,-230.5 763.5,-230.5 763.5,-173.5 763.5,-119.14 696.15,-87.91 655.89,-74.1"/>
<polygon fill="#63b8ff" stroke="#63b8ff" points="535.96,-334.14 526.15,-338.14 536.32,-341.13 535.96,-334.14"/>
</a>
</g>
</g>
<!-- Node21 -->
<g id="Node000021" class="node">
<title>Node21</title>
<g id="a_Node000021"><a xlink:href="dp3m__heffte_8impl_8hpp.html" target="_top" xlink:title=" ">
<polygon fill="white" stroke="#666666" points="832.5,-74 708.5,-74 708.5,-55 832.5,-55 832.5,-74"/>
<text text-anchor="middle" x="770.5" y="-62" font-family="Helvetica,sans-Serif" font-size="10.00">dp3m_heffte.impl.hpp</text>
</a>
</g>
</g>
<!-- Node4&#45;&gt;Node21 -->
<g id="edge32_Node000004_Node000021" class="edge">
<title>Node4&#45;&gt;Node21</title>
<g id="a_edge32_Node000004_Node000021"><a xlink:title=" ">
<path fill="none" stroke="#63b8ff" d="M536.64,-338.41C588.83,-336.48 674.1,-327.78 738.5,-294 773.71,-275.53 801.5,-270.26 801.5,-230.5 801.5,-230.5 801.5,-230.5 801.5,-173.5 801.5,-135.27 783.33,-92.27 774.81,-74.22"/>
<polygon fill="#63b8ff" stroke="#63b8ff" points="536.23,-334.92 526.34,-338.72 536.44,-341.92 536.23,-334.92"/>
</a>
</g>
</g>
<!-- Node26 -->
<g id="Node000026" class="node">
<title>Node26</title>
<g id="a_Node000026"><a xlink:href="pressure__inline_8hpp.html" target="_top" xlink:title=" ">
<polygon fill="white" stroke="#666666" points="697.5,-184 585.5,-184 585.5,-165 697.5,-165 697.5,-184"/>
<text text-anchor="middle" x="641.5" y="-172" font-family="Helvetica,sans-Serif" font-size="10.00">pressure_inline.hpp</text>
</a>
</g>
</g>
<!-- Node4&#45;&gt;Node26 -->
<g id="edge38_Node000004_Node000026" class="edge">
<title>Node4&#45;&gt;Node26</title>
<g id="a_edge38_Node000004_Node000026"><a xlink:title=" ">
<path fill="none" stroke="#63b8ff" d="M536.14,-333.31C583.31,-326.98 651.47,-314.53 667.5,-294 693.81,-260.3 662.05,-205.53 647.77,-184.3"/>
<polygon fill="#63b8ff" stroke="#63b8ff" points="535.6,-329.85 526.13,-334.6 536.5,-336.79 535.6,-329.85"/>
</a>
</g>
</g>
<!-- Node27 -->
<g id="Node000027" class="node">
<title>Node27</title>
<g id="a_Node000027"><a xlink:href="pressure_8cpp.html" target="_top" xlink:title=" ">
<polygon fill="white" stroke="#666666" points="708,-129 629,-129 629,-110 708,-110 708,-129"/>
<text text-anchor="middle" x="668.5" y="-117" font-family="Helvetica,sans-Serif" font-size="10.00">pressure.cpp</text>
</a>
</g>
</g>
<!-- Node4&#45;&gt;Node27 -->
<g id="edge37_Node000004_Node000027" class="edge">
<title>Node4&#45;&gt;Node27</title>
<g id="a_edge37_Node000004_Node000027"><a xlink:title=" ">
<path fill="none" stroke="#63b8ff" d="M536.6,-333.82C588.15,-327.7 666.18,-315.19 686.5,-294 726.65,-252.12 726.58,-219.43 706.5,-165 701.09,-150.32 688.43,-137.2 679.21,-129.07"/>
<polygon fill="#63b8ff" stroke="#63b8ff" points="535.89,-330.38 526.35,-334.99 536.69,-337.33 535.89,-330.38"/>
</a>
</g>
</g>
<!-- Node28 -->
<g id="Node000028" class="node">
<title>Node28</title>
<g id="a_Node000028"><a xlink:href="dlc_8cpp.html" target="_top" xlink:title=" ">
<polygon fill="white" stroke="#666666" points="348,-294 297,-294 297,-275 348,-275 348,-294"/>
<text text-anchor="middle" x="322.5" y="-282" font-family="Helvetica,sans-Serif" font-size="10.00">dlc.cpp</text>
</a>
</g>
</g>
<!-- Node4&#45;&gt;Node28 -->
<g id="edge31_Node000004_Node000028" class="edge">
<title>Node4&#45;&gt;Node28</title>
<g id="a_edge31_Node000004_Node000028"><a xlink:title=" ">
<path fill="none" stroke="#63b8ff" d="M452.88,-326.88C421.19,-316.82 376.16,-302.53 348.17,-293.65"/>
<polygon fill="#63b8ff" stroke="#63b8ff" points="452.08,-330.3 462.67,-329.98 454.2,-323.62 452.08,-330.3"/>
</a>
</g>
</g>
<!-- Node29 -->
<g id="Node000029" class="node">
<title>Node29</title>
<g id="a_Node000029"><a xlink:href="npt_8cpp.html" target="_top" xlink:title=" ">
<polygon fill="white" stroke="#666666" points="419,-294 366,-294 366,-275 419,-275 419,-294"/>
<text text-anchor="middle" x="392.5" y="-282" font-family="Helvetica,sans-Serif" font-size="10.00">npt.cpp</text>
</a>
</g>
</g>
<!-- Node4&#45;&gt;Node29 -->
<g id="edge36_Node000004_Node000029" class="edge">
<title>Node4&#45;&gt;Node29</title>
<g id="a_edge36_Node000004_Node000029"><a xlink:title=" ">
<path fill="none" stroke="#63b8ff" d="M464.73,-324.97C447,-315.28 423.65,-302.52 408.37,-294.17"/>
<polygon fill="#63b8ff" stroke="#63b8ff" points="463.46,-328.26 473.92,-329.98 466.82,-322.12 463.46,-328.26"/>
</a>
</g>
</g>
<!-- Node5&#45;&gt;Node3 -->
<g id="edge5_Node000005_Node000003" class="edge">
<title>Node5&#45;&gt;Node3</title>
<g id="a_edge5_Node000005_Node000003"><a xlink:title=" ">
<path fill="none" stroke="#63b8ff" d="M131.17,-266.67C123.89,-257.5 115.2,-246.52 109.31,-239.09"/>
<polygon fill="#63b8ff" stroke="#63b8ff" points="128.61,-269.08 137.56,-274.75 134.1,-264.74 128.61,-269.08"/>
</a>
</g>
</g>
<!-- Node7 -->
<g id="Node000007" class="node">
<title>Node7</title>
<g id="a_Node000007"><a xlink:href="core_2system_2System_8cpp.html" target="_top" xlink:title=" ">
<polygon fill="white" stroke="#666666" points="574.5,-74 500.5,-74 500.5,-55 574.5,-55 574.5,-74"/>
<text text-anchor="middle" x="537.5" y="-62" font-family="Helvetica,sans-Serif" font-size="10.00">System.cpp</text>
</a>
</g>
</g>
<!-- Node6&#45;&gt;Node7 -->
<g id="edge7_Node000006_Node000007" class="edge">
<title>Node6&#45;&gt;Node7</title>
<g id="a_edge7_Node000006_Node000007"><a xlink:title=" ">
<path fill="none" stroke="#63b8ff" d="M603.42,-265.07C599.23,-252.39 593.54,-235.17 588.5,-220 583.19,-203.99 581.8,-200.01 576.5,-184 562.88,-142.88 546.74,-93.68 540.33,-74.13"/>
<polygon fill="#63b8ff" stroke="#63b8ff" points="600.19,-266.47 606.65,-274.87 606.84,-264.28 600.19,-266.47"/>
</a>
</g>
</g>
<!-- Node8 -->
<g id="Node000008" class="node">
<title>Node8</title>
<g id="a_Node000008"><a xlink:href="script__interface_2system_2System_8cpp.html" target="_top" xlink:title=" ">
<polygon fill="white" stroke="#666666" points="579.5,-239 505.5,-239 505.5,-220 579.5,-220 579.5,-239"/>
<text text-anchor="middle" x="542.5" y="-227" font-family="Helvetica,sans-Serif" font-size="10.00">System.cpp</text>
</a>
</g>
</g>
<!-- Node6&#45;&gt;Node8 -->
<g id="edge8_Node000006_Node000008" class="edge">
<title>Node6&#45;&gt;Node8</title>
<g id="a_edge8_Node000006_Node000008"><a xlink:title=" ">
<path fill="none" stroke="#63b8ff" d="M590.67,-268.6C578.66,-259.11 563.53,-247.13 553.46,-239.17"/>
<polygon fill="#63b8ff" stroke="#63b8ff" points="588.72,-271.53 598.74,-274.98 593.06,-266.04 588.72,-271.53"/>
</a>
</g>
</g>
<!-- Node11 -->
<g id="Node000011" class="node">
<title>Node11</title>
<g id="a_Node000011"><a xlink:href="energy__inline_8hpp.html" target="_top" xlink:title="Energy calculation.">
<polygon fill="white" stroke="#666666" points="304.5,-239 200.5,-239 200.5,-220 304.5,-220 304.5,-239"/>
<text text-anchor="middle" x="252.5" y="-227" font-family="Helvetica,sans-Serif" font-size="10.00">energy_inline.hpp</text>
</a>
</g>
</g>
<!-- Node10&#45;&gt;Node11 -->
<g id="edge11_Node000010_Node000011" class="edge">
<title>Node10&#45;&gt;Node11</title>
<g id="a_edge11_Node000010_Node000011"><a xlink:title=" ">
<path fill="none" stroke="#63b8ff" d="M441.44,-272.75C397.03,-262.82 331.9,-248.26 290.88,-239.08"/>
<polygon fill="#63b8ff" stroke="#63b8ff" points="440.9,-276.22 451.42,-274.98 442.43,-269.39 440.9,-276.22"/>
</a>
</g>
</g>
<!-- Node17 -->
<g id="Node000017" class="node">
<title>Node17</title>
<g id="a_Node000017"><a xlink:href="forces__inline_8hpp.html" target="_top" xlink:title="Force calculation.">
<polygon fill="white" stroke="#666666" points="487.5,-239 387.5,-239 387.5,-220 487.5,-220 487.5,-239"/>
<text text-anchor="middle" x="437.5" y="-227" font-family="Helvetica,sans-Serif" font-size="10.00">forces_inline.hpp</text>
</a>
</g>
</g>
<!-- Node10&#45;&gt;Node17 -->
<g id="edge17_Node000010_Node000017" class="edge">
<title>Node10&#45;&gt;Node17</title>
<g id="a_edge17_Node000010_Node000017"><a xlink:title=" ">
<path fill="none" stroke="#63b8ff" d="M473.82,-267.52C464.66,-258.18 453.45,-246.75 445.93,-239.09"/>
<polygon fill="#63b8ff" stroke="#63b8ff" points="471.41,-270.06 480.91,-274.75 476.41,-265.16 471.41,-270.06"/>
</a>
</g>
</g>
<!-- Node12 -->
<g id="Node000012" class="node">
<title>Node12</title>
<g id="a_Node000012"><a xlink:href="core_2pair__criteria_2EnergyCriterion_8hpp.html" target="_top" xlink:title=" ">
<polygon fill="white" stroke="#666666" points="200,-184 87,-184 87,-165 200,-165 200,-184"/>
<text text-anchor="middle" x="143.5" y="-172" font-family="Helvetica,sans-Serif" font-size="10.00">EnergyCriterion.hpp</text>
</a>
</g>
</g>
<!-- Node11&#45;&gt;Node12 -->
<g id="edge12_Node000011_Node000012" class="edge">
<title>Node11&#45;&gt;Node12</title>
<g id="a_edge12_Node000011_Node000012"><a xlink:title=" ">
<path fill="none" stroke="#63b8ff" d="M225.77,-215.5C205.71,-205.75 178.82,-192.68 161.33,-184.17"/>
<polygon fill="#63b8ff" stroke="#63b8ff" points="224.46,-218.76 234.99,-219.98 227.52,-212.46 224.46,-218.76"/>
</a>
</g>
</g>
<!-- Node15 -->
<g id="Node000015" class="node">
<title>Node15</title>
<g id="a_Node000015"><a xlink:href="ShapeBasedConstraint_8cpp.html" target="_top" xlink:title=" ">
<polygon fill="white" stroke="#666666" points="365,-184 218,-184 218,-165 365,-165 365,-184"/>
<text text-anchor="middle" x="291.5" y="-172" font-family="Helvetica,sans-Serif" font-size="10.00">ShapeBasedConstraint.cpp</text>
</a>
</g>
</g>
<!-- Node11&#45;&gt;Node15 -->
<g id="edge15_Node000011_Node000015" class="edge">
<title>Node11&#45;&gt;Node15</title>
<g id="a_edge15_Node000011_Node000015"><a xlink:title=" ">
<path fill="none" stroke="#63b8ff" d="M264.88,-211.67C271.64,-202.5 279.71,-191.52 285.18,-184.09"/>
<polygon fill="#63b8ff" stroke="#63b8ff" points="262.05,-209.62 258.94,-219.75 267.69,-213.77 262.05,-209.62"/>
</a>
</g>
</g>
<!-- Node11&#45;&gt;Node16 -->
<g id="edge16_Node000011_Node000016" class="edge">
<title>Node11&#45;&gt;Node16</title>
<g id="a_edge16_Node000011_Node000016"><a xlink:title=" ">
<path fill="none" stroke="#63b8ff" d="M207.72,-217.61C166.62,-207.62 106.59,-193.03 69.08,-183.91"/>
<polygon fill="#63b8ff" stroke="#63b8ff" points="206.93,-221.02 217.47,-219.98 208.58,-214.22 206.93,-221.02"/>
</a>
</g>
</g>
<!-- Node13 -->
<g id="Node000013" class="node">
<title>Node13</title>
<g id="a_Node000013"><a xlink:href="script__interface_2pair__criteria_2EnergyCriterion_8hpp.html" target="_top" xlink:title=" ">
<polygon fill="white" stroke="#666666" points="200,-129 87,-129 87,-110 200,-110 200,-129"/>
<text text-anchor="middle" x="143.5" y="-117" font-family="Helvetica,sans-Serif" font-size="10.00">EnergyCriterion.hpp</text>
</a>
</g>
</g>
<!-- Node12&#45;&gt;Node13 -->
<g id="edge13_Node000012_Node000013" class="edge">
<title>Node12&#45;&gt;Node13</title>
<g id="a_edge13_Node000012_Node000013"><a xlink:title=" ">
<path fill="none" stroke="#63b8ff" d="M143.5,-154.66C143.5,-145.93 143.5,-135.99 143.5,-129.09"/>
<polygon fill="#63b8ff" stroke="#63b8ff" points="140,-154.75 143.5,-164.75 147,-154.75 140,-154.75"/>
</a>
</g>
</g>
<!-- Node14 -->
<g id="Node000014" class="node">
<title>Node14</title>
<g id="a_Node000014"><a xlink:href="pair__criteria_2initialize_8cpp.html" target="_top" xlink:title=" ">
<polygon fill="white" stroke="#666666" points="183,-74 104,-74 104,-55 183,-55 183,-74"/>
<text text-anchor="middle" x="143.5" y="-62" font-family="Helvetica,sans-Serif" font-size="10.00">initialize.cpp</text>
</a>
</g>
</g>
<!-- Node13&#45;&gt;Node14 -->
<g id="edge14_Node000013_Node000014" class="edge">
<title>Node13&#45;&gt;Node14</title>
<g id="a_edge14_Node000013_Node000014"><a xlink:title=" ">
<path fill="none" stroke="#63b8ff" d="M143.5,-99.66C143.5,-90.93 143.5,-80.99 143.5,-74.09"/>
<polygon fill="#63b8ff" stroke="#63b8ff" points="140,-99.75 143.5,-109.75 147,-99.75 140,-99.75"/>
</a>
</g>
</g>
<!-- Node17&#45;&gt;Node15 -->
<g id="edge18_Node000017_Node000015" class="edge">
<title>Node17&#45;&gt;Node15</title>
<g id="a_edge18_Node000017_Node000015"><a xlink:title=" ">
<path fill="none" stroke="#63b8ff" d="M404.58,-216.55C377.47,-206.71 339.67,-192.98 315.38,-184.17"/>
<polygon fill="#63b8ff" stroke="#63b8ff" points="403.45,-219.86 414.04,-219.98 405.84,-213.28 403.45,-219.86"/>
</a>
</g>
</g>
<!-- Node17&#45;&gt;Node18 -->
<g id="edge19_Node000017_Node000018" class="edge">
<title>Node17&#45;&gt;Node18</title>
<g id="a_edge19_Node000017_Node000018"><a xlink:title=" ">
<path fill="none" stroke="#63b8ff" d="M459.29,-214.21C471.69,-205.82 487.31,-194.77 500.5,-184 547.25,-145.82 598.26,-94.54 618.02,-74.27"/>
<polygon fill="#63b8ff" stroke="#63b8ff" points="457.29,-211.34 450.92,-219.81 461.18,-217.16 457.29,-211.34"/>
</a>
</g>
</g>
<!-- Node19 -->
<g id="Node000019" class="node">
<title>Node19</title>
<g id="a_Node000019"><a xlink:href="forces__cabana_8hpp.html" target="_top" xlink:title=" ">
<polygon fill="white" stroke="#666666" points="491.5,-184 383.5,-184 383.5,-165 491.5,-165 491.5,-184"/>
<text text-anchor="middle" x="437.5" y="-172" font-family="Helvetica,sans-Serif" font-size="10.00">forces_cabana.hpp</text>
</a>
</g>
</g>
<!-- Node17&#45;&gt;Node19 -->
<g id="edge20_Node000017_Node000019" class="edge">
<title>Node17&#45;&gt;Node19</title>
<g id="a_edge20_Node000017_Node000019"><a xlink:title=" ">
<path fill="none" stroke="#63b8ff" d="M437.5,-209.66C437.5,-200.93 437.5,-190.99 437.5,-184.09"/>
<polygon fill="#63b8ff" stroke="#63b8ff" points="434,-209.75 437.5,-219.75 441,-209.75 434,-209.75"/>
</a>
</g>
</g>
<!-- Node17&#45;&gt;Node26 -->
<g id="edge29_Node000017_Node000026" class="edge">
<title>Node17&#45;&gt;Node26</title>
<g id="a_edge29_Node000017_Node000026"><a xlink:title=" ">
<path fill="none" stroke="#63b8ff" d="M480.08,-217.44C518.27,-207.52 573.52,-193.16 608.47,-184.08"/>
<polygon fill="#63b8ff" stroke="#63b8ff" points="479.07,-214.08 470.28,-219.98 480.83,-220.86 479.07,-214.08"/>
</a>
</g>
</g>
<!-- Node20 -->
<g id="Node000020" class="node">
<title>Node20</title>
<g id="a_Node000020"><a xlink:href="short__range__cabana_8hpp.html" target="_top" xlink:title=" ">
<polygon fill="white" stroke="#666666" points="491.5,-129 355.5,-129 355.5,-110 491.5,-110 491.5,-129"/>
<text text-anchor="middle" x="423.5" y="-117" font-family="Helvetica,sans-Serif" font-size="10.00">short_range_cabana.hpp</text>
</a>
</g>
</g>
<!-- Node19&#45;&gt;Node20 -->
<g id="edge21_Node000019_Node000020" class="edge">
<title>Node19&#45;&gt;Node20</title>
<g id="a_edge21_Node000019_Node000020"><a xlink:title=" ">
<path fill="none" stroke="#63b8ff" d="M432.6,-154.95C430.28,-146.15 427.61,-136.06 425.77,-129.09"/>
<polygon fill="#63b8ff" stroke="#63b8ff" points="429.25,-155.97 435.19,-164.75 436.02,-154.19 429.25,-155.97"/>
</a>
</g>
</g>
<!-- Node20&#45;&gt;Node7 -->
<g id="edge22_Node000020_Node000007" class="edge">
<title>Node20&#45;&gt;Node7</title>
<g id="a_edge22_Node000020_Node000007"><a xlink:title=" ">
<path fill="none" stroke="#63b8ff" d="M450.89,-105.77C471.92,-95.99 500.39,-82.75 518.85,-74.17"/>
<polygon fill="#63b8ff" stroke="#63b8ff" points="449.41,-102.6 441.82,-109.98 452.36,-108.94 449.41,-102.6"/>
</a>
</g>
</g>
<!-- Node20&#45;&gt;Node18 -->
<g id="edge25_Node000020_Node000018" class="edge">
<title>Node20&#45;&gt;Node18</title>
<g id="a_edge25_Node000020_Node000018"><a xlink:title=" ">
<path fill="none" stroke="#63b8ff" d="M465.87,-107.44C503.87,-97.52 558.86,-83.16 593.63,-74.08"/>
<polygon fill="#63b8ff" stroke="#63b8ff" points="464.91,-104.07 456.12,-109.98 466.68,-110.84 464.91,-104.07"/>
</a>
</g>
</g>
<!-- Node20&#45;&gt;Node21 -->
<g id="edge23_Node000020_Node000021" class="edge">
<title>Node20&#45;&gt;Node21</title>
<g id="a_edge23_Node000020_Node000021"><a xlink:title=" ">
<path fill="none" stroke="#63b8ff" d="M489.41,-108.43C554.57,-98.48 653.16,-83.42 714.6,-74.04"/>
<polygon fill="#63b8ff" stroke="#63b8ff" points="488.61,-105.01 479.25,-109.98 489.67,-111.93 488.61,-105.01"/>
</a>
</g>
</g>
<!-- Node23 -->
<g id="Node000023" class="node">
<title>Node23</title>
<g id="a_Node000023"><a xlink:href="icc_8cpp.html" target="_top" xlink:title="Functions to compute the electric field acting on the induced charges, excluding forces other than th...">
<polygon fill="white" stroke="#666666" points="346.5,-74 296.5,-74 296.5,-55 346.5,-55 346.5,-74"/>
<text text-anchor="middle" x="321.5" y="-62" font-family="Helvetica,sans-Serif" font-size="10.00">icc.cpp</text>
</a>
</g>
</g>
<!-- Node20&#45;&gt;Node23 -->
<g id="edge26_Node000020_Node000023" class="edge">
<title>Node20&#45;&gt;Node23</title>
<g id="a_edge26_Node000020_Node000023"><a xlink:title=" ">
<path fill="none" stroke="#63b8ff" d="M398.23,-105.37C379.49,-95.63 354.48,-82.64 338.19,-74.17"/>
<polygon fill="#63b8ff" stroke="#63b8ff" points="396.62,-108.48 407.11,-109.98 399.85,-102.27 396.62,-108.48"/>
</a>
</g>
</g>
<!-- Node24 -->
<g id="Node000024" class="node">
<title>Node24</title>
<g id="a_Node000024"><a xlink:href="p3m__heffte_8impl_8hpp.html" target="_top" xlink:title=" ">
<polygon fill="white" stroke="#666666" points="482.5,-74 364.5,-74 364.5,-55 482.5,-55 482.5,-74"/>
<text text-anchor="middle" x="423.5" y="-62" font-family="Helvetica,sans-Serif" font-size="10.00">p3m_heffte.impl.hpp</text>
</a>
</g>
</g>
<!-- Node20&#45;&gt;Node24 -->
<g id="edge27_Node000020_Node000024" class="edge">
<title>Node20&#45;&gt;Node24</title>
<g id="a_edge27_Node000020_Node000024"><a xlink:title=" ">
<path fill="none" stroke="#63b8ff" d="M423.5,-99.66C423.5,-90.93 423.5,-80.99 423.5,-74.09"/>
<polygon fill="#63b8ff" stroke="#63b8ff" points="420,-99.75 423.5,-109.75 427,-99.75 420,-99.75"/>
</a>
</g>
</g>
<!-- Node22 -->
<g id="Node000022" class="node">
<title>Node22</title>
<g id="a_Node000022"><a xlink:href="dp3m__heffte_8cpp.html" target="_top" xlink:title=" ">
<polygon fill="white" stroke="#666666" points="819.5,-19 721.5,-19 721.5,0 819.5,0 819.5,-19"/>
<text text-anchor="middle" x="770.5" y="-7" font-family="Helvetica,sans-Serif" font-size="10.00">dp3m_heffte.cpp</text>
</a>
</g>
</g>
<!-- Node21&#45;&gt;Node22 -->
<g id="edge24_Node000021_Node000022" class="edge">
<title>Node21&#45;&gt;Node22</title>
<g id="a_edge24_Node000021_Node000022"><a xlink:title=" ">
<path fill="none" stroke="#63b8ff" d="M770.5,-44.66C770.5,-35.93 770.5,-25.99 770.5,-19.09"/>
<polygon fill="#63b8ff" stroke="#63b8ff" points="767,-44.75 770.5,-54.75 774,-44.75 767,-44.75"/>
</a>
</g>
</g>
<!-- Node25 -->
<g id="Node000025" class="node">
<title>Node25</title>
<g id="a_Node000025"><a xlink:href="p3m__heffte_8cpp.html" target="_top" xlink:title=" ">
<polygon fill="white" stroke="#666666" points="469.5,-19 377.5,-19 377.5,0 469.5,0 469.5,-19"/>
<text text-anchor="middle" x="423.5" y="-7" font-family="Helvetica,sans-Serif" font-size="10.00">p3m_heffte.cpp</text>
</a>
</g>
</g>
<!-- Node24&#45;&gt;Node25 -->
<g id="edge28_Node000024_Node000025" class="edge">
<title>Node24&#45;&gt;Node25</title>
<g id="a_edge28_Node000024_Node000025"><a xlink:title=" ">
<path fill="none" stroke="#63b8ff" d="M423.5,-44.66C423.5,-35.93 423.5,-25.99 423.5,-19.09"/>
<polygon fill="#63b8ff" stroke="#63b8ff" points="420,-44.75 423.5,-54.75 427,-44.75 420,-44.75"/>
</a>
</g>
</g>
<!-- Node26&#45;&gt;Node27 -->
<g id="edge30_Node000026_Node000027" class="edge">
<title>Node26&#45;&gt;Node27</title>
<g id="a_edge30_Node000026_Node000027"><a xlink:title=" ">
<path fill="none" stroke="#63b8ff" d="M650.51,-155.82C655.09,-146.82 660.45,-136.29 664.12,-129.09"/>
<polygon fill="#63b8ff" stroke="#63b8ff" points="647.38,-154.25 645.96,-164.75 653.62,-157.43 647.38,-154.25"/>
</a>
</g>
</g>
<!-- Node31&#45;&gt;Node30 -->
<g id="edge41_Node000031_Node000030" class="edge">
<title>Node31&#45;&gt;Node30</title>
<g id="a_edge41_Node000031_Node000030"><a xlink:title=" ">
<path fill="none" stroke="#63b8ff" d="M839.25,-323.32C850.31,-313.87 864.13,-302.06 873.36,-294.17"/>
<polygon fill="#63b8ff" stroke="#63b8ff" points="836.79,-320.83 831.46,-329.98 841.34,-326.15 836.79,-320.83"/>
</a>
</g>
</g>
</g>
</svg>
