<?xml version="1.0" encoding="UTF-8" standalone="no"?>
<!DOCTYPE svg PUBLIC "-//W3C//DTD SVG 1.1//EN"
 "http://www.w3.org/Graphics/SVG/1.1/DTD/svg11.dtd">
<!-- Generated by graphviz version 2.43.0 (0)
 -->
<!-- Title: EKReactions.hpp Pages: 1 -->
<svg width="253pt" height="192pt"
 viewBox="0.00 0.00 253.00 192.00" xmlns="http://www.w3.org/2000/svg" xmlns:xlink="http://www.w3.org/1999/xlink">
<g id="graph0" class="graph" transform="scale(1 1) rotate(0) translate(4 188)">
<title>EKReactions.hpp</title>
<!-- Node1 -->
<g id="Node000001" class="node">
<title>Node1</title>
<g id="a_Node000001"><a xlink:title=" ">
<polygon fill="#999999" stroke="#666666" points="191,-184 93,-184 93,-165 191,-165 191,-184"/>
<text text-anchor="middle" x="142" y="-172" font-family="Helvetica,sans-Serif" font-size="10.00">EKReactions.hpp</text>
</a>
</g>
</g>
<!-- Node2 -->
<g id="Node000002" class="node">
<title>Node2</title>
<g id="a_Node000002"><a xlink:href="script__interface_2walberla_2EKReactions_8hpp.html" target="_top" xlink:title=" ">
<polygon fill="white" stroke="#666666" points="135,-129 37,-129 37,-110 135,-110 135,-129"/>
<text text-anchor="middle" x="86" y="-117" font-family="Helvetica,sans-Serif" font-size="10.00">EKReactions.hpp</text>
</a>
</g>
</g>
<!-- Node1&#45;&gt;Node2 -->
<g id="edge1_Node000001_Node000002" class="edge">
<title>Node1&#45;&gt;Node2</title>
<g id="a_edge1_Node000001_Node000002"><a xlink:title=" ">
<path fill="none" stroke="#63b8ff" d="M125.67,-158.04C115.74,-148.64 103.41,-136.98 95.16,-129.17"/>
<polygon fill="#63b8ff" stroke="#63b8ff" points="123.33,-160.65 133,-164.98 128.15,-155.57 123.33,-160.65"/>
</a>
</g>
</g>
<!-- Node5 -->
<g id="Node000005" class="node">
<title>Node5</title>
<g id="a_Node000005"><a xlink:href="EKWalberla_8cpp.html" target="_top" xlink:title=" ">
<polygon fill="white" stroke="#666666" points="245,-129 153,-129 153,-110 245,-110 245,-129"/>
<text text-anchor="middle" x="199" y="-117" font-family="Helvetica,sans-Serif" font-size="10.00">EKWalberla.cpp</text>
</a>
</g>
</g>
<!-- Node1&#45;&gt;Node5 -->
<g id="edge5_Node000001_Node000005" class="edge">
<title>Node1&#45;&gt;Node5</title>
<g id="a_edge5_Node000001_Node000005"><a xlink:title=" ">
<path fill="none" stroke="#63b8ff" d="M158.62,-158.04C168.73,-148.64 181.28,-136.98 189.68,-129.17"/>
<polygon fill="#63b8ff" stroke="#63b8ff" points="156.1,-155.61 151.16,-164.98 160.86,-160.74 156.1,-155.61"/>
</a>
</g>
</g>
<!-- Node3 -->
<g id="Node000003" class="node">
<title>Node3</title>
<g id="a_Node000003"><a xlink:href="script__interface_2walberla_2EKContainer_8hpp.html" target="_top" xlink:title=" ">
<polygon fill="white" stroke="#666666" points="96,-74 0,-74 0,-55 96,-55 96,-74"/>
<text text-anchor="middle" x="48" y="-62" font-family="Helvetica,sans-Serif" font-size="10.00">EKContainer.hpp</text>
</a>
</g>
</g>
<!-- Node2&#45;&gt;Node3 -->
<g id="edge2_Node000002_Node000003" class="edge">
<title>Node2&#45;&gt;Node3</title>
<g id="a_edge2_Node000002_Node000003"><a xlink:title=" ">
<path fill="none" stroke="#63b8ff" d="M73.73,-101.39C67.19,-92.27 59.43,-81.45 54.16,-74.09"/>
<polygon fill="#63b8ff" stroke="#63b8ff" points="71.05,-103.66 79.73,-109.75 76.74,-99.58 71.05,-103.66"/>
</a>
</g>
</g>
<!-- Node4 -->
<g id="Node000004" class="node">
<title>Node4</title>
<g id="a_Node000004"><a xlink:href="walberla_2initialize_8cpp.html" target="_top" xlink:title=" ">
<polygon fill="white" stroke="#666666" points="125.5,-19 46.5,-19 46.5,0 125.5,0 125.5,-19"/>
<text text-anchor="middle" x="86" y="-7" font-family="Helvetica,sans-Serif" font-size="10.00">initialize.cpp</text>
</a>
</g>
</g>
<!-- Node2&#45;&gt;Node4 -->
<g id="edge4_Node000002_Node000004" class="edge">
<title>Node2&#45;&gt;Node4</title>
<g id="a_edge4_Node000002_Node000004"><a xlink:title=" ">
<path fill="none" stroke="#63b8ff" d="M95.43,-100.96C99.21,-92.97 103.11,-83.26 105,-74 109.1,-53.93 98.32,-31.07 91.36,-19"/>
<polygon fill="#63b8ff" stroke="#63b8ff" points="92.26,-99.47 90.88,-109.98 98.51,-102.63 92.26,-99.47"/>
</a>
</g>
</g>
<!-- Node3&#45;&gt;Node4 -->
<g id="edge3_Node000003_Node000004" class="edge">
<title>Node3&#45;&gt;Node4</title>
<g id="a_edge3_Node000003_Node000004"><a xlink:title=" ">
<path fill="none" stroke="#63b8ff" d="M60.27,-46.39C66.81,-37.27 74.57,-26.45 79.84,-19.09"/>
<polygon fill="#63b8ff" stroke="#63b8ff" points="57.26,-44.58 54.27,-54.75 62.95,-48.66 57.26,-44.58"/>
</a>
</g>
</g>
</g>
</svg>
