<?xml version="1.0" encoding="UTF-8" standalone="no"?>
<!DOCTYPE svg PUBLIC "-//W3C//DTD SVG 1.1//EN"
 "http://www.w3.org/Graphics/SVG/1.1/DTD/svg11.dtd">
<!-- Generated by graphviz version 2.43.0 (0)
 -->
<!-- Title: CylindricalPidProfileObservable.hpp Pages: 1 -->
<!--zoomable 162 -->
<svg id="main" version="1.1" xmlns="http://www.w3.org/2000/svg" xmlns:xlink="http://www.w3.org/1999/xlink" xml:space="preserve" onload="init(evt)">
<style type="text/css"><![CDATA[
.edge:hover path { stroke: red; }
.edge:hover polygon { stroke: red; fill: red; }
]]></style>
<script type="text/javascript"><![CDATA[
var edges = document.getElementsByTagName('g');
if (edges && edges.length) {
  for (var i=0;i<edges.length;i++) {
    if (edges[i].id.substr(0,4)=='edge') {
      edges[i].setAttribute('class','edge');
    }
  }
}
]]></script>
        <defs>
                <circle id="rim" cx="0" cy="0" r="7"/>
                <circle id="rim2" cx="0" cy="0" r="3.5"/>
                <g id="zoomPlus">
                        <use xlink:href="#rim" fill="#404040">
                                <set attributeName="fill" to="#808080" begin="zoomplus.mouseover" end="zoomplus.mouseout"/>
                        </use>
                        <path d="M-4,0h8M0,-4v8" fill="none" stroke="white" stroke-width="1.5" pointer-events="none"/>
                </g>
                <g id="zoomMin">
                        <use xlink:href="#rim" fill="#404040">
                                <set attributeName="fill" to="#808080" begin="zoomminus.mouseover" end="zoomminus.mouseout"/>
                        </use>
                        <path d="M-4,0h8" fill="none" stroke="white" stroke-width="1.5" pointer-events="none"/>
                </g>
                <g id="dirArrow">
                        <path fill="none" stroke="white" stroke-width="1.5" d="M0,-3.0v7 M-2.5,-0.5L0,-3.0L2.5,-0.5"/>
                </g>
               <g id="resetDef">
                       <use xlink:href="#rim2" fill="#404040">
                               <set attributeName="fill" to="#808080" begin="reset.mouseover" end="reset.mouseout"/>
                       </use>
               </g>
        </defs>

<script type="text/javascript">
var viewWidth = 1100;
var viewHeight = 162;
var sectionId = 'dynsection-1';
</script>
<script xlink:href="svgpan.js"/>
<svg id="graph" class="graph">
<g id="viewport">
<title>CylindricalPidProfileObservable.hpp</title>
<!-- Node1 -->
<g id="node1" class="node">
<title>Node1</title>
<g id="a_node1"><a xlink:title=" ">
<polygon fill="#bfbfbf" stroke="black" points="444,-134.5 444,-153.5 635,-153.5 635,-134.5 444,-134.5"/>
<text text-anchor="middle" x="539.5" y="-141.5" font-family="Helvetica,sans-Serif" font-size="10.00">CylindricalPidProfileObservable.hpp</text>
</a>
</g>
</g>
<!-- Node2 -->
<g id="node2" class="node">
<title>Node2</title>
<g id="a_node2"><a xlink:href="CylindricalDensityProfile_8hpp.html" target="_top" xlink:title=" ">
<polygon fill="none" stroke="black" points="179.5,-73 179.5,-92 337.5,-92 337.5,-73 179.5,-73"/>
<text text-anchor="middle" x="258.5" y="-80" font-family="Helvetica,sans-Serif" font-size="10.00">CylindricalDensityProfile.hpp</text>
</a>
</g>
</g>
<!-- Node1&#45;&gt;Node2 -->
<g id="edge1" class="edge">
<title>Node1&#45;&gt;Node2</title>
<path fill="none" stroke="midnightblue" d="M489.45,-132.4C434.97,-120.87 348.94,-102.65 298.69,-92.01"/>
<polygon fill="midnightblue" stroke="midnightblue" points="488.73,-135.83 499.24,-134.48 490.18,-128.98 488.73,-135.83"/>
</g>
<!-- Node4 -->
<g id="node4" class="node">
<title>Node4</title>
<g id="a_node4"><a xlink:href="CylindricalFluxDensityProfile_8hpp.html" target="_top" xlink:title=" ">
<polygon fill="none" stroke="black" points="356,-73 356,-92 535,-92 535,-73 356,-73"/>
<text text-anchor="middle" x="445.5" y="-80" font-family="Helvetica,sans-Serif" font-size="10.00">CylindricalFluxDensityProfile.hpp</text>
</a>
</g>
</g>
<!-- Node1&#45;&gt;Node4 -->
<g id="edge3" class="edge">
<title>Node1&#45;&gt;Node4</title>
<path fill="none" stroke="midnightblue" d="M517.27,-128.93C499.15,-117.46 474.15,-101.63 458.94,-92.01"/>
<polygon fill="midnightblue" stroke="midnightblue" points="515.71,-132.08 526.03,-134.48 519.45,-126.17 515.71,-132.08"/>
</g>
<!-- Node5 -->
<g id="node5" class="node">
<title>Node5</title>
<g id="a_node5"><a xlink:href="CylindricalLBFluxDensityProfileAtParticlePositions_8hpp.html" target="_top" xlink:title=" ">
<polygon fill="none" stroke="black" points="0,-67.5 0,-97.5 161,-97.5 161,-67.5 0,-67.5"/>
<text text-anchor="start" x="8" y="-85.5" font-family="Helvetica,sans-Serif" font-size="10.00">CylindricalLBFluxDensity</text>
<text text-anchor="middle" x="80.5" y="-74.5" font-family="Helvetica,sans-Serif" font-size="10.00">ProfileAtParticlePositions.hpp</text>
</a>
</g>
</g>
<!-- Node1&#45;&gt;Node5 -->
<g id="edge5" class="edge">
<title>Node1&#45;&gt;Node5</title>
<path fill="none" stroke="midnightblue" d="M452.03,-133.29C377.19,-124.75 266.62,-111.6 170.5,-98 167.52,-97.58 164.49,-97.14 161.43,-96.69"/>
<polygon fill="midnightblue" stroke="midnightblue" points="452.02,-136.81 462.35,-134.46 452.81,-129.86 452.02,-136.81"/>
</g>
<!-- Node7 -->
<g id="node7" class="node">
<title>Node7</title>
<g id="a_node7"><a xlink:href="CylindricalLBVelocityProfileAtParticlePositions_8hpp.html" target="_top" xlink:title=" ">
<polygon fill="none" stroke="black" points="941,-67.5 941,-97.5 1092,-97.5 1092,-67.5 941,-67.5"/>
<text text-anchor="start" x="949" y="-85.5" font-family="Helvetica,sans-Serif" font-size="10.00">CylindricalLBVelocityProfile</text>
<text text-anchor="middle" x="1016.5" y="-74.5" font-family="Helvetica,sans-Serif" font-size="10.00">AtParticlePositions.hpp</text>
</a>
</g>
</g>
<!-- Node1&#45;&gt;Node7 -->
<g id="edge8" class="edge">
<title>Node1&#45;&gt;Node7</title>
<path fill="none" stroke="midnightblue" d="M636.34,-133.46C716,-125.25 831.78,-112.45 932.5,-98 935.28,-97.6 938.12,-97.18 940.98,-96.75"/>
<polygon fill="midnightblue" stroke="midnightblue" points="635.91,-129.99 626.32,-134.49 636.62,-136.95 635.91,-129.99"/>
</g>
<!-- Node9 -->
<g id="node9" class="node">
<title>Node9</title>
<g id="a_node9"><a xlink:href="CylindricalVelocityProfile_8hpp.html" target="_top" xlink:title=" ">
<polygon fill="none" stroke="black" points="553,-73 553,-92 714,-92 714,-73 553,-73"/>
<text text-anchor="middle" x="633.5" y="-80" font-family="Helvetica,sans-Serif" font-size="10.00">CylindricalVelocityProfile.hpp</text>
</a>
</g>
</g>
<!-- Node1&#45;&gt;Node9 -->
<g id="edge11" class="edge">
<title>Node1&#45;&gt;Node9</title>
<path fill="none" stroke="midnightblue" d="M561.73,-128.93C579.85,-117.46 604.85,-101.63 620.06,-92.01"/>
<polygon fill="midnightblue" stroke="midnightblue" points="559.55,-126.17 552.97,-134.48 563.29,-132.08 559.55,-126.17"/>
</g>
<!-- Node10 -->
<g id="node10" class="node">
<title>Node10</title>
<g id="a_node10"><a xlink:href="script__interface_2observables_2CylindricalPidProfileObservable_8hpp.html" target="_top" xlink:title=" ">
<polygon fill="none" stroke="black" points="732,-73 732,-92 923,-92 923,-73 732,-73"/>
<text text-anchor="middle" x="827.5" y="-80" font-family="Helvetica,sans-Serif" font-size="10.00">CylindricalPidProfileObservable.hpp</text>
</a>
</g>
</g>
<!-- Node1&#45;&gt;Node10 -->
<g id="edge13" class="edge">
<title>Node1&#45;&gt;Node10</title>
<path fill="none" stroke="midnightblue" d="M590.8,-132.4C646.63,-120.87 734.81,-102.65 786.31,-92.01"/>
<polygon fill="midnightblue" stroke="midnightblue" points="589.85,-129.02 580.76,-134.48 591.26,-135.88 589.85,-129.02"/>
</g>
<!-- Node3 -->
<g id="node3" class="node">
<title>Node3</title>
<g id="a_node3"><a xlink:href="observables_2initialize_8cpp.html" target="_top" xlink:title=" ">
<polygon fill="none" stroke="black" points="500,-6 500,-25 579,-25 579,-6 500,-6"/>
<text text-anchor="middle" x="539.5" y="-13" font-family="Helvetica,sans-Serif" font-size="10.00">initialize.cpp</text>
</a>
</g>
</g>
<!-- Node2&#45;&gt;Node3 -->
<g id="edge2" class="edge">
<title>Node2&#45;&gt;Node3</title>
<path fill="none" stroke="midnightblue" d="M305.43,-70.64C360.8,-57.84 451.7,-36.81 502.39,-25.08"/>
<polygon fill="midnightblue" stroke="midnightblue" points="304.48,-67.27 295.52,-72.94 306.06,-74.09 304.48,-67.27"/>
</g>
<!-- Node4&#45;&gt;Node3 -->
<g id="edge4" class="edge">
<title>Node4&#45;&gt;Node3</title>
<path fill="none" stroke="midnightblue" d="M466.59,-66.92C485.17,-54.07 511.62,-35.78 527.02,-25.13"/>
<polygon fill="midnightblue" stroke="midnightblue" points="464.41,-64.17 458.18,-72.73 468.39,-69.93 464.41,-64.17"/>
</g>
<!-- Node5&#45;&gt;Node3 -->
<g id="edge7" class="edge">
<title>Node5&#45;&gt;Node3</title>
<path fill="none" stroke="midnightblue" d="M171.65,-66.85C297.69,-48.18 434.02,-30.17 499.87,-21.61"/>
<polygon fill="midnightblue" stroke="midnightblue" points="170.82,-63.43 161.44,-68.37 171.84,-70.36 170.82,-63.43"/>
</g>
<!-- Node6 -->
<g id="node6" class="node">
<title>Node6</title>
<g id="a_node6"><a xlink:href="CylindricalLBFluxDensityProfileAtParticlePositions_8cpp.html" target="_top" xlink:title=" ">
<polygon fill="none" stroke="black" points="0.5,-0.5 0.5,-30.5 160.5,-30.5 160.5,-0.5 0.5,-0.5"/>
<text text-anchor="start" x="8.5" y="-18.5" font-family="Helvetica,sans-Serif" font-size="10.00">CylindricalLBFluxDensity</text>
<text text-anchor="middle" x="80.5" y="-7.5" font-family="Helvetica,sans-Serif" font-size="10.00">ProfileAtParticlePositions.cpp</text>
</a>
</g>
</g>
<!-- Node5&#45;&gt;Node6 -->
<g id="edge6" class="edge">
<title>Node5&#45;&gt;Node6</title>
<path fill="none" stroke="midnightblue" d="M80.5,-57.11C80.5,-48.15 80.5,-38.32 80.5,-30.58"/>
<polygon fill="midnightblue" stroke="midnightblue" points="77,-57.4 80.5,-67.4 84,-57.4 77,-57.4"/>
</g>
<!-- Node7&#45;&gt;Node3 -->
<g id="edge10" class="edge">
<title>Node7&#45;&gt;Node3</title>
<path fill="none" stroke="midnightblue" d="M930.88,-66.79C796.15,-46.71 648.45,-29.05 579.18,-21.03"/>
<polygon fill="midnightblue" stroke="midnightblue" points="930.56,-70.28 940.97,-68.3 931.6,-63.36 930.56,-70.28"/>
</g>
<!-- Node8 -->
<g id="node8" class="node">
<title>Node8</title>
<g id="a_node8"><a xlink:href="CylindricalLBVelocityProfileAtParticlePositions_8cpp.html" target="_top" xlink:title=" ">
<polygon fill="none" stroke="black" points="941,-0.5 941,-30.5 1092,-30.5 1092,-0.5 941,-0.5"/>
<text text-anchor="start" x="949" y="-18.5" font-family="Helvetica,sans-Serif" font-size="10.00">CylindricalLBVelocityProfile</text>
<text text-anchor="middle" x="1016.5" y="-7.5" font-family="Helvetica,sans-Serif" font-size="10.00">AtParticlePositions.cpp</text>
</a>
</g>
</g>
<!-- Node7&#45;&gt;Node8 -->
<g id="edge9" class="edge">
<title>Node7&#45;&gt;Node8</title>
<path fill="none" stroke="midnightblue" d="M1016.5,-57.11C1016.5,-48.15 1016.5,-38.32 1016.5,-30.58"/>
<polygon fill="midnightblue" stroke="midnightblue" points="1013,-57.4 1016.5,-67.4 1020,-57.4 1013,-57.4"/>
</g>
<!-- Node9&#45;&gt;Node3 -->
<g id="edge12" class="edge">
<title>Node9&#45;&gt;Node3</title>
<path fill="none" stroke="midnightblue" d="M612.41,-66.92C593.83,-54.07 567.38,-35.78 551.98,-25.13"/>
<polygon fill="midnightblue" stroke="midnightblue" points="610.61,-69.93 620.82,-72.73 614.59,-64.17 610.61,-69.93"/>
</g>
<!-- Node10&#45;&gt;Node3 -->
<g id="edge14" class="edge">
<title>Node10&#45;&gt;Node3</title>
<path fill="none" stroke="midnightblue" d="M779.75,-70.72C723.04,-57.92 629.59,-36.83 577.53,-25.08"/>
<polygon fill="midnightblue" stroke="midnightblue" points="779.03,-74.15 789.55,-72.94 780.57,-67.32 779.03,-74.15"/>
</g>
</g>
</svg>
        <g id="navigator" transform="translate(0 0)" fill="#404254">
                <rect fill="#f2f5e9" fill-opacity="0.5" stroke="#606060" stroke-width=".5" x="0" y="0" width="60" height="60"/>
                <use id="zoomplus" xlink:href="#zoomPlus" x="17" y="9" onmousedown="handleZoom(evt,'in')"/>
                <use id="zoomminus" xlink:href="#zoomMin" x="42" y="9" onmousedown="handleZoom(evt,'out')"/>
                <use id="reset" xlink:href="#resetDef" x="30" y="36" onmousedown="handleReset()"/>
                <g id="arrowUp" xlink:href="#dirArrow" transform="translate(30 24)" onmousedown="handlePan(0,-1)">
                  <use xlink:href="#rim" fill="#404040">
                        <set attributeName="fill" to="#808080" begin="arrowUp.mouseover" end="arrowUp.mouseout"/>
                  </use>
                  <path fill="none" stroke="white" stroke-width="1.5" d="M0,-3.0v7 M-2.5,-0.5L0,-3.0L2.5,-0.5"/>
                </g>
                <g id="arrowRight" xlink:href="#dirArrow" transform="rotate(90) translate(36 -43)" onmousedown="handlePan(1,0)">
                  <use xlink:href="#rim" fill="#404040">
                        <set attributeName="fill" to="#808080" begin="arrowRight.mouseover" end="arrowRight.mouseout"/>
                  </use>
                  <path fill="none" stroke="white" stroke-width="1.5" d="M0,-3.0v7 M-2.5,-0.5L0,-3.0L2.5,-0.5"/>
                </g>
                <g id="arrowDown" xlink:href="#dirArrow" transform="rotate(180) translate(-30 -48)" onmousedown="handlePan(0,1)">
                  <use xlink:href="#rim" fill="#404040">
                        <set attributeName="fill" to="#808080" begin="arrowDown.mouseover" end="arrowDown.mouseout"/>
                  </use>
                  <path fill="none" stroke="white" stroke-width="1.5" d="M0,-3.0v7 M-2.5,-0.5L0,-3.0L2.5,-0.5"/>
                </g>
                <g id="arrowLeft" xlink:href="#dirArrow" transform="rotate(270) translate(-36 17)" onmousedown="handlePan(-1,0)">
                  <use xlink:href="#rim" fill="#404040">
                        <set attributeName="fill" to="#808080" begin="arrowLeft.mouseover" end="arrowLeft.mouseout"/>
                  </use>
                  <path fill="none" stroke="white" stroke-width="1.5" d="M0,-3.0v7 M-2.5,-0.5L0,-3.0L2.5,-0.5"/>
                </g>
        </g>
        <svg viewBox="0 0 15 15" width="100%" height="30px" preserveAspectRatio="xMaxYMin meet">
         <g id="arrow_out" transform="scale(0.3 0.3)">
          <a xlink:href="core_2observables_2CylindricalPidProfileObservable_8hpp__dep__incl_org.svg" target="_base">
           <rect id="button" ry="5" rx="5" y="6" x="6" height="38" width="38"
                fill="#f2f5e9" fill-opacity="0.5" stroke="#606060" stroke-width="1.0"/>
           <path id="arrow"
             d="M 11.500037,31.436501 C 11.940474,20.09759 22.043105,11.32322 32.158766,21.979434 L 37.068811,17.246167 C 37.068811,17.246167 37.088388,32 37.088388,32 L 22.160133,31.978069 C 22.160133,31.978069 26.997745,27.140456 26.997745,27.140456 C 18.528582,18.264221 13.291696,25.230495 11.500037,31.436501 z"
             style="fill:#404040;"/>
          </a>
         </g>
        </svg>
</svg>
