<?xml version="1.0" encoding="UTF-8" standalone="no"?>
<!DOCTYPE svg PUBLIC "-//W3C//DTD SVG 1.1//EN"
 "http://www.w3.org/Graphics/SVG/1.1/DTD/svg11.dtd">
<!-- Generated by graphviz version 2.43.0 (0)
 -->
<!-- Title: scafacos.hpp Pages: 1 -->
<!--zoomable 423 -->

<svg id="main" version="1.1" xmlns="http://www.w3.org/2000/svg" xmlns:xlink="http://www.w3.org/1999/xlink" xml:space="preserve" onload="init(evt)">
<style type="text/css"><![CDATA[
.node, .edge {opacity: 0.7;}
.node.selected, .edge.selected {opacity: 1;}
.edge:hover path { stroke: red; }
.edge:hover polygon { stroke: red; fill: red; }
]]></style>

<defs>
  <circle id="rim" cx="0" cy="0" r="7"/>
  <circle id="rim2" cx="0" cy="0" r="3.5"/>
  <g id="zoomPlus">
    <use xlink:href="#rim" fill="#404040"><set attributeName="fill" to="#808080" begin="zoomplus.mouseover" end="zoomplus.mouseout"/></use>
    <path d="M-4,0h8M0,-4v8" fill="none" stroke="white" stroke-width="1.5" pointer-events="none"/>
  </g>
  <g id="zoomMin">
    <use xlink:href="#rim" fill="#404040"><set attributeName="fill" to="#808080" begin="zoomminus.mouseover" end="zoomminus.mouseout"/></use>
    <path d="M-4,0h8" fill="none" stroke="white" stroke-width="1.5" pointer-events="none"/>
  </g>
  <g id="arrowUp" transform="translate(30 24)">
    <use xlink:href="#rim"/>
    <path pointer-events="none" fill="none" stroke="white" stroke-width="1.5" d="M0,-3.0v7 M-2.5,-0.5L0,-3.0L2.5,-0.5"/>
  </g>
  <g id="arrowRight" transform="rotate(90) translate(36 -43)">
    <use xlink:href="#rim"/>
    <path pointer-events="none" fill="none" stroke="white" stroke-width="1.5" d="M0,-3.0v7 M-2.5,-0.5L0,-3.0L2.5,-0.5"/>
  </g>
  <g id="arrowDown" transform="rotate(180) translate(-30 -48)">
    <use xlink:href="#rim"/>
    <path pointer-events="none" fill="none" stroke="white" stroke-width="1.5" d="M0,-3.0v7 M-2.5,-0.5L0,-3.0L2.5,-0.5"/>
  </g>
  <g id="arrowLeft" transform="rotate(270) translate(-36 17)">
    <use xlink:href="#rim"/>
    <path pointer-events="none" fill="none" stroke="white" stroke-width="1.5" d="M0,-3.0v7 M-2.5,-0.5L0,-3.0L2.5,-0.5"/>
  </g>
  <g id="resetDef">
    <use xlink:href="#rim2" fill="#404040"><set attributeName="fill" to="#808080" begin="reset.mouseover" end="reset.mouseout"/></use>
  </g>
</defs>
<script type="application/ecmascript">
var viewWidth = 1762;
var viewHeight = 423;
var sectionId = 'dynsection-1';
</script>
<script type="application/ecmascript" xlink:href="svg.min.js"/>
<svg id="graph" class="graph">
<g id="viewport">
<title>scafacos.hpp</title>
<!-- Node1 -->
<g id="Node000001" class="node">
<title>Node1</title>
<g id="a_Node000001"><a xlink:title=" ">
<polygon fill="#999999" stroke="#666666" points="1612,-415 1532,-415 1532,-396 1612,-396 1612,-415"/>
<text text-anchor="middle" x="1572" y="-403" font-family="Helvetica,sans-Serif" font-size="10.00">scafacos.hpp</text>
</a>
</g>
</g>
<!-- Node2 -->
<g id="Node000002" class="node">
<title>Node2</title>
<g id="a_Node000002"><a xlink:href="CoulombScafacos_8hpp.html" target="_top" xlink:title=" ">
<polygon fill="white" stroke="#666666" points="1589.5,-360 1464.5,-360 1464.5,-341 1589.5,-341 1589.5,-360"/>
<text text-anchor="middle" x="1527" y="-348" font-family="Helvetica,sans-Serif" font-size="10.00">CoulombScafacos.hpp</text>
</a>
</g>
</g>
<!-- Node1&#45;&gt;Node2 -->
<g id="edge1_Node000001_Node000002" class="edge">
<title>Node1&#45;&gt;Node2</title>
<g id="a_edge1_Node000001_Node000002"><a xlink:title=" ">
<path fill="none" stroke="#63b8ff" d="M1557.95,-387.96C1550.11,-378.72 1540.67,-367.6 1534.29,-360.09"/>
<polygon fill="#63b8ff" stroke="#63b8ff" points="1555.43,-390.39 1564.57,-395.75 1560.76,-385.86 1555.43,-390.39"/>
</a>
</g>
</g>
<!-- Node4 -->
<g id="Node000004" class="node">
<title>Node4</title>
<g id="a_Node000004"><a xlink:href="coulomb_8hpp.html" target="_top" xlink:title=" ">
<polygon fill="white" stroke="#666666" points="966,-360 886,-360 886,-341 966,-341 966,-360"/>
<text text-anchor="middle" x="926" y="-348" font-family="Helvetica,sans-Serif" font-size="10.00">coulomb.hpp</text>
</a>
</g>
</g>
<!-- Node1&#45;&gt;Node4 -->
<g id="edge3_Node000001_Node000004" class="edge">
<title>Node1&#45;&gt;Node4</title>
<g id="a_edge3_Node000001_Node000004"><a xlink:title=" ">
<path fill="none" stroke="#63b8ff" d="M1521.59,-400.36C1397.52,-390.18 1079.22,-364.07 966.39,-354.81"/>
<polygon fill="#63b8ff" stroke="#63b8ff" points="1521.34,-403.86 1531.59,-401.18 1521.91,-396.88 1521.34,-403.86"/>
</a>
</g>
</g>
<!-- Node31 -->
<g id="Node000031" class="node">
<title>Node31</title>
<g id="a_Node000031"><a xlink:href="electrostatics_2scafacos__impl_8cpp.html" target="_top" xlink:title=" ">
<polygon fill="white" stroke="#666666" points="1730.5,-299.5 1623.5,-299.5 1623.5,-280.5 1730.5,-280.5 1730.5,-299.5"/>
<text text-anchor="middle" x="1677" y="-287.5" font-family="Helvetica,sans-Serif" font-size="10.00">scafacos_impl.cpp</text>
</a>
</g>
</g>
<!-- Node1&#45;&gt;Node31 -->
<g id="edge43_Node000001_Node000031" class="edge">
<title>Node1&#45;&gt;Node31</title>
<g id="a_edge43_Node000001_Node000031"><a xlink:title=" ">
<path fill="none" stroke="#63b8ff" d="M1586.71,-388.6C1609.21,-364.27 1651.45,-318.62 1669.02,-299.63"/>
<polygon fill="#63b8ff" stroke="#63b8ff" points="1584.11,-386.25 1579.89,-395.97 1589.25,-391.01 1584.11,-386.25"/>
</a>
</g>
</g>
<!-- Node32 -->
<g id="Node000032" class="node">
<title>Node32</title>
<g id="a_Node000032"><a xlink:href="electrostatics_2scafacos__impl_8hpp.html" target="_top" xlink:title=" ">
<polygon fill="white" stroke="#666666" points="1753.5,-360 1646.5,-360 1646.5,-341 1753.5,-341 1753.5,-360"/>
<text text-anchor="middle" x="1700" y="-348" font-family="Helvetica,sans-Serif" font-size="10.00">scafacos_impl.hpp</text>
</a>
</g>
</g>
<!-- Node1&#45;&gt;Node32 -->
<g id="edge44_Node000001_Node000032" class="edge">
<title>Node1&#45;&gt;Node32</title>
<g id="a_edge44_Node000001_Node000032"><a xlink:title=" ">
<path fill="none" stroke="#63b8ff" d="M1602.12,-392.03C1625.79,-382.23 1658.15,-368.83 1679.06,-360.17"/>
<polygon fill="#63b8ff" stroke="#63b8ff" points="1600.47,-388.93 1592.57,-395.98 1603.14,-395.39 1600.47,-388.93"/>
</a>
</g>
</g>
<!-- Node3 -->
<g id="Node000003" class="node">
<title>Node3</title>
<g id="a_Node000003"><a xlink:href="electrostatics_2initialize_8cpp.html" target="_top" xlink:title=" ">
<polygon fill="white" stroke="#666666" points="1517.5,-239 1438.5,-239 1438.5,-220 1517.5,-220 1517.5,-239"/>
<text text-anchor="middle" x="1478" y="-227" font-family="Helvetica,sans-Serif" font-size="10.00">initialize.cpp</text>
</a>
</g>
</g>
<!-- Node2&#45;&gt;Node3 -->
<g id="edge2_Node000002_Node000003" class="edge">
<title>Node2&#45;&gt;Node3</title>
<g id="a_edge2_Node000002_Node000003"><a xlink:title=" ">
<path fill="none" stroke="#63b8ff" d="M1532.32,-330.73C1535.71,-315.08 1538.1,-292.6 1530,-275 1522.65,-259.03 1506.41,-246.65 1494.03,-239.05"/>
<polygon fill="#63b8ff" stroke="#63b8ff" points="1528.84,-330.19 1529.81,-340.74 1535.63,-331.89 1528.84,-330.19"/>
</a>
</g>
</g>
<!-- Node4&#45;&gt;Node3 -->
<g id="edge36_Node000004_Node000003" class="edge">
<title>Node4&#45;&gt;Node3</title>
<g id="a_edge36_Node000004_Node000003"><a xlink:title=" ">
<path fill="none" stroke="#63b8ff" d="M925.15,-330.93C925.46,-313.65 928.95,-288.58 945,-275 982.44,-243.33 1321.03,-233.62 1438.27,-231.2"/>
<polygon fill="#63b8ff" stroke="#63b8ff" points="921.65,-331.02 925.3,-340.96 928.65,-330.91 921.65,-331.02"/>
</a>
</g>
</g>
<!-- Node5 -->
<g id="Node000005" class="node">
<title>Node5</title>
<g id="a_Node000005"><a xlink:href="electrostatics_2Actor_8impl_8hpp.html" target="_top" xlink:title=" ">
<polygon fill="white" stroke="#666666" points="1521.5,-299.5 1434.5,-299.5 1434.5,-280.5 1521.5,-280.5 1521.5,-299.5"/>
<text text-anchor="middle" x="1478" y="-287.5" font-family="Helvetica,sans-Serif" font-size="10.00">Actor.impl.hpp</text>
</a>
</g>
</g>
<!-- Node4&#45;&gt;Node5 -->
<g id="edge4_Node000004_Node000005" class="edge">
<title>Node4&#45;&gt;Node5</title>
<g id="a_edge4_Node000004_Node000005"><a xlink:title=" ">
<path fill="none" stroke="#63b8ff" d="M976.32,-347.83C1066.74,-344.2 1262.45,-333.5 1425,-305 1432.97,-303.6 1441.49,-301.59 1449.31,-299.52"/>
<polygon fill="#63b8ff" stroke="#63b8ff" points="975.94,-344.34 966.08,-348.23 976.21,-351.34 975.94,-344.34"/>
</a>
</g>
</g>
<!-- Node6 -->
<g id="Node000006" class="node">
<title>Node6</title>
<g id="a_Node000006"><a xlink:href="System_8impl_8hpp.html" target="_top" xlink:title=" ">
<polygon fill="white" stroke="#666666" points="101.5,-299.5 2.5,-299.5 2.5,-280.5 101.5,-280.5 101.5,-299.5"/>
<text text-anchor="middle" x="52" y="-287.5" font-family="Helvetica,sans-Serif" font-size="10.00">System.impl.hpp</text>
</a>
</g>
</g>
<!-- Node4&#45;&gt;Node6 -->
<g id="edge6_Node000004_Node000006" class="edge">
<title>Node4&#45;&gt;Node6</title>
<g id="a_edge6_Node000004_Node000006"><a xlink:title=" ">
<path fill="none" stroke="#63b8ff" d="M875.5,-349.53C747.71,-349.01 401.39,-343.8 116,-305 106.19,-303.67 95.66,-301.62 86.03,-299.51"/>
<polygon fill="#63b8ff" stroke="#63b8ff" points="875.74,-353.03 885.75,-349.57 875.76,-346.03 875.74,-353.03"/>
</a>
</g>
</g>
<!-- Node9 -->
<g id="Node000009" class="node">
<title>Node9</title>
<g id="a_Node000009"><a xlink:href="coulomb_8cpp.html" target="_top" xlink:title=" ">
<polygon fill="white" stroke="#666666" points="1033.5,-299.5 954.5,-299.5 954.5,-280.5 1033.5,-280.5 1033.5,-299.5"/>
<text text-anchor="middle" x="994" y="-287.5" font-family="Helvetica,sans-Serif" font-size="10.00">coulomb.cpp</text>
</a>
</g>
</g>
<!-- Node4&#45;&gt;Node9 -->
<g id="edge9_Node000004_Node000009" class="edge">
<title>Node4&#45;&gt;Node9</title>
<g id="a_edge9_Node000004_Node000009"><a xlink:title=" ">
<path fill="none" stroke="#63b8ff" d="M943.76,-334.22C956.55,-323.21 973.36,-308.75 983.93,-299.67"/>
<polygon fill="#63b8ff" stroke="#63b8ff" points="941.33,-331.69 936.03,-340.87 945.9,-337 941.33,-331.69"/>
</a>
</g>
</g>
<!-- Node10 -->
<g id="Node000010" class="node">
<title>Node10</title>
<g id="a_Node000010"><a xlink:href="coulomb__inline_8hpp.html" target="_top" xlink:title=" ">
<polygon fill="white" stroke="#666666" points="720,-299.5 608,-299.5 608,-280.5 720,-280.5 720,-299.5"/>
<text text-anchor="middle" x="664" y="-287.5" font-family="Helvetica,sans-Serif" font-size="10.00">coulomb_inline.hpp</text>
</a>
</g>
</g>
<!-- Node4&#45;&gt;Node10 -->
<g id="edge10_Node000004_Node000010" class="edge">
<title>Node4&#45;&gt;Node10</title>
<g id="a_edge10_Node000004_Node000010"><a xlink:title=" ">
<path fill="none" stroke="#63b8ff" d="M877.86,-338.75C827.25,-327.45 748.64,-309.9 702.14,-299.52"/>
<polygon fill="#63b8ff" stroke="#63b8ff" points="877.38,-342.23 887.9,-340.99 878.91,-335.4 877.38,-342.23"/>
</a>
</g>
</g>
<!-- Node16 -->
<g id="Node000016" class="node">
<title>Node16</title>
<g id="a_Node000016"><a xlink:href="energy_8cpp.html" target="_top" xlink:title=" ">
<polygon fill="white" stroke="#666666" points="908.5,-129 839.5,-129 839.5,-110 908.5,-110 908.5,-129"/>
<text text-anchor="middle" x="874" y="-117" font-family="Helvetica,sans-Serif" font-size="10.00">energy.cpp</text>
</a>
</g>
</g>
<!-- Node4&#45;&gt;Node16 -->
<g id="edge34_Node000004_Node000016" class="edge">
<title>Node4&#45;&gt;Node16</title>
<g id="a_edge34_Node000004_Node000016"><a xlink:title=" ">
<path fill="none" stroke="#63b8ff" d="M901.42,-335.29C890.91,-327.76 879.75,-317.48 874,-305 845.47,-243.03 864.41,-156.46 871.58,-129.12"/>
<polygon fill="#63b8ff" stroke="#63b8ff" points="899.7,-338.35 909.97,-340.95 903.57,-332.51 899.7,-338.35"/>
</a>
</g>
</g>
<!-- Node22 -->
<g id="Node000022" class="node">
<title>Node22</title>
<g id="a_Node000022"><a xlink:href="icc_8cpp.html" target="_top" xlink:title="Functions to compute the electric field acting on the induced charges, excluding forces other than th...">
<polygon fill="white" stroke="#666666" points="291,-19 241,-19 241,0 291,0 291,-19"/>
<text text-anchor="middle" x="266" y="-7" font-family="Helvetica,sans-Serif" font-size="10.00">icc.cpp</text>
</a>
</g>
</g>
<!-- Node4&#45;&gt;Node22 -->
<g id="edge35_Node000004_Node000022" class="edge">
<title>Node4&#45;&gt;Node22</title>
<g id="a_edge35_Node000004_Node000022"><a xlink:title=" ">
<path fill="none" stroke="#63b8ff" d="M875.55,-348.75C742.63,-346.35 385.29,-337.03 272,-305 203.42,-285.61 130,-301.77 130,-230.5 130,-230.5 130,-230.5 130,-118.5 130,-89.04 128.94,-76.57 149,-55 173.27,-28.9 214.46,-17.98 240.93,-13.5"/>
<polygon fill="#63b8ff" stroke="#63b8ff" points="875.79,-352.26 885.85,-348.93 875.91,-345.26 875.79,-352.26"/>
</a>
</g>
</g>
<!-- Node23 -->
<g id="Node000023" class="node">
<title>Node23</title>
<g id="a_Node000023"><a xlink:href="p3m_8cpp.html" target="_top" xlink:title="The corresponding header file is p3m.hpp.">
<polygon fill="white" stroke="#666666" points="663.5,-19 604.5,-19 604.5,0 663.5,0 663.5,-19"/>
<text text-anchor="middle" x="634" y="-7" font-family="Helvetica,sans-Serif" font-size="10.00">p3m.cpp</text>
</a>
</g>
</g>
<!-- Node4&#45;&gt;Node23 -->
<g id="edge40_Node000004_Node000023" class="edge">
<title>Node4&#45;&gt;Node23</title>
<g id="a_edge40_Node000004_Node000023"><a xlink:title=" ">
<path fill="none" stroke="#63b8ff" d="M925.53,-330.71C924.1,-275.07 919.74,-114.77 917,-110 894.18,-70.35 872.25,-72.54 830,-55 773.6,-31.59 702.72,-19.39 663.51,-14.01"/>
<polygon fill="#63b8ff" stroke="#63b8ff" points="922.03,-330.99 925.79,-340.9 929.03,-330.81 922.03,-330.99"/>
</a>
</g>
</g>
<!-- Node25 -->
<g id="Node000025" class="node">
<title>Node25</title>
<g id="a_Node000025"><a xlink:href="pressure_8cpp.html" target="_top" xlink:title=" ">
<polygon fill="white" stroke="#666666" points="237.5,-74 158.5,-74 158.5,-55 237.5,-55 237.5,-74"/>
<text text-anchor="middle" x="198" y="-62" font-family="Helvetica,sans-Serif" font-size="10.00">pressure.cpp</text>
</a>
</g>
</g>
<!-- Node4&#45;&gt;Node25 -->
<g id="edge41_Node000004_Node000025" class="edge">
<title>Node4&#45;&gt;Node25</title>
<g id="a_edge41_Node000004_Node000025"><a xlink:title=" ">
<path fill="none" stroke="#63b8ff" d="M875.78,-346.77C708.85,-337.05 183,-300.84 183,-230.5 183,-230.5 183,-230.5 183,-173.5 183,-136.21 191.88,-92.36 195.98,-74.12"/>
<polygon fill="#63b8ff" stroke="#63b8ff" points="875.6,-350.27 885.79,-347.35 876.01,-343.28 875.6,-350.27"/>
</a>
</g>
</g>
<!-- Node26 -->
<g id="Node000026" class="node">
<title>Node26</title>
<g id="a_Node000026"><a xlink:href="thole_8hpp.html" target="_top" xlink:title="Routines to calculate the Thole damping potential between particle pairs.">
<polygon fill="white" stroke="#666666" points="754,-239 692,-239 692,-220 754,-220 754,-239"/>
<text text-anchor="middle" x="723" y="-227" font-family="Helvetica,sans-Serif" font-size="10.00">thole.hpp</text>
</a>
</g>
</g>
<!-- Node4&#45;&gt;Node26 -->
<g id="edge42_Node000004_Node000026" class="edge">
<title>Node4&#45;&gt;Node26</title>
<g id="a_edge42_Node000004_Node000026"><a xlink:title=" ">
<path fill="none" stroke="#63b8ff" d="M897.69,-336.6C879.72,-328.15 856.15,-316.57 836,-305 797.89,-283.13 755.16,-253.46 734.9,-239.05"/>
<polygon fill="#63b8ff" stroke="#63b8ff" points="896.49,-339.91 907.03,-340.96 899.44,-333.56 896.49,-339.91"/>
</a>
</g>
</g>
<!-- Node27 -->
<g id="Node000027" class="node">
<title>Node27</title>
<g id="a_Node000027"><a xlink:href="elc_8cpp.html" target="_top" xlink:title=" ">
<polygon fill="white" stroke="#666666" points="1102.5,-299.5 1051.5,-299.5 1051.5,-280.5 1102.5,-280.5 1102.5,-299.5"/>
<text text-anchor="middle" x="1077" y="-287.5" font-family="Helvetica,sans-Serif" font-size="10.00">elc.cpp</text>
</a>
</g>
</g>
<!-- Node4&#45;&gt;Node27 -->
<g id="edge33_Node000004_Node000027" class="edge">
<title>Node4&#45;&gt;Node27</title>
<g id="a_edge33_Node000004_Node000027"><a xlink:title=" ">
<path fill="none" stroke="#63b8ff" d="M958.11,-337.32C981.43,-328.45 1013.71,-316.08 1042,-305 1046.39,-303.28 1051.08,-301.42 1055.55,-299.64"/>
<polygon fill="#63b8ff" stroke="#63b8ff" points="956.81,-334.07 948.71,-340.9 959.3,-340.61 956.81,-334.07"/>
</a>
</g>
</g>
<!-- Node28 -->
<g id="Node000028" class="node">
<title>Node28</title>
<g id="a_Node000028"><a xlink:href="mmm1d_8cpp.html" target="_top" xlink:title=" ">
<polygon fill="white" stroke="#666666" points="1199,-299.5 1121,-299.5 1121,-280.5 1199,-280.5 1199,-299.5"/>
<text text-anchor="middle" x="1160" y="-287.5" font-family="Helvetica,sans-Serif" font-size="10.00">mmm1d.cpp</text>
</a>
</g>
</g>
<!-- Node4&#45;&gt;Node28 -->
<g id="edge37_Node000004_Node000028" class="edge">
<title>Node4&#45;&gt;Node28</title>
<g id="a_edge37_Node000004_Node000028"><a xlink:title=" ">
<path fill="none" stroke="#63b8ff" d="M973.79,-338.59C1011.23,-329.9 1064.57,-317.21 1111,-305 1117.42,-303.31 1124.28,-301.41 1130.78,-299.57"/>
<polygon fill="#63b8ff" stroke="#63b8ff" points="972.63,-335.27 963.67,-340.93 974.21,-342.09 972.63,-335.27"/>
</a>
</g>
</g>
<!-- Node29 -->
<g id="Node000029" class="node">
<title>Node29</title>
<g id="a_Node000029"><a xlink:href="nonbonded__interaction__data_8cpp.html" target="_top" xlink:title="Implementation of nonbonded_interaction_data.hpp.">
<polygon fill="white" stroke="#666666" points="1345,-305 1217,-305 1217,-275 1345,-275 1345,-305"/>
<text text-anchor="start" x="1225" y="-293" font-family="Helvetica,sans-Serif" font-size="10.00">nonbonded_interaction</text>
<text text-anchor="middle" x="1281" y="-282" font-family="Helvetica,sans-Serif" font-size="10.00">_data.cpp</text>
</a>
</g>
</g>
<!-- Node4&#45;&gt;Node29 -->
<g id="edge38_Node000004_Node000029" class="edge">
<title>Node4&#45;&gt;Node29</title>
<g id="a_edge38_Node000004_Node000029"><a xlink:title=" ">
<path fill="none" stroke="#63b8ff" d="M976.32,-342.07C1032.8,-333.61 1127.1,-319.14 1208,-305 1210.92,-304.49 1213.91,-303.96 1216.93,-303.41"/>
<polygon fill="#63b8ff" stroke="#63b8ff" points="975.6,-338.64 966.23,-343.58 976.64,-345.56 975.6,-338.64"/>
</a>
</g>
</g>
<!-- Node30 -->
<g id="Node000030" class="node">
<title>Node30</title>
<g id="a_Node000030"><a xlink:href="npt_8cpp.html" target="_top" xlink:title=" ">
<polygon fill="white" stroke="#666666" points="1416.5,-299.5 1363.5,-299.5 1363.5,-280.5 1416.5,-280.5 1416.5,-299.5"/>
<text text-anchor="middle" x="1390" y="-287.5" font-family="Helvetica,sans-Serif" font-size="10.00">npt.cpp</text>
</a>
</g>
</g>
<!-- Node4&#45;&gt;Node30 -->
<g id="edge39_Node000004_Node000030" class="edge">
<title>Node4&#45;&gt;Node30</title>
<g id="a_edge39_Node000004_Node000030"><a xlink:title=" ">
<path fill="none" stroke="#63b8ff" d="M976.52,-348.6C1057.34,-346.18 1220.23,-337.35 1354,-305 1359.61,-303.64 1365.51,-301.62 1370.87,-299.53"/>
<polygon fill="#63b8ff" stroke="#63b8ff" points="976.04,-345.11 966.14,-348.88 976.23,-352.1 976.04,-345.11"/>
</a>
</g>
</g>
<!-- Node5&#45;&gt;Node3 -->
<g id="edge5_Node000005_Node000003" class="edge">
<title>Node5&#45;&gt;Node3</title>
<g id="a_edge5_Node000005_Node000003"><a xlink:title=" ">
<path fill="none" stroke="#63b8ff" d="M1478,-270.16C1478,-259.74 1478,-247.3 1478,-239.17"/>
<polygon fill="#63b8ff" stroke="#63b8ff" points="1474.5,-270.37 1478,-280.37 1481.5,-270.37 1474.5,-270.37"/>
</a>
</g>
</g>
<!-- Node7 -->
<g id="Node000007" class="node">
<title>Node7</title>
<g id="a_Node000007"><a xlink:href="core_2system_2System_8cpp.html" target="_top" xlink:title=" ">
<polygon fill="white" stroke="#666666" points="130,-19 56,-19 56,0 130,0 130,-19"/>
<text text-anchor="middle" x="93" y="-7" font-family="Helvetica,sans-Serif" font-size="10.00">System.cpp</text>
</a>
</g>
</g>
<!-- Node6&#45;&gt;Node7 -->
<g id="edge7_Node000006_Node000007" class="edge">
<title>Node6&#45;&gt;Node7</title>
<g id="a_edge7_Node000006_Node000007"><a xlink:title=" ">
<path fill="none" stroke="#63b8ff" d="M38.77,-272.25C23.37,-251.02 0,-212.69 0,-175.5 0,-175.5 0,-175.5 0,-118.5 0,-71.73 50.69,-35.15 77.22,-19.21"/>
<polygon fill="#63b8ff" stroke="#63b8ff" points="36.17,-274.62 44.99,-280.5 41.76,-270.41 36.17,-274.62"/>
</a>
</g>
</g>
<!-- Node8 -->
<g id="Node000008" class="node">
<title>Node8</title>
<g id="a_Node000008"><a xlink:href="script__interface_2system_2System_8cpp.html" target="_top" xlink:title=" ">
<polygon fill="white" stroke="#666666" points="102,-239 28,-239 28,-220 102,-220 102,-239"/>
<text text-anchor="middle" x="65" y="-227" font-family="Helvetica,sans-Serif" font-size="10.00">System.cpp</text>
</a>
</g>
</g>
<!-- Node6&#45;&gt;Node8 -->
<g id="edge8_Node000006_Node000008" class="edge">
<title>Node6&#45;&gt;Node8</title>
<g id="a_edge8_Node000006_Node000008"><a xlink:title=" ">
<path fill="none" stroke="#63b8ff" d="M56.11,-270.49C58.44,-260.01 61.25,-247.39 63.07,-239.17"/>
<polygon fill="#63b8ff" stroke="#63b8ff" points="52.67,-269.85 53.92,-280.37 59.5,-271.37 52.67,-269.85"/>
</a>
</g>
</g>
<!-- Node11 -->
<g id="Node000011" class="node">
<title>Node11</title>
<g id="a_Node000011"><a xlink:href="energy__inline_8hpp.html" target="_top" xlink:title="Energy calculation.">
<polygon fill="white" stroke="#666666" points="775,-184 671,-184 671,-165 775,-165 775,-184"/>
<text text-anchor="middle" x="723" y="-172" font-family="Helvetica,sans-Serif" font-size="10.00">energy_inline.hpp</text>
</a>
</g>
</g>
<!-- Node10&#45;&gt;Node11 -->
<g id="edge11_Node000010_Node000011" class="edge">
<title>Node10&#45;&gt;Node11</title>
<g id="a_edge11_Node000010_Node000011"><a xlink:title=" ">
<path fill="none" stroke="#63b8ff" d="M666.73,-270.3C669.4,-255.9 674.34,-235.83 683,-220 690.78,-205.78 703.93,-192.37 713.02,-184.06"/>
<polygon fill="#63b8ff" stroke="#63b8ff" points="663.23,-270.02 665.06,-280.46 670.14,-271.16 663.23,-270.02"/>
</a>
</g>
</g>
<!-- Node17 -->
<g id="Node000017" class="node">
<title>Node17</title>
<g id="a_Node000017"><a xlink:href="forces__inline_8hpp.html" target="_top" xlink:title="Force calculation.">
<polygon fill="white" stroke="#666666" points="588,-184 488,-184 488,-165 588,-165 588,-184"/>
<text text-anchor="middle" x="538" y="-172" font-family="Helvetica,sans-Serif" font-size="10.00">forces_inline.hpp</text>
</a>
</g>
</g>
<!-- Node10&#45;&gt;Node17 -->
<g id="edge17_Node000010_Node000017" class="edge">
<title>Node10&#45;&gt;Node17</title>
<g id="a_edge17_Node000010_Node000017"><a xlink:title=" ">
<path fill="none" stroke="#63b8ff" d="M647.05,-273.73C620.23,-249.57 568.85,-203.29 547.58,-184.13"/>
<polygon fill="#63b8ff" stroke="#63b8ff" points="644.76,-276.38 654.53,-280.47 649.44,-271.18 644.76,-276.38"/>
</a>
</g>
</g>
<!-- Node10&#45;&gt;Node22 -->
<g id="edge29_Node000010_Node000022" class="edge">
<title>Node10&#45;&gt;Node22</title>
<g id="a_edge29_Node000010_Node000022"><a xlink:title=" ">
<path fill="none" stroke="#63b8ff" d="M597.93,-286.09C500.54,-277.81 321.25,-246.5 240,-129 235.2,-122.05 238.92,-118.38 240,-110 244.41,-75.65 257.07,-36.22 262.94,-19.14"/>
<polygon fill="#63b8ff" stroke="#63b8ff" points="597.71,-289.58 607.95,-286.88 598.26,-282.6 597.71,-289.58"/>
</a>
</g>
</g>
<!-- Node10&#45;&gt;Node26 -->
<g id="edge30_Node000010_Node000026" class="edge">
<title>Node10&#45;&gt;Node26</title>
<g id="a_edge30_Node000010_Node000026"><a xlink:title=" ">
<path fill="none" stroke="#63b8ff" d="M680.05,-273.09C691.06,-262.17 705.27,-248.08 714.26,-239.17"/>
<polygon fill="#63b8ff" stroke="#63b8ff" points="677.34,-270.84 672.71,-280.37 682.27,-275.81 677.34,-270.84"/>
</a>
</g>
</g>
<!-- Node12 -->
<g id="Node000012" class="node">
<title>Node12</title>
<g id="a_Node000012"><a xlink:href="core_2pair__criteria_2EnergyCriterion_8hpp.html" target="_top" xlink:title=" ">
<polygon fill="white" stroke="#666666" points="821.5,-129 708.5,-129 708.5,-110 821.5,-110 821.5,-129"/>
<text text-anchor="middle" x="765" y="-117" font-family="Helvetica,sans-Serif" font-size="10.00">EnergyCriterion.hpp</text>
</a>
</g>
</g>
<!-- Node11&#45;&gt;Node12 -->
<g id="edge12_Node000011_Node000012" class="edge">
<title>Node11&#45;&gt;Node12</title>
<g id="a_edge12_Node000011_Node000012"><a xlink:title=" ">
<path fill="none" stroke="#63b8ff" d="M736.33,-156.67C743.61,-147.5 752.3,-136.52 758.19,-129.09"/>
<polygon fill="#63b8ff" stroke="#63b8ff" points="733.4,-154.74 729.94,-164.75 738.89,-159.08 733.4,-154.74"/>
</a>
</g>
</g>
<!-- Node15 -->
<g id="Node000015" class="node">
<title>Node15</title>
<g id="a_Node000015"><a xlink:href="ShapeBasedConstraint_8cpp.html" target="_top" xlink:title=" ">
<polygon fill="white" stroke="#666666" points="690.5,-129 543.5,-129 543.5,-110 690.5,-110 690.5,-129"/>
<text text-anchor="middle" x="617" y="-117" font-family="Helvetica,sans-Serif" font-size="10.00">ShapeBasedConstraint.cpp</text>
</a>
</g>
</g>
<!-- Node11&#45;&gt;Node15 -->
<g id="edge15_Node000011_Node000015" class="edge">
<title>Node11&#45;&gt;Node15</title>
<g id="a_edge15_Node000011_Node000015"><a xlink:title=" ">
<path fill="none" stroke="#63b8ff" d="M697,-160.5C677.5,-150.75 651.35,-137.68 634.34,-129.17"/>
<polygon fill="#63b8ff" stroke="#63b8ff" points="695.46,-163.64 705.97,-164.98 698.59,-157.38 695.46,-163.64"/>
</a>
</g>
</g>
<!-- Node11&#45;&gt;Node16 -->
<g id="edge16_Node000011_Node000016" class="edge">
<title>Node11&#45;&gt;Node16</title>
<g id="a_edge16_Node000011_Node000016"><a xlink:title=" ">
<path fill="none" stroke="#63b8ff" d="M757.05,-161.55C785.09,-151.71 824.18,-137.98 849.3,-129.17"/>
<polygon fill="#63b8ff" stroke="#63b8ff" points="755.54,-158.37 747.26,-164.98 757.86,-164.98 755.54,-158.37"/>
</a>
</g>
</g>
<!-- Node13 -->
<g id="Node000013" class="node">
<title>Node13</title>
<g id="a_Node000013"><a xlink:href="script__interface_2pair__criteria_2EnergyCriterion_8hpp.html" target="_top" xlink:title=" ">
<polygon fill="white" stroke="#666666" points="821.5,-74 708.5,-74 708.5,-55 821.5,-55 821.5,-74"/>
<text text-anchor="middle" x="765" y="-62" font-family="Helvetica,sans-Serif" font-size="10.00">EnergyCriterion.hpp</text>
</a>
</g>
</g>
<!-- Node12&#45;&gt;Node13 -->
<g id="edge13_Node000012_Node000013" class="edge">
<title>Node12&#45;&gt;Node13</title>
<g id="a_edge13_Node000012_Node000013"><a xlink:title=" ">
<path fill="none" stroke="#63b8ff" d="M765,-99.66C765,-90.93 765,-80.99 765,-74.09"/>
<polygon fill="#63b8ff" stroke="#63b8ff" points="761.5,-99.75 765,-109.75 768.5,-99.75 761.5,-99.75"/>
</a>
</g>
</g>
<!-- Node14 -->
<g id="Node000014" class="node">
<title>Node14</title>
<g id="a_Node000014"><a xlink:href="pair__criteria_2initialize_8cpp.html" target="_top" xlink:title=" ">
<polygon fill="white" stroke="#666666" points="804.5,-19 725.5,-19 725.5,0 804.5,0 804.5,-19"/>
<text text-anchor="middle" x="765" y="-7" font-family="Helvetica,sans-Serif" font-size="10.00">initialize.cpp</text>
</a>
</g>
</g>
<!-- Node13&#45;&gt;Node14 -->
<g id="edge14_Node000013_Node000014" class="edge">
<title>Node13&#45;&gt;Node14</title>
<g id="a_edge14_Node000013_Node000014"><a xlink:title=" ">
<path fill="none" stroke="#63b8ff" d="M765,-44.66C765,-35.93 765,-25.99 765,-19.09"/>
<polygon fill="#63b8ff" stroke="#63b8ff" points="761.5,-44.75 765,-54.75 768.5,-44.75 761.5,-44.75"/>
</a>
</g>
</g>
<!-- Node17&#45;&gt;Node15 -->
<g id="edge18_Node000017_Node000015" class="edge">
<title>Node17&#45;&gt;Node15</title>
<g id="a_edge18_Node000017_Node000015"><a xlink:title=" ">
<path fill="none" stroke="#63b8ff" d="M559.39,-159.15C573.67,-149.57 591.97,-137.29 604.08,-129.17"/>
<polygon fill="#63b8ff" stroke="#63b8ff" points="557.05,-156.51 550.69,-164.98 560.95,-162.32 557.05,-156.51"/>
</a>
</g>
</g>
<!-- Node18 -->
<g id="Node000018" class="node">
<title>Node18</title>
<g id="a_Node000018"><a xlink:href="forces_8cpp.html" target="_top" xlink:title="Force calculation.">
<polygon fill="white" stroke="#666666" points="542.5,-19 475.5,-19 475.5,0 542.5,0 542.5,-19"/>
<text text-anchor="middle" x="509" y="-7" font-family="Helvetica,sans-Serif" font-size="10.00">forces.cpp</text>
</a>
</g>
</g>
<!-- Node17&#45;&gt;Node18 -->
<g id="edge19_Node000017_Node000018" class="edge">
<title>Node17&#45;&gt;Node18</title>
<g id="a_edge19_Node000017_Node000018"><a xlink:title=" ">
<path fill="none" stroke="#63b8ff" d="M534.68,-154.83C528.42,-119.67 515.12,-44.9 510.57,-19.31"/>
<polygon fill="#63b8ff" stroke="#63b8ff" points="531.24,-155.5 536.44,-164.74 538.14,-154.28 531.24,-155.5"/>
</a>
</g>
</g>
<!-- Node19 -->
<g id="Node000019" class="node">
<title>Node19</title>
<g id="a_Node000019"><a xlink:href="forces__cabana_8hpp.html" target="_top" xlink:title=" ">
<polygon fill="white" stroke="#666666" points="487,-129 379,-129 379,-110 487,-110 487,-129"/>
<text text-anchor="middle" x="433" y="-117" font-family="Helvetica,sans-Serif" font-size="10.00">forces_cabana.hpp</text>
</a>
</g>
</g>
<!-- Node17&#45;&gt;Node19 -->
<g id="edge20_Node000017_Node000019" class="edge">
<title>Node17&#45;&gt;Node19</title>
<g id="a_edge20_Node000017_Node000019"><a xlink:title=" ">
<path fill="none" stroke="#63b8ff" d="M511.98,-160.37C492.7,-150.63 466.95,-137.64 450.18,-129.17"/>
<polygon fill="#63b8ff" stroke="#63b8ff" points="510.63,-163.6 521.13,-164.98 513.78,-157.35 510.63,-163.6"/>
</a>
</g>
</g>
<!-- Node24 -->
<g id="Node000024" class="node">
<title>Node24</title>
<g id="a_Node000024"><a xlink:href="pressure__inline_8hpp.html" target="_top" xlink:title=" ">
<polygon fill="white" stroke="#666666" points="361,-129 249,-129 249,-110 361,-110 361,-129"/>
<text text-anchor="middle" x="305" y="-117" font-family="Helvetica,sans-Serif" font-size="10.00">pressure_inline.hpp</text>
</a>
</g>
</g>
<!-- Node17&#45;&gt;Node24 -->
<g id="edge27_Node000017_Node000024" class="edge">
<title>Node17&#45;&gt;Node24</title>
<g id="a_edge27_Node000017_Node000024"><a xlink:title=" ">
<path fill="none" stroke="#63b8ff" d="M490.75,-162.75C447.09,-152.82 383.06,-138.26 342.73,-129.08"/>
<polygon fill="#63b8ff" stroke="#63b8ff" points="490.04,-166.18 500.56,-164.98 491.59,-159.35 490.04,-166.18"/>
</a>
</g>
</g>
<!-- Node20 -->
<g id="Node000020" class="node">
<title>Node20</title>
<g id="a_Node000020"><a xlink:href="short__range__cabana_8hpp.html" target="_top" xlink:title=" ">
<polygon fill="white" stroke="#666666" points="487,-74 351,-74 351,-55 487,-55 487,-74"/>
<text text-anchor="middle" x="419" y="-62" font-family="Helvetica,sans-Serif" font-size="10.00">short_range_cabana.hpp</text>
</a>
</g>
</g>
<!-- Node19&#45;&gt;Node20 -->
<g id="edge21_Node000019_Node000020" class="edge">
<title>Node19&#45;&gt;Node20</title>
<g id="a_edge21_Node000019_Node000020"><a xlink:title=" ">
<path fill="none" stroke="#63b8ff" d="M428.1,-99.95C425.78,-91.15 423.11,-81.06 421.27,-74.09"/>
<polygon fill="#63b8ff" stroke="#63b8ff" points="424.75,-100.97 430.69,-109.75 431.52,-99.19 424.75,-100.97"/>
</a>
</g>
</g>
<!-- Node20&#45;&gt;Node7 -->
<g id="edge22_Node000020_Node000007" class="edge">
<title>Node20&#45;&gt;Node7</title>
<g id="a_edge22_Node000020_Node000007"><a xlink:title=" ">
<path fill="none" stroke="#63b8ff" d="M356.6,-53.36C289.54,-42.45 185.18,-25.49 130.04,-16.52"/>
<polygon fill="#63b8ff" stroke="#63b8ff" points="356.19,-56.83 366.62,-54.98 357.31,-49.93 356.19,-56.83"/>
</a>
</g>
</g>
<!-- Node20&#45;&gt;Node18 -->
<g id="edge24_Node000020_Node000018" class="edge">
<title>Node20&#45;&gt;Node18</title>
<g id="a_edge24_Node000020_Node000018"><a xlink:title=" ">
<path fill="none" stroke="#63b8ff" d="M442.44,-49.7C458.84,-40.04 480.23,-27.44 494.28,-19.17"/>
<polygon fill="#63b8ff" stroke="#63b8ff" points="440.3,-46.89 433.46,-54.98 443.85,-52.93 440.3,-46.89"/>
</a>
</g>
</g>
<!-- Node21 -->
<g id="Node000021" class="node">
<title>Node21</title>
<g id="a_Node000021"><a xlink:href="dp3m_8cpp.html" target="_top" xlink:title="P3M algorithm for long&#45;range magnetic dipole&#45;dipole interaction.">
<polygon fill="white" stroke="#666666" points="451.5,-19 386.5,-19 386.5,0 451.5,0 451.5,-19"/>
<text text-anchor="middle" x="419" y="-7" font-family="Helvetica,sans-Serif" font-size="10.00">dp3m.cpp</text>
</a>
</g>
</g>
<!-- Node20&#45;&gt;Node21 -->
<g id="edge23_Node000020_Node000021" class="edge">
<title>Node20&#45;&gt;Node21</title>
<g id="a_edge23_Node000020_Node000021"><a xlink:title=" ">
<path fill="none" stroke="#63b8ff" d="M419,-44.66C419,-35.93 419,-25.99 419,-19.09"/>
<polygon fill="#63b8ff" stroke="#63b8ff" points="415.5,-44.75 419,-54.75 422.5,-44.75 415.5,-44.75"/>
</a>
</g>
</g>
<!-- Node20&#45;&gt;Node22 -->
<g id="edge25_Node000020_Node000022" class="edge">
<title>Node20&#45;&gt;Node22</title>
<g id="a_edge25_Node000020_Node000022"><a xlink:title=" ">
<path fill="none" stroke="#63b8ff" d="M384.85,-51.67C356.32,-41.79 316.31,-27.93 290.77,-19.08"/>
<polygon fill="#63b8ff" stroke="#63b8ff" points="383.82,-55.02 394.42,-54.98 386.11,-48.4 383.82,-55.02"/>
</a>
</g>
</g>
<!-- Node20&#45;&gt;Node23 -->
<g id="edge26_Node000020_Node000023" class="edge">
<title>Node20&#45;&gt;Node23</title>
<g id="a_edge26_Node000020_Node000023"><a xlink:title=" ">
<path fill="none" stroke="#63b8ff" d="M463.28,-52.58C505.5,-42.18 567.88,-26.8 604.39,-17.8"/>
<polygon fill="#63b8ff" stroke="#63b8ff" points="462.42,-49.19 453.54,-54.98 464.09,-55.99 462.42,-49.19"/>
</a>
</g>
</g>
<!-- Node24&#45;&gt;Node25 -->
<g id="edge28_Node000024_Node000025" class="edge">
<title>Node24&#45;&gt;Node25</title>
<g id="a_edge28_Node000024_Node000025"><a xlink:title=" ">
<path fill="none" stroke="#63b8ff" d="M278.76,-105.5C259.07,-95.75 232.68,-82.68 215.5,-74.17"/>
<polygon fill="#63b8ff" stroke="#63b8ff" points="277.29,-108.68 287.81,-109.98 280.4,-102.41 277.29,-108.68"/>
</a>
</g>
</g>
<!-- Node26&#45;&gt;Node11 -->
<g id="edge31_Node000026_Node000011" class="edge">
<title>Node26&#45;&gt;Node11</title>
<g id="a_edge31_Node000026_Node000011"><a xlink:title=" ">
<path fill="none" stroke="#63b8ff" d="M723,-209.66C723,-200.93 723,-190.99 723,-184.09"/>
<polygon fill="#63b8ff" stroke="#63b8ff" points="719.5,-209.75 723,-219.75 726.5,-209.75 719.5,-209.75"/>
</a>
</g>
</g>
<!-- Node26&#45;&gt;Node17 -->
<g id="edge32_Node000026_Node000017" class="edge">
<title>Node26&#45;&gt;Node17</title>
<g id="a_edge32_Node000026_Node000017"><a xlink:title=" ">
<path fill="none" stroke="#63b8ff" d="M683.5,-217.18C648.9,-207.27 599.37,-193.08 567.96,-184.08"/>
<polygon fill="#63b8ff" stroke="#63b8ff" points="682.7,-220.6 693.28,-219.98 684.63,-213.87 682.7,-220.6"/>
</a>
</g>
</g>
<!-- Node32&#45;&gt;Node31 -->
<g id="edge45_Node000032_Node000031" class="edge">
<title>Node32&#45;&gt;Node31</title>
<g id="a_edge45_Node000032_Node000031"><a xlink:title=" ">
<path fill="none" stroke="#63b8ff" d="M1692.85,-331.32C1688.71,-320.78 1683.67,-307.98 1680.41,-299.67"/>
<polygon fill="#63b8ff" stroke="#63b8ff" points="1689.69,-332.84 1696.61,-340.87 1696.2,-330.28 1689.69,-332.84"/>
</a>
</g>
</g>
</g>
</svg>

<g id="navigator" transform="translate(0 0)" fill="#404254">
  <rect fill="#f2f5e9" fill-opacity="0.5" stroke="#606060" stroke-width=".5" x="0" y="0" width="60" height="60"/>
  <use id="zoomplus" xlink:href="#zoomPlus" x="17" y="9" onmousedown="handleZoom(evt,'in')"/>
  <use id="zoomminus" xlink:href="#zoomMin" x="42" y="9" onmousedown="handleZoom(evt,'out')"/>
  <use id="reset" xlink:href="#resetDef" x="30" y="36" onmousedown="handleReset()"/>
   <use id="arrowup" xlink:href="#arrowUp" x="0" y="0" onmousedown="handlePan(0,-1)"/>
  <use id="arrowright" xlink:href="#arrowRight" x="0" y="0" onmousedown="handlePan(1,0)"/>
  <use id="arrowdown" xlink:href="#arrowDown" x="0" y="0" onmousedown="handlePan(0,1)"/>
  <use id="arrowleft" xlink:href="#arrowLeft" x="0" y="0" onmousedown="handlePan(-1,0)"/>
</g>
<svg viewBox="0 0 15 15" width="100%" height="30px" preserveAspectRatio="xMaxYMin meet">
 <g id="arrow_out" transform="scale(0.3 0.3)">
  <a xlink:href="core_2electrostatics_2scafacos_8hpp__dep__incl_org.svg" target="_base">
   <rect id="button" ry="5" rx="5" y="6" x="6" height="38" width="38"
        fill="#f2f5e9" fill-opacity="0.5" stroke="#606060" stroke-width="1.0"/>
   <path id="arrow"
     d="M 11.500037,31.436501 C 11.940474,20.09759 22.043105,11.32322 32.158766,21.979434 L 37.068811,17.246167 C 37.068811,17.246167 37.088388,32 37.088388,32 L 22.160133,31.978069 C 22.160133,31.978069 26.997745,27.140456 26.997745,27.140456 C 18.528582,18.264221 13.291696,25.230495 11.500037,31.436501 z"
     style="fill:#404040;"/>
  </a>
 </g>
</svg>

<style type='text/css'>
<![CDATA[
[data-mouse-over-selected='false'] { opacity: 0.7; }
[data-mouse-over-selected='true']  { opacity: 1.0; }
]]>
</style>
<script type="application/ecmascript"><![CDATA[
document.addEventListener('DOMContentLoaded', (event) => {
  highlightEdges();
  highlightAdjacentNodes();
});
]]></script>
</svg>
