<?xml version="1.0" encoding="UTF-8" standalone="no"?>
<!DOCTYPE svg PUBLIC "-//W3C//DTD SVG 1.1//EN"
 "http://www.w3.org/Graphics/SVG/1.1/DTD/svg11.dtd">
<!-- Generated by graphviz version 2.43.0 (0)
 -->
<!-- Title: SingleReaction.hpp Pages: 1 -->
<svg width="695pt" height="148pt"
 viewBox="0.00 0.00 694.50 148.00" xmlns="http://www.w3.org/2000/svg" xmlns:xlink="http://www.w3.org/1999/xlink">
<g id="graph0" class="graph" transform="scale(1 1) rotate(0) translate(4 144)">
<title>SingleReaction.hpp</title>
<!-- Node1 -->
<g id="Node000001" class="node">
<title>Node1</title>
<g id="a_Node000001"><a xlink:title=" ">
<polygon fill="#999999" stroke="#666666" points="638.5,-140 528.5,-140 528.5,-121 638.5,-121 638.5,-140"/>
<text text-anchor="middle" x="583.5" y="-128" font-family="Helvetica,sans-Serif" font-size="10.00">SingleReaction.hpp</text>
</a>
</g>
</g>
<!-- Node2 -->
<g id="Node000002" class="node">
<title>Node2</title>
<g id="a_Node000002"><a xlink:href="Accumulator_8hpp.html" target="_top" xlink:title=" ">
<polygon fill="white" stroke="#666666" points="485.5,-85 363.5,-85 363.5,-66 485.5,-66 485.5,-85"/>
<text text-anchor="middle" x="424.5" y="-73" font-family="Helvetica,sans-Serif" font-size="10.00">utils/Accumulator.hpp</text>
</a>
</g>
</g>
<!-- Node1&#45;&gt;Node2 -->
<g id="edge1_Node000001_Node000002" class="edge">
<title>Node1&#45;&gt;Node2</title>
<g id="a_edge1_Node000001_Node000002"><a xlink:title=" ">
<path fill="none" stroke="#63b8ff" d="M557.95,-120.98C531.38,-112.13 489.56,-98.19 459.83,-88.28"/>
<polygon fill="#63b8ff" stroke="#63b8ff" points="460.84,-84.92 450.25,-85.08 458.63,-91.56 460.84,-84.92"/>
</a>
</g>
</g>
<!-- Node9 -->
<g id="Node000009" class="node">
<title>Node9</title>
<g id="a_Node000009"><a xlink:title=" ">
<polygon fill="#e0e0e0" stroke="#999999" points="597,-24.5 532,-24.5 532,-5.5 597,-5.5 597,-24.5"/>
<text text-anchor="middle" x="564.5" y="-12.5" font-family="Helvetica,sans-Serif" font-size="10.00">stdexcept</text>
</a>
</g>
</g>
<!-- Node1&#45;&gt;Node9 -->
<g id="edge11_Node000001_Node000009" class="edge">
<title>Node1&#45;&gt;Node9</title>
<g id="a_edge11_Node000001_Node000009"><a xlink:title=" ">
<path fill="none" stroke="#63b8ff" d="M582.07,-120.97C579.02,-102.73 571.79,-59.57 567.62,-34.64"/>
<polygon fill="#63b8ff" stroke="#63b8ff" points="571.05,-33.91 565.94,-24.63 564.14,-35.07 571.05,-33.91"/>
</a>
</g>
</g>
<!-- Node10 -->
<g id="Node000010" class="node">
<title>Node10</title>
<g id="a_Node000010"><a xlink:title=" ">
<polygon fill="#e0e0e0" stroke="#999999" points="662,-24.5 615,-24.5 615,-5.5 662,-5.5 662,-24.5"/>
<text text-anchor="middle" x="638.5" y="-12.5" font-family="Helvetica,sans-Serif" font-size="10.00">vector</text>
</a>
</g>
</g>
<!-- Node1&#45;&gt;Node10 -->
<g id="edge12_Node000001_Node000010" class="edge">
<title>Node1&#45;&gt;Node10</title>
<g id="a_edge12_Node000001_Node000010"><a xlink:title=" ">
<path fill="none" stroke="#63b8ff" d="M587.63,-120.97C596.59,-102.48 617.95,-58.4 629.95,-33.64"/>
<polygon fill="#63b8ff" stroke="#63b8ff" points="633.11,-35.16 634.32,-24.63 626.81,-32.1 633.11,-35.16"/>
</a>
</g>
</g>
<!-- Node11 -->
<g id="Node000011" class="node">
<title>Node11</title>
<g id="a_Node000011"><a xlink:title=" ">
<polygon fill="#e0e0e0" stroke="#999999" points="686.5,-85 630.5,-85 630.5,-66 686.5,-66 686.5,-85"/>
<text text-anchor="middle" x="658.5" y="-73" font-family="Helvetica,sans-Serif" font-size="10.00">numeric</text>
</a>
</g>
</g>
<!-- Node1&#45;&gt;Node11 -->
<g id="edge10_Node000001_Node000011" class="edge">
<title>Node1&#45;&gt;Node11</title>
<g id="a_edge10_Node000001_Node000011"><a xlink:title=" ">
<path fill="none" stroke="#63b8ff" d="M595.55,-120.98C606.96,-112.92 624.33,-100.65 637.93,-91.03"/>
<polygon fill="#63b8ff" stroke="#63b8ff" points="640.08,-93.8 646.23,-85.17 636.04,-88.08 640.08,-93.8"/>
</a>
</g>
</g>
<!-- Node3 -->
<g id="Node000003" class="node">
<title>Node3</title>
<g id="a_Node000003"><a xlink:title=" ">
<polygon fill="#e0e0e0" stroke="#999999" points="107,-30 0,-30 0,0 107,0 107,-30"/>
<text text-anchor="start" x="8" y="-18" font-family="Helvetica,sans-Serif" font-size="10.00">boost/serialization</text>
<text text-anchor="middle" x="53.5" y="-7" font-family="Helvetica,sans-Serif" font-size="10.00">/access.hpp</text>
</a>
</g>
</g>
<!-- Node2&#45;&gt;Node3 -->
<g id="edge2_Node000002_Node000003" class="edge">
<title>Node2&#45;&gt;Node3</title>
<g id="a_edge2_Node000002_Node000003"><a xlink:title=" ">
<path fill="none" stroke="#63b8ff" d="M363.29,-67.14C302.98,-59.55 208.01,-46.73 117.13,-30.22"/>
<polygon fill="#63b8ff" stroke="#63b8ff" points="117.68,-26.76 107.21,-28.4 116.42,-33.65 117.68,-26.76"/>
</a>
</g>
</g>
<!-- Node4 -->
<g id="Node000004" class="node">
<title>Node4</title>
<g id="a_Node000004"><a xlink:title=" ">
<polygon fill="#e0e0e0" stroke="#999999" points="232,-30 125,-30 125,0 232,0 232,-30"/>
<text text-anchor="start" x="133" y="-18" font-family="Helvetica,sans-Serif" font-size="10.00">boost/serialization</text>
<text text-anchor="middle" x="178.5" y="-7" font-family="Helvetica,sans-Serif" font-size="10.00">/vector.hpp</text>
</a>
</g>
</g>
<!-- Node2&#45;&gt;Node4 -->
<g id="edge3_Node000002_Node000004" class="edge">
<title>Node2&#45;&gt;Node4</title>
<g id="a_edge3_Node000002_Node000004"><a xlink:title=" ">
<path fill="none" stroke="#63b8ff" d="M388.73,-65.99C350.37,-56.87 288.68,-42.2 242.03,-31.11"/>
<polygon fill="#63b8ff" stroke="#63b8ff" points="242.56,-27.64 232.02,-28.73 240.94,-34.45 242.56,-27.64"/>
</a>
</g>
</g>
<!-- Node5 -->
<g id="Node000005" class="node">
<title>Node5</title>
<g id="a_Node000005"><a xlink:title=" ">
<polygon fill="#e0e0e0" stroke="#999999" points="314.5,-24.5 250.5,-24.5 250.5,-5.5 314.5,-5.5 314.5,-24.5"/>
<text text-anchor="middle" x="282.5" y="-12.5" font-family="Helvetica,sans-Serif" font-size="10.00">algorithm</text>
</a>
</g>
</g>
<!-- Node2&#45;&gt;Node5 -->
<g id="edge4_Node000002_Node000005" class="edge">
<title>Node2&#45;&gt;Node5</title>
<g id="a_edge4_Node000002_Node000005"><a xlink:title=" ">
<path fill="none" stroke="#63b8ff" d="M403.85,-65.99C379.87,-56.12 340.11,-39.73 312.67,-28.43"/>
<polygon fill="#63b8ff" stroke="#63b8ff" points="313.75,-25.09 303.17,-24.52 311.09,-31.56 313.75,-25.09"/>
</a>
</g>
</g>
<!-- Node6 -->
<g id="Node000006" class="node">
<title>Node6</title>
<g id="a_Node000006"><a xlink:title=" ">
<polygon fill="#e0e0e0" stroke="#999999" points="380,-24.5 333,-24.5 333,-5.5 380,-5.5 380,-24.5"/>
<text text-anchor="middle" x="356.5" y="-12.5" font-family="Helvetica,sans-Serif" font-size="10.00">cmath</text>
</a>
</g>
</g>
<!-- Node2&#45;&gt;Node6 -->
<g id="edge5_Node000002_Node000006" class="edge">
<title>Node2&#45;&gt;Node6</title>
<g id="a_edge5_Node000002_Node000006"><a xlink:title=" ">
<path fill="none" stroke="#63b8ff" d="M414.47,-65.87C403.92,-56.8 387.11,-42.34 374.31,-31.32"/>
<polygon fill="#63b8ff" stroke="#63b8ff" points="376.44,-28.54 366.57,-24.67 371.87,-33.84 376.44,-28.54"/>
</a>
</g>
</g>
<!-- Node7 -->
<g id="Node000007" class="node">
<title>Node7</title>
<g id="a_Node000007"><a xlink:title=" ">
<polygon fill="#e0e0e0" stroke="#999999" points="451,-24.5 398,-24.5 398,-5.5 451,-5.5 451,-24.5"/>
<text text-anchor="middle" x="424.5" y="-12.5" font-family="Helvetica,sans-Serif" font-size="10.00">cstddef</text>
</a>
</g>
</g>
<!-- Node2&#45;&gt;Node7 -->
<g id="edge6_Node000002_Node000007" class="edge">
<title>Node2&#45;&gt;Node7</title>
<g id="a_edge6_Node000002_Node000007"><a xlink:title=" ">
<path fill="none" stroke="#63b8ff" d="M424.5,-65.87C424.5,-57.75 424.5,-45.31 424.5,-34.89"/>
<polygon fill="#63b8ff" stroke="#63b8ff" points="428,-34.67 424.5,-24.67 421,-34.67 428,-34.67"/>
</a>
</g>
</g>
<!-- Node8 -->
<g id="Node000008" class="node">
<title>Node8</title>
<g id="a_Node000008"><a xlink:title=" ">
<polygon fill="#e0e0e0" stroke="#999999" points="513.5,-24.5 469.5,-24.5 469.5,-5.5 513.5,-5.5 513.5,-24.5"/>
<text text-anchor="middle" x="491.5" y="-12.5" font-family="Helvetica,sans-Serif" font-size="10.00">limits</text>
</a>
</g>
</g>
<!-- Node2&#45;&gt;Node8 -->
<g id="edge7_Node000002_Node000008" class="edge">
<title>Node2&#45;&gt;Node8</title>
<g id="a_edge7_Node000002_Node000008"><a xlink:title=" ">
<path fill="none" stroke="#63b8ff" d="M434.39,-65.87C444.78,-56.8 461.34,-42.34 473.95,-31.32"/>
<polygon fill="#63b8ff" stroke="#63b8ff" points="476.34,-33.88 481.57,-24.67 471.74,-28.61 476.34,-33.88"/>
</a>
</g>
</g>
<!-- Node2&#45;&gt;Node9 -->
<g id="edge8_Node000002_Node000009" class="edge">
<title>Node2&#45;&gt;Node9</title>
<g id="a_edge8_Node000002_Node000009"><a xlink:title=" ">
<path fill="none" stroke="#63b8ff" d="M444.86,-65.99C468.5,-56.12 507.7,-39.73 534.75,-28.43"/>
<polygon fill="#63b8ff" stroke="#63b8ff" points="536.24,-31.6 544.12,-24.52 533.54,-25.14 536.24,-31.6"/>
</a>
</g>
</g>
<!-- Node2&#45;&gt;Node10 -->
<g id="edge9_Node000002_Node000010" class="edge">
<title>Node2&#45;&gt;Node10</title>
<g id="a_edge9_Node000002_Node000010"><a xlink:title=" ">
<path fill="none" stroke="#63b8ff" d="M468.5,-65.97C505.74,-58.22 560.28,-45.63 606.5,-30 607.94,-29.51 609.4,-28.99 610.86,-28.44"/>
<polygon fill="#63b8ff" stroke="#63b8ff" points="612.49,-31.56 620.44,-24.55 609.86,-25.07 612.49,-31.56"/>
</a>
</g>
</g>
</g>
</svg>
