<?xml version="1.0" encoding="UTF-8" standalone="no"?>
<!DOCTYPE svg PUBLIC "-//W3C//DTD SVG 1.1//EN"
 "http://www.w3.org/Graphics/SVG/1.1/DTD/svg11.dtd">
<!-- Generated by graphviz version 2.43.0 (0)
 -->
<!-- Title: coulomb.hpp Pages: 1 -->
<!--zoomable 368 -->

<svg id="main" version="1.1" xmlns="http://www.w3.org/2000/svg" xmlns:xlink="http://www.w3.org/1999/xlink" xml:space="preserve" onload="init(evt)">
<style type="text/css"><![CDATA[
.node, .edge {opacity: 0.7;}
.node.selected, .edge.selected {opacity: 1;}
.edge:hover path { stroke: red; }
.edge:hover polygon { stroke: red; fill: red; }
]]></style>

<defs>
  <circle id="rim" cx="0" cy="0" r="7"/>
  <circle id="rim2" cx="0" cy="0" r="3.5"/>
  <g id="zoomPlus">
    <use xlink:href="#rim" fill="#404040"><set attributeName="fill" to="#808080" begin="zoomplus.mouseover" end="zoomplus.mouseout"/></use>
    <path d="M-4,0h8M0,-4v8" fill="none" stroke="white" stroke-width="1.5" pointer-events="none"/>
  </g>
  <g id="zoomMin">
    <use xlink:href="#rim" fill="#404040"><set attributeName="fill" to="#808080" begin="zoomminus.mouseover" end="zoomminus.mouseout"/></use>
    <path d="M-4,0h8" fill="none" stroke="white" stroke-width="1.5" pointer-events="none"/>
  </g>
  <g id="arrowUp" transform="translate(30 24)">
    <use xlink:href="#rim"/>
    <path pointer-events="none" fill="none" stroke="white" stroke-width="1.5" d="M0,-3.0v7 M-2.5,-0.5L0,-3.0L2.5,-0.5"/>
  </g>
  <g id="arrowRight" transform="rotate(90) translate(36 -43)">
    <use xlink:href="#rim"/>
    <path pointer-events="none" fill="none" stroke="white" stroke-width="1.5" d="M0,-3.0v7 M-2.5,-0.5L0,-3.0L2.5,-0.5"/>
  </g>
  <g id="arrowDown" transform="rotate(180) translate(-30 -48)">
    <use xlink:href="#rim"/>
    <path pointer-events="none" fill="none" stroke="white" stroke-width="1.5" d="M0,-3.0v7 M-2.5,-0.5L0,-3.0L2.5,-0.5"/>
  </g>
  <g id="arrowLeft" transform="rotate(270) translate(-36 17)">
    <use xlink:href="#rim"/>
    <path pointer-events="none" fill="none" stroke="white" stroke-width="1.5" d="M0,-3.0v7 M-2.5,-0.5L0,-3.0L2.5,-0.5"/>
  </g>
  <g id="resetDef">
    <use xlink:href="#rim2" fill="#404040"><set attributeName="fill" to="#808080" begin="reset.mouseover" end="reset.mouseout"/></use>
  </g>
</defs>
<script type="application/ecmascript">
var viewWidth = 1085;
var viewHeight = 368;
var sectionId = 'dynsection-1';
</script>
<script type="application/ecmascript" xlink:href="svg.min.js"/>
<svg id="graph" class="graph">
<g id="viewport">
<title>coulomb.hpp</title>
<!-- Node1 -->
<g id="Node000001" class="node">
<title>Node1</title>
<g id="a_Node000001"><a xlink:title=" ">
<polygon fill="#999999" stroke="#666666" points="566.5,-360 486.5,-360 486.5,-341 566.5,-341 566.5,-360"/>
<text text-anchor="middle" x="526.5" y="-348" font-family="Helvetica,sans-Serif" font-size="10.00">coulomb.hpp</text>
</a>
</g>
</g>
<!-- Node2 -->
<g id="Node000002" class="node">
<title>Node2</title>
<g id="a_Node000002"><a xlink:href="electrostatics_2Actor_8impl_8hpp.html" target="_top" xlink:title=" ">
<polygon fill="white" stroke="#666666" points="120,-299.5 33,-299.5 33,-280.5 120,-280.5 120,-299.5"/>
<text text-anchor="middle" x="76.5" y="-287.5" font-family="Helvetica,sans-Serif" font-size="10.00">Actor.impl.hpp</text>
</a>
</g>
</g>
<!-- Node1&#45;&gt;Node2 -->
<g id="edge1_Node000001_Node000002" class="edge">
<title>Node1&#45;&gt;Node2</title>
<g id="a_edge1_Node000001_Node000002"><a xlink:title=" ">
<path fill="none" stroke="#63b8ff" d="M476.16,-346.33C400.28,-341 252.3,-328.45 128.5,-305 120.88,-303.56 112.73,-301.58 105.2,-299.56"/>
<polygon fill="#63b8ff" stroke="#63b8ff" points="476.16,-349.84 486.38,-347.03 476.64,-342.85 476.16,-349.84"/>
</a>
</g>
</g>
<!-- Node3 -->
<g id="Node000003" class="node">
<title>Node3</title>
<g id="a_Node000003"><a xlink:href="electrostatics_2initialize_8cpp.html" target="_top" xlink:title=" ">
<polygon fill="white" stroke="#666666" points="79,-239 0,-239 0,-220 79,-220 79,-239"/>
<text text-anchor="middle" x="39.5" y="-227" font-family="Helvetica,sans-Serif" font-size="10.00">initialize.cpp</text>
</a>
</g>
</g>
<!-- Node1&#45;&gt;Node3 -->
<g id="edge26_Node000001_Node000003" class="edge">
<title>Node1&#45;&gt;Node3</title>
<g id="a_edge26_Node000001_Node000003"><a xlink:title=" ">
<path fill="none" stroke="#63b8ff" d="M476.07,-348.81C354.61,-346.64 53.66,-337.95 23.5,-305 6.53,-286.46 23.56,-254.4 33.47,-239.11"/>
<polygon fill="#63b8ff" stroke="#63b8ff" points="476.16,-352.32 486.22,-348.99 476.28,-345.32 476.16,-352.32"/>
</a>
</g>
</g>
<!-- Node4 -->
<g id="Node000004" class="node">
<title>Node4</title>
<g id="a_Node000004"><a xlink:href="System_8impl_8hpp.html" target="_top" xlink:title=" ">
<polygon fill="white" stroke="#666666" points="237,-299.5 138,-299.5 138,-280.5 237,-280.5 237,-299.5"/>
<text text-anchor="middle" x="187.5" y="-287.5" font-family="Helvetica,sans-Serif" font-size="10.00">System.impl.hpp</text>
</a>
</g>
</g>
<!-- Node1&#45;&gt;Node4 -->
<g id="edge3_Node000001_Node000004" class="edge">
<title>Node1&#45;&gt;Node4</title>
<g id="a_edge3_Node000001_Node000004"><a xlink:title=" ">
<path fill="none" stroke="#63b8ff" d="M476.22,-342.77C419.83,-334.94 325.76,-321.01 245.5,-305 237.47,-303.4 228.88,-301.45 220.83,-299.53"/>
<polygon fill="#63b8ff" stroke="#63b8ff" points="475.92,-346.26 486.3,-344.16 476.87,-339.33 475.92,-346.26"/>
</a>
</g>
</g>
<!-- Node7 -->
<g id="Node000007" class="node">
<title>Node7</title>
<g id="a_Node000007"><a xlink:href="coulomb_8cpp.html" target="_top" xlink:title=" ">
<polygon fill="white" stroke="#666666" points="334,-299.5 255,-299.5 255,-280.5 334,-280.5 334,-299.5"/>
<text text-anchor="middle" x="294.5" y="-287.5" font-family="Helvetica,sans-Serif" font-size="10.00">coulomb.cpp</text>
</a>
</g>
</g>
<!-- Node1&#45;&gt;Node7 -->
<g id="edge6_Node000001_Node000007" class="edge">
<title>Node1&#45;&gt;Node7</title>
<g id="a_edge6_Node000001_Node000007"><a xlink:title=" ">
<path fill="none" stroke="#63b8ff" d="M482.31,-338.56C446.27,-329.62 394.07,-316.6 348.5,-305 341.65,-303.26 334.31,-301.37 327.33,-299.56"/>
<polygon fill="#63b8ff" stroke="#63b8ff" points="481.47,-341.96 492.02,-340.97 483.16,-335.17 481.47,-341.96"/>
</a>
</g>
</g>
<!-- Node8 -->
<g id="Node000008" class="node">
<title>Node8</title>
<g id="a_Node000008"><a xlink:href="coulomb__inline_8hpp.html" target="_top" xlink:title=" ">
<polygon fill="white" stroke="#666666" points="540.5,-299.5 428.5,-299.5 428.5,-280.5 540.5,-280.5 540.5,-299.5"/>
<text text-anchor="middle" x="484.5" y="-287.5" font-family="Helvetica,sans-Serif" font-size="10.00">coulomb_inline.hpp</text>
</a>
</g>
</g>
<!-- Node1&#45;&gt;Node8 -->
<g id="edge7_Node000001_Node000008" class="edge">
<title>Node1&#45;&gt;Node8</title>
<g id="a_edge7_Node000001_Node000008"><a xlink:title=" ">
<path fill="none" stroke="#63b8ff" d="M514.39,-332.63C506.65,-321.85 496.94,-308.32 490.72,-299.67"/>
<polygon fill="#63b8ff" stroke="#63b8ff" points="511.63,-334.79 520.3,-340.87 517.31,-330.7 511.63,-334.79"/>
</a>
</g>
</g>
<!-- Node14 -->
<g id="Node000014" class="node">
<title>Node14</title>
<g id="a_Node000014"><a xlink:href="energy_8cpp.html" target="_top" xlink:title=" ">
<polygon fill="white" stroke="#666666" points="829,-129 760,-129 760,-110 829,-110 829,-129"/>
<text text-anchor="middle" x="794.5" y="-117" font-family="Helvetica,sans-Serif" font-size="10.00">energy.cpp</text>
</a>
</g>
</g>
<!-- Node1&#45;&gt;Node14 -->
<g id="edge24_Node000001_Node000014" class="edge">
<title>Node1&#45;&gt;Node14</title>
<g id="a_edge24_Node000001_Node000014"><a xlink:title=" ">
<path fill="none" stroke="#63b8ff" d="M544.36,-334.24C595.96,-290.15 744.08,-163.58 784.31,-129.21"/>
<polygon fill="#63b8ff" stroke="#63b8ff" points="542.01,-331.65 536.68,-340.8 546.55,-336.97 542.01,-331.65"/>
</a>
</g>
</g>
<!-- Node18 -->
<g id="Node000018" class="node">
<title>Node18</title>
<g id="a_Node000018"><a xlink:href="pressure_8cpp.html" target="_top" xlink:title=" ">
<polygon fill="white" stroke="#666666" points="302,-74 223,-74 223,-55 302,-55 302,-74"/>
<text text-anchor="middle" x="262.5" y="-62" font-family="Helvetica,sans-Serif" font-size="10.00">pressure.cpp</text>
</a>
</g>
</g>
<!-- Node1&#45;&gt;Node18 -->
<g id="edge31_Node000001_Node000018" class="edge">
<title>Node1&#45;&gt;Node18</title>
<g id="a_edge31_Node000001_Node000018"><a xlink:title=" ">
<path fill="none" stroke="#63b8ff" d="M479.86,-338.08C456.06,-330.91 427.38,-320.11 404.5,-305 315.03,-245.91 278.93,-228.71 239.5,-129 231.83,-109.59 245.94,-86.47 255.26,-74.19"/>
<polygon fill="#63b8ff" stroke="#63b8ff" points="479.15,-341.52 489.73,-340.93 481.1,-334.79 479.15,-341.52"/>
</a>
</g>
</g>
<!-- Node19 -->
<g id="Node000019" class="node">
<title>Node19</title>
<g id="a_Node000019"><a xlink:href="icc_8cpp.html" target="_top" xlink:title="Functions to compute the electric field acting on the induced charges, excluding forces other than th...">
<polygon fill="white" stroke="#666666" points="585.5,-239 535.5,-239 535.5,-220 585.5,-220 585.5,-239"/>
<text text-anchor="middle" x="560.5" y="-227" font-family="Helvetica,sans-Serif" font-size="10.00">icc.cpp</text>
</a>
</g>
</g>
<!-- Node1&#45;&gt;Node19 -->
<g id="edge25_Node000001_Node000019" class="edge">
<title>Node1&#45;&gt;Node19</title>
<g id="a_edge25_Node000001_Node000019"><a xlink:title=" ">
<path fill="none" stroke="#63b8ff" d="M537.27,-331.97C541.71,-324 546.5,-314.3 549.5,-305 556.88,-282.1 559.33,-253.63 560.13,-239.43"/>
<polygon fill="#63b8ff" stroke="#63b8ff" points="534.2,-330.28 532.18,-340.68 540.25,-333.81 534.2,-330.28"/>
</a>
</g>
</g>
<!-- Node20 -->
<g id="Node000020" class="node">
<title>Node20</title>
<g id="a_Node000020"><a xlink:href="thole_8hpp.html" target="_top" xlink:title="Routines to calculate the Thole damping potential between particle pairs.">
<polygon fill="white" stroke="#666666" points="441.5,-239 379.5,-239 379.5,-220 441.5,-220 441.5,-239"/>
<text text-anchor="middle" x="410.5" y="-227" font-family="Helvetica,sans-Serif" font-size="10.00">thole.hpp</text>
</a>
</g>
</g>
<!-- Node1&#45;&gt;Node20 -->
<g id="edge32_Node000001_Node000020" class="edge">
<title>Node1&#45;&gt;Node20</title>
<g id="a_edge32_Node000001_Node000020"><a xlink:title=" ">
<path fill="none" stroke="#63b8ff" d="M476.54,-340.33C455.72,-333.93 433.24,-323.13 419.5,-305 404.71,-285.48 406.79,-254.45 408.94,-239.34"/>
<polygon fill="#63b8ff" stroke="#63b8ff" points="475.69,-343.73 486.27,-343.06 477.58,-336.99 475.69,-343.73"/>
</a>
</g>
</g>
<!-- Node21 -->
<g id="Node000021" class="node">
<title>Node21</title>
<g id="a_Node000021"><a xlink:href="elc_8cpp.html" target="_top" xlink:title=" ">
<polygon fill="white" stroke="#666666" points="686,-299.5 635,-299.5 635,-280.5 686,-280.5 686,-299.5"/>
<text text-anchor="middle" x="660.5" y="-287.5" font-family="Helvetica,sans-Serif" font-size="10.00">elc.cpp</text>
</a>
</g>
</g>
<!-- Node1&#45;&gt;Node21 -->
<g id="edge23_Node000001_Node000021" class="edge">
<title>Node1&#45;&gt;Node21</title>
<g id="a_edge23_Node000001_Node000021"><a xlink:title=" ">
<path fill="none" stroke="#63b8ff" d="M555.29,-336.93C581.16,-325.64 618.45,-309.36 640.99,-299.52"/>
<polygon fill="#63b8ff" stroke="#63b8ff" points="553.75,-333.78 545.98,-340.99 556.55,-340.2 553.75,-333.78"/>
</a>
</g>
</g>
<!-- Node22 -->
<g id="Node000022" class="node">
<title>Node22</title>
<g id="a_Node000022"><a xlink:href="mmm1d_8cpp.html" target="_top" xlink:title=" ">
<polygon fill="white" stroke="#666666" points="782.5,-299.5 704.5,-299.5 704.5,-280.5 782.5,-280.5 782.5,-299.5"/>
<text text-anchor="middle" x="743.5" y="-287.5" font-family="Helvetica,sans-Serif" font-size="10.00">mmm1d.cpp</text>
</a>
</g>
</g>
<!-- Node1&#45;&gt;Node22 -->
<g id="edge27_Node000001_Node000022" class="edge">
<title>Node1&#45;&gt;Node22</title>
<g id="a_edge27_Node000001_Node000022"><a xlink:title=" ">
<path fill="none" stroke="#63b8ff" d="M570.04,-338.37C604.22,-329.55 652.98,-316.8 695.5,-305 701.69,-303.28 708.31,-301.39 714.6,-299.56"/>
<polygon fill="#63b8ff" stroke="#63b8ff" points="568.73,-335.09 559.92,-340.98 570.48,-341.87 568.73,-335.09"/>
</a>
</g>
</g>
<!-- Node23 -->
<g id="Node000023" class="node">
<title>Node23</title>
<g id="a_Node000023"><a xlink:href="nonbonded__interaction__data_8cpp.html" target="_top" xlink:title="Implementation of nonbonded_interaction_data.hpp.">
<polygon fill="white" stroke="#666666" points="928.5,-305 800.5,-305 800.5,-275 928.5,-275 928.5,-305"/>
<text text-anchor="start" x="808.5" y="-293" font-family="Helvetica,sans-Serif" font-size="10.00">nonbonded_interaction</text>
<text text-anchor="middle" x="864.5" y="-282" font-family="Helvetica,sans-Serif" font-size="10.00">_data.cpp</text>
</a>
</g>
</g>
<!-- Node1&#45;&gt;Node23 -->
<g id="edge28_Node000001_Node000023" class="edge">
<title>Node1&#45;&gt;Node23</title>
<g id="a_edge28_Node000001_Node000023"><a xlink:title=" ">
<path fill="none" stroke="#63b8ff" d="M576.38,-341.48C629.69,-332.82 716.66,-318.46 791.5,-305 794.42,-304.47 797.41,-303.93 800.42,-303.38"/>
<polygon fill="#63b8ff" stroke="#63b8ff" points="575.82,-338.02 566.51,-343.08 576.94,-344.93 575.82,-338.02"/>
</a>
</g>
</g>
<!-- Node24 -->
<g id="Node000024" class="node">
<title>Node24</title>
<g id="a_Node000024"><a xlink:href="npt_8cpp.html" target="_top" xlink:title=" ">
<polygon fill="white" stroke="#666666" points="1000,-299.5 947,-299.5 947,-280.5 1000,-280.5 1000,-299.5"/>
<text text-anchor="middle" x="973.5" y="-287.5" font-family="Helvetica,sans-Serif" font-size="10.00">npt.cpp</text>
</a>
</g>
</g>
<!-- Node1&#45;&gt;Node24 -->
<g id="edge29_Node000001_Node000024" class="edge">
<title>Node1&#45;&gt;Node24</title>
<g id="a_edge29_Node000001_Node000024"><a xlink:title=" ">
<path fill="none" stroke="#63b8ff" d="M576.84,-348.3C655.06,-345.48 810.05,-336.1 937.5,-305 943.1,-303.63 949,-301.6 954.37,-299.51"/>
<polygon fill="#63b8ff" stroke="#63b8ff" points="576.65,-344.8 566.78,-348.64 576.89,-351.8 576.65,-344.8"/>
</a>
</g>
</g>
<!-- Node25 -->
<g id="Node000025" class="node">
<title>Node25</title>
<g id="a_Node000025"><a xlink:href="p3m_8cpp.html" target="_top" xlink:title="The corresponding header file is p3m.hpp.">
<polygon fill="white" stroke="#666666" points="1077,-299.5 1018,-299.5 1018,-280.5 1077,-280.5 1077,-299.5"/>
<text text-anchor="middle" x="1047.5" y="-287.5" font-family="Helvetica,sans-Serif" font-size="10.00">p3m.cpp</text>
</a>
</g>
</g>
<!-- Node1&#45;&gt;Node25 -->
<g id="edge30_Node000001_Node000025" class="edge">
<title>Node1&#45;&gt;Node25</title>
<g id="a_edge30_Node000001_Node000025"><a xlink:title=" ">
<path fill="none" stroke="#63b8ff" d="M576.85,-349.16C665.43,-347.62 854.45,-340.07 1009.5,-305 1015.4,-303.67 1021.62,-301.65 1027.29,-299.56"/>
<polygon fill="#63b8ff" stroke="#63b8ff" points="576.75,-345.66 566.81,-349.32 576.86,-352.66 576.75,-345.66"/>
</a>
</g>
</g>
<!-- Node2&#45;&gt;Node3 -->
<g id="edge2_Node000002_Node000003" class="edge">
<title>Node2&#45;&gt;Node3</title>
<g id="a_edge2_Node000002_Node000003"><a xlink:title=" ">
<path fill="none" stroke="#63b8ff" d="M65.62,-271.8C58.84,-261.08 50.4,-247.73 44.98,-239.17"/>
<polygon fill="#63b8ff" stroke="#63b8ff" points="62.74,-273.79 71.04,-280.37 68.65,-270.05 62.74,-273.79"/>
</a>
</g>
</g>
<!-- Node5 -->
<g id="Node000005" class="node">
<title>Node5</title>
<g id="a_Node000005"><a xlink:href="core_2system_2System_8cpp.html" target="_top" xlink:title=" ">
<polygon fill="white" stroke="#666666" points="281.5,-239 207.5,-239 207.5,-220 281.5,-220 281.5,-239"/>
<text text-anchor="middle" x="244.5" y="-227" font-family="Helvetica,sans-Serif" font-size="10.00">System.cpp</text>
</a>
</g>
</g>
<!-- Node4&#45;&gt;Node5 -->
<g id="edge4_Node000004_Node000005" class="edge">
<title>Node4&#45;&gt;Node5</title>
<g id="a_edge4_Node000004_Node000005"><a xlink:title=" ">
<path fill="none" stroke="#63b8ff" d="M203,-273.09C213.65,-262.17 227.37,-248.08 236.05,-239.17"/>
<polygon fill="#63b8ff" stroke="#63b8ff" points="200.38,-270.76 195.91,-280.37 205.4,-275.65 200.38,-270.76"/>
</a>
</g>
</g>
<!-- Node6 -->
<g id="Node000006" class="node">
<title>Node6</title>
<g id="a_Node000006"><a xlink:href="script__interface_2system_2System_8cpp.html" target="_top" xlink:title=" ">
<polygon fill="white" stroke="#666666" points="189.5,-239 115.5,-239 115.5,-220 189.5,-220 189.5,-239"/>
<text text-anchor="middle" x="152.5" y="-227" font-family="Helvetica,sans-Serif" font-size="10.00">System.cpp</text>
</a>
</g>
</g>
<!-- Node4&#45;&gt;Node6 -->
<g id="edge5_Node000004_Node000006" class="edge">
<title>Node4&#45;&gt;Node6</title>
<g id="a_edge5_Node000004_Node000006"><a xlink:title=" ">
<path fill="none" stroke="#63b8ff" d="M177.02,-271.48C170.63,-260.81 162.76,-247.65 157.69,-239.17"/>
<polygon fill="#63b8ff" stroke="#63b8ff" points="174.2,-273.58 182.34,-280.37 180.2,-269.99 174.2,-273.58"/>
</a>
</g>
</g>
<!-- Node9 -->
<g id="Node000009" class="node">
<title>Node9</title>
<g id="a_Node000009"><a xlink:href="energy__inline_8hpp.html" target="_top" xlink:title="Energy calculation.">
<polygon fill="white" stroke="#666666" points="585.5,-184 481.5,-184 481.5,-165 585.5,-165 585.5,-184"/>
<text text-anchor="middle" x="533.5" y="-172" font-family="Helvetica,sans-Serif" font-size="10.00">energy_inline.hpp</text>
</a>
</g>
</g>
<!-- Node8&#45;&gt;Node9 -->
<g id="edge8_Node000008_Node000009" class="edge">
<title>Node8&#45;&gt;Node9</title>
<g id="a_edge8_Node000008_Node000009"><a xlink:title=" ">
<path fill="none" stroke="#63b8ff" d="M492.2,-271.16C502.89,-246.41 521.79,-202.63 529.77,-184.13"/>
<polygon fill="#63b8ff" stroke="#63b8ff" points="488.93,-269.9 488.18,-280.47 495.36,-272.68 488.93,-269.9"/>
</a>
</g>
</g>
<!-- Node15 -->
<g id="Node000015" class="node">
<title>Node15</title>
<g id="a_Node000015"><a xlink:href="forces__inline_8hpp.html" target="_top" xlink:title="Force calculation.">
<polygon fill="white" stroke="#666666" points="462.5,-184 362.5,-184 362.5,-165 462.5,-165 462.5,-184"/>
<text text-anchor="middle" x="412.5" y="-172" font-family="Helvetica,sans-Serif" font-size="10.00">forces_inline.hpp</text>
</a>
</g>
</g>
<!-- Node8&#45;&gt;Node15 -->
<g id="edge14_Node000008_Node000015" class="edge">
<title>Node8&#45;&gt;Node15</title>
<g id="a_edge14_Node000008_Node000015"><a xlink:title=" ">
<path fill="none" stroke="#63b8ff" d="M477.06,-270.88C470.83,-256.56 461.26,-236.33 450.5,-220 441.67,-206.59 429.27,-192.78 421.06,-184.18"/>
<polygon fill="#63b8ff" stroke="#63b8ff" points="473.85,-272.28 480.97,-280.13 480.3,-269.55 473.85,-272.28"/>
</a>
</g>
</g>
<!-- Node8&#45;&gt;Node19 -->
<g id="edge19_Node000008_Node000019" class="edge">
<title>Node8&#45;&gt;Node19</title>
<g id="a_edge19_Node000008_Node000019"><a xlink:title=" ">
<path fill="none" stroke="#63b8ff" d="M503.94,-274.04C518.29,-262.99 537.32,-248.34 549.24,-239.17"/>
<polygon fill="#63b8ff" stroke="#63b8ff" points="501.5,-271.49 495.71,-280.37 505.77,-277.04 501.5,-271.49"/>
</a>
</g>
</g>
<!-- Node8&#45;&gt;Node20 -->
<g id="edge20_Node000008_Node000020" class="edge">
<title>Node8&#45;&gt;Node20</title>
<g id="a_edge20_Node000008_Node000020"><a xlink:title=" ">
<path fill="none" stroke="#63b8ff" d="M465.57,-274.04C451.6,-262.99 433.07,-248.34 421.46,-239.17"/>
<polygon fill="#63b8ff" stroke="#63b8ff" points="463.57,-276.91 473.58,-280.37 467.91,-271.42 463.57,-276.91"/>
</a>
</g>
</g>
<!-- Node10 -->
<g id="Node000010" class="node">
<title>Node10</title>
<g id="a_Node000010"><a xlink:href="core_2pair__criteria_2EnergyCriterion_8hpp.html" target="_top" xlink:title=" ">
<polygon fill="white" stroke="#666666" points="742,-129 629,-129 629,-110 742,-110 742,-129"/>
<text text-anchor="middle" x="685.5" y="-117" font-family="Helvetica,sans-Serif" font-size="10.00">EnergyCriterion.hpp</text>
</a>
</g>
</g>
<!-- Node9&#45;&gt;Node10 -->
<g id="edge9_Node000009_Node000010" class="edge">
<title>Node9&#45;&gt;Node10</title>
<g id="a_edge9_Node000009_Node000010"><a xlink:title=" ">
<path fill="none" stroke="#63b8ff" d="M567.43,-161.67C595.77,-151.79 635.52,-137.93 660.89,-129.08"/>
<polygon fill="#63b8ff" stroke="#63b8ff" points="566.21,-158.39 557.92,-164.98 568.52,-165 566.21,-158.39"/>
</a>
</g>
</g>
<!-- Node13 -->
<g id="Node000013" class="node">
<title>Node13</title>
<g id="a_Node000013"><a xlink:href="ShapeBasedConstraint_8cpp.html" target="_top" xlink:title=" ">
<polygon fill="white" stroke="#666666" points="611,-129 464,-129 464,-110 611,-110 611,-129"/>
<text text-anchor="middle" x="537.5" y="-117" font-family="Helvetica,sans-Serif" font-size="10.00">ShapeBasedConstraint.cpp</text>
</a>
</g>
</g>
<!-- Node9&#45;&gt;Node13 -->
<g id="edge12_Node000009_Node000013" class="edge">
<title>Node9&#45;&gt;Node13</title>
<g id="a_edge12_Node000009_Node000013"><a xlink:title=" ">
<path fill="none" stroke="#63b8ff" d="M534.92,-154.66C535.58,-145.93 536.33,-135.99 536.85,-129.09"/>
<polygon fill="#63b8ff" stroke="#63b8ff" points="531.42,-154.51 534.16,-164.75 538.4,-155.04 531.42,-154.51"/>
</a>
</g>
</g>
<!-- Node9&#45;&gt;Node14 -->
<g id="edge13_Node000009_Node000014" class="edge">
<title>Node9&#45;&gt;Node14</title>
<g id="a_edge13_Node000009_Node000014"><a xlink:title=" ">
<path fill="none" stroke="#63b8ff" d="M585.41,-162.96C637.13,-152.46 715.1,-136.62 759.77,-127.55"/>
<polygon fill="#63b8ff" stroke="#63b8ff" points="584.54,-159.56 575.43,-164.98 585.93,-166.42 584.54,-159.56"/>
</a>
</g>
</g>
<!-- Node11 -->
<g id="Node000011" class="node">
<title>Node11</title>
<g id="a_Node000011"><a xlink:href="script__interface_2pair__criteria_2EnergyCriterion_8hpp.html" target="_top" xlink:title=" ">
<polygon fill="white" stroke="#666666" points="742,-74 629,-74 629,-55 742,-55 742,-74"/>
<text text-anchor="middle" x="685.5" y="-62" font-family="Helvetica,sans-Serif" font-size="10.00">EnergyCriterion.hpp</text>
</a>
</g>
</g>
<!-- Node10&#45;&gt;Node11 -->
<g id="edge10_Node000010_Node000011" class="edge">
<title>Node10&#45;&gt;Node11</title>
<g id="a_edge10_Node000010_Node000011"><a xlink:title=" ">
<path fill="none" stroke="#63b8ff" d="M685.5,-99.66C685.5,-90.93 685.5,-80.99 685.5,-74.09"/>
<polygon fill="#63b8ff" stroke="#63b8ff" points="682,-99.75 685.5,-109.75 689,-99.75 682,-99.75"/>
</a>
</g>
</g>
<!-- Node12 -->
<g id="Node000012" class="node">
<title>Node12</title>
<g id="a_Node000012"><a xlink:href="pair__criteria_2initialize_8cpp.html" target="_top" xlink:title=" ">
<polygon fill="white" stroke="#666666" points="725,-19 646,-19 646,0 725,0 725,-19"/>
<text text-anchor="middle" x="685.5" y="-7" font-family="Helvetica,sans-Serif" font-size="10.00">initialize.cpp</text>
</a>
</g>
</g>
<!-- Node11&#45;&gt;Node12 -->
<g id="edge11_Node000011_Node000012" class="edge">
<title>Node11&#45;&gt;Node12</title>
<g id="a_edge11_Node000011_Node000012"><a xlink:title=" ">
<path fill="none" stroke="#63b8ff" d="M685.5,-44.66C685.5,-35.93 685.5,-25.99 685.5,-19.09"/>
<polygon fill="#63b8ff" stroke="#63b8ff" points="682,-44.75 685.5,-54.75 689,-44.75 682,-44.75"/>
</a>
</g>
</g>
<!-- Node15&#45;&gt;Node13 -->
<g id="edge15_Node000015_Node000013" class="edge">
<title>Node15&#45;&gt;Node13</title>
<g id="a_edge15_Node000015_Node000013"><a xlink:title=" ">
<path fill="none" stroke="#63b8ff" d="M441.91,-161.03C465.03,-151.23 496.63,-137.83 517.05,-129.17"/>
<polygon fill="#63b8ff" stroke="#63b8ff" points="440.42,-157.86 432.58,-164.98 443.16,-164.3 440.42,-157.86"/>
</a>
</g>
</g>
<!-- Node16 -->
<g id="Node000016" class="node">
<title>Node16</title>
<g id="a_Node000016"><a xlink:href="forces_8cpp.html" target="_top" xlink:title="Force calculation.">
<polygon fill="white" stroke="#666666" points="446,-129 379,-129 379,-110 446,-110 446,-129"/>
<text text-anchor="middle" x="412.5" y="-117" font-family="Helvetica,sans-Serif" font-size="10.00">forces.cpp</text>
</a>
</g>
</g>
<!-- Node15&#45;&gt;Node16 -->
<g id="edge16_Node000015_Node000016" class="edge">
<title>Node15&#45;&gt;Node16</title>
<g id="a_edge16_Node000015_Node000016"><a xlink:title=" ">
<path fill="none" stroke="#63b8ff" d="M412.5,-154.66C412.5,-145.93 412.5,-135.99 412.5,-129.09"/>
<polygon fill="#63b8ff" stroke="#63b8ff" points="409,-154.75 412.5,-164.75 416,-154.75 409,-154.75"/>
</a>
</g>
</g>
<!-- Node17 -->
<g id="Node000017" class="node">
<title>Node17</title>
<g id="a_Node000017"><a xlink:href="pressure__inline_8hpp.html" target="_top" xlink:title=" ">
<polygon fill="white" stroke="#666666" points="360.5,-129 248.5,-129 248.5,-110 360.5,-110 360.5,-129"/>
<text text-anchor="middle" x="304.5" y="-117" font-family="Helvetica,sans-Serif" font-size="10.00">pressure_inline.hpp</text>
</a>
</g>
</g>
<!-- Node15&#45;&gt;Node17 -->
<g id="edge17_Node000015_Node000017" class="edge">
<title>Node15&#45;&gt;Node17</title>
<g id="a_edge17_Node000015_Node000017"><a xlink:title=" ">
<path fill="none" stroke="#63b8ff" d="M386.01,-160.5C366.14,-150.75 339.5,-137.68 322.17,-129.17"/>
<polygon fill="#63b8ff" stroke="#63b8ff" points="384.63,-163.72 395.15,-164.98 387.71,-157.44 384.63,-163.72"/>
</a>
</g>
</g>
<!-- Node17&#45;&gt;Node18 -->
<g id="edge18_Node000017_Node000018" class="edge">
<title>Node17&#45;&gt;Node18</title>
<g id="a_edge18_Node000017_Node000018"><a xlink:title=" ">
<path fill="none" stroke="#63b8ff" d="M291.17,-101.67C283.89,-92.5 275.2,-81.52 269.31,-74.09"/>
<polygon fill="#63b8ff" stroke="#63b8ff" points="288.61,-104.08 297.56,-109.75 294.1,-99.74 288.61,-104.08"/>
</a>
</g>
</g>
<!-- Node20&#45;&gt;Node9 -->
<g id="edge21_Node000020_Node000009" class="edge">
<title>Node20&#45;&gt;Node9</title>
<g id="a_edge21_Node000020_Node000009"><a xlink:title=" ">
<path fill="none" stroke="#63b8ff" d="M439.75,-215.9C462.47,-206.11 493.37,-192.79 513.38,-184.17"/>
<polygon fill="#63b8ff" stroke="#63b8ff" points="438.06,-212.81 430.26,-219.98 440.83,-219.24 438.06,-212.81"/>
</a>
</g>
</g>
<!-- Node20&#45;&gt;Node15 -->
<g id="edge22_Node000020_Node000015" class="edge">
<title>Node20&#45;&gt;Node15</title>
<g id="a_edge22_Node000020_Node000015"><a xlink:title=" ">
<path fill="none" stroke="#63b8ff" d="M411.21,-209.66C411.54,-200.93 411.92,-190.99 412.18,-184.09"/>
<polygon fill="#63b8ff" stroke="#63b8ff" points="407.71,-209.62 410.83,-219.75 414.7,-209.89 407.71,-209.62"/>
</a>
</g>
</g>
</g>
</svg>

<g id="navigator" transform="translate(0 0)" fill="#404254">
  <rect fill="#f2f5e9" fill-opacity="0.5" stroke="#606060" stroke-width=".5" x="0" y="0" width="60" height="60"/>
  <use id="zoomplus" xlink:href="#zoomPlus" x="17" y="9" onmousedown="handleZoom(evt,'in')"/>
  <use id="zoomminus" xlink:href="#zoomMin" x="42" y="9" onmousedown="handleZoom(evt,'out')"/>
  <use id="reset" xlink:href="#resetDef" x="30" y="36" onmousedown="handleReset()"/>
   <use id="arrowup" xlink:href="#arrowUp" x="0" y="0" onmousedown="handlePan(0,-1)"/>
  <use id="arrowright" xlink:href="#arrowRight" x="0" y="0" onmousedown="handlePan(1,0)"/>
  <use id="arrowdown" xlink:href="#arrowDown" x="0" y="0" onmousedown="handlePan(0,1)"/>
  <use id="arrowleft" xlink:href="#arrowLeft" x="0" y="0" onmousedown="handlePan(-1,0)"/>
</g>
<svg viewBox="0 0 15 15" width="100%" height="30px" preserveAspectRatio="xMaxYMin meet">
 <g id="arrow_out" transform="scale(0.3 0.3)">
  <a xlink:href="coulomb_8hpp__dep__incl_org.svg" target="_base">
   <rect id="button" ry="5" rx="5" y="6" x="6" height="38" width="38"
        fill="#f2f5e9" fill-opacity="0.5" stroke="#606060" stroke-width="1.0"/>
   <path id="arrow"
     d="M 11.500037,31.436501 C 11.940474,20.09759 22.043105,11.32322 32.158766,21.979434 L 37.068811,17.246167 C 37.068811,17.246167 37.088388,32 37.088388,32 L 22.160133,31.978069 C 22.160133,31.978069 26.997745,27.140456 26.997745,27.140456 C 18.528582,18.264221 13.291696,25.230495 11.500037,31.436501 z"
     style="fill:#404040;"/>
  </a>
 </g>
</svg>

<style type='text/css'>
<![CDATA[
[data-mouse-over-selected='false'] { opacity: 0.7; }
[data-mouse-over-selected='true']  { opacity: 1.0; }
]]>
</style>
<script type="application/ecmascript"><![CDATA[
document.addEventListener('DOMContentLoaded', (event) => {
  highlightEdges();
  highlightAdjacentNodes();
});
]]></script>
</svg>
