<?xml version="1.0" encoding="UTF-8" standalone="no"?>
<!DOCTYPE svg PUBLIC "-//W3C//DTD SVG 1.1//EN"
 "http://www.w3.org/Graphics/SVG/1.1/DTD/svg11.dtd">
<!-- Generated by graphviz version 2.43.0 (0)
 -->
<!-- Title: init.hpp Pages: 1 -->
<svg width="613pt" height="203pt"
 viewBox="0.00 0.00 613.00 203.00" xmlns="http://www.w3.org/2000/svg" xmlns:xlink="http://www.w3.org/1999/xlink">
<g id="graph0" class="graph" transform="scale(1 1) rotate(0) translate(4 199)">
<title>init.hpp</title>
<!-- Node1 -->
<g id="Node000001" class="node">
<title>Node1</title>
<g id="a_Node000001"><a xlink:title=" ">
<polygon fill="#999999" stroke="#666666" points="379,-195 326,-195 326,-176 379,-176 379,-195"/>
<text text-anchor="middle" x="352.5" y="-183" font-family="Helvetica,sans-Serif" font-size="10.00">init.hpp</text>
</a>
</g>
</g>
<!-- Node2 -->
<g id="Node000002" class="node">
<title>Node2</title>
<g id="a_Node000002"><a xlink:href="config_8hpp.html" target="_top" xlink:title="This file contains the defaults for ESPResSo.">
<polygon fill="white" stroke="#666666" points="121,-74 22,-74 22,-55 121,-55 121,-74"/>
<text text-anchor="middle" x="71.5" y="-62" font-family="Helvetica,sans-Serif" font-size="10.00">config/config.hpp</text>
</a>
</g>
</g>
<!-- Node1&#45;&gt;Node2 -->
<g id="edge1_Node000001_Node000002" class="edge">
<title>Node1&#45;&gt;Node2</title>
<g id="a_edge1_Node000001_Node000002"><a xlink:title=" ">
<path fill="none" stroke="#63b8ff" d="M325.94,-181.17C290.02,-175.95 224.56,-163.87 173.5,-140 140.45,-124.55 107.27,-97.71 88.1,-80.82"/>
<polygon fill="#63b8ff" stroke="#63b8ff" points="90.33,-78.12 80.55,-74.04 85.65,-83.33 90.33,-78.12"/>
</a>
</g>
</g>
<!-- Node4 -->
<g id="Node000004" class="node">
<title>Node4</title>
<g id="a_Node000004"><a xlink:href="core_2cuda_2utils_8hpp.html" target="_top" xlink:title=" ">
<polygon fill="white" stroke="#666666" points="242,-134.5 183,-134.5 183,-115.5 242,-115.5 242,-134.5"/>
<text text-anchor="middle" x="212.5" y="-122.5" font-family="Helvetica,sans-Serif" font-size="10.00">utils.hpp</text>
</a>
</g>
</g>
<!-- Node1&#45;&gt;Node4 -->
<g id="edge3_Node000001_Node000004" class="edge">
<title>Node1&#45;&gt;Node4</title>
<g id="a_edge3_Node000001_Node000004"><a xlink:title=" ">
<path fill="none" stroke="#63b8ff" d="M332.14,-175.99C308.5,-166.12 269.3,-149.73 242.25,-138.43"/>
<polygon fill="#63b8ff" stroke="#63b8ff" points="243.46,-135.14 232.88,-134.52 240.76,-141.6 243.46,-135.14"/>
</a>
</g>
</g>
<!-- Node7 -->
<g id="Node000007" class="node">
<title>Node7</title>
<g id="a_Node000007"><a xlink:title=" ">
<polygon fill="#e0e0e0" stroke="#999999" points="349.5,-74 305.5,-74 305.5,-55 349.5,-55 349.5,-74"/>
<text text-anchor="middle" x="327.5" y="-62" font-family="Helvetica,sans-Serif" font-size="10.00">string</text>
</a>
</g>
</g>
<!-- Node1&#45;&gt;Node7 -->
<g id="edge10_Node000001_Node000007" class="edge">
<title>Node1&#45;&gt;Node7</title>
<g id="a_edge10_Node000001_Node000007"><a xlink:title=" ">
<path fill="none" stroke="#63b8ff" d="M331.98,-176C317.48,-168.77 299.15,-156.86 290.5,-140 284.41,-128.14 285.97,-122.54 290.5,-110 294.44,-99.09 302.36,-88.96 309.86,-81.14"/>
<polygon fill="#63b8ff" stroke="#63b8ff" points="312.34,-83.61 317.06,-74.13 307.45,-78.6 312.34,-83.61"/>
</a>
</g>
</g>
<!-- Node8 -->
<g id="Node000008" class="node">
<title>Node8</title>
<g id="a_Node000008"><a xlink:title=" ">
<polygon fill="#e0e0e0" stroke="#999999" points="406,-140 299,-140 299,-110 406,-110 406,-140"/>
<text text-anchor="start" x="307" y="-128" font-family="Helvetica,sans-Serif" font-size="10.00">boost/serialization</text>
<text text-anchor="middle" x="352.5" y="-117" font-family="Helvetica,sans-Serif" font-size="10.00">/access.hpp</text>
</a>
</g>
</g>
<!-- Node1&#45;&gt;Node8 -->
<g id="edge8_Node000001_Node000008" class="edge">
<title>Node1&#45;&gt;Node8</title>
<g id="a_edge8_Node000001_Node000008"><a xlink:title=" ">
<path fill="none" stroke="#63b8ff" d="M352.5,-175.87C352.5,-169.11 352.5,-159.35 352.5,-150.26"/>
<polygon fill="#63b8ff" stroke="#63b8ff" points="356,-150.11 352.5,-140.11 349,-150.11 356,-150.11"/>
</a>
</g>
</g>
<!-- Node9 -->
<g id="Node000009" class="node">
<title>Node9</title>
<g id="a_Node000009"><a xlink:title=" ">
<polygon fill="#e0e0e0" stroke="#999999" points="477,-134.5 424,-134.5 424,-115.5 477,-115.5 477,-134.5"/>
<text text-anchor="middle" x="450.5" y="-122.5" font-family="Helvetica,sans-Serif" font-size="10.00">cstddef</text>
</a>
</g>
</g>
<!-- Node1&#45;&gt;Node9 -->
<g id="edge9_Node000001_Node000009" class="edge">
<title>Node1&#45;&gt;Node9</title>
<g id="a_edge9_Node000001_Node000009"><a xlink:title=" ">
<path fill="none" stroke="#63b8ff" d="M366.96,-175.87C382.81,-166.41 408.47,-151.09 427.18,-139.92"/>
<polygon fill="#63b8ff" stroke="#63b8ff" points="429.19,-142.8 435.98,-134.67 425.6,-136.79 429.19,-142.8"/>
</a>
</g>
</g>
<!-- Node10 -->
<g id="Node000010" class="node">
<title>Node10</title>
<g id="a_Node000010"><a xlink:title=" ">
<polygon fill="#e0e0e0" stroke="#999999" points="540,-134.5 495,-134.5 495,-115.5 540,-115.5 540,-134.5"/>
<text text-anchor="middle" x="517.5" y="-122.5" font-family="Helvetica,sans-Serif" font-size="10.00">utility</text>
</a>
</g>
</g>
<!-- Node1&#45;&gt;Node10 -->
<g id="edge11_Node000001_Node000010" class="edge">
<title>Node1&#45;&gt;Node10</title>
<g id="a_edge11_Node000001_Node000010"><a xlink:title=" ">
<path fill="none" stroke="#63b8ff" d="M379.23,-176.52C406.49,-168.17 449.85,-154.32 486.5,-140 487.68,-139.54 488.87,-139.06 490.08,-138.57"/>
<polygon fill="#63b8ff" stroke="#63b8ff" points="491.47,-141.78 499.27,-134.61 488.71,-135.35 491.47,-141.78"/>
</a>
</g>
</g>
<!-- Node11 -->
<g id="Node000011" class="node">
<title>Node11</title>
<g id="a_Node000011"><a xlink:title=" ">
<polygon fill="#e0e0e0" stroke="#999999" points="605,-134.5 558,-134.5 558,-115.5 605,-115.5 605,-134.5"/>
<text text-anchor="middle" x="581.5" y="-122.5" font-family="Helvetica,sans-Serif" font-size="10.00">vector</text>
</a>
</g>
</g>
<!-- Node1&#45;&gt;Node11 -->
<g id="edge12_Node000001_Node000011" class="edge">
<title>Node1&#45;&gt;Node11</title>
<g id="a_edge12_Node000001_Node000011"><a xlink:title=" ">
<path fill="none" stroke="#63b8ff" d="M379.06,-180.16C417.31,-173.54 489.87,-159.58 549.5,-140 550.94,-139.53 552.4,-139.01 553.87,-138.47"/>
<polygon fill="#63b8ff" stroke="#63b8ff" points="555.49,-141.59 563.46,-134.61 552.87,-135.1 555.49,-141.59"/>
</a>
</g>
</g>
<!-- Node3 -->
<g id="Node000003" class="node">
<title>Node3</title>
<g id="a_Node000003"><a xlink:title=" ">
<polygon fill="#e0e0e0" stroke="#999999" points="143,-19 0,-19 0,0 143,0 143,-19"/>
<text text-anchor="middle" x="71.5" y="-7" font-family="Helvetica,sans-Serif" font-size="10.00">config/config&#45;features.hpp</text>
</a>
</g>
</g>
<!-- Node2&#45;&gt;Node3 -->
<g id="edge2_Node000002_Node000003" class="edge">
<title>Node2&#45;&gt;Node3</title>
<g id="a_edge2_Node000002_Node000003"><a xlink:title=" ">
<path fill="none" stroke="#63b8ff" d="M71.5,-54.75C71.5,-47.8 71.5,-37.85 71.5,-29.13"/>
<polygon fill="#63b8ff" stroke="#63b8ff" points="75,-29.09 71.5,-19.09 68,-29.09 75,-29.09"/>
</a>
</g>
</g>
<!-- Node4&#45;&gt;Node2 -->
<g id="edge4_Node000004_Node000002" class="edge">
<title>Node4&#45;&gt;Node2</title>
<g id="a_edge4_Node000004_Node000002"><a xlink:title=" ">
<path fill="none" stroke="#63b8ff" d="M192,-115.49C168.19,-105.62 128.71,-89.23 101.46,-77.93"/>
<polygon fill="#63b8ff" stroke="#63b8ff" points="102.61,-74.62 92.03,-74.02 99.92,-81.08 102.61,-74.62"/>
</a>
</g>
</g>
<!-- Node5 -->
<g id="Node000005" class="node">
<title>Node5</title>
<g id="a_Node000005"><a xlink:title=" ">
<polygon fill="#e0e0e0" stroke="#999999" points="204,-74 139,-74 139,-55 204,-55 204,-74"/>
<text text-anchor="middle" x="171.5" y="-62" font-family="Helvetica,sans-Serif" font-size="10.00">exception</text>
</a>
</g>
</g>
<!-- Node4&#45;&gt;Node5 -->
<g id="edge5_Node000004_Node000005" class="edge">
<title>Node4&#45;&gt;Node5</title>
<g id="a_edge5_Node000004_Node000005"><a xlink:title=" ">
<path fill="none" stroke="#63b8ff" d="M206.45,-115.37C200.39,-106.73 190.91,-93.2 183.36,-82.42"/>
<polygon fill="#63b8ff" stroke="#63b8ff" points="186.18,-80.35 177.57,-74.17 180.45,-84.37 186.18,-80.35"/>
</a>
</g>
</g>
<!-- Node6 -->
<g id="Node000006" class="node">
<title>Node6</title>
<g id="a_Node000006"><a xlink:title=" ">
<polygon fill="#e0e0e0" stroke="#999999" points="287,-74 222,-74 222,-55 287,-55 287,-74"/>
<text text-anchor="middle" x="254.5" y="-62" font-family="Helvetica,sans-Serif" font-size="10.00">stdexcept</text>
</a>
</g>
</g>
<!-- Node4&#45;&gt;Node6 -->
<g id="edge6_Node000004_Node000006" class="edge">
<title>Node4&#45;&gt;Node6</title>
<g id="a_edge6_Node000004_Node000006"><a xlink:title=" ">
<path fill="none" stroke="#63b8ff" d="M218.7,-115.37C224.9,-106.73 234.61,-93.2 242.36,-82.42"/>
<polygon fill="#63b8ff" stroke="#63b8ff" points="245.29,-84.33 248.28,-74.17 239.6,-80.25 245.29,-84.33"/>
</a>
</g>
</g>
<!-- Node4&#45;&gt;Node7 -->
<g id="edge7_Node000004_Node000007" class="edge">
<title>Node4&#45;&gt;Node7</title>
<g id="a_edge7_Node000004_Node000007"><a xlink:title=" ">
<path fill="none" stroke="#63b8ff" d="M229.47,-115.37C248.41,-105.73 279.29,-90.03 301.33,-78.81"/>
<polygon fill="#63b8ff" stroke="#63b8ff" points="303.14,-81.82 310.46,-74.17 299.96,-75.58 303.14,-81.82"/>
</a>
</g>
</g>
</g>
</svg>
