<?xml version="1.0" encoding="UTF-8" standalone="no"?>
<!DOCTYPE svg PUBLIC "-//W3C//DTD SVG 1.1//EN"
 "http://www.w3.org/Graphics/SVG/1.1/DTD/svg11.dtd">
<!-- Generated by graphviz version 2.43.0 (0)
 -->
<!-- Title: cuda_init.cpp Pages: 1 -->
<svg width="2441pt" height="341pt"
 viewBox="0.00 0.00 2440.50 341.00" xmlns="http://www.w3.org/2000/svg" xmlns:xlink="http://www.w3.org/1999/xlink">
<g id="graph0" class="graph" transform="scale(1 1) rotate(0) translate(4 337)">
<title>cuda_init.cpp</title>
<!-- Node1 -->
<g id="node1" class="node">
<title>Node1</title>
<g id="a_node1"><a xlink:title=" ">
<polygon fill="#bfbfbf" stroke="black" points="917,-313.5 917,-332.5 998,-332.5 998,-313.5 917,-313.5"/>
<text text-anchor="middle" x="957.5" y="-320.5" font-family="Helvetica,sans-Serif" font-size="10.00">cuda_init.cpp</text>
</a>
</g>
</g>
<!-- Node2 -->
<g id="node2" class="node">
<title>Node2</title>
<g id="a_node2"><a xlink:href="config_8hpp.html" target="_top" xlink:title=" ">
<polygon fill="none" stroke="black" points="165.5,-196 165.5,-215 233.5,-215 233.5,-196 165.5,-196"/>
<text text-anchor="middle" x="199.5" y="-203" font-family="Helvetica,sans-Serif" font-size="10.00">config.hpp</text>
</a>
</g>
</g>
<!-- Node1&#45;&gt;Node2 -->
<g id="edge1" class="edge">
<title>Node1&#45;&gt;Node2</title>
<path fill="none" stroke="midnightblue" d="M916.94,-320.6C801.42,-316.34 472.23,-302.27 367.5,-277 314.28,-264.16 256.22,-236.45 224.2,-219.85"/>
<polygon fill="midnightblue" stroke="midnightblue" points="225.61,-216.64 215.13,-215.09 222.36,-222.84 225.61,-216.64"/>
</g>
<!-- Node4 -->
<g id="node4" class="node">
<title>Node4</title>
<g id="a_node4"><a xlink:href="cuda__init_8hpp.html" target="_top" xlink:title=" ">
<polygon fill="none" stroke="black" points="627.5,-257.5 627.5,-276.5 709.5,-276.5 709.5,-257.5 627.5,-257.5"/>
<text text-anchor="middle" x="668.5" y="-264.5" font-family="Helvetica,sans-Serif" font-size="10.00">cuda_init.hpp</text>
</a>
</g>
</g>
<!-- Node1&#45;&gt;Node4 -->
<g id="edge3" class="edge">
<title>Node1&#45;&gt;Node4</title>
<path fill="none" stroke="midnightblue" d="M916.71,-314.38C865,-304.72 775.85,-288.06 719.65,-277.56"/>
<polygon fill="midnightblue" stroke="midnightblue" points="720.03,-274.07 709.55,-275.67 718.74,-280.95 720.03,-274.07"/>
</g>
<!-- Node6 -->
<g id="node6" class="node">
<title>Node6</title>
<g id="a_node6"><a xlink:title=" ">
<polygon fill="none" stroke="#bfbfbf" points="596,-129 596,-148 643,-148 643,-129 596,-129"/>
<text text-anchor="middle" x="619.5" y="-136" font-family="Helvetica,sans-Serif" font-size="10.00">vector</text>
</a>
</g>
</g>
<!-- Node1&#45;&gt;Node6 -->
<g id="edge72" class="edge">
<title>Node1&#45;&gt;Node6</title>
<path fill="none" stroke="midnightblue" d="M916.81,-319.56C831.04,-314.01 637.91,-299.16 618.5,-277 589.49,-243.88 602.8,-187.11 612.51,-157.96"/>
<polygon fill="midnightblue" stroke="midnightblue" points="615.91,-158.84 615.96,-148.25 609.31,-156.5 615.91,-158.84"/>
</g>
<!-- Node7 -->
<g id="node7" class="node">
<title>Node7</title>
<g id="a_node7"><a xlink:href="cuda__utils_8hpp.html" target="_top" xlink:title=" ">
<polygon fill="none" stroke="black" points="103,-257.5 103,-276.5 190,-276.5 190,-257.5 103,-257.5"/>
<text text-anchor="middle" x="146.5" y="-264.5" font-family="Helvetica,sans-Serif" font-size="10.00">cuda_utils.hpp</text>
</a>
</g>
</g>
<!-- Node1&#45;&gt;Node7 -->
<g id="edge7" class="edge">
<title>Node1&#45;&gt;Node7</title>
<path fill="none" stroke="midnightblue" d="M916.66,-319.47C809.94,-312.82 513.9,-294.2 267.5,-277 245.47,-275.46 221.19,-273.67 200.2,-272.1"/>
<polygon fill="midnightblue" stroke="midnightblue" points="200.41,-268.61 190.18,-271.35 199.89,-275.59 200.41,-268.61"/>
</g>
<!-- Node10 -->
<g id="node10" class="node">
<title>Node10</title>
<g id="a_node10"><a xlink:href="communication_8hpp.html" target="_top" xlink:title=" ">
<polygon fill="none" stroke="black" points="837,-257.5 837,-276.5 950,-276.5 950,-257.5 837,-257.5"/>
<text text-anchor="middle" x="893.5" y="-264.5" font-family="Helvetica,sans-Serif" font-size="10.00">communication.hpp</text>
</a>
</g>
</g>
<!-- Node1&#45;&gt;Node10 -->
<g id="edge11" class="edge">
<title>Node1&#45;&gt;Node10</title>
<path fill="none" stroke="midnightblue" d="M947.22,-313.32C937.66,-305.26 923.22,-293.08 911.72,-283.37"/>
<polygon fill="midnightblue" stroke="midnightblue" points="913.87,-280.61 903.97,-276.83 909.36,-285.96 913.87,-280.61"/>
</g>
<!-- Node14 -->
<g id="node14" class="node">
<title>Node14</title>
<g id="a_node14"><a xlink:title=" ">
<polygon fill="none" stroke="#bfbfbf" points="2400.5,-62 2400.5,-81 2432.5,-81 2432.5,-62 2400.5,-62"/>
<text text-anchor="middle" x="2416.5" y="-69" font-family="Helvetica,sans-Serif" font-size="10.00">set</text>
</a>
</g>
</g>
<!-- Node1&#45;&gt;Node14 -->
<g id="edge71" class="edge">
<title>Node1&#45;&gt;Node14</title>
<path fill="none" stroke="midnightblue" d="M998.11,-319.85C1055.4,-315.91 1162.65,-305.15 1249.5,-277 1268.03,-270.99 1269.68,-262.03 1288.5,-257 1446.47,-214.74 1861.09,-240.13 2023.5,-221 2183.83,-202.12 2253.98,-254.27 2380.5,-154 2400.07,-138.49 2409.27,-110.14 2413.4,-91.3"/>
<polygon fill="midnightblue" stroke="midnightblue" points="2416.88,-91.73 2415.33,-81.25 2410.01,-90.41 2416.88,-91.73"/>
</g>
<!-- Node33 -->
<g id="node33" class="node">
<title>Node33</title>
<g id="a_node33"><a xlink:href="errorhandling_8hpp.html" target="_top" xlink:title=" ">
<polygon fill="none" stroke="black" points="377,-257.5 377,-276.5 480,-276.5 480,-257.5 377,-257.5"/>
<text text-anchor="middle" x="428.5" y="-264.5" font-family="Helvetica,sans-Serif" font-size="10.00">errorhandling.hpp</text>
</a>
</g>
</g>
<!-- Node1&#45;&gt;Node33 -->
<g id="edge50" class="edge">
<title>Node1&#45;&gt;Node33</title>
<path fill="none" stroke="midnightblue" d="M916.87,-317.85C824.88,-308.46 600.17,-285.52 490.61,-274.34"/>
<polygon fill="midnightblue" stroke="midnightblue" points="490.68,-270.83 480.37,-273.3 489.97,-277.79 490.68,-270.83"/>
</g>
<!-- Node39 -->
<g id="node39" class="node">
<title>Node39</title>
<g id="a_node39"><a xlink:href="constants_8hpp.html" target="_top" xlink:title=" ">
<polygon fill="none" stroke="black" points="1132,-257.5 1132,-276.5 1241,-276.5 1241,-257.5 1132,-257.5"/>
<text text-anchor="middle" x="1186.5" y="-264.5" font-family="Helvetica,sans-Serif" font-size="10.00">utils/constants.hpp</text>
</a>
</g>
</g>
<!-- Node1&#45;&gt;Node39 -->
<g id="edge63" class="edge">
<title>Node1&#45;&gt;Node39</title>
<path fill="none" stroke="midnightblue" d="M993.79,-313.44C1033.48,-304.08 1097.21,-289.06 1140.41,-278.87"/>
<polygon fill="midnightblue" stroke="midnightblue" points="1141.45,-282.22 1150.38,-276.52 1139.85,-275.41 1141.45,-282.22"/>
</g>
<!-- Node42 -->
<g id="node42" class="node">
<title>Node42</title>
<g id="a_node42"><a xlink:title=" ">
<polygon fill="none" stroke="#bfbfbf" points="1297.5,-257.5 1297.5,-276.5 1341.5,-276.5 1341.5,-257.5 1297.5,-257.5"/>
<text text-anchor="middle" x="1319.5" y="-264.5" font-family="Helvetica,sans-Serif" font-size="10.00">mpi.h</text>
</a>
</g>
</g>
<!-- Node1&#45;&gt;Node42 -->
<g id="edge67" class="edge">
<title>Node1&#45;&gt;Node42</title>
<path fill="none" stroke="midnightblue" d="M998.13,-317.82C1060.04,-311.12 1181.55,-296.72 1283.5,-277 1284.78,-276.75 1286.08,-276.49 1287.4,-276.21"/>
<polygon fill="midnightblue" stroke="midnightblue" points="1288.53,-279.54 1297.5,-273.9 1286.97,-272.72 1288.53,-279.54"/>
</g>
<!-- Node43 -->
<g id="node43" class="node">
<title>Node43</title>
<g id="a_node43"><a xlink:title=" ">
<polygon fill="none" stroke="#bfbfbf" points="1359.5,-257.5 1359.5,-276.5 1423.5,-276.5 1423.5,-257.5 1359.5,-257.5"/>
<text text-anchor="middle" x="1391.5" y="-264.5" font-family="Helvetica,sans-Serif" font-size="10.00">algorithm</text>
</a>
</g>
</g>
<!-- Node1&#45;&gt;Node43 -->
<g id="edge68" class="edge">
<title>Node1&#45;&gt;Node43</title>
<path fill="none" stroke="midnightblue" d="M998.14,-318.72C1067.93,-312.8 1215.22,-298.99 1349.29,-277.05"/>
<polygon fill="midnightblue" stroke="midnightblue" points="1350.04,-280.47 1359.33,-275.39 1348.89,-273.57 1350.04,-280.47"/>
</g>
<!-- Node44 -->
<g id="node44" class="node">
<title>Node44</title>
<g id="a_node44"><a xlink:title=" ">
<polygon fill="none" stroke="#bfbfbf" points="1441.5,-257.5 1441.5,-276.5 1491.5,-276.5 1491.5,-257.5 1441.5,-257.5"/>
<text text-anchor="middle" x="1466.5" y="-264.5" font-family="Helvetica,sans-Serif" font-size="10.00">cstring</text>
</a>
</g>
</g>
<!-- Node1&#45;&gt;Node44 -->
<g id="edge69" class="edge">
<title>Node1&#45;&gt;Node44</title>
<path fill="none" stroke="midnightblue" d="M998.15,-320.4C1079.01,-316.74 1265.8,-305.85 1431.48,-276.9"/>
<polygon fill="midnightblue" stroke="midnightblue" points="1432.12,-280.34 1441.35,-275.15 1430.89,-273.45 1432.12,-280.34"/>
</g>
<!-- Node45 -->
<g id="node45" class="node">
<title>Node45</title>
<g id="a_node45"><a xlink:title=" ">
<polygon fill="none" stroke="#bfbfbf" points="1510,-257.5 1510,-276.5 1563,-276.5 1563,-257.5 1510,-257.5"/>
<text text-anchor="middle" x="1536.5" y="-264.5" font-family="Helvetica,sans-Serif" font-size="10.00">iterator</text>
</a>
</g>
</g>
<!-- Node1&#45;&gt;Node45 -->
<g id="edge70" class="edge">
<title>Node1&#45;&gt;Node45</title>
<path fill="none" stroke="midnightblue" d="M998.31,-320.88C1087.56,-317.94 1306.88,-308.09 1499.83,-276.82"/>
<polygon fill="midnightblue" stroke="midnightblue" points="1500.56,-280.25 1509.86,-275.17 1499.43,-273.34 1500.56,-280.25"/>
</g>
<!-- Node3 -->
<g id="node3" class="node">
<title>Node3</title>
<g id="a_node3"><a xlink:title=" ">
<polygon fill="none" stroke="#bfbfbf" points="121.5,-129 121.5,-148 233.5,-148 233.5,-129 121.5,-129"/>
<text text-anchor="middle" x="177.5" y="-136" font-family="Helvetica,sans-Serif" font-size="10.00">config&#45;features.hpp</text>
</a>
</g>
</g>
<!-- Node2&#45;&gt;Node3 -->
<g id="edge2" class="edge">
<title>Node2&#45;&gt;Node3</title>
<path fill="none" stroke="midnightblue" d="M196.53,-195.73C193.27,-186.09 187.92,-170.3 183.73,-157.91"/>
<polygon fill="midnightblue" stroke="midnightblue" points="186.94,-156.48 180.42,-148.13 180.31,-158.72 186.94,-156.48"/>
</g>
<!-- Node4&#45;&gt;Node2 -->
<g id="edge4" class="edge">
<title>Node4&#45;&gt;Node2</title>
<path fill="none" stroke="midnightblue" d="M627.49,-261.91C557.16,-254.73 409.07,-238.91 284.5,-221 271.29,-219.1 256.97,-216.76 243.91,-214.53"/>
<polygon fill="midnightblue" stroke="midnightblue" points="244.21,-211.03 233.76,-212.76 243.02,-217.92 244.21,-211.03"/>
</g>
<!-- Node5 -->
<g id="node5" class="node">
<title>Node5</title>
<g id="a_node5"><a xlink:title=" ">
<polygon fill="none" stroke="#bfbfbf" points="1084,-0.5 1084,-19.5 1137,-19.5 1137,-0.5 1084,-0.5"/>
<text text-anchor="middle" x="1110.5" y="-7.5" font-family="Helvetica,sans-Serif" font-size="10.00">cstddef</text>
</a>
</g>
</g>
<!-- Node4&#45;&gt;Node5 -->
<g id="edge5" class="edge">
<title>Node4&#45;&gt;Node5</title>
<path fill="none" stroke="midnightblue" d="M669.52,-257.34C674.03,-223.56 695.55,-100.34 773.5,-56 799.24,-41.36 991.76,-22.02 1073.72,-14.34"/>
<polygon fill="midnightblue" stroke="midnightblue" points="1074.21,-17.81 1083.84,-13.4 1073.56,-10.84 1074.21,-17.81"/>
</g>
<!-- Node4&#45;&gt;Node6 -->
<g id="edge6" class="edge">
<title>Node4&#45;&gt;Node6</title>
<path fill="none" stroke="midnightblue" d="M665.13,-257.31C657.23,-236.9 637.36,-185.6 626.63,-157.91"/>
<polygon fill="midnightblue" stroke="midnightblue" points="629.77,-156.32 622.89,-148.26 623.24,-158.84 629.77,-156.32"/>
</g>
<!-- Node7&#45;&gt;Node2 -->
<g id="edge8" class="edge">
<title>Node7&#45;&gt;Node2</title>
<path fill="none" stroke="midnightblue" d="M154.09,-257.48C162.2,-248.37 175.23,-233.74 185.26,-222.48"/>
<polygon fill="midnightblue" stroke="midnightblue" points="187.88,-224.8 191.92,-215.01 182.66,-220.15 187.88,-224.8"/>
</g>
<!-- Node8 -->
<g id="node8" class="node">
<title>Node8</title>
<g id="a_node8"><a xlink:title=" ">
<polygon fill="none" stroke="#bfbfbf" points="0,-196 0,-215 65,-215 65,-196 0,-196"/>
<text text-anchor="middle" x="32.5" y="-203" font-family="Helvetica,sans-Serif" font-size="10.00">stdexcept</text>
</a>
</g>
</g>
<!-- Node7&#45;&gt;Node8 -->
<g id="edge9" class="edge">
<title>Node7&#45;&gt;Node8</title>
<path fill="none" stroke="midnightblue" d="M130.17,-257.48C111.29,-247.62 79.99,-231.29 57.92,-219.77"/>
<polygon fill="midnightblue" stroke="midnightblue" points="59.29,-216.53 48.8,-215.01 56.05,-222.74 59.29,-216.53"/>
</g>
<!-- Node9 -->
<g id="node9" class="node">
<title>Node9</title>
<g id="a_node9"><a xlink:title=" ">
<polygon fill="none" stroke="#bfbfbf" points="258.5,-62 258.5,-81 302.5,-81 302.5,-62 258.5,-62"/>
<text text-anchor="middle" x="280.5" y="-69" font-family="Helvetica,sans-Serif" font-size="10.00">string</text>
</a>
</g>
</g>
<!-- Node7&#45;&gt;Node9 -->
<g id="edge10" class="edge">
<title>Node7&#45;&gt;Node9</title>
<path fill="none" stroke="midnightblue" d="M140.02,-257.3C123.07,-233.37 80.83,-165.59 112.5,-123 143.8,-80.91 209.01,-72.6 248.35,-71.66"/>
<polygon fill="midnightblue" stroke="midnightblue" points="248.5,-75.16 258.47,-71.57 248.44,-68.16 248.5,-75.16"/>
</g>
<!-- Node11 -->
<g id="node11" class="node">
<title>Node11</title>
<g id="a_node11"><a xlink:href="MpiCallbacks_8hpp.html" target="_top" xlink:title=" ">
<polygon fill="none" stroke="black" points="1212,-196 1212,-215 1315,-215 1315,-196 1212,-196"/>
<text text-anchor="middle" x="1263.5" y="-203" font-family="Helvetica,sans-Serif" font-size="10.00">MpiCallbacks.hpp</text>
</a>
</g>
</g>
<!-- Node10&#45;&gt;Node11 -->
<g id="edge12" class="edge">
<title>Node10&#45;&gt;Node11</title>
<path fill="none" stroke="midnightblue" d="M946.51,-257.48C1013.93,-246.63 1130.15,-227.94 1201.58,-216.46"/>
<polygon fill="midnightblue" stroke="midnightblue" points="1202.46,-219.86 1211.78,-214.82 1201.35,-212.95 1202.46,-219.86"/>
</g>
<!-- Node23 -->
<g id="node23" class="node">
<title>Node23</title>
<g id="a_node23"><a xlink:title=" ">
<polygon fill="none" stroke="#bfbfbf" points="783,-62 783,-81 828,-81 828,-62 783,-62"/>
<text text-anchor="middle" x="805.5" y="-69" font-family="Helvetica,sans-Serif" font-size="10.00">utility</text>
</a>
</g>
</g>
<!-- Node10&#45;&gt;Node23 -->
<g id="edge49" class="edge">
<title>Node10&#45;&gt;Node23</title>
<path fill="none" stroke="midnightblue" d="M866.76,-257.39C827.59,-243.11 756.24,-210.38 728.5,-154 722.42,-141.64 721.95,-135.12 728.5,-123 738.03,-105.36 756.69,-92.89 773.26,-84.75"/>
<polygon fill="midnightblue" stroke="midnightblue" points="775.04,-87.78 782.69,-80.45 772.14,-81.41 775.04,-87.78"/>
</g>
<!-- Node27 -->
<g id="node27" class="node">
<title>Node27</title>
<g id="a_node27"><a xlink:title=" ">
<polygon fill="none" stroke="#bfbfbf" points="813.5,-129 813.5,-148 973.5,-148 973.5,-129 813.5,-129"/>
<text text-anchor="middle" x="893.5" y="-136" font-family="Helvetica,sans-Serif" font-size="10.00">boost/mpi/communicator.hpp</text>
</a>
</g>
</g>
<!-- Node10&#45;&gt;Node27 -->
<g id="edge47" class="edge">
<title>Node10&#45;&gt;Node27</title>
<path fill="none" stroke="midnightblue" d="M893.5,-257.31C893.5,-236.99 893.5,-186.05 893.5,-158.28"/>
<polygon fill="midnightblue" stroke="midnightblue" points="897,-158.26 893.5,-148.26 890,-158.26 897,-158.26"/>
</g>
<!-- Node32 -->
<g id="node32" class="node">
<title>Node32</title>
<g id="a_node32"><a xlink:title=" ">
<polygon fill="none" stroke="#bfbfbf" points="737.5,-129 737.5,-148 795.5,-148 795.5,-129 737.5,-129"/>
<text text-anchor="middle" x="766.5" y="-136" font-family="Helvetica,sans-Serif" font-size="10.00">memory</text>
</a>
</g>
</g>
<!-- Node10&#45;&gt;Node32 -->
<g id="edge48" class="edge">
<title>Node10&#45;&gt;Node32</title>
<path fill="none" stroke="midnightblue" d="M884.77,-257.31C863.65,-236.27 809.56,-182.39 782.47,-155.4"/>
<polygon fill="midnightblue" stroke="midnightblue" points="784.85,-152.83 775.29,-148.26 779.91,-157.79 784.85,-152.83"/>
</g>
<!-- Node11&#45;&gt;Node6 -->
<g id="edge46" class="edge">
<title>Node11&#45;&gt;Node6</title>
<path fill="none" stroke="midnightblue" d="M1211.79,-200.28C1116.22,-192.33 905.55,-174.13 728.5,-154 703.23,-151.13 674.75,-147.32 653.24,-144.33"/>
<polygon fill="midnightblue" stroke="midnightblue" points="653.67,-140.85 643.28,-142.93 652.7,-147.78 653.67,-140.85"/>
</g>
<!-- Node12 -->
<g id="node12" class="node">
<title>Node12</title>
<g id="a_node12"><a xlink:href="NumeratedContainer_8hpp.html" target="_top" xlink:title=" ">
<polygon fill="none" stroke="black" points="2156.5,-129 2156.5,-148 2320.5,-148 2320.5,-129 2156.5,-129"/>
<text text-anchor="middle" x="2238.5" y="-136" font-family="Helvetica,sans-Serif" font-size="10.00">utils/NumeratedContainer.hpp</text>
</a>
</g>
</g>
<!-- Node11&#45;&gt;Node12 -->
<g id="edge13" class="edge">
<title>Node11&#45;&gt;Node12</title>
<path fill="none" stroke="midnightblue" d="M1294.32,-195.97C1303.91,-193.64 1314.58,-191.38 1324.5,-190 1687.12,-139.44 1783.23,-190.87 2147.5,-154 2158.47,-152.89 2170.12,-151.33 2181.3,-149.64"/>
<polygon fill="midnightblue" stroke="midnightblue" points="2182.06,-153.06 2191.4,-148.05 2180.98,-146.14 2182.06,-153.06"/>
</g>
<!-- Node13 -->
<g id="node13" class="node">
<title>Node13</title>
<g id="a_node13"><a xlink:title=" ">
<polygon fill="none" stroke="#bfbfbf" points="2322.5,-62 2322.5,-81 2374.5,-81 2374.5,-62 2322.5,-62"/>
<text text-anchor="middle" x="2348.5" y="-69" font-family="Helvetica,sans-Serif" font-size="10.00">cassert</text>
</a>
</g>
</g>
<!-- Node11&#45;&gt;Node13 -->
<g id="edge39" class="edge">
<title>Node11&#45;&gt;Node13</title>
<path fill="none" stroke="midnightblue" d="M1294.31,-195.93C1303.91,-193.59 1314.58,-191.34 1324.5,-190 1379.86,-182.5 2286.37,-189.51 2329.5,-154 2347.7,-139.02 2350.46,-110.29 2350.04,-91.26"/>
<polygon fill="midnightblue" stroke="midnightblue" points="2353.53,-90.91 2349.5,-81.11 2346.54,-91.28 2353.53,-90.91"/>
</g>
<!-- Node16 -->
<g id="node16" class="node">
<title>Node16</title>
<g id="a_node16"><a xlink:href="as__const_8hpp.html" target="_top" xlink:title=" ">
<polygon fill="none" stroke="black" points="1346.5,-62 1346.5,-81 1450.5,-81 1450.5,-62 1346.5,-62"/>
<text text-anchor="middle" x="1398.5" y="-69" font-family="Helvetica,sans-Serif" font-size="10.00">utils/as_const.hpp</text>
</a>
</g>
</g>
<!-- Node11&#45;&gt;Node16 -->
<g id="edge18" class="edge">
<title>Node11&#45;&gt;Node16</title>
<path fill="none" stroke="midnightblue" d="M1249.17,-195.77C1226.18,-180.68 1185.55,-148.84 1205.5,-123 1210.05,-117.11 1295.42,-96.38 1351.08,-83.38"/>
<polygon fill="midnightblue" stroke="midnightblue" points="1352.15,-86.73 1361.1,-81.05 1350.57,-79.91 1352.15,-86.73"/>
</g>
<!-- Node17 -->
<g id="node17" class="node">
<title>Node17</title>
<g id="a_node17"><a xlink:title=" ">
<polygon fill="none" stroke="#bfbfbf" points="1324,-0.5 1324,-19.5 1393,-19.5 1393,-0.5 1324,-0.5"/>
<text text-anchor="middle" x="1358.5" y="-7.5" font-family="Helvetica,sans-Serif" font-size="10.00">type_traits</text>
</a>
</g>
</g>
<!-- Node11&#45;&gt;Node17 -->
<g id="edge44" class="edge">
<title>Node11&#45;&gt;Node17</title>
<path fill="none" stroke="midnightblue" d="M1256.14,-195.82C1243.36,-179.67 1220.09,-144.65 1238.5,-123 1302.96,-47.18 1395.04,-162.82 1459.5,-87 1468.42,-76.5 1467,-67.56 1459.5,-56 1446.96,-36.68 1423.98,-25.58 1403.11,-19.25"/>
<polygon fill="midnightblue" stroke="midnightblue" points="1403.97,-15.86 1393.4,-16.58 1402.12,-22.61 1403.97,-15.86"/>
</g>
<!-- Node18 -->
<g id="node18" class="node">
<title>Node18</title>
<g id="a_node18"><a xlink:href="tuple_8hpp.html" target="_top" xlink:title=" ">
<polygon fill="none" stroke="black" points="1067.5,-129 1067.5,-148 1153.5,-148 1153.5,-129 1067.5,-129"/>
<text text-anchor="middle" x="1110.5" y="-136" font-family="Helvetica,sans-Serif" font-size="10.00">utils/tuple.hpp</text>
</a>
</g>
</g>
<!-- Node11&#45;&gt;Node18 -->
<g id="edge20" class="edge">
<title>Node11&#45;&gt;Node18</title>
<path fill="none" stroke="midnightblue" d="M1243.18,-195.87C1216.78,-184.65 1170.47,-164.98 1140.14,-152.09"/>
<polygon fill="midnightblue" stroke="midnightblue" points="1141.47,-148.86 1130.9,-148.17 1138.74,-155.3 1141.47,-148.86"/>
</g>
<!-- Node20 -->
<g id="node20" class="node">
<title>Node20</title>
<g id="a_node20"><a xlink:title=" ">
<polygon fill="none" stroke="#bfbfbf" points="956,-0.5 956,-19.5 997,-19.5 997,-0.5 956,-0.5"/>
<text text-anchor="middle" x="976.5" y="-7.5" font-family="Helvetica,sans-Serif" font-size="10.00">tuple</text>
</a>
</g>
</g>
<!-- Node11&#45;&gt;Node20 -->
<g id="edge43" class="edge">
<title>Node11&#45;&gt;Node20</title>
<path fill="none" stroke="midnightblue" d="M1212,-198.34C1169.14,-191.72 1107.45,-178.64 1058.5,-154 1053.28,-151.37 980.02,-92.27 977.5,-87 968.88,-68.99 970.1,-45.73 972.54,-29.71"/>
<polygon fill="midnightblue" stroke="midnightblue" points="976.05,-29.97 974.41,-19.5 969.16,-28.71 976.05,-29.97"/>
</g>
<!-- Node21 -->
<g id="node21" class="node">
<title>Node21</title>
<g id="a_node21"><a xlink:href="type__traits_8hpp.html" target="_top" xlink:title=" ">
<polygon fill="none" stroke="black" points="1176.5,-62 1176.5,-81 1290.5,-81 1290.5,-62 1176.5,-62"/>
<text text-anchor="middle" x="1233.5" y="-69" font-family="Helvetica,sans-Serif" font-size="10.00">utils/type_traits.hpp</text>
</a>
</g>
</g>
<!-- Node11&#45;&gt;Node21 -->
<g id="edge32" class="edge">
<title>Node11&#45;&gt;Node21</title>
<path fill="none" stroke="midnightblue" d="M1296.84,-195.94C1338.74,-183.5 1402.34,-158.03 1377.5,-123 1359.96,-98.25 1329.3,-85.54 1300.77,-79.05"/>
<polygon fill="midnightblue" stroke="midnightblue" points="1301.29,-75.58 1290.79,-77 1299.88,-82.44 1301.29,-75.58"/>
</g>
<!-- Node11&#45;&gt;Node23 -->
<g id="edge45" class="edge">
<title>Node11&#45;&gt;Node23</title>
<path fill="none" stroke="midnightblue" d="M1211.93,-199.79C1162.4,-193.84 1086.33,-180.94 1025.5,-154 1003.96,-144.46 1003.7,-133.27 982.5,-123 934.87,-99.91 874.77,-85.56 838.28,-78.3"/>
<polygon fill="midnightblue" stroke="midnightblue" points="838.68,-74.82 828.2,-76.36 837.36,-81.69 838.68,-74.82"/>
</g>
<!-- Node24 -->
<g id="node24" class="node">
<title>Node24</title>
<g id="a_node24"><a xlink:title=" ">
<polygon fill="none" stroke="#bfbfbf" points="1248,-123.5 1248,-153.5 1369,-153.5 1369,-123.5 1248,-123.5"/>
<text text-anchor="start" x="1256" y="-141.5" font-family="Helvetica,sans-Serif" font-size="10.00">boost/mpi/collectives</text>
<text text-anchor="middle" x="1308.5" y="-130.5" font-family="Helvetica,sans-Serif" font-size="10.00">/all_reduce.hpp</text>
</a>
</g>
</g>
<!-- Node11&#45;&gt;Node24 -->
<g id="edge33" class="edge">
<title>Node11&#45;&gt;Node24</title>
<path fill="none" stroke="midnightblue" d="M1269.57,-195.73C1275.53,-187.12 1284.89,-173.61 1292.93,-161.99"/>
<polygon fill="midnightblue" stroke="midnightblue" points="1295.93,-163.8 1298.75,-153.59 1290.18,-159.82 1295.93,-163.8"/>
</g>
<!-- Node25 -->
<g id="node25" class="node">
<title>Node25</title>
<g id="a_node25"><a xlink:title=" ">
<polygon fill="none" stroke="#bfbfbf" points="1426,-123.5 1426,-153.5 1547,-153.5 1547,-123.5 1426,-123.5"/>
<text text-anchor="start" x="1434" y="-141.5" font-family="Helvetica,sans-Serif" font-size="10.00">boost/mpi/collectives</text>
<text text-anchor="middle" x="1486.5" y="-130.5" font-family="Helvetica,sans-Serif" font-size="10.00">/broadcast.hpp</text>
</a>
</g>
</g>
<!-- Node11&#45;&gt;Node25 -->
<g id="edge34" class="edge">
<title>Node11&#45;&gt;Node25</title>
<path fill="none" stroke="midnightblue" d="M1293.11,-195.87C1327.52,-185.84 1385.1,-169.06 1428.51,-156.4"/>
<polygon fill="midnightblue" stroke="midnightblue" points="1429.75,-159.69 1438.37,-153.53 1427.79,-152.97 1429.75,-159.69"/>
</g>
<!-- Node26 -->
<g id="node26" class="node">
<title>Node26</title>
<g id="a_node26"><a xlink:title=" ">
<polygon fill="none" stroke="#bfbfbf" points="1565,-123.5 1565,-153.5 1686,-153.5 1686,-123.5 1565,-123.5"/>
<text text-anchor="start" x="1573" y="-141.5" font-family="Helvetica,sans-Serif" font-size="10.00">boost/mpi/collectives</text>
<text text-anchor="middle" x="1625.5" y="-130.5" font-family="Helvetica,sans-Serif" font-size="10.00">/reduce.hpp</text>
</a>
</g>
</g>
<!-- Node11&#45;&gt;Node26 -->
<g id="edge35" class="edge">
<title>Node11&#45;&gt;Node26</title>
<path fill="none" stroke="midnightblue" d="M1297.28,-195.97C1306.11,-193.88 1315.63,-191.74 1324.5,-190 1423.37,-170.58 1451.57,-172.41 1554.93,-154.04"/>
<polygon fill="midnightblue" stroke="midnightblue" points="1555.61,-157.47 1564.83,-152.26 1554.37,-150.58 1555.61,-157.47"/>
</g>
<!-- Node11&#45;&gt;Node27 -->
<g id="edge36" class="edge">
<title>Node11&#45;&gt;Node27</title>
<path fill="none" stroke="midnightblue" d="M1214.75,-195.94C1147,-184.03 1024.54,-162.52 951.96,-149.77"/>
<polygon fill="midnightblue" stroke="midnightblue" points="952.52,-146.31 942.07,-148.03 951.31,-153.21 952.52,-146.31"/>
</g>
<!-- Node28 -->
<g id="node28" class="node">
<title>Node28</title>
<g id="a_node28"><a xlink:title=" ">
<polygon fill="none" stroke="#bfbfbf" points="1704,-129 1704,-148 1811,-148 1811,-129 1704,-129"/>
<text text-anchor="middle" x="1757.5" y="-136" font-family="Helvetica,sans-Serif" font-size="10.00">boost/optional.hpp</text>
</a>
</g>
</g>
<!-- Node11&#45;&gt;Node28 -->
<g id="edge37" class="edge">
<title>Node11&#45;&gt;Node28</title>
<path fill="none" stroke="midnightblue" d="M1295.62,-196C1304.89,-193.78 1315.05,-191.58 1324.5,-190 1487.47,-162.83 1531.43,-180.58 1694.5,-154 1700.82,-152.97 1707.46,-151.68 1713.96,-150.29"/>
<polygon fill="midnightblue" stroke="midnightblue" points="1714.98,-153.65 1723.98,-148.06 1713.46,-146.82 1714.98,-153.65"/>
</g>
<!-- Node29 -->
<g id="node29" class="node">
<title>Node29</title>
<g id="a_node29"><a xlink:title=" ">
<polygon fill="none" stroke="#bfbfbf" points="1829,-123.5 1829,-153.5 1954,-153.5 1954,-123.5 1829,-123.5"/>
<text text-anchor="start" x="1837" y="-141.5" font-family="Helvetica,sans-Serif" font-size="10.00">boost/range/algorithm</text>
<text text-anchor="middle" x="1891.5" y="-130.5" font-family="Helvetica,sans-Serif" font-size="10.00">/remove_if.hpp</text>
</a>
</g>
</g>
<!-- Node11&#45;&gt;Node29 -->
<g id="edge38" class="edge">
<title>Node11&#45;&gt;Node29</title>
<path fill="none" stroke="midnightblue" d="M1294.97,-196C1304.4,-193.73 1314.82,-191.49 1324.5,-190 1539.64,-156.84 1599.73,-183.35 1818.65,-154.14"/>
<polygon fill="midnightblue" stroke="midnightblue" points="1819.42,-157.56 1828.86,-152.75 1818.48,-150.63 1819.42,-157.56"/>
</g>
<!-- Node30 -->
<g id="node30" class="node">
<title>Node30</title>
<g id="a_node30"><a xlink:title=" ">
<polygon fill="none" stroke="#bfbfbf" points="1972,-129 1972,-148 2037,-148 2037,-129 1972,-129"/>
<text text-anchor="middle" x="2004.5" y="-136" font-family="Helvetica,sans-Serif" font-size="10.00">functional</text>
</a>
</g>
</g>
<!-- Node11&#45;&gt;Node30 -->
<g id="edge40" class="edge">
<title>Node11&#45;&gt;Node30</title>
<path fill="none" stroke="midnightblue" d="M1294.64,-195.98C1304.16,-193.68 1314.7,-191.43 1324.5,-190 1605.97,-148.95 1684.61,-209.98 1963.5,-154 1967.01,-153.3 1970.63,-152.35 1974.19,-151.29"/>
<polygon fill="midnightblue" stroke="midnightblue" points="1975.58,-154.52 1983.96,-148.04 1973.37,-147.87 1975.58,-154.52"/>
</g>
<!-- Node31 -->
<g id="node31" class="node">
<title>Node31</title>
<g id="a_node31"><a xlink:title=" ">
<polygon fill="none" stroke="#bfbfbf" points="2055,-129 2055,-148 2138,-148 2138,-129 2055,-129"/>
<text text-anchor="middle" x="2096.5" y="-136" font-family="Helvetica,sans-Serif" font-size="10.00">initializer_list</text>
</a>
</g>
</g>
<!-- Node11&#45;&gt;Node31 -->
<g id="edge41" class="edge">
<title>Node11&#45;&gt;Node31</title>
<path fill="none" stroke="midnightblue" d="M1294.63,-195.94C1304.15,-193.63 1314.69,-191.4 1324.5,-190 1642.57,-144.66 1729.63,-207.1 2046.5,-154 2051.37,-153.18 2056.44,-152.06 2061.4,-150.79"/>
<polygon fill="midnightblue" stroke="midnightblue" points="2062.63,-154.08 2071.33,-148.04 2060.76,-147.33 2062.63,-154.08"/>
</g>
<!-- Node11&#45;&gt;Node32 -->
<g id="edge42" class="edge">
<title>Node11&#45;&gt;Node32</title>
<path fill="none" stroke="midnightblue" d="M1211.82,-203.09C1126.07,-199.81 949.44,-189.02 804.5,-154 801.51,-153.28 798.43,-152.38 795.39,-151.39"/>
<polygon fill="midnightblue" stroke="midnightblue" points="796.51,-148.07 785.92,-148 794.16,-154.67 796.51,-148.07"/>
</g>
<!-- Node12&#45;&gt;Node5 -->
<g id="edge15" class="edge">
<title>Node12&#45;&gt;Node5</title>
<path fill="none" stroke="midnightblue" d="M2191.88,-128.96C2177.68,-126.66 2161.99,-124.42 2147.5,-123 2039.05,-112.41 1264.05,-137.51 1167.5,-87 1143.69,-74.54 1127.1,-47.16 1118.18,-28.89"/>
<polygon fill="midnightblue" stroke="midnightblue" points="1121.27,-27.23 1113.92,-19.6 1114.91,-30.15 1121.27,-27.23"/>
</g>
<!-- Node12&#45;&gt;Node13 -->
<g id="edge14" class="edge">
<title>Node12&#45;&gt;Node13</title>
<path fill="none" stroke="midnightblue" d="M2253.34,-128.73C2271.81,-117.82 2303.57,-99.05 2325.28,-86.22"/>
<polygon fill="midnightblue" stroke="midnightblue" points="2327.07,-89.23 2333.9,-81.13 2323.51,-83.2 2327.07,-89.23"/>
</g>
<!-- Node12&#45;&gt;Node14 -->
<g id="edge16" class="edge">
<title>Node12&#45;&gt;Node14</title>
<path fill="none" stroke="midnightblue" d="M2264.92,-128.99C2294.16,-119.42 2342.57,-103.09 2383.5,-87 2386.03,-86 2388.66,-84.93 2391.27,-83.83"/>
<polygon fill="midnightblue" stroke="midnightblue" points="2392.71,-87.02 2400.49,-79.84 2389.93,-80.6 2392.71,-87.02"/>
</g>
<!-- Node15 -->
<g id="node15" class="node">
<title>Node15</title>
<g id="a_node15"><a xlink:title=" ">
<polygon fill="none" stroke="#bfbfbf" points="2192,-62 2192,-81 2285,-81 2285,-62 2192,-62"/>
<text text-anchor="middle" x="2238.5" y="-69" font-family="Helvetica,sans-Serif" font-size="10.00">unordered_map</text>
</a>
</g>
</g>
<!-- Node12&#45;&gt;Node15 -->
<g id="edge17" class="edge">
<title>Node12&#45;&gt;Node15</title>
<path fill="none" stroke="midnightblue" d="M2238.5,-128.73C2238.5,-119.18 2238.5,-103.62 2238.5,-91.28"/>
<polygon fill="midnightblue" stroke="midnightblue" points="2242,-91.13 2238.5,-81.13 2235,-91.13 2242,-91.13"/>
</g>
<!-- Node16&#45;&gt;Node17 -->
<g id="edge19" class="edge">
<title>Node16&#45;&gt;Node17</title>
<path fill="none" stroke="midnightblue" d="M1392.77,-61.98C1386.83,-53.14 1377.38,-39.09 1369.91,-27.98"/>
<polygon fill="midnightblue" stroke="midnightblue" points="1372.7,-25.86 1364.22,-19.51 1366.89,-29.76 1372.7,-25.86"/>
</g>
<!-- Node18&#45;&gt;Node5 -->
<g id="edge28" class="edge">
<title>Node18&#45;&gt;Node5</title>
<path fill="none" stroke="midnightblue" d="M1110.5,-128.81C1110.5,-108.49 1110.5,-57.55 1110.5,-29.78"/>
<polygon fill="midnightblue" stroke="midnightblue" points="1114,-29.76 1110.5,-19.76 1107,-29.76 1114,-29.76"/>
</g>
<!-- Node18&#45;&gt;Node17 -->
<g id="edge30" class="edge">
<title>Node18&#45;&gt;Node17</title>
<path fill="none" stroke="midnightblue" d="M1153.72,-129.29C1201.76,-119.59 1275.73,-102.77 1299.5,-87 1321.84,-72.18 1339.36,-46.07 1349.32,-28.65"/>
<polygon fill="midnightblue" stroke="midnightblue" points="1352.57,-30 1354.29,-19.55 1346.43,-26.65 1352.57,-30"/>
</g>
<!-- Node19 -->
<g id="node19" class="node">
<title>Node19</title>
<g id="a_node19"><a xlink:href="get_8hpp.html" target="_top" xlink:title=" ">
<polygon fill="none" stroke="black" points="1005,-62 1005,-81 1082,-81 1082,-62 1005,-62"/>
<text text-anchor="middle" x="1043.5" y="-69" font-family="Helvetica,sans-Serif" font-size="10.00">utils/get.hpp</text>
</a>
</g>
</g>
<!-- Node18&#45;&gt;Node19 -->
<g id="edge21" class="edge">
<title>Node18&#45;&gt;Node19</title>
<path fill="none" stroke="midnightblue" d="M1101.46,-128.73C1090.82,-118.4 1072.92,-101.04 1059.82,-88.33"/>
<polygon fill="midnightblue" stroke="midnightblue" points="1062.01,-85.58 1052.39,-81.13 1057.13,-90.6 1062.01,-85.58"/>
</g>
<!-- Node18&#45;&gt;Node20 -->
<g id="edge29" class="edge">
<title>Node18&#45;&gt;Node20</title>
<path fill="none" stroke="midnightblue" d="M1084.07,-128.94C1053.97,-118.68 1007.42,-101.12 995.5,-87 981.96,-70.96 977.84,-46.62 976.7,-29.84"/>
<polygon fill="midnightblue" stroke="midnightblue" points="980.19,-29.47 976.31,-19.61 973.2,-29.74 980.19,-29.47"/>
</g>
<!-- Node18&#45;&gt;Node21 -->
<g id="edge24" class="edge">
<title>Node18&#45;&gt;Node21</title>
<path fill="none" stroke="midnightblue" d="M1126.83,-128.87C1147.6,-117.89 1183.69,-98.82 1208.07,-85.94"/>
<polygon fill="midnightblue" stroke="midnightblue" points="1209.89,-88.93 1217.1,-81.17 1206.62,-82.75 1209.89,-88.93"/>
</g>
<!-- Node18&#45;&gt;Node23 -->
<g id="edge31" class="edge">
<title>Node18&#45;&gt;Node23</title>
<path fill="none" stroke="midnightblue" d="M1070.31,-128.94C1009.25,-115.92 894.27,-91.42 838.08,-79.44"/>
<polygon fill="midnightblue" stroke="midnightblue" points="838.81,-76.02 828.3,-77.36 837.35,-82.87 838.81,-76.02"/>
</g>
<!-- Node19&#45;&gt;Node5 -->
<g id="edge22" class="edge">
<title>Node19&#45;&gt;Node5</title>
<path fill="none" stroke="midnightblue" d="M1053.1,-61.98C1063.55,-52.7 1080.47,-37.67 1093.24,-26.33"/>
<polygon fill="midnightblue" stroke="midnightblue" points="1095.77,-28.77 1100.92,-19.51 1091.12,-23.53 1095.77,-28.77"/>
</g>
<!-- Node19&#45;&gt;Node20 -->
<g id="edge23" class="edge">
<title>Node19&#45;&gt;Node20</title>
<path fill="none" stroke="midnightblue" d="M1033.9,-61.98C1023.45,-52.7 1006.53,-37.67 993.76,-26.33"/>
<polygon fill="midnightblue" stroke="midnightblue" points="995.88,-23.53 986.08,-19.51 991.23,-28.77 995.88,-23.53"/>
</g>
<!-- Node21&#45;&gt;Node5 -->
<g id="edge26" class="edge">
<title>Node21&#45;&gt;Node5</title>
<path fill="none" stroke="midnightblue" d="M1215.88,-61.98C1195.33,-52.03 1161.14,-35.49 1137.29,-23.96"/>
<polygon fill="midnightblue" stroke="midnightblue" points="1138.62,-20.71 1128.09,-19.51 1135.57,-27.01 1138.62,-20.71"/>
</g>
<!-- Node21&#45;&gt;Node17 -->
<g id="edge27" class="edge">
<title>Node21&#45;&gt;Node17</title>
<path fill="none" stroke="midnightblue" d="M1251.41,-61.98C1272.39,-51.99 1307.35,-35.35 1331.59,-23.81"/>
<polygon fill="midnightblue" stroke="midnightblue" points="1333.1,-26.97 1340.62,-19.51 1330.09,-20.65 1333.1,-26.97"/>
</g>
<!-- Node22 -->
<g id="node22" class="node">
<title>Node22</title>
<g id="a_node22"><a xlink:title=" ">
<polygon fill="none" stroke="#bfbfbf" points="1208.5,-0.5 1208.5,-19.5 1258.5,-19.5 1258.5,-0.5 1208.5,-0.5"/>
<text text-anchor="middle" x="1233.5" y="-7.5" font-family="Helvetica,sans-Serif" font-size="10.00">climits</text>
</a>
</g>
</g>
<!-- Node21&#45;&gt;Node22 -->
<g id="edge25" class="edge">
<title>Node21&#45;&gt;Node22</title>
<path fill="none" stroke="midnightblue" d="M1233.5,-61.98C1233.5,-53.58 1233.5,-40.48 1233.5,-29.66"/>
<polygon fill="midnightblue" stroke="midnightblue" points="1237,-29.51 1233.5,-19.51 1230,-29.51 1237,-29.51"/>
</g>
<!-- Node33&#45;&gt;Node2 -->
<g id="edge51" class="edge">
<title>Node33&#45;&gt;Node2</title>
<path fill="none" stroke="midnightblue" d="M391.96,-257.48C355.3,-248.8 297.3,-234.7 247.5,-221 243.93,-220.02 240.23,-218.96 236.53,-217.89"/>
<polygon fill="midnightblue" stroke="midnightblue" points="237.43,-214.5 226.85,-215.02 235.44,-221.21 237.43,-214.5"/>
</g>
<!-- Node33&#45;&gt;Node6 -->
<g id="edge62" class="edge">
<title>Node33&#45;&gt;Node6</title>
<path fill="none" stroke="midnightblue" d="M441.63,-257.31C474.08,-235.81 558.3,-180.03 598.09,-153.68"/>
<polygon fill="midnightblue" stroke="midnightblue" points="600.13,-156.53 606.53,-148.09 596.26,-150.69 600.13,-156.53"/>
</g>
<!-- Node33&#45;&gt;Node9 -->
<g id="edge61" class="edge">
<title>Node33&#45;&gt;Node9</title>
<path fill="none" stroke="midnightblue" d="M381.72,-257.46C344.38,-249.6 296.43,-236.77 284.5,-221 255.55,-182.71 266.58,-121.59 274.76,-91.09"/>
<polygon fill="midnightblue" stroke="midnightblue" points="278.17,-91.91 277.57,-81.33 271.44,-89.97 278.17,-91.91"/>
</g>
<!-- Node34 -->
<g id="node34" class="node">
<title>Node34</title>
<g id="a_node34"><a xlink:href="RuntimeError_8hpp.html" target="_top" xlink:title=" ">
<polygon fill="none" stroke="black" points="401.5,-129 401.5,-148 577.5,-148 577.5,-129 401.5,-129"/>
<text text-anchor="middle" x="489.5" y="-136" font-family="Helvetica,sans-Serif" font-size="10.00">error_handling/RuntimeError.hpp</text>
</a>
</g>
</g>
<!-- Node33&#45;&gt;Node34 -->
<g id="edge52" class="edge">
<title>Node33&#45;&gt;Node34</title>
<path fill="none" stroke="midnightblue" d="M434.82,-257.35C441.09,-248.51 450.72,-234.24 457.5,-221 468.19,-200.13 477.61,-174.83 483.41,-158.01"/>
<polygon fill="midnightblue" stroke="midnightblue" points="486.81,-158.91 486.68,-148.31 480.17,-156.67 486.81,-158.91"/>
</g>
<!-- Node37 -->
<g id="node37" class="node">
<title>Node37</title>
<g id="a_node37"><a xlink:href="RuntimeErrorStream_8hpp.html" target="_top" xlink:title=" ">
<polygon fill="none" stroke="black" points="294,-190.5 294,-220.5 449,-220.5 449,-190.5 294,-190.5"/>
<text text-anchor="start" x="302" y="-208.5" font-family="Helvetica,sans-Serif" font-size="10.00">error_handling/RuntimeError</text>
<text text-anchor="middle" x="371.5" y="-197.5" font-family="Helvetica,sans-Serif" font-size="10.00">Stream.hpp</text>
</a>
</g>
</g>
<!-- Node33&#45;&gt;Node37 -->
<g id="edge57" class="edge">
<title>Node33&#45;&gt;Node37</title>
<path fill="none" stroke="midnightblue" d="M420.33,-257.48C412.97,-249.79 401.84,-238.17 392.06,-227.96"/>
<polygon fill="midnightblue" stroke="midnightblue" points="394.38,-225.32 384.93,-220.52 389.32,-230.17 394.38,-225.32"/>
</g>
<!-- Node34&#45;&gt;Node9 -->
<g id="edge55" class="edge">
<title>Node34&#45;&gt;Node9</title>
<path fill="none" stroke="midnightblue" d="M461.75,-128.87C423.05,-116.83 353.07,-95.07 312.32,-82.39"/>
<polygon fill="midnightblue" stroke="midnightblue" points="313.21,-79.01 302.62,-79.38 311.13,-85.69 313.21,-79.01"/>
</g>
<!-- Node34&#45;&gt;Node23 -->
<g id="edge56" class="edge">
<title>Node34&#45;&gt;Node23</title>
<path fill="none" stroke="midnightblue" d="M531.14,-128.94C594.72,-115.86 714.72,-91.17 772.61,-79.26"/>
<polygon fill="midnightblue" stroke="midnightblue" points="773.58,-82.64 782.67,-77.2 772.17,-75.78 773.58,-82.64"/>
</g>
<!-- Node35 -->
<g id="node35" class="node">
<title>Node35</title>
<g id="a_node35"><a xlink:title=" ">
<polygon fill="none" stroke="#bfbfbf" points="376,-56.5 376,-86.5 483,-86.5 483,-56.5 376,-56.5"/>
<text text-anchor="start" x="384" y="-74.5" font-family="Helvetica,sans-Serif" font-size="10.00">boost/serialization</text>
<text text-anchor="middle" x="429.5" y="-63.5" font-family="Helvetica,sans-Serif" font-size="10.00">/access.hpp</text>
</a>
</g>
</g>
<!-- Node34&#45;&gt;Node35 -->
<g id="edge53" class="edge">
<title>Node34&#45;&gt;Node35</title>
<path fill="none" stroke="midnightblue" d="M481.41,-128.73C473.22,-119.86 460.25,-105.81 449.32,-93.97"/>
<polygon fill="midnightblue" stroke="midnightblue" points="451.86,-91.56 442.51,-86.59 446.72,-96.31 451.86,-91.56"/>
</g>
<!-- Node36 -->
<g id="node36" class="node">
<title>Node36</title>
<g id="a_node36"><a xlink:title=" ">
<polygon fill="none" stroke="#bfbfbf" points="501,-56.5 501,-86.5 608,-86.5 608,-56.5 501,-56.5"/>
<text text-anchor="start" x="509" y="-74.5" font-family="Helvetica,sans-Serif" font-size="10.00">boost/serialization</text>
<text text-anchor="middle" x="554.5" y="-63.5" font-family="Helvetica,sans-Serif" font-size="10.00">/string.hpp</text>
</a>
</g>
</g>
<!-- Node34&#45;&gt;Node36 -->
<g id="edge54" class="edge">
<title>Node34&#45;&gt;Node36</title>
<path fill="none" stroke="midnightblue" d="M498.27,-128.73C507.14,-119.86 521.19,-105.81 533.03,-93.97"/>
<polygon fill="midnightblue" stroke="midnightblue" points="535.81,-96.13 540.41,-86.59 530.87,-91.19 535.81,-96.13"/>
</g>
<!-- Node37&#45;&gt;Node9 -->
<g id="edge60" class="edge">
<title>Node37&#45;&gt;Node9</title>
<path fill="none" stroke="midnightblue" d="M353.63,-190.45C342.49,-181.02 328.44,-167.83 318.5,-154 304.17,-134.05 293.1,-107.84 286.7,-90.59"/>
<polygon fill="midnightblue" stroke="midnightblue" points="289.98,-89.39 283.32,-81.15 283.39,-91.75 289.98,-89.39"/>
</g>
<!-- Node37&#45;&gt;Node34 -->
<g id="edge58" class="edge">
<title>Node37&#45;&gt;Node34</title>
<path fill="none" stroke="midnightblue" d="M397.1,-190.4C417.35,-179.24 445.42,-163.78 465.29,-152.83"/>
<polygon fill="midnightblue" stroke="midnightblue" points="466.99,-155.9 474.06,-148.01 463.61,-149.77 466.99,-155.9"/>
</g>
<!-- Node38 -->
<g id="node38" class="node">
<title>Node38</title>
<g id="a_node38"><a xlink:title=" ">
<polygon fill="none" stroke="#bfbfbf" points="327.5,-129 327.5,-148 383.5,-148 383.5,-129 327.5,-129"/>
<text text-anchor="middle" x="355.5" y="-136" font-family="Helvetica,sans-Serif" font-size="10.00">sstream</text>
</a>
</g>
</g>
<!-- Node37&#45;&gt;Node38 -->
<g id="edge59" class="edge">
<title>Node37&#45;&gt;Node38</title>
<path fill="none" stroke="midnightblue" d="M368.03,-190.4C365.71,-180.96 362.63,-168.45 360.1,-158.19"/>
<polygon fill="midnightblue" stroke="midnightblue" points="363.43,-157.07 357.64,-148.19 356.63,-158.74 363.43,-157.07"/>
</g>
<!-- Node40 -->
<g id="node40" class="node">
<title>Node40</title>
<g id="a_node40"><a xlink:href="device__qualifier_8hpp.html" target="_top" xlink:title=" ">
<polygon fill="none" stroke="black" points="1898.5,-196 1898.5,-215 2014.5,-215 2014.5,-196 1898.5,-196"/>
<text text-anchor="middle" x="1956.5" y="-203" font-family="Helvetica,sans-Serif" font-size="10.00">device_qualifier.hpp</text>
</a>
</g>
</g>
<!-- Node39&#45;&gt;Node40 -->
<g id="edge64" class="edge">
<title>Node39&#45;&gt;Node40</title>
<path fill="none" stroke="midnightblue" d="M1241.08,-258.59C1245.95,-258.01 1250.81,-257.47 1255.5,-257 1486.93,-233.59 1762.42,-217.04 1888.01,-210.12"/>
<polygon fill="midnightblue" stroke="midnightblue" points="1888.45,-213.6 1898.24,-209.56 1888.06,-206.61 1888.45,-213.6"/>
</g>
<!-- Node41 -->
<g id="node41" class="node">
<title>Node41</title>
<g id="a_node41"><a xlink:title=" ">
<polygon fill="none" stroke="#bfbfbf" points="1333.5,-190.5 1333.5,-220.5 1455.5,-220.5 1455.5,-190.5 1333.5,-190.5"/>
<text text-anchor="start" x="1341.5" y="-208.5" font-family="Helvetica,sans-Serif" font-size="10.00">boost/math/constants</text>
<text text-anchor="middle" x="1394.5" y="-197.5" font-family="Helvetica,sans-Serif" font-size="10.00">/constants.hpp</text>
</a>
</g>
</g>
<!-- Node39&#45;&gt;Node41 -->
<g id="edge66" class="edge">
<title>Node39&#45;&gt;Node41</title>
<path fill="none" stroke="midnightblue" d="M1216.3,-257.48C1247.37,-248.59 1296.87,-234.43 1335.82,-223.29"/>
<polygon fill="midnightblue" stroke="midnightblue" points="1336.83,-226.64 1345.48,-220.52 1334.9,-219.91 1336.83,-226.64"/>
</g>
<!-- Node40&#45;&gt;Node13 -->
<g id="edge65" class="edge">
<title>Node40&#45;&gt;Node13</title>
<path fill="none" stroke="midnightblue" d="M2014.87,-201.45C2121.71,-195.26 2339.87,-179.62 2362.5,-154 2377.9,-136.57 2368.2,-108.56 2359,-90.35"/>
<polygon fill="midnightblue" stroke="midnightblue" points="2361.97,-88.47 2354.11,-81.36 2355.82,-91.82 2361.97,-88.47"/>
</g>
</g>
</svg>
