<?xml version="1.0" encoding="UTF-8" standalone="no"?>
<!DOCTYPE svg PUBLIC "-//W3C//DTD SVG 1.1//EN"
 "http://www.w3.org/Graphics/SVG/1.1/DTD/svg11.dtd">
<!-- Generated by graphviz version 2.43.0 (0)
 -->
<!-- Title: data_struct.hpp Pages: 1 -->
<!--zoomable 390 -->

<svg id="main" version="1.1" xmlns="http://www.w3.org/2000/svg" xmlns:xlink="http://www.w3.org/1999/xlink" xml:space="preserve" onload="init(evt)">
<style type="text/css"><![CDATA[
.node, .edge {opacity: 0.7;}
.node.selected, .edge.selected {opacity: 1;}
.edge:hover path { stroke: red; }
.edge:hover polygon { stroke: red; fill: red; }
]]></style>

<defs>
  <circle id="rim" cx="0" cy="0" r="7"/>
  <circle id="rim2" cx="0" cy="0" r="3.5"/>
  <g id="zoomPlus">
    <use xlink:href="#rim" fill="#404040"><set attributeName="fill" to="#808080" begin="zoomplus.mouseover" end="zoomplus.mouseout"/></use>
    <path d="M-4,0h8M0,-4v8" fill="none" stroke="white" stroke-width="1.5" pointer-events="none"/>
  </g>
  <g id="zoomMin">
    <use xlink:href="#rim" fill="#404040"><set attributeName="fill" to="#808080" begin="zoomminus.mouseover" end="zoomminus.mouseout"/></use>
    <path d="M-4,0h8" fill="none" stroke="white" stroke-width="1.5" pointer-events="none"/>
  </g>
  <g id="arrowUp" transform="translate(30 24)">
    <use xlink:href="#rim"/>
    <path pointer-events="none" fill="none" stroke="white" stroke-width="1.5" d="M0,-3.0v7 M-2.5,-0.5L0,-3.0L2.5,-0.5"/>
  </g>
  <g id="arrowRight" transform="rotate(90) translate(36 -43)">
    <use xlink:href="#rim"/>
    <path pointer-events="none" fill="none" stroke="white" stroke-width="1.5" d="M0,-3.0v7 M-2.5,-0.5L0,-3.0L2.5,-0.5"/>
  </g>
  <g id="arrowDown" transform="rotate(180) translate(-30 -48)">
    <use xlink:href="#rim"/>
    <path pointer-events="none" fill="none" stroke="white" stroke-width="1.5" d="M0,-3.0v7 M-2.5,-0.5L0,-3.0L2.5,-0.5"/>
  </g>
  <g id="arrowLeft" transform="rotate(270) translate(-36 17)">
    <use xlink:href="#rim"/>
    <path pointer-events="none" fill="none" stroke="white" stroke-width="1.5" d="M0,-3.0v7 M-2.5,-0.5L0,-3.0L2.5,-0.5"/>
  </g>
  <g id="resetDef">
    <use xlink:href="#rim2" fill="#404040"><set attributeName="fill" to="#808080" begin="reset.mouseover" end="reset.mouseout"/></use>
  </g>
</defs>
<script type="application/ecmascript">
var viewWidth = 1405;
var viewHeight = 390;
var sectionId = 'dynsection-0';
</script>
<script type="application/ecmascript" xlink:href="svg.min.js"/>
<svg id="graph" class="graph">
<g id="viewport">
<title>data_struct.hpp</title>
<!-- Node1 -->
<g id="Node000001" class="node">
<title>Node1</title>
<g id="a_Node000001"><a xlink:title=" ">
<polygon fill="#999999" stroke="#666666" points="1108.5,-382 1016.5,-382 1016.5,-363 1108.5,-363 1108.5,-382"/>
<text text-anchor="middle" x="1062.5" y="-370" font-family="Helvetica,sans-Serif" font-size="10.00">data_struct.hpp</text>
</a>
</g>
</g>
<!-- Node2 -->
<g id="Node000002" class="node">
<title>Node2</title>
<g id="a_Node000002"><a xlink:href="config_8hpp.html" target="_top" xlink:title="This file contains the defaults for ESPResSo.">
<polygon fill="white" stroke="#666666" points="143,-272 44,-272 44,-253 143,-253 143,-272"/>
<text text-anchor="middle" x="93.5" y="-260" font-family="Helvetica,sans-Serif" font-size="10.00">config/config.hpp</text>
</a>
</g>
</g>
<!-- Node1&#45;&gt;Node2 -->
<g id="edge1_Node000001_Node000002" class="edge">
<title>Node1&#45;&gt;Node2</title>
<g id="a_edge1_Node000001_Node000002"><a xlink:title=" ">
<path fill="none" stroke="#63b8ff" d="M1016.31,-366.79C883.01,-353.13 486.23,-311.9 157.5,-272 156.04,-271.82 154.56,-271.64 153.07,-271.46"/>
<polygon fill="#63b8ff" stroke="#63b8ff" points="153.46,-267.98 143.1,-270.2 152.58,-274.92 153.46,-267.98"/>
</a>
</g>
</g>
<!-- Node4 -->
<g id="Node000004" class="node">
<title>Node4</title>
<g id="a_Node000004"><a xlink:href="common_8hpp.html" target="_top" xlink:title="Common functions for dipolar and charge P3M.">
<polygon fill="white" stroke="#666666" points="960.5,-327 880.5,-327 880.5,-308 960.5,-308 960.5,-327"/>
<text text-anchor="middle" x="920.5" y="-315" font-family="Helvetica,sans-Serif" font-size="10.00">common.hpp</text>
</a>
</g>
</g>
<!-- Node1&#45;&gt;Node4 -->
<g id="edge3_Node000001_Node000004" class="edge">
<title>Node1&#45;&gt;Node4</title>
<g id="a_edge3_Node000001_Node000004"><a xlink:title=" ">
<path fill="none" stroke="#63b8ff" d="M1039.69,-362.98C1016.33,-354.27 979.8,-340.63 953.33,-330.75"/>
<polygon fill="#63b8ff" stroke="#63b8ff" points="954.32,-327.39 943.73,-327.17 951.87,-333.95 954.32,-327.39"/>
</a>
</g>
</g>
<!-- Node34 -->
<g id="Node000034" class="node">
<title>Node34</title>
<g id="a_Node000034"><a xlink:title=" ">
<polygon fill="#e0e0e0" stroke="#999999" points="1342,-151 1295,-151 1295,-132 1342,-132 1342,-151"/>
<text text-anchor="middle" x="1318.5" y="-139" font-family="Helvetica,sans-Serif" font-size="10.00">vector</text>
</a>
</g>
</g>
<!-- Node1&#45;&gt;Node34 -->
<g id="edge51_Node000001_Node000034" class="edge">
<title>Node1&#45;&gt;Node34</title>
<g id="a_edge51_Node000001_Node000034"><a xlink:title=" ">
<path fill="none" stroke="#63b8ff" d="M1108.91,-366.01C1163.95,-356.85 1253.95,-332.95 1299.5,-272 1324.02,-239.19 1323.43,-188.38 1320.93,-161.19"/>
<polygon fill="#63b8ff" stroke="#63b8ff" points="1324.4,-160.65 1319.82,-151.1 1317.44,-161.42 1324.4,-160.65"/>
</a>
</g>
</g>
<!-- Node35 -->
<g id="Node000035" class="node">
<title>Node35</title>
<g id="a_Node000035"><a xlink:title=" ">
<polygon fill="#e0e0e0" stroke="#999999" points="1290.5,-272 1248.5,-272 1248.5,-253 1290.5,-253 1290.5,-272"/>
<text text-anchor="middle" x="1269.5" y="-260" font-family="Helvetica,sans-Serif" font-size="10.00">array</text>
</a>
</g>
</g>
<!-- Node1&#45;&gt;Node35 -->
<g id="edge50_Node000001_Node000035" class="edge">
<title>Node1&#45;&gt;Node35</title>
<g id="a_edge50_Node000001_Node000035"><a xlink:title=" ">
<path fill="none" stroke="#63b8ff" d="M1079.09,-362.84C1115.21,-344 1201.18,-299.14 1244.15,-276.73"/>
<polygon fill="#63b8ff" stroke="#63b8ff" points="1245.87,-279.78 1253.12,-272.05 1242.63,-273.57 1245.87,-279.78"/>
</a>
</g>
</g>
<!-- Node3 -->
<g id="Node000003" class="node">
<title>Node3</title>
<g id="a_Node000003"><a xlink:title=" ">
<polygon fill="#e0e0e0" stroke="#999999" points="143,-211.5 0,-211.5 0,-192.5 143,-192.5 143,-211.5"/>
<text text-anchor="middle" x="71.5" y="-199.5" font-family="Helvetica,sans-Serif" font-size="10.00">config/config&#45;features.hpp</text>
</a>
</g>
</g>
<!-- Node2&#45;&gt;Node3 -->
<g id="edge2_Node000002_Node000003" class="edge">
<title>Node2&#45;&gt;Node3</title>
<g id="a_edge2_Node000002_Node000003"><a xlink:title=" ">
<path fill="none" stroke="#63b8ff" d="M90.25,-252.87C87.13,-244.57 82.32,-231.78 78.35,-221.22"/>
<polygon fill="#63b8ff" stroke="#63b8ff" points="81.56,-219.8 74.76,-211.67 75,-222.26 81.56,-219.8"/>
</a>
</g>
</g>
<!-- Node4&#45;&gt;Node2 -->
<g id="edge4_Node000004_Node000002" class="edge">
<title>Node4&#45;&gt;Node2</title>
<g id="a_edge4_Node000004_Node000002"><a xlink:title=" ">
<path fill="none" stroke="#63b8ff" d="M880.3,-315.2C766.62,-311.3 433.24,-298.32 157.5,-272 156.04,-271.86 154.55,-271.71 153.06,-271.56"/>
<polygon fill="#63b8ff" stroke="#63b8ff" points="153.4,-268.07 143.07,-270.45 152.63,-275.03 153.4,-268.07"/>
</a>
</g>
</g>
<!-- Node5 -->
<g id="Node000005" class="node">
<title>Node5</title>
<g id="a_Node000005"><a xlink:href="Vector_8hpp.html" target="_top" xlink:title="Vector implementation and trait types for boost qvm interoperability.">
<polygon fill="white" stroke="#666666" points="863.5,-211.5 771.5,-211.5 771.5,-192.5 863.5,-192.5 863.5,-211.5"/>
<text text-anchor="middle" x="817.5" y="-199.5" font-family="Helvetica,sans-Serif" font-size="10.00">utils/Vector.hpp</text>
</a>
</g>
</g>
<!-- Node4&#45;&gt;Node5 -->
<g id="edge5_Node000004_Node000005" class="edge">
<title>Node4&#45;&gt;Node5</title>
<g id="a_edge5_Node000004_Node000005"><a xlink:title=" ">
<path fill="none" stroke="#63b8ff" d="M909.63,-307.84C899.12,-299.24 883.01,-285.44 870.5,-272 855.14,-255.49 839.67,-234.77 829.44,-220.36"/>
<polygon fill="#63b8ff" stroke="#63b8ff" points="832.13,-218.1 823.53,-211.92 826.4,-222.12 832.13,-218.1"/>
</a>
</g>
</g>
<!-- Node12 -->
<g id="Node000012" class="node">
<title>Node12</title>
<g id="a_Node000012"><a xlink:title=" ">
<polygon fill="#e0e0e0" stroke="#999999" points="1397,-24.5 1344,-24.5 1344,-5.5 1397,-5.5 1397,-24.5"/>
<text text-anchor="middle" x="1370.5" y="-12.5" font-family="Helvetica,sans-Serif" font-size="10.00">cstddef</text>
</a>
</g>
</g>
<!-- Node4&#45;&gt;Node12 -->
<g id="edge48_Node000004_Node000012" class="edge">
<title>Node4&#45;&gt;Node12</title>
<g id="a_edge48_Node000004_Node000012"><a xlink:title=" ">
<path fill="none" stroke="#63b8ff" d="M960.51,-314.29C1047.4,-307.16 1253.34,-277.09 1350.5,-151 1376.81,-116.85 1375.83,-63.06 1373.05,-34.79"/>
<polygon fill="#63b8ff" stroke="#63b8ff" points="1376.51,-34.2 1371.87,-24.67 1369.56,-35.01 1376.51,-34.2"/>
</a>
</g>
</g>
<!-- Node26 -->
<g id="Node000026" class="node">
<title>Node26</title>
<g id="a_Node000026"><a xlink:title=" ">
<polygon fill="#e0e0e0" stroke="#999999" points="234,-90.5 169,-90.5 169,-71.5 234,-71.5 234,-90.5"/>
<text text-anchor="middle" x="201.5" y="-78.5" font-family="Helvetica,sans-Serif" font-size="10.00">stdexcept</text>
</a>
</g>
</g>
<!-- Node4&#45;&gt;Node26 -->
<g id="edge49_Node000004_Node000026" class="edge">
<title>Node4&#45;&gt;Node26</title>
<g id="a_edge49_Node000004_Node000026"><a xlink:title=" ">
<path fill="none" stroke="#63b8ff" d="M880.38,-309.63C831.62,-301.19 746.9,-286.23 674.5,-272 456.93,-229.23 323.4,-328.49 190.5,-151 179.51,-136.33 185.33,-114.93 191.94,-99.86"/>
<polygon fill="#63b8ff" stroke="#63b8ff" points="195.22,-101.13 196.45,-90.6 188.93,-98.06 195.22,-101.13"/>
</a>
</g>
</g>
<!-- Node27 -->
<g id="Node000027" class="node">
<title>Node27</title>
<g id="a_Node000027"><a xlink:title=" ">
<polygon fill="#e0e0e0" stroke="#999999" points="263.5,-151 199.5,-151 199.5,-132 263.5,-132 263.5,-151"/>
<text text-anchor="middle" x="231.5" y="-139" font-family="Helvetica,sans-Serif" font-size="10.00">algorithm</text>
</a>
</g>
</g>
<!-- Node4&#45;&gt;Node27 -->
<g id="edge41_Node000004_Node000027" class="edge">
<title>Node4&#45;&gt;Node27</title>
<g id="a_edge41_Node000004_Node000027"><a xlink:title=" ">
<path fill="none" stroke="#63b8ff" d="M886.8,-307.99C772.49,-279.12 399.6,-184.95 273.56,-153.12"/>
<polygon fill="#63b8ff" stroke="#63b8ff" points="274.08,-149.64 263.53,-150.59 272.37,-156.43 274.08,-149.64"/>
</a>
</g>
</g>
<!-- Node4&#45;&gt;Node34 -->
<g id="edge43_Node000004_Node000034" class="edge">
<title>Node4&#45;&gt;Node34</title>
<g id="a_edge43_Node000004_Node000034"><a xlink:title=" ">
<path fill="none" stroke="#63b8ff" d="M939.97,-307.99C1004.49,-279.78 1211.63,-189.22 1288.99,-155.4"/>
<polygon fill="#63b8ff" stroke="#63b8ff" points="1290.84,-158.41 1298.6,-151.2 1288.04,-152 1290.84,-158.41"/>
</a>
</g>
</g>
<!-- Node4&#45;&gt;Node35 -->
<g id="edge42_Node000004_Node000035" class="edge">
<title>Node4&#45;&gt;Node35</title>
<g id="a_edge42_Node000004_Node000035"><a xlink:title=" ">
<path fill="none" stroke="#63b8ff" d="M960.86,-312.06C1020.83,-305.17 1136.9,-290.72 1234.5,-272 1235.78,-271.75 1237.08,-271.49 1238.39,-271.22"/>
<polygon fill="#63b8ff" stroke="#63b8ff" points="1239.48,-274.56 1248.47,-268.96 1237.95,-267.73 1239.48,-274.56"/>
</a>
</g>
</g>
<!-- Node36 -->
<g id="Node000036" class="node">
<title>Node36</title>
<g id="a_Node000036"><a xlink:href="LocalBox_8hpp.html" target="_top" xlink:title=" ">
<polygon fill="white" stroke="#666666" points="961.5,-272 879.5,-272 879.5,-253 961.5,-253 961.5,-272"/>
<text text-anchor="middle" x="920.5" y="-260" font-family="Helvetica,sans-Serif" font-size="10.00">LocalBox.hpp</text>
</a>
</g>
</g>
<!-- Node4&#45;&gt;Node36 -->
<g id="edge44_Node000004_Node000036" class="edge">
<title>Node4&#45;&gt;Node36</title>
<g id="a_edge44_Node000004_Node000036"><a xlink:title=" ">
<path fill="none" stroke="#63b8ff" d="M920.5,-307.75C920.5,-300.8 920.5,-290.85 920.5,-282.13"/>
<polygon fill="#63b8ff" stroke="#63b8ff" points="924,-282.09 920.5,-272.09 917,-282.09 924,-282.09"/>
</a>
</g>
</g>
<!-- Node6 -->
<g id="Node000006" class="node">
<title>Node6</title>
<g id="a_Node000006"><a xlink:title=" ">
<polygon fill="#e0e0e0" stroke="#999999" points="885.5,-151 735.5,-151 735.5,-132 885.5,-132 885.5,-151"/>
<text text-anchor="middle" x="810.5" y="-139" font-family="Helvetica,sans-Serif" font-size="10.00">boost/qvm/deduce_vec.hpp</text>
</a>
</g>
</g>
<!-- Node5&#45;&gt;Node6 -->
<g id="edge6_Node000005_Node000006" class="edge">
<title>Node5&#45;&gt;Node6</title>
<g id="a_edge6_Node000005_Node000006"><a xlink:title=" ">
<path fill="none" stroke="#63b8ff" d="M816.47,-192.37C815.5,-184.25 814.01,-171.81 812.76,-161.39"/>
<polygon fill="#63b8ff" stroke="#63b8ff" points="816.2,-160.68 811.54,-151.17 809.25,-161.51 816.2,-160.68"/>
</a>
</g>
</g>
<!-- Node7 -->
<g id="Node000007" class="node">
<title>Node7</title>
<g id="a_Node000007"><a xlink:title=" ">
<polygon fill="#e0e0e0" stroke="#999999" points="679.5,-151 539.5,-151 539.5,-132 679.5,-132 679.5,-151"/>
<text text-anchor="middle" x="609.5" y="-139" font-family="Helvetica,sans-Serif" font-size="10.00">boost/qvm/vec_traits.hpp</text>
</a>
</g>
</g>
<!-- Node5&#45;&gt;Node7 -->
<g id="edge7_Node000005_Node000007" class="edge">
<title>Node5&#45;&gt;Node7</title>
<g id="a_edge7_Node000005_Node000007"><a xlink:title=" ">
<path fill="none" stroke="#63b8ff" d="M787.26,-192.49C750.9,-182.27 689.77,-165.08 649.53,-153.76"/>
<polygon fill="#63b8ff" stroke="#63b8ff" points="650.36,-150.35 639.78,-151.02 648.46,-157.09 650.36,-150.35"/>
</a>
</g>
</g>
<!-- Node8 -->
<g id="Node000008" class="node">
<title>Node8</title>
<g id="a_Node000008"><a xlink:href="Array_8hpp.html" target="_top" xlink:title="Array implementation with CUDA support.">
<polygon fill="white" stroke="#666666" points="1238.5,-151 1152.5,-151 1152.5,-132 1238.5,-132 1238.5,-151"/>
<text text-anchor="middle" x="1195.5" y="-139" font-family="Helvetica,sans-Serif" font-size="10.00">utils/Array.hpp</text>
</a>
</g>
</g>
<!-- Node5&#45;&gt;Node8 -->
<g id="edge8_Node000005_Node000008" class="edge">
<title>Node5&#45;&gt;Node8</title>
<g id="a_edge8_Node000005_Node000008"><a xlink:title=" ">
<path fill="none" stroke="#63b8ff" d="M863.69,-193.69C877.46,-191.53 892.59,-189.16 906.5,-187 1011.35,-170.76 1037.67,-167.4 1142.5,-151 1142.6,-150.98 1142.7,-150.97 1142.8,-150.95"/>
<polygon fill="#63b8ff" stroke="#63b8ff" points="1143.07,-154.45 1152.41,-149.44 1141.98,-147.54 1143.07,-154.45"/>
</a>
</g>
</g>
<!-- Node10 -->
<g id="Node000010" class="node">
<title>Node10</title>
<g id="a_Node000010"><a xlink:title=" ">
<polygon fill="#e0e0e0" stroke="#999999" points="178.5,-24.5 126.5,-24.5 126.5,-5.5 178.5,-5.5 178.5,-24.5"/>
<text text-anchor="middle" x="152.5" y="-12.5" font-family="Helvetica,sans-Serif" font-size="10.00">cassert</text>
</a>
</g>
</g>
<!-- Node5&#45;&gt;Node10 -->
<g id="edge31_Node000005_Node000010" class="edge">
<title>Node5&#45;&gt;Node10</title>
<g id="a_edge31_Node000005_Node000010"><a xlink:title=" ">
<path fill="none" stroke="#63b8ff" d="M771.19,-198.49C653.7,-191.82 350.49,-172.7 310.5,-151 267.98,-127.93 279.45,-97.23 242.5,-66 224.25,-50.58 200.51,-37.63 182,-28.77"/>
<polygon fill="#63b8ff" stroke="#63b8ff" points="183.4,-25.56 172.85,-24.52 180.45,-31.91 183.4,-25.56"/>
</a>
</g>
</g>
<!-- Node5&#45;&gt;Node12 -->
<g id="edge33_Node000005_Node000012" class="edge">
<title>Node5&#45;&gt;Node12</title>
<g id="a_edge33_Node000005_Node000012"><a xlink:title=" ">
<path fill="none" stroke="#63b8ff" d="M863.79,-195.66C974.67,-182.87 1246.41,-151.49 1247.5,-151 1302.24,-126.24 1343.34,-64.17 1360.99,-33.59"/>
<polygon fill="#63b8ff" stroke="#63b8ff" points="1364.05,-35.29 1365.89,-24.85 1357.95,-31.86 1364.05,-35.29"/>
</a>
</g>
</g>
<!-- Node24 -->
<g id="Node000024" class="node">
<title>Node24</title>
<g id="a_Node000024"><a xlink:title=" ">
<polygon fill="#e0e0e0" stroke="#999999" points="681,-90.5 628,-90.5 628,-71.5 681,-71.5 681,-90.5"/>
<text text-anchor="middle" x="654.5" y="-78.5" font-family="Helvetica,sans-Serif" font-size="10.00">iterator</text>
</a>
</g>
</g>
<!-- Node5&#45;&gt;Node24 -->
<g id="edge36_Node000005_Node000024" class="edge">
<title>Node5&#45;&gt;Node24</title>
<g id="a_edge36_Node000005_Node000024"><a xlink:title=" ">
<path fill="none" stroke="#63b8ff" d="M798.52,-192.38C779.48,-183.33 749.75,-168.07 726.5,-151 704.83,-135.09 682.97,-113.1 669.11,-98.26"/>
<polygon fill="#63b8ff" stroke="#63b8ff" points="671.63,-95.83 662.29,-90.83 666.47,-100.56 671.63,-95.83"/>
</a>
</g>
</g>
<!-- Node5&#45;&gt;Node27 -->
<g id="edge30_Node000005_Node000027" class="edge">
<title>Node5&#45;&gt;Node27</title>
<g id="a_edge30_Node000005_Node000027"><a xlink:title=" ">
<path fill="none" stroke="#63b8ff" d="M771.47,-198.15C678.04,-192.05 459.59,-176.2 277.5,-151 276.23,-150.82 274.95,-150.64 273.65,-150.44"/>
<polygon fill="#63b8ff" stroke="#63b8ff" points="274.04,-146.96 263.61,-148.82 272.92,-153.87 274.04,-146.96"/>
</a>
</g>
</g>
<!-- Node28 -->
<g id="Node000028" class="node">
<title>Node28</title>
<g id="a_Node000028"><a xlink:title=" ">
<polygon fill="#e0e0e0" stroke="#999999" points="950,-151 903,-151 903,-132 950,-132 950,-151"/>
<text text-anchor="middle" x="926.5" y="-139" font-family="Helvetica,sans-Serif" font-size="10.00">cmath</text>
</a>
</g>
</g>
<!-- Node5&#45;&gt;Node28 -->
<g id="edge32_Node000005_Node000028" class="edge">
<title>Node5&#45;&gt;Node28</title>
<g id="a_edge32_Node000005_Node000028"><a xlink:title=" ">
<path fill="none" stroke="#63b8ff" d="M833.58,-192.37C851.45,-182.78 880.54,-167.17 901.41,-155.97"/>
<polygon fill="#63b8ff" stroke="#63b8ff" points="903.19,-158.98 910.35,-151.17 899.88,-152.81 903.19,-158.98"/>
</a>
</g>
</g>
<!-- Node29 -->
<g id="Node000029" class="node">
<title>Node29</title>
<g id="a_Node000029"><a xlink:title=" ">
<polygon fill="#e0e0e0" stroke="#999999" points="1033,-151 968,-151 968,-132 1033,-132 1033,-151"/>
<text text-anchor="middle" x="1000.5" y="-139" font-family="Helvetica,sans-Serif" font-size="10.00">functional</text>
</a>
</g>
</g>
<!-- Node5&#45;&gt;Node29 -->
<g id="edge34_Node000005_Node000029" class="edge">
<title>Node5&#45;&gt;Node29</title>
<g id="a_edge34_Node000005_Node000029"><a xlink:title=" ">
<path fill="none" stroke="#63b8ff" d="M844.11,-192.49C875.69,-182.4 928.51,-165.51 963.92,-154.19"/>
<polygon fill="#63b8ff" stroke="#63b8ff" points="965.4,-157.4 973.86,-151.02 963.27,-150.73 965.4,-157.4"/>
</a>
</g>
</g>
<!-- Node30 -->
<g id="Node000030" class="node">
<title>Node30</title>
<g id="a_Node000030"><a xlink:title=" ">
<polygon fill="#e0e0e0" stroke="#999999" points="1134,-151 1051,-151 1051,-132 1134,-132 1134,-151"/>
<text text-anchor="middle" x="1092.5" y="-139" font-family="Helvetica,sans-Serif" font-size="10.00">initializer_list</text>
</a>
</g>
</g>
<!-- Node5&#45;&gt;Node30 -->
<g id="edge35_Node000005_Node000030" class="edge">
<title>Node5&#45;&gt;Node30</title>
<g id="a_edge35_Node000005_Node000030"><a xlink:title=" ">
<path fill="none" stroke="#63b8ff" d="M857.49,-192.49C906.47,-182.07 989.46,-164.42 1042.58,-153.12"/>
<polygon fill="#63b8ff" stroke="#63b8ff" points="1043.41,-156.52 1052.46,-151.02 1041.95,-149.67 1043.41,-156.52"/>
</a>
</g>
</g>
<!-- Node31 -->
<g id="Node000031" class="node">
<title>Node31</title>
<g id="a_Node000031"><a xlink:title=" ">
<polygon fill="#e0e0e0" stroke="#999999" points="375.5,-151 319.5,-151 319.5,-132 375.5,-132 375.5,-151"/>
<text text-anchor="middle" x="347.5" y="-139" font-family="Helvetica,sans-Serif" font-size="10.00">numeric</text>
</a>
</g>
</g>
<!-- Node5&#45;&gt;Node31 -->
<g id="edge37_Node000005_Node000031" class="edge">
<title>Node5&#45;&gt;Node31</title>
<g id="a_edge37_Node000005_Node000031"><a xlink:title=" ">
<path fill="none" stroke="#63b8ff" d="M771.44,-197.37C693.84,-190.89 532,-175.79 385.77,-151.04"/>
<polygon fill="#63b8ff" stroke="#63b8ff" points="386.16,-147.56 375.72,-149.32 384.98,-154.46 386.16,-147.56"/>
</a>
</g>
</g>
<!-- Node32 -->
<g id="Node000032" class="node">
<title>Node32</title>
<g id="a_Node000032"><a xlink:title=" ">
<polygon fill="#e0e0e0" stroke="#999999" points="433.5,-151 393.5,-151 393.5,-132 433.5,-132 433.5,-151"/>
<text text-anchor="middle" x="413.5" y="-139" font-family="Helvetica,sans-Serif" font-size="10.00">span</text>
</a>
</g>
</g>
<!-- Node5&#45;&gt;Node32 -->
<g id="edge38_Node000005_Node000032" class="edge">
<title>Node5&#45;&gt;Node32</title>
<g id="a_edge38_Node000005_Node000032"><a xlink:title=" ">
<path fill="none" stroke="#63b8ff" d="M771.22,-197.12C701.91,-190.81 566.96,-176.59 443.67,-150.95"/>
<polygon fill="#63b8ff" stroke="#63b8ff" points="444.19,-147.48 433.68,-148.84 442.74,-154.33 444.19,-147.48"/>
</a>
</g>
</g>
<!-- Node33 -->
<g id="Node000033" class="node">
<title>Node33</title>
<g id="a_Node000033"><a xlink:title=" ">
<polygon fill="#e0e0e0" stroke="#999999" points="521,-151 452,-151 452,-132 521,-132 521,-151"/>
<text text-anchor="middle" x="486.5" y="-139" font-family="Helvetica,sans-Serif" font-size="10.00">type_traits</text>
</a>
</g>
</g>
<!-- Node5&#45;&gt;Node33 -->
<g id="edge39_Node000005_Node000033" class="edge">
<title>Node5&#45;&gt;Node33</title>
<g id="a_edge39_Node000005_Node000033"><a xlink:title=" ">
<path fill="none" stroke="#63b8ff" d="M771.23,-193.21C716.46,-183.92 622.23,-167.77 531.03,-151.07"/>
<polygon fill="#63b8ff" stroke="#63b8ff" points="531.54,-147.6 521.08,-149.24 530.28,-154.49 531.54,-147.6"/>
</a>
</g>
</g>
<!-- Node5&#45;&gt;Node34 -->
<g id="edge40_Node000005_Node000034" class="edge">
<title>Node5&#45;&gt;Node34</title>
<g id="a_edge40_Node000005_Node000034"><a xlink:title=" ">
<path fill="none" stroke="#63b8ff" d="M863.55,-195.62C886.38,-192.97 914.39,-189.77 939.5,-187 1090.98,-170.31 1130.11,-175.67 1280.5,-151 1281.96,-150.76 1283.45,-150.5 1284.95,-150.22"/>
<polygon fill="#63b8ff" stroke="#63b8ff" points="1285.75,-153.63 1294.87,-148.23 1284.37,-146.77 1285.75,-153.63"/>
</a>
</g>
</g>
<!-- Node9 -->
<g id="Node000009" class="node">
<title>Node9</title>
<g id="a_Node000009"><a xlink:href="device__qualifier_8hpp.html" target="_top" xlink:title=" ">
<polygon fill="white" stroke="#666666" points="813.5,-90.5 699.5,-90.5 699.5,-71.5 813.5,-71.5 813.5,-90.5"/>
<text text-anchor="middle" x="756.5" y="-78.5" font-family="Helvetica,sans-Serif" font-size="10.00">device_qualifier.hpp</text>
</a>
</g>
</g>
<!-- Node8&#45;&gt;Node9 -->
<g id="edge9_Node000008_Node000009" class="edge">
<title>Node8&#45;&gt;Node9</title>
<g id="a_edge9_Node000008_Node000009"><a xlink:title=" ">
<path fill="none" stroke="#63b8ff" d="M1152.43,-133.42C1149.07,-132.92 1145.73,-132.44 1142.5,-132 1002.9,-112.84 966.74,-117.65 827.5,-96 820.83,-94.96 813.83,-93.74 806.93,-92.47"/>
<polygon fill="#63b8ff" stroke="#63b8ff" points="807.43,-89 796.95,-90.56 806.12,-95.87 807.43,-89"/>
</a>
</g>
</g>
<!-- Node8&#45;&gt;Node10 -->
<g id="edge25_Node000008_Node000010" class="edge">
<title>Node8&#45;&gt;Node10</title>
<g id="a_edge25_Node000008_Node000010"><a xlink:title=" ">
<path fill="none" stroke="#63b8ff" d="M1152.42,-133.47C1149.06,-132.96 1145.73,-132.46 1142.5,-132 1017.44,-113.99 976.99,-144.93 860.5,-96 840.66,-87.67 842.62,-73.63 822.5,-66 690.35,-15.89 325.48,-60.65 187.5,-30 185.13,-29.47 182.71,-28.8 180.3,-28.05"/>
<polygon fill="#63b8ff" stroke="#63b8ff" points="181.27,-24.67 170.67,-24.56 178.88,-31.26 181.27,-24.67"/>
</a>
</g>
</g>
<!-- Node11 -->
<g id="Node000011" class="node">
<title>Node11</title>
<g id="a_Node000011"><a xlink:href="get_8hpp.html" target="_top" xlink:title=" ">
<polygon fill="white" stroke="#666666" points="1266,-90.5 1213,-90.5 1213,-71.5 1266,-71.5 1266,-90.5"/>
<text text-anchor="middle" x="1239.5" y="-78.5" font-family="Helvetica,sans-Serif" font-size="10.00">get.hpp</text>
</a>
</g>
</g>
<!-- Node8&#45;&gt;Node11 -->
<g id="edge11_Node000008_Node000011" class="edge">
<title>Node8&#45;&gt;Node11</title>
<g id="a_edge11_Node000008_Node000011"><a xlink:title=" ">
<path fill="none" stroke="#63b8ff" d="M1201.99,-131.87C1208.49,-123.23 1218.66,-109.7 1226.78,-98.92"/>
<polygon fill="#63b8ff" stroke="#63b8ff" points="1229.77,-100.76 1232.98,-90.67 1224.17,-96.56 1229.77,-100.76"/>
</a>
</g>
</g>
<!-- Node8&#45;&gt;Node12 -->
<g id="edge26_Node000008_Node000012" class="edge">
<title>Node8&#45;&gt;Node12</title>
<g id="a_edge26_Node000008_Node000012"><a xlink:title=" ">
<path fill="none" stroke="#63b8ff" d="M1212.68,-131.98C1229.05,-123.59 1254.16,-110.03 1274.5,-96 1303.92,-75.7 1335.24,-48.39 1353.82,-31.51"/>
<polygon fill="#63b8ff" stroke="#63b8ff" points="1356.41,-33.88 1361.41,-24.54 1351.68,-28.72 1356.41,-33.88"/>
</a>
</g>
</g>
<!-- Node14 -->
<g id="Node000014" class="node">
<title>Node14</title>
<g id="a_Node000014"><a xlink:href="array_8hpp.html" target="_top" xlink:title=" ">
<polygon fill="white" stroke="#666666" points="995,-90.5 870,-90.5 870,-71.5 995,-71.5 995,-90.5"/>
<text text-anchor="middle" x="932.5" y="-78.5" font-family="Helvetica,sans-Serif" font-size="10.00">serialization/array.hpp</text>
</a>
</g>
</g>
<!-- Node8&#45;&gt;Node14 -->
<g id="edge14_Node000008_Node000014" class="edge">
<title>Node8&#45;&gt;Node14</title>
<g id="a_edge14_Node000008_Node000014"><a xlink:title=" ">
<path fill="none" stroke="#63b8ff" d="M1157.26,-131.99C1110.51,-121.6 1031.37,-103.99 980.56,-92.69"/>
<polygon fill="#63b8ff" stroke="#63b8ff" points="981.31,-89.27 970.79,-90.52 979.79,-96.1 981.31,-89.27"/>
</a>
</g>
</g>
<!-- Node23 -->
<g id="Node000023" class="node">
<title>Node23</title>
<g id="a_Node000023"><a xlink:title=" ">
<polygon fill="#e0e0e0" stroke="#999999" points="1120,-96 1013,-96 1013,-66 1120,-66 1120,-96"/>
<text text-anchor="start" x="1021" y="-84" font-family="Helvetica,sans-Serif" font-size="10.00">boost/serialization</text>
<text text-anchor="middle" x="1066.5" y="-73" font-family="Helvetica,sans-Serif" font-size="10.00">/access.hpp</text>
</a>
</g>
</g>
<!-- Node8&#45;&gt;Node23 -->
<g id="edge24_Node000008_Node000023" class="edge">
<title>Node8&#45;&gt;Node23</title>
<g id="a_edge24_Node000008_Node000023"><a xlink:title=" ">
<path fill="none" stroke="#63b8ff" d="M1176.74,-131.99C1158.56,-123.75 1130.4,-110.98 1107.08,-100.4"/>
<polygon fill="#63b8ff" stroke="#63b8ff" points="1108.32,-97.12 1097.76,-96.18 1105.43,-103.5 1108.32,-97.12"/>
</a>
</g>
</g>
<!-- Node8&#45;&gt;Node24 -->
<g id="edge27_Node000008_Node000024" class="edge">
<title>Node8&#45;&gt;Node24</title>
<g id="a_edge27_Node000008_Node000024"><a xlink:title=" ">
<path fill="none" stroke="#63b8ff" d="M1152.44,-133.3C1149.08,-132.83 1145.74,-132.39 1142.5,-132 942.41,-108.02 886.94,-141 690.5,-96 688.13,-95.46 685.71,-94.79 683.29,-94.04"/>
<polygon fill="#63b8ff" stroke="#63b8ff" points="684.2,-90.64 673.6,-90.62 681.87,-97.24 684.2,-90.64"/>
</a>
</g>
</g>
<!-- Node25 -->
<g id="Node000025" class="node">
<title>Node25</title>
<g id="a_Node000025"><a xlink:title=" ">
<polygon fill="#e0e0e0" stroke="#999999" points="1195,-90.5 1138,-90.5 1138,-71.5 1195,-71.5 1195,-90.5"/>
<text text-anchor="middle" x="1166.5" y="-78.5" font-family="Helvetica,sans-Serif" font-size="10.00">ostream</text>
</a>
</g>
</g>
<!-- Node8&#45;&gt;Node25 -->
<g id="edge28_Node000008_Node000025" class="edge">
<title>Node8&#45;&gt;Node25</title>
<g id="a_edge28_Node000008_Node000025"><a xlink:title=" ">
<path fill="none" stroke="#63b8ff" d="M1191.22,-131.87C1187.07,-123.49 1180.63,-110.51 1175.37,-99.89"/>
<polygon fill="#63b8ff" stroke="#63b8ff" points="1178.37,-98.07 1170.8,-90.67 1172.1,-101.18 1178.37,-98.07"/>
</a>
</g>
</g>
<!-- Node8&#45;&gt;Node26 -->
<g id="edge29_Node000008_Node000026" class="edge">
<title>Node8&#45;&gt;Node26</title>
<g id="a_edge29_Node000008_Node000026"><a xlink:title=" ">
<path fill="none" stroke="#63b8ff" d="M1152.45,-133.21C1149.09,-132.75 1145.74,-132.35 1142.5,-132 964.79,-113.08 405.03,-90.04 244.76,-83.69"/>
<polygon fill="#63b8ff" stroke="#63b8ff" points="244.49,-80.17 234.36,-83.28 244.21,-87.17 244.49,-80.17"/>
</a>
</g>
</g>
<!-- Node9&#45;&gt;Node10 -->
<g id="edge10_Node000009_Node000010" class="edge">
<title>Node9&#45;&gt;Node10</title>
<g id="a_edge10_Node000009_Node000010"><a xlink:title=" ">
<path fill="none" stroke="#63b8ff" d="M720.14,-71.48C710.25,-69.41 699.5,-67.4 689.5,-66 467.97,-35.05 405.49,-80.13 187.5,-30 185.13,-29.46 182.72,-28.77 180.31,-28.01"/>
<polygon fill="#63b8ff" stroke="#63b8ff" points="181.28,-24.64 170.68,-24.51 178.89,-31.21 181.28,-24.64"/>
</a>
</g>
</g>
<!-- Node11&#45;&gt;Node12 -->
<g id="edge12_Node000011_Node000012" class="edge">
<title>Node11&#45;&gt;Node12</title>
<g id="a_edge12_Node000011_Node000012"><a xlink:title=" ">
<path fill="none" stroke="#63b8ff" d="M1257.17,-71.37C1279.34,-60.54 1317.58,-41.85 1343.45,-29.22"/>
<polygon fill="#63b8ff" stroke="#63b8ff" points="1345.25,-32.23 1352.69,-24.7 1342.17,-25.94 1345.25,-32.23"/>
</a>
</g>
</g>
<!-- Node13 -->
<g id="Node000013" class="node">
<title>Node13</title>
<g id="a_Node000013"><a xlink:title=" ">
<polygon fill="#e0e0e0" stroke="#999999" points="1326,-24.5 1285,-24.5 1285,-5.5 1326,-5.5 1326,-24.5"/>
<text text-anchor="middle" x="1305.5" y="-12.5" font-family="Helvetica,sans-Serif" font-size="10.00">tuple</text>
</a>
</g>
</g>
<!-- Node11&#45;&gt;Node13 -->
<g id="edge13_Node000011_Node000013" class="edge">
<title>Node11&#45;&gt;Node13</title>
<g id="a_edge13_Node000011_Node000013"><a xlink:title=" ">
<path fill="none" stroke="#63b8ff" d="M1248.4,-71.37C1258.77,-61.31 1276.13,-44.48 1288.99,-32.01"/>
<polygon fill="#63b8ff" stroke="#63b8ff" points="1291.57,-34.38 1296.32,-24.91 1286.7,-29.35 1291.57,-34.38"/>
</a>
</g>
</g>
<!-- Node14&#45;&gt;Node12 -->
<g id="edge23_Node000014_Node000012" class="edge">
<title>Node14&#45;&gt;Node12</title>
<g id="a_edge23_Node000014_Node000012"><a xlink:title=" ">
<path fill="none" stroke="#63b8ff" d="M972.57,-71.47C982.64,-69.5 993.44,-67.54 1003.5,-66 1149.78,-43.67 1190.75,-65.12 1334.5,-30 1336.86,-29.42 1339.28,-28.73 1341.69,-27.96"/>
<polygon fill="#63b8ff" stroke="#63b8ff" points="1343.12,-31.16 1351.37,-24.51 1340.78,-24.57 1343.12,-31.16"/>
</a>
</g>
</g>
<!-- Node15 -->
<g id="Node000015" class="node">
<title>Node15</title>
<g id="a_Node000015"><a xlink:title=" ">
<polygon fill="#e0e0e0" stroke="#999999" points="330,-24.5 197,-24.5 197,-5.5 330,-5.5 330,-24.5"/>
<text text-anchor="middle" x="263.5" y="-12.5" font-family="Helvetica,sans-Serif" font-size="10.00">boost/mpl/bool_fwd.hpp</text>
</a>
</g>
</g>
<!-- Node14&#45;&gt;Node15 -->
<g id="edge15_Node000014_Node000015" class="edge">
<title>Node14&#45;&gt;Node15</title>
<g id="a_edge15_Node000014_Node000015"><a xlink:title=" ">
<path fill="none" stroke="#63b8ff" d="M890.27,-71.46C879.01,-69.42 866.82,-67.42 855.5,-66 627.4,-37.39 567.57,-58.87 339.5,-30 331.64,-29 323.36,-27.72 315.27,-26.34"/>
<polygon fill="#63b8ff" stroke="#63b8ff" points="315.64,-22.85 305.18,-24.55 314.42,-29.74 315.64,-22.85"/>
</a>
</g>
</g>
<!-- Node16 -->
<g id="Node000016" class="node">
<title>Node16</title>
<g id="a_Node000016"><a xlink:title=" ">
<polygon fill="#e0e0e0" stroke="#999999" points="472.5,-24.5 348.5,-24.5 348.5,-5.5 472.5,-5.5 472.5,-24.5"/>
<text text-anchor="middle" x="410.5" y="-12.5" font-family="Helvetica,sans-Serif" font-size="10.00">boost/mpl/greater.hpp</text>
</a>
</g>
</g>
<!-- Node14&#45;&gt;Node16 -->
<g id="edge16_Node000014_Node000016" class="edge">
<title>Node14&#45;&gt;Node16</title>
<g id="a_edge16_Node000014_Node000016"><a xlink:title=" ">
<path fill="none" stroke="#63b8ff" d="M889.03,-71.44C878.11,-69.47 866.4,-67.51 855.5,-66 690.09,-43.04 646.73,-54.18 481.5,-30 474.65,-29 467.46,-27.78 460.4,-26.48"/>
<polygon fill="#63b8ff" stroke="#63b8ff" points="460.66,-22.97 450.19,-24.54 459.36,-29.85 460.66,-22.97"/>
</a>
</g>
</g>
<!-- Node17 -->
<g id="Node000017" class="node">
<title>Node17</title>
<g id="a_Node000017"><a xlink:title=" ">
<polygon fill="#e0e0e0" stroke="#999999" points="592.5,-24.5 490.5,-24.5 490.5,-5.5 592.5,-5.5 592.5,-24.5"/>
<text text-anchor="middle" x="541.5" y="-12.5" font-family="Helvetica,sans-Serif" font-size="10.00">boost/mpl/int.hpp</text>
</a>
</g>
</g>
<!-- Node14&#45;&gt;Node17 -->
<g id="edge17_Node000014_Node000017" class="edge">
<title>Node14&#45;&gt;Node17</title>
<g id="a_edge17_Node000014_Node000017"><a xlink:title=" ">
<path fill="none" stroke="#63b8ff" d="M887.36,-71.49C876.91,-69.6 865.83,-67.67 855.5,-66 742.95,-47.8 713.57,-50.97 601.5,-30 596.37,-29.04 591.03,-27.94 585.72,-26.78"/>
<polygon fill="#63b8ff" stroke="#63b8ff" points="586.18,-23.3 575.66,-24.52 584.65,-30.13 586.18,-23.3"/>
</a>
</g>
</g>
<!-- Node18 -->
<g id="Node000018" class="node">
<title>Node18</title>
<g id="a_Node000018"><a xlink:title=" ">
<polygon fill="#e0e0e0" stroke="#999999" points="716.5,-30 610.5,-30 610.5,0 716.5,0 716.5,-30"/>
<text text-anchor="start" x="618.5" y="-18" font-family="Helvetica,sans-Serif" font-size="10.00">boost/mpl/integral</text>
<text text-anchor="middle" x="663.5" y="-7" font-family="Helvetica,sans-Serif" font-size="10.00">_c_tag.hpp</text>
</a>
</g>
</g>
<!-- Node14&#45;&gt;Node18 -->
<g id="edge18_Node000014_Node000018" class="edge">
<title>Node14&#45;&gt;Node18</title>
<g id="a_edge18_Node000014_Node000018"><a xlink:title=" ">
<path fill="none" stroke="#63b8ff" d="M896.5,-71.44C853.19,-61.13 779.72,-43.65 726.85,-31.07"/>
<polygon fill="#63b8ff" stroke="#63b8ff" points="727.44,-27.61 716.9,-28.71 725.82,-34.42 727.44,-27.61"/>
</a>
</g>
</g>
<!-- Node19 -->
<g id="Node000019" class="node">
<title>Node19</title>
<g id="a_Node000019"><a xlink:title=" ">
<polygon fill="#e0e0e0" stroke="#999999" points="886,-30 735,-30 735,0 886,0 886,-30"/>
<text text-anchor="start" x="743" y="-18" font-family="Helvetica,sans-Serif" font-size="10.00">boost/serialization</text>
<text text-anchor="middle" x="810.5" y="-7" font-family="Helvetica,sans-Serif" font-size="10.00">/is_bitwise_serializable.hpp</text>
</a>
</g>
</g>
<!-- Node14&#45;&gt;Node19 -->
<g id="edge19_Node000014_Node000019" class="edge">
<title>Node14&#45;&gt;Node19</title>
<g id="a_edge19_Node000014_Node000019"><a xlink:title=" ">
<path fill="none" stroke="#63b8ff" d="M916.05,-71.37C898.33,-62.07 869.58,-46.99 846.55,-34.91"/>
<polygon fill="#63b8ff" stroke="#63b8ff" points="847.89,-31.66 837.41,-30.12 844.64,-37.86 847.89,-31.66"/>
</a>
</g>
</g>
<!-- Node20 -->
<g id="Node000020" class="node">
<title>Node20</title>
<g id="a_Node000020"><a xlink:title=" ">
<polygon fill="#e0e0e0" stroke="#999999" points="1011,-30 904,-30 904,0 1011,0 1011,-30"/>
<text text-anchor="start" x="912" y="-18" font-family="Helvetica,sans-Serif" font-size="10.00">boost/serialization</text>
<text text-anchor="middle" x="957.5" y="-7" font-family="Helvetica,sans-Serif" font-size="10.00">/level.hpp</text>
</a>
</g>
</g>
<!-- Node14&#45;&gt;Node20 -->
<g id="edge20_Node000014_Node000020" class="edge">
<title>Node14&#45;&gt;Node20</title>
<g id="a_edge20_Node000014_Node000020"><a xlink:title=" ">
<path fill="none" stroke="#63b8ff" d="M935.87,-71.37C939.01,-63.32 943.85,-50.94 948.15,-39.93"/>
<polygon fill="#63b8ff" stroke="#63b8ff" points="951.51,-40.95 951.89,-30.36 944.99,-38.4 951.51,-40.95"/>
</a>
</g>
</g>
<!-- Node21 -->
<g id="Node000021" class="node">
<title>Node21</title>
<g id="a_Node000021"><a xlink:title=" ">
<polygon fill="#e0e0e0" stroke="#999999" points="1136,-30 1029,-30 1029,0 1136,0 1136,-30"/>
<text text-anchor="start" x="1037" y="-18" font-family="Helvetica,sans-Serif" font-size="10.00">boost/serialization</text>
<text text-anchor="middle" x="1082.5" y="-7" font-family="Helvetica,sans-Serif" font-size="10.00">/tracking.hpp</text>
</a>
</g>
</g>
<!-- Node14&#45;&gt;Node21 -->
<g id="edge21_Node000014_Node000021" class="edge">
<title>Node14&#45;&gt;Node21</title>
<g id="a_edge21_Node000014_Node000021"><a xlink:title=" ">
<path fill="none" stroke="#63b8ff" d="M952.73,-71.37C975,-61.87 1011.44,-46.32 1040.05,-34.11"/>
<polygon fill="#63b8ff" stroke="#63b8ff" points="1041.59,-37.26 1049.42,-30.12 1038.85,-30.82 1041.59,-37.26"/>
</a>
</g>
</g>
<!-- Node22 -->
<g id="Node000022" class="node">
<title>Node22</title>
<g id="a_Node000022"><a xlink:title=" ">
<polygon fill="#e0e0e0" stroke="#999999" points="1267,-30 1154,-30 1154,0 1267,0 1267,-30"/>
<text text-anchor="start" x="1162" y="-18" font-family="Helvetica,sans-Serif" font-size="10.00">boost/serialization</text>
<text text-anchor="middle" x="1210.5" y="-7" font-family="Helvetica,sans-Serif" font-size="10.00">/tracking_enum.hpp</text>
</a>
</g>
</g>
<!-- Node14&#45;&gt;Node22 -->
<g id="edge22_Node000014_Node000022" class="edge">
<title>Node14&#45;&gt;Node22</title>
<g id="a_edge22_Node000014_Node000022"><a xlink:title=" ">
<path fill="none" stroke="#63b8ff" d="M969.7,-71.44C1014.14,-61.21 1089.29,-43.91 1143.83,-31.35"/>
<polygon fill="#63b8ff" stroke="#63b8ff" points="1144.81,-34.71 1153.77,-29.06 1143.24,-27.89 1144.81,-34.71"/>
</a>
</g>
</g>
<!-- Node36&#45;&gt;Node5 -->
<g id="edge47_Node000036_Node000005" class="edge">
<title>Node36&#45;&gt;Node5</title>
<g id="a_edge47_Node000036_Node000005"><a xlink:title=" ">
<path fill="none" stroke="#63b8ff" d="M905.3,-252.87C888.49,-243.32 861.18,-227.81 841.48,-216.62"/>
<polygon fill="#63b8ff" stroke="#63b8ff" points="843.18,-213.56 832.76,-211.67 839.73,-219.65 843.18,-213.56"/>
</a>
</g>
</g>
<!-- Node36&#45;&gt;Node8 -->
<g id="edge46_Node000036_Node000008" class="edge">
<title>Node36&#45;&gt;Node8</title>
<g id="a_edge46_Node000036_Node000008"><a xlink:title=" ">
<path fill="none" stroke="#63b8ff" d="M919.93,-252.88C919.42,-237.26 920.79,-204.31 939.5,-187 941.37,-185.27 1067.88,-163.86 1142.33,-151.38"/>
<polygon fill="#63b8ff" stroke="#63b8ff" points="1143.19,-154.78 1152.47,-149.68 1142.03,-147.88 1143.19,-154.78"/>
</a>
</g>
</g>
<!-- Node37 -->
<g id="Node000037" class="node">
<title>Node37</title>
<g id="a_Node000037"><a xlink:href="CellStructureType_8hpp.html" target="_top" xlink:title=" ">
<polygon fill="white" stroke="#666666" points="1090,-217 949,-217 949,-187 1090,-187 1090,-217"/>
<text text-anchor="start" x="957" y="-205" font-family="Helvetica,sans-Serif" font-size="10.00">cell_system/CellStructure</text>
<text text-anchor="middle" x="1019.5" y="-194" font-family="Helvetica,sans-Serif" font-size="10.00">Type.hpp</text>
</a>
</g>
</g>
<!-- Node36&#45;&gt;Node37 -->
<g id="edge45_Node000036_Node000037" class="edge">
<title>Node36&#45;&gt;Node37</title>
<g id="a_edge45_Node000036_Node000037"><a xlink:title=" ">
<path fill="none" stroke="#63b8ff" d="M935.11,-252.87C948.67,-244.86 969.33,-232.65 986.81,-222.31"/>
<polygon fill="#63b8ff" stroke="#63b8ff" points="988.79,-225.22 995.61,-217.11 985.22,-219.19 988.79,-225.22"/>
</a>
</g>
</g>
</g>
</svg>

<g id="navigator" transform="translate(0 0)" fill="#404254">
  <rect fill="#f2f5e9" fill-opacity="0.5" stroke="#606060" stroke-width=".5" x="0" y="0" width="60" height="60"/>
  <use id="zoomplus" xlink:href="#zoomPlus" x="17" y="9" onmousedown="handleZoom(evt,'in')"/>
  <use id="zoomminus" xlink:href="#zoomMin" x="42" y="9" onmousedown="handleZoom(evt,'out')"/>
  <use id="reset" xlink:href="#resetDef" x="30" y="36" onmousedown="handleReset()"/>
   <use id="arrowup" xlink:href="#arrowUp" x="0" y="0" onmousedown="handlePan(0,-1)"/>
  <use id="arrowright" xlink:href="#arrowRight" x="0" y="0" onmousedown="handlePan(1,0)"/>
  <use id="arrowdown" xlink:href="#arrowDown" x="0" y="0" onmousedown="handlePan(0,1)"/>
  <use id="arrowleft" xlink:href="#arrowLeft" x="0" y="0" onmousedown="handlePan(-1,0)"/>
</g>
<svg viewBox="0 0 15 15" width="100%" height="30px" preserveAspectRatio="xMaxYMin meet">
 <g id="arrow_out" transform="scale(0.3 0.3)">
  <a xlink:href="data__struct_8hpp__incl_org.svg" target="_base">
   <rect id="button" ry="5" rx="5" y="6" x="6" height="38" width="38"
        fill="#f2f5e9" fill-opacity="0.5" stroke="#606060" stroke-width="1.0"/>
   <path id="arrow"
     d="M 11.500037,31.436501 C 11.940474,20.09759 22.043105,11.32322 32.158766,21.979434 L 37.068811,17.246167 C 37.068811,17.246167 37.088388,32 37.088388,32 L 22.160133,31.978069 C 22.160133,31.978069 26.997745,27.140456 26.997745,27.140456 C 18.528582,18.264221 13.291696,25.230495 11.500037,31.436501 z"
     style="fill:#404040;"/>
  </a>
 </g>
</svg>

<style type='text/css'>
<![CDATA[
[data-mouse-over-selected='false'] { opacity: 0.7; }
[data-mouse-over-selected='true']  { opacity: 1.0; }
]]>
</style>
<script type="application/ecmascript"><![CDATA[
document.addEventListener('DOMContentLoaded', (event) => {
  highlightEdges();
  highlightAdjacentNodes();
});
]]></script>
</svg>
