<?xml version="1.0" encoding="UTF-8" standalone="no"?>
<!DOCTYPE svg PUBLIC "-//W3C//DTD SVG 1.1//EN"
 "http://www.w3.org/Graphics/SVG/1.1/DTD/svg11.dtd">
<!-- Generated by graphviz version 2.43.0 (0)
 -->
<!-- Title: DiffusiveFluxKernel_double_precision.h Pages: 1 -->
<svg width="259pt" height="218pt"
 viewBox="0.00 0.00 258.50 218.00" xmlns="http://www.w3.org/2000/svg" xmlns:xlink="http://www.w3.org/1999/xlink">
<g id="graph0" class="graph" transform="scale(1 1) rotate(0) translate(4 214)">
<title>DiffusiveFluxKernel_double_precision.h</title>
<!-- Node1 -->
<g id="node1" class="node">
<title>Node1</title>
<g id="a_node1"><a xlink:title=" ">
<polygon fill="#bfbfbf" stroke="black" points="68.5,-179.5 68.5,-209.5 181.5,-209.5 181.5,-179.5 68.5,-179.5"/>
<text text-anchor="start" x="76.5" y="-197.5" font-family="Helvetica,sans-Serif" font-size="10.00">DiffusiveFluxKernel</text>
<text text-anchor="middle" x="125" y="-186.5" font-family="Helvetica,sans-Serif" font-size="10.00">_double_precision.h</text>
</a>
</g>
</g>
<!-- Node2 -->
<g id="node2" class="node">
<title>Node2</title>
<g id="a_node2"><a xlink:href="ek__kernels_8hpp.html" target="_top" xlink:title=" ">
<polygon fill="none" stroke="black" points="17,-118 17,-137 107,-137 107,-118 17,-118"/>
<text text-anchor="middle" x="62" y="-125" font-family="Helvetica,sans-Serif" font-size="10.00">ek_kernels.hpp</text>
</a>
</g>
</g>
<!-- Node1&#45;&gt;Node2 -->
<g id="edge1" class="edge">
<title>Node1&#45;&gt;Node2</title>
<path fill="none" stroke="midnightblue" d="M104.16,-172C92.66,-160.13 79.01,-146.05 70.43,-137.19"/>
<polygon fill="midnightblue" stroke="midnightblue" points="101.86,-174.65 111.33,-179.4 106.88,-169.78 101.86,-174.65"/>
</g>
<!-- Node5 -->
<g id="node5" class="node">
<title>Node5</title>
<g id="a_node5"><a xlink:href="DiffusiveFluxKernel__double__precision_8cpp.html" target="_top" xlink:title=" ">
<polygon fill="none" stroke="black" points="125.5,-112.5 125.5,-142.5 250.5,-142.5 250.5,-112.5 125.5,-112.5"/>
<text text-anchor="start" x="133.5" y="-130.5" font-family="Helvetica,sans-Serif" font-size="10.00">DiffusiveFluxKernel</text>
<text text-anchor="middle" x="188" y="-119.5" font-family="Helvetica,sans-Serif" font-size="10.00">_double_precision.cpp</text>
</a>
</g>
</g>
<!-- Node1&#45;&gt;Node5 -->
<g id="edge4" class="edge">
<title>Node1&#45;&gt;Node5</title>
<path fill="none" stroke="midnightblue" d="M145.81,-172.02C155.2,-162.34 166.02,-151.17 174.36,-142.58"/>
<polygon fill="midnightblue" stroke="midnightblue" points="143.12,-169.78 138.67,-179.4 148.14,-174.65 143.12,-169.78"/>
</g>
<!-- Node3 -->
<g id="node3" class="node">
<title>Node3</title>
<g id="a_node3"><a xlink:href="EKinWalberlaImpl_8hpp.html" target="_top" xlink:title=" ">
<polygon fill="none" stroke="black" points="0,-56.5 0,-75.5 124,-75.5 124,-56.5 0,-56.5"/>
<text text-anchor="middle" x="62" y="-63.5" font-family="Helvetica,sans-Serif" font-size="10.00">EKinWalberlaImpl.hpp</text>
</a>
</g>
</g>
<!-- Node2&#45;&gt;Node3 -->
<g id="edge2" class="edge">
<title>Node2&#45;&gt;Node3</title>
<path fill="none" stroke="midnightblue" d="M62,-107.82C62,-97 62,-83.9 62,-75.51"/>
<polygon fill="midnightblue" stroke="midnightblue" points="58.5,-107.98 62,-117.98 65.5,-107.98 58.5,-107.98"/>
</g>
<!-- Node4 -->
<g id="node4" class="node">
<title>Node4</title>
<g id="a_node4"><a xlink:href="ek__walberla__init_8cpp.html" target="_top" xlink:title=" ">
<polygon fill="none" stroke="black" points="3.5,-0.5 3.5,-19.5 120.5,-19.5 120.5,-0.5 3.5,-0.5"/>
<text text-anchor="middle" x="62" y="-7.5" font-family="Helvetica,sans-Serif" font-size="10.00">ek_walberla_init.cpp</text>
</a>
</g>
</g>
<!-- Node3&#45;&gt;Node4 -->
<g id="edge3" class="edge">
<title>Node3&#45;&gt;Node4</title>
<path fill="none" stroke="midnightblue" d="M62,-45.8C62,-36.91 62,-26.78 62,-19.75"/>
<polygon fill="midnightblue" stroke="midnightblue" points="58.5,-46.08 62,-56.08 65.5,-46.08 58.5,-46.08"/>
</g>
</g>
</svg>
