<?xml version="1.0" encoding="UTF-8" standalone="no"?>
<!DOCTYPE svg PUBLIC "-//W3C//DTD SVG 1.1//EN"
 "http://www.w3.org/Graphics/SVG/1.1/DTD/svg11.dtd">
<!-- Generated by graphviz version 2.43.0 (0)
 -->
<!-- Title: DiffusiveFluxKernel_double_precision.cpp Pages: 1 -->
<svg width="925pt" height="170pt"
 viewBox="0.00 0.00 924.50 170.00" xmlns="http://www.w3.org/2000/svg" xmlns:xlink="http://www.w3.org/1999/xlink">
<g id="graph0" class="graph" transform="scale(1 1) rotate(0) translate(4 166)">
<title>DiffusiveFluxKernel_double_precision.cpp</title>
<!-- Node1 -->
<g id="Node000001" class="node">
<title>Node1</title>
<g id="a_Node000001"><a xlink:title=" ">
<polygon fill="#999999" stroke="#666666" points="430,-162 305,-162 305,-132 430,-132 430,-162"/>
<text text-anchor="start" x="313" y="-150" font-family="Helvetica,sans-Serif" font-size="10.00">DiffusiveFluxKernel</text>
<text text-anchor="middle" x="367.5" y="-139" font-family="Helvetica,sans-Serif" font-size="10.00">_double_precision.cpp</text>
</a>
</g>
</g>
<!-- Node2 -->
<g id="Node000002" class="node">
<title>Node2</title>
<g id="a_Node000002"><a xlink:title=" ">
<polygon fill="#e0e0e0" stroke="#999999" points="297,-90.5 250,-90.5 250,-71.5 297,-71.5 297,-90.5"/>
<text text-anchor="middle" x="273.5" y="-78.5" font-family="Helvetica,sans-Serif" font-size="10.00">cmath</text>
</a>
</g>
</g>
<!-- Node1&#45;&gt;Node2 -->
<g id="edge1_Node000001_Node000002" class="edge">
<title>Node1&#45;&gt;Node2</title>
<g id="a_edge1_Node000001_Node000002"><a xlink:title=" ">
<path fill="none" stroke="#63b8ff" d="M346.64,-131.8C331.18,-121.27 310.18,-106.97 294.65,-96.4"/>
<polygon fill="#63b8ff" stroke="#63b8ff" points="296.45,-93.39 286.22,-90.66 292.51,-99.18 296.45,-93.39"/>
</a>
</g>
</g>
<!-- Node3 -->
<g id="Node000003" class="node">
<title>Node3</title>
<g id="a_Node000003"><a xlink:href="DiffusiveFluxKernel__double__precision_8h.html" target="_top" xlink:title=" ">
<polygon fill="white" stroke="#666666" points="467,-96 354,-96 354,-66 467,-66 467,-96"/>
<text text-anchor="start" x="362" y="-84" font-family="Helvetica,sans-Serif" font-size="10.00">DiffusiveFluxKernel</text>
<text text-anchor="middle" x="410.5" y="-73" font-family="Helvetica,sans-Serif" font-size="10.00">_double_precision.h</text>
</a>
</g>
</g>
<!-- Node1&#45;&gt;Node3 -->
<g id="edge2_Node000001_Node000003" class="edge">
<title>Node1&#45;&gt;Node3</title>
<g id="a_edge2_Node000001_Node000003"><a xlink:title=" ">
<path fill="none" stroke="#63b8ff" d="M377.04,-131.8C382.39,-123.84 389.18,-113.74 395.24,-104.71"/>
<polygon fill="#63b8ff" stroke="#63b8ff" points="398.31,-106.42 400.98,-96.16 392.5,-102.51 398.31,-106.42"/>
</a>
</g>
</g>
<!-- Node4 -->
<g id="Node000004" class="node">
<title>Node4</title>
<g id="a_Node000004"><a xlink:title=" ">
<polygon fill="#e0e0e0" stroke="#999999" points="101,-24.5 0,-24.5 0,-5.5 101,-5.5 101,-24.5"/>
<text text-anchor="middle" x="50.5" y="-12.5" font-family="Helvetica,sans-Serif" font-size="10.00">core/DataTypes.h</text>
</a>
</g>
</g>
<!-- Node1&#45;&gt;Node4 -->
<g id="edge10_Node000001_Node000004" class="edge">
<title>Node1&#45;&gt;Node4</title>
<g id="a_edge10_Node000001_Node000004"><a xlink:title=" ">
<path fill="none" stroke="#63b8ff" d="M360.87,-131.84C351.49,-113.49 332.56,-81.98 306.5,-66 230.62,-19.47 196.61,-48.28 109.5,-30 104.79,-29.01 99.88,-27.93 94.99,-26.82"/>
<polygon fill="#63b8ff" stroke="#63b8ff" points="95.59,-23.37 85.06,-24.52 94.01,-30.19 95.59,-23.37"/>
</a>
</g>
</g>
<!-- Node11 -->
<g id="Node000011" class="node">
<title>Node11</title>
<g id="a_Node000011"><a xlink:title=" ">
<polygon fill="#e0e0e0" stroke="#999999" points="570,-90.5 485,-90.5 485,-71.5 570,-71.5 570,-90.5"/>
<text text-anchor="middle" x="527.5" y="-78.5" font-family="Helvetica,sans-Serif" font-size="10.00">core/Macros.h</text>
</a>
</g>
</g>
<!-- Node1&#45;&gt;Node11 -->
<g id="edge11_Node000001_Node000011" class="edge">
<title>Node1&#45;&gt;Node11</title>
<g id="a_edge11_Node000001_Node000011"><a xlink:title=" ">
<path fill="none" stroke="#63b8ff" d="M402.61,-131.95C430.8,-120.68 469.97,-105.01 496.89,-94.25"/>
<polygon fill="#63b8ff" stroke="#63b8ff" points="498.22,-97.48 506.21,-90.52 495.62,-90.98 498.22,-97.48"/>
</a>
</g>
</g>
<!-- Node3&#45;&gt;Node4 -->
<g id="edge3_Node000003_Node000004" class="edge">
<title>Node3&#45;&gt;Node4</title>
<g id="a_edge3_Node000003_Node000004"><a xlink:title=" ">
<path fill="none" stroke="#63b8ff" d="M353.96,-68.64C349.07,-67.72 344.2,-66.83 339.5,-66 237.61,-47.99 211.02,-49.96 109.5,-30 104.53,-29.02 99.34,-27.92 94.19,-26.77"/>
<polygon fill="#63b8ff" stroke="#63b8ff" points="94.94,-23.35 84.41,-24.52 93.37,-30.17 94.94,-23.35"/>
</a>
</g>
</g>
<!-- Node5 -->
<g id="Node000005" class="node">
<title>Node5</title>
<g id="a_Node000005"><a xlink:title=" ">
<polygon fill="#e0e0e0" stroke="#999999" points="250,-30 119,-30 119,0 250,0 250,-30"/>
<text text-anchor="start" x="127" y="-18" font-family="Helvetica,sans-Serif" font-size="10.00">domain_decomposition</text>
<text text-anchor="middle" x="184.5" y="-7" font-family="Helvetica,sans-Serif" font-size="10.00">/BlockDataID.h</text>
</a>
</g>
</g>
<!-- Node3&#45;&gt;Node5 -->
<g id="edge4_Node000003_Node000005" class="edge">
<title>Node3&#45;&gt;Node5</title>
<g id="a_edge4_Node000003_Node000005"><a xlink:title=" ">
<path fill="none" stroke="#63b8ff" d="M360.9,-65.95C326.46,-56.2 280.4,-43.16 243.98,-32.84"/>
<polygon fill="#63b8ff" stroke="#63b8ff" points="244.56,-29.37 233.98,-30.01 242.65,-36.1 244.56,-29.37"/>
</a>
</g>
</g>
<!-- Node6 -->
<g id="Node000006" class="node">
<title>Node6</title>
<g id="a_Node000006"><a xlink:title=" ">
<polygon fill="#e0e0e0" stroke="#999999" points="399,-30 268,-30 268,0 399,0 399,-30"/>
<text text-anchor="start" x="276" y="-18" font-family="Helvetica,sans-Serif" font-size="10.00">domain_decomposition</text>
<text text-anchor="middle" x="333.5" y="-7" font-family="Helvetica,sans-Serif" font-size="10.00">/IBlock.h</text>
</a>
</g>
</g>
<!-- Node3&#45;&gt;Node6 -->
<g id="edge5_Node000003_Node000006" class="edge">
<title>Node3&#45;&gt;Node6</title>
<g id="a_edge5_Node000003_Node000006"><a xlink:title=" ">
<path fill="none" stroke="#63b8ff" d="M393.41,-65.8C383.14,-57.26 369.9,-46.25 358.47,-36.75"/>
<polygon fill="#63b8ff" stroke="#63b8ff" points="360.47,-33.86 350.54,-30.16 355.99,-39.25 360.47,-33.86"/>
</a>
</g>
</g>
<!-- Node7 -->
<g id="Node000007" class="node">
<title>Node7</title>
<g id="a_Node000007"><a xlink:title=" ">
<polygon fill="#e0e0e0" stroke="#999999" points="560,-30 417,-30 417,0 560,0 560,-30"/>
<text text-anchor="start" x="425" y="-18" font-family="Helvetica,sans-Serif" font-size="10.00">domain_decomposition</text>
<text text-anchor="middle" x="488.5" y="-7" font-family="Helvetica,sans-Serif" font-size="10.00">/StructuredBlockStorage.h</text>
</a>
</g>
</g>
<!-- Node3&#45;&gt;Node7 -->
<g id="edge6_Node000003_Node000007" class="edge">
<title>Node3&#45;&gt;Node7</title>
<g id="a_edge6_Node000003_Node000007"><a xlink:title=" ">
<path fill="none" stroke="#63b8ff" d="M427.81,-65.8C438.21,-57.26 451.63,-46.25 463.21,-36.75"/>
<polygon fill="#63b8ff" stroke="#63b8ff" points="465.73,-39.21 471.24,-30.16 461.29,-33.8 465.73,-39.21"/>
</a>
</g>
</g>
<!-- Node8 -->
<g id="Node000008" class="node">
<title>Node8</title>
<g id="a_Node000008"><a xlink:title=" ">
<polygon fill="#e0e0e0" stroke="#999999" points="706.5,-24.5 578.5,-24.5 578.5,-5.5 706.5,-5.5 706.5,-24.5"/>
<text text-anchor="middle" x="642.5" y="-12.5" font-family="Helvetica,sans-Serif" font-size="10.00">field/GhostLayerField.h</text>
</a>
</g>
</g>
<!-- Node3&#45;&gt;Node8 -->
<g id="edge7_Node000003_Node000008" class="edge">
<title>Node3&#45;&gt;Node8</title>
<g id="a_edge7_Node000003_Node000008"><a xlink:title=" ">
<path fill="none" stroke="#63b8ff" d="M461.41,-65.95C503.53,-54.34 562.58,-38.05 601.65,-27.27"/>
<polygon fill="#63b8ff" stroke="#63b8ff" points="602.92,-30.55 611.62,-24.52 601.05,-23.8 602.92,-30.55"/>
</a>
</g>
</g>
<!-- Node9 -->
<g id="Node000009" class="node">
<title>Node9</title>
<g id="a_Node000009"><a xlink:title=" ">
<polygon fill="#e0e0e0" stroke="#999999" points="866,-24.5 725,-24.5 725,-5.5 866,-5.5 866,-24.5"/>
<text text-anchor="middle" x="795.5" y="-12.5" font-family="Helvetica,sans-Serif" font-size="10.00">field/SwapableCompare.h</text>
</a>
</g>
</g>
<!-- Node3&#45;&gt;Node9 -->
<g id="edge8_Node000003_Node000009" class="edge">
<title>Node3&#45;&gt;Node9</title>
<g id="a_edge8_Node000003_Node000009"><a xlink:title=" ">
<path fill="none" stroke="#63b8ff" d="M467.34,-67.72C470.43,-67.12 473.5,-66.54 476.5,-66 582.2,-46.85 609.48,-47.26 715.5,-30 722.68,-28.83 730.21,-27.57 737.66,-26.29"/>
<polygon fill="#63b8ff" stroke="#63b8ff" points="738.47,-29.7 747.73,-24.55 737.28,-22.8 738.47,-29.7"/>
</a>
</g>
</g>
<!-- Node10 -->
<g id="Node000010" class="node">
<title>Node10</title>
<g id="a_Node000010"><a xlink:title=" ">
<polygon fill="#e0e0e0" stroke="#999999" points="916.5,-24.5 884.5,-24.5 884.5,-5.5 916.5,-5.5 916.5,-24.5"/>
<text text-anchor="middle" x="900.5" y="-12.5" font-family="Helvetica,sans-Serif" font-size="10.00">set</text>
</a>
</g>
</g>
<!-- Node3&#45;&gt;Node10 -->
<g id="edge9_Node000003_Node000010" class="edge">
<title>Node3&#45;&gt;Node10</title>
<g id="a_edge9_Node000003_Node000010"><a xlink:title=" ">
<path fill="none" stroke="#63b8ff" d="M467.3,-67.5C470.41,-66.96 473.49,-66.45 476.5,-66 652.57,-39.48 705.41,-82.66 875.5,-30 876.55,-29.68 877.6,-29.3 878.64,-28.9"/>
<polygon fill="#63b8ff" stroke="#63b8ff" points="880.25,-32 887.73,-24.5 877.21,-25.7 880.25,-32"/>
</a>
</g>
</g>
</g>
</svg>
