<?xml version="1.0" encoding="UTF-8" standalone="no"?>
<!DOCTYPE svg PUBLIC "-//W3C//DTD SVG 1.1//EN"
 "http://www.w3.org/Graphics/SVG/1.1/DTD/svg11.dtd">
<!-- Generated by graphviz version 2.43.0 (0)
 -->
<!-- Title: DiffusiveFluxKernelWithElectrostatic_single_precision_CUDA.h Pages: 1 -->
<svg width="310pt" height="104pt"
 viewBox="0.00 0.00 310.00 104.00" xmlns="http://www.w3.org/2000/svg" xmlns:xlink="http://www.w3.org/1999/xlink">
<g id="graph0" class="graph" transform="scale(1 1) rotate(0) translate(4 100)">
<title>DiffusiveFluxKernelWithElectrostatic_single_precision_CUDA.h</title>
<!-- Node1 -->
<g id="Node000001" class="node">
<title>Node1</title>
<g id="a_Node000001"><a xlink:title=" ">
<polygon fill="#999999" stroke="#666666" points="275,-96 80,-96 80,-66 275,-66 275,-96"/>
<text text-anchor="start" x="88" y="-84" font-family="Helvetica,sans-Serif" font-size="10.00">DiffusiveFluxKernelWithElectrostatic</text>
<text text-anchor="middle" x="177.5" y="-73" font-family="Helvetica,sans-Serif" font-size="10.00">_single_precision_CUDA.h</text>
</a>
</g>
</g>
<!-- Node2 -->
<g id="Node000002" class="node">
<title>Node2</title>
<g id="a_Node000002"><a xlink:href="DiffusiveFluxKernelWithElectrostatic__single__precision__CUDA_8cu.html" target="_top" xlink:title=" ">
<polygon fill="white" stroke="#666666" points="195,-30 0,-30 0,0 195,0 195,-30"/>
<text text-anchor="start" x="8" y="-18" font-family="Helvetica,sans-Serif" font-size="10.00">DiffusiveFluxKernelWithElectrostatic</text>
<text text-anchor="middle" x="97.5" y="-7" font-family="Helvetica,sans-Serif" font-size="10.00">_single_precision_CUDA.cu</text>
</a>
</g>
</g>
<!-- Node1&#45;&gt;Node2 -->
<g id="edge1_Node000001_Node000002" class="edge">
<title>Node1&#45;&gt;Node2</title>
<g id="a_edge1_Node000001_Node000002"><a xlink:title=" ">
<path fill="none" stroke="#63b8ff" d="M151.85,-59.48C139.89,-49.91 125.97,-38.77 115.2,-30.16"/>
<polygon fill="#63b8ff" stroke="#63b8ff" points="149.75,-62.28 159.75,-65.8 154.12,-56.82 149.75,-62.28"/>
</a>
</g>
</g>
<!-- Node3 -->
<g id="Node000003" class="node">
<title>Node3</title>
<g id="a_Node000003"><a xlink:href="ek__kernels_8cuh.html" target="_top" xlink:title=" ">
<polygon fill="white" stroke="#666666" points="302,-24.5 213,-24.5 213,-5.5 302,-5.5 302,-24.5"/>
<text text-anchor="middle" x="257.5" y="-12.5" font-family="Helvetica,sans-Serif" font-size="10.00">ek_kernels.cuh</text>
</a>
</g>
</g>
<!-- Node1&#45;&gt;Node3 -->
<g id="edge2_Node000001_Node000003" class="edge">
<title>Node1&#45;&gt;Node3</title>
<g id="a_edge2_Node000001_Node000003"><a xlink:title=" ">
<path fill="none" stroke="#63b8ff" d="M203.43,-59.26C217.98,-47.61 235.39,-33.69 246.44,-24.84"/>
<polygon fill="#63b8ff" stroke="#63b8ff" points="200.88,-56.82 195.25,-65.8 205.25,-62.28 200.88,-56.82"/>
</a>
</g>
</g>
</g>
</svg>
