<?xml version="1.0" encoding="UTF-8" standalone="no"?>
<!DOCTYPE svg PUBLIC "-//W3C//DTD SVG 1.1//EN"
 "http://www.w3.org/Graphics/SVG/1.1/DTD/svg11.dtd">
<!-- Generated by graphviz version 2.43.0 (0)
 -->
<!-- Title: DiffusiveFluxKernelWithElectrostaticThermalized_single_precision.cpp Pages: 1 -->
<!--zoomable 170 -->

<svg id="main" version="1.1" xmlns="http://www.w3.org/2000/svg" xmlns:xlink="http://www.w3.org/1999/xlink" xml:space="preserve" onload="init(evt)">
<style type="text/css"><![CDATA[
.node, .edge {opacity: 0.7;}
.node.selected, .edge.selected {opacity: 1;}
.edge:hover path { stroke: red; }
.edge:hover polygon { stroke: red; fill: red; }
]]></style>

<defs>
  <circle id="rim" cx="0" cy="0" r="7"/>
  <circle id="rim2" cx="0" cy="0" r="3.5"/>
  <g id="zoomPlus">
    <use xlink:href="#rim" fill="#404040"><set attributeName="fill" to="#808080" begin="zoomplus.mouseover" end="zoomplus.mouseout"/></use>
    <path d="M-4,0h8M0,-4v8" fill="none" stroke="white" stroke-width="1.5" pointer-events="none"/>
  </g>
  <g id="zoomMin">
    <use xlink:href="#rim" fill="#404040"><set attributeName="fill" to="#808080" begin="zoomminus.mouseover" end="zoomminus.mouseout"/></use>
    <path d="M-4,0h8" fill="none" stroke="white" stroke-width="1.5" pointer-events="none"/>
  </g>
  <g id="arrowUp" transform="translate(30 24)">
    <use xlink:href="#rim"/>
    <path pointer-events="none" fill="none" stroke="white" stroke-width="1.5" d="M0,-3.0v7 M-2.5,-0.5L0,-3.0L2.5,-0.5"/>
  </g>
  <g id="arrowRight" transform="rotate(90) translate(36 -43)">
    <use xlink:href="#rim"/>
    <path pointer-events="none" fill="none" stroke="white" stroke-width="1.5" d="M0,-3.0v7 M-2.5,-0.5L0,-3.0L2.5,-0.5"/>
  </g>
  <g id="arrowDown" transform="rotate(180) translate(-30 -48)">
    <use xlink:href="#rim"/>
    <path pointer-events="none" fill="none" stroke="white" stroke-width="1.5" d="M0,-3.0v7 M-2.5,-0.5L0,-3.0L2.5,-0.5"/>
  </g>
  <g id="arrowLeft" transform="rotate(270) translate(-36 17)">
    <use xlink:href="#rim"/>
    <path pointer-events="none" fill="none" stroke="white" stroke-width="1.5" d="M0,-3.0v7 M-2.5,-0.5L0,-3.0L2.5,-0.5"/>
  </g>
  <g id="resetDef">
    <use xlink:href="#rim2" fill="#404040"><set attributeName="fill" to="#808080" begin="reset.mouseover" end="reset.mouseout"/></use>
  </g>
</defs>
<script type="application/ecmascript">
var viewWidth = 1367;
var viewHeight = 170;
var sectionId = 'dynsection-0';
</script>
<script type="application/ecmascript" xlink:href="svg.min.js"/>
<svg id="graph" class="graph">
<g id="viewport">
<title>DiffusiveFluxKernelWithElectrostaticThermalized_single_precision.cpp</title>
<!-- Node1 -->
<g id="Node000001" class="node">
<title>Node1</title>
<g id="a_Node000001"><a xlink:title=" ">
<polygon fill="#999999" stroke="#666666" points="731,-162 536,-162 536,-132 731,-132 731,-162"/>
<text text-anchor="start" x="544" y="-150" font-family="Helvetica,sans-Serif" font-size="10.00">DiffusiveFluxKernelWithElectrostatic</text>
<text text-anchor="middle" x="633.5" y="-139" font-family="Helvetica,sans-Serif" font-size="10.00">Thermalized_single_precision.cpp</text>
</a>
</g>
</g>
<!-- Node2 -->
<g id="Node000002" class="node">
<title>Node2</title>
<g id="a_Node000002"><a xlink:title=" ">
<polygon fill="#e0e0e0" stroke="#999999" points="480,-90.5 433,-90.5 433,-71.5 480,-71.5 480,-90.5"/>
<text text-anchor="middle" x="456.5" y="-78.5" font-family="Helvetica,sans-Serif" font-size="10.00">cmath</text>
</a>
</g>
</g>
<!-- Node1&#45;&gt;Node2 -->
<g id="edge1_Node000001_Node000002" class="edge">
<title>Node1&#45;&gt;Node2</title>
<g id="a_edge1_Node000001_Node000002"><a xlink:title=" ">
<path fill="none" stroke="#63b8ff" d="M594.23,-131.96C566.37,-121.99 528.12,-108.24 494.5,-96 492.86,-95.4 491.19,-94.79 489.5,-94.18"/>
<polygon fill="#63b8ff" stroke="#63b8ff" points="490.39,-90.78 479.8,-90.62 487.98,-97.35 490.39,-90.78"/>
</a>
</g>
</g>
<!-- Node3 -->
<g id="Node000003" class="node">
<title>Node3</title>
<g id="a_Node000003"><a xlink:href="DiffusiveFluxKernelWithElectrostaticThermalized__single__precision_8h.html" target="_top" xlink:title=" ">
<polygon fill="white" stroke="#666666" points="731,-96 536,-96 536,-66 731,-66 731,-96"/>
<text text-anchor="start" x="544" y="-84" font-family="Helvetica,sans-Serif" font-size="10.00">DiffusiveFluxKernelWithElectrostatic</text>
<text text-anchor="middle" x="633.5" y="-73" font-family="Helvetica,sans-Serif" font-size="10.00">Thermalized_single_precision.h</text>
</a>
</g>
</g>
<!-- Node1&#45;&gt;Node3 -->
<g id="edge2_Node000001_Node000003" class="edge">
<title>Node1&#45;&gt;Node3</title>
<g id="a_edge2_Node000001_Node000003"><a xlink:title=" ">
<path fill="none" stroke="#63b8ff" d="M633.5,-131.8C633.5,-124.34 633.5,-114.99 633.5,-106.41"/>
<polygon fill="#63b8ff" stroke="#63b8ff" points="637,-106.16 633.5,-96.16 630,-106.16 637,-106.16"/>
</a>
</g>
</g>
<!-- Node4 -->
<g id="Node000004" class="node">
<title>Node4</title>
<g id="a_Node000004"><a xlink:title=" ">
<polygon fill="#e0e0e0" stroke="#999999" points="101,-24.5 0,-24.5 0,-5.5 101,-5.5 101,-24.5"/>
<text text-anchor="middle" x="50.5" y="-12.5" font-family="Helvetica,sans-Serif" font-size="10.00">core/DataTypes.h</text>
</a>
</g>
</g>
<!-- Node1&#45;&gt;Node4 -->
<g id="edge12_Node000001_Node000004" class="edge">
<title>Node1&#45;&gt;Node4</title>
<g id="a_edge12_Node000001_Node000004"><a xlink:title=" ">
<path fill="none" stroke="#63b8ff" d="M598.23,-131.97C576.84,-122.86 549.36,-110.1 526.5,-96 508.19,-84.7 508.47,-74.01 488.5,-66 331.46,-3 276.44,-57.6 109.5,-30 104.05,-29.1 98.35,-27.98 92.74,-26.77"/>
<polygon fill="#63b8ff" stroke="#63b8ff" points="93.32,-23.31 82.8,-24.51 91.78,-30.14 93.32,-23.31"/>
</a>
</g>
</g>
<!-- Node13 -->
<g id="Node000013" class="node">
<title>Node13</title>
<g id="a_Node000013"><a xlink:title=" ">
<polygon fill="#e0e0e0" stroke="#999999" points="834,-90.5 749,-90.5 749,-71.5 834,-71.5 834,-90.5"/>
<text text-anchor="middle" x="791.5" y="-78.5" font-family="Helvetica,sans-Serif" font-size="10.00">core/Macros.h</text>
</a>
</g>
</g>
<!-- Node1&#45;&gt;Node13 -->
<g id="edge13_Node000001_Node000013" class="edge">
<title>Node1&#45;&gt;Node13</title>
<g id="a_edge13_Node000001_Node000013"><a xlink:title=" ">
<path fill="none" stroke="#63b8ff" d="M668.17,-131.95C695.88,-120.73 734.35,-105.15 760.92,-94.39"/>
<polygon fill="#63b8ff" stroke="#63b8ff" points="762.52,-97.52 770.47,-90.52 759.89,-91.03 762.52,-97.52"/>
</a>
</g>
</g>
<!-- Node14 -->
<g id="Node000014" class="node">
<title>Node14</title>
<g id="a_Node000014"><a xlink:href="electrokinetics_2generated__kernels_2philox__rand_8h.html" target="_top" xlink:title="Philox counter&#45;based RNG from .">
<polygon fill="white" stroke="#666666" points="1298,-90.5 1215,-90.5 1215,-71.5 1298,-71.5 1298,-90.5"/>
<text text-anchor="middle" x="1256.5" y="-78.5" font-family="Helvetica,sans-Serif" font-size="10.00">philox_rand.h</text>
</a>
</g>
</g>
<!-- Node1&#45;&gt;Node14 -->
<g id="edge14_Node000001_Node000014" class="edge">
<title>Node1&#45;&gt;Node14</title>
<g id="a_edge14_Node000001_Node000014"><a xlink:title=" ">
<path fill="none" stroke="#63b8ff" d="M731.19,-135.96C864.94,-122.22 1100.33,-98.04 1204.45,-87.35"/>
<polygon fill="#63b8ff" stroke="#63b8ff" points="1205.12,-90.8 1214.71,-86.29 1204.4,-83.83 1205.12,-90.8"/>
</a>
</g>
</g>
<!-- Node3&#45;&gt;Node4 -->
<g id="edge3_Node000003_Node000004" class="edge">
<title>Node3&#45;&gt;Node4</title>
<g id="a_edge3_Node000003_Node000004"><a xlink:title=" ">
<path fill="none" stroke="#63b8ff" d="M535.77,-67.46C531.28,-66.95 526.85,-66.46 522.5,-66 339.29,-46.47 291.4,-59.35 109.5,-30 104.04,-29.12 98.34,-28.01 92.73,-26.81"/>
<polygon fill="#63b8ff" stroke="#63b8ff" points="93.31,-23.35 82.79,-24.56 91.77,-30.18 93.31,-23.35"/>
</a>
</g>
</g>
<!-- Node5 -->
<g id="Node000005" class="node">
<title>Node5</title>
<g id="a_Node000005"><a xlink:title=" ">
<polygon fill="#e0e0e0" stroke="#999999" points="246,-24.5 119,-24.5 119,-5.5 246,-5.5 246,-24.5"/>
<text text-anchor="middle" x="182.5" y="-12.5" font-family="Helvetica,sans-Serif" font-size="10.00">core/logging/Logging.h</text>
</a>
</g>
</g>
<!-- Node3&#45;&gt;Node5 -->
<g id="edge4_Node000003_Node000005" class="edge">
<title>Node3&#45;&gt;Node5</title>
<g id="a_edge4_Node000003_Node000005"><a xlink:title=" ">
<path fill="none" stroke="#63b8ff" d="M535.99,-67.45C432.97,-54.14 281.68,-34.43 254.5,-30 247.83,-28.91 240.83,-27.67 233.92,-26.39"/>
<polygon fill="#63b8ff" stroke="#63b8ff" points="234.4,-22.92 223.92,-24.5 233.1,-29.8 234.4,-22.92"/>
</a>
</g>
</g>
<!-- Node6 -->
<g id="Node000006" class="node">
<title>Node6</title>
<g id="a_Node000006"><a xlink:title=" ">
<polygon fill="#e0e0e0" stroke="#999999" points="395,-30 264,-30 264,0 395,0 395,-30"/>
<text text-anchor="start" x="272" y="-18" font-family="Helvetica,sans-Serif" font-size="10.00">domain_decomposition</text>
<text text-anchor="middle" x="329.5" y="-7" font-family="Helvetica,sans-Serif" font-size="10.00">/BlockDataID.h</text>
</a>
</g>
</g>
<!-- Node3&#45;&gt;Node6 -->
<g id="edge5_Node000003_Node000006" class="edge">
<title>Node3&#45;&gt;Node6</title>
<g id="a_edge5_Node000003_Node000006"><a xlink:title=" ">
<path fill="none" stroke="#63b8ff" d="M566.79,-65.95C519.04,-55.9 454.69,-42.36 405.05,-31.91"/>
<polygon fill="#63b8ff" stroke="#63b8ff" points="405.52,-28.43 395.01,-29.79 404.08,-35.28 405.52,-28.43"/>
</a>
</g>
</g>
<!-- Node7 -->
<g id="Node000007" class="node">
<title>Node7</title>
<g id="a_Node000007"><a xlink:title=" ">
<polygon fill="#e0e0e0" stroke="#999999" points="544,-30 413,-30 413,0 544,0 544,-30"/>
<text text-anchor="start" x="421" y="-18" font-family="Helvetica,sans-Serif" font-size="10.00">domain_decomposition</text>
<text text-anchor="middle" x="478.5" y="-7" font-family="Helvetica,sans-Serif" font-size="10.00">/IBlock.h</text>
</a>
</g>
</g>
<!-- Node3&#45;&gt;Node7 -->
<g id="edge6_Node000003_Node000007" class="edge">
<title>Node3&#45;&gt;Node7</title>
<g id="a_edge6_Node000003_Node000007"><a xlink:title=" ">
<path fill="none" stroke="#63b8ff" d="M599.48,-65.95C576.67,-56.53 546.42,-44.04 521.88,-33.91"/>
<polygon fill="#63b8ff" stroke="#63b8ff" points="523.01,-30.59 512.44,-30.01 520.34,-37.06 523.01,-30.59"/>
</a>
</g>
</g>
<!-- Node8 -->
<g id="Node000008" class="node">
<title>Node8</title>
<g id="a_Node000008"><a xlink:title=" ">
<polygon fill="#e0e0e0" stroke="#999999" points="705,-30 562,-30 562,0 705,0 705,-30"/>
<text text-anchor="start" x="570" y="-18" font-family="Helvetica,sans-Serif" font-size="10.00">domain_decomposition</text>
<text text-anchor="middle" x="633.5" y="-7" font-family="Helvetica,sans-Serif" font-size="10.00">/StructuredBlockStorage.h</text>
</a>
</g>
</g>
<!-- Node3&#45;&gt;Node8 -->
<g id="edge7_Node000003_Node000008" class="edge">
<title>Node3&#45;&gt;Node8</title>
<g id="a_edge7_Node000003_Node000008"><a xlink:title=" ">
<path fill="none" stroke="#63b8ff" d="M633.5,-65.8C633.5,-58.34 633.5,-48.99 633.5,-40.41"/>
<polygon fill="#63b8ff" stroke="#63b8ff" points="637,-40.16 633.5,-30.16 630,-40.16 637,-40.16"/>
</a>
</g>
</g>
<!-- Node9 -->
<g id="Node000009" class="node">
<title>Node9</title>
<g id="a_Node000009"><a xlink:title=" ">
<polygon fill="#e0e0e0" stroke="#999999" points="851.5,-24.5 723.5,-24.5 723.5,-5.5 851.5,-5.5 851.5,-24.5"/>
<text text-anchor="middle" x="787.5" y="-12.5" font-family="Helvetica,sans-Serif" font-size="10.00">field/GhostLayerField.h</text>
</a>
</g>
</g>
<!-- Node3&#45;&gt;Node9 -->
<g id="edge8_Node000003_Node000009" class="edge">
<title>Node3&#45;&gt;Node9</title>
<g id="a_edge8_Node000003_Node000009"><a xlink:title=" ">
<path fill="none" stroke="#63b8ff" d="M667.3,-65.95C694.3,-54.73 731.8,-39.15 757.69,-28.39"/>
<polygon fill="#63b8ff" stroke="#63b8ff" points="759.11,-31.59 767.01,-24.52 756.43,-25.12 759.11,-31.59"/>
</a>
</g>
</g>
<!-- Node10 -->
<g id="Node000010" class="node">
<title>Node10</title>
<g id="a_Node000010"><a xlink:title=" ">
<polygon fill="#e0e0e0" stroke="#999999" points="1011,-24.5 870,-24.5 870,-5.5 1011,-5.5 1011,-24.5"/>
<text text-anchor="middle" x="940.5" y="-12.5" font-family="Helvetica,sans-Serif" font-size="10.00">field/SwapableCompare.h</text>
</a>
</g>
</g>
<!-- Node3&#45;&gt;Node10 -->
<g id="edge9_Node000003_Node000010" class="edge">
<title>Node3&#45;&gt;Node10</title>
<g id="a_edge9_Node000003_Node000010"><a xlink:title=" ">
<path fill="none" stroke="#63b8ff" d="M700.87,-65.95C757.8,-54.09 838.08,-37.35 889.71,-26.59"/>
<polygon fill="#63b8ff" stroke="#63b8ff" points="890.57,-29.98 899.64,-24.52 889.14,-23.13 890.57,-29.98"/>
</a>
</g>
</g>
<!-- Node11 -->
<g id="Node000011" class="node">
<title>Node11</title>
<g id="a_Node000011"><a xlink:title=" ">
<polygon fill="#e0e0e0" stroke="#999999" points="1094,-24.5 1029,-24.5 1029,-5.5 1094,-5.5 1094,-24.5"/>
<text text-anchor="middle" x="1061.5" y="-12.5" font-family="Helvetica,sans-Serif" font-size="10.00">functional</text>
</a>
</g>
</g>
<!-- Node3&#45;&gt;Node11 -->
<g id="edge10_Node000003_Node000011" class="edge">
<title>Node3&#45;&gt;Node11</title>
<g id="a_edge10_Node000003_Node000011"><a xlink:title=" ">
<path fill="none" stroke="#63b8ff" d="M731.11,-67.1C733.94,-66.73 736.74,-66.36 739.5,-66 863.92,-49.79 897.19,-57.97 1019.5,-30 1022.55,-29.3 1025.69,-28.47 1028.82,-27.57"/>
<polygon fill="#63b8ff" stroke="#63b8ff" points="1030.11,-30.83 1038.62,-24.52 1028.03,-24.15 1030.11,-30.83"/>
</a>
</g>
</g>
<!-- Node12 -->
<g id="Node000012" class="node">
<title>Node12</title>
<g id="a_Node000012"><a xlink:title=" ">
<polygon fill="#e0e0e0" stroke="#999999" points="1205,-24.5 1112,-24.5 1112,-5.5 1205,-5.5 1205,-24.5"/>
<text text-anchor="middle" x="1158.5" y="-12.5" font-family="Helvetica,sans-Serif" font-size="10.00">unordered_map</text>
</a>
</g>
</g>
<!-- Node3&#45;&gt;Node12 -->
<g id="edge11_Node000003_Node000012" class="edge">
<title>Node3&#45;&gt;Node12</title>
<g id="a_edge11_Node000003_Node000012"><a xlink:title=" ">
<path fill="none" stroke="#63b8ff" d="M731.1,-66.99C733.93,-66.65 736.73,-66.32 739.5,-66 900.55,-47.38 942.77,-57.73 1102.5,-30 1107.55,-29.12 1112.83,-28.04 1118.03,-26.86"/>
<polygon fill="#63b8ff" stroke="#63b8ff" points="1118.95,-30.24 1127.86,-24.52 1117.32,-23.43 1118.95,-30.24"/>
</a>
</g>
</g>
<!-- Node15 -->
<g id="Node000015" class="node">
<title>Node15</title>
<g id="a_Node000015"><a xlink:href="electrokinetics_2generated__kernels_2myintrin_8h.html" target="_top" xlink:title="Philox counter&#45;based RNG utility functions.">
<polygon fill="white" stroke="#666666" points="1290,-24.5 1223,-24.5 1223,-5.5 1290,-5.5 1290,-24.5"/>
<text text-anchor="middle" x="1256.5" y="-12.5" font-family="Helvetica,sans-Serif" font-size="10.00">myintrin.h</text>
</a>
</g>
</g>
<!-- Node14&#45;&gt;Node15 -->
<g id="edge15_Node000014_Node000015" class="edge">
<title>Node14&#45;&gt;Node15</title>
<g id="a_edge15_Node000014_Node000015"><a xlink:title=" ">
<path fill="none" stroke="#63b8ff" d="M1256.5,-71.37C1256.5,-62.16 1256.5,-47.29 1256.5,-35.27"/>
<polygon fill="#63b8ff" stroke="#63b8ff" points="1260,-34.91 1256.5,-24.91 1253,-34.91 1260,-34.91"/>
</a>
</g>
</g>
<!-- Node16 -->
<g id="Node000016" class="node">
<title>Node16</title>
<g id="a_Node000016"><a xlink:title=" ">
<polygon fill="#e0e0e0" stroke="#999999" points="1358.5,-24.5 1308.5,-24.5 1308.5,-5.5 1358.5,-5.5 1358.5,-24.5"/>
<text text-anchor="middle" x="1333.5" y="-12.5" font-family="Helvetica,sans-Serif" font-size="10.00">cstdint</text>
</a>
</g>
</g>
<!-- Node14&#45;&gt;Node16 -->
<g id="edge16_Node000014_Node000016" class="edge">
<title>Node14&#45;&gt;Node16</title>
<g id="a_edge16_Node000014_Node000016"><a xlink:title=" ">
<path fill="none" stroke="#63b8ff" d="M1266.88,-71.37C1279.22,-61.12 1300.01,-43.84 1315.09,-31.31"/>
<polygon fill="#63b8ff" stroke="#63b8ff" points="1317.33,-33.99 1322.79,-24.91 1312.86,-28.61 1317.33,-33.99"/>
</a>
</g>
</g>
</g>
</svg>

<g id="navigator" transform="translate(0 0)" fill="#404254">
  <rect fill="#f2f5e9" fill-opacity="0.5" stroke="#606060" stroke-width=".5" x="0" y="0" width="60" height="60"/>
  <use id="zoomplus" xlink:href="#zoomPlus" x="17" y="9" onmousedown="handleZoom(evt,'in')"/>
  <use id="zoomminus" xlink:href="#zoomMin" x="42" y="9" onmousedown="handleZoom(evt,'out')"/>
  <use id="reset" xlink:href="#resetDef" x="30" y="36" onmousedown="handleReset()"/>
   <use id="arrowup" xlink:href="#arrowUp" x="0" y="0" onmousedown="handlePan(0,-1)"/>
  <use id="arrowright" xlink:href="#arrowRight" x="0" y="0" onmousedown="handlePan(1,0)"/>
  <use id="arrowdown" xlink:href="#arrowDown" x="0" y="0" onmousedown="handlePan(0,1)"/>
  <use id="arrowleft" xlink:href="#arrowLeft" x="0" y="0" onmousedown="handlePan(-1,0)"/>
</g>
<svg viewBox="0 0 15 15" width="100%" height="30px" preserveAspectRatio="xMaxYMin meet">
 <g id="arrow_out" transform="scale(0.3 0.3)">
  <a xlink:href="DiffusiveFluxKernelWithElectrostaticThermalized__single__precision_8cpp__incl_org.svg" target="_base">
   <rect id="button" ry="5" rx="5" y="6" x="6" height="38" width="38"
        fill="#f2f5e9" fill-opacity="0.5" stroke="#606060" stroke-width="1.0"/>
   <path id="arrow"
     d="M 11.500037,31.436501 C 11.940474,20.09759 22.043105,11.32322 32.158766,21.979434 L 37.068811,17.246167 C 37.068811,17.246167 37.088388,32 37.088388,32 L 22.160133,31.978069 C 22.160133,31.978069 26.997745,27.140456 26.997745,27.140456 C 18.528582,18.264221 13.291696,25.230495 11.500037,31.436501 z"
     style="fill:#404040;"/>
  </a>
 </g>
</svg>

<style type='text/css'>
<![CDATA[
[data-mouse-over-selected='false'] { opacity: 0.7; }
[data-mouse-over-selected='true']  { opacity: 1.0; }
]]>
</style>
<script type="application/ecmascript"><![CDATA[
document.addEventListener('DOMContentLoaded', (event) => {
  highlightEdges();
  highlightAdjacentNodes();
});
]]></script>
</svg>
