<?xml version="1.0" encoding="UTF-8" standalone="no"?>
<!DOCTYPE svg PUBLIC "-//W3C//DTD SVG 1.1//EN"
 "http://www.w3.org/Graphics/SVG/1.1/DTD/svg11.dtd">
<!-- Generated by graphviz version 2.43.0 (0)
 -->
<!-- Title: DiffusiveFluxKernelWithElectrostatic_double_precision.cpp Pages: 1 -->
<svg width="1213pt" height="170pt"
 viewBox="0.00 0.00 1213.00 170.00" xmlns="http://www.w3.org/2000/svg" xmlns:xlink="http://www.w3.org/1999/xlink">
<g id="graph0" class="graph" transform="scale(1 1) rotate(0) translate(4 166)">
<title>DiffusiveFluxKernelWithElectrostatic_double_precision.cpp</title>
<!-- Node1 -->
<g id="Node000001" class="node">
<title>Node1</title>
<g id="a_Node000001"><a xlink:title=" ">
<polygon fill="#999999" stroke="#666666" points="590,-162 395,-162 395,-132 590,-132 590,-162"/>
<text text-anchor="start" x="403" y="-150" font-family="Helvetica,sans-Serif" font-size="10.00">DiffusiveFluxKernelWithElectrostatic</text>
<text text-anchor="middle" x="492.5" y="-139" font-family="Helvetica,sans-Serif" font-size="10.00">_double_precision.cpp</text>
</a>
</g>
</g>
<!-- Node2 -->
<g id="Node000002" class="node">
<title>Node2</title>
<g id="a_Node000002"><a xlink:title=" ">
<polygon fill="#e0e0e0" stroke="#999999" points="402,-90.5 355,-90.5 355,-71.5 402,-71.5 402,-90.5"/>
<text text-anchor="middle" x="378.5" y="-78.5" font-family="Helvetica,sans-Serif" font-size="10.00">cmath</text>
</a>
</g>
</g>
<!-- Node1&#45;&gt;Node2 -->
<g id="edge1_Node000001_Node000002" class="edge">
<title>Node1&#45;&gt;Node2</title>
<g id="a_edge1_Node000001_Node000002"><a xlink:title=" ">
<path fill="none" stroke="#63b8ff" d="M467.48,-131.95C448.19,-121.13 421.68,-106.24 402.62,-95.54"/>
<polygon fill="#63b8ff" stroke="#63b8ff" points="404.1,-92.36 393.67,-90.52 400.68,-98.46 404.1,-92.36"/>
</a>
</g>
</g>
<!-- Node3 -->
<g id="Node000003" class="node">
<title>Node3</title>
<g id="a_Node000003"><a xlink:href="DiffusiveFluxKernelWithElectrostatic__double__precision_8h.html" target="_top" xlink:title=" ">
<polygon fill="white" stroke="#666666" points="653,-96 458,-96 458,-66 653,-66 653,-96"/>
<text text-anchor="start" x="466" y="-84" font-family="Helvetica,sans-Serif" font-size="10.00">DiffusiveFluxKernelWithElectrostatic</text>
<text text-anchor="middle" x="555.5" y="-73" font-family="Helvetica,sans-Serif" font-size="10.00">_double_precision.h</text>
</a>
</g>
</g>
<!-- Node1&#45;&gt;Node3 -->
<g id="edge2_Node000001_Node000003" class="edge">
<title>Node1&#45;&gt;Node3</title>
<g id="a_edge2_Node000001_Node000003"><a xlink:title=" ">
<path fill="none" stroke="#63b8ff" d="M506.48,-131.8C514.72,-123.43 525.3,-112.68 534.52,-103.31"/>
<polygon fill="#63b8ff" stroke="#63b8ff" points="537.04,-105.75 541.56,-96.16 532.05,-100.84 537.04,-105.75"/>
</a>
</g>
</g>
<!-- Node4 -->
<g id="Node000004" class="node">
<title>Node4</title>
<g id="a_Node000004"><a xlink:title=" ">
<polygon fill="#e0e0e0" stroke="#999999" points="101,-24.5 0,-24.5 0,-5.5 101,-5.5 101,-24.5"/>
<text text-anchor="middle" x="50.5" y="-12.5" font-family="Helvetica,sans-Serif" font-size="10.00">core/DataTypes.h</text>
</a>
</g>
</g>
<!-- Node1&#45;&gt;Node4 -->
<g id="edge12_Node000001_Node000004" class="edge">
<title>Node1&#45;&gt;Node4</title>
<g id="a_edge12_Node000001_Node000004"><a xlink:title=" ">
<path fill="none" stroke="#63b8ff" d="M480.17,-131.77C461.81,-110.95 427.7,-73.81 411.5,-66 289.72,-7.34 242.59,-53.64 109.5,-30 104.32,-29.08 98.92,-27.99 93.57,-26.82"/>
<polygon fill="#63b8ff" stroke="#63b8ff" points="93.97,-23.32 83.44,-24.52 92.41,-30.15 93.97,-23.32"/>
</a>
</g>
</g>
<!-- Node13 -->
<g id="Node000013" class="node">
<title>Node13</title>
<g id="a_Node000013"><a xlink:title=" ">
<polygon fill="#e0e0e0" stroke="#999999" points="756,-90.5 671,-90.5 671,-71.5 756,-71.5 756,-90.5"/>
<text text-anchor="middle" x="713.5" y="-78.5" font-family="Helvetica,sans-Serif" font-size="10.00">core/Macros.h</text>
</a>
</g>
</g>
<!-- Node1&#45;&gt;Node13 -->
<g id="edge13_Node000001_Node000013" class="edge">
<title>Node1&#45;&gt;Node13</title>
<g id="a_edge13_Node000001_Node000013"><a xlink:title=" ">
<path fill="none" stroke="#63b8ff" d="M541,-131.95C580.95,-120.38 636.89,-104.18 674.12,-93.41"/>
<polygon fill="#63b8ff" stroke="#63b8ff" points="675.46,-96.66 684.09,-90.52 673.51,-89.94 675.46,-96.66"/>
</a>
</g>
</g>
<!-- Node3&#45;&gt;Node4 -->
<g id="edge3_Node000003_Node000004" class="edge">
<title>Node3&#45;&gt;Node4</title>
<g id="a_edge3_Node000003_Node000004"><a xlink:title=" ">
<path fill="none" stroke="#63b8ff" d="M457.76,-67.57C453.28,-67.03 448.84,-66.51 444.5,-66 295.76,-48.63 257.09,-55.34 109.5,-30 104.12,-29.08 98.49,-27.95 92.95,-26.75"/>
<polygon fill="#63b8ff" stroke="#63b8ff" points="93.64,-23.32 83.12,-24.51 92.09,-30.14 93.64,-23.32"/>
</a>
</g>
</g>
<!-- Node5 -->
<g id="Node000005" class="node">
<title>Node5</title>
<g id="a_Node000005"><a xlink:title=" ">
<polygon fill="#e0e0e0" stroke="#999999" points="246,-24.5 119,-24.5 119,-5.5 246,-5.5 246,-24.5"/>
<text text-anchor="middle" x="182.5" y="-12.5" font-family="Helvetica,sans-Serif" font-size="10.00">core/logging/Logging.h</text>
</a>
</g>
</g>
<!-- Node3&#45;&gt;Node5 -->
<g id="edge4_Node000003_Node000005" class="edge">
<title>Node3&#45;&gt;Node5</title>
<g id="a_edge4_Node000003_Node000005"><a xlink:title=" ">
<path fill="none" stroke="#63b8ff" d="M467.78,-65.96C407.91,-56.23 326.83,-42.78 255.5,-30 249.25,-28.88 242.7,-27.67 236.21,-26.45"/>
<polygon fill="#63b8ff" stroke="#63b8ff" points="236.56,-22.96 226.09,-24.54 235.26,-29.84 236.56,-22.96"/>
</a>
</g>
</g>
<!-- Node6 -->
<g id="Node000006" class="node">
<title>Node6</title>
<g id="a_Node000006"><a xlink:title=" ">
<polygon fill="#e0e0e0" stroke="#999999" points="395,-30 264,-30 264,0 395,0 395,-30"/>
<text text-anchor="start" x="272" y="-18" font-family="Helvetica,sans-Serif" font-size="10.00">domain_decomposition</text>
<text text-anchor="middle" x="329.5" y="-7" font-family="Helvetica,sans-Serif" font-size="10.00">/BlockDataID.h</text>
</a>
</g>
</g>
<!-- Node3&#45;&gt;Node6 -->
<g id="edge5_Node000003_Node000006" class="edge">
<title>Node3&#45;&gt;Node6</title>
<g id="a_edge5_Node000003_Node000006"><a xlink:title=" ">
<path fill="none" stroke="#63b8ff" d="M505.9,-65.95C471.46,-56.2 425.4,-43.16 388.98,-32.84"/>
<polygon fill="#63b8ff" stroke="#63b8ff" points="389.56,-29.37 378.98,-30.01 387.65,-36.1 389.56,-29.37"/>
</a>
</g>
</g>
<!-- Node7 -->
<g id="Node000007" class="node">
<title>Node7</title>
<g id="a_Node000007"><a xlink:title=" ">
<polygon fill="#e0e0e0" stroke="#999999" points="544,-30 413,-30 413,0 544,0 544,-30"/>
<text text-anchor="start" x="421" y="-18" font-family="Helvetica,sans-Serif" font-size="10.00">domain_decomposition</text>
<text text-anchor="middle" x="478.5" y="-7" font-family="Helvetica,sans-Serif" font-size="10.00">/IBlock.h</text>
</a>
</g>
</g>
<!-- Node3&#45;&gt;Node7 -->
<g id="edge6_Node000003_Node000007" class="edge">
<title>Node3&#45;&gt;Node7</title>
<g id="a_edge6_Node000003_Node000007"><a xlink:title=" ">
<path fill="none" stroke="#63b8ff" d="M538.41,-65.8C528.14,-57.26 514.9,-46.25 503.47,-36.75"/>
<polygon fill="#63b8ff" stroke="#63b8ff" points="505.47,-33.86 495.54,-30.16 500.99,-39.25 505.47,-33.86"/>
</a>
</g>
</g>
<!-- Node8 -->
<g id="Node000008" class="node">
<title>Node8</title>
<g id="a_Node000008"><a xlink:title=" ">
<polygon fill="#e0e0e0" stroke="#999999" points="705,-30 562,-30 562,0 705,0 705,-30"/>
<text text-anchor="start" x="570" y="-18" font-family="Helvetica,sans-Serif" font-size="10.00">domain_decomposition</text>
<text text-anchor="middle" x="633.5" y="-7" font-family="Helvetica,sans-Serif" font-size="10.00">/StructuredBlockStorage.h</text>
</a>
</g>
</g>
<!-- Node3&#45;&gt;Node8 -->
<g id="edge7_Node000003_Node000008" class="edge">
<title>Node3&#45;&gt;Node8</title>
<g id="a_edge7_Node000003_Node000008"><a xlink:title=" ">
<path fill="none" stroke="#63b8ff" d="M572.81,-65.8C583.21,-57.26 596.63,-46.25 608.21,-36.75"/>
<polygon fill="#63b8ff" stroke="#63b8ff" points="610.73,-39.21 616.24,-30.16 606.29,-33.8 610.73,-39.21"/>
</a>
</g>
</g>
<!-- Node9 -->
<g id="Node000009" class="node">
<title>Node9</title>
<g id="a_Node000009"><a xlink:title=" ">
<polygon fill="#e0e0e0" stroke="#999999" points="851.5,-24.5 723.5,-24.5 723.5,-5.5 851.5,-5.5 851.5,-24.5"/>
<text text-anchor="middle" x="787.5" y="-12.5" font-family="Helvetica,sans-Serif" font-size="10.00">field/GhostLayerField.h</text>
</a>
</g>
</g>
<!-- Node3&#45;&gt;Node9 -->
<g id="edge8_Node000003_Node000009" class="edge">
<title>Node3&#45;&gt;Node9</title>
<g id="a_edge8_Node000003_Node000009"><a xlink:title=" ">
<path fill="none" stroke="#63b8ff" d="M606.41,-65.95C648.53,-54.34 707.58,-38.05 746.65,-27.27"/>
<polygon fill="#63b8ff" stroke="#63b8ff" points="747.92,-30.55 756.62,-24.52 746.05,-23.8 747.92,-30.55"/>
</a>
</g>
</g>
<!-- Node10 -->
<g id="Node000010" class="node">
<title>Node10</title>
<g id="a_Node000010"><a xlink:title=" ">
<polygon fill="#e0e0e0" stroke="#999999" points="1011,-24.5 870,-24.5 870,-5.5 1011,-5.5 1011,-24.5"/>
<text text-anchor="middle" x="940.5" y="-12.5" font-family="Helvetica,sans-Serif" font-size="10.00">field/SwapableCompare.h</text>
</a>
</g>
</g>
<!-- Node3&#45;&gt;Node10 -->
<g id="edge9_Node000003_Node000010" class="edge">
<title>Node3&#45;&gt;Node10</title>
<g id="a_edge9_Node000003_Node000010"><a xlink:title=" ">
<path fill="none" stroke="#63b8ff" d="M642.64,-65.97C703.67,-56.08 787.1,-42.44 860.5,-30 867.57,-28.8 874.99,-27.53 882.35,-26.25"/>
<polygon fill="#63b8ff" stroke="#63b8ff" points="883.04,-29.69 892.29,-24.52 881.84,-22.79 883.04,-29.69"/>
</a>
</g>
</g>
<!-- Node11 -->
<g id="Node000011" class="node">
<title>Node11</title>
<g id="a_Node000011"><a xlink:title=" ">
<polygon fill="#e0e0e0" stroke="#999999" points="1094,-24.5 1029,-24.5 1029,-5.5 1094,-5.5 1094,-24.5"/>
<text text-anchor="middle" x="1061.5" y="-12.5" font-family="Helvetica,sans-Serif" font-size="10.00">functional</text>
</a>
</g>
</g>
<!-- Node3&#45;&gt;Node11 -->
<g id="edge10_Node000003_Node000011" class="edge">
<title>Node3&#45;&gt;Node11</title>
<g id="a_edge10_Node000003_Node000011"><a xlink:title=" ">
<path fill="none" stroke="#63b8ff" d="M653.16,-67.1C656.31,-66.72 659.43,-66.36 662.5,-66 821.35,-47.62 864.26,-64.06 1020.5,-30 1023.49,-29.35 1026.57,-28.55 1029.62,-27.67"/>
<polygon fill="#63b8ff" stroke="#63b8ff" points="1030.72,-30.99 1039.21,-24.64 1028.62,-24.32 1030.72,-30.99"/>
</a>
</g>
</g>
<!-- Node12 -->
<g id="Node000012" class="node">
<title>Node12</title>
<g id="a_Node000012"><a xlink:title=" ">
<polygon fill="#e0e0e0" stroke="#999999" points="1205,-24.5 1112,-24.5 1112,-5.5 1205,-5.5 1205,-24.5"/>
<text text-anchor="middle" x="1158.5" y="-12.5" font-family="Helvetica,sans-Serif" font-size="10.00">unordered_map</text>
</a>
</g>
</g>
<!-- Node3&#45;&gt;Node12 -->
<g id="edge11_Node000003_Node000012" class="edge">
<title>Node3&#45;&gt;Node12</title>
<g id="a_edge11_Node000003_Node000012"><a xlink:title=" ">
<path fill="none" stroke="#63b8ff" d="M653.15,-67.02C656.3,-66.67 659.43,-66.33 662.5,-66 858.05,-45.24 909.53,-62.37 1103.5,-30 1108.53,-29.16 1113.78,-28.09 1118.95,-26.91"/>
<polygon fill="#63b8ff" stroke="#63b8ff" points="1119.82,-30.3 1128.72,-24.55 1118.18,-23.5 1119.82,-30.3"/>
</a>
</g>
</g>
</g>
</svg>
