<?xml version="1.0" encoding="UTF-8" standalone="no"?>
<!DOCTYPE svg PUBLIC "-//W3C//DTD SVG 1.1//EN"
 "http://www.w3.org/Graphics/SVG/1.1/DTD/svg11.dtd">
<!-- Generated by graphviz version 2.43.0 (0)
 -->
<!-- Title: dipolar_direct_sum.hpp Pages: 1 -->
<svg width="841pt" height="412pt"
 viewBox="0.00 0.00 840.50 412.00" xmlns="http://www.w3.org/2000/svg" xmlns:xlink="http://www.w3.org/1999/xlink">
<g id="graph0" class="graph" transform="scale(1 1) rotate(0) translate(4 408)">
<title>dipolar_direct_sum.hpp</title>
<!-- Node1 -->
<g id="Node000001" class="node">
<title>Node1</title>
<g id="a_Node000001"><a xlink:title=" ">
<polygon fill="#999999" stroke="#666666" points="497,-404 366,-404 366,-385 497,-385 497,-404"/>
<text text-anchor="middle" x="431.5" y="-392" font-family="Helvetica,sans-Serif" font-size="10.00">dipolar_direct_sum.hpp</text>
</a>
</g>
</g>
<!-- Node2 -->
<g id="Node000002" class="node">
<title>Node2</title>
<g id="a_Node000002"><a xlink:href="DipolarDirectSum_8hpp.html" target="_top" xlink:title=" ">
<polygon fill="white" stroke="#666666" points="204.5,-349 80.5,-349 80.5,-330 204.5,-330 204.5,-349"/>
<text text-anchor="middle" x="142.5" y="-337" font-family="Helvetica,sans-Serif" font-size="10.00">DipolarDirectSum.hpp</text>
</a>
</g>
</g>
<!-- Node1&#45;&gt;Node2 -->
<g id="edge1_Node000001_Node000002" class="edge">
<title>Node1&#45;&gt;Node2</title>
<g id="a_edge1_Node000001_Node000002"><a xlink:title=" ">
<path fill="none" stroke="#63b8ff" d="M374.94,-383.13C320.76,-373.19 239.96,-358.37 189.3,-349.08"/>
<polygon fill="#63b8ff" stroke="#63b8ff" points="374.6,-386.62 385.07,-384.98 375.86,-379.74 374.6,-386.62"/>
</a>
</g>
</g>
<!-- Node5 -->
<g id="Node000005" class="node">
<title>Node5</title>
<g id="a_Node000005"><a xlink:href="dipolar__direct__sum_8cpp.html" target="_top" xlink:title=" ">
<polygon fill="white" stroke="#666666" points="403.5,-349 273.5,-349 273.5,-330 403.5,-330 403.5,-349"/>
<text text-anchor="middle" x="338.5" y="-337" font-family="Helvetica,sans-Serif" font-size="10.00">dipolar_direct_sum.cpp</text>
</a>
</g>
</g>
<!-- Node1&#45;&gt;Node5 -->
<g id="edge5_Node000001_Node000005" class="edge">
<title>Node1&#45;&gt;Node5</title>
<g id="a_edge5_Node000001_Node000005"><a xlink:title=" ">
<path fill="none" stroke="#63b8ff" d="M407.75,-379.97C390.75,-370.28 368.37,-357.52 353.71,-349.17"/>
<polygon fill="#63b8ff" stroke="#63b8ff" points="406.14,-383.07 416.56,-384.98 409.6,-376.99 406.14,-383.07"/>
</a>
</g>
</g>
<!-- Node6 -->
<g id="Node000006" class="node">
<title>Node6</title>
<g id="a_Node000006"><a xlink:href="dipoles_8hpp.html" target="_top" xlink:title=" ">
<polygon fill="white" stroke="#666666" points="476,-294 403,-294 403,-275 476,-275 476,-294"/>
<text text-anchor="middle" x="439.5" y="-282" font-family="Helvetica,sans-Serif" font-size="10.00">dipoles.hpp</text>
</a>
</g>
</g>
<!-- Node1&#45;&gt;Node6 -->
<g id="edge6_Node000001_Node000006" class="edge">
<title>Node1&#45;&gt;Node6</title>
<g id="a_edge6_Node000001_Node000006"><a xlink:title=" ">
<path fill="none" stroke="#63b8ff" d="M432.91,-374.48C434.66,-350.84 437.57,-311.5 438.86,-294.16"/>
<polygon fill="#63b8ff" stroke="#63b8ff" points="429.4,-374.43 432.15,-384.66 436.38,-374.95 429.4,-374.43"/>
</a>
</g>
</g>
<!-- Node25 -->
<g id="Node000025" class="node">
<title>Node25</title>
<g id="a_Node000025"><a xlink:href="dlc_8cpp.html" target="_top" xlink:title=" ">
<polygon fill="white" stroke="#666666" points="826,-239 775,-239 775,-220 826,-220 826,-239"/>
<text text-anchor="middle" x="800.5" y="-227" font-family="Helvetica,sans-Serif" font-size="10.00">dlc.cpp</text>
</a>
</g>
</g>
<!-- Node1&#45;&gt;Node25 -->
<g id="edge35_Node000001_Node000025" class="edge">
<title>Node1&#45;&gt;Node25</title>
<g id="a_edge35_Node000001_Node000025"><a xlink:title=" ">
<path fill="none" stroke="#63b8ff" d="M460.21,-380.82C532.35,-348.95 719.82,-266.14 780.93,-239.15"/>
<polygon fill="#63b8ff" stroke="#63b8ff" points="458.55,-377.72 450.82,-384.97 461.38,-384.13 458.55,-377.72"/>
</a>
</g>
</g>
<!-- Node27 -->
<g id="Node000027" class="node">
<title>Node27</title>
<g id="a_Node000027"><a xlink:href="dlc_8hpp.html" target="_top" xlink:title=" ">
<polygon fill="white" stroke="#666666" points="511.5,-349 459.5,-349 459.5,-330 511.5,-330 511.5,-349"/>
<text text-anchor="middle" x="485.5" y="-337" font-family="Helvetica,sans-Serif" font-size="10.00">dlc.hpp</text>
</a>
</g>
</g>
<!-- Node1&#45;&gt;Node27 -->
<g id="edge36_Node000001_Node000027" class="edge">
<title>Node1&#45;&gt;Node27</title>
<g id="a_edge36_Node000001_Node000027"><a xlink:title=" ">
<path fill="none" stroke="#63b8ff" d="M447.78,-377.52C457.3,-368.18 468.94,-356.75 476.75,-349.09"/>
<polygon fill="#63b8ff" stroke="#63b8ff" points="445.1,-375.25 440.42,-384.75 450.01,-380.24 445.1,-375.25"/>
</a>
</g>
</g>
<!-- Node3 -->
<g id="Node000003" class="node">
<title>Node3</title>
<g id="a_Node000003"><a xlink:href="DipolarLayerCorrection_8hpp.html" target="_top" xlink:title=" ">
<polygon fill="white" stroke="#666666" points="217.5,-294 67.5,-294 67.5,-275 217.5,-275 217.5,-294"/>
<text text-anchor="middle" x="142.5" y="-282" font-family="Helvetica,sans-Serif" font-size="10.00">DipolarLayerCorrection.hpp</text>
</a>
</g>
</g>
<!-- Node2&#45;&gt;Node3 -->
<g id="edge2_Node000002_Node000003" class="edge">
<title>Node2&#45;&gt;Node3</title>
<g id="a_edge2_Node000002_Node000003"><a xlink:title=" ">
<path fill="none" stroke="#63b8ff" d="M142.5,-319.66C142.5,-310.93 142.5,-300.99 142.5,-294.09"/>
<polygon fill="#63b8ff" stroke="#63b8ff" points="139,-319.75 142.5,-329.75 146,-319.75 139,-319.75"/>
</a>
</g>
</g>
<!-- Node4 -->
<g id="Node000004" class="node">
<title>Node4</title>
<g id="a_Node000004"><a xlink:href="magnetostatics_2initialize_8cpp.html" target="_top" xlink:title=" ">
<polygon fill="white" stroke="#666666" points="124,-184 45,-184 45,-165 124,-165 124,-184"/>
<text text-anchor="middle" x="84.5" y="-172" font-family="Helvetica,sans-Serif" font-size="10.00">initialize.cpp</text>
</a>
</g>
</g>
<!-- Node2&#45;&gt;Node4 -->
<g id="edge4_Node000002_Node000004" class="edge">
<title>Node2&#45;&gt;Node4</title>
<g id="a_edge4_Node000002_Node000004"><a xlink:title=" ">
<path fill="none" stroke="#63b8ff" d="M99.44,-326.17C83.72,-319.35 67.59,-309.11 58.5,-294 36.56,-257.55 65.43,-204.84 78.59,-184.23"/>
<polygon fill="#63b8ff" stroke="#63b8ff" points="98.51,-329.56 109.1,-329.98 101.08,-323.05 98.51,-329.56"/>
</a>
</g>
</g>
<!-- Node3&#45;&gt;Node4 -->
<g id="edge3_Node000003_Node000004" class="edge">
<title>Node3&#45;&gt;Node4</title>
<g id="a_edge3_Node000003_Node000004"><a xlink:title=" ">
<path fill="none" stroke="#63b8ff" d="M105.48,-270.85C90.95,-263.86 75.8,-253.57 67.5,-239 57.33,-221.15 69.87,-197.01 78.21,-184.25"/>
<polygon fill="#63b8ff" stroke="#63b8ff" points="104.29,-274.15 114.85,-274.98 107.11,-267.75 104.29,-274.15"/>
</a>
</g>
</g>
<!-- Node6&#45;&gt;Node4 -->
<g id="edge31_Node000006_Node000004" class="edge">
<title>Node6&#45;&gt;Node4</title>
<g id="a_edge31_Node000006_Node000004"><a xlink:title=" ">
<path fill="none" stroke="#63b8ff" d="M392.64,-278.13C345.86,-271.9 272.37,-259.73 211.5,-239 208.63,-238.02 135.34,-201.13 101.43,-184.04"/>
<polygon fill="#63b8ff" stroke="#63b8ff" points="392.41,-281.63 402.78,-279.44 393.31,-274.69 392.41,-281.63"/>
</a>
</g>
</g>
<!-- Node7 -->
<g id="Node000007" class="node">
<title>Node7</title>
<g id="a_Node000007"><a xlink:href="magnetostatics_2Actor_8impl_8hpp.html" target="_top" xlink:title=" ">
<polygon fill="white" stroke="#666666" points="164,-239 77,-239 77,-220 164,-220 164,-239"/>
<text text-anchor="middle" x="120.5" y="-227" font-family="Helvetica,sans-Serif" font-size="10.00">Actor.impl.hpp</text>
</a>
</g>
</g>
<!-- Node6&#45;&gt;Node7 -->
<g id="edge7_Node000006_Node000007" class="edge">
<title>Node6&#45;&gt;Node7</title>
<g id="a_edge7_Node000006_Node000007"><a xlink:title=" ">
<path fill="none" stroke="#63b8ff" d="M392.71,-275.73C331.17,-265.5 223.88,-247.68 164.02,-237.73"/>
<polygon fill="#63b8ff" stroke="#63b8ff" points="392.47,-279.23 402.91,-277.42 393.62,-272.33 392.47,-279.23"/>
</a>
</g>
</g>
<!-- Node8 -->
<g id="Node000008" class="node">
<title>Node8</title>
<g id="a_Node000008"><a xlink:href="System_8impl_8hpp.html" target="_top" xlink:title=" ">
<polygon fill="white" stroke="#666666" points="757,-239 658,-239 658,-220 757,-220 757,-239"/>
<text text-anchor="middle" x="707.5" y="-227" font-family="Helvetica,sans-Serif" font-size="10.00">System.impl.hpp</text>
</a>
</g>
</g>
<!-- Node6&#45;&gt;Node8 -->
<g id="edge9_Node000006_Node000008" class="edge">
<title>Node6&#45;&gt;Node8</title>
<g id="a_edge9_Node000006_Node000008"><a xlink:title=" ">
<path fill="none" stroke="#63b8ff" d="M486.13,-274.28C536.27,-264.36 615.32,-248.73 664.15,-239.07"/>
<polygon fill="#63b8ff" stroke="#63b8ff" points="485.33,-270.87 476.2,-276.24 486.69,-277.74 485.33,-270.87"/>
</a>
</g>
</g>
<!-- Node11 -->
<g id="Node000011" class="node">
<title>Node11</title>
<g id="a_Node000011"><a xlink:href="dipoles_8cpp.html" target="_top" xlink:title=" ">
<polygon fill="white" stroke="#666666" points="292.5,-239 220.5,-239 220.5,-220 292.5,-220 292.5,-239"/>
<text text-anchor="middle" x="256.5" y="-227" font-family="Helvetica,sans-Serif" font-size="10.00">dipoles.cpp</text>
</a>
</g>
</g>
<!-- Node6&#45;&gt;Node11 -->
<g id="edge12_Node000006_Node000011" class="edge">
<title>Node6&#45;&gt;Node11</title>
<g id="a_edge12_Node000006_Node000011"><a xlink:title=" ">
<path fill="none" stroke="#63b8ff" d="M400.43,-272.18C366.2,-262.27 317.21,-248.08 286.13,-239.08"/>
<polygon fill="#63b8ff" stroke="#63b8ff" points="399.52,-275.56 410.1,-274.98 401.47,-268.84 399.52,-275.56"/>
</a>
</g>
</g>
<!-- Node12 -->
<g id="Node000012" class="node">
<title>Node12</title>
<g id="a_Node000012"><a xlink:href="dipoles__inline_8hpp.html" target="_top" xlink:title=" ">
<polygon fill="white" stroke="#666666" points="492,-239 387,-239 387,-220 492,-220 492,-239"/>
<text text-anchor="middle" x="439.5" y="-227" font-family="Helvetica,sans-Serif" font-size="10.00">dipoles_inline.hpp</text>
</a>
</g>
</g>
<!-- Node6&#45;&gt;Node12 -->
<g id="edge13_Node000006_Node000012" class="edge">
<title>Node6&#45;&gt;Node12</title>
<g id="a_edge13_Node000006_Node000012"><a xlink:title=" ">
<path fill="none" stroke="#63b8ff" d="M439.5,-264.66C439.5,-255.93 439.5,-245.99 439.5,-239.09"/>
<polygon fill="#63b8ff" stroke="#63b8ff" points="436,-264.75 439.5,-274.75 443,-264.75 436,-264.75"/>
</a>
</g>
</g>
<!-- Node18 -->
<g id="Node000018" class="node">
<title>Node18</title>
<g id="a_Node000018"><a xlink:href="energy_8cpp.html" target="_top" xlink:title=" ">
<polygon fill="white" stroke="#666666" points="69,-129 0,-129 0,-110 69,-110 69,-129"/>
<text text-anchor="middle" x="34.5" y="-117" font-family="Helvetica,sans-Serif" font-size="10.00">energy.cpp</text>
</a>
</g>
</g>
<!-- Node6&#45;&gt;Node18 -->
<g id="edge29_Node000006_Node000018" class="edge">
<title>Node6&#45;&gt;Node18</title>
<g id="a_edge29_Node000006_Node000018"><a xlink:title=" ">
<path fill="none" stroke="#63b8ff" d="M411.99,-270.55C378.14,-254.66 322.56,-228.75 301.5,-220 213.57,-183.45 106.91,-145.6 59.4,-129.08"/>
<polygon fill="#63b8ff" stroke="#63b8ff" points="410.79,-273.85 421.33,-274.93 413.76,-267.51 410.79,-273.85"/>
</a>
</g>
</g>
<!-- Node20 -->
<g id="Node000020" class="node">
<title>Node20</title>
<g id="a_Node000020"><a xlink:href="forces_8cpp.html" target="_top" xlink:title="Force calculation.">
<polygon fill="white" stroke="#666666" points="496,-19 429,-19 429,0 496,0 496,-19"/>
<text text-anchor="middle" x="462.5" y="-7" font-family="Helvetica,sans-Serif" font-size="10.00">forces.cpp</text>
</a>
</g>
</g>
<!-- Node6&#45;&gt;Node20 -->
<g id="edge30_Node000006_Node000020" class="edge">
<title>Node6&#45;&gt;Node20</title>
<g id="a_edge30_Node000006_Node000020"><a xlink:title=" ">
<path fill="none" stroke="#63b8ff" d="M414.73,-269.58C402.42,-261.77 387.98,-251.16 377.5,-239 353.36,-210.99 366.93,-189.78 339.5,-165 304.15,-133.07 221.85,-150.14 247.5,-110 287.7,-47.1 378.97,-23.37 428.69,-14.89"/>
<polygon fill="#63b8ff" stroke="#63b8ff" points="413.26,-272.79 423.63,-274.99 416.9,-266.8 413.26,-272.79"/>
</a>
</g>
</g>
<!-- Node23 -->
<g id="Node000023" class="node">
<title>Node23</title>
<g id="a_Node000023"><a xlink:href="pressure__inline_8hpp.html" target="_top" xlink:title=" ">
<polygon fill="white" stroke="#666666" points="698.5,-129 586.5,-129 586.5,-110 698.5,-110 698.5,-129"/>
<text text-anchor="middle" x="642.5" y="-117" font-family="Helvetica,sans-Serif" font-size="10.00">pressure_inline.hpp</text>
</a>
</g>
</g>
<!-- Node6&#45;&gt;Node23 -->
<g id="edge34_Node000006_Node000023" class="edge">
<title>Node6&#45;&gt;Node23</title>
<g id="a_edge34_Node000006_Node000023"><a xlink:title=" ">
<path fill="none" stroke="#63b8ff" d="M485.97,-276.37C513.49,-270.23 547.71,-259.05 572.5,-239 592.01,-223.22 626.61,-153.59 638.42,-129.08"/>
<polygon fill="#63b8ff" stroke="#63b8ff" points="485.24,-272.94 476.17,-278.41 486.67,-279.8 485.24,-272.94"/>
</a>
</g>
</g>
<!-- Node24 -->
<g id="Node000024" class="node">
<title>Node24</title>
<g id="a_Node000024"><a xlink:href="pressure_8cpp.html" target="_top" xlink:title=" ">
<polygon fill="white" stroke="#666666" points="724,-74 645,-74 645,-55 724,-55 724,-74"/>
<text text-anchor="middle" x="684.5" y="-62" font-family="Helvetica,sans-Serif" font-size="10.00">pressure.cpp</text>
</a>
</g>
</g>
<!-- Node6&#45;&gt;Node24 -->
<g id="edge33_Node000006_Node000024" class="edge">
<title>Node6&#45;&gt;Node24</title>
<g id="a_edge33_Node000006_Node000024"><a xlink:title=" ">
<path fill="none" stroke="#63b8ff" d="M486.21,-277.18C518.34,-271.18 560.93,-259.85 593.5,-239 630.12,-215.55 625.42,-194.35 657.5,-165 677.71,-146.52 695.02,-153.37 707.5,-129 717.12,-110.22 701.84,-86.45 691.92,-74"/>
<polygon fill="#63b8ff" stroke="#63b8ff" points="485.41,-273.76 476.17,-278.94 486.63,-280.66 485.41,-273.76"/>
</a>
</g>
</g>
<!-- Node6&#45;&gt;Node25 -->
<g id="edge28_Node000006_Node000025" class="edge">
<title>Node6&#45;&gt;Node25</title>
<g id="a_edge28_Node000006_Node000025"><a xlink:title=" ">
<path fill="none" stroke="#63b8ff" d="M486.17,-277.29C573.24,-265.67 752.9,-241.62 766.5,-239 769.25,-238.47 772.11,-237.86 774.95,-237.21"/>
<polygon fill="#63b8ff" stroke="#63b8ff" points="485.48,-273.85 476.03,-278.64 486.41,-280.79 485.48,-273.85"/>
</a>
</g>
</g>
<!-- Node26 -->
<g id="Node000026" class="node">
<title>Node26</title>
<g id="a_Node000026"><a xlink:href="npt_8cpp.html" target="_top" xlink:title=" ">
<polygon fill="white" stroke="#666666" points="563,-239 510,-239 510,-220 563,-220 563,-239"/>
<text text-anchor="middle" x="536.5" y="-227" font-family="Helvetica,sans-Serif" font-size="10.00">npt.cpp</text>
</a>
</g>
</g>
<!-- Node6&#45;&gt;Node26 -->
<g id="edge32_Node000006_Node000026" class="edge">
<title>Node6&#45;&gt;Node26</title>
<g id="a_edge32_Node000006_Node000026"><a xlink:title=" ">
<path fill="none" stroke="#63b8ff" d="M464.27,-269.97C482,-260.28 505.35,-247.52 520.63,-239.17"/>
<polygon fill="#63b8ff" stroke="#63b8ff" points="462.18,-267.12 455.08,-274.98 465.54,-273.26 462.18,-267.12"/>
</a>
</g>
</g>
<!-- Node7&#45;&gt;Node4 -->
<g id="edge8_Node000007_Node000004" class="edge">
<title>Node7&#45;&gt;Node4</title>
<g id="a_edge8_Node000007_Node000004"><a xlink:title=" ">
<path fill="none" stroke="#63b8ff" d="M108.88,-211.39C102.68,-202.27 95.33,-191.45 90.33,-184.09"/>
<polygon fill="#63b8ff" stroke="#63b8ff" points="106.04,-213.44 114.56,-219.75 111.83,-209.51 106.04,-213.44"/>
</a>
</g>
</g>
<!-- Node9 -->
<g id="Node000009" class="node">
<title>Node9</title>
<g id="a_Node000009"><a xlink:href="core_2system_2System_8cpp.html" target="_top" xlink:title=" ">
<polygon fill="white" stroke="#666666" points="832.5,-184 758.5,-184 758.5,-165 832.5,-165 832.5,-184"/>
<text text-anchor="middle" x="795.5" y="-172" font-family="Helvetica,sans-Serif" font-size="10.00">System.cpp</text>
</a>
</g>
</g>
<!-- Node8&#45;&gt;Node9 -->
<g id="edge10_Node000008_Node000009" class="edge">
<title>Node8&#45;&gt;Node9</title>
<g id="a_edge10_Node000008_Node000009"><a xlink:title=" ">
<path fill="none" stroke="#63b8ff" d="M730.42,-214.7C746.45,-205.04 767.37,-192.44 781.1,-184.17"/>
<polygon fill="#63b8ff" stroke="#63b8ff" points="728.4,-211.83 721.64,-219.98 732.01,-217.82 728.4,-211.83"/>
</a>
</g>
</g>
<!-- Node10 -->
<g id="Node000010" class="node">
<title>Node10</title>
<g id="a_Node000010"><a xlink:href="script__interface_2system_2System_8cpp.html" target="_top" xlink:title=" ">
<polygon fill="white" stroke="#666666" points="740.5,-184 666.5,-184 666.5,-165 740.5,-165 740.5,-184"/>
<text text-anchor="middle" x="703.5" y="-172" font-family="Helvetica,sans-Serif" font-size="10.00">System.cpp</text>
</a>
</g>
</g>
<!-- Node8&#45;&gt;Node10 -->
<g id="edge11_Node000008_Node000010" class="edge">
<title>Node8&#45;&gt;Node10</title>
<g id="a_edge11_Node000008_Node000010"><a xlink:title=" ">
<path fill="none" stroke="#63b8ff" d="M706.08,-209.66C705.42,-200.93 704.67,-190.99 704.15,-184.09"/>
<polygon fill="#63b8ff" stroke="#63b8ff" points="702.6,-210.04 706.84,-219.75 709.58,-209.51 702.6,-210.04"/>
</a>
</g>
</g>
<!-- Node13 -->
<g id="Node000013" class="node">
<title>Node13</title>
<g id="a_Node000013"><a xlink:href="energy__inline_8hpp.html" target="_top" xlink:title="Energy calculation.">
<polygon fill="white" stroke="#666666" points="330.5,-184 226.5,-184 226.5,-165 330.5,-165 330.5,-184"/>
<text text-anchor="middle" x="278.5" y="-172" font-family="Helvetica,sans-Serif" font-size="10.00">energy_inline.hpp</text>
</a>
</g>
</g>
<!-- Node12&#45;&gt;Node13 -->
<g id="edge14_Node000012_Node000013" class="edge">
<title>Node12&#45;&gt;Node13</title>
<g id="a_edge14_Node000012_Node000013"><a xlink:title=" ">
<path fill="none" stroke="#63b8ff" d="M403.95,-216.8C373.91,-206.91 331.56,-192.97 304.57,-184.08"/>
<polygon fill="#63b8ff" stroke="#63b8ff" points="403.04,-220.18 413.63,-219.98 405.23,-213.53 403.04,-220.18"/>
</a>
</g>
</g>
<!-- Node19 -->
<g id="Node000019" class="node">
<title>Node19</title>
<g id="a_Node000019"><a xlink:href="forces__inline_8hpp.html" target="_top" xlink:title="Force calculation.">
<polygon fill="white" stroke="#666666" points="526.5,-184 426.5,-184 426.5,-165 526.5,-165 526.5,-184"/>
<text text-anchor="middle" x="476.5" y="-172" font-family="Helvetica,sans-Serif" font-size="10.00">forces_inline.hpp</text>
</a>
</g>
</g>
<!-- Node12&#45;&gt;Node19 -->
<g id="edge20_Node000012_Node000019" class="edge">
<title>Node12&#45;&gt;Node19</title>
<g id="a_edge20_Node000012_Node000019"><a xlink:title=" ">
<path fill="none" stroke="#63b8ff" d="M451.45,-211.39C457.81,-202.27 465.37,-191.45 470.5,-184.09"/>
<polygon fill="#63b8ff" stroke="#63b8ff" points="448.46,-209.55 445.61,-219.75 454.2,-213.55 448.46,-209.55"/>
</a>
</g>
</g>
<!-- Node14 -->
<g id="Node000014" class="node">
<title>Node14</title>
<g id="a_Node000014"><a xlink:href="core_2pair__criteria_2EnergyCriterion_8hpp.html" target="_top" xlink:title=" ">
<polygon fill="white" stroke="#666666" points="200,-129 87,-129 87,-110 200,-110 200,-129"/>
<text text-anchor="middle" x="143.5" y="-117" font-family="Helvetica,sans-Serif" font-size="10.00">EnergyCriterion.hpp</text>
</a>
</g>
</g>
<!-- Node13&#45;&gt;Node14 -->
<g id="edge15_Node000013_Node000014" class="edge">
<title>Node13&#45;&gt;Node14</title>
<g id="a_edge15_Node000013_Node000014"><a xlink:title=" ">
<path fill="none" stroke="#63b8ff" d="M247.4,-161.29C222.38,-151.47 187.84,-137.91 165.58,-129.17"/>
<polygon fill="#63b8ff" stroke="#63b8ff" points="246.22,-164.59 256.81,-164.98 248.78,-158.07 246.22,-164.59"/>
</a>
</g>
</g>
<!-- Node17 -->
<g id="Node000017" class="node">
<title>Node17</title>
<g id="a_Node000017"><a xlink:href="ShapeBasedConstraint_8cpp.html" target="_top" xlink:title=" ">
<polygon fill="white" stroke="#666666" points="404,-129 257,-129 257,-110 404,-110 404,-129"/>
<text text-anchor="middle" x="330.5" y="-117" font-family="Helvetica,sans-Serif" font-size="10.00">ShapeBasedConstraint.cpp</text>
</a>
</g>
</g>
<!-- Node13&#45;&gt;Node17 -->
<g id="edge18_Node000013_Node000017" class="edge">
<title>Node13&#45;&gt;Node17</title>
<g id="a_edge18_Node000013_Node000017"><a xlink:title=" ">
<path fill="none" stroke="#63b8ff" d="M294.18,-157.52C303.34,-148.18 314.55,-136.75 322.07,-129.09"/>
<polygon fill="#63b8ff" stroke="#63b8ff" points="291.59,-155.16 287.09,-164.75 296.59,-160.06 291.59,-155.16"/>
</a>
</g>
</g>
<!-- Node13&#45;&gt;Node18 -->
<g id="edge19_Node000013_Node000018" class="edge">
<title>Node13&#45;&gt;Node18</title>
<g id="a_edge19_Node000013_Node000018"><a xlink:title=" ">
<path fill="none" stroke="#63b8ff" d="M229.24,-162.8C181.76,-152.49 111.13,-137.15 69.26,-128.05"/>
<polygon fill="#63b8ff" stroke="#63b8ff" points="228.78,-166.28 239.3,-164.98 230.27,-159.44 228.78,-166.28"/>
</a>
</g>
</g>
<!-- Node15 -->
<g id="Node000015" class="node">
<title>Node15</title>
<g id="a_Node000015"><a xlink:href="script__interface_2pair__criteria_2EnergyCriterion_8hpp.html" target="_top" xlink:title=" ">
<polygon fill="white" stroke="#666666" points="200,-74 87,-74 87,-55 200,-55 200,-74"/>
<text text-anchor="middle" x="143.5" y="-62" font-family="Helvetica,sans-Serif" font-size="10.00">EnergyCriterion.hpp</text>
</a>
</g>
</g>
<!-- Node14&#45;&gt;Node15 -->
<g id="edge16_Node000014_Node000015" class="edge">
<title>Node14&#45;&gt;Node15</title>
<g id="a_edge16_Node000014_Node000015"><a xlink:title=" ">
<path fill="none" stroke="#63b8ff" d="M143.5,-99.66C143.5,-90.93 143.5,-80.99 143.5,-74.09"/>
<polygon fill="#63b8ff" stroke="#63b8ff" points="140,-99.75 143.5,-109.75 147,-99.75 140,-99.75"/>
</a>
</g>
</g>
<!-- Node16 -->
<g id="Node000016" class="node">
<title>Node16</title>
<g id="a_Node000016"><a xlink:href="pair__criteria_2initialize_8cpp.html" target="_top" xlink:title=" ">
<polygon fill="white" stroke="#666666" points="183,-19 104,-19 104,0 183,0 183,-19"/>
<text text-anchor="middle" x="143.5" y="-7" font-family="Helvetica,sans-Serif" font-size="10.00">initialize.cpp</text>
</a>
</g>
</g>
<!-- Node15&#45;&gt;Node16 -->
<g id="edge17_Node000015_Node000016" class="edge">
<title>Node15&#45;&gt;Node16</title>
<g id="a_edge17_Node000015_Node000016"><a xlink:title=" ">
<path fill="none" stroke="#63b8ff" d="M143.5,-44.66C143.5,-35.93 143.5,-25.99 143.5,-19.09"/>
<polygon fill="#63b8ff" stroke="#63b8ff" points="140,-44.75 143.5,-54.75 147,-44.75 140,-44.75"/>
</a>
</g>
</g>
<!-- Node19&#45;&gt;Node17 -->
<g id="edge21_Node000019_Node000017" class="edge">
<title>Node19&#45;&gt;Node17</title>
<g id="a_edge21_Node000019_Node000017"><a xlink:title=" ">
<path fill="none" stroke="#63b8ff" d="M443.58,-161.55C416.47,-151.71 378.67,-137.98 354.38,-129.17"/>
<polygon fill="#63b8ff" stroke="#63b8ff" points="442.45,-164.86 453.04,-164.98 444.84,-158.28 442.45,-164.86"/>
</a>
</g>
</g>
<!-- Node19&#45;&gt;Node20 -->
<g id="edge22_Node000019_Node000020" class="edge">
<title>Node19&#45;&gt;Node20</title>
<g id="a_edge22_Node000019_Node000020"><a xlink:title=" ">
<path fill="none" stroke="#63b8ff" d="M506.58,-160.18C519.16,-152.91 532.46,-142.59 539.5,-129 554.63,-99.8 555.94,-83.49 539.5,-55 529.24,-37.21 508.85,-25.9 491.64,-19.13"/>
<polygon fill="#63b8ff" stroke="#63b8ff" points="504.83,-157.14 497.65,-164.93 508.12,-163.32 504.83,-157.14"/>
</a>
</g>
</g>
<!-- Node21 -->
<g id="Node000021" class="node">
<title>Node21</title>
<g id="a_Node000021"><a xlink:href="forces__cabana_8hpp.html" target="_top" xlink:title=" ">
<polygon fill="white" stroke="#666666" points="530.5,-129 422.5,-129 422.5,-110 530.5,-110 530.5,-129"/>
<text text-anchor="middle" x="476.5" y="-117" font-family="Helvetica,sans-Serif" font-size="10.00">forces_cabana.hpp</text>
</a>
</g>
</g>
<!-- Node19&#45;&gt;Node21 -->
<g id="edge23_Node000019_Node000021" class="edge">
<title>Node19&#45;&gt;Node21</title>
<g id="a_edge23_Node000019_Node000021"><a xlink:title=" ">
<path fill="none" stroke="#63b8ff" d="M476.5,-154.66C476.5,-145.93 476.5,-135.99 476.5,-129.09"/>
<polygon fill="#63b8ff" stroke="#63b8ff" points="473,-154.75 476.5,-164.75 480,-154.75 473,-154.75"/>
</a>
</g>
</g>
<!-- Node19&#45;&gt;Node23 -->
<g id="edge26_Node000019_Node000023" class="edge">
<title>Node19&#45;&gt;Node23</title>
<g id="a_edge26_Node000019_Node000023"><a xlink:title=" ">
<path fill="none" stroke="#63b8ff" d="M512.75,-161.93C543.75,-152.03 587.67,-138.01 615.62,-129.08"/>
<polygon fill="#63b8ff" stroke="#63b8ff" points="511.63,-158.61 503.17,-164.98 513.76,-165.28 511.63,-158.61"/>
</a>
</g>
</g>
<!-- Node22 -->
<g id="Node000022" class="node">
<title>Node22</title>
<g id="a_Node000022"><a xlink:href="short__range__cabana_8hpp.html" target="_top" xlink:title=" ">
<polygon fill="white" stroke="#666666" points="530.5,-74 394.5,-74 394.5,-55 530.5,-55 530.5,-74"/>
<text text-anchor="middle" x="462.5" y="-62" font-family="Helvetica,sans-Serif" font-size="10.00">short_range_cabana.hpp</text>
</a>
</g>
</g>
<!-- Node21&#45;&gt;Node22 -->
<g id="edge24_Node000021_Node000022" class="edge">
<title>Node21&#45;&gt;Node22</title>
<g id="a_edge24_Node000021_Node000022"><a xlink:title=" ">
<path fill="none" stroke="#63b8ff" d="M471.6,-99.95C469.28,-91.15 466.61,-81.06 464.77,-74.09"/>
<polygon fill="#63b8ff" stroke="#63b8ff" points="468.25,-100.97 474.19,-109.75 475.02,-99.19 468.25,-100.97"/>
</a>
</g>
</g>
<!-- Node22&#45;&gt;Node20 -->
<g id="edge25_Node000022_Node000020" class="edge">
<title>Node22&#45;&gt;Node20</title>
<g id="a_edge25_Node000022_Node000020"><a xlink:title=" ">
<path fill="none" stroke="#63b8ff" d="M462.5,-44.66C462.5,-35.93 462.5,-25.99 462.5,-19.09"/>
<polygon fill="#63b8ff" stroke="#63b8ff" points="459,-44.75 462.5,-54.75 466,-44.75 459,-44.75"/>
</a>
</g>
</g>
<!-- Node23&#45;&gt;Node24 -->
<g id="edge27_Node000023_Node000024" class="edge">
<title>Node23&#45;&gt;Node24</title>
<g id="a_edge27_Node000023_Node000024"><a xlink:title=" ">
<path fill="none" stroke="#63b8ff" d="M655.83,-101.67C663.11,-92.5 671.8,-81.52 677.69,-74.09"/>
<polygon fill="#63b8ff" stroke="#63b8ff" points="652.9,-99.74 649.44,-109.75 658.39,-104.08 652.9,-99.74"/>
</a>
</g>
</g>
<!-- Node27&#45;&gt;Node3 -->
<g id="edge37_Node000027_Node000003" class="edge">
<title>Node27&#45;&gt;Node3</title>
<g id="a_edge37_Node000027_Node000003"><a xlink:title=" ">
<path fill="none" stroke="#63b8ff" d="M449.29,-332.9C389.18,-323.62 268.42,-304.96 197.65,-294.02"/>
<polygon fill="#63b8ff" stroke="#63b8ff" points="449.02,-336.4 459.44,-334.47 450.09,-329.49 449.02,-336.4"/>
</a>
</g>
</g>
<!-- Node27&#45;&gt;Node6 -->
<g id="edge38_Node000027_Node000006" class="edge">
<title>Node27&#45;&gt;Node6</title>
<g id="a_edge38_Node000027_Node000006"><a xlink:title=" ">
<path fill="none" stroke="#63b8ff" d="M471.14,-321.96C463.13,-312.72 453.47,-301.6 446.95,-294.09"/>
<polygon fill="#63b8ff" stroke="#63b8ff" points="468.71,-324.49 477.9,-329.75 473.99,-319.9 468.71,-324.49"/>
</a>
</g>
</g>
<!-- Node27&#45;&gt;Node25 -->
<g id="edge39_Node000027_Node000025" class="edge">
<title>Node27&#45;&gt;Node25</title>
<g id="a_edge39_Node000027_Node000025"><a xlink:title=" ">
<path fill="none" stroke="#63b8ff" d="M497.66,-321.53C509.23,-306.74 528.04,-285.98 549.5,-275 636.53,-230.47 670.78,-258.87 766.5,-239 769.24,-238.43 772.09,-237.79 774.93,-237.13"/>
<polygon fill="#63b8ff" stroke="#63b8ff" points="494.63,-319.73 491.43,-329.83 500.23,-323.93 494.63,-319.73"/>
</a>
</g>
</g>
</g>
</svg>
