<?xml version="1.0" encoding="UTF-8" standalone="no"?>
<!DOCTYPE svg PUBLIC "-//W3C//DTD SVG 1.1//EN"
 "http://www.w3.org/Graphics/SVG/1.1/DTD/svg11.dtd">
<!-- Generated by graphviz version 2.43.0 (0)
 -->
<!-- Title: integrators Pages: 1 -->
<svg width="343pt" height="223pt"
 viewBox="0.00 0.00 342.88 223.00" xmlns="http://www.w3.org/2000/svg" xmlns:xlink="http://www.w3.org/1999/xlink">
<g id="graph0" class="graph" transform="scale(1 1) rotate(0) translate(4 219)">
<title>integrators</title>
<g id="clust1" class="cluster">
<title>clusterdir_aebb8dcc11953d78e620bbef0b9e2183</title>
<g id="a_clust1"><a xlink:href="dir_aebb8dcc11953d78e620bbef0b9e2183.html" target="_top" xlink:title="core">
<polygon fill="#ddddee" stroke="black" points="144.38,-136 144.38,-207 230.38,-207 230.38,-136 144.38,-136"/>
<text text-anchor="middle" x="187.38" y="-195" font-family="Helvetica,sans-Serif" font-size="10.00">core</text>
</a>
</g>
</g>
<!-- dir_da67872344adeb77b7597d4d35f63a13 -->
<g id="node1" class="node">
<title>dir_da67872344adeb77b7597d4d35f63a13</title>
<g id="a_node1"><a xlink:href="dir_da67872344adeb77b7597d4d35f63a13.html" target="_top" xlink:title="integrators">
<polygon fill="#eeeeff" stroke="black" points="222.38,-180 152.38,-180 152.38,-144 222.38,-144 222.38,-180"/>
<text text-anchor="middle" x="187.38" y="-159.5" font-family="Helvetica,sans-Serif" font-size="10.00">integrators</text>
</a>
</g>
</g>
<!-- dir_7e83d1792d529f4aa7126ac7e0b3b699 -->
<g id="node2" class="node">
<title>dir_7e83d1792d529f4aa7126ac7e0b3b699</title>
<g id="a_node2"><a xlink:href="dir_7e83d1792d529f4aa7126ac7e0b3b699.html" target="_top" xlink:title="config">
<polygon fill="none" stroke="black" points="100.38,-36 46.38,-36 46.38,0 100.38,0 100.38,-36"/>
<text text-anchor="middle" x="73.38" y="-15.5" font-family="Helvetica,sans-Serif" font-size="10.00">config</text>
</a>
</g>
</g>
<!-- dir_da67872344adeb77b7597d4d35f63a13&#45;&gt;dir_7e83d1792d529f4aa7126ac7e0b3b699 -->
<g id="edge3" class="edge">
<title>dir_da67872344adeb77b7597d4d35f63a13&#45;&gt;dir_7e83d1792d529f4aa7126ac7e0b3b699</title>
<path fill="none" stroke="black" d="M152.07,-155.73C104.53,-147.84 23.85,-131.32 6.38,-108 -3.22,-95.19 -0.6,-86.4 6.38,-72 13.1,-58.12 25.41,-46.77 37.67,-38.18"/>
<polygon fill="black" stroke="black" points="39.62,-41.09 46.08,-32.68 35.79,-35.23 39.62,-41.09"/>
<g id="a_edge3&#45;headlabel"><a xlink:href="dir_000032_000042.html" target="_top" xlink:title="6">
<text text-anchor="middle" x="38.17" y="-42.93" font-family="Helvetica,sans-Serif" font-size="10.00">6</text>
</a>
</g>
</g>
<!-- dir_3243ffbc9887dfdf4ef1a321c992d802 -->
<g id="node3" class="node">
<title>dir_3243ffbc9887dfdf4ef1a321c992d802</title>
<g id="a_node3"><a xlink:href="dir_3243ffbc9887dfdf4ef1a321c992d802.html" target="_top" xlink:title="thermostats">
<polygon fill="none" stroke="black" points="225.38,-108 149.38,-108 149.38,-72 225.38,-72 225.38,-108"/>
<text text-anchor="middle" x="187.38" y="-87.5" font-family="Helvetica,sans-Serif" font-size="10.00">thermostats</text>
</a>
</g>
</g>
<!-- dir_da67872344adeb77b7597d4d35f63a13&#45;&gt;dir_3243ffbc9887dfdf4ef1a321c992d802 -->
<g id="edge4" class="edge">
<title>dir_da67872344adeb77b7597d4d35f63a13&#45;&gt;dir_3243ffbc9887dfdf4ef1a321c992d802</title>
<path fill="none" stroke="black" d="M187.38,-143.7C187.38,-135.98 187.38,-126.71 187.38,-118.11"/>
<polygon fill="black" stroke="black" points="190.88,-118.1 187.38,-108.1 183.88,-118.1 190.88,-118.1"/>
<g id="a_edge4&#45;headlabel"><a xlink:href="dir_000032_000033.html" target="_top" xlink:title="2">
<text text-anchor="middle" x="193.71" y="-119.2" font-family="Helvetica,sans-Serif" font-size="10.00">2</text>
</a>
</g>
</g>
<!-- dir_63a9201d9a46e0f21c908ab524fba60a -->
<g id="node4" class="node">
<title>dir_63a9201d9a46e0f21c908ab524fba60a</title>
<g id="a_node4"><a xlink:href="dir_63a9201d9a46e0f21c908ab524fba60a.html" target="_top" xlink:title="cell_system">
<polygon fill="none" stroke="black" points="318.88,-108 243.88,-108 243.88,-72 318.88,-72 318.88,-108"/>
<text text-anchor="middle" x="281.38" y="-87.5" font-family="Helvetica,sans-Serif" font-size="10.00">cell_system</text>
</a>
</g>
</g>
<!-- dir_da67872344adeb77b7597d4d35f63a13&#45;&gt;dir_63a9201d9a46e0f21c908ab524fba60a -->
<g id="edge5" class="edge">
<title>dir_da67872344adeb77b7597d4d35f63a13&#45;&gt;dir_63a9201d9a46e0f21c908ab524fba60a</title>
<path fill="none" stroke="black" d="M210.61,-143.7C222.56,-134.8 237.3,-123.82 250.22,-114.2"/>
<polygon fill="black" stroke="black" points="252.48,-116.88 258.41,-108.1 248.3,-111.27 252.48,-116.88"/>
<g id="a_edge5&#45;headlabel"><a xlink:href="dir_000032_000022.html" target="_top" xlink:title="1">
<text text-anchor="middle" x="251.29" y="-118.81" font-family="Helvetica,sans-Serif" font-size="10.00">1</text>
</a>
</g>
</g>
<!-- dir_9a68ed5860e0a8928578c381602cc59f -->
<g id="node5" class="node">
<title>dir_9a68ed5860e0a8928578c381602cc59f</title>
<g id="a_node5"><a xlink:href="dir_9a68ed5860e0a8928578c381602cc59f.html" target="_top" xlink:title="stokesian_dynamics">
<polygon fill="none" stroke="black" points="131.38,-108 15.38,-108 15.38,-72 131.38,-72 131.38,-108"/>
<text text-anchor="middle" x="73.38" y="-87.5" font-family="Helvetica,sans-Serif" font-size="10.00">stokesian_dynamics</text>
</a>
</g>
</g>
<!-- dir_da67872344adeb77b7597d4d35f63a13&#45;&gt;dir_9a68ed5860e0a8928578c381602cc59f -->
<g id="edge6" class="edge">
<title>dir_da67872344adeb77b7597d4d35f63a13&#45;&gt;dir_9a68ed5860e0a8928578c381602cc59f</title>
<path fill="none" stroke="black" d="M159.49,-143.88C144.58,-134.72 126.05,-123.34 109.99,-113.48"/>
<polygon fill="black" stroke="black" points="111.72,-110.44 101.37,-108.19 108.06,-116.41 111.72,-110.44"/>
<g id="a_edge6&#45;headlabel"><a xlink:href="dir_000032_000085.html" target="_top" xlink:title="1">
<text text-anchor="middle" x="116.27" y="-107.4" font-family="Helvetica,sans-Serif" font-size="10.00">1</text>
</a>
</g>
</g>
<!-- dir_313caf1132e152dd9b58bea13a4052ca -->
<g id="node6" class="node">
<title>dir_313caf1132e152dd9b58bea13a4052ca</title>
<g id="a_node6"><a xlink:href="dir_313caf1132e152dd9b58bea13a4052ca.html" target="_top" xlink:title="utils">
<polygon fill="none" stroke="red" points="261.38,-36 207.38,-36 207.38,0 261.38,0 261.38,-36"/>
<text text-anchor="middle" x="234.38" y="-15.5" font-family="Helvetica,sans-Serif" font-size="10.00">utils</text>
</a>
</g>
</g>
<!-- dir_da67872344adeb77b7597d4d35f63a13&#45;&gt;dir_313caf1132e152dd9b58bea13a4052ca -->
<g id="edge7" class="edge">
<title>dir_da67872344adeb77b7597d4d35f63a13&#45;&gt;dir_313caf1132e152dd9b58bea13a4052ca</title>
<path fill="none" stroke="black" d="M222.57,-158.66C256.05,-154.35 304.7,-142.19 328.38,-108 337.48,-94.85 336.45,-85.82 328.38,-72 316.06,-50.91 291.91,-37.56 271.18,-29.53"/>
<polygon fill="black" stroke="black" points="272.24,-26.19 261.64,-26.11 269.87,-32.78 272.24,-26.19"/>
<g id="a_edge7&#45;headlabel"><a xlink:href="dir_000032_000001.html" target="_top" xlink:title="5">
<text text-anchor="middle" x="276.58" y="-22.23" font-family="Helvetica,sans-Serif" font-size="10.00">5</text>
</a>
</g>
</g>
<!-- dir_3243ffbc9887dfdf4ef1a321c992d802&#45;&gt;dir_7e83d1792d529f4aa7126ac7e0b3b699 -->
<g id="edge1" class="edge">
<title>dir_3243ffbc9887dfdf4ef1a321c992d802&#45;&gt;dir_7e83d1792d529f4aa7126ac7e0b3b699</title>
<path fill="none" stroke="black" d="M159.49,-71.88C144.36,-62.59 125.49,-51 109.28,-41.04"/>
<polygon fill="black" stroke="black" points="110.93,-37.96 100.58,-35.71 107.27,-43.92 110.93,-37.96"/>
<g id="a_edge1&#45;headlabel"><a xlink:href="dir_000033_000042.html" target="_top" xlink:title="3">
<text text-anchor="middle" x="115.48" y="-34.92" font-family="Helvetica,sans-Serif" font-size="10.00">3</text>
</a>
</g>
</g>
<!-- dir_3243ffbc9887dfdf4ef1a321c992d802&#45;&gt;dir_313caf1132e152dd9b58bea13a4052ca -->
<g id="edge2" class="edge">
<title>dir_3243ffbc9887dfdf4ef1a321c992d802&#45;&gt;dir_313caf1132e152dd9b58bea13a4052ca</title>
<path fill="none" stroke="black" d="M198.99,-71.7C204.51,-63.47 211.22,-53.48 217.31,-44.42"/>
<polygon fill="black" stroke="black" points="220.22,-46.36 222.89,-36.1 214.41,-42.46 220.22,-46.36"/>
<g id="a_edge2&#45;headlabel"><a xlink:href="dir_000033_000001.html" target="_top" xlink:title="4">
<text text-anchor="middle" x="220.58" y="-48.42" font-family="Helvetica,sans-Serif" font-size="10.00">4</text>
</a>
</g>
</g>
<!-- dir_63a9201d9a46e0f21c908ab524fba60a&#45;&gt;dir_313caf1132e152dd9b58bea13a4052ca -->
<g id="edge8" class="edge">
<title>dir_63a9201d9a46e0f21c908ab524fba60a&#45;&gt;dir_313caf1132e152dd9b58bea13a4052ca</title>
<path fill="none" stroke="black" d="M269.76,-71.7C264.24,-63.47 257.53,-53.48 251.44,-44.42"/>
<polygon fill="black" stroke="black" points="254.34,-42.46 245.86,-36.1 248.53,-46.36 254.34,-42.46"/>
<g id="a_edge8&#45;headlabel"><a xlink:href="dir_000022_000001.html" target="_top" xlink:title="18">
<text text-anchor="middle" x="258.7" y="-41.36" font-family="Helvetica,sans-Serif" font-size="10.00">18</text>
</a>
</g>
</g>
<!-- dir_9a68ed5860e0a8928578c381602cc59f&#45;&gt;dir_7e83d1792d529f4aa7126ac7e0b3b699 -->
<g id="edge9" class="edge">
<title>dir_9a68ed5860e0a8928578c381602cc59f&#45;&gt;dir_7e83d1792d529f4aa7126ac7e0b3b699</title>
<path fill="none" stroke="black" d="M73.38,-71.7C73.38,-63.98 73.38,-54.71 73.38,-46.11"/>
<polygon fill="black" stroke="black" points="76.88,-46.1 73.38,-36.1 69.88,-46.1 76.88,-46.1"/>
<g id="a_edge9&#45;headlabel"><a xlink:href="dir_000085_000042.html" target="_top" xlink:title="2">
<text text-anchor="middle" x="79.71" y="-47.2" font-family="Helvetica,sans-Serif" font-size="10.00">2</text>
</a>
</g>
</g>
<!-- dir_9a68ed5860e0a8928578c381602cc59f&#45;&gt;dir_313caf1132e152dd9b58bea13a4052ca -->
<g id="edge10" class="edge">
<title>dir_9a68ed5860e0a8928578c381602cc59f&#45;&gt;dir_313caf1132e152dd9b58bea13a4052ca</title>
<path fill="none" stroke="black" d="M112.76,-71.88C138.68,-60.61 172.37,-45.96 197.72,-34.94"/>
<polygon fill="black" stroke="black" points="199.22,-38.1 206.99,-30.9 196.43,-31.68 199.22,-38.1"/>
<g id="a_edge10&#45;headlabel"><a xlink:href="dir_000085_000001.html" target="_top" xlink:title="3">
<text text-anchor="middle" x="197.05" y="-39.64" font-family="Helvetica,sans-Serif" font-size="10.00">3</text>
</a>
</g>
</g>
</g>
</svg>
