<?xml version="1.0" encoding="UTF-8" standalone="no"?>
<!DOCTYPE svg PUBLIC "-//W3C//DTD SVG 1.1//EN"
 "http://www.w3.org/Graphics/SVG/1.1/DTD/svg11.dtd">
<!-- Generated by graphviz version 2.43.0 (0)
 -->
<!-- Title: galilei Pages: 1 -->
<svg width="249pt" height="295pt"
 viewBox="0.00 0.00 248.54 295.00" xmlns="http://www.w3.org/2000/svg" xmlns:xlink="http://www.w3.org/1999/xlink">
<g id="graph0" class="graph" transform="scale(1 1) rotate(0) translate(4 291)">
<title>galilei</title>
<g id="clust1" class="cluster">
<title>clusterdir_37b4caba3cb16b71e38642388211d0d2</title>
<g id="a_clust1"><a xlink:href="dir_37b4caba3cb16b71e38642388211d0d2.html" target="_top" xlink:title="script_interface">
<polygon fill="#ddddee" stroke="black" points="8,-64 8,-279 124,-279 124,-64 8,-64"/>
<text text-anchor="middle" x="66" y="-267" font-family="Helvetica,sans-Serif" font-size="10.00">script_interface</text>
</a>
</g>
</g>
<!-- dir_368b2e9c0fa1b5971ebe92fb870595ff -->
<g id="node1" class="node">
<title>dir_368b2e9c0fa1b5971ebe92fb870595ff</title>
<g id="a_node1"><a xlink:href="dir_368b2e9c0fa1b5971ebe92fb870595ff.html" target="_top" xlink:title="auto_parameters">
<polygon fill="none" stroke="black" points="116,-108 16,-108 16,-72 116,-72 116,-108"/>
<text text-anchor="middle" x="66" y="-87.5" font-family="Helvetica,sans-Serif" font-size="10.00">auto_parameters</text>
</a>
</g>
</g>
<!-- dir_ca6e05d99abe23af4622b12bb23c34df -->
<g id="node2" class="node">
<title>dir_ca6e05d99abe23af4622b12bb23c34df</title>
<g id="a_node2"><a xlink:href="dir_ca6e05d99abe23af4622b12bb23c34df.html" target="_top" xlink:title="system">
<polygon fill="none" stroke="black" points="116,-252 62,-252 62,-216 116,-216 116,-252"/>
<text text-anchor="middle" x="89" y="-231.5" font-family="Helvetica,sans-Serif" font-size="10.00">system</text>
</a>
</g>
</g>
<!-- dir_ca6e05d99abe23af4622b12bb23c34df&#45;&gt;dir_368b2e9c0fa1b5971ebe92fb870595ff -->
<g id="edge6" class="edge">
<title>dir_ca6e05d99abe23af4622b12bb23c34df&#45;&gt;dir_368b2e9c0fa1b5971ebe92fb870595ff</title>
<path fill="none" stroke="black" d="M73.39,-215.77C65.63,-206.03 57.05,-193.18 53,-180 46.72,-159.57 50.87,-135.54 56.1,-117.6"/>
<polygon fill="black" stroke="black" points="59.43,-118.66 59.14,-108.07 52.76,-116.53 59.43,-118.66"/>
<g id="a_edge6&#45;headlabel"><a xlink:href="dir_000068_000030.html" target="_top" xlink:title="2">
<text text-anchor="middle" x="61.04" y="-120.45" font-family="Helvetica,sans-Serif" font-size="10.00">2</text>
</a>
</g>
</g>
<!-- dir_dd1693f89c7c69553c01c61ba1b80d45 -->
<g id="node3" class="node">
<title>dir_dd1693f89c7c69553c01c61ba1b80d45</title>
<g id="a_node3"><a xlink:href="dir_dd1693f89c7c69553c01c61ba1b80d45.html" target="_top" xlink:title="galilei">
<polygon fill="#eeeeff" stroke="black" points="116,-180 62,-180 62,-144 116,-144 116,-180"/>
<text text-anchor="middle" x="89" y="-159.5" font-family="Helvetica,sans-Serif" font-size="10.00">galilei</text>
</a>
</g>
</g>
<!-- dir_ca6e05d99abe23af4622b12bb23c34df&#45;&gt;dir_dd1693f89c7c69553c01c61ba1b80d45 -->
<g id="edge8" class="edge">
<title>dir_ca6e05d99abe23af4622b12bb23c34df&#45;&gt;dir_dd1693f89c7c69553c01c61ba1b80d45</title>
<path fill="none" stroke="black" d="M83.08,-215.7C82.29,-207.98 82.06,-198.71 82.4,-190.11"/>
<polygon fill="black" stroke="black" points="85.9,-190.32 83.1,-180.1 78.92,-189.84 85.9,-190.32"/>
<g id="a_edge8&#45;headlabel"><a xlink:href="dir_000068_000054.html" target="_top" xlink:title="2">
<text text-anchor="middle" x="88.48" y="-191.61" font-family="Helvetica,sans-Serif" font-size="10.00">2</text>
</a>
</g>
</g>
<!-- dir_313caf1132e152dd9b58bea13a4052ca -->
<g id="node4" class="node">
<title>dir_313caf1132e152dd9b58bea13a4052ca</title>
<g id="a_node4"><a xlink:href="dir_313caf1132e152dd9b58bea13a4052ca.html" target="_top" xlink:title="utils">
<polygon fill="none" stroke="red" points="226,-36 172,-36 172,0 226,0 226,-36"/>
<text text-anchor="middle" x="199" y="-15.5" font-family="Helvetica,sans-Serif" font-size="10.00">utils</text>
</a>
</g>
</g>
<!-- dir_ca6e05d99abe23af4622b12bb23c34df&#45;&gt;dir_313caf1132e152dd9b58bea13a4052ca -->
<g id="edge5" class="edge">
<title>dir_ca6e05d99abe23af4622b12bb23c34df&#45;&gt;dir_313caf1132e152dd9b58bea13a4052ca</title>
<path fill="none" stroke="black" d="M116.26,-219.61C151.61,-200.48 211.51,-161.64 235,-108 242.84,-90.09 241.47,-82.45 235,-64 232.5,-56.86 228.33,-50.01 223.7,-43.91"/>
<polygon fill="black" stroke="black" points="226.29,-41.55 217.22,-36.08 220.9,-46.01 226.29,-41.55"/>
<g id="a_edge5&#45;headlabel"><a xlink:href="dir_000068_000001.html" target="_top" xlink:title="3">
<text text-anchor="middle" x="230.77" y="-40" font-family="Helvetica,sans-Serif" font-size="10.00">3</text>
</a>
</g>
</g>
<!-- dir_aebb8dcc11953d78e620bbef0b9e2183 -->
<g id="node5" class="node">
<title>dir_aebb8dcc11953d78e620bbef0b9e2183</title>
<g id="a_node5"><a xlink:href="dir_aebb8dcc11953d78e620bbef0b9e2183.html" target="_top" xlink:title="core">
<polygon fill="none" stroke="red" points="226,-108 172,-108 172,-72 226,-72 226,-108"/>
<text text-anchor="middle" x="199" y="-87.5" font-family="Helvetica,sans-Serif" font-size="10.00">core</text>
</a>
</g>
</g>
<!-- dir_ca6e05d99abe23af4622b12bb23c34df&#45;&gt;dir_aebb8dcc11953d78e620bbef0b9e2183 -->
<g id="edge7" class="edge">
<title>dir_ca6e05d99abe23af4622b12bb23c34df&#45;&gt;dir_aebb8dcc11953d78e620bbef0b9e2183</title>
<path fill="none" stroke="black" d="M102.27,-215.87C121.51,-191.03 157.29,-144.85 179.52,-116.14"/>
<polygon fill="black" stroke="black" points="182.33,-118.24 185.68,-108.19 176.79,-113.95 182.33,-118.24"/>
<g id="a_edge7&#45;headlabel"><a xlink:href="dir_000068_000005.html" target="_top" xlink:title="18">
<text text-anchor="middle" x="182.37" y="-120.32" font-family="Helvetica,sans-Serif" font-size="10.00">18</text>
</a>
</g>
</g>
<!-- dir_dd1693f89c7c69553c01c61ba1b80d45&#45;&gt;dir_368b2e9c0fa1b5971ebe92fb870595ff -->
<g id="edge2" class="edge">
<title>dir_dd1693f89c7c69553c01c61ba1b80d45&#45;&gt;dir_368b2e9c0fa1b5971ebe92fb870595ff</title>
<path fill="none" stroke="black" d="M83.31,-143.7C80.75,-135.9 77.67,-126.51 74.82,-117.83"/>
<polygon fill="black" stroke="black" points="78.07,-116.51 71.62,-108.1 71.42,-118.7 78.07,-116.51"/>
<g id="a_edge2&#45;headlabel"><a xlink:href="dir_000054_000030.html" target="_top" xlink:title="2">
<text text-anchor="middle" x="81.89" y="-116.54" font-family="Helvetica,sans-Serif" font-size="10.00">2</text>
</a>
</g>
</g>
<!-- dir_dd1693f89c7c69553c01c61ba1b80d45&#45;&gt;dir_ca6e05d99abe23af4622b12bb23c34df -->
<g id="edge4" class="edge">
<title>dir_dd1693f89c7c69553c01c61ba1b80d45&#45;&gt;dir_ca6e05d99abe23af4622b12bb23c34df</title>
<path fill="none" stroke="black" d="M94.9,-180.1C95.7,-187.79 95.94,-197.05 95.6,-205.67"/>
<polygon fill="black" stroke="black" points="92.11,-205.48 94.92,-215.7 99.09,-205.96 92.11,-205.48"/>
<g id="a_edge4&#45;headlabel"><a xlink:href="dir_000054_000068.html" target="_top" xlink:title="2">
<text text-anchor="middle" x="89.52" y="-199.2" font-family="Helvetica,sans-Serif" font-size="10.00">2</text>
</a>
</g>
</g>
<!-- dir_dd1693f89c7c69553c01c61ba1b80d45&#45;&gt;dir_313caf1132e152dd9b58bea13a4052ca -->
<g id="edge1" class="edge">
<title>dir_dd1693f89c7c69553c01c61ba1b80d45&#45;&gt;dir_313caf1132e152dd9b58bea13a4052ca</title>
<path fill="none" stroke="black" d="M101.98,-143.74C116.66,-124.27 141.35,-91.71 163,-64 168.11,-57.46 173.69,-50.43 178.9,-43.92"/>
<polygon fill="black" stroke="black" points="181.7,-46.01 185.23,-36.02 176.24,-41.63 181.7,-46.01"/>
<g id="a_edge1&#45;headlabel"><a xlink:href="dir_000054_000001.html" target="_top" xlink:title="1">
<text text-anchor="middle" x="181.67" y="-48.09" font-family="Helvetica,sans-Serif" font-size="10.00">1</text>
</a>
</g>
</g>
<!-- dir_dd1693f89c7c69553c01c61ba1b80d45&#45;&gt;dir_aebb8dcc11953d78e620bbef0b9e2183 -->
<g id="edge3" class="edge">
<title>dir_dd1693f89c7c69553c01c61ba1b80d45&#45;&gt;dir_aebb8dcc11953d78e620bbef0b9e2183</title>
<path fill="none" stroke="black" d="M115.91,-143.88C130.16,-134.81 147.85,-123.55 163.24,-113.76"/>
<polygon fill="black" stroke="black" points="165.43,-116.51 171.99,-108.19 161.67,-110.61 165.43,-116.51"/>
<g id="a_edge3&#45;headlabel"><a xlink:href="dir_000054_000005.html" target="_top" xlink:title="2">
<text text-anchor="middle" x="163.92" y="-118.34" font-family="Helvetica,sans-Serif" font-size="10.00">2</text>
</a>
</g>
</g>
<!-- dir_aebb8dcc11953d78e620bbef0b9e2183&#45;&gt;dir_313caf1132e152dd9b58bea13a4052ca -->
<g id="edge9" class="edge">
<title>dir_aebb8dcc11953d78e620bbef0b9e2183&#45;&gt;dir_313caf1132e152dd9b58bea13a4052ca</title>
<path fill="none" stroke="black" d="M199,-71.7C199,-63.98 199,-54.71 199,-46.11"/>
<polygon fill="black" stroke="black" points="202.5,-46.1 199,-36.1 195.5,-46.1 202.5,-46.1"/>
<g id="a_edge9&#45;headlabel"><a xlink:href="dir_000005_000001.html" target="_top" xlink:title="415">
<text text-anchor="middle" x="205.34" y="-47.2" font-family="Helvetica,sans-Serif" font-size="10.00">415</text>
</a>
</g>
</g>
</g>
</svg>
