<?xml version="1.0" encoding="UTF-8" standalone="no"?>
<!DOCTYPE svg PUBLIC "-//W3C//DTD SVG 1.1//EN"
 "http://www.w3.org/Graphics/SVG/1.1/DTD/svg11.dtd">
<!-- Generated by graphviz version 2.43.0 (0)
 -->
<!-- Title: cell_system Pages: 1 -->
<svg width="249pt" height="295pt"
 viewBox="0.00 0.00 248.62 295.00" xmlns="http://www.w3.org/2000/svg" xmlns:xlink="http://www.w3.org/1999/xlink">
<g id="graph0" class="graph" transform="scale(1 1) rotate(0) translate(4 291)">
<title>cell_system</title>
<g id="clust1" class="cluster">
<title>clusterdir_37b4caba3cb16b71e38642388211d0d2</title>
<g id="a_clust1"><a xlink:href="dir_37b4caba3cb16b71e38642388211d0d2.html" target="_top" xlink:title="script_interface">
<polygon fill="#ddddee" stroke="black" points="8,-64 8,-279 124,-279 124,-64 8,-64"/>
<text text-anchor="middle" x="66" y="-267" font-family="Helvetica,sans-Serif" font-size="10.00">script_interface</text>
</a>
</g>
</g>
<!-- dir_368b2e9c0fa1b5971ebe92fb870595ff -->
<g id="node1" class="node">
<title>dir_368b2e9c0fa1b5971ebe92fb870595ff</title>
<g id="a_node1"><a xlink:href="dir_368b2e9c0fa1b5971ebe92fb870595ff.html" target="_top" xlink:title="auto_parameters">
<polygon fill="none" stroke="black" points="116,-108 16,-108 16,-72 116,-72 116,-108"/>
<text text-anchor="middle" x="66" y="-87.5" font-family="Helvetica,sans-Serif" font-size="10.00">auto_parameters</text>
</a>
</g>
</g>
<!-- dir_ca6e05d99abe23af4622b12bb23c34df -->
<g id="node2" class="node">
<title>dir_ca6e05d99abe23af4622b12bb23c34df</title>
<g id="a_node2"><a xlink:href="dir_ca6e05d99abe23af4622b12bb23c34df.html" target="_top" xlink:title="system">
<polygon fill="none" stroke="black" points="106,-252 52,-252 52,-216 106,-216 106,-252"/>
<text text-anchor="middle" x="79" y="-231.5" font-family="Helvetica,sans-Serif" font-size="10.00">system</text>
</a>
</g>
</g>
<!-- dir_ca6e05d99abe23af4622b12bb23c34df&#45;&gt;dir_368b2e9c0fa1b5971ebe92fb870595ff -->
<g id="edge2" class="edge">
<title>dir_ca6e05d99abe23af4622b12bb23c34df&#45;&gt;dir_368b2e9c0fa1b5971ebe92fb870595ff</title>
<path fill="none" stroke="black" d="M57.73,-215.7C47.89,-206.31 37.24,-193.8 32,-180 26.32,-165.04 27.5,-159.35 32,-144 34.8,-134.45 39.91,-124.98 45.33,-116.76"/>
<polygon fill="black" stroke="black" points="48.35,-118.56 51.25,-108.37 42.62,-114.52 48.35,-118.56"/>
<g id="a_edge2&#45;headlabel"><a xlink:href="dir_000068_000030.html" target="_top" xlink:title="2">
<text text-anchor="middle" x="48.6" y="-120.63" font-family="Helvetica,sans-Serif" font-size="10.00">2</text>
</a>
</g>
</g>
<!-- dir_f3983a14ec4afaf46cb861123263e81c -->
<g id="node3" class="node">
<title>dir_f3983a14ec4afaf46cb861123263e81c</title>
<g id="a_node3"><a xlink:href="dir_f3983a14ec4afaf46cb861123263e81c.html" target="_top" xlink:title="cell_system">
<polygon fill="#eeeeff" stroke="black" points="116.5,-180 41.5,-180 41.5,-144 116.5,-144 116.5,-180"/>
<text text-anchor="middle" x="79" y="-159.5" font-family="Helvetica,sans-Serif" font-size="10.00">cell_system</text>
</a>
</g>
</g>
<!-- dir_ca6e05d99abe23af4622b12bb23c34df&#45;&gt;dir_f3983a14ec4afaf46cb861123263e81c -->
<g id="edge4" class="edge">
<title>dir_ca6e05d99abe23af4622b12bb23c34df&#45;&gt;dir_f3983a14ec4afaf46cb861123263e81c</title>
<path fill="none" stroke="black" d="M73.08,-215.7C72.29,-207.98 72.06,-198.71 72.4,-190.11"/>
<polygon fill="black" stroke="black" points="75.9,-190.32 73.1,-180.1 68.92,-189.84 75.9,-190.32"/>
<g id="a_edge4&#45;headlabel"><a xlink:href="dir_000068_000044.html" target="_top" xlink:title="1">
<text text-anchor="middle" x="78.48" y="-191.61" font-family="Helvetica,sans-Serif" font-size="10.00">1</text>
</a>
</g>
</g>
<!-- dir_313caf1132e152dd9b58bea13a4052ca -->
<g id="node4" class="node">
<title>dir_313caf1132e152dd9b58bea13a4052ca</title>
<g id="a_node4"><a xlink:href="dir_313caf1132e152dd9b58bea13a4052ca.html" target="_top" xlink:title="utils">
<polygon fill="none" stroke="red" points="226,-36 172,-36 172,0 226,0 226,-36"/>
<text text-anchor="middle" x="199" y="-15.5" font-family="Helvetica,sans-Serif" font-size="10.00">utils</text>
</a>
</g>
</g>
<!-- dir_ca6e05d99abe23af4622b12bb23c34df&#45;&gt;dir_313caf1132e152dd9b58bea13a4052ca -->
<g id="edge1" class="edge">
<title>dir_ca6e05d99abe23af4622b12bb23c34df&#45;&gt;dir_313caf1132e152dd9b58bea13a4052ca</title>
<path fill="none" stroke="black" d="M106.26,-221.11C143.79,-202.99 209.62,-164.51 235,-108 243.01,-90.16 241.47,-82.45 235,-64 232.5,-56.86 228.33,-50.01 223.7,-43.91"/>
<polygon fill="black" stroke="black" points="226.29,-41.55 217.22,-36.08 220.9,-46.01 226.29,-41.55"/>
<g id="a_edge1&#45;headlabel"><a xlink:href="dir_000068_000001.html" target="_top" xlink:title="3">
<text text-anchor="middle" x="230.77" y="-40" font-family="Helvetica,sans-Serif" font-size="10.00">3</text>
</a>
</g>
</g>
<!-- dir_aebb8dcc11953d78e620bbef0b9e2183 -->
<g id="node5" class="node">
<title>dir_aebb8dcc11953d78e620bbef0b9e2183</title>
<g id="a_node5"><a xlink:href="dir_aebb8dcc11953d78e620bbef0b9e2183.html" target="_top" xlink:title="core">
<polygon fill="none" stroke="red" points="226,-108 172,-108 172,-72 226,-72 226,-108"/>
<text text-anchor="middle" x="199" y="-87.5" font-family="Helvetica,sans-Serif" font-size="10.00">core</text>
</a>
</g>
</g>
<!-- dir_ca6e05d99abe23af4622b12bb23c34df&#45;&gt;dir_aebb8dcc11953d78e620bbef0b9e2183 -->
<g id="edge3" class="edge">
<title>dir_ca6e05d99abe23af4622b12bb23c34df&#45;&gt;dir_aebb8dcc11953d78e620bbef0b9e2183</title>
<path fill="none" stroke="black" d="M94.01,-215.89C103.04,-205.55 114.75,-192.07 125,-180 143.28,-158.49 163.78,-133.78 178.56,-115.87"/>
<polygon fill="black" stroke="black" points="181.26,-118.09 184.92,-108.15 175.86,-113.64 181.26,-118.09"/>
<g id="a_edge3&#45;headlabel"><a xlink:href="dir_000068_000005.html" target="_top" xlink:title="18">
<text text-anchor="middle" x="181.17" y="-120.17" font-family="Helvetica,sans-Serif" font-size="10.00">18</text>
</a>
</g>
</g>
<!-- dir_f3983a14ec4afaf46cb861123263e81c&#45;&gt;dir_368b2e9c0fa1b5971ebe92fb870595ff -->
<g id="edge7" class="edge">
<title>dir_f3983a14ec4afaf46cb861123263e81c&#45;&gt;dir_368b2e9c0fa1b5971ebe92fb870595ff</title>
<path fill="none" stroke="black" d="M75.79,-143.7C74.35,-135.98 72.63,-126.71 71.04,-118.11"/>
<polygon fill="black" stroke="black" points="74.44,-117.3 69.18,-108.1 67.56,-118.58 74.44,-117.3"/>
<g id="a_edge7&#45;headlabel"><a xlink:href="dir_000044_000030.html" target="_top" xlink:title="1">
<text text-anchor="middle" x="77.89" y="-117.81" font-family="Helvetica,sans-Serif" font-size="10.00">1</text>
</a>
</g>
</g>
<!-- dir_f3983a14ec4afaf46cb861123263e81c&#45;&gt;dir_ca6e05d99abe23af4622b12bb23c34df -->
<g id="edge9" class="edge">
<title>dir_f3983a14ec4afaf46cb861123263e81c&#45;&gt;dir_ca6e05d99abe23af4622b12bb23c34df</title>
<path fill="none" stroke="black" d="M84.9,-180.1C85.7,-187.79 85.94,-197.05 85.6,-205.67"/>
<polygon fill="black" stroke="black" points="82.11,-205.48 84.92,-215.7 89.09,-205.96 82.11,-205.48"/>
<g id="a_edge9&#45;headlabel"><a xlink:href="dir_000044_000068.html" target="_top" xlink:title="2">
<text text-anchor="middle" x="79.52" y="-199.2" font-family="Helvetica,sans-Serif" font-size="10.00">2</text>
</a>
</g>
</g>
<!-- dir_f3983a14ec4afaf46cb861123263e81c&#45;&gt;dir_313caf1132e152dd9b58bea13a4052ca -->
<g id="edge6" class="edge">
<title>dir_f3983a14ec4afaf46cb861123263e81c&#45;&gt;dir_313caf1132e152dd9b58bea13a4052ca</title>
<path fill="none" stroke="black" d="M94.01,-143.89C103.04,-133.55 114.75,-120.07 125,-108 143.28,-86.49 163.78,-61.78 178.56,-43.87"/>
<polygon fill="black" stroke="black" points="181.26,-46.09 184.92,-36.15 175.86,-41.64 181.26,-46.09"/>
<g id="a_edge6&#45;headlabel"><a xlink:href="dir_000044_000001.html" target="_top" xlink:title="3">
<text text-anchor="middle" x="181.17" y="-48.17" font-family="Helvetica,sans-Serif" font-size="10.00">3</text>
</a>
</g>
</g>
<!-- dir_f3983a14ec4afaf46cb861123263e81c&#45;&gt;dir_aebb8dcc11953d78e620bbef0b9e2183 -->
<g id="edge8" class="edge">
<title>dir_f3983a14ec4afaf46cb861123263e81c&#45;&gt;dir_aebb8dcc11953d78e620bbef0b9e2183</title>
<path fill="none" stroke="black" d="M108.36,-143.88C124.9,-134.23 145.69,-122.1 163.19,-111.89"/>
<polygon fill="black" stroke="black" points="165.13,-114.81 172,-106.75 161.6,-108.77 165.13,-114.81"/>
<g id="a_edge8&#45;headlabel"><a xlink:href="dir_000044_000005.html" target="_top" xlink:title="15">
<text text-anchor="middle" x="163.45" y="-116.58" font-family="Helvetica,sans-Serif" font-size="10.00">15</text>
</a>
</g>
</g>
<!-- dir_aebb8dcc11953d78e620bbef0b9e2183&#45;&gt;dir_313caf1132e152dd9b58bea13a4052ca -->
<g id="edge5" class="edge">
<title>dir_aebb8dcc11953d78e620bbef0b9e2183&#45;&gt;dir_313caf1132e152dd9b58bea13a4052ca</title>
<path fill="none" stroke="black" d="M199,-71.7C199,-63.98 199,-54.71 199,-46.11"/>
<polygon fill="black" stroke="black" points="202.5,-46.1 199,-36.1 195.5,-46.1 202.5,-46.1"/>
<g id="a_edge5&#45;headlabel"><a xlink:href="dir_000005_000001.html" target="_top" xlink:title="415">
<text text-anchor="middle" x="205.34" y="-47.2" font-family="Helvetica,sans-Serif" font-size="10.00">415</text>
</a>
</g>
</g>
</g>
</svg>
