<?xml version="1.0" encoding="UTF-8" standalone="no"?>
<!DOCTYPE svg PUBLIC "-//W3C//DTD SVG 1.1//EN"
 "http://www.w3.org/Graphics/SVG/1.1/DTD/svg11.dtd">
<!-- Generated by graphviz version 2.43.0 (0)
 -->
<!-- Title: electrostatics Pages: 1 -->
<svg width="469pt" height="295pt"
 viewBox="0.00 0.00 468.82 295.00" xmlns="http://www.w3.org/2000/svg" xmlns:xlink="http://www.w3.org/1999/xlink">
<g id="graph0" class="graph" transform="scale(1 1) rotate(0) translate(4 291)">
<title>electrostatics</title>
<g id="clust1" class="cluster">
<title>clusterdir_aebb8dcc11953d78e620bbef0b9e2183</title>
<g id="a_clust1"><a xlink:href="dir_aebb8dcc11953d78e620bbef0b9e2183.html" target="_top" xlink:title="core">
<polygon fill="#ddddee" stroke="black" points="175,-208 175,-279 275,-279 275,-208 175,-208"/>
<text text-anchor="middle" x="225" y="-267" font-family="Helvetica,sans-Serif" font-size="10.00">core</text>
</a>
</g>
</g>
<!-- dir_abb2ac73e6454492de0dc00883816828 -->
<g id="node1" class="node">
<title>dir_abb2ac73e6454492de0dc00883816828</title>
<g id="a_node1"><a xlink:href="dir_abb2ac73e6454492de0dc00883816828.html" target="_top" xlink:title="electrostatics">
<polygon fill="#eeeeff" stroke="black" points="266.5,-252 183.5,-252 183.5,-216 266.5,-216 266.5,-252"/>
<text text-anchor="middle" x="225" y="-231.5" font-family="Helvetica,sans-Serif" font-size="10.00">electrostatics</text>
</a>
</g>
</g>
<!-- dir_7e83d1792d529f4aa7126ac7e0b3b699 -->
<g id="node2" class="node">
<title>dir_7e83d1792d529f4aa7126ac7e0b3b699</title>
<g id="a_node2"><a xlink:href="dir_7e83d1792d529f4aa7126ac7e0b3b699.html" target="_top" xlink:title="config">
<polygon fill="none" stroke="black" points="226,-108 172,-108 172,-72 226,-72 226,-108"/>
<text text-anchor="middle" x="199" y="-87.5" font-family="Helvetica,sans-Serif" font-size="10.00">config</text>
</a>
</g>
</g>
<!-- dir_abb2ac73e6454492de0dc00883816828&#45;&gt;dir_7e83d1792d529f4aa7126ac7e0b3b699 -->
<g id="edge1" class="edge">
<title>dir_abb2ac73e6454492de0dc00883816828&#45;&gt;dir_7e83d1792d529f4aa7126ac7e0b3b699</title>
<path fill="none" stroke="black" d="M221.86,-215.87C217.43,-191.67 209.29,-147.21 204.02,-118.39"/>
<polygon fill="black" stroke="black" points="207.39,-117.4 202.15,-108.19 200.51,-118.66 207.39,-117.4"/>
<g id="a_edge1&#45;headlabel"><a xlink:href="dir_000011_000042.html" target="_top" xlink:title="26">
<text text-anchor="middle" x="210.83" y="-117.92" font-family="Helvetica,sans-Serif" font-size="10.00">26</text>
</a>
</g>
</g>
<!-- dir_7dbd9d3bbc5ec1ce3207b09771479ec4 -->
<g id="node3" class="node">
<title>dir_7dbd9d3bbc5ec1ce3207b09771479ec4</title>
<g id="a_node3"><a xlink:href="dir_7dbd9d3bbc5ec1ce3207b09771479ec4.html" target="_top" xlink:title="actor">
<polygon fill="none" stroke="black" points="54,-180 0,-180 0,-144 54,-144 54,-180"/>
<text text-anchor="middle" x="27" y="-159.5" font-family="Helvetica,sans-Serif" font-size="10.00">actor</text>
</a>
</g>
</g>
<!-- dir_abb2ac73e6454492de0dc00883816828&#45;&gt;dir_7dbd9d3bbc5ec1ce3207b09771479ec4 -->
<g id="edge2" class="edge">
<title>dir_abb2ac73e6454492de0dc00883816828&#45;&gt;dir_7dbd9d3bbc5ec1ce3207b09771479ec4</title>
<path fill="none" stroke="black" d="M183.41,-219.81C151.61,-209.52 106.78,-194.57 68,-180 66.6,-179.48 65.18,-178.93 63.75,-178.38"/>
<polygon fill="black" stroke="black" points="64.83,-175.04 54.25,-174.6 62.24,-181.55 64.83,-175.04"/>
<g id="a_edge2&#45;headlabel"><a xlink:href="dir_000011_000080.html" target="_top" xlink:title="9">
<text text-anchor="middle" x="69.22" y="-171.23" font-family="Helvetica,sans-Serif" font-size="10.00">9</text>
</a>
</g>
</g>
<!-- dir_63a9201d9a46e0f21c908ab524fba60a -->
<g id="node4" class="node">
<title>dir_63a9201d9a46e0f21c908ab524fba60a</title>
<g id="a_node4"><a xlink:href="dir_63a9201d9a46e0f21c908ab524fba60a.html" target="_top" xlink:title="cell_system">
<polygon fill="none" stroke="black" points="399.5,-108 324.5,-108 324.5,-72 399.5,-72 399.5,-108"/>
<text text-anchor="middle" x="362" y="-87.5" font-family="Helvetica,sans-Serif" font-size="10.00">cell_system</text>
</a>
</g>
</g>
<!-- dir_abb2ac73e6454492de0dc00883816828&#45;&gt;dir_63a9201d9a46e0f21c908ab524fba60a -->
<g id="edge3" class="edge">
<title>dir_abb2ac73e6454492de0dc00883816828&#45;&gt;dir_63a9201d9a46e0f21c908ab524fba60a</title>
<path fill="none" stroke="black" d="M266.81,-228.47C321.99,-221.54 414.55,-206.25 435,-180 444.83,-167.38 442.27,-158.25 435,-144 428.77,-131.77 418.24,-121.7 407.1,-113.75"/>
<polygon fill="black" stroke="black" points="408.79,-110.67 398.51,-108.08 404.93,-116.51 408.79,-110.67"/>
<g id="a_edge3&#45;headlabel"><a xlink:href="dir_000011_000022.html" target="_top" xlink:title="5">
<text text-anchor="middle" x="413.35" y="-107.78" font-family="Helvetica,sans-Serif" font-size="10.00">5</text>
</a>
</g>
</g>
<!-- dir_3ce7a3757f324457bb78d6b21f209c14 -->
<g id="node5" class="node">
<title>dir_3ce7a3757f324457bb78d6b21f209c14</title>
<g id="a_node5"><a xlink:href="dir_3ce7a3757f324457bb78d6b21f209c14.html" target="_top" xlink:title="scafacos">
<polygon fill="none" stroke="black" points="169.5,-180 110.5,-180 110.5,-144 169.5,-144 169.5,-180"/>
<text text-anchor="middle" x="140" y="-159.5" font-family="Helvetica,sans-Serif" font-size="10.00">scafacos</text>
</a>
</g>
</g>
<!-- dir_abb2ac73e6454492de0dc00883816828&#45;&gt;dir_3ce7a3757f324457bb78d6b21f209c14 -->
<g id="edge4" class="edge">
<title>dir_abb2ac73e6454492de0dc00883816828&#45;&gt;dir_3ce7a3757f324457bb78d6b21f209c14</title>
<path fill="none" stroke="black" d="M203.99,-215.7C193.28,-206.88 180.11,-196.03 168.5,-186.47"/>
<polygon fill="black" stroke="black" points="170.71,-183.76 160.77,-180.1 166.26,-189.16 170.71,-183.76"/>
<g id="a_edge4&#45;headlabel"><a xlink:href="dir_000011_000084.html" target="_top" xlink:title="2">
<text text-anchor="middle" x="175.29" y="-181.35" font-family="Helvetica,sans-Serif" font-size="10.00">2</text>
</a>
</g>
</g>
<!-- dir_6b1bc8dbed61aad9285ea21a86c5efa5 -->
<g id="node6" class="node">
<title>dir_6b1bc8dbed61aad9285ea21a86c5efa5</title>
<g id="a_node6"><a xlink:href="dir_6b1bc8dbed61aad9285ea21a86c5efa5.html" target="_top" xlink:title="scafacos">
<polygon fill="none" stroke="red" points="115.5,-108 56.5,-108 56.5,-72 115.5,-72 115.5,-108"/>
<text text-anchor="middle" x="86" y="-87.5" font-family="Helvetica,sans-Serif" font-size="10.00">scafacos</text>
</a>
</g>
</g>
<!-- dir_abb2ac73e6454492de0dc00883816828&#45;&gt;dir_6b1bc8dbed61aad9285ea21a86c5efa5 -->
<g id="edge5" class="edge">
<title>dir_abb2ac73e6454492de0dc00883816828&#45;&gt;dir_6b1bc8dbed61aad9285ea21a86c5efa5</title>
<path fill="none" stroke="black" d="M183.29,-225.86C155.71,-218.9 121.06,-205.48 101,-180 87.41,-162.73 84.2,-137.67 84.09,-118.54"/>
<polygon fill="black" stroke="black" points="87.59,-118.41 84.31,-108.34 80.59,-118.26 87.59,-118.41"/>
<g id="a_edge5&#45;headlabel"><a xlink:href="dir_000011_000047.html" target="_top" xlink:title="1">
<text text-anchor="middle" x="90.35" y="-119.56" font-family="Helvetica,sans-Serif" font-size="10.00">1</text>
</a>
</g>
</g>
<!-- dir_a9eeef4ea84c0f2ac1fcae7dc81166a9 -->
<g id="node7" class="node">
<title>dir_a9eeef4ea84c0f2ac1fcae7dc81166a9</title>
<g id="a_node7"><a xlink:href="dir_a9eeef4ea84c0f2ac1fcae7dc81166a9.html" target="_top" xlink:title="p3m">
<polygon fill="none" stroke="black" points="280,-180 226,-180 226,-144 280,-144 280,-180"/>
<text text-anchor="middle" x="253" y="-159.5" font-family="Helvetica,sans-Serif" font-size="10.00">p3m</text>
</a>
</g>
</g>
<!-- dir_abb2ac73e6454492de0dc00883816828&#45;&gt;dir_a9eeef4ea84c0f2ac1fcae7dc81166a9 -->
<g id="edge6" class="edge">
<title>dir_abb2ac73e6454492de0dc00883816828&#45;&gt;dir_a9eeef4ea84c0f2ac1fcae7dc81166a9</title>
<path fill="none" stroke="black" d="M231.92,-215.7C235.07,-207.81 238.88,-198.3 242.38,-189.55"/>
<polygon fill="black" stroke="black" points="245.69,-190.69 246.16,-180.1 239.19,-188.09 245.69,-190.69"/>
<g id="a_edge6&#45;headlabel"><a xlink:href="dir_000011_000041.html" target="_top" xlink:title="9">
<text text-anchor="middle" x="247" y="-192.58" font-family="Helvetica,sans-Serif" font-size="10.00">9</text>
</a>
</g>
</g>
<!-- dir_71fbd1fadb2683aa04f911343186866e -->
<g id="node8" class="node">
<title>dir_71fbd1fadb2683aa04f911343186866e</title>
<g id="a_node8"><a xlink:href="dir_71fbd1fadb2683aa04f911343186866e.html" target="_top" xlink:title="grid_based_algorithms">
<polygon fill="none" stroke="red" points="426,-180 298,-180 298,-144 426,-144 426,-180"/>
<text text-anchor="middle" x="362" y="-159.5" font-family="Helvetica,sans-Serif" font-size="10.00">grid_based_algorithms</text>
</a>
</g>
</g>
<!-- dir_abb2ac73e6454492de0dc00883816828&#45;&gt;dir_71fbd1fadb2683aa04f911343186866e -->
<g id="edge7" class="edge">
<title>dir_abb2ac73e6454492de0dc00883816828&#45;&gt;dir_71fbd1fadb2683aa04f911343186866e</title>
<path fill="none" stroke="black" d="M258.51,-215.88C276.84,-206.51 299.74,-194.81 319.33,-184.8"/>
<polygon fill="black" stroke="black" points="321.04,-187.86 328.36,-180.19 317.86,-181.62 321.04,-187.86"/>
<g id="a_edge7&#45;headlabel"><a xlink:href="dir_000011_000060.html" target="_top" xlink:title="1">
<text text-anchor="middle" x="319.14" y="-189.52" font-family="Helvetica,sans-Serif" font-size="10.00">1</text>
</a>
</g>
</g>
<!-- dir_313caf1132e152dd9b58bea13a4052ca -->
<g id="node9" class="node">
<title>dir_313caf1132e152dd9b58bea13a4052ca</title>
<g id="a_node9"><a xlink:href="dir_313caf1132e152dd9b58bea13a4052ca.html" target="_top" xlink:title="utils">
<polygon fill="none" stroke="red" points="302,-36 248,-36 248,0 302,0 302,-36"/>
<text text-anchor="middle" x="275" y="-15.5" font-family="Helvetica,sans-Serif" font-size="10.00">utils</text>
</a>
</g>
</g>
<!-- dir_abb2ac73e6454492de0dc00883816828&#45;&gt;dir_313caf1132e152dd9b58bea13a4052ca -->
<g id="edge8" class="edge">
<title>dir_abb2ac73e6454492de0dc00883816828&#45;&gt;dir_313caf1132e152dd9b58bea13a4052ca</title>
<path fill="none" stroke="black" d="M266.84,-229.38C326.2,-223.29 430.19,-208.72 453,-180 483.33,-141.81 411.06,-74.56 408,-72 380.13,-48.73 340.77,-34.76 312.1,-27.05"/>
<polygon fill="black" stroke="black" points="312.62,-23.57 302.06,-24.49 310.89,-30.36 312.62,-23.57"/>
<g id="a_edge8&#45;headlabel"><a xlink:href="dir_000011_000001.html" target="_top" xlink:title="50">
<text text-anchor="middle" x="316.8" y="-19.21" font-family="Helvetica,sans-Serif" font-size="10.00">50</text>
</a>
</g>
</g>
<!-- dir_7dbd9d3bbc5ec1ce3207b09771479ec4&#45;&gt;dir_313caf1132e152dd9b58bea13a4052ca -->
<g id="edge9" class="edge">
<title>dir_7dbd9d3bbc5ec1ce3207b09771479ec4&#45;&gt;dir_313caf1132e152dd9b58bea13a4052ca</title>
<path fill="none" stroke="black" d="M25.83,-143.73C25.47,-123.7 28.14,-90.99 47,-72 73.41,-45.39 180.2,-29.61 237.77,-22.87"/>
<polygon fill="black" stroke="black" points="238.38,-26.32 247.92,-21.71 237.59,-19.36 238.38,-26.32"/>
<g id="a_edge9&#45;headlabel"><a xlink:href="dir_000080_000001.html" target="_top" xlink:title="1">
<text text-anchor="middle" x="235.13" y="-27.05" font-family="Helvetica,sans-Serif" font-size="10.00">1</text>
</a>
</g>
</g>
<!-- dir_63a9201d9a46e0f21c908ab524fba60a&#45;&gt;dir_313caf1132e152dd9b58bea13a4052ca -->
<g id="edge10" class="edge">
<title>dir_63a9201d9a46e0f21c908ab524fba60a&#45;&gt;dir_313caf1132e152dd9b58bea13a4052ca</title>
<path fill="none" stroke="black" d="M340.49,-71.7C329.54,-62.88 316.05,-52.03 304.18,-42.47"/>
<polygon fill="black" stroke="black" points="306.24,-39.65 296.26,-36.1 301.86,-45.1 306.24,-39.65"/>
<g id="a_edge10&#45;headlabel"><a xlink:href="dir_000022_000001.html" target="_top" xlink:title="18">
<text text-anchor="middle" x="310.82" y="-37.19" font-family="Helvetica,sans-Serif" font-size="10.00">18</text>
</a>
</g>
</g>
<!-- dir_3ce7a3757f324457bb78d6b21f209c14&#45;&gt;dir_7e83d1792d529f4aa7126ac7e0b3b699 -->
<g id="edge11" class="edge">
<title>dir_3ce7a3757f324457bb78d6b21f209c14&#45;&gt;dir_7e83d1792d529f4aa7126ac7e0b3b699</title>
<path fill="none" stroke="black" d="M154.58,-143.7C161.66,-135.3 170.28,-125.07 178.05,-115.86"/>
<polygon fill="black" stroke="black" points="180.81,-118.01 184.58,-108.1 175.46,-113.49 180.81,-118.01"/>
<g id="a_edge11&#45;headlabel"><a xlink:href="dir_000084_000042.html" target="_top" xlink:title="4">
<text text-anchor="middle" x="180.67" y="-120.08" font-family="Helvetica,sans-Serif" font-size="10.00">4</text>
</a>
</g>
</g>
<!-- dir_3ce7a3757f324457bb78d6b21f209c14&#45;&gt;dir_6b1bc8dbed61aad9285ea21a86c5efa5 -->
<g id="edge12" class="edge">
<title>dir_3ce7a3757f324457bb78d6b21f209c14&#45;&gt;dir_6b1bc8dbed61aad9285ea21a86c5efa5</title>
<path fill="none" stroke="black" d="M126.65,-143.7C120.24,-135.39 112.44,-125.28 105.39,-116.14"/>
<polygon fill="black" stroke="black" points="108.07,-113.88 99.19,-108.1 102.53,-118.16 108.07,-113.88"/>
<g id="a_edge12&#45;headlabel"><a xlink:href="dir_000084_000047.html" target="_top" xlink:title="1">
<text text-anchor="middle" x="112.52" y="-112.5" font-family="Helvetica,sans-Serif" font-size="10.00">1</text>
</a>
</g>
</g>
<!-- dir_3ce7a3757f324457bb78d6b21f209c14&#45;&gt;dir_313caf1132e152dd9b58bea13a4052ca -->
<g id="edge13" class="edge">
<title>dir_3ce7a3757f324457bb78d6b21f209c14&#45;&gt;dir_313caf1132e152dd9b58bea13a4052ca</title>
<path fill="none" stroke="black" d="M140.25,-143.66C141.4,-124.16 146.02,-92.54 163,-72 182.03,-48.98 213.37,-35.34 238.07,-27.67"/>
<polygon fill="black" stroke="black" points="239.22,-30.98 247.85,-24.84 237.27,-24.26 239.22,-30.98"/>
<g id="a_edge13&#45;headlabel"><a xlink:href="dir_000084_000001.html" target="_top" xlink:title="2">
<text text-anchor="middle" x="236.56" y="-32.21" font-family="Helvetica,sans-Serif" font-size="10.00">2</text>
</a>
</g>
</g>
<!-- dir_a9eeef4ea84c0f2ac1fcae7dc81166a9&#45;&gt;dir_7e83d1792d529f4aa7126ac7e0b3b699 -->
<g id="edge14" class="edge">
<title>dir_a9eeef4ea84c0f2ac1fcae7dc81166a9&#45;&gt;dir_7e83d1792d529f4aa7126ac7e0b3b699</title>
<path fill="none" stroke="black" d="M239.65,-143.7C233.24,-135.39 225.44,-125.28 218.39,-116.14"/>
<polygon fill="black" stroke="black" points="221.07,-113.88 212.19,-108.1 215.53,-118.16 221.07,-113.88"/>
<g id="a_edge14&#45;headlabel"><a xlink:href="dir_000041_000042.html" target="_top" xlink:title="11">
<text text-anchor="middle" x="225.52" y="-112.5" font-family="Helvetica,sans-Serif" font-size="10.00">11</text>
</a>
</g>
</g>
<!-- dir_a9eeef4ea84c0f2ac1fcae7dc81166a9&#45;&gt;dir_313caf1132e152dd9b58bea13a4052ca -->
<g id="edge15" class="edge">
<title>dir_a9eeef4ea84c0f2ac1fcae7dc81166a9&#45;&gt;dir_313caf1132e152dd9b58bea13a4052ca</title>
<path fill="none" stroke="black" d="M255.65,-143.87C259.4,-119.67 266.29,-75.21 270.76,-46.39"/>
<polygon fill="black" stroke="black" points="274.26,-46.61 272.34,-36.19 267.35,-45.54 274.26,-46.61"/>
<g id="a_edge15&#45;headlabel"><a xlink:href="dir_000041_000001.html" target="_top" xlink:title="31">
<text text-anchor="middle" x="276.52" y="-48.09" font-family="Helvetica,sans-Serif" font-size="10.00">31</text>
</a>
</g>
</g>
<!-- dir_71fbd1fadb2683aa04f911343186866e&#45;&gt;dir_7e83d1792d529f4aa7126ac7e0b3b699 -->
<g id="edge16" class="edge">
<title>dir_71fbd1fadb2683aa04f911343186866e&#45;&gt;dir_7e83d1792d529f4aa7126ac7e0b3b699</title>
<path fill="none" stroke="black" d="M322.13,-143.88C295.72,-132.53 261.34,-117.77 235.62,-106.73"/>
<polygon fill="black" stroke="black" points="236.79,-103.42 226.22,-102.69 234.03,-109.85 236.79,-103.42"/>
<g id="a_edge16&#45;headlabel"><a xlink:href="dir_000060_000042.html" target="_top" xlink:title="15">
<text text-anchor="middle" x="241.22" y="-99.73" font-family="Helvetica,sans-Serif" font-size="10.00">15</text>
</a>
</g>
</g>
<!-- dir_71fbd1fadb2683aa04f911343186866e&#45;&gt;dir_63a9201d9a46e0f21c908ab524fba60a -->
<g id="edge17" class="edge">
<title>dir_71fbd1fadb2683aa04f911343186866e&#45;&gt;dir_63a9201d9a46e0f21c908ab524fba60a</title>
<path fill="none" stroke="black" d="M362,-143.7C362,-135.98 362,-126.71 362,-118.11"/>
<polygon fill="black" stroke="black" points="365.5,-118.1 362,-108.1 358.5,-118.1 365.5,-118.1"/>
<g id="a_edge17&#45;headlabel"><a xlink:href="dir_000060_000022.html" target="_top" xlink:title="1">
<text text-anchor="middle" x="368.34" y="-119.2" font-family="Helvetica,sans-Serif" font-size="10.00">1</text>
</a>
</g>
</g>
<!-- dir_71fbd1fadb2683aa04f911343186866e&#45;&gt;dir_313caf1132e152dd9b58bea13a4052ca -->
<g id="edge18" class="edge">
<title>dir_71fbd1fadb2683aa04f911343186866e&#45;&gt;dir_313caf1132e152dd9b58bea13a4052ca</title>
<path fill="none" stroke="black" d="M344.46,-143.95C334.93,-134.06 323.41,-121.01 315,-108 302.27,-88.31 291.62,-63.91 284.51,-45.63"/>
<polygon fill="black" stroke="black" points="287.75,-44.3 280.94,-36.18 281.2,-46.77 287.75,-44.3"/>
<g id="a_edge18&#45;headlabel"><a xlink:href="dir_000060_000001.html" target="_top" xlink:title="40">
<text text-anchor="middle" x="291.68" y="-44.16" font-family="Helvetica,sans-Serif" font-size="10.00">40</text>
</a>
</g>
</g>
</g>
</svg>
