<?xml version="1.0" encoding="UTF-8" standalone="no"?>
<!DOCTYPE svg PUBLIC "-//W3C//DTD SVG 1.1//EN"
 "http://www.w3.org/Graphics/SVG/1.1/DTD/svg11.dtd">
<!-- Generated by graphviz version 2.43.0 (0)
 -->
<!-- Title: observables Pages: 1 -->
<svg width="271pt" height="239pt"
 viewBox="0.00 0.00 271.00 239.00" xmlns="http://www.w3.org/2000/svg" xmlns:xlink="http://www.w3.org/1999/xlink">
<g id="graph0" class="graph" transform="scale(1 1) rotate(0) translate(4 235)">
<title>observables</title>
<g id="clust1" class="cluster">
<title>clusterdir_37b4caba3cb16b71e38642388211d0d2</title>
<g id="a_clust1"><a xlink:href="dir_37b4caba3cb16b71e38642388211d0d2.html" target="_top" xlink:title="script_interface">
<polygon fill="#ddddee" stroke="black" points="8,-8 8,-223 124,-223 124,-8 8,-8"/>
<text text-anchor="middle" x="66" y="-211" font-family="Helvetica,sans-Serif" font-size="10.00">script_interface</text>
</a>
</g>
</g>
<!-- dir_368b2e9c0fa1b5971ebe92fb870595ff -->
<g id="node1" class="node">
<title>dir_368b2e9c0fa1b5971ebe92fb870595ff</title>
<g id="a_node1"><a xlink:href="dir_368b2e9c0fa1b5971ebe92fb870595ff.html" target="_top" xlink:title="auto_parameters">
<polygon fill="none" stroke="black" points="116,-52 16,-52 16,-16 116,-16 116,-52"/>
<text text-anchor="middle" x="66" y="-31.5" font-family="Helvetica,sans-Serif" font-size="10.00">auto_parameters</text>
</a>
</g>
</g>
<!-- dir_d8e7dd94ca5eb1acdcc112e8efb659ce -->
<g id="node2" class="node">
<title>dir_d8e7dd94ca5eb1acdcc112e8efb659ce</title>
<g id="a_node2"><a xlink:href="dir_d8e7dd94ca5eb1acdcc112e8efb659ce.html" target="_top" xlink:title="math">
<polygon fill="none" stroke="black" points="100,-124 46,-124 46,-88 100,-88 100,-124"/>
<text text-anchor="middle" x="73" y="-103.5" font-family="Helvetica,sans-Serif" font-size="10.00">math</text>
</a>
</g>
</g>
<!-- dir_d8e7dd94ca5eb1acdcc112e8efb659ce&#45;&gt;dir_368b2e9c0fa1b5971ebe92fb870595ff -->
<g id="edge7" class="edge">
<title>dir_d8e7dd94ca5eb1acdcc112e8efb659ce&#45;&gt;dir_368b2e9c0fa1b5971ebe92fb870595ff</title>
<path fill="none" stroke="black" d="M71.27,-87.7C70.5,-79.98 69.57,-70.71 68.71,-62.11"/>
<polygon fill="black" stroke="black" points="72.19,-61.71 67.71,-52.1 65.22,-62.4 72.19,-61.71"/>
<g id="a_edge7&#45;headlabel"><a xlink:href="dir_000075_000030.html" target="_top" xlink:title="1">
<text text-anchor="middle" x="75.37" y="-62.5" font-family="Helvetica,sans-Serif" font-size="10.00">1</text>
</a>
</g>
</g>
<!-- dir_313caf1132e152dd9b58bea13a4052ca -->
<g id="node4" class="node">
<title>dir_313caf1132e152dd9b58bea13a4052ca</title>
<g id="a_node4"><a xlink:href="dir_313caf1132e152dd9b58bea13a4052ca.html" target="_top" xlink:title="utils">
<polygon fill="none" stroke="red" points="188,-52 134,-52 134,-16 188,-16 188,-52"/>
<text text-anchor="middle" x="161" y="-31.5" font-family="Helvetica,sans-Serif" font-size="10.00">utils</text>
</a>
</g>
</g>
<!-- dir_d8e7dd94ca5eb1acdcc112e8efb659ce&#45;&gt;dir_313caf1132e152dd9b58bea13a4052ca -->
<g id="edge6" class="edge">
<title>dir_d8e7dd94ca5eb1acdcc112e8efb659ce&#45;&gt;dir_313caf1132e152dd9b58bea13a4052ca</title>
<path fill="none" stroke="black" d="M94.75,-87.7C105.84,-78.88 119.47,-68.03 131.49,-58.47"/>
<polygon fill="black" stroke="black" points="133.85,-61.07 139.5,-52.1 129.49,-55.59 133.85,-61.07"/>
<g id="a_edge6&#45;headlabel"><a xlink:href="dir_000075_000001.html" target="_top" xlink:title="3">
<text text-anchor="middle" x="132.8" y="-63.03" font-family="Helvetica,sans-Serif" font-size="10.00">3</text>
</a>
</g>
</g>
<!-- dir_43c31a71c36a1f8fd0d911e28f24948e -->
<g id="node3" class="node">
<title>dir_43c31a71c36a1f8fd0d911e28f24948e</title>
<g id="a_node3"><a xlink:href="dir_43c31a71c36a1f8fd0d911e28f24948e.html" target="_top" xlink:title="observables">
<polygon fill="#eeeeff" stroke="black" points="116,-196 40,-196 40,-160 116,-160 116,-196"/>
<text text-anchor="middle" x="78" y="-175.5" font-family="Helvetica,sans-Serif" font-size="10.00">observables</text>
</a>
</g>
</g>
<!-- dir_43c31a71c36a1f8fd0d911e28f24948e&#45;&gt;dir_368b2e9c0fa1b5971ebe92fb870595ff -->
<g id="edge2" class="edge">
<title>dir_43c31a71c36a1f8fd0d911e28f24948e&#45;&gt;dir_368b2e9c0fa1b5971ebe92fb870595ff</title>
<path fill="none" stroke="black" d="M59.83,-159.68C51.12,-150.1 41.59,-137.43 37,-124 31.83,-108.86 33.04,-103.5 37,-88 39.38,-78.7 43.76,-69.27 48.42,-61"/>
<polygon fill="black" stroke="black" points="51.54,-62.59 53.69,-52.22 45.54,-58.99 51.54,-62.59"/>
<g id="a_edge2&#45;headlabel"><a xlink:href="dir_000074_000030.html" target="_top" xlink:title="7">
<text text-anchor="middle" x="52.13" y="-64.63" font-family="Helvetica,sans-Serif" font-size="10.00">7</text>
</a>
</g>
</g>
<!-- dir_43c31a71c36a1f8fd0d911e28f24948e&#45;&gt;dir_d8e7dd94ca5eb1acdcc112e8efb659ce -->
<g id="edge5" class="edge">
<title>dir_43c31a71c36a1f8fd0d911e28f24948e&#45;&gt;dir_d8e7dd94ca5eb1acdcc112e8efb659ce</title>
<path fill="none" stroke="black" d="M76.76,-159.7C76.21,-151.98 75.55,-142.71 74.94,-134.11"/>
<polygon fill="black" stroke="black" points="78.43,-133.83 74.22,-124.1 71.44,-134.33 78.43,-133.83"/>
<g id="a_edge5&#45;headlabel"><a xlink:href="dir_000074_000075.html" target="_top" xlink:title="2">
<text text-anchor="middle" x="81.51" y="-134.71" font-family="Helvetica,sans-Serif" font-size="10.00">2</text>
</a>
</g>
</g>
<!-- dir_43c31a71c36a1f8fd0d911e28f24948e&#45;&gt;dir_313caf1132e152dd9b58bea13a4052ca -->
<g id="edge1" class="edge">
<title>dir_43c31a71c36a1f8fd0d911e28f24948e&#45;&gt;dir_313caf1132e152dd9b58bea13a4052ca</title>
<path fill="none" stroke="black" d="M88.05,-159.82C94.12,-149.44 102.01,-135.96 109,-124 121.46,-102.69 135.59,-78.5 145.97,-60.72"/>
<polygon fill="black" stroke="black" points="149.01,-62.46 151.03,-52.06 142.97,-58.93 149.01,-62.46"/>
<g id="a_edge1&#45;headlabel"><a xlink:href="dir_000074_000001.html" target="_top" xlink:title="2">
<text text-anchor="middle" x="149.65" y="-64.5" font-family="Helvetica,sans-Serif" font-size="10.00">2</text>
</a>
</g>
</g>
<!-- dir_7e83d1792d529f4aa7126ac7e0b3b699 -->
<g id="node5" class="node">
<title>dir_7e83d1792d529f4aa7126ac7e0b3b699</title>
<g id="a_node5"><a xlink:href="dir_7e83d1792d529f4aa7126ac7e0b3b699.html" target="_top" xlink:title="config">
<polygon fill="none" stroke="red" points="263,-52 209,-52 209,-16 263,-16 263,-52"/>
<text text-anchor="middle" x="236" y="-31.5" font-family="Helvetica,sans-Serif" font-size="10.00">config</text>
</a>
</g>
</g>
<!-- dir_43c31a71c36a1f8fd0d911e28f24948e&#45;&gt;dir_7e83d1792d529f4aa7126ac7e0b3b699 -->
<g id="edge3" class="edge">
<title>dir_43c31a71c36a1f8fd0d911e28f24948e&#45;&gt;dir_7e83d1792d529f4aa7126ac7e0b3b699</title>
<path fill="none" stroke="black" d="M116.23,-172.92C148.49,-167.39 193.39,-154.4 219,-124 233.36,-106.95 237.03,-81.49 237.45,-62.17"/>
<polygon fill="black" stroke="black" points="240.95,-62.13 237.39,-52.15 233.95,-62.17 240.95,-62.13"/>
<g id="a_edge3&#45;headlabel"><a xlink:href="dir_000074_000057.html" target="_top" xlink:title="2">
<text text-anchor="middle" x="243.81" y="-63.21" font-family="Helvetica,sans-Serif" font-size="10.00">2</text>
</a>
</g>
</g>
<!-- dir_aebb8dcc11953d78e620bbef0b9e2183 -->
<g id="node6" class="node">
<title>dir_aebb8dcc11953d78e620bbef0b9e2183</title>
<g id="a_node6"><a xlink:href="dir_aebb8dcc11953d78e620bbef0b9e2183.html" target="_top" xlink:title="core">
<polygon fill="none" stroke="red" points="210,-124 156,-124 156,-88 210,-88 210,-124"/>
<text text-anchor="middle" x="183" y="-103.5" font-family="Helvetica,sans-Serif" font-size="10.00">core</text>
</a>
</g>
</g>
<!-- dir_43c31a71c36a1f8fd0d911e28f24948e&#45;&gt;dir_aebb8dcc11953d78e620bbef0b9e2183 -->
<g id="edge4" class="edge">
<title>dir_43c31a71c36a1f8fd0d911e28f24948e&#45;&gt;dir_aebb8dcc11953d78e620bbef0b9e2183</title>
<path fill="none" stroke="black" d="M103.69,-159.88C117.29,-150.81 134.17,-139.55 148.86,-129.76"/>
<polygon fill="black" stroke="black" points="150.84,-132.65 157.22,-124.19 146.95,-126.82 150.84,-132.65"/>
<g id="a_edge4&#45;headlabel"><a xlink:href="dir_000074_000005.html" target="_top" xlink:title="43">
<text text-anchor="middle" x="149.42" y="-134.51" font-family="Helvetica,sans-Serif" font-size="10.00">43</text>
</a>
</g>
</g>
<!-- dir_aebb8dcc11953d78e620bbef0b9e2183&#45;&gt;dir_313caf1132e152dd9b58bea13a4052ca -->
<g id="edge8" class="edge">
<title>dir_aebb8dcc11953d78e620bbef0b9e2183&#45;&gt;dir_313caf1132e152dd9b58bea13a4052ca</title>
<path fill="none" stroke="black" d="M177.56,-87.7C175.11,-79.9 172.16,-70.51 169.43,-61.83"/>
<polygon fill="black" stroke="black" points="172.71,-60.59 166.38,-52.1 166.04,-62.69 172.71,-60.59"/>
<g id="a_edge8&#45;headlabel"><a xlink:href="dir_000005_000001.html" target="_top" xlink:title="415">
<text text-anchor="middle" x="176.5" y="-60.67" font-family="Helvetica,sans-Serif" font-size="10.00">415</text>
</a>
</g>
</g>
<!-- dir_aebb8dcc11953d78e620bbef0b9e2183&#45;&gt;dir_7e83d1792d529f4aa7126ac7e0b3b699 -->
<g id="edge9" class="edge">
<title>dir_aebb8dcc11953d78e620bbef0b9e2183&#45;&gt;dir_7e83d1792d529f4aa7126ac7e0b3b699</title>
<path fill="none" stroke="black" d="M196.1,-87.7C202.39,-79.39 210.05,-69.28 216.96,-60.14"/>
<polygon fill="black" stroke="black" points="219.8,-62.19 223.05,-52.1 214.22,-57.96 219.8,-62.19"/>
<g id="a_edge9&#45;headlabel"><a xlink:href="dir_000005_000057.html" target="_top" xlink:title="158">
<text text-anchor="middle" x="219.9" y="-64.27" font-family="Helvetica,sans-Serif" font-size="10.00">158</text>
</a>
</g>
</g>
</g>
</svg>
