<?xml version="1.0" encoding="UTF-8" standalone="no"?>
<!DOCTYPE svg PUBLIC "-//W3C//DTD SVG 1.1//EN"
 "http://www.w3.org/Graphics/SVG/1.1/DTD/svg11.dtd">
<!-- Generated by graphviz version 2.43.0 (0)
 -->
<!-- Title: lees_edwards Pages: 1 -->
<svg width="218pt" height="223pt"
 viewBox="0.00 0.00 218.00 223.00" xmlns="http://www.w3.org/2000/svg" xmlns:xlink="http://www.w3.org/1999/xlink">
<g id="graph0" class="graph" transform="scale(1 1) rotate(0) translate(4 219)">
<title>lees_edwards</title>
<g id="clust1" class="cluster">
<title>clusterdir_37b4caba3cb16b71e38642388211d0d2</title>
<g id="a_clust1"><a xlink:href="dir_37b4caba3cb16b71e38642388211d0d2.html" target="_top" xlink:title="script_interface">
<polygon fill="#ddddee" stroke="black" points="32,-136 32,-207 132,-207 132,-136 32,-136"/>
<text text-anchor="middle" x="82" y="-195" font-family="Helvetica,sans-Serif" font-size="10.00">script_interface</text>
</a>
</g>
</g>
<!-- dir_acb12671c1d88fe20528c4125c5bf77b -->
<g id="node1" class="node">
<title>dir_acb12671c1d88fe20528c4125c5bf77b</title>
<g id="a_node1"><a xlink:href="dir_acb12671c1d88fe20528c4125c5bf77b.html" target="_top" xlink:title="lees_edwards">
<polygon fill="#eeeeff" stroke="black" points="123.5,-180 40.5,-180 40.5,-144 123.5,-144 123.5,-180"/>
<text text-anchor="middle" x="82" y="-159.5" font-family="Helvetica,sans-Serif" font-size="10.00">lees_edwards</text>
</a>
</g>
</g>
<!-- dir_aebb8dcc11953d78e620bbef0b9e2183 -->
<g id="node2" class="node">
<title>dir_aebb8dcc11953d78e620bbef0b9e2183</title>
<g id="a_node2"><a xlink:href="dir_aebb8dcc11953d78e620bbef0b9e2183.html" target="_top" xlink:title="core">
<polygon fill="none" stroke="red" points="54,-108 0,-108 0,-72 54,-72 54,-108"/>
<text text-anchor="middle" x="27" y="-87.5" font-family="Helvetica,sans-Serif" font-size="10.00">core</text>
</a>
</g>
</g>
<!-- dir_acb12671c1d88fe20528c4125c5bf77b&#45;&gt;dir_aebb8dcc11953d78e620bbef0b9e2183 -->
<g id="edge1" class="edge">
<title>dir_acb12671c1d88fe20528c4125c5bf77b&#45;&gt;dir_aebb8dcc11953d78e620bbef0b9e2183</title>
<path fill="none" stroke="black" d="M68.4,-143.7C61.88,-135.39 53.93,-125.28 46.75,-116.14"/>
<polygon fill="black" stroke="black" points="49.37,-113.81 40.44,-108.1 43.87,-118.13 49.37,-113.81"/>
<g id="a_edge1&#45;headlabel"><a xlink:href="dir_000066_000005.html" target="_top" xlink:title="6">
<text text-anchor="middle" x="53.82" y="-112.38" font-family="Helvetica,sans-Serif" font-size="10.00">6</text>
</a>
</g>
</g>
<!-- dir_313caf1132e152dd9b58bea13a4052ca -->
<g id="node3" class="node">
<title>dir_313caf1132e152dd9b58bea13a4052ca</title>
<g id="a_node3"><a xlink:href="dir_313caf1132e152dd9b58bea13a4052ca.html" target="_top" xlink:title="utils">
<polygon fill="none" stroke="red" points="81,-36 27,-36 27,0 81,0 81,-36"/>
<text text-anchor="middle" x="54" y="-15.5" font-family="Helvetica,sans-Serif" font-size="10.00">utils</text>
</a>
</g>
</g>
<!-- dir_acb12671c1d88fe20528c4125c5bf77b&#45;&gt;dir_313caf1132e152dd9b58bea13a4052ca -->
<g id="edge2" class="edge">
<title>dir_acb12671c1d88fe20528c4125c5bf77b&#45;&gt;dir_313caf1132e152dd9b58bea13a4052ca</title>
<path fill="none" stroke="black" d="M78.62,-143.87C73.83,-119.56 65.01,-74.82 59.33,-46.01"/>
<polygon fill="black" stroke="black" points="62.76,-45.32 57.39,-36.19 55.89,-46.68 62.76,-45.32"/>
<g id="a_edge2&#45;headlabel"><a xlink:href="dir_000066_000001.html" target="_top" xlink:title="1">
<text text-anchor="middle" x="66.24" y="-45.8" font-family="Helvetica,sans-Serif" font-size="10.00">1</text>
</a>
</g>
</g>
<!-- dir_368b2e9c0fa1b5971ebe92fb870595ff -->
<g id="node4" class="node">
<title>dir_368b2e9c0fa1b5971ebe92fb870595ff</title>
<g id="a_node4"><a xlink:href="dir_368b2e9c0fa1b5971ebe92fb870595ff.html" target="_top" xlink:title="auto_parameters">
<polygon fill="none" stroke="black" points="210,-108 110,-108 110,-72 210,-72 210,-108"/>
<text text-anchor="middle" x="160" y="-87.5" font-family="Helvetica,sans-Serif" font-size="10.00">auto_parameters</text>
</a>
</g>
</g>
<!-- dir_acb12671c1d88fe20528c4125c5bf77b&#45;&gt;dir_368b2e9c0fa1b5971ebe92fb870595ff -->
<g id="edge3" class="edge">
<title>dir_acb12671c1d88fe20528c4125c5bf77b&#45;&gt;dir_368b2e9c0fa1b5971ebe92fb870595ff</title>
<path fill="none" stroke="black" d="M101.28,-143.7C110.92,-135.05 122.73,-124.45 133.23,-115.03"/>
<polygon fill="black" stroke="black" points="135.84,-117.39 140.94,-108.1 131.16,-112.18 135.84,-117.39"/>
<g id="a_edge3&#45;headlabel"><a xlink:href="dir_000066_000023.html" target="_top" xlink:title="5">
<text text-anchor="middle" x="135.06" y="-119.4" font-family="Helvetica,sans-Serif" font-size="10.00">5</text>
</a>
</g>
</g>
<!-- dir_aebb8dcc11953d78e620bbef0b9e2183&#45;&gt;dir_313caf1132e152dd9b58bea13a4052ca -->
<g id="edge4" class="edge">
<title>dir_aebb8dcc11953d78e620bbef0b9e2183&#45;&gt;dir_313caf1132e152dd9b58bea13a4052ca</title>
<path fill="none" stroke="black" d="M33.67,-71.7C36.71,-63.81 40.38,-54.3 43.76,-45.55"/>
<polygon fill="black" stroke="black" points="47.07,-46.69 47.4,-36.1 40.54,-44.17 47.07,-46.69"/>
<g id="a_edge4&#45;headlabel"><a xlink:href="dir_000005_000001.html" target="_top" xlink:title="493">
<text text-anchor="middle" x="48.42" y="-48.57" font-family="Helvetica,sans-Serif" font-size="10.00">493</text>
</a>
</g>
</g>
</g>
</svg>
