<?xml version="1.0" encoding="UTF-8" standalone="no"?>
<!DOCTYPE svg PUBLIC "-//W3C//DTD SVG 1.1//EN"
 "http://www.w3.org/Graphics/SVG/1.1/DTD/svg11.dtd">
<!-- Generated by graphviz version 2.43.0 (0)
 -->
<!-- Title: integrators Pages: 1 -->
<svg width="288pt" height="295pt"
 viewBox="0.00 0.00 287.62 295.00" xmlns="http://www.w3.org/2000/svg" xmlns:xlink="http://www.w3.org/1999/xlink">
<g id="graph0" class="graph" transform="scale(1 1) rotate(0) translate(4 291)">
<title>integrators</title>
<g id="clust1" class="cluster">
<title>clusterdir_37b4caba3cb16b71e38642388211d0d2</title>
<g id="a_clust1"><a xlink:href="dir_37b4caba3cb16b71e38642388211d0d2.html" target="_top" xlink:title="script_interface">
<polygon fill="#ddddee" stroke="black" points="47,-64 47,-279 163,-279 163,-64 47,-64"/>
<text text-anchor="middle" x="105" y="-267" font-family="Helvetica,sans-Serif" font-size="10.00">script_interface</text>
</a>
</g>
</g>
<!-- dir_368b2e9c0fa1b5971ebe92fb870595ff -->
<g id="node1" class="node">
<title>dir_368b2e9c0fa1b5971ebe92fb870595ff</title>
<g id="a_node1"><a xlink:href="dir_368b2e9c0fa1b5971ebe92fb870595ff.html" target="_top" xlink:title="auto_parameters">
<polygon fill="none" stroke="black" points="155,-108 55,-108 55,-72 155,-72 155,-108"/>
<text text-anchor="middle" x="105" y="-87.5" font-family="Helvetica,sans-Serif" font-size="10.00">auto_parameters</text>
</a>
</g>
</g>
<!-- dir_ca6e05d99abe23af4622b12bb23c34df -->
<g id="node2" class="node">
<title>dir_ca6e05d99abe23af4622b12bb23c34df</title>
<g id="a_node2"><a xlink:href="dir_ca6e05d99abe23af4622b12bb23c34df.html" target="_top" xlink:title="system">
<polygon fill="none" stroke="black" points="147,-252 93,-252 93,-216 147,-216 147,-252"/>
<text text-anchor="middle" x="120" y="-231.5" font-family="Helvetica,sans-Serif" font-size="10.00">system</text>
</a>
</g>
</g>
<!-- dir_ca6e05d99abe23af4622b12bb23c34df&#45;&gt;dir_368b2e9c0fa1b5971ebe92fb870595ff -->
<g id="edge7" class="edge">
<title>dir_ca6e05d99abe23af4622b12bb23c34df&#45;&gt;dir_368b2e9c0fa1b5971ebe92fb870595ff</title>
<path fill="none" stroke="black" d="M100.53,-215.92C91.18,-206.4 80.95,-193.72 76,-180 68.39,-158.91 77.4,-134.71 87.33,-116.87"/>
<polygon fill="black" stroke="black" points="90.4,-118.55 92.53,-108.17 84.39,-114.96 90.4,-118.55"/>
<g id="a_edge7&#45;headlabel"><a xlink:href="dir_000068_000030.html" target="_top" xlink:title="2">
<text text-anchor="middle" x="91" y="-120.59" font-family="Helvetica,sans-Serif" font-size="10.00">2</text>
</a>
</g>
</g>
<!-- dir_e509a82358c36abfb75eba6f50a05751 -->
<g id="node3" class="node">
<title>dir_e509a82358c36abfb75eba6f50a05751</title>
<g id="a_node3"><a xlink:href="dir_e509a82358c36abfb75eba6f50a05751.html" target="_top" xlink:title="integrators">
<polygon fill="#eeeeff" stroke="black" points="155,-180 85,-180 85,-144 155,-144 155,-180"/>
<text text-anchor="middle" x="120" y="-159.5" font-family="Helvetica,sans-Serif" font-size="10.00">integrators</text>
</a>
</g>
</g>
<!-- dir_ca6e05d99abe23af4622b12bb23c34df&#45;&gt;dir_e509a82358c36abfb75eba6f50a05751 -->
<g id="edge10" class="edge">
<title>dir_ca6e05d99abe23af4622b12bb23c34df&#45;&gt;dir_e509a82358c36abfb75eba6f50a05751</title>
<path fill="none" stroke="black" d="M114.08,-215.7C113.29,-207.98 113.06,-198.71 113.4,-190.11"/>
<polygon fill="black" stroke="black" points="116.9,-190.32 114.1,-180.1 109.92,-189.84 116.9,-190.32"/>
<g id="a_edge10&#45;headlabel"><a xlink:href="dir_000068_000041.html" target="_top" xlink:title="1">
<text text-anchor="middle" x="119.48" y="-191.61" font-family="Helvetica,sans-Serif" font-size="10.00">1</text>
</a>
</g>
</g>
<!-- dir_313caf1132e152dd9b58bea13a4052ca -->
<g id="node4" class="node">
<title>dir_313caf1132e152dd9b58bea13a4052ca</title>
<g id="a_node4"><a xlink:href="dir_313caf1132e152dd9b58bea13a4052ca.html" target="_top" xlink:title="utils">
<polygon fill="none" stroke="red" points="54,-36 0,-36 0,0 54,0 54,-36"/>
<text text-anchor="middle" x="27" y="-15.5" font-family="Helvetica,sans-Serif" font-size="10.00">utils</text>
</a>
</g>
</g>
<!-- dir_ca6e05d99abe23af4622b12bb23c34df&#45;&gt;dir_313caf1132e152dd9b58bea13a4052ca -->
<g id="edge6" class="edge">
<title>dir_ca6e05d99abe23af4622b12bb23c34df&#45;&gt;dir_313caf1132e152dd9b58bea13a4052ca</title>
<path fill="none" stroke="black" d="M100.29,-216C76.58,-193.97 38.42,-153.02 26,-108 20.43,-87.8 21.04,-64.02 22.85,-46.13"/>
<polygon fill="black" stroke="black" points="26.34,-46.43 24.05,-36.09 19.39,-45.6 26.34,-46.43"/>
<g id="a_edge6&#45;headlabel"><a xlink:href="dir_000068_000001.html" target="_top" xlink:title="3">
<text text-anchor="middle" x="28.73" y="-47.84" font-family="Helvetica,sans-Serif" font-size="10.00">3</text>
</a>
</g>
</g>
<!-- dir_7e83d1792d529f4aa7126ac7e0b3b699 -->
<g id="node5" class="node">
<title>dir_7e83d1792d529f4aa7126ac7e0b3b699</title>
<g id="a_node5"><a xlink:href="dir_7e83d1792d529f4aa7126ac7e0b3b699.html" target="_top" xlink:title="config">
<polygon fill="none" stroke="red" points="265,-36 211,-36 211,0 265,0 265,-36"/>
<text text-anchor="middle" x="238" y="-15.5" font-family="Helvetica,sans-Serif" font-size="10.00">config</text>
</a>
</g>
</g>
<!-- dir_ca6e05d99abe23af4622b12bb23c34df&#45;&gt;dir_7e83d1792d529f4aa7126ac7e0b3b699 -->
<g id="edge8" class="edge">
<title>dir_ca6e05d99abe23af4622b12bb23c34df&#45;&gt;dir_7e83d1792d529f4aa7126ac7e0b3b699</title>
<path fill="none" stroke="black" d="M147.18,-220.83C184.25,-202.51 248.89,-163.92 274,-108 282.01,-90.16 280.47,-82.45 274,-64 271.5,-56.86 267.33,-50.01 262.7,-43.91"/>
<polygon fill="black" stroke="black" points="265.29,-41.55 256.22,-36.08 259.9,-46.01 265.29,-41.55"/>
<g id="a_edge8&#45;headlabel"><a xlink:href="dir_000068_000057.html" target="_top" xlink:title="2">
<text text-anchor="middle" x="269.77" y="-40" font-family="Helvetica,sans-Serif" font-size="10.00">2</text>
</a>
</g>
</g>
<!-- dir_aebb8dcc11953d78e620bbef0b9e2183 -->
<g id="node6" class="node">
<title>dir_aebb8dcc11953d78e620bbef0b9e2183</title>
<g id="a_node6"><a xlink:href="dir_aebb8dcc11953d78e620bbef0b9e2183.html" target="_top" xlink:title="core">
<polygon fill="none" stroke="red" points="265,-108 211,-108 211,-72 265,-72 265,-108"/>
<text text-anchor="middle" x="238" y="-87.5" font-family="Helvetica,sans-Serif" font-size="10.00">core</text>
</a>
</g>
</g>
<!-- dir_ca6e05d99abe23af4622b12bb23c34df&#45;&gt;dir_aebb8dcc11953d78e620bbef0b9e2183 -->
<g id="edge9" class="edge">
<title>dir_ca6e05d99abe23af4622b12bb23c34df&#45;&gt;dir_aebb8dcc11953d78e620bbef0b9e2183</title>
<path fill="none" stroke="black" d="M134.23,-215.87C154.88,-191.03 193.25,-144.85 217.11,-116.14"/>
<polygon fill="black" stroke="black" points="220.02,-118.12 223.72,-108.19 214.63,-113.64 220.02,-118.12"/>
<g id="a_edge9&#45;headlabel"><a xlink:href="dir_000068_000005.html" target="_top" xlink:title="18">
<text text-anchor="middle" x="219.9" y="-120.2" font-family="Helvetica,sans-Serif" font-size="10.00">18</text>
</a>
</g>
</g>
<!-- dir_e509a82358c36abfb75eba6f50a05751&#45;&gt;dir_368b2e9c0fa1b5971ebe92fb870595ff -->
<g id="edge2" class="edge">
<title>dir_e509a82358c36abfb75eba6f50a05751&#45;&gt;dir_368b2e9c0fa1b5971ebe92fb870595ff</title>
<path fill="none" stroke="black" d="M116.29,-143.7C114.64,-135.98 112.65,-126.71 110.81,-118.11"/>
<polygon fill="black" stroke="black" points="114.18,-117.15 108.67,-108.1 107.34,-118.62 114.18,-117.15"/>
<g id="a_edge2&#45;headlabel"><a xlink:href="dir_000041_000030.html" target="_top" xlink:title="6">
<text text-anchor="middle" x="117.71" y="-117.57" font-family="Helvetica,sans-Serif" font-size="10.00">6</text>
</a>
</g>
</g>
<!-- dir_e509a82358c36abfb75eba6f50a05751&#45;&gt;dir_ca6e05d99abe23af4622b12bb23c34df -->
<g id="edge5" class="edge">
<title>dir_e509a82358c36abfb75eba6f50a05751&#45;&gt;dir_ca6e05d99abe23af4622b12bb23c34df</title>
<path fill="none" stroke="black" d="M125.9,-180.1C126.7,-187.79 126.94,-197.05 126.6,-205.67"/>
<polygon fill="black" stroke="black" points="123.11,-205.48 125.92,-215.7 130.09,-205.96 123.11,-205.48"/>
<g id="a_edge5&#45;headlabel"><a xlink:href="dir_000041_000068.html" target="_top" xlink:title="2">
<text text-anchor="middle" x="120.52" y="-199.2" font-family="Helvetica,sans-Serif" font-size="10.00">2</text>
</a>
</g>
</g>
<!-- dir_e509a82358c36abfb75eba6f50a05751&#45;&gt;dir_313caf1132e152dd9b58bea13a4052ca -->
<g id="edge1" class="edge">
<title>dir_e509a82358c36abfb75eba6f50a05751&#45;&gt;dir_313caf1132e152dd9b58bea13a4052ca</title>
<path fill="none" stroke="black" d="M85.68,-143.85C71.35,-135.02 55.78,-122.94 46,-108 33.99,-89.66 29.42,-65.05 27.75,-46.36"/>
<polygon fill="black" stroke="black" points="31.22,-45.88 27.07,-36.13 24.24,-46.34 31.22,-45.88"/>
<g id="a_edge1&#45;headlabel"><a xlink:href="dir_000041_000001.html" target="_top" xlink:title="3">
<text text-anchor="middle" x="34.29" y="-46.77" font-family="Helvetica,sans-Serif" font-size="10.00">3</text>
</a>
</g>
</g>
<!-- dir_e509a82358c36abfb75eba6f50a05751&#45;&gt;dir_7e83d1792d529f4aa7126ac7e0b3b699 -->
<g id="edge3" class="edge">
<title>dir_e509a82358c36abfb75eba6f50a05751&#45;&gt;dir_7e83d1792d529f4aa7126ac7e0b3b699</title>
<path fill="none" stroke="black" d="M134.23,-143.87C154.88,-119.03 193.25,-72.85 217.11,-44.14"/>
<polygon fill="black" stroke="black" points="220.02,-46.12 223.72,-36.19 214.63,-41.64 220.02,-46.12"/>
<g id="a_edge3&#45;headlabel"><a xlink:href="dir_000041_000057.html" target="_top" xlink:title="5">
<text text-anchor="middle" x="219.9" y="-48.2" font-family="Helvetica,sans-Serif" font-size="10.00">5</text>
</a>
</g>
</g>
<!-- dir_e509a82358c36abfb75eba6f50a05751&#45;&gt;dir_aebb8dcc11953d78e620bbef0b9e2183 -->
<g id="edge4" class="edge">
<title>dir_e509a82358c36abfb75eba6f50a05751&#45;&gt;dir_aebb8dcc11953d78e620bbef0b9e2183</title>
<path fill="none" stroke="black" d="M148.87,-143.88C164.76,-134.45 184.63,-122.66 201.58,-112.61"/>
<polygon fill="black" stroke="black" points="203.83,-115.34 210.65,-107.23 200.26,-109.32 203.83,-115.34"/>
<g id="a_edge4&#45;headlabel"><a xlink:href="dir_000041_000005.html" target="_top" xlink:title="22">
<text text-anchor="middle" x="202.19" y="-117.11" font-family="Helvetica,sans-Serif" font-size="10.00">22</text>
</a>
</g>
</g>
<!-- dir_aebb8dcc11953d78e620bbef0b9e2183&#45;&gt;dir_313caf1132e152dd9b58bea13a4052ca -->
<g id="edge11" class="edge">
<title>dir_aebb8dcc11953d78e620bbef0b9e2183&#45;&gt;dir_313caf1132e152dd9b58bea13a4052ca</title>
<path fill="none" stroke="black" d="M210.75,-79.21C197.57,-74.52 181.49,-68.88 167,-64 132.2,-52.28 92.31,-39.53 64.03,-30.6"/>
<polygon fill="black" stroke="black" points="64.76,-27.16 54.17,-27.49 62.66,-33.83 64.76,-27.16"/>
<g id="a_edge11&#45;headlabel"><a xlink:href="dir_000005_000001.html" target="_top" xlink:title="415">
<text text-anchor="middle" x="69.04" y="-23.03" font-family="Helvetica,sans-Serif" font-size="10.00">415</text>
</a>
</g>
</g>
<!-- dir_aebb8dcc11953d78e620bbef0b9e2183&#45;&gt;dir_7e83d1792d529f4aa7126ac7e0b3b699 -->
<g id="edge12" class="edge">
<title>dir_aebb8dcc11953d78e620bbef0b9e2183&#45;&gt;dir_7e83d1792d529f4aa7126ac7e0b3b699</title>
<path fill="none" stroke="black" d="M238,-71.7C238,-63.98 238,-54.71 238,-46.11"/>
<polygon fill="black" stroke="black" points="241.5,-46.1 238,-36.1 234.5,-46.1 241.5,-46.1"/>
<g id="a_edge12&#45;headlabel"><a xlink:href="dir_000005_000057.html" target="_top" xlink:title="158">
<text text-anchor="middle" x="244.34" y="-47.2" font-family="Helvetica,sans-Serif" font-size="10.00">158</text>
</a>
</g>
</g>
</g>
</svg>
