<?xml version="1.0" encoding="UTF-8" standalone="no"?>
<!DOCTYPE svg PUBLIC "-//W3C//DTD SVG 1.1//EN"
 "http://www.w3.org/Graphics/SVG/1.1/DTD/svg11.dtd">
<!-- Generated by graphviz version 2.43.0 (0)
 -->
<!-- Title: magnetostatics Pages: 1 -->
<!--zoomable 133 -->

<svg id="main" version="1.1" xmlns="http://www.w3.org/2000/svg" xmlns:xlink="http://www.w3.org/1999/xlink" xml:space="preserve" onload="init(evt)">
<style type="text/css"><![CDATA[
.node, .edge {opacity: 0.7;}
.node.selected, .edge.selected {opacity: 1;}
.edge:hover path { stroke: red; }
.edge:hover polygon { stroke: red; fill: red; }
]]></style>

<defs>
  <circle id="rim" cx="0" cy="0" r="7"/>
  <circle id="rim2" cx="0" cy="0" r="3.5"/>
  <g id="zoomPlus">
    <use xlink:href="#rim" fill="#404040"><set attributeName="fill" to="#808080" begin="zoomplus.mouseover" end="zoomplus.mouseout"/></use>
    <path d="M-4,0h8M0,-4v8" fill="none" stroke="white" stroke-width="1.5" pointer-events="none"/>
  </g>
  <g id="zoomMin">
    <use xlink:href="#rim" fill="#404040"><set attributeName="fill" to="#808080" begin="zoomminus.mouseover" end="zoomminus.mouseout"/></use>
    <path d="M-4,0h8" fill="none" stroke="white" stroke-width="1.5" pointer-events="none"/>
  </g>
  <g id="arrowUp" transform="translate(30 24)">
    <use xlink:href="#rim"/>
    <path pointer-events="none" fill="none" stroke="white" stroke-width="1.5" d="M0,-3.0v7 M-2.5,-0.5L0,-3.0L2.5,-0.5"/>
  </g>
  <g id="arrowRight" transform="rotate(90) translate(36 -43)">
    <use xlink:href="#rim"/>
    <path pointer-events="none" fill="none" stroke="white" stroke-width="1.5" d="M0,-3.0v7 M-2.5,-0.5L0,-3.0L2.5,-0.5"/>
  </g>
  <g id="arrowDown" transform="rotate(180) translate(-30 -48)">
    <use xlink:href="#rim"/>
    <path pointer-events="none" fill="none" stroke="white" stroke-width="1.5" d="M0,-3.0v7 M-2.5,-0.5L0,-3.0L2.5,-0.5"/>
  </g>
  <g id="arrowLeft" transform="rotate(270) translate(-36 17)">
    <use xlink:href="#rim"/>
    <path pointer-events="none" fill="none" stroke="white" stroke-width="1.5" d="M0,-3.0v7 M-2.5,-0.5L0,-3.0L2.5,-0.5"/>
  </g>
  <g id="resetDef">
    <use xlink:href="#rim2" fill="#404040"><set attributeName="fill" to="#808080" begin="reset.mouseover" end="reset.mouseout"/></use>
  </g>
</defs>
<script type="application/ecmascript">
var viewWidth = 849;
var viewHeight = 133;
var sectionId = 'dynsection-0';
</script>
<script type="application/ecmascript" xlink:href="svg.min.js"/>
<svg id="graph" class="graph">
<g id="viewport">
<title>magnetostatics</title>
<g id="clust1" class="cluster">
<title>clusterdir_aebb8dcc11953d78e620bbef0b9e2183</title>
<g id="a_clust1"><a xlink:href="dir_aebb8dcc11953d78e620bbef0b9e2183.html" target="_top" xlink:title="core">
<polygon fill="#edf0f7" stroke="#7f7f7f" stroke-dasharray="5,2" points="8,-8 8,-117 651,-117 651,-8 8,-8"/>
<text text-anchor="middle" x="329.5" y="-105" font-family="Helvetica,sans-Serif" font-size="10.00">core</text>
</a>
</g>
</g>
<!-- dir_10e949e76962e513c48263396f7fbf8b -->
<g id="node1" class="node">
<title>dir_10e949e76962e513c48263396f7fbf8b</title>
<g id="a_node1"><a xlink:href="dir_10e949e76962e513c48263396f7fbf8b.html" target="_top" xlink:title="virtual_sites">
<polygon fill="#a2b4d6" stroke="#404040" points="93.5,-35 16.5,-35 16.5,-16 93.5,-16 93.5,-35"/>
<text text-anchor="middle" x="55" y="-23" font-family="Helvetica,sans-Serif" font-size="10.00">virtual_sites</text>
</a>
</g>
</g>
<!-- dir_3ce7a3757f324457bb78d6b21f209c14 -->
<g id="node2" class="node">
<title>dir_3ce7a3757f324457bb78d6b21f209c14</title>
<g id="a_node2"><a xlink:href="dir_3ce7a3757f324457bb78d6b21f209c14.html" target="_top" xlink:title="scafacos">
<polygon fill="#a2b4d6" stroke="#404040" points="170.5,-35 111.5,-35 111.5,-16 170.5,-16 170.5,-35"/>
<text text-anchor="middle" x="141" y="-23" font-family="Helvetica,sans-Serif" font-size="10.00">scafacos</text>
</a>
</g>
</g>
<!-- dir_63a9201d9a46e0f21c908ab524fba60a -->
<g id="node3" class="node">
<title>dir_63a9201d9a46e0f21c908ab524fba60a</title>
<g id="a_node3"><a xlink:href="dir_63a9201d9a46e0f21c908ab524fba60a.html" target="_top" xlink:title="cell_system">
<polygon fill="#a2b4d6" stroke="#404040" points="263.5,-35 188.5,-35 188.5,-16 263.5,-16 263.5,-35"/>
<text text-anchor="middle" x="226" y="-23" font-family="Helvetica,sans-Serif" font-size="10.00">cell_system</text>
</a>
</g>
</g>
<!-- dir_656808b0264fcaa9e5f2c35886381744 -->
<g id="node4" class="node">
<title>dir_656808b0264fcaa9e5f2c35886381744</title>
<g id="a_node4"><a xlink:href="dir_656808b0264fcaa9e5f2c35886381744.html" target="_top" xlink:title="fft">
<polygon fill="#a2b4d6" stroke="#404040" points="310.5,-35 281.5,-35 281.5,-16 310.5,-16 310.5,-35"/>
<text text-anchor="middle" x="296" y="-23" font-family="Helvetica,sans-Serif" font-size="10.00">fft</text>
</a>
</g>
</g>
<!-- dir_7dbd9d3bbc5ec1ce3207b09771479ec4 -->
<g id="node5" class="node">
<title>dir_7dbd9d3bbc5ec1ce3207b09771479ec4</title>
<g id="a_node5"><a xlink:href="dir_7dbd9d3bbc5ec1ce3207b09771479ec4.html" target="_top" xlink:title="actor">
<polygon fill="#a2b4d6" stroke="#404040" points="369.5,-35 328.5,-35 328.5,-16 369.5,-16 369.5,-35"/>
<text text-anchor="middle" x="349" y="-23" font-family="Helvetica,sans-Serif" font-size="10.00">actor</text>
</a>
</g>
</g>
<!-- dir_81c0eb580ec169d40a39b9eb818bd54f -->
<g id="node6" class="node">
<title>dir_81c0eb580ec169d40a39b9eb818bd54f</title>
<g id="a_node6"><a xlink:href="dir_81c0eb580ec169d40a39b9eb818bd54f.html" target="_top" xlink:title="system">
<polygon fill="#a2b4d6" stroke="#404040" points="440.5,-35 387.5,-35 387.5,-16 440.5,-16 440.5,-35"/>
<text text-anchor="middle" x="414" y="-23" font-family="Helvetica,sans-Serif" font-size="10.00">system</text>
</a>
</g>
</g>
<!-- dir_a9eeef4ea84c0f2ac1fcae7dc81166a9 -->
<g id="node7" class="node">
<title>dir_a9eeef4ea84c0f2ac1fcae7dc81166a9</title>
<g id="a_node7"><a xlink:href="dir_a9eeef4ea84c0f2ac1fcae7dc81166a9.html" target="_top" xlink:title="p3m">
<polygon fill="#a2b4d6" stroke="#404040" points="497,-35 459,-35 459,-16 497,-16 497,-35"/>
<text text-anchor="middle" x="478" y="-23" font-family="Helvetica,sans-Serif" font-size="10.00">p3m</text>
</a>
</g>
</g>
<!-- dir_da67872344adeb77b7597d4d35f63a13 -->
<g id="node8" class="node">
<title>dir_da67872344adeb77b7597d4d35f63a13</title>
<g id="a_node8"><a xlink:href="dir_da67872344adeb77b7597d4d35f63a13.html" target="_top" xlink:title="integrators">
<polygon fill="#a2b4d6" stroke="#404040" points="585,-35 515,-35 515,-16 585,-16 585,-35"/>
<text text-anchor="middle" x="550" y="-23" font-family="Helvetica,sans-Serif" font-size="10.00">integrators</text>
</a>
</g>
</g>
<!-- dir_e7cb7bafb43ee83e0fcfb92ab54d7b45 -->
<g id="node9" class="node">
<title>dir_e7cb7bafb43ee83e0fcfb92ab54d7b45</title>
<g id="a_node9"><a xlink:href="dir_e7cb7bafb43ee83e0fcfb92ab54d7b45.html" target="_top" xlink:title="cuda">
<polygon fill="#a2b4d6" stroke="#404040" points="643,-35 603,-35 603,-16 643,-16 643,-35"/>
<text text-anchor="middle" x="623" y="-23" font-family="Helvetica,sans-Serif" font-size="10.00">cuda</text>
</a>
</g>
</g>
<!-- dir_e1923c614f4b03525ac7144846881d68 -->
<g id="node10" class="node">
<title>dir_e1923c614f4b03525ac7144846881d68</title>
<g id="a_node10"><a xlink:href="dir_e1923c614f4b03525ac7144846881d68.html" target="_top" xlink:title="magnetostatics">
<polygon fill="#edf0f7" stroke="#404040" stroke-width="2" points="492,-90 400,-90 400,-71 492,-71 492,-90"/>
<text text-anchor="middle" x="446" y="-78" font-family="Helvetica,sans-Serif" font-size="10.00">magnetostatics</text>
</a>
</g>
</g>
<!-- dir_e1923c614f4b03525ac7144846881d68&#45;&gt;dir_10e949e76962e513c48263396f7fbf8b -->
<g id="edge1" class="edge">
<title>dir_e1923c614f4b03525ac7144846881d68&#45;&gt;dir_10e949e76962e513c48263396f7fbf8b</title>
<g id="a_edge1"><a xlink:href="dir_000067_000114.html" target="_top">
<path fill="none" stroke="#63b8ff" d="M399.86,-74.2C335.84,-66.7 216.22,-52.13 103.9,-35.07"/>
<polygon fill="#63b8ff" stroke="#63b8ff" points="104.16,-31.57 93.75,-33.52 103.1,-38.49 104.16,-31.57"/>
</a>
</g>
<g id="a_edge1&#45;headlabel"><a xlink:href="dir_000067_000114.html" target="_top" xlink:title="1">
<text text-anchor="middle" x="108.14" y="-26.81" font-family="Helvetica,sans-Serif" font-size="10.00" fill="#63b8ff">1</text>
</a>
</g>
</g>
<!-- dir_e1923c614f4b03525ac7144846881d68&#45;&gt;dir_3ce7a3757f324457bb78d6b21f209c14 -->
<g id="edge3" class="edge">
<title>dir_e1923c614f4b03525ac7144846881d68&#45;&gt;dir_3ce7a3757f324457bb78d6b21f209c14</title>
<g id="a_edge3"><a xlink:href="dir_000067_000090.html" target="_top">
<path fill="none" stroke="#63b8ff" d="M399.75,-72.46C348.61,-64.53 263.57,-50.87 180.62,-35.04"/>
<polygon fill="#63b8ff" stroke="#63b8ff" points="181.26,-31.6 170.78,-33.15 179.94,-38.47 181.26,-31.6"/>
</a>
</g>
<g id="a_edge3&#45;headlabel"><a xlink:href="dir_000067_000090.html" target="_top" xlink:title="2">
<text text-anchor="middle" x="185.33" y="-26.99" font-family="Helvetica,sans-Serif" font-size="10.00" fill="#63b8ff">2</text>
</a>
</g>
</g>
<!-- dir_e1923c614f4b03525ac7144846881d68&#45;&gt;dir_63a9201d9a46e0f21c908ab524fba60a -->
<g id="edge4" class="edge">
<title>dir_e1923c614f4b03525ac7144846881d68&#45;&gt;dir_63a9201d9a46e0f21c908ab524fba60a</title>
<g id="a_edge4"><a xlink:href="dir_000067_000010.html" target="_top">
<path fill="none" stroke="#63b8ff" d="M410.65,-70.98C372.84,-61.87 312.74,-47.4 271.43,-37.45"/>
<polygon fill="#63b8ff" stroke="#63b8ff" points="272.17,-34.02 261.62,-35.08 270.53,-40.83 272.17,-34.02"/>
</a>
</g>
<g id="a_edge4&#45;headlabel"><a xlink:href="dir_000067_000010.html" target="_top" xlink:title="5">
<text text-anchor="middle" x="276.33" y="-29.6" font-family="Helvetica,sans-Serif" font-size="10.00" fill="#63b8ff">5</text>
</a>
</g>
</g>
<!-- dir_e1923c614f4b03525ac7144846881d68&#45;&gt;dir_656808b0264fcaa9e5f2c35886381744 -->
<g id="edge5" class="edge">
<title>dir_e1923c614f4b03525ac7144846881d68&#45;&gt;dir_656808b0264fcaa9e5f2c35886381744</title>
<g id="a_edge5"><a xlink:href="dir_000067_000037.html" target="_top">
<path fill="none" stroke="#63b8ff" d="M421.84,-70.98C398.31,-62.67 361.28,-49.6 320.35,-35.12"/>
<polygon fill="#63b8ff" stroke="#63b8ff" points="321.32,-31.75 310.72,-31.72 318.98,-38.35 321.32,-31.75"/>
</a>
</g>
<g id="a_edge5&#45;headlabel"><a xlink:href="dir_000067_000037.html" target="_top" xlink:title="1">
<text text-anchor="middle" x="325.65" y="-27.77" font-family="Helvetica,sans-Serif" font-size="10.00" fill="#63b8ff">1</text>
</a>
</g>
</g>
<!-- dir_e1923c614f4b03525ac7144846881d68&#45;&gt;dir_7dbd9d3bbc5ec1ce3207b09771479ec4 -->
<g id="edge7" class="edge">
<title>dir_e1923c614f4b03525ac7144846881d68&#45;&gt;dir_7dbd9d3bbc5ec1ce3207b09771479ec4</title>
<g id="a_edge7"><a xlink:href="dir_000067_000002.html" target="_top">
<path fill="none" stroke="#63b8ff" d="M430.42,-70.98C415.23,-62.69 391.9,-49.94 374.1,-40.22"/>
<polygon fill="#63b8ff" stroke="#63b8ff" points="375.32,-36.89 364.87,-35.17 371.97,-43.04 375.32,-36.89"/>
</a>
</g>
<g id="a_edge7&#45;headlabel"><a xlink:href="dir_000067_000002.html" target="_top" xlink:title="9">
<text text-anchor="middle" x="379.84" y="-33.63" font-family="Helvetica,sans-Serif" font-size="10.00" fill="#63b8ff">9</text>
</a>
</g>
</g>
<!-- dir_e1923c614f4b03525ac7144846881d68&#45;&gt;dir_81c0eb580ec169d40a39b9eb818bd54f -->
<g id="edge9" class="edge">
<title>dir_e1923c614f4b03525ac7144846881d68&#45;&gt;dir_81c0eb580ec169d40a39b9eb818bd54f</title>
<g id="a_edge9"><a xlink:href="dir_000067_000106.html" target="_top">
<path fill="none" stroke="#63b8ff" d="M440.72,-70.75C436.29,-63.42 429.84,-52.73 424.38,-43.7"/>
<polygon fill="#63b8ff" stroke="#63b8ff" points="427.35,-41.84 419.19,-35.09 421.36,-45.46 427.35,-41.84"/>
</a>
</g>
<g id="a_edge9&#45;headlabel"><a xlink:href="dir_000067_000106.html" target="_top" xlink:title="1">
<text text-anchor="middle" x="431.64" y="-40.95" font-family="Helvetica,sans-Serif" font-size="10.00" fill="#63b8ff">1</text>
</a>
</g>
</g>
<!-- dir_e1923c614f4b03525ac7144846881d68&#45;&gt;dir_a9eeef4ea84c0f2ac1fcae7dc81166a9 -->
<g id="edge10" class="edge">
<title>dir_e1923c614f4b03525ac7144846881d68&#45;&gt;dir_a9eeef4ea84c0f2ac1fcae7dc81166a9</title>
<g id="a_edge10"><a xlink:href="dir_000067_000078.html" target="_top">
<path fill="none" stroke="#63b8ff" d="M451.28,-70.75C455.71,-63.42 462.16,-52.73 467.62,-43.7"/>
<polygon fill="#63b8ff" stroke="#63b8ff" points="470.64,-45.46 472.81,-35.09 464.65,-41.84 470.64,-45.46"/>
</a>
</g>
<g id="a_edge10&#45;headlabel"><a xlink:href="dir_000067_000078.html" target="_top" xlink:title="19">
<text text-anchor="middle" x="471.21" y="-47.5" font-family="Helvetica,sans-Serif" font-size="10.00" fill="#63b8ff">19</text>
</a>
</g>
</g>
<!-- dir_e1923c614f4b03525ac7144846881d68&#45;&gt;dir_da67872344adeb77b7597d4d35f63a13 -->
<g id="edge11" class="edge">
<title>dir_e1923c614f4b03525ac7144846881d68&#45;&gt;dir_da67872344adeb77b7597d4d35f63a13</title>
<g id="a_edge11"><a xlink:href="dir_000067_000056.html" target="_top">
<path fill="none" stroke="#63b8ff" d="M462.71,-70.98C479.21,-62.57 504.7,-49.59 523.88,-39.81"/>
<polygon fill="#63b8ff" stroke="#63b8ff" points="525.67,-42.83 532.99,-35.17 522.49,-36.59 525.67,-42.83"/>
</a>
</g>
<g id="a_edge11&#45;headlabel"><a xlink:href="dir_000067_000056.html" target="_top" xlink:title="1">
<text text-anchor="middle" x="523.75" y="-44.49" font-family="Helvetica,sans-Serif" font-size="10.00" fill="#63b8ff">1</text>
</a>
</g>
</g>
<!-- dir_e1923c614f4b03525ac7144846881d68&#45;&gt;dir_e7cb7bafb43ee83e0fcfb92ab54d7b45 -->
<g id="edge12" class="edge">
<title>dir_e1923c614f4b03525ac7144846881d68&#45;&gt;dir_e7cb7bafb43ee83e0fcfb92ab54d7b45</title>
<g id="a_edge12"><a xlink:href="dir_000067_000023.html" target="_top">
<path fill="none" stroke="#63b8ff" d="M474.44,-70.98C507.03,-61.23 560.19,-45.31 593.3,-35.39"/>
<polygon fill="#63b8ff" stroke="#63b8ff" points="594.31,-38.74 602.89,-32.52 592.31,-32.04 594.31,-38.74"/>
</a>
</g>
<g id="a_edge12&#45;headlabel"><a xlink:href="dir_000067_000023.html" target="_top" xlink:title="1">
<text text-anchor="middle" x="591.68" y="-39.99" font-family="Helvetica,sans-Serif" font-size="10.00" fill="#63b8ff">1</text>
</a>
</g>
</g>
<!-- dir_313caf1132e152dd9b58bea13a4052ca -->
<g id="node11" class="node">
<title>dir_313caf1132e152dd9b58bea13a4052ca</title>
<g id="a_node11"><a xlink:href="dir_313caf1132e152dd9b58bea13a4052ca.html" target="_top" xlink:title="utils">
<polygon fill="#edf0f7" stroke="red" stroke-dasharray="5,2" points="699,-35 661,-35 661,-16 699,-16 699,-35"/>
<text text-anchor="middle" x="680" y="-23" font-family="Helvetica,sans-Serif" font-size="10.00">utils</text>
</a>
</g>
</g>
<!-- dir_e1923c614f4b03525ac7144846881d68&#45;&gt;dir_313caf1132e152dd9b58bea13a4052ca -->
<g id="edge2" class="edge">
<title>dir_e1923c614f4b03525ac7144846881d68&#45;&gt;dir_313caf1132e152dd9b58bea13a4052ca</title>
<g id="a_edge2"><a xlink:href="dir_000067_000110.html" target="_top">
<path fill="none" stroke="#63b8ff" d="M492.04,-71.32C532.39,-63.78 592.78,-51.64 651.22,-35.89"/>
<polygon fill="#63b8ff" stroke="#63b8ff" points="652.24,-39.24 660.96,-33.23 650.39,-32.49 652.24,-39.24"/>
</a>
</g>
<g id="a_edge2&#45;headlabel"><a xlink:href="dir_000067_000110.html" target="_top" xlink:title="19">
<text text-anchor="middle" x="649.52" y="-40.43" font-family="Helvetica,sans-Serif" font-size="10.00" fill="#63b8ff">19</text>
</a>
</g>
</g>
<!-- dir_6b1bc8dbed61aad9285ea21a86c5efa5 -->
<g id="node12" class="node">
<title>dir_6b1bc8dbed61aad9285ea21a86c5efa5</title>
<g id="a_node12"><a xlink:href="dir_6b1bc8dbed61aad9285ea21a86c5efa5.html" target="_top" xlink:title="scafacos">
<polygon fill="#edf0f7" stroke="red" stroke-dasharray="5,2" points="776.5,-35 717.5,-35 717.5,-16 776.5,-16 776.5,-35"/>
<text text-anchor="middle" x="747" y="-23" font-family="Helvetica,sans-Serif" font-size="10.00">scafacos</text>
</a>
</g>
</g>
<!-- dir_e1923c614f4b03525ac7144846881d68&#45;&gt;dir_6b1bc8dbed61aad9285ea21a86c5efa5 -->
<g id="edge6" class="edge">
<title>dir_e1923c614f4b03525ac7144846881d68&#45;&gt;dir_6b1bc8dbed61aad9285ea21a86c5efa5</title>
<g id="a_edge6"><a xlink:href="dir_000067_000091.html" target="_top">
<path fill="none" stroke="#63b8ff" d="M492.03,-72.34C542.39,-64.37 625.75,-50.73 707.29,-35.06"/>
<polygon fill="#63b8ff" stroke="#63b8ff" points="708.07,-38.48 717.22,-33.14 706.74,-31.6 708.07,-38.48"/>
</a>
</g>
<g id="a_edge6&#45;headlabel"><a xlink:href="dir_000067_000091.html" target="_top" xlink:title="1">
<text text-anchor="middle" x="705.08" y="-39.45" font-family="Helvetica,sans-Serif" font-size="10.00" fill="#63b8ff">1</text>
</a>
</g>
</g>
<!-- dir_7e83d1792d529f4aa7126ac7e0b3b699 -->
<g id="node13" class="node">
<title>dir_7e83d1792d529f4aa7126ac7e0b3b699</title>
<g id="a_node13"><a xlink:href="dir_7e83d1792d529f4aa7126ac7e0b3b699.html" target="_top" xlink:title="config">
<polygon fill="#edf0f7" stroke="red" stroke-dasharray="5,2" points="841,-35 795,-35 795,-16 841,-16 841,-35"/>
<text text-anchor="middle" x="818" y="-23" font-family="Helvetica,sans-Serif" font-size="10.00">config</text>
</a>
</g>
</g>
<!-- dir_e1923c614f4b03525ac7144846881d68&#45;&gt;dir_7e83d1792d529f4aa7126ac7e0b3b699 -->
<g id="edge8" class="edge">
<title>dir_e1923c614f4b03525ac7144846881d68&#45;&gt;dir_7e83d1792d529f4aa7126ac7e0b3b699</title>
<g id="a_edge8"><a xlink:href="dir_000067_000017.html" target="_top">
<path fill="none" stroke="#63b8ff" d="M492.23,-75.37C556,-69.24 674.68,-56.33 784.72,-35.03"/>
<polygon fill="#63b8ff" stroke="#63b8ff" points="785.53,-38.43 794.66,-33.07 784.18,-31.57 785.53,-38.43"/>
</a>
</g>
<g id="a_edge8&#45;headlabel"><a xlink:href="dir_000067_000017.html" target="_top" xlink:title="20">
<text text-anchor="middle" x="782.55" y="-39.41" font-family="Helvetica,sans-Serif" font-size="10.00" fill="#63b8ff">20</text>
</a>
</g>
</g>
</g>
</svg>

<g id="navigator" transform="translate(0 0)" fill="#404254">
  <rect fill="#f2f5e9" fill-opacity="0.5" stroke="#606060" stroke-width=".5" x="0" y="0" width="60" height="60"/>
  <use id="zoomplus" xlink:href="#zoomPlus" x="17" y="9" onmousedown="handleZoom(evt,'in')"/>
  <use id="zoomminus" xlink:href="#zoomMin" x="42" y="9" onmousedown="handleZoom(evt,'out')"/>
  <use id="reset" xlink:href="#resetDef" x="30" y="36" onmousedown="handleReset()"/>
   <use id="arrowup" xlink:href="#arrowUp" x="0" y="0" onmousedown="handlePan(0,-1)"/>
  <use id="arrowright" xlink:href="#arrowRight" x="0" y="0" onmousedown="handlePan(1,0)"/>
  <use id="arrowdown" xlink:href="#arrowDown" x="0" y="0" onmousedown="handlePan(0,1)"/>
  <use id="arrowleft" xlink:href="#arrowLeft" x="0" y="0" onmousedown="handlePan(-1,0)"/>
</g>
<svg viewBox="0 0 15 15" width="100%" height="30px" preserveAspectRatio="xMaxYMin meet">
 <g id="arrow_out" transform="scale(0.3 0.3)">
  <a xlink:href="dir_e1923c614f4b03525ac7144846881d68_dep_org.svg" target="_base">
   <rect id="button" ry="5" rx="5" y="6" x="6" height="38" width="38"
        fill="#f2f5e9" fill-opacity="0.5" stroke="#606060" stroke-width="1.0"/>
   <path id="arrow"
     d="M 11.500037,31.436501 C 11.940474,20.09759 22.043105,11.32322 32.158766,21.979434 L 37.068811,17.246167 C 37.068811,17.246167 37.088388,32 37.088388,32 L 22.160133,31.978069 C 22.160133,31.978069 26.997745,27.140456 26.997745,27.140456 C 18.528582,18.264221 13.291696,25.230495 11.500037,31.436501 z"
     style="fill:#404040;"/>
  </a>
 </g>
</svg>

<style type='text/css'>
<![CDATA[
[data-mouse-over-selected='false'] { opacity: 0.7; }
[data-mouse-over-selected='true']  { opacity: 1.0; }
]]>
</style>
<script type="application/ecmascript"><![CDATA[
document.addEventListener('DOMContentLoaded', (event) => {
  highlightEdges();
  highlightAdjacentNodes();
});
]]></script>
</svg>
