<?xml version="1.0" encoding="UTF-8" standalone="no"?>
<!DOCTYPE svg PUBLIC "-//W3C//DTD SVG 1.1//EN"
 "http://www.w3.org/Graphics/SVG/1.1/DTD/svg11.dtd">
<!-- Generated by graphviz version 2.43.0 (0)
 -->
<!-- Title: Dirichlet_single_precision.cpp Pages: 1 -->
<svg width="1229pt" height="148pt"
 viewBox="0.00 0.00 1229.00 148.00" xmlns="http://www.w3.org/2000/svg" xmlns:xlink="http://www.w3.org/1999/xlink">
<g id="graph0" class="graph" transform="scale(1 1) rotate(0) translate(4 144)">
<title>Dirichlet_single_precision.cpp</title>
<!-- Node1 -->
<g id="Node000001" class="node">
<title>Node1</title>
<g id="a_Node000001"><a xlink:title=" ">
<polygon fill="#999999" stroke="#666666" points="713.5,-140 551.5,-140 551.5,-121 713.5,-121 713.5,-140"/>
<text text-anchor="middle" x="632.5" y="-128" font-family="Helvetica,sans-Serif" font-size="10.00">Dirichlet_single_precision.cpp</text>
</a>
</g>
</g>
<!-- Node2 -->
<g id="Node000002" class="node">
<title>Node2</title>
<g id="a_Node000002"><a xlink:href="Dirichlet__single__precision_8h.html" target="_top" xlink:title=" ">
<polygon fill="white" stroke="#666666" points="708,-85 557,-85 557,-66 708,-66 708,-85"/>
<text text-anchor="middle" x="632.5" y="-73" font-family="Helvetica,sans-Serif" font-size="10.00">Dirichlet_single_precision.h</text>
</a>
</g>
</g>
<!-- Node1&#45;&gt;Node2 -->
<g id="edge1_Node000001_Node000002" class="edge">
<title>Node1&#45;&gt;Node2</title>
<g id="a_edge1_Node000001_Node000002"><a xlink:title=" ">
<path fill="none" stroke="#63b8ff" d="M632.5,-120.75C632.5,-113.8 632.5,-103.85 632.5,-95.13"/>
<polygon fill="#63b8ff" stroke="#63b8ff" points="636,-95.09 632.5,-85.09 629,-95.09 636,-95.09"/>
</a>
</g>
</g>
<!-- Node3 -->
<g id="Node000003" class="node">
<title>Node3</title>
<g id="a_Node000003"><a xlink:title=" ">
<polygon fill="#e0e0e0" stroke="#999999" points="101,-24.5 0,-24.5 0,-5.5 101,-5.5 101,-24.5"/>
<text text-anchor="middle" x="50.5" y="-12.5" font-family="Helvetica,sans-Serif" font-size="10.00">core/DataTypes.h</text>
</a>
</g>
</g>
<!-- Node1&#45;&gt;Node3 -->
<g id="edge12_Node000001_Node000003" class="edge">
<title>Node1&#45;&gt;Node3</title>
<g id="a_edge12_Node000001_Node000003"><a xlink:title=" ">
<path fill="none" stroke="#63b8ff" d="M583.68,-120.97C491,-104.61 283.27,-67.13 109.5,-30 104.85,-29.01 100.01,-27.93 95.19,-26.83"/>
<polygon fill="#63b8ff" stroke="#63b8ff" points="95.92,-23.4 85.38,-24.55 94.33,-30.22 95.92,-23.4"/>
</a>
</g>
</g>
<!-- Node13 -->
<g id="Node000013" class="node">
<title>Node13</title>
<g id="a_Node000013"><a xlink:title=" ">
<polygon fill="#e0e0e0" stroke="#999999" points="811,-85 726,-85 726,-66 811,-66 811,-85"/>
<text text-anchor="middle" x="768.5" y="-73" font-family="Helvetica,sans-Serif" font-size="10.00">core/Macros.h</text>
</a>
</g>
</g>
<!-- Node1&#45;&gt;Node13 -->
<g id="edge13_Node000001_Node000013" class="edge">
<title>Node1&#45;&gt;Node13</title>
<g id="a_edge13_Node000001_Node000013"><a xlink:title=" ">
<path fill="none" stroke="#63b8ff" d="M654.35,-120.98C676.62,-112.3 711.4,-98.75 736.72,-88.88"/>
<polygon fill="#63b8ff" stroke="#63b8ff" points="738.21,-92.06 746.25,-85.17 735.66,-85.54 738.21,-92.06"/>
</a>
</g>
</g>
<!-- Node2&#45;&gt;Node3 -->
<g id="edge2_Node000002_Node000003" class="edge">
<title>Node2&#45;&gt;Node3</title>
<g id="a_edge2_Node000002_Node000003"><a xlink:title=" ">
<path fill="none" stroke="#63b8ff" d="M556.72,-71.57C454.61,-66.83 267.41,-55.31 109.5,-30 104.04,-29.13 98.34,-28.02 92.73,-26.82"/>
<polygon fill="#63b8ff" stroke="#63b8ff" points="93.31,-23.36 82.79,-24.57 91.77,-30.19 93.31,-23.36"/>
</a>
</g>
</g>
<!-- Node4 -->
<g id="Node000004" class="node">
<title>Node4</title>
<g id="a_Node000004"><a xlink:title=" ">
<polygon fill="#e0e0e0" stroke="#999999" points="246,-24.5 119,-24.5 119,-5.5 246,-5.5 246,-24.5"/>
<text text-anchor="middle" x="182.5" y="-12.5" font-family="Helvetica,sans-Serif" font-size="10.00">core/logging/Logging.h</text>
</a>
</g>
</g>
<!-- Node2&#45;&gt;Node4 -->
<g id="edge3_Node000002_Node000004" class="edge">
<title>Node2&#45;&gt;Node4</title>
<g id="a_edge3_Node000002_Node000004"><a xlink:title=" ">
<path fill="none" stroke="#63b8ff" d="M556.82,-67.18C480.54,-59.43 359.55,-46.1 255.5,-30 248.65,-28.94 241.45,-27.71 234.36,-26.42"/>
<polygon fill="#63b8ff" stroke="#63b8ff" points="234.57,-22.9 224.1,-24.51 233.29,-29.78 234.57,-22.9"/>
</a>
</g>
</g>
<!-- Node5 -->
<g id="Node000005" class="node">
<title>Node5</title>
<g id="a_Node000005"><a xlink:title=" ">
<polygon fill="#e0e0e0" stroke="#999999" points="416.5,-30 264.5,-30 264.5,0 416.5,0 416.5,-30"/>
<text text-anchor="start" x="272.5" y="-18" font-family="Helvetica,sans-Serif" font-size="10.00">blockforest/StructuredBlock</text>
<text text-anchor="middle" x="340.5" y="-7" font-family="Helvetica,sans-Serif" font-size="10.00">Forest.h</text>
</a>
</g>
</g>
<!-- Node2&#45;&gt;Node5 -->
<g id="edge4_Node000002_Node000005" class="edge">
<title>Node2&#45;&gt;Node5</title>
<g id="a_edge4_Node000002_Node000005"><a xlink:title=" ">
<path fill="none" stroke="#63b8ff" d="M590.04,-65.99C545.74,-57.12 475.24,-42.99 420.46,-32.02"/>
<polygon fill="#63b8ff" stroke="#63b8ff" points="420.91,-28.54 410.42,-30.01 419.54,-35.4 420.91,-28.54"/>
</a>
</g>
</g>
<!-- Node6 -->
<g id="Node000006" class="node">
<title>Node6</title>
<g id="a_Node000006"><a xlink:title=" ">
<polygon fill="#e0e0e0" stroke="#999999" points="548.5,-24.5 434.5,-24.5 434.5,-5.5 548.5,-5.5 548.5,-24.5"/>
<text text-anchor="middle" x="491.5" y="-12.5" font-family="Helvetica,sans-Serif" font-size="10.00">core/debug/Debug.h</text>
</a>
</g>
</g>
<!-- Node2&#45;&gt;Node6 -->
<g id="edge5_Node000002_Node000006" class="edge">
<title>Node2&#45;&gt;Node6</title>
<g id="a_edge5_Node000002_Node000006"><a xlink:title=" ">
<path fill="none" stroke="#63b8ff" d="M612,-65.99C588.19,-56.12 548.71,-39.73 521.46,-28.43"/>
<polygon fill="#63b8ff" stroke="#63b8ff" points="522.61,-25.12 512.03,-24.52 519.92,-31.58 522.61,-25.12"/>
</a>
</g>
</g>
<!-- Node7 -->
<g id="Node000007" class="node">
<title>Node7</title>
<g id="a_Node000007"><a xlink:title=" ">
<polygon fill="#e0e0e0" stroke="#999999" points="698,-30 567,-30 567,0 698,0 698,-30"/>
<text text-anchor="start" x="575" y="-18" font-family="Helvetica,sans-Serif" font-size="10.00">domain_decomposition</text>
<text text-anchor="middle" x="632.5" y="-7" font-family="Helvetica,sans-Serif" font-size="10.00">/BlockDataID.h</text>
</a>
</g>
</g>
<!-- Node2&#45;&gt;Node7 -->
<g id="edge6_Node000002_Node000007" class="edge">
<title>Node2&#45;&gt;Node7</title>
<g id="a_edge6_Node000002_Node000007"><a xlink:title=" ">
<path fill="none" stroke="#63b8ff" d="M632.5,-65.87C632.5,-59.11 632.5,-49.35 632.5,-40.26"/>
<polygon fill="#63b8ff" stroke="#63b8ff" points="636,-40.11 632.5,-30.11 629,-40.11 636,-40.11"/>
</a>
</g>
</g>
<!-- Node8 -->
<g id="Node000008" class="node">
<title>Node8</title>
<g id="a_Node000008"><a xlink:title=" ">
<polygon fill="#e0e0e0" stroke="#999999" points="847,-30 716,-30 716,0 847,0 847,-30"/>
<text text-anchor="start" x="724" y="-18" font-family="Helvetica,sans-Serif" font-size="10.00">domain_decomposition</text>
<text text-anchor="middle" x="781.5" y="-7" font-family="Helvetica,sans-Serif" font-size="10.00">/IBlock.h</text>
</a>
</g>
</g>
<!-- Node2&#45;&gt;Node8 -->
<g id="edge7_Node000002_Node000008" class="edge">
<title>Node2&#45;&gt;Node8</title>
<g id="a_edge7_Node000002_Node000008"><a xlink:title=" ">
<path fill="none" stroke="#63b8ff" d="M654.17,-65.99C675.61,-57.57 709.08,-44.43 736.33,-33.73"/>
<polygon fill="#63b8ff" stroke="#63b8ff" points="737.65,-36.98 745.68,-30.06 735.09,-30.46 737.65,-36.98"/>
</a>
</g>
</g>
<!-- Node9 -->
<g id="Node000009" class="node">
<title>Node9</title>
<g id="a_Node000009"><a xlink:title=" ">
<polygon fill="#e0e0e0" stroke="#999999" points="959.5,-24.5 865.5,-24.5 865.5,-5.5 959.5,-5.5 959.5,-24.5"/>
<text text-anchor="middle" x="912.5" y="-12.5" font-family="Helvetica,sans-Serif" font-size="10.00">field/FlagField.h</text>
</a>
</g>
</g>
<!-- Node2&#45;&gt;Node9 -->
<g id="edge8_Node000002_Node000009" class="edge">
<title>Node2&#45;&gt;Node9</title>
<g id="a_edge8_Node000002_Node000009"><a xlink:title=" ">
<path fill="none" stroke="#63b8ff" d="M678.97,-65.95C724.37,-57.44 795.37,-43.7 856.5,-30 860.68,-29.06 865.03,-28.05 869.37,-27.01"/>
<polygon fill="#63b8ff" stroke="#63b8ff" points="870.51,-30.33 879.4,-24.56 868.85,-23.53 870.51,-30.33"/>
</a>
</g>
</g>
<!-- Node10 -->
<g id="Node000010" class="node">
<title>Node10</title>
<g id="a_Node000010"><a xlink:title=" ">
<polygon fill="#e0e0e0" stroke="#999999" points="1105.5,-24.5 977.5,-24.5 977.5,-5.5 1105.5,-5.5 1105.5,-24.5"/>
<text text-anchor="middle" x="1041.5" y="-12.5" font-family="Helvetica,sans-Serif" font-size="10.00">field/GhostLayerField.h</text>
</a>
</g>
</g>
<!-- Node2&#45;&gt;Node10 -->
<g id="edge9_Node000002_Node000010" class="edge">
<title>Node2&#45;&gt;Node10</title>
<g id="a_edge9_Node000002_Node000010"><a xlink:title=" ">
<path fill="none" stroke="#63b8ff" d="M706.09,-66C774.28,-57.82 878.47,-44.58 968.5,-30 975.18,-28.92 982.18,-27.69 989.09,-26.43"/>
<polygon fill="#63b8ff" stroke="#63b8ff" points="989.92,-29.83 999.11,-24.56 988.64,-22.95 989.92,-29.83"/>
</a>
</g>
</g>
<!-- Node11 -->
<g id="Node000011" class="node">
<title>Node11</title>
<g id="a_Node000011"><a xlink:title=" ">
<polygon fill="#e0e0e0" stroke="#999999" points="1155.5,-24.5 1123.5,-24.5 1123.5,-5.5 1155.5,-5.5 1155.5,-24.5"/>
<text text-anchor="middle" x="1139.5" y="-12.5" font-family="Helvetica,sans-Serif" font-size="10.00">set</text>
</a>
</g>
</g>
<!-- Node2&#45;&gt;Node11 -->
<g id="edge10_Node000002_Node000011" class="edge">
<title>Node2&#45;&gt;Node11</title>
<g id="a_edge10_Node000002_Node000011"><a xlink:title=" ">
<path fill="none" stroke="#63b8ff" d="M708.04,-66.91C711.24,-66.6 714.4,-66.3 717.5,-66 893.87,-49.19 945.27,-82.43 1114.5,-30 1115.55,-29.68 1116.6,-29.3 1117.64,-28.9"/>
<polygon fill="#63b8ff" stroke="#63b8ff" points="1119.25,-32 1126.73,-24.5 1116.21,-25.7 1119.25,-32"/>
</a>
</g>
</g>
<!-- Node12 -->
<g id="Node000012" class="node">
<title>Node12</title>
<g id="a_Node000012"><a xlink:title=" ">
<polygon fill="#e0e0e0" stroke="#999999" points="1221,-24.5 1174,-24.5 1174,-5.5 1221,-5.5 1221,-24.5"/>
<text text-anchor="middle" x="1197.5" y="-12.5" font-family="Helvetica,sans-Serif" font-size="10.00">vector</text>
</a>
</g>
</g>
<!-- Node2&#45;&gt;Node12 -->
<g id="edge11_Node000002_Node000012" class="edge">
<title>Node2&#45;&gt;Node12</title>
<g id="a_edge11_Node000002_Node000012"><a xlink:title=" ">
<path fill="none" stroke="#63b8ff" d="M708.04,-66.87C711.23,-66.57 714.4,-66.28 717.5,-66 916,-48.08 970.94,-77.53 1164.5,-30 1166.45,-29.52 1168.43,-28.94 1170.41,-28.29"/>
<polygon fill="#63b8ff" stroke="#63b8ff" points="1171.94,-31.45 1180.05,-24.63 1169.46,-24.91 1171.94,-31.45"/>
</a>
</g>
</g>
</g>
</svg>
