<?xml version="1.0" encoding="UTF-8" standalone="no"?>
<!DOCTYPE svg PUBLIC "-//W3C//DTD SVG 1.1//EN"
 "http://www.w3.org/Graphics/SVG/1.1/DTD/svg11.dtd">
<!-- Generated by graphviz version 2.43.0 (0)
 -->
<!-- Title: Dirichlet_double_precision.cpp Pages: 1 -->
<svg width="1339pt" height="148pt"
 viewBox="0.00 0.00 1339.00 148.00" xmlns="http://www.w3.org/2000/svg" xmlns:xlink="http://www.w3.org/1999/xlink">
<g id="graph0" class="graph" transform="scale(1 1) rotate(0) translate(4 144)">
<title>Dirichlet_double_precision.cpp</title>
<!-- Node1 -->
<g id="Node000001" class="node">
<title>Node1</title>
<g id="a_Node000001"><a xlink:title=" ">
<polygon fill="#999999" stroke="#666666" points="789.5,-140 623.5,-140 623.5,-121 789.5,-121 789.5,-140"/>
<text text-anchor="middle" x="706.5" y="-128" font-family="Helvetica,sans-Serif" font-size="10.00">Dirichlet_double_precision.cpp</text>
</a>
</g>
</g>
<!-- Node2 -->
<g id="Node000002" class="node">
<title>Node2</title>
<g id="a_Node000002"><a xlink:href="Dirichlet__double__precision_8h.html" target="_top" xlink:title=" ">
<polygon fill="white" stroke="#666666" points="784,-85 629,-85 629,-66 784,-66 784,-85"/>
<text text-anchor="middle" x="706.5" y="-73" font-family="Helvetica,sans-Serif" font-size="10.00">Dirichlet_double_precision.h</text>
</a>
</g>
</g>
<!-- Node1&#45;&gt;Node2 -->
<g id="edge1_Node000001_Node000002" class="edge">
<title>Node1&#45;&gt;Node2</title>
<g id="a_edge1_Node000001_Node000002"><a xlink:title=" ">
<path fill="none" stroke="#63b8ff" d="M706.5,-120.75C706.5,-113.8 706.5,-103.85 706.5,-95.13"/>
<polygon fill="#63b8ff" stroke="#63b8ff" points="710,-95.09 706.5,-85.09 703,-95.09 710,-95.09"/>
</a>
</g>
</g>
<!-- Node3 -->
<g id="Node000003" class="node">
<title>Node3</title>
<g id="a_Node000003"><a xlink:title=" ">
<polygon fill="#e0e0e0" stroke="#999999" points="101,-24.5 0,-24.5 0,-5.5 101,-5.5 101,-24.5"/>
<text text-anchor="middle" x="50.5" y="-12.5" font-family="Helvetica,sans-Serif" font-size="10.00">core/DataTypes.h</text>
</a>
</g>
</g>
<!-- Node1&#45;&gt;Node3 -->
<g id="edge13_Node000001_Node000003" class="edge">
<title>Node1&#45;&gt;Node3</title>
<g id="a_edge13_Node000001_Node000003"><a xlink:title=" ">
<path fill="none" stroke="#63b8ff" d="M646.94,-120.94C539.26,-105.17 305.2,-69.48 109.5,-30 104.72,-29.04 99.74,-27.96 94.79,-26.85"/>
<polygon fill="#63b8ff" stroke="#63b8ff" points="95.26,-23.37 84.73,-24.54 93.69,-30.19 95.26,-23.37"/>
</a>
</g>
</g>
<!-- Node14 -->
<g id="Node000014" class="node">
<title>Node14</title>
<g id="a_Node000014"><a xlink:title=" ">
<polygon fill="#e0e0e0" stroke="#999999" points="887,-85 802,-85 802,-66 887,-66 887,-85"/>
<text text-anchor="middle" x="844.5" y="-73" font-family="Helvetica,sans-Serif" font-size="10.00">core/Macros.h</text>
</a>
</g>
</g>
<!-- Node1&#45;&gt;Node14 -->
<g id="edge14_Node000001_Node000014" class="edge">
<title>Node1&#45;&gt;Node14</title>
<g id="a_edge14_Node000001_Node000014"><a xlink:title=" ">
<path fill="none" stroke="#63b8ff" d="M728.67,-120.98C751.27,-112.3 786.56,-98.75 812.25,-88.88"/>
<polygon fill="#63b8ff" stroke="#63b8ff" points="813.84,-92.02 821.92,-85.17 811.33,-85.49 813.84,-92.02"/>
</a>
</g>
</g>
<!-- Node2&#45;&gt;Node3 -->
<g id="edge2_Node000002_Node000003" class="edge">
<title>Node2&#45;&gt;Node3</title>
<g id="a_edge2_Node000002_Node000003"><a xlink:title=" ">
<path fill="none" stroke="#63b8ff" d="M628.77,-72.64C514.42,-69 294.37,-58.64 109.5,-30 103.97,-29.14 98.2,-28.04 92.52,-26.83"/>
<polygon fill="#63b8ff" stroke="#63b8ff" points="92.99,-23.35 82.47,-24.56 91.45,-30.18 92.99,-23.35"/>
</a>
</g>
</g>
<!-- Node4 -->
<g id="Node000004" class="node">
<title>Node4</title>
<g id="a_Node000004"><a xlink:title=" ">
<polygon fill="#e0e0e0" stroke="#999999" points="246,-24.5 119,-24.5 119,-5.5 246,-5.5 246,-24.5"/>
<text text-anchor="middle" x="182.5" y="-12.5" font-family="Helvetica,sans-Serif" font-size="10.00">core/logging/Logging.h</text>
</a>
</g>
</g>
<!-- Node2&#45;&gt;Node4 -->
<g id="edge3_Node000002_Node000004" class="edge">
<title>Node2&#45;&gt;Node4</title>
<g id="a_edge3_Node000002_Node000004"><a xlink:title=" ">
<path fill="none" stroke="#63b8ff" d="M628.83,-69C538.75,-62.12 385.92,-48.9 255.5,-30 248.3,-28.96 240.73,-27.69 233.31,-26.36"/>
<polygon fill="#63b8ff" stroke="#63b8ff" points="233.79,-22.89 223.31,-24.51 232.51,-29.77 233.79,-22.89"/>
</a>
</g>
</g>
<!-- Node5 -->
<g id="Node000005" class="node">
<title>Node5</title>
<g id="a_Node000005"><a xlink:title=" ">
<polygon fill="#e0e0e0" stroke="#999999" points="416.5,-30 264.5,-30 264.5,0 416.5,0 416.5,-30"/>
<text text-anchor="start" x="272.5" y="-18" font-family="Helvetica,sans-Serif" font-size="10.00">blockforest/StructuredBlock</text>
<text text-anchor="middle" x="340.5" y="-7" font-family="Helvetica,sans-Serif" font-size="10.00">Forest.h</text>
</a>
</g>
</g>
<!-- Node2&#45;&gt;Node5 -->
<g id="edge4_Node000002_Node000005" class="edge">
<title>Node2&#45;&gt;Node5</title>
<g id="a_edge4_Node000002_Node000005"><a xlink:title=" ">
<path fill="none" stroke="#63b8ff" d="M652.09,-65.99C597.63,-57.44 511.15,-43.81 426.94,-30.23"/>
<polygon fill="#63b8ff" stroke="#63b8ff" points="427.38,-26.75 416.95,-28.61 426.27,-33.66 427.38,-26.75"/>
</a>
</g>
</g>
<!-- Node6 -->
<g id="Node000006" class="node">
<title>Node6</title>
<g id="a_Node000006"><a xlink:title=" ">
<polygon fill="#e0e0e0" stroke="#999999" points="548.5,-24.5 434.5,-24.5 434.5,-5.5 548.5,-5.5 548.5,-24.5"/>
<text text-anchor="middle" x="491.5" y="-12.5" font-family="Helvetica,sans-Serif" font-size="10.00">core/debug/Debug.h</text>
</a>
</g>
</g>
<!-- Node2&#45;&gt;Node6 -->
<g id="edge5_Node000002_Node000006" class="edge">
<title>Node2&#45;&gt;Node6</title>
<g id="a_edge5_Node000002_Node000006"><a xlink:title=" ">
<path fill="none" stroke="#63b8ff" d="M675.24,-65.99C637.58,-55.75 574.21,-38.5 532.62,-27.19"/>
<polygon fill="#63b8ff" stroke="#63b8ff" points="533.37,-23.77 522.8,-24.52 531.53,-30.52 533.37,-23.77"/>
</a>
</g>
</g>
<!-- Node7 -->
<g id="Node000007" class="node">
<title>Node7</title>
<g id="a_Node000007"><a xlink:title=" ">
<polygon fill="#e0e0e0" stroke="#999999" points="698,-30 567,-30 567,0 698,0 698,-30"/>
<text text-anchor="start" x="575" y="-18" font-family="Helvetica,sans-Serif" font-size="10.00">domain_decomposition</text>
<text text-anchor="middle" x="632.5" y="-7" font-family="Helvetica,sans-Serif" font-size="10.00">/BlockDataID.h</text>
</a>
</g>
</g>
<!-- Node2&#45;&gt;Node7 -->
<g id="edge6_Node000002_Node000007" class="edge">
<title>Node2&#45;&gt;Node7</title>
<g id="a_edge6_Node000002_Node000007"><a xlink:title=" ">
<path fill="none" stroke="#63b8ff" d="M695.58,-65.87C685.82,-58.15 671.13,-46.54 658.38,-36.46"/>
<polygon fill="#63b8ff" stroke="#63b8ff" points="660.37,-33.57 650.35,-30.11 656.03,-39.06 660.37,-33.57"/>
</a>
</g>
</g>
<!-- Node8 -->
<g id="Node000008" class="node">
<title>Node8</title>
<g id="a_Node000008"><a xlink:title=" ">
<polygon fill="#e0e0e0" stroke="#999999" points="847,-30 716,-30 716,0 847,0 847,-30"/>
<text text-anchor="start" x="724" y="-18" font-family="Helvetica,sans-Serif" font-size="10.00">domain_decomposition</text>
<text text-anchor="middle" x="781.5" y="-7" font-family="Helvetica,sans-Serif" font-size="10.00">/IBlock.h</text>
</a>
</g>
</g>
<!-- Node2&#45;&gt;Node8 -->
<g id="edge7_Node000002_Node000008" class="edge">
<title>Node2&#45;&gt;Node8</title>
<g id="a_edge7_Node000002_Node000008"><a xlink:title=" ">
<path fill="none" stroke="#63b8ff" d="M717.57,-65.87C727.46,-58.15 742.35,-46.54 755.27,-36.46"/>
<polygon fill="#63b8ff" stroke="#63b8ff" points="757.67,-39.02 763.4,-30.11 753.37,-33.51 757.67,-39.02"/>
</a>
</g>
</g>
<!-- Node9 -->
<g id="Node000009" class="node">
<title>Node9</title>
<g id="a_Node000009"><a xlink:title=" ">
<polygon fill="#e0e0e0" stroke="#999999" points="959.5,-24.5 865.5,-24.5 865.5,-5.5 959.5,-5.5 959.5,-24.5"/>
<text text-anchor="middle" x="912.5" y="-12.5" font-family="Helvetica,sans-Serif" font-size="10.00">field/FlagField.h</text>
</a>
</g>
</g>
<!-- Node2&#45;&gt;Node9 -->
<g id="edge8_Node000002_Node000009" class="edge">
<title>Node2&#45;&gt;Node9</title>
<g id="a_edge8_Node000002_Node000009"><a xlink:title=" ">
<path fill="none" stroke="#63b8ff" d="M736.45,-65.99C772.46,-55.77 833,-38.58 872.85,-27.26"/>
<polygon fill="#63b8ff" stroke="#63b8ff" points="873.85,-30.62 882.51,-24.52 871.93,-23.88 873.85,-30.62"/>
</a>
</g>
</g>
<!-- Node10 -->
<g id="Node000010" class="node">
<title>Node10</title>
<g id="a_Node000010"><a xlink:title=" ">
<polygon fill="#e0e0e0" stroke="#999999" points="1105.5,-24.5 977.5,-24.5 977.5,-5.5 1105.5,-5.5 1105.5,-24.5"/>
<text text-anchor="middle" x="1041.5" y="-12.5" font-family="Helvetica,sans-Serif" font-size="10.00">field/GhostLayerField.h</text>
</a>
</g>
</g>
<!-- Node2&#45;&gt;Node10 -->
<g id="edge9_Node000002_Node000010" class="edge">
<title>Node2&#45;&gt;Node10</title>
<g id="a_edge9_Node000002_Node000010"><a xlink:title=" ">
<path fill="none" stroke="#63b8ff" d="M758.75,-65.96C811.67,-57.23 895.86,-43.13 968.5,-30 974.75,-28.87 981.3,-27.66 987.79,-26.43"/>
<polygon fill="#63b8ff" stroke="#63b8ff" points="988.74,-29.82 997.91,-24.52 987.43,-22.94 988.74,-29.82"/>
</a>
</g>
</g>
<!-- Node11 -->
<g id="Node000011" class="node">
<title>Node11</title>
<g id="a_Node000011"><a xlink:title=" ">
<polygon fill="#e0e0e0" stroke="#999999" points="1189,-24.5 1124,-24.5 1124,-5.5 1189,-5.5 1189,-24.5"/>
<text text-anchor="middle" x="1156.5" y="-12.5" font-family="Helvetica,sans-Serif" font-size="10.00">functional</text>
</a>
</g>
</g>
<!-- Node2&#45;&gt;Node11 -->
<g id="edge10_Node000002_Node000011" class="edge">
<title>Node2&#45;&gt;Node11</title>
<g id="a_edge10_Node000002_Node000011"><a xlink:title=" ">
<path fill="none" stroke="#63b8ff" d="M784.16,-66.46C898.03,-54.61 1098.62,-33.47 1114.5,-30 1117.56,-29.33 1120.7,-28.52 1123.83,-27.63"/>
<polygon fill="#63b8ff" stroke="#63b8ff" points="1125.12,-30.9 1133.64,-24.6 1123.05,-24.21 1125.12,-30.9"/>
</a>
</g>
</g>
<!-- Node12 -->
<g id="Node000012" class="node">
<title>Node12</title>
<g id="a_Node000012"><a xlink:title=" ">
<polygon fill="#e0e0e0" stroke="#999999" points="1265.5,-24.5 1207.5,-24.5 1207.5,-5.5 1265.5,-5.5 1265.5,-24.5"/>
<text text-anchor="middle" x="1236.5" y="-12.5" font-family="Helvetica,sans-Serif" font-size="10.00">memory</text>
</a>
</g>
</g>
<!-- Node2&#45;&gt;Node12 -->
<g id="edge11_Node000002_Node000012" class="edge">
<title>Node2&#45;&gt;Node12</title>
<g id="a_edge11_Node000002_Node000012"><a xlink:title=" ">
<path fill="none" stroke="#63b8ff" d="M784.28,-66.87C787.4,-66.57 790.48,-66.28 793.5,-66 973.43,-49.21 1022.18,-69.58 1198.5,-30 1201.17,-29.4 1203.91,-28.66 1206.64,-27.83"/>
<polygon fill="#63b8ff" stroke="#63b8ff" points="1207.94,-31.09 1216.29,-24.57 1205.69,-24.46 1207.94,-31.09"/>
</a>
</g>
</g>
<!-- Node13 -->
<g id="Node000013" class="node">
<title>Node13</title>
<g id="a_Node000013"><a xlink:title=" ">
<polygon fill="#e0e0e0" stroke="#999999" points="1331,-24.5 1284,-24.5 1284,-5.5 1331,-5.5 1331,-24.5"/>
<text text-anchor="middle" x="1307.5" y="-12.5" font-family="Helvetica,sans-Serif" font-size="10.00">vector</text>
</a>
</g>
</g>
<!-- Node2&#45;&gt;Node13 -->
<g id="edge12_Node000002_Node000013" class="edge">
<title>Node2&#45;&gt;Node13</title>
<g id="a_edge12_Node000002_Node000013"><a xlink:title=" ">
<path fill="none" stroke="#63b8ff" d="M784.28,-66.81C787.39,-66.53 790.48,-66.26 793.5,-66 1007.08,-47.58 1066.17,-80.53 1274.5,-30 1276.66,-29.48 1278.86,-28.82 1281.05,-28.09"/>
<polygon fill="#63b8ff" stroke="#63b8ff" points="1282.31,-31.36 1290.39,-24.51 1279.8,-24.82 1282.31,-31.36"/>
</a>
</g>
</g>
</g>
</svg>
