<?xml version="1.0" encoding="UTF-8" standalone="no"?>
<!DOCTYPE svg PUBLIC "-//W3C//DTD SVG 1.1//EN"
 "http://www.w3.org/Graphics/SVG/1.1/DTD/svg11.dtd">
<!-- Generated by graphviz version 2.43.0 (0)
 -->
<!-- Title: dlc.hpp Pages: 1 -->
<!--zoomable 364 -->
<svg id="main" version="1.1" xmlns="http://www.w3.org/2000/svg" xmlns:xlink="http://www.w3.org/1999/xlink" xml:space="preserve" onload="init(evt)">
<style type="text/css"><![CDATA[
.edge:hover path { stroke: red; }
.edge:hover polygon { stroke: red; fill: red; }
]]></style>
<script type="text/javascript"><![CDATA[
var edges = document.getElementsByTagName('g');
if (edges && edges.length) {
  for (var i=0;i<edges.length;i++) {
    if (edges[i].id.substr(0,4)=='edge') {
      edges[i].setAttribute('class','edge');
    }
  }
}
]]></script>
        <defs>
                <circle id="rim" cx="0" cy="0" r="7"/>
                <circle id="rim2" cx="0" cy="0" r="3.5"/>
                <g id="zoomPlus">
                        <use xlink:href="#rim" fill="#404040">
                                <set attributeName="fill" to="#808080" begin="zoomplus.mouseover" end="zoomplus.mouseout"/>
                        </use>
                        <path d="M-4,0h8M0,-4v8" fill="none" stroke="white" stroke-width="1.5" pointer-events="none"/>
                </g>
                <g id="zoomMin">
                        <use xlink:href="#rim" fill="#404040">
                                <set attributeName="fill" to="#808080" begin="zoomminus.mouseover" end="zoomminus.mouseout"/>
                        </use>
                        <path d="M-4,0h8" fill="none" stroke="white" stroke-width="1.5" pointer-events="none"/>
                </g>
                <g id="dirArrow">
                        <path fill="none" stroke="white" stroke-width="1.5" d="M0,-3.0v7 M-2.5,-0.5L0,-3.0L2.5,-0.5"/>
                </g>
               <g id="resetDef">
                       <use xlink:href="#rim2" fill="#404040">
                               <set attributeName="fill" to="#808080" begin="reset.mouseover" end="reset.mouseout"/>
                       </use>
               </g>
        </defs>

<script type="text/javascript">
var viewWidth = 1347;
var viewHeight = 364;
var sectionId = 'dynsection-1';
</script>
<script xlink:href="svgpan.js"/>
<svg id="graph" class="graph">
<g id="viewport">
<title>dlc.hpp</title>
<!-- Node1 -->
<g id="node1" class="node">
<title>Node1</title>
<g id="a_node1"><a xlink:title=" ">
<polygon fill="#bfbfbf" stroke="black" points="1134.5,-336.5 1134.5,-355.5 1186.5,-355.5 1186.5,-336.5 1134.5,-336.5"/>
<text text-anchor="middle" x="1160.5" y="-343.5" font-family="Helvetica,sans-Serif" font-size="10.00">dlc.hpp</text>
</a>
</g>
</g>
<!-- Node2 -->
<g id="node2" class="node">
<title>Node2</title>
<g id="a_node2"><a xlink:href="dipoles_8hpp.html" target="_top" xlink:title=" ">
<polygon fill="none" stroke="black" points="834,-280.5 834,-299.5 907,-299.5 907,-280.5 834,-280.5"/>
<text text-anchor="middle" x="870.5" y="-287.5" font-family="Helvetica,sans-Serif" font-size="10.00">dipoles.hpp</text>
</a>
</g>
</g>
<!-- Node1&#45;&gt;Node2 -->
<g id="edge1" class="edge">
<title>Node1&#45;&gt;Node2</title>
<path fill="none" stroke="midnightblue" d="M1124.16,-338.23C1068.58,-327.88 963.06,-308.23 907.24,-297.84"/>
<polygon fill="midnightblue" stroke="midnightblue" points="1123.78,-341.72 1134.25,-340.11 1125.06,-334.84 1123.78,-341.72"/>
</g>
<!-- Node17 -->
<g id="node17" class="node">
<title>Node17</title>
<g id="a_node17"><a xlink:href="dlc_8cpp.html" target="_top" xlink:title=" ">
<polygon fill="none" stroke="black" points="1184,-224.5 1184,-243.5 1235,-243.5 1235,-224.5 1184,-224.5"/>
<text text-anchor="middle" x="1209.5" y="-231.5" font-family="Helvetica,sans-Serif" font-size="10.00">dlc.cpp</text>
</a>
</g>
</g>
<!-- Node1&#45;&gt;Node17 -->
<g id="edge28" class="edge">
<title>Node1&#45;&gt;Node17</title>
<path fill="none" stroke="midnightblue" d="M1164.34,-326.42C1167.47,-313.12 1172.51,-294.99 1179.5,-280 1185.77,-266.55 1195.73,-252.56 1202.43,-243.82"/>
<polygon fill="midnightblue" stroke="midnightblue" points="1160.9,-325.77 1162.17,-336.29 1167.74,-327.28 1160.9,-325.77"/>
</g>
<!-- Node22 -->
<g id="node22" class="node">
<title>Node22</title>
<g id="a_node22"><a xlink:href="DipolarLayerCorrection_8hpp.html" target="_top" xlink:title=" ">
<polygon fill="none" stroke="black" points="1188.5,-280.5 1188.5,-299.5 1338.5,-299.5 1338.5,-280.5 1188.5,-280.5"/>
<text text-anchor="middle" x="1263.5" y="-287.5" font-family="Helvetica,sans-Serif" font-size="10.00">DipolarLayerCorrection.hpp</text>
</a>
</g>
</g>
<!-- Node1&#45;&gt;Node22 -->
<g id="edge29" class="edge">
<title>Node1&#45;&gt;Node22</title>
<path fill="none" stroke="midnightblue" d="M1186.08,-331.59C1205.12,-321.61 1230.56,-308.27 1246.99,-299.65"/>
<polygon fill="midnightblue" stroke="midnightblue" points="1184.28,-328.58 1177.05,-336.32 1187.53,-334.78 1184.28,-328.58"/>
</g>
<!-- Node3 -->
<g id="node3" class="node">
<title>Node3</title>
<g id="a_node3"><a xlink:href="dipoles__inline_8hpp.html" target="_top" xlink:title=" ">
<polygon fill="none" stroke="black" points="387,-224.5 387,-243.5 492,-243.5 492,-224.5 387,-224.5"/>
<text text-anchor="middle" x="439.5" y="-231.5" font-family="Helvetica,sans-Serif" font-size="10.00">dipoles_inline.hpp</text>
</a>
</g>
</g>
<!-- Node2&#45;&gt;Node3 -->
<g id="edge2" class="edge">
<title>Node2&#45;&gt;Node3</title>
<path fill="none" stroke="midnightblue" d="M823.91,-283.2C755.28,-274.66 622.99,-258.16 510.5,-244 504.58,-243.26 498.39,-242.47 492.23,-241.69"/>
<polygon fill="midnightblue" stroke="midnightblue" points="823.6,-286.69 833.96,-284.45 824.47,-279.74 823.6,-286.69"/>
</g>
<!-- Node6 -->
<g id="node6" class="node">
<title>Node6</title>
<g id="a_node6"><a xlink:href="energy_8cpp.html" target="_top" xlink:title=" ">
<polygon fill="none" stroke="black" points="296,-112.5 296,-131.5 365,-131.5 365,-112.5 296,-112.5"/>
<text text-anchor="middle" x="330.5" y="-119.5" font-family="Helvetica,sans-Serif" font-size="10.00">energy.cpp</text>
</a>
</g>
</g>
<!-- Node2&#45;&gt;Node6 -->
<g id="edge14" class="edge">
<title>Node2&#45;&gt;Node6</title>
<path fill="none" stroke="midnightblue" d="M823.68,-285.39C751.79,-279.27 618.09,-265.37 575.5,-244 532.52,-222.43 540.22,-191.9 498.5,-168 475.9,-155.05 407.48,-139.12 365.25,-130.11"/>
<polygon fill="midnightblue" stroke="midnightblue" points="823.56,-288.89 833.81,-286.24 824.14,-281.92 823.56,-288.89"/>
</g>
<!-- Node11 -->
<g id="node11" class="node">
<title>Node11</title>
<g id="a_node11"><a xlink:href="forces_8cpp.html" target="_top" xlink:title=" ">
<polygon fill="none" stroke="black" points="514,-112.5 514,-131.5 581,-131.5 581,-112.5 514,-112.5"/>
<text text-anchor="middle" x="547.5" y="-119.5" font-family="Helvetica,sans-Serif" font-size="10.00">forces.cpp</text>
</a>
</g>
</g>
<!-- Node2&#45;&gt;Node11 -->
<g id="edge16" class="edge">
<title>Node2&#45;&gt;Node11</title>
<path fill="none" stroke="midnightblue" d="M823.62,-286.82C754.53,-282.72 629.82,-271.62 595.5,-244 559.23,-214.81 550.25,-154.25 548.13,-131.7"/>
<polygon fill="midnightblue" stroke="midnightblue" points="823.62,-290.33 833.8,-287.4 824.01,-283.34 823.62,-290.33"/>
</g>
<!-- Node13 -->
<g id="node13" class="node">
<title>Node13</title>
<g id="a_node13"><a xlink:href="pressure_8cpp.html" target="_top" xlink:title=" ">
<polygon fill="none" stroke="black" points="485,-56.5 485,-75.5 564,-75.5 564,-56.5 485,-56.5"/>
<text text-anchor="middle" x="524.5" y="-63.5" font-family="Helvetica,sans-Serif" font-size="10.00">pressure.cpp</text>
</a>
</g>
</g>
<!-- Node2&#45;&gt;Node13 -->
<g id="edge25" class="edge">
<title>Node2&#45;&gt;Node13</title>
<path fill="none" stroke="midnightblue" d="M823.37,-286C761.25,-281.11 656.55,-269.29 628.5,-244 583.07,-203.04 625.36,-161.56 589.5,-112 577.67,-95.65 558,-83.24 543.39,-75.64"/>
<polygon fill="midnightblue" stroke="midnightblue" points="823.47,-289.52 833.7,-286.79 824,-282.54 823.47,-289.52"/>
</g>
<!-- Node14 -->
<g id="node14" class="node">
<title>Node14</title>
<g id="a_node14"><a xlink:href="event_8cpp.html" target="_top" xlink:title=" ">
<polygon fill="none" stroke="black" points="638,-224.5 638,-243.5 703,-243.5 703,-224.5 638,-224.5"/>
<text text-anchor="middle" x="670.5" y="-231.5" font-family="Helvetica,sans-Serif" font-size="10.00">event.cpp</text>
</a>
</g>
</g>
<!-- Node2&#45;&gt;Node14 -->
<g id="edge15" class="edge">
<title>Node2&#45;&gt;Node14</title>
<path fill="none" stroke="midnightblue" d="M829.13,-277.83C791.36,-267.63 736.36,-252.78 702.04,-243.52"/>
<polygon fill="midnightblue" stroke="midnightblue" points="828.24,-281.22 838.81,-280.44 830.07,-274.46 828.24,-281.22"/>
</g>
<!-- Node15 -->
<g id="node15" class="node">
<title>Node15</title>
<g id="a_node15"><a xlink:href="interactions_8cpp.html" target="_top" xlink:title=" ">
<polygon fill="none" stroke="black" points="721,-224.5 721,-243.5 816,-243.5 816,-224.5 721,-224.5"/>
<text text-anchor="middle" x="768.5" y="-231.5" font-family="Helvetica,sans-Serif" font-size="10.00">interactions.cpp</text>
</a>
</g>
</g>
<!-- Node2&#45;&gt;Node15 -->
<g id="edge17" class="edge">
<title>Node2&#45;&gt;Node15</title>
<path fill="none" stroke="midnightblue" d="M845.17,-275.59C826.31,-265.61 801.12,-252.27 784.85,-243.65"/>
<polygon fill="midnightblue" stroke="midnightblue" points="843.64,-278.74 854.11,-280.32 846.91,-272.55 843.64,-278.74"/>
</g>
<!-- Node16 -->
<g id="node16" class="node">
<title>Node16</title>
<g id="a_node16"><a xlink:href="dipoles_8cpp.html" target="_top" xlink:title=" ">
<polygon fill="none" stroke="black" points="834.5,-224.5 834.5,-243.5 906.5,-243.5 906.5,-224.5 834.5,-224.5"/>
<text text-anchor="middle" x="870.5" y="-231.5" font-family="Helvetica,sans-Serif" font-size="10.00">dipoles.cpp</text>
</a>
</g>
</g>
<!-- Node2&#45;&gt;Node16 -->
<g id="edge18" class="edge">
<title>Node2&#45;&gt;Node16</title>
<path fill="none" stroke="midnightblue" d="M870.5,-269.8C870.5,-260.91 870.5,-250.78 870.5,-243.75"/>
<polygon fill="midnightblue" stroke="midnightblue" points="867,-270.08 870.5,-280.08 874,-270.08 867,-270.08"/>
</g>
<!-- Node2&#45;&gt;Node17 -->
<g id="edge19" class="edge">
<title>Node2&#45;&gt;Node17</title>
<path fill="none" stroke="midnightblue" d="M917.3,-283.75C977.41,-276.63 1084.8,-262.63 1175.5,-244 1178.25,-243.43 1181.11,-242.78 1183.95,-242.09"/>
<polygon fill="midnightblue" stroke="midnightblue" points="916.88,-280.28 907.35,-284.92 917.69,-287.23 916.88,-280.28"/>
</g>
<!-- Node18 -->
<g id="node18" class="node">
<title>Node18</title>
<g id="a_node18"><a xlink:href="magnetostatics_2registration_8hpp.html" target="_top" xlink:title=" ">
<polygon fill="none" stroke="black" points="924.5,-224.5 924.5,-243.5 1018.5,-243.5 1018.5,-224.5 924.5,-224.5"/>
<text text-anchor="middle" x="971.5" y="-231.5" font-family="Helvetica,sans-Serif" font-size="10.00">registration.hpp</text>
</a>
</g>
</g>
<!-- Node2&#45;&gt;Node18 -->
<g id="edge20" class="edge">
<title>Node2&#45;&gt;Node18</title>
<path fill="none" stroke="midnightblue" d="M895.58,-275.59C914.26,-265.61 939.2,-252.27 955.31,-243.65"/>
<polygon fill="midnightblue" stroke="midnightblue" points="893.9,-272.52 886.73,-280.32 897.2,-278.7 893.9,-272.52"/>
</g>
<!-- Node19 -->
<g id="node19" class="node">
<title>Node19</title>
<g id="a_node19"><a xlink:href="magnetostatics_2Actor__impl_8hpp.html" target="_top" xlink:title=" ">
<polygon fill="none" stroke="black" points="966.5,-168.5 966.5,-187.5 1056.5,-187.5 1056.5,-168.5 966.5,-168.5"/>
<text text-anchor="middle" x="1011.5" y="-175.5" font-family="Helvetica,sans-Serif" font-size="10.00">Actor_impl.hpp</text>
</a>
</g>
</g>
<!-- Node2&#45;&gt;Node19 -->
<g id="edge26" class="edge">
<title>Node2&#45;&gt;Node19</title>
<path fill="none" stroke="midnightblue" d="M917.09,-281.93C958.38,-274.61 1014.14,-261.73 1027.5,-244 1040.23,-227.11 1026.77,-201.38 1017.93,-187.92"/>
<polygon fill="midnightblue" stroke="midnightblue" points="916.47,-278.49 907.21,-283.63 917.66,-285.39 916.47,-278.49"/>
</g>
<!-- Node20 -->
<g id="node20" class="node">
<title>Node20</title>
<g id="a_node20"><a xlink:href="magnetostatics_2initialize_8cpp.html" target="_top" xlink:title=" ">
<polygon fill="none" stroke="black" points="1009,-112.5 1009,-131.5 1088,-131.5 1088,-112.5 1009,-112.5"/>
<text text-anchor="middle" x="1048.5" y="-119.5" font-family="Helvetica,sans-Serif" font-size="10.00">initialize.cpp</text>
</a>
</g>
</g>
<!-- Node2&#45;&gt;Node20 -->
<g id="edge27" class="edge">
<title>Node2&#45;&gt;Node20</title>
<path fill="none" stroke="midnightblue" d="M917.43,-288.1C955.65,-284.95 1008.8,-274.77 1043.5,-244 1069.81,-220.67 1071.82,-202.59 1065.5,-168 1063.1,-154.86 1057.06,-140.56 1052.87,-131.69"/>
<polygon fill="midnightblue" stroke="midnightblue" points="916.8,-284.63 907.07,-288.81 917.28,-291.61 916.8,-284.63"/>
</g>
<!-- Node21 -->
<g id="node21" class="node">
<title>Node21</title>
<g id="a_node21"><a xlink:href="npt_8cpp.html" target="_top" xlink:title=" ">
<polygon fill="none" stroke="black" points="1113,-224.5 1113,-243.5 1166,-243.5 1166,-224.5 1113,-224.5"/>
<text text-anchor="middle" x="1139.5" y="-231.5" font-family="Helvetica,sans-Serif" font-size="10.00">npt.cpp</text>
</a>
</g>
</g>
<!-- Node2&#45;&gt;Node21 -->
<g id="edge24" class="edge">
<title>Node2&#45;&gt;Node21</title>
<path fill="none" stroke="midnightblue" d="M917.27,-280.07C963.4,-271.19 1035.89,-257.05 1098.5,-244 1103.07,-243.05 1107.91,-242.01 1112.61,-240.99"/>
<polygon fill="midnightblue" stroke="midnightblue" points="916.43,-276.67 907.27,-281.99 917.75,-283.54 916.43,-276.67"/>
</g>
<!-- Node4 -->
<g id="node4" class="node">
<title>Node4</title>
<g id="a_node4"><a xlink:href="energy__inline_8hpp.html" target="_top" xlink:title=" ">
<polygon fill="none" stroke="black" points="210.5,-168.5 210.5,-187.5 314.5,-187.5 314.5,-168.5 210.5,-168.5"/>
<text text-anchor="middle" x="262.5" y="-175.5" font-family="Helvetica,sans-Serif" font-size="10.00">energy_inline.hpp</text>
</a>
</g>
</g>
<!-- Node3&#45;&gt;Node4 -->
<g id="edge3" class="edge">
<title>Node3&#45;&gt;Node4</title>
<path fill="none" stroke="midnightblue" d="M401.6,-221.44C368.22,-211.26 320.4,-196.66 290.41,-187.52"/>
<polygon fill="midnightblue" stroke="midnightblue" points="400.87,-224.87 411.45,-224.44 402.91,-218.18 400.87,-224.87"/>
</g>
<!-- Node10 -->
<g id="node10" class="node">
<title>Node10</title>
<g id="a_node10"><a xlink:href="forces__inline_8hpp.html" target="_top" xlink:title=" ">
<polygon fill="none" stroke="black" points="389.5,-168.5 389.5,-187.5 489.5,-187.5 489.5,-168.5 389.5,-168.5"/>
<text text-anchor="middle" x="439.5" y="-175.5" font-family="Helvetica,sans-Serif" font-size="10.00">forces_inline.hpp</text>
</a>
</g>
</g>
<!-- Node3&#45;&gt;Node10 -->
<g id="edge9" class="edge">
<title>Node3&#45;&gt;Node10</title>
<path fill="none" stroke="midnightblue" d="M439.5,-213.8C439.5,-204.91 439.5,-194.78 439.5,-187.75"/>
<polygon fill="midnightblue" stroke="midnightblue" points="436,-214.08 439.5,-224.08 443,-214.08 436,-214.08"/>
</g>
<!-- Node5 -->
<g id="node5" class="node">
<title>Node5</title>
<g id="a_node5"><a xlink:href="ShapeBasedConstraint_8cpp.html" target="_top" xlink:title=" ">
<polygon fill="none" stroke="black" points="131,-112.5 131,-131.5 278,-131.5 278,-112.5 131,-112.5"/>
<text text-anchor="middle" x="204.5" y="-119.5" font-family="Helvetica,sans-Serif" font-size="10.00">ShapeBasedConstraint.cpp</text>
</a>
</g>
</g>
<!-- Node4&#45;&gt;Node5 -->
<g id="edge4" class="edge">
<title>Node4&#45;&gt;Node5</title>
<path fill="none" stroke="midnightblue" d="M245.59,-161.25C235.3,-151.67 222.53,-139.79 213.99,-131.83"/>
<polygon fill="midnightblue" stroke="midnightblue" points="243.48,-164.07 253.18,-168.32 248.25,-158.95 243.48,-164.07"/>
</g>
<!-- Node4&#45;&gt;Node6 -->
<g id="edge5" class="edge">
<title>Node4&#45;&gt;Node6</title>
<path fill="none" stroke="midnightblue" d="M281.26,-162.1C293.5,-152.38 309.06,-140.03 319.38,-131.83"/>
<polygon fill="midnightblue" stroke="midnightblue" points="279.08,-159.36 273.43,-168.32 283.43,-164.85 279.08,-159.36"/>
</g>
<!-- Node7 -->
<g id="node7" class="node">
<title>Node7</title>
<g id="a_node7"><a xlink:href="core_2pair__criteria_2EnergyCriterion_8hpp.html" target="_top" xlink:title=" ">
<polygon fill="none" stroke="black" points="0,-112.5 0,-131.5 113,-131.5 113,-112.5 0,-112.5"/>
<text text-anchor="middle" x="56.5" y="-119.5" font-family="Helvetica,sans-Serif" font-size="10.00">EnergyCriterion.hpp</text>
</a>
</g>
</g>
<!-- Node4&#45;&gt;Node7 -->
<g id="edge6" class="edge">
<title>Node4&#45;&gt;Node7</title>
<path fill="none" stroke="midnightblue" d="M219.88,-165.83C180.99,-155.63 124.34,-140.78 88.99,-131.52"/>
<polygon fill="midnightblue" stroke="midnightblue" points="219.3,-169.29 229.86,-168.44 221.07,-162.52 219.3,-169.29"/>
</g>
<!-- Node8 -->
<g id="node8" class="node">
<title>Node8</title>
<g id="a_node8"><a xlink:href="script__interface_2pair__criteria_2EnergyCriterion_8hpp.html" target="_top" xlink:title=" ">
<polygon fill="none" stroke="black" points="0,-56.5 0,-75.5 113,-75.5 113,-56.5 0,-56.5"/>
<text text-anchor="middle" x="56.5" y="-63.5" font-family="Helvetica,sans-Serif" font-size="10.00">EnergyCriterion.hpp</text>
</a>
</g>
</g>
<!-- Node7&#45;&gt;Node8 -->
<g id="edge7" class="edge">
<title>Node7&#45;&gt;Node8</title>
<path fill="none" stroke="midnightblue" d="M56.5,-101.8C56.5,-92.91 56.5,-82.78 56.5,-75.75"/>
<polygon fill="midnightblue" stroke="midnightblue" points="53,-102.08 56.5,-112.08 60,-102.08 53,-102.08"/>
</g>
<!-- Node9 -->
<g id="node9" class="node">
<title>Node9</title>
<g id="a_node9"><a xlink:href="pair__criteria_2initialize_8cpp.html" target="_top" xlink:title=" ">
<polygon fill="none" stroke="black" points="17,-0.5 17,-19.5 96,-19.5 96,-0.5 17,-0.5"/>
<text text-anchor="middle" x="56.5" y="-7.5" font-family="Helvetica,sans-Serif" font-size="10.00">initialize.cpp</text>
</a>
</g>
</g>
<!-- Node8&#45;&gt;Node9 -->
<g id="edge8" class="edge">
<title>Node8&#45;&gt;Node9</title>
<path fill="none" stroke="midnightblue" d="M56.5,-45.8C56.5,-36.91 56.5,-26.78 56.5,-19.75"/>
<polygon fill="midnightblue" stroke="midnightblue" points="53,-46.08 56.5,-56.08 60,-46.08 53,-46.08"/>
</g>
<!-- Node10&#45;&gt;Node5 -->
<g id="edge10" class="edge">
<title>Node10&#45;&gt;Node5</title>
<path fill="none" stroke="midnightblue" d="M392.29,-166.15C347.89,-155.95 282.31,-140.88 241.56,-131.52"/>
<polygon fill="midnightblue" stroke="midnightblue" points="391.73,-169.62 402.26,-168.44 393.3,-162.79 391.73,-169.62"/>
</g>
<!-- Node10&#45;&gt;Node11 -->
<g id="edge11" class="edge">
<title>Node10&#45;&gt;Node11</title>
<path fill="none" stroke="midnightblue" d="M466.05,-163.73C486.05,-153.73 512.89,-140.31 530.19,-131.65"/>
<polygon fill="midnightblue" stroke="midnightblue" points="464.23,-160.72 456.85,-168.32 467.36,-166.98 464.23,-160.72"/>
</g>
<!-- Node12 -->
<g id="node12" class="node">
<title>Node12</title>
<g id="a_node12"><a xlink:href="pressure__inline_8hpp.html" target="_top" xlink:title=" ">
<polygon fill="none" stroke="black" points="383.5,-112.5 383.5,-131.5 495.5,-131.5 495.5,-112.5 383.5,-112.5"/>
<text text-anchor="middle" x="439.5" y="-119.5" font-family="Helvetica,sans-Serif" font-size="10.00">pressure_inline.hpp</text>
</a>
</g>
</g>
<!-- Node10&#45;&gt;Node12 -->
<g id="edge12" class="edge">
<title>Node10&#45;&gt;Node12</title>
<path fill="none" stroke="midnightblue" d="M439.5,-157.8C439.5,-148.91 439.5,-138.78 439.5,-131.75"/>
<polygon fill="midnightblue" stroke="midnightblue" points="436,-158.08 439.5,-168.08 443,-158.08 436,-158.08"/>
</g>
<!-- Node12&#45;&gt;Node13 -->
<g id="edge13" class="edge">
<title>Node12&#45;&gt;Node13</title>
<path fill="none" stroke="midnightblue" d="M461.69,-106.9C477.28,-97 497.63,-84.07 510.88,-75.65"/>
<polygon fill="midnightblue" stroke="midnightblue" points="459.72,-104.01 453.16,-112.32 463.47,-109.92 459.72,-104.01"/>
</g>
<!-- Node18&#45;&gt;Node19 -->
<g id="edge21" class="edge">
<title>Node18&#45;&gt;Node19</title>
<path fill="none" stroke="midnightblue" d="M984.2,-215.86C991.13,-206.5 999.41,-195.33 1005.02,-187.75"/>
<polygon fill="midnightblue" stroke="midnightblue" points="981.25,-213.96 978.11,-224.08 986.87,-218.13 981.25,-213.96"/>
</g>
<!-- Node18&#45;&gt;Node20 -->
<g id="edge23" class="edge">
<title>Node18&#45;&gt;Node20</title>
<path fill="none" stroke="midnightblue" d="M961.1,-215.37C954.45,-201.56 948.58,-182.36 957.5,-168 969.12,-149.28 991.09,-138.12 1010.53,-131.59"/>
<polygon fill="midnightblue" stroke="midnightblue" points="958.09,-217.15 965.89,-224.32 964.26,-213.85 958.09,-217.15"/>
</g>
<!-- Node19&#45;&gt;Node20 -->
<g id="edge22" class="edge">
<title>Node19&#45;&gt;Node20</title>
<path fill="none" stroke="midnightblue" d="M1023.45,-159.57C1029.81,-150.27 1037.37,-139.25 1042.5,-131.75"/>
<polygon fill="midnightblue" stroke="midnightblue" points="1020.37,-157.86 1017.61,-168.08 1026.15,-161.81 1020.37,-157.86"/>
</g>
<!-- Node22&#45;&gt;Node20 -->
<g id="edge30" class="edge">
<title>Node22&#45;&gt;Node20</title>
<path fill="none" stroke="midnightblue" d="M1262.01,-270.41C1260.01,-256.31 1255.36,-237.17 1244.5,-224 1202,-172.47 1126.37,-144.26 1082.52,-131.52"/>
<polygon fill="midnightblue" stroke="midnightblue" points="1258.54,-270.87 1263.1,-280.43 1265.49,-270.11 1258.54,-270.87"/>
</g>
</g>
</svg>
        <g id="navigator" transform="translate(0 0)" fill="#404254">
                <rect fill="#f2f5e9" fill-opacity="0.5" stroke="#606060" stroke-width=".5" x="0" y="0" width="60" height="60"/>
                <use id="zoomplus" xlink:href="#zoomPlus" x="17" y="9" onmousedown="handleZoom(evt,'in')"/>
                <use id="zoomminus" xlink:href="#zoomMin" x="42" y="9" onmousedown="handleZoom(evt,'out')"/>
                <use id="reset" xlink:href="#resetDef" x="30" y="36" onmousedown="handleReset()"/>
                <g id="arrowUp" xlink:href="#dirArrow" transform="translate(30 24)" onmousedown="handlePan(0,-1)">
                  <use xlink:href="#rim" fill="#404040">
                        <set attributeName="fill" to="#808080" begin="arrowUp.mouseover" end="arrowUp.mouseout"/>
                  </use>
                  <path fill="none" stroke="white" stroke-width="1.5" d="M0,-3.0v7 M-2.5,-0.5L0,-3.0L2.5,-0.5"/>
                </g>
                <g id="arrowRight" xlink:href="#dirArrow" transform="rotate(90) translate(36 -43)" onmousedown="handlePan(1,0)">
                  <use xlink:href="#rim" fill="#404040">
                        <set attributeName="fill" to="#808080" begin="arrowRight.mouseover" end="arrowRight.mouseout"/>
                  </use>
                  <path fill="none" stroke="white" stroke-width="1.5" d="M0,-3.0v7 M-2.5,-0.5L0,-3.0L2.5,-0.5"/>
                </g>
                <g id="arrowDown" xlink:href="#dirArrow" transform="rotate(180) translate(-30 -48)" onmousedown="handlePan(0,1)">
                  <use xlink:href="#rim" fill="#404040">
                        <set attributeName="fill" to="#808080" begin="arrowDown.mouseover" end="arrowDown.mouseout"/>
                  </use>
                  <path fill="none" stroke="white" stroke-width="1.5" d="M0,-3.0v7 M-2.5,-0.5L0,-3.0L2.5,-0.5"/>
                </g>
                <g id="arrowLeft" xlink:href="#dirArrow" transform="rotate(270) translate(-36 17)" onmousedown="handlePan(-1,0)">
                  <use xlink:href="#rim" fill="#404040">
                        <set attributeName="fill" to="#808080" begin="arrowLeft.mouseover" end="arrowLeft.mouseout"/>
                  </use>
                  <path fill="none" stroke="white" stroke-width="1.5" d="M0,-3.0v7 M-2.5,-0.5L0,-3.0L2.5,-0.5"/>
                </g>
        </g>
        <svg viewBox="0 0 15 15" width="100%" height="30px" preserveAspectRatio="xMaxYMin meet">
         <g id="arrow_out" transform="scale(0.3 0.3)">
          <a xlink:href="dlc_8hpp__dep__incl_org.svg" target="_base">
           <rect id="button" ry="5" rx="5" y="6" x="6" height="38" width="38"
                fill="#f2f5e9" fill-opacity="0.5" stroke="#606060" stroke-width="1.0"/>
           <path id="arrow"
             d="M 11.500037,31.436501 C 11.940474,20.09759 22.043105,11.32322 32.158766,21.979434 L 37.068811,17.246167 C 37.068811,17.246167 37.088388,32 37.088388,32 L 22.160133,31.978069 C 22.160133,31.978069 26.997745,27.140456 26.997745,27.140456 C 18.528582,18.264221 13.291696,25.230495 11.500037,31.436501 z"
             style="fill:#404040;"/>
          </a>
         </g>
        </svg>
</svg>
