<?xml version="1.0" encoding="UTF-8" standalone="no"?>
<!DOCTYPE svg PUBLIC "-//W3C//DTD SVG 1.1//EN"
 "http://www.w3.org/Graphics/SVG/1.1/DTD/svg11.dtd">
<!-- Generated by graphviz version 2.43.0 (0)
 -->
<!-- Title: DynamicUBBDoublePrecision.h Pages: 1 -->
<!--zoomable 93 -->

<svg id="main" version="1.1" xmlns="http://www.w3.org/2000/svg" xmlns:xlink="http://www.w3.org/1999/xlink" xml:space="preserve" onload="init(evt)">
<style type="text/css"><![CDATA[
.node, .edge {opacity: 0.7;}
.node.selected, .edge.selected {opacity: 1;}
.edge:hover path { stroke: red; }
.edge:hover polygon { stroke: red; fill: red; }
]]></style>

<defs>
  <circle id="rim" cx="0" cy="0" r="7"/>
  <circle id="rim2" cx="0" cy="0" r="3.5"/>
  <g id="zoomPlus">
    <use xlink:href="#rim" fill="#404040"><set attributeName="fill" to="#808080" begin="zoomplus.mouseover" end="zoomplus.mouseout"/></use>
    <path d="M-4,0h8M0,-4v8" fill="none" stroke="white" stroke-width="1.5" pointer-events="none"/>
  </g>
  <g id="zoomMin">
    <use xlink:href="#rim" fill="#404040"><set attributeName="fill" to="#808080" begin="zoomminus.mouseover" end="zoomminus.mouseout"/></use>
    <path d="M-4,0h8" fill="none" stroke="white" stroke-width="1.5" pointer-events="none"/>
  </g>
  <g id="arrowUp" transform="translate(30 24)">
    <use xlink:href="#rim"/>
    <path pointer-events="none" fill="none" stroke="white" stroke-width="1.5" d="M0,-3.0v7 M-2.5,-0.5L0,-3.0L2.5,-0.5"/>
  </g>
  <g id="arrowRight" transform="rotate(90) translate(36 -43)">
    <use xlink:href="#rim"/>
    <path pointer-events="none" fill="none" stroke="white" stroke-width="1.5" d="M0,-3.0v7 M-2.5,-0.5L0,-3.0L2.5,-0.5"/>
  </g>
  <g id="arrowDown" transform="rotate(180) translate(-30 -48)">
    <use xlink:href="#rim"/>
    <path pointer-events="none" fill="none" stroke="white" stroke-width="1.5" d="M0,-3.0v7 M-2.5,-0.5L0,-3.0L2.5,-0.5"/>
  </g>
  <g id="arrowLeft" transform="rotate(270) translate(-36 17)">
    <use xlink:href="#rim"/>
    <path pointer-events="none" fill="none" stroke="white" stroke-width="1.5" d="M0,-3.0v7 M-2.5,-0.5L0,-3.0L2.5,-0.5"/>
  </g>
  <g id="resetDef">
    <use xlink:href="#rim2" fill="#404040"><set attributeName="fill" to="#808080" begin="reset.mouseover" end="reset.mouseout"/></use>
  </g>
</defs>
<script type="application/ecmascript">
var viewWidth = 1229;
var viewHeight = 93;
var sectionId = 'dynsection-0';
</script>
<script type="application/ecmascript" xlink:href="svg.min.js"/>
<svg id="graph" class="graph">
<g id="viewport">
<title>DynamicUBBDoublePrecision.h</title>
<!-- Node1 -->
<g id="Node000001" class="node">
<title>Node1</title>
<g id="a_Node000001"><a xlink:title=" ">
<polygon fill="#999999" stroke="#666666" points="791,-85 622,-85 622,-66 791,-66 791,-85"/>
<text text-anchor="middle" x="706.5" y="-73" font-family="Helvetica,sans-Serif" font-size="10.00">DynamicUBBDoublePrecision.h</text>
</a>
</g>
</g>
<!-- Node2 -->
<g id="Node000002" class="node">
<title>Node2</title>
<g id="a_Node000002"><a xlink:title=" ">
<polygon fill="#e0e0e0" stroke="#999999" points="101,-24.5 0,-24.5 0,-5.5 101,-5.5 101,-24.5"/>
<text text-anchor="middle" x="50.5" y="-12.5" font-family="Helvetica,sans-Serif" font-size="10.00">core/DataTypes.h</text>
</a>
</g>
</g>
<!-- Node1&#45;&gt;Node2 -->
<g id="edge1_Node000001_Node000002" class="edge">
<title>Node1&#45;&gt;Node2</title>
<g id="a_edge1_Node000001_Node000002"><a xlink:title=" ">
<path fill="none" stroke="#63b8ff" d="M621.98,-72.42C505.87,-68.59 290.78,-58.08 109.5,-30 103.97,-29.14 98.2,-28.04 92.52,-26.83"/>
<polygon fill="#63b8ff" stroke="#63b8ff" points="92.99,-23.35 82.47,-24.56 91.45,-30.18 92.99,-23.35"/>
</a>
</g>
</g>
<!-- Node3 -->
<g id="Node000003" class="node">
<title>Node3</title>
<g id="a_Node000003"><a xlink:title=" ">
<polygon fill="#e0e0e0" stroke="#999999" points="246,-24.5 119,-24.5 119,-5.5 246,-5.5 246,-24.5"/>
<text text-anchor="middle" x="182.5" y="-12.5" font-family="Helvetica,sans-Serif" font-size="10.00">core/logging/Logging.h</text>
</a>
</g>
</g>
<!-- Node1&#45;&gt;Node3 -->
<g id="edge2_Node000001_Node000003" class="edge">
<title>Node1&#45;&gt;Node3</title>
<g id="a_edge2_Node000001_Node000003"><a xlink:title=" ">
<path fill="none" stroke="#63b8ff" d="M621.85,-68.46C531.01,-61.44 382.62,-48.42 255.5,-30 248.3,-28.96 240.73,-27.69 233.31,-26.36"/>
<polygon fill="#63b8ff" stroke="#63b8ff" points="233.79,-22.89 223.31,-24.51 232.51,-29.77 233.79,-22.89"/>
</a>
</g>
</g>
<!-- Node4 -->
<g id="Node000004" class="node">
<title>Node4</title>
<g id="a_Node000004"><a xlink:title=" ">
<polygon fill="#e0e0e0" stroke="#999999" points="416.5,-30 264.5,-30 264.5,0 416.5,0 416.5,-30"/>
<text text-anchor="start" x="272.5" y="-18" font-family="Helvetica,sans-Serif" font-size="10.00">blockforest/StructuredBlock</text>
<text text-anchor="middle" x="340.5" y="-7" font-family="Helvetica,sans-Serif" font-size="10.00">Forest.h</text>
</a>
</g>
</g>
<!-- Node1&#45;&gt;Node4 -->
<g id="edge3_Node000001_Node000004" class="edge">
<title>Node1&#45;&gt;Node4</title>
<g id="a_edge3_Node000001_Node000004"><a xlink:title=" ">
<path fill="none" stroke="#63b8ff" d="M652.09,-65.99C597.63,-57.44 511.15,-43.81 426.94,-30.23"/>
<polygon fill="#63b8ff" stroke="#63b8ff" points="427.38,-26.75 416.95,-28.61 426.27,-33.66 427.38,-26.75"/>
</a>
</g>
</g>
<!-- Node5 -->
<g id="Node000005" class="node">
<title>Node5</title>
<g id="a_Node000005"><a xlink:title=" ">
<polygon fill="#e0e0e0" stroke="#999999" points="548.5,-24.5 434.5,-24.5 434.5,-5.5 548.5,-5.5 548.5,-24.5"/>
<text text-anchor="middle" x="491.5" y="-12.5" font-family="Helvetica,sans-Serif" font-size="10.00">core/debug/Debug.h</text>
</a>
</g>
</g>
<!-- Node1&#45;&gt;Node5 -->
<g id="edge4_Node000001_Node000005" class="edge">
<title>Node1&#45;&gt;Node5</title>
<g id="a_edge4_Node000001_Node000005"><a xlink:title=" ">
<path fill="none" stroke="#63b8ff" d="M675.24,-65.99C637.58,-55.75 574.21,-38.5 532.62,-27.19"/>
<polygon fill="#63b8ff" stroke="#63b8ff" points="533.37,-23.77 522.8,-24.52 531.53,-30.52 533.37,-23.77"/>
</a>
</g>
</g>
<!-- Node6 -->
<g id="Node000006" class="node">
<title>Node6</title>
<g id="a_Node000006"><a xlink:title=" ">
<polygon fill="#e0e0e0" stroke="#999999" points="698,-30 567,-30 567,0 698,0 698,-30"/>
<text text-anchor="start" x="575" y="-18" font-family="Helvetica,sans-Serif" font-size="10.00">domain_decomposition</text>
<text text-anchor="middle" x="632.5" y="-7" font-family="Helvetica,sans-Serif" font-size="10.00">/BlockDataID.h</text>
</a>
</g>
</g>
<!-- Node1&#45;&gt;Node6 -->
<g id="edge5_Node000001_Node000006" class="edge">
<title>Node1&#45;&gt;Node6</title>
<g id="a_edge5_Node000001_Node000006"><a xlink:title=" ">
<path fill="none" stroke="#63b8ff" d="M695.58,-65.87C685.82,-58.15 671.13,-46.54 658.38,-36.46"/>
<polygon fill="#63b8ff" stroke="#63b8ff" points="660.37,-33.57 650.35,-30.11 656.03,-39.06 660.37,-33.57"/>
</a>
</g>
</g>
<!-- Node7 -->
<g id="Node000007" class="node">
<title>Node7</title>
<g id="a_Node000007"><a xlink:title=" ">
<polygon fill="#e0e0e0" stroke="#999999" points="847,-30 716,-30 716,0 847,0 847,-30"/>
<text text-anchor="start" x="724" y="-18" font-family="Helvetica,sans-Serif" font-size="10.00">domain_decomposition</text>
<text text-anchor="middle" x="781.5" y="-7" font-family="Helvetica,sans-Serif" font-size="10.00">/IBlock.h</text>
</a>
</g>
</g>
<!-- Node1&#45;&gt;Node7 -->
<g id="edge6_Node000001_Node000007" class="edge">
<title>Node1&#45;&gt;Node7</title>
<g id="a_edge6_Node000001_Node000007"><a xlink:title=" ">
<path fill="none" stroke="#63b8ff" d="M717.57,-65.87C727.46,-58.15 742.35,-46.54 755.27,-36.46"/>
<polygon fill="#63b8ff" stroke="#63b8ff" points="757.67,-39.02 763.4,-30.11 753.37,-33.51 757.67,-39.02"/>
</a>
</g>
</g>
<!-- Node8 -->
<g id="Node000008" class="node">
<title>Node8</title>
<g id="a_Node000008"><a xlink:title=" ">
<polygon fill="#e0e0e0" stroke="#999999" points="959.5,-24.5 865.5,-24.5 865.5,-5.5 959.5,-5.5 959.5,-24.5"/>
<text text-anchor="middle" x="912.5" y="-12.5" font-family="Helvetica,sans-Serif" font-size="10.00">field/FlagField.h</text>
</a>
</g>
</g>
<!-- Node1&#45;&gt;Node8 -->
<g id="edge7_Node000001_Node000008" class="edge">
<title>Node1&#45;&gt;Node8</title>
<g id="a_edge7_Node000001_Node000008"><a xlink:title=" ">
<path fill="none" stroke="#63b8ff" d="M736.45,-65.99C772.46,-55.77 833,-38.58 872.85,-27.26"/>
<polygon fill="#63b8ff" stroke="#63b8ff" points="873.85,-30.62 882.51,-24.52 871.93,-23.88 873.85,-30.62"/>
</a>
</g>
</g>
<!-- Node9 -->
<g id="Node000009" class="node">
<title>Node9</title>
<g id="a_Node000009"><a xlink:title=" ">
<polygon fill="#e0e0e0" stroke="#999999" points="1105.5,-24.5 977.5,-24.5 977.5,-5.5 1105.5,-5.5 1105.5,-24.5"/>
<text text-anchor="middle" x="1041.5" y="-12.5" font-family="Helvetica,sans-Serif" font-size="10.00">field/GhostLayerField.h</text>
</a>
</g>
</g>
<!-- Node1&#45;&gt;Node9 -->
<g id="edge8_Node000001_Node000009" class="edge">
<title>Node1&#45;&gt;Node9</title>
<g id="a_edge8_Node000001_Node000009"><a xlink:title=" ">
<path fill="none" stroke="#63b8ff" d="M758.75,-65.96C811.67,-57.23 895.86,-43.13 968.5,-30 974.75,-28.87 981.3,-27.66 987.79,-26.43"/>
<polygon fill="#63b8ff" stroke="#63b8ff" points="988.74,-29.82 997.91,-24.52 987.43,-22.94 988.74,-29.82"/>
</a>
</g>
</g>
<!-- Node10 -->
<g id="Node000010" class="node">
<title>Node10</title>
<g id="a_Node000010"><a xlink:title=" ">
<polygon fill="#e0e0e0" stroke="#999999" points="1155.5,-24.5 1123.5,-24.5 1123.5,-5.5 1155.5,-5.5 1155.5,-24.5"/>
<text text-anchor="middle" x="1139.5" y="-12.5" font-family="Helvetica,sans-Serif" font-size="10.00">set</text>
</a>
</g>
</g>
<!-- Node1&#45;&gt;Node10 -->
<g id="edge9_Node000001_Node000010" class="edge">
<title>Node1&#45;&gt;Node10</title>
<g id="a_edge9_Node000001_Node000010"><a xlink:title=" ">
<path fill="none" stroke="#63b8ff" d="M791.36,-75.04C875.34,-73.32 1006.59,-64.51 1114.5,-30 1115.39,-29.71 1116.29,-29.4 1117.18,-29.05"/>
<polygon fill="#63b8ff" stroke="#63b8ff" points="1118.96,-32.08 1126.46,-24.6 1115.93,-25.77 1118.96,-32.08"/>
</a>
</g>
</g>
<!-- Node11 -->
<g id="Node000011" class="node">
<title>Node11</title>
<g id="a_Node000011"><a xlink:title=" ">
<polygon fill="#e0e0e0" stroke="#999999" points="1221,-24.5 1174,-24.5 1174,-5.5 1221,-5.5 1221,-24.5"/>
<text text-anchor="middle" x="1197.5" y="-12.5" font-family="Helvetica,sans-Serif" font-size="10.00">vector</text>
</a>
</g>
</g>
<!-- Node1&#45;&gt;Node11 -->
<g id="edge10_Node000001_Node000011" class="edge">
<title>Node1&#45;&gt;Node11</title>
<g id="a_edge10_Node000001_Node000011"><a xlink:title=" ">
<path fill="none" stroke="#63b8ff" d="M791.39,-73.92C884.34,-71.53 1037.14,-62.39 1164.5,-30 1166.45,-29.51 1168.42,-28.91 1170.4,-28.26"/>
<polygon fill="#63b8ff" stroke="#63b8ff" points="1171.94,-31.41 1180.03,-24.58 1169.44,-24.87 1171.94,-31.41"/>
</a>
</g>
</g>
</g>
</svg>

<g id="navigator" transform="translate(0 0)" fill="#404254">
  <rect fill="#f2f5e9" fill-opacity="0.5" stroke="#606060" stroke-width=".5" x="0" y="0" width="60" height="60"/>
  <use id="zoomplus" xlink:href="#zoomPlus" x="17" y="9" onmousedown="handleZoom(evt,'in')"/>
  <use id="zoomminus" xlink:href="#zoomMin" x="42" y="9" onmousedown="handleZoom(evt,'out')"/>
  <use id="reset" xlink:href="#resetDef" x="30" y="36" onmousedown="handleReset()"/>
   <use id="arrowup" xlink:href="#arrowUp" x="0" y="0" onmousedown="handlePan(0,-1)"/>
  <use id="arrowright" xlink:href="#arrowRight" x="0" y="0" onmousedown="handlePan(1,0)"/>
  <use id="arrowdown" xlink:href="#arrowDown" x="0" y="0" onmousedown="handlePan(0,1)"/>
  <use id="arrowleft" xlink:href="#arrowLeft" x="0" y="0" onmousedown="handlePan(-1,0)"/>
</g>
<svg viewBox="0 0 15 15" width="100%" height="30px" preserveAspectRatio="xMaxYMin meet">
 <g id="arrow_out" transform="scale(0.3 0.3)">
  <a xlink:href="DynamicUBBDoublePrecision_8h__incl_org.svg" target="_base">
   <rect id="button" ry="5" rx="5" y="6" x="6" height="38" width="38"
        fill="#f2f5e9" fill-opacity="0.5" stroke="#606060" stroke-width="1.0"/>
   <path id="arrow"
     d="M 11.500037,31.436501 C 11.940474,20.09759 22.043105,11.32322 32.158766,21.979434 L 37.068811,17.246167 C 37.068811,17.246167 37.088388,32 37.088388,32 L 22.160133,31.978069 C 22.160133,31.978069 26.997745,27.140456 26.997745,27.140456 C 18.528582,18.264221 13.291696,25.230495 11.500037,31.436501 z"
     style="fill:#404040;"/>
  </a>
 </g>
</svg>

<style type='text/css'>
<![CDATA[
[data-mouse-over-selected='false'] { opacity: 0.7; }
[data-mouse-over-selected='true']  { opacity: 1.0; }
]]>
</style>
<script type="application/ecmascript"><![CDATA[
document.addEventListener('DOMContentLoaded', (event) => {
  highlightEdges();
  highlightAdjacentNodes();
});
]]></script>
</svg>
