<?xml version="1.0" encoding="UTF-8" standalone="no"?>
<!DOCTYPE svg PUBLIC "-//W3C//DTD SVG 1.1//EN"
 "http://www.w3.org/Graphics/SVG/1.1/DTD/svg11.dtd">
<!-- Generated by graphviz version 2.43.0 (0)
 -->
<!-- Title: Solver.cpp Pages: 1 -->
<svg width="1746pt" height="386pt"
 viewBox="0.00 0.00 1746.00 386.00" xmlns="http://www.w3.org/2000/svg" xmlns:xlink="http://www.w3.org/1999/xlink">
<g id="graph0" class="graph" transform="scale(1 1) rotate(0) translate(4 382)">
<title>Solver.cpp</title>
<!-- Node1 -->
<g id="node1" class="node">
<title>Node1</title>
<g id="a_node1"><a xlink:title=" ">
<polygon fill="#bfbfbf" stroke="black" points="559,-358.5 559,-377.5 626,-377.5 626,-358.5 559,-358.5"/>
<text text-anchor="middle" x="592.5" y="-365.5" font-family="Helvetica,sans-Serif" font-size="10.00">Solver.cpp</text>
</a>
</g>
</g>
<!-- Node2 -->
<g id="node2" class="node">
<title>Node2</title>
<g id="a_node2"><a xlink:href="config_8hpp.html" target="_top" xlink:title="This file contains the defaults for ESPResSo.">
<polygon fill="none" stroke="black" points="458,-190.5 458,-209.5 557,-209.5 557,-190.5 458,-190.5"/>
<text text-anchor="middle" x="507.5" y="-197.5" font-family="Helvetica,sans-Serif" font-size="10.00">config/config.hpp</text>
</a>
</g>
</g>
<!-- Node1&#45;&gt;Node2 -->
<g id="edge1" class="edge">
<title>Node1&#45;&gt;Node2</title>
<path fill="none" stroke="midnightblue" d="M587.93,-358.08C574.43,-331.72 534.58,-253.88 516.54,-218.66"/>
<polygon fill="midnightblue" stroke="midnightblue" points="519.56,-216.87 511.89,-209.57 513.33,-220.06 519.56,-216.87"/>
</g>
<!-- Node4 -->
<g id="node4" class="node">
<title>Node4</title>
<g id="a_node4"><a xlink:href="ek_2Implementation_8hpp.html" target="_top" xlink:title=" ">
<polygon fill="none" stroke="black" points="321,-302.5 321,-321.5 452,-321.5 452,-302.5 321,-302.5"/>
<text text-anchor="middle" x="386.5" y="-309.5" font-family="Helvetica,sans-Serif" font-size="10.00">ek/Implementation.hpp</text>
</a>
</g>
</g>
<!-- Node1&#45;&gt;Node4 -->
<g id="edge3" class="edge">
<title>Node1&#45;&gt;Node4</title>
<path fill="none" stroke="midnightblue" d="M559.86,-358.44C524.45,-349.16 467.79,-334.31 428.95,-324.13"/>
<polygon fill="midnightblue" stroke="midnightblue" points="429.55,-320.67 418.99,-321.52 427.77,-327.44 429.55,-320.67"/>
</g>
<!-- Node5 -->
<g id="node5" class="node">
<title>Node5</title>
<g id="a_node5"><a xlink:href="ek_2Solver_8hpp.html" target="_top" xlink:title=" ">
<polygon fill="none" stroke="black" points="213,-246.5 213,-265.5 296,-265.5 296,-246.5 213,-246.5"/>
<text text-anchor="middle" x="254.5" y="-253.5" font-family="Helvetica,sans-Serif" font-size="10.00">ek/Solver.hpp</text>
</a>
</g>
</g>
<!-- Node1&#45;&gt;Node5 -->
<g id="edge58" class="edge">
<title>Node1&#45;&gt;Node5</title>
<path fill="none" stroke="midnightblue" d="M558.8,-366.42C486.8,-364.51 321.06,-356.4 278.5,-322 264.63,-310.79 258.78,-290.77 256.31,-275.9"/>
<polygon fill="midnightblue" stroke="midnightblue" points="259.75,-275.24 255,-265.77 252.81,-276.13 259.75,-275.24"/>
</g>
<!-- Node7 -->
<g id="node7" class="node">
<title>Node7</title>
<g id="a_node7"><a xlink:href="core_2ek_2utils_8hpp.html" target="_top" xlink:title=" ">
<polygon fill="none" stroke="black" points="0,-190.5 0,-209.5 59,-209.5 59,-190.5 0,-190.5"/>
<text text-anchor="middle" x="29.5" y="-197.5" font-family="Helvetica,sans-Serif" font-size="10.00">utils.hpp</text>
</a>
</g>
</g>
<!-- Node1&#45;&gt;Node7 -->
<g id="edge59" class="edge">
<title>Node1&#45;&gt;Node7</title>
<path fill="none" stroke="midnightblue" d="M559,-366.01C462.94,-362.84 188.06,-351.39 103.5,-322 60.42,-307.03 39.24,-306.1 17.5,-266 9.57,-251.37 14.47,-232.45 20.22,-218.8"/>
<polygon fill="midnightblue" stroke="midnightblue" points="23.48,-220.09 24.58,-209.55 17.15,-217.11 23.48,-220.09"/>
</g>
<!-- Node8 -->
<g id="node8" class="node">
<title>Node8</title>
<g id="a_node8"><a xlink:title=" ">
<polygon fill="none" stroke="#bfbfbf" points="410,-73 410,-92 475,-92 475,-73 410,-73"/>
<text text-anchor="middle" x="442.5" y="-80" font-family="Helvetica,sans-Serif" font-size="10.00">stdexcept</text>
</a>
</g>
</g>
<!-- Node1&#45;&gt;Node8 -->
<g id="edge69" class="edge">
<title>Node1&#45;&gt;Node8</title>
<path fill="none" stroke="midnightblue" d="M558.98,-366.8C491.68,-365.61 343.83,-358.77 312.5,-322 303.26,-311.15 311.98,-216.01 373.5,-134 384.9,-118.8 402.14,-106.18 416.54,-97.36"/>
<polygon fill="midnightblue" stroke="midnightblue" points="418.64,-100.19 425.5,-92.12 415.1,-94.14 418.64,-100.19"/>
</g>
<!-- Node9 -->
<g id="node9" class="node">
<title>Node9</title>
<g id="a_node9"><a xlink:title=" ">
<polygon fill="none" stroke="#bfbfbf" points="449.5,-6 449.5,-25 501.5,-25 501.5,-6 449.5,-6"/>
<text text-anchor="middle" x="475.5" y="-13" font-family="Helvetica,sans-Serif" font-size="10.00">cassert</text>
</a>
</g>
</g>
<!-- Node1&#45;&gt;Node9 -->
<g id="edge64" class="edge">
<title>Node1&#45;&gt;Node9</title>
<path fill="none" stroke="midnightblue" d="M608.9,-358.24C639.58,-340.51 701.7,-297.66 691.5,-246 686.29,-219.6 685.8,-210.6 668.5,-190 649.23,-167.06 634.85,-172.77 611.5,-154 562.86,-114.9 513.15,-60.09 489.57,-32.99"/>
<polygon fill="midnightblue" stroke="midnightblue" points="492.05,-30.51 482.87,-25.23 486.75,-35.08 492.05,-30.51"/>
</g>
<!-- Node10 -->
<g id="node10" class="node">
<title>Node10</title>
<g id="a_node10"><a xlink:title=" ">
<polygon fill="none" stroke="#bfbfbf" points="620,-134.5 620,-153.5 667,-153.5 667,-134.5 620,-134.5"/>
<text text-anchor="middle" x="643.5" y="-141.5" font-family="Helvetica,sans-Serif" font-size="10.00">cmath</text>
</a>
</g>
</g>
<!-- Node1&#45;&gt;Node10 -->
<g id="edge65" class="edge">
<title>Node1&#45;&gt;Node10</title>
<path fill="none" stroke="midnightblue" d="M626.23,-365.91C657.46,-362.9 702.31,-353.01 724.5,-322 758.86,-273.98 743.66,-238.16 709.5,-190 700.07,-176.71 685.4,-166.14 672.28,-158.6"/>
<polygon fill="midnightblue" stroke="midnightblue" points="673.56,-155.31 663.1,-153.64 670.23,-161.47 673.56,-155.31"/>
</g>
<!-- Node11 -->
<g id="node11" class="node">
<title>Node11</title>
<g id="a_node11"><a xlink:title=" ">
<polygon fill="none" stroke="#bfbfbf" points="381.5,-190.5 381.5,-209.5 439.5,-209.5 439.5,-190.5 381.5,-190.5"/>
<text text-anchor="middle" x="410.5" y="-197.5" font-family="Helvetica,sans-Serif" font-size="10.00">memory</text>
</a>
</g>
</g>
<!-- Node1&#45;&gt;Node11 -->
<g id="edge67" class="edge">
<title>Node1&#45;&gt;Node11</title>
<path fill="none" stroke="midnightblue" d="M585.42,-358.33C564.01,-332.19 500.76,-255.33 489.5,-246 474.1,-233.24 454.59,-222.09 438.81,-214.08"/>
<polygon fill="midnightblue" stroke="midnightblue" points="440.06,-210.79 429.54,-209.51 436.96,-217.07 440.06,-210.79"/>
</g>
<!-- Node12 -->
<g id="node12" class="node">
<title>Node12</title>
<g id="a_node12"><a xlink:title=" ">
<polygon fill="none" stroke="#bfbfbf" points="77.5,-190.5 77.5,-209.5 133.5,-209.5 133.5,-190.5 77.5,-190.5"/>
<text text-anchor="middle" x="105.5" y="-197.5" font-family="Helvetica,sans-Serif" font-size="10.00">optional</text>
</a>
</g>
</g>
<!-- Node1&#45;&gt;Node12 -->
<g id="edge68" class="edge">
<title>Node1&#45;&gt;Node12</title>
<path fill="none" stroke="midnightblue" d="M558.9,-366.77C497.68,-365.41 364.59,-358.14 259.5,-322 212.79,-305.94 201.75,-297.26 163.5,-266 146.02,-251.71 129.2,-231.98 118.22,-218.02"/>
<polygon fill="midnightblue" stroke="midnightblue" points="120.76,-215.59 111.89,-209.79 115.21,-219.85 120.76,-215.59"/>
</g>
<!-- Node13 -->
<g id="node13" class="node">
<title>Node13</title>
<g id="a_node13"><a xlink:href="core_2ek_2EKNone_8hpp.html" target="_top" xlink:title=" ">
<polygon fill="none" stroke="black" points="27,-246.5 27,-265.5 118,-265.5 118,-246.5 27,-246.5"/>
<text text-anchor="middle" x="72.5" y="-253.5" font-family="Helvetica,sans-Serif" font-size="10.00">ek/EKNone.hpp</text>
</a>
</g>
</g>
<!-- Node1&#45;&gt;Node13 -->
<g id="edge60" class="edge">
<title>Node1&#45;&gt;Node13</title>
<path fill="none" stroke="midnightblue" d="M558.94,-366.78C466.05,-365.69 207.49,-359.29 132.5,-322 111.09,-311.35 93.53,-289.62 83.06,-274.22"/>
<polygon fill="midnightblue" stroke="midnightblue" points="85.85,-272.09 77.48,-265.6 79.98,-275.9 85.85,-272.09"/>
</g>
<!-- Node14 -->
<g id="node14" class="node">
<title>Node14</title>
<g id="a_node14"><a xlink:href="EKWalberla_8hpp.html" target="_top" xlink:title=" ">
<polygon fill="none" stroke="black" points="575,-246.5 575,-265.5 682,-265.5 682,-246.5 575,-246.5"/>
<text text-anchor="middle" x="628.5" y="-253.5" font-family="Helvetica,sans-Serif" font-size="10.00">ek/EKWalberla.hpp</text>
</a>
</g>
</g>
<!-- Node1&#45;&gt;Node14 -->
<g id="edge61" class="edge">
<title>Node1&#45;&gt;Node14</title>
<path fill="none" stroke="midnightblue" d="M595.32,-358.37C601.16,-340.54 614.66,-299.3 622.52,-275.27"/>
<polygon fill="midnightblue" stroke="midnightblue" points="625.9,-276.18 625.69,-265.59 619.25,-274.01 625.9,-276.18"/>
</g>
<!-- Node15 -->
<g id="node15" class="node">
<title>Node15</title>
<g id="a_node15"><a xlink:href="Vector_8hpp.html" target="_top" xlink:title="Vector implementation and trait types for boost qvm interoperability.">
<polygon fill="none" stroke="black" points="1041.5,-190.5 1041.5,-209.5 1133.5,-209.5 1133.5,-190.5 1041.5,-190.5"/>
<text text-anchor="middle" x="1087.5" y="-197.5" font-family="Helvetica,sans-Serif" font-size="10.00">utils/Vector.hpp</text>
</a>
</g>
</g>
<!-- Node1&#45;&gt;Node15 -->
<g id="edge63" class="edge">
<title>Node1&#45;&gt;Node15</title>
<path fill="none" stroke="midnightblue" d="M626,-359.16C660.49,-350.84 715.65,-336.88 762.5,-322 872.39,-287.09 999.74,-236.7 1056.93,-213.52"/>
<polygon fill="midnightblue" stroke="midnightblue" points="1058.51,-216.66 1066.46,-209.65 1055.87,-210.18 1058.51,-216.66"/>
</g>
<!-- Node22 -->
<g id="node22" class="node">
<title>Node22</title>
<g id="a_node22"><a xlink:title=" ">
<polygon fill="none" stroke="#bfbfbf" points="1697,-6 1697,-25 1738,-25 1738,-6 1697,-6"/>
<text text-anchor="middle" x="1717.5" y="-13" font-family="Helvetica,sans-Serif" font-size="10.00">tuple</text>
</a>
</g>
</g>
<!-- Node1&#45;&gt;Node22 -->
<g id="edge71" class="edge">
<title>Node1&#45;&gt;Node22</title>
<path fill="none" stroke="midnightblue" d="M626.31,-362.58C683.08,-355.05 801.14,-338.88 900.5,-322 1082.81,-291.04 1598.75,-297.4 1715.5,-154 1743.3,-119.85 1732.08,-63.54 1723.64,-34.72"/>
<polygon fill="midnightblue" stroke="midnightblue" points="1726.96,-33.62 1720.62,-25.13 1720.28,-35.72 1726.96,-33.62"/>
</g>
<!-- Node40 -->
<g id="node40" class="node">
<title>Node40</title>
<g id="a_node40"><a xlink:title=" ">
<polygon fill="none" stroke="#bfbfbf" points="1659,-134.5 1659,-153.5 1706,-153.5 1706,-134.5 1659,-134.5"/>
<text text-anchor="middle" x="1682.5" y="-141.5" font-family="Helvetica,sans-Serif" font-size="10.00">vector</text>
</a>
</g>
</g>
<!-- Node1&#45;&gt;Node40 -->
<g id="edge73" class="edge">
<title>Node1&#45;&gt;Node40</title>
<path fill="none" stroke="midnightblue" d="M626,-361.1C756.23,-337.98 1241.31,-250.23 1648.84,-154.03"/>
<polygon fill="midnightblue" stroke="midnightblue" points="1649.83,-157.39 1658.76,-151.68 1648.22,-150.58 1649.83,-157.39"/>
</g>
<!-- Node42 -->
<g id="node42" class="node">
<title>Node42</title>
<g id="a_node42"><a xlink:title=" ">
<polygon fill="none" stroke="#bfbfbf" points="429,-246.5 429,-265.5 480,-265.5 480,-246.5 429,-246.5"/>
<text text-anchor="middle" x="454.5" y="-253.5" font-family="Helvetica,sans-Serif" font-size="10.00">variant</text>
</a>
</g>
</g>
<!-- Node1&#45;&gt;Node42 -->
<g id="edge72" class="edge">
<title>Node1&#45;&gt;Node42</title>
<path fill="none" stroke="midnightblue" d="M569.15,-358.4C550.38,-350.74 524.02,-338.24 504.5,-322 488.14,-308.39 473.83,-288.51 464.76,-274.32"/>
<polygon fill="midnightblue" stroke="midnightblue" points="467.59,-272.23 459.36,-265.56 461.63,-275.91 467.59,-272.23"/>
</g>
<!-- Node43 -->
<g id="node43" class="node">
<title>Node43</title>
<g id="a_node43"><a xlink:title=" ">
<polygon fill="none" stroke="#bfbfbf" points="1395,-302.5 1395,-321.5 1508,-321.5 1508,-302.5 1395,-302.5"/>
<text text-anchor="middle" x="1451.5" y="-309.5" font-family="Helvetica,sans-Serif" font-size="10.00">system/System.hpp</text>
</a>
</g>
</g>
<!-- Node1&#45;&gt;Node43 -->
<g id="edge62" class="edge">
<title>Node1&#45;&gt;Node43</title>
<path fill="none" stroke="midnightblue" d="M626.36,-365.9C735.69,-362.18 1089.17,-348.75 1380.5,-322 1381.97,-321.87 1383.46,-321.72 1384.95,-321.58"/>
<polygon fill="midnightblue" stroke="midnightblue" points="1385.38,-325.05 1394.96,-320.52 1384.65,-318.09 1385.38,-325.05"/>
</g>
<!-- Node44 -->
<g id="node44" class="node">
<title>Node44</title>
<g id="a_node44"><a xlink:title=" ">
<polygon fill="none" stroke="#bfbfbf" points="1526.5,-302.5 1526.5,-321.5 1570.5,-321.5 1570.5,-302.5 1526.5,-302.5"/>
<text text-anchor="middle" x="1548.5" y="-309.5" font-family="Helvetica,sans-Serif" font-size="10.00">limits</text>
</a>
</g>
</g>
<!-- Node1&#45;&gt;Node44 -->
<g id="edge66" class="edge">
<title>Node1&#45;&gt;Node44</title>
<path fill="none" stroke="midnightblue" d="M626.32,-366.41C768.75,-363.78 1320.99,-351.94 1516.16,-321.76"/>
<polygon fill="midnightblue" stroke="midnightblue" points="1516.98,-325.17 1526.29,-320.12 1515.86,-318.26 1516.98,-325.17"/>
</g>
<!-- Node45 -->
<g id="node45" class="node">
<title>Node45</title>
<g id="a_node45"><a xlink:title=" ">
<polygon fill="none" stroke="#bfbfbf" points="1588.5,-302.5 1588.5,-321.5 1632.5,-321.5 1632.5,-302.5 1588.5,-302.5"/>
<text text-anchor="middle" x="1610.5" y="-309.5" font-family="Helvetica,sans-Serif" font-size="10.00">string</text>
</a>
</g>
</g>
<!-- Node1&#45;&gt;Node45 -->
<g id="edge70" class="edge">
<title>Node1&#45;&gt;Node45</title>
<path fill="none" stroke="midnightblue" d="M626.03,-366.54C774.02,-364.33 1370.31,-353.73 1578.39,-321.72"/>
<polygon fill="midnightblue" stroke="midnightblue" points="1578.98,-325.17 1588.29,-320.13 1577.87,-318.26 1578.98,-325.17"/>
</g>
<!-- Node3 -->
<g id="node3" class="node">
<title>Node3</title>
<g id="a_node3"><a xlink:title=" ">
<polygon fill="none" stroke="#bfbfbf" points="382,-134.5 382,-153.5 525,-153.5 525,-134.5 382,-134.5"/>
<text text-anchor="middle" x="453.5" y="-141.5" font-family="Helvetica,sans-Serif" font-size="10.00">config/config&#45;features.hpp</text>
</a>
</g>
</g>
<!-- Node2&#45;&gt;Node3 -->
<g id="edge2" class="edge">
<title>Node2&#45;&gt;Node3</title>
<path fill="none" stroke="midnightblue" d="M498.58,-190.08C490.72,-182.22 479.07,-170.57 469.58,-161.08"/>
<polygon fill="midnightblue" stroke="midnightblue" points="471.8,-158.35 462.25,-153.75 466.85,-163.3 471.8,-158.35"/>
</g>
<!-- Node4&#45;&gt;Node2 -->
<g id="edge4" class="edge">
<title>Node4&#45;&gt;Node2</title>
<path fill="none" stroke="midnightblue" d="M389.11,-302.39C393.59,-288.88 403.89,-262.53 420.5,-246 434.91,-231.66 454.83,-220.9 471.97,-213.5"/>
<polygon fill="midnightblue" stroke="midnightblue" points="473.75,-216.56 481.69,-209.54 471.1,-210.08 473.75,-216.56"/>
</g>
<!-- Node4&#45;&gt;Node5 -->
<g id="edge5" class="edge">
<title>Node4&#45;&gt;Node5</title>
<path fill="none" stroke="midnightblue" d="M365.58,-302.44C343.76,-293.52 309.35,-279.44 284.61,-269.32"/>
<polygon fill="midnightblue" stroke="midnightblue" points="285.9,-266.06 275.32,-265.52 283.25,-272.54 285.9,-266.06"/>
</g>
<!-- Node4&#45;&gt;Node11 -->
<g id="edge55" class="edge">
<title>Node4&#45;&gt;Node11</title>
<path fill="none" stroke="midnightblue" d="M385.2,-302.43C383.57,-289.84 381.57,-265.71 386.5,-246 388.94,-236.25 393.94,-226.29 398.74,-218.23"/>
<polygon fill="midnightblue" stroke="midnightblue" points="401.71,-220.08 404.13,-209.77 395.81,-216.32 401.71,-220.08"/>
</g>
<!-- Node4&#45;&gt;Node12 -->
<g id="edge56" class="edge">
<title>Node4&#45;&gt;Node12</title>
<path fill="none" stroke="midnightblue" d="M330.84,-302.47C293.71,-295.54 244.4,-283.94 203.5,-266 173.48,-252.83 142.56,-230.61 123.69,-215.87"/>
<polygon fill="midnightblue" stroke="midnightblue" points="125.68,-212.99 115.67,-209.5 121.32,-218.46 125.68,-212.99"/>
</g>
<!-- Node4&#45;&gt;Node13 -->
<g id="edge13" class="edge">
<title>Node4&#45;&gt;Node13</title>
<path fill="none" stroke="midnightblue" d="M336.75,-302.44C279.94,-292.67 187.25,-276.73 128.11,-266.56"/>
<polygon fill="midnightblue" stroke="midnightblue" points="128.64,-263.1 118.19,-264.86 127.46,-270 128.64,-263.1"/>
</g>
<!-- Node4&#45;&gt;Node14 -->
<g id="edge15" class="edge">
<title>Node4&#45;&gt;Node14</title>
<path fill="none" stroke="midnightblue" d="M424.85,-302.44C466.97,-293.04 534.71,-277.93 580.37,-267.74"/>
<polygon fill="midnightblue" stroke="midnightblue" points="581.34,-271.11 590.33,-265.52 579.81,-264.28 581.34,-271.11"/>
</g>
<!-- Node4&#45;&gt;Node42 -->
<g id="edge57" class="edge">
<title>Node4&#45;&gt;Node42</title>
<path fill="none" stroke="midnightblue" d="M397.43,-302.32C407.67,-294.18 423.22,-281.84 435.5,-272.09"/>
<polygon fill="midnightblue" stroke="midnightblue" points="437.72,-274.79 443.38,-265.83 433.37,-269.31 437.72,-274.79"/>
</g>
<!-- Node6 -->
<g id="node6" class="node">
<title>Node6</title>
<g id="a_node6"><a xlink:title=" ">
<polygon fill="none" stroke="#bfbfbf" points="190,-190.5 190,-209.5 287,-209.5 287,-190.5 190,-190.5"/>
<text text-anchor="middle" x="238.5" y="-197.5" font-family="Helvetica,sans-Serif" font-size="10.00">system/Leaf.hpp</text>
</a>
</g>
</g>
<!-- Node5&#45;&gt;Node6 -->
<g id="edge6" class="edge">
<title>Node5&#45;&gt;Node6</title>
<path fill="none" stroke="midnightblue" d="M251.86,-246.08C249.71,-238.85 246.62,-228.41 243.95,-219.4"/>
<polygon fill="midnightblue" stroke="midnightblue" points="247.29,-218.34 241.09,-209.75 240.58,-220.33 247.29,-218.34"/>
</g>
<!-- Node5&#45;&gt;Node7 -->
<g id="edge7" class="edge">
<title>Node5&#45;&gt;Node7</title>
<path fill="none" stroke="midnightblue" d="M218.85,-246.44C178.09,-236.66 111.57,-220.7 69.2,-210.53"/>
<polygon fill="midnightblue" stroke="midnightblue" points="69.78,-207.07 59.24,-208.14 68.14,-213.87 69.78,-207.07"/>
</g>
<!-- Node5&#45;&gt;Node9 -->
<g id="edge9" class="edge">
<title>Node5&#45;&gt;Node9</title>
<path fill="none" stroke="midnightblue" d="M230.48,-246.4C204.08,-235.5 167.2,-215.05 181.5,-190 237.71,-91.56 374.04,-43.37 439.39,-25.29"/>
<polygon fill="midnightblue" stroke="midnightblue" points="440.5,-28.61 449.25,-22.64 438.69,-21.85 440.5,-28.61"/>
</g>
<!-- Node5&#45;&gt;Node10 -->
<g id="edge10" class="edge">
<title>Node5&#45;&gt;Node10</title>
<path fill="none" stroke="midnightblue" d="M266.92,-246.28C287.73,-232.11 331.4,-204.26 372.5,-190 454.7,-161.48 557.37,-150.75 609.59,-146.95"/>
<polygon fill="midnightblue" stroke="midnightblue" points="609.9,-150.43 619.64,-146.25 609.42,-143.45 609.9,-150.43"/>
</g>
<!-- Node5&#45;&gt;Node11 -->
<g id="edge11" class="edge">
<title>Node5&#45;&gt;Node11</title>
<path fill="none" stroke="midnightblue" d="M279.22,-246.44C305.35,-237.4 346.76,-223.06 376.08,-212.92"/>
<polygon fill="midnightblue" stroke="midnightblue" points="377.59,-216.1 385.9,-209.52 375.3,-209.48 377.59,-216.1"/>
</g>
<!-- Node5&#45;&gt;Node12 -->
<g id="edge12" class="edge">
<title>Node5&#45;&gt;Node12</title>
<path fill="none" stroke="midnightblue" d="M230.89,-246.44C206.04,-237.44 166.73,-223.19 138.75,-213.05"/>
<polygon fill="midnightblue" stroke="midnightblue" points="139.59,-209.63 129,-209.52 137.21,-216.21 139.59,-209.63"/>
</g>
<!-- Node7&#45;&gt;Node8 -->
<g id="edge8" class="edge">
<title>Node7&#45;&gt;Node8</title>
<path fill="none" stroke="midnightblue" d="M59.2,-190.69C132,-170.34 319.38,-117.93 402.16,-94.78"/>
<polygon fill="midnightblue" stroke="midnightblue" points="403.27,-98.11 411.95,-92.04 401.38,-91.37 403.27,-98.11"/>
</g>
<!-- Node13&#45;&gt;Node7 -->
<g id="edge14" class="edge">
<title>Node13&#45;&gt;Node7</title>
<path fill="none" stroke="midnightblue" d="M65.4,-246.08C59.26,-238.38 50.23,-227.03 42.76,-217.65"/>
<polygon fill="midnightblue" stroke="midnightblue" points="45.44,-215.39 36.47,-209.75 39.96,-219.75 45.44,-215.39"/>
</g>
<!-- Node14&#45;&gt;Node2 -->
<g id="edge16" class="edge">
<title>Node14&#45;&gt;Node2</title>
<path fill="none" stroke="midnightblue" d="M609.33,-246.44C589.59,-237.64 558.61,-223.81 536.01,-213.72"/>
<polygon fill="midnightblue" stroke="midnightblue" points="537.14,-210.4 526.58,-209.52 534.29,-216.79 537.14,-210.4"/>
</g>
<!-- Node14&#45;&gt;Node8 -->
<g id="edge53" class="edge">
<title>Node14&#45;&gt;Node8</title>
<path fill="none" stroke="midnightblue" d="M623.55,-246.41C610.96,-225.14 575.79,-169.21 534.5,-134 516.08,-118.29 492.01,-105.29 473.1,-96.41"/>
<polygon fill="midnightblue" stroke="midnightblue" points="474.3,-93.11 463.75,-92.15 471.4,-99.48 474.3,-93.11"/>
</g>
<!-- Node14&#45;&gt;Node11 -->
<g id="edge52" class="edge">
<title>Node14&#45;&gt;Node11</title>
<path fill="none" stroke="midnightblue" d="M593.96,-246.44C554.67,-236.71 490.65,-220.85 449.57,-210.68"/>
<polygon fill="midnightblue" stroke="midnightblue" points="450.2,-207.23 439.65,-208.22 448.51,-214.02 450.2,-207.23"/>
</g>
<!-- Node14&#45;&gt;Node15 -->
<g id="edge17" class="edge">
<title>Node14&#45;&gt;Node15</title>
<path fill="none" stroke="midnightblue" d="M682.05,-248.7C769.4,-238.42 941.74,-218.15 1030.98,-207.65"/>
<polygon fill="midnightblue" stroke="midnightblue" points="1031.65,-211.09 1041.18,-206.45 1030.83,-204.14 1031.65,-211.09"/>
</g>
<!-- Node41 -->
<g id="node41" class="node">
<title>Node41</title>
<g id="a_node41"><a xlink:title=" ">
<polygon fill="none" stroke="#bfbfbf" points="614,-190.5 614,-209.5 659,-209.5 659,-190.5 614,-190.5"/>
<text text-anchor="middle" x="636.5" y="-197.5" font-family="Helvetica,sans-Serif" font-size="10.00">utility</text>
</a>
</g>
</g>
<!-- Node14&#45;&gt;Node41 -->
<g id="edge54" class="edge">
<title>Node14&#45;&gt;Node41</title>
<path fill="none" stroke="midnightblue" d="M629.82,-246.08C630.88,-238.93 632.41,-228.64 633.73,-219.69"/>
<polygon fill="midnightblue" stroke="midnightblue" points="637.2,-220.16 635.2,-209.75 630.28,-219.13 637.2,-220.16"/>
</g>
<!-- Node15&#45;&gt;Node9 -->
<g id="edge43" class="edge">
<title>Node15&#45;&gt;Node9</title>
<path fill="none" stroke="midnightblue" d="M1041.19,-196.53C954.99,-191.43 773.37,-178.11 715.5,-154 657.96,-130.03 659.67,-97.83 605.5,-67 566.62,-44.87 553.14,-47.36 511.5,-31 509.86,-30.36 508.18,-29.69 506.49,-29.02"/>
<polygon fill="midnightblue" stroke="midnightblue" points="507.38,-25.61 496.8,-25.15 504.78,-32.11 507.38,-25.61"/>
</g>
<!-- Node15&#45;&gt;Node10 -->
<g id="edge44" class="edge">
<title>Node15&#45;&gt;Node10</title>
<path fill="none" stroke="midnightblue" d="M1041.27,-195.73C965.65,-189.95 810.95,-176.42 681.5,-154 680.04,-153.75 678.55,-153.47 677.05,-153.18"/>
<polygon fill="midnightblue" stroke="midnightblue" points="677.63,-149.73 667.12,-151.07 676.18,-156.57 677.63,-149.73"/>
</g>
<!-- Node16 -->
<g id="node16" class="node">
<title>Node16</title>
<g id="a_node16"><a xlink:title=" ">
<polygon fill="none" stroke="#bfbfbf" points="849.5,-134.5 849.5,-153.5 999.5,-153.5 999.5,-134.5 849.5,-134.5"/>
<text text-anchor="middle" x="924.5" y="-141.5" font-family="Helvetica,sans-Serif" font-size="10.00">boost/qvm/deduce_vec.hpp</text>
</a>
</g>
</g>
<!-- Node15&#45;&gt;Node16 -->
<g id="edge18" class="edge">
<title>Node15&#45;&gt;Node16</title>
<path fill="none" stroke="midnightblue" d="M1061.67,-190.44C1034.25,-181.36 990.72,-166.94 960.07,-156.78"/>
<polygon fill="midnightblue" stroke="midnightblue" points="960.8,-153.34 950.21,-153.52 958.6,-159.98 960.8,-153.34"/>
</g>
<!-- Node17 -->
<g id="node17" class="node">
<title>Node17</title>
<g id="a_node17"><a xlink:title=" ">
<polygon fill="none" stroke="#bfbfbf" points="1017.5,-134.5 1017.5,-153.5 1157.5,-153.5 1157.5,-134.5 1017.5,-134.5"/>
<text text-anchor="middle" x="1087.5" y="-141.5" font-family="Helvetica,sans-Serif" font-size="10.00">boost/qvm/vec_traits.hpp</text>
</a>
</g>
</g>
<!-- Node15&#45;&gt;Node17 -->
<g id="edge19" class="edge">
<title>Node15&#45;&gt;Node17</title>
<path fill="none" stroke="midnightblue" d="M1087.5,-190.08C1087.5,-183.01 1087.5,-172.86 1087.5,-163.99"/>
<polygon fill="midnightblue" stroke="midnightblue" points="1091,-163.75 1087.5,-153.75 1084,-163.75 1091,-163.75"/>
</g>
<!-- Node18 -->
<g id="node18" class="node">
<title>Node18</title>
<g id="a_node18"><a xlink:href="Array_8hpp.html" target="_top" xlink:title="Array implementation with CUDA support.">
<polygon fill="none" stroke="black" points="1175.5,-134.5 1175.5,-153.5 1261.5,-153.5 1261.5,-134.5 1175.5,-134.5"/>
<text text-anchor="middle" x="1218.5" y="-141.5" font-family="Helvetica,sans-Serif" font-size="10.00">utils/Array.hpp</text>
</a>
</g>
</g>
<!-- Node15&#45;&gt;Node18 -->
<g id="edge20" class="edge">
<title>Node15&#45;&gt;Node18</title>
<path fill="none" stroke="midnightblue" d="M1108.26,-190.44C1129.82,-181.56 1163.76,-167.56 1188.29,-157.45"/>
<polygon fill="midnightblue" stroke="midnightblue" points="1189.93,-160.56 1197.84,-153.52 1187.26,-154.09 1189.93,-160.56"/>
</g>
<!-- Node21 -->
<g id="node21" class="node">
<title>Node21</title>
<g id="a_node21"><a xlink:title=" ">
<polygon fill="none" stroke="#bfbfbf" points="1608,-6 1608,-25 1661,-25 1661,-6 1608,-6"/>
<text text-anchor="middle" x="1634.5" y="-13" font-family="Helvetica,sans-Serif" font-size="10.00">cstddef</text>
</a>
</g>
</g>
<!-- Node15&#45;&gt;Node21 -->
<g id="edge45" class="edge">
<title>Node15&#45;&gt;Node21</title>
<path fill="none" stroke="midnightblue" d="M1133.56,-190.91C1171.14,-183.54 1225.23,-171.18 1270.5,-154 1288.34,-147.23 1291.01,-141.64 1308.5,-134 1352.55,-114.75 1365.18,-114.03 1410.5,-98 1494.52,-68.28 1516.3,-62.96 1599.5,-31 1601.15,-30.37 1602.83,-29.71 1604.53,-29.04"/>
<polygon fill="midnightblue" stroke="midnightblue" points="1606.26,-32.11 1614.21,-25.11 1603.63,-25.62 1606.26,-32.11"/>
</g>
<!-- Node33 -->
<g id="node33" class="node">
<title>Node33</title>
<g id="a_node33"><a xlink:title=" ">
<polygon fill="none" stroke="#bfbfbf" points="795,-73 795,-92 848,-92 848,-73 795,-73"/>
<text text-anchor="middle" x="821.5" y="-80" font-family="Helvetica,sans-Serif" font-size="10.00">iterator</text>
</a>
</g>
</g>
<!-- Node15&#45;&gt;Node33 -->
<g id="edge48" class="edge">
<title>Node15&#45;&gt;Node33</title>
<path fill="none" stroke="midnightblue" d="M1041.43,-196.39C978.22,-191.86 869.17,-180.38 840.5,-154 826.39,-141.01 822.32,-118.76 821.35,-102.72"/>
<polygon fill="midnightblue" stroke="midnightblue" points="824.84,-102.27 821.1,-92.36 817.85,-102.45 824.84,-102.27"/>
</g>
<!-- Node35 -->
<g id="node35" class="node">
<title>Node35</title>
<g id="a_node35"><a xlink:title=" ">
<polygon fill="none" stroke="#bfbfbf" points="1317.5,-134.5 1317.5,-153.5 1381.5,-153.5 1381.5,-134.5 1317.5,-134.5"/>
<text text-anchor="middle" x="1349.5" y="-141.5" font-family="Helvetica,sans-Serif" font-size="10.00">algorithm</text>
</a>
</g>
</g>
<!-- Node15&#45;&gt;Node35 -->
<g id="edge42" class="edge">
<title>Node15&#45;&gt;Node35</title>
<path fill="none" stroke="midnightblue" d="M1129.01,-190.44C1177.78,-180.39 1258.23,-163.81 1307.29,-153.7"/>
<polygon fill="midnightblue" stroke="midnightblue" points="1308.18,-157.09 1317.26,-151.64 1306.76,-150.23 1308.18,-157.09"/>
</g>
<!-- Node36 -->
<g id="node36" class="node">
<title>Node36</title>
<g id="a_node36"><a xlink:title=" ">
<polygon fill="none" stroke="#bfbfbf" points="1400,-134.5 1400,-153.5 1465,-153.5 1465,-134.5 1400,-134.5"/>
<text text-anchor="middle" x="1432.5" y="-141.5" font-family="Helvetica,sans-Serif" font-size="10.00">functional</text>
</a>
</g>
</g>
<!-- Node15&#45;&gt;Node36 -->
<g id="edge46" class="edge">
<title>Node15&#45;&gt;Node36</title>
<path fill="none" stroke="midnightblue" d="M1133.59,-193.08C1191.14,-185.49 1292.81,-171.4 1389.99,-153.99"/>
<polygon fill="midnightblue" stroke="midnightblue" points="1390.76,-157.4 1399.98,-152.18 1389.52,-150.52 1390.76,-157.4"/>
</g>
<!-- Node37 -->
<g id="node37" class="node">
<title>Node37</title>
<g id="a_node37"><a xlink:title=" ">
<polygon fill="none" stroke="#bfbfbf" points="1483,-134.5 1483,-153.5 1566,-153.5 1566,-134.5 1483,-134.5"/>
<text text-anchor="middle" x="1524.5" y="-141.5" font-family="Helvetica,sans-Serif" font-size="10.00">initializer_list</text>
</a>
</g>
</g>
<!-- Node15&#45;&gt;Node37 -->
<g id="edge47" class="edge">
<title>Node15&#45;&gt;Node37</title>
<path fill="none" stroke="midnightblue" d="M1133.79,-194.56C1204.67,-187.55 1344.55,-172.91 1472.79,-154.18"/>
<polygon fill="midnightblue" stroke="midnightblue" points="1473.41,-157.63 1482.79,-152.71 1472.39,-150.7 1473.41,-157.63"/>
</g>
<!-- Node38 -->
<g id="node38" class="node">
<title>Node38</title>
<g id="a_node38"><a xlink:title=" ">
<polygon fill="none" stroke="#bfbfbf" points="1584.5,-134.5 1584.5,-153.5 1640.5,-153.5 1640.5,-134.5 1584.5,-134.5"/>
<text text-anchor="middle" x="1612.5" y="-141.5" font-family="Helvetica,sans-Serif" font-size="10.00">numeric</text>
</a>
</g>
</g>
<!-- Node15&#45;&gt;Node38 -->
<g id="edge49" class="edge">
<title>Node15&#45;&gt;Node38</title>
<path fill="none" stroke="midnightblue" d="M1133.85,-194.46C1148.75,-193.02 1165.32,-191.43 1180.5,-190 1352.75,-173.82 1399.87,-182.57 1574.28,-153.97"/>
<polygon fill="midnightblue" stroke="midnightblue" points="1575.01,-157.4 1584.31,-152.31 1573.87,-150.49 1575.01,-157.4"/>
</g>
<!-- Node39 -->
<g id="node39" class="node">
<title>Node39</title>
<g id="a_node39"><a xlink:title=" ">
<polygon fill="none" stroke="#bfbfbf" points="724,-134.5 724,-153.5 793,-153.5 793,-134.5 724,-134.5"/>
<text text-anchor="middle" x="758.5" y="-141.5" font-family="Helvetica,sans-Serif" font-size="10.00">type_traits</text>
</a>
</g>
</g>
<!-- Node15&#45;&gt;Node39 -->
<g id="edge50" class="edge">
<title>Node15&#45;&gt;Node39</title>
<path fill="none" stroke="midnightblue" d="M1041.37,-191.91C985.83,-183.3 889.74,-168.16 807.5,-154 806.03,-153.75 804.55,-153.49 803.04,-153.23"/>
<polygon fill="midnightblue" stroke="midnightblue" points="803.48,-149.75 793.02,-151.44 802.25,-156.64 803.48,-149.75"/>
</g>
<!-- Node15&#45;&gt;Node40 -->
<g id="edge51" class="edge">
<title>Node15&#45;&gt;Node40</title>
<path fill="none" stroke="midnightblue" d="M1133.84,-194.33C1148.74,-192.88 1165.31,-191.32 1180.5,-190 1385.52,-172.21 1441.76,-189.12 1648.85,-153.76"/>
<polygon fill="midnightblue" stroke="midnightblue" points="1649.57,-157.18 1658.83,-152.03 1648.38,-150.29 1649.57,-157.18"/>
</g>
<!-- Node18&#45;&gt;Node8 -->
<g id="edge41" class="edge">
<title>Node18&#45;&gt;Node8</title>
<path fill="none" stroke="midnightblue" d="M1175.42,-135.2C1172.41,-134.76 1169.41,-134.35 1166.5,-134 909,-102.82 597.46,-89.13 485.31,-84.96"/>
<polygon fill="midnightblue" stroke="midnightblue" points="485.21,-81.46 475.08,-84.59 484.95,-88.45 485.21,-81.46"/>
</g>
<!-- Node18&#45;&gt;Node9 -->
<g id="edge37" class="edge">
<title>Node18&#45;&gt;Node9</title>
<path fill="none" stroke="midnightblue" d="M1175.39,-135.4C1172.38,-134.92 1169.4,-134.44 1166.5,-134 1046.39,-115.64 1007.02,-146.23 895.5,-98 875.49,-89.35 877.63,-75.37 857.5,-67 714.74,-7.65 661.55,-68.24 511.5,-31 508.83,-30.34 506.1,-29.52 503.4,-28.61"/>
<polygon fill="midnightblue" stroke="midnightblue" points="504.45,-25.27 493.86,-25.04 502,-31.82 504.45,-25.27"/>
</g>
<!-- Node19 -->
<g id="node19" class="node">
<title>Node19</title>
<g id="a_node19"><a xlink:href="device__qualifier_8hpp.html" target="_top" xlink:title=" ">
<polygon fill="none" stroke="black" points="904.5,-73 904.5,-92 1018.5,-92 1018.5,-73 904.5,-73"/>
<text text-anchor="middle" x="961.5" y="-80" font-family="Helvetica,sans-Serif" font-size="10.00">device_qualifier.hpp</text>
</a>
</g>
</g>
<!-- Node18&#45;&gt;Node19 -->
<g id="edge21" class="edge">
<title>Node18&#45;&gt;Node19</title>
<path fill="none" stroke="midnightblue" d="M1181.68,-134.48C1135.97,-123.89 1057.97,-105.84 1008.13,-94.3"/>
<polygon fill="midnightblue" stroke="midnightblue" points="1008.79,-90.85 998.25,-92.01 1007.21,-97.67 1008.79,-90.85"/>
</g>
<!-- Node20 -->
<g id="node20" class="node">
<title>Node20</title>
<g id="a_node20"><a xlink:href="get_8hpp.html" target="_top" xlink:title=" ">
<polygon fill="none" stroke="black" points="1608,-73 1608,-92 1661,-92 1661,-73 1608,-73"/>
<text text-anchor="middle" x="1634.5" y="-80" font-family="Helvetica,sans-Serif" font-size="10.00">get.hpp</text>
</a>
</g>
</g>
<!-- Node18&#45;&gt;Node20 -->
<g id="edge23" class="edge">
<title>Node18&#45;&gt;Node20</title>
<path fill="none" stroke="midnightblue" d="M1261.84,-136.8C1344.03,-125.05 1521.14,-99.71 1597.85,-88.74"/>
<polygon fill="midnightblue" stroke="midnightblue" points="1598.58,-92.17 1607.98,-87.29 1597.59,-85.24 1598.58,-92.17"/>
</g>
<!-- Node18&#45;&gt;Node21 -->
<g id="edge38" class="edge">
<title>Node18&#45;&gt;Node21</title>
<path fill="none" stroke="midnightblue" d="M1213.91,-134.41C1206.28,-118.82 1193.43,-85.73 1210.5,-67 1268.99,-2.85 1515.23,-51.85 1599.5,-31 1602.01,-30.38 1604.58,-29.6 1607.13,-28.74"/>
<polygon fill="midnightblue" stroke="midnightblue" points="1608.59,-31.93 1616.68,-25.09 1606.09,-25.39 1608.59,-31.93"/>
</g>
<!-- Node23 -->
<g id="node23" class="node">
<title>Node23</title>
<g id="a_node23"><a xlink:href="array_8hpp.html" target="_top" xlink:title=" ">
<polygon fill="none" stroke="black" points="1037,-73 1037,-92 1162,-92 1162,-73 1037,-73"/>
<text text-anchor="middle" x="1099.5" y="-80" font-family="Helvetica,sans-Serif" font-size="10.00">serialization/array.hpp</text>
</a>
</g>
</g>
<!-- Node18&#45;&gt;Node23 -->
<g id="edge26" class="edge">
<title>Node18&#45;&gt;Node23</title>
<path fill="none" stroke="midnightblue" d="M1201.45,-134.48C1181.66,-124.58 1148.78,-108.14 1125.73,-96.62"/>
<polygon fill="midnightblue" stroke="midnightblue" points="1127.03,-93.35 1116.52,-92.01 1123.9,-99.61 1127.03,-93.35"/>
</g>
<!-- Node32 -->
<g id="node32" class="node">
<title>Node32</title>
<g id="a_node32"><a xlink:title=" ">
<polygon fill="none" stroke="#bfbfbf" points="1219,-67.5 1219,-97.5 1326,-97.5 1326,-67.5 1219,-67.5"/>
<text text-anchor="start" x="1227" y="-85.5" font-family="Helvetica,sans-Serif" font-size="10.00">boost/serialization</text>
<text text-anchor="middle" x="1272.5" y="-74.5" font-family="Helvetica,sans-Serif" font-size="10.00">/access.hpp</text>
</a>
</g>
</g>
<!-- Node18&#45;&gt;Node32 -->
<g id="edge36" class="edge">
<title>Node18&#45;&gt;Node32</title>
<path fill="none" stroke="midnightblue" d="M1226.24,-134.48C1233.21,-126.79 1243.76,-115.17 1253.02,-104.96"/>
<polygon fill="midnightblue" stroke="midnightblue" points="1255.64,-107.28 1259.77,-97.52 1250.46,-102.58 1255.64,-107.28"/>
</g>
<!-- Node18&#45;&gt;Node33 -->
<g id="edge39" class="edge">
<title>Node18&#45;&gt;Node33</title>
<path fill="none" stroke="midnightblue" d="M1175.4,-135.36C1172.39,-134.88 1169.4,-134.42 1166.5,-134 1031.87,-114.39 995.01,-128.87 862.5,-98 859.26,-97.25 855.93,-96.32 852.63,-95.31"/>
<polygon fill="midnightblue" stroke="midnightblue" points="853.53,-91.92 842.94,-92.09 851.32,-98.57 853.53,-91.92"/>
</g>
<!-- Node34 -->
<g id="node34" class="node">
<title>Node34</title>
<g id="a_node34"><a xlink:title=" ">
<polygon fill="none" stroke="#bfbfbf" points="1344,-73 1344,-92 1401,-92 1401,-73 1344,-73"/>
<text text-anchor="middle" x="1372.5" y="-80" font-family="Helvetica,sans-Serif" font-size="10.00">ostream</text>
</a>
</g>
</g>
<!-- Node18&#45;&gt;Node34 -->
<g id="edge40" class="edge">
<title>Node18&#45;&gt;Node34</title>
<path fill="none" stroke="midnightblue" d="M1240.95,-134.42C1264.51,-125.39 1302.63,-110.76 1335.5,-98 1337.33,-97.29 1339.22,-96.56 1341.12,-95.81"/>
<polygon fill="midnightblue" stroke="midnightblue" points="1342.56,-99.01 1350.6,-92.11 1340.01,-92.49 1342.56,-99.01"/>
</g>
<!-- Node19&#45;&gt;Node9 -->
<g id="edge22" class="edge">
<title>Node19&#45;&gt;Node9</title>
<path fill="none" stroke="midnightblue" d="M923.68,-73C912.99,-70.81 901.33,-68.61 890.5,-67 723.15,-42.04 675.9,-71.02 511.5,-31 508.83,-30.35 506.1,-29.54 503.39,-28.64"/>
<polygon fill="midnightblue" stroke="midnightblue" points="504.44,-25.29 493.85,-25.07 501.99,-31.85 504.44,-25.29"/>
</g>
<!-- Node20&#45;&gt;Node21 -->
<g id="edge24" class="edge">
<title>Node20&#45;&gt;Node21</title>
<path fill="none" stroke="midnightblue" d="M1634.5,-72.73C1634.5,-63.18 1634.5,-47.62 1634.5,-35.28"/>
<polygon fill="midnightblue" stroke="midnightblue" points="1638,-35.13 1634.5,-25.13 1631,-35.13 1638,-35.13"/>
</g>
<!-- Node20&#45;&gt;Node22 -->
<g id="edge25" class="edge">
<title>Node20&#45;&gt;Node22</title>
<path fill="none" stroke="midnightblue" d="M1645.69,-72.73C1659.13,-62.21 1681.9,-44.38 1698.2,-31.62"/>
<polygon fill="midnightblue" stroke="midnightblue" points="1700.77,-34.05 1706.48,-25.13 1696.45,-28.54 1700.77,-34.05"/>
</g>
<!-- Node23&#45;&gt;Node21 -->
<g id="edge35" class="edge">
<title>Node23&#45;&gt;Node21</title>
<path fill="none" stroke="midnightblue" d="M1140.53,-72.98C1152.12,-70.79 1164.77,-68.6 1176.5,-67 1363.45,-41.51 1416.18,-75.64 1599.5,-31 1602.02,-30.39 1604.59,-29.62 1607.13,-28.76"/>
<polygon fill="midnightblue" stroke="midnightblue" points="1608.59,-31.95 1616.69,-25.12 1606.1,-25.41 1608.59,-31.95"/>
</g>
<!-- Node24 -->
<g id="node24" class="node">
<title>Node24</title>
<g id="a_node24"><a xlink:title=" ">
<polygon fill="none" stroke="#bfbfbf" points="520,-6 520,-25 653,-25 653,-6 520,-6"/>
<text text-anchor="middle" x="586.5" y="-13" font-family="Helvetica,sans-Serif" font-size="10.00">boost/mpl/bool_fwd.hpp</text>
</a>
</g>
</g>
<!-- Node23&#45;&gt;Node24 -->
<g id="edge27" class="edge">
<title>Node23&#45;&gt;Node24</title>
<path fill="none" stroke="midnightblue" d="M1060.76,-72.96C1050.03,-70.79 1038.35,-68.62 1027.5,-67 866.29,-42.88 823.84,-54.3 662.5,-31 654.37,-29.83 645.79,-28.39 637.44,-26.87"/>
<polygon fill="midnightblue" stroke="midnightblue" points="637.88,-23.4 627.41,-25.01 636.6,-30.28 637.88,-23.4"/>
</g>
<!-- Node25 -->
<g id="node25" class="node">
<title>Node25</title>
<g id="a_node25"><a xlink:title=" ">
<polygon fill="none" stroke="#bfbfbf" points="671.5,-6 671.5,-25 795.5,-25 795.5,-6 671.5,-6"/>
<text text-anchor="middle" x="733.5" y="-13" font-family="Helvetica,sans-Serif" font-size="10.00">boost/mpl/greater.hpp</text>
</a>
</g>
</g>
<!-- Node23&#45;&gt;Node25 -->
<g id="edge28" class="edge">
<title>Node23&#45;&gt;Node25</title>
<path fill="none" stroke="midnightblue" d="M1058.43,-72.94C1048.33,-70.92 1037.54,-68.82 1027.5,-67 928.72,-49.09 903.26,-49.05 804.5,-31 797.85,-29.78 790.86,-28.44 783.97,-27.07"/>
<polygon fill="midnightblue" stroke="midnightblue" points="784.49,-23.61 773.99,-25.07 783.11,-30.47 784.49,-23.61"/>
</g>
<!-- Node26 -->
<g id="node26" class="node">
<title>Node26</title>
<g id="a_node26"><a xlink:title=" ">
<polygon fill="none" stroke="#bfbfbf" points="813.5,-6 813.5,-25 915.5,-25 915.5,-6 813.5,-6"/>
<text text-anchor="middle" x="864.5" y="-13" font-family="Helvetica,sans-Serif" font-size="10.00">boost/mpl/int.hpp</text>
</a>
</g>
</g>
<!-- Node23&#45;&gt;Node26 -->
<g id="edge29" class="edge">
<title>Node23&#45;&gt;Node26</title>
<path fill="none" stroke="midnightblue" d="M1068.29,-72.87C1026.3,-61.25 951.54,-40.58 905.18,-27.75"/>
<polygon fill="midnightblue" stroke="midnightblue" points="906.03,-24.36 895.46,-25.06 904.17,-31.1 906.03,-24.36"/>
</g>
<!-- Node27 -->
<g id="node27" class="node">
<title>Node27</title>
<g id="a_node27"><a xlink:title=" ">
<polygon fill="none" stroke="#bfbfbf" points="933.5,-0.5 933.5,-30.5 1039.5,-30.5 1039.5,-0.5 933.5,-0.5"/>
<text text-anchor="start" x="941.5" y="-18.5" font-family="Helvetica,sans-Serif" font-size="10.00">boost/mpl/integral</text>
<text text-anchor="middle" x="986.5" y="-7.5" font-family="Helvetica,sans-Serif" font-size="10.00">_c_tag.hpp</text>
</a>
</g>
</g>
<!-- Node23&#45;&gt;Node27 -->
<g id="edge30" class="edge">
<title>Node23&#45;&gt;Node27</title>
<path fill="none" stroke="midnightblue" d="M1084.26,-72.73C1067.81,-63.27 1041.11,-47.91 1019.77,-35.64"/>
<polygon fill="midnightblue" stroke="midnightblue" points="1021.41,-32.54 1010.99,-30.59 1017.92,-38.61 1021.41,-32.54"/>
</g>
<!-- Node28 -->
<g id="node28" class="node">
<title>Node28</title>
<g id="a_node28"><a xlink:title=" ">
<polygon fill="none" stroke="#bfbfbf" points="1058,-0.5 1058,-30.5 1209,-30.5 1209,-0.5 1058,-0.5"/>
<text text-anchor="start" x="1066" y="-18.5" font-family="Helvetica,sans-Serif" font-size="10.00">boost/serialization</text>
<text text-anchor="middle" x="1133.5" y="-7.5" font-family="Helvetica,sans-Serif" font-size="10.00">/is_bitwise_serializable.hpp</text>
</a>
</g>
</g>
<!-- Node23&#45;&gt;Node28 -->
<g id="edge31" class="edge">
<title>Node23&#45;&gt;Node28</title>
<path fill="none" stroke="midnightblue" d="M1104.09,-72.73C1108.5,-64.29 1115.38,-51.14 1121.38,-39.68"/>
<polygon fill="midnightblue" stroke="midnightblue" points="1124.6,-41.07 1126.13,-30.59 1118.39,-37.83 1124.6,-41.07"/>
</g>
<!-- Node29 -->
<g id="node29" class="node">
<title>Node29</title>
<g id="a_node29"><a xlink:title=" ">
<polygon fill="none" stroke="#bfbfbf" points="1227,-0.5 1227,-30.5 1334,-30.5 1334,-0.5 1227,-0.5"/>
<text text-anchor="start" x="1235" y="-18.5" font-family="Helvetica,sans-Serif" font-size="10.00">boost/serialization</text>
<text text-anchor="middle" x="1280.5" y="-7.5" font-family="Helvetica,sans-Serif" font-size="10.00">/level.hpp</text>
</a>
</g>
</g>
<!-- Node23&#45;&gt;Node29 -->
<g id="edge32" class="edge">
<title>Node23&#45;&gt;Node29</title>
<path fill="none" stroke="midnightblue" d="M1123.54,-72.87C1151.05,-62.99 1196.82,-46.55 1231.86,-33.97"/>
<polygon fill="midnightblue" stroke="midnightblue" points="1233.21,-37.2 1241.44,-30.53 1230.84,-30.61 1233.21,-37.2"/>
</g>
<!-- Node30 -->
<g id="node30" class="node">
<title>Node30</title>
<g id="a_node30"><a xlink:title=" ">
<polygon fill="none" stroke="#bfbfbf" points="1352,-0.5 1352,-30.5 1459,-30.5 1459,-0.5 1352,-0.5"/>
<text text-anchor="start" x="1360" y="-18.5" font-family="Helvetica,sans-Serif" font-size="10.00">boost/serialization</text>
<text text-anchor="middle" x="1405.5" y="-7.5" font-family="Helvetica,sans-Serif" font-size="10.00">/tracking.hpp</text>
</a>
</g>
</g>
<!-- Node23&#45;&gt;Node30 -->
<g id="edge33" class="edge">
<title>Node23&#45;&gt;Node30</title>
<path fill="none" stroke="midnightblue" d="M1142.33,-72.98C1189.01,-63.62 1266.17,-47.92 1341.6,-31.39"/>
<polygon fill="midnightblue" stroke="midnightblue" points="1342.74,-34.73 1351.75,-29.16 1341.23,-27.89 1342.74,-34.73"/>
</g>
<!-- Node31 -->
<g id="node31" class="node">
<title>Node31</title>
<g id="a_node31"><a xlink:title=" ">
<polygon fill="none" stroke="#bfbfbf" points="1477,-0.5 1477,-30.5 1590,-30.5 1590,-0.5 1477,-0.5"/>
<text text-anchor="start" x="1485" y="-18.5" font-family="Helvetica,sans-Serif" font-size="10.00">boost/serialization</text>
<text text-anchor="middle" x="1533.5" y="-7.5" font-family="Helvetica,sans-Serif" font-size="10.00">/tracking_enum.hpp</text>
</a>
</g>
</g>
<!-- Node23&#45;&gt;Node31 -->
<g id="edge34" class="edge">
<title>Node23&#45;&gt;Node31</title>
<path fill="none" stroke="midnightblue" d="M1142.18,-72.96C1153.33,-70.87 1165.34,-68.74 1176.5,-67 1302.55,-47.38 1337.93,-52.97 1466.98,-31.17"/>
<polygon fill="midnightblue" stroke="midnightblue" points="1467.58,-34.61 1476.84,-29.48 1466.4,-27.71 1467.58,-34.61"/>
</g>
</g>
</svg>
