<?xml version="1.0" encoding="UTF-8" standalone="no"?>
<!DOCTYPE svg PUBLIC "-//W3C//DTD SVG 1.1//EN"
 "http://www.w3.org/Graphics/SVG/1.1/DTD/svg11.dtd">
<!-- Generated by graphviz version 2.43.0 (0)
 -->
<!-- Title: ek_poisson_none_init.cpp Pages: 1 -->
<svg width="1280pt" height="453pt"
 viewBox="0.00 0.00 1279.50 453.00" xmlns="http://www.w3.org/2000/svg" xmlns:xlink="http://www.w3.org/1999/xlink">
<g id="graph0" class="graph" transform="scale(1 1) rotate(0) translate(4 449)">
<title>ek_poisson_none_init.cpp</title>
<!-- Node1 -->
<g id="node1" class="node">
<title>Node1</title>
<g id="a_node1"><a xlink:title=" ">
<polygon fill="#bfbfbf" stroke="black" points="118,-425.5 118,-444.5 260,-444.5 260,-425.5 118,-425.5"/>
<text text-anchor="middle" x="189" y="-432.5" font-family="Helvetica,sans-Serif" font-size="10.00">ek_poisson_none_init.cpp</text>
</a>
</g>
</g>
<!-- Node2 -->
<g id="node2" class="node">
<title>Node2</title>
<g id="a_node2"><a xlink:href="walberla__bridge_2include_2walberla__bridge_2LatticeWalberla_8hpp.html" target="_top" xlink:title=" ">
<polygon fill="none" stroke="black" points="275,-246.5 275,-265.5 469,-265.5 469,-246.5 275,-246.5"/>
<text text-anchor="middle" x="372" y="-253.5" font-family="Helvetica,sans-Serif" font-size="10.00">walberla_bridge/LatticeWalberla.hpp</text>
</a>
</g>
</g>
<!-- Node1&#45;&gt;Node2 -->
<g id="edge1" class="edge">
<title>Node1&#45;&gt;Node2</title>
<path fill="none" stroke="midnightblue" d="M179.13,-425.35C164.01,-411.01 138.25,-381.58 152,-358 182.78,-305.22 249.55,-279.82 301.51,-267.71"/>
<polygon fill="midnightblue" stroke="midnightblue" points="302.35,-271.11 311.36,-265.54 300.84,-264.28 302.35,-271.11"/>
</g>
<!-- Node32 -->
<g id="node32" class="node">
<title>Node32</title>
<g id="a_node32"><a xlink:title=" ">
<polygon fill="none" stroke="#bfbfbf" points="104,-190.5 104,-209.5 162,-209.5 162,-190.5 104,-190.5"/>
<text text-anchor="middle" x="133" y="-197.5" font-family="Helvetica,sans-Serif" font-size="10.00">memory</text>
</a>
</g>
</g>
<!-- Node1&#45;&gt;Node32 -->
<g id="edge58" class="edge">
<title>Node1&#45;&gt;Node32</title>
<path fill="none" stroke="midnightblue" d="M176.46,-425.27C166,-417.19 151.76,-404.17 145,-389 119.54,-331.83 125.44,-255.08 130.04,-219.97"/>
<polygon fill="midnightblue" stroke="midnightblue" points="133.55,-220.14 131.5,-209.74 126.62,-219.15 133.55,-220.14"/>
</g>
<!-- Node34 -->
<g id="node34" class="node">
<title>Node34</title>
<g id="a_node34"><a xlink:href="walberla__bridge_2include_2walberla__bridge_2electrokinetics_2PoissonSolver_2None_8hpp.html" target="_top" xlink:title=" ">
<polygon fill="none" stroke="black" points="382,-358.5 382,-388.5 552,-388.5 552,-358.5 382,-358.5"/>
<text text-anchor="start" x="390" y="-376.5" font-family="Helvetica,sans-Serif" font-size="10.00">walberla_bridge/electrokinetics</text>
<text text-anchor="middle" x="467" y="-365.5" font-family="Helvetica,sans-Serif" font-size="10.00">/PoissonSolver/None.hpp</text>
</a>
</g>
</g>
<!-- Node1&#45;&gt;Node34 -->
<g id="edge42" class="edge">
<title>Node1&#45;&gt;Node34</title>
<path fill="none" stroke="midnightblue" d="M228.83,-425.48C271.14,-416.42 339.04,-401.89 391.53,-390.65"/>
<polygon fill="midnightblue" stroke="midnightblue" points="392.43,-394.04 401.48,-388.52 390.97,-387.19 392.43,-394.04"/>
</g>
<!-- Node38 -->
<g id="node38" class="node">
<title>Node38</title>
<g id="a_node38"><a xlink:href="ek__poisson__none__init_8hpp.html" target="_top" xlink:title=" ">
<polygon fill="none" stroke="black" points="161,-358.5 161,-388.5 331,-388.5 331,-358.5 161,-358.5"/>
<text text-anchor="start" x="169" y="-376.5" font-family="Helvetica,sans-Serif" font-size="10.00">walberla_bridge/electrokinetics</text>
<text text-anchor="middle" x="246" y="-365.5" font-family="Helvetica,sans-Serif" font-size="10.00">/ek_poisson_none_init.hpp</text>
</a>
</g>
</g>
<!-- Node1&#45;&gt;Node38 -->
<g id="edge54" class="edge">
<title>Node1&#45;&gt;Node38</title>
<path fill="none" stroke="midnightblue" d="M197.17,-425.48C204.53,-417.79 215.66,-406.17 225.44,-395.96"/>
<polygon fill="midnightblue" stroke="midnightblue" points="228.18,-398.17 232.57,-388.52 223.12,-393.32 228.18,-398.17"/>
</g>
<!-- Node3 -->
<g id="node3" class="node">
<title>Node3</title>
<g id="a_node3"><a xlink:href="Vector_8hpp.html" target="_top" xlink:title="Vector implementation and trait types for boost qvm interoperability.">
<polygon fill="none" stroke="black" points="489,-190.5 489,-209.5 581,-209.5 581,-190.5 489,-190.5"/>
<text text-anchor="middle" x="535" y="-197.5" font-family="Helvetica,sans-Serif" font-size="10.00">utils/Vector.hpp</text>
</a>
</g>
</g>
<!-- Node2&#45;&gt;Node3 -->
<g id="edge2" class="edge">
<title>Node2&#45;&gt;Node3</title>
<path fill="none" stroke="midnightblue" d="M397.83,-246.44C425.25,-237.36 468.78,-222.94 499.43,-212.78"/>
<polygon fill="midnightblue" stroke="midnightblue" points="500.9,-215.98 509.29,-209.52 498.7,-209.34 500.9,-215.98"/>
</g>
<!-- Node8 -->
<g id="node8" class="node">
<title>Node8</title>
<g id="a_node8"><a xlink:title=" ">
<polygon fill="none" stroke="#bfbfbf" points="0,-6 0,-25 52,-25 52,-6 0,-6"/>
<text text-anchor="middle" x="26" y="-13" font-family="Helvetica,sans-Serif" font-size="10.00">cassert</text>
</a>
</g>
</g>
<!-- Node2&#45;&gt;Node8 -->
<g id="edge37" class="edge">
<title>Node2&#45;&gt;Node8</title>
<path fill="none" stroke="midnightblue" d="M344,-246.47C276.2,-225.61 107.34,-172.39 88,-154 53.15,-120.87 36.4,-64.52 29.71,-35.31"/>
<polygon fill="midnightblue" stroke="midnightblue" points="33.07,-34.28 27.56,-25.23 26.22,-35.74 33.07,-34.28"/>
</g>
<!-- Node26 -->
<g id="node26" class="node">
<title>Node26</title>
<g id="a_node26"><a xlink:title=" ">
<polygon fill="none" stroke="#bfbfbf" points="1135.5,-134.5 1135.5,-153.5 1182.5,-153.5 1182.5,-134.5 1135.5,-134.5"/>
<text text-anchor="middle" x="1159" y="-141.5" font-family="Helvetica,sans-Serif" font-size="10.00">cmath</text>
</a>
</g>
</g>
<!-- Node2&#45;&gt;Node26 -->
<g id="edge38" class="edge">
<title>Node2&#45;&gt;Node26</title>
<path fill="none" stroke="midnightblue" d="M436.19,-246.43C480.28,-239.41 539.7,-227.72 590,-210 608.37,-203.53 610.24,-195.26 629,-190 840.11,-130.79 904.3,-187.37 1121,-154 1122.47,-153.77 1123.96,-153.52 1125.46,-153.25"/>
<polygon fill="midnightblue" stroke="midnightblue" points="1126.31,-156.65 1135.4,-151.21 1124.9,-149.79 1126.31,-156.65"/>
</g>
<!-- Node28 -->
<g id="node28" class="node">
<title>Node28</title>
<g id="a_node28"><a xlink:title=" ">
<polygon fill="none" stroke="#bfbfbf" points="97.5,-134.5 97.5,-153.5 180.5,-153.5 180.5,-134.5 97.5,-134.5"/>
<text text-anchor="middle" x="139" y="-141.5" font-family="Helvetica,sans-Serif" font-size="10.00">initializer_list</text>
</a>
</g>
</g>
<!-- Node2&#45;&gt;Node28 -->
<g id="edge39" class="edge">
<title>Node2&#45;&gt;Node28</title>
<path fill="none" stroke="midnightblue" d="M353.72,-246.37C312.97,-227.13 214.51,-180.65 166.39,-157.93"/>
<polygon fill="midnightblue" stroke="midnightblue" points="167.74,-154.7 157.2,-153.59 164.75,-161.03 167.74,-154.7"/>
</g>
<!-- Node2&#45;&gt;Node32 -->
<g id="edge40" class="edge">
<title>Node2&#45;&gt;Node32</title>
<path fill="none" stroke="midnightblue" d="M334.13,-246.44C289.8,-236.43 216.77,-219.93 171.98,-209.81"/>
<polygon fill="midnightblue" stroke="midnightblue" points="172.57,-206.35 162.05,-207.56 171.03,-213.18 172.57,-206.35"/>
</g>
<!-- Node33 -->
<g id="node33" class="node">
<title>Node33</title>
<g id="a_node33"><a xlink:title=" ">
<polygon fill="none" stroke="#bfbfbf" points="637.5,-190.5 637.5,-209.5 682.5,-209.5 682.5,-190.5 637.5,-190.5"/>
<text text-anchor="middle" x="660" y="-197.5" font-family="Helvetica,sans-Serif" font-size="10.00">utility</text>
</a>
</g>
</g>
<!-- Node2&#45;&gt;Node33 -->
<g id="edge41" class="edge">
<title>Node2&#45;&gt;Node33</title>
<path fill="none" stroke="midnightblue" d="M425.07,-246.46C476,-238.03 554.99,-224.35 623,-210 624.46,-209.69 625.94,-209.37 627.44,-209.04"/>
<polygon fill="midnightblue" stroke="midnightblue" points="628.4,-212.41 637.35,-206.74 626.82,-205.59 628.4,-212.41"/>
</g>
<!-- Node4 -->
<g id="node4" class="node">
<title>Node4</title>
<g id="a_node4"><a xlink:title=" ">
<polygon fill="none" stroke="#bfbfbf" points="733,-134.5 733,-153.5 883,-153.5 883,-134.5 733,-134.5"/>
<text text-anchor="middle" x="808" y="-141.5" font-family="Helvetica,sans-Serif" font-size="10.00">boost/qvm/deduce_vec.hpp</text>
</a>
</g>
</g>
<!-- Node3&#45;&gt;Node4 -->
<g id="edge3" class="edge">
<title>Node3&#45;&gt;Node4</title>
<path fill="none" stroke="midnightblue" d="M578.26,-190.44C626.18,-180.96 703.48,-165.67 755,-155.48"/>
<polygon fill="midnightblue" stroke="midnightblue" points="755.81,-158.89 764.94,-153.52 754.46,-152.02 755.81,-158.89"/>
</g>
<!-- Node5 -->
<g id="node5" class="node">
<title>Node5</title>
<g id="a_node5"><a xlink:title=" ">
<polygon fill="none" stroke="#bfbfbf" points="901,-134.5 901,-153.5 1041,-153.5 1041,-134.5 901,-134.5"/>
<text text-anchor="middle" x="971" y="-141.5" font-family="Helvetica,sans-Serif" font-size="10.00">boost/qvm/vec_traits.hpp</text>
</a>
</g>
</g>
<!-- Node3&#45;&gt;Node5 -->
<g id="edge4" class="edge">
<title>Node3&#45;&gt;Node5</title>
<path fill="none" stroke="midnightblue" d="M581.17,-191.93C585.84,-191.26 590.51,-190.61 595,-190 650.4,-182.53 798.11,-165.13 891.05,-154.29"/>
<polygon fill="midnightblue" stroke="midnightblue" points="891.46,-157.76 900.98,-153.13 890.64,-150.81 891.46,-157.76"/>
</g>
<!-- Node6 -->
<g id="node6" class="node">
<title>Node6</title>
<g id="a_node6"><a xlink:href="Array_8hpp.html" target="_top" xlink:title="Array implementation with CUDA support.">
<polygon fill="none" stroke="black" points="237,-134.5 237,-153.5 323,-153.5 323,-134.5 237,-134.5"/>
<text text-anchor="middle" x="280" y="-141.5" font-family="Helvetica,sans-Serif" font-size="10.00">utils/Array.hpp</text>
</a>
</g>
</g>
<!-- Node3&#45;&gt;Node6 -->
<g id="edge5" class="edge">
<title>Node3&#45;&gt;Node6</title>
<path fill="none" stroke="midnightblue" d="M494.59,-190.44C450.02,-181 378.23,-165.8 330.11,-155.61"/>
<polygon fill="midnightblue" stroke="midnightblue" points="330.72,-152.16 320.22,-153.52 329.27,-159.01 330.72,-152.16"/>
</g>
<!-- Node3&#45;&gt;Node8 -->
<g id="edge28" class="edge">
<title>Node3&#45;&gt;Node8</title>
<path fill="none" stroke="midnightblue" d="M488.81,-197.39C427.66,-194.1 317.18,-184.14 228,-154 215.84,-149.89 137.64,-105.17 127,-98 96.07,-77.17 62.92,-49.21 43.34,-32.04"/>
<polygon fill="midnightblue" stroke="midnightblue" points="45.41,-29.2 35.6,-25.19 40.77,-34.44 45.41,-29.2"/>
</g>
<!-- Node10 -->
<g id="node10" class="node">
<title>Node10</title>
<g id="a_node10"><a xlink:title=" ">
<polygon fill="none" stroke="#bfbfbf" points="1218.5,-6 1218.5,-25 1271.5,-25 1271.5,-6 1218.5,-6"/>
<text text-anchor="middle" x="1245" y="-13" font-family="Helvetica,sans-Serif" font-size="10.00">cstddef</text>
</a>
</g>
</g>
<!-- Node3&#45;&gt;Node10 -->
<g id="edge30" class="edge">
<title>Node3&#45;&gt;Node10</title>
<path fill="none" stroke="midnightblue" d="M581.12,-190.65C582.76,-190.42 584.39,-190.2 586,-190 692.13,-176.69 966.08,-192.18 1066,-154 1136.6,-127.03 1202.42,-62.65 1230.59,-32.54"/>
<polygon fill="midnightblue" stroke="midnightblue" points="1233.32,-34.75 1237.51,-25.02 1228.17,-30.01 1233.32,-34.75"/>
</g>
<!-- Node22 -->
<g id="node22" class="node">
<title>Node22</title>
<g id="a_node22"><a xlink:title=" ">
<polygon fill="none" stroke="#bfbfbf" points="981.5,-73 981.5,-92 1034.5,-92 1034.5,-73 981.5,-73"/>
<text text-anchor="middle" x="1008" y="-80" font-family="Helvetica,sans-Serif" font-size="10.00">iterator</text>
</a>
</g>
</g>
<!-- Node3&#45;&gt;Node22 -->
<g id="edge33" class="edge">
<title>Node3&#45;&gt;Node22</title>
<path fill="none" stroke="midnightblue" d="M581.14,-191.75C585.82,-191.11 590.5,-190.51 595,-190 645.38,-184.24 1015.58,-191.25 1050,-154 1065.45,-137.27 1045.24,-113.95 1027.87,-98.79"/>
<polygon fill="midnightblue" stroke="midnightblue" points="1029.67,-95.74 1019.74,-92.07 1025.21,-101.14 1029.67,-95.74"/>
</g>
<!-- Node25 -->
<g id="node25" class="node">
<title>Node25</title>
<g id="a_node25"><a xlink:title=" ">
<polygon fill="none" stroke="#bfbfbf" points="341,-134.5 341,-153.5 405,-153.5 405,-134.5 341,-134.5"/>
<text text-anchor="middle" x="373" y="-141.5" font-family="Helvetica,sans-Serif" font-size="10.00">algorithm</text>
</a>
</g>
</g>
<!-- Node3&#45;&gt;Node25 -->
<g id="edge27" class="edge">
<title>Node3&#45;&gt;Node25</title>
<path fill="none" stroke="midnightblue" d="M509.33,-190.44C482.08,-181.36 438.82,-166.94 408.35,-156.78"/>
<polygon fill="midnightblue" stroke="midnightblue" points="409.14,-153.36 398.55,-153.52 406.93,-160 409.14,-153.36"/>
</g>
<!-- Node3&#45;&gt;Node26 -->
<g id="edge29" class="edge">
<title>Node3&#45;&gt;Node26</title>
<path fill="none" stroke="midnightblue" d="M581.14,-191.7C585.81,-191.07 590.5,-190.49 595,-190 827.94,-164.6 889.32,-189.12 1121,-154 1122.47,-153.78 1123.96,-153.53 1125.46,-153.26"/>
<polygon fill="midnightblue" stroke="midnightblue" points="1126.31,-156.66 1135.4,-151.22 1124.9,-149.8 1126.31,-156.66"/>
</g>
<!-- Node27 -->
<g id="node27" class="node">
<title>Node27</title>
<g id="a_node27"><a xlink:title=" ">
<polygon fill="none" stroke="#bfbfbf" points="423.5,-134.5 423.5,-153.5 488.5,-153.5 488.5,-134.5 423.5,-134.5"/>
<text text-anchor="middle" x="456" y="-141.5" font-family="Helvetica,sans-Serif" font-size="10.00">functional</text>
</a>
</g>
</g>
<!-- Node3&#45;&gt;Node27 -->
<g id="edge31" class="edge">
<title>Node3&#45;&gt;Node27</title>
<path fill="none" stroke="midnightblue" d="M522.31,-190.32C510.1,-181.98 491.42,-169.21 477,-159.35"/>
<polygon fill="midnightblue" stroke="midnightblue" points="478.89,-156.41 468.66,-153.65 474.94,-162.19 478.89,-156.41"/>
</g>
<!-- Node3&#45;&gt;Node28 -->
<g id="edge32" class="edge">
<title>Node3&#45;&gt;Node28</title>
<path fill="none" stroke="midnightblue" d="M488.75,-193.29C423.28,-185.12 299.87,-169.36 195,-154 193.54,-153.79 192.06,-153.57 190.56,-153.34"/>
<polygon fill="midnightblue" stroke="midnightblue" points="190.98,-149.87 180.57,-151.81 189.93,-156.79 190.98,-149.87"/>
</g>
<!-- Node29 -->
<g id="node29" class="node">
<title>Node29</title>
<g id="a_node29"><a xlink:title=" ">
<polygon fill="none" stroke="#bfbfbf" points="507,-134.5 507,-153.5 563,-153.5 563,-134.5 507,-134.5"/>
<text text-anchor="middle" x="535" y="-141.5" font-family="Helvetica,sans-Serif" font-size="10.00">numeric</text>
</a>
</g>
</g>
<!-- Node3&#45;&gt;Node29 -->
<g id="edge34" class="edge">
<title>Node3&#45;&gt;Node29</title>
<path fill="none" stroke="midnightblue" d="M535,-190.08C535,-183.01 535,-172.86 535,-163.99"/>
<polygon fill="midnightblue" stroke="midnightblue" points="538.5,-163.75 535,-153.75 531.5,-163.75 538.5,-163.75"/>
</g>
<!-- Node30 -->
<g id="node30" class="node">
<title>Node30</title>
<g id="a_node30"><a xlink:title=" ">
<polygon fill="none" stroke="#bfbfbf" points="581.5,-134.5 581.5,-153.5 650.5,-153.5 650.5,-134.5 581.5,-134.5"/>
<text text-anchor="middle" x="616" y="-141.5" font-family="Helvetica,sans-Serif" font-size="10.00">type_traits</text>
</a>
</g>
</g>
<!-- Node3&#45;&gt;Node30 -->
<g id="edge35" class="edge">
<title>Node3&#45;&gt;Node30</title>
<path fill="none" stroke="midnightblue" d="M548.01,-190.32C560.53,-181.98 579.68,-169.21 594.47,-159.35"/>
<polygon fill="midnightblue" stroke="midnightblue" points="596.64,-162.11 603.02,-153.65 592.76,-156.29 596.64,-162.11"/>
</g>
<!-- Node31 -->
<g id="node31" class="node">
<title>Node31</title>
<g id="a_node31"><a xlink:title=" ">
<polygon fill="none" stroke="#bfbfbf" points="668.5,-134.5 668.5,-153.5 715.5,-153.5 715.5,-134.5 668.5,-134.5"/>
<text text-anchor="middle" x="692" y="-141.5" font-family="Helvetica,sans-Serif" font-size="10.00">vector</text>
</a>
</g>
</g>
<!-- Node3&#45;&gt;Node31 -->
<g id="edge36" class="edge">
<title>Node3&#45;&gt;Node31</title>
<path fill="none" stroke="midnightblue" d="M559.88,-190.44C586.6,-181.25 629.2,-166.6 658.78,-156.43"/>
<polygon fill="midnightblue" stroke="midnightblue" points="659.95,-159.73 668.27,-153.16 657.67,-153.11 659.95,-159.73"/>
</g>
<!-- Node7 -->
<g id="node7" class="node">
<title>Node7</title>
<g id="a_node7"><a xlink:href="device__qualifier_8hpp.html" target="_top" xlink:title=" ">
<polygon fill="none" stroke="black" points="136,-73 136,-92 250,-92 250,-73 136,-73"/>
<text text-anchor="middle" x="193" y="-80" font-family="Helvetica,sans-Serif" font-size="10.00">device_qualifier.hpp</text>
</a>
</g>
</g>
<!-- Node6&#45;&gt;Node7 -->
<g id="edge6" class="edge">
<title>Node6&#45;&gt;Node7</title>
<path fill="none" stroke="midnightblue" d="M267.54,-134.48C253.58,-124.93 230.74,-109.31 214.01,-97.87"/>
<polygon fill="midnightblue" stroke="midnightblue" points="215.67,-94.77 205.44,-92.01 211.72,-100.54 215.67,-94.77"/>
</g>
<!-- Node6&#45;&gt;Node8 -->
<g id="edge22" class="edge">
<title>Node6&#45;&gt;Node8</title>
<path fill="none" stroke="midnightblue" d="M280.36,-134.45C280.51,-118.62 278.4,-84.73 259,-67 192.98,-6.65 146.8,-56.26 61,-31 58.71,-30.33 56.37,-29.55 54.03,-28.72"/>
<polygon fill="midnightblue" stroke="midnightblue" points="55.21,-25.42 44.63,-25.08 52.69,-31.95 55.21,-25.42"/>
</g>
<!-- Node9 -->
<g id="node9" class="node">
<title>Node9</title>
<g id="a_node9"><a xlink:href="get_8hpp.html" target="_top" xlink:title=" ">
<polygon fill="none" stroke="black" points="464.5,-73 464.5,-92 517.5,-92 517.5,-73 464.5,-73"/>
<text text-anchor="middle" x="491" y="-80" font-family="Helvetica,sans-Serif" font-size="10.00">get.hpp</text>
</a>
</g>
</g>
<!-- Node6&#45;&gt;Node9 -->
<g id="edge8" class="edge">
<title>Node6&#45;&gt;Node9</title>
<path fill="none" stroke="midnightblue" d="M319.96,-134.49C355.94,-126.43 410.07,-113.3 456,-98 457.92,-97.36 459.88,-96.67 461.85,-95.94"/>
<polygon fill="midnightblue" stroke="midnightblue" points="463.53,-99.04 471.56,-92.13 460.98,-92.52 463.53,-99.04"/>
</g>
<!-- Node6&#45;&gt;Node10 -->
<g id="edge23" class="edge">
<title>Node6&#45;&gt;Node10</title>
<path fill="none" stroke="midnightblue" d="M323.08,-135.22C326.1,-134.78 329.09,-134.36 332,-134 538.57,-108.22 592.5,-124.29 799,-98 876.92,-88.08 895.5,-79.81 973,-67 1077.68,-49.69 1106.66,-59.01 1209,-31 1211.5,-30.32 1214.07,-29.51 1216.62,-28.63"/>
<polygon fill="midnightblue" stroke="midnightblue" points="1218.1,-31.81 1226.23,-25.02 1215.63,-25.26 1218.1,-31.81"/>
</g>
<!-- Node12 -->
<g id="node12" class="node">
<title>Node12</title>
<g id="a_node12"><a xlink:href="array_8hpp.html" target="_top" xlink:title=" ">
<polygon fill="none" stroke="black" points="539.5,-73 539.5,-92 664.5,-92 664.5,-73 539.5,-73"/>
<text text-anchor="middle" x="602" y="-80" font-family="Helvetica,sans-Serif" font-size="10.00">serialization/array.hpp</text>
</a>
</g>
</g>
<!-- Node6&#45;&gt;Node12 -->
<g id="edge11" class="edge">
<title>Node6&#45;&gt;Node12</title>
<path fill="none" stroke="midnightblue" d="M323.31,-135.26C372.64,-126.4 455.67,-111.39 527,-98 533.83,-96.72 541.01,-95.35 548.1,-93.99"/>
<polygon fill="midnightblue" stroke="midnightblue" points="549.23,-97.34 558.39,-92.01 547.91,-90.47 549.23,-97.34"/>
</g>
<!-- Node21 -->
<g id="node21" class="node">
<title>Node21</title>
<g id="a_node21"><a xlink:title=" ">
<polygon fill="none" stroke="#bfbfbf" points="682.5,-67.5 682.5,-97.5 789.5,-97.5 789.5,-67.5 682.5,-67.5"/>
<text text-anchor="start" x="690.5" y="-85.5" font-family="Helvetica,sans-Serif" font-size="10.00">boost/serialization</text>
<text text-anchor="middle" x="736" y="-74.5" font-family="Helvetica,sans-Serif" font-size="10.00">/access.hpp</text>
</a>
</g>
</g>
<!-- Node6&#45;&gt;Node21 -->
<g id="edge21" class="edge">
<title>Node6&#45;&gt;Node21</title>
<path fill="none" stroke="midnightblue" d="M323.1,-135.31C326.11,-134.85 329.1,-134.4 332,-134 480.13,-113.41 521.53,-123.02 672.23,-98.17"/>
<polygon fill="midnightblue" stroke="midnightblue" points="673.03,-101.59 682.31,-96.49 671.87,-94.69 673.03,-101.59"/>
</g>
<!-- Node6&#45;&gt;Node22 -->
<g id="edge24" class="edge">
<title>Node6&#45;&gt;Node22</title>
<path fill="none" stroke="midnightblue" d="M323.08,-135.18C326.09,-134.75 329.09,-134.35 332,-134 574.37,-105.15 636.89,-119.74 880,-98 910.74,-95.25 945.53,-91.25 971.07,-88.15"/>
<polygon fill="midnightblue" stroke="midnightblue" points="971.57,-91.62 981.07,-86.92 970.72,-84.67 971.57,-91.62"/>
</g>
<!-- Node23 -->
<g id="node23" class="node">
<title>Node23</title>
<g id="a_node23"><a xlink:title=" ">
<polygon fill="none" stroke="#bfbfbf" points="306.5,-73 306.5,-92 363.5,-92 363.5,-73 306.5,-73"/>
<text text-anchor="middle" x="335" y="-80" font-family="Helvetica,sans-Serif" font-size="10.00">ostream</text>
</a>
</g>
</g>
<!-- Node6&#45;&gt;Node23 -->
<g id="edge25" class="edge">
<title>Node6&#45;&gt;Node23</title>
<path fill="none" stroke="midnightblue" d="M287.88,-134.48C296.29,-125.37 309.82,-110.74 320.23,-99.48"/>
<polygon fill="midnightblue" stroke="midnightblue" points="322.92,-101.73 327.13,-92.01 317.78,-96.98 322.92,-101.73"/>
</g>
<!-- Node24 -->
<g id="node24" class="node">
<title>Node24</title>
<g id="a_node24"><a xlink:title=" ">
<polygon fill="none" stroke="#bfbfbf" points="381.5,-73 381.5,-92 446.5,-92 446.5,-73 381.5,-73"/>
<text text-anchor="middle" x="414" y="-80" font-family="Helvetica,sans-Serif" font-size="10.00">stdexcept</text>
</a>
</g>
</g>
<!-- Node6&#45;&gt;Node24 -->
<g id="edge26" class="edge">
<title>Node6&#45;&gt;Node24</title>
<path fill="none" stroke="midnightblue" d="M299.2,-134.48C321.79,-124.45 359.5,-107.7 385.5,-96.15"/>
<polygon fill="midnightblue" stroke="midnightblue" points="387.12,-99.27 394.84,-92.01 384.28,-92.87 387.12,-99.27"/>
</g>
<!-- Node7&#45;&gt;Node8 -->
<g id="edge7" class="edge">
<title>Node7&#45;&gt;Node8</title>
<path fill="none" stroke="midnightblue" d="M170.03,-72.93C143.64,-63.03 99.07,-46.16 61,-31 59.36,-30.35 57.68,-29.67 55.99,-28.99"/>
<polygon fill="midnightblue" stroke="midnightblue" points="56.9,-25.58 46.32,-25.03 54.25,-32.06 56.9,-25.58"/>
</g>
<!-- Node9&#45;&gt;Node10 -->
<g id="edge9" class="edge">
<title>Node9&#45;&gt;Node10</title>
<path fill="none" stroke="midnightblue" d="M511.02,-72.94C517.3,-70.61 524.34,-68.35 531,-67 826.72,-6.93 914.38,-96.26 1209,-31 1211.84,-30.37 1214.74,-29.54 1217.61,-28.6"/>
<polygon fill="midnightblue" stroke="midnightblue" points="1218.91,-31.85 1227.06,-25.08 1216.47,-25.29 1218.91,-31.85"/>
</g>
<!-- Node11 -->
<g id="node11" class="node">
<title>Node11</title>
<g id="a_node11"><a xlink:title=" ">
<polygon fill="none" stroke="#bfbfbf" points="70.5,-6 70.5,-25 111.5,-25 111.5,-6 70.5,-6"/>
<text text-anchor="middle" x="91" y="-13" font-family="Helvetica,sans-Serif" font-size="10.00">tuple</text>
</a>
</g>
</g>
<!-- Node9&#45;&gt;Node11 -->
<g id="edge10" class="edge">
<title>Node9&#45;&gt;Node11</title>
<path fill="none" stroke="midnightblue" d="M473.17,-72.96C467.76,-70.69 461.74,-68.46 456,-67 310.91,-29.97 264.97,-72.19 121,-31 119.12,-30.46 117.22,-29.82 115.33,-29.1"/>
<polygon fill="midnightblue" stroke="midnightblue" points="116.73,-25.89 106.17,-25.08 113.92,-32.3 116.73,-25.89"/>
</g>
<!-- Node12&#45;&gt;Node10 -->
<g id="edge20" class="edge">
<title>Node12&#45;&gt;Node10</title>
<path fill="none" stroke="midnightblue" d="M639.58,-72.96C650.62,-70.72 662.75,-68.5 674,-67 910.21,-35.41 976.69,-84.18 1209,-31 1211.83,-30.35 1214.73,-29.51 1217.6,-28.56"/>
<polygon fill="midnightblue" stroke="midnightblue" points="1218.91,-31.81 1227.05,-25.02 1216.45,-25.25 1218.91,-31.81"/>
</g>
<!-- Node13 -->
<g id="node13" class="node">
<title>Node13</title>
<g id="a_node13"><a xlink:title=" ">
<polygon fill="none" stroke="#bfbfbf" points="804.5,-6 804.5,-25 937.5,-25 937.5,-6 804.5,-6"/>
<text text-anchor="middle" x="871" y="-13" font-family="Helvetica,sans-Serif" font-size="10.00">boost/mpl/bool_fwd.hpp</text>
</a>
</g>
</g>
<!-- Node12&#45;&gt;Node13 -->
<g id="edge12" class="edge">
<title>Node12&#45;&gt;Node13</title>
<path fill="none" stroke="midnightblue" d="M637.44,-72.94C685.83,-61.24 772.59,-40.28 825.66,-27.46"/>
<polygon fill="midnightblue" stroke="midnightblue" points="826.58,-30.83 835.48,-25.08 824.94,-24.03 826.58,-30.83"/>
</g>
<!-- Node14 -->
<g id="node14" class="node">
<title>Node14</title>
<g id="a_node14"><a xlink:title=" ">
<polygon fill="none" stroke="#bfbfbf" points="956,-6 956,-25 1080,-25 1080,-6 956,-6"/>
<text text-anchor="middle" x="1018" y="-13" font-family="Helvetica,sans-Serif" font-size="10.00">boost/mpl/greater.hpp</text>
</a>
</g>
</g>
<!-- Node12&#45;&gt;Node14 -->
<g id="edge13" class="edge">
<title>Node12&#45;&gt;Node14</title>
<path fill="none" stroke="midnightblue" d="M641.9,-72.96C652.32,-70.87 663.56,-68.74 674,-67 794.72,-46.91 826.3,-51.26 947,-31 954.08,-29.81 961.53,-28.43 968.84,-27.01"/>
<polygon fill="midnightblue" stroke="midnightblue" points="969.54,-30.44 978.66,-25.05 968.17,-23.57 969.54,-30.44"/>
</g>
<!-- Node15 -->
<g id="node15" class="node">
<title>Node15</title>
<g id="a_node15"><a xlink:title=" ">
<polygon fill="none" stroke="#bfbfbf" points="1098,-6 1098,-25 1200,-25 1200,-6 1098,-6"/>
<text text-anchor="middle" x="1149" y="-13" font-family="Helvetica,sans-Serif" font-size="10.00">boost/mpl/int.hpp</text>
</a>
</g>
</g>
<!-- Node12&#45;&gt;Node15 -->
<g id="edge14" class="edge">
<title>Node12&#45;&gt;Node15</title>
<path fill="none" stroke="midnightblue" d="M640.35,-72.95C651.19,-70.76 663.02,-68.58 674,-67 857.26,-40.68 906.28,-60.83 1089,-31 1094.96,-30.03 1101.21,-28.78 1107.32,-27.42"/>
<polygon fill="midnightblue" stroke="midnightblue" points="1108.47,-30.75 1117.42,-25.07 1106.89,-23.93 1108.47,-30.75"/>
</g>
<!-- Node16 -->
<g id="node16" class="node">
<title>Node16</title>
<g id="a_node16"><a xlink:title=" ">
<polygon fill="none" stroke="#bfbfbf" points="130,-0.5 130,-30.5 236,-30.5 236,-0.5 130,-0.5"/>
<text text-anchor="start" x="138" y="-18.5" font-family="Helvetica,sans-Serif" font-size="10.00">boost/mpl/integral</text>
<text text-anchor="middle" x="183" y="-7.5" font-family="Helvetica,sans-Serif" font-size="10.00">_c_tag.hpp</text>
</a>
</g>
</g>
<!-- Node12&#45;&gt;Node16 -->
<g id="edge15" class="edge">
<title>Node12&#45;&gt;Node16</title>
<path fill="none" stroke="midnightblue" d="M560.43,-72.97C549.57,-70.88 537.87,-68.74 527,-67 405.41,-47.51 371.08,-53.11 245.99,-31.06"/>
<polygon fill="midnightblue" stroke="midnightblue" points="246.49,-27.59 236.03,-29.28 245.25,-34.48 246.49,-27.59"/>
</g>
<!-- Node17 -->
<g id="node17" class="node">
<title>Node17</title>
<g id="a_node17"><a xlink:title=" ">
<polygon fill="none" stroke="#bfbfbf" points="254.5,-0.5 254.5,-30.5 405.5,-30.5 405.5,-0.5 254.5,-0.5"/>
<text text-anchor="start" x="262.5" y="-18.5" font-family="Helvetica,sans-Serif" font-size="10.00">boost/serialization</text>
<text text-anchor="middle" x="330" y="-7.5" font-family="Helvetica,sans-Serif" font-size="10.00">/is_bitwise_serializable.hpp</text>
</a>
</g>
</g>
<!-- Node12&#45;&gt;Node17 -->
<g id="edge16" class="edge">
<title>Node12&#45;&gt;Node17</title>
<path fill="none" stroke="midnightblue" d="M566.16,-72.94C523.74,-62.8 452.15,-45.69 398.89,-32.96"/>
<polygon fill="midnightblue" stroke="midnightblue" points="399.37,-29.48 388.83,-30.56 397.74,-36.29 399.37,-29.48"/>
</g>
<!-- Node18 -->
<g id="node18" class="node">
<title>Node18</title>
<g id="a_node18"><a xlink:title=" ">
<polygon fill="none" stroke="#bfbfbf" points="423.5,-0.5 423.5,-30.5 530.5,-30.5 530.5,-0.5 423.5,-0.5"/>
<text text-anchor="start" x="431.5" y="-18.5" font-family="Helvetica,sans-Serif" font-size="10.00">boost/serialization</text>
<text text-anchor="middle" x="477" y="-7.5" font-family="Helvetica,sans-Serif" font-size="10.00">/level.hpp</text>
</a>
</g>
</g>
<!-- Node12&#45;&gt;Node18 -->
<g id="edge17" class="edge">
<title>Node12&#45;&gt;Node18</title>
<path fill="none" stroke="midnightblue" d="M585.4,-72.87C567.11,-63.36 537.13,-47.77 513.32,-35.39"/>
<polygon fill="midnightblue" stroke="midnightblue" points="514.7,-32.16 504.21,-30.65 511.47,-38.37 514.7,-32.16"/>
</g>
<!-- Node19 -->
<g id="node19" class="node">
<title>Node19</title>
<g id="a_node19"><a xlink:title=" ">
<polygon fill="none" stroke="#bfbfbf" points="548.5,-0.5 548.5,-30.5 655.5,-30.5 655.5,-0.5 548.5,-0.5"/>
<text text-anchor="start" x="556.5" y="-18.5" font-family="Helvetica,sans-Serif" font-size="10.00">boost/serialization</text>
<text text-anchor="middle" x="602" y="-7.5" font-family="Helvetica,sans-Serif" font-size="10.00">/tracking.hpp</text>
</a>
</g>
</g>
<!-- Node12&#45;&gt;Node19 -->
<g id="edge18" class="edge">
<title>Node12&#45;&gt;Node19</title>
<path fill="none" stroke="midnightblue" d="M602,-72.73C602,-64.54 602,-51.92 602,-40.71"/>
<polygon fill="midnightblue" stroke="midnightblue" points="605.5,-40.59 602,-30.59 598.5,-40.59 605.5,-40.59"/>
</g>
<!-- Node20 -->
<g id="node20" class="node">
<title>Node20</title>
<g id="a_node20"><a xlink:title=" ">
<polygon fill="none" stroke="#bfbfbf" points="673.5,-0.5 673.5,-30.5 786.5,-30.5 786.5,-0.5 673.5,-0.5"/>
<text text-anchor="start" x="681.5" y="-18.5" font-family="Helvetica,sans-Serif" font-size="10.00">boost/serialization</text>
<text text-anchor="middle" x="730" y="-7.5" font-family="Helvetica,sans-Serif" font-size="10.00">/tracking_enum.hpp</text>
</a>
</g>
</g>
<!-- Node12&#45;&gt;Node20 -->
<g id="edge19" class="edge">
<title>Node12&#45;&gt;Node20</title>
<path fill="none" stroke="midnightblue" d="M619,-72.87C637.81,-63.31 668.7,-47.63 693.13,-35.22"/>
<polygon fill="midnightblue" stroke="midnightblue" points="694.8,-38.3 702.13,-30.65 691.63,-32.06 694.8,-38.3"/>
</g>
<!-- Node34&#45;&gt;Node2 -->
<g id="edge48" class="edge">
<title>Node34&#45;&gt;Node2</title>
<path fill="none" stroke="midnightblue" d="M455.35,-358.34C437.69,-336.86 404.22,-296.17 385.51,-273.43"/>
<polygon fill="midnightblue" stroke="midnightblue" points="388.19,-271.17 379.13,-265.67 382.78,-275.62 388.19,-271.17"/>
</g>
<!-- Node34&#45;&gt;Node10 -->
<g id="edge51" class="edge">
<title>Node34&#45;&gt;Node10</title>
<path fill="none" stroke="midnightblue" d="M552.18,-368.73C754.85,-358.62 1249,-326.82 1249,-257 1249,-257 1249,-257 1249,-143 1249,-104.68 1247.14,-59.87 1245.96,-35.19"/>
<polygon fill="midnightblue" stroke="midnightblue" points="1249.45,-34.9 1245.46,-25.09 1242.46,-35.25 1249.45,-34.9"/>
</g>
<!-- Node34&#45;&gt;Node32 -->
<g id="edge52" class="edge">
<title>Node34&#45;&gt;Node32</title>
<path fill="none" stroke="midnightblue" d="M381.96,-360.72C344.81,-353.2 301.67,-341.13 266,-322 215.08,-294.7 168.27,-243.63 146.24,-217.43"/>
<polygon fill="midnightblue" stroke="midnightblue" points="148.82,-215.05 139.75,-209.57 143.42,-219.51 148.82,-215.05"/>
</g>
<!-- Node34&#45;&gt;Node33 -->
<g id="edge53" class="edge">
<title>Node34&#45;&gt;Node33</title>
<path fill="none" stroke="midnightblue" d="M552.3,-365.85C613.48,-359.11 688.43,-346.1 708,-322 734.11,-289.85 698.23,-241.71 675.74,-216.96"/>
<polygon fill="midnightblue" stroke="midnightblue" points="678.14,-214.4 668.73,-209.52 673.04,-219.2 678.14,-214.4"/>
</g>
<!-- Node35 -->
<g id="node35" class="node">
<title>Node35</title>
<g id="a_node35"><a xlink:href="PoissonSolver_8hpp.html" target="_top" xlink:title=" ">
<polygon fill="none" stroke="black" points="275.5,-302.5 275.5,-321.5 380.5,-321.5 380.5,-302.5 275.5,-302.5"/>
<text text-anchor="middle" x="328" y="-309.5" font-family="Helvetica,sans-Serif" font-size="10.00">PoissonSolver.hpp</text>
</a>
</g>
</g>
<!-- Node34&#45;&gt;Node35 -->
<g id="edge43" class="edge">
<title>Node34&#45;&gt;Node35</title>
<path fill="none" stroke="midnightblue" d="M434.06,-358.4C410.84,-348.46 380.01,-335.26 357.58,-325.66"/>
<polygon fill="midnightblue" stroke="midnightblue" points="358.8,-322.38 348.23,-321.66 356.04,-328.81 358.8,-322.38"/>
</g>
<!-- Node36 -->
<g id="node36" class="node">
<title>Node36</title>
<g id="a_node36"><a xlink:title=" ">
<polygon fill="none" stroke="#bfbfbf" points="583,-302.5 583,-321.5 699,-321.5 699,-302.5 583,-302.5"/>
<text text-anchor="middle" x="641" y="-309.5" font-family="Helvetica,sans-Serif" font-size="10.00">field/AddToStorage.h</text>
</a>
</g>
</g>
<!-- Node34&#45;&gt;Node36 -->
<g id="edge49" class="edge">
<title>Node34&#45;&gt;Node36</title>
<path fill="none" stroke="midnightblue" d="M508.24,-358.4C538.17,-348.16 578.21,-334.47 606.47,-324.81"/>
<polygon fill="midnightblue" stroke="midnightblue" points="607.61,-328.12 615.94,-321.57 605.34,-321.49 607.61,-328.12"/>
</g>
<!-- Node37 -->
<g id="node37" class="node">
<title>Node37</title>
<g id="a_node37"><a xlink:title=" ">
<polygon fill="none" stroke="#bfbfbf" points="437,-302.5 437,-321.5 565,-321.5 565,-302.5 437,-302.5"/>
<text text-anchor="middle" x="501" y="-309.5" font-family="Helvetica,sans-Serif" font-size="10.00">field/GhostLayerField.h</text>
</a>
</g>
</g>
<!-- Node34&#45;&gt;Node37 -->
<g id="edge50" class="edge">
<title>Node34&#45;&gt;Node37</title>
<path fill="none" stroke="midnightblue" d="M475.06,-358.4C479.85,-350.02 485.96,-339.33 491.04,-330.42"/>
<polygon fill="midnightblue" stroke="midnightblue" points="494.13,-332.08 496.05,-321.66 488.05,-328.6 494.13,-332.08"/>
</g>
<!-- Node35&#45;&gt;Node2 -->
<g id="edge44" class="edge">
<title>Node35&#45;&gt;Node2</title>
<path fill="none" stroke="midnightblue" d="M335.27,-302.08C341.54,-294.38 350.79,-283.03 358.43,-273.65"/>
<polygon fill="midnightblue" stroke="midnightblue" points="361.27,-275.71 364.87,-265.75 355.84,-271.29 361.27,-275.71"/>
</g>
<!-- Node35&#45;&gt;Node10 -->
<g id="edge45" class="edge">
<title>Node35&#45;&gt;Node10</title>
<path fill="none" stroke="midnightblue" d="M380.59,-305.84C570.68,-287.02 1211,-222.05 1211,-201 1211,-201 1211,-201 1211,-143 1211,-103.18 1226.9,-58.66 1236.96,-34.49"/>
<polygon fill="midnightblue" stroke="midnightblue" points="1240.23,-35.75 1240.97,-25.18 1233.8,-32.98 1240.23,-35.75"/>
</g>
<!-- Node35&#45;&gt;Node32 -->
<g id="edge46" class="edge">
<title>Node35&#45;&gt;Node32</title>
<path fill="none" stroke="midnightblue" d="M314.97,-302.4C295.34,-289.57 256.89,-264.91 223,-246 202.53,-234.58 178.8,-222.77 160.85,-214.12"/>
<polygon fill="midnightblue" stroke="midnightblue" points="162.06,-210.82 151.52,-209.66 159.03,-217.13 162.06,-210.82"/>
</g>
<!-- Node35&#45;&gt;Node33 -->
<g id="edge47" class="edge">
<title>Node35&#45;&gt;Node33</title>
<path fill="none" stroke="midnightblue" d="M358.02,-302.49C388.41,-293.76 436.67,-279.57 478,-266 530.89,-248.64 591.66,-226.48 627.89,-213.03"/>
<polygon fill="midnightblue" stroke="midnightblue" points="629.28,-216.25 637.43,-209.48 626.84,-209.69 629.28,-216.25"/>
</g>
<!-- Node38&#45;&gt;Node2 -->
<g id="edge55" class="edge">
<title>Node38&#45;&gt;Node2</title>
<path fill="none" stroke="midnightblue" d="M246.5,-358.36C247.77,-342.78 252.03,-317.84 266,-302 280.14,-285.97 300.97,-275.48 320.42,-268.7"/>
<polygon fill="midnightblue" stroke="midnightblue" points="321.68,-271.97 330.12,-265.57 319.53,-265.31 321.68,-271.97"/>
</g>
<!-- Node38&#45;&gt;Node32 -->
<g id="edge57" class="edge">
<title>Node38&#45;&gt;Node32</title>
<path fill="none" stroke="midnightblue" d="M229.01,-358.2C218.37,-348.68 204.86,-335.47 195,-322 170.47,-288.49 150.37,-243.88 140.2,-219.26"/>
<polygon fill="midnightblue" stroke="midnightblue" points="143.34,-217.71 136.35,-209.74 136.85,-220.33 143.34,-217.71"/>
</g>
<!-- Node38&#45;&gt;Node35 -->
<g id="edge56" class="edge">
<title>Node38&#45;&gt;Node35</title>
<path fill="none" stroke="midnightblue" d="M265.43,-358.4C278.21,-349.13 294.89,-337.03 307.81,-327.65"/>
<polygon fill="midnightblue" stroke="midnightblue" points="310.03,-330.36 316.07,-321.66 305.92,-324.7 310.03,-330.36"/>
</g>
</g>
</svg>
