<?xml version="1.0" encoding="UTF-8" standalone="no"?>
<!DOCTYPE svg PUBLIC "-//W3C//DTD SVG 1.1//EN"
 "http://www.w3.org/Graphics/SVG/1.1/DTD/svg11.dtd">
<!-- Generated by graphviz version 2.43.0 (0)
 -->
<!-- Title: ek_walberla_init.hpp Pages: 1 -->
<!--zoomable 258 -->

<svg id="main" version="1.1" xmlns="http://www.w3.org/2000/svg" xmlns:xlink="http://www.w3.org/1999/xlink" xml:space="preserve" onload="init(evt)">
<style type="text/css"><![CDATA[
.node, .edge {opacity: 0.7;}
.node.selected, .edge.selected {opacity: 1;}
.edge:hover path { stroke: red; }
.edge:hover polygon { stroke: red; fill: red; }
]]></style>

<defs>
  <circle id="rim" cx="0" cy="0" r="7"/>
  <circle id="rim2" cx="0" cy="0" r="3.5"/>
  <g id="zoomPlus">
    <use xlink:href="#rim" fill="#404040"><set attributeName="fill" to="#808080" begin="zoomplus.mouseover" end="zoomplus.mouseout"/></use>
    <path d="M-4,0h8M0,-4v8" fill="none" stroke="white" stroke-width="1.5" pointer-events="none"/>
  </g>
  <g id="zoomMin">
    <use xlink:href="#rim" fill="#404040"><set attributeName="fill" to="#808080" begin="zoomminus.mouseover" end="zoomminus.mouseout"/></use>
    <path d="M-4,0h8" fill="none" stroke="white" stroke-width="1.5" pointer-events="none"/>
  </g>
  <g id="arrowUp" transform="translate(30 24)">
    <use xlink:href="#rim"/>
    <path pointer-events="none" fill="none" stroke="white" stroke-width="1.5" d="M0,-3.0v7 M-2.5,-0.5L0,-3.0L2.5,-0.5"/>
  </g>
  <g id="arrowRight" transform="rotate(90) translate(36 -43)">
    <use xlink:href="#rim"/>
    <path pointer-events="none" fill="none" stroke="white" stroke-width="1.5" d="M0,-3.0v7 M-2.5,-0.5L0,-3.0L2.5,-0.5"/>
  </g>
  <g id="arrowDown" transform="rotate(180) translate(-30 -48)">
    <use xlink:href="#rim"/>
    <path pointer-events="none" fill="none" stroke="white" stroke-width="1.5" d="M0,-3.0v7 M-2.5,-0.5L0,-3.0L2.5,-0.5"/>
  </g>
  <g id="arrowLeft" transform="rotate(270) translate(-36 17)">
    <use xlink:href="#rim"/>
    <path pointer-events="none" fill="none" stroke="white" stroke-width="1.5" d="M0,-3.0v7 M-2.5,-0.5L0,-3.0L2.5,-0.5"/>
  </g>
  <g id="resetDef">
    <use xlink:href="#rim2" fill="#404040"><set attributeName="fill" to="#808080" begin="reset.mouseover" end="reset.mouseout"/></use>
  </g>
</defs>
<script type="application/ecmascript">
var viewWidth = 1158;
var viewHeight = 258;
var sectionId = 'dynsection-1';
</script>
<script type="application/ecmascript" xlink:href="svg.min.js"/>
<svg id="graph" class="graph">
<g id="viewport">
<title>ek_walberla_init.hpp</title>
<!-- Node1 -->
<g id="Node000001" class="node">
<title>Node1</title>
<g id="a_Node000001"><a xlink:title=" ">
<polygon fill="#999999" stroke="#666666" points="531,-250 413,-250 413,-231 531,-231 531,-250"/>
<text text-anchor="middle" x="472" y="-238" font-family="Helvetica,sans-Serif" font-size="10.00">ek_walberla_init.hpp</text>
</a>
</g>
</g>
<!-- Node2 -->
<g id="Node000002" class="node">
<title>Node2</title>
<g id="a_Node000002"><a xlink:href="EKFFT_8hpp.html" target="_top" xlink:title=" ">
<polygon fill="white" stroke="#666666" points="174.5,-189.5 107.5,-189.5 107.5,-170.5 174.5,-170.5 174.5,-189.5"/>
<text text-anchor="middle" x="141" y="-177.5" font-family="Helvetica,sans-Serif" font-size="10.00">EKFFT.hpp</text>
</a>
</g>
</g>
<!-- Node1&#45;&gt;Node2 -->
<g id="edge1_Node000001_Node000002" class="edge">
<title>Node1&#45;&gt;Node2</title>
<g id="a_edge1_Node000001_Node000002"><a xlink:title=" ">
<path fill="none" stroke="#63b8ff" d="M409.77,-229.3C357.05,-220.55 279.49,-207.43 212,-195 199.77,-192.75 186.38,-190.14 174.56,-187.8"/>
<polygon fill="#63b8ff" stroke="#63b8ff" points="409.2,-232.76 419.64,-230.94 410.35,-225.85 409.2,-232.76"/>
</a>
</g>
</g>
<!-- Node5 -->
<g id="Node000005" class="node">
<title>Node5</title>
<g id="a_Node000005"><a xlink:href="EKFFT__GPU_8hpp.html" target="_top" xlink:title=" ">
<polygon fill="white" stroke="#666666" points="94,-129 0,-129 0,-110 94,-110 94,-129"/>
<text text-anchor="middle" x="47" y="-117" font-family="Helvetica,sans-Serif" font-size="10.00">EKFFT_GPU.hpp</text>
</a>
</g>
</g>
<!-- Node1&#45;&gt;Node5 -->
<g id="edge8_Node000001_Node000005" class="edge">
<title>Node1&#45;&gt;Node5</title>
<g id="a_edge8_Node000001_Node000005"><a xlink:title=" ">
<path fill="none" stroke="#63b8ff" d="M402.6,-238.01C308.85,-234.86 147.73,-225.12 98,-195 72.26,-179.41 56.44,-145.3 50.14,-129.22"/>
<polygon fill="#63b8ff" stroke="#63b8ff" points="402.74,-241.52 412.85,-238.34 402.96,-234.52 402.74,-241.52"/>
</a>
</g>
</g>
<!-- Node6 -->
<g id="Node000006" class="node">
<title>Node6</title>
<g id="a_Node000006"><a xlink:href="script__interface_2walberla_2EKNone_8hpp.html" target="_top" xlink:title=" ">
<polygon fill="white" stroke="#666666" points="264,-129 188,-129 188,-110 264,-110 264,-129"/>
<text text-anchor="middle" x="226" y="-117" font-family="Helvetica,sans-Serif" font-size="10.00">EKNone.hpp</text>
</a>
</g>
</g>
<!-- Node1&#45;&gt;Node6 -->
<g id="edge9_Node000001_Node000006" class="edge">
<title>Node1&#45;&gt;Node6</title>
<g id="a_edge9_Node000001_Node000006"><a xlink:title=" ">
<path fill="none" stroke="#63b8ff" d="M402.51,-233.97C344.34,-227.92 267.37,-216.15 245,-195 226.57,-177.58 225.03,-144.98 225.46,-129.33"/>
<polygon fill="#63b8ff" stroke="#63b8ff" points="402.47,-237.48 412.77,-235 403.16,-230.52 402.47,-237.48"/>
</a>
</g>
</g>
<!-- Node7 -->
<g id="Node000007" class="node">
<title>Node7</title>
<g id="a_Node000007"><a xlink:href="EKReaction_8hpp.html" target="_top" xlink:title=" ">
<polygon fill="white" stroke="#666666" points="347.5,-189.5 254.5,-189.5 254.5,-170.5 347.5,-170.5 347.5,-189.5"/>
<text text-anchor="middle" x="301" y="-177.5" font-family="Helvetica,sans-Serif" font-size="10.00">EKReaction.hpp</text>
</a>
</g>
</g>
<!-- Node1&#45;&gt;Node7 -->
<g id="edge12_Node000001_Node000007" class="edge">
<title>Node1&#45;&gt;Node7</title>
<g id="a_edge12_Node000001_Node000007"><a xlink:title=" ">
<path fill="none" stroke="#63b8ff" d="M437.42,-227.67C404.35,-216.36 355.29,-199.57 325.89,-189.52"/>
<polygon fill="#63b8ff" stroke="#63b8ff" points="436.54,-231.07 447.14,-230.99 438.81,-224.45 436.54,-231.07"/>
</a>
</g>
</g>
<!-- Node9 -->
<g id="Node000009" class="node">
<title>Node9</title>
<g id="a_Node000009"><a xlink:href="EKSpecies_8cpp.html" target="_top" xlink:title=" ">
<polygon fill="white" stroke="#666666" points="452.5,-189.5 365.5,-189.5 365.5,-170.5 452.5,-170.5 452.5,-189.5"/>
<text text-anchor="middle" x="409" y="-177.5" font-family="Helvetica,sans-Serif" font-size="10.00">EKSpecies.cpp</text>
</a>
</g>
</g>
<!-- Node1&#45;&gt;Node9 -->
<g id="edge17_Node000001_Node000009" class="edge">
<title>Node1&#45;&gt;Node9</title>
<g id="a_edge17_Node000001_Node000009"><a xlink:title=" ">
<path fill="none" stroke="#63b8ff" d="M455.21,-223.91C443.4,-212.94 428.03,-198.67 418.33,-189.67"/>
<polygon fill="#63b8ff" stroke="#63b8ff" points="452.99,-226.63 462.7,-230.87 457.76,-221.5 452.99,-226.63"/>
</a>
</g>
</g>
<!-- Node10 -->
<g id="Node000010" class="node">
<title>Node10</title>
<g id="a_Node000010"><a xlink:href="ek__poisson__fft__init_8cpp.html" target="_top" xlink:title=" ">
<polygon fill="white" stroke="#666666" points="599,-189.5 471,-189.5 471,-170.5 599,-170.5 599,-189.5"/>
<text text-anchor="middle" x="535" y="-177.5" font-family="Helvetica,sans-Serif" font-size="10.00">ek_poisson_fft_init.cpp</text>
</a>
</g>
</g>
<!-- Node1&#45;&gt;Node10 -->
<g id="edge18_Node000001_Node000010" class="edge">
<title>Node1&#45;&gt;Node10</title>
<g id="a_edge18_Node000001_Node000010"><a xlink:title=" ">
<path fill="none" stroke="#63b8ff" d="M488.79,-223.91C500.6,-212.94 515.97,-198.67 525.67,-189.67"/>
<polygon fill="#63b8ff" stroke="#63b8ff" points="486.24,-221.5 481.3,-230.87 491.01,-226.63 486.24,-221.5"/>
</a>
</g>
</g>
<!-- Node11 -->
<g id="Node000011" class="node">
<title>Node11</title>
<g id="a_Node000011"><a xlink:href="ek__poisson__fft__init__cuda_8cu.html" target="_top" xlink:title=" ">
<polygon fill="white" stroke="#666666" points="725,-195 617,-195 617,-165 725,-165 725,-195"/>
<text text-anchor="start" x="625" y="-183" font-family="Helvetica,sans-Serif" font-size="10.00">ek_poisson_fft_init</text>
<text text-anchor="middle" x="671" y="-172" font-family="Helvetica,sans-Serif" font-size="10.00">_cuda.cu</text>
</a>
</g>
</g>
<!-- Node1&#45;&gt;Node11 -->
<g id="edge19_Node000001_Node000011" class="edge">
<title>Node1&#45;&gt;Node11</title>
<g id="a_edge19_Node000001_Node000011"><a xlink:title=" ">
<path fill="none" stroke="#63b8ff" d="M510.86,-228.08C542.99,-218.63 588.77,-205.17 623.16,-195.06"/>
<polygon fill="#63b8ff" stroke="#63b8ff" points="509.54,-224.82 500.94,-230.99 511.52,-231.53 509.54,-224.82"/>
</a>
</g>
</g>
<!-- Node12 -->
<g id="Node000012" class="node">
<title>Node12</title>
<g id="a_Node000012"><a xlink:href="ek__poisson__none__init_8cpp.html" target="_top" xlink:title=" ">
<polygon fill="white" stroke="#666666" points="885,-189.5 743,-189.5 743,-170.5 885,-170.5 885,-189.5"/>
<text text-anchor="middle" x="814" y="-177.5" font-family="Helvetica,sans-Serif" font-size="10.00">ek_poisson_none_init.cpp</text>
</a>
</g>
</g>
<!-- Node1&#45;&gt;Node12 -->
<g id="edge20_Node000001_Node000012" class="edge">
<title>Node1&#45;&gt;Node12</title>
<g id="a_edge20_Node000001_Node000012"><a xlink:title=" ">
<path fill="none" stroke="#63b8ff" d="M532.66,-229.29C585.77,-220.32 665.02,-206.89 734,-195 744.14,-193.25 755.01,-191.36 765.36,-189.55"/>
<polygon fill="#63b8ff" stroke="#63b8ff" points="532.01,-225.85 522.73,-230.96 533.17,-232.75 532.01,-225.85"/>
</a>
</g>
</g>
<!-- Node13 -->
<g id="Node000013" class="node">
<title>Node13</title>
<g id="a_Node000013"><a xlink:href="ek__walberla__init_8cpp.html" target="_top" xlink:title=" ">
<polygon fill="white" stroke="#666666" points="1020.5,-189.5 903.5,-189.5 903.5,-170.5 1020.5,-170.5 1020.5,-189.5"/>
<text text-anchor="middle" x="962" y="-177.5" font-family="Helvetica,sans-Serif" font-size="10.00">ek_walberla_init.cpp</text>
</a>
</g>
</g>
<!-- Node1&#45;&gt;Node13 -->
<g id="edge21_Node000001_Node000013" class="edge">
<title>Node1&#45;&gt;Node13</title>
<g id="a_edge21_Node000001_Node000013"><a xlink:title=" ">
<path fill="none" stroke="#63b8ff" d="M541.46,-234.28C625.32,-227.48 770.48,-214.18 894,-195 903.77,-193.48 914.25,-191.5 924,-189.51"/>
<polygon fill="#63b8ff" stroke="#63b8ff" points="540.98,-230.8 531.29,-235.09 541.54,-237.78 540.98,-230.8"/>
</a>
</g>
</g>
<!-- Node14 -->
<g id="Node000014" class="node">
<title>Node14</title>
<g id="a_Node000014"><a xlink:href="ek__walberla__init_8cu.html" target="_top" xlink:title=" ">
<polygon fill="white" stroke="#666666" points="1149.5,-189.5 1038.5,-189.5 1038.5,-170.5 1149.5,-170.5 1149.5,-189.5"/>
<text text-anchor="middle" x="1094" y="-177.5" font-family="Helvetica,sans-Serif" font-size="10.00">ek_walberla_init.cu</text>
</a>
</g>
</g>
<!-- Node1&#45;&gt;Node14 -->
<g id="edge22_Node000001_Node000014" class="edge">
<title>Node1&#45;&gt;Node14</title>
<g id="a_edge22_Node000001_Node000014"><a xlink:title=" ">
<path fill="none" stroke="#63b8ff" d="M541.59,-236.99C647.51,-232.48 855.34,-220.95 1030,-195 1039.45,-193.6 1049.59,-191.61 1058.95,-189.57"/>
<polygon fill="#63b8ff" stroke="#63b8ff" points="541.2,-233.5 531.35,-237.41 541.49,-240.49 541.2,-233.5"/>
</a>
</g>
</g>
<!-- Node3 -->
<g id="Node000003" class="node">
<title>Node3</title>
<g id="a_Node000003"><a xlink:href="script__interface_2walberla_2EKContainer_8hpp.html" target="_top" xlink:title=" ">
<polygon fill="white" stroke="#666666" points="246,-74 150,-74 150,-55 246,-55 246,-74"/>
<text text-anchor="middle" x="198" y="-62" font-family="Helvetica,sans-Serif" font-size="10.00">EKContainer.hpp</text>
</a>
</g>
</g>
<!-- Node2&#45;&gt;Node3 -->
<g id="edge2_Node000002_Node000003" class="edge">
<title>Node2&#45;&gt;Node3</title>
<g id="a_edge2_Node000002_Node000003"><a xlink:title=" ">
<path fill="none" stroke="#63b8ff" d="M149.79,-161.49C162.19,-136.8 184.34,-92.71 193.67,-74.13"/>
<polygon fill="#63b8ff" stroke="#63b8ff" points="146.64,-159.96 145.28,-170.47 152.9,-163.1 146.64,-159.96"/>
</a>
</g>
</g>
<!-- Node4 -->
<g id="Node000004" class="node">
<title>Node4</title>
<g id="a_Node000004"><a xlink:href="walberla_2initialize_8cpp.html" target="_top" xlink:title=" ">
<polygon fill="white" stroke="#666666" points="275.5,-19 196.5,-19 196.5,0 275.5,0 275.5,-19"/>
<text text-anchor="middle" x="236" y="-7" font-family="Helvetica,sans-Serif" font-size="10.00">initialize.cpp</text>
</a>
</g>
</g>
<!-- Node2&#45;&gt;Node4 -->
<g id="edge7_Node000002_Node000004" class="edge">
<title>Node2&#45;&gt;Node4</title>
<g id="a_edge7_Node000002_Node000004"><a xlink:title=" ">
<path fill="none" stroke="#63b8ff" d="M135.24,-160.36C128.44,-134.5 120.47,-87.28 141,-55 153.22,-35.79 176.15,-24.73 196.43,-18.44"/>
<polygon fill="#63b8ff" stroke="#63b8ff" points="131.97,-161.66 138.08,-170.32 138.7,-159.74 131.97,-161.66"/>
</a>
</g>
</g>
<!-- Node2&#45;&gt;Node5 -->
<g id="edge4_Node000002_Node000005" class="edge">
<title>Node2&#45;&gt;Node5</title>
<g id="a_edge4_Node000002_Node000005"><a xlink:title=" ">
<path fill="none" stroke="#63b8ff" d="M118.45,-164.97C100.55,-153.82 76.08,-138.6 60.93,-129.17"/>
<polygon fill="#63b8ff" stroke="#63b8ff" points="116.79,-168.06 127.13,-170.37 120.49,-162.11 116.79,-168.06"/>
</a>
</g>
</g>
<!-- Node3&#45;&gt;Node4 -->
<g id="edge3_Node000003_Node000004" class="edge">
<title>Node3&#45;&gt;Node4</title>
<g id="a_edge3_Node000003_Node000004"><a xlink:title=" ">
<path fill="none" stroke="#63b8ff" d="M210.27,-46.39C216.81,-37.27 224.57,-26.45 229.84,-19.09"/>
<polygon fill="#63b8ff" stroke="#63b8ff" points="207.26,-44.58 204.27,-54.75 212.95,-48.66 207.26,-44.58"/>
</a>
</g>
</g>
<!-- Node5&#45;&gt;Node3 -->
<g id="edge5_Node000005_Node000003" class="edge">
<title>Node5&#45;&gt;Node3</title>
<g id="a_edge5_Node000005_Node000003"><a xlink:title=" ">
<path fill="none" stroke="#63b8ff" d="M81.05,-106.55C109.09,-96.71 148.18,-82.98 173.3,-74.17"/>
<polygon fill="#63b8ff" stroke="#63b8ff" points="79.54,-103.37 71.26,-109.98 81.86,-109.98 79.54,-103.37"/>
</a>
</g>
</g>
<!-- Node5&#45;&gt;Node4 -->
<g id="edge6_Node000005_Node000004" class="edge">
<title>Node5&#45;&gt;Node4</title>
<g id="a_edge6_Node000005_Node000004"><a xlink:title=" ">
<path fill="none" stroke="#63b8ff" d="M59.25,-101.89C70.51,-87.67 88.39,-67.57 108,-55 135.23,-37.54 170.14,-26 196.62,-19.06"/>
<polygon fill="#63b8ff" stroke="#63b8ff" points="56.45,-99.79 53.14,-109.86 62,-104.05 56.45,-99.79"/>
</a>
</g>
</g>
<!-- Node6&#45;&gt;Node3 -->
<g id="edge10_Node000006_Node000003" class="edge">
<title>Node6&#45;&gt;Node3</title>
<g id="a_edge10_Node000006_Node000003"><a xlink:title=" ">
<path fill="none" stroke="#63b8ff" d="M216.66,-100.82C211.91,-91.82 206.34,-81.29 202.54,-74.09"/>
<polygon fill="#63b8ff" stroke="#63b8ff" points="213.61,-102.54 221.38,-109.75 219.8,-99.27 213.61,-102.54"/>
</a>
</g>
</g>
<!-- Node6&#45;&gt;Node4 -->
<g id="edge11_Node000006_Node000004" class="edge">
<title>Node6&#45;&gt;Node4</title>
<g id="a_edge11_Node000006_Node000004"><a xlink:title=" ">
<path fill="none" stroke="#63b8ff" d="M240.21,-101.78C246,-93.89 252.02,-84.02 255,-74 260.83,-54.37 249.37,-31.34 241.84,-19.12"/>
<polygon fill="#63b8ff" stroke="#63b8ff" points="237.37,-99.72 233.94,-109.75 242.87,-104.05 237.37,-99.72"/>
</a>
</g>
</g>
<!-- Node7&#45;&gt;Node4 -->
<g id="edge16_Node000007_Node000004" class="edge">
<title>Node7&#45;&gt;Node4</title>
<g id="a_edge16_Node000007_Node000004"><a xlink:title=" ">
<path fill="none" stroke="#63b8ff" d="M339.71,-166.94C369.39,-155.41 403.08,-135.95 389,-110 362.33,-60.84 299.71,-32.17 263.39,-19.11"/>
<polygon fill="#63b8ff" stroke="#63b8ff" points="338.46,-163.67 330.28,-170.41 340.88,-170.24 338.46,-163.67"/>
</a>
</g>
</g>
<!-- Node8 -->
<g id="Node000008" class="node">
<title>Node8</title>
<g id="a_Node000008"><a xlink:href="script__interface_2walberla_2EKReactions_8hpp.html" target="_top" xlink:title=" ">
<polygon fill="white" stroke="#666666" points="380,-129 282,-129 282,-110 380,-110 380,-129"/>
<text text-anchor="middle" x="331" y="-117" font-family="Helvetica,sans-Serif" font-size="10.00">EKReactions.hpp</text>
</a>
</g>
</g>
<!-- Node7&#45;&gt;Node8 -->
<g id="edge13_Node000007_Node000008" class="edge">
<title>Node7&#45;&gt;Node8</title>
<g id="a_edge13_Node000007_Node000008"><a xlink:title=" ">
<path fill="none" stroke="#63b8ff" d="M310.15,-161.15C315.59,-150.54 322.25,-137.56 326.56,-129.17"/>
<polygon fill="#63b8ff" stroke="#63b8ff" points="306.88,-159.87 305.43,-170.37 313.1,-163.07 306.88,-159.87"/>
</a>
</g>
</g>
<!-- Node8&#45;&gt;Node3 -->
<g id="edge14_Node000008_Node000003" class="edge">
<title>Node8&#45;&gt;Node3</title>
<g id="a_edge14_Node000008_Node000003"><a xlink:title=" ">
<path fill="none" stroke="#63b8ff" d="M300.03,-106.16C275.41,-96.35 241.59,-82.87 219.76,-74.17"/>
<polygon fill="#63b8ff" stroke="#63b8ff" points="299.05,-109.53 309.63,-109.98 301.64,-103.03 299.05,-109.53"/>
</a>
</g>
</g>
<!-- Node8&#45;&gt;Node4 -->
<g id="edge15_Node000008_Node000004" class="edge">
<title>Node8&#45;&gt;Node4</title>
<g id="a_edge15_Node000008_Node000004"><a xlink:title=" ">
<path fill="none" stroke="#63b8ff" d="M316.48,-102C296.02,-78.73 259.42,-37.13 243.62,-19.16"/>
<polygon fill="#63b8ff" stroke="#63b8ff" points="313.99,-104.47 323.23,-109.66 319.25,-99.84 313.99,-104.47"/>
</a>
</g>
</g>
</g>
</svg>

<g id="navigator" transform="translate(0 0)" fill="#404254">
  <rect fill="#f2f5e9" fill-opacity="0.5" stroke="#606060" stroke-width=".5" x="0" y="0" width="60" height="60"/>
  <use id="zoomplus" xlink:href="#zoomPlus" x="17" y="9" onmousedown="handleZoom(evt,'in')"/>
  <use id="zoomminus" xlink:href="#zoomMin" x="42" y="9" onmousedown="handleZoom(evt,'out')"/>
  <use id="reset" xlink:href="#resetDef" x="30" y="36" onmousedown="handleReset()"/>
   <use id="arrowup" xlink:href="#arrowUp" x="0" y="0" onmousedown="handlePan(0,-1)"/>
  <use id="arrowright" xlink:href="#arrowRight" x="0" y="0" onmousedown="handlePan(1,0)"/>
  <use id="arrowdown" xlink:href="#arrowDown" x="0" y="0" onmousedown="handlePan(0,1)"/>
  <use id="arrowleft" xlink:href="#arrowLeft" x="0" y="0" onmousedown="handlePan(-1,0)"/>
</g>
<svg viewBox="0 0 15 15" width="100%" height="30px" preserveAspectRatio="xMaxYMin meet">
 <g id="arrow_out" transform="scale(0.3 0.3)">
  <a xlink:href="ek__walberla__init_8hpp__dep__incl_org.svg" target="_base">
   <rect id="button" ry="5" rx="5" y="6" x="6" height="38" width="38"
        fill="#f2f5e9" fill-opacity="0.5" stroke="#606060" stroke-width="1.0"/>
   <path id="arrow"
     d="M 11.500037,31.436501 C 11.940474,20.09759 22.043105,11.32322 32.158766,21.979434 L 37.068811,17.246167 C 37.068811,17.246167 37.088388,32 37.088388,32 L 22.160133,31.978069 C 22.160133,31.978069 26.997745,27.140456 26.997745,27.140456 C 18.528582,18.264221 13.291696,25.230495 11.500037,31.436501 z"
     style="fill:#404040;"/>
  </a>
 </g>
</svg>

<style type='text/css'>
<![CDATA[
[data-mouse-over-selected='false'] { opacity: 0.7; }
[data-mouse-over-selected='true']  { opacity: 1.0; }
]]>
</style>
<script type="application/ecmascript"><![CDATA[
document.addEventListener('DOMContentLoaded', (event) => {
  highlightEdges();
  highlightAdjacentNodes();
});
]]></script>
</svg>
