<?xml version="1.0" encoding="UTF-8" standalone="no"?>
<!DOCTYPE svg PUBLIC "-//W3C//DTD SVG 1.1//EN"
 "http://www.w3.org/Graphics/SVG/1.1/DTD/svg11.dtd">
<!-- Generated by graphviz version 2.43.0 (0)
 -->
<!-- Title: ek_walberla_init.hpp Pages: 1 -->
<svg width="1944pt" height="654pt"
 viewBox="0.00 0.00 1944.00 654.00" xmlns="http://www.w3.org/2000/svg" xmlns:xlink="http://www.w3.org/1999/xlink">
<g id="graph0" class="graph" transform="scale(1 1) rotate(0) translate(4 650)">
<title>ek_walberla_init.hpp</title>
<!-- Node1 -->
<g id="node1" class="node">
<title>Node1</title>
<g id="a_node1"><a xlink:title=" ">
<polygon fill="#bfbfbf" stroke="black" points="1265,-626.5 1265,-645.5 1383,-645.5 1383,-626.5 1265,-626.5"/>
<text text-anchor="middle" x="1324" y="-633.5" font-family="Helvetica,sans-Serif" font-size="10.00">ek_walberla_init.hpp</text>
</a>
</g>
</g>
<!-- Node2 -->
<g id="node2" class="node">
<title>Node2</title>
<g id="a_node2"><a xlink:href="EKinWalberlaBase_8hpp.html" target="_top" xlink:title=" ">
<polygon fill="none" stroke="black" points="1328,-380.5 1328,-399.5 1454,-399.5 1454,-380.5 1328,-380.5"/>
<text text-anchor="middle" x="1391" y="-387.5" font-family="Helvetica,sans-Serif" font-size="10.00">EKinWalberlaBase.hpp</text>
</a>
</g>
</g>
<!-- Node1&#45;&gt;Node2 -->
<g id="edge1" class="edge">
<title>Node1&#45;&gt;Node2</title>
<path fill="none" stroke="midnightblue" d="M1305.92,-626.39C1292.44,-618.87 1275.03,-606.57 1267,-590 1260.99,-577.6 1262.69,-572.09 1267,-559 1288.25,-494.44 1344.88,-434.33 1373.68,-406.78"/>
<polygon fill="midnightblue" stroke="midnightblue" points="1376.43,-409 1381.33,-399.6 1371.64,-403.89 1376.43,-409"/>
</g>
<!-- Node4 -->
<g id="node4" class="node">
<title>Node4</title>
<g id="a_node4"><a xlink:href="walberla__bridge_2include_2walberla__bridge_2LatticeWalberla_8hpp.html" target="_top" xlink:title=" ">
<polygon fill="none" stroke="black" points="962,-268.5 962,-287.5 1156,-287.5 1156,-268.5 962,-268.5"/>
<text text-anchor="middle" x="1059" y="-275.5" font-family="Helvetica,sans-Serif" font-size="10.00">walberla_bridge/LatticeWalberla.hpp</text>
</a>
</g>
</g>
<!-- Node1&#45;&gt;Node4 -->
<g id="edge65" class="edge">
<title>Node1&#45;&gt;Node4</title>
<path fill="none" stroke="midnightblue" d="M1264.91,-634.61C1179.59,-630.57 1032,-609.05 1032,-508.5 1032,-508.5 1032,-508.5 1032,-389 1032,-355.86 1043.7,-318.68 1051.7,-297.14"/>
<polygon fill="midnightblue" stroke="midnightblue" points="1055.02,-298.25 1055.36,-287.66 1048.49,-295.73 1055.02,-298.25"/>
</g>
<!-- Node5 -->
<g id="node5" class="node">
<title>Node5</title>
<g id="a_node5"><a xlink:href="Vector_8hpp.html" target="_top" xlink:title="Vector implementation and trait types for boost qvm interoperability.">
<polygon fill="none" stroke="black" points="783,-207 783,-226 875,-226 875,-207 783,-207"/>
<text text-anchor="middle" x="829" y="-214" font-family="Helvetica,sans-Serif" font-size="10.00">utils/Vector.hpp</text>
</a>
</g>
</g>
<!-- Node1&#45;&gt;Node5 -->
<g id="edge79" class="edge">
<title>Node1&#45;&gt;Node5</title>
<path fill="none" stroke="midnightblue" d="M1264.58,-630.82C1142.11,-620.57 873,-588.91 873,-508.5 873,-508.5 873,-508.5 873,-333 873,-296.16 853.21,-256.78 840.17,-234.84"/>
<polygon fill="midnightblue" stroke="midnightblue" points="842.98,-232.73 834.75,-226.06 837.02,-236.41 842.98,-232.73"/>
</g>
<!-- Node34 -->
<g id="node34" class="node">
<title>Node34</title>
<g id="a_node34"><a xlink:title=" ">
<polygon fill="none" stroke="#bfbfbf" points="1622,-73 1622,-92 1680,-92 1680,-73 1622,-73"/>
<text text-anchor="middle" x="1651" y="-80" font-family="Helvetica,sans-Serif" font-size="10.00">memory</text>
</a>
</g>
</g>
<!-- Node1&#45;&gt;Node34 -->
<g id="edge80" class="edge">
<title>Node1&#45;&gt;Node34</title>
<path fill="none" stroke="midnightblue" d="M1383.24,-635.21C1536.83,-634.16 1936,-620.66 1936,-508.5 1936,-508.5 1936,-508.5 1936,-215.5 1936,-108.61 1768.89,-88.02 1690.59,-84.24"/>
<polygon fill="midnightblue" stroke="midnightblue" points="1690.3,-80.72 1680.16,-83.81 1690.01,-87.72 1690.3,-80.72"/>
</g>
<!-- Node45 -->
<g id="node45" class="node">
<title>Node45</title>
<g id="a_node45"><a xlink:href="EKReactionBase_8hpp.html" target="_top" xlink:title=" ">
<polygon fill="none" stroke="black" points="1587,-492.5 1587,-522.5 1757,-522.5 1757,-492.5 1587,-492.5"/>
<text text-anchor="start" x="1595" y="-510.5" font-family="Helvetica,sans-Serif" font-size="10.00">walberla_bridge/electrokinetics</text>
<text text-anchor="middle" x="1672" y="-499.5" font-family="Helvetica,sans-Serif" font-size="10.00">/reactions/EKReactionBase.hpp</text>
</a>
</g>
</g>
<!-- Node1&#45;&gt;Node45 -->
<g id="edge66" class="edge">
<title>Node1&#45;&gt;Node45</title>
<path fill="none" stroke="midnightblue" d="M1362.67,-626.44C1396.87,-618.43 1447.88,-605.41 1491,-590 1542.24,-571.69 1599.13,-544.97 1635.2,-527.17"/>
<polygon fill="midnightblue" stroke="midnightblue" points="1636.96,-530.21 1644.36,-522.62 1633.84,-523.94 1636.96,-530.21"/>
</g>
<!-- Node47 -->
<g id="node47" class="node">
<title>Node47</title>
<g id="a_node47"><a xlink:href="EKReactionBaseIndexed_8hpp.html" target="_top" xlink:title=" ">
<polygon fill="none" stroke="black" points="1276,-559.5 1276,-589.5 1482,-589.5 1482,-559.5 1276,-559.5"/>
<text text-anchor="start" x="1284" y="-577.5" font-family="Helvetica,sans-Serif" font-size="10.00">walberla_bridge/electrokinetics</text>
<text text-anchor="middle" x="1379" y="-566.5" font-family="Helvetica,sans-Serif" font-size="10.00">/reactions/EKReactionBaseIndexed.hpp</text>
</a>
</g>
</g>
<!-- Node1&#45;&gt;Node47 -->
<g id="edge75" class="edge">
<title>Node1&#45;&gt;Node47</title>
<path fill="none" stroke="midnightblue" d="M1331.88,-626.48C1338.98,-618.79 1349.72,-607.17 1359.16,-596.96"/>
<polygon fill="midnightblue" stroke="midnightblue" points="1361.82,-599.24 1366.04,-589.52 1356.68,-594.49 1361.82,-599.24"/>
</g>
<!-- Node3 -->
<g id="node3" class="node">
<title>Node3</title>
<g id="a_node3"><a xlink:href="walberla__bridge_2include_2walberla__bridge_2LatticeModel_8hpp.html" target="_top" xlink:title=" ">
<polygon fill="none" stroke="black" points="1300,-324.5 1300,-343.5 1482,-343.5 1482,-324.5 1300,-324.5"/>
<text text-anchor="middle" x="1391" y="-331.5" font-family="Helvetica,sans-Serif" font-size="10.00">walberla_bridge/LatticeModel.hpp</text>
</a>
</g>
</g>
<!-- Node2&#45;&gt;Node3 -->
<g id="edge2" class="edge">
<title>Node2&#45;&gt;Node3</title>
<path fill="none" stroke="midnightblue" d="M1391,-380.08C1391,-373.01 1391,-362.86 1391,-353.99"/>
<polygon fill="midnightblue" stroke="midnightblue" points="1394.5,-353.75 1391,-343.75 1387.5,-353.75 1394.5,-353.75"/>
</g>
<!-- Node2&#45;&gt;Node5 -->
<g id="edge61" class="edge">
<title>Node2&#45;&gt;Node5</title>
<path fill="none" stroke="midnightblue" d="M1327.58,-385.86C1289.64,-381.15 1242.29,-369.99 1208,-344 1177.07,-320.56 1196.97,-289.99 1165,-268 1120.68,-237.51 968.95,-224.83 885.37,-220.06"/>
<polygon fill="midnightblue" stroke="midnightblue" points="885.45,-216.56 875.28,-219.51 885.07,-223.55 885.45,-216.56"/>
</g>
<!-- Node12 -->
<g id="node12" class="node">
<title>Node12</title>
<g id="a_node12"><a xlink:title=" ">
<polygon fill="none" stroke="#bfbfbf" points="1157.5,-6 1157.5,-25 1210.5,-25 1210.5,-6 1157.5,-6"/>
<text text-anchor="middle" x="1184" y="-13" font-family="Helvetica,sans-Serif" font-size="10.00">cstddef</text>
</a>
</g>
</g>
<!-- Node2&#45;&gt;Node12 -->
<g id="edge62" class="edge">
<title>Node2&#45;&gt;Node12</title>
<path fill="none" stroke="midnightblue" d="M1363.07,-380.49C1326.22,-367.49 1263.41,-338.68 1241,-288 1201.07,-197.68 1251.69,-159.83 1218,-67 1213.52,-54.65 1205.38,-42.39 1198.18,-33.04"/>
<polygon fill="midnightblue" stroke="midnightblue" points="1200.74,-30.64 1191.73,-25.07 1195.3,-35.04 1200.74,-30.64"/>
</g>
<!-- Node33 -->
<g id="node33" class="node">
<title>Node33</title>
<g id="a_node33"><a xlink:title=" ">
<polygon fill="none" stroke="#bfbfbf" points="1698.5,-140 1698.5,-159 1745.5,-159 1745.5,-140 1698.5,-140"/>
<text text-anchor="middle" x="1722" y="-147" font-family="Helvetica,sans-Serif" font-size="10.00">vector</text>
</a>
</g>
</g>
<!-- Node2&#45;&gt;Node33 -->
<g id="edge64" class="edge">
<title>Node2&#45;&gt;Node33</title>
<path fill="none" stroke="midnightblue" d="M1449.6,-380.45C1509.27,-368.96 1601.14,-343.19 1660,-288 1695.08,-255.11 1711.73,-198.66 1718.35,-169.37"/>
<polygon fill="midnightblue" stroke="midnightblue" points="1721.84,-169.77 1720.47,-159.26 1714.99,-168.33 1721.84,-169.77"/>
</g>
<!-- Node44 -->
<g id="node44" class="node">
<title>Node44</title>
<g id="a_node44"><a xlink:title=" ">
<polygon fill="none" stroke="#bfbfbf" points="1662,-324.5 1662,-343.5 1718,-343.5 1718,-324.5 1662,-324.5"/>
<text text-anchor="middle" x="1690" y="-331.5" font-family="Helvetica,sans-Serif" font-size="10.00">optional</text>
</a>
</g>
</g>
<!-- Node2&#45;&gt;Node44 -->
<g id="edge63" class="edge">
<title>Node2&#45;&gt;Node44</title>
<path fill="none" stroke="midnightblue" d="M1443.28,-380.44C1495.29,-371.79 1577.3,-357.76 1648,-344 1649.24,-343.76 1650.49,-343.51 1651.76,-343.26"/>
<polygon fill="midnightblue" stroke="midnightblue" points="1652.47,-346.68 1661.56,-341.25 1651.06,-339.83 1652.47,-346.68"/>
</g>
<!-- Node3&#45;&gt;Node4 -->
<g id="edge3" class="edge">
<title>Node3&#45;&gt;Node4</title>
<path fill="none" stroke="midnightblue" d="M1338.39,-324.44C1279.51,-314.87 1184.15,-299.36 1121.51,-289.17"/>
<polygon fill="midnightblue" stroke="midnightblue" points="1121.79,-285.67 1111.36,-287.52 1120.67,-292.58 1121.79,-285.67"/>
</g>
<!-- Node3&#45;&gt;Node34 -->
<g id="edge58" class="edge">
<title>Node3&#45;&gt;Node34</title>
<path fill="none" stroke="midnightblue" d="M1482.27,-327.49C1543.81,-321.78 1617.54,-310.39 1639,-288 1687.82,-237.08 1668.19,-142.3 1656.88,-102.19"/>
<polygon fill="midnightblue" stroke="midnightblue" points="1660.17,-101 1653.97,-92.41 1653.46,-103 1660.17,-101"/>
</g>
<!-- Node36 -->
<g id="node36" class="node">
<title>Node36</title>
<g id="a_node36"><a xlink:href="walberla__bridge_2include_2walberla__bridge_2VTKHandle_8hpp.html" target="_top" xlink:title=" ">
<polygon fill="none" stroke="black" points="1456.5,-268.5 1456.5,-287.5 1629.5,-287.5 1629.5,-268.5 1456.5,-268.5"/>
<text text-anchor="middle" x="1543" y="-275.5" font-family="Helvetica,sans-Serif" font-size="10.00">walberla_bridge/VTKHandle.hpp</text>
</a>
</g>
</g>
<!-- Node3&#45;&gt;Node36 -->
<g id="edge44" class="edge">
<title>Node3&#45;&gt;Node36</title>
<path fill="none" stroke="midnightblue" d="M1415.08,-324.44C1440.54,-315.4 1480.89,-301.06 1509.46,-290.92"/>
<polygon fill="midnightblue" stroke="midnightblue" points="1510.78,-294.16 1519.03,-287.52 1508.43,-287.57 1510.78,-294.16"/>
</g>
<!-- Node41 -->
<g id="node41" class="node">
<title>Node41</title>
<g id="a_node41"><a xlink:title=" ">
<polygon fill="none" stroke="#bfbfbf" points="1250,-207 1250,-226 1294,-226 1294,-207 1250,-207"/>
<text text-anchor="middle" x="1272" y="-214" font-family="Helvetica,sans-Serif" font-size="10.00">string</text>
</a>
</g>
</g>
<!-- Node3&#45;&gt;Node41 -->
<g id="edge59" class="edge">
<title>Node3&#45;&gt;Node41</title>
<path fill="none" stroke="midnightblue" d="M1397.72,-324.21C1407,-310.92 1421.28,-285.42 1409,-268 1381.54,-229.05 1352.56,-248.91 1308,-232 1306.16,-231.3 1304.27,-230.57 1302.36,-229.83"/>
<polygon fill="midnightblue" stroke="midnightblue" points="1303.47,-226.5 1292.88,-226.08 1300.89,-233.01 1303.47,-226.5"/>
</g>
<!-- Node42 -->
<g id="node42" class="node">
<title>Node42</title>
<g id="a_node42"><a xlink:title=" ">
<polygon fill="none" stroke="#bfbfbf" points="1250,-268.5 1250,-287.5 1288,-287.5 1288,-268.5 1250,-268.5"/>
<text text-anchor="middle" x="1269" y="-275.5" font-family="Helvetica,sans-Serif" font-size="10.00">map</text>
</a>
</g>
</g>
<!-- Node3&#45;&gt;Node42 -->
<g id="edge57" class="edge">
<title>Node3&#45;&gt;Node42</title>
<path fill="none" stroke="midnightblue" d="M1371.67,-324.44C1351.68,-315.6 1320.26,-301.69 1297.44,-291.59"/>
<polygon fill="midnightblue" stroke="midnightblue" points="1298.8,-288.36 1288.24,-287.52 1295.97,-294.76 1298.8,-288.36"/>
</g>
<!-- Node43 -->
<g id="node43" class="node">
<title>Node43</title>
<g id="a_node43"><a xlink:title=" ">
<polygon fill="none" stroke="#bfbfbf" points="1306.5,-268.5 1306.5,-287.5 1399.5,-287.5 1399.5,-268.5 1306.5,-268.5"/>
<text text-anchor="middle" x="1353" y="-275.5" font-family="Helvetica,sans-Serif" font-size="10.00">unordered_map</text>
</a>
</g>
</g>
<!-- Node3&#45;&gt;Node43 -->
<g id="edge60" class="edge">
<title>Node3&#45;&gt;Node43</title>
<path fill="none" stroke="midnightblue" d="M1384.73,-324.08C1379.36,-316.46 1371.48,-305.26 1364.92,-295.94"/>
<polygon fill="midnightblue" stroke="midnightblue" points="1367.78,-293.91 1359.16,-287.75 1362.05,-297.94 1367.78,-293.91"/>
</g>
<!-- Node4&#45;&gt;Node5 -->
<g id="edge4" class="edge">
<title>Node4&#45;&gt;Node5</title>
<path fill="none" stroke="midnightblue" d="M1026.05,-268.48C985.4,-257.96 916.21,-240.06 871.58,-228.51"/>
<polygon fill="midnightblue" stroke="midnightblue" points="872.45,-225.13 861.89,-226.01 870.7,-231.9 872.45,-225.13"/>
</g>
<!-- Node10 -->
<g id="node10" class="node">
<title>Node10</title>
<g id="a_node10"><a xlink:title=" ">
<polygon fill="none" stroke="#bfbfbf" points="0,-6 0,-25 52,-25 52,-6 0,-6"/>
<text text-anchor="middle" x="26" y="-13" font-family="Helvetica,sans-Serif" font-size="10.00">cassert</text>
</a>
</g>
</g>
<!-- Node4&#45;&gt;Node10 -->
<g id="edge39" class="edge">
<title>Node4&#45;&gt;Node10</title>
<path fill="none" stroke="midnightblue" d="M961.89,-273.94C799.42,-268.28 479.47,-254.63 369,-232 281.28,-214.03 255.11,-212.16 179,-165 118.86,-127.73 63.24,-63.34 38.91,-33.09"/>
<polygon fill="midnightblue" stroke="midnightblue" points="41.6,-30.86 32.64,-25.19 36.12,-35.21 41.6,-30.86"/>
</g>
<!-- Node28 -->
<g id="node28" class="node">
<title>Node28</title>
<g id="a_node28"><a xlink:title=" ">
<polygon fill="none" stroke="#bfbfbf" points="188.5,-140 188.5,-159 235.5,-159 235.5,-140 188.5,-140"/>
<text text-anchor="middle" x="212" y="-147" font-family="Helvetica,sans-Serif" font-size="10.00">cmath</text>
</a>
</g>
</g>
<!-- Node4&#45;&gt;Node28 -->
<g id="edge40" class="edge">
<title>Node4&#45;&gt;Node28</title>
<path fill="none" stroke="midnightblue" d="M961.6,-271.74C860.35,-265.46 697.46,-253.06 558,-232 416.9,-210.69 379.55,-209.59 244,-165 242.13,-164.39 240.23,-163.7 238.32,-162.96"/>
<polygon fill="midnightblue" stroke="midnightblue" points="239.57,-159.69 229,-159.02 236.85,-166.14 239.57,-159.69"/>
</g>
<!-- Node30 -->
<g id="node30" class="node">
<title>Node30</title>
<g id="a_node30"><a xlink:title=" ">
<polygon fill="none" stroke="#bfbfbf" points="253.5,-140 253.5,-159 336.5,-159 336.5,-140 253.5,-140"/>
<text text-anchor="middle" x="295" y="-147" font-family="Helvetica,sans-Serif" font-size="10.00">initializer_list</text>
</a>
</g>
</g>
<!-- Node4&#45;&gt;Node30 -->
<g id="edge41" class="edge">
<title>Node4&#45;&gt;Node30</title>
<path fill="none" stroke="midnightblue" d="M1004.89,-268.46C947.56,-259.42 854.4,-244.71 774,-232 585.99,-202.27 537.35,-203.79 351,-165 345.97,-163.95 340.71,-162.74 335.51,-161.48"/>
<polygon fill="midnightblue" stroke="midnightblue" points="336.24,-158.05 325.68,-159.01 334.53,-164.84 336.24,-158.05"/>
</g>
<!-- Node4&#45;&gt;Node34 -->
<g id="edge42" class="edge">
<title>Node4&#45;&gt;Node34</title>
<path fill="none" stroke="midnightblue" d="M1122.92,-268.49C1172.58,-261.09 1242.87,-248.9 1303,-232 1383.18,-209.46 1401.39,-197.66 1478,-165 1530.82,-142.49 1591.22,-113.2 1624.86,-96.56"/>
<polygon fill="midnightblue" stroke="midnightblue" points="1626.6,-99.61 1634,-92.03 1623.49,-93.33 1626.6,-99.61"/>
</g>
<!-- Node35 -->
<g id="node35" class="node">
<title>Node35</title>
<g id="a_node35"><a xlink:title=" ">
<polygon fill="none" stroke="#bfbfbf" points="1474.5,-73 1474.5,-92 1519.5,-92 1519.5,-73 1474.5,-73"/>
<text text-anchor="middle" x="1497" y="-80" font-family="Helvetica,sans-Serif" font-size="10.00">utility</text>
</a>
</g>
</g>
<!-- Node4&#45;&gt;Node35 -->
<g id="edge43" class="edge">
<title>Node4&#45;&gt;Node35</title>
<path fill="none" stroke="midnightblue" d="M1072.72,-268.5C1111.9,-244.52 1228.13,-175.41 1332,-134 1386.5,-112.27 1403.32,-116.48 1459,-98 1461.26,-97.25 1463.59,-96.44 1465.92,-95.61"/>
<polygon fill="midnightblue" stroke="midnightblue" points="1467.24,-98.86 1475.42,-92.11 1464.82,-92.29 1467.24,-98.86"/>
</g>
<!-- Node6 -->
<g id="node6" class="node">
<title>Node6</title>
<g id="a_node6"><a xlink:title=" ">
<polygon fill="none" stroke="#bfbfbf" points="1021,-140 1021,-159 1171,-159 1171,-140 1021,-140"/>
<text text-anchor="middle" x="1096" y="-147" font-family="Helvetica,sans-Serif" font-size="10.00">boost/qvm/deduce_vec.hpp</text>
</a>
</g>
</g>
<!-- Node5&#45;&gt;Node6 -->
<g id="edge5" class="edge">
<title>Node5&#45;&gt;Node6</title>
<path fill="none" stroke="midnightblue" d="M864.18,-206.94C912.2,-195.24 998.32,-174.28 1050.99,-161.46"/>
<polygon fill="midnightblue" stroke="midnightblue" points="1051.85,-164.85 1060.74,-159.08 1050.2,-158.05 1051.85,-164.85"/>
</g>
<!-- Node7 -->
<g id="node7" class="node">
<title>Node7</title>
<g id="a_node7"><a xlink:title=" ">
<polygon fill="none" stroke="#bfbfbf" points="759,-140 759,-159 899,-159 899,-140 759,-140"/>
<text text-anchor="middle" x="829" y="-147" font-family="Helvetica,sans-Serif" font-size="10.00">boost/qvm/vec_traits.hpp</text>
</a>
</g>
</g>
<!-- Node5&#45;&gt;Node7 -->
<g id="edge6" class="edge">
<title>Node5&#45;&gt;Node7</title>
<path fill="none" stroke="midnightblue" d="M829,-206.73C829,-197.18 829,-181.62 829,-169.28"/>
<polygon fill="midnightblue" stroke="midnightblue" points="832.5,-169.13 829,-159.13 825.5,-169.13 832.5,-169.13"/>
</g>
<!-- Node8 -->
<g id="node8" class="node">
<title>Node8</title>
<g id="a_node8"><a xlink:href="Array_8hpp.html" target="_top" xlink:title="Array implementation with CUDA support.">
<polygon fill="none" stroke="black" points="917,-140 917,-159 1003,-159 1003,-140 917,-140"/>
<text text-anchor="middle" x="960" y="-147" font-family="Helvetica,sans-Serif" font-size="10.00">utils/Array.hpp</text>
</a>
</g>
</g>
<!-- Node5&#45;&gt;Node8 -->
<g id="edge7" class="edge">
<title>Node5&#45;&gt;Node8</title>
<path fill="none" stroke="midnightblue" d="M846.4,-206.87C868.61,-195.84 907.29,-176.66 933.26,-163.77"/>
<polygon fill="midnightblue" stroke="midnightblue" points="935.13,-166.75 942.53,-159.17 932.02,-160.48 935.13,-166.75"/>
</g>
<!-- Node5&#45;&gt;Node10 -->
<g id="edge30" class="edge">
<title>Node5&#45;&gt;Node10</title>
<path fill="none" stroke="midnightblue" d="M782.9,-210.74C681.86,-200.18 447.07,-174.97 412,-165 380.44,-156.03 375.34,-146.49 345,-134 220.85,-82.87 186.16,-79.6 61,-31 59.36,-30.36 57.67,-29.7 55.98,-29.02"/>
<polygon fill="midnightblue" stroke="midnightblue" points="56.88,-25.61 46.3,-25.09 54.24,-32.1 56.88,-25.61"/>
</g>
<!-- Node5&#45;&gt;Node12 -->
<g id="edge32" class="edge">
<title>Node5&#45;&gt;Node12</title>
<path fill="none" stroke="midnightblue" d="M782.72,-210.56C677.3,-199.22 427.94,-171.73 422,-165 412.88,-154.68 412.91,-144.36 422,-134 462.65,-87.68 636.63,-110.39 697,-98 746.76,-87.79 757.12,-76.58 807,-67 957.1,-38.17 1000.87,-68.64 1149,-31 1151.51,-30.36 1154.08,-29.58 1156.62,-28.71"/>
<polygon fill="midnightblue" stroke="midnightblue" points="1158.09,-31.89 1166.17,-25.04 1155.58,-25.36 1158.09,-31.89"/>
</g>
<!-- Node24 -->
<g id="node24" class="node">
<title>Node24</title>
<g id="a_node24"><a xlink:title=" ">
<polygon fill="none" stroke="#bfbfbf" points="1155.5,-73 1155.5,-92 1208.5,-92 1208.5,-73 1155.5,-73"/>
<text text-anchor="middle" x="1182" y="-80" font-family="Helvetica,sans-Serif" font-size="10.00">iterator</text>
</a>
</g>
</g>
<!-- Node5&#45;&gt;Node24 -->
<g id="edge35" class="edge">
<title>Node5&#45;&gt;Node24</title>
<path fill="none" stroke="midnightblue" d="M875.14,-215.9C961.08,-215.57 1140.55,-209.42 1180,-165 1195.01,-148.09 1192.07,-120.55 1187.73,-102.23"/>
<polygon fill="midnightblue" stroke="midnightblue" points="1191.07,-101.16 1185.07,-92.42 1184.31,-102.99 1191.07,-101.16"/>
</g>
<!-- Node27 -->
<g id="node27" class="node">
<title>Node27</title>
<g id="a_node27"><a xlink:title=" ">
<polygon fill="none" stroke="#bfbfbf" points="431,-140 431,-159 495,-159 495,-140 431,-140"/>
<text text-anchor="middle" x="463" y="-147" font-family="Helvetica,sans-Serif" font-size="10.00">algorithm</text>
</a>
</g>
</g>
<!-- Node5&#45;&gt;Node27 -->
<g id="edge29" class="edge">
<title>Node5&#45;&gt;Node27</title>
<path fill="none" stroke="midnightblue" d="M782.98,-211.07C719.52,-204.35 601.86,-189.68 504,-165 500.95,-164.23 497.81,-163.33 494.68,-162.36"/>
<polygon fill="midnightblue" stroke="midnightblue" points="495.49,-158.94 484.9,-159.09 493.28,-165.58 495.49,-158.94"/>
</g>
<!-- Node5&#45;&gt;Node28 -->
<g id="edge31" class="edge">
<title>Node5&#45;&gt;Node28</title>
<path fill="none" stroke="midnightblue" d="M782.83,-213.53C663.25,-208.12 345.71,-191.6 244,-165 241.84,-164.44 239.65,-163.74 237.47,-162.95"/>
<polygon fill="midnightblue" stroke="midnightblue" points="238.8,-159.71 228.22,-159.13 236.12,-166.18 238.8,-159.71"/>
</g>
<!-- Node29 -->
<g id="node29" class="node">
<title>Node29</title>
<g id="a_node29"><a xlink:title=" ">
<polygon fill="none" stroke="#bfbfbf" points="513.5,-140 513.5,-159 578.5,-159 578.5,-140 513.5,-140"/>
<text text-anchor="middle" x="546" y="-147" font-family="Helvetica,sans-Serif" font-size="10.00">functional</text>
</a>
</g>
</g>
<!-- Node5&#45;&gt;Node29 -->
<g id="edge33" class="edge">
<title>Node5&#45;&gt;Node29</title>
<path fill="none" stroke="midnightblue" d="M782.83,-207.61C734.02,-198.86 654.96,-183.49 588,-165 584.97,-164.16 581.85,-163.23 578.73,-162.24"/>
<polygon fill="midnightblue" stroke="midnightblue" points="579.54,-158.82 568.94,-159 577.34,-165.47 579.54,-158.82"/>
</g>
<!-- Node5&#45;&gt;Node30 -->
<g id="edge34" class="edge">
<title>Node5&#45;&gt;Node30</title>
<path fill="none" stroke="midnightblue" d="M782.95,-211.51C679.9,-202.45 433.32,-179.92 351,-165 345.56,-164.01 339.88,-162.78 334.3,-161.46"/>
<polygon fill="midnightblue" stroke="midnightblue" points="335.01,-158.03 324.46,-159 333.32,-164.82 335.01,-158.03"/>
</g>
<!-- Node31 -->
<g id="node31" class="node">
<title>Node31</title>
<g id="a_node31"><a xlink:title=" ">
<polygon fill="none" stroke="#bfbfbf" points="597,-140 597,-159 653,-159 653,-140 597,-140"/>
<text text-anchor="middle" x="625" y="-147" font-family="Helvetica,sans-Serif" font-size="10.00">numeric</text>
</a>
</g>
</g>
<!-- Node5&#45;&gt;Node31 -->
<g id="edge36" class="edge">
<title>Node5&#45;&gt;Node31</title>
<path fill="none" stroke="midnightblue" d="M797.98,-206.92C764.27,-197.42 708.94,-181.26 662,-165 659.88,-164.27 657.7,-163.48 655.52,-162.68"/>
<polygon fill="midnightblue" stroke="midnightblue" points="656.61,-159.35 646.02,-159.07 654.13,-165.9 656.61,-159.35"/>
</g>
<!-- Node32 -->
<g id="node32" class="node">
<title>Node32</title>
<g id="a_node32"><a xlink:title=" ">
<polygon fill="none" stroke="#bfbfbf" points="671.5,-140 671.5,-159 740.5,-159 740.5,-140 671.5,-140"/>
<text text-anchor="middle" x="706" y="-147" font-family="Helvetica,sans-Serif" font-size="10.00">type_traits</text>
</a>
</g>
</g>
<!-- Node5&#45;&gt;Node32 -->
<g id="edge37" class="edge">
<title>Node5&#45;&gt;Node32</title>
<path fill="none" stroke="midnightblue" d="M812.67,-206.87C791.9,-195.89 755.81,-176.82 731.43,-163.94"/>
<polygon fill="midnightblue" stroke="midnightblue" points="732.88,-160.75 722.4,-159.17 729.61,-166.93 732.88,-160.75"/>
</g>
<!-- Node5&#45;&gt;Node33 -->
<g id="edge38" class="edge">
<title>Node5&#45;&gt;Node33</title>
<path fill="none" stroke="midnightblue" d="M875.13,-212.14C1033.18,-200.64 1550.64,-162.97 1688.17,-152.96"/>
<polygon fill="midnightblue" stroke="midnightblue" points="1688.78,-156.43 1698.5,-152.21 1688.27,-149.45 1688.78,-156.43"/>
</g>
<!-- Node9 -->
<g id="node9" class="node">
<title>Node9</title>
<g id="a_node9"><a xlink:href="device__qualifier_8hpp.html" target="_top" xlink:title=" ">
<polygon fill="none" stroke="black" points="393,-73 393,-92 507,-92 507,-73 393,-73"/>
<text text-anchor="middle" x="450" y="-80" font-family="Helvetica,sans-Serif" font-size="10.00">device_qualifier.hpp</text>
</a>
</g>
</g>
<!-- Node8&#45;&gt;Node9 -->
<g id="edge8" class="edge">
<title>Node8&#45;&gt;Node9</title>
<path fill="none" stroke="midnightblue" d="M932.96,-139.97C924.99,-137.73 916.2,-135.51 908,-134 738.12,-102.68 691.88,-123.32 521,-98 513.47,-96.88 505.54,-95.49 497.81,-94"/>
<polygon fill="midnightblue" stroke="midnightblue" points="498.31,-90.53 487.82,-92.02 496.94,-97.4 498.31,-90.53"/>
</g>
<!-- Node8&#45;&gt;Node10 -->
<g id="edge24" class="edge">
<title>Node8&#45;&gt;Node10</title>
<path fill="none" stroke="midnightblue" d="M932.68,-139.94C924.78,-137.72 916.1,-135.53 908,-134 752.6,-104.65 700.1,-158.54 554,-98 533.86,-89.66 536.23,-75.12 516,-67 327.74,8.55 258.24,-78.4 61,-31 58.48,-30.39 55.91,-29.63 53.36,-28.78"/>
<polygon fill="midnightblue" stroke="midnightblue" points="54.39,-25.42 43.8,-25.14 51.9,-31.97 54.39,-25.42"/>
</g>
<!-- Node11 -->
<g id="node11" class="node">
<title>Node11</title>
<g id="a_node11"><a xlink:href="get_8hpp.html" target="_top" xlink:title=" ">
<polygon fill="none" stroke="black" points="1084.5,-73 1084.5,-92 1137.5,-92 1137.5,-73 1084.5,-73"/>
<text text-anchor="middle" x="1111" y="-80" font-family="Helvetica,sans-Serif" font-size="10.00">get.hpp</text>
</a>
</g>
</g>
<!-- Node8&#45;&gt;Node11 -->
<g id="edge10" class="edge">
<title>Node8&#45;&gt;Node11</title>
<path fill="none" stroke="midnightblue" d="M980.05,-139.87C1006,-128.7 1051.42,-109.15 1081.36,-96.26"/>
<polygon fill="midnightblue" stroke="midnightblue" points="1083.06,-99.34 1090.87,-92.17 1080.3,-92.91 1083.06,-99.34"/>
</g>
<!-- Node8&#45;&gt;Node12 -->
<g id="edge25" class="edge">
<title>Node8&#45;&gt;Node12</title>
<path fill="none" stroke="midnightblue" d="M970.77,-139.96C990.77,-124.33 1035.32,-90.56 1076,-67 1101.16,-52.43 1131.23,-38.64 1153.25,-29.17"/>
<polygon fill="midnightblue" stroke="midnightblue" points="1154.91,-32.26 1162.75,-25.13 1152.17,-25.82 1154.91,-32.26"/>
</g>
<!-- Node14 -->
<g id="node14" class="node">
<title>Node14</title>
<g id="a_node14"><a xlink:href="array_8hpp.html" target="_top" xlink:title=" ">
<polygon fill="none" stroke="black" points="563.5,-73 563.5,-92 688.5,-92 688.5,-73 563.5,-73"/>
<text text-anchor="middle" x="626" y="-80" font-family="Helvetica,sans-Serif" font-size="10.00">serialization/array.hpp</text>
</a>
</g>
</g>
<!-- Node8&#45;&gt;Node14 -->
<g id="edge13" class="edge">
<title>Node8&#45;&gt;Node14</title>
<path fill="none" stroke="midnightblue" d="M931.24,-139.96C923.72,-137.87 915.58,-135.73 908,-134 834.81,-117.28 749.9,-102.72 692.52,-93.59"/>
<polygon fill="midnightblue" stroke="midnightblue" points="692.92,-90.11 682.5,-92 691.83,-97.02 692.92,-90.11"/>
</g>
<!-- Node23 -->
<g id="node23" class="node">
<title>Node23</title>
<g id="a_node23"><a xlink:title=" ">
<polygon fill="none" stroke="#bfbfbf" points="816.5,-67.5 816.5,-97.5 923.5,-97.5 923.5,-67.5 816.5,-67.5"/>
<text text-anchor="start" x="824.5" y="-85.5" font-family="Helvetica,sans-Serif" font-size="10.00">boost/serialization</text>
<text text-anchor="middle" x="870" y="-74.5" font-family="Helvetica,sans-Serif" font-size="10.00">/access.hpp</text>
</a>
</g>
</g>
<!-- Node8&#45;&gt;Node23 -->
<g id="edge23" class="edge">
<title>Node8&#45;&gt;Node23</title>
<path fill="none" stroke="midnightblue" d="M947.86,-139.73C935.11,-130.53 914.63,-115.73 897.87,-103.63"/>
<polygon fill="midnightblue" stroke="midnightblue" points="899.66,-100.61 889.51,-97.59 895.57,-106.28 899.66,-100.61"/>
</g>
<!-- Node8&#45;&gt;Node24 -->
<g id="edge26" class="edge">
<title>Node8&#45;&gt;Node24</title>
<path fill="none" stroke="midnightblue" d="M990.51,-139.93C997.56,-137.97 1005.04,-135.9 1012,-134 1071.91,-117.66 1088.19,-117.93 1147,-98 1148.92,-97.35 1150.88,-96.65 1152.84,-95.92"/>
<polygon fill="midnightblue" stroke="midnightblue" points="1154.53,-99.01 1162.55,-92.09 1151.96,-92.5 1154.53,-99.01"/>
</g>
<!-- Node25 -->
<g id="node25" class="node">
<title>Node25</title>
<g id="a_node25"><a xlink:title=" ">
<polygon fill="none" stroke="#bfbfbf" points="941.5,-73 941.5,-92 998.5,-92 998.5,-73 941.5,-73"/>
<text text-anchor="middle" x="970" y="-80" font-family="Helvetica,sans-Serif" font-size="10.00">ostream</text>
</a>
</g>
</g>
<!-- Node8&#45;&gt;Node25 -->
<g id="edge27" class="edge">
<title>Node8&#45;&gt;Node25</title>
<path fill="none" stroke="midnightblue" d="M961.35,-139.73C962.82,-130.18 965.21,-114.62 967.11,-102.28"/>
<polygon fill="midnightblue" stroke="midnightblue" points="970.61,-102.54 968.67,-92.13 963.69,-101.48 970.61,-102.54"/>
</g>
<!-- Node26 -->
<g id="node26" class="node">
<title>Node26</title>
<g id="a_node26"><a xlink:title=" ">
<polygon fill="none" stroke="#bfbfbf" points="1265.5,-73 1265.5,-92 1330.5,-92 1330.5,-73 1265.5,-73"/>
<text text-anchor="middle" x="1298" y="-80" font-family="Helvetica,sans-Serif" font-size="10.00">stdexcept</text>
</a>
</g>
</g>
<!-- Node8&#45;&gt;Node26 -->
<g id="edge28" class="edge">
<title>Node8&#45;&gt;Node26</title>
<path fill="none" stroke="midnightblue" d="M988.75,-139.94C996.28,-137.84 1004.41,-135.72 1012,-134 1102.65,-113.49 1126.5,-114.29 1218,-98 1230.16,-95.84 1243.35,-93.46 1255.45,-91.26"/>
<polygon fill="midnightblue" stroke="midnightblue" points="1256.1,-94.7 1265.31,-89.47 1254.85,-87.82 1256.1,-94.7"/>
</g>
<!-- Node9&#45;&gt;Node10 -->
<g id="edge9" class="edge">
<title>Node9&#45;&gt;Node10</title>
<path fill="none" stroke="midnightblue" d="M411.42,-72.97C400.94,-70.83 389.56,-68.67 379,-67 238.52,-44.75 198.72,-66.57 61,-31 58.49,-30.35 55.93,-29.56 53.38,-28.69"/>
<polygon fill="midnightblue" stroke="midnightblue" points="54.42,-25.34 43.83,-25.02 51.91,-31.87 54.42,-25.34"/>
</g>
<!-- Node11&#45;&gt;Node12 -->
<g id="edge11" class="edge">
<title>Node11&#45;&gt;Node12</title>
<path fill="none" stroke="midnightblue" d="M1120.85,-72.73C1132.56,-62.31 1152.32,-44.71 1166.62,-31.97"/>
<polygon fill="midnightblue" stroke="midnightblue" points="1169.17,-34.39 1174.31,-25.13 1164.51,-29.16 1169.17,-34.39"/>
</g>
<!-- Node13 -->
<g id="node13" class="node">
<title>Node13</title>
<g id="a_node13"><a xlink:title=" ">
<polygon fill="none" stroke="#bfbfbf" points="1228.5,-6 1228.5,-25 1269.5,-25 1269.5,-6 1228.5,-6"/>
<text text-anchor="middle" x="1249" y="-13" font-family="Helvetica,sans-Serif" font-size="10.00">tuple</text>
</a>
</g>
</g>
<!-- Node11&#45;&gt;Node13 -->
<g id="edge12" class="edge">
<title>Node11&#45;&gt;Node13</title>
<path fill="none" stroke="midnightblue" d="M1129.98,-72.91C1151.8,-63 1188.62,-46.11 1220,-31 1220.99,-30.52 1222,-30.04 1223.01,-29.54"/>
<polygon fill="midnightblue" stroke="midnightblue" points="1224.76,-32.58 1232.17,-25.02 1221.66,-26.31 1224.76,-32.58"/>
</g>
<!-- Node14&#45;&gt;Node12 -->
<g id="edge22" class="edge">
<title>Node14&#45;&gt;Node12</title>
<path fill="none" stroke="midnightblue" d="M667.03,-72.94C678.62,-70.75 691.27,-68.57 703,-67 900.1,-40.56 955.68,-77.62 1149,-31 1151.52,-30.39 1154.09,-29.63 1156.64,-28.77"/>
<polygon fill="midnightblue" stroke="midnightblue" points="1158.09,-31.96 1166.19,-25.13 1155.6,-25.42 1158.09,-31.96"/>
</g>
<!-- Node15 -->
<g id="node15" class="node">
<title>Node15</title>
<g id="a_node15"><a xlink:title=" ">
<polygon fill="none" stroke="#bfbfbf" points="1006.5,-6 1006.5,-25 1139.5,-25 1139.5,-6 1006.5,-6"/>
<text text-anchor="middle" x="1073" y="-13" font-family="Helvetica,sans-Serif" font-size="10.00">boost/mpl/bool_fwd.hpp</text>
</a>
</g>
</g>
<!-- Node14&#45;&gt;Node15 -->
<g id="edge14" class="edge">
<title>Node14&#45;&gt;Node15</title>
<path fill="none" stroke="midnightblue" d="M668.68,-72.96C679.83,-70.86 691.84,-68.73 703,-67 833.08,-46.81 866.94,-51.35 997,-31 1004.74,-29.79 1012.91,-28.38 1020.9,-26.92"/>
<polygon fill="midnightblue" stroke="midnightblue" points="1021.69,-30.33 1030.88,-25.05 1020.41,-23.45 1021.69,-30.33"/>
</g>
<!-- Node16 -->
<g id="node16" class="node">
<title>Node16</title>
<g id="a_node16"><a xlink:title=" ">
<polygon fill="none" stroke="#bfbfbf" points="70,-6 70,-25 194,-25 194,-6 70,-6"/>
<text text-anchor="middle" x="132" y="-13" font-family="Helvetica,sans-Serif" font-size="10.00">boost/mpl/greater.hpp</text>
</a>
</g>
</g>
<!-- Node14&#45;&gt;Node16 -->
<g id="edge15" class="edge">
<title>Node14&#45;&gt;Node16</title>
<path fill="none" stroke="midnightblue" d="M584.14,-72.97C572.77,-70.83 560.44,-68.67 549,-67 396.01,-44.68 355.81,-54.5 203,-31 195.56,-29.86 187.73,-28.46 180.09,-26.98"/>
<polygon fill="midnightblue" stroke="midnightblue" points="180.69,-23.53 170.2,-25.02 179.32,-30.4 180.69,-23.53"/>
</g>
<!-- Node17 -->
<g id="node17" class="node">
<title>Node17</title>
<g id="a_node17"><a xlink:title=" ">
<polygon fill="none" stroke="#bfbfbf" points="212,-6 212,-25 314,-25 314,-6 212,-6"/>
<text text-anchor="middle" x="263" y="-13" font-family="Helvetica,sans-Serif" font-size="10.00">boost/mpl/int.hpp</text>
</a>
</g>
</g>
<!-- Node14&#45;&gt;Node17 -->
<g id="edge16" class="edge">
<title>Node14&#45;&gt;Node17</title>
<path fill="none" stroke="midnightblue" d="M581.66,-72.93C570.97,-70.92 559.59,-68.84 549,-67 448.79,-49.59 422.73,-50.96 323,-31 317.55,-29.91 311.84,-28.66 306.21,-27.37"/>
<polygon fill="midnightblue" stroke="midnightblue" points="306.76,-23.91 296.22,-25.02 305.15,-30.72 306.76,-23.91"/>
</g>
<!-- Node18 -->
<g id="node18" class="node">
<title>Node18</title>
<g id="a_node18"><a xlink:title=" ">
<polygon fill="none" stroke="#bfbfbf" points="332,-0.5 332,-30.5 438,-30.5 438,-0.5 332,-0.5"/>
<text text-anchor="start" x="340" y="-18.5" font-family="Helvetica,sans-Serif" font-size="10.00">boost/mpl/integral</text>
<text text-anchor="middle" x="385" y="-7.5" font-family="Helvetica,sans-Serif" font-size="10.00">_c_tag.hpp</text>
</a>
</g>
</g>
<!-- Node14&#45;&gt;Node18 -->
<g id="edge17" class="edge">
<title>Node14&#45;&gt;Node18</title>
<path fill="none" stroke="midnightblue" d="M594,-72.87C556.58,-62.78 493.8,-45.84 446.79,-33.16"/>
<polygon fill="midnightblue" stroke="midnightblue" points="447.58,-29.75 437.01,-30.53 445.76,-36.51 447.58,-29.75"/>
</g>
<!-- Node19 -->
<g id="node19" class="node">
<title>Node19</title>
<g id="a_node19"><a xlink:title=" ">
<polygon fill="none" stroke="#bfbfbf" points="456.5,-0.5 456.5,-30.5 607.5,-30.5 607.5,-0.5 456.5,-0.5"/>
<text text-anchor="start" x="464.5" y="-18.5" font-family="Helvetica,sans-Serif" font-size="10.00">boost/serialization</text>
<text text-anchor="middle" x="532" y="-7.5" font-family="Helvetica,sans-Serif" font-size="10.00">/is_bitwise_serializable.hpp</text>
</a>
</g>
</g>
<!-- Node14&#45;&gt;Node19 -->
<g id="edge18" class="edge">
<title>Node14&#45;&gt;Node19</title>
<path fill="none" stroke="midnightblue" d="M613.32,-72.73C599.89,-63.44 578.22,-48.46 560.63,-36.3"/>
<polygon fill="midnightblue" stroke="midnightblue" points="562.59,-33.4 552.37,-30.59 558.61,-39.16 562.59,-33.4"/>
</g>
<!-- Node20 -->
<g id="node20" class="node">
<title>Node20</title>
<g id="a_node20"><a xlink:title=" ">
<polygon fill="none" stroke="#bfbfbf" points="625.5,-0.5 625.5,-30.5 732.5,-30.5 732.5,-0.5 625.5,-0.5"/>
<text text-anchor="start" x="633.5" y="-18.5" font-family="Helvetica,sans-Serif" font-size="10.00">boost/serialization</text>
<text text-anchor="middle" x="679" y="-7.5" font-family="Helvetica,sans-Serif" font-size="10.00">/level.hpp</text>
</a>
</g>
</g>
<!-- Node14&#45;&gt;Node20 -->
<g id="edge19" class="edge">
<title>Node14&#45;&gt;Node20</title>
<path fill="none" stroke="midnightblue" d="M633.15,-72.73C640.24,-64.03 651.4,-50.34 660.94,-38.65"/>
<polygon fill="midnightblue" stroke="midnightblue" points="663.91,-40.55 667.51,-30.59 658.48,-36.13 663.91,-40.55"/>
</g>
<!-- Node21 -->
<g id="node21" class="node">
<title>Node21</title>
<g id="a_node21"><a xlink:title=" ">
<polygon fill="none" stroke="#bfbfbf" points="750.5,-0.5 750.5,-30.5 857.5,-30.5 857.5,-0.5 750.5,-0.5"/>
<text text-anchor="start" x="758.5" y="-18.5" font-family="Helvetica,sans-Serif" font-size="10.00">boost/serialization</text>
<text text-anchor="middle" x="804" y="-7.5" font-family="Helvetica,sans-Serif" font-size="10.00">/tracking.hpp</text>
</a>
</g>
</g>
<!-- Node14&#45;&gt;Node21 -->
<g id="edge20" class="edge">
<title>Node14&#45;&gt;Node21</title>
<path fill="none" stroke="midnightblue" d="M649.64,-72.87C676.69,-62.99 721.71,-46.55 756.17,-33.97"/>
<polygon fill="midnightblue" stroke="midnightblue" points="757.39,-37.25 765.58,-30.53 754.99,-30.67 757.39,-37.25"/>
</g>
<!-- Node22 -->
<g id="node22" class="node">
<title>Node22</title>
<g id="a_node22"><a xlink:title=" ">
<polygon fill="none" stroke="#bfbfbf" points="875.5,-0.5 875.5,-30.5 988.5,-30.5 988.5,-0.5 875.5,-0.5"/>
<text text-anchor="start" x="883.5" y="-18.5" font-family="Helvetica,sans-Serif" font-size="10.00">boost/serialization</text>
<text text-anchor="middle" x="932" y="-7.5" font-family="Helvetica,sans-Serif" font-size="10.00">/tracking_enum.hpp</text>
</a>
</g>
</g>
<!-- Node14&#45;&gt;Node22 -->
<g id="edge21" class="edge">
<title>Node14&#45;&gt;Node22</title>
<path fill="none" stroke="midnightblue" d="M667.22,-72.94C712.99,-63.41 789.36,-47.44 865.26,-31.15"/>
<polygon fill="midnightblue" stroke="midnightblue" points="866.44,-34.47 875.48,-28.95 864.97,-27.63 866.44,-34.47"/>
</g>
<!-- Node36&#45;&gt;Node26 -->
<g id="edge54" class="edge">
<title>Node36&#45;&gt;Node26</title>
<path fill="none" stroke="midnightblue" d="M1500.21,-268.48C1471.37,-261.51 1433.22,-249.86 1403,-232 1365.65,-209.93 1356.67,-200.69 1332,-165 1318.41,-145.34 1308.77,-119.41 1303.3,-102.13"/>
<polygon fill="midnightblue" stroke="midnightblue" points="1306.54,-100.75 1300.31,-92.18 1299.84,-102.76 1306.54,-100.75"/>
</g>
<!-- Node36&#45;&gt;Node34 -->
<g id="edge53" class="edge">
<title>Node36&#45;&gt;Node34</title>
<path fill="none" stroke="midnightblue" d="M1564.48,-268.38C1580.2,-261 1600.83,-248.87 1613,-232 1641.73,-192.18 1648.79,-132.62 1650.49,-102.46"/>
<polygon fill="midnightblue" stroke="midnightblue" points="1654,-102.25 1650.92,-92.12 1647,-101.96 1654,-102.25"/>
</g>
<!-- Node36&#45;&gt;Node35 -->
<g id="edge56" class="edge">
<title>Node36&#45;&gt;Node35</title>
<path fill="none" stroke="midnightblue" d="M1507.15,-268.4C1488.12,-261.81 1466.37,-250.59 1455,-232 1447.81,-220.25 1451.14,-214.22 1455,-201 1460.32,-182.78 1470.63,-182.5 1478,-165 1486.62,-144.55 1491.72,-119.49 1494.43,-102.6"/>
<polygon fill="midnightblue" stroke="midnightblue" points="1497.94,-102.77 1495.94,-92.37 1491.01,-101.75 1497.94,-102.77"/>
</g>
<!-- Node37 -->
<g id="node37" class="node">
<title>Node37</title>
<g id="a_node37"><a xlink:href="ResourceManager_8hpp.html" target="_top" xlink:title=" ">
<polygon fill="none" stroke="black" points="1341,-134.5 1341,-164.5 1469,-164.5 1469,-134.5 1341,-134.5"/>
<text text-anchor="start" x="1349" y="-152.5" font-family="Helvetica,sans-Serif" font-size="10.00">walberla_bridge/utils</text>
<text text-anchor="middle" x="1405" y="-141.5" font-family="Helvetica,sans-Serif" font-size="10.00">/ResourceManager.hpp</text>
</a>
</g>
</g>
<!-- Node36&#45;&gt;Node37 -->
<g id="edge45" class="edge">
<title>Node36&#45;&gt;Node37</title>
<path fill="none" stroke="midnightblue" d="M1487.06,-268.45C1463.8,-262.12 1438.44,-251.12 1422,-232 1408.5,-216.3 1404.79,-192.65 1404.13,-174.86"/>
<polygon fill="midnightblue" stroke="midnightblue" points="1407.63,-174.64 1404.06,-164.67 1400.63,-174.69 1407.63,-174.64"/>
</g>
<!-- Node40 -->
<g id="node40" class="node">
<title>Node40</title>
<g id="a_node40"><a xlink:href="walberla__init_8hpp.html" target="_top" xlink:title=" ">
<polygon fill="none" stroke="black" points="1464,-201.5 1464,-231.5 1604,-231.5 1604,-201.5 1464,-201.5"/>
<text text-anchor="start" x="1472" y="-219.5" font-family="Helvetica,sans-Serif" font-size="10.00">walberla_bridge/walberla</text>
<text text-anchor="middle" x="1534" y="-208.5" font-family="Helvetica,sans-Serif" font-size="10.00">_init.hpp</text>
</a>
</g>
</g>
<!-- Node36&#45;&gt;Node40 -->
<g id="edge50" class="edge">
<title>Node36&#45;&gt;Node40</title>
<path fill="none" stroke="midnightblue" d="M1541.71,-268.48C1540.65,-261.47 1539.1,-251.19 1537.66,-241.7"/>
<polygon fill="midnightblue" stroke="midnightblue" points="1541.08,-240.89 1536.12,-231.52 1534.16,-241.93 1541.08,-240.89"/>
</g>
<!-- Node36&#45;&gt;Node41 -->
<g id="edge55" class="edge">
<title>Node36&#45;&gt;Node41</title>
<path fill="none" stroke="midnightblue" d="M1480.87,-268.47C1433.04,-261.09 1365.59,-248.94 1308,-232 1305.57,-231.28 1303.07,-230.47 1300.59,-229.59"/>
<polygon fill="midnightblue" stroke="midnightblue" points="1301.78,-226.3 1291.19,-226.03 1299.3,-232.85 1301.78,-226.3"/>
</g>
<!-- Node37&#45;&gt;Node34 -->
<g id="edge47" class="edge">
<title>Node37&#45;&gt;Node34</title>
<path fill="none" stroke="midnightblue" d="M1458.08,-134.48C1504.4,-122.24 1570.53,-104.76 1612.09,-93.78"/>
<polygon fill="midnightblue" stroke="midnightblue" points="1613.07,-97.14 1621.85,-91.2 1611.29,-90.37 1613.07,-97.14"/>
</g>
<!-- Node37&#45;&gt;Node35 -->
<g id="edge49" class="edge">
<title>Node37&#45;&gt;Node35</title>
<path fill="none" stroke="midnightblue" d="M1424.96,-134.4C1440.25,-123.6 1461.25,-108.76 1476.64,-97.89"/>
<polygon fill="midnightblue" stroke="midnightblue" points="1478.81,-100.64 1484.96,-92.01 1474.77,-94.92 1478.81,-100.64"/>
</g>
<!-- Node38 -->
<g id="node38" class="node">
<title>Node38</title>
<g id="a_node38"><a xlink:title=" ">
<polygon fill="none" stroke="#bfbfbf" points="1356,-73 1356,-92 1388,-92 1388,-73 1356,-73"/>
<text text-anchor="middle" x="1372" y="-80" font-family="Helvetica,sans-Serif" font-size="10.00">list</text>
</a>
</g>
</g>
<!-- Node37&#45;&gt;Node38 -->
<g id="edge46" class="edge">
<title>Node37&#45;&gt;Node38</title>
<path fill="none" stroke="midnightblue" d="M1397.84,-134.4C1392.9,-124.66 1386.29,-111.65 1380.99,-101.21"/>
<polygon fill="midnightblue" stroke="midnightblue" points="1384.06,-99.53 1376.41,-92.19 1377.82,-102.7 1384.06,-99.53"/>
</g>
<!-- Node39 -->
<g id="node39" class="node">
<title>Node39</title>
<g id="a_node39"><a xlink:title=" ">
<polygon fill="none" stroke="#bfbfbf" points="1406.5,-73 1406.5,-92 1449.5,-92 1449.5,-73 1406.5,-73"/>
<text text-anchor="middle" x="1428" y="-80" font-family="Helvetica,sans-Serif" font-size="10.00">stack</text>
</a>
</g>
</g>
<!-- Node37&#45;&gt;Node39 -->
<g id="edge48" class="edge">
<title>Node37&#45;&gt;Node39</title>
<path fill="none" stroke="midnightblue" d="M1409.99,-134.4C1413.36,-124.86 1417.85,-112.18 1421.5,-101.86"/>
<polygon fill="midnightblue" stroke="midnightblue" points="1424.89,-102.79 1424.92,-92.19 1418.29,-100.45 1424.89,-102.79"/>
</g>
<!-- Node40&#45;&gt;Node34 -->
<g id="edge52" class="edge">
<title>Node40&#45;&gt;Node34</title>
<path fill="none" stroke="midnightblue" d="M1546.52,-201.37C1568.44,-176.65 1613.61,-125.68 1636.71,-99.62"/>
<polygon fill="midnightblue" stroke="midnightblue" points="1639.37,-101.9 1643.38,-92.1 1634.13,-97.26 1639.37,-101.9"/>
</g>
<!-- Node40&#45;&gt;Node37 -->
<g id="edge51" class="edge">
<title>Node40&#45;&gt;Node37</title>
<path fill="none" stroke="midnightblue" d="M1506.01,-201.4C1487.25,-191.94 1462.33,-179.39 1441.95,-169.12"/>
<polygon fill="midnightblue" stroke="midnightblue" points="1443.44,-165.95 1432.94,-164.58 1440.29,-172.2 1443.44,-165.95"/>
</g>
<!-- Node45&#45;&gt;Node4 -->
<g id="edge71" class="edge">
<title>Node45&#45;&gt;Node4</title>
<path fill="none" stroke="midnightblue" d="M1618.77,-492.43C1549.14,-473.57 1423.69,-438.04 1319,-400 1259.49,-378.38 1245.41,-370.7 1188,-344 1151.5,-327.03 1110.07,-305.79 1084.23,-292.3"/>
<polygon fill="midnightblue" stroke="midnightblue" points="1085.61,-289.08 1075.13,-287.54 1082.37,-295.28 1085.61,-289.08"/>
</g>
<!-- Node45&#45;&gt;Node33 -->
<g id="edge74" class="edge">
<title>Node45&#45;&gt;Node33</title>
<path fill="none" stroke="midnightblue" d="M1752.21,-492.39C1772.03,-484.92 1791,-473.48 1803,-456 1868.19,-361.01 1771.95,-216.33 1735.24,-167.37"/>
<polygon fill="midnightblue" stroke="midnightblue" points="1737.8,-164.95 1728.94,-159.13 1732.24,-169.2 1737.8,-164.95"/>
</g>
<!-- Node45&#45;&gt;Node34 -->
<g id="edge72" class="edge">
<title>Node45&#45;&gt;Node34</title>
<path fill="none" stroke="midnightblue" d="M1757.12,-497.3C1821.18,-485.1 1898,-456.76 1898,-391 1898,-391 1898,-391 1898,-215.5 1898,-175.53 1890.93,-159.31 1860,-134 1811.22,-94.08 1735.87,-84.85 1690.22,-83.2"/>
<polygon fill="midnightblue" stroke="midnightblue" points="1690.2,-79.69 1680.11,-82.93 1690.02,-86.69 1690.2,-79.69"/>
</g>
<!-- Node45&#45;&gt;Node35 -->
<g id="edge73" class="edge">
<title>Node45&#45;&gt;Node35</title>
<path fill="none" stroke="midnightblue" d="M1675.34,-492.32C1678.82,-477.99 1684.66,-455.26 1691,-436 1733.91,-305.68 1842.2,-239.93 1755,-134 1740.75,-116.68 1596.28,-96.19 1529.97,-87.6"/>
<polygon fill="midnightblue" stroke="midnightblue" points="1530.02,-84.08 1519.65,-86.28 1529.13,-91.02 1530.02,-84.08"/>
</g>
<!-- Node46 -->
<g id="node46" class="node">
<title>Node46</title>
<g id="a_node46"><a xlink:href="walberla__bridge_2include_2walberla__bridge_2electrokinetics_2reactions_2EKReactant_8hpp.html" target="_top" xlink:title=" ">
<polygon fill="none" stroke="black" points="1700,-436.5 1700,-455.5 1794,-455.5 1794,-436.5 1700,-436.5"/>
<text text-anchor="middle" x="1747" y="-443.5" font-family="Helvetica,sans-Serif" font-size="10.00">EKReactant.hpp</text>
</a>
</g>
</g>
<!-- Node45&#45;&gt;Node46 -->
<g id="edge67" class="edge">
<title>Node45&#45;&gt;Node46</title>
<path fill="none" stroke="midnightblue" d="M1689.77,-492.4C1701.35,-483.22 1716.42,-471.26 1728.2,-461.92"/>
<polygon fill="midnightblue" stroke="midnightblue" points="1730.43,-464.61 1736.09,-455.66 1726.08,-459.13 1730.43,-464.61"/>
</g>
<!-- Node46&#45;&gt;Node2 -->
<g id="edge68" class="edge">
<title>Node46&#45;&gt;Node2</title>
<path fill="none" stroke="midnightblue" d="M1699.73,-437.83C1637.53,-428.4 1527.88,-411.76 1457.39,-401.07"/>
<polygon fill="midnightblue" stroke="midnightblue" points="1457.69,-397.58 1447.28,-399.54 1456.64,-404.5 1457.69,-397.58"/>
</g>
<!-- Node46&#45;&gt;Node34 -->
<g id="edge69" class="edge">
<title>Node46&#45;&gt;Node34</title>
<path fill="none" stroke="midnightblue" d="M1767.2,-436.49C1799.7,-421.29 1860,-386.2 1860,-335 1860,-335 1860,-335 1860,-215.5 1860,-177.74 1862.96,-160.43 1836,-134 1796.99,-95.76 1731.98,-85.79 1690.33,-83.57"/>
<polygon fill="midnightblue" stroke="midnightblue" points="1690.41,-80.07 1680.27,-83.15 1690.12,-87.06 1690.41,-80.07"/>
</g>
<!-- Node46&#45;&gt;Node35 -->
<g id="edge70" class="edge">
<title>Node46&#45;&gt;Node35</title>
<path fill="none" stroke="midnightblue" d="M1754.19,-436.28C1772.96,-412.59 1822,-344.46 1822,-279 1822,-279 1822,-279 1822,-215.5 1822,-177.74 1826.26,-159.05 1798,-134 1787.96,-125.1 1605.51,-98.69 1529.65,-88.03"/>
<polygon fill="midnightblue" stroke="midnightblue" points="1530.08,-84.56 1519.69,-86.64 1529.11,-91.49 1530.08,-84.56"/>
</g>
<!-- Node47&#45;&gt;Node5 -->
<g id="edge77" class="edge">
<title>Node47&#45;&gt;Node5</title>
<path fill="none" stroke="midnightblue" d="M1357.1,-559.32C1268.72,-502.12 938.87,-288.62 850.76,-231.58"/>
<polygon fill="midnightblue" stroke="midnightblue" points="852.63,-228.62 842.33,-226.13 848.82,-234.5 852.63,-228.62"/>
</g>
<!-- Node47&#45;&gt;Node44 -->
<g id="edge78" class="edge">
<title>Node47&#45;&gt;Node44</title>
<path fill="none" stroke="midnightblue" d="M1397.52,-559.29C1452.51,-517.13 1614.46,-392.93 1670.59,-349.89"/>
<polygon fill="midnightblue" stroke="midnightblue" points="1672.85,-352.57 1678.65,-343.7 1668.59,-347.01 1672.85,-352.57"/>
</g>
<!-- Node47&#45;&gt;Node45 -->
<g id="edge76" class="edge">
<title>Node47&#45;&gt;Node45</title>
<path fill="none" stroke="midnightblue" d="M1442.22,-559.48C1488.16,-549.28 1550.46,-535.46 1598.6,-524.78"/>
<polygon fill="midnightblue" stroke="midnightblue" points="1599.64,-528.14 1608.65,-522.55 1598.12,-521.3 1599.64,-528.14"/>
</g>
</g>
</svg>
