<?xml version="1.0" encoding="UTF-8" standalone="no"?>
<!DOCTYPE svg PUBLIC "-//W3C//DTD SVG 1.1//EN"
 "http://www.w3.org/Graphics/SVG/1.1/DTD/svg11.dtd">
<!-- Generated by graphviz version 2.43.0 (0)
 -->
<!-- Title: ek_poisson_fft_init.cpp Pages: 1 -->
<svg width="1907pt" height="475pt"
 viewBox="0.00 0.00 1906.75 475.00" xmlns="http://www.w3.org/2000/svg" xmlns:xlink="http://www.w3.org/1999/xlink">
<g id="graph0" class="graph" transform="scale(1 1) rotate(0) translate(4 471)">
<title>ek_poisson_fft_init.cpp</title>
<!-- Node1 -->
<g id="node1" class="node">
<title>Node1</title>
<g id="a_node1"><a xlink:title=" ">
<polygon fill="#bfbfbf" stroke="black" points="1171.25,-447.5 1171.25,-466.5 1299.25,-466.5 1299.25,-447.5 1171.25,-447.5"/>
<text text-anchor="middle" x="1235.25" y="-454.5" font-family="Helvetica,sans-Serif" font-size="10.00">ek_poisson_fft_init.cpp</text>
</a>
</g>
</g>
<!-- Node2 -->
<g id="node2" class="node">
<title>Node2</title>
<g id="a_node2"><a xlink:href="walberla__bridge_2include_2walberla__bridge_2LatticeWalberla_8hpp.html" target="_top" xlink:title=" ">
<polygon fill="none" stroke="black" points="916.25,-252 916.25,-271 1110.25,-271 1110.25,-252 916.25,-252"/>
<text text-anchor="middle" x="1013.25" y="-259" font-family="Helvetica,sans-Serif" font-size="10.00">walberla_bridge/LatticeWalberla.hpp</text>
</a>
</g>
</g>
<!-- Node1&#45;&gt;Node2 -->
<g id="edge1" class="edge">
<title>Node1&#45;&gt;Node2</title>
<path fill="none" stroke="midnightblue" d="M1228.13,-447.39C1220.66,-438.35 1208.59,-423.71 1198.25,-411 1162.92,-367.61 1163.15,-347.67 1119.25,-313 1098.02,-296.24 1070.32,-283.29 1048.56,-274.7"/>
<polygon fill="midnightblue" stroke="midnightblue" points="1049.62,-271.35 1039.03,-271.06 1047.12,-277.89 1049.62,-271.35"/>
</g>
<!-- Node32 -->
<g id="node32" class="node">
<title>Node32</title>
<g id="a_node32"><a xlink:title=" ">
<polygon fill="none" stroke="#bfbfbf" points="1347.25,-190.5 1347.25,-209.5 1405.25,-209.5 1405.25,-190.5 1347.25,-190.5"/>
<text text-anchor="middle" x="1376.25" y="-197.5" font-family="Helvetica,sans-Serif" font-size="10.00">memory</text>
</a>
</g>
</g>
<!-- Node1&#45;&gt;Node32 -->
<g id="edge66" class="edge">
<title>Node1&#45;&gt;Node32</title>
<path fill="none" stroke="midnightblue" d="M1299.27,-450.35C1329.06,-444.66 1362.96,-433.35 1386.25,-411 1439.76,-359.64 1435.32,-316.16 1411.25,-246 1407.53,-235.16 1400.01,-224.92 1392.9,-216.96"/>
<polygon fill="midnightblue" stroke="midnightblue" points="1395.25,-214.35 1385.8,-209.55 1390.19,-219.19 1395.25,-214.35"/>
</g>
<!-- Node34 -->
<g id="node34" class="node">
<title>Node34</title>
<g id="a_node34"><a xlink:href="FFT_8hpp.html" target="_top" xlink:title=" ">
<polygon fill="none" stroke="black" points="644.25,-380.5 644.25,-410.5 814.25,-410.5 814.25,-380.5 644.25,-380.5"/>
<text text-anchor="start" x="652.25" y="-398.5" font-family="Helvetica,sans-Serif" font-size="10.00">walberla_bridge/electrokinetics</text>
<text text-anchor="middle" x="729.25" y="-387.5" font-family="Helvetica,sans-Serif" font-size="10.00">/PoissonSolver/FFT.hpp</text>
</a>
</g>
</g>
<!-- Node1&#45;&gt;Node34 -->
<g id="edge42" class="edge">
<title>Node1&#45;&gt;Node34</title>
<path fill="none" stroke="midnightblue" d="M1171.16,-448.46C1083.53,-438.16 925.64,-419.59 824.24,-407.67"/>
<polygon fill="midnightblue" stroke="midnightblue" points="824.64,-404.19 814.3,-406.5 823.82,-411.15 824.64,-404.19"/>
</g>
<!-- Node45 -->
<g id="node45" class="node">
<title>Node45</title>
<g id="a_node45"><a xlink:href="ek__poisson__fft__init_8hpp.html" target="_top" xlink:title=" ">
<polygon fill="none" stroke="black" points="1207.25,-380.5 1207.25,-410.5 1377.25,-410.5 1377.25,-380.5 1207.25,-380.5"/>
<text text-anchor="start" x="1215.25" y="-398.5" font-family="Helvetica,sans-Serif" font-size="10.00">walberla_bridge/electrokinetics</text>
<text text-anchor="middle" x="1292.25" y="-387.5" font-family="Helvetica,sans-Serif" font-size="10.00">/ek_poisson_fft_init.hpp</text>
</a>
</g>
</g>
<!-- Node1&#45;&gt;Node45 -->
<g id="edge62" class="edge">
<title>Node1&#45;&gt;Node45</title>
<path fill="none" stroke="midnightblue" d="M1243.41,-447.48C1250.77,-439.79 1261.9,-428.17 1271.68,-417.96"/>
<polygon fill="midnightblue" stroke="midnightblue" points="1274.42,-420.17 1278.81,-410.52 1269.37,-415.32 1274.42,-420.17"/>
</g>
<!-- Node3 -->
<g id="node3" class="node">
<title>Node3</title>
<g id="a_node3"><a xlink:href="Vector_8hpp.html" target="_top" xlink:title="Vector implementation and trait types for boost qvm interoperability.">
<polygon fill="none" stroke="black" points="559.25,-190.5 559.25,-209.5 651.25,-209.5 651.25,-190.5 559.25,-190.5"/>
<text text-anchor="middle" x="605.25" y="-197.5" font-family="Helvetica,sans-Serif" font-size="10.00">utils/Vector.hpp</text>
</a>
</g>
</g>
<!-- Node2&#45;&gt;Node3 -->
<g id="edge2" class="edge">
<title>Node2&#45;&gt;Node3</title>
<path fill="none" stroke="midnightblue" d="M954.79,-251.98C876.45,-240.55 738.36,-220.41 661.27,-209.17"/>
<polygon fill="midnightblue" stroke="midnightblue" points="661.67,-205.69 651.27,-207.71 660.66,-212.62 661.67,-205.69"/>
</g>
<!-- Node8 -->
<g id="node8" class="node">
<title>Node8</title>
<g id="a_node8"><a xlink:title=" ">
<polygon fill="none" stroke="#bfbfbf" points="273.25,-6 273.25,-25 325.25,-25 325.25,-6 273.25,-6"/>
<text text-anchor="middle" x="299.25" y="-13" font-family="Helvetica,sans-Serif" font-size="10.00">cassert</text>
</a>
</g>
</g>
<!-- Node2&#45;&gt;Node8 -->
<g id="edge37" class="edge">
<title>Node2&#45;&gt;Node8</title>
<path fill="none" stroke="midnightblue" d="M916.13,-255.29C799.26,-248.31 597.26,-233.93 425.25,-210 295.23,-191.91 260.65,-192.81 135.25,-154 75.54,-135.52 40.53,-150.26 6.25,-98 -1.31,-86.48 -2.63,-77.54 6.25,-67 38.67,-28.51 191.69,-19.36 262.78,-17.18"/>
<polygon fill="midnightblue" stroke="midnightblue" points="263.15,-20.67 273.05,-16.9 262.96,-13.67 263.15,-20.67"/>
</g>
<!-- Node26 -->
<g id="node26" class="node">
<title>Node26</title>
<g id="a_node26"><a xlink:title=" ">
<polygon fill="none" stroke="#bfbfbf" points="1183.75,-134.5 1183.75,-153.5 1230.75,-153.5 1230.75,-134.5 1183.75,-134.5"/>
<text text-anchor="middle" x="1207.25" y="-141.5" font-family="Helvetica,sans-Serif" font-size="10.00">cmath</text>
</a>
</g>
</g>
<!-- Node2&#45;&gt;Node26 -->
<g id="edge38" class="edge">
<title>Node2&#45;&gt;Node26</title>
<path fill="none" stroke="midnightblue" d="M1023.16,-251.89C1039.75,-237.76 1074.57,-209.29 1107.25,-190 1128.94,-177.19 1154.93,-165.6 1174.98,-157.39"/>
<polygon fill="midnightblue" stroke="midnightblue" points="1176.32,-160.62 1184.3,-153.64 1173.71,-154.13 1176.32,-160.62"/>
</g>
<!-- Node28 -->
<g id="node28" class="node">
<title>Node28</title>
<g id="a_node28"><a xlink:title=" ">
<polygon fill="none" stroke="#bfbfbf" points="144.75,-134.5 144.75,-153.5 227.75,-153.5 227.75,-134.5 144.75,-134.5"/>
<text text-anchor="middle" x="186.25" y="-141.5" font-family="Helvetica,sans-Serif" font-size="10.00">initializer_list</text>
</a>
</g>
</g>
<!-- Node2&#45;&gt;Node28 -->
<g id="edge39" class="edge">
<title>Node2&#45;&gt;Node28</title>
<path fill="none" stroke="midnightblue" d="M917.68,-251.99C823.9,-243.19 676.9,-228.19 550.25,-210 438.35,-193.93 308.17,-169.21 237.8,-155.35"/>
<polygon fill="midnightblue" stroke="midnightblue" points="238.35,-151.89 227.86,-153.38 236.99,-158.76 238.35,-151.89"/>
</g>
<!-- Node2&#45;&gt;Node32 -->
<g id="edge40" class="edge">
<title>Node2&#45;&gt;Node32</title>
<path fill="none" stroke="midnightblue" d="M1065.25,-251.98C1138.76,-239.93 1271.38,-218.19 1337.12,-207.41"/>
<polygon fill="midnightblue" stroke="midnightblue" points="1337.78,-210.85 1347.08,-205.78 1336.64,-203.94 1337.78,-210.85"/>
</g>
<!-- Node33 -->
<g id="node33" class="node">
<title>Node33</title>
<g id="a_node33"><a xlink:title=" ">
<polygon fill="none" stroke="#bfbfbf" points="1115.75,-190.5 1115.75,-209.5 1160.75,-209.5 1160.75,-190.5 1115.75,-190.5"/>
<text text-anchor="middle" x="1138.25" y="-197.5" font-family="Helvetica,sans-Serif" font-size="10.00">utility</text>
</a>
</g>
</g>
<!-- Node2&#45;&gt;Node33 -->
<g id="edge41" class="edge">
<title>Node2&#45;&gt;Node33</title>
<path fill="none" stroke="midnightblue" d="M1031.15,-251.98C1052.13,-241.99 1087.09,-225.35 1111.34,-213.81"/>
<polygon fill="midnightblue" stroke="midnightblue" points="1112.84,-216.97 1120.37,-209.51 1109.84,-210.65 1112.84,-216.97"/>
</g>
<!-- Node4 -->
<g id="node4" class="node">
<title>Node4</title>
<g id="a_node4"><a xlink:title=" ">
<polygon fill="none" stroke="#bfbfbf" points="819.25,-134.5 819.25,-153.5 969.25,-153.5 969.25,-134.5 819.25,-134.5"/>
<text text-anchor="middle" x="894.25" y="-141.5" font-family="Helvetica,sans-Serif" font-size="10.00">boost/qvm/deduce_vec.hpp</text>
</a>
</g>
</g>
<!-- Node3&#45;&gt;Node4 -->
<g id="edge3" class="edge">
<title>Node3&#45;&gt;Node4</title>
<path fill="none" stroke="midnightblue" d="M651.04,-190.44C701.98,-180.92 784.28,-165.55 838.82,-155.36"/>
<polygon fill="midnightblue" stroke="midnightblue" points="839.48,-158.79 848.67,-153.52 838.19,-151.91 839.48,-158.79"/>
</g>
<!-- Node5 -->
<g id="node5" class="node">
<title>Node5</title>
<g id="a_node5"><a xlink:title=" ">
<polygon fill="none" stroke="#bfbfbf" points="987.25,-134.5 987.25,-153.5 1127.25,-153.5 1127.25,-134.5 987.25,-134.5"/>
<text text-anchor="middle" x="1057.25" y="-141.5" font-family="Helvetica,sans-Serif" font-size="10.00">boost/qvm/vec_traits.hpp</text>
</a>
</g>
</g>
<!-- Node3&#45;&gt;Node5 -->
<g id="edge4" class="edge">
<title>Node3&#45;&gt;Node5</title>
<path fill="none" stroke="midnightblue" d="M651.37,-192.7C658.36,-191.77 665.49,-190.85 672.25,-190 729.34,-182.83 881.97,-165.16 977.01,-154.21"/>
<polygon fill="midnightblue" stroke="midnightblue" points="977.63,-157.67 987.16,-153.05 976.83,-150.71 977.63,-157.67"/>
</g>
<!-- Node6 -->
<g id="node6" class="node">
<title>Node6</title>
<g id="a_node6"><a xlink:href="Array_8hpp.html" target="_top" xlink:title="Array implementation with CUDA support.">
<polygon fill="none" stroke="black" points="650.25,-134.5 650.25,-153.5 736.25,-153.5 736.25,-134.5 650.25,-134.5"/>
<text text-anchor="middle" x="693.25" y="-141.5" font-family="Helvetica,sans-Serif" font-size="10.00">utils/Array.hpp</text>
</a>
</g>
</g>
<!-- Node3&#45;&gt;Node6 -->
<g id="edge5" class="edge">
<title>Node3&#45;&gt;Node6</title>
<path fill="none" stroke="midnightblue" d="M619.38,-190.32C633.11,-181.9 654.18,-168.97 670.31,-159.07"/>
<polygon fill="midnightblue" stroke="midnightblue" points="672.45,-161.87 679.14,-153.65 668.79,-155.9 672.45,-161.87"/>
</g>
<!-- Node3&#45;&gt;Node8 -->
<g id="edge28" class="edge">
<title>Node3&#45;&gt;Node8</title>
<path fill="none" stroke="midnightblue" d="M559.2,-194.33C470.66,-185.12 284.5,-164.6 275.25,-154 245.6,-120.03 271.72,-62.81 288.21,-34.07"/>
<polygon fill="midnightblue" stroke="midnightblue" points="291.4,-35.56 293.53,-25.18 285.39,-31.97 291.4,-35.56"/>
</g>
<!-- Node10 -->
<g id="node10" class="node">
<title>Node10</title>
<g id="a_node10"><a xlink:title=" ">
<polygon fill="none" stroke="#bfbfbf" points="753.75,-6 753.75,-25 806.75,-25 806.75,-6 753.75,-6"/>
<text text-anchor="middle" x="780.25" y="-13" font-family="Helvetica,sans-Serif" font-size="10.00">cstddef</text>
</a>
</g>
</g>
<!-- Node3&#45;&gt;Node10 -->
<g id="edge30" class="edge">
<title>Node3&#45;&gt;Node10</title>
<path fill="none" stroke="midnightblue" d="M651.34,-192.46C658.33,-191.57 665.48,-190.72 672.25,-190 723.67,-184.56 1101.12,-191.95 1136.25,-154 1218.77,-64.82 850.36,-39.49 820.25,-31 817.45,-30.21 814.56,-29.32 811.68,-28.38"/>
<polygon fill="midnightblue" stroke="midnightblue" points="812.66,-25.02 802.06,-25.06 810.37,-31.63 812.66,-25.02"/>
</g>
<!-- Node22 -->
<g id="node22" class="node">
<title>Node22</title>
<g id="a_node22"><a xlink:title=" ">
<polygon fill="none" stroke="#bfbfbf" points="458.75,-73 458.75,-92 511.75,-92 511.75,-73 458.75,-73"/>
<text text-anchor="middle" x="485.25" y="-80" font-family="Helvetica,sans-Serif" font-size="10.00">iterator</text>
</a>
</g>
</g>
<!-- Node3&#45;&gt;Node22 -->
<g id="edge33" class="edge">
<title>Node3&#45;&gt;Node22</title>
<path fill="none" stroke="midnightblue" d="M558.98,-195.67C503.75,-190.61 416.3,-178.83 396.25,-154 376.35,-129.37 416.47,-107.89 449.12,-95.3"/>
<polygon fill="midnightblue" stroke="midnightblue" points="450.33,-98.59 458.5,-91.84 447.91,-92.02 450.33,-98.59"/>
</g>
<!-- Node25 -->
<g id="node25" class="node">
<title>Node25</title>
<g id="a_node25"><a xlink:title=" ">
<polygon fill="none" stroke="#bfbfbf" points="284.25,-134.5 284.25,-153.5 348.25,-153.5 348.25,-134.5 284.25,-134.5"/>
<text text-anchor="middle" x="316.25" y="-141.5" font-family="Helvetica,sans-Serif" font-size="10.00">algorithm</text>
</a>
</g>
</g>
<!-- Node3&#45;&gt;Node25 -->
<g id="edge27" class="edge">
<title>Node3&#45;&gt;Node25</title>
<path fill="none" stroke="midnightblue" d="M559.09,-190.6C510.19,-181.66 430.73,-167.04 362.25,-154 360.99,-153.76 359.71,-153.52 358.42,-153.27"/>
<polygon fill="midnightblue" stroke="midnightblue" points="358.89,-149.8 348.41,-151.34 357.56,-156.67 358.89,-149.8"/>
</g>
<!-- Node3&#45;&gt;Node26 -->
<g id="edge29" class="edge">
<title>Node3&#45;&gt;Node26</title>
<path fill="none" stroke="midnightblue" d="M651.33,-192.43C658.33,-191.54 665.47,-190.7 672.25,-190 892.54,-167.25 950.35,-187.63 1169.25,-154 1170.71,-153.77 1172.2,-153.52 1173.71,-153.25"/>
<polygon fill="midnightblue" stroke="midnightblue" points="1174.55,-156.65 1183.64,-151.21 1173.14,-149.79 1174.55,-156.65"/>
</g>
<!-- Node27 -->
<g id="node27" class="node">
<title>Node27</title>
<g id="a_node27"><a xlink:title=" ">
<polygon fill="none" stroke="#bfbfbf" points="404.75,-134.5 404.75,-153.5 469.75,-153.5 469.75,-134.5 404.75,-134.5"/>
<text text-anchor="middle" x="437.25" y="-141.5" font-family="Helvetica,sans-Serif" font-size="10.00">functional</text>
</a>
</g>
</g>
<!-- Node3&#45;&gt;Node27 -->
<g id="edge31" class="edge">
<title>Node3&#45;&gt;Node27</title>
<path fill="none" stroke="midnightblue" d="M578.63,-190.44C550.24,-181.32 505.11,-166.81 473.49,-156.65"/>
<polygon fill="midnightblue" stroke="midnightblue" points="474.33,-153.24 463.74,-153.52 472.19,-159.91 474.33,-153.24"/>
</g>
<!-- Node3&#45;&gt;Node28 -->
<g id="edge32" class="edge">
<title>Node3&#45;&gt;Node28</title>
<path fill="none" stroke="midnightblue" d="M559.05,-193.81C490.01,-185.94 355.88,-170.17 242.25,-154 240.78,-153.79 239.3,-153.58 237.8,-153.36"/>
<polygon fill="midnightblue" stroke="midnightblue" points="238.22,-149.88 227.81,-151.85 237.18,-156.8 238.22,-149.88"/>
</g>
<!-- Node29 -->
<g id="node29" class="node">
<title>Node29</title>
<g id="a_node29"><a xlink:title=" ">
<polygon fill="none" stroke="#bfbfbf" points="488.25,-134.5 488.25,-153.5 544.25,-153.5 544.25,-134.5 488.25,-134.5"/>
<text text-anchor="middle" x="516.25" y="-141.5" font-family="Helvetica,sans-Serif" font-size="10.00">numeric</text>
</a>
</g>
</g>
<!-- Node3&#45;&gt;Node29 -->
<g id="edge34" class="edge">
<title>Node3&#45;&gt;Node29</title>
<path fill="none" stroke="midnightblue" d="M590.95,-190.32C577.06,-181.9 555.75,-168.97 539.44,-159.07"/>
<polygon fill="midnightblue" stroke="midnightblue" points="540.87,-155.85 530.51,-153.65 537.24,-161.83 540.87,-155.85"/>
</g>
<!-- Node30 -->
<g id="node30" class="node">
<title>Node30</title>
<g id="a_node30"><a xlink:title=" ">
<polygon fill="none" stroke="#bfbfbf" points="562.75,-134.5 562.75,-153.5 631.75,-153.5 631.75,-134.5 562.75,-134.5"/>
<text text-anchor="middle" x="597.25" y="-141.5" font-family="Helvetica,sans-Serif" font-size="10.00">type_traits</text>
</a>
</g>
</g>
<!-- Node3&#45;&gt;Node30 -->
<g id="edge35" class="edge">
<title>Node3&#45;&gt;Node30</title>
<path fill="none" stroke="midnightblue" d="M603.92,-190.08C602.86,-182.93 601.34,-172.64 600.01,-163.69"/>
<polygon fill="midnightblue" stroke="midnightblue" points="603.47,-163.13 598.54,-153.75 596.55,-164.16 603.47,-163.13"/>
</g>
<!-- Node31 -->
<g id="node31" class="node">
<title>Node31</title>
<g id="a_node31"><a xlink:title=" ">
<polygon fill="none" stroke="#bfbfbf" points="754.75,-134.5 754.75,-153.5 801.75,-153.5 801.75,-134.5 754.75,-134.5"/>
<text text-anchor="middle" x="778.25" y="-141.5" font-family="Helvetica,sans-Serif" font-size="10.00">vector</text>
</a>
</g>
</g>
<!-- Node3&#45;&gt;Node31 -->
<g id="edge36" class="edge">
<title>Node3&#45;&gt;Node31</title>
<path fill="none" stroke="midnightblue" d="M632.66,-190.44C663.14,-180.93 712.37,-165.56 745.01,-155.37"/>
<polygon fill="midnightblue" stroke="midnightblue" points="746.07,-158.71 754.57,-152.39 743.99,-152.03 746.07,-158.71"/>
</g>
<!-- Node7 -->
<g id="node7" class="node">
<title>Node7</title>
<g id="a_node7"><a xlink:href="device__qualifier_8hpp.html" target="_top" xlink:title=" ">
<polygon fill="none" stroke="black" points="284.25,-73 284.25,-92 398.25,-92 398.25,-73 284.25,-73"/>
<text text-anchor="middle" x="341.25" y="-80" font-family="Helvetica,sans-Serif" font-size="10.00">device_qualifier.hpp</text>
</a>
</g>
</g>
<!-- Node6&#45;&gt;Node7 -->
<g id="edge6" class="edge">
<title>Node6&#45;&gt;Node7</title>
<path fill="none" stroke="midnightblue" d="M650.12,-135.52C647.12,-135 644.14,-134.49 641.25,-134 558.56,-119.89 463.01,-103.85 402.38,-93.71"/>
<polygon fill="midnightblue" stroke="midnightblue" points="402.66,-90.2 392.22,-92.01 401.5,-97.11 402.66,-90.2"/>
</g>
<!-- Node6&#45;&gt;Node8 -->
<g id="edge22" class="edge">
<title>Node6&#45;&gt;Node8</title>
<path fill="none" stroke="midnightblue" d="M676.58,-134.34C646.35,-118.92 580.13,-86.5 521.25,-67 457.16,-45.77 379.76,-30.39 335.35,-22.5"/>
<polygon fill="midnightblue" stroke="midnightblue" points="335.78,-19.02 325.32,-20.75 334.57,-25.92 335.78,-19.02"/>
</g>
<!-- Node9 -->
<g id="node9" class="node">
<title>Node9</title>
<g id="a_node9"><a xlink:href="get_8hpp.html" target="_top" xlink:title=" ">
<polygon fill="none" stroke="black" points="611.75,-73 611.75,-92 664.75,-92 664.75,-73 611.75,-73"/>
<text text-anchor="middle" x="638.25" y="-80" font-family="Helvetica,sans-Serif" font-size="10.00">get.hpp</text>
</a>
</g>
</g>
<!-- Node6&#45;&gt;Node9 -->
<g id="edge8" class="edge">
<title>Node6&#45;&gt;Node9</title>
<path fill="none" stroke="midnightblue" d="M685.37,-134.48C676.95,-125.37 663.43,-110.74 653.02,-99.48"/>
<polygon fill="midnightblue" stroke="midnightblue" points="655.47,-96.98 646.11,-92.01 650.33,-101.73 655.47,-96.98"/>
</g>
<!-- Node6&#45;&gt;Node10 -->
<g id="edge23" class="edge">
<title>Node6&#45;&gt;Node10</title>
<path fill="none" stroke="midnightblue" d="M693.7,-134.27C694.87,-119.3 698.95,-88.3 713.25,-67 723.57,-51.62 740.16,-39.06 754.26,-30.31"/>
<polygon fill="midnightblue" stroke="midnightblue" points="756.22,-33.22 763.06,-25.13 752.67,-27.19 756.22,-33.22"/>
</g>
<!-- Node12 -->
<g id="node12" class="node">
<title>Node12</title>
<g id="a_node12"><a xlink:href="array_8hpp.html" target="_top" xlink:title=" ">
<polygon fill="none" stroke="black" points="1287.75,-73 1287.75,-92 1412.75,-92 1412.75,-73 1287.75,-73"/>
<text text-anchor="middle" x="1350.25" y="-80" font-family="Helvetica,sans-Serif" font-size="10.00">serialization/array.hpp</text>
</a>
</g>
</g>
<!-- Node6&#45;&gt;Node12 -->
<g id="edge11" class="edge">
<title>Node6&#45;&gt;Node12</title>
<path fill="none" stroke="midnightblue" d="M736.3,-135.38C739.66,-134.88 743,-134.41 746.25,-134 937.07,-109.86 1163.33,-94.45 1277.13,-87.61"/>
<polygon fill="midnightblue" stroke="midnightblue" points="1277.68,-91.08 1287.46,-86.99 1277.27,-84.09 1277.68,-91.08"/>
</g>
<!-- Node21 -->
<g id="node21" class="node">
<title>Node21</title>
<g id="a_node21"><a xlink:title=" ">
<polygon fill="none" stroke="#bfbfbf" points="879.75,-67.5 879.75,-97.5 986.75,-97.5 986.75,-67.5 879.75,-67.5"/>
<text text-anchor="start" x="887.75" y="-85.5" font-family="Helvetica,sans-Serif" font-size="10.00">boost/serialization</text>
<text text-anchor="middle" x="933.25" y="-74.5" font-family="Helvetica,sans-Serif" font-size="10.00">/access.hpp</text>
</a>
</g>
</g>
<!-- Node6&#45;&gt;Node21 -->
<g id="edge21" class="edge">
<title>Node6&#45;&gt;Node21</title>
<path fill="none" stroke="midnightblue" d="M727.63,-134.48C764.58,-125.31 824.13,-110.55 869.66,-99.26"/>
<polygon fill="midnightblue" stroke="midnightblue" points="870.57,-102.64 879.44,-96.84 868.89,-95.85 870.57,-102.64"/>
</g>
<!-- Node6&#45;&gt;Node22 -->
<g id="edge24" class="edge">
<title>Node6&#45;&gt;Node22</title>
<path fill="none" stroke="midnightblue" d="M663.44,-134.48C626.06,-123.78 561.99,-105.45 521.72,-93.93"/>
<polygon fill="midnightblue" stroke="midnightblue" points="522.6,-90.54 512.02,-91.16 520.67,-97.27 522.6,-90.54"/>
</g>
<!-- Node23 -->
<g id="node23" class="node">
<title>Node23</title>
<g id="a_node23"><a xlink:title=" ">
<polygon fill="none" stroke="#bfbfbf" points="721.75,-73 721.75,-92 778.75,-92 778.75,-73 721.75,-73"/>
<text text-anchor="middle" x="750.25" y="-80" font-family="Helvetica,sans-Serif" font-size="10.00">ostream</text>
</a>
</g>
</g>
<!-- Node6&#45;&gt;Node23 -->
<g id="edge25" class="edge">
<title>Node6&#45;&gt;Node23</title>
<path fill="none" stroke="midnightblue" d="M701.41,-134.48C710.13,-125.37 724.15,-110.74 734.93,-99.48"/>
<polygon fill="midnightblue" stroke="midnightblue" points="737.7,-101.65 742.09,-92.01 732.65,-96.81 737.7,-101.65"/>
</g>
<!-- Node24 -->
<g id="node24" class="node">
<title>Node24</title>
<g id="a_node24"><a xlink:title=" ">
<polygon fill="none" stroke="#bfbfbf" points="796.75,-73 796.75,-92 861.75,-92 861.75,-73 796.75,-73"/>
<text text-anchor="middle" x="829.25" y="-80" font-family="Helvetica,sans-Serif" font-size="10.00">stdexcept</text>
</a>
</g>
</g>
<!-- Node6&#45;&gt;Node24 -->
<g id="edge26" class="edge">
<title>Node6&#45;&gt;Node24</title>
<path fill="none" stroke="midnightblue" d="M712.73,-134.48C735.66,-124.45 773.93,-107.7 800.32,-96.15"/>
<polygon fill="midnightblue" stroke="midnightblue" points="802.04,-99.22 809.8,-92.01 799.23,-92.81 802.04,-99.22"/>
</g>
<!-- Node7&#45;&gt;Node8 -->
<g id="edge7" class="edge">
<title>Node7&#45;&gt;Node8</title>
<path fill="none" stroke="midnightblue" d="M335.58,-72.73C329.16,-62.79 318.53,-46.34 310.42,-33.79"/>
<polygon fill="midnightblue" stroke="midnightblue" points="313.19,-31.63 304.82,-25.13 307.31,-35.43 313.19,-31.63"/>
</g>
<!-- Node9&#45;&gt;Node10 -->
<g id="edge9" class="edge">
<title>Node9&#45;&gt;Node10</title>
<path fill="none" stroke="midnightblue" d="M657.1,-72.87C681.4,-61.75 723.85,-42.32 752,-29.43"/>
<polygon fill="midnightblue" stroke="midnightblue" points="753.67,-32.51 761.31,-25.17 750.76,-26.15 753.67,-32.51"/>
</g>
<!-- Node11 -->
<g id="node11" class="node">
<title>Node11</title>
<g id="a_node11"><a xlink:title=" ">
<polygon fill="none" stroke="#bfbfbf" points="617.75,-6 617.75,-25 658.75,-25 658.75,-6 617.75,-6"/>
<text text-anchor="middle" x="638.25" y="-13" font-family="Helvetica,sans-Serif" font-size="10.00">tuple</text>
</a>
</g>
</g>
<!-- Node9&#45;&gt;Node11 -->
<g id="edge10" class="edge">
<title>Node9&#45;&gt;Node11</title>
<path fill="none" stroke="midnightblue" d="M638.25,-72.73C638.25,-63.18 638.25,-47.62 638.25,-35.28"/>
<polygon fill="midnightblue" stroke="midnightblue" points="641.75,-35.13 638.25,-25.13 634.75,-35.13 641.75,-35.13"/>
</g>
<!-- Node12&#45;&gt;Node10 -->
<g id="edge20" class="edge">
<title>Node12&#45;&gt;Node10</title>
<path fill="none" stroke="midnightblue" d="M1309.22,-72.93C1297.63,-70.74 1284.98,-68.57 1273.25,-67 1073.05,-40.27 1017.63,-73.8 820.25,-31 817,-30.3 813.65,-29.39 810.35,-28.38"/>
<polygon fill="midnightblue" stroke="midnightblue" points="811.29,-25 800.69,-25.11 809.04,-31.63 811.29,-25"/>
</g>
<!-- Node13 -->
<g id="node13" class="node">
<title>Node13</title>
<g id="a_node13"><a xlink:title=" ">
<polygon fill="none" stroke="#bfbfbf" points="1209.75,-6 1209.75,-25 1342.75,-25 1342.75,-6 1209.75,-6"/>
<text text-anchor="middle" x="1276.25" y="-13" font-family="Helvetica,sans-Serif" font-size="10.00">boost/mpl/bool_fwd.hpp</text>
</a>
</g>
</g>
<!-- Node12&#45;&gt;Node13 -->
<g id="edge12" class="edge">
<title>Node12&#45;&gt;Node13</title>
<path fill="none" stroke="midnightblue" d="M1340.27,-72.73C1328.39,-62.31 1308.36,-44.71 1293.86,-31.97"/>
<polygon fill="midnightblue" stroke="midnightblue" points="1295.89,-29.1 1286.07,-25.13 1291.27,-34.36 1295.89,-29.1"/>
</g>
<!-- Node14 -->
<g id="node14" class="node">
<title>Node14</title>
<g id="a_node14"><a xlink:title=" ">
<polygon fill="none" stroke="#bfbfbf" points="1361.25,-6 1361.25,-25 1485.25,-25 1485.25,-6 1361.25,-6"/>
<text text-anchor="middle" x="1423.25" y="-13" font-family="Helvetica,sans-Serif" font-size="10.00">boost/mpl/greater.hpp</text>
</a>
</g>
</g>
<!-- Node12&#45;&gt;Node14 -->
<g id="edge13" class="edge">
<title>Node12&#45;&gt;Node14</title>
<path fill="none" stroke="midnightblue" d="M1360.09,-72.73C1371.8,-62.31 1391.56,-44.71 1405.87,-31.97"/>
<polygon fill="midnightblue" stroke="midnightblue" points="1408.42,-34.39 1413.56,-25.13 1403.76,-29.16 1408.42,-34.39"/>
</g>
<!-- Node15 -->
<g id="node15" class="node">
<title>Node15</title>
<g id="a_node15"><a xlink:title=" ">
<polygon fill="none" stroke="#bfbfbf" points="1503.25,-6 1503.25,-25 1605.25,-25 1605.25,-6 1503.25,-6"/>
<text text-anchor="middle" x="1554.25" y="-13" font-family="Helvetica,sans-Serif" font-size="10.00">boost/mpl/int.hpp</text>
</a>
</g>
</g>
<!-- Node12&#45;&gt;Node15 -->
<g id="edge14" class="edge">
<title>Node12&#45;&gt;Node15</title>
<path fill="none" stroke="midnightblue" d="M1377.33,-72.87C1413.4,-61.38 1477.33,-41.01 1517.66,-28.16"/>
<polygon fill="midnightblue" stroke="midnightblue" points="1518.9,-31.43 1527.37,-25.06 1516.78,-24.76 1518.9,-31.43"/>
</g>
<!-- Node16 -->
<g id="node16" class="node">
<title>Node16</title>
<g id="a_node16"><a xlink:title=" ">
<polygon fill="none" stroke="#bfbfbf" points="1623.25,-0.5 1623.25,-30.5 1729.25,-30.5 1729.25,-0.5 1623.25,-0.5"/>
<text text-anchor="start" x="1631.25" y="-18.5" font-family="Helvetica,sans-Serif" font-size="10.00">boost/mpl/integral</text>
<text text-anchor="middle" x="1676.25" y="-7.5" font-family="Helvetica,sans-Serif" font-size="10.00">_c_tag.hpp</text>
</a>
</g>
</g>
<!-- Node12&#45;&gt;Node16 -->
<g id="edge15" class="edge">
<title>Node12&#45;&gt;Node16</title>
<path fill="none" stroke="midnightblue" d="M1398.06,-72.96C1448.96,-63.73 1532.12,-48.27 1613.29,-31.16"/>
<polygon fill="midnightblue" stroke="midnightblue" points="1614.12,-34.56 1623.18,-29.06 1612.67,-27.71 1614.12,-34.56"/>
</g>
<!-- Node17 -->
<g id="node17" class="node">
<title>Node17</title>
<g id="a_node17"><a xlink:title=" ">
<polygon fill="none" stroke="#bfbfbf" points="1747.75,-0.5 1747.75,-30.5 1898.75,-30.5 1898.75,-0.5 1747.75,-0.5"/>
<text text-anchor="start" x="1755.75" y="-18.5" font-family="Helvetica,sans-Serif" font-size="10.00">boost/serialization</text>
<text text-anchor="middle" x="1823.25" y="-7.5" font-family="Helvetica,sans-Serif" font-size="10.00">/is_bitwise_serializable.hpp</text>
</a>
</g>
</g>
<!-- Node12&#45;&gt;Node17 -->
<g id="edge16" class="edge">
<title>Node12&#45;&gt;Node17</title>
<path fill="none" stroke="midnightblue" d="M1412.85,-74.12C1487.53,-65.15 1616.42,-49.12 1737.53,-31.07"/>
<polygon fill="midnightblue" stroke="midnightblue" points="1738.36,-34.49 1747.73,-29.54 1737.32,-27.56 1738.36,-34.49"/>
</g>
<!-- Node18 -->
<g id="node18" class="node">
<title>Node18</title>
<g id="a_node18"><a xlink:title=" ">
<polygon fill="none" stroke="#bfbfbf" points="828.75,-0.5 828.75,-30.5 935.75,-30.5 935.75,-0.5 828.75,-0.5"/>
<text text-anchor="start" x="836.75" y="-18.5" font-family="Helvetica,sans-Serif" font-size="10.00">boost/serialization</text>
<text text-anchor="middle" x="882.25" y="-7.5" font-family="Helvetica,sans-Serif" font-size="10.00">/level.hpp</text>
</a>
</g>
</g>
<!-- Node12&#45;&gt;Node18 -->
<g id="edge17" class="edge">
<title>Node12&#45;&gt;Node18</title>
<path fill="none" stroke="midnightblue" d="M1307.98,-72.94C1296.72,-70.82 1284.55,-68.68 1273.25,-67 1131.45,-45.9 1091.62,-55.05 945.98,-30.98"/>
<polygon fill="midnightblue" stroke="midnightblue" points="946.22,-27.47 935.78,-29.27 945.06,-34.38 946.22,-27.47"/>
</g>
<!-- Node19 -->
<g id="node19" class="node">
<title>Node19</title>
<g id="a_node19"><a xlink:title=" ">
<polygon fill="none" stroke="#bfbfbf" points="953.75,-0.5 953.75,-30.5 1060.75,-30.5 1060.75,-0.5 953.75,-0.5"/>
<text text-anchor="start" x="961.75" y="-18.5" font-family="Helvetica,sans-Serif" font-size="10.00">boost/serialization</text>
<text text-anchor="middle" x="1007.25" y="-7.5" font-family="Helvetica,sans-Serif" font-size="10.00">/tracking.hpp</text>
</a>
</g>
</g>
<!-- Node12&#45;&gt;Node19 -->
<g id="edge18" class="edge">
<title>Node12&#45;&gt;Node19</title>
<path fill="none" stroke="midnightblue" d="M1305.47,-72.99C1294.91,-71 1283.68,-68.91 1273.25,-67 1186.19,-51.08 1161.69,-49.38 1070.73,-31.04"/>
<polygon fill="midnightblue" stroke="midnightblue" points="1071.32,-27.58 1060.82,-29.03 1069.93,-34.44 1071.32,-27.58"/>
</g>
<!-- Node20 -->
<g id="node20" class="node">
<title>Node20</title>
<g id="a_node20"><a xlink:title=" ">
<polygon fill="none" stroke="#bfbfbf" points="1078.75,-0.5 1078.75,-30.5 1191.75,-30.5 1191.75,-0.5 1078.75,-0.5"/>
<text text-anchor="start" x="1086.75" y="-18.5" font-family="Helvetica,sans-Serif" font-size="10.00">boost/serialization</text>
<text text-anchor="middle" x="1135.25" y="-7.5" font-family="Helvetica,sans-Serif" font-size="10.00">/tracking_enum.hpp</text>
</a>
</g>
</g>
<!-- Node12&#45;&gt;Node20 -->
<g id="edge19" class="edge">
<title>Node12&#45;&gt;Node20</title>
<path fill="none" stroke="midnightblue" d="M1321.69,-72.87C1288.6,-62.86 1233.24,-46.13 1191.42,-33.48"/>
<polygon fill="midnightblue" stroke="midnightblue" points="1192.23,-30.07 1181.65,-30.53 1190.21,-36.77 1192.23,-30.07"/>
</g>
<!-- Node34&#45;&gt;Node10 -->
<g id="edge59" class="edge">
<title>Node34&#45;&gt;Node10</title>
<path fill="none" stroke="midnightblue" d="M644.02,-393.82C469.55,-391.65 84.26,-382.49 39.25,-344 10.98,-319.83 20.25,-299.69 20.25,-262.5 20.25,-262.5 20.25,-262.5 20.25,-143 20.25,-39.54 556.43,-43.35 668.25,-31 693.37,-28.22 721.59,-24.57 743.42,-21.62"/>
<polygon fill="midnightblue" stroke="midnightblue" points="744.14,-25.05 753.58,-20.24 743.2,-18.12 744.14,-25.05"/>
</g>
<!-- Node34&#45;&gt;Node26 -->
<g id="edge58" class="edge">
<title>Node34&#45;&gt;Node26</title>
<path fill="none" stroke="midnightblue" d="M718.19,-380.28C706.17,-362.96 690.51,-333.47 705.25,-313 762.28,-233.77 1070.39,-170.34 1173.56,-151.05"/>
<polygon fill="midnightblue" stroke="midnightblue" points="1174.25,-154.48 1183.45,-149.22 1172.98,-147.6 1174.25,-154.48"/>
</g>
<!-- Node34&#45;&gt;Node32 -->
<g id="edge60" class="edge">
<title>Node34&#45;&gt;Node32</title>
<path fill="none" stroke="midnightblue" d="M814.51,-393.49C977.08,-390.72 1318.72,-380.57 1357.25,-344 1391.21,-311.75 1385.69,-250.29 1380.25,-219.52"/>
<polygon fill="midnightblue" stroke="midnightblue" points="1383.68,-218.82 1378.32,-209.68 1376.81,-220.17 1383.68,-218.82"/>
</g>
<!-- Node34&#45;&gt;Node33 -->
<g id="edge61" class="edge">
<title>Node34&#45;&gt;Node33</title>
<path fill="none" stroke="midnightblue" d="M814.67,-395.14C916.37,-393.97 1077.72,-385.39 1119.25,-344 1152.28,-311.08 1147.31,-250.39 1142.14,-219.75"/>
<polygon fill="midnightblue" stroke="midnightblue" points="1145.52,-218.78 1140.23,-209.6 1138.64,-220.07 1145.52,-218.78"/>
</g>
<!-- Node35 -->
<g id="node35" class="node">
<title>Node35</title>
<g id="a_node35"><a xlink:href="PoissonSolver_8hpp.html" target="_top" xlink:title=" ">
<polygon fill="none" stroke="black" points="1242.75,-319 1242.75,-338 1347.75,-338 1347.75,-319 1242.75,-319"/>
<text text-anchor="middle" x="1295.25" y="-326" font-family="Helvetica,sans-Serif" font-size="10.00">PoissonSolver.hpp</text>
</a>
</g>
</g>
<!-- Node34&#45;&gt;Node35 -->
<g id="edge43" class="edge">
<title>Node34&#45;&gt;Node35</title>
<path fill="none" stroke="midnightblue" d="M814.29,-384.73C929.01,-371.56 1130.67,-348.4 1232.56,-336.7"/>
<polygon fill="midnightblue" stroke="midnightblue" points="1233.16,-340.15 1242.7,-335.53 1232.36,-333.2 1233.16,-340.15"/>
</g>
<!-- Node36 -->
<g id="node36" class="node">
<title>Node36</title>
<g id="a_node36"><a xlink:title=" ">
<polygon fill="none" stroke="#bfbfbf" points="960.25,-313.5 960.25,-343.5 1110.25,-343.5 1110.25,-313.5 960.25,-313.5"/>
<text text-anchor="start" x="968.25" y="-331.5" font-family="Helvetica,sans-Serif" font-size="10.00">blockforest/communication</text>
<text text-anchor="middle" x="1035.25" y="-320.5" font-family="Helvetica,sans-Serif" font-size="10.00">/UniformBufferedScheme.h</text>
</a>
</g>
</g>
<!-- Node34&#45;&gt;Node36 -->
<g id="edge48" class="edge">
<title>Node34&#45;&gt;Node36</title>
<path fill="none" stroke="midnightblue" d="M795.27,-380.48C843.44,-370.24 908.85,-356.35 959.22,-345.65"/>
<polygon fill="midnightblue" stroke="midnightblue" points="960.02,-349.06 969.08,-343.55 958.57,-342.21 960.02,-349.06"/>
</g>
<!-- Node37 -->
<g id="node37" class="node">
<title>Node37</title>
<g id="a_node37"><a xlink:title=" ">
<polygon fill="none" stroke="#bfbfbf" points="48.75,-313.5 48.75,-343.5 179.75,-343.5 179.75,-313.5 48.75,-313.5"/>
<text text-anchor="start" x="56.75" y="-331.5" font-family="Helvetica,sans-Serif" font-size="10.00">domain_decomposition</text>
<text text-anchor="middle" x="114.25" y="-320.5" font-family="Helvetica,sans-Serif" font-size="10.00">/BlockDataID.h</text>
</a>
</g>
</g>
<!-- Node34&#45;&gt;Node37 -->
<g id="edge49" class="edge">
<title>Node34&#45;&gt;Node37</title>
<path fill="none" stroke="midnightblue" d="M643.83,-389.1C539.21,-381.91 356.41,-367.45 189.96,-344.01"/>
<polygon fill="midnightblue" stroke="midnightblue" points="190.43,-340.54 180.03,-342.6 189.44,-347.47 190.43,-340.54"/>
</g>
<!-- Node38 -->
<g id="node38" class="node">
<title>Node38</title>
<g id="a_node38"><a xlink:title=" ">
<polygon fill="none" stroke="#bfbfbf" points="198.25,-319 198.25,-338 250.25,-338 250.25,-319 198.25,-319"/>
<text text-anchor="middle" x="224.25" y="-326" font-family="Helvetica,sans-Serif" font-size="10.00">fft/Fft.h</text>
</a>
</g>
</g>
<!-- Node34&#45;&gt;Node38 -->
<g id="edge50" class="edge">
<title>Node34&#45;&gt;Node38</title>
<path fill="none" stroke="midnightblue" d="M643.9,-392.62C548.72,-388.85 390.85,-377.59 259.25,-344 256.74,-343.36 254.17,-342.57 251.63,-341.7"/>
<polygon fill="midnightblue" stroke="midnightblue" points="252.66,-338.35 242.07,-338.04 250.16,-344.89 252.66,-338.35"/>
</g>
<!-- Node39 -->
<g id="node39" class="node">
<title>Node39</title>
<g id="a_node39"><a xlink:title=" ">
<polygon fill="none" stroke="#bfbfbf" points="268.25,-319 268.25,-338 384.25,-338 384.25,-319 268.25,-319"/>
<text text-anchor="middle" x="326.25" y="-326" font-family="Helvetica,sans-Serif" font-size="10.00">field/AddToStorage.h</text>
</a>
</g>
</g>
<!-- Node34&#45;&gt;Node39 -->
<g id="edge51" class="edge">
<title>Node34&#45;&gt;Node39</title>
<path fill="none" stroke="midnightblue" d="M644.07,-383.23C576,-373.86 478.25,-359.57 393.25,-344 386.95,-342.85 380.33,-341.54 373.82,-340.19"/>
<polygon fill="midnightblue" stroke="midnightblue" points="374.23,-336.7 363.72,-338.05 372.78,-343.55 374.23,-336.7"/>
</g>
<!-- Node40 -->
<g id="node40" class="node">
<title>Node40</title>
<g id="a_node40"><a xlink:title=" ">
<polygon fill="none" stroke="#bfbfbf" points="402.25,-319 402.25,-338 530.25,-338 530.25,-319 402.25,-319"/>
<text text-anchor="middle" x="466.25" y="-326" font-family="Helvetica,sans-Serif" font-size="10.00">field/GhostLayerField.h</text>
</a>
</g>
</g>
<!-- Node34&#45;&gt;Node40 -->
<g id="edge52" class="edge">
<title>Node34&#45;&gt;Node40</title>
<path fill="none" stroke="midnightblue" d="M672.5,-380.48C624.03,-368.5 555.27,-351.5 510.7,-340.49"/>
<polygon fill="midnightblue" stroke="midnightblue" points="511.3,-337.03 500.75,-338.03 509.62,-343.83 511.3,-337.03"/>
</g>
<!-- Node41 -->
<g id="node41" class="node">
<title>Node41</title>
<g id="a_node41"><a xlink:title=" ">
<polygon fill="none" stroke="#bfbfbf" points="714.25,-313.5 714.25,-343.5 830.25,-343.5 830.25,-313.5 714.25,-313.5"/>
<text text-anchor="start" x="722.25" y="-331.5" font-family="Helvetica,sans-Serif" font-size="10.00">field/communication</text>
<text text-anchor="middle" x="772.25" y="-320.5" font-family="Helvetica,sans-Serif" font-size="10.00">/PackInfo.h</text>
</a>
</g>
</g>
<!-- Node34&#45;&gt;Node41 -->
<g id="edge53" class="edge">
<title>Node34&#45;&gt;Node41</title>
<path fill="none" stroke="midnightblue" d="M738.58,-380.4C744.04,-372.13 751.07,-361.51 757.29,-352.1"/>
<polygon fill="midnightblue" stroke="midnightblue" points="760.33,-353.85 762.93,-343.58 754.5,-349.99 760.33,-353.85"/>
</g>
<!-- Node42 -->
<g id="node42" class="node">
<title>Node42</title>
<g id="a_node42"><a xlink:title=" ">
<polygon fill="none" stroke="#bfbfbf" points="848.25,-319 848.25,-338 942.25,-338 942.25,-319 848.25,-319"/>
<text text-anchor="middle" x="895.25" y="-326" font-family="Helvetica,sans-Serif" font-size="10.00">stencil/D3Q27.h</text>
</a>
</g>
</g>
<!-- Node34&#45;&gt;Node42 -->
<g id="edge54" class="edge">
<title>Node34&#45;&gt;Node42</title>
<path fill="none" stroke="midnightblue" d="M765.26,-380.4C794.78,-368.84 836.11,-352.66 864.18,-341.66"/>
<polygon fill="midnightblue" stroke="midnightblue" points="865.48,-344.91 873.52,-338.01 862.93,-338.39 865.48,-344.91"/>
</g>
<!-- Node43 -->
<g id="node43" class="node">
<title>Node43</title>
<g id="a_node43"><a xlink:href="constants_8hpp.html" target="_top" xlink:title=" ">
<polygon fill="none" stroke="black" points="548.75,-319 548.75,-338 657.75,-338 657.75,-319 548.75,-319"/>
<text text-anchor="middle" x="603.25" y="-326" font-family="Helvetica,sans-Serif" font-size="10.00">utils/constants.hpp</text>
</a>
</g>
</g>
<!-- Node34&#45;&gt;Node43 -->
<g id="edge55" class="edge">
<title>Node34&#45;&gt;Node43</title>
<path fill="none" stroke="midnightblue" d="M701.91,-380.4C680.19,-369.19 650.04,-353.64 628.8,-342.69"/>
<polygon fill="midnightblue" stroke="midnightblue" points="630.23,-339.48 619.74,-338.01 627.02,-345.7 630.23,-339.48"/>
</g>
<!-- Node35&#45;&gt;Node2 -->
<g id="edge44" class="edge">
<title>Node35&#45;&gt;Node2</title>
<path fill="none" stroke="midnightblue" d="M1258.09,-318.94C1207.26,-307.22 1116.03,-286.19 1060.43,-273.38"/>
<polygon fill="midnightblue" stroke="midnightblue" points="1061.01,-269.92 1050.48,-271.08 1059.44,-276.74 1061.01,-269.92"/>
</g>
<!-- Node35&#45;&gt;Node10 -->
<g id="edge45" class="edge">
<title>Node35&#45;&gt;Node10</title>
<path fill="none" stroke="midnightblue" d="M1290.97,-318.85C1281.44,-298.7 1259.25,-246.9 1259.25,-201 1259.25,-201 1259.25,-201 1259.25,-143 1259.25,-38.65 884.97,-46.75 820.25,-31 817.19,-30.26 814.04,-29.36 810.91,-28.38"/>
<polygon fill="midnightblue" stroke="midnightblue" points="811.75,-24.96 801.16,-25.05 809.49,-31.59 811.75,-24.96"/>
</g>
<!-- Node35&#45;&gt;Node32 -->
<g id="edge46" class="edge">
<title>Node35&#45;&gt;Node32</title>
<path fill="none" stroke="midnightblue" d="M1300.81,-318.81C1314.05,-298.13 1347.6,-245.73 1365.16,-218.32"/>
<polygon fill="midnightblue" stroke="midnightblue" points="1368.19,-220.06 1370.64,-209.76 1362.3,-216.29 1368.19,-220.06"/>
</g>
<!-- Node35&#45;&gt;Node33 -->
<g id="edge47" class="edge">
<title>Node35&#45;&gt;Node33</title>
<path fill="none" stroke="midnightblue" d="M1284.45,-318.81C1258.13,-297.59 1190.33,-242.96 1157.13,-216.22"/>
<polygon fill="midnightblue" stroke="midnightblue" points="1159.09,-213.3 1149.11,-209.76 1154.7,-218.76 1159.09,-213.3"/>
</g>
<!-- Node43&#45;&gt;Node7 -->
<g id="edge56" class="edge">
<title>Node43&#45;&gt;Node7</title>
<path fill="none" stroke="midnightblue" d="M574.5,-318.93C476.77,-289.52 161.97,-192.41 135.25,-154 98.65,-101.4 200.86,-87.55 274.08,-84.19"/>
<polygon fill="midnightblue" stroke="midnightblue" points="274.35,-87.68 284.21,-83.79 274.07,-80.69 274.35,-87.68"/>
</g>
<!-- Node44 -->
<g id="node44" class="node">
<title>Node44</title>
<g id="a_node44"><a xlink:title=" ">
<polygon fill="none" stroke="#bfbfbf" points="536.25,-246.5 536.25,-276.5 658.25,-276.5 658.25,-246.5 536.25,-246.5"/>
<text text-anchor="start" x="544.25" y="-264.5" font-family="Helvetica,sans-Serif" font-size="10.00">boost/math/constants</text>
<text text-anchor="middle" x="597.25" y="-253.5" font-family="Helvetica,sans-Serif" font-size="10.00">/constants.hpp</text>
</a>
</g>
</g>
<!-- Node43&#45;&gt;Node44 -->
<g id="edge57" class="edge">
<title>Node43&#45;&gt;Node44</title>
<path fill="none" stroke="midnightblue" d="M602.44,-318.73C601.68,-310.54 600.52,-297.92 599.48,-286.71"/>
<polygon fill="midnightblue" stroke="midnightblue" points="602.95,-286.22 598.55,-276.59 595.98,-286.87 602.95,-286.22"/>
</g>
<!-- Node45&#45;&gt;Node2 -->
<g id="edge63" class="edge">
<title>Node45&#45;&gt;Node2</title>
<path fill="none" stroke="midnightblue" d="M1276.2,-380.38C1252.4,-359.66 1208.58,-322.45 1190.25,-313 1153.15,-293.87 1107.83,-281.12 1072.34,-273.21"/>
<polygon fill="midnightblue" stroke="midnightblue" points="1072.65,-269.7 1062.14,-271.01 1071.17,-276.54 1072.65,-269.7"/>
</g>
<!-- Node45&#45;&gt;Node32 -->
<g id="edge65" class="edge">
<title>Node45&#45;&gt;Node32</title>
<path fill="none" stroke="midnightblue" d="M1343.39,-380.43C1361.42,-372.74 1379.78,-361.16 1390.25,-344 1414.19,-304.72 1396.37,-247.81 1384.53,-219.07"/>
<polygon fill="midnightblue" stroke="midnightblue" points="1387.58,-217.3 1380.39,-209.52 1381.16,-220.09 1387.58,-217.3"/>
</g>
<!-- Node45&#45;&gt;Node35 -->
<g id="edge64" class="edge">
<title>Node45&#45;&gt;Node35</title>
<path fill="none" stroke="midnightblue" d="M1292.9,-380.4C1293.33,-370.96 1293.91,-358.45 1294.38,-348.19"/>
<polygon fill="midnightblue" stroke="midnightblue" points="1297.88,-348.35 1294.84,-338.19 1290.89,-348.02 1297.88,-348.35"/>
</g>
</g>
</svg>
