<?xml version="1.0" encoding="UTF-8" standalone="no"?>
<!DOCTYPE svg PUBLIC "-//W3C//DTD SVG 1.1//EN"
 "http://www.w3.org/Graphics/SVG/1.1/DTD/svg11.dtd">
<!-- Generated by graphviz version 2.43.0 (0)
 -->
<!-- Title: EKinWalberlaBase.hpp Pages: 1 -->
<!--zoomable 467 -->

<svg id="main" version="1.1" xmlns="http://www.w3.org/2000/svg" xmlns:xlink="http://www.w3.org/1999/xlink" xml:space="preserve" onload="init(evt)">
<style type="text/css"><![CDATA[
.node, .edge {opacity: 0.7;}
.node.selected, .edge.selected {opacity: 1;}
.edge:hover path { stroke: red; }
.edge:hover polygon { stroke: red; fill: red; }
]]></style>

<defs>
  <circle id="rim" cx="0" cy="0" r="7"/>
  <circle id="rim2" cx="0" cy="0" r="3.5"/>
  <g id="zoomPlus">
    <use xlink:href="#rim" fill="#404040"><set attributeName="fill" to="#808080" begin="zoomplus.mouseover" end="zoomplus.mouseout"/></use>
    <path d="M-4,0h8M0,-4v8" fill="none" stroke="white" stroke-width="1.5" pointer-events="none"/>
  </g>
  <g id="zoomMin">
    <use xlink:href="#rim" fill="#404040"><set attributeName="fill" to="#808080" begin="zoomminus.mouseover" end="zoomminus.mouseout"/></use>
    <path d="M-4,0h8" fill="none" stroke="white" stroke-width="1.5" pointer-events="none"/>
  </g>
  <g id="arrowUp" transform="translate(30 24)">
    <use xlink:href="#rim"/>
    <path pointer-events="none" fill="none" stroke="white" stroke-width="1.5" d="M0,-3.0v7 M-2.5,-0.5L0,-3.0L2.5,-0.5"/>
  </g>
  <g id="arrowRight" transform="rotate(90) translate(36 -43)">
    <use xlink:href="#rim"/>
    <path pointer-events="none" fill="none" stroke="white" stroke-width="1.5" d="M0,-3.0v7 M-2.5,-0.5L0,-3.0L2.5,-0.5"/>
  </g>
  <g id="arrowDown" transform="rotate(180) translate(-30 -48)">
    <use xlink:href="#rim"/>
    <path pointer-events="none" fill="none" stroke="white" stroke-width="1.5" d="M0,-3.0v7 M-2.5,-0.5L0,-3.0L2.5,-0.5"/>
  </g>
  <g id="arrowLeft" transform="rotate(270) translate(-36 17)">
    <use xlink:href="#rim"/>
    <path pointer-events="none" fill="none" stroke="white" stroke-width="1.5" d="M0,-3.0v7 M-2.5,-0.5L0,-3.0L2.5,-0.5"/>
  </g>
  <g id="resetDef">
    <use xlink:href="#rim2" fill="#404040"><set attributeName="fill" to="#808080" begin="reset.mouseover" end="reset.mouseout"/></use>
  </g>
</defs>
<script type="application/ecmascript">
var viewWidth = 1288;
var viewHeight = 467;
var sectionId = 'dynsection-1';
</script>
<script type="application/ecmascript" xlink:href="svg.min.js"/>
<svg id="graph" class="graph">
<g id="viewport">
<title>EKinWalberlaBase.hpp</title>
<!-- Node1 -->
<g id="Node000001" class="node">
<title>Node1</title>
<g id="a_Node000001"><a xlink:title=" ">
<polygon fill="#999999" stroke="#666666" points="921,-459 795,-459 795,-440 921,-440 921,-459"/>
<text text-anchor="middle" x="858" y="-447" font-family="Helvetica,sans-Serif" font-size="10.00">EKinWalberlaBase.hpp</text>
</a>
</g>
</g>
<!-- Node2 -->
<g id="Node000002" class="node">
<title>Node2</title>
<g id="a_Node000002"><a xlink:href="script__interface_2walberla_2EKContainer_8hpp.html" target="_top" xlink:title=" ">
<polygon fill="white" stroke="#666666" points="906,-74 810,-74 810,-55 906,-55 906,-74"/>
<text text-anchor="middle" x="858" y="-62" font-family="Helvetica,sans-Serif" font-size="10.00">EKContainer.hpp</text>
</a>
</g>
</g>
<!-- Node1&#45;&gt;Node2 -->
<g id="edge1_Node000001_Node000002" class="edge">
<title>Node1&#45;&gt;Node2</title>
<g id="a_edge1_Node000001_Node000002"><a xlink:title=" ">
<path fill="none" stroke="#63b8ff" d="M858,-429.77C858,-408.23 858,-371.81 858,-340.5 858,-340.5 858,-340.5 858,-173.5 858,-136.56 858,-92.52 858,-74.18"/>
<polygon fill="#63b8ff" stroke="#63b8ff" points="854.5,-429.82 858,-439.82 861.5,-429.82 854.5,-429.82"/>
</a>
</g>
</g>
<!-- Node4 -->
<g id="Node000004" class="node">
<title>Node4</title>
<g id="a_Node000004"><a xlink:href="walberla__bridge_2include_2walberla__bridge_2electrokinetics_2reactions_2EKReactant_8hpp.html" target="_top" xlink:title=" ">
<polygon fill="white" stroke="#666666" points="605,-404 511,-404 511,-385 605,-385 605,-404"/>
<text text-anchor="middle" x="558" y="-392" font-family="Helvetica,sans-Serif" font-size="10.00">EKReactant.hpp</text>
</a>
</g>
</g>
<!-- Node1&#45;&gt;Node4 -->
<g id="edge3_Node000001_Node000004" class="edge">
<title>Node1&#45;&gt;Node4</title>
<g id="a_edge3_Node000001_Node000004"><a xlink:title=" ">
<path fill="none" stroke="#63b8ff" d="M799.9,-438.23C743.12,-428.2 657.76,-413.12 605.09,-403.82"/>
<polygon fill="#63b8ff" stroke="#63b8ff" points="799.34,-441.69 809.8,-439.98 800.56,-434.8 799.34,-441.69"/>
</a>
</g>
</g>
<!-- Node12 -->
<g id="Node000012" class="node">
<title>Node12</title>
<g id="a_Node000012"><a xlink:href="ek__walberla__init_8hpp.html" target="_top" xlink:title=" ">
<polygon fill="white" stroke="#666666" points="642,-239 524,-239 524,-220 642,-220 642,-239"/>
<text text-anchor="middle" x="583" y="-227" font-family="Helvetica,sans-Serif" font-size="10.00">ek_walberla_init.hpp</text>
</a>
</g>
</g>
<!-- Node1&#45;&gt;Node12 -->
<g id="edge47_Node000001_Node000012" class="edge">
<title>Node1&#45;&gt;Node12</title>
<g id="a_edge47_Node000001_Node000012"><a xlink:title=" ">
<path fill="none" stroke="#63b8ff" d="M850.29,-430.3C832.94,-390.17 790.23,-295.96 763,-275 728.44,-248.39 680.03,-237.48 642.13,-233.11"/>
<polygon fill="#63b8ff" stroke="#63b8ff" points="847.15,-431.86 854.3,-439.68 853.58,-429.11 847.15,-431.86"/>
</a>
</g>
</g>
<!-- Node15 -->
<g id="Node000015" class="node">
<title>Node15</title>
<g id="a_Node000015"><a xlink:href="EKWalberla_8cpp.html" target="_top" xlink:title=" ">
<polygon fill="white" stroke="#666666" points="754,-294 662,-294 662,-275 754,-275 754,-294"/>
<text text-anchor="middle" x="708" y="-282" font-family="Helvetica,sans-Serif" font-size="10.00">EKWalberla.cpp</text>
</a>
</g>
</g>
<!-- Node1&#45;&gt;Node15 -->
<g id="edge44_Node000001_Node000015" class="edge">
<title>Node1&#45;&gt;Node15</title>
<g id="a_edge44_Node000001_Node000015"><a xlink:title=" ">
<path fill="none" stroke="#63b8ff" d="M830.7,-434.99C816.63,-427.18 799.8,-416.44 787,-404 751.01,-369.01 722.42,-315 712.13,-294.14"/>
<polygon fill="#63b8ff" stroke="#63b8ff" points="829.44,-438.28 839.91,-439.91 832.74,-432.11 829.44,-438.28"/>
</a>
</g>
</g>
<!-- Node16 -->
<g id="Node000016" class="node">
<title>Node16</title>
<g id="a_Node000016"><a xlink:href="EKSpecies_8hpp.html" target="_top" xlink:title=" ">
<polygon fill="white" stroke="#666666" points="974,-294 886,-294 886,-275 974,-275 974,-294"/>
<text text-anchor="middle" x="930" y="-282" font-family="Helvetica,sans-Serif" font-size="10.00">EKSpecies.hpp</text>
</a>
</g>
</g>
<!-- Node1&#45;&gt;Node16 -->
<g id="edge30_Node000001_Node000016" class="edge">
<title>Node1&#45;&gt;Node16</title>
<g id="a_edge30_Node000001_Node000016"><a xlink:title=" ">
<path fill="none" stroke="#63b8ff" d="M866.05,-430.28C881.49,-395.32 914.76,-320.01 926.11,-294.31"/>
<polygon fill="#63b8ff" stroke="#63b8ff" points="862.71,-429.17 861.87,-439.74 869.11,-432 862.71,-429.17"/>
</a>
</g>
</g>
<!-- Node17 -->
<g id="Node000017" class="node">
<title>Node17</title>
<g id="a_Node000017"><a xlink:href="EKSpeciesNode_8hpp.html" target="_top" xlink:title=" ">
<polygon fill="white" stroke="#666666" points="1075.5,-239 962.5,-239 962.5,-220 1075.5,-220 1075.5,-239"/>
<text text-anchor="middle" x="1019" y="-227" font-family="Helvetica,sans-Serif" font-size="10.00">EKSpeciesNode.hpp</text>
</a>
</g>
</g>
<!-- Node1&#45;&gt;Node17 -->
<g id="edge42_Node000001_Node000017" class="edge">
<title>Node1&#45;&gt;Node17</title>
<g id="a_edge42_Node000001_Node000017"><a xlink:title=" ">
<path fill="none" stroke="#63b8ff" d="M872.22,-432.14C879.43,-423.78 888.26,-413.42 896,-404 935.58,-355.85 948.19,-345.71 983,-294 995.6,-275.29 1008.08,-251.9 1014.52,-239.38"/>
<polygon fill="#63b8ff" stroke="#63b8ff" points="869.57,-429.87 865.67,-439.72 874.86,-434.45 869.57,-429.87"/>
</a>
</g>
</g>
<!-- Node18 -->
<g id="Node000018" class="node">
<title>Node18</title>
<g id="a_Node000018"><a xlink:href="EKSpeciesNode_8cpp.html" target="_top" xlink:title=" ">
<polygon fill="white" stroke="#666666" points="1113.5,-184 1000.5,-184 1000.5,-165 1113.5,-165 1113.5,-184"/>
<text text-anchor="middle" x="1057" y="-172" font-family="Helvetica,sans-Serif" font-size="10.00">EKSpeciesNode.cpp</text>
</a>
</g>
</g>
<!-- Node1&#45;&gt;Node18 -->
<g id="edge41_Node000001_Node000018" class="edge">
<title>Node1&#45;&gt;Node18</title>
<g id="a_edge41_Node000001_Node000018"><a xlink:title=" ">
<path fill="none" stroke="#63b8ff" d="M931.07,-446.27C1003.59,-439.68 1104,-416.79 1104,-340.5 1104,-340.5 1104,-340.5 1104,-283.5 1104,-243.63 1076.73,-201.83 1063.73,-184.18"/>
<polygon fill="#63b8ff" stroke="#63b8ff" points="930.71,-442.78 921.03,-447.09 931.28,-449.76 930.71,-442.78"/>
</a>
</g>
</g>
<!-- Node19 -->
<g id="Node000019" class="node">
<title>Node19</title>
<g id="a_Node000019"><a xlink:href="EKSpeciesSlice_8hpp.html" target="_top" xlink:title=" ">
<polygon fill="white" stroke="#666666" points="1243.5,-239 1132.5,-239 1132.5,-220 1243.5,-220 1243.5,-239"/>
<text text-anchor="middle" x="1188" y="-227" font-family="Helvetica,sans-Serif" font-size="10.00">EKSpeciesSlice.hpp</text>
</a>
</g>
</g>
<!-- Node1&#45;&gt;Node19 -->
<g id="edge43_Node000001_Node000019" class="edge">
<title>Node1&#45;&gt;Node19</title>
<g id="a_edge43_Node000001_Node000019"><a xlink:title=" ">
<path fill="none" stroke="#63b8ff" d="M931.19,-443.87C997.8,-438.28 1089.89,-426.65 1118,-404 1172.37,-360.18 1184.79,-267.59 1187.37,-239.05"/>
<polygon fill="#63b8ff" stroke="#63b8ff" points="930.82,-440.39 921.14,-444.69 931.39,-447.37 930.82,-440.39"/>
</a>
</g>
</g>
<!-- Node21 -->
<g id="Node000021" class="node">
<title>Node21</title>
<g id="a_Node000021"><a xlink:href="EKinWalberlaImpl_8hpp.html" target="_top" xlink:title=" ">
<polygon fill="white" stroke="#666666" points="124,-349 0,-349 0,-330 124,-330 124,-349"/>
<text text-anchor="middle" x="62" y="-337" font-family="Helvetica,sans-Serif" font-size="10.00">EKinWalberlaImpl.hpp</text>
</a>
</g>
</g>
<!-- Node1&#45;&gt;Node21 -->
<g id="edge45_Node000001_Node000021" class="edge">
<title>Node1&#45;&gt;Node21</title>
<g id="a_edge45_Node000001_Node000021"><a xlink:title=" ">
<path fill="none" stroke="#63b8ff" d="M784.61,-439.74C712.59,-431.04 599.67,-417.15 502,-404 364.13,-385.44 202.27,-361.53 118.56,-349.01"/>
<polygon fill="#63b8ff" stroke="#63b8ff" points="784.58,-443.26 794.93,-440.98 785.42,-436.31 784.58,-443.26"/>
</a>
</g>
</g>
<!-- Node3 -->
<g id="Node000003" class="node">
<title>Node3</title>
<g id="a_Node000003"><a xlink:href="walberla_2initialize_8cpp.html" target="_top" xlink:title=" ">
<polygon fill="white" stroke="#666666" points="897.5,-19 818.5,-19 818.5,0 897.5,0 897.5,-19"/>
<text text-anchor="middle" x="858" y="-7" font-family="Helvetica,sans-Serif" font-size="10.00">initialize.cpp</text>
</a>
</g>
</g>
<!-- Node2&#45;&gt;Node3 -->
<g id="edge2_Node000002_Node000003" class="edge">
<title>Node2&#45;&gt;Node3</title>
<g id="a_edge2_Node000002_Node000003"><a xlink:title=" ">
<path fill="none" stroke="#63b8ff" d="M858,-44.66C858,-35.93 858,-25.99 858,-19.09"/>
<polygon fill="#63b8ff" stroke="#63b8ff" points="854.5,-44.75 858,-54.75 861.5,-44.75 854.5,-44.75"/>
</a>
</g>
</g>
<!-- Node5 -->
<g id="Node000005" class="node">
<title>Node5</title>
<g id="a_Node000005"><a xlink:href="script__interface_2walberla_2EKReactant_8hpp.html" target="_top" xlink:title=" ">
<polygon fill="white" stroke="#666666" points="792,-239 698,-239 698,-220 792,-220 792,-239"/>
<text text-anchor="middle" x="745" y="-227" font-family="Helvetica,sans-Serif" font-size="10.00">EKReactant.hpp</text>
</a>
</g>
</g>
<!-- Node4&#45;&gt;Node5 -->
<g id="edge4_Node000004_Node000005" class="edge">
<title>Node4&#45;&gt;Node5</title>
<g id="a_edge4_Node000004_Node000005"><a xlink:title=" ">
<path fill="none" stroke="#63b8ff" d="M614.84,-383.16C663.55,-370.96 730.79,-345.44 763,-294 773.95,-276.52 760.6,-252.23 751.71,-239.34"/>
<polygon fill="#63b8ff" stroke="#63b8ff" points="613.97,-379.77 605.06,-385.49 615.6,-386.57 613.97,-379.77"/>
</a>
</g>
</g>
<!-- Node8 -->
<g id="Node000008" class="node">
<title>Node8</title>
<g id="a_Node000008"><a xlink:href="EKReactionBase_8hpp.html" target="_top" xlink:title=" ">
<polygon fill="white" stroke="#666666" points="616.5,-349 499.5,-349 499.5,-330 616.5,-330 616.5,-349"/>
<text text-anchor="middle" x="558" y="-337" font-family="Helvetica,sans-Serif" font-size="10.00">EKReactionBase.hpp</text>
</a>
</g>
</g>
<!-- Node4&#45;&gt;Node8 -->
<g id="edge11_Node000004_Node000008" class="edge">
<title>Node4&#45;&gt;Node8</title>
<g id="a_edge11_Node000004_Node000008"><a xlink:title=" ">
<path fill="none" stroke="#63b8ff" d="M558,-374.66C558,-365.93 558,-355.99 558,-349.09"/>
<polygon fill="#63b8ff" stroke="#63b8ff" points="554.5,-374.75 558,-384.75 561.5,-374.75 554.5,-374.75"/>
</a>
</g>
</g>
<!-- Node10 -->
<g id="Node000010" class="node">
<title>Node10</title>
<g id="a_Node000010"><a xlink:href="EKReactionImplIndexed_8hpp.html" target="_top" xlink:title=" ">
<polygon fill="white" stroke="#666666" points="317.5,-239 164.5,-239 164.5,-220 317.5,-220 317.5,-239"/>
<text text-anchor="middle" x="241" y="-227" font-family="Helvetica,sans-Serif" font-size="10.00">EKReactionImplIndexed.hpp</text>
</a>
</g>
</g>
<!-- Node4&#45;&gt;Node10 -->
<g id="edge29_Node000004_Node000010" class="edge">
<title>Node4&#45;&gt;Node10</title>
<g id="a_edge29_Node000004_Node000010"><a xlink:title=" ">
<path fill="none" stroke="#63b8ff" d="M500.67,-387.3C403.02,-375.42 211.07,-345.91 171,-294 153.66,-271.53 191.72,-250.43 218.23,-239.11"/>
<polygon fill="#63b8ff" stroke="#63b8ff" points="500.33,-390.78 510.68,-388.49 501.16,-383.83 500.33,-390.78"/>
</a>
</g>
</g>
<!-- Node14 -->
<g id="Node000014" class="node">
<title>Node14</title>
<g id="a_Node000014"><a xlink:href="EKReactionImplBulk_8hpp.html" target="_top" xlink:title=" ">
<polygon fill="white" stroke="#666666" points="317.5,-294 180.5,-294 180.5,-275 317.5,-275 317.5,-294"/>
<text text-anchor="middle" x="249" y="-282" font-family="Helvetica,sans-Serif" font-size="10.00">EKReactionImplBulk.hpp</text>
</a>
</g>
</g>
<!-- Node4&#45;&gt;Node14 -->
<g id="edge28_Node000004_Node000014" class="edge">
<title>Node4&#45;&gt;Node14</title>
<g id="a_edge28_Node000004_Node000014"><a xlink:title=" ">
<path fill="none" stroke="#63b8ff" d="M524.04,-381.63C461.24,-359.68 328.39,-313.25 273.51,-294.07"/>
<polygon fill="#63b8ff" stroke="#63b8ff" points="522.9,-384.94 533.5,-384.94 525.21,-378.33 522.9,-384.94"/>
</a>
</g>
</g>
<!-- Node5&#45;&gt;Node3 -->
<g id="edge10_Node000005_Node000003" class="edge">
<title>Node5&#45;&gt;Node3</title>
<g id="a_edge10_Node000005_Node000003"><a xlink:title=" ">
<path fill="none" stroke="#63b8ff" d="M737.11,-210.25C732.65,-197.45 728.74,-180.01 733,-165 748.71,-109.71 762.64,-97.8 801,-55 813.9,-40.6 831.91,-27.42 844.21,-19.21"/>
<polygon fill="#63b8ff" stroke="#63b8ff" points="733.92,-211.71 740.82,-219.76 740.44,-209.17 733.92,-211.71"/>
</a>
</g>
</g>
<!-- Node6 -->
<g id="Node000006" class="node">
<title>Node6</title>
<g id="a_Node000006"><a xlink:href="EKReaction_8hpp.html" target="_top" xlink:title=" ">
<polygon fill="white" stroke="#666666" points="629.5,-184 536.5,-184 536.5,-165 629.5,-165 629.5,-184"/>
<text text-anchor="middle" x="583" y="-172" font-family="Helvetica,sans-Serif" font-size="10.00">EKReaction.hpp</text>
</a>
</g>
</g>
<!-- Node5&#45;&gt;Node6 -->
<g id="edge5_Node000005_Node000006" class="edge">
<title>Node5&#45;&gt;Node6</title>
<g id="a_edge5_Node000005_Node000006"><a xlink:title=" ">
<path fill="none" stroke="#63b8ff" d="M709.23,-216.8C679,-206.91 636.39,-192.97 609.23,-184.08"/>
<polygon fill="#63b8ff" stroke="#63b8ff" points="708.38,-220.2 718.97,-219.98 710.56,-213.55 708.38,-220.2"/>
</a>
</g>
</g>
<!-- Node6&#45;&gt;Node3 -->
<g id="edge9_Node000006_Node000003" class="edge">
<title>Node6&#45;&gt;Node3</title>
<g id="a_edge9_Node000006_Node000003"><a xlink:title=" ">
<path fill="none" stroke="#63b8ff" d="M584.93,-154.64C587.15,-141.03 591.89,-122.86 602,-110 655.18,-42.33 760.64,-20.62 818.21,-13.7"/>
<polygon fill="#63b8ff" stroke="#63b8ff" points="581.43,-154.41 583.6,-164.78 588.37,-155.32 581.43,-154.41"/>
</a>
</g>
</g>
<!-- Node7 -->
<g id="Node000007" class="node">
<title>Node7</title>
<g id="a_Node000007"><a xlink:href="script__interface_2walberla_2EKReactions_8hpp.html" target="_top" xlink:title=" ">
<polygon fill="white" stroke="#666666" points="709,-129 611,-129 611,-110 709,-110 709,-129"/>
<text text-anchor="middle" x="660" y="-117" font-family="Helvetica,sans-Serif" font-size="10.00">EKReactions.hpp</text>
</a>
</g>
</g>
<!-- Node6&#45;&gt;Node7 -->
<g id="edge6_Node000006_Node000007" class="edge">
<title>Node6&#45;&gt;Node7</title>
<g id="a_edge6_Node000006_Node000007"><a xlink:title=" ">
<path fill="none" stroke="#63b8ff" d="M603.85,-159.15C617.76,-149.57 635.61,-137.29 647.4,-129.17"/>
<polygon fill="#63b8ff" stroke="#63b8ff" points="601.62,-156.43 595.37,-164.98 605.59,-162.2 601.62,-156.43"/>
</a>
</g>
</g>
<!-- Node7&#45;&gt;Node2 -->
<g id="edge7_Node000007_Node000002" class="edge">
<title>Node7&#45;&gt;Node2</title>
<g id="a_edge7_Node000007_Node000002"><a xlink:title=" ">
<path fill="none" stroke="#63b8ff" d="M701.8,-107.31C738.85,-97.39 792.17,-83.12 825.94,-74.08"/>
<polygon fill="#63b8ff" stroke="#63b8ff" points="700.57,-104.02 691.81,-109.98 702.38,-110.78 700.57,-104.02"/>
</a>
</g>
</g>
<!-- Node7&#45;&gt;Node3 -->
<g id="edge8_Node000007_Node000003" class="edge">
<title>Node7&#45;&gt;Node3</title>
<g id="a_edge8_Node000007_Node000003"><a xlink:title=" ">
<path fill="none" stroke="#63b8ff" d="M672.72,-101.83C684.39,-87.57 702.87,-67.45 723,-55 752.49,-36.76 790.27,-25.14 818.36,-18.36"/>
<polygon fill="#63b8ff" stroke="#63b8ff" points="669.85,-99.81 666.38,-109.82 675.34,-104.16 669.85,-99.81"/>
</a>
</g>
</g>
<!-- Node8&#45;&gt;Node6 -->
<g id="edge12_Node000008_Node000006" class="edge">
<title>Node8&#45;&gt;Node6</title>
<g id="a_edge12_Node000008_Node000006"><a xlink:title=" ">
<path fill="none" stroke="#63b8ff" d="M553.45,-319.58C550.01,-306.69 544.73,-289.42 538,-275 529.97,-257.8 520.32,-257.22 515,-239 512.63,-230.89 510.98,-227.43 515,-220 524.33,-202.75 543.57,-191.11 559.22,-184.08"/>
<polygon fill="#63b8ff" stroke="#63b8ff" points="550.14,-320.77 555.99,-329.6 556.92,-319.05 550.14,-320.77"/>
</a>
</g>
</g>
<!-- Node8&#45;&gt;Node7 -->
<g id="edge24_Node000008_Node000007" class="edge">
<title>Node8&#45;&gt;Node7</title>
<g id="a_edge24_Node000008_Node000007"><a xlink:title=" ">
<path fill="none" stroke="#63b8ff" d="M578.56,-323.57C600.81,-306.09 635.22,-274.93 651,-239 667.67,-201.03 663.71,-149.63 661.24,-129.3"/>
<polygon fill="#63b8ff" stroke="#63b8ff" points="576.24,-320.94 570.42,-329.78 580.49,-326.5 576.24,-320.94"/>
</a>
</g>
</g>
<!-- Node9 -->
<g id="Node000009" class="node">
<title>Node9</title>
<g id="a_Node000009"><a xlink:href="EKReactionBaseIndexed_8hpp.html" target="_top" xlink:title=" ">
<polygon fill="white" stroke="#666666" points="529.5,-294 374.5,-294 374.5,-275 529.5,-275 529.5,-294"/>
<text text-anchor="middle" x="452" y="-282" font-family="Helvetica,sans-Serif" font-size="10.00">EKReactionBaseIndexed.hpp</text>
</a>
</g>
</g>
<!-- Node8&#45;&gt;Node9 -->
<g id="edge13_Node000008_Node000009" class="edge">
<title>Node8&#45;&gt;Node9</title>
<g id="a_edge13_Node000008_Node000009"><a xlink:title=" ">
<path fill="none" stroke="#63b8ff" d="M532,-325.5C512.5,-315.75 486.35,-302.68 469.34,-294.17"/>
<polygon fill="#63b8ff" stroke="#63b8ff" points="530.46,-328.64 540.97,-329.98 533.59,-322.38 530.46,-328.64"/>
</a>
</g>
</g>
<!-- Node11 -->
<g id="Node000011" class="node">
<title>Node11</title>
<g id="a_Node000011"><a xlink:href="ek__walberla__init_8cpp.html" target="_top" xlink:title=" ">
<polygon fill="white" stroke="#666666" points="352.5,-184 235.5,-184 235.5,-165 352.5,-165 352.5,-184"/>
<text text-anchor="middle" x="294" y="-172" font-family="Helvetica,sans-Serif" font-size="10.00">ek_walberla_init.cpp</text>
</a>
</g>
</g>
<!-- Node8&#45;&gt;Node11 -->
<g id="edge26_Node000008_Node000011" class="edge">
<title>Node8&#45;&gt;Node11</title>
<g id="a_edge26_Node000008_Node000011"><a xlink:title=" ">
<path fill="none" stroke="#63b8ff" d="M489.23,-336.56C449.41,-332.27 400.34,-321.21 365,-294 335.54,-271.32 345.57,-251.61 326,-220 317.99,-207.05 307.49,-192.91 300.74,-184.12"/>
<polygon fill="#63b8ff" stroke="#63b8ff" points="489.12,-340.07 499.41,-337.54 489.79,-333.1 489.12,-340.07"/>
</a>
</g>
</g>
<!-- Node8&#45;&gt;Node12 -->
<g id="edge27_Node000008_Node000012" class="edge">
<title>Node8&#45;&gt;Node12</title>
<g id="a_edge27_Node000008_Node000012"><a xlink:title=" ">
<path fill="none" stroke="#63b8ff" d="M564.42,-320.04C567.02,-312.09 569.9,-302.66 572,-294 576.7,-274.65 580.18,-251.51 581.87,-239.2"/>
<polygon fill="#63b8ff" stroke="#63b8ff" points="561.02,-319.14 561.14,-329.73 567.66,-321.38 561.02,-319.14"/>
</a>
</g>
</g>
<!-- Node8&#45;&gt;Node14 -->
<g id="edge22_Node000008_Node000014" class="edge">
<title>Node8&#45;&gt;Node14</title>
<g id="a_edge22_Node000008_Node000014"><a xlink:title=" ">
<path fill="none" stroke="#63b8ff" d="M498.23,-328.25C440.2,-318.3 353.15,-303.36 298.78,-294.04"/>
<polygon fill="#63b8ff" stroke="#63b8ff" points="497.91,-331.74 508.35,-329.98 499.09,-324.84 497.91,-331.74"/>
</a>
</g>
</g>
<!-- Node8&#45;&gt;Node15 -->
<g id="edge25_Node000008_Node000015" class="edge">
<title>Node8&#45;&gt;Node15</title>
<g id="a_edge25_Node000008_Node000015"><a xlink:title=" ">
<path fill="none" stroke="#63b8ff" d="M591.82,-326.55C619.68,-316.71 658.51,-302.98 683.46,-294.17"/>
<polygon fill="#63b8ff" stroke="#63b8ff" points="590.36,-323.35 582.1,-329.98 592.69,-329.95 590.36,-323.35"/>
</a>
</g>
</g>
<!-- Node9&#45;&gt;Node6 -->
<g id="edge14_Node000009_Node000006" class="edge">
<title>Node9&#45;&gt;Node6</title>
<g id="a_edge14_Node000009_Node000006"><a xlink:title=" ">
<path fill="none" stroke="#63b8ff" d="M456.87,-265.05C461.37,-251.12 469.32,-232.35 482,-220 500.26,-202.22 526.8,-190.9 548.1,-184.13"/>
<polygon fill="#63b8ff" stroke="#63b8ff" points="453.41,-264.39 453.97,-274.97 460.13,-266.35 453.41,-264.39"/>
</a>
</g>
</g>
<!-- Node9&#45;&gt;Node10 -->
<g id="edge15_Node000009_Node000010" class="edge">
<title>Node9&#45;&gt;Node10</title>
<g id="a_edge15_Node000009_Node000010"><a xlink:title=" ">
<path fill="none" stroke="#63b8ff" d="M408.21,-272.5C368.7,-262.58 311.38,-248.18 275.17,-239.08"/>
<polygon fill="#63b8ff" stroke="#63b8ff" points="407.55,-275.94 418.1,-274.98 409.25,-269.15 407.55,-275.94"/>
</a>
</g>
</g>
<!-- Node9&#45;&gt;Node11 -->
<g id="edge17_Node000009_Node000011" class="edge">
<title>Node9&#45;&gt;Node11</title>
<g id="a_edge17_Node000009_Node000011"><a xlink:title=" ">
<path fill="none" stroke="#63b8ff" d="M431.21,-269.05C412.59,-256.14 384.52,-236.73 360,-220 341.73,-207.54 320.52,-193.27 307.18,-184.32"/>
<polygon fill="#63b8ff" stroke="#63b8ff" points="429.32,-272 439.53,-274.83 433.31,-266.25 429.32,-272"/>
</a>
</g>
</g>
<!-- Node9&#45;&gt;Node12 -->
<g id="edge18_Node000009_Node000012" class="edge">
<title>Node9&#45;&gt;Node12</title>
<g id="a_edge18_Node000009_Node000012"><a xlink:title=" ">
<path fill="none" stroke="#63b8ff" d="M482.5,-271.16C506.75,-261.35 540.07,-247.87 561.57,-239.17"/>
<polygon fill="#63b8ff" stroke="#63b8ff" points="481,-267.99 473.05,-274.98 483.63,-274.48 481,-267.99"/>
</a>
</g>
</g>
<!-- Node10&#45;&gt;Node11 -->
<g id="edge16_Node000010_Node000011" class="edge">
<title>Node10&#45;&gt;Node11</title>
<g id="a_edge16_Node000010_Node000011"><a xlink:title=" ">
<path fill="none" stroke="#63b8ff" d="M256.98,-212.52C266.32,-203.18 277.75,-191.75 285.41,-184.09"/>
<polygon fill="#63b8ff" stroke="#63b8ff" points="254.35,-210.2 249.75,-219.75 259.3,-215.15 254.35,-210.2"/>
</a>
</g>
</g>
<!-- Node12&#45;&gt;Node6 -->
<g id="edge19_Node000012_Node000006" class="edge">
<title>Node12&#45;&gt;Node6</title>
<g id="a_edge19_Node000012_Node000006"><a xlink:title=" ">
<path fill="none" stroke="#63b8ff" d="M583,-209.66C583,-200.93 583,-190.99 583,-184.09"/>
<polygon fill="#63b8ff" stroke="#63b8ff" points="579.5,-209.75 583,-219.75 586.5,-209.75 579.5,-209.75"/>
</a>
</g>
</g>
<!-- Node12&#45;&gt;Node11 -->
<g id="edge21_Node000012_Node000011" class="edge">
<title>Node12&#45;&gt;Node11</title>
<g id="a_edge21_Node000012_Node000011"><a xlink:title=" ">
<path fill="none" stroke="#63b8ff" d="M526.44,-218.13C472.26,-208.19 391.46,-193.37 340.8,-184.08"/>
<polygon fill="#63b8ff" stroke="#63b8ff" points="526.1,-221.62 536.57,-219.98 527.36,-214.74 526.1,-221.62"/>
</a>
</g>
</g>
<!-- Node13 -->
<g id="Node000013" class="node">
<title>Node13</title>
<g id="a_Node000013"><a xlink:href="EKSpecies_8cpp.html" target="_top" xlink:title=" ">
<polygon fill="white" stroke="#666666" points="829.5,-184 742.5,-184 742.5,-165 829.5,-165 829.5,-184"/>
<text text-anchor="middle" x="786" y="-172" font-family="Helvetica,sans-Serif" font-size="10.00">EKSpecies.cpp</text>
</a>
</g>
</g>
<!-- Node12&#45;&gt;Node13 -->
<g id="edge20_Node000012_Node000013" class="edge">
<title>Node12&#45;&gt;Node13</title>
<g id="a_edge20_Node000012_Node000013"><a xlink:title=" ">
<path fill="none" stroke="#63b8ff" d="M625.37,-217.44C663.37,-207.52 718.36,-193.16 753.13,-184.08"/>
<polygon fill="#63b8ff" stroke="#63b8ff" points="624.41,-214.07 615.62,-219.98 626.18,-220.84 624.41,-214.07"/>
</a>
</g>
</g>
<!-- Node14&#45;&gt;Node11 -->
<g id="edge23_Node000014_Node000011" class="edge">
<title>Node14&#45;&gt;Node11</title>
<g id="a_edge23_Node000014_Node000011"><a xlink:title=" ">
<path fill="none" stroke="#63b8ff" d="M204.45,-271.93C172.42,-261.34 137.69,-243.72 155,-220 173.37,-194.83 206.18,-183.57 235.31,-178.67"/>
<polygon fill="#63b8ff" stroke="#63b8ff" points="203.65,-275.35 214.24,-274.99 205.74,-268.67 203.65,-275.35"/>
</a>
</g>
</g>
<!-- Node16&#45;&gt;Node2 -->
<g id="edge31_Node000016_Node000002" class="edge">
<title>Node16&#45;&gt;Node2</title>
<g id="a_edge31_Node000016_Node000002"><a xlink:title=" ">
<path fill="none" stroke="#63b8ff" d="M924.03,-265.42C909.29,-220.79 871.6,-106.67 860.88,-74.22"/>
<polygon fill="#63b8ff" stroke="#63b8ff" points="920.72,-266.56 927.18,-274.95 927.36,-264.36 920.72,-266.56"/>
</a>
</g>
</g>
<!-- Node16&#45;&gt;Node3 -->
<g id="edge40_Node000016_Node000003" class="edge">
<title>Node16&#45;&gt;Node3</title>
<g id="a_edge40_Node000016_Node000003"><a xlink:title=" ">
<path fill="none" stroke="#63b8ff" d="M931.11,-264.77C932.3,-243.24 934,-206.83 934,-175.5 934,-175.5 934,-175.5 934,-118.5 934,-89.04 931.62,-79.32 915,-55 904.38,-39.45 886.63,-26.85 873.76,-19.07"/>
<polygon fill="#63b8ff" stroke="#63b8ff" points="927.62,-264.64 930.54,-274.82 934.6,-265.04 927.62,-264.64"/>
</a>
</g>
</g>
<!-- Node16&#45;&gt;Node5 -->
<g id="edge32_Node000016_Node000005" class="edge">
<title>Node16&#45;&gt;Node5</title>
<g id="a_edge32_Node000016_Node000005"><a xlink:title=" ">
<path fill="none" stroke="#63b8ff" d="M890.5,-272.18C855.9,-262.27 806.37,-248.08 774.96,-239.08"/>
<polygon fill="#63b8ff" stroke="#63b8ff" points="889.7,-275.6 900.28,-274.98 891.63,-268.87 889.7,-275.6"/>
</a>
</g>
</g>
<!-- Node16&#45;&gt;Node13 -->
<g id="edge33_Node000016_Node000013" class="edge">
<title>Node16&#45;&gt;Node13</title>
<g id="a_edge33_Node000016_Node000013"><a xlink:title=" ">
<path fill="none" stroke="#63b8ff" d="M910,-268.5C879.43,-245.57 822.03,-202.52 797.54,-184.16"/>
<polygon fill="#63b8ff" stroke="#63b8ff" points="908.12,-271.46 918.22,-274.66 912.32,-265.86 908.12,-271.46"/>
</a>
</g>
</g>
<!-- Node16&#45;&gt;Node17 -->
<g id="edge34_Node000016_Node000017" class="edge">
<title>Node16&#45;&gt;Node17</title>
<g id="a_edge34_Node000016_Node000017"><a xlink:title=" ">
<path fill="none" stroke="#63b8ff" d="M953.18,-269.7C969.39,-260.04 990.55,-247.44 1004.44,-239.17"/>
<polygon fill="#63b8ff" stroke="#63b8ff" points="951.1,-266.86 944.3,-274.98 954.68,-272.88 951.1,-266.86"/>
</a>
</g>
</g>
<!-- Node16&#45;&gt;Node19 -->
<g id="edge37_Node000016_Node000019" class="edge">
<title>Node16&#45;&gt;Node19</title>
<g id="a_edge37_Node000016_Node000019"><a xlink:title=" ">
<path fill="none" stroke="#63b8ff" d="M981.4,-272.94C1029.76,-263.01 1101.28,-248.31 1146.22,-239.08"/>
<polygon fill="#63b8ff" stroke="#63b8ff" points="980.54,-269.54 971.45,-274.98 981.95,-276.4 980.54,-269.54"/>
</a>
</g>
</g>
<!-- Node17&#45;&gt;Node3 -->
<g id="edge36_Node000017_Node000003" class="edge">
<title>Node17&#45;&gt;Node3</title>
<g id="a_edge36_Node000017_Node000003"><a xlink:title=" ">
<path fill="none" stroke="#63b8ff" d="M1007.45,-211.44C1002.29,-203.35 996.4,-193.42 992,-184 966.36,-129.12 987.95,-100.54 948,-55 932.48,-37.31 908.3,-25.9 888.91,-19.07"/>
<polygon fill="#63b8ff" stroke="#63b8ff" points="1004.62,-213.51 1013.04,-219.95 1010.48,-209.67 1004.62,-213.51"/>
</a>
</g>
</g>
<!-- Node17&#45;&gt;Node18 -->
<g id="edge35_Node000017_Node000018" class="edge">
<title>Node17&#45;&gt;Node18</title>
<g id="a_edge35_Node000017_Node000018"><a xlink:title=" ">
<path fill="none" stroke="#63b8ff" d="M1031.27,-211.39C1037.81,-202.27 1045.57,-191.45 1050.84,-184.09"/>
<polygon fill="#63b8ff" stroke="#63b8ff" points="1028.26,-209.58 1025.27,-219.75 1033.95,-213.66 1028.26,-209.58"/>
</a>
</g>
</g>
<!-- Node19&#45;&gt;Node3 -->
<g id="edge39_Node000019_Node000003" class="edge">
<title>Node19&#45;&gt;Node3</title>
<g id="a_edge39_Node000019_Node000003"><a xlink:title=" ">
<path fill="none" stroke="#63b8ff" d="M1172.9,-212.4C1160.12,-199.12 1141.05,-180.07 1123,-165 1058.14,-110.87 1042.1,-95.56 968,-55 940.53,-39.97 906.9,-27.1 884.11,-19.12"/>
<polygon fill="#63b8ff" stroke="#63b8ff" points="1170.55,-215.01 1179.98,-219.84 1175.62,-210.19 1170.55,-215.01"/>
</a>
</g>
</g>
<!-- Node20 -->
<g id="Node000020" class="node">
<title>Node20</title>
<g id="a_Node000020"><a xlink:href="EKSpeciesSlice_8cpp.html" target="_top" xlink:title=" ">
<polygon fill="white" stroke="#666666" points="1280,-184 1170,-184 1170,-165 1280,-165 1280,-184"/>
<text text-anchor="middle" x="1225" y="-172" font-family="Helvetica,sans-Serif" font-size="10.00">EKSpeciesSlice.cpp</text>
</a>
</g>
</g>
<!-- Node19&#45;&gt;Node20 -->
<g id="edge38_Node000019_Node000020" class="edge">
<title>Node19&#45;&gt;Node20</title>
<g id="a_edge38_Node000019_Node000020"><a xlink:title=" ">
<path fill="none" stroke="#63b8ff" d="M1199.95,-211.39C1206.31,-202.27 1213.87,-191.45 1219,-184.09"/>
<polygon fill="#63b8ff" stroke="#63b8ff" points="1196.96,-209.55 1194.11,-219.75 1202.7,-213.55 1196.96,-209.55"/>
</a>
</g>
</g>
<!-- Node21&#45;&gt;Node11 -->
<g id="edge46_Node000021_Node000011" class="edge">
<title>Node21&#45;&gt;Node11</title>
<g id="a_edge46_Node000021_Node000011"><a xlink:title=" ">
<path fill="none" stroke="#63b8ff" d="M70.02,-320.8C82.68,-294.85 109.74,-246.67 147,-220 173.02,-201.38 206.94,-190.43 235.65,-184.06"/>
<polygon fill="#63b8ff" stroke="#63b8ff" points="66.85,-319.32 65.75,-329.86 73.18,-322.31 66.85,-319.32"/>
</a>
</g>
</g>
</g>
</svg>

<g id="navigator" transform="translate(0 0)" fill="#404254">
  <rect fill="#f2f5e9" fill-opacity="0.5" stroke="#606060" stroke-width=".5" x="0" y="0" width="60" height="60"/>
  <use id="zoomplus" xlink:href="#zoomPlus" x="17" y="9" onmousedown="handleZoom(evt,'in')"/>
  <use id="zoomminus" xlink:href="#zoomMin" x="42" y="9" onmousedown="handleZoom(evt,'out')"/>
  <use id="reset" xlink:href="#resetDef" x="30" y="36" onmousedown="handleReset()"/>
   <use id="arrowup" xlink:href="#arrowUp" x="0" y="0" onmousedown="handlePan(0,-1)"/>
  <use id="arrowright" xlink:href="#arrowRight" x="0" y="0" onmousedown="handlePan(1,0)"/>
  <use id="arrowdown" xlink:href="#arrowDown" x="0" y="0" onmousedown="handlePan(0,1)"/>
  <use id="arrowleft" xlink:href="#arrowLeft" x="0" y="0" onmousedown="handlePan(-1,0)"/>
</g>
<svg viewBox="0 0 15 15" width="100%" height="30px" preserveAspectRatio="xMaxYMin meet">
 <g id="arrow_out" transform="scale(0.3 0.3)">
  <a xlink:href="EKinWalberlaBase_8hpp__dep__incl_org.svg" target="_base">
   <rect id="button" ry="5" rx="5" y="6" x="6" height="38" width="38"
        fill="#f2f5e9" fill-opacity="0.5" stroke="#606060" stroke-width="1.0"/>
   <path id="arrow"
     d="M 11.500037,31.436501 C 11.940474,20.09759 22.043105,11.32322 32.158766,21.979434 L 37.068811,17.246167 C 37.068811,17.246167 37.088388,32 37.088388,32 L 22.160133,31.978069 C 22.160133,31.978069 26.997745,27.140456 26.997745,27.140456 C 18.528582,18.264221 13.291696,25.230495 11.500037,31.436501 z"
     style="fill:#404040;"/>
  </a>
 </g>
</svg>

<style type='text/css'>
<![CDATA[
[data-mouse-over-selected='false'] { opacity: 0.7; }
[data-mouse-over-selected='true']  { opacity: 1.0; }
]]>
</style>
<script type="application/ecmascript"><![CDATA[
document.addEventListener('DOMContentLoaded', (event) => {
  highlightEdges();
  highlightAdjacentNodes();
});
]]></script>
</svg>
