<?xml version="1.0" encoding="UTF-8" standalone="no"?>
<!DOCTYPE svg PUBLIC "-//W3C//DTD SVG 1.1//EN"
 "http://www.w3.org/Graphics/SVG/1.1/DTD/svg11.dtd">
<!-- Generated by graphviz version 2.43.0 (0)
 -->
<!-- Title: EKinWalberlaBase.hpp Pages: 1 -->
<svg width="1260pt" height="476pt"
 viewBox="0.00 0.00 1259.50 476.00" xmlns="http://www.w3.org/2000/svg" xmlns:xlink="http://www.w3.org/1999/xlink">
<g id="graph0" class="graph" transform="scale(1 1) rotate(0) translate(4 472)">
<title>EKinWalberlaBase.hpp</title>
<!-- Node1 -->
<g id="node1" class="node">
<title>Node1</title>
<g id="a_node1"><a xlink:title=" ">
<polygon fill="#bfbfbf" stroke="black" points="320.5,-448.5 320.5,-467.5 446.5,-467.5 446.5,-448.5 320.5,-448.5"/>
<text text-anchor="middle" x="383.5" y="-455.5" font-family="Helvetica,sans-Serif" font-size="10.00">EKinWalberlaBase.hpp</text>
</a>
</g>
</g>
<!-- Node2 -->
<g id="node2" class="node">
<title>Node2</title>
<g id="a_node2"><a xlink:href="EKWalberla_8cpp.html" target="_top" xlink:title=" ">
<polygon fill="none" stroke="black" points="449.5,-280.5 449.5,-299.5 541.5,-299.5 541.5,-280.5 449.5,-280.5"/>
<text text-anchor="middle" x="495.5" y="-287.5" font-family="Helvetica,sans-Serif" font-size="10.00">EKWalberla.cpp</text>
</a>
</g>
</g>
<!-- Node1&#45;&gt;Node2 -->
<g id="edge1" class="edge">
<title>Node1&#45;&gt;Node2</title>
<path fill="none" stroke="midnightblue" d="M404.43,-442.05C414.69,-433.98 426.71,-423.36 435.5,-412 464.64,-374.36 485.29,-320.33 492.6,-299.57"/>
<polygon fill="midnightblue" stroke="midnightblue" points="402.18,-439.36 396.33,-448.18 406.41,-444.94 402.18,-439.36"/>
</g>
<!-- Node3 -->
<g id="node3" class="node">
<title>Node3</title>
<g id="a_node3"><a xlink:href="script__interface_2walberla_2EKContainer_8hpp.html" target="_top" xlink:title=" ">
<polygon fill="none" stroke="black" points="175.5,-56.5 175.5,-75.5 271.5,-75.5 271.5,-56.5 175.5,-56.5"/>
<text text-anchor="middle" x="223.5" y="-63.5" font-family="Helvetica,sans-Serif" font-size="10.00">EKContainer.hpp</text>
</a>
</g>
</g>
<!-- Node1&#45;&gt;Node3 -->
<g id="edge2" class="edge">
<title>Node1&#45;&gt;Node3</title>
<path fill="none" stroke="midnightblue" d="M335.01,-445.6C287.92,-431.32 223.5,-401.76 223.5,-347 223.5,-347 223.5,-347 223.5,-177 223.5,-139.19 223.5,-94.06 223.5,-75.56"/>
<polygon fill="midnightblue" stroke="midnightblue" points="334.19,-449.01 344.77,-448.43 336.13,-442.29 334.19,-449.01"/>
</g>
<!-- Node5 -->
<g id="node5" class="node">
<title>Node5</title>
<g id="a_node5"><a xlink:href="EKSpecies_8hpp.html" target="_top" xlink:title=" ">
<polygon fill="none" stroke="black" points="267.5,-280.5 267.5,-299.5 355.5,-299.5 355.5,-280.5 267.5,-280.5"/>
<text text-anchor="middle" x="311.5" y="-287.5" font-family="Helvetica,sans-Serif" font-size="10.00">EKSpecies.hpp</text>
</a>
</g>
</g>
<!-- Node1&#45;&gt;Node5 -->
<g id="edge4" class="edge">
<title>Node1&#45;&gt;Node5</title>
<path fill="none" stroke="midnightblue" d="M375.63,-438.86C360.19,-403.25 326.44,-325.45 315.22,-299.57"/>
<polygon fill="midnightblue" stroke="midnightblue" points="372.44,-440.29 379.63,-448.08 378.86,-437.51 372.44,-440.29"/>
</g>
<!-- Node10 -->
<g id="node10" class="node">
<title>Node10</title>
<g id="a_node10"><a xlink:href="EKSpeciesNode_8hpp.html" target="_top" xlink:title=" ">
<polygon fill="none" stroke="black" points="82,-224.5 82,-243.5 195,-243.5 195,-224.5 82,-224.5"/>
<text text-anchor="middle" x="138.5" y="-231.5" font-family="Helvetica,sans-Serif" font-size="10.00">EKSpeciesNode.hpp</text>
</a>
</g>
</g>
<!-- Node1&#45;&gt;Node10 -->
<g id="edge22" class="edge">
<title>Node1&#45;&gt;Node10</title>
<path fill="none" stroke="midnightblue" d="M310.31,-453.04C276.19,-447.74 237.12,-436.28 209.5,-412 156.04,-365 142.3,-272.1 139.27,-243.55"/>
<polygon fill="midnightblue" stroke="midnightblue" points="309.87,-456.52 320.26,-454.44 310.84,-449.58 309.87,-456.52"/>
</g>
<!-- Node11 -->
<g id="node11" class="node">
<title>Node11</title>
<g id="a_node11"><a xlink:href="EKSpeciesNode_8cpp.html" target="_top" xlink:title=" ">
<polygon fill="none" stroke="black" points="0,-168.5 0,-187.5 113,-187.5 113,-168.5 0,-168.5"/>
<text text-anchor="middle" x="56.5" y="-175.5" font-family="Helvetica,sans-Serif" font-size="10.00">EKSpeciesNode.cpp</text>
</a>
</g>
</g>
<!-- Node1&#45;&gt;Node11 -->
<g id="edge21" class="edge">
<title>Node1&#45;&gt;Node11</title>
<path fill="none" stroke="midnightblue" d="M310.18,-447.54C212.96,-432.92 53.5,-400.73 53.5,-347 53.5,-347 53.5,-347 53.5,-289 53.5,-251.17 55.29,-206.06 56.11,-187.56"/>
<polygon fill="midnightblue" stroke="midnightblue" points="309.86,-451.03 320.26,-449.03 310.88,-444.11 309.86,-451.03"/>
</g>
<!-- Node12 -->
<g id="node12" class="node">
<title>Node12</title>
<g id="a_node12"><a xlink:href="EKSpeciesSlice_8hpp.html" target="_top" xlink:title=" ">
<polygon fill="none" stroke="black" points="328,-224.5 328,-243.5 439,-243.5 439,-224.5 328,-224.5"/>
<text text-anchor="middle" x="383.5" y="-231.5" font-family="Helvetica,sans-Serif" font-size="10.00">EKSpeciesSlice.hpp</text>
</a>
</g>
</g>
<!-- Node1&#45;&gt;Node12 -->
<g id="edge23" class="edge">
<title>Node1&#45;&gt;Node12</title>
<path fill="none" stroke="midnightblue" d="M383.5,-438.3C383.5,-392.64 383.5,-276.85 383.5,-243.88"/>
<polygon fill="midnightblue" stroke="midnightblue" points="380,-438.3 383.5,-448.3 387,-438.3 380,-438.3"/>
</g>
<!-- Node14 -->
<g id="node14" class="node">
<title>Node14</title>
<g id="a_node14"><a xlink:href="ek__walberla__init_8hpp.html" target="_top" xlink:title=" ">
<polygon fill="none" stroke="black" points="645.5,-224.5 645.5,-243.5 763.5,-243.5 763.5,-224.5 645.5,-224.5"/>
<text text-anchor="middle" x="704.5" y="-231.5" font-family="Helvetica,sans-Serif" font-size="10.00">ek_walberla_init.hpp</text>
</a>
</g>
</g>
<!-- Node1&#45;&gt;Node14 -->
<g id="edge24" class="edge">
<title>Node1&#45;&gt;Node14</title>
<path fill="none" stroke="midnightblue" d="M389.37,-438.34C403.62,-393.13 438.94,-281.35 440.5,-280 448.22,-273.31 569.77,-254.6 645.21,-243.52"/>
<polygon fill="midnightblue" stroke="midnightblue" points="385.98,-437.47 386.31,-448.06 392.65,-439.57 385.98,-437.47"/>
</g>
<!-- Node16 -->
<g id="node16" class="node">
<title>Node16</title>
<g id="a_node16"><a xlink:href="walberla__bridge_2include_2walberla__bridge_2electrokinetics_2reactions_2EKReactant_8hpp.html" target="_top" xlink:title=" ">
<polygon fill="none" stroke="black" points="646.5,-392.5 646.5,-411.5 740.5,-411.5 740.5,-392.5 646.5,-392.5"/>
<text text-anchor="middle" x="693.5" y="-399.5" font-family="Helvetica,sans-Serif" font-size="10.00">EKReactant.hpp</text>
</a>
</g>
</g>
<!-- Node1&#45;&gt;Node16 -->
<g id="edge28" class="edge">
<title>Node1&#45;&gt;Node16</title>
<path fill="none" stroke="midnightblue" d="M442.58,-446.71C501.8,-436.39 591.8,-420.72 646.39,-411.21"/>
<polygon fill="midnightblue" stroke="midnightblue" points="441.87,-443.28 432.62,-448.44 443.07,-450.18 441.87,-443.28"/>
</g>
<!-- Node21 -->
<g id="node21" class="node">
<title>Node21</title>
<g id="a_node21"><a xlink:href="EKinWalberlaImpl_8hpp.html" target="_top" xlink:title=" ">
<polygon fill="none" stroke="black" points="1127.5,-336.5 1127.5,-355.5 1251.5,-355.5 1251.5,-336.5 1127.5,-336.5"/>
<text text-anchor="middle" x="1189.5" y="-343.5" font-family="Helvetica,sans-Serif" font-size="10.00">EKinWalberlaImpl.hpp</text>
</a>
</g>
</g>
<!-- Node1&#45;&gt;Node21 -->
<g id="edge46" class="edge">
<title>Node1&#45;&gt;Node21</title>
<path fill="none" stroke="midnightblue" d="M456.85,-448.51C530.79,-439.83 648.16,-425.71 749.5,-412 888.38,-393.21 1051.51,-368.39 1134.68,-355.54"/>
<polygon fill="midnightblue" stroke="midnightblue" points="456.23,-445.06 446.71,-449.7 457.05,-452.01 456.23,-445.06"/>
</g>
<!-- Node4 -->
<g id="node4" class="node">
<title>Node4</title>
<g id="a_node4"><a xlink:href="walberla_2initialize_8cpp.html" target="_top" xlink:title=" ">
<polygon fill="none" stroke="black" points="387,-0.5 387,-19.5 466,-19.5 466,-0.5 387,-0.5"/>
<text text-anchor="middle" x="426.5" y="-7.5" font-family="Helvetica,sans-Serif" font-size="10.00">initialize.cpp</text>
</a>
</g>
</g>
<!-- Node3&#45;&gt;Node4 -->
<g id="edge3" class="edge">
<title>Node3&#45;&gt;Node4</title>
<path fill="none" stroke="midnightblue" d="M265.49,-53.83C303.82,-43.63 359.65,-28.78 394.48,-19.52"/>
<polygon fill="midnightblue" stroke="midnightblue" points="264.43,-50.49 255.67,-56.44 266.23,-57.26 264.43,-50.49"/>
</g>
<!-- Node5&#45;&gt;Node3 -->
<g id="edge5" class="edge">
<title>Node5&#45;&gt;Node3</title>
<path fill="none" stroke="midnightblue" d="M300.47,-271.67C295.52,-263.47 289.83,-253.43 285.5,-244 270.76,-211.89 236.46,-107.04 226.35,-75.84"/>
<polygon fill="midnightblue" stroke="midnightblue" points="297.57,-273.64 305.81,-280.3 303.52,-269.95 297.57,-273.64"/>
</g>
<!-- Node5&#45;&gt;Node4 -->
<g id="edge20" class="edge">
<title>Node5&#45;&gt;Node4</title>
<path fill="none" stroke="midnightblue" d="M308.21,-270.32C304.66,-248.49 299.5,-211.24 299.5,-179 299.5,-179 299.5,-179 299.5,-121 299.5,-67.47 364.75,-34.17 401.71,-19.59"/>
<polygon fill="midnightblue" stroke="midnightblue" points="304.81,-271.2 309.93,-280.48 311.71,-270.03 304.81,-271.2"/>
</g>
<!-- Node6 -->
<g id="node6" class="node">
<title>Node6</title>
<g id="a_node6"><a xlink:href="script__interface_2walberla_2EKReactant_8hpp.html" target="_top" xlink:title=" ">
<polygon fill="none" stroke="black" points="533.5,-224.5 533.5,-243.5 627.5,-243.5 627.5,-224.5 533.5,-224.5"/>
<text text-anchor="middle" x="580.5" y="-231.5" font-family="Helvetica,sans-Serif" font-size="10.00">EKReactant.hpp</text>
</a>
</g>
</g>
<!-- Node5&#45;&gt;Node6 -->
<g id="edge6" class="edge">
<title>Node5&#45;&gt;Node6</title>
<path fill="none" stroke="midnightblue" d="M363.94,-278.47C414.78,-268.27 490.94,-252.98 538.08,-243.52"/>
<polygon fill="midnightblue" stroke="midnightblue" points="363.24,-275.04 354.12,-280.44 364.62,-281.91 363.24,-275.04"/>
</g>
<!-- Node9 -->
<g id="node9" class="node">
<title>Node9</title>
<g id="a_node9"><a xlink:href="EKSpecies_8cpp.html" target="_top" xlink:title=" ">
<polygon fill="none" stroke="black" points="609,-168.5 609,-187.5 696,-187.5 696,-168.5 609,-168.5"/>
<text text-anchor="middle" x="652.5" y="-175.5" font-family="Helvetica,sans-Serif" font-size="10.00">EKSpecies.cpp</text>
</a>
</g>
</g>
<!-- Node5&#45;&gt;Node9 -->
<g id="edge13" class="edge">
<title>Node5&#45;&gt;Node9</title>
<path fill="none" stroke="midnightblue" d="M347.53,-277.38C416.34,-255.18 565.04,-207.21 625.81,-187.61"/>
<polygon fill="midnightblue" stroke="midnightblue" points="346.42,-274.06 337.97,-280.46 348.57,-280.72 346.42,-274.06"/>
</g>
<!-- Node5&#45;&gt;Node10 -->
<g id="edge14" class="edge">
<title>Node5&#45;&gt;Node10</title>
<path fill="none" stroke="midnightblue" d="M274.45,-277.44C241.84,-267.26 195.09,-252.66 165.78,-243.52"/>
<polygon fill="midnightblue" stroke="midnightblue" points="273.5,-280.8 284.09,-280.44 275.58,-274.12 273.5,-280.8"/>
</g>
<!-- Node5&#45;&gt;Node12 -->
<g id="edge17" class="edge">
<title>Node5&#45;&gt;Node12</title>
<path fill="none" stroke="midnightblue" d="M331.37,-274.1C344.32,-264.38 360.8,-252.03 371.72,-243.83"/>
<polygon fill="midnightblue" stroke="midnightblue" points="328.97,-271.52 323.07,-280.32 333.17,-277.12 328.97,-271.52"/>
</g>
<!-- Node6&#45;&gt;Node4 -->
<g id="edge12" class="edge">
<title>Node6&#45;&gt;Node4</title>
<path fill="none" stroke="midnightblue" d="M581.75,-214.35C582.55,-189.25 580.81,-144.07 561.5,-112 533.71,-65.86 476.13,-33.87 445.94,-19.53"/>
<polygon fill="midnightblue" stroke="midnightblue" points="578.25,-214.18 581.26,-224.34 585.25,-214.53 578.25,-214.18"/>
</g>
<!-- Node7 -->
<g id="node7" class="node">
<title>Node7</title>
<g id="a_node7"><a xlink:href="EKReaction_8hpp.html" target="_top" xlink:title=" ">
<polygon fill="none" stroke="black" points="714,-168.5 714,-187.5 807,-187.5 807,-168.5 714,-168.5"/>
<text text-anchor="middle" x="760.5" y="-175.5" font-family="Helvetica,sans-Serif" font-size="10.00">EKReaction.hpp</text>
</a>
</g>
</g>
<!-- Node6&#45;&gt;Node7 -->
<g id="edge7" class="edge">
<title>Node6&#45;&gt;Node7</title>
<path fill="none" stroke="midnightblue" d="M618.61,-221.57C652.56,-211.38 701.49,-196.7 732.11,-187.52"/>
<polygon fill="midnightblue" stroke="midnightblue" points="617.59,-218.22 609.02,-224.44 619.61,-224.92 617.59,-218.22"/>
</g>
<!-- Node7&#45;&gt;Node4 -->
<g id="edge11" class="edge">
<title>Node7&#45;&gt;Node4</title>
<path fill="none" stroke="midnightblue" d="M743.75,-161.46C715.24,-135.84 654.54,-84.69 594.5,-56 552.95,-36.15 501.29,-23.98 466.3,-17.38"/>
<polygon fill="midnightblue" stroke="midnightblue" points="741.46,-164.12 751.21,-168.26 746.17,-158.94 741.46,-164.12"/>
</g>
<!-- Node8 -->
<g id="node8" class="node">
<title>Node8</title>
<g id="a_node8"><a xlink:href="script__interface_2walberla_2EKReactions_8hpp.html" target="_top" xlink:title=" ">
<polygon fill="none" stroke="black" points="454.5,-112.5 454.5,-131.5 552.5,-131.5 552.5,-112.5 454.5,-112.5"/>
<text text-anchor="middle" x="503.5" y="-119.5" font-family="Helvetica,sans-Serif" font-size="10.00">EKReactions.hpp</text>
</a>
</g>
</g>
<!-- Node7&#45;&gt;Node8 -->
<g id="edge8" class="edge">
<title>Node7&#45;&gt;Node8</title>
<path fill="none" stroke="midnightblue" d="M709.79,-166.35C661.22,-156.14 588.88,-140.94 544.03,-131.52"/>
<polygon fill="midnightblue" stroke="midnightblue" points="709.27,-169.81 719.78,-168.44 710.71,-162.96 709.27,-169.81"/>
</g>
<!-- Node8&#45;&gt;Node3 -->
<g id="edge9" class="edge">
<title>Node8&#45;&gt;Node3</title>
<path fill="none" stroke="midnightblue" d="M449.25,-110.54C396.33,-100.33 316.83,-85 267.66,-75.52"/>
<polygon fill="midnightblue" stroke="midnightblue" points="448.65,-113.99 459.13,-112.44 449.98,-107.11 448.65,-113.99"/>
</g>
<!-- Node8&#45;&gt;Node4 -->
<g id="edge10" class="edge">
<title>Node8&#45;&gt;Node4</title>
<path fill="none" stroke="midnightblue" d="M491.57,-103.96C474.88,-80.12 445.2,-37.71 432.51,-19.59"/>
<polygon fill="midnightblue" stroke="midnightblue" points="488.86,-106.18 497.46,-112.37 494.59,-102.17 488.86,-106.18"/>
</g>
<!-- Node10&#45;&gt;Node4 -->
<g id="edge16" class="edge">
<title>Node10&#45;&gt;Node4</title>
<path fill="none" stroke="midnightblue" d="M135.18,-214.45C129.9,-178.47 124.13,-98.99 166.5,-56 196.61,-25.45 321.77,-15.52 386.83,-12.38"/>
<polygon fill="midnightblue" stroke="midnightblue" points="131.75,-215.19 136.81,-224.5 138.66,-214.07 131.75,-215.19"/>
</g>
<!-- Node10&#45;&gt;Node11 -->
<g id="edge15" class="edge">
<title>Node10&#45;&gt;Node11</title>
<path fill="none" stroke="midnightblue" d="M116.67,-218.62C101.69,-208.76 82.3,-195.99 69.64,-187.65"/>
<polygon fill="midnightblue" stroke="midnightblue" points="115.05,-221.75 125.33,-224.32 118.9,-215.9 115.05,-221.75"/>
</g>
<!-- Node12&#45;&gt;Node4 -->
<g id="edge19" class="edge">
<title>Node12&#45;&gt;Node4</title>
<path fill="none" stroke="midnightblue" d="M413.32,-219.61C425.98,-212.23 439.42,-201.75 446.5,-188 454.28,-172.88 433.92,-53.03 428.04,-19.62"/>
<polygon fill="midnightblue" stroke="midnightblue" points="411.5,-216.61 404.35,-224.43 414.81,-222.78 411.5,-216.61"/>
</g>
<!-- Node13 -->
<g id="node13" class="node">
<title>Node13</title>
<g id="a_node13"><a xlink:href="EKSpeciesSlice_8cpp.html" target="_top" xlink:title=" ">
<polygon fill="none" stroke="black" points="327.5,-168.5 327.5,-187.5 437.5,-187.5 437.5,-168.5 327.5,-168.5"/>
<text text-anchor="middle" x="382.5" y="-175.5" font-family="Helvetica,sans-Serif" font-size="10.00">EKSpeciesSlice.cpp</text>
</a>
</g>
</g>
<!-- Node12&#45;&gt;Node13 -->
<g id="edge18" class="edge">
<title>Node12&#45;&gt;Node13</title>
<path fill="none" stroke="midnightblue" d="M383.14,-213.8C382.98,-204.91 382.79,-194.78 382.66,-187.75"/>
<polygon fill="midnightblue" stroke="midnightblue" points="379.65,-214.15 383.33,-224.08 386.65,-214.02 379.65,-214.15"/>
</g>
<!-- Node14&#45;&gt;Node7 -->
<g id="edge25" class="edge">
<title>Node14&#45;&gt;Node7</title>
<path fill="none" stroke="midnightblue" d="M720.83,-217.25C730.76,-207.67 743.09,-195.79 751.34,-187.83"/>
<polygon fill="midnightblue" stroke="midnightblue" points="718.27,-214.86 713.5,-224.32 723.13,-219.9 718.27,-214.86"/>
</g>
<!-- Node14&#45;&gt;Node9 -->
<g id="edge26" class="edge">
<title>Node14&#45;&gt;Node9</title>
<path fill="none" stroke="midnightblue" d="M688.82,-216.72C679.66,-207.2 668.45,-195.56 660.93,-187.75"/>
<polygon fill="midnightblue" stroke="midnightblue" points="686.46,-219.31 695.91,-224.08 691.5,-214.45 686.46,-219.31"/>
</g>
<!-- Node15 -->
<g id="node15" class="node">
<title>Node15</title>
<g id="a_node15"><a xlink:href="ek__walberla__init_8cpp.html" target="_top" xlink:title=" ">
<polygon fill="none" stroke="black" points="866,-168.5 866,-187.5 983,-187.5 983,-168.5 866,-168.5"/>
<text text-anchor="middle" x="924.5" y="-175.5" font-family="Helvetica,sans-Serif" font-size="10.00">ek_walberla_init.cpp</text>
</a>
</g>
</g>
<!-- Node14&#45;&gt;Node15 -->
<g id="edge27" class="edge">
<title>Node14&#45;&gt;Node15</title>
<path fill="none" stroke="midnightblue" d="M749.22,-222.02C790.78,-211.82 851.81,-196.84 889.8,-187.52"/>
<polygon fill="midnightblue" stroke="midnightblue" points="748.24,-218.66 739.36,-224.44 749.91,-225.46 748.24,-218.66"/>
</g>
<!-- Node16&#45;&gt;Node6 -->
<g id="edge29" class="edge">
<title>Node16&#45;&gt;Node6</title>
<path fill="none" stroke="midnightblue" d="M665.8,-387.59C652.4,-379.92 636.98,-369.19 626.5,-356 597.98,-320.1 585.7,-264.58 581.89,-243.51"/>
<polygon fill="midnightblue" stroke="midnightblue" points="664.22,-390.71 674.68,-392.4 667.55,-384.56 664.22,-390.71"/>
</g>
<!-- Node17 -->
<g id="node17" class="node">
<title>Node17</title>
<g id="a_node17"><a xlink:href="EKReactionBase_8hpp.html" target="_top" xlink:title=" ">
<polygon fill="none" stroke="black" points="635,-336.5 635,-355.5 752,-355.5 752,-336.5 635,-336.5"/>
<text text-anchor="middle" x="693.5" y="-343.5" font-family="Helvetica,sans-Serif" font-size="10.00">EKReactionBase.hpp</text>
</a>
</g>
</g>
<!-- Node16&#45;&gt;Node17 -->
<g id="edge30" class="edge">
<title>Node16&#45;&gt;Node17</title>
<path fill="none" stroke="midnightblue" d="M693.5,-381.8C693.5,-372.91 693.5,-362.78 693.5,-355.75"/>
<polygon fill="midnightblue" stroke="midnightblue" points="690,-382.08 693.5,-392.08 697,-382.08 690,-382.08"/>
</g>
<!-- Node19 -->
<g id="node19" class="node">
<title>Node19</title>
<g id="a_node19"><a xlink:href="EKReactionImplIndexed_8hpp.html" target="_top" xlink:title=" ">
<polygon fill="none" stroke="black" points="972,-224.5 972,-243.5 1125,-243.5 1125,-224.5 972,-224.5"/>
<text text-anchor="middle" x="1048.5" y="-231.5" font-family="Helvetica,sans-Serif" font-size="10.00">EKReactionImplIndexed.hpp</text>
</a>
</g>
</g>
<!-- Node16&#45;&gt;Node19 -->
<g id="edge45" class="edge">
<title>Node16&#45;&gt;Node19</title>
<path fill="none" stroke="midnightblue" d="M748.37,-390.51C850.2,-370.51 1060.01,-326.53 1080.5,-300 1094.49,-281.88 1072.42,-256.67 1058.48,-243.61"/>
<polygon fill="midnightblue" stroke="midnightblue" points="747.41,-387.13 738.27,-392.49 748.76,-394 747.41,-387.13"/>
</g>
<!-- Node20 -->
<g id="node20" class="node">
<title>Node20</title>
<g id="a_node20"><a xlink:href="EKReactionImplBulk_8hpp.html" target="_top" xlink:title=" ">
<polygon fill="none" stroke="black" points="934,-280.5 934,-299.5 1071,-299.5 1071,-280.5 934,-280.5"/>
<text text-anchor="middle" x="1002.5" y="-287.5" font-family="Helvetica,sans-Serif" font-size="10.00">EKReactionImplBulk.hpp</text>
</a>
</g>
</g>
<!-- Node16&#45;&gt;Node20 -->
<g id="edge44" class="edge">
<title>Node16&#45;&gt;Node20</title>
<path fill="none" stroke="midnightblue" d="M726.92,-389.1C789.61,-366.79 923.48,-319.13 978.31,-299.61"/>
<polygon fill="midnightblue" stroke="midnightblue" points="725.74,-385.81 717.49,-392.46 728.08,-392.4 725.74,-385.81"/>
</g>
<!-- Node17&#45;&gt;Node2 -->
<g id="edge31" class="edge">
<title>Node17&#45;&gt;Node2</title>
<path fill="none" stroke="midnightblue" d="M652.06,-333.7C614.69,-323.51 560.56,-308.74 526.73,-299.52"/>
<polygon fill="midnightblue" stroke="midnightblue" points="651.56,-337.19 662.13,-336.44 653.4,-330.44 651.56,-337.19"/>
</g>
<!-- Node17&#45;&gt;Node7 -->
<g id="edge32" class="edge">
<title>Node17&#45;&gt;Node7</title>
<path fill="none" stroke="midnightblue" d="M695.66,-326.16C698.07,-312.21 703.09,-293.39 713.5,-280 732.35,-255.75 757.46,-270.79 772.5,-244 782.72,-225.79 772.34,-200.62 765.49,-187.59"/>
<polygon fill="midnightblue" stroke="midnightblue" points="692.19,-325.7 694.24,-336.1 699.12,-326.7 692.19,-325.7"/>
</g>
<!-- Node17&#45;&gt;Node8 -->
<g id="edge33" class="edge">
<title>Node17&#45;&gt;Node8</title>
<path fill="none" stroke="midnightblue" d="M655.74,-333.05C616.4,-318.53 556.17,-290.1 524.5,-244 499.87,-208.15 501.16,-152.6 502.7,-131.51"/>
<polygon fill="midnightblue" stroke="midnightblue" points="654.67,-336.38 665.26,-336.44 657.02,-329.79 654.67,-336.38"/>
</g>
<!-- Node17&#45;&gt;Node14 -->
<g id="edge34" class="edge">
<title>Node17&#45;&gt;Node14</title>
<path fill="none" stroke="midnightblue" d="M685.03,-326.82C680.04,-313.73 675.43,-295.69 679.5,-280 683.04,-266.33 691.73,-252.39 697.87,-243.73"/>
<polygon fill="midnightblue" stroke="midnightblue" points="681.84,-328.26 688.96,-336.11 688.29,-325.54 681.84,-328.26"/>
</g>
<!-- Node17&#45;&gt;Node15 -->
<g id="edge41" class="edge">
<title>Node17&#45;&gt;Node15</title>
<path fill="none" stroke="midnightblue" d="M762.26,-336.26C810.11,-328.86 868.42,-316.76 886.5,-300 919.76,-269.16 924.1,-209.6 924.52,-187.51"/>
<polygon fill="midnightblue" stroke="midnightblue" points="761.6,-332.82 752.23,-337.77 762.64,-339.75 761.6,-332.82"/>
</g>
<!-- Node18 -->
<g id="node18" class="node">
<title>Node18</title>
<g id="a_node18"><a xlink:href="EKReactionBaseIndexed_8hpp.html" target="_top" xlink:title=" ">
<polygon fill="none" stroke="black" points="722,-280.5 722,-299.5 877,-299.5 877,-280.5 722,-280.5"/>
<text text-anchor="middle" x="799.5" y="-287.5" font-family="Helvetica,sans-Serif" font-size="10.00">EKReactionBaseIndexed.hpp</text>
</a>
</g>
</g>
<!-- Node17&#45;&gt;Node18 -->
<g id="edge35" class="edge">
<title>Node17&#45;&gt;Node18</title>
<path fill="none" stroke="midnightblue" d="M719.56,-331.73C739.18,-321.73 765.53,-308.31 782.51,-299.65"/>
<polygon fill="midnightblue" stroke="midnightblue" points="717.85,-328.67 710.53,-336.32 721.03,-334.9 717.85,-328.67"/>
</g>
<!-- Node17&#45;&gt;Node20 -->
<g id="edge42" class="edge">
<title>Node17&#45;&gt;Node20</title>
<path fill="none" stroke="midnightblue" d="M752.64,-334.66C811.04,-324.46 899.28,-309.04 953.77,-299.52"/>
<polygon fill="midnightblue" stroke="midnightblue" points="751.71,-331.27 742.46,-336.44 752.92,-338.17 751.71,-331.27"/>
</g>
<!-- Node18&#45;&gt;Node7 -->
<g id="edge36" class="edge">
<title>Node18&#45;&gt;Node7</title>
<path fill="none" stroke="midnightblue" d="M805.77,-270.26C809.19,-256.88 811.6,-238.72 805.5,-224 799.07,-208.48 784.41,-195.53 773.56,-187.56"/>
<polygon fill="midnightblue" stroke="midnightblue" points="802.32,-269.62 802.84,-280.2 809.03,-271.6 802.32,-269.62"/>
</g>
<!-- Node18&#45;&gt;Node14 -->
<g id="edge37" class="edge">
<title>Node18&#45;&gt;Node14</title>
<path fill="none" stroke="midnightblue" d="M775.18,-275.18C757.7,-265.24 734.67,-252.15 719.73,-243.65"/>
<polygon fill="midnightblue" stroke="midnightblue" points="773.81,-278.43 784.24,-280.32 777.27,-272.34 773.81,-278.43"/>
</g>
<!-- Node18&#45;&gt;Node15 -->
<g id="edge38" class="edge">
<title>Node18&#45;&gt;Node15</title>
<path fill="none" stroke="midnightblue" d="M817.1,-273.51C843.81,-250.01 893.69,-206.11 914.74,-187.59"/>
<polygon fill="midnightblue" stroke="midnightblue" points="814.5,-271.13 809.31,-280.37 819.13,-276.39 814.5,-271.13"/>
</g>
<!-- Node18&#45;&gt;Node19 -->
<g id="edge39" class="edge">
<title>Node18&#45;&gt;Node19</title>
<path fill="none" stroke="midnightblue" d="M848.92,-278.28C895.98,-268.08 965.87,-252.92 1009.23,-243.52"/>
<polygon fill="midnightblue" stroke="midnightblue" points="847.99,-274.9 838.95,-280.44 849.47,-281.74 847.99,-274.9"/>
</g>
<!-- Node19&#45;&gt;Node15 -->
<g id="edge40" class="edge">
<title>Node19&#45;&gt;Node15</title>
<path fill="none" stroke="midnightblue" d="M1019.49,-220.37C996.27,-210.26 964.34,-196.35 944.06,-187.52"/>
<polygon fill="midnightblue" stroke="midnightblue" points="1018.29,-223.66 1028.85,-224.44 1021.08,-217.24 1018.29,-223.66"/>
</g>
<!-- Node20&#45;&gt;Node15 -->
<g id="edge43" class="edge">
<title>Node20&#45;&gt;Node15</title>
<path fill="none" stroke="midnightblue" d="M987.34,-272.9C979.81,-264.56 970.78,-254.04 963.5,-244 949.6,-224.82 935.96,-200.48 929.09,-187.71"/>
<polygon fill="midnightblue" stroke="midnightblue" points="984.91,-275.42 994.26,-280.41 990.06,-270.68 984.91,-275.42"/>
</g>
<!-- Node21&#45;&gt;Node15 -->
<g id="edge47" class="edge">
<title>Node21&#45;&gt;Node15</title>
<path fill="none" stroke="midnightblue" d="M1186.41,-326.34C1180.94,-299.42 1166.9,-250.08 1134.5,-224 1111.55,-205.53 1036.94,-192.72 983.17,-185.62"/>
<polygon fill="midnightblue" stroke="midnightblue" points="1183.01,-327.17 1188.26,-336.37 1189.89,-325.9 1183.01,-327.17"/>
</g>
</g>
</svg>
