<?xml version="1.0" encoding="UTF-8" standalone="no"?>
<!DOCTYPE svg PUBLIC "-//W3C//DTD SVG 1.1//EN"
 "http://www.w3.org/Graphics/SVG/1.1/DTD/svg11.dtd">
<!-- Generated by graphviz version 2.43.0 (0)
 -->
<!-- Title: elc.hpp Pages: 1 -->
<!--zoomable 423 -->

<svg id="main" version="1.1" xmlns="http://www.w3.org/2000/svg" xmlns:xlink="http://www.w3.org/1999/xlink" xml:space="preserve" onload="init(evt)">
<style type="text/css"><![CDATA[
.node, .edge {opacity: 0.7;}
.node.selected, .edge.selected {opacity: 1;}
.edge:hover path { stroke: red; }
.edge:hover polygon { stroke: red; fill: red; }
]]></style>

<defs>
  <circle id="rim" cx="0" cy="0" r="7"/>
  <circle id="rim2" cx="0" cy="0" r="3.5"/>
  <g id="zoomPlus">
    <use xlink:href="#rim" fill="#404040"><set attributeName="fill" to="#808080" begin="zoomplus.mouseover" end="zoomplus.mouseout"/></use>
    <path d="M-4,0h8M0,-4v8" fill="none" stroke="white" stroke-width="1.5" pointer-events="none"/>
  </g>
  <g id="zoomMin">
    <use xlink:href="#rim" fill="#404040"><set attributeName="fill" to="#808080" begin="zoomminus.mouseover" end="zoomminus.mouseout"/></use>
    <path d="M-4,0h8" fill="none" stroke="white" stroke-width="1.5" pointer-events="none"/>
  </g>
  <g id="arrowUp" transform="translate(30 24)">
    <use xlink:href="#rim"/>
    <path pointer-events="none" fill="none" stroke="white" stroke-width="1.5" d="M0,-3.0v7 M-2.5,-0.5L0,-3.0L2.5,-0.5"/>
  </g>
  <g id="arrowRight" transform="rotate(90) translate(36 -43)">
    <use xlink:href="#rim"/>
    <path pointer-events="none" fill="none" stroke="white" stroke-width="1.5" d="M0,-3.0v7 M-2.5,-0.5L0,-3.0L2.5,-0.5"/>
  </g>
  <g id="arrowDown" transform="rotate(180) translate(-30 -48)">
    <use xlink:href="#rim"/>
    <path pointer-events="none" fill="none" stroke="white" stroke-width="1.5" d="M0,-3.0v7 M-2.5,-0.5L0,-3.0L2.5,-0.5"/>
  </g>
  <g id="arrowLeft" transform="rotate(270) translate(-36 17)">
    <use xlink:href="#rim"/>
    <path pointer-events="none" fill="none" stroke="white" stroke-width="1.5" d="M0,-3.0v7 M-2.5,-0.5L0,-3.0L2.5,-0.5"/>
  </g>
  <g id="resetDef">
    <use xlink:href="#rim2" fill="#404040"><set attributeName="fill" to="#808080" begin="reset.mouseover" end="reset.mouseout"/></use>
  </g>
</defs>
<script type="application/ecmascript">
var viewWidth = 1222;
var viewHeight = 423;
var sectionId = 'dynsection-1';
</script>
<script type="application/ecmascript" xlink:href="svg.min.js"/>
<svg id="graph" class="graph">
<g id="viewport">
<title>elc.hpp</title>
<!-- Node1 -->
<g id="Node000001" class="node">
<title>Node1</title>
<g id="a_Node000001"><a xlink:title="ELC algorithm for long&#45;range Coulomb interactions.">
<polygon fill="#999999" stroke="#666666" points="684.5,-415 632.5,-415 632.5,-396 684.5,-396 684.5,-415"/>
<text text-anchor="middle" x="658.5" y="-403" font-family="Helvetica,sans-Serif" font-size="10.00">elc.hpp</text>
</a>
</g>
</g>
<!-- Node2 -->
<g id="Node000002" class="node">
<title>Node2</title>
<g id="a_Node000002"><a xlink:href="ElectrostaticLayerCorrection_8hpp.html" target="_top" xlink:title=" ">
<polygon fill="white" stroke="#666666" points="337.5,-360 161.5,-360 161.5,-341 337.5,-341 337.5,-360"/>
<text text-anchor="middle" x="249.5" y="-348" font-family="Helvetica,sans-Serif" font-size="10.00">ElectrostaticLayerCorrection.hpp</text>
</a>
</g>
</g>
<!-- Node1&#45;&gt;Node2 -->
<g id="edge1_Node000001_Node000002" class="edge">
<title>Node1&#45;&gt;Node2</title>
<g id="a_edge1_Node000001_Node000002"><a xlink:title=" ">
<path fill="none" stroke="#63b8ff" d="M622.36,-399.82C553.52,-390.9 402.69,-371.35 315.43,-360.04"/>
<polygon fill="#63b8ff" stroke="#63b8ff" points="621.93,-403.29 632.29,-401.1 622.83,-396.35 621.93,-403.29"/>
</a>
</g>
</g>
<!-- Node4 -->
<g id="Node000004" class="node">
<title>Node4</title>
<g id="a_Node000004"><a xlink:href="coulomb_8hpp.html" target="_top" xlink:title=" ">
<polygon fill="white" stroke="#666666" points="664.5,-360 584.5,-360 584.5,-341 664.5,-341 664.5,-360"/>
<text text-anchor="middle" x="624.5" y="-348" font-family="Helvetica,sans-Serif" font-size="10.00">coulomb.hpp</text>
</a>
</g>
</g>
<!-- Node1&#45;&gt;Node4 -->
<g id="edge3_Node000001_Node000004" class="edge">
<title>Node1&#45;&gt;Node4</title>
<g id="a_edge3_Node000001_Node000004"><a xlink:title=" ">
<path fill="none" stroke="#63b8ff" d="M647.34,-387.1C641.53,-378.04 634.68,-367.37 630.01,-360.09"/>
<polygon fill="#63b8ff" stroke="#63b8ff" points="644.54,-389.22 652.89,-395.75 650.43,-385.44 644.54,-389.22"/>
</a>
</g>
</g>
<!-- Node23 -->
<g id="Node000023" class="node">
<title>Node23</title>
<g id="a_Node000023"><a xlink:href="elc_8cpp.html" target="_top" xlink:title=" ">
<polygon fill="white" stroke="#666666" points="1137,-299.5 1086,-299.5 1086,-280.5 1137,-280.5 1137,-299.5"/>
<text text-anchor="middle" x="1111.5" y="-287.5" font-family="Helvetica,sans-Serif" font-size="10.00">elc.cpp</text>
</a>
</g>
</g>
<!-- Node1&#45;&gt;Node23 -->
<g id="edge37_Node000001_Node000023" class="edge">
<title>Node1&#45;&gt;Node23</title>
<g id="a_edge37_Node000001_Node000023"><a xlink:title=" ">
<path fill="none" stroke="#63b8ff" d="M694.87,-397.72C768.04,-383.66 937.9,-348.95 1076.5,-305 1081.49,-303.42 1086.78,-301.46 1091.69,-299.51"/>
<polygon fill="#63b8ff" stroke="#63b8ff" points="693.96,-394.33 684.79,-399.64 695.27,-401.2 693.96,-394.33"/>
</a>
</g>
</g>
<!-- Node27 -->
<g id="Node000027" class="node">
<title>Node27</title>
<g id="a_Node000027"><a xlink:href="p3m_8cpp.html" target="_top" xlink:title="The corresponding header file is p3m.hpp.">
<polygon fill="white" stroke="#666666" points="1214,-299.5 1155,-299.5 1155,-280.5 1214,-280.5 1214,-299.5"/>
<text text-anchor="middle" x="1184.5" y="-287.5" font-family="Helvetica,sans-Serif" font-size="10.00">p3m.cpp</text>
</a>
</g>
</g>
<!-- Node1&#45;&gt;Node27 -->
<g id="edge38_Node000001_Node000027" class="edge">
<title>Node1&#45;&gt;Node27</title>
<g id="a_edge38_Node000001_Node000027"><a xlink:title=" ">
<path fill="none" stroke="#63b8ff" d="M694.86,-399.5C776.73,-387.72 981.26,-355.36 1146.5,-305 1151.75,-303.4 1157.32,-301.48 1162.54,-299.57"/>
<polygon fill="#63b8ff" stroke="#63b8ff" points="694,-396.09 684.59,-400.96 694.98,-403.02 694,-396.09"/>
</a>
</g>
</g>
<!-- Node3 -->
<g id="Node000003" class="node">
<title>Node3</title>
<g id="a_Node000003"><a xlink:href="electrostatics_2initialize_8cpp.html" target="_top" xlink:title=" ">
<polygon fill="white" stroke="#666666" points="79,-239 0,-239 0,-220 79,-220 79,-239"/>
<text text-anchor="middle" x="39.5" y="-227" font-family="Helvetica,sans-Serif" font-size="10.00">initialize.cpp</text>
</a>
</g>
</g>
<!-- Node2&#45;&gt;Node3 -->
<g id="edge2_Node000002_Node000003" class="edge">
<title>Node2&#45;&gt;Node3</title>
<g id="a_edge2_Node000002_Node000003"><a xlink:title=" ">
<path fill="none" stroke="#63b8ff" d="M151.29,-342.16C98.84,-335.98 41.78,-324.83 25.5,-305 9.8,-285.88 24.71,-254.66 33.74,-239.43"/>
<polygon fill="#63b8ff" stroke="#63b8ff" points="151.03,-345.66 161.36,-343.3 151.82,-338.7 151.03,-345.66"/>
</a>
</g>
</g>
<!-- Node4&#45;&gt;Node3 -->
<g id="edge29_Node000004_Node000003" class="edge">
<title>Node4&#45;&gt;Node3</title>
<g id="a_edge29_Node000004_Node000003"><a xlink:title=" ">
<path fill="none" stroke="#63b8ff" d="M574.01,-347.12C438.93,-340.54 78.09,-321.49 58.5,-305 38.89,-288.49 38.01,-254.84 38.79,-239.05"/>
<polygon fill="#63b8ff" stroke="#63b8ff" points="573.94,-350.62 584.1,-347.61 574.28,-343.63 573.94,-350.62"/>
</a>
</g>
</g>
<!-- Node5 -->
<g id="Node000005" class="node">
<title>Node5</title>
<g id="a_Node000005"><a xlink:href="electrostatics_2Actor__impl_8hpp.html" target="_top" xlink:title=" ">
<polygon fill="white" stroke="#666666" points="157.5,-299.5 67.5,-299.5 67.5,-280.5 157.5,-280.5 157.5,-299.5"/>
<text text-anchor="middle" x="112.5" y="-287.5" font-family="Helvetica,sans-Serif" font-size="10.00">Actor_impl.hpp</text>
</a>
</g>
</g>
<!-- Node4&#45;&gt;Node5 -->
<g id="edge4_Node000004_Node000005" class="edge">
<title>Node4&#45;&gt;Node5</title>
<g id="a_edge4_Node000004_Node000005"><a xlink:title=" ">
<path fill="none" stroke="#63b8ff" d="M574.29,-347.2C489.64,-342.75 313.38,-331.01 166.5,-305 158.49,-303.58 149.92,-301.59 142.03,-299.55"/>
<polygon fill="#63b8ff" stroke="#63b8ff" points="574.23,-350.7 584.39,-347.72 574.59,-343.71 574.23,-350.7"/>
</a>
</g>
</g>
<!-- Node6 -->
<g id="Node000006" class="node">
<title>Node6</title>
<g id="a_Node000006"><a xlink:href="System_8impl_8hpp.html" target="_top" xlink:title=" ">
<polygon fill="white" stroke="#666666" points="275,-299.5 176,-299.5 176,-280.5 275,-280.5 275,-299.5"/>
<text text-anchor="middle" x="225.5" y="-287.5" font-family="Helvetica,sans-Serif" font-size="10.00">System.impl.hpp</text>
</a>
</g>
</g>
<!-- Node4&#45;&gt;Node6 -->
<g id="edge6_Node000004_Node000006" class="edge">
<title>Node4&#45;&gt;Node6</title>
<g id="a_edge6_Node000004_Node000006"><a xlink:title=" ">
<path fill="none" stroke="#63b8ff" d="M574.15,-344.63C507.38,-337.79 386.03,-324.01 283.5,-305 275.25,-303.47 266.41,-301.51 258.19,-299.54"/>
<polygon fill="#63b8ff" stroke="#63b8ff" points="574.08,-348.14 584.38,-345.67 574.79,-341.18 574.08,-348.14"/>
</a>
</g>
</g>
<!-- Node9 -->
<g id="Node000009" class="node">
<title>Node9</title>
<g id="a_Node000009"><a xlink:href="coulomb_8cpp.html" target="_top" xlink:title=" ">
<polygon fill="white" stroke="#666666" points="372,-299.5 293,-299.5 293,-280.5 372,-280.5 372,-299.5"/>
<text text-anchor="middle" x="332.5" y="-287.5" font-family="Helvetica,sans-Serif" font-size="10.00">coulomb.cpp</text>
</a>
</g>
</g>
<!-- Node4&#45;&gt;Node9 -->
<g id="edge9_Node000004_Node000009" class="edge">
<title>Node4&#45;&gt;Node9</title>
<g id="a_edge9_Node000004_Node000009"><a xlink:title=" ">
<path fill="none" stroke="#63b8ff" d="M573.94,-341.85C524.38,-333.97 446.81,-320.67 380.5,-305 373.83,-303.42 366.7,-301.49 360.04,-299.56"/>
<polygon fill="#63b8ff" stroke="#63b8ff" points="573.66,-345.34 584.08,-343.44 574.75,-338.43 573.66,-345.34"/>
</a>
</g>
</g>
<!-- Node10 -->
<g id="Node000010" class="node">
<title>Node10</title>
<g id="a_Node000010"><a xlink:href="coulomb__inline_8hpp.html" target="_top" xlink:title=" ">
<polygon fill="white" stroke="#666666" points="501.5,-299.5 389.5,-299.5 389.5,-280.5 501.5,-280.5 501.5,-299.5"/>
<text text-anchor="middle" x="445.5" y="-287.5" font-family="Helvetica,sans-Serif" font-size="10.00">coulomb_inline.hpp</text>
</a>
</g>
</g>
<!-- Node4&#45;&gt;Node10 -->
<g id="edge10_Node000004_Node000010" class="edge">
<title>Node4&#45;&gt;Node10</title>
<g id="a_edge10_Node000004_Node000010"><a xlink:title=" ">
<path fill="none" stroke="#63b8ff" d="M588.75,-337.82C554.13,-326.5 502.46,-309.62 471.56,-299.52"/>
<polygon fill="#63b8ff" stroke="#63b8ff" points="587.88,-341.21 598.47,-340.99 590.05,-334.56 587.88,-341.21"/>
</a>
</g>
</g>
<!-- Node16 -->
<g id="Node000016" class="node">
<title>Node16</title>
<g id="a_Node000016"><a xlink:href="energy_8cpp.html" target="_top" xlink:title=" ">
<polygon fill="white" stroke="#666666" points="400,-129 331,-129 331,-110 400,-110 400,-129"/>
<text text-anchor="middle" x="365.5" y="-117" font-family="Helvetica,sans-Serif" font-size="10.00">energy.cpp</text>
</a>
</g>
</g>
<!-- Node4&#45;&gt;Node16 -->
<g id="edge27_Node000004_Node000016" class="edge">
<title>Node4&#45;&gt;Node16</title>
<g id="a_edge27_Node000004_Node000016"><a xlink:title=" ">
<path fill="none" stroke="#63b8ff" d="M621.01,-331.11C612.62,-292.62 587.42,-203.96 527.5,-165 506.59,-151.41 441.34,-136.12 400.3,-127.46"/>
<polygon fill="#63b8ff" stroke="#63b8ff" points="617.58,-331.84 623.02,-340.94 624.44,-330.44 617.58,-331.84"/>
</a>
</g>
</g>
<!-- Node20 -->
<g id="Node000020" class="node">
<title>Node20</title>
<g id="a_Node000020"><a xlink:href="pressure_8cpp.html" target="_top" xlink:title=" ">
<polygon fill="white" stroke="#666666" points="641,-74 562,-74 562,-55 641,-55 641,-74"/>
<text text-anchor="middle" x="601.5" y="-62" font-family="Helvetica,sans-Serif" font-size="10.00">pressure.cpp</text>
</a>
</g>
</g>
<!-- Node4&#45;&gt;Node20 -->
<g id="edge35_Node000004_Node000020" class="edge">
<title>Node4&#45;&gt;Node20</title>
<g id="a_edge35_Node000004_Node000020"><a xlink:title=" ">
<path fill="none" stroke="#63b8ff" d="M629.31,-331.04C634.94,-307.77 643.5,-266.46 643.5,-230.5 643.5,-230.5 643.5,-230.5 643.5,-173.5 643.5,-134.07 618.88,-91.71 607.34,-74.02"/>
<polygon fill="#63b8ff" stroke="#63b8ff" points="625.87,-330.36 626.83,-340.91 632.66,-332.07 625.87,-330.36"/>
</a>
</g>
</g>
<!-- Node21 -->
<g id="Node000021" class="node">
<title>Node21</title>
<g id="a_Node000021"><a xlink:href="icc_8cpp.html" target="_top" xlink:title="Functions to compute the electric field acting on the induced charges, excluding forces other than th...">
<polygon fill="white" stroke="#666666" points="483.5,-239 433.5,-239 433.5,-220 483.5,-220 483.5,-239"/>
<text text-anchor="middle" x="458.5" y="-227" font-family="Helvetica,sans-Serif" font-size="10.00">icc.cpp</text>
</a>
</g>
</g>
<!-- Node4&#45;&gt;Node21 -->
<g id="edge28_Node000004_Node000021" class="edge">
<title>Node4&#45;&gt;Node21</title>
<g id="a_edge28_Node000004_Node000021"><a xlink:title=" ">
<path fill="none" stroke="#63b8ff" d="M604.11,-334.88C569.22,-309.87 499.09,-259.6 470.78,-239.3"/>
<polygon fill="#63b8ff" stroke="#63b8ff" points="602.4,-337.96 612.56,-340.94 606.47,-332.27 602.4,-337.96"/>
</a>
</g>
</g>
<!-- Node22 -->
<g id="Node000022" class="node">
<title>Node22</title>
<g id="a_Node000022"><a xlink:href="thole_8hpp.html" target="_top" xlink:title="Routines to calculate the Thole damping potential between particle pairs.">
<polygon fill="white" stroke="#666666" points="563.5,-239 501.5,-239 501.5,-220 563.5,-220 563.5,-239"/>
<text text-anchor="middle" x="532.5" y="-227" font-family="Helvetica,sans-Serif" font-size="10.00">thole.hpp</text>
</a>
</g>
</g>
<!-- Node4&#45;&gt;Node22 -->
<g id="edge36_Node000004_Node000022" class="edge">
<title>Node4&#45;&gt;Node22</title>
<g id="a_edge36_Node000004_Node000022"><a xlink:title=" ">
<path fill="none" stroke="#63b8ff" d="M611.68,-332.92C591.89,-307.32 554.6,-259.08 539.3,-239.3"/>
<polygon fill="#63b8ff" stroke="#63b8ff" points="609,-335.17 617.88,-340.94 614.54,-330.89 609,-335.17"/>
</a>
</g>
</g>
<!-- Node4&#45;&gt;Node23 -->
<g id="edge26_Node000004_Node000023" class="edge">
<title>Node4&#45;&gt;Node23</title>
<g id="a_edge26_Node000004_Node000023"><a xlink:title=" ">
<path fill="none" stroke="#63b8ff" d="M674.8,-349.15C759.09,-347.54 933.65,-339.85 1076.5,-305 1081.97,-303.67 1087.71,-301.65 1092.93,-299.56"/>
<polygon fill="#63b8ff" stroke="#63b8ff" points="674.67,-345.65 664.74,-349.32 674.79,-352.65 674.67,-345.65"/>
</a>
</g>
</g>
<!-- Node24 -->
<g id="Node000024" class="node">
<title>Node24</title>
<g id="a_Node000024"><a xlink:href="mmm1d_8cpp.html" target="_top" xlink:title=" ">
<polygon fill="white" stroke="#666666" points="749.5,-299.5 671.5,-299.5 671.5,-280.5 749.5,-280.5 749.5,-299.5"/>
<text text-anchor="middle" x="710.5" y="-287.5" font-family="Helvetica,sans-Serif" font-size="10.00">mmm1d.cpp</text>
</a>
</g>
</g>
<!-- Node4&#45;&gt;Node24 -->
<g id="edge30_Node000004_Node000024" class="edge">
<title>Node4&#45;&gt;Node24</title>
<g id="a_edge30_Node000004_Node000024"><a xlink:title=" ">
<path fill="none" stroke="#63b8ff" d="M645.58,-335.16C661.92,-324.05 684.02,-309.01 697.76,-299.67"/>
<polygon fill="#63b8ff" stroke="#63b8ff" points="643.49,-332.35 637.19,-340.87 647.43,-338.14 643.49,-332.35"/>
</a>
</g>
</g>
<!-- Node25 -->
<g id="Node000025" class="node">
<title>Node25</title>
<g id="a_Node000025"><a xlink:href="nonbonded__interaction__data_8cpp.html" target="_top" xlink:title="Implementation of nonbonded_interaction_data.hpp.">
<polygon fill="white" stroke="#666666" points="895.5,-305 767.5,-305 767.5,-275 895.5,-275 895.5,-305"/>
<text text-anchor="start" x="775.5" y="-293" font-family="Helvetica,sans-Serif" font-size="10.00">nonbonded_interaction</text>
<text text-anchor="middle" x="831.5" y="-282" font-family="Helvetica,sans-Serif" font-size="10.00">_data.cpp</text>
</a>
</g>
</g>
<!-- Node4&#45;&gt;Node25 -->
<g id="edge31_Node000004_Node000025" class="edge">
<title>Node4&#45;&gt;Node25</title>
<g id="a_edge31_Node000004_Node000025"><a xlink:title=" ">
<path fill="none" stroke="#63b8ff" d="M664.49,-338.2C697.94,-328.75 745.81,-315.22 781.73,-305.06"/>
<polygon fill="#63b8ff" stroke="#63b8ff" points="663.27,-334.91 654.6,-340.99 665.17,-341.64 663.27,-334.91"/>
</a>
</g>
</g>
<!-- Node26 -->
<g id="Node000026" class="node">
<title>Node26</title>
<g id="a_Node000026"><a xlink:href="npt_8cpp.html" target="_top" xlink:title=" ">
<polygon fill="white" stroke="#666666" points="967,-299.5 914,-299.5 914,-280.5 967,-280.5 967,-299.5"/>
<text text-anchor="middle" x="940.5" y="-287.5" font-family="Helvetica,sans-Serif" font-size="10.00">npt.cpp</text>
</a>
</g>
</g>
<!-- Node4&#45;&gt;Node26 -->
<g id="edge32_Node000004_Node000026" class="edge">
<title>Node4&#45;&gt;Node26</title>
<g id="a_edge32_Node000004_Node000026"><a xlink:title=" ">
<path fill="none" stroke="#63b8ff" d="M675.06,-344.75C731.67,-338.67 825.78,-326.3 904.5,-305 909.81,-303.56 915.41,-301.61 920.57,-299.62"/>
<polygon fill="#63b8ff" stroke="#63b8ff" points="674.52,-341.28 664.94,-345.81 675.25,-348.24 674.52,-341.28"/>
</a>
</g>
</g>
<!-- Node4&#45;&gt;Node27 -->
<g id="edge33_Node000004_Node000027" class="edge">
<title>Node4&#45;&gt;Node27</title>
<g id="a_edge33_Node000004_Node000027"><a xlink:title=" ">
<path fill="none" stroke="#63b8ff" d="M674.73,-349.66C768.58,-348.97 976.42,-342.86 1146.5,-305 1152.4,-303.69 1158.63,-301.68 1164.29,-299.58"/>
<polygon fill="#63b8ff" stroke="#63b8ff" points="674.65,-346.16 664.67,-349.71 674.69,-353.16 674.65,-346.16"/>
</a>
</g>
</g>
<!-- Node28 -->
<g id="Node000028" class="node">
<title>Node28</title>
<g id="a_Node000028"><a xlink:href="p3m__gpu_8cpp.html" target="_top" xlink:title=" ">
<polygon fill="white" stroke="#666666" points="1067.5,-299.5 985.5,-299.5 985.5,-280.5 1067.5,-280.5 1067.5,-299.5"/>
<text text-anchor="middle" x="1026.5" y="-287.5" font-family="Helvetica,sans-Serif" font-size="10.00">p3m_gpu.cpp</text>
</a>
</g>
</g>
<!-- Node4&#45;&gt;Node28 -->
<g id="edge34_Node000004_Node000028" class="edge">
<title>Node4&#45;&gt;Node28</title>
<g id="a_edge34_Node000004_Node000028"><a xlink:title=" ">
<path fill="none" stroke="#63b8ff" d="M674.61,-345.4C743.04,-339.29 869.36,-326.19 975.5,-305 982.88,-303.53 990.77,-301.56 998.08,-299.57"/>
<polygon fill="#63b8ff" stroke="#63b8ff" points="674.19,-341.92 664.54,-346.29 674.81,-348.9 674.19,-341.92"/>
</a>
</g>
</g>
<!-- Node5&#45;&gt;Node3 -->
<g id="edge5_Node000005_Node000003" class="edge">
<title>Node5&#45;&gt;Node3</title>
<g id="a_edge5_Node000005_Node000003"><a xlink:title=" ">
<path fill="none" stroke="#63b8ff" d="M93.83,-274.04C80.04,-262.99 61.76,-248.34 50.32,-239.17"/>
<polygon fill="#63b8ff" stroke="#63b8ff" points="91.74,-276.85 101.73,-280.37 96.11,-271.38 91.74,-276.85"/>
</a>
</g>
</g>
<!-- Node7 -->
<g id="Node000007" class="node">
<title>Node7</title>
<g id="a_Node000007"><a xlink:href="core_2system_2System_8cpp.html" target="_top" xlink:title=" ">
<polygon fill="white" stroke="#666666" points="217.5,-239 143.5,-239 143.5,-220 217.5,-220 217.5,-239"/>
<text text-anchor="middle" x="180.5" y="-227" font-family="Helvetica,sans-Serif" font-size="10.00">System.cpp</text>
</a>
</g>
</g>
<!-- Node6&#45;&gt;Node7 -->
<g id="edge7_Node000006_Node000007" class="edge">
<title>Node6&#45;&gt;Node7</title>
<g id="a_edge7_Node000006_Node000007"><a xlink:title=" ">
<path fill="none" stroke="#63b8ff" d="M212.52,-272.13C204.23,-261.35 193.82,-247.82 187.17,-239.17"/>
<polygon fill="#63b8ff" stroke="#63b8ff" points="209.99,-274.58 218.86,-280.37 215.54,-270.31 209.99,-274.58"/>
</a>
</g>
</g>
<!-- Node8 -->
<g id="Node000008" class="node">
<title>Node8</title>
<g id="a_Node000008"><a xlink:href="script__interface_2system_2System_8cpp.html" target="_top" xlink:title=" ">
<polygon fill="white" stroke="#666666" points="309.5,-239 235.5,-239 235.5,-220 309.5,-220 309.5,-239"/>
<text text-anchor="middle" x="272.5" y="-227" font-family="Helvetica,sans-Serif" font-size="10.00">System.cpp</text>
</a>
</g>
</g>
<!-- Node6&#45;&gt;Node8 -->
<g id="edge8_Node000006_Node000008" class="edge">
<title>Node6&#45;&gt;Node8</title>
<g id="a_edge8_Node000006_Node000008"><a xlink:title=" ">
<path fill="none" stroke="#63b8ff" d="M238.8,-272.45C247.5,-261.62 258.51,-247.91 265.54,-239.17"/>
<polygon fill="#63b8ff" stroke="#63b8ff" points="235.97,-270.38 232.44,-280.37 241.43,-274.76 235.97,-270.38"/>
</a>
</g>
</g>
<!-- Node11 -->
<g id="Node000011" class="node">
<title>Node11</title>
<g id="a_Node000011"><a xlink:href="energy__inline_8hpp.html" target="_top" xlink:title="Energy calculation.">
<polygon fill="white" stroke="#666666" points="400.5,-184 296.5,-184 296.5,-165 400.5,-165 400.5,-184"/>
<text text-anchor="middle" x="348.5" y="-172" font-family="Helvetica,sans-Serif" font-size="10.00">energy_inline.hpp</text>
</a>
</g>
</g>
<!-- Node10&#45;&gt;Node11 -->
<g id="edge11_Node000010_Node000011" class="edge">
<title>Node10&#45;&gt;Node11</title>
<g id="a_edge11_Node000010_Node000011"><a xlink:title=" ">
<path fill="none" stroke="#63b8ff" d="M431.64,-272.79C410.78,-248.38 372.03,-203.04 355.88,-184.13"/>
<polygon fill="#63b8ff" stroke="#63b8ff" points="429.05,-275.14 438.21,-280.47 434.37,-270.59 429.05,-275.14"/>
</a>
</g>
</g>
<!-- Node17 -->
<g id="Node000017" class="node">
<title>Node17</title>
<g id="a_Node000017"><a xlink:href="forces__inline_8hpp.html" target="_top" xlink:title="Force calculation.">
<polygon fill="white" stroke="#666666" points="518.5,-184 418.5,-184 418.5,-165 518.5,-165 518.5,-184"/>
<text text-anchor="middle" x="468.5" y="-172" font-family="Helvetica,sans-Serif" font-size="10.00">forces_inline.hpp</text>
</a>
</g>
</g>
<!-- Node10&#45;&gt;Node17 -->
<g id="edge17_Node000010_Node000017" class="edge">
<title>Node10&#45;&gt;Node17</title>
<g id="a_edge17_Node000010_Node000017"><a xlink:title=" ">
<path fill="none" stroke="#63b8ff" d="M433.66,-271.64C425.56,-257.49 417.46,-237.13 424.5,-220 430.78,-204.73 445.11,-191.9 455.72,-184"/>
<polygon fill="#63b8ff" stroke="#63b8ff" points="430.82,-273.69 439.08,-280.32 436.75,-269.98 430.82,-273.69"/>
</a>
</g>
</g>
<!-- Node10&#45;&gt;Node21 -->
<g id="edge22_Node000010_Node000021" class="edge">
<title>Node10&#45;&gt;Node21</title>
<g id="a_edge22_Node000010_Node000021"><a xlink:title=" ">
<path fill="none" stroke="#63b8ff" d="M449.61,-270.49C451.94,-260.01 454.75,-247.39 456.57,-239.17"/>
<polygon fill="#63b8ff" stroke="#63b8ff" points="446.17,-269.85 447.42,-280.37 453,-271.37 446.17,-269.85"/>
</a>
</g>
</g>
<!-- Node10&#45;&gt;Node22 -->
<g id="edge23_Node000010_Node000022" class="edge">
<title>Node10&#45;&gt;Node22</title>
<g id="a_edge23_Node000010_Node000022"><a xlink:title=" ">
<path fill="none" stroke="#63b8ff" d="M466.83,-274.66C483.36,-263.55 505.71,-248.51 519.61,-239.17"/>
<polygon fill="#63b8ff" stroke="#63b8ff" points="464.68,-271.88 458.34,-280.37 468.59,-277.69 464.68,-271.88"/>
</a>
</g>
</g>
<!-- Node12 -->
<g id="Node000012" class="node">
<title>Node12</title>
<g id="a_Node000012"><a xlink:href="core_2pair__criteria_2EnergyCriterion_8hpp.html" target="_top" xlink:title=" ">
<polygon fill="white" stroke="#666666" points="148,-129 35,-129 35,-110 148,-110 148,-129"/>
<text text-anchor="middle" x="91.5" y="-117" font-family="Helvetica,sans-Serif" font-size="10.00">EnergyCriterion.hpp</text>
</a>
</g>
</g>
<!-- Node11&#45;&gt;Node12 -->
<g id="edge12_Node000011_Node000012" class="edge">
<title>Node11&#45;&gt;Node12</title>
<g id="a_edge12_Node000011_Node000012"><a xlink:title=" ">
<path fill="none" stroke="#63b8ff" d="M297.3,-162.94C249.12,-153.01 177.88,-138.31 133.12,-129.08"/>
<polygon fill="#63b8ff" stroke="#63b8ff" points="296.71,-166.39 307.21,-164.98 298.12,-159.54 296.71,-166.39"/>
</a>
</g>
</g>
<!-- Node15 -->
<g id="Node000015" class="node">
<title>Node15</title>
<g id="a_Node000015"><a xlink:href="ShapeBasedConstraint_8cpp.html" target="_top" xlink:title=" ">
<polygon fill="white" stroke="#666666" points="313,-129 166,-129 166,-110 313,-110 313,-129"/>
<text text-anchor="middle" x="239.5" y="-117" font-family="Helvetica,sans-Serif" font-size="10.00">ShapeBasedConstraint.cpp</text>
</a>
</g>
</g>
<!-- Node11&#45;&gt;Node15 -->
<g id="edge15_Node000011_Node000015" class="edge">
<title>Node11&#45;&gt;Node15</title>
<g id="a_edge15_Node000011_Node000015"><a xlink:title=" ">
<path fill="none" stroke="#63b8ff" d="M321.77,-160.5C301.71,-150.75 274.82,-137.68 257.33,-129.17"/>
<polygon fill="#63b8ff" stroke="#63b8ff" points="320.46,-163.76 330.99,-164.98 323.52,-157.46 320.46,-163.76"/>
</a>
</g>
</g>
<!-- Node11&#45;&gt;Node16 -->
<g id="edge16_Node000011_Node000016" class="edge">
<title>Node11&#45;&gt;Node16</title>
<g id="a_edge16_Node000011_Node000016"><a xlink:title=" ">
<path fill="none" stroke="#63b8ff" d="M354.45,-154.95C357.27,-146.15 360.51,-136.06 362.75,-129.09"/>
<polygon fill="#63b8ff" stroke="#63b8ff" points="351.03,-154.16 351.31,-164.75 357.69,-156.29 351.03,-154.16"/>
</a>
</g>
</g>
<!-- Node13 -->
<g id="Node000013" class="node">
<title>Node13</title>
<g id="a_Node000013"><a xlink:href="script__interface_2pair__criteria_2EnergyCriterion_8hpp.html" target="_top" xlink:title=" ">
<polygon fill="white" stroke="#666666" points="148,-74 35,-74 35,-55 148,-55 148,-74"/>
<text text-anchor="middle" x="91.5" y="-62" font-family="Helvetica,sans-Serif" font-size="10.00">EnergyCriterion.hpp</text>
</a>
</g>
</g>
<!-- Node12&#45;&gt;Node13 -->
<g id="edge13_Node000012_Node000013" class="edge">
<title>Node12&#45;&gt;Node13</title>
<g id="a_edge13_Node000012_Node000013"><a xlink:title=" ">
<path fill="none" stroke="#63b8ff" d="M91.5,-99.66C91.5,-90.93 91.5,-80.99 91.5,-74.09"/>
<polygon fill="#63b8ff" stroke="#63b8ff" points="88,-99.75 91.5,-109.75 95,-99.75 88,-99.75"/>
</a>
</g>
</g>
<!-- Node14 -->
<g id="Node000014" class="node">
<title>Node14</title>
<g id="a_Node000014"><a xlink:href="pair__criteria_2initialize_8cpp.html" target="_top" xlink:title=" ">
<polygon fill="white" stroke="#666666" points="131,-19 52,-19 52,0 131,0 131,-19"/>
<text text-anchor="middle" x="91.5" y="-7" font-family="Helvetica,sans-Serif" font-size="10.00">initialize.cpp</text>
</a>
</g>
</g>
<!-- Node13&#45;&gt;Node14 -->
<g id="edge14_Node000013_Node000014" class="edge">
<title>Node13&#45;&gt;Node14</title>
<g id="a_edge14_Node000013_Node000014"><a xlink:title=" ">
<path fill="none" stroke="#63b8ff" d="M91.5,-44.66C91.5,-35.93 91.5,-25.99 91.5,-19.09"/>
<polygon fill="#63b8ff" stroke="#63b8ff" points="88,-44.75 91.5,-54.75 95,-44.75 88,-44.75"/>
</a>
</g>
</g>
<!-- Node17&#45;&gt;Node15 -->
<g id="edge18_Node000017_Node000015" class="edge">
<title>Node17&#45;&gt;Node15</title>
<g id="a_edge18_Node000017_Node000015"><a xlink:title=" ">
<path fill="none" stroke="#63b8ff" d="M421.79,-162.69C378.89,-152.76 316.14,-138.24 276.58,-129.08"/>
<polygon fill="#63b8ff" stroke="#63b8ff" points="421.18,-166.14 431.71,-164.98 422.75,-159.32 421.18,-166.14"/>
</a>
</g>
</g>
<!-- Node18 -->
<g id="Node000018" class="node">
<title>Node18</title>
<g id="a_Node000018"><a xlink:href="forces_8cpp.html" target="_top" xlink:title="Force calculation.">
<polygon fill="white" stroke="#666666" points="485,-129 418,-129 418,-110 485,-110 485,-129"/>
<text text-anchor="middle" x="451.5" y="-117" font-family="Helvetica,sans-Serif" font-size="10.00">forces.cpp</text>
</a>
</g>
</g>
<!-- Node17&#45;&gt;Node18 -->
<g id="edge19_Node000017_Node000018" class="edge">
<title>Node17&#45;&gt;Node18</title>
<g id="a_edge19_Node000017_Node000018"><a xlink:title=" ">
<path fill="none" stroke="#63b8ff" d="M462.55,-154.95C459.73,-146.15 456.49,-136.06 454.25,-129.09"/>
<polygon fill="#63b8ff" stroke="#63b8ff" points="459.31,-156.29 465.69,-164.75 465.97,-154.16 459.31,-156.29"/>
</a>
</g>
</g>
<!-- Node19 -->
<g id="Node000019" class="node">
<title>Node19</title>
<g id="a_Node000019"><a xlink:href="pressure__inline_8hpp.html" target="_top" xlink:title=" ">
<polygon fill="white" stroke="#666666" points="615.5,-129 503.5,-129 503.5,-110 615.5,-110 615.5,-129"/>
<text text-anchor="middle" x="559.5" y="-117" font-family="Helvetica,sans-Serif" font-size="10.00">pressure_inline.hpp</text>
</a>
</g>
</g>
<!-- Node17&#45;&gt;Node19 -->
<g id="edge20_Node000017_Node000019" class="edge">
<title>Node17&#45;&gt;Node19</title>
<g id="a_edge20_Node000017_Node000019"><a xlink:title=" ">
<path fill="none" stroke="#63b8ff" d="M492.2,-159.7C508.78,-150.04 530.41,-137.44 544.61,-129.17"/>
<polygon fill="#63b8ff" stroke="#63b8ff" points="490,-156.93 483.12,-164.98 493.52,-162.98 490,-156.93"/>
</a>
</g>
</g>
<!-- Node19&#45;&gt;Node20 -->
<g id="edge21_Node000019_Node000020" class="edge">
<title>Node19&#45;&gt;Node20</title>
<g id="a_edge21_Node000019_Node000020"><a xlink:title=" ">
<path fill="none" stroke="#63b8ff" d="M572.83,-101.67C580.11,-92.5 588.8,-81.52 594.69,-74.09"/>
<polygon fill="#63b8ff" stroke="#63b8ff" points="569.9,-99.74 566.44,-109.75 575.39,-104.08 569.9,-99.74"/>
</a>
</g>
</g>
<!-- Node22&#45;&gt;Node11 -->
<g id="edge24_Node000022_Node000011" class="edge">
<title>Node22&#45;&gt;Node11</title>
<g id="a_edge24_Node000022_Node000011"><a xlink:title=" ">
<path fill="none" stroke="#63b8ff" d="M493.21,-217.18C458.8,-207.27 409.54,-193.08 378.29,-184.08"/>
<polygon fill="#63b8ff" stroke="#63b8ff" points="492.36,-220.58 502.94,-219.98 494.3,-213.85 492.36,-220.58"/>
</a>
</g>
</g>
<!-- Node22&#45;&gt;Node17 -->
<g id="edge25_Node000022_Node000017" class="edge">
<title>Node22&#45;&gt;Node17</title>
<g id="a_edge25_Node000022_Node000017"><a xlink:title=" ">
<path fill="none" stroke="#63b8ff" d="M514.51,-213.6C503.04,-204.11 488.59,-192.13 478.97,-184.17"/>
<polygon fill="#63b8ff" stroke="#63b8ff" points="512.28,-216.3 522.22,-219.98 516.75,-210.91 512.28,-216.3"/>
</a>
</g>
</g>
</g>
</svg>

<g id="navigator" transform="translate(0 0)" fill="#404254">
  <rect fill="#f2f5e9" fill-opacity="0.5" stroke="#606060" stroke-width=".5" x="0" y="0" width="60" height="60"/>
  <use id="zoomplus" xlink:href="#zoomPlus" x="17" y="9" onmousedown="handleZoom(evt,'in')"/>
  <use id="zoomminus" xlink:href="#zoomMin" x="42" y="9" onmousedown="handleZoom(evt,'out')"/>
  <use id="reset" xlink:href="#resetDef" x="30" y="36" onmousedown="handleReset()"/>
   <use id="arrowup" xlink:href="#arrowUp" x="0" y="0" onmousedown="handlePan(0,-1)"/>
  <use id="arrowright" xlink:href="#arrowRight" x="0" y="0" onmousedown="handlePan(1,0)"/>
  <use id="arrowdown" xlink:href="#arrowDown" x="0" y="0" onmousedown="handlePan(0,1)"/>
  <use id="arrowleft" xlink:href="#arrowLeft" x="0" y="0" onmousedown="handlePan(-1,0)"/>
</g>
<svg viewBox="0 0 15 15" width="100%" height="30px" preserveAspectRatio="xMaxYMin meet">
 <g id="arrow_out" transform="scale(0.3 0.3)">
  <a xlink:href="elc_8hpp__dep__incl_org.svg" target="_base">
   <rect id="button" ry="5" rx="5" y="6" x="6" height="38" width="38"
        fill="#f2f5e9" fill-opacity="0.5" stroke="#606060" stroke-width="1.0"/>
   <path id="arrow"
     d="M 11.500037,31.436501 C 11.940474,20.09759 22.043105,11.32322 32.158766,21.979434 L 37.068811,17.246167 C 37.068811,17.246167 37.088388,32 37.088388,32 L 22.160133,31.978069 C 22.160133,31.978069 26.997745,27.140456 26.997745,27.140456 C 18.528582,18.264221 13.291696,25.230495 11.500037,31.436501 z"
     style="fill:#404040;"/>
  </a>
 </g>
</svg>

<style type='text/css'>
<![CDATA[
[data-mouse-over-selected='false'] { opacity: 0.7; }
[data-mouse-over-selected='true']  { opacity: 1.0; }
]]>
</style>
<script type="application/ecmascript"><![CDATA[
document.addEventListener('DOMContentLoaded', (event) => {
  highlightEdges();
  highlightAdjacentNodes();
});
]]></script>
</svg>
