<?xml version="1.0" encoding="UTF-8" standalone="no"?>
<!DOCTYPE svg PUBLIC "-//W3C//DTD SVG 1.1//EN"
 "http://www.w3.org/Graphics/SVG/1.1/DTD/svg11.dtd">
<!-- Generated by graphviz version 2.43.0 (0)
 -->
<!-- Title: Actor.hpp Pages: 1 -->
<!--zoomable 192 -->

<svg id="main" version="1.1" xmlns="http://www.w3.org/2000/svg" xmlns:xlink="http://www.w3.org/1999/xlink" xml:space="preserve" onload="init(evt)">
<style type="text/css"><![CDATA[
.node, .edge {opacity: 0.7;}
.node.selected, .edge.selected {opacity: 1;}
.edge:hover path { stroke: red; }
.edge:hover polygon { stroke: red; fill: red; }
]]></style>

<defs>
  <circle id="rim" cx="0" cy="0" r="7"/>
  <circle id="rim2" cx="0" cy="0" r="3.5"/>
  <g id="zoomPlus">
    <use xlink:href="#rim" fill="#404040"><set attributeName="fill" to="#808080" begin="zoomplus.mouseover" end="zoomplus.mouseout"/></use>
    <path d="M-4,0h8M0,-4v8" fill="none" stroke="white" stroke-width="1.5" pointer-events="none"/>
  </g>
  <g id="zoomMin">
    <use xlink:href="#rim" fill="#404040"><set attributeName="fill" to="#808080" begin="zoomminus.mouseover" end="zoomminus.mouseout"/></use>
    <path d="M-4,0h8" fill="none" stroke="white" stroke-width="1.5" pointer-events="none"/>
  </g>
  <g id="arrowUp" transform="translate(30 24)">
    <use xlink:href="#rim"/>
    <path pointer-events="none" fill="none" stroke="white" stroke-width="1.5" d="M0,-3.0v7 M-2.5,-0.5L0,-3.0L2.5,-0.5"/>
  </g>
  <g id="arrowRight" transform="rotate(90) translate(36 -43)">
    <use xlink:href="#rim"/>
    <path pointer-events="none" fill="none" stroke="white" stroke-width="1.5" d="M0,-3.0v7 M-2.5,-0.5L0,-3.0L2.5,-0.5"/>
  </g>
  <g id="arrowDown" transform="rotate(180) translate(-30 -48)">
    <use xlink:href="#rim"/>
    <path pointer-events="none" fill="none" stroke="white" stroke-width="1.5" d="M0,-3.0v7 M-2.5,-0.5L0,-3.0L2.5,-0.5"/>
  </g>
  <g id="arrowLeft" transform="rotate(270) translate(-36 17)">
    <use xlink:href="#rim"/>
    <path pointer-events="none" fill="none" stroke="white" stroke-width="1.5" d="M0,-3.0v7 M-2.5,-0.5L0,-3.0L2.5,-0.5"/>
  </g>
  <g id="resetDef">
    <use xlink:href="#rim2" fill="#404040"><set attributeName="fill" to="#808080" begin="reset.mouseover" end="reset.mouseout"/></use>
  </g>
</defs>
<script type="application/ecmascript">
var viewWidth = 822;
var viewHeight = 192;
var sectionId = 'dynsection-1';
</script>
<script type="application/ecmascript" xlink:href="svg.min.js"/>
<svg id="graph" class="graph">
<g id="viewport">
<title>Actor.hpp</title>
<!-- Node1 -->
<g id="Node000001" class="node">
<title>Node1</title>
<g id="a_Node000001"><a xlink:title=" ">
<polygon fill="#999999" stroke="#666666" points="424,-184 362,-184 362,-165 424,-165 424,-184"/>
<text text-anchor="middle" x="393" y="-172" font-family="Helvetica,sans-Serif" font-size="10.00">Actor.hpp</text>
</a>
</g>
</g>
<!-- Node2 -->
<g id="Node000002" class="node">
<title>Node2</title>
<g id="a_Node000002"><a xlink:href="electrostatics_2Actor__impl_8hpp.html" target="_top" xlink:title=" ">
<polygon fill="white" stroke="#666666" points="90,-74 0,-74 0,-55 90,-55 90,-74"/>
<text text-anchor="middle" x="45" y="-62" font-family="Helvetica,sans-Serif" font-size="10.00">Actor_impl.hpp</text>
</a>
</g>
</g>
<!-- Node1&#45;&gt;Node2 -->
<g id="edge1_Node000001_Node000002" class="edge">
<title>Node1&#45;&gt;Node2</title>
<g id="a_edge1_Node000001_Node000002"><a xlink:title=" ">
<path fill="none" stroke="#63b8ff" d="M351.64,-165.42C313.44,-157.55 255.32,-144.51 206,-129 153.55,-112.51 93.81,-87.14 64.01,-74.02"/>
<polygon fill="#63b8ff" stroke="#63b8ff" points="351.36,-168.94 361.86,-167.5 352.76,-162.08 351.36,-168.94"/>
</a>
</g>
</g>
<!-- Node4 -->
<g id="Node000004" class="node">
<title>Node4</title>
<g id="a_Node000004"><a xlink:href="CoulombMMM1D_8hpp.html" target="_top" xlink:title=" ">
<polygon fill="white" stroke="#666666" points="230,-74 108,-74 108,-55 230,-55 230,-74"/>
<text text-anchor="middle" x="169" y="-62" font-family="Helvetica,sans-Serif" font-size="10.00">CoulombMMM1D.hpp</text>
</a>
</g>
</g>
<!-- Node1&#45;&gt;Node4 -->
<g id="edge3_Node000001_Node000004" class="edge">
<title>Node1&#45;&gt;Node4</title>
<g id="a_edge3_Node000001_Node000004"><a xlink:title=" ">
<path fill="none" stroke="#63b8ff" d="M351.59,-167.56C318.39,-161.49 271.48,-149.9 235,-129 209.61,-114.45 186.63,-88.01 175.7,-74.29"/>
<polygon fill="#63b8ff" stroke="#63b8ff" points="351.41,-171.08 361.86,-169.34 352.6,-164.18 351.41,-171.08"/>
</a>
</g>
</g>
<!-- Node5 -->
<g id="Node000005" class="node">
<title>Node5</title>
<g id="a_Node000005"><a xlink:href="CoulombP3M_8hpp.html" target="_top" xlink:title=" ">
<polygon fill="white" stroke="#666666" points="346,-129 244,-129 244,-110 346,-110 346,-129"/>
<text text-anchor="middle" x="295" y="-117" font-family="Helvetica,sans-Serif" font-size="10.00">CoulombP3M.hpp</text>
</a>
</g>
</g>
<!-- Node1&#45;&gt;Node5 -->
<g id="edge5_Node000001_Node000005" class="edge">
<title>Node1&#45;&gt;Node5</title>
<g id="a_edge5_Node000001_Node000005"><a xlink:title=" ">
<path fill="none" stroke="#63b8ff" d="M367.97,-159.97C350.06,-150.28 326.47,-137.52 311.03,-129.17"/>
<polygon fill="#63b8ff" stroke="#63b8ff" points="366.79,-163.31 377.25,-164.98 370.12,-157.15 366.79,-163.31"/>
</a>
</g>
</g>
<!-- Node6 -->
<g id="Node000006" class="node">
<title>Node6</title>
<g id="a_Node000006"><a xlink:href="ElectrostaticLayerCorrection_8hpp.html" target="_top" xlink:title=" ">
<polygon fill="white" stroke="#666666" points="462,-74 286,-74 286,-55 462,-55 462,-74"/>
<text text-anchor="middle" x="374" y="-62" font-family="Helvetica,sans-Serif" font-size="10.00">ElectrostaticLayerCorrection.hpp</text>
</a>
</g>
</g>
<!-- Node1&#45;&gt;Node6 -->
<g id="edge15_Node000001_Node000006" class="edge">
<title>Node1&#45;&gt;Node6</title>
<g id="a_edge15_Node000001_Node000006"><a xlink:title=" ">
<path fill="none" stroke="#63b8ff" d="M389.71,-154.8C385.56,-131.2 378.59,-91.58 375.52,-74.16"/>
<polygon fill="#63b8ff" stroke="#63b8ff" points="386.27,-155.42 391.45,-164.66 393.16,-154.21 386.27,-155.42"/>
</a>
</g>
</g>
<!-- Node7 -->
<g id="Node000007" class="node">
<title>Node7</title>
<g id="a_Node000007"><a xlink:href="CoulombP3MGPU_8hpp.html" target="_top" xlink:title=" ">
<polygon fill="white" stroke="#666666" points="603.5,-74 480.5,-74 480.5,-55 603.5,-55 603.5,-74"/>
<text text-anchor="middle" x="542" y="-62" font-family="Helvetica,sans-Serif" font-size="10.00">CoulombP3MGPU.hpp</text>
</a>
</g>
</g>
<!-- Node1&#45;&gt;Node7 -->
<g id="edge9_Node000001_Node000007" class="edge">
<title>Node1&#45;&gt;Node7</title>
<g id="a_edge9_Node000001_Node000007"><a xlink:title=" ">
<path fill="none" stroke="#63b8ff" d="M400.34,-155.34C406.83,-141.3 417.52,-122.25 432,-110 453.07,-92.17 482.22,-80.81 505.22,-74.04"/>
<polygon fill="#63b8ff" stroke="#63b8ff" points="396.96,-154.34 396.21,-164.91 403.39,-157.12 396.96,-154.34"/>
</a>
</g>
</g>
<!-- Node8 -->
<g id="Node000008" class="node">
<title>Node8</title>
<g id="a_Node000008"><a xlink:href="CoulombScafacos_8hpp.html" target="_top" xlink:title=" ">
<polygon fill="white" stroke="#666666" points="565.5,-129 440.5,-129 440.5,-110 565.5,-110 565.5,-129"/>
<text text-anchor="middle" x="503" y="-117" font-family="Helvetica,sans-Serif" font-size="10.00">CoulombScafacos.hpp</text>
</a>
</g>
</g>
<!-- Node1&#45;&gt;Node8 -->
<g id="edge11_Node000001_Node000008" class="edge">
<title>Node1&#45;&gt;Node8</title>
<g id="a_edge11_Node000001_Node000008"><a xlink:title=" ">
<path fill="none" stroke="#63b8ff" d="M419.7,-160.63C439.97,-150.87 467.27,-137.71 485.01,-129.17"/>
<polygon fill="#63b8ff" stroke="#63b8ff" points="418.16,-157.49 410.67,-164.98 421.2,-163.8 418.16,-157.49"/>
</a>
</g>
</g>
<!-- Node9 -->
<g id="Node000009" class="node">
<title>Node9</title>
<g id="a_Node000009"><a xlink:href="DebyeHueckel_8hpp.html" target="_top" xlink:title=" ">
<polygon fill="white" stroke="#666666" points="692,-129 584,-129 584,-110 692,-110 692,-129"/>
<text text-anchor="middle" x="638" y="-117" font-family="Helvetica,sans-Serif" font-size="10.00">DebyeHueckel.hpp</text>
</a>
</g>
</g>
<!-- Node1&#45;&gt;Node9 -->
<g id="edge13_Node000001_Node000009" class="edge">
<title>Node1&#45;&gt;Node9</title>
<g id="a_edge13_Node000001_Node000009"><a xlink:title=" ">
<path fill="none" stroke="#63b8ff" d="M433.9,-164.65C479.6,-154.77 553.11,-138.86 598.31,-129.09"/>
<polygon fill="#63b8ff" stroke="#63b8ff" points="433.06,-161.25 424.03,-166.79 434.54,-168.09 433.06,-161.25"/>
</a>
</g>
</g>
<!-- Node10 -->
<g id="Node000010" class="node">
<title>Node10</title>
<g id="a_Node000010"><a xlink:href="ReactionField_8hpp.html" target="_top" xlink:title=" ">
<polygon fill="white" stroke="#666666" points="814,-129 710,-129 710,-110 814,-110 814,-129"/>
<text text-anchor="middle" x="762" y="-117" font-family="Helvetica,sans-Serif" font-size="10.00">ReactionField.hpp</text>
</a>
</g>
</g>
<!-- Node1&#45;&gt;Node10 -->
<g id="edge16_Node000001_Node000010" class="edge">
<title>Node1&#45;&gt;Node10</title>
<g id="a_edge16_Node000001_Node000010"><a xlink:title=" ">
<path fill="none" stroke="#63b8ff" d="M434.4,-167.55C501.97,-157.85 635.82,-138.62 709.8,-128"/>
<polygon fill="#63b8ff" stroke="#63b8ff" points="433.54,-164.14 424.14,-169.03 434.54,-171.07 433.54,-164.14"/>
</a>
</g>
</g>
<!-- Node3 -->
<g id="Node000003" class="node">
<title>Node3</title>
<g id="a_Node000003"><a xlink:href="electrostatics_2initialize_8cpp.html" target="_top" xlink:title=" ">
<polygon fill="white" stroke="#666666" points="497.5,-19 418.5,-19 418.5,0 497.5,0 497.5,-19"/>
<text text-anchor="middle" x="458" y="-7" font-family="Helvetica,sans-Serif" font-size="10.00">initialize.cpp</text>
</a>
</g>
</g>
<!-- Node2&#45;&gt;Node3 -->
<g id="edge2_Node000002_Node000003" class="edge">
<title>Node2&#45;&gt;Node3</title>
<g id="a_edge2_Node000002_Node000003"><a xlink:title=" ">
<path fill="none" stroke="#63b8ff" d="M100.33,-54.85C222.29,-37.83 353.95,-22.36 418.37,-14.98"/>
<polygon fill="#63b8ff" stroke="#63b8ff" points="99.48,-51.44 90.06,-56.29 100.45,-58.37 99.48,-51.44"/>
</a>
</g>
</g>
<!-- Node4&#45;&gt;Node3 -->
<g id="edge4_Node000004_Node000003" class="edge">
<title>Node4&#45;&gt;Node3</title>
<g id="a_edge4_Node000004_Node000003"><a xlink:title=" ">
<path fill="none" stroke="#63b8ff" d="M225.32,-53.17C282.07,-42.76 368.19,-26.97 418.19,-17.8"/>
<polygon fill="#63b8ff" stroke="#63b8ff" points="224.64,-49.74 215.43,-54.98 225.9,-56.62 224.64,-49.74"/>
</a>
</g>
</g>
<!-- Node5&#45;&gt;Node3 -->
<g id="edge8_Node000005_Node000003" class="edge">
<title>Node5&#45;&gt;Node3</title>
<g id="a_edge8_Node000005_Node000003"><a xlink:title=" ">
<path fill="none" stroke="#63b8ff" d="M282.48,-101.22C274.18,-87.45 266.55,-68.34 277,-55 294.22,-33.03 370.41,-20.47 418.29,-14.6"/>
<polygon fill="#63b8ff" stroke="#63b8ff" points="279.7,-103.35 288.13,-109.76 285.54,-99.49 279.7,-103.35"/>
</a>
</g>
</g>
<!-- Node5&#45;&gt;Node6 -->
<g id="edge6_Node000005_Node000006" class="edge">
<title>Node5&#45;&gt;Node6</title>
<g id="a_edge6_Node000005_Node000006"><a xlink:title=" ">
<path fill="none" stroke="#63b8ff" d="M316.39,-104.15C330.67,-94.57 348.97,-82.29 361.08,-74.17"/>
<polygon fill="#63b8ff" stroke="#63b8ff" points="314.05,-101.51 307.69,-109.98 317.95,-107.32 314.05,-101.51"/>
</a>
</g>
</g>
<!-- Node6&#45;&gt;Node3 -->
<g id="edge7_Node000006_Node000003" class="edge">
<title>Node6&#45;&gt;Node3</title>
<g id="a_edge7_Node000006_Node000003"><a xlink:title=" ">
<path fill="none" stroke="#63b8ff" d="M396.31,-49.42C411.55,-39.81 431.27,-27.37 444.26,-19.17"/>
<polygon fill="#63b8ff" stroke="#63b8ff" points="394.09,-46.69 387.5,-54.98 397.82,-52.61 394.09,-46.69"/>
</a>
</g>
</g>
<!-- Node7&#45;&gt;Node3 -->
<g id="edge10_Node000007_Node000003" class="edge">
<title>Node7&#45;&gt;Node3</title>
<g id="a_edge10_Node000007_Node000003"><a xlink:title=" ">
<path fill="none" stroke="#63b8ff" d="M519.69,-49.42C504.45,-39.81 484.73,-27.37 471.74,-19.17"/>
<polygon fill="#63b8ff" stroke="#63b8ff" points="518.18,-52.61 528.5,-54.98 521.91,-46.69 518.18,-52.61"/>
</a>
</g>
</g>
<!-- Node8&#45;&gt;Node3 -->
<g id="edge12_Node000008_Node000003" class="edge">
<title>Node8&#45;&gt;Node3</title>
<g id="a_edge12_Node000008_Node000003"><a xlink:title=" ">
<path fill="none" stroke="#63b8ff" d="M557.93,-107.45C594.37,-97.53 632.24,-80.55 613,-55 599.1,-36.55 538.73,-23.4 497.56,-16.38"/>
<polygon fill="#63b8ff" stroke="#63b8ff" points="557.05,-104.06 548.23,-109.94 558.79,-110.84 557.05,-104.06"/>
</a>
</g>
</g>
<!-- Node9&#45;&gt;Node3 -->
<g id="edge14_Node000009_Node000003" class="edge">
<title>Node9&#45;&gt;Node3</title>
<g id="a_edge14_Node000009_Node000003"><a xlink:title=" ">
<path fill="none" stroke="#63b8ff" d="M640.45,-99.89C641.21,-85.87 639.76,-67.06 629,-55 611.74,-35.66 542.75,-22.46 497.85,-15.72"/>
<polygon fill="#63b8ff" stroke="#63b8ff" points="636.96,-99.6 639.5,-109.88 643.93,-100.26 636.96,-99.6"/>
</a>
</g>
</g>
<!-- Node10&#45;&gt;Node3 -->
<g id="edge17_Node000010_Node000003" class="edge">
<title>Node10&#45;&gt;Node3</title>
<g id="a_edge17_Node000010_Node000003"><a xlink:title=" ">
<path fill="none" stroke="#63b8ff" d="M740.7,-104.4C718.24,-90.11 681.42,-68.26 647,-55 597.14,-35.78 536.57,-23.31 497.67,-16.59"/>
<polygon fill="#63b8ff" stroke="#63b8ff" points="738.82,-107.36 749.12,-109.84 742.62,-101.47 738.82,-107.36"/>
</a>
</g>
</g>
</g>
</svg>

<g id="navigator" transform="translate(0 0)" fill="#404254">
  <rect fill="#f2f5e9" fill-opacity="0.5" stroke="#606060" stroke-width=".5" x="0" y="0" width="60" height="60"/>
  <use id="zoomplus" xlink:href="#zoomPlus" x="17" y="9" onmousedown="handleZoom(evt,'in')"/>
  <use id="zoomminus" xlink:href="#zoomMin" x="42" y="9" onmousedown="handleZoom(evt,'out')"/>
  <use id="reset" xlink:href="#resetDef" x="30" y="36" onmousedown="handleReset()"/>
   <use id="arrowup" xlink:href="#arrowUp" x="0" y="0" onmousedown="handlePan(0,-1)"/>
  <use id="arrowright" xlink:href="#arrowRight" x="0" y="0" onmousedown="handlePan(1,0)"/>
  <use id="arrowdown" xlink:href="#arrowDown" x="0" y="0" onmousedown="handlePan(0,1)"/>
  <use id="arrowleft" xlink:href="#arrowLeft" x="0" y="0" onmousedown="handlePan(-1,0)"/>
</g>
<svg viewBox="0 0 15 15" width="100%" height="30px" preserveAspectRatio="xMaxYMin meet">
 <g id="arrow_out" transform="scale(0.3 0.3)">
  <a xlink:href="electrostatics_2Actor_8hpp__dep__incl_org.svg" target="_base">
   <rect id="button" ry="5" rx="5" y="6" x="6" height="38" width="38"
        fill="#f2f5e9" fill-opacity="0.5" stroke="#606060" stroke-width="1.0"/>
   <path id="arrow"
     d="M 11.500037,31.436501 C 11.940474,20.09759 22.043105,11.32322 32.158766,21.979434 L 37.068811,17.246167 C 37.068811,17.246167 37.088388,32 37.088388,32 L 22.160133,31.978069 C 22.160133,31.978069 26.997745,27.140456 26.997745,27.140456 C 18.528582,18.264221 13.291696,25.230495 11.500037,31.436501 z"
     style="fill:#404040;"/>
  </a>
 </g>
</svg>

<style type='text/css'>
<![CDATA[
[data-mouse-over-selected='false'] { opacity: 0.7; }
[data-mouse-over-selected='true']  { opacity: 1.0; }
]]>
</style>
<script type="application/ecmascript"><![CDATA[
document.addEventListener('DOMContentLoaded', (event) => {
  highlightEdges();
  highlightAdjacentNodes();
});
]]></script>
</svg>
