<?xml version="1.0" encoding="UTF-8" standalone="no"?>
<!DOCTYPE svg PUBLIC "-//W3C//DTD SVG 1.1//EN"
 "http://www.w3.org/Graphics/SVG/1.1/DTD/svg11.dtd">
<!-- Generated by graphviz version 2.43.0 (0)
 -->
<!-- Title: Actor.hpp Pages: 1 -->
<svg width="963pt" height="196pt"
 viewBox="0.00 0.00 963.00 196.00" xmlns="http://www.w3.org/2000/svg" xmlns:xlink="http://www.w3.org/1999/xlink">
<g id="graph0" class="graph" transform="scale(1 1) rotate(0) translate(4 192)">
<title>Actor.hpp</title>
<!-- Node1 -->
<g id="node1" class="node">
<title>Node1</title>
<g id="a_node1"><a xlink:title=" ">
<polygon fill="#bfbfbf" stroke="black" points="484,-168.5 484,-187.5 546,-187.5 546,-168.5 484,-168.5"/>
<text text-anchor="middle" x="515" y="-175.5" font-family="Helvetica,sans-Serif" font-size="10.00">Actor.hpp</text>
</a>
</g>
</g>
<!-- Node2 -->
<g id="node2" class="node">
<title>Node2</title>
<g id="a_node2"><a xlink:href="electrostatics_2Actor__impl_8hpp.html" target="_top" xlink:title=" ">
<polygon fill="none" stroke="black" points="0,-56.5 0,-75.5 90,-75.5 90,-56.5 0,-56.5"/>
<text text-anchor="middle" x="45" y="-63.5" font-family="Helvetica,sans-Serif" font-size="10.00">Actor_impl.hpp</text>
</a>
</g>
</g>
<!-- Node1&#45;&gt;Node2 -->
<g id="edge1" class="edge">
<title>Node1&#45;&gt;Node2</title>
<path fill="none" stroke="midnightblue" d="M473.73,-169.6C428.3,-161.26 353.17,-146.92 289,-132 211.07,-113.88 120.25,-88.56 74.52,-75.52"/>
<polygon fill="midnightblue" stroke="midnightblue" points="473.33,-173.08 483.79,-171.44 474.58,-166.2 473.33,-173.08"/>
</g>
<!-- Node4 -->
<g id="node4" class="node">
<title>Node4</title>
<g id="a_node4"><a xlink:href="CoulombMMM1D_8hpp.html" target="_top" xlink:title=" ">
<polygon fill="none" stroke="black" points="108,-56.5 108,-75.5 230,-75.5 230,-56.5 108,-56.5"/>
<text text-anchor="middle" x="169" y="-63.5" font-family="Helvetica,sans-Serif" font-size="10.00">CoulombMMM1D.hpp</text>
</a>
</g>
</g>
<!-- Node1&#45;&gt;Node4 -->
<g id="edge3" class="edge">
<title>Node1&#45;&gt;Node4</title>
<path fill="none" stroke="midnightblue" d="M473.97,-166.98C439.99,-158.44 390.56,-145.43 348,-132 290.46,-113.84 223.99,-88.54 190.56,-75.51"/>
<polygon fill="midnightblue" stroke="midnightblue" points="473.44,-170.46 483.99,-169.49 475.14,-163.67 473.44,-170.46"/>
</g>
<!-- Node5 -->
<g id="node5" class="node">
<title>Node5</title>
<g id="a_node5"><a xlink:href="CoulombMMM1DGpu_8hpp.html" target="_top" xlink:title=" ">
<polygon fill="none" stroke="black" points="248.5,-56.5 248.5,-75.5 389.5,-75.5 389.5,-56.5 248.5,-56.5"/>
<text text-anchor="middle" x="319" y="-63.5" font-family="Helvetica,sans-Serif" font-size="10.00">CoulombMMM1DGpu.hpp</text>
</a>
</g>
</g>
<!-- Node1&#45;&gt;Node5 -->
<g id="edge5" class="edge">
<title>Node1&#45;&gt;Node5</title>
<path fill="none" stroke="midnightblue" d="M474.07,-169.8C444.95,-163.3 405.85,-151.64 376,-132 352.93,-116.82 333.58,-89.88 324.52,-75.93"/>
<polygon fill="midnightblue" stroke="midnightblue" points="473.41,-173.24 483.92,-171.89 474.87,-166.39 473.41,-173.24"/>
</g>
<!-- Node6 -->
<g id="node6" class="node">
<title>Node6</title>
<g id="a_node6"><a xlink:href="CoulombP3M_8hpp.html" target="_top" xlink:title=" ">
<polygon fill="none" stroke="black" points="385,-112.5 385,-131.5 487,-131.5 487,-112.5 385,-112.5"/>
<text text-anchor="middle" x="436" y="-119.5" font-family="Helvetica,sans-Serif" font-size="10.00">CoulombP3M.hpp</text>
</a>
</g>
</g>
<!-- Node1&#45;&gt;Node6 -->
<g id="edge7" class="edge">
<title>Node1&#45;&gt;Node6</title>
<path fill="none" stroke="midnightblue" d="M493.97,-162.62C479.53,-152.76 460.86,-139.99 448.66,-131.65"/>
<polygon fill="midnightblue" stroke="midnightblue" points="492.08,-165.57 502.31,-168.32 496.03,-159.79 492.08,-165.57"/>
</g>
<!-- Node7 -->
<g id="node7" class="node">
<title>Node7</title>
<g id="a_node7"><a xlink:href="ElectrostaticLayerCorrection_8hpp.html" target="_top" xlink:title=" ">
<polygon fill="none" stroke="black" points="446,-56.5 446,-75.5 622,-75.5 622,-56.5 446,-56.5"/>
<text text-anchor="middle" x="534" y="-63.5" font-family="Helvetica,sans-Serif" font-size="10.00">ElectrostaticLayerCorrection.hpp</text>
</a>
</g>
</g>
<!-- Node1&#45;&gt;Node7 -->
<g id="edge17" class="edge">
<title>Node1&#45;&gt;Node7</title>
<path fill="none" stroke="midnightblue" d="M518.22,-158.35C522.38,-134.25 529.46,-93.31 532.52,-75.59"/>
<polygon fill="midnightblue" stroke="midnightblue" points="514.74,-157.92 516.49,-168.37 521.64,-159.11 514.74,-157.92"/>
</g>
<!-- Node8 -->
<g id="node8" class="node">
<title>Node8</title>
<g id="a_node8"><a xlink:href="CoulombP3MGPU_8hpp.html" target="_top" xlink:title=" ">
<polygon fill="none" stroke="black" points="640.5,-56.5 640.5,-75.5 763.5,-75.5 763.5,-56.5 640.5,-56.5"/>
<text text-anchor="middle" x="702" y="-63.5" font-family="Helvetica,sans-Serif" font-size="10.00">CoulombP3MGPU.hpp</text>
</a>
</g>
</g>
<!-- Node1&#45;&gt;Node8 -->
<g id="edge11" class="edge">
<title>Node1&#45;&gt;Node8</title>
<path fill="none" stroke="midnightblue" d="M526.7,-159.55C537.26,-145 554.02,-124.68 573,-112 599.92,-94.02 634.81,-82.42 661.51,-75.51"/>
<polygon fill="midnightblue" stroke="midnightblue" points="523.56,-157.94 520.69,-168.14 529.29,-161.95 523.56,-157.94"/>
</g>
<!-- Node9 -->
<g id="node9" class="node">
<title>Node9</title>
<g id="a_node9"><a xlink:href="CoulombScafacos_8hpp.html" target="_top" xlink:title=" ">
<polygon fill="none" stroke="black" points="581.5,-112.5 581.5,-131.5 706.5,-131.5 706.5,-112.5 581.5,-112.5"/>
<text text-anchor="middle" x="644" y="-119.5" font-family="Helvetica,sans-Serif" font-size="10.00">CoulombScafacos.hpp</text>
</a>
</g>
</g>
<!-- Node1&#45;&gt;Node9 -->
<g id="edge13" class="edge">
<title>Node1&#45;&gt;Node9</title>
<path fill="none" stroke="midnightblue" d="M544.85,-164.5C569.04,-154.38 602.46,-140.39 623.66,-131.52"/>
<polygon fill="midnightblue" stroke="midnightblue" points="543.31,-161.35 535.44,-168.44 546.02,-167.81 543.31,-161.35"/>
</g>
<!-- Node10 -->
<g id="node10" class="node">
<title>Node10</title>
<g id="a_node10"><a xlink:href="DebyeHueckel_8hpp.html" target="_top" xlink:title=" ">
<polygon fill="none" stroke="black" points="725,-112.5 725,-131.5 833,-131.5 833,-112.5 725,-112.5"/>
<text text-anchor="middle" x="779" y="-119.5" font-family="Helvetica,sans-Serif" font-size="10.00">DebyeHueckel.hpp</text>
</a>
</g>
</g>
<!-- Node1&#45;&gt;Node10 -->
<g id="edge15" class="edge">
<title>Node1&#45;&gt;Node10</title>
<path fill="none" stroke="midnightblue" d="M556.06,-168.6C605.36,-158.52 687.59,-141.7 737.21,-131.55"/>
<polygon fill="midnightblue" stroke="midnightblue" points="555.16,-165.21 546.06,-170.65 556.56,-172.07 555.16,-165.21"/>
</g>
<!-- Node11 -->
<g id="node11" class="node">
<title>Node11</title>
<g id="a_node11"><a xlink:href="ReactionField_8hpp.html" target="_top" xlink:title=" ">
<polygon fill="none" stroke="black" points="851,-112.5 851,-131.5 955,-131.5 955,-112.5 851,-112.5"/>
<text text-anchor="middle" x="903" y="-119.5" font-family="Helvetica,sans-Serif" font-size="10.00">ReactionField.hpp</text>
</a>
</g>
</g>
<!-- Node1&#45;&gt;Node11 -->
<g id="edge18" class="edge">
<title>Node1&#45;&gt;Node11</title>
<path fill="none" stroke="midnightblue" d="M556.29,-171.45C618.33,-163.08 739.3,-146.64 842,-132 844.86,-131.59 847.8,-131.17 850.76,-130.74"/>
<polygon fill="midnightblue" stroke="midnightblue" points="555.57,-168.01 546.12,-172.82 556.5,-174.95 555.57,-168.01"/>
</g>
<!-- Node3 -->
<g id="node3" class="node">
<title>Node3</title>
<g id="a_node3"><a xlink:href="electrostatics_2initialize_8cpp.html" target="_top" xlink:title=" ">
<polygon fill="none" stroke="black" points="494.5,-0.5 494.5,-19.5 573.5,-19.5 573.5,-0.5 494.5,-0.5"/>
<text text-anchor="middle" x="534" y="-7.5" font-family="Helvetica,sans-Serif" font-size="10.00">initialize.cpp</text>
</a>
</g>
</g>
<!-- Node2&#45;&gt;Node3 -->
<g id="edge2" class="edge">
<title>Node2&#45;&gt;Node3</title>
<path fill="none" stroke="midnightblue" d="M100.01,-55.94C251.63,-35.74 419.36,-20.64 494.32,-14.27"/>
<polygon fill="midnightblue" stroke="midnightblue" points="99.49,-52.48 90.05,-57.28 100.43,-59.41 99.49,-52.48"/>
</g>
<!-- Node4&#45;&gt;Node3 -->
<g id="edge4" class="edge">
<title>Node4&#45;&gt;Node3</title>
<path fill="none" stroke="midnightblue" d="M236.76,-54.97C312.52,-43.77 432.65,-25.99 494.43,-16.85"/>
<polygon fill="midnightblue" stroke="midnightblue" points="236.22,-51.52 226.84,-56.44 237.24,-58.44 236.22,-51.52"/>
</g>
<!-- Node5&#45;&gt;Node3 -->
<g id="edge6" class="edge">
<title>Node5&#45;&gt;Node3</title>
<path fill="none" stroke="midnightblue" d="M362.96,-53.96C403.57,-43.76 463.04,-28.82 500.09,-19.52"/>
<polygon fill="midnightblue" stroke="midnightblue" points="361.91,-50.61 353.07,-56.44 363.62,-57.4 361.91,-50.61"/>
</g>
<!-- Node6&#45;&gt;Node3 -->
<g id="edge10" class="edge">
<title>Node6&#45;&gt;Node3</title>
<path fill="none" stroke="midnightblue" d="M431.31,-102.28C428.94,-88.39 428.17,-69.59 437,-56 449.74,-36.38 473.44,-25.17 494.22,-18.85"/>
<polygon fill="midnightblue" stroke="midnightblue" points="427.9,-103.11 433.4,-112.16 434.75,-101.66 427.9,-103.11"/>
</g>
<!-- Node6&#45;&gt;Node7 -->
<g id="edge8" class="edge">
<title>Node6&#45;&gt;Node7</title>
<path fill="none" stroke="midnightblue" d="M460.59,-107.45C478.68,-97.48 502.73,-84.23 518.29,-75.65"/>
<polygon fill="midnightblue" stroke="midnightblue" points="458.81,-104.43 451.75,-112.32 462.19,-110.56 458.81,-104.43"/>
</g>
<!-- Node7&#45;&gt;Node3 -->
<g id="edge9" class="edge">
<title>Node7&#45;&gt;Node3</title>
<path fill="none" stroke="midnightblue" d="M534,-45.8C534,-36.91 534,-26.78 534,-19.75"/>
<polygon fill="midnightblue" stroke="midnightblue" points="530.5,-46.08 534,-56.08 537.5,-46.08 530.5,-46.08"/>
</g>
<!-- Node8&#45;&gt;Node3 -->
<g id="edge12" class="edge">
<title>Node8&#45;&gt;Node3</title>
<path fill="none" stroke="midnightblue" d="M665.61,-53.3C633.96,-43.13 588.83,-28.62 560.5,-19.52"/>
<polygon fill="midnightblue" stroke="midnightblue" points="664.79,-56.72 675.38,-56.44 666.93,-50.05 664.79,-56.72"/>
</g>
<!-- Node9&#45;&gt;Node3 -->
<g id="edge14" class="edge">
<title>Node9&#45;&gt;Node3</title>
<path fill="none" stroke="midnightblue" d="M710.71,-110.3C753.04,-100.62 795.87,-83.58 773,-56 748.14,-26.02 634.97,-15.88 573.7,-12.55"/>
<polygon fill="midnightblue" stroke="midnightblue" points="709.89,-106.89 700.86,-112.42 711.37,-113.73 709.89,-106.89"/>
</g>
<!-- Node10&#45;&gt;Node3 -->
<g id="edge16" class="edge">
<title>Node10&#45;&gt;Node3</title>
<path fill="none" stroke="midnightblue" d="M789.03,-103C795.51,-88.69 800.9,-68.98 790,-56 762.83,-23.64 638.45,-14.54 573.59,-11.99"/>
<polygon fill="midnightblue" stroke="midnightblue" points="785.72,-101.79 784.33,-112.29 791.97,-104.95 785.72,-101.79"/>
</g>
<!-- Node11&#45;&gt;Node3 -->
<g id="edge19" class="edge">
<title>Node11&#45;&gt;Node3</title>
<path fill="none" stroke="midnightblue" d="M885.49,-105.66C867.2,-90.53 837.05,-67.98 807,-56 728.24,-24.61 628.31,-15.11 573.85,-12.24"/>
<polygon fill="midnightblue" stroke="midnightblue" points="883.57,-108.62 893.46,-112.42 888.09,-103.28 883.57,-108.62"/>
</g>
</g>
</svg>
