<?xml version="1.0" encoding="UTF-8" standalone="no"?>
<!DOCTYPE svg PUBLIC "-//W3C//DTD SVG 1.1//EN"
 "http://www.w3.org/Graphics/SVG/1.1/DTD/svg11.dtd">
<!-- Generated by graphviz version 2.43.0 (0)
 -->
<!-- Title: Ellipsoid.cpp Pages: 1 -->
<svg width="2048pt" height="274pt"
 viewBox="0.00 0.00 2048.18 274.00" xmlns="http://www.w3.org/2000/svg" xmlns:xlink="http://www.w3.org/1999/xlink">
<g id="graph0" class="graph" transform="scale(1 1) rotate(0) translate(4 270)">
<title>Ellipsoid.cpp</title>
<!-- Node1 -->
<g id="node1" class="node">
<title>Node1</title>
<g id="a_node1"><a xlink:title=" ">
<polygon fill="#bfbfbf" stroke="black" points="469.68,-246.5 469.68,-265.5 547.68,-265.5 547.68,-246.5 469.68,-246.5"/>
<text text-anchor="middle" x="508.68" y="-253.5" font-family="Helvetica,sans-Serif" font-size="10.00">Ellipsoid.cpp</text>
</a>
</g>
</g>
<!-- Node2 -->
<g id="node2" class="node">
<title>Node2</title>
<g id="a_node2"><a xlink:title=" ">
<polygon fill="none" stroke="#bfbfbf" points="264.68,-190.5 264.68,-209.5 380.68,-209.5 380.68,-190.5 264.68,-190.5"/>
<text text-anchor="middle" x="322.68" y="-197.5" font-family="Helvetica,sans-Serif" font-size="10.00">shapes/Ellipsoid.hpp</text>
</a>
</g>
</g>
<!-- Node1&#45;&gt;Node2 -->
<g id="edge1" class="edge">
<title>Node1&#45;&gt;Node2</title>
<path fill="none" stroke="midnightblue" d="M479.21,-246.44C447.51,-237.24 396.95,-222.56 361.91,-212.39"/>
<polygon fill="midnightblue" stroke="midnightblue" points="362.6,-208.94 352.02,-209.52 360.64,-215.67 362.6,-208.94"/>
</g>
<!-- Node3 -->
<g id="node3" class="node">
<title>Node3</title>
<g id="a_node3"><a xlink:href="Vector_8hpp.html" target="_top" xlink:title="Vector implementation and trait types for boost qvm interoperability.">
<polygon fill="none" stroke="black" points="520.68,-190.5 520.68,-209.5 612.68,-209.5 612.68,-190.5 520.68,-190.5"/>
<text text-anchor="middle" x="566.68" y="-197.5" font-family="Helvetica,sans-Serif" font-size="10.00">utils/Vector.hpp</text>
</a>
</g>
</g>
<!-- Node1&#45;&gt;Node3 -->
<g id="edge2" class="edge">
<title>Node1&#45;&gt;Node3</title>
<path fill="none" stroke="midnightblue" d="M518,-246.32C526.57,-238.34 539.49,-226.31 549.87,-216.65"/>
<polygon fill="midnightblue" stroke="midnightblue" points="552.26,-219.21 557.19,-209.83 547.49,-214.09 552.26,-219.21"/>
</g>
<!-- Node25 -->
<g id="node25" class="node">
<title>Node25</title>
<g id="a_node25"><a xlink:title=" ">
<polygon fill="none" stroke="#bfbfbf" points="1084.68,-134.5 1084.68,-153.5 1148.68,-153.5 1148.68,-134.5 1084.68,-134.5"/>
<text text-anchor="middle" x="1116.68" y="-141.5" font-family="Helvetica,sans-Serif" font-size="10.00">algorithm</text>
</a>
</g>
</g>
<!-- Node1&#45;&gt;Node25 -->
<g id="edge39" class="edge">
<title>Node1&#45;&gt;Node25</title>
<path fill="none" stroke="midnightblue" d="M547.9,-248.17C639.49,-232.16 874.6,-190.8 1070.68,-154 1071.94,-153.76 1073.22,-153.52 1074.51,-153.28"/>
<polygon fill="midnightblue" stroke="midnightblue" points="1075.36,-156.68 1084.52,-151.36 1074.04,-149.8 1075.36,-156.68"/>
</g>
<!-- Node32 -->
<g id="node32" class="node">
<title>Node32</title>
<g id="a_node32"><a xlink:href="sqr_8hpp.html" target="_top" xlink:title=" ">
<polygon fill="none" stroke="black" points="398.68,-190.5 398.68,-209.5 502.68,-209.5 502.68,-190.5 398.68,-190.5"/>
<text text-anchor="middle" x="450.68" y="-197.5" font-family="Helvetica,sans-Serif" font-size="10.00">utils/math/sqr.hpp</text>
</a>
</g>
</g>
<!-- Node1&#45;&gt;Node32 -->
<g id="edge37" class="edge">
<title>Node1&#45;&gt;Node32</title>
<path fill="none" stroke="midnightblue" d="M499.36,-246.32C490.79,-238.34 477.87,-226.31 467.49,-216.65"/>
<polygon fill="midnightblue" stroke="midnightblue" points="469.87,-214.09 460.17,-209.83 465.1,-219.21 469.87,-214.09"/>
</g>
<!-- Node4 -->
<g id="node4" class="node">
<title>Node4</title>
<g id="a_node4"><a xlink:title=" ">
<polygon fill="none" stroke="#bfbfbf" points="491.68,-134.5 491.68,-153.5 641.68,-153.5 641.68,-134.5 491.68,-134.5"/>
<text text-anchor="middle" x="566.68" y="-141.5" font-family="Helvetica,sans-Serif" font-size="10.00">boost/qvm/deduce_vec.hpp</text>
</a>
</g>
</g>
<!-- Node3&#45;&gt;Node4 -->
<g id="edge3" class="edge">
<title>Node3&#45;&gt;Node4</title>
<path fill="none" stroke="midnightblue" d="M566.68,-190.08C566.68,-183.01 566.68,-172.86 566.68,-163.99"/>
<polygon fill="midnightblue" stroke="midnightblue" points="570.18,-163.75 566.68,-153.75 563.18,-163.75 570.18,-163.75"/>
</g>
<!-- Node5 -->
<g id="node5" class="node">
<title>Node5</title>
<g id="a_node5"><a xlink:title=" ">
<polygon fill="none" stroke="#bfbfbf" points="659.68,-134.5 659.68,-153.5 799.68,-153.5 799.68,-134.5 659.68,-134.5"/>
<text text-anchor="middle" x="729.68" y="-141.5" font-family="Helvetica,sans-Serif" font-size="10.00">boost/qvm/vec_traits.hpp</text>
</a>
</g>
</g>
<!-- Node3&#45;&gt;Node5 -->
<g id="edge4" class="edge">
<title>Node3&#45;&gt;Node5</title>
<path fill="none" stroke="midnightblue" d="M592.51,-190.44C619.93,-181.36 663.46,-166.94 694.11,-156.78"/>
<polygon fill="midnightblue" stroke="midnightblue" points="695.58,-159.98 703.98,-153.52 693.38,-153.34 695.58,-159.98"/>
</g>
<!-- Node6 -->
<g id="node6" class="node">
<title>Node6</title>
<g id="a_node6"><a xlink:href="Array_8hpp.html" target="_top" xlink:title="Array implementation with CUDA support.">
<polygon fill="none" stroke="black" points="855.68,-134.5 855.68,-153.5 941.68,-153.5 941.68,-134.5 855.68,-134.5"/>
<text text-anchor="middle" x="898.68" y="-141.5" font-family="Helvetica,sans-Serif" font-size="10.00">utils/Array.hpp</text>
</a>
</g>
</g>
<!-- Node3&#45;&gt;Node6 -->
<g id="edge5" class="edge">
<title>Node3&#45;&gt;Node6</title>
<path fill="none" stroke="midnightblue" d="M612.85,-191.49C673.9,-181.56 781.26,-164.1 845.6,-153.63"/>
<polygon fill="midnightblue" stroke="midnightblue" points="846.24,-157.08 855.54,-152.02 845.11,-150.17 846.24,-157.08"/>
</g>
<!-- Node8 -->
<g id="node8" class="node">
<title>Node8</title>
<g id="a_node8"><a xlink:title=" ">
<polygon fill="none" stroke="#bfbfbf" points="475.68,-6 475.68,-25 527.68,-25 527.68,-6 475.68,-6"/>
<text text-anchor="middle" x="501.68" y="-13" font-family="Helvetica,sans-Serif" font-size="10.00">cassert</text>
</a>
</g>
</g>
<!-- Node3&#45;&gt;Node8 -->
<g id="edge28" class="edge">
<title>Node3&#45;&gt;Node8</title>
<path fill="none" stroke="midnightblue" d="M612.82,-197.2C675.96,-193.67 784.27,-183.37 808.68,-154 814.36,-147.16 814.66,-140.58 808.68,-134 752.7,-72.35 491.67,-159.65 435.68,-98 414.99,-75.21 450.41,-46.98 476.86,-30.43"/>
<polygon fill="midnightblue" stroke="midnightblue" points="478.97,-33.24 485.73,-25.09 475.36,-27.25 478.97,-33.24"/>
</g>
<!-- Node10 -->
<g id="node10" class="node">
<title>Node10</title>
<g id="a_node10"><a xlink:title=" ">
<polygon fill="none" stroke="#bfbfbf" points="899.18,-6 899.18,-25 952.18,-25 952.18,-6 899.18,-6"/>
<text text-anchor="middle" x="925.68" y="-13" font-family="Helvetica,sans-Serif" font-size="10.00">cstddef</text>
</a>
</g>
</g>
<!-- Node3&#45;&gt;Node10 -->
<g id="edge30" class="edge">
<title>Node3&#45;&gt;Node10</title>
<path fill="none" stroke="midnightblue" d="M612.74,-196.12C708.77,-189.75 923.76,-173.48 950.68,-154 983.38,-130.34 992.22,-104.25 976.68,-67 970.64,-52.52 958.21,-40.07 947.13,-31.15"/>
<polygon fill="midnightblue" stroke="midnightblue" points="949.14,-28.28 939.05,-25.05 944.92,-33.87 949.14,-28.28"/>
</g>
<!-- Node22 -->
<g id="node22" class="node">
<title>Node22</title>
<g id="a_node22"><a xlink:title=" ">
<polygon fill="none" stroke="#bfbfbf" points="1305.18,-73 1305.18,-92 1358.18,-92 1358.18,-73 1305.18,-73"/>
<text text-anchor="middle" x="1331.68" y="-80" font-family="Helvetica,sans-Serif" font-size="10.00">iterator</text>
</a>
</g>
</g>
<!-- Node3&#45;&gt;Node22 -->
<g id="edge33" class="edge">
<title>Node3&#45;&gt;Node22</title>
<path fill="none" stroke="midnightblue" d="M612.95,-196.53C714.55,-190.77 954.36,-175.32 1032.68,-154 1053.02,-148.46 1055.54,-140.2 1075.68,-134 1170.37,-104.84 1200.26,-124.67 1295.68,-98 1298.12,-97.32 1300.63,-96.52 1303.12,-95.66"/>
<polygon fill="midnightblue" stroke="midnightblue" points="1304.39,-98.92 1312.52,-92.13 1301.93,-92.37 1304.39,-98.92"/>
</g>
<!-- Node3&#45;&gt;Node25 -->
<g id="edge27" class="edge">
<title>Node3&#45;&gt;Node25</title>
<path fill="none" stroke="midnightblue" d="M612.73,-196.5C701.6,-191.31 902.82,-177.85 1070.68,-154 1071.95,-153.82 1073.24,-153.63 1074.54,-153.43"/>
<polygon fill="midnightblue" stroke="midnightblue" points="1075.31,-156.84 1084.58,-151.72 1074.14,-149.94 1075.31,-156.84"/>
</g>
<!-- Node26 -->
<g id="node26" class="node">
<title>Node26</title>
<g id="a_node26"><a xlink:title=" ">
<polygon fill="none" stroke="#bfbfbf" points="16.18,-134.5 16.18,-153.5 63.18,-153.5 63.18,-134.5 16.18,-134.5"/>
<text text-anchor="middle" x="39.68" y="-141.5" font-family="Helvetica,sans-Serif" font-size="10.00">cmath</text>
</a>
</g>
</g>
<!-- Node3&#45;&gt;Node26 -->
<g id="edge29" class="edge">
<title>Node3&#45;&gt;Node26</title>
<path fill="none" stroke="midnightblue" d="M520.51,-191.17C517.52,-190.75 514.56,-190.35 511.68,-190 320.16,-166.53 266.56,-187.99 73.24,-153.97"/>
<polygon fill="midnightblue" stroke="midnightblue" points="73.79,-150.51 63.33,-152.2 72.56,-157.4 73.79,-150.51"/>
</g>
<!-- Node27 -->
<g id="node27" class="node">
<title>Node27</title>
<g id="a_node27"><a xlink:title=" ">
<polygon fill="none" stroke="#bfbfbf" points="81.18,-134.5 81.18,-153.5 146.18,-153.5 146.18,-134.5 81.18,-134.5"/>
<text text-anchor="middle" x="113.68" y="-141.5" font-family="Helvetica,sans-Serif" font-size="10.00">functional</text>
</a>
</g>
</g>
<!-- Node3&#45;&gt;Node27 -->
<g id="edge31" class="edge">
<title>Node3&#45;&gt;Node27</title>
<path fill="none" stroke="midnightblue" d="M520.5,-191.23C517.52,-190.79 514.56,-190.38 511.68,-190 356.83,-169.54 313.91,-178.74 156.34,-154.11"/>
<polygon fill="midnightblue" stroke="midnightblue" points="156.72,-150.62 146.29,-152.51 155.62,-157.54 156.72,-150.62"/>
</g>
<!-- Node28 -->
<g id="node28" class="node">
<title>Node28</title>
<g id="a_node28"><a xlink:title=" ">
<polygon fill="none" stroke="#bfbfbf" points="164.18,-134.5 164.18,-153.5 247.18,-153.5 247.18,-134.5 164.18,-134.5"/>
<text text-anchor="middle" x="205.68" y="-141.5" font-family="Helvetica,sans-Serif" font-size="10.00">initializer_list</text>
</a>
</g>
</g>
<!-- Node3&#45;&gt;Node28 -->
<g id="edge32" class="edge">
<title>Node3&#45;&gt;Node28</title>
<path fill="none" stroke="midnightblue" d="M520.48,-191.36C517.5,-190.9 514.55,-190.44 511.68,-190 401.74,-173.25 371.42,-172.01 257.58,-154.09"/>
<polygon fill="midnightblue" stroke="midnightblue" points="257.84,-150.59 247.41,-152.48 256.74,-157.5 257.84,-150.59"/>
</g>
<!-- Node29 -->
<g id="node29" class="node">
<title>Node29</title>
<g id="a_node29"><a xlink:title=" ">
<polygon fill="none" stroke="#bfbfbf" points="265.68,-134.5 265.68,-153.5 321.68,-153.5 321.68,-134.5 265.68,-134.5"/>
<text text-anchor="middle" x="293.68" y="-141.5" font-family="Helvetica,sans-Serif" font-size="10.00">numeric</text>
</a>
</g>
</g>
<!-- Node3&#45;&gt;Node29 -->
<g id="edge34" class="edge">
<title>Node3&#45;&gt;Node29</title>
<path fill="none" stroke="midnightblue" d="M520.42,-190.89C474.88,-182.74 403.12,-169.49 331.96,-154.2"/>
<polygon fill="midnightblue" stroke="midnightblue" points="332.44,-150.72 321.93,-152.03 330.96,-157.56 332.44,-150.72"/>
</g>
<!-- Node30 -->
<g id="node30" class="node">
<title>Node30</title>
<g id="a_node30"><a xlink:title=" ">
<polygon fill="none" stroke="#bfbfbf" points="340.18,-134.5 340.18,-153.5 409.18,-153.5 409.18,-134.5 340.18,-134.5"/>
<text text-anchor="middle" x="374.68" y="-141.5" font-family="Helvetica,sans-Serif" font-size="10.00">type_traits</text>
</a>
</g>
</g>
<!-- Node3&#45;&gt;Node30 -->
<g id="edge35" class="edge">
<title>Node3&#45;&gt;Node30</title>
<path fill="none" stroke="midnightblue" d="M536.26,-190.44C503.4,-181.2 450.9,-166.44 414.71,-156.26"/>
<polygon fill="midnightblue" stroke="midnightblue" points="415.54,-152.85 404.96,-153.52 413.64,-159.59 415.54,-152.85"/>
</g>
<!-- Node31 -->
<g id="node31" class="node">
<title>Node31</title>
<g id="a_node31"><a xlink:title=" ">
<polygon fill="none" stroke="#bfbfbf" points="427.18,-134.5 427.18,-153.5 474.18,-153.5 474.18,-134.5 427.18,-134.5"/>
<text text-anchor="middle" x="450.68" y="-141.5" font-family="Helvetica,sans-Serif" font-size="10.00">vector</text>
</a>
</g>
</g>
<!-- Node3&#45;&gt;Node31 -->
<g id="edge36" class="edge">
<title>Node3&#45;&gt;Node31</title>
<path fill="none" stroke="midnightblue" d="M548.3,-190.44C529.47,-181.68 499.95,-167.94 478.3,-157.86"/>
<polygon fill="midnightblue" stroke="midnightblue" points="479.52,-154.56 468.98,-153.52 476.57,-160.91 479.52,-154.56"/>
</g>
<!-- Node7 -->
<g id="node7" class="node">
<title>Node7</title>
<g id="a_node7"><a xlink:href="device__qualifier_8hpp.html" target="_top" xlink:title=" ">
<polygon fill="none" stroke="black" points="444.68,-73 444.68,-92 558.68,-92 558.68,-73 444.68,-73"/>
<text text-anchor="middle" x="501.68" y="-80" font-family="Helvetica,sans-Serif" font-size="10.00">device_qualifier.hpp</text>
</a>
</g>
</g>
<!-- Node6&#45;&gt;Node7 -->
<g id="edge6" class="edge">
<title>Node6&#45;&gt;Node7</title>
<path fill="none" stroke="midnightblue" d="M855.44,-136.05C850.8,-135.34 846.14,-134.65 841.68,-134 720.12,-116.42 688.66,-119.2 567.68,-98 561.31,-96.88 554.63,-95.58 548.05,-94.21"/>
<polygon fill="midnightblue" stroke="midnightblue" points="548.39,-90.7 537.88,-92.04 546.93,-97.55 548.39,-90.7"/>
</g>
<!-- Node6&#45;&gt;Node8 -->
<g id="edge22" class="edge">
<title>Node6&#45;&gt;Node8</title>
<path fill="none" stroke="midnightblue" d="M895.89,-134.18C890.25,-117.9 875.82,-83.31 850.68,-67 799.55,-33.82 616.79,-21.7 538.12,-17.96"/>
<polygon fill="midnightblue" stroke="midnightblue" points="537.89,-14.44 527.74,-17.48 537.57,-21.44 537.89,-14.44"/>
</g>
<!-- Node9 -->
<g id="node9" class="node">
<title>Node9</title>
<g id="a_node9"><a xlink:href="get_8hpp.html" target="_top" xlink:title=" ">
<polygon fill="none" stroke="black" points="899.18,-73 899.18,-92 952.18,-92 952.18,-73 899.18,-73"/>
<text text-anchor="middle" x="925.68" y="-80" font-family="Helvetica,sans-Serif" font-size="10.00">get.hpp</text>
</a>
</g>
</g>
<!-- Node6&#45;&gt;Node9 -->
<g id="edge8" class="edge">
<title>Node6&#45;&gt;Node9</title>
<path fill="none" stroke="midnightblue" d="M902.55,-134.48C906.48,-125.82 912.68,-112.15 917.67,-101.15"/>
<polygon fill="midnightblue" stroke="midnightblue" points="920.88,-102.56 921.82,-92.01 914.5,-99.67 920.88,-102.56"/>
</g>
<!-- Node6&#45;&gt;Node10 -->
<g id="edge23" class="edge">
<title>Node6&#45;&gt;Node10</title>
<path fill="none" stroke="midnightblue" d="M918.9,-134.49C933.45,-127.17 951.98,-115.06 960.68,-98 971.88,-76.04 955.38,-49.67 941.45,-33"/>
<polygon fill="midnightblue" stroke="midnightblue" points="943.82,-30.39 934.56,-25.24 938.58,-35.04 943.82,-30.39"/>
</g>
<!-- Node12 -->
<g id="node12" class="node">
<title>Node12</title>
<g id="a_node12"><a xlink:href="array_8hpp.html" target="_top" xlink:title=" ">
<polygon fill="none" stroke="black" points="1162.18,-73 1162.18,-92 1287.18,-92 1287.18,-73 1162.18,-73"/>
<text text-anchor="middle" x="1224.68" y="-80" font-family="Helvetica,sans-Serif" font-size="10.00">serialization/array.hpp</text>
</a>
</g>
</g>
<!-- Node6&#45;&gt;Node12 -->
<g id="edge11" class="edge">
<title>Node6&#45;&gt;Node12</title>
<path fill="none" stroke="midnightblue" d="M941.97,-135.1C1000.17,-124.48 1103.75,-105.57 1168.07,-93.83"/>
<polygon fill="midnightblue" stroke="midnightblue" points="1168.84,-97.25 1178.05,-92.01 1167.58,-90.36 1168.84,-97.25"/>
</g>
<!-- Node21 -->
<g id="node21" class="node">
<title>Node21</title>
<g id="a_node21"><a xlink:title=" ">
<polygon fill="none" stroke="#bfbfbf" points="577.18,-67.5 577.18,-97.5 684.18,-97.5 684.18,-67.5 577.18,-67.5"/>
<text text-anchor="start" x="585.18" y="-85.5" font-family="Helvetica,sans-Serif" font-size="10.00">boost/serialization</text>
<text text-anchor="middle" x="630.68" y="-74.5" font-family="Helvetica,sans-Serif" font-size="10.00">/access.hpp</text>
</a>
</g>
</g>
<!-- Node6&#45;&gt;Node21 -->
<g id="edge21" class="edge">
<title>Node6&#45;&gt;Node21</title>
<path fill="none" stroke="midnightblue" d="M858.77,-134.46C819.35,-125.99 757.08,-112.5 694.48,-98.39"/>
<polygon fill="midnightblue" stroke="midnightblue" points="694.96,-94.91 684.44,-96.12 693.42,-101.74 694.96,-94.91"/>
</g>
<!-- Node6&#45;&gt;Node22 -->
<g id="edge24" class="edge">
<title>Node6&#45;&gt;Node22</title>
<path fill="none" stroke="midnightblue" d="M942.01,-139.57C1030.56,-132.33 1229.53,-114.74 1295.68,-98 1298.35,-97.33 1301.07,-96.5 1303.78,-95.58"/>
<polygon fill="midnightblue" stroke="midnightblue" points="1305.18,-98.8 1313.32,-92.01 1302.73,-92.24 1305.18,-98.8"/>
</g>
<!-- Node23 -->
<g id="node23" class="node">
<title>Node23</title>
<g id="a_node23"><a xlink:title=" ">
<polygon fill="none" stroke="#bfbfbf" points="702.18,-73 702.18,-92 759.18,-92 759.18,-73 702.18,-73"/>
<text text-anchor="middle" x="730.68" y="-80" font-family="Helvetica,sans-Serif" font-size="10.00">ostream</text>
</a>
</g>
</g>
<!-- Node6&#45;&gt;Node23 -->
<g id="edge25" class="edge">
<title>Node6&#45;&gt;Node23</title>
<path fill="none" stroke="midnightblue" d="M872.47,-134.36C845.94,-125.53 803.8,-111.27 767.68,-98 765.79,-97.3 763.84,-96.58 761.89,-95.84"/>
<polygon fill="midnightblue" stroke="midnightblue" points="762.73,-92.41 752.14,-92.09 760.22,-98.95 762.73,-92.41"/>
</g>
<!-- Node24 -->
<g id="node24" class="node">
<title>Node24</title>
<g id="a_node24"><a xlink:title=" ">
<polygon fill="none" stroke="#bfbfbf" points="777.18,-73 777.18,-92 842.18,-92 842.18,-73 777.18,-73"/>
<text text-anchor="middle" x="809.68" y="-80" font-family="Helvetica,sans-Serif" font-size="10.00">stdexcept</text>
</a>
</g>
</g>
<!-- Node6&#45;&gt;Node24 -->
<g id="edge26" class="edge">
<title>Node6&#45;&gt;Node24</title>
<path fill="none" stroke="midnightblue" d="M885.93,-134.48C871.66,-124.93 848.28,-109.31 831.17,-97.87"/>
<polygon fill="midnightblue" stroke="midnightblue" points="832.67,-94.66 822.41,-92.01 828.78,-100.48 832.67,-94.66"/>
</g>
<!-- Node7&#45;&gt;Node8 -->
<g id="edge7" class="edge">
<title>Node7&#45;&gt;Node8</title>
<path fill="none" stroke="midnightblue" d="M501.68,-72.73C501.68,-63.18 501.68,-47.62 501.68,-35.28"/>
<polygon fill="midnightblue" stroke="midnightblue" points="505.18,-35.13 501.68,-25.13 498.18,-35.13 505.18,-35.13"/>
</g>
<!-- Node9&#45;&gt;Node10 -->
<g id="edge9" class="edge">
<title>Node9&#45;&gt;Node10</title>
<path fill="none" stroke="midnightblue" d="M925.68,-72.73C925.68,-63.18 925.68,-47.62 925.68,-35.28"/>
<polygon fill="midnightblue" stroke="midnightblue" points="929.18,-35.13 925.68,-25.13 922.18,-35.13 929.18,-35.13"/>
</g>
<!-- Node11 -->
<g id="node11" class="node">
<title>Node11</title>
<g id="a_node11"><a xlink:title=" ">
<polygon fill="none" stroke="#bfbfbf" points="840.18,-6 840.18,-25 881.18,-25 881.18,-6 840.18,-6"/>
<text text-anchor="middle" x="860.68" y="-13" font-family="Helvetica,sans-Serif" font-size="10.00">tuple</text>
</a>
</g>
</g>
<!-- Node9&#45;&gt;Node11 -->
<g id="edge10" class="edge">
<title>Node9&#45;&gt;Node11</title>
<path fill="none" stroke="midnightblue" d="M916.92,-72.73C906.59,-62.4 889.22,-45.04 876.51,-32.33"/>
<polygon fill="midnightblue" stroke="midnightblue" points="878.86,-29.72 869.31,-25.13 873.91,-34.67 878.86,-29.72"/>
</g>
<!-- Node12&#45;&gt;Node10 -->
<g id="edge20" class="edge">
<title>Node12&#45;&gt;Node10</title>
<path fill="none" stroke="midnightblue" d="M1162.23,-72.99C1108.43,-64.83 1029.03,-50.83 961.68,-31 959.25,-30.28 956.76,-29.47 954.27,-28.59"/>
<polygon fill="midnightblue" stroke="midnightblue" points="955.46,-25.3 944.87,-25.03 952.98,-31.84 955.46,-25.3"/>
</g>
<!-- Node13 -->
<g id="node13" class="node">
<title>Node13</title>
<g id="a_node13"><a xlink:title=" ">
<polygon fill="none" stroke="#bfbfbf" points="1907.18,-6 1907.18,-25 2040.18,-25 2040.18,-6 1907.18,-6"/>
<text text-anchor="middle" x="1973.68" y="-13" font-family="Helvetica,sans-Serif" font-size="10.00">boost/mpl/bool_fwd.hpp</text>
</a>
</g>
</g>
<!-- Node12&#45;&gt;Node13 -->
<g id="edge12" class="edge">
<title>Node12&#45;&gt;Node13</title>
<path fill="none" stroke="midnightblue" d="M1261.37,-72.98C1272.35,-70.7 1284.46,-68.47 1295.68,-67 1561.87,-32.05 1632.31,-64.55 1898.68,-31 1907.19,-29.93 1916.19,-28.47 1924.89,-26.89"/>
<polygon fill="midnightblue" stroke="midnightblue" points="1925.73,-30.3 1934.91,-25 1924.44,-23.42 1925.73,-30.3"/>
</g>
<!-- Node14 -->
<g id="node14" class="node">
<title>Node14</title>
<g id="a_node14"><a xlink:title=" ">
<polygon fill="none" stroke="#bfbfbf" points="970.68,-6 970.68,-25 1094.68,-25 1094.68,-6 970.68,-6"/>
<text text-anchor="middle" x="1032.68" y="-13" font-family="Helvetica,sans-Serif" font-size="10.00">boost/mpl/greater.hpp</text>
</a>
</g>
</g>
<!-- Node12&#45;&gt;Node14 -->
<g id="edge13" class="edge">
<title>Node12&#45;&gt;Node14</title>
<path fill="none" stroke="midnightblue" d="M1199.19,-72.87C1165.38,-61.42 1105.58,-41.18 1067.6,-28.32"/>
<polygon fill="midnightblue" stroke="midnightblue" points="1068.57,-24.96 1057.98,-25.06 1066.33,-31.59 1068.57,-24.96"/>
</g>
<!-- Node15 -->
<g id="node15" class="node">
<title>Node15</title>
<g id="a_node15"><a xlink:title=" ">
<polygon fill="none" stroke="#bfbfbf" points="1112.68,-6 1112.68,-25 1214.68,-25 1214.68,-6 1112.68,-6"/>
<text text-anchor="middle" x="1163.68" y="-13" font-family="Helvetica,sans-Serif" font-size="10.00">boost/mpl/int.hpp</text>
</a>
</g>
</g>
<!-- Node12&#45;&gt;Node15 -->
<g id="edge14" class="edge">
<title>Node12&#45;&gt;Node15</title>
<path fill="none" stroke="midnightblue" d="M1216.46,-72.73C1206.85,-62.5 1190.77,-45.36 1178.88,-32.69"/>
<polygon fill="midnightblue" stroke="midnightblue" points="1181.17,-30.02 1171.78,-25.13 1176.07,-34.81 1181.17,-30.02"/>
</g>
<!-- Node16 -->
<g id="node16" class="node">
<title>Node16</title>
<g id="a_node16"><a xlink:title=" ">
<polygon fill="none" stroke="#bfbfbf" points="1232.68,-0.5 1232.68,-30.5 1338.68,-30.5 1338.68,-0.5 1232.68,-0.5"/>
<text text-anchor="start" x="1240.68" y="-18.5" font-family="Helvetica,sans-Serif" font-size="10.00">boost/mpl/integral</text>
<text text-anchor="middle" x="1285.68" y="-7.5" font-family="Helvetica,sans-Serif" font-size="10.00">_c_tag.hpp</text>
</a>
</g>
</g>
<!-- Node12&#45;&gt;Node16 -->
<g id="edge15" class="edge">
<title>Node12&#45;&gt;Node16</title>
<path fill="none" stroke="midnightblue" d="M1232.91,-72.73C1241.23,-63.86 1254.42,-49.81 1265.53,-37.97"/>
<polygon fill="midnightblue" stroke="midnightblue" points="1268.17,-40.28 1272.46,-30.59 1263.06,-35.49 1268.17,-40.28"/>
</g>
<!-- Node17 -->
<g id="node17" class="node">
<title>Node17</title>
<g id="a_node17"><a xlink:title=" ">
<polygon fill="none" stroke="#bfbfbf" points="1357.18,-0.5 1357.18,-30.5 1508.18,-30.5 1508.18,-0.5 1357.18,-0.5"/>
<text text-anchor="start" x="1365.18" y="-18.5" font-family="Helvetica,sans-Serif" font-size="10.00">boost/serialization</text>
<text text-anchor="middle" x="1432.68" y="-7.5" font-family="Helvetica,sans-Serif" font-size="10.00">/is_bitwise_serializable.hpp</text>
</a>
</g>
</g>
<!-- Node12&#45;&gt;Node17 -->
<g id="edge16" class="edge">
<title>Node12&#45;&gt;Node17</title>
<path fill="none" stroke="midnightblue" d="M1252.3,-72.87C1284.26,-62.88 1337.65,-46.2 1378.08,-33.56"/>
<polygon fill="midnightblue" stroke="midnightblue" points="1379.29,-36.85 1387.79,-30.53 1377.2,-30.17 1379.29,-36.85"/>
</g>
<!-- Node18 -->
<g id="node18" class="node">
<title>Node18</title>
<g id="a_node18"><a xlink:title=" ">
<polygon fill="none" stroke="#bfbfbf" points="1526.18,-0.5 1526.18,-30.5 1633.18,-30.5 1633.18,-0.5 1526.18,-0.5"/>
<text text-anchor="start" x="1534.18" y="-18.5" font-family="Helvetica,sans-Serif" font-size="10.00">boost/serialization</text>
<text text-anchor="middle" x="1579.68" y="-7.5" font-family="Helvetica,sans-Serif" font-size="10.00">/level.hpp</text>
</a>
</g>
</g>
<!-- Node12&#45;&gt;Node18 -->
<g id="edge17" class="edge">
<title>Node12&#45;&gt;Node18</title>
<path fill="none" stroke="midnightblue" d="M1265.18,-72.93C1275.14,-70.91 1285.78,-68.81 1295.68,-67 1390.83,-49.58 1417.9,-50.32 1515.93,-31.27"/>
<polygon fill="midnightblue" stroke="midnightblue" points="1516.82,-34.66 1525.96,-29.3 1515.48,-27.79 1516.82,-34.66"/>
</g>
<!-- Node19 -->
<g id="node19" class="node">
<title>Node19</title>
<g id="a_node19"><a xlink:title=" ">
<polygon fill="none" stroke="#bfbfbf" points="1651.18,-0.5 1651.18,-30.5 1758.18,-30.5 1758.18,-0.5 1651.18,-0.5"/>
<text text-anchor="start" x="1659.18" y="-18.5" font-family="Helvetica,sans-Serif" font-size="10.00">boost/serialization</text>
<text text-anchor="middle" x="1704.68" y="-7.5" font-family="Helvetica,sans-Serif" font-size="10.00">/tracking.hpp</text>
</a>
</g>
</g>
<!-- Node12&#45;&gt;Node19 -->
<g id="edge18" class="edge">
<title>Node12&#45;&gt;Node19</title>
<path fill="none" stroke="midnightblue" d="M1262.88,-72.98C1273.47,-70.82 1284.99,-68.64 1295.68,-67 1445.64,-43.97 1487.97,-56.15 1640.77,-31.19"/>
<polygon fill="midnightblue" stroke="midnightblue" points="1641.71,-34.58 1651,-29.49 1640.56,-27.68 1641.71,-34.58"/>
</g>
<!-- Node20 -->
<g id="node20" class="node">
<title>Node20</title>
<g id="a_node20"><a xlink:title=" ">
<polygon fill="none" stroke="#bfbfbf" points="1776.18,-0.5 1776.18,-30.5 1889.18,-30.5 1889.18,-0.5 1776.18,-0.5"/>
<text text-anchor="start" x="1784.18" y="-18.5" font-family="Helvetica,sans-Serif" font-size="10.00">boost/serialization</text>
<text text-anchor="middle" x="1832.68" y="-7.5" font-family="Helvetica,sans-Serif" font-size="10.00">/tracking_enum.hpp</text>
</a>
</g>
</g>
<!-- Node12&#45;&gt;Node20 -->
<g id="edge19" class="edge">
<title>Node12&#45;&gt;Node20</title>
<path fill="none" stroke="midnightblue" d="M1262.11,-72.94C1272.9,-70.72 1284.72,-68.53 1295.68,-67 1500.79,-38.35 1557.82,-61.24 1766.02,-31.11"/>
<polygon fill="midnightblue" stroke="midnightblue" points="1766.67,-34.55 1776.05,-29.63 1765.65,-27.63 1766.67,-34.55"/>
</g>
<!-- Node32&#45;&gt;Node7 -->
<g id="edge38" class="edge">
<title>Node32&#45;&gt;Node7</title>
<path fill="none" stroke="midnightblue" d="M398.46,-191.11C395.49,-190.72 392.55,-190.35 389.68,-190 304.29,-179.69 -50.97,-197.83 6.68,-134 34.83,-102.83 305.9,-89.87 434.55,-85.45"/>
<polygon fill="midnightblue" stroke="midnightblue" points="434.8,-88.94 444.68,-85.11 434.56,-81.94 434.8,-88.94"/>
</g>
</g>
</svg>
