<?xml version="1.0" encoding="UTF-8" standalone="no"?>
<!DOCTYPE svg PUBLIC "-//W3C//DTD SVG 1.1//EN"
 "http://www.w3.org/Graphics/SVG/1.1/DTD/svg11.dtd">
<!-- Generated by graphviz version 2.43.0 (0)
 -->
<!-- Title: fene.hpp Pages: 1 -->
<!--zoomable 269 -->

<svg id="main" version="1.1" xmlns="http://www.w3.org/2000/svg" xmlns:xlink="http://www.w3.org/1999/xlink" xml:space="preserve" onload="init(evt)">
<style type="text/css"><![CDATA[
.node, .edge {opacity: 0.7;}
.node.selected, .edge.selected {opacity: 1;}
.edge:hover path { stroke: red; }
.edge:hover polygon { stroke: red; fill: red; }
]]></style>

<defs>
  <circle id="rim" cx="0" cy="0" r="7"/>
  <circle id="rim2" cx="0" cy="0" r="3.5"/>
  <g id="zoomPlus">
    <use xlink:href="#rim" fill="#404040"><set attributeName="fill" to="#808080" begin="zoomplus.mouseover" end="zoomplus.mouseout"/></use>
    <path d="M-4,0h8M0,-4v8" fill="none" stroke="white" stroke-width="1.5" pointer-events="none"/>
  </g>
  <g id="zoomMin">
    <use xlink:href="#rim" fill="#404040"><set attributeName="fill" to="#808080" begin="zoomminus.mouseover" end="zoomminus.mouseout"/></use>
    <path d="M-4,0h8" fill="none" stroke="white" stroke-width="1.5" pointer-events="none"/>
  </g>
  <g id="arrowUp" transform="translate(30 24)">
    <use xlink:href="#rim"/>
    <path pointer-events="none" fill="none" stroke="white" stroke-width="1.5" d="M0,-3.0v7 M-2.5,-0.5L0,-3.0L2.5,-0.5"/>
  </g>
  <g id="arrowRight" transform="rotate(90) translate(36 -43)">
    <use xlink:href="#rim"/>
    <path pointer-events="none" fill="none" stroke="white" stroke-width="1.5" d="M0,-3.0v7 M-2.5,-0.5L0,-3.0L2.5,-0.5"/>
  </g>
  <g id="arrowDown" transform="rotate(180) translate(-30 -48)">
    <use xlink:href="#rim"/>
    <path pointer-events="none" fill="none" stroke="white" stroke-width="1.5" d="M0,-3.0v7 M-2.5,-0.5L0,-3.0L2.5,-0.5"/>
  </g>
  <g id="arrowLeft" transform="rotate(270) translate(-36 17)">
    <use xlink:href="#rim"/>
    <path pointer-events="none" fill="none" stroke="white" stroke-width="1.5" d="M0,-3.0v7 M-2.5,-0.5L0,-3.0L2.5,-0.5"/>
  </g>
  <g id="resetDef">
    <use xlink:href="#rim2" fill="#404040"><set attributeName="fill" to="#808080" begin="reset.mouseover" end="reset.mouseout"/></use>
  </g>
</defs>
<script type="application/ecmascript">
var viewWidth = 2374;
var viewHeight = 269;
var sectionId = 'dynsection-0';
</script>
<script type="application/ecmascript" xlink:href="svg.min.js"/>
<svg id="graph" class="graph">
<g id="viewport">
<title>fene.hpp</title>
<!-- Node1 -->
<g id="Node000001" class="node">
<title>Node1</title>
<g id="a_Node000001"><a xlink:title="Routines to calculate the FENE potential between particle pairs.">
<polygon fill="#999999" stroke="#666666" points="1223,-261 1164,-261 1164,-242 1223,-242 1223,-261"/>
<text text-anchor="middle" x="1193.5" y="-249" font-family="Helvetica,sans-Serif" font-size="10.00">fene.hpp</text>
</a>
</g>
</g>
<!-- Node2 -->
<g id="Node000002" class="node">
<title>Node2</title>
<g id="a_Node000002"><a xlink:href="config_8hpp.html" target="_top" xlink:title="This file contains the defaults for ESPResSo.">
<polygon fill="white" stroke="#666666" points="121,-145.5 22,-145.5 22,-126.5 121,-126.5 121,-145.5"/>
<text text-anchor="middle" x="71.5" y="-133.5" font-family="Helvetica,sans-Serif" font-size="10.00">config/config.hpp</text>
</a>
</g>
</g>
<!-- Node1&#45;&gt;Node2 -->
<g id="edge1_Node000001_Node000002" class="edge">
<title>Node1&#45;&gt;Node2</title>
<g id="a_edge1_Node000001_Node000002"><a xlink:title=" ">
<path fill="none" stroke="#63b8ff" d="M1163.97,-250.21C1026.41,-248.67 447.7,-240.26 270.5,-206 207.55,-193.83 137.48,-165.96 99.57,-149.61"/>
<polygon fill="#63b8ff" stroke="#63b8ff" points="100.78,-146.32 90.21,-145.52 97.97,-152.73 100.78,-146.32"/>
</a>
</g>
</g>
<!-- Node4 -->
<g id="Node000004" class="node">
<title>Node4</title>
<g id="a_Node000004"><a xlink:href="errorhandling_8hpp.html" target="_top" xlink:title="This file contains the errorhandling code for severe errors, like a broken bond or illegal parameter ...">
<polygon fill="white" stroke="#666666" points="383,-206 280,-206 280,-187 383,-187 383,-206"/>
<text text-anchor="middle" x="331.5" y="-194" font-family="Helvetica,sans-Serif" font-size="10.00">errorhandling.hpp</text>
</a>
</g>
</g>
<!-- Node1&#45;&gt;Node4 -->
<g id="edge3_Node000001_Node000004" class="edge">
<title>Node1&#45;&gt;Node4</title>
<g id="a_edge3_Node000001_Node000004"><a xlink:title=" ">
<path fill="none" stroke="#63b8ff" d="M1163.83,-248.68C1040.17,-241.07 564.27,-211.81 393.2,-201.29"/>
<polygon fill="#63b8ff" stroke="#63b8ff" points="393.3,-197.79 383.1,-200.67 392.87,-204.78 393.3,-197.79"/>
</a>
</g>
</g>
<!-- Node14 -->
<g id="Node000014" class="node">
<title>Node14</title>
<g id="a_Node000014"><a xlink:href="Vector_8hpp.html" target="_top" xlink:title="Vector implementation and trait types for boost qvm interoperability.">
<polygon fill="white" stroke="#666666" points="1202.5,-206 1110.5,-206 1110.5,-187 1202.5,-187 1202.5,-206"/>
<text text-anchor="middle" x="1156.5" y="-194" font-family="Helvetica,sans-Serif" font-size="10.00">utils/Vector.hpp</text>
</a>
</g>
</g>
<!-- Node1&#45;&gt;Node14 -->
<g id="edge17_Node000001_Node000014" class="edge">
<title>Node1&#45;&gt;Node14</title>
<g id="a_edge17_Node000001_Node000014"><a xlink:title=" ">
<path fill="none" stroke="#63b8ff" d="M1187.39,-241.75C1182.22,-234.34 1174.65,-223.5 1168.31,-214.41"/>
<polygon fill="#63b8ff" stroke="#63b8ff" points="1171.09,-212.29 1162.5,-206.09 1165.35,-216.29 1171.09,-212.29"/>
</a>
</g>
</g>
<!-- Node36 -->
<g id="Node000036" class="node">
<title>Node36</title>
<g id="a_Node000036"><a xlink:title=" ">
<polygon fill="#e0e0e0" stroke="#999999" points="1894,-145.5 1847,-145.5 1847,-126.5 1894,-126.5 1894,-145.5"/>
<text text-anchor="middle" x="1870.5" y="-133.5" font-family="Helvetica,sans-Serif" font-size="10.00">cmath</text>
</a>
</g>
</g>
<!-- Node1&#45;&gt;Node36 -->
<g id="edge60_Node000001_Node000036" class="edge">
<title>Node1&#45;&gt;Node36</title>
<g id="a_edge60_Node000001_Node000036"><a xlink:title=" ">
<path fill="none" stroke="#63b8ff" d="M1198.26,-241.55C1206.51,-227.09 1224.94,-199.01 1249.5,-187 1366.1,-129.97 1705.48,-177.72 1832.5,-151 1835.34,-150.4 1838.25,-149.63 1841.13,-148.77"/>
<polygon fill="#63b8ff" stroke="#63b8ff" points="1842.35,-152.05 1850.71,-145.53 1840.11,-145.42 1842.35,-152.05"/>
</a>
</g>
</g>
<!-- Node44 -->
<g id="Node000044" class="node">
<title>Node44</title>
<g id="a_Node000044"><a xlink:href="sqr_8hpp.html" target="_top" xlink:title=" ">
<polygon fill="white" stroke="#666666" points="1362.5,-206 1258.5,-206 1258.5,-187 1362.5,-187 1362.5,-206"/>
<text text-anchor="middle" x="1310.5" y="-194" font-family="Helvetica,sans-Serif" font-size="10.00">utils/math/sqr.hpp</text>
</a>
</g>
</g>
<!-- Node1&#45;&gt;Node44 -->
<g id="edge58_Node000001_Node000044" class="edge">
<title>Node1&#45;&gt;Node44</title>
<g id="a_edge58_Node000001_Node000044"><a xlink:title=" ">
<path fill="none" stroke="#63b8ff" d="M1212.3,-241.98C1231.12,-233.46 1260.32,-220.23 1282,-210.41"/>
<polygon fill="#63b8ff" stroke="#63b8ff" points="1283.7,-213.48 1291.36,-206.17 1280.81,-207.11 1283.7,-213.48"/>
</a>
</g>
</g>
<!-- Node45 -->
<g id="Node000045" class="node">
<title>Node45</title>
<g id="a_Node000045"><a xlink:title=" ">
<polygon fill="#e0e0e0" stroke="#999999" points="1436.5,-206 1380.5,-206 1380.5,-187 1436.5,-187 1436.5,-206"/>
<text text-anchor="middle" x="1408.5" y="-194" font-family="Helvetica,sans-Serif" font-size="10.00">optional</text>
</a>
</g>
</g>
<!-- Node1&#45;&gt;Node45 -->
<g id="edge61_Node000001_Node000045" class="edge">
<title>Node1&#45;&gt;Node45</title>
<g id="a_edge61_Node000001_Node000045"><a xlink:title=" ">
<path fill="none" stroke="#63b8ff" d="M1223.39,-243.13C1261.77,-233.67 1328.39,-217.25 1370.37,-206.9"/>
<polygon fill="#63b8ff" stroke="#63b8ff" points="1371.36,-210.26 1380.23,-204.47 1369.68,-203.46 1371.36,-210.26"/>
</a>
</g>
</g>
<!-- Node3 -->
<g id="Node000003" class="node">
<title>Node3</title>
<g id="a_Node000003"><a xlink:title=" ">
<polygon fill="#e0e0e0" stroke="#999999" points="143,-85 0,-85 0,-66 143,-66 143,-85"/>
<text text-anchor="middle" x="71.5" y="-73" font-family="Helvetica,sans-Serif" font-size="10.00">config/config&#45;features.hpp</text>
</a>
</g>
</g>
<!-- Node2&#45;&gt;Node3 -->
<g id="edge2_Node000002_Node000003" class="edge">
<title>Node2&#45;&gt;Node3</title>
<g id="a_edge2_Node000002_Node000003"><a xlink:title=" ">
<path fill="none" stroke="#63b8ff" d="M71.5,-126.37C71.5,-118.25 71.5,-105.81 71.5,-95.39"/>
<polygon fill="#63b8ff" stroke="#63b8ff" points="75,-95.17 71.5,-85.17 68,-95.17 75,-95.17"/>
</a>
</g>
</g>
<!-- Node4&#45;&gt;Node2 -->
<g id="edge4_Node000004_Node000002" class="edge">
<title>Node4&#45;&gt;Node2</title>
<g id="a_edge4_Node000004_Node000002"><a xlink:title=" ">
<path fill="none" stroke="#63b8ff" d="M292.18,-186.98C251.63,-178.15 186.59,-163.86 130.5,-151 126.11,-149.99 121.54,-148.93 116.97,-147.86"/>
<polygon fill="#63b8ff" stroke="#63b8ff" points="117.58,-144.41 107.05,-145.53 115.98,-151.22 117.58,-144.41"/>
</a>
</g>
</g>
<!-- Node5 -->
<g id="Node000005" class="node">
<title>Node5</title>
<g id="a_Node000005"><a xlink:href="RuntimeError_8hpp.html" target="_top" xlink:title=" ">
<polygon fill="white" stroke="#666666" points="553,-85 378,-85 378,-66 553,-66 553,-85"/>
<text text-anchor="middle" x="465.5" y="-73" font-family="Helvetica,sans-Serif" font-size="10.00">error_handling/RuntimeError.hpp</text>
</a>
</g>
</g>
<!-- Node4&#45;&gt;Node5 -->
<g id="edge5_Node000004_Node000005" class="edge">
<title>Node4&#45;&gt;Node5</title>
<g id="a_edge5_Node000004_Node000005"><a xlink:title=" ">
<path fill="none" stroke="#63b8ff" d="M356.53,-186.86C375.19,-179.5 400.47,-167.48 418.5,-151 436.08,-134.94 449.66,-110.86 457.6,-94.45"/>
<polygon fill="#63b8ff" stroke="#63b8ff" points="460.78,-95.92 461.81,-85.37 454.43,-92.98 460.78,-95.92"/>
</a>
</g>
</g>
<!-- Node8 -->
<g id="Node000008" class="node">
<title>Node8</title>
<g id="a_Node000008"><a xlink:title=" ">
<polygon fill="#e0e0e0" stroke="#999999" points="297.5,-24.5 253.5,-24.5 253.5,-5.5 297.5,-5.5 297.5,-24.5"/>
<text text-anchor="middle" x="275.5" y="-12.5" font-family="Helvetica,sans-Serif" font-size="10.00">string</text>
</a>
</g>
</g>
<!-- Node4&#45;&gt;Node8 -->
<g id="edge15_Node000004_Node000008" class="edge">
<title>Node4&#45;&gt;Node8</title>
<g id="a_edge15_Node000004_Node000008"><a xlink:title=" ">
<path fill="none" stroke="#63b8ff" d="M296.06,-186.99C277.24,-180.48 255.74,-169.38 244.5,-151 221.48,-113.36 247.38,-60.33 263.9,-33.31"/>
<polygon fill="#63b8ff" stroke="#63b8ff" points="267.03,-34.91 269.46,-24.6 261.13,-31.15 267.03,-34.91"/>
</a>
</g>
</g>
<!-- Node10 -->
<g id="Node000010" class="node">
<title>Node10</title>
<g id="a_Node000010"><a xlink:href="RuntimeErrorStream_8hpp.html" target="_top" xlink:title=" ">
<polygon fill="white" stroke="#666666" points="409,-151 254,-151 254,-121 409,-121 409,-151"/>
<text text-anchor="start" x="262" y="-139" font-family="Helvetica,sans-Serif" font-size="10.00">error_handling/RuntimeError</text>
<text text-anchor="middle" x="331.5" y="-128" font-family="Helvetica,sans-Serif" font-size="10.00">Stream.hpp</text>
</a>
</g>
</g>
<!-- Node4&#45;&gt;Node10 -->
<g id="edge10_Node000004_Node000010" class="edge">
<title>Node4&#45;&gt;Node10</title>
<g id="a_edge10_Node000004_Node000010"><a xlink:title=" ">
<path fill="none" stroke="#63b8ff" d="M331.5,-186.87C331.5,-180.11 331.5,-170.35 331.5,-161.26"/>
<polygon fill="#63b8ff" stroke="#63b8ff" points="335,-161.11 331.5,-151.11 328,-161.11 335,-161.11"/>
</a>
</g>
</g>
<!-- Node12 -->
<g id="Node000012" class="node">
<title>Node12</title>
<g id="a_Node000012"><a xlink:title=" ">
<polygon fill="#e0e0e0" stroke="#999999" points="197.5,-145.5 139.5,-145.5 139.5,-126.5 197.5,-126.5 197.5,-145.5"/>
<text text-anchor="middle" x="168.5" y="-133.5" font-family="Helvetica,sans-Serif" font-size="10.00">memory</text>
</a>
</g>
</g>
<!-- Node4&#45;&gt;Node12 -->
<g id="edge14_Node000004_Node000012" class="edge">
<title>Node4&#45;&gt;Node12</title>
<g id="a_edge14_Node000004_Node000012"><a xlink:title=" ">
<path fill="none" stroke="#63b8ff" d="M307.8,-186.99C279.91,-176.99 233.43,-160.3 201.9,-148.99"/>
<polygon fill="#63b8ff" stroke="#63b8ff" points="202.82,-145.6 192.23,-145.52 200.46,-152.19 202.82,-145.6"/>
</a>
</g>
</g>
<!-- Node13 -->
<g id="Node000013" class="node">
<title>Node13</title>
<g id="a_Node000013"><a xlink:title=" ">
<polygon fill="#e0e0e0" stroke="#999999" points="513,-145.5 466,-145.5 466,-126.5 513,-126.5 513,-145.5"/>
<text text-anchor="middle" x="489.5" y="-133.5" font-family="Helvetica,sans-Serif" font-size="10.00">vector</text>
</a>
</g>
</g>
<!-- Node4&#45;&gt;Node13 -->
<g id="edge16_Node000004_Node000013" class="edge">
<title>Node4&#45;&gt;Node13</title>
<g id="a_edge16_Node000004_Node000013"><a xlink:title=" ">
<path fill="none" stroke="#63b8ff" d="M354.47,-186.99C381.39,-177.03 426.17,-160.45 456.73,-149.13"/>
<polygon fill="#63b8ff" stroke="#63b8ff" points="458.34,-152.27 466.5,-145.52 455.9,-145.71 458.34,-152.27"/>
</a>
</g>
</g>
<!-- Node6 -->
<g id="Node000006" class="node">
<title>Node6</title>
<g id="a_Node000006"><a xlink:title=" ">
<polygon fill="#e0e0e0" stroke="#999999" points="881,-30 774,-30 774,0 881,0 881,-30"/>
<text text-anchor="start" x="782" y="-18" font-family="Helvetica,sans-Serif" font-size="10.00">boost/serialization</text>
<text text-anchor="middle" x="827.5" y="-7" font-family="Helvetica,sans-Serif" font-size="10.00">/access.hpp</text>
</a>
</g>
</g>
<!-- Node5&#45;&gt;Node6 -->
<g id="edge6_Node000005_Node000006" class="edge">
<title>Node5&#45;&gt;Node6</title>
<g id="a_edge6_Node000005_Node000006"><a xlink:title=" ">
<path fill="none" stroke="#63b8ff" d="M518.14,-65.99C583.27,-55.47 694.1,-37.56 763.92,-26.27"/>
<polygon fill="#63b8ff" stroke="#63b8ff" points="764.6,-29.71 773.91,-24.66 763.48,-22.8 764.6,-29.71"/>
</a>
</g>
</g>
<!-- Node7 -->
<g id="Node000007" class="node">
<title>Node7</title>
<g id="a_Node000007"><a xlink:title=" ">
<polygon fill="#e0e0e0" stroke="#999999" points="519,-30 412,-30 412,0 519,0 519,-30"/>
<text text-anchor="start" x="420" y="-18" font-family="Helvetica,sans-Serif" font-size="10.00">boost/serialization</text>
<text text-anchor="middle" x="465.5" y="-7" font-family="Helvetica,sans-Serif" font-size="10.00">/string.hpp</text>
</a>
</g>
</g>
<!-- Node5&#45;&gt;Node7 -->
<g id="edge7_Node000005_Node000007" class="edge">
<title>Node5&#45;&gt;Node7</title>
<g id="a_edge7_Node000005_Node000007"><a xlink:title=" ">
<path fill="none" stroke="#63b8ff" d="M465.5,-65.87C465.5,-59.11 465.5,-49.35 465.5,-40.26"/>
<polygon fill="#63b8ff" stroke="#63b8ff" points="469,-40.11 465.5,-30.11 462,-40.11 469,-40.11"/>
</a>
</g>
</g>
<!-- Node5&#45;&gt;Node8 -->
<g id="edge8_Node000005_Node000008" class="edge">
<title>Node5&#45;&gt;Node8</title>
<g id="a_edge8_Node000005_Node000008"><a xlink:title=" ">
<path fill="none" stroke="#63b8ff" d="M437.87,-65.99C403.16,-55.31 343.72,-37 307.19,-25.76"/>
<polygon fill="#63b8ff" stroke="#63b8ff" points="308.12,-22.38 297.54,-22.78 306.06,-29.07 308.12,-22.38"/>
</a>
</g>
</g>
<!-- Node9 -->
<g id="Node000009" class="node">
<title>Node9</title>
<g id="a_Node000009"><a xlink:title=" ">
<polygon fill="#e0e0e0" stroke="#999999" points="1136,-24.5 1091,-24.5 1091,-5.5 1136,-5.5 1136,-24.5"/>
<text text-anchor="middle" x="1113.5" y="-12.5" font-family="Helvetica,sans-Serif" font-size="10.00">utility</text>
</a>
</g>
</g>
<!-- Node5&#45;&gt;Node9 -->
<g id="edge9_Node000005_Node000009" class="edge">
<title>Node5&#45;&gt;Node9</title>
<g id="a_edge9_Node000005_Node000009"><a xlink:title=" ">
<path fill="none" stroke="#63b8ff" d="M553.23,-66.58C699.03,-53.42 984.72,-27.63 1080.97,-18.94"/>
<polygon fill="#63b8ff" stroke="#63b8ff" points="1081.33,-22.42 1090.97,-18.03 1080.7,-15.45 1081.33,-22.42"/>
</a>
</g>
</g>
<!-- Node10&#45;&gt;Node5 -->
<g id="edge11_Node000010_Node000005" class="edge">
<title>Node10&#45;&gt;Node5</title>
<g id="a_edge11_Node000010_Node000005"><a xlink:title=" ">
<path fill="none" stroke="#63b8ff" d="M363.6,-120.99C385.75,-111.31 414.98,-98.56 436.45,-89.18"/>
<polygon fill="#63b8ff" stroke="#63b8ff" points="437.95,-92.35 445.71,-85.14 435.15,-85.93 437.95,-92.35"/>
</a>
</g>
</g>
<!-- Node10&#45;&gt;Node8 -->
<g id="edge13_Node000010_Node000008" class="edge">
<title>Node10&#45;&gt;Node8</title>
<g id="a_edge13_Node000010_Node000008"><a xlink:title=" ">
<path fill="none" stroke="#63b8ff" d="M318.61,-120.62C310.67,-111.1 300.83,-98.01 294.5,-85 286.69,-68.96 281.67,-49.2 278.76,-34.94"/>
<polygon fill="#63b8ff" stroke="#63b8ff" points="282.15,-34.05 276.86,-24.87 275.27,-35.34 282.15,-34.05"/>
</a>
</g>
</g>
<!-- Node11 -->
<g id="Node000011" class="node">
<title>Node11</title>
<g id="a_Node000011"><a xlink:title=" ">
<polygon fill="#e0e0e0" stroke="#999999" points="359.5,-85 303.5,-85 303.5,-66 359.5,-66 359.5,-85"/>
<text text-anchor="middle" x="331.5" y="-73" font-family="Helvetica,sans-Serif" font-size="10.00">sstream</text>
</a>
</g>
</g>
<!-- Node10&#45;&gt;Node11 -->
<g id="edge12_Node000010_Node000011" class="edge">
<title>Node10&#45;&gt;Node11</title>
<g id="a_edge12_Node000010_Node000011"><a xlink:title=" ">
<path fill="none" stroke="#63b8ff" d="M331.5,-120.84C331.5,-113.21 331.5,-103.7 331.5,-95.45"/>
<polygon fill="#63b8ff" stroke="#63b8ff" points="335,-95.27 331.5,-85.27 328,-95.27 335,-95.27"/>
</a>
</g>
</g>
<!-- Node14&#45;&gt;Node13 -->
<g id="edge57_Node000014_Node000013" class="edge">
<title>Node14&#45;&gt;Node13</title>
<g id="a_edge57_Node000014_Node000013"><a xlink:title=" ">
<path fill="none" stroke="#63b8ff" d="M1110.22,-194.23C983.72,-190.45 634.22,-177.82 522.5,-151 520.34,-150.48 518.13,-149.83 515.95,-149.1"/>
<polygon fill="#63b8ff" stroke="#63b8ff" points="517.19,-145.83 506.6,-145.52 514.69,-152.37 517.19,-145.83"/>
</a>
</g>
</g>
<!-- Node15 -->
<g id="Node000015" class="node">
<title>Node15</title>
<g id="a_Node000015"><a xlink:title=" ">
<polygon fill="#e0e0e0" stroke="#999999" points="1231.5,-145.5 1081.5,-145.5 1081.5,-126.5 1231.5,-126.5 1231.5,-145.5"/>
<text text-anchor="middle" x="1156.5" y="-133.5" font-family="Helvetica,sans-Serif" font-size="10.00">boost/qvm/deduce_vec.hpp</text>
</a>
</g>
</g>
<!-- Node14&#45;&gt;Node15 -->
<g id="edge18_Node000014_Node000015" class="edge">
<title>Node14&#45;&gt;Node15</title>
<g id="a_edge18_Node000014_Node000015"><a xlink:title=" ">
<path fill="none" stroke="#63b8ff" d="M1156.5,-186.87C1156.5,-178.75 1156.5,-166.31 1156.5,-155.89"/>
<polygon fill="#63b8ff" stroke="#63b8ff" points="1160,-155.67 1156.5,-145.67 1153,-155.67 1160,-155.67"/>
</a>
</g>
</g>
<!-- Node16 -->
<g id="Node000016" class="node">
<title>Node16</title>
<g id="a_Node000016"><a xlink:title=" ">
<polygon fill="#e0e0e0" stroke="#999999" points="1389.5,-145.5 1249.5,-145.5 1249.5,-126.5 1389.5,-126.5 1389.5,-145.5"/>
<text text-anchor="middle" x="1319.5" y="-133.5" font-family="Helvetica,sans-Serif" font-size="10.00">boost/qvm/vec_traits.hpp</text>
</a>
</g>
</g>
<!-- Node14&#45;&gt;Node16 -->
<g id="edge19_Node000014_Node000016" class="edge">
<title>Node14&#45;&gt;Node16</title>
<g id="a_edge19_Node000014_Node000016"><a xlink:title=" ">
<path fill="none" stroke="#63b8ff" d="M1180.2,-186.99C1208.09,-176.99 1254.57,-160.3 1286.1,-148.99"/>
<polygon fill="#63b8ff" stroke="#63b8ff" points="1287.54,-152.19 1295.77,-145.52 1285.18,-145.6 1287.54,-152.19"/>
</a>
</g>
</g>
<!-- Node17 -->
<g id="Node000017" class="node">
<title>Node17</title>
<g id="a_Node000017"><a xlink:href="Array_8hpp.html" target="_top" xlink:title="Array implementation with CUDA support.">
<polygon fill="white" stroke="#666666" points="1569.5,-145.5 1483.5,-145.5 1483.5,-126.5 1569.5,-126.5 1569.5,-145.5"/>
<text text-anchor="middle" x="1526.5" y="-133.5" font-family="Helvetica,sans-Serif" font-size="10.00">utils/Array.hpp</text>
</a>
</g>
</g>
<!-- Node14&#45;&gt;Node17 -->
<g id="edge20_Node000014_Node000017" class="edge">
<title>Node14&#45;&gt;Node17</title>
<g id="a_edge20_Node000014_Node000017"><a xlink:title=" ">
<path fill="none" stroke="#63b8ff" d="M1202.73,-188.94C1289.42,-176.64 1467.87,-151.32 1469.5,-151 1474.25,-150.08 1479.2,-149.02 1484.12,-147.9"/>
<polygon fill="#63b8ff" stroke="#63b8ff" points="1485.14,-151.26 1494.07,-145.56 1483.53,-144.45 1485.14,-151.26"/>
</a>
</g>
</g>
<!-- Node19 -->
<g id="Node000019" class="node">
<title>Node19</title>
<g id="a_Node000019"><a xlink:title=" ">
<polygon fill="#e0e0e0" stroke="#999999" points="2365.5,-24.5 2313.5,-24.5 2313.5,-5.5 2365.5,-5.5 2365.5,-24.5"/>
<text text-anchor="middle" x="2339.5" y="-12.5" font-family="Helvetica,sans-Serif" font-size="10.00">cassert</text>
</a>
</g>
</g>
<!-- Node14&#45;&gt;Node19 -->
<g id="edge46_Node000014_Node000019" class="edge">
<title>Node14&#45;&gt;Node19</title>
<g id="a_edge46_Node000014_Node000019"><a xlink:title=" ">
<path fill="none" stroke="#63b8ff" d="M1202.62,-189.15C1208.96,-188.37 1215.39,-187.63 1221.5,-187 1432.98,-165.21 1494.44,-210.66 1698.5,-151 1775.03,-128.62 1780.02,-88.56 1856.5,-66 2048.09,-9.48 2110.02,-75.61 2304.5,-30 2306.81,-29.46 2309.17,-28.79 2311.52,-28.04"/>
<polygon fill="#63b8ff" stroke="#63b8ff" points="2312.74,-31.32 2320.94,-24.62 2310.35,-24.74 2312.74,-31.32"/>
</a>
</g>
</g>
<!-- Node20 -->
<g id="Node000020" class="node">
<title>Node20</title>
<g id="a_Node000020"><a xlink:href="get_8hpp.html" target="_top" xlink:title=" ">
<polygon fill="white" stroke="#666666" points="1239,-85 1186,-85 1186,-66 1239,-66 1239,-85"/>
<text text-anchor="middle" x="1212.5" y="-73" font-family="Helvetica,sans-Serif" font-size="10.00">get.hpp</text>
</a>
</g>
</g>
<!-- Node14&#45;&gt;Node20 -->
<g id="edge44_Node000014_Node000020" class="edge">
<title>Node14&#45;&gt;Node20</title>
<g id="a_edge44_Node000014_Node000020"><a xlink:title=" ">
<path fill="none" stroke="#63b8ff" d="M1202.51,-188.58C1270.94,-178.08 1392.24,-158.52 1398.5,-151 1407.03,-140.75 1406.76,-131.47 1398.5,-121 1389.24,-109.26 1300.96,-92.02 1249.42,-82.82"/>
<polygon fill="#63b8ff" stroke="#63b8ff" points="1249.78,-79.33 1239.33,-81.04 1248.57,-86.23 1249.78,-79.33"/>
</a>
</g>
</g>
<!-- Node21 -->
<g id="Node000021" class="node">
<title>Node21</title>
<g id="a_Node000021"><a xlink:title=" ">
<polygon fill="#e0e0e0" stroke="#999999" points="1207,-24.5 1154,-24.5 1154,-5.5 1207,-5.5 1207,-24.5"/>
<text text-anchor="middle" x="1180.5" y="-12.5" font-family="Helvetica,sans-Serif" font-size="10.00">cstddef</text>
</a>
</g>
</g>
<!-- Node14&#45;&gt;Node21 -->
<g id="edge49_Node000014_Node000021" class="edge">
<title>Node14&#45;&gt;Node21</title>
<g id="a_edge49_Node000014_Node000021"><a xlink:title=" ">
<path fill="none" stroke="#63b8ff" d="M1202.76,-189.12C1275.4,-178.87 1408.67,-159.1 1415.5,-151 1424.09,-140.8 1423.46,-131.7 1415.5,-121 1382.26,-76.33 1346.43,-107.5 1295.5,-85 1260.5,-69.54 1223.04,-45.49 1200.7,-30.25"/>
<polygon fill="#63b8ff" stroke="#63b8ff" points="1202.6,-27.31 1192.38,-24.5 1198.62,-33.07 1202.6,-27.31"/>
</a>
</g>
</g>
<!-- Node31 -->
<g id="Node000031" class="node">
<title>Node31</title>
<g id="a_Node000031"><a xlink:title=" ">
<polygon fill="#e0e0e0" stroke="#999999" points="1800,-85 1747,-85 1747,-66 1800,-66 1800,-85"/>
<text text-anchor="middle" x="1773.5" y="-73" font-family="Helvetica,sans-Serif" font-size="10.00">iterator</text>
</a>
</g>
</g>
<!-- Node14&#45;&gt;Node31 -->
<g id="edge52_Node000014_Node000031" class="edge">
<title>Node14&#45;&gt;Node31</title>
<g id="a_edge52_Node000014_Node000031"><a xlink:title=" ">
<path fill="none" stroke="#63b8ff" d="M1202.66,-188.76C1207.33,-188.14 1212.01,-187.54 1216.5,-187 1377.02,-167.66 1428.57,-211.53 1578.5,-151 1598.45,-142.94 1597.34,-130.79 1616.5,-121 1637.5,-110.27 1697.6,-94.67 1737.05,-85.08"/>
<polygon fill="#63b8ff" stroke="#63b8ff" points="1737.95,-88.46 1746.85,-82.72 1736.31,-81.66 1737.95,-88.46"/>
</a>
</g>
</g>
<!-- Node35 -->
<g id="Node000035" class="node">
<title>Node35</title>
<g id="a_Node000035"><a xlink:title=" ">
<polygon fill="#e0e0e0" stroke="#999999" points="1689.5,-145.5 1625.5,-145.5 1625.5,-126.5 1689.5,-126.5 1689.5,-145.5"/>
<text text-anchor="middle" x="1657.5" y="-133.5" font-family="Helvetica,sans-Serif" font-size="10.00">algorithm</text>
</a>
</g>
</g>
<!-- Node14&#45;&gt;Node35 -->
<g id="edge45_Node000014_Node000035" class="edge">
<title>Node14&#45;&gt;Node35</title>
<g id="a_edge45_Node000014_Node000035"><a xlink:title=" ">
<path fill="none" stroke="#63b8ff" d="M1202.66,-188.72C1207.33,-188.11 1212.01,-187.52 1216.5,-187 1391.6,-166.63 1438.5,-184.84 1611.5,-151 1615.16,-150.28 1618.94,-149.39 1622.68,-148.41"/>
<polygon fill="#63b8ff" stroke="#63b8ff" points="1623.76,-151.74 1632.43,-145.64 1621.85,-145.01 1623.76,-151.74"/>
</a>
</g>
</g>
<!-- Node14&#45;&gt;Node36 -->
<g id="edge47_Node000014_Node000036" class="edge">
<title>Node14&#45;&gt;Node36</title>
<g id="a_edge47_Node000014_Node000036"><a xlink:title=" ">
<path fill="none" stroke="#63b8ff" d="M1202.64,-188.57C1207.32,-187.99 1212,-187.45 1216.5,-187 1489.39,-159.74 1564.04,-207.01 1832.5,-151 1835.34,-150.41 1838.25,-149.64 1841.14,-148.78"/>
<polygon fill="#63b8ff" stroke="#63b8ff" points="1842.36,-152.06 1850.71,-145.54 1840.11,-145.43 1842.36,-152.06"/>
</a>
</g>
</g>
<!-- Node37 -->
<g id="Node000037" class="node">
<title>Node37</title>
<g id="a_Node000037"><a xlink:title=" ">
<polygon fill="#e0e0e0" stroke="#999999" points="591.5,-145.5 531.5,-145.5 531.5,-126.5 591.5,-126.5 591.5,-145.5"/>
<text text-anchor="middle" x="561.5" y="-133.5" font-family="Helvetica,sans-Serif" font-size="10.00">concepts</text>
</a>
</g>
</g>
<!-- Node14&#45;&gt;Node37 -->
<g id="edge48_Node000014_Node000037" class="edge">
<title>Node14&#45;&gt;Node37</title>
<g id="a_edge48_Node000014_Node000037"><a xlink:title=" ">
<path fill="none" stroke="#63b8ff" d="M1110.24,-195.77C1014.3,-195.47 787.1,-190.24 601.5,-151 598.5,-150.37 595.42,-149.57 592.36,-148.68"/>
<polygon fill="#63b8ff" stroke="#63b8ff" points="593.39,-145.33 582.8,-145.59 591.24,-151.99 593.39,-145.33"/>
</a>
</g>
</g>
<!-- Node38 -->
<g id="Node000038" class="node">
<title>Node38</title>
<g id="a_Node000038"><a xlink:title=" ">
<polygon fill="#e0e0e0" stroke="#999999" points="675,-145.5 610,-145.5 610,-126.5 675,-126.5 675,-145.5"/>
<text text-anchor="middle" x="642.5" y="-133.5" font-family="Helvetica,sans-Serif" font-size="10.00">functional</text>
</a>
</g>
</g>
<!-- Node14&#45;&gt;Node38 -->
<g id="edge50_Node000014_Node000038" class="edge">
<title>Node14&#45;&gt;Node38</title>
<g id="a_edge50_Node000014_Node000038"><a xlink:title=" ">
<path fill="none" stroke="#63b8ff" d="M1110.42,-194.63C1025.36,-192.25 838.32,-183.44 684.5,-151 681.27,-150.32 677.93,-149.47 674.63,-148.53"/>
<polygon fill="#63b8ff" stroke="#63b8ff" points="675.5,-145.14 664.91,-145.52 673.42,-151.82 675.5,-145.14"/>
</a>
</g>
</g>
<!-- Node39 -->
<g id="Node000039" class="node">
<title>Node39</title>
<g id="a_Node000039"><a xlink:title=" ">
<polygon fill="#e0e0e0" stroke="#999999" points="776,-145.5 693,-145.5 693,-126.5 776,-126.5 776,-145.5"/>
<text text-anchor="middle" x="734.5" y="-133.5" font-family="Helvetica,sans-Serif" font-size="10.00">initializer_list</text>
</a>
</g>
</g>
<!-- Node14&#45;&gt;Node39 -->
<g id="edge51_Node000014_Node000039" class="edge">
<title>Node14&#45;&gt;Node39</title>
<g id="a_edge51_Node000014_Node000039"><a xlink:title=" ">
<path fill="none" stroke="#63b8ff" d="M1110.47,-192.19C1040,-186.63 901.36,-173.72 785.5,-151 781.29,-150.18 776.92,-149.19 772.59,-148.12"/>
<polygon fill="#63b8ff" stroke="#63b8ff" points="773.21,-144.66 762.65,-145.53 771.44,-151.44 773.21,-144.66"/>
</a>
</g>
</g>
<!-- Node40 -->
<g id="Node000040" class="node">
<title>Node40</title>
<g id="a_Node000040"><a xlink:title=" ">
<polygon fill="#e0e0e0" stroke="#999999" points="850.5,-145.5 794.5,-145.5 794.5,-126.5 850.5,-126.5 850.5,-145.5"/>
<text text-anchor="middle" x="822.5" y="-133.5" font-family="Helvetica,sans-Serif" font-size="10.00">numeric</text>
</a>
</g>
</g>
<!-- Node14&#45;&gt;Node40 -->
<g id="edge53_Node000014_Node000040" class="edge">
<title>Node14&#45;&gt;Node40</title>
<g id="a_edge53_Node000014_Node000040"><a xlink:title=" ">
<path fill="none" stroke="#63b8ff" d="M1110.35,-191.66C1051.42,-186.05 946.65,-173.74 859.5,-151 857.2,-150.4 854.85,-149.71 852.5,-148.96"/>
<polygon fill="#63b8ff" stroke="#63b8ff" points="853.59,-145.63 842.99,-145.64 851.28,-152.24 853.59,-145.63"/>
</a>
</g>
</g>
<!-- Node41 -->
<g id="Node000041" class="node">
<title>Node41</title>
<g id="a_Node000041"><a xlink:title=" ">
<polygon fill="#e0e0e0" stroke="#999999" points="918.5,-145.5 868.5,-145.5 868.5,-126.5 918.5,-126.5 918.5,-145.5"/>
<text text-anchor="middle" x="893.5" y="-133.5" font-family="Helvetica,sans-Serif" font-size="10.00">ranges</text>
</a>
</g>
</g>
<!-- Node14&#45;&gt;Node41 -->
<g id="edge54_Node000014_Node000041" class="edge">
<title>Node14&#45;&gt;Node41</title>
<g id="a_edge54_Node000014_Node000041"><a xlink:title=" ">
<path fill="none" stroke="#63b8ff" d="M1110.23,-189.27C1063.51,-182.34 989.57,-169.61 927.5,-151 925.62,-150.44 923.7,-149.81 921.78,-149.13"/>
<polygon fill="#63b8ff" stroke="#63b8ff" points="922.91,-145.82 912.32,-145.53 920.42,-152.36 922.91,-145.82"/>
</a>
</g>
</g>
<!-- Node42 -->
<g id="Node000042" class="node">
<title>Node42</title>
<g id="a_Node000042"><a xlink:title=" ">
<polygon fill="#e0e0e0" stroke="#999999" points="976.5,-145.5 936.5,-145.5 936.5,-126.5 976.5,-126.5 976.5,-145.5"/>
<text text-anchor="middle" x="956.5" y="-133.5" font-family="Helvetica,sans-Serif" font-size="10.00">span</text>
</a>
</g>
</g>
<!-- Node14&#45;&gt;Node42 -->
<g id="edge55_Node000014_Node000042" class="edge">
<title>Node14&#45;&gt;Node42</title>
<g id="a_edge55_Node000014_Node000042"><a xlink:title=" ">
<path fill="none" stroke="#63b8ff" d="M1115.69,-187C1080.85,-179.23 1029.69,-166.59 986.5,-151 985.28,-150.56 984.05,-150.09 982.81,-149.6"/>
<polygon fill="#63b8ff" stroke="#63b8ff" points="983.98,-146.29 973.41,-145.54 981.2,-152.72 983.98,-146.29"/>
</a>
</g>
</g>
<!-- Node43 -->
<g id="Node000043" class="node">
<title>Node43</title>
<g id="a_Node000043"><a xlink:title=" ">
<polygon fill="#e0e0e0" stroke="#999999" points="1064,-145.5 995,-145.5 995,-126.5 1064,-126.5 1064,-145.5"/>
<text text-anchor="middle" x="1029.5" y="-133.5" font-family="Helvetica,sans-Serif" font-size="10.00">type_traits</text>
</a>
</g>
</g>
<!-- Node14&#45;&gt;Node43 -->
<g id="edge56_Node000014_Node000043" class="edge">
<title>Node14&#45;&gt;Node43</title>
<g id="a_edge56_Node000014_Node000043"><a xlink:title=" ">
<path fill="none" stroke="#63b8ff" d="M1138.03,-186.99C1116.78,-177.2 1081.65,-161.02 1057.13,-149.73"/>
<polygon fill="#63b8ff" stroke="#63b8ff" points="1058.54,-146.52 1047.99,-145.52 1055.61,-152.88 1058.54,-146.52"/>
</a>
</g>
</g>
<!-- Node17&#45;&gt;Node6 -->
<g id="edge36_Node000017_Node000006" class="edge">
<title>Node17&#45;&gt;Node6</title>
<g id="a_edge36_Node000017_Node000006"><a xlink:title=" ">
<path fill="none" stroke="#63b8ff" d="M1483.25,-130.42C1412.83,-122.71 1269.16,-105.91 1148.5,-85 1058.67,-69.43 955.78,-46.38 891.22,-31.28"/>
<polygon fill="#63b8ff" stroke="#63b8ff" points="891.73,-27.8 881.2,-28.92 890.13,-34.62 891.73,-27.8"/>
</a>
</g>
</g>
<!-- Node17&#45;&gt;Node9 -->
<g id="edge43_Node000017_Node000009" class="edge">
<title>Node17&#45;&gt;Node9</title>
<g id="a_edge43_Node000017_Node000009"><a xlink:title=" ">
<path fill="none" stroke="#63b8ff" d="M1483.35,-130.45C1395.99,-121 1204.17,-98.97 1177.5,-85 1154.51,-72.96 1135.41,-49.3 1124.23,-33.07"/>
<polygon fill="#63b8ff" stroke="#63b8ff" points="1127.01,-30.94 1118.59,-24.52 1121.17,-34.8 1127.01,-30.94"/>
</a>
</g>
</g>
<!-- Node18 -->
<g id="Node000018" class="node">
<title>Node18</title>
<g id="a_Node000018"><a xlink:href="device__qualifier_8hpp.html" target="_top" xlink:title=" ">
<polygon fill="white" stroke="#666666" points="1979.5,-85 1865.5,-85 1865.5,-66 1979.5,-66 1979.5,-85"/>
<text text-anchor="middle" x="1922.5" y="-73" font-family="Helvetica,sans-Serif" font-size="10.00">device_qualifier.hpp</text>
</a>
</g>
</g>
<!-- Node17&#45;&gt;Node18 -->
<g id="edge21_Node000017_Node000018" class="edge">
<title>Node17&#45;&gt;Node18</title>
<g id="a_edge21_Node000017_Node000018"><a xlink:title=" ">
<path fill="none" stroke="#63b8ff" d="M1569.52,-128.22C1584.4,-125.9 1601.18,-123.31 1616.5,-121 1698.59,-108.65 1793.17,-94.98 1855.18,-86.09"/>
<polygon fill="#63b8ff" stroke="#63b8ff" points="1855.83,-89.54 1865.23,-84.66 1854.84,-82.61 1855.83,-89.54"/>
</a>
</g>
</g>
<!-- Node17&#45;&gt;Node19 -->
<g id="edge37_Node000017_Node000019" class="edge">
<title>Node17&#45;&gt;Node19</title>
<g id="a_edge37_Node000017_Node000019"><a xlink:title=" ">
<path fill="none" stroke="#63b8ff" d="M1555.69,-126.47C1561.9,-124.66 1568.41,-122.76 1574.5,-121 1630.03,-104.91 1645.53,-105.74 1699.5,-85 1717.5,-78.08 1719.86,-70.93 1738.5,-66 1982.19,-1.58 2058.62,-85.5 2304.5,-30 2306.87,-29.47 2309.29,-28.79 2311.69,-28.03"/>
<polygon fill="#63b8ff" stroke="#63b8ff" points="2313.11,-31.24 2321.32,-24.54 2310.73,-24.66 2313.11,-31.24"/>
</a>
</g>
</g>
<!-- Node17&#45;&gt;Node20 -->
<g id="edge23_Node000017_Node000020" class="edge">
<title>Node17&#45;&gt;Node20</title>
<g id="a_edge23_Node000017_Node000020"><a xlink:title=" ">
<path fill="none" stroke="#63b8ff" d="M1483.5,-126.99C1421.39,-115.42 1307.63,-94.22 1249.23,-83.34"/>
<polygon fill="#63b8ff" stroke="#63b8ff" points="1249.8,-79.89 1239.33,-81.5 1248.52,-86.77 1249.8,-79.89"/>
</a>
</g>
</g>
<!-- Node17&#45;&gt;Node21 -->
<g id="edge38_Node000017_Node000021" class="edge">
<title>Node17&#45;&gt;Node21</title>
<g id="a_edge38_Node000017_Node000021"><a xlink:title=" ">
<path fill="none" stroke="#63b8ff" d="M1492.09,-126.45C1446.23,-114.94 1367.58,-94.79 1339.5,-85 1337.85,-84.42 1254.78,-48.31 1209.39,-28.57"/>
<polygon fill="#63b8ff" stroke="#63b8ff" points="1210.62,-25.29 1200.06,-24.51 1207.83,-31.71 1210.62,-25.29"/>
</a>
</g>
</g>
<!-- Node22 -->
<g id="Node000022" class="node">
<title>Node22</title>
<g id="a_Node000022"><a xlink:href="array_8hpp.html" target="_top" xlink:title=" ">
<polygon fill="white" stroke="#666666" points="1690,-85 1565,-85 1565,-66 1690,-66 1690,-85"/>
<text text-anchor="middle" x="1627.5" y="-73" font-family="Helvetica,sans-Serif" font-size="10.00">serialization/array.hpp</text>
</a>
</g>
</g>
<!-- Node17&#45;&gt;Node22 -->
<g id="edge26_Node000017_Node000022" class="edge">
<title>Node17&#45;&gt;Node22</title>
<g id="a_edge26_Node000017_Node000022"><a xlink:title=" ">
<path fill="none" stroke="#63b8ff" d="M1541.4,-126.37C1557.81,-116.86 1584.43,-101.45 1603.73,-90.27"/>
<polygon fill="#63b8ff" stroke="#63b8ff" points="1605.64,-93.21 1612.54,-85.17 1602.13,-87.15 1605.64,-93.21"/>
</a>
</g>
</g>
<!-- Node17&#45;&gt;Node31 -->
<g id="edge39_Node000017_Node000031" class="edge">
<title>Node17&#45;&gt;Node31</title>
<g id="a_edge39_Node000017_Node000031"><a xlink:title=" ">
<path fill="none" stroke="#63b8ff" d="M1561.15,-126.43C1568.52,-124.62 1576.27,-122.74 1583.5,-121 1636.65,-108.25 1698.27,-93.9 1736.57,-85.02"/>
<polygon fill="#63b8ff" stroke="#63b8ff" points="1737.78,-88.34 1746.73,-82.67 1736.2,-81.52 1737.78,-88.34"/>
</a>
</g>
</g>
<!-- Node32 -->
<g id="Node000032" class="node">
<title>Node32</title>
<g id="a_Node000032"><a xlink:title=" ">
<polygon fill="#e0e0e0" stroke="#999999" points="1405,-85 1348,-85 1348,-66 1405,-66 1405,-85"/>
<text text-anchor="middle" x="1376.5" y="-73" font-family="Helvetica,sans-Serif" font-size="10.00">ostream</text>
</a>
</g>
</g>
<!-- Node17&#45;&gt;Node32 -->
<g id="edge40_Node000017_Node000032" class="edge">
<title>Node17&#45;&gt;Node32</title>
<g id="a_edge40_Node000017_Node000032"><a xlink:title=" ">
<path fill="none" stroke="#63b8ff" d="M1504.69,-126.49C1479.25,-116.57 1436.99,-100.09 1407.99,-88.78"/>
<polygon fill="#63b8ff" stroke="#63b8ff" points="1408.93,-85.39 1398.34,-85.02 1406.38,-91.91 1408.93,-85.39"/>
</a>
</g>
</g>
<!-- Node33 -->
<g id="Node000033" class="node">
<title>Node33</title>
<g id="a_Node000033"><a xlink:title=" ">
<polygon fill="#e0e0e0" stroke="#999999" points="1488,-85 1423,-85 1423,-66 1488,-66 1488,-85"/>
<text text-anchor="middle" x="1455.5" y="-73" font-family="Helvetica,sans-Serif" font-size="10.00">stdexcept</text>
</a>
</g>
</g>
<!-- Node17&#45;&gt;Node33 -->
<g id="edge41_Node000017_Node000033" class="edge">
<title>Node17&#45;&gt;Node33</title>
<g id="a_edge41_Node000017_Node000033"><a xlink:title=" ">
<path fill="none" stroke="#63b8ff" d="M1516.02,-126.37C1505.01,-117.3 1487.46,-102.84 1474.09,-91.82"/>
<polygon fill="#63b8ff" stroke="#63b8ff" points="1475.96,-88.83 1466.02,-85.17 1471.51,-94.23 1475.96,-88.83"/>
</a>
</g>
</g>
<!-- Node34 -->
<g id="Node000034" class="node">
<title>Node34</title>
<g id="a_Node000034"><a xlink:title=" ">
<polygon fill="#e0e0e0" stroke="#999999" points="1547,-85 1506,-85 1506,-66 1547,-66 1547,-85"/>
<text text-anchor="middle" x="1526.5" y="-73" font-family="Helvetica,sans-Serif" font-size="10.00">tuple</text>
</a>
</g>
</g>
<!-- Node17&#45;&gt;Node34 -->
<g id="edge42_Node000017_Node000034" class="edge">
<title>Node17&#45;&gt;Node34</title>
<g id="a_edge42_Node000017_Node000034"><a xlink:title=" ">
<path fill="none" stroke="#63b8ff" d="M1526.5,-126.37C1526.5,-118.25 1526.5,-105.81 1526.5,-95.39"/>
<polygon fill="#63b8ff" stroke="#63b8ff" points="1530,-95.17 1526.5,-85.17 1523,-95.17 1530,-95.17"/>
</a>
</g>
</g>
<!-- Node18&#45;&gt;Node19 -->
<g id="edge22_Node000018_Node000019" class="edge">
<title>Node18&#45;&gt;Node19</title>
<g id="a_edge22_Node000018_Node000019"><a xlink:title=" ">
<path fill="none" stroke="#63b8ff" d="M1979.66,-72.55C2055.1,-68.9 2191.56,-58.63 2304.5,-30 2306.66,-29.45 2308.87,-28.8 2311.08,-28.08"/>
<polygon fill="#63b8ff" stroke="#63b8ff" points="2312.35,-31.35 2320.55,-24.64 2309.95,-24.77 2312.35,-31.35"/>
</a>
</g>
</g>
<!-- Node20&#45;&gt;Node9 -->
<g id="edge25_Node000020_Node000009" class="edge">
<title>Node20&#45;&gt;Node9</title>
<g id="a_edge25_Node000020_Node000009"><a xlink:title=" ">
<path fill="none" stroke="#63b8ff" d="M1197.89,-65.87C1181.81,-56.36 1155.72,-40.95 1136.8,-29.77"/>
<polygon fill="#63b8ff" stroke="#63b8ff" points="1138.56,-26.74 1128.17,-24.67 1135,-32.77 1138.56,-26.74"/>
</a>
</g>
</g>
<!-- Node20&#45;&gt;Node21 -->
<g id="edge24_Node000020_Node000021" class="edge">
<title>Node20&#45;&gt;Node21</title>
<g id="a_edge24_Node000020_Node000021"><a xlink:title=" ">
<path fill="none" stroke="#63b8ff" d="M1207.78,-65.87C1203.15,-57.4 1195.95,-44.24 1190.11,-33.57"/>
<polygon fill="#63b8ff" stroke="#63b8ff" points="1193.11,-31.76 1185.24,-24.67 1186.97,-35.12 1193.11,-31.76"/>
</a>
</g>
</g>
<!-- Node22&#45;&gt;Node21 -->
<g id="edge35_Node000022_Node000021" class="edge">
<title>Node22&#45;&gt;Node21</title>
<g id="a_edge35_Node000022_Node000021"><a xlink:title=" ">
<path fill="none" stroke="#63b8ff" d="M1564.79,-66.94C1561.99,-66.62 1559.21,-66.31 1556.5,-66 1405.5,-48.97 1364.17,-65.85 1216.5,-30 1214.14,-29.43 1211.72,-28.73 1209.31,-27.97"/>
<polygon fill="#63b8ff" stroke="#63b8ff" points="1210.22,-24.58 1199.63,-24.52 1207.88,-31.17 1210.22,-24.58"/>
</a>
</g>
</g>
<!-- Node23 -->
<g id="Node000023" class="node">
<title>Node23</title>
<g id="a_Node000023"><a xlink:title=" ">
<polygon fill="#e0e0e0" stroke="#999999" points="1739,-24.5 1606,-24.5 1606,-5.5 1739,-5.5 1739,-24.5"/>
<text text-anchor="middle" x="1672.5" y="-12.5" font-family="Helvetica,sans-Serif" font-size="10.00">boost/mpl/bool_fwd.hpp</text>
</a>
</g>
</g>
<!-- Node22&#45;&gt;Node23 -->
<g id="edge27_Node000022_Node000023" class="edge">
<title>Node22&#45;&gt;Node23</title>
<g id="a_edge27_Node000022_Node000023"><a xlink:title=" ">
<path fill="none" stroke="#63b8ff" d="M1634.14,-65.87C1640.79,-57.23 1651.19,-43.7 1659.49,-32.92"/>
<polygon fill="#63b8ff" stroke="#63b8ff" points="1662.51,-34.73 1665.83,-24.67 1656.96,-30.46 1662.51,-34.73"/>
</a>
</g>
</g>
<!-- Node24 -->
<g id="Node000024" class="node">
<title>Node24</title>
<g id="a_Node000024"><a xlink:title=" ">
<polygon fill="#e0e0e0" stroke="#999999" points="1881.5,-24.5 1757.5,-24.5 1757.5,-5.5 1881.5,-5.5 1881.5,-24.5"/>
<text text-anchor="middle" x="1819.5" y="-12.5" font-family="Helvetica,sans-Serif" font-size="10.00">boost/mpl/greater.hpp</text>
</a>
</g>
</g>
<!-- Node22&#45;&gt;Node24 -->
<g id="edge28_Node000022_Node000024" class="edge">
<title>Node22&#45;&gt;Node24</title>
<g id="a_edge28_Node000022_Node000024"><a xlink:title=" ">
<path fill="none" stroke="#63b8ff" d="M1655.42,-65.99C1688.69,-55.86 1744.45,-38.87 1781.6,-27.55"/>
<polygon fill="#63b8ff" stroke="#63b8ff" points="1783,-30.78 1791.55,-24.52 1780.96,-24.08 1783,-30.78"/>
</a>
</g>
</g>
<!-- Node25 -->
<g id="Node000025" class="node">
<title>Node25</title>
<g id="a_Node000025"><a xlink:title=" ">
<polygon fill="#e0e0e0" stroke="#999999" points="2001.5,-24.5 1899.5,-24.5 1899.5,-5.5 2001.5,-5.5 2001.5,-24.5"/>
<text text-anchor="middle" x="1950.5" y="-12.5" font-family="Helvetica,sans-Serif" font-size="10.00">boost/mpl/int.hpp</text>
</a>
</g>
</g>
<!-- Node22&#45;&gt;Node25 -->
<g id="edge29_Node000022_Node000025" class="edge">
<title>Node22&#45;&gt;Node25</title>
<g id="a_edge29_Node000022_Node000025"><a xlink:title=" ">
<path fill="none" stroke="#63b8ff" d="M1683.86,-65.99C1737.24,-57.69 1819.56,-44.26 1890.5,-30 1895.48,-29 1900.69,-27.89 1905.85,-26.74"/>
<polygon fill="#63b8ff" stroke="#63b8ff" points="1906.7,-30.13 1915.68,-24.51 1905.15,-23.31 1906.7,-30.13"/>
</a>
</g>
</g>
<!-- Node26 -->
<g id="Node000026" class="node">
<title>Node26</title>
<g id="a_Node000026"><a xlink:title=" ">
<polygon fill="#e0e0e0" stroke="#999999" points="2125.5,-30 2019.5,-30 2019.5,0 2125.5,0 2125.5,-30"/>
<text text-anchor="start" x="2027.5" y="-18" font-family="Helvetica,sans-Serif" font-size="10.00">boost/mpl/integral</text>
<text text-anchor="middle" x="2072.5" y="-7" font-family="Helvetica,sans-Serif" font-size="10.00">_c_tag.hpp</text>
</a>
</g>
</g>
<!-- Node22&#45;&gt;Node26 -->
<g id="edge30_Node000022_Node000026" class="edge">
<title>Node22&#45;&gt;Node26</title>
<g id="a_edge30_Node000022_Node000026"><a xlink:title=" ">
<path fill="none" stroke="#63b8ff" d="M1690.06,-67.6C1783.66,-57.23 1954.28,-38.1 2009.3,-29.97"/>
<polygon fill="#63b8ff" stroke="#63b8ff" points="2010.14,-33.38 2019.47,-28.36 2009.05,-26.46 2010.14,-33.38"/>
</a>
</g>
</g>
<!-- Node27 -->
<g id="Node000027" class="node">
<title>Node27</title>
<g id="a_Node000027"><a xlink:title=" ">
<polygon fill="#e0e0e0" stroke="#999999" points="2295,-30 2144,-30 2144,0 2295,0 2295,-30"/>
<text text-anchor="start" x="2152" y="-18" font-family="Helvetica,sans-Serif" font-size="10.00">boost/serialization</text>
<text text-anchor="middle" x="2219.5" y="-7" font-family="Helvetica,sans-Serif" font-size="10.00">/is_bitwise_serializable.hpp</text>
</a>
</g>
</g>
<!-- Node22&#45;&gt;Node27 -->
<g id="edge31_Node000022_Node000027" class="edge">
<title>Node22&#45;&gt;Node27</title>
<g id="a_edge31_Node000022_Node000027"><a xlink:title=" ">
<path fill="none" stroke="#63b8ff" d="M1690.1,-67.45C1694.97,-66.94 1699.81,-66.45 1704.5,-66 1892.12,-47.79 1942.47,-53.4 2133.45,-30.06"/>
<polygon fill="#63b8ff" stroke="#63b8ff" points="2134.05,-33.52 2143.54,-28.82 2133.19,-26.57 2134.05,-33.52"/>
</a>
</g>
</g>
<!-- Node28 -->
<g id="Node000028" class="node">
<title>Node28</title>
<g id="a_Node000028"><a xlink:title=" ">
<polygon fill="#e0e0e0" stroke="#999999" points="1332,-30 1225,-30 1225,0 1332,0 1332,-30"/>
<text text-anchor="start" x="1233" y="-18" font-family="Helvetica,sans-Serif" font-size="10.00">boost/serialization</text>
<text text-anchor="middle" x="1278.5" y="-7" font-family="Helvetica,sans-Serif" font-size="10.00">/level.hpp</text>
</a>
</g>
</g>
<!-- Node22&#45;&gt;Node28 -->
<g id="edge32_Node000022_Node000028" class="edge">
<title>Node22&#45;&gt;Node28</title>
<g id="a_edge32_Node000022_Node000028"><a xlink:title=" ">
<path fill="none" stroke="#63b8ff" d="M1565.1,-65.97C1509.24,-58.07 1424.88,-45.47 1341.91,-30"/>
<polygon fill="#63b8ff" stroke="#63b8ff" points="1342.54,-26.56 1332.07,-28.15 1341.25,-33.44 1342.54,-26.56"/>
</a>
</g>
</g>
<!-- Node29 -->
<g id="Node000029" class="node">
<title>Node29</title>
<g id="a_Node000029"><a xlink:title=" ">
<polygon fill="#e0e0e0" stroke="#999999" points="1457,-30 1350,-30 1350,0 1457,0 1457,-30"/>
<text text-anchor="start" x="1358" y="-18" font-family="Helvetica,sans-Serif" font-size="10.00">boost/serialization</text>
<text text-anchor="middle" x="1403.5" y="-7" font-family="Helvetica,sans-Serif" font-size="10.00">/tracking.hpp</text>
</a>
</g>
</g>
<!-- Node22&#45;&gt;Node29 -->
<g id="edge33_Node000022_Node000029" class="edge">
<title>Node22&#45;&gt;Node29</title>
<g id="a_edge33_Node000022_Node000029"><a xlink:title=" ">
<path fill="none" stroke="#63b8ff" d="M1594.93,-65.99C1561.57,-57.28 1508.83,-43.51 1467.15,-32.62"/>
<polygon fill="#63b8ff" stroke="#63b8ff" points="1467.91,-29.2 1457.35,-30.06 1466.14,-35.98 1467.91,-29.2"/>
</a>
</g>
</g>
<!-- Node30 -->
<g id="Node000030" class="node">
<title>Node30</title>
<g id="a_Node000030"><a xlink:title=" ">
<polygon fill="#e0e0e0" stroke="#999999" points="1588,-30 1475,-30 1475,0 1588,0 1588,-30"/>
<text text-anchor="start" x="1483" y="-18" font-family="Helvetica,sans-Serif" font-size="10.00">boost/serialization</text>
<text text-anchor="middle" x="1531.5" y="-7" font-family="Helvetica,sans-Serif" font-size="10.00">/tracking_enum.hpp</text>
</a>
</g>
</g>
<!-- Node22&#45;&gt;Node30 -->
<g id="edge34_Node000022_Node000030" class="edge">
<title>Node22&#45;&gt;Node30</title>
<g id="a_edge34_Node000022_Node000030"><a xlink:title=" ">
<path fill="none" stroke="#63b8ff" d="M1613.33,-65.87C1600.31,-57.93 1580.52,-45.87 1563.66,-35.6"/>
<polygon fill="#63b8ff" stroke="#63b8ff" points="1565.02,-32.33 1554.66,-30.11 1561.38,-38.31 1565.02,-32.33"/>
</a>
</g>
</g>
<!-- Node44&#45;&gt;Node18 -->
<g id="edge59_Node000044_Node000018" class="edge">
<title>Node44&#45;&gt;Node18</title>
<g id="a_edge59_Node000044_Node000018"><a xlink:title=" ">
<path fill="none" stroke="#63b8ff" d="M1362.71,-187.98C1365.68,-187.63 1368.63,-187.3 1371.5,-187 1430.43,-180.91 1857.97,-188.91 1903.5,-151 1919.66,-137.55 1923.12,-112.45 1923.4,-95.13"/>
<polygon fill="#63b8ff" stroke="#63b8ff" points="1926.9,-95 1923.22,-85.07 1919.9,-95.13 1926.9,-95"/>
</a>
</g>
</g>
</g>
</svg>

<g id="navigator" transform="translate(0 0)" fill="#404254">
  <rect fill="#f2f5e9" fill-opacity="0.5" stroke="#606060" stroke-width=".5" x="0" y="0" width="60" height="60"/>
  <use id="zoomplus" xlink:href="#zoomPlus" x="17" y="9" onmousedown="handleZoom(evt,'in')"/>
  <use id="zoomminus" xlink:href="#zoomMin" x="42" y="9" onmousedown="handleZoom(evt,'out')"/>
  <use id="reset" xlink:href="#resetDef" x="30" y="36" onmousedown="handleReset()"/>
   <use id="arrowup" xlink:href="#arrowUp" x="0" y="0" onmousedown="handlePan(0,-1)"/>
  <use id="arrowright" xlink:href="#arrowRight" x="0" y="0" onmousedown="handlePan(1,0)"/>
  <use id="arrowdown" xlink:href="#arrowDown" x="0" y="0" onmousedown="handlePan(0,1)"/>
  <use id="arrowleft" xlink:href="#arrowLeft" x="0" y="0" onmousedown="handlePan(-1,0)"/>
</g>
<svg viewBox="0 0 15 15" width="100%" height="30px" preserveAspectRatio="xMaxYMin meet">
 <g id="arrow_out" transform="scale(0.3 0.3)">
  <a xlink:href="fene_8hpp__incl_org.svg" target="_base">
   <rect id="button" ry="5" rx="5" y="6" x="6" height="38" width="38"
        fill="#f2f5e9" fill-opacity="0.5" stroke="#606060" stroke-width="1.0"/>
   <path id="arrow"
     d="M 11.500037,31.436501 C 11.940474,20.09759 22.043105,11.32322 32.158766,21.979434 L 37.068811,17.246167 C 37.068811,17.246167 37.088388,32 37.088388,32 L 22.160133,31.978069 C 22.160133,31.978069 26.997745,27.140456 26.997745,27.140456 C 18.528582,18.264221 13.291696,25.230495 11.500037,31.436501 z"
     style="fill:#404040;"/>
  </a>
 </g>
</svg>

<style type='text/css'>
<![CDATA[
[data-mouse-over-selected='false'] { opacity: 0.7; }
[data-mouse-over-selected='true']  { opacity: 1.0; }
]]>
</style>
<script type="application/ecmascript"><![CDATA[
document.addEventListener('DOMContentLoaded', (event) => {
  highlightEdges();
  highlightAdjacentNodes();
});
]]></script>
</svg>
