<?xml version="1.0" encoding="UTF-8" standalone="no"?>
<!DOCTYPE svg PUBLIC "-//W3C//DTD SVG 1.1//EN"
 "http://www.w3.org/Graphics/SVG/1.1/DTD/svg11.dtd">
<!-- Generated by graphviz version 2.43.0 (0)
 -->
<!-- Title: fft.hpp Pages: 1 -->
<svg width="472pt" height="82pt"
 viewBox="0.00 0.00 472.00 82.00" xmlns="http://www.w3.org/2000/svg" xmlns:xlink="http://www.w3.org/1999/xlink">
<g id="graph0" class="graph" transform="scale(1 1) rotate(0) translate(4 78)">
<title>fft.hpp</title>
<!-- Node1 -->
<g id="Node000001" class="node">
<title>Node1</title>
<g id="a_Node000001"><a xlink:title="Routines, row decomposition, data structures and communication for the 3D&#45;FFT.">
<polygon fill="#999999" stroke="#666666" points="277,-74 229,-74 229,-55 277,-55 277,-74"/>
<text text-anchor="middle" x="253" y="-62" font-family="Helvetica,sans-Serif" font-size="10.00">fft.hpp</text>
</a>
</g>
</g>
<!-- Node2 -->
<g id="Node000002" class="node">
<title>Node2</title>
<g id="a_Node000002"><a xlink:href="FFTBackendLegacy_8cpp.html" target="_top" xlink:title=" ">
<polygon fill="white" stroke="#666666" points="128,-19 0,-19 0,0 128,0 128,-19"/>
<text text-anchor="middle" x="64" y="-7" font-family="Helvetica,sans-Serif" font-size="10.00">FFTBackendLegacy.cpp</text>
</a>
</g>
</g>
<!-- Node1&#45;&gt;Node2 -->
<g id="edge1_Node000001_Node000002" class="edge">
<title>Node1&#45;&gt;Node2</title>
<g id="a_edge1_Node000001_Node000002"><a xlink:title=" ">
<path fill="none" stroke="#63b8ff" d="M218.79,-53.91C183.35,-43.97 128.48,-28.58 94.48,-19.05"/>
<polygon fill="#63b8ff" stroke="#63b8ff" points="218.1,-57.35 228.68,-56.68 219.99,-50.61 218.1,-57.35"/>
</a>
</g>
</g>
<!-- Node3 -->
<g id="Node000003" class="node">
<title>Node3</title>
<g id="a_Node000003"><a xlink:href="dp3m_8cpp.html" target="_top" xlink:title="P3M algorithm for long&#45;range magnetic dipole&#45;dipole interaction.">
<polygon fill="white" stroke="#666666" points="211.5,-19 146.5,-19 146.5,0 211.5,0 211.5,-19"/>
<text text-anchor="middle" x="179" y="-7" font-family="Helvetica,sans-Serif" font-size="10.00">dp3m.cpp</text>
</a>
</g>
</g>
<!-- Node1&#45;&gt;Node3 -->
<g id="edge2_Node000001_Node000003" class="edge">
<title>Node1&#45;&gt;Node3</title>
<g id="a_edge2_Node000001_Node000003"><a xlink:title=" ">
<path fill="none" stroke="#63b8ff" d="M232.97,-49.15C219.59,-39.57 202.44,-27.29 191.11,-19.17"/>
<polygon fill="#63b8ff" stroke="#63b8ff" points="230.94,-52.01 241.11,-54.98 235.02,-46.32 230.94,-52.01"/>
</a>
</g>
</g>
<!-- Node4 -->
<g id="Node000004" class="node">
<title>Node4</title>
<g id="a_Node000004"><a xlink:href="fft_8cpp.html" target="_top" xlink:title="Routines, row decomposition, data structures and communication for the 3D&#45;FFT.">
<polygon fill="white" stroke="#666666" points="276.5,-19 229.5,-19 229.5,0 276.5,0 276.5,-19"/>
<text text-anchor="middle" x="253" y="-7" font-family="Helvetica,sans-Serif" font-size="10.00">fft.cpp</text>
</a>
</g>
</g>
<!-- Node1&#45;&gt;Node4 -->
<g id="edge3_Node000001_Node000004" class="edge">
<title>Node1&#45;&gt;Node4</title>
<g id="a_edge3_Node000001_Node000004"><a xlink:title=" ">
<path fill="none" stroke="#63b8ff" d="M253,-44.66C253,-35.93 253,-25.99 253,-19.09"/>
<polygon fill="#63b8ff" stroke="#63b8ff" points="249.5,-44.75 253,-54.75 256.5,-44.75 249.5,-44.75"/>
</a>
</g>
</g>
<!-- Node5 -->
<g id="Node000005" class="node">
<title>Node5</title>
<g id="a_Node000005"><a xlink:href="p3m_8cpp.html" target="_top" xlink:title="The corresponding header file is p3m.hpp.">
<polygon fill="white" stroke="#666666" points="353.5,-19 294.5,-19 294.5,0 353.5,0 353.5,-19"/>
<text text-anchor="middle" x="324" y="-7" font-family="Helvetica,sans-Serif" font-size="10.00">p3m.cpp</text>
</a>
</g>
</g>
<!-- Node1&#45;&gt;Node5 -->
<g id="edge4_Node000001_Node000005" class="edge">
<title>Node1&#45;&gt;Node5</title>
<g id="a_edge4_Node000001_Node000005"><a xlink:title=" ">
<path fill="none" stroke="#63b8ff" d="M272.59,-48.88C285.37,-39.34 301.61,-27.21 312.39,-19.17"/>
<polygon fill="#63b8ff" stroke="#63b8ff" points="270.33,-46.2 264.41,-54.98 274.51,-51.81 270.33,-46.2"/>
</a>
</g>
</g>
<!-- Node6 -->
<g id="Node000006" class="node">
<title>Node6</title>
<g id="a_Node000006"><a xlink:href="send__mesh_8cpp.html" target="_top" xlink:title=" ">
<polygon fill="white" stroke="#666666" points="464,-19 372,-19 372,0 464,0 464,-19"/>
<text text-anchor="middle" x="418" y="-7" font-family="Helvetica,sans-Serif" font-size="10.00">send_mesh.cpp</text>
</a>
</g>
</g>
<!-- Node1&#45;&gt;Node6 -->
<g id="edge5_Node000001_Node000006" class="edge">
<title>Node1&#45;&gt;Node6</title>
<g id="a_edge5_Node000001_Node000006"><a xlink:title=" ">
<path fill="none" stroke="#63b8ff" d="M287.26,-52.5C318.18,-42.56 363.05,-28.15 391.36,-19.06"/>
<polygon fill="#63b8ff" stroke="#63b8ff" points="285.8,-49.29 277.35,-55.68 287.94,-55.95 285.8,-49.29"/>
</a>
</g>
</g>
</g>
</svg>
