<?xml version="1.0" encoding="UTF-8" standalone="no"?>
<!DOCTYPE svg PUBLIC "-//W3C//DTD SVG 1.1//EN"
 "http://www.w3.org/Graphics/SVG/1.1/DTD/svg11.dtd">
<!-- Generated by graphviz version 2.43.0 (0)
 -->
<!-- Title: field_layout_helpers.hpp Pages: 1 -->
<!--zoomable 324 -->

<svg id="main" version="1.1" xmlns="http://www.w3.org/2000/svg" xmlns:xlink="http://www.w3.org/1999/xlink" xml:space="preserve" onload="init(evt)">
<style type="text/css"><![CDATA[
.node, .edge {opacity: 0.7;}
.node.selected, .edge.selected {opacity: 1;}
.edge:hover path { stroke: red; }
.edge:hover polygon { stroke: red; fill: red; }
]]></style>

<defs>
  <circle id="rim" cx="0" cy="0" r="7"/>
  <circle id="rim2" cx="0" cy="0" r="3.5"/>
  <g id="zoomPlus">
    <use xlink:href="#rim" fill="#404040"><set attributeName="fill" to="#808080" begin="zoomplus.mouseover" end="zoomplus.mouseout"/></use>
    <path d="M-4,0h8M0,-4v8" fill="none" stroke="white" stroke-width="1.5" pointer-events="none"/>
  </g>
  <g id="zoomMin">
    <use xlink:href="#rim" fill="#404040"><set attributeName="fill" to="#808080" begin="zoomminus.mouseover" end="zoomminus.mouseout"/></use>
    <path d="M-4,0h8" fill="none" stroke="white" stroke-width="1.5" pointer-events="none"/>
  </g>
  <g id="arrowUp" transform="translate(30 24)">
    <use xlink:href="#rim"/>
    <path pointer-events="none" fill="none" stroke="white" stroke-width="1.5" d="M0,-3.0v7 M-2.5,-0.5L0,-3.0L2.5,-0.5"/>
  </g>
  <g id="arrowRight" transform="rotate(90) translate(36 -43)">
    <use xlink:href="#rim"/>
    <path pointer-events="none" fill="none" stroke="white" stroke-width="1.5" d="M0,-3.0v7 M-2.5,-0.5L0,-3.0L2.5,-0.5"/>
  </g>
  <g id="arrowDown" transform="rotate(180) translate(-30 -48)">
    <use xlink:href="#rim"/>
    <path pointer-events="none" fill="none" stroke="white" stroke-width="1.5" d="M0,-3.0v7 M-2.5,-0.5L0,-3.0L2.5,-0.5"/>
  </g>
  <g id="arrowLeft" transform="rotate(270) translate(-36 17)">
    <use xlink:href="#rim"/>
    <path pointer-events="none" fill="none" stroke="white" stroke-width="1.5" d="M0,-3.0v7 M-2.5,-0.5L0,-3.0L2.5,-0.5"/>
  </g>
  <g id="resetDef">
    <use xlink:href="#rim2" fill="#404040"><set attributeName="fill" to="#808080" begin="reset.mouseover" end="reset.mouseout"/></use>
  </g>
</defs>
<script type="application/ecmascript">
var viewWidth = 1310;
var viewHeight = 324;
var sectionId = 'dynsection-0';
</script>
<script type="application/ecmascript" xlink:href="svg.min.js"/>
<svg id="graph" class="graph">
<g id="viewport">
<title>field_layout_helpers.hpp</title>
<!-- Node1 -->
<g id="Node000001" class="node">
<title>Node1</title>
<g id="a_Node000001"><a xlink:title=" ">
<polygon fill="#999999" stroke="#666666" points="1145,-316 1009,-316 1009,-297 1145,-297 1145,-316"/>
<text text-anchor="middle" x="1077" y="-304" font-family="Helvetica,sans-Serif" font-size="10.00">field_layout_helpers.hpp</text>
</a>
</g>
</g>
<!-- Node2 -->
<g id="Node000002" class="node">
<title>Node2</title>
<g id="a_Node000002"><a xlink:href="Vector_8hpp.html" target="_top" xlink:title="Vector implementation and trait types for boost qvm interoperability.">
<polygon fill="white" stroke="#666666" points="930,-206 838,-206 838,-187 930,-187 930,-206"/>
<text text-anchor="middle" x="884" y="-194" font-family="Helvetica,sans-Serif" font-size="10.00">utils/Vector.hpp</text>
</a>
</g>
</g>
<!-- Node1&#45;&gt;Node2 -->
<g id="edge1_Node000001_Node000002" class="edge">
<title>Node1&#45;&gt;Node2</title>
<g id="a_edge1_Node000001_Node000002"><a xlink:title=" ">
<path fill="none" stroke="#63b8ff" d="M1061.53,-296.84C1027.99,-278.08 948.37,-233.52 908.14,-211.01"/>
<polygon fill="#63b8ff" stroke="#63b8ff" points="909.71,-207.88 899.27,-206.05 906.29,-213.98 909.71,-207.88"/>
</a>
</g>
</g>
<!-- Node29 -->
<g id="Node000029" class="node">
<title>Node29</title>
<g id="a_Node000029"><a xlink:title=" ">
<polygon fill="#e0e0e0" stroke="#999999" points="94,-151 54,-151 54,-132 94,-132 94,-151"/>
<text text-anchor="middle" x="74" y="-139" font-family="Helvetica,sans-Serif" font-size="10.00">span</text>
</a>
</g>
</g>
<!-- Node1&#45;&gt;Node29 -->
<g id="edge46_Node000001_Node000029" class="edge">
<title>Node1&#45;&gt;Node29</title>
<g id="a_edge46_Node000001_Node000029"><a xlink:title=" ">
<path fill="none" stroke="#63b8ff" d="M1008.83,-297.73C850.75,-279.06 447.16,-227.64 104.07,-150.99"/>
<polygon fill="#63b8ff" stroke="#63b8ff" points="104.72,-147.55 94.2,-148.78 103.19,-154.38 104.72,-147.55"/>
</a>
</g>
</g>
<!-- Node31 -->
<g id="Node000031" class="node">
<title>Node31</title>
<g id="a_Node000031"><a xlink:title=" ">
<polygon fill="#e0e0e0" stroke="#999999" points="1273.5,-151 1226.5,-151 1226.5,-132 1273.5,-132 1273.5,-151"/>
<text text-anchor="middle" x="1250" y="-139" font-family="Helvetica,sans-Serif" font-size="10.00">vector</text>
</a>
</g>
</g>
<!-- Node1&#45;&gt;Node31 -->
<g id="edge47_Node000001_Node000031" class="edge">
<title>Node1&#45;&gt;Node31</title>
<g id="a_edge47_Node000001_Node000031"><a xlink:title=" ">
<path fill="none" stroke="#63b8ff" d="M1122.9,-296.94C1146.8,-290.49 1175.11,-279.47 1195,-261 1224.53,-233.57 1239.57,-187.12 1246,-161.28"/>
<polygon fill="#63b8ff" stroke="#63b8ff" points="1249.47,-161.82 1248.31,-151.28 1242.65,-160.24 1249.47,-161.82"/>
</a>
</g>
</g>
<!-- Node32 -->
<g id="Node000032" class="node">
<title>Node32</title>
<g id="a_Node000032"><a xlink:href="index_8hpp.html" target="_top" xlink:title=" ">
<polygon fill="white" stroke="#666666" points="1186.5,-261 1097.5,-261 1097.5,-242 1186.5,-242 1186.5,-261"/>
<text text-anchor="middle" x="1142" y="-249" font-family="Helvetica,sans-Serif" font-size="10.00">utils/index.hpp</text>
</a>
</g>
</g>
<!-- Node1&#45;&gt;Node32 -->
<g id="edge39_Node000001_Node000032" class="edge">
<title>Node1&#45;&gt;Node32</title>
<g id="a_edge39_Node000001_Node000032"><a xlink:title=" ">
<path fill="none" stroke="#63b8ff" d="M1087.44,-296.98C1097.15,-289.07 1111.82,-277.11 1123.5,-267.58"/>
<polygon fill="#63b8ff" stroke="#63b8ff" points="1125.83,-270.2 1131.37,-261.17 1121.4,-264.78 1125.83,-270.2"/>
</a>
</g>
</g>
<!-- Node3 -->
<g id="Node000003" class="node">
<title>Node3</title>
<g id="a_Node000003"><a xlink:title=" ">
<polygon fill="#e0e0e0" stroke="#999999" points="572,-151 422,-151 422,-132 572,-132 572,-151"/>
<text text-anchor="middle" x="497" y="-139" font-family="Helvetica,sans-Serif" font-size="10.00">boost/qvm/deduce_vec.hpp</text>
</a>
</g>
</g>
<!-- Node2&#45;&gt;Node3 -->
<g id="edge2_Node000002_Node000003" class="edge">
<title>Node2&#45;&gt;Node3</title>
<g id="a_edge2_Node000002_Node000003"><a xlink:title=" ">
<path fill="none" stroke="#63b8ff" d="M837.7,-189.16C771.27,-180.06 648.26,-163.21 569.64,-152.45"/>
<polygon fill="#63b8ff" stroke="#63b8ff" points="569.71,-148.93 559.33,-151.04 568.76,-155.86 569.71,-148.93"/>
</a>
</g>
</g>
<!-- Node4 -->
<g id="Node000004" class="node">
<title>Node4</title>
<g id="a_Node000004"><a xlink:title=" ">
<polygon fill="#e0e0e0" stroke="#999999" points="730,-151 590,-151 590,-132 730,-132 730,-151"/>
<text text-anchor="middle" x="660" y="-139" font-family="Helvetica,sans-Serif" font-size="10.00">boost/qvm/vec_traits.hpp</text>
</a>
</g>
</g>
<!-- Node2&#45;&gt;Node4 -->
<g id="edge3_Node000002_Node000004" class="edge">
<title>Node2&#45;&gt;Node4</title>
<g id="a_edge3_Node000002_Node000004"><a xlink:title=" ">
<path fill="none" stroke="#63b8ff" d="M848.01,-186.98C809.51,-177.87 748.31,-163.4 706.26,-153.45"/>
<polygon fill="#63b8ff" stroke="#63b8ff" points="706.81,-149.98 696.27,-151.08 705.2,-156.79 706.81,-149.98"/>
</a>
</g>
</g>
<!-- Node5 -->
<g id="Node000005" class="node">
<title>Node5</title>
<g id="a_Node000005"><a xlink:href="Array_8hpp.html" target="_top" xlink:title="Array implementation with CUDA support.">
<polygon fill="white" stroke="#666666" points="834,-151 748,-151 748,-132 834,-132 834,-151"/>
<text text-anchor="middle" x="791" y="-139" font-family="Helvetica,sans-Serif" font-size="10.00">utils/Array.hpp</text>
</a>
</g>
</g>
<!-- Node2&#45;&gt;Node5 -->
<g id="edge4_Node000002_Node000005" class="edge">
<title>Node2&#45;&gt;Node5</title>
<g id="a_edge4_Node000002_Node000005"><a xlink:title=" ">
<path fill="none" stroke="#63b8ff" d="M869.06,-186.98C854.5,-178.69 832.13,-165.94 815.07,-156.22"/>
<polygon fill="#63b8ff" stroke="#63b8ff" points="816.64,-153.08 806.21,-151.17 813.17,-159.16 816.64,-153.08"/>
</a>
</g>
</g>
<!-- Node7 -->
<g id="Node000007" class="node">
<title>Node7</title>
<g id="a_Node000007"><a xlink:title=" ">
<polygon fill="#e0e0e0" stroke="#999999" points="52,-24.5 0,-24.5 0,-5.5 52,-5.5 52,-24.5"/>
<text text-anchor="middle" x="26" y="-12.5" font-family="Helvetica,sans-Serif" font-size="10.00">cassert</text>
</a>
</g>
</g>
<!-- Node2&#45;&gt;Node7 -->
<g id="edge29_Node000002_Node000007" class="edge">
<title>Node2&#45;&gt;Node7</title>
<g id="a_edge29_Node000002_Node000007"><a xlink:title=" ">
<path fill="none" stroke="#63b8ff" d="M837.98,-193.25C735.68,-187.91 492.18,-173.23 413,-151 394.44,-145.79 391.88,-139.23 374,-132 238.35,-77.16 198.55,-79.86 61,-30 59.39,-29.42 57.75,-28.81 56.09,-28.18"/>
<polygon fill="#63b8ff" stroke="#63b8ff" points="57.23,-24.87 46.64,-24.52 54.7,-31.4 57.23,-24.87"/>
</a>
</g>
</g>
<!-- Node8 -->
<g id="Node000008" class="node">
<title>Node8</title>
<g id="a_Node000008"><a xlink:href="get_8hpp.html" target="_top" xlink:title=" ">
<polygon fill="white" stroke="#666666" points="1036.5,-90.5 983.5,-90.5 983.5,-71.5 1036.5,-71.5 1036.5,-90.5"/>
<text text-anchor="middle" x="1010" y="-78.5" font-family="Helvetica,sans-Serif" font-size="10.00">get.hpp</text>
</a>
</g>
</g>
<!-- Node2&#45;&gt;Node8 -->
<g id="edge27_Node000002_Node000008" class="edge">
<title>Node2&#45;&gt;Node8</title>
<g id="a_edge27_Node000002_Node000008"><a xlink:title=" ">
<path fill="none" stroke="#63b8ff" d="M926.35,-186.95C948.15,-180.5 973.54,-169.48 990,-151 1002.3,-137.2 1007.06,-116.25 1008.89,-101.05"/>
<polygon fill="#63b8ff" stroke="#63b8ff" points="1012.4,-101.04 1009.79,-90.77 1005.43,-100.43 1012.4,-101.04"/>
</a>
</g>
</g>
<!-- Node9 -->
<g id="Node000009" class="node">
<title>Node9</title>
<g id="a_Node000009"><a xlink:title=" ">
<polygon fill="#e0e0e0" stroke="#999999" points="1274.5,-24.5 1221.5,-24.5 1221.5,-5.5 1274.5,-5.5 1274.5,-24.5"/>
<text text-anchor="middle" x="1248" y="-12.5" font-family="Helvetica,sans-Serif" font-size="10.00">cstddef</text>
</a>
</g>
</g>
<!-- Node2&#45;&gt;Node9 -->
<g id="edge31_Node000002_Node000009" class="edge">
<title>Node2&#45;&gt;Node9</title>
<g id="a_edge31_Node000002_Node000009"><a xlink:title=" ">
<path fill="none" stroke="#63b8ff" d="M924.47,-186.95C955.75,-179.56 999.69,-167.47 1036,-151 1112.19,-116.43 1193.19,-57.91 1229.04,-30.71"/>
<polygon fill="#63b8ff" stroke="#63b8ff" points="1231.34,-33.36 1237.15,-24.5 1227.08,-27.8 1231.34,-33.36"/>
</a>
</g>
</g>
<!-- Node21 -->
<g id="Node000021" class="node">
<title>Node21</title>
<g id="a_Node000021"><a xlink:title=" ">
<polygon fill="#e0e0e0" stroke="#999999" points="1107.5,-90.5 1054.5,-90.5 1054.5,-71.5 1107.5,-71.5 1107.5,-90.5"/>
<text text-anchor="middle" x="1081" y="-78.5" font-family="Helvetica,sans-Serif" font-size="10.00">iterator</text>
</a>
</g>
</g>
<!-- Node2&#45;&gt;Node21 -->
<g id="edge34_Node000002_Node000021" class="edge">
<title>Node2&#45;&gt;Node21</title>
<g id="a_edge34_Node000002_Node000021"><a xlink:title=" ">
<path fill="none" stroke="#63b8ff" d="M920.89,-186.99C947.05,-179.91 982.3,-168.18 1010,-151 1032.92,-136.78 1054.42,-114.06 1067.63,-98.61"/>
<polygon fill="#63b8ff" stroke="#63b8ff" points="1070.36,-100.8 1074.07,-90.88 1064.98,-96.32 1070.36,-100.8"/>
</a>
</g>
</g>
<!-- Node24 -->
<g id="Node000024" class="node">
<title>Node24</title>
<g id="a_Node000024"><a xlink:title=" ">
<polygon fill="#e0e0e0" stroke="#999999" points="916,-151 852,-151 852,-132 916,-132 916,-151"/>
<text text-anchor="middle" x="884" y="-139" font-family="Helvetica,sans-Serif" font-size="10.00">algorithm</text>
</a>
</g>
</g>
<!-- Node2&#45;&gt;Node24 -->
<g id="edge28_Node000002_Node000024" class="edge">
<title>Node2&#45;&gt;Node24</title>
<g id="a_edge28_Node000002_Node000024"><a xlink:title=" ">
<path fill="none" stroke="#63b8ff" d="M884,-186.75C884,-179.8 884,-169.85 884,-161.13"/>
<polygon fill="#63b8ff" stroke="#63b8ff" points="887.5,-161.09 884,-151.09 880.5,-161.09 887.5,-161.09"/>
</a>
</g>
</g>
<!-- Node25 -->
<g id="Node000025" class="node">
<title>Node25</title>
<g id="a_Node000025"><a xlink:title=" ">
<polygon fill="#e0e0e0" stroke="#999999" points="981.5,-151 934.5,-151 934.5,-132 981.5,-132 981.5,-151"/>
<text text-anchor="middle" x="958" y="-139" font-family="Helvetica,sans-Serif" font-size="10.00">cmath</text>
</a>
</g>
</g>
<!-- Node2&#45;&gt;Node25 -->
<g id="edge30_Node000002_Node000025" class="edge">
<title>Node2&#45;&gt;Node25</title>
<g id="a_edge30_Node000002_Node000025"><a xlink:title=" ">
<path fill="none" stroke="#63b8ff" d="M895.89,-186.98C907.15,-178.92 924.29,-166.65 937.71,-157.03"/>
<polygon fill="#63b8ff" stroke="#63b8ff" points="939.8,-159.84 945.89,-151.17 935.73,-154.15 939.8,-159.84"/>
</a>
</g>
</g>
<!-- Node26 -->
<g id="Node000026" class="node">
<title>Node26</title>
<g id="a_Node000026"><a xlink:title=" ">
<polygon fill="#e0e0e0" stroke="#999999" points="177.5,-151 112.5,-151 112.5,-132 177.5,-132 177.5,-151"/>
<text text-anchor="middle" x="145" y="-139" font-family="Helvetica,sans-Serif" font-size="10.00">functional</text>
</a>
</g>
</g>
<!-- Node2&#45;&gt;Node26 -->
<g id="edge32_Node000002_Node000026" class="edge">
<title>Node2&#45;&gt;Node26</title>
<g id="a_edge32_Node000002_Node000026"><a xlink:title=" ">
<path fill="none" stroke="#63b8ff" d="M837.63,-194.8C726.8,-192.63 437.74,-184.13 187.61,-151.03"/>
<polygon fill="#63b8ff" stroke="#63b8ff" points="187.98,-147.55 177.6,-149.69 187.05,-154.49 187.98,-147.55"/>
</a>
</g>
</g>
<!-- Node27 -->
<g id="Node000027" class="node">
<title>Node27</title>
<g id="a_Node000027"><a xlink:title=" ">
<polygon fill="#e0e0e0" stroke="#999999" points="278.5,-151 195.5,-151 195.5,-132 278.5,-132 278.5,-151"/>
<text text-anchor="middle" x="237" y="-139" font-family="Helvetica,sans-Serif" font-size="10.00">initializer_list</text>
</a>
</g>
</g>
<!-- Node2&#45;&gt;Node27 -->
<g id="edge33_Node000002_Node000027" class="edge">
<title>Node2&#45;&gt;Node27</title>
<g id="a_edge33_Node000002_Node000027"><a xlink:title=" ">
<path fill="none" stroke="#63b8ff" d="M837.79,-193.54C738.88,-189.02 499.18,-176.36 288.7,-151.1"/>
<polygon fill="#63b8ff" stroke="#63b8ff" points="289.05,-147.62 278.7,-149.89 288.21,-154.57 289.05,-147.62"/>
</a>
</g>
</g>
<!-- Node28 -->
<g id="Node000028" class="node">
<title>Node28</title>
<g id="a_Node000028"><a xlink:title=" ">
<polygon fill="#e0e0e0" stroke="#999999" points="1170,-151 1114,-151 1114,-132 1170,-132 1170,-151"/>
<text text-anchor="middle" x="1142" y="-139" font-family="Helvetica,sans-Serif" font-size="10.00">numeric</text>
</a>
</g>
</g>
<!-- Node2&#45;&gt;Node28 -->
<g id="edge35_Node000002_Node000028" class="edge">
<title>Node2&#45;&gt;Node28</title>
<g id="a_edge35_Node000002_Node000028"><a xlink:title=" ">
<path fill="none" stroke="#63b8ff" d="M925.45,-186.98C974.69,-176.87 1056.13,-160.14 1103.86,-150.33"/>
<polygon fill="#63b8ff" stroke="#63b8ff" points="1104.71,-153.73 1113.8,-148.29 1103.3,-146.88 1104.71,-153.73"/>
</a>
</g>
</g>
<!-- Node2&#45;&gt;Node29 -->
<g id="edge36_Node000002_Node000029" class="edge">
<title>Node2&#45;&gt;Node29</title>
<g id="a_edge36_Node000002_Node000029"><a xlink:title=" ">
<path fill="none" stroke="#63b8ff" d="M837.87,-194.25C695.72,-190.2 264.76,-176.26 104.31,-150.74"/>
<polygon fill="#63b8ff" stroke="#63b8ff" points="104.58,-147.24 94.14,-149.04 103.43,-154.14 104.58,-147.24"/>
</a>
</g>
</g>
<!-- Node30 -->
<g id="Node000030" class="node">
<title>Node30</title>
<g id="a_Node000030"><a xlink:title=" ">
<polygon fill="#e0e0e0" stroke="#999999" points="365.5,-151 296.5,-151 296.5,-132 365.5,-132 365.5,-151"/>
<text text-anchor="middle" x="331" y="-139" font-family="Helvetica,sans-Serif" font-size="10.00">type_traits</text>
</a>
</g>
</g>
<!-- Node2&#45;&gt;Node30 -->
<g id="edge37_Node000002_Node000030" class="edge">
<title>Node2&#45;&gt;Node30</title>
<g id="a_edge37_Node000002_Node000030"><a xlink:title=" ">
<path fill="none" stroke="#63b8ff" d="M838,-192.73C749.2,-187.1 548.1,-172.96 380,-151 378.7,-150.83 377.38,-150.65 376.05,-150.46"/>
<polygon fill="#63b8ff" stroke="#63b8ff" points="376.16,-146.94 365.74,-148.9 375.1,-153.86 376.16,-146.94"/>
</a>
</g>
</g>
<!-- Node2&#45;&gt;Node31 -->
<g id="edge38_Node000002_Node000031" class="edge">
<title>Node2&#45;&gt;Node31</title>
<g id="a_edge38_Node000002_Node000031"><a xlink:title=" ">
<path fill="none" stroke="#63b8ff" d="M930.35,-188.79C1005.06,-177.97 1150.35,-156.93 1216.16,-147.4"/>
<polygon fill="#63b8ff" stroke="#63b8ff" points="1216.99,-150.82 1226.39,-145.92 1215.99,-143.89 1216.99,-150.82"/>
</a>
</g>
</g>
<!-- Node6 -->
<g id="Node000006" class="node">
<title>Node6</title>
<g id="a_Node000006"><a xlink:href="device__qualifier_8hpp.html" target="_top" xlink:title=" ">
<polygon fill="white" stroke="#666666" points="507,-90.5 393,-90.5 393,-71.5 507,-71.5 507,-90.5"/>
<text text-anchor="middle" x="450" y="-78.5" font-family="Helvetica,sans-Serif" font-size="10.00">device_qualifier.hpp</text>
</a>
</g>
</g>
<!-- Node5&#45;&gt;Node6 -->
<g id="edge5_Node000005_Node000006" class="edge">
<title>Node5&#45;&gt;Node6</title>
<g id="a_edge5_Node000005_Node000006"><a xlink:title=" ">
<path fill="none" stroke="#63b8ff" d="M747.76,-133.41C674.32,-121.36 532.06,-98 521,-96 514.83,-94.88 508.38,-93.67 501.97,-92.44"/>
<polygon fill="#63b8ff" stroke="#63b8ff" points="502.49,-88.98 492.01,-90.51 501.16,-95.85 502.49,-88.98"/>
</a>
</g>
</g>
<!-- Node5&#45;&gt;Node7 -->
<g id="edge21_Node000005_Node000007" class="edge">
<title>Node5&#45;&gt;Node7</title>
<g id="a_edge21_Node000005_Node000007"><a xlink:title=" ">
<path fill="none" stroke="#63b8ff" d="M747.92,-132.96C682.01,-121.35 562.79,-100 554,-96 534.41,-87.09 536.03,-73.85 516,-66 327.14,8.04 258.52,-76.19 61,-30 58.69,-29.46 56.33,-28.79 53.98,-28.04"/>
<polygon fill="#63b8ff" stroke="#63b8ff" points="55.15,-24.74 44.55,-24.63 52.76,-31.32 55.15,-24.74"/>
</a>
</g>
</g>
<!-- Node5&#45;&gt;Node8 -->
<g id="edge7_Node000005_Node000008" class="edge">
<title>Node5&#45;&gt;Node8</title>
<g id="a_edge7_Node000005_Node000008"><a xlink:title=" ">
<path fill="none" stroke="#63b8ff" d="M829.1,-131.95C865.31,-123.6 921.19,-110.11 969,-96 971.31,-95.32 973.69,-94.59 976.08,-93.83"/>
<polygon fill="#63b8ff" stroke="#63b8ff" points="977.42,-97.07 985.83,-90.63 975.23,-90.42 977.42,-97.07"/>
</a>
</g>
</g>
<!-- Node5&#45;&gt;Node9 -->
<g id="edge22_Node000005_Node000009" class="edge">
<title>Node5&#45;&gt;Node9</title>
<g id="a_edge22_Node000005_Node000009"><a xlink:title=" ">
<path fill="none" stroke="#63b8ff" d="M829.99,-131.95C859.3,-124.67 899.91,-112.71 933,-96 953.15,-85.82 953.12,-74.6 974,-66 1072.91,-25.24 1108.63,-57.56 1212,-30 1214.3,-29.39 1216.65,-28.68 1218.99,-27.91"/>
<polygon fill="#63b8ff" stroke="#63b8ff" points="1220.23,-31.18 1228.46,-24.5 1217.86,-24.59 1220.23,-31.18"/>
</a>
</g>
</g>
<!-- Node10 -->
<g id="Node000010" class="node">
<title>Node10</title>
<g id="a_Node000010"><a xlink:title=" ">
<polygon fill="#e0e0e0" stroke="#999999" points="1203.5,-24.5 1158.5,-24.5 1158.5,-5.5 1203.5,-5.5 1203.5,-24.5"/>
<text text-anchor="middle" x="1181" y="-12.5" font-family="Helvetica,sans-Serif" font-size="10.00">utility</text>
</a>
</g>
</g>
<!-- Node5&#45;&gt;Node10 -->
<g id="edge26_Node000005_Node000010" class="edge">
<title>Node5&#45;&gt;Node10</title>
<g id="a_edge26_Node000005_Node000010"><a xlink:title=" ">
<path fill="none" stroke="#63b8ff" d="M815.21,-131.93C837.12,-123.8 870,-110.68 897,-96 917.79,-84.7 919.06,-74.89 941,-66 1027.95,-30.77 1059.15,-57 1149,-30 1150.64,-29.51 1152.3,-28.95 1153.97,-28.36"/>
<polygon fill="#63b8ff" stroke="#63b8ff" points="1155.35,-31.58 1163.35,-24.63 1152.76,-25.07 1155.35,-31.58"/>
</a>
</g>
</g>
<!-- Node11 -->
<g id="Node000011" class="node">
<title>Node11</title>
<g id="a_Node000011"><a xlink:href="array_8hpp.html" target="_top" xlink:title=" ">
<polygon fill="white" stroke="#666666" points="888.5,-90.5 763.5,-90.5 763.5,-71.5 888.5,-71.5 888.5,-90.5"/>
<text text-anchor="middle" x="826" y="-78.5" font-family="Helvetica,sans-Serif" font-size="10.00">serialization/array.hpp</text>
</a>
</g>
</g>
<!-- Node5&#45;&gt;Node11 -->
<g id="edge10_Node000005_Node000011" class="edge">
<title>Node5&#45;&gt;Node11</title>
<g id="a_edge10_Node000005_Node000011"><a xlink:title=" ">
<path fill="none" stroke="#63b8ff" d="M796.16,-131.87C801.23,-123.4 809.1,-110.24 815.49,-99.57"/>
<polygon fill="#63b8ff" stroke="#63b8ff" points="818.68,-101.05 820.81,-90.67 812.68,-97.45 818.68,-101.05"/>
</a>
</g>
</g>
<!-- Node20 -->
<g id="Node000020" class="node">
<title>Node20</title>
<g id="a_Node000020"><a xlink:title=" ">
<polygon fill="#e0e0e0" stroke="#999999" points="670.5,-96 563.5,-96 563.5,-66 670.5,-66 670.5,-96"/>
<text text-anchor="start" x="571.5" y="-84" font-family="Helvetica,sans-Serif" font-size="10.00">boost/serialization</text>
<text text-anchor="middle" x="617" y="-73" font-family="Helvetica,sans-Serif" font-size="10.00">/access.hpp</text>
</a>
</g>
</g>
<!-- Node5&#45;&gt;Node20 -->
<g id="edge20_Node000005_Node000020" class="edge">
<title>Node5&#45;&gt;Node20</title>
<g id="a_edge20_Node000005_Node000020"><a xlink:title=" ">
<path fill="none" stroke="#63b8ff" d="M765.7,-131.99C740.33,-123.46 700.54,-110.09 668.5,-99.32"/>
<polygon fill="#63b8ff" stroke="#63b8ff" points="669.43,-95.93 658.83,-96.06 667.2,-102.57 669.43,-95.93"/>
</a>
</g>
</g>
<!-- Node5&#45;&gt;Node21 -->
<g id="edge23_Node000005_Node000021" class="edge">
<title>Node5&#45;&gt;Node21</title>
<g id="a_edge23_Node000005_Node000021"><a xlink:title=" ">
<path fill="none" stroke="#63b8ff" d="M834.17,-133.41C901.29,-122.33 1025.06,-101.57 1045,-96 1047.15,-95.4 1049.35,-94.72 1051.55,-93.99"/>
<polygon fill="#63b8ff" stroke="#63b8ff" points="1052.83,-97.25 1061.06,-90.56 1050.46,-90.66 1052.83,-97.25"/>
</a>
</g>
</g>
<!-- Node22 -->
<g id="Node000022" class="node">
<title>Node22</title>
<g id="a_Node000022"><a xlink:title=" ">
<polygon fill="#e0e0e0" stroke="#999999" points="745.5,-90.5 688.5,-90.5 688.5,-71.5 745.5,-71.5 745.5,-90.5"/>
<text text-anchor="middle" x="717" y="-78.5" font-family="Helvetica,sans-Serif" font-size="10.00">ostream</text>
</a>
</g>
</g>
<!-- Node5&#45;&gt;Node22 -->
<g id="edge24_Node000005_Node000022" class="edge">
<title>Node5&#45;&gt;Node22</title>
<g id="a_edge24_Node000005_Node000022"><a xlink:title=" ">
<path fill="none" stroke="#63b8ff" d="M780.08,-131.87C768.49,-122.71 749.97,-108.06 735.98,-97.01"/>
<polygon fill="#63b8ff" stroke="#63b8ff" points="737.98,-94.12 727.96,-90.67 733.64,-99.61 737.98,-94.12"/>
</a>
</g>
</g>
<!-- Node23 -->
<g id="Node000023" class="node">
<title>Node23</title>
<g id="a_Node000023"><a xlink:title=" ">
<polygon fill="#e0e0e0" stroke="#999999" points="1270.5,-90.5 1205.5,-90.5 1205.5,-71.5 1270.5,-71.5 1270.5,-90.5"/>
<text text-anchor="middle" x="1238" y="-78.5" font-family="Helvetica,sans-Serif" font-size="10.00">stdexcept</text>
</a>
</g>
</g>
<!-- Node5&#45;&gt;Node23 -->
<g id="edge25_Node000005_Node000023" class="edge">
<title>Node5&#45;&gt;Node23</title>
<g id="a_edge25_Node000005_Node000023"><a xlink:title=" ">
<path fill="none" stroke="#63b8ff" d="M834.11,-133.33C837.12,-132.87 840.1,-132.42 843,-132 970.96,-113.45 1122.81,-95.31 1195.32,-86.89"/>
<polygon fill="#63b8ff" stroke="#63b8ff" points="1195.9,-90.35 1205.43,-85.72 1195.1,-83.39 1195.9,-90.35"/>
</a>
</g>
</g>
<!-- Node6&#45;&gt;Node7 -->
<g id="edge6_Node000006_Node000007" class="edge">
<title>Node6&#45;&gt;Node7</title>
<g id="a_edge6_Node000006_Node000007"><a xlink:title=" ">
<path fill="none" stroke="#63b8ff" d="M409.55,-71.43C399.59,-69.48 388.93,-67.54 379,-66 238.44,-44.22 198.93,-64.72 61,-30 58.7,-29.42 56.34,-28.72 54,-27.96"/>
<polygon fill="#63b8ff" stroke="#63b8ff" points="55.18,-24.66 44.58,-24.5 52.77,-31.23 55.18,-24.66"/>
</a>
</g>
</g>
<!-- Node8&#45;&gt;Node9 -->
<g id="edge8_Node000008_Node000009" class="edge">
<title>Node8&#45;&gt;Node9</title>
<g id="a_edge8_Node000008_Node000009"><a xlink:title=" ">
<path fill="none" stroke="#63b8ff" d="M1029.78,-71.42C1034.7,-69.47 1039.99,-67.53 1045,-66 1117.62,-43.82 1139.28,-51.83 1212,-30 1213.93,-29.42 1215.9,-28.79 1217.87,-28.12"/>
<polygon fill="#63b8ff" stroke="#63b8ff" points="1219.43,-31.27 1227.64,-24.57 1217.04,-24.69 1219.43,-31.27"/>
</a>
</g>
</g>
<!-- Node8&#45;&gt;Node10 -->
<g id="edge9_Node000008_Node000010" class="edge">
<title>Node8&#45;&gt;Node10</title>
<g id="a_edge9_Node000008_Node000010"><a xlink:title=" ">
<path fill="none" stroke="#63b8ff" d="M1031.04,-71.4C1035.62,-69.58 1040.46,-67.69 1045,-66 1090.83,-48.91 1103.45,-47.82 1149,-30 1150.21,-29.53 1151.44,-29.04 1152.67,-28.53"/>
<polygon fill="#63b8ff" stroke="#63b8ff" points="1154.3,-31.65 1162.15,-24.54 1151.58,-25.2 1154.3,-31.65"/>
</a>
</g>
</g>
<!-- Node11&#45;&gt;Node9 -->
<g id="edge19_Node000011_Node000009" class="edge">
<title>Node11&#45;&gt;Node9</title>
<g id="a_edge19_Node000011_Node000009"><a xlink:title=" ">
<path fill="none" stroke="#63b8ff" d="M888.72,-72.28C994.05,-59.25 1196.55,-33.94 1212,-30 1214.3,-29.41 1216.66,-28.72 1219.01,-27.96"/>
<polygon fill="#63b8ff" stroke="#63b8ff" points="1220.23,-31.24 1228.48,-24.58 1217.88,-24.65 1220.23,-31.24"/>
</a>
</g>
</g>
<!-- Node12 -->
<g id="Node000012" class="node">
<title>Node12</title>
<g id="a_Node000012"><a xlink:title=" ">
<polygon fill="#e0e0e0" stroke="#999999" points="753.5,-24.5 620.5,-24.5 620.5,-5.5 753.5,-5.5 753.5,-24.5"/>
<text text-anchor="middle" x="687" y="-12.5" font-family="Helvetica,sans-Serif" font-size="10.00">boost/mpl/bool_fwd.hpp</text>
</a>
</g>
</g>
<!-- Node11&#45;&gt;Node12 -->
<g id="edge11_Node000011_Node000012" class="edge">
<title>Node11&#45;&gt;Node12</title>
<g id="a_edge11_Node000011_Node000012"><a xlink:title=" ">
<path fill="none" stroke="#63b8ff" d="M807.25,-71.37C783.52,-60.44 742.43,-41.52 714.98,-28.88"/>
<polygon fill="#63b8ff" stroke="#63b8ff" points="716.44,-25.7 705.89,-24.7 713.51,-32.06 716.44,-25.7"/>
</a>
</g>
</g>
<!-- Node13 -->
<g id="Node000013" class="node">
<title>Node13</title>
<g id="a_Node000013"><a xlink:title=" ">
<polygon fill="#e0e0e0" stroke="#999999" points="896,-24.5 772,-24.5 772,-5.5 896,-5.5 896,-24.5"/>
<text text-anchor="middle" x="834" y="-12.5" font-family="Helvetica,sans-Serif" font-size="10.00">boost/mpl/greater.hpp</text>
</a>
</g>
</g>
<!-- Node11&#45;&gt;Node13 -->
<g id="edge12_Node000011_Node000013" class="edge">
<title>Node11&#45;&gt;Node13</title>
<g id="a_edge12_Node000011_Node000013"><a xlink:title=" ">
<path fill="none" stroke="#63b8ff" d="M827.08,-71.37C828.24,-62.07 830.13,-46.98 831.64,-34.9"/>
<polygon fill="#63b8ff" stroke="#63b8ff" points="835.12,-35.26 832.89,-24.91 828.17,-34.39 835.12,-35.26"/>
</a>
</g>
</g>
<!-- Node14 -->
<g id="Node000014" class="node">
<title>Node14</title>
<g id="a_Node000014"><a xlink:title=" ">
<polygon fill="#e0e0e0" stroke="#999999" points="1016,-24.5 914,-24.5 914,-5.5 1016,-5.5 1016,-24.5"/>
<text text-anchor="middle" x="965" y="-12.5" font-family="Helvetica,sans-Serif" font-size="10.00">boost/mpl/int.hpp</text>
</a>
</g>
</g>
<!-- Node11&#45;&gt;Node14 -->
<g id="edge13_Node000011_Node000014" class="edge">
<title>Node11&#45;&gt;Node14</title>
<g id="a_edge13_Node000011_Node000014"><a xlink:title=" ">
<path fill="none" stroke="#63b8ff" d="M844.75,-71.37C868.48,-60.44 909.57,-41.52 937.02,-28.88"/>
<polygon fill="#63b8ff" stroke="#63b8ff" points="938.49,-32.06 946.11,-24.7 935.56,-25.7 938.49,-32.06"/>
</a>
</g>
</g>
<!-- Node15 -->
<g id="Node000015" class="node">
<title>Node15</title>
<g id="a_Node000015"><a xlink:title=" ">
<polygon fill="#e0e0e0" stroke="#999999" points="1140,-30 1034,-30 1034,0 1140,0 1140,-30"/>
<text text-anchor="start" x="1042" y="-18" font-family="Helvetica,sans-Serif" font-size="10.00">boost/mpl/integral</text>
<text text-anchor="middle" x="1087" y="-7" font-family="Helvetica,sans-Serif" font-size="10.00">_c_tag.hpp</text>
</a>
</g>
</g>
<!-- Node11&#45;&gt;Node15 -->
<g id="edge14_Node000011_Node000015" class="edge">
<title>Node11&#45;&gt;Node15</title>
<g id="a_edge14_Node000011_Node000015"><a xlink:title=" ">
<path fill="none" stroke="#63b8ff" d="M860.93,-71.44C902.47,-61.25 972.61,-44.05 1023.77,-31.5"/>
<polygon fill="#63b8ff" stroke="#63b8ff" points="1024.86,-34.84 1033.74,-29.06 1023.19,-28.04 1024.86,-34.84"/>
</a>
</g>
</g>
<!-- Node16 -->
<g id="Node000016" class="node">
<title>Node16</title>
<g id="a_Node000016"><a xlink:title=" ">
<polygon fill="#e0e0e0" stroke="#999999" points="221.5,-30 70.5,-30 70.5,0 221.5,0 221.5,-30"/>
<text text-anchor="start" x="78.5" y="-18" font-family="Helvetica,sans-Serif" font-size="10.00">boost/serialization</text>
<text text-anchor="middle" x="146" y="-7" font-family="Helvetica,sans-Serif" font-size="10.00">/is_bitwise_serializable.hpp</text>
</a>
</g>
</g>
<!-- Node11&#45;&gt;Node16 -->
<g id="edge15_Node000011_Node000016" class="edge">
<title>Node11&#45;&gt;Node16</title>
<g id="a_edge15_Node000011_Node000016"><a xlink:title=" ">
<path fill="none" stroke="#63b8ff" d="M786.91,-71.49C776.28,-69.42 764.73,-67.41 754,-66 525.82,-36.09 463.6,-56.62 231.61,-30.11"/>
<polygon fill="#63b8ff" stroke="#63b8ff" points="231.84,-26.61 221.51,-28.94 231.04,-33.57 231.84,-26.61"/>
</a>
</g>
</g>
<!-- Node17 -->
<g id="Node000017" class="node">
<title>Node17</title>
<g id="a_Node000017"><a xlink:title=" ">
<polygon fill="#e0e0e0" stroke="#999999" points="346.5,-30 239.5,-30 239.5,0 346.5,0 346.5,-30"/>
<text text-anchor="start" x="247.5" y="-18" font-family="Helvetica,sans-Serif" font-size="10.00">boost/serialization</text>
<text text-anchor="middle" x="293" y="-7" font-family="Helvetica,sans-Serif" font-size="10.00">/level.hpp</text>
</a>
</g>
</g>
<!-- Node11&#45;&gt;Node17 -->
<g id="edge16_Node000011_Node000017" class="edge">
<title>Node11&#45;&gt;Node17</title>
<g id="a_edge16_Node000011_Node000017"><a xlink:title=" ">
<path fill="none" stroke="#63b8ff" d="M786.13,-71.5C775.71,-69.48 764.46,-67.49 754,-66 580.98,-41.44 532.67,-57.06 356.8,-30.15"/>
<polygon fill="#63b8ff" stroke="#63b8ff" points="357.1,-26.66 346.68,-28.58 356.03,-33.57 357.1,-26.66"/>
</a>
</g>
</g>
<!-- Node18 -->
<g id="Node000018" class="node">
<title>Node18</title>
<g id="a_Node000018"><a xlink:title=" ">
<polygon fill="#e0e0e0" stroke="#999999" points="471.5,-30 364.5,-30 364.5,0 471.5,0 471.5,-30"/>
<text text-anchor="start" x="372.5" y="-18" font-family="Helvetica,sans-Serif" font-size="10.00">boost/serialization</text>
<text text-anchor="middle" x="418" y="-7" font-family="Helvetica,sans-Serif" font-size="10.00">/tracking.hpp</text>
</a>
</g>
</g>
<!-- Node11&#45;&gt;Node18 -->
<g id="edge17_Node000011_Node000018" class="edge">
<title>Node11&#45;&gt;Node18</title>
<g id="a_edge17_Node000011_Node000018"><a xlink:title=" ">
<path fill="none" stroke="#63b8ff" d="M784.58,-71.49C774.59,-69.57 763.93,-67.62 754,-66 635.97,-46.79 602.66,-51.29 481.73,-30.21"/>
<polygon fill="#63b8ff" stroke="#63b8ff" points="482.16,-26.74 471.71,-28.44 480.95,-33.63 482.16,-26.74"/>
</a>
</g>
</g>
<!-- Node19 -->
<g id="Node000019" class="node">
<title>Node19</title>
<g id="a_Node000019"><a xlink:title=" ">
<polygon fill="#e0e0e0" stroke="#999999" points="602.5,-30 489.5,-30 489.5,0 602.5,0 602.5,-30"/>
<text text-anchor="start" x="497.5" y="-18" font-family="Helvetica,sans-Serif" font-size="10.00">boost/serialization</text>
<text text-anchor="middle" x="546" y="-7" font-family="Helvetica,sans-Serif" font-size="10.00">/tracking_enum.hpp</text>
</a>
</g>
</g>
<!-- Node11&#45;&gt;Node19 -->
<g id="edge18_Node000011_Node000019" class="edge">
<title>Node11&#45;&gt;Node19</title>
<g id="a_edge18_Node000011_Node000019"><a xlink:title=" ">
<path fill="none" stroke="#63b8ff" d="M788.53,-71.44C743.64,-61.17 667.61,-43.8 612.63,-31.23"/>
<polygon fill="#63b8ff" stroke="#63b8ff" points="613.15,-27.76 602.62,-28.94 611.59,-34.58 613.15,-27.76"/>
</a>
</g>
</g>
<!-- Node32&#45;&gt;Node2 -->
<g id="edge45_Node000032_Node000002" class="edge">
<title>Node32&#45;&gt;Node2</title>
<g id="a_edge45_Node000032_Node000002"><a xlink:title=" ">
<path fill="none" stroke="#63b8ff" d="M1100.55,-241.98C1055.73,-232.78 984.23,-218.09 935.75,-208.13"/>
<polygon fill="#63b8ff" stroke="#63b8ff" points="936.28,-204.67 925.78,-206.08 934.87,-211.52 936.28,-204.67"/>
</a>
</g>
</g>
<!-- Node32&#45;&gt;Node7 -->
<g id="edge40_Node000032_Node000007" class="edge">
<title>Node32&#45;&gt;Node7</title>
<g id="a_edge40_Node000032_Node000007"><a xlink:title=" ">
<path fill="none" stroke="#63b8ff" d="M1097.19,-249.66C900.8,-245.54 122.4,-224.67 45,-151 13.37,-120.89 17.46,-64.06 22.22,-34.66"/>
<polygon fill="#63b8ff" stroke="#63b8ff" points="25.71,-35 24.06,-24.53 18.83,-33.74 25.71,-35"/>
</a>
</g>
</g>
<!-- Node32&#45;&gt;Node9 -->
<g id="edge41_Node000032_Node000009" class="edge">
<title>Node32&#45;&gt;Node9</title>
<g id="a_edge41_Node000032_Node000009"><a xlink:title=" ">
<path fill="none" stroke="#63b8ff" d="M1179.76,-241.95C1203.9,-235.12 1234.89,-223.72 1258,-206 1281.99,-187.61 1288.65,-179.74 1298,-151 1312.04,-107.84 1281,-57.98 1261.77,-32.65"/>
<polygon fill="#63b8ff" stroke="#63b8ff" points="1264.5,-30.45 1255.56,-24.76 1259,-34.78 1264.5,-30.45"/>
</a>
</g>
</g>
<!-- Node32&#45;&gt;Node21 -->
<g id="edge42_Node000032_Node000021" class="edge">
<title>Node32&#45;&gt;Node21</title>
<g id="a_edge42_Node000032_Node000021"><a xlink:title=" ">
<path fill="none" stroke="#63b8ff" d="M1149.28,-241.86C1165.56,-221.44 1201.74,-169.13 1179,-132 1165.59,-110.11 1139.25,-97.42 1117.25,-90.31"/>
<polygon fill="#63b8ff" stroke="#63b8ff" points="1118.09,-86.91 1107.51,-87.42 1116.1,-93.62 1118.09,-86.91"/>
</a>
</g>
</g>
<!-- Node32&#45;&gt;Node23 -->
<g id="edge44_Node000032_Node000023" class="edge">
<title>Node32&#45;&gt;Node23</title>
<g id="a_edge44_Node000032_Node000023"><a xlink:title=" ">
<path fill="none" stroke="#63b8ff" d="M1165.46,-241.9C1198.5,-228.34 1257.45,-198.56 1282,-151 1291.99,-131.65 1274.24,-110.73 1258.39,-97.06"/>
<polygon fill="#63b8ff" stroke="#63b8ff" points="1260.41,-94.19 1250.43,-90.62 1256,-99.64 1260.41,-94.19"/>
</a>
</g>
</g>
<!-- Node32&#45;&gt;Node28 -->
<g id="edge43_Node000032_Node000028" class="edge">
<title>Node32&#45;&gt;Node28</title>
<g id="a_edge43_Node000032_Node000028"><a xlink:title=" ">
<path fill="none" stroke="#63b8ff" d="M1142,-241.66C1142,-224.17 1142,-184.8 1142,-161.27"/>
<polygon fill="#63b8ff" stroke="#63b8ff" points="1145.5,-161.16 1142,-151.16 1138.5,-161.16 1145.5,-161.16"/>
</a>
</g>
</g>
</g>
</svg>

<g id="navigator" transform="translate(0 0)" fill="#404254">
  <rect fill="#f2f5e9" fill-opacity="0.5" stroke="#606060" stroke-width=".5" x="0" y="0" width="60" height="60"/>
  <use id="zoomplus" xlink:href="#zoomPlus" x="17" y="9" onmousedown="handleZoom(evt,'in')"/>
  <use id="zoomminus" xlink:href="#zoomMin" x="42" y="9" onmousedown="handleZoom(evt,'out')"/>
  <use id="reset" xlink:href="#resetDef" x="30" y="36" onmousedown="handleReset()"/>
   <use id="arrowup" xlink:href="#arrowUp" x="0" y="0" onmousedown="handlePan(0,-1)"/>
  <use id="arrowright" xlink:href="#arrowRight" x="0" y="0" onmousedown="handlePan(1,0)"/>
  <use id="arrowdown" xlink:href="#arrowDown" x="0" y="0" onmousedown="handlePan(0,1)"/>
  <use id="arrowleft" xlink:href="#arrowLeft" x="0" y="0" onmousedown="handlePan(-1,0)"/>
</g>
<svg viewBox="0 0 15 15" width="100%" height="30px" preserveAspectRatio="xMaxYMin meet">
 <g id="arrow_out" transform="scale(0.3 0.3)">
  <a xlink:href="field__layout__helpers_8hpp__incl_org.svg" target="_base">
   <rect id="button" ry="5" rx="5" y="6" x="6" height="38" width="38"
        fill="#f2f5e9" fill-opacity="0.5" stroke="#606060" stroke-width="1.0"/>
   <path id="arrow"
     d="M 11.500037,31.436501 C 11.940474,20.09759 22.043105,11.32322 32.158766,21.979434 L 37.068811,17.246167 C 37.068811,17.246167 37.088388,32 37.088388,32 L 22.160133,31.978069 C 22.160133,31.978069 26.997745,27.140456 26.997745,27.140456 C 18.528582,18.264221 13.291696,25.230495 11.500037,31.436501 z"
     style="fill:#404040;"/>
  </a>
 </g>
</svg>

<style type='text/css'>
<![CDATA[
[data-mouse-over-selected='false'] { opacity: 0.7; }
[data-mouse-over-selected='true']  { opacity: 1.0; }
]]>
</style>
<script type="application/ecmascript"><![CDATA[
document.addEventListener('DOMContentLoaded', (event) => {
  highlightEdges();
  highlightAdjacentNodes();
});
]]></script>
</svg>
