<?xml version="1.0" encoding="UTF-8" standalone="no"?>
<!DOCTYPE svg PUBLIC "-//W3C//DTD SVG 1.1//EN"
 "http://www.w3.org/Graphics/SVG/1.1/DTD/svg11.dtd">
<!-- Generated by graphviz version 2.43.0 (0)
 -->
<!-- Title: field_layout_helpers.hpp Pages: 1 -->
<svg width="1593pt" height="379pt"
 viewBox="0.00 0.00 1593.00 379.00" xmlns="http://www.w3.org/2000/svg" xmlns:xlink="http://www.w3.org/1999/xlink">
<g id="graph0" class="graph" transform="scale(1 1) rotate(0) translate(4 375)">
<title>field_layout_helpers.hpp</title>
<!-- Node1 -->
<g id="Node000001" class="node">
<title>Node1</title>
<g id="a_Node000001"><a xlink:title=" ">
<polygon fill="#999999" stroke="#666666" points="952,-371 816,-371 816,-352 952,-352 952,-371"/>
<text text-anchor="middle" x="884" y="-359" font-family="Helvetica,sans-Serif" font-size="10.00">field_layout_helpers.hpp</text>
</a>
</g>
</g>
<!-- Node2 -->
<g id="Node000002" class="node">
<title>Node2</title>
<g id="a_Node000002"><a xlink:href="for__each__3d_8hpp.html" target="_top" xlink:title=" ">
<polygon fill="white" stroke="#666666" points="846.5,-316 749.5,-316 749.5,-297 846.5,-297 846.5,-316"/>
<text text-anchor="middle" x="798" y="-304" font-family="Helvetica,sans-Serif" font-size="10.00">for_each_3d.hpp</text>
</a>
</g>
</g>
<!-- Node1&#45;&gt;Node2 -->
<g id="edge1_Node000001_Node000002" class="edge">
<title>Node1&#45;&gt;Node2</title>
<g id="a_edge1_Node000001_Node000002"><a xlink:title=" ">
<path fill="none" stroke="#63b8ff" d="M870.18,-351.98C856.85,-343.77 836.42,-331.18 820.69,-321.49"/>
<polygon fill="#63b8ff" stroke="#63b8ff" points="822.42,-318.44 812.07,-316.17 818.75,-324.4 822.42,-318.44"/>
</a>
</g>
</g>
<!-- Node5 -->
<g id="Node000005" class="node">
<title>Node5</title>
<g id="a_Node000005"><a xlink:href="index_8hpp.html" target="_top" xlink:title=" ">
<polygon fill="white" stroke="#666666" points="451.5,-261 362.5,-261 362.5,-242 451.5,-242 451.5,-261"/>
<text text-anchor="middle" x="407" y="-249" font-family="Helvetica,sans-Serif" font-size="10.00">utils/index.hpp</text>
</a>
</g>
</g>
<!-- Node1&#45;&gt;Node5 -->
<g id="edge52_Node000001_Node000005" class="edge">
<title>Node1&#45;&gt;Node5</title>
<g id="a_edge52_Node000001_Node000005"><a xlink:title=" ">
<path fill="none" stroke="#63b8ff" d="M846.17,-351.94C760.07,-332.44 549.58,-284.78 454.73,-263.31"/>
<polygon fill="#63b8ff" stroke="#63b8ff" points="455.36,-259.86 444.83,-261.07 453.81,-266.69 455.36,-259.86"/>
</a>
</g>
</g>
<!-- Node6 -->
<g id="Node000006" class="node">
<title>Node6</title>
<g id="a_Node000006"><a xlink:title=" ">
<polygon fill="#e0e0e0" stroke="#999999" points="52,-24.5 0,-24.5 0,-5.5 52,-5.5 52,-24.5"/>
<text text-anchor="middle" x="26" y="-12.5" font-family="Helvetica,sans-Serif" font-size="10.00">cassert</text>
</a>
</g>
</g>
<!-- Node1&#45;&gt;Node6 -->
<g id="edge53_Node000001_Node000006" class="edge">
<title>Node1&#45;&gt;Node6</title>
<g id="a_edge53_Node000001_Node000006"><a xlink:title=" ">
<path fill="none" stroke="#63b8ff" d="M815.96,-359.06C613.02,-353.87 26,-331.98 26,-252.5 26,-252.5 26,-252.5 26,-140.5 26,-102.99 26,-59.13 26,-34.76"/>
<polygon fill="#63b8ff" stroke="#63b8ff" points="29.5,-34.75 26,-24.75 22.5,-34.75 29.5,-34.75"/>
</a>
</g>
</g>
<!-- Node7 -->
<g id="Node000007" class="node">
<title>Node7</title>
<g id="a_Node000007"><a xlink:title=" ">
<polygon fill="#e0e0e0" stroke="#999999" points="1211.5,-24.5 1158.5,-24.5 1158.5,-5.5 1211.5,-5.5 1211.5,-24.5"/>
<text text-anchor="middle" x="1185" y="-12.5" font-family="Helvetica,sans-Serif" font-size="10.00">cstddef</text>
</a>
</g>
</g>
<!-- Node1&#45;&gt;Node7 -->
<g id="edge54_Node000001_Node000007" class="edge">
<title>Node1&#45;&gt;Node7</title>
<g id="a_edge54_Node000001_Node000007"><a xlink:title=" ">
<path fill="none" stroke="#63b8ff" d="M952.17,-357.1C1128.33,-347.39 1585,-316.11 1585,-252.5 1585,-252.5 1585,-252.5 1585,-140.5 1585,-64.8 1320.52,-29.89 1221.68,-19.49"/>
<polygon fill="#63b8ff" stroke="#63b8ff" points="1221.86,-15.99 1211.55,-18.45 1221.14,-22.95 1221.86,-15.99"/>
</a>
</g>
</g>
<!-- Node11 -->
<g id="Node000011" class="node">
<title>Node11</title>
<g id="a_Node000011"><a xlink:href="Vector_8hpp.html" target="_top" xlink:title="Vector implementation and trait types for boost qvm interoperability.">
<polygon fill="white" stroke="#666666" points="918,-206 850,-206 850,-187 918,-187 918,-206"/>
<text text-anchor="middle" x="884" y="-194" font-family="Helvetica,sans-Serif" font-size="10.00">Vector.hpp</text>
</a>
</g>
</g>
<!-- Node1&#45;&gt;Node11 -->
<g id="edge51_Node000001_Node000011" class="edge">
<title>Node1&#45;&gt;Node11</title>
<g id="a_edge51_Node000001_Node000011"><a xlink:title=" ">
<path fill="none" stroke="#63b8ff" d="M884,-351.74C884,-326.31 884,-252.08 884,-216.69"/>
<polygon fill="#63b8ff" stroke="#63b8ff" points="887.5,-216.31 884,-206.31 880.5,-216.31 887.5,-216.31"/>
</a>
</g>
</g>
<!-- Node35 -->
<g id="Node000035" class="node">
<title>Node35</title>
<g id="a_Node000035"><a xlink:title=" ">
<polygon fill="#e0e0e0" stroke="#999999" points="1491,-151 1451,-151 1451,-132 1491,-132 1491,-151"/>
<text text-anchor="middle" x="1471" y="-139" font-family="Helvetica,sans-Serif" font-size="10.00">span</text>
</a>
</g>
</g>
<!-- Node1&#45;&gt;Node35 -->
<g id="edge55_Node000001_Node000035" class="edge">
<title>Node1&#45;&gt;Node35</title>
<g id="a_edge55_Node000001_Node000035"><a xlink:title=" ">
<path fill="none" stroke="#63b8ff" d="M952.22,-357.04C1083.96,-348.99 1366.61,-324.6 1437,-261 1465.36,-235.38 1470.7,-187.84 1471.33,-161.43"/>
<polygon fill="#63b8ff" stroke="#63b8ff" points="1474.83,-161.24 1471.37,-151.23 1467.83,-161.22 1474.83,-161.24"/>
</a>
</g>
</g>
<!-- Node37 -->
<g id="Node000037" class="node">
<title>Node37</title>
<g id="a_Node000037"><a xlink:title=" ">
<polygon fill="#e0e0e0" stroke="#999999" points="1556.5,-151 1509.5,-151 1509.5,-132 1556.5,-132 1556.5,-151"/>
<text text-anchor="middle" x="1533" y="-139" font-family="Helvetica,sans-Serif" font-size="10.00">vector</text>
</a>
</g>
</g>
<!-- Node1&#45;&gt;Node37 -->
<g id="edge56_Node000001_Node000037" class="edge">
<title>Node1&#45;&gt;Node37</title>
<g id="a_edge56_Node000001_Node000037"><a xlink:title=" ">
<path fill="none" stroke="#63b8ff" d="M952.12,-356.95C1062.12,-350.71 1273.81,-336.47 1346,-316 1399.35,-300.87 1416.73,-298.04 1458,-261 1490.34,-231.97 1514.05,-185.81 1525.43,-160.52"/>
<polygon fill="#63b8ff" stroke="#63b8ff" points="1528.76,-161.64 1529.55,-151.07 1522.35,-158.85 1528.76,-161.64"/>
</a>
</g>
</g>
<!-- Node3 -->
<g id="Node000003" class="node">
<title>Node3</title>
<g id="a_Node000003"><a xlink:href="config_8hpp.html" target="_top" xlink:title=" ">
<polygon fill="white" stroke="#666666" points="1034.5,-261 935.5,-261 935.5,-242 1034.5,-242 1034.5,-261"/>
<text text-anchor="middle" x="985" y="-249" font-family="Helvetica,sans-Serif" font-size="10.00">config/config.hpp</text>
</a>
</g>
</g>
<!-- Node2&#45;&gt;Node3 -->
<g id="edge2_Node000002_Node000003" class="edge">
<title>Node2&#45;&gt;Node3</title>
<g id="a_edge2_Node000002_Node000003"><a xlink:title=" ">
<path fill="none" stroke="#63b8ff" d="M828.04,-296.98C859.71,-288.01 909.77,-273.82 944.81,-263.89"/>
<polygon fill="#63b8ff" stroke="#63b8ff" points="946.05,-267.18 954.72,-261.08 944.14,-260.44 946.05,-267.18"/>
</a>
</g>
</g>
<!-- Node2&#45;&gt;Node5 -->
<g id="edge4_Node000002_Node000005" class="edge">
<title>Node2&#45;&gt;Node5</title>
<g id="a_edge4_Node000002_Node000005"><a xlink:title=" ">
<path fill="none" stroke="#63b8ff" d="M749.27,-298.89C676,-288.96 537.9,-270.24 461.42,-259.88"/>
<polygon fill="#63b8ff" stroke="#63b8ff" points="461.88,-256.41 451.5,-258.53 460.94,-263.34 461.88,-256.41"/>
</a>
</g>
</g>
<!-- Node2&#45;&gt;Node7 -->
<g id="edge49_Node000002_Node000007" class="edge">
<title>Node2&#45;&gt;Node7</title>
<g id="a_edge49_Node000002_Node000007"><a xlink:title=" ">
<path fill="none" stroke="#63b8ff" d="M846.52,-302.23C993.37,-291.71 1423,-255.93 1423,-197.5 1423,-197.5 1423,-197.5 1423,-140.5 1423,-50.87 1288.82,-25.65 1221.96,-18.64"/>
<polygon fill="#63b8ff" stroke="#63b8ff" points="1222.13,-15.14 1211.84,-17.67 1221.46,-22.11 1222.13,-15.14"/>
</a>
</g>
</g>
<!-- Node31 -->
<g id="Node000031" class="node">
<title>Node31</title>
<g id="a_Node000031"><a xlink:title=" ">
<polygon fill="#e0e0e0" stroke="#999999" points="325,-151 265,-151 265,-132 325,-132 325,-151"/>
<text text-anchor="middle" x="295" y="-139" font-family="Helvetica,sans-Serif" font-size="10.00">concepts</text>
</a>
</g>
</g>
<!-- Node2&#45;&gt;Node31 -->
<g id="edge48_Node000002_Node000031" class="edge">
<title>Node2&#45;&gt;Node31</title>
<g id="a_edge48_Node000002_Node000031"><a xlink:title=" ">
<path fill="none" stroke="#63b8ff" d="M771.66,-296.97C687.81,-269.79 426.94,-185.26 330.94,-154.15"/>
<polygon fill="#63b8ff" stroke="#63b8ff" points="331.97,-150.8 321.38,-151.05 329.81,-157.46 331.97,-150.8"/>
</a>
</g>
</g>
<!-- Node36 -->
<g id="Node000036" class="node">
<title>Node36</title>
<g id="a_Node000036"><a xlink:title=" ">
<polygon fill="#e0e0e0" stroke="#999999" points="412.5,-151 343.5,-151 343.5,-132 412.5,-132 412.5,-151"/>
<text text-anchor="middle" x="378" y="-139" font-family="Helvetica,sans-Serif" font-size="10.00">type_traits</text>
</a>
</g>
</g>
<!-- Node2&#45;&gt;Node36 -->
<g id="edge50_Node000002_Node000036" class="edge">
<title>Node2&#45;&gt;Node36</title>
<g id="a_edge50_Node000002_Node000036"><a xlink:title=" ">
<path fill="none" stroke="#63b8ff" d="M784.67,-296.74C772.24,-288.29 753.51,-274.79 739,-261 707.89,-231.45 714.48,-207.88 677,-187 578.93,-132.37 537.87,-168.6 427,-151 425.53,-150.77 424.04,-150.53 422.54,-150.28"/>
<polygon fill="#63b8ff" stroke="#63b8ff" points="422.95,-146.8 412.51,-148.62 421.8,-153.71 422.95,-146.8"/>
</a>
</g>
</g>
<!-- Node38 -->
<g id="Node000038" class="node">
<title>Node38</title>
<g id="a_Node000038"><a xlink:title=" ">
<polygon fill="#e0e0e0" stroke="#999999" points="848,-261 748,-261 748,-242 848,-242 848,-261"/>
<text text-anchor="middle" x="798" y="-249" font-family="Helvetica,sans-Serif" font-size="10.00">Kokkos_Core.hpp</text>
</a>
</g>
</g>
<!-- Node2&#45;&gt;Node38 -->
<g id="edge47_Node000002_Node000038" class="edge">
<title>Node2&#45;&gt;Node38</title>
<g id="a_edge47_Node000002_Node000038"><a xlink:title=" ">
<path fill="none" stroke="#63b8ff" d="M798,-296.75C798,-289.8 798,-279.85 798,-271.13"/>
<polygon fill="#63b8ff" stroke="#63b8ff" points="801.5,-271.09 798,-261.09 794.5,-271.09 801.5,-271.09"/>
</a>
</g>
</g>
<!-- Node4 -->
<g id="Node000004" class="node">
<title>Node4</title>
<g id="a_Node000004"><a xlink:title=" ">
<polygon fill="#e0e0e0" stroke="#999999" points="1079.5,-206 936.5,-206 936.5,-187 1079.5,-187 1079.5,-206"/>
<text text-anchor="middle" x="1008" y="-194" font-family="Helvetica,sans-Serif" font-size="10.00">config/config&#45;features.hpp</text>
</a>
</g>
</g>
<!-- Node3&#45;&gt;Node4 -->
<g id="edge3_Node000003_Node000004" class="edge">
<title>Node3&#45;&gt;Node4</title>
<g id="a_edge3_Node000003_Node000004"><a xlink:title=" ">
<path fill="none" stroke="#63b8ff" d="M988.8,-241.75C991.91,-234.57 996.42,-224.18 1000.29,-215.27"/>
<polygon fill="#63b8ff" stroke="#63b8ff" points="1003.5,-216.66 1004.27,-206.09 997.08,-213.87 1003.5,-216.66"/>
</a>
</g>
</g>
<!-- Node5&#45;&gt;Node6 -->
<g id="edge5_Node000005_Node000006" class="edge">
<title>Node5&#45;&gt;Node6</title>
<g id="a_edge5_Node000005_Node000006"><a xlink:title=" ">
<path fill="none" stroke="#63b8ff" d="M362.13,-249.29C315.64,-246.31 242.2,-236.62 187,-206 111.69,-164.22 56.1,-72.42 35.14,-33.74"/>
<polygon fill="#63b8ff" stroke="#63b8ff" points="38.13,-31.92 30.36,-24.72 31.95,-35.19 38.13,-31.92"/>
</a>
</g>
</g>
<!-- Node5&#45;&gt;Node7 -->
<g id="edge6_Node000005_Node000007" class="edge">
<title>Node5&#45;&gt;Node7</title>
<g id="a_edge6_Node000005_Node000007"><a xlink:title=" ">
<path fill="none" stroke="#63b8ff" d="M423.89,-241.86C476.98,-214.71 637.1,-132.88 640,-132 771.93,-92.14 813.41,-125.65 948,-96 1024.49,-79.15 1110.84,-46.33 1155.19,-28.41"/>
<polygon fill="#63b8ff" stroke="#63b8ff" points="1156.57,-31.63 1164.51,-24.62 1153.93,-25.15 1156.57,-31.63"/>
</a>
</g>
</g>
<!-- Node8 -->
<g id="Node000008" class="node">
<title>Node8</title>
<g id="a_Node000008"><a xlink:title=" ">
<polygon fill="#e0e0e0" stroke="#999999" points="267.5,-90.5 214.5,-90.5 214.5,-71.5 267.5,-71.5 267.5,-90.5"/>
<text text-anchor="middle" x="241" y="-78.5" font-family="Helvetica,sans-Serif" font-size="10.00">iterator</text>
</a>
</g>
</g>
<!-- Node5&#45;&gt;Node8 -->
<g id="edge7_Node000005_Node000008" class="edge">
<title>Node5&#45;&gt;Node8</title>
<g id="a_edge7_Node000005_Node000008"><a xlink:title=" ">
<path fill="none" stroke="#63b8ff" d="M362.44,-245.37C308.83,-236.52 221.16,-212.9 182,-151 168.8,-130.14 193.84,-108.97 215.26,-95.69"/>
<polygon fill="#63b8ff" stroke="#63b8ff" points="217.25,-98.58 224.1,-90.5 213.71,-92.54 217.25,-98.58"/>
</a>
</g>
</g>
<!-- Node9 -->
<g id="Node000009" class="node">
<title>Node9</title>
<g id="a_Node000009"><a xlink:title=" ">
<polygon fill="#e0e0e0" stroke="#999999" points="247,-151 191,-151 191,-132 247,-132 247,-151"/>
<text text-anchor="middle" x="219" y="-139" font-family="Helvetica,sans-Serif" font-size="10.00">numeric</text>
</a>
</g>
</g>
<!-- Node5&#45;&gt;Node9 -->
<g id="edge8_Node000005_Node000009" class="edge">
<title>Node5&#45;&gt;Node9</title>
<g id="a_edge8_Node000005_Node000009"><a xlink:title=" ">
<path fill="none" stroke="#63b8ff" d="M391.93,-241.84C359.4,-223.16 282.36,-178.9 243.02,-156.3"/>
<polygon fill="#63b8ff" stroke="#63b8ff" points="244.29,-152.99 233.88,-151.05 240.81,-159.06 244.29,-152.99"/>
</a>
</g>
</g>
<!-- Node10 -->
<g id="Node000010" class="node">
<title>Node10</title>
<g id="a_Node000010"><a xlink:title=" ">
<polygon fill="#e0e0e0" stroke="#999999" points="157.5,-90.5 92.5,-90.5 92.5,-71.5 157.5,-71.5 157.5,-90.5"/>
<text text-anchor="middle" x="125" y="-78.5" font-family="Helvetica,sans-Serif" font-size="10.00">stdexcept</text>
</a>
</g>
</g>
<!-- Node5&#45;&gt;Node10 -->
<g id="edge9_Node000005_Node000010" class="edge">
<title>Node5&#45;&gt;Node10</title>
<g id="a_edge9_Node000005_Node000010"><a xlink:title=" ">
<path fill="none" stroke="#63b8ff" d="M362.23,-249.18C320.44,-246 257.95,-236.07 213,-206 172.9,-179.18 145.21,-127.46 132.64,-100.06"/>
<polygon fill="#63b8ff" stroke="#63b8ff" points="135.69,-98.29 128.45,-90.55 129.28,-101.11 135.69,-98.29"/>
</a>
</g>
</g>
<!-- Node5&#45;&gt;Node11 -->
<g id="edge10_Node000005_Node000011" class="edge">
<title>Node5&#45;&gt;Node11</title>
<g id="a_edge10_Node000005_Node000011"><a xlink:title=" ">
<path fill="none" stroke="#63b8ff" d="M451.88,-245.51C543.1,-235.38 749.2,-212.48 839.83,-202.41"/>
<polygon fill="#63b8ff" stroke="#63b8ff" points="840.23,-205.89 849.78,-201.3 839.45,-198.93 840.23,-205.89"/>
</a>
</g>
</g>
<!-- Node11&#45;&gt;Node6 -->
<g id="edge35_Node000011_Node000006" class="edge">
<title>Node11&#45;&gt;Node6</title>
<g id="a_edge35_Node000011_Node000006"><a xlink:title=" ">
<path fill="none" stroke="#63b8ff" d="M849.71,-193.73C761.51,-188.9 528.53,-174.27 455,-151 438.5,-145.78 437.33,-137.73 421,-132 329.16,-99.79 294.24,-134.83 205,-96 184.95,-87.27 185.26,-76.35 166,-66 122.54,-42.65 107.25,-47.17 61,-30 59.58,-29.47 58.13,-28.93 56.67,-28.37"/>
<polygon fill="#63b8ff" stroke="#63b8ff" points="57.62,-24.98 47.03,-24.61 55.08,-31.51 57.62,-24.98"/>
</a>
</g>
</g>
<!-- Node11&#45;&gt;Node7 -->
<g id="edge38_Node000011_Node000007" class="edge">
<title>Node11&#45;&gt;Node7</title>
<g id="a_edge38_Node000011_Node000007"><a xlink:title=" ">
<path fill="none" stroke="#63b8ff" d="M900.48,-186.9C917.15,-178.12 943.57,-163.99 966,-151 1039,-108.73 1123.48,-55.36 1162.77,-30.27"/>
<polygon fill="#63b8ff" stroke="#63b8ff" points="1164.79,-33.13 1171.32,-24.8 1161.01,-27.24 1164.79,-33.13"/>
</a>
</g>
</g>
<!-- Node11&#45;&gt;Node8 -->
<g id="edge41_Node000011_Node000008" class="edge">
<title>Node11&#45;&gt;Node8</title>
<g id="a_edge41_Node000011_Node000008"><a xlink:title=" ">
<path fill="none" stroke="#63b8ff" d="M849.71,-192.88C768.07,-186.42 564.07,-168.96 498,-151 477.84,-145.52 474.93,-138.28 455,-132 375.94,-107.1 350.96,-121.23 272,-96 270.56,-95.54 269.1,-95.03 267.63,-94.49"/>
<polygon fill="#63b8ff" stroke="#63b8ff" points="268.68,-91.14 258.1,-90.57 266.02,-97.61 268.68,-91.14"/>
</a>
</g>
</g>
<!-- Node11&#45;&gt;Node9 -->
<g id="edge42_Node000011_Node000009" class="edge">
<title>Node11&#45;&gt;Node9</title>
<g id="a_edge42_Node000011_Node000009"><a xlink:title=" ">
<path fill="none" stroke="#63b8ff" d="M849.76,-194.94C756.24,-193 488.58,-184.82 257.15,-150.93"/>
<polygon fill="#63b8ff" stroke="#63b8ff" points="257.6,-147.46 247.2,-149.45 256.57,-154.38 257.6,-147.46"/>
</a>
</g>
</g>
<!-- Node12 -->
<g id="Node000012" class="node">
<title>Node12</title>
<g id="a_Node000012"><a xlink:title=" ">
<polygon fill="#e0e0e0" stroke="#999999" points="799,-151 649,-151 649,-132 799,-132 799,-151"/>
<text text-anchor="middle" x="724" y="-139" font-family="Helvetica,sans-Serif" font-size="10.00">boost/qvm/deduce_vec.hpp</text>
</a>
</g>
</g>
<!-- Node11&#45;&gt;Node12 -->
<g id="edge11_Node000011_Node000012" class="edge">
<title>Node11&#45;&gt;Node12</title>
<g id="a_edge11_Node000011_Node000012"><a xlink:title=" ">
<path fill="none" stroke="#63b8ff" d="M858.29,-186.98C831.55,-178.13 789.47,-164.19 759.55,-154.28"/>
<polygon fill="#63b8ff" stroke="#63b8ff" points="760.5,-150.9 749.91,-151.08 758.3,-157.55 760.5,-150.9"/>
</a>
</g>
</g>
<!-- Node13 -->
<g id="Node000013" class="node">
<title>Node13</title>
<g id="a_Node000013"><a xlink:title=" ">
<polygon fill="#e0e0e0" stroke="#999999" points="957,-151 817,-151 817,-132 957,-132 957,-151"/>
<text text-anchor="middle" x="887" y="-139" font-family="Helvetica,sans-Serif" font-size="10.00">boost/qvm/vec_traits.hpp</text>
</a>
</g>
</g>
<!-- Node11&#45;&gt;Node13 -->
<g id="edge12_Node000011_Node000013" class="edge">
<title>Node11&#45;&gt;Node13</title>
<g id="a_edge12_Node000011_Node000013"><a xlink:title=" ">
<path fill="none" stroke="#63b8ff" d="M884.5,-186.75C884.89,-179.8 885.45,-169.85 885.95,-161.13"/>
<polygon fill="#63b8ff" stroke="#63b8ff" points="889.44,-161.27 886.51,-151.09 882.45,-160.88 889.44,-161.27"/>
</a>
</g>
</g>
<!-- Node14 -->
<g id="Node000014" class="node">
<title>Node14</title>
<g id="a_Node000014"><a xlink:href="Array_8hpp.html" target="_top" xlink:title="Array implementation with CUDA support.">
<polygon fill="white" stroke="#666666" points="593,-151 507,-151 507,-132 593,-132 593,-151"/>
<text text-anchor="middle" x="550" y="-139" font-family="Helvetica,sans-Serif" font-size="10.00">utils/Array.hpp</text>
</a>
</g>
</g>
<!-- Node11&#45;&gt;Node14 -->
<g id="edge13_Node000011_Node000014" class="edge">
<title>Node11&#45;&gt;Node14</title>
<g id="a_edge13_Node000011_Node000014"><a xlink:title=" ">
<path fill="none" stroke="#63b8ff" d="M849.83,-190.08C791.55,-180.83 672.55,-161.95 603.28,-150.95"/>
<polygon fill="#63b8ff" stroke="#63b8ff" points="603.44,-147.44 593.02,-149.33 602.34,-154.35 603.44,-147.44"/>
</a>
</g>
</g>
<!-- Node29 -->
<g id="Node000029" class="node">
<title>Node29</title>
<g id="a_Node000029"><a xlink:title=" ">
<polygon fill="#e0e0e0" stroke="#999999" points="1077,-151 1013,-151 1013,-132 1077,-132 1077,-151"/>
<text text-anchor="middle" x="1045" y="-139" font-family="Helvetica,sans-Serif" font-size="10.00">algorithm</text>
</a>
</g>
</g>
<!-- Node11&#45;&gt;Node29 -->
<g id="edge34_Node000011_Node000029" class="edge">
<title>Node11&#45;&gt;Node29</title>
<g id="a_edge34_Node000011_Node000029"><a xlink:title=" ">
<path fill="none" stroke="#63b8ff" d="M909.87,-186.98C936.78,-178.13 979.12,-164.19 1009.23,-154.28"/>
<polygon fill="#63b8ff" stroke="#63b8ff" points="1010.53,-157.53 1018.93,-151.08 1008.34,-150.88 1010.53,-157.53"/>
</a>
</g>
</g>
<!-- Node30 -->
<g id="Node000030" class="node">
<title>Node30</title>
<g id="a_Node000030"><a xlink:title=" ">
<polygon fill="#e0e0e0" stroke="#999999" points="1142.5,-151 1095.5,-151 1095.5,-132 1142.5,-132 1142.5,-151"/>
<text text-anchor="middle" x="1119" y="-139" font-family="Helvetica,sans-Serif" font-size="10.00">cmath</text>
</a>
</g>
</g>
<!-- Node11&#45;&gt;Node30 -->
<g id="edge36_Node000011_Node000030" class="edge">
<title>Node11&#45;&gt;Node30</title>
<g id="a_edge36_Node000011_Node000030"><a xlink:title=" ">
<path fill="none" stroke="#63b8ff" d="M918.04,-188.38C956.29,-180.3 1020.49,-166.49 1085.26,-151.11"/>
<polygon fill="#63b8ff" stroke="#63b8ff" points="1086.32,-154.45 1095.23,-148.73 1084.69,-147.65 1086.32,-154.45"/>
</a>
</g>
</g>
<!-- Node11&#45;&gt;Node31 -->
<g id="edge37_Node000011_Node000031" class="edge">
<title>Node11&#45;&gt;Node31</title>
<g id="a_edge37_Node000011_Node000031"><a xlink:title=" ">
<path fill="none" stroke="#63b8ff" d="M849.71,-194.32C764.37,-191.05 535.54,-180.19 335.28,-150.99"/>
<polygon fill="#63b8ff" stroke="#63b8ff" points="335.56,-147.49 325.16,-149.49 334.54,-154.42 335.56,-147.49"/>
</a>
</g>
</g>
<!-- Node32 -->
<g id="Node000032" class="node">
<title>Node32</title>
<g id="a_Node000032"><a xlink:title=" ">
<polygon fill="#e0e0e0" stroke="#999999" points="1225.5,-151 1160.5,-151 1160.5,-132 1225.5,-132 1225.5,-151"/>
<text text-anchor="middle" x="1193" y="-139" font-family="Helvetica,sans-Serif" font-size="10.00">functional</text>
</a>
</g>
</g>
<!-- Node11&#45;&gt;Node32 -->
<g id="edge39_Node000011_Node000032" class="edge">
<title>Node11&#45;&gt;Node32</title>
<g id="a_edge39_Node000011_Node000032"><a xlink:title=" ">
<path fill="none" stroke="#63b8ff" d="M918.09,-188.8C921.44,-188.18 924.78,-187.57 928,-187 1024.19,-169.98 1051.16,-169.27 1150.51,-151.21"/>
<polygon fill="#63b8ff" stroke="#63b8ff" points="1151.15,-154.65 1160.35,-149.41 1149.89,-147.77 1151.15,-154.65"/>
</a>
</g>
</g>
<!-- Node33 -->
<g id="Node000033" class="node">
<title>Node33</title>
<g id="a_Node000033"><a xlink:title=" ">
<polygon fill="#e0e0e0" stroke="#999999" points="1326.5,-151 1243.5,-151 1243.5,-132 1326.5,-132 1326.5,-151"/>
<text text-anchor="middle" x="1285" y="-139" font-family="Helvetica,sans-Serif" font-size="10.00">initializer_list</text>
</a>
</g>
</g>
<!-- Node11&#45;&gt;Node33 -->
<g id="edge40_Node000011_Node000033" class="edge">
<title>Node11&#45;&gt;Node33</title>
<g id="a_edge40_Node000011_Node000033"><a xlink:title=" ">
<path fill="none" stroke="#63b8ff" d="M918.07,-188.66C921.42,-188.07 924.77,-187.5 928,-187 1060.58,-166.45 1097.31,-170.32 1233.32,-151.18"/>
<polygon fill="#63b8ff" stroke="#63b8ff" points="1233.88,-154.63 1243.28,-149.76 1232.89,-147.7 1233.88,-154.63"/>
</a>
</g>
</g>
<!-- Node34 -->
<g id="Node000034" class="node">
<title>Node34</title>
<g id="a_Node000034"><a xlink:title=" ">
<polygon fill="#e0e0e0" stroke="#999999" points="1395,-151 1345,-151 1345,-132 1395,-132 1395,-151"/>
<text text-anchor="middle" x="1370" y="-139" font-family="Helvetica,sans-Serif" font-size="10.00">ranges</text>
</a>
</g>
</g>
<!-- Node11&#45;&gt;Node34 -->
<g id="edge43_Node000011_Node000034" class="edge">
<title>Node11&#45;&gt;Node34</title>
<g id="a_edge43_Node000011_Node000034"><a xlink:title=" ">
<path fill="none" stroke="#63b8ff" d="M918.05,-188.56C921.41,-187.99 924.76,-187.45 928,-187 1105.01,-162.16 1154.69,-180.48 1334.77,-150.94"/>
<polygon fill="#63b8ff" stroke="#63b8ff" points="1335.55,-154.35 1344.84,-149.26 1334.4,-147.45 1335.55,-154.35"/>
</a>
</g>
</g>
<!-- Node11&#45;&gt;Node35 -->
<g id="edge44_Node000011_Node000035" class="edge">
<title>Node11&#45;&gt;Node35</title>
<g id="a_edge44_Node000011_Node000035"><a xlink:title=" ">
<path fill="none" stroke="#63b8ff" d="M918.05,-188.52C921.4,-187.95 924.76,-187.43 928,-187 1138.28,-158.83 1192.92,-172.36 1404,-151 1416.06,-149.78 1429.3,-148.16 1440.81,-146.66"/>
<polygon fill="#63b8ff" stroke="#63b8ff" points="1441.35,-150.12 1450.8,-145.33 1440.43,-143.18 1441.35,-150.12"/>
</a>
</g>
</g>
<!-- Node11&#45;&gt;Node36 -->
<g id="edge45_Node000011_Node000036" class="edge">
<title>Node11&#45;&gt;Node36</title>
<g id="a_edge45_Node000011_Node000036"><a xlink:title=" ">
<path fill="none" stroke="#63b8ff" d="M849.79,-193.05C773.63,-187.39 584.4,-172.29 427,-151 425.7,-150.82 424.38,-150.64 423.05,-150.45"/>
<polygon fill="#63b8ff" stroke="#63b8ff" points="423.17,-146.92 412.75,-148.86 422.1,-153.84 423.17,-146.92"/>
</a>
</g>
</g>
<!-- Node11&#45;&gt;Node37 -->
<g id="edge46_Node000011_Node000037" class="edge">
<title>Node11&#45;&gt;Node37</title>
<g id="a_edge46_Node000011_Node000037"><a xlink:title=" ">
<path fill="none" stroke="#63b8ff" d="M918.04,-188.48C921.4,-187.92 924.76,-187.41 928,-187 1177.35,-155.2 1246.61,-190.01 1499.1,-150.78"/>
<polygon fill="#63b8ff" stroke="#63b8ff" points="1499.99,-154.19 1509.32,-149.17 1498.9,-147.27 1499.99,-154.19"/>
</a>
</g>
</g>
<!-- Node14&#45;&gt;Node6 -->
<g id="edge27_Node000014_Node000006" class="edge">
<title>Node14&#45;&gt;Node6</title>
<g id="a_edge27_Node000014_Node000006"><a xlink:title=" ">
<path fill="none" stroke="#63b8ff" d="M506.77,-133.43C443.74,-122.96 332.24,-103.73 315,-96 295.04,-87.05 296.05,-74.73 276,-66 187.17,-27.31 154.29,-56.14 61,-30 59.06,-29.46 57.08,-28.84 55.11,-28.18"/>
<polygon fill="#63b8ff" stroke="#63b8ff" points="55.96,-24.77 45.37,-24.6 53.55,-31.34 55.96,-24.77"/>
</a>
</g>
</g>
<!-- Node14&#45;&gt;Node7 -->
<g id="edge28_Node000014_Node000007" class="edge">
<title>Node14&#45;&gt;Node7</title>
<g id="a_edge28_Node000014_Node000007"><a xlink:title=" ">
<path fill="none" stroke="#63b8ff" d="M593.24,-133.91C597.88,-133.24 602.54,-132.6 607,-132 742.74,-113.9 784.99,-144.64 913,-96 934.78,-87.72 934.51,-75.01 956,-66 1036.48,-32.28 1065.08,-53.92 1149,-30 1151.15,-29.39 1153.35,-28.7 1155.55,-27.96"/>
<polygon fill="#63b8ff" stroke="#63b8ff" points="1156.83,-31.22 1165.04,-24.52 1154.45,-24.64 1156.83,-31.22"/>
</a>
</g>
</g>
<!-- Node14&#45;&gt;Node8 -->
<g id="edge29_Node000014_Node000008" class="edge">
<title>Node14&#45;&gt;Node8</title>
<g id="a_edge29_Node000014_Node000008"><a xlink:title=" ">
<path fill="none" stroke="#63b8ff" d="M506.75,-133.72C436.53,-122.65 303.38,-101.39 282,-96 279.2,-95.29 276.31,-94.48 273.43,-93.62"/>
<polygon fill="#63b8ff" stroke="#63b8ff" points="274.38,-90.25 263.79,-90.52 272.24,-96.91 274.38,-90.25"/>
</a>
</g>
</g>
<!-- Node14&#45;&gt;Node10 -->
<g id="edge31_Node000014_Node000010" class="edge">
<title>Node14&#45;&gt;Node10</title>
<g id="a_edge31_Node000014_Node000010"><a xlink:title=" ">
<path fill="none" stroke="#63b8ff" d="M506.88,-135.57C441.49,-127.95 313.37,-112.46 205,-96 192.8,-94.15 179.6,-91.93 167.5,-89.8"/>
<polygon fill="#63b8ff" stroke="#63b8ff" points="168.1,-86.36 157.64,-88.05 166.88,-93.25 168.1,-86.36"/>
</a>
</g>
</g>
<!-- Node15 -->
<g id="Node000015" class="node">
<title>Node15</title>
<g id="a_Node000015"><a xlink:href="device__qualifier_8hpp.html" target="_top" xlink:title=" ">
<polygon fill="white" stroke="#666666" points="438,-90.5 324,-90.5 324,-71.5 438,-71.5 438,-90.5"/>
<text text-anchor="middle" x="381" y="-78.5" font-family="Helvetica,sans-Serif" font-size="10.00">device_qualifier.hpp</text>
</a>
</g>
</g>
<!-- Node14&#45;&gt;Node15 -->
<g id="edge14_Node000014_Node000015" class="edge">
<title>Node14&#45;&gt;Node15</title>
<g id="a_edge14_Node000014_Node000015"><a xlink:title=" ">
<path fill="none" stroke="#63b8ff" d="M525.43,-131.99C496.39,-121.94 447.9,-105.16 415.2,-93.84"/>
<polygon fill="#63b8ff" stroke="#63b8ff" points="416.2,-90.48 405.6,-90.52 413.91,-97.1 416.2,-90.48"/>
</a>
</g>
</g>
<!-- Node16 -->
<g id="Node000016" class="node">
<title>Node16</title>
<g id="a_Node000016"><a xlink:href="array_8hpp.html" target="_top" xlink:title=" ">
<polygon fill="white" stroke="#666666" points="581.5,-90.5 456.5,-90.5 456.5,-71.5 581.5,-71.5 581.5,-90.5"/>
<text text-anchor="middle" x="519" y="-78.5" font-family="Helvetica,sans-Serif" font-size="10.00">serialization/array.hpp</text>
</a>
</g>
</g>
<!-- Node14&#45;&gt;Node16 -->
<g id="edge16_Node000014_Node000016" class="edge">
<title>Node14&#45;&gt;Node16</title>
<g id="a_edge16_Node000014_Node000016"><a xlink:title=" ">
<path fill="none" stroke="#63b8ff" d="M545.43,-131.87C540.94,-123.4 533.97,-110.24 528.31,-99.57"/>
<polygon fill="#63b8ff" stroke="#63b8ff" points="531.37,-97.86 523.59,-90.67 525.18,-101.14 531.37,-97.86"/>
</a>
</g>
</g>
<!-- Node25 -->
<g id="Node000025" class="node">
<title>Node25</title>
<g id="a_Node000025"><a xlink:title=" ">
<polygon fill="#e0e0e0" stroke="#999999" points="769.5,-96 662.5,-96 662.5,-66 769.5,-66 769.5,-96"/>
<text text-anchor="start" x="670.5" y="-84" font-family="Helvetica,sans-Serif" font-size="10.00">boost/serialization</text>
<text text-anchor="middle" x="716" y="-73" font-family="Helvetica,sans-Serif" font-size="10.00">/access.hpp</text>
</a>
</g>
</g>
<!-- Node14&#45;&gt;Node25 -->
<g id="edge26_Node000014_Node000025" class="edge">
<title>Node14&#45;&gt;Node25</title>
<g id="a_edge26_Node000014_Node000025"><a xlink:title=" ">
<path fill="none" stroke="#63b8ff" d="M574.14,-131.99C598.24,-123.5 635.97,-110.2 666.47,-99.45"/>
<polygon fill="#63b8ff" stroke="#63b8ff" points="667.82,-102.69 676.09,-96.06 665.5,-96.09 667.82,-102.69"/>
</a>
</g>
</g>
<!-- Node26 -->
<g id="Node000026" class="node">
<title>Node26</title>
<g id="a_Node000026"><a xlink:title=" ">
<polygon fill="#e0e0e0" stroke="#999999" points="844.5,-90.5 787.5,-90.5 787.5,-71.5 844.5,-71.5 844.5,-90.5"/>
<text text-anchor="middle" x="816" y="-78.5" font-family="Helvetica,sans-Serif" font-size="10.00">ostream</text>
</a>
</g>
</g>
<!-- Node14&#45;&gt;Node26 -->
<g id="edge30_Node000014_Node000026" class="edge">
<title>Node14&#45;&gt;Node26</title>
<g id="a_edge30_Node000014_Node000026"><a xlink:title=" ">
<path fill="none" stroke="#63b8ff" d="M593.07,-133.03C649.33,-123.12 744.72,-105.74 779,-96 781.15,-95.39 783.35,-94.71 785.55,-93.99"/>
<polygon fill="#63b8ff" stroke="#63b8ff" points="786.81,-97.25 795.08,-90.62 784.48,-90.65 786.81,-97.25"/>
</a>
</g>
</g>
<!-- Node27 -->
<g id="Node000027" class="node">
<title>Node27</title>
<g id="a_Node000027"><a xlink:title=" ">
<polygon fill="#e0e0e0" stroke="#999999" points="903.5,-90.5 862.5,-90.5 862.5,-71.5 903.5,-71.5 903.5,-90.5"/>
<text text-anchor="middle" x="883" y="-78.5" font-family="Helvetica,sans-Serif" font-size="10.00">tuple</text>
</a>
</g>
</g>
<!-- Node14&#45;&gt;Node27 -->
<g id="edge32_Node000014_Node000027" class="edge">
<title>Node14&#45;&gt;Node27</title>
<g id="a_edge32_Node000014_Node000027"><a xlink:title=" ">
<path fill="none" stroke="#63b8ff" d="M593.26,-134.03C597.9,-133.35 602.55,-132.66 607,-132 716.75,-115.82 747.93,-128.49 854,-96 855.26,-95.61 856.54,-95.18 857.82,-94.71"/>
<polygon fill="#63b8ff" stroke="#63b8ff" points="859.58,-97.76 867.4,-90.6 856.83,-91.32 859.58,-97.76"/>
</a>
</g>
</g>
<!-- Node28 -->
<g id="Node000028" class="node">
<title>Node28</title>
<g id="a_Node000028"><a xlink:title=" ">
<polygon fill="#e0e0e0" stroke="#999999" points="644.5,-90.5 599.5,-90.5 599.5,-71.5 644.5,-71.5 644.5,-90.5"/>
<text text-anchor="middle" x="622" y="-78.5" font-family="Helvetica,sans-Serif" font-size="10.00">utility</text>
</a>
</g>
</g>
<!-- Node14&#45;&gt;Node28 -->
<g id="edge33_Node000014_Node000028" class="edge">
<title>Node14&#45;&gt;Node28</title>
<g id="a_edge33_Node000014_Node000028"><a xlink:title=" ">
<path fill="none" stroke="#63b8ff" d="M560.62,-131.87C571.9,-122.71 589.92,-108.06 603.53,-97.01"/>
<polygon fill="#63b8ff" stroke="#63b8ff" points="605.78,-99.69 611.33,-90.67 601.36,-94.26 605.78,-99.69"/>
</a>
</g>
</g>
<!-- Node15&#45;&gt;Node6 -->
<g id="edge15_Node000015_Node000006" class="edge">
<title>Node15&#45;&gt;Node6</title>
<g id="a_edge15_Node000015_Node000006"><a xlink:title=" ">
<path fill="none" stroke="#63b8ff" d="M339.77,-71.5C330.02,-69.59 319.66,-67.65 310,-66 199.78,-47.18 169,-58.97 61,-30 58.84,-29.42 56.64,-28.75 54.44,-28.02"/>
<polygon fill="#63b8ff" stroke="#63b8ff" points="55.57,-24.7 44.98,-24.54 53.16,-31.27 55.57,-24.7"/>
</a>
</g>
</g>
<!-- Node16&#45;&gt;Node7 -->
<g id="edge25_Node000016_Node000007" class="edge">
<title>Node16&#45;&gt;Node7</title>
<g id="a_edge25_Node000016_Node000007"><a xlink:title=" ">
<path fill="none" stroke="#63b8ff" d="M558.09,-71.46C568.72,-69.39 580.26,-67.38 591,-66 837.47,-34.22 906.35,-83.67 1149,-30 1151.52,-29.44 1154.1,-28.74 1156.66,-27.94"/>
<polygon fill="#63b8ff" stroke="#63b8ff" points="1158.02,-31.17 1166.28,-24.53 1155.69,-24.57 1158.02,-31.17"/>
</a>
</g>
</g>
<!-- Node17 -->
<g id="Node000017" class="node">
<title>Node17</title>
<g id="a_Node000017"><a xlink:title=" ">
<polygon fill="#e0e0e0" stroke="#999999" points="997.5,-24.5 864.5,-24.5 864.5,-5.5 997.5,-5.5 997.5,-24.5"/>
<text text-anchor="middle" x="931" y="-12.5" font-family="Helvetica,sans-Serif" font-size="10.00">boost/mpl/bool_fwd.hpp</text>
</a>
</g>
</g>
<!-- Node16&#45;&gt;Node17 -->
<g id="edge17_Node000016_Node000017" class="edge">
<title>Node16&#45;&gt;Node17</title>
<g id="a_edge17_Node000016_Node000017"><a xlink:title=" ">
<path fill="none" stroke="#63b8ff" d="M560.81,-71.45C570.69,-69.55 581.2,-67.62 591,-66 708.27,-46.65 738.65,-48.91 856,-30 862.85,-28.9 870.04,-27.66 877.15,-26.38"/>
<polygon fill="#63b8ff" stroke="#63b8ff" points="878.23,-29.74 887.44,-24.51 876.97,-22.86 878.23,-29.74"/>
</a>
</g>
</g>
<!-- Node18 -->
<g id="Node000018" class="node">
<title>Node18</title>
<g id="a_Node000018"><a xlink:title=" ">
<polygon fill="#e0e0e0" stroke="#999999" points="1140,-24.5 1016,-24.5 1016,-5.5 1140,-5.5 1140,-24.5"/>
<text text-anchor="middle" x="1078" y="-12.5" font-family="Helvetica,sans-Serif" font-size="10.00">boost/mpl/greater.hpp</text>
</a>
</g>
</g>
<!-- Node16&#45;&gt;Node18 -->
<g id="edge18_Node000016_Node000018" class="edge">
<title>Node16&#45;&gt;Node18</title>
<g id="a_edge18_Node000016_Node000018"><a xlink:title=" ">
<path fill="none" stroke="#63b8ff" d="M558.86,-71.47C569.28,-69.45 580.53,-67.47 591,-66 774.79,-40.25 823.25,-55.99 1007,-30 1014.1,-29 1021.56,-27.74 1028.87,-26.4"/>
<polygon fill="#63b8ff" stroke="#63b8ff" points="1029.52,-29.84 1038.7,-24.54 1028.22,-22.97 1029.52,-29.84"/>
</a>
</g>
</g>
<!-- Node19 -->
<g id="Node000019" class="node">
<title>Node19</title>
<g id="a_Node000019"><a xlink:title=" ">
<polygon fill="#e0e0e0" stroke="#999999" points="172,-24.5 70,-24.5 70,-5.5 172,-5.5 172,-24.5"/>
<text text-anchor="middle" x="121" y="-12.5" font-family="Helvetica,sans-Serif" font-size="10.00">boost/mpl/int.hpp</text>
</a>
</g>
</g>
<!-- Node16&#45;&gt;Node19 -->
<g id="edge19_Node000016_Node000019" class="edge">
<title>Node16&#45;&gt;Node19</title>
<g id="a_edge19_Node000016_Node000019"><a xlink:title=" ">
<path fill="none" stroke="#63b8ff" d="M477.19,-71.45C467.31,-69.55 456.8,-67.61 447,-66 329.29,-46.61 298.33,-51.58 181,-30 175.87,-29.06 170.52,-27.97 165.22,-26.82"/>
<polygon fill="#63b8ff" stroke="#63b8ff" points="165.67,-23.33 155.15,-24.56 164.14,-30.16 165.67,-23.33"/>
</a>
</g>
</g>
<!-- Node20 -->
<g id="Node000020" class="node">
<title>Node20</title>
<g id="a_Node000020"><a xlink:title=" ">
<polygon fill="#e0e0e0" stroke="#999999" points="296,-30 190,-30 190,0 296,0 296,-30"/>
<text text-anchor="start" x="198" y="-18" font-family="Helvetica,sans-Serif" font-size="10.00">boost/mpl/integral</text>
<text text-anchor="middle" x="243" y="-7" font-family="Helvetica,sans-Serif" font-size="10.00">_c_tag.hpp</text>
</a>
</g>
</g>
<!-- Node16&#45;&gt;Node20 -->
<g id="edge20_Node000016_Node000020" class="edge">
<title>Node16&#45;&gt;Node20</title>
<g id="a_edge20_Node000016_Node000020"><a xlink:title=" ">
<path fill="none" stroke="#63b8ff" d="M482.06,-71.44C437.05,-61 360.29,-43.2 305.9,-30.59"/>
<polygon fill="#63b8ff" stroke="#63b8ff" points="306.55,-27.14 296.02,-28.29 304.97,-33.96 306.55,-27.14"/>
</a>
</g>
</g>
<!-- Node21 -->
<g id="Node000021" class="node">
<title>Node21</title>
<g id="a_Node000021"><a xlink:title=" ">
<polygon fill="#e0e0e0" stroke="#999999" points="465.5,-30 314.5,-30 314.5,0 465.5,0 465.5,-30"/>
<text text-anchor="start" x="322.5" y="-18" font-family="Helvetica,sans-Serif" font-size="10.00">boost/serialization</text>
<text text-anchor="middle" x="390" y="-7" font-family="Helvetica,sans-Serif" font-size="10.00">/is_bitwise_serializable.hpp</text>
</a>
</g>
</g>
<!-- Node16&#45;&gt;Node21 -->
<g id="edge21_Node000016_Node000021" class="edge">
<title>Node16&#45;&gt;Node21</title>
<g id="a_edge21_Node000016_Node000021"><a xlink:title=" ">
<path fill="none" stroke="#63b8ff" d="M501.6,-71.37C482.7,-61.99 451.92,-46.72 427.47,-34.59"/>
<polygon fill="#63b8ff" stroke="#63b8ff" points="428.97,-31.42 418.45,-30.12 425.85,-37.7 428.97,-31.42"/>
</a>
</g>
</g>
<!-- Node22 -->
<g id="Node000022" class="node">
<title>Node22</title>
<g id="a_Node000022"><a xlink:title=" ">
<polygon fill="#e0e0e0" stroke="#999999" points="590.5,-30 483.5,-30 483.5,0 590.5,0 590.5,-30"/>
<text text-anchor="start" x="491.5" y="-18" font-family="Helvetica,sans-Serif" font-size="10.00">boost/serialization</text>
<text text-anchor="middle" x="537" y="-7" font-family="Helvetica,sans-Serif" font-size="10.00">/level.hpp</text>
</a>
</g>
</g>
<!-- Node16&#45;&gt;Node22 -->
<g id="edge22_Node000016_Node000022" class="edge">
<title>Node16&#45;&gt;Node22</title>
<g id="a_edge22_Node000016_Node000022"><a xlink:title=" ">
<path fill="none" stroke="#63b8ff" d="M521.43,-71.37C523.67,-63.4 527.1,-51.2 530.18,-40.27"/>
<polygon fill="#63b8ff" stroke="#63b8ff" points="533.62,-40.93 532.96,-30.36 526.88,-39.04 533.62,-40.93"/>
</a>
</g>
</g>
<!-- Node23 -->
<g id="Node000023" class="node">
<title>Node23</title>
<g id="a_Node000023"><a xlink:title=" ">
<polygon fill="#e0e0e0" stroke="#999999" points="715.5,-30 608.5,-30 608.5,0 715.5,0 715.5,-30"/>
<text text-anchor="start" x="616.5" y="-18" font-family="Helvetica,sans-Serif" font-size="10.00">boost/serialization</text>
<text text-anchor="middle" x="662" y="-7" font-family="Helvetica,sans-Serif" font-size="10.00">/tracking.hpp</text>
</a>
</g>
</g>
<!-- Node16&#45;&gt;Node23 -->
<g id="edge23_Node000016_Node000023" class="edge">
<title>Node16&#45;&gt;Node23</title>
<g id="a_edge23_Node000016_Node000023"><a xlink:title=" ">
<path fill="none" stroke="#63b8ff" d="M538.29,-71.37C559.43,-61.91 593.96,-46.45 621.17,-34.27"/>
<polygon fill="#63b8ff" stroke="#63b8ff" points="622.76,-37.4 630.46,-30.12 619.9,-31.01 622.76,-37.4"/>
</a>
</g>
</g>
<!-- Node24 -->
<g id="Node000024" class="node">
<title>Node24</title>
<g id="a_Node000024"><a xlink:title=" ">
<polygon fill="#e0e0e0" stroke="#999999" points="846.5,-30 733.5,-30 733.5,0 846.5,0 846.5,-30"/>
<text text-anchor="start" x="741.5" y="-18" font-family="Helvetica,sans-Serif" font-size="10.00">boost/serialization</text>
<text text-anchor="middle" x="790" y="-7" font-family="Helvetica,sans-Serif" font-size="10.00">/tracking_enum.hpp</text>
</a>
</g>
</g>
<!-- Node16&#45;&gt;Node24 -->
<g id="edge24_Node000016_Node000024" class="edge">
<title>Node16&#45;&gt;Node24</title>
<g id="a_edge24_Node000016_Node000024"><a xlink:title=" ">
<path fill="none" stroke="#63b8ff" d="M555.27,-71.44C598.15,-61.31 670.39,-44.25 723.43,-31.72"/>
<polygon fill="#63b8ff" stroke="#63b8ff" points="724.5,-35.06 733.43,-29.36 722.89,-28.25 724.5,-35.06"/>
</a>
</g>
</g>
</g>
</svg>
