<?xml version="1.0" encoding="UTF-8" standalone="no"?>
<!DOCTYPE svg PUBLIC "-//W3C//DTD SVG 1.1//EN"
 "http://www.w3.org/Graphics/SVG/1.1/DTD/svg11.dtd">
<!-- Generated by graphviz version 2.43.0 (0)
 -->
<!-- Title: field_layout_helpers.hpp Pages: 1 -->
<svg width="1728pt" height="379pt"
 viewBox="0.00 0.00 1728.00 379.00" xmlns="http://www.w3.org/2000/svg" xmlns:xlink="http://www.w3.org/1999/xlink">
<g id="graph0" class="graph" transform="scale(1 1) rotate(0) translate(4 375)">
<title>field_layout_helpers.hpp</title>
<!-- Node1 -->
<g id="Node000001" class="node">
<title>Node1</title>
<g id="a_Node000001"><a xlink:title=" ">
<polygon fill="#999999" stroke="#666666" points="1291,-371 1155,-371 1155,-352 1291,-352 1291,-371"/>
<text text-anchor="middle" x="1223" y="-359" font-family="Helvetica,sans-Serif" font-size="10.00">field_layout_helpers.hpp</text>
</a>
</g>
</g>
<!-- Node2 -->
<g id="Node000002" class="node">
<title>Node2</title>
<g id="a_Node000002"><a xlink:href="for__each__3d_8hpp.html" target="_top" xlink:title=" ">
<polygon fill="white" stroke="#666666" points="1422.5,-316 1325.5,-316 1325.5,-297 1422.5,-297 1422.5,-316"/>
<text text-anchor="middle" x="1374" y="-304" font-family="Helvetica,sans-Serif" font-size="10.00">for_each_3d.hpp</text>
</a>
</g>
</g>
<!-- Node1&#45;&gt;Node2 -->
<g id="edge1_Node000001_Node000002" class="edge">
<title>Node1&#45;&gt;Node2</title>
<g id="a_edge1_Node000001_Node000002"><a xlink:title=" ">
<path fill="none" stroke="#63b8ff" d="M1247.26,-351.98C1272.32,-343.19 1311.63,-329.39 1339.83,-319.49"/>
<polygon fill="#63b8ff" stroke="#63b8ff" points="1341.02,-322.78 1349.3,-316.17 1338.7,-316.18 1341.02,-322.78"/>
</a>
</g>
</g>
<!-- Node5 -->
<g id="Node000005" class="node">
<title>Node5</title>
<g id="a_Node000005"><a xlink:href="index_8hpp.html" target="_top" xlink:title=" ">
<polygon fill="white" stroke="#666666" points="1267.5,-261 1178.5,-261 1178.5,-242 1267.5,-242 1267.5,-261"/>
<text text-anchor="middle" x="1223" y="-249" font-family="Helvetica,sans-Serif" font-size="10.00">utils/index.hpp</text>
</a>
</g>
</g>
<!-- Node1&#45;&gt;Node5 -->
<g id="edge56_Node000001_Node000005" class="edge">
<title>Node1&#45;&gt;Node5</title>
<g id="a_edge56_Node000001_Node000005"><a xlink:title=" ">
<path fill="none" stroke="#63b8ff" d="M1223,-351.66C1223,-334.17 1223,-294.8 1223,-271.27"/>
<polygon fill="#63b8ff" stroke="#63b8ff" points="1226.5,-271.16 1223,-261.16 1219.5,-271.16 1226.5,-271.16"/>
</a>
</g>
</g>
<!-- Node6 -->
<g id="Node000006" class="node">
<title>Node6</title>
<g id="a_Node000006"><a xlink:title=" ">
<polygon fill="#e0e0e0" stroke="#999999" points="83,-24.5 31,-24.5 31,-5.5 83,-5.5 83,-24.5"/>
<text text-anchor="middle" x="57" y="-12.5" font-family="Helvetica,sans-Serif" font-size="10.00">cassert</text>
</a>
</g>
</g>
<!-- Node1&#45;&gt;Node6 -->
<g id="edge57_Node000001_Node000006" class="edge">
<title>Node1&#45;&gt;Node6</title>
<g id="a_edge57_Node000001_Node000006"><a xlink:title=" ">
<path fill="none" stroke="#63b8ff" d="M1154.63,-358.07C897.07,-348.49 0,-310.92 0,-252.5 0,-252.5 0,-252.5 0,-140.5 0,-98.74 26.84,-55.66 43.69,-32.74"/>
<polygon fill="#63b8ff" stroke="#63b8ff" points="46.51,-34.81 49.78,-24.73 40.94,-30.57 46.51,-34.81"/>
</a>
</g>
</g>
<!-- Node7 -->
<g id="Node000007" class="node">
<title>Node7</title>
<g id="a_Node000007"><a xlink:title=" ">
<polygon fill="#e0e0e0" stroke="#999999" points="1305.5,-24.5 1252.5,-24.5 1252.5,-5.5 1305.5,-5.5 1305.5,-24.5"/>
<text text-anchor="middle" x="1279" y="-12.5" font-family="Helvetica,sans-Serif" font-size="10.00">cstddef</text>
</a>
</g>
</g>
<!-- Node1&#45;&gt;Node7 -->
<g id="edge58_Node000001_Node000007" class="edge">
<title>Node1&#45;&gt;Node7</title>
<g id="a_edge58_Node000001_Node000007"><a xlink:title=" ">
<path fill="none" stroke="#63b8ff" d="M1291.06,-359.77C1427.18,-356.46 1720,-339.25 1720,-252.5 1720,-252.5 1720,-252.5 1720,-140.5 1720,-56.76 1421.77,-26.55 1315.81,-18.46"/>
<polygon fill="#63b8ff" stroke="#63b8ff" points="1315.82,-14.95 1305.59,-17.71 1315.31,-21.94 1315.82,-14.95"/>
</a>
</g>
</g>
<!-- Node11 -->
<g id="Node000011" class="node">
<title>Node11</title>
<g id="a_Node000011"><a xlink:href="Vector_8hpp.html" target="_top" xlink:title="Vector implementation and trait types for boost qvm interoperability.">
<polygon fill="white" stroke="#666666" points="978,-206 910,-206 910,-187 978,-187 978,-206"/>
<text text-anchor="middle" x="944" y="-194" font-family="Helvetica,sans-Serif" font-size="10.00">Vector.hpp</text>
</a>
</g>
</g>
<!-- Node1&#45;&gt;Node11 -->
<g id="edge55_Node000001_Node000011" class="edge">
<title>Node1&#45;&gt;Node11</title>
<g id="a_edge55_Node000001_Node000011"><a xlink:title=" ">
<path fill="none" stroke="#63b8ff" d="M1188.83,-351.96C1162.28,-344.54 1125.04,-332.41 1095,-316 1041.17,-286.59 986.68,-238.21 960.31,-213.34"/>
<polygon fill="#63b8ff" stroke="#63b8ff" points="962.43,-210.52 952.78,-206.15 957.59,-215.58 962.43,-210.52"/>
</a>
</g>
</g>
<!-- Node36 -->
<g id="Node000036" class="node">
<title>Node36</title>
<g id="a_Node000036"><a xlink:title=" ">
<polygon fill="#e0e0e0" stroke="#999999" points="1088,-151 1048,-151 1048,-132 1088,-132 1088,-151"/>
<text text-anchor="middle" x="1068" y="-139" font-family="Helvetica,sans-Serif" font-size="10.00">span</text>
</a>
</g>
</g>
<!-- Node1&#45;&gt;Node36 -->
<g id="edge59_Node000001_Node000036" class="edge">
<title>Node1&#45;&gt;Node36</title>
<g id="a_edge59_Node000001_Node000036"><a xlink:title=" ">
<path fill="none" stroke="#63b8ff" d="M1216.92,-351.95C1193.83,-319.47 1111.23,-203.29 1080.04,-159.43"/>
<polygon fill="#63b8ff" stroke="#63b8ff" points="1082.85,-157.35 1074.2,-151.22 1077.14,-161.4 1082.85,-157.35"/>
</a>
</g>
</g>
<!-- Node38 -->
<g id="Node000038" class="node">
<title>Node38</title>
<g id="a_Node000038"><a xlink:title=" ">
<polygon fill="#e0e0e0" stroke="#999999" points="1691.5,-151 1644.5,-151 1644.5,-132 1691.5,-132 1691.5,-151"/>
<text text-anchor="middle" x="1668" y="-139" font-family="Helvetica,sans-Serif" font-size="10.00">vector</text>
</a>
</g>
</g>
<!-- Node1&#45;&gt;Node38 -->
<g id="edge60_Node000001_Node000038" class="edge">
<title>Node1&#45;&gt;Node38</title>
<g id="a_edge60_Node000001_Node000038"><a xlink:title=" ">
<path fill="none" stroke="#63b8ff" d="M1291.16,-353.42C1397.64,-340.94 1596.22,-311.43 1644,-261 1669.78,-233.79 1671.27,-186.88 1669.82,-160.99"/>
<polygon fill="#63b8ff" stroke="#63b8ff" points="1673.31,-160.72 1669.05,-151.02 1666.33,-161.26 1673.31,-160.72"/>
</a>
</g>
</g>
<!-- Node3 -->
<g id="Node000003" class="node">
<title>Node3</title>
<g id="a_Node000003"><a xlink:href="config_8hpp.html" target="_top" xlink:title="This file contains the defaults for ESPResSo.">
<polygon fill="white" stroke="#666666" points="1579.5,-261 1480.5,-261 1480.5,-242 1579.5,-242 1579.5,-261"/>
<text text-anchor="middle" x="1530" y="-249" font-family="Helvetica,sans-Serif" font-size="10.00">config/config.hpp</text>
</a>
</g>
</g>
<!-- Node2&#45;&gt;Node3 -->
<g id="edge2_Node000002_Node000003" class="edge">
<title>Node2&#45;&gt;Node3</title>
<g id="a_edge2_Node000002_Node000003"><a xlink:title=" ">
<path fill="none" stroke="#63b8ff" d="M1399.06,-296.98C1425.03,-288.16 1465.81,-274.31 1494.96,-264.41"/>
<polygon fill="#63b8ff" stroke="#63b8ff" points="1496.4,-267.61 1504.74,-261.08 1494.15,-260.99 1496.4,-267.61"/>
</a>
</g>
</g>
<!-- Node2&#45;&gt;Node5 -->
<g id="edge4_Node000002_Node000005" class="edge">
<title>Node2&#45;&gt;Node5</title>
<g id="a_edge4_Node000002_Node000005"><a xlink:title=" ">
<path fill="none" stroke="#63b8ff" d="M1349.74,-296.98C1324.68,-288.19 1285.37,-274.39 1257.17,-264.49"/>
<polygon fill="#63b8ff" stroke="#63b8ff" points="1258.3,-261.18 1247.7,-261.17 1255.98,-267.78 1258.3,-261.18"/>
</a>
</g>
</g>
<!-- Node2&#45;&gt;Node7 -->
<g id="edge53_Node000002_Node000007" class="edge">
<title>Node2&#45;&gt;Node7</title>
<g id="a_edge53_Node000002_Node000007"><a xlink:title=" ">
<path fill="none" stroke="#63b8ff" d="M1422.57,-300.8C1478.01,-294.53 1564.23,-281.74 1589,-261 1615.3,-238.97 1628.66,-216.42 1611,-187 1545.97,-78.64 1387.5,-36.16 1315.58,-22.05"/>
<polygon fill="#63b8ff" stroke="#63b8ff" points="1316.09,-18.59 1305.62,-20.17 1314.8,-25.47 1316.09,-18.59"/>
</a>
</g>
</g>
<!-- Node32 -->
<g id="Node000032" class="node">
<title>Node32</title>
<g id="a_Node000032"><a xlink:title=" ">
<polygon fill="#e0e0e0" stroke="#999999" points="1366,-151 1306,-151 1306,-132 1366,-132 1366,-151"/>
<text text-anchor="middle" x="1336" y="-139" font-family="Helvetica,sans-Serif" font-size="10.00">concepts</text>
</a>
</g>
</g>
<!-- Node2&#45;&gt;Node32 -->
<g id="edge52_Node000002_Node000032" class="edge">
<title>Node2&#45;&gt;Node32</title>
<g id="a_edge52_Node000002_Node000032"><a xlink:title=" ">
<path fill="none" stroke="#63b8ff" d="M1393.27,-296.9C1407.12,-289.55 1424.76,-277.54 1433,-261 1436.77,-253.44 1434.91,-250.23 1433,-242 1426.84,-215.47 1424.17,-207.28 1406,-187 1394.45,-174.1 1378.3,-163.5 1364.43,-155.89"/>
<polygon fill="#63b8ff" stroke="#63b8ff" points="1365.75,-152.63 1355.27,-151.1 1362.51,-158.84 1365.75,-152.63"/>
</a>
</g>
</g>
<!-- Node37 -->
<g id="Node000037" class="node">
<title>Node37</title>
<g id="a_Node000037"><a xlink:title=" ">
<polygon fill="#e0e0e0" stroke="#999999" points="1249.5,-151 1180.5,-151 1180.5,-132 1249.5,-132 1249.5,-151"/>
<text text-anchor="middle" x="1215" y="-139" font-family="Helvetica,sans-Serif" font-size="10.00">type_traits</text>
</a>
</g>
</g>
<!-- Node2&#45;&gt;Node37 -->
<g id="edge54_Node000002_Node000037" class="edge">
<title>Node2&#45;&gt;Node37</title>
<g id="a_edge54_Node000002_Node000037"><a xlink:title=" ">
<path fill="none" stroke="#63b8ff" d="M1360.68,-296.73C1348.26,-288.27 1329.53,-274.76 1315,-261 1279.99,-227.85 1245.01,-183.08 1227.17,-159.17"/>
<polygon fill="#63b8ff" stroke="#63b8ff" points="1229.96,-157.06 1221.2,-151.1 1224.33,-161.23 1229.96,-157.06"/>
</a>
</g>
</g>
<!-- Node39 -->
<g id="Node000039" class="node">
<title>Node39</title>
<g id="a_Node000039"><a xlink:title=" ">
<polygon fill="#e0e0e0" stroke="#999999" points="1424,-261 1324,-261 1324,-242 1424,-242 1424,-261"/>
<text text-anchor="middle" x="1374" y="-249" font-family="Helvetica,sans-Serif" font-size="10.00">Kokkos_Core.hpp</text>
</a>
</g>
</g>
<!-- Node2&#45;&gt;Node39 -->
<g id="edge51_Node000002_Node000039" class="edge">
<title>Node2&#45;&gt;Node39</title>
<g id="a_edge51_Node000002_Node000039"><a xlink:title=" ">
<path fill="none" stroke="#63b8ff" d="M1374,-296.75C1374,-289.8 1374,-279.85 1374,-271.13"/>
<polygon fill="#63b8ff" stroke="#63b8ff" points="1377.5,-271.09 1374,-261.09 1370.5,-271.09 1377.5,-271.09"/>
</a>
</g>
</g>
<!-- Node4 -->
<g id="Node000004" class="node">
<title>Node4</title>
<g id="a_Node000004"><a xlink:title=" ">
<polygon fill="#e0e0e0" stroke="#999999" points="1601.5,-206 1458.5,-206 1458.5,-187 1601.5,-187 1601.5,-206"/>
<text text-anchor="middle" x="1530" y="-194" font-family="Helvetica,sans-Serif" font-size="10.00">config/config&#45;features.hpp</text>
</a>
</g>
</g>
<!-- Node3&#45;&gt;Node4 -->
<g id="edge3_Node000003_Node000004" class="edge">
<title>Node3&#45;&gt;Node4</title>
<g id="a_edge3_Node000003_Node000004"><a xlink:title=" ">
<path fill="none" stroke="#63b8ff" d="M1530,-241.75C1530,-234.8 1530,-224.85 1530,-216.13"/>
<polygon fill="#63b8ff" stroke="#63b8ff" points="1533.5,-216.09 1530,-206.09 1526.5,-216.09 1533.5,-216.09"/>
</a>
</g>
</g>
<!-- Node5&#45;&gt;Node6 -->
<g id="edge5_Node000005_Node000006" class="edge">
<title>Node5&#45;&gt;Node6</title>
<g id="a_edge5_Node000005_Node000006"><a xlink:title=" ">
<path fill="none" stroke="#63b8ff" d="M1178.26,-249.36C977.55,-243.88 165.94,-217.74 76,-151 40.61,-124.74 46.65,-65.25 52.58,-34.77"/>
<polygon fill="#63b8ff" stroke="#63b8ff" points="56.07,-35.15 54.75,-24.64 49.23,-33.68 56.07,-35.15"/>
</a>
</g>
</g>
<!-- Node5&#45;&gt;Node7 -->
<g id="edge6_Node000005_Node000007" class="edge">
<title>Node5&#45;&gt;Node7</title>
<g id="a_edge6_Node000005_Node000007"><a xlink:title=" ">
<path fill="none" stroke="#63b8ff" d="M1260.48,-241.95C1302.61,-229.95 1368,-203.44 1390,-151 1411.73,-99.19 1343.96,-51.71 1304.79,-29.39"/>
<polygon fill="#63b8ff" stroke="#63b8ff" points="1306.43,-26.3 1295.98,-24.52 1303.04,-32.42 1306.43,-26.3"/>
</a>
</g>
</g>
<!-- Node8 -->
<g id="Node000008" class="node">
<title>Node8</title>
<g id="a_Node000008"><a xlink:title=" ">
<polygon fill="#e0e0e0" stroke="#999999" points="1163.5,-90.5 1110.5,-90.5 1110.5,-71.5 1163.5,-71.5 1163.5,-90.5"/>
<text text-anchor="middle" x="1137" y="-78.5" font-family="Helvetica,sans-Serif" font-size="10.00">iterator</text>
</a>
</g>
</g>
<!-- Node5&#45;&gt;Node8 -->
<g id="edge7_Node000005_Node000008" class="edge">
<title>Node5&#45;&gt;Node8</title>
<g id="a_edge7_Node000005_Node000008"><a xlink:title=" ">
<path fill="none" stroke="#63b8ff" d="M1240.32,-241.87C1276.96,-223.21 1360.19,-178.58 1375,-151 1378.99,-143.56 1380.32,-138.56 1375,-132 1350.09,-101.31 1234.28,-88.76 1173.88,-84.24"/>
<polygon fill="#63b8ff" stroke="#63b8ff" points="1173.85,-80.73 1163.63,-83.51 1173.36,-87.71 1173.85,-80.73"/>
</a>
</g>
</g>
<!-- Node9 -->
<g id="Node000009" class="node">
<title>Node9</title>
<g id="a_Node000009"><a xlink:title=" ">
<polygon fill="#e0e0e0" stroke="#999999" points="1162,-151 1106,-151 1106,-132 1162,-132 1162,-151"/>
<text text-anchor="middle" x="1134" y="-139" font-family="Helvetica,sans-Serif" font-size="10.00">numeric</text>
</a>
</g>
</g>
<!-- Node5&#45;&gt;Node9 -->
<g id="edge8_Node000005_Node000009" class="edge">
<title>Node5&#45;&gt;Node9</title>
<g id="a_edge8_Node000005_Node000009"><a xlink:title=" ">
<path fill="none" stroke="#63b8ff" d="M1215.72,-241.66C1200.84,-223.61 1166.78,-182.28 1147.66,-159.08"/>
<polygon fill="#63b8ff" stroke="#63b8ff" points="1150.2,-156.65 1141.14,-151.16 1144.79,-161.1 1150.2,-156.65"/>
</a>
</g>
</g>
<!-- Node10 -->
<g id="Node000010" class="node">
<title>Node10</title>
<g id="a_Node000010"><a xlink:title=" ">
<polygon fill="#e0e0e0" stroke="#999999" points="1092.5,-90.5 1027.5,-90.5 1027.5,-71.5 1092.5,-71.5 1092.5,-90.5"/>
<text text-anchor="middle" x="1060" y="-78.5" font-family="Helvetica,sans-Serif" font-size="10.00">stdexcept</text>
</a>
</g>
</g>
<!-- Node5&#45;&gt;Node10 -->
<g id="edge9_Node000005_Node000010" class="edge">
<title>Node5&#45;&gt;Node10</title>
<g id="a_edge9_Node000005_Node000010"><a xlink:title=" ">
<path fill="none" stroke="#63b8ff" d="M1230.49,-241.75C1247.63,-220.64 1286.22,-166.12 1259,-132 1214.08,-75.7 1170.29,-115.66 1101,-96 1098.53,-95.3 1095.99,-94.54 1093.44,-93.74"/>
<polygon fill="#63b8ff" stroke="#63b8ff" points="1094.31,-90.34 1083.71,-90.57 1092.14,-97 1094.31,-90.34"/>
</a>
</g>
</g>
<!-- Node5&#45;&gt;Node11 -->
<g id="edge10_Node000005_Node000011" class="edge">
<title>Node5&#45;&gt;Node11</title>
<g id="a_edge10_Node000005_Node000011"><a xlink:title=" ">
<path fill="none" stroke="#63b8ff" d="M1178.48,-242.04C1126.27,-232.13 1040.25,-215.78 988.19,-205.89"/>
<polygon fill="#63b8ff" stroke="#63b8ff" points="988.72,-202.43 978.24,-204.01 987.42,-209.31 988.72,-202.43"/>
</a>
</g>
</g>
<!-- Node11&#45;&gt;Node6 -->
<g id="edge39_Node000011_Node000006" class="edge">
<title>Node11&#45;&gt;Node6</title>
<g id="a_edge39_Node000011_Node000006"><a xlink:title=" ">
<path fill="none" stroke="#63b8ff" d="M909.81,-194.81C755.18,-191.57 127.33,-176.85 95,-151 59.91,-122.95 55.66,-65.21 56.03,-35.14"/>
<polygon fill="#63b8ff" stroke="#63b8ff" points="59.54,-34.87 56.35,-24.77 52.54,-34.65 59.54,-34.87"/>
</a>
</g>
</g>
<!-- Node11&#45;&gt;Node7 -->
<g id="edge42_Node000011_Node000007" class="edge">
<title>Node11&#45;&gt;Node7</title>
<g id="a_edge42_Node000011_Node000007"><a xlink:title=" ">
<path fill="none" stroke="#63b8ff" d="M955.93,-186.81C977.36,-171.33 1021.75,-139.84 1039,-132 1094.75,-106.65 1116.94,-122.81 1172,-96 1207.22,-78.85 1242.53,-49.51 1262.49,-31.53"/>
<polygon fill="#63b8ff" stroke="#63b8ff" points="1265.06,-33.93 1270.06,-24.59 1260.33,-28.77 1265.06,-33.93"/>
</a>
</g>
</g>
<!-- Node11&#45;&gt;Node8 -->
<g id="edge45_Node000011_Node000008" class="edge">
<title>Node11&#45;&gt;Node8</title>
<g id="a_edge45_Node000011_Node000008"><a xlink:title=" ">
<path fill="none" stroke="#63b8ff" d="M950.33,-186.94C960.63,-173.54 982.28,-147.53 1006,-132 1043.77,-107.26 1058.85,-112.18 1101,-96 1102.41,-95.46 1103.85,-94.91 1105.3,-94.34"/>
<polygon fill="#63b8ff" stroke="#63b8ff" points="1106.86,-97.49 1114.93,-90.62 1104.34,-90.96 1106.86,-97.49"/>
</a>
</g>
</g>
<!-- Node11&#45;&gt;Node9 -->
<g id="edge46_Node000011_Node000009" class="edge">
<title>Node11&#45;&gt;Node9</title>
<g id="a_edge46_Node000011_Node000009"><a xlink:title=" ">
<path fill="none" stroke="#63b8ff" d="M974.53,-186.98C1007.47,-177.8 1059.98,-163.15 1095.68,-153.19"/>
<polygon fill="#63b8ff" stroke="#63b8ff" points="1097.03,-156.45 1105.72,-150.39 1095.15,-149.7 1097.03,-156.45"/>
</a>
</g>
</g>
<!-- Node12 -->
<g id="Node000012" class="node">
<title>Node12</title>
<g id="a_Node000012"><a xlink:title=" ">
<polygon fill="#e0e0e0" stroke="#999999" points="254,-151 104,-151 104,-132 254,-132 254,-151"/>
<text text-anchor="middle" x="179" y="-139" font-family="Helvetica,sans-Serif" font-size="10.00">boost/qvm/deduce_vec.hpp</text>
</a>
</g>
</g>
<!-- Node11&#45;&gt;Node12 -->
<g id="edge11_Node000011_Node000012" class="edge">
<title>Node11&#45;&gt;Node12</title>
<g id="a_edge11_Node000011_Node000012"><a xlink:title=" ">
<path fill="none" stroke="#63b8ff" d="M909.96,-193.71C811.67,-188.43 518.81,-172.08 264.27,-151.08"/>
<polygon fill="#63b8ff" stroke="#63b8ff" points="264.35,-147.57 254.09,-150.23 263.77,-154.55 264.35,-147.57"/>
</a>
</g>
</g>
<!-- Node13 -->
<g id="Node000013" class="node">
<title>Node13</title>
<g id="a_Node000013"><a xlink:title=" ">
<polygon fill="#e0e0e0" stroke="#999999" points="412,-151 272,-151 272,-132 412,-132 412,-151"/>
<text text-anchor="middle" x="342" y="-139" font-family="Helvetica,sans-Serif" font-size="10.00">boost/qvm/vec_traits.hpp</text>
</a>
</g>
</g>
<!-- Node11&#45;&gt;Node13 -->
<g id="edge12_Node000011_Node000013" class="edge">
<title>Node11&#45;&gt;Node13</title>
<g id="a_edge12_Node000011_Node000013"><a xlink:title=" ">
<path fill="none" stroke="#63b8ff" d="M909.71,-192.85C827.58,-186.44 612.86,-169.35 422.4,-151.12"/>
<polygon fill="#63b8ff" stroke="#63b8ff" points="422.49,-147.61 412.2,-150.14 421.82,-154.58 422.49,-147.61"/>
</a>
</g>
</g>
<!-- Node14 -->
<g id="Node000014" class="node">
<title>Node14</title>
<g id="a_Node000014"><a xlink:href="Array_8hpp.html" target="_top" xlink:title="Array implementation with CUDA support.">
<polygon fill="white" stroke="#666666" points="916,-151 830,-151 830,-132 916,-132 916,-151"/>
<text text-anchor="middle" x="873" y="-139" font-family="Helvetica,sans-Serif" font-size="10.00">utils/Array.hpp</text>
</a>
</g>
</g>
<!-- Node11&#45;&gt;Node14 -->
<g id="edge13_Node000011_Node000014" class="edge">
<title>Node11&#45;&gt;Node14</title>
<g id="a_edge13_Node000011_Node000014"><a xlink:title=" ">
<path fill="none" stroke="#63b8ff" d="M932.59,-186.98C921.89,-179 905.66,-166.88 892.84,-157.31"/>
<polygon fill="#63b8ff" stroke="#63b8ff" points="894.72,-154.35 884.61,-151.17 890.53,-159.96 894.72,-154.35"/>
</a>
</g>
</g>
<!-- Node16 -->
<g id="Node000016" class="node">
<title>Node16</title>
<g id="a_Node000016"><a xlink:href="get_8hpp.html" target="_top" xlink:title=" ">
<polygon fill="white" stroke="#666666" points="970.5,-90.5 917.5,-90.5 917.5,-71.5 970.5,-71.5 970.5,-90.5"/>
<text text-anchor="middle" x="944" y="-78.5" font-family="Helvetica,sans-Serif" font-size="10.00">get.hpp</text>
</a>
</g>
</g>
<!-- Node11&#45;&gt;Node16 -->
<g id="edge37_Node000011_Node000016" class="edge">
<title>Node11&#45;&gt;Node16</title>
<g id="a_edge37_Node000011_Node000016"><a xlink:title=" ">
<path fill="none" stroke="#63b8ff" d="M944,-186.97C944,-168.73 944,-125.57 944,-100.64"/>
<polygon fill="#63b8ff" stroke="#63b8ff" points="947.5,-100.63 944,-90.63 940.5,-100.63 947.5,-100.63"/>
</a>
</g>
</g>
<!-- Node30 -->
<g id="Node000030" class="node">
<title>Node30</title>
<g id="a_Node000030"><a xlink:title=" ">
<polygon fill="#e0e0e0" stroke="#999999" points="494,-151 430,-151 430,-132 494,-132 494,-151"/>
<text text-anchor="middle" x="462" y="-139" font-family="Helvetica,sans-Serif" font-size="10.00">algorithm</text>
</a>
</g>
</g>
<!-- Node11&#45;&gt;Node30 -->
<g id="edge38_Node000011_Node000030" class="edge">
<title>Node11&#45;&gt;Node30</title>
<g id="a_edge38_Node000011_Node000030"><a xlink:title=" ">
<path fill="none" stroke="#63b8ff" d="M909.82,-193.27C837.1,-188.25 661.54,-174.77 504.49,-151.07"/>
<polygon fill="#63b8ff" stroke="#63b8ff" points="504.59,-147.55 494.17,-149.5 503.53,-154.47 504.59,-147.55"/>
</a>
</g>
</g>
<!-- Node31 -->
<g id="Node000031" class="node">
<title>Node31</title>
<g id="a_Node000031"><a xlink:title=" ">
<polygon fill="#e0e0e0" stroke="#999999" points="559.5,-151 512.5,-151 512.5,-132 559.5,-132 559.5,-151"/>
<text text-anchor="middle" x="536" y="-139" font-family="Helvetica,sans-Serif" font-size="10.00">cmath</text>
</a>
</g>
</g>
<!-- Node11&#45;&gt;Node31 -->
<g id="edge40_Node000011_Node000031" class="edge">
<title>Node11&#45;&gt;Node31</title>
<g id="a_edge40_Node000011_Node000031"><a xlink:title=" ">
<path fill="none" stroke="#63b8ff" d="M909.79,-193.09C845.12,-188.17 700.37,-175.5 569.85,-151.12"/>
<polygon fill="#63b8ff" stroke="#63b8ff" points="570.16,-147.62 559.68,-149.19 568.85,-154.49 570.16,-147.62"/>
</a>
</g>
</g>
<!-- Node11&#45;&gt;Node32 -->
<g id="edge41_Node000011_Node000032" class="edge">
<title>Node11&#45;&gt;Node32</title>
<g id="a_edge41_Node000011_Node000032"><a xlink:title=" ">
<path fill="none" stroke="#63b8ff" d="M978.1,-190.89C1050.24,-181.14 1218.02,-158.45 1295.48,-147.98"/>
<polygon fill="#63b8ff" stroke="#63b8ff" points="1296.35,-151.39 1305.79,-146.58 1295.41,-144.46 1296.35,-151.39"/>
</a>
</g>
</g>
<!-- Node33 -->
<g id="Node000033" class="node">
<title>Node33</title>
<g id="a_Node000033"><a xlink:title=" ">
<polygon fill="#e0e0e0" stroke="#999999" points="642.5,-151 577.5,-151 577.5,-132 642.5,-132 642.5,-151"/>
<text text-anchor="middle" x="610" y="-139" font-family="Helvetica,sans-Serif" font-size="10.00">functional</text>
</a>
</g>
</g>
<!-- Node11&#45;&gt;Node33 -->
<g id="edge43_Node000011_Node000033" class="edge">
<title>Node11&#45;&gt;Node33</title>
<g id="a_edge43_Node000011_Node000033"><a xlink:title=" ">
<path fill="none" stroke="#63b8ff" d="M909.62,-190.89C856.6,-183.64 751.46,-168.75 652.78,-151.25"/>
<polygon fill="#63b8ff" stroke="#63b8ff" points="653.1,-147.75 642.64,-149.43 651.87,-154.64 653.1,-147.75"/>
</a>
</g>
</g>
<!-- Node34 -->
<g id="Node000034" class="node">
<title>Node34</title>
<g id="a_Node000034"><a xlink:title=" ">
<polygon fill="#e0e0e0" stroke="#999999" points="743.5,-151 660.5,-151 660.5,-132 743.5,-132 743.5,-151"/>
<text text-anchor="middle" x="702" y="-139" font-family="Helvetica,sans-Serif" font-size="10.00">initializer_list</text>
</a>
</g>
</g>
<!-- Node11&#45;&gt;Node34 -->
<g id="edge44_Node000011_Node000034" class="edge">
<title>Node11&#45;&gt;Node34</title>
<g id="a_edge44_Node000011_Node000034"><a xlink:title=" ">
<path fill="none" stroke="#63b8ff" d="M909.84,-188.02C868.45,-178.95 798.4,-163.61 751.2,-153.28"/>
<polygon fill="#63b8ff" stroke="#63b8ff" points="751.72,-149.81 741.2,-151.08 750.22,-156.64 751.72,-149.81"/>
</a>
</g>
</g>
<!-- Node35 -->
<g id="Node000035" class="node">
<title>Node35</title>
<g id="a_Node000035"><a xlink:title=" ">
<polygon fill="#e0e0e0" stroke="#999999" points="812,-151 762,-151 762,-132 812,-132 812,-151"/>
<text text-anchor="middle" x="787" y="-139" font-family="Helvetica,sans-Serif" font-size="10.00">ranges</text>
</a>
</g>
</g>
<!-- Node11&#45;&gt;Node35 -->
<g id="edge47_Node000011_Node000035" class="edge">
<title>Node11&#45;&gt;Node35</title>
<g id="a_edge47_Node000011_Node000035"><a xlink:title=" ">
<path fill="none" stroke="#63b8ff" d="M918.78,-186.98C892.57,-178.14 851.36,-164.23 822.01,-154.32"/>
<polygon fill="#63b8ff" stroke="#63b8ff" points="822.76,-150.88 812.16,-150.99 820.52,-157.51 822.76,-150.88"/>
</a>
</g>
</g>
<!-- Node11&#45;&gt;Node36 -->
<g id="edge48_Node000011_Node000036" class="edge">
<title>Node11&#45;&gt;Node36</title>
<g id="a_edge48_Node000011_Node000036"><a xlink:title=" ">
<path fill="none" stroke="#63b8ff" d="M963.92,-186.98C984.05,-178.38 1015.38,-164.99 1038.41,-155.15"/>
<polygon fill="#63b8ff" stroke="#63b8ff" points="1039.9,-158.32 1047.71,-151.17 1037.14,-151.88 1039.9,-158.32"/>
</a>
</g>
</g>
<!-- Node11&#45;&gt;Node37 -->
<g id="edge49_Node000011_Node000037" class="edge">
<title>Node11&#45;&gt;Node37</title>
<g id="a_edge49_Node000011_Node000037"><a xlink:title=" ">
<path fill="none" stroke="#63b8ff" d="M978.05,-188.84C1026.79,-179.31 1116.53,-161.76 1170.48,-151.21"/>
<polygon fill="#63b8ff" stroke="#63b8ff" points="1171.31,-154.61 1180.45,-149.26 1169.96,-147.74 1171.31,-154.61"/>
</a>
</g>
</g>
<!-- Node11&#45;&gt;Node38 -->
<g id="edge50_Node000011_Node000038" class="edge">
<title>Node11&#45;&gt;Node38</title>
<g id="a_edge50_Node000011_Node000038"><a xlink:title=" ">
<path fill="none" stroke="#63b8ff" d="M978.43,-192.98C1100.64,-184.03 1512.72,-153.87 1634.09,-144.98"/>
<polygon fill="#63b8ff" stroke="#63b8ff" points="1634.55,-148.46 1644.27,-144.24 1634.04,-141.48 1634.55,-148.46"/>
</a>
</g>
</g>
<!-- Node14&#45;&gt;Node6 -->
<g id="edge30_Node000014_Node000006" class="edge">
<title>Node14&#45;&gt;Node6</title>
<g id="a_edge30_Node000014_Node000006"><a xlink:title=" ">
<path fill="none" stroke="#63b8ff" d="M829.87,-133.43C826.87,-132.95 823.89,-132.47 821,-132 720.15,-115.76 687.83,-136.39 594,-96 573.91,-87.35 575.41,-73.84 555,-66 362.32,7.99 293.01,-76.86 92,-30 89.69,-29.46 87.33,-28.79 84.98,-28.04"/>
<polygon fill="#63b8ff" stroke="#63b8ff" points="86.15,-24.74 75.55,-24.63 83.76,-31.33 86.15,-24.74"/>
</a>
</g>
</g>
<!-- Node14&#45;&gt;Node7 -->
<g id="edge31_Node000014_Node000007" class="edge">
<title>Node14&#45;&gt;Node7</title>
<g id="a_edge31_Node000014_Node000007"><a xlink:title=" ">
<path fill="none" stroke="#63b8ff" d="M898.28,-131.98C920.32,-124.08 952.77,-111.25 979,-96 997.91,-85.01 997.92,-74.65 1018,-66 1111.41,-25.75 1145.95,-57.05 1244,-30 1245.94,-29.46 1247.92,-28.86 1249.9,-28.2"/>
<polygon fill="#63b8ff" stroke="#63b8ff" points="1251.45,-31.36 1259.64,-24.63 1249.05,-24.78 1251.45,-31.36"/>
</a>
</g>
</g>
<!-- Node14&#45;&gt;Node8 -->
<g id="edge32_Node000014_Node000008" class="edge">
<title>Node14&#45;&gt;Node8</title>
<g id="a_edge32_Node000014_Node000008"><a xlink:title=" ">
<path fill="none" stroke="#63b8ff" d="M916.41,-134.39C962.69,-127.32 1037.86,-114.28 1101,-96 1102.93,-95.44 1104.91,-94.82 1106.89,-94.16"/>
<polygon fill="#63b8ff" stroke="#63b8ff" points="1108.44,-97.32 1116.66,-90.64 1106.06,-90.74 1108.44,-97.32"/>
</a>
</g>
</g>
<!-- Node14&#45;&gt;Node10 -->
<g id="edge34_Node000014_Node000010" class="edge">
<title>Node14&#45;&gt;Node10</title>
<g id="a_edge34_Node000014_Node000010"><a xlink:title=" ">
<path fill="none" stroke="#63b8ff" d="M900.19,-131.99C932.6,-121.86 986.9,-104.87 1023.08,-93.55"/>
<polygon fill="#63b8ff" stroke="#63b8ff" points="1024.28,-96.84 1032.78,-90.52 1022.19,-90.16 1024.28,-96.84"/>
</a>
</g>
</g>
<!-- Node15 -->
<g id="Node000015" class="node">
<title>Node15</title>
<g id="a_Node000015"><a xlink:href="device__qualifier_8hpp.html" target="_top" xlink:title=" ">
<polygon fill="white" stroke="#666666" points="717,-90.5 603,-90.5 603,-71.5 717,-71.5 717,-90.5"/>
<text text-anchor="middle" x="660" y="-78.5" font-family="Helvetica,sans-Serif" font-size="10.00">device_qualifier.hpp</text>
</a>
</g>
</g>
<!-- Node14&#45;&gt;Node15 -->
<g id="edge14_Node000014_Node000015" class="edge">
<title>Node14&#45;&gt;Node15</title>
<g id="a_edge14_Node000014_Node000015"><a xlink:title=" ">
<path fill="none" stroke="#63b8ff" d="M842.03,-131.99C804.72,-121.75 741.94,-104.5 700.73,-93.19"/>
<polygon fill="#63b8ff" stroke="#63b8ff" points="701.58,-89.79 691.01,-90.52 699.73,-96.54 701.58,-89.79"/>
</a>
</g>
</g>
<!-- Node14&#45;&gt;Node16 -->
<g id="edge16_Node000014_Node000016" class="edge">
<title>Node14&#45;&gt;Node16</title>
<g id="a_edge16_Node000014_Node000016"><a xlink:title=" ">
<path fill="none" stroke="#63b8ff" d="M883.48,-131.87C894.49,-122.8 912.04,-108.34 925.41,-97.32"/>
<polygon fill="#63b8ff" stroke="#63b8ff" points="927.99,-99.73 933.48,-90.67 923.54,-94.33 927.99,-99.73"/>
</a>
</g>
</g>
<!-- Node17 -->
<g id="Node000017" class="node">
<title>Node17</title>
<g id="a_Node000017"><a xlink:title=" ">
<polygon fill="#e0e0e0" stroke="#999999" points="1234.5,-24.5 1189.5,-24.5 1189.5,-5.5 1234.5,-5.5 1234.5,-24.5"/>
<text text-anchor="middle" x="1212" y="-12.5" font-family="Helvetica,sans-Serif" font-size="10.00">utility</text>
</a>
</g>
</g>
<!-- Node14&#45;&gt;Node17 -->
<g id="edge36_Node000014_Node000017" class="edge">
<title>Node14&#45;&gt;Node17</title>
<g id="a_edge36_Node000014_Node000017"><a xlink:title=" ">
<path fill="none" stroke="#63b8ff" d="M874.32,-131.9C877.24,-116 885.85,-82.19 908,-66 1006.79,6.24 1063.3,-63.55 1181,-30 1182.64,-29.53 1184.3,-28.99 1185.97,-28.4"/>
<polygon fill="#63b8ff" stroke="#63b8ff" points="1187.33,-31.63 1195.28,-24.63 1184.7,-25.14 1187.33,-31.63"/>
</a>
</g>
</g>
<!-- Node18 -->
<g id="Node000018" class="node">
<title>Node18</title>
<g id="a_Node000018"><a xlink:href="array_8hpp.html" target="_top" xlink:title=" ">
<polygon fill="white" stroke="#666666" points="860.5,-90.5 735.5,-90.5 735.5,-71.5 860.5,-71.5 860.5,-90.5"/>
<text text-anchor="middle" x="798" y="-78.5" font-family="Helvetica,sans-Serif" font-size="10.00">serialization/array.hpp</text>
</a>
</g>
</g>
<!-- Node14&#45;&gt;Node18 -->
<g id="edge19_Node000014_Node000018" class="edge">
<title>Node14&#45;&gt;Node18</title>
<g id="a_edge19_Node000014_Node000018"><a xlink:title=" ">
<path fill="none" stroke="#63b8ff" d="M861.93,-131.87C850.19,-122.71 831.41,-108.06 817.24,-97.01"/>
<polygon fill="#63b8ff" stroke="#63b8ff" points="819.15,-94.06 809.11,-90.67 814.84,-99.58 819.15,-94.06"/>
</a>
</g>
</g>
<!-- Node27 -->
<g id="Node000027" class="node">
<title>Node27</title>
<g id="a_Node000027"><a xlink:title=" ">
<polygon fill="#e0e0e0" stroke="#999999" points="412.5,-96 305.5,-96 305.5,-66 412.5,-66 412.5,-96"/>
<text text-anchor="start" x="313.5" y="-84" font-family="Helvetica,sans-Serif" font-size="10.00">boost/serialization</text>
<text text-anchor="middle" x="359" y="-73" font-family="Helvetica,sans-Serif" font-size="10.00">/access.hpp</text>
</a>
</g>
</g>
<!-- Node14&#45;&gt;Node27 -->
<g id="edge29_Node000014_Node000027" class="edge">
<title>Node14&#45;&gt;Node27</title>
<g id="a_edge29_Node000014_Node000027"><a xlink:title=" ">
<path fill="none" stroke="#63b8ff" d="M829.9,-133.21C826.89,-132.78 823.9,-132.37 821,-132 647.2,-110 599.1,-123.21 422.82,-96.16"/>
<polygon fill="#63b8ff" stroke="#63b8ff" points="423.1,-92.66 412.68,-94.58 422.03,-99.58 423.1,-92.66"/>
</a>
</g>
</g>
<!-- Node28 -->
<g id="Node000028" class="node">
<title>Node28</title>
<g id="a_Node000028"><a xlink:title=" ">
<polygon fill="#e0e0e0" stroke="#999999" points="487.5,-90.5 430.5,-90.5 430.5,-71.5 487.5,-71.5 487.5,-90.5"/>
<text text-anchor="middle" x="459" y="-78.5" font-family="Helvetica,sans-Serif" font-size="10.00">ostream</text>
</a>
</g>
</g>
<!-- Node14&#45;&gt;Node28 -->
<g id="edge33_Node000014_Node000028" class="edge">
<title>Node14&#45;&gt;Node28</title>
<g id="a_edge33_Node000014_Node000028"><a xlink:title=" ">
<path fill="none" stroke="#63b8ff" d="M829.9,-133.28C826.89,-132.83 823.9,-132.4 821,-132 677.02,-112.27 637.3,-129.98 496,-96 493.55,-95.41 491.03,-94.7 488.53,-93.92"/>
<polygon fill="#63b8ff" stroke="#63b8ff" points="489.66,-90.61 479.07,-90.64 487.37,-97.22 489.66,-90.61"/>
</a>
</g>
</g>
<!-- Node29 -->
<g id="Node000029" class="node">
<title>Node29</title>
<g id="a_Node000029"><a xlink:title=" ">
<polygon fill="#e0e0e0" stroke="#999999" points="546.5,-90.5 505.5,-90.5 505.5,-71.5 546.5,-71.5 546.5,-90.5"/>
<text text-anchor="middle" x="526" y="-78.5" font-family="Helvetica,sans-Serif" font-size="10.00">tuple</text>
</a>
</g>
</g>
<!-- Node14&#45;&gt;Node29 -->
<g id="edge35_Node000014_Node000029" class="edge">
<title>Node14&#45;&gt;Node29</title>
<g id="a_edge35_Node000014_Node000029"><a xlink:title=" ">
<path fill="none" stroke="#63b8ff" d="M829.88,-133.37C826.88,-132.9 823.89,-132.44 821,-132 705.65,-114.59 673.77,-125.88 561,-96 558.84,-95.43 556.64,-94.76 554.44,-94.03"/>
<polygon fill="#63b8ff" stroke="#63b8ff" points="555.57,-90.72 544.97,-90.56 553.16,-97.29 555.57,-90.72"/>
</a>
</g>
</g>
<!-- Node15&#45;&gt;Node6 -->
<g id="edge15_Node000015_Node000006" class="edge">
<title>Node15&#45;&gt;Node6</title>
<g id="a_edge15_Node000015_Node000006"><a xlink:title=" ">
<path fill="none" stroke="#63b8ff" d="M621.08,-71.44C610.7,-69.39 599.46,-67.4 589,-66 369.5,-36.52 307.82,-79.71 92,-30 89.63,-29.45 87.22,-28.77 84.81,-28.01"/>
<polygon fill="#63b8ff" stroke="#63b8ff" points="85.78,-24.63 75.19,-24.5 83.39,-31.21 85.78,-24.63"/>
</a>
</g>
</g>
<!-- Node16&#45;&gt;Node7 -->
<g id="edge17_Node000016_Node000007" class="edge">
<title>Node16&#45;&gt;Node7</title>
<g id="a_edge17_Node000016_Node000007"><a xlink:title=" ">
<path fill="none" stroke="#63b8ff" d="M966.76,-71.37C972.64,-69.38 979,-67.43 985,-66 1098.06,-39.1 1131.67,-59.8 1244,-30 1246.16,-29.43 1248.36,-28.76 1250.56,-28.03"/>
<polygon fill="#63b8ff" stroke="#63b8ff" points="1251.84,-31.29 1260.03,-24.56 1249.43,-24.72 1251.84,-31.29"/>
</a>
</g>
</g>
<!-- Node16&#45;&gt;Node17 -->
<g id="edge18_Node000016_Node000017" class="edge">
<title>Node16&#45;&gt;Node17</title>
<g id="a_edge18_Node000016_Node000017"><a xlink:title=" ">
<path fill="none" stroke="#63b8ff" d="M967.24,-71.4C972.99,-69.46 979.18,-67.52 985,-66 1070.7,-43.63 1096.46,-56.42 1181,-30 1182.44,-29.55 1183.91,-29.05 1185.38,-28.51"/>
<polygon fill="#63b8ff" stroke="#63b8ff" points="1186.98,-31.64 1194.91,-24.61 1184.33,-25.16 1186.98,-31.64"/>
</a>
</g>
</g>
<!-- Node18&#45;&gt;Node7 -->
<g id="edge28_Node000018_Node000007" class="edge">
<title>Node18&#45;&gt;Node7</title>
<g id="a_edge28_Node000018_Node000007"><a xlink:title=" ">
<path fill="none" stroke="#63b8ff" d="M860.51,-71.83C876.02,-69.86 892.61,-67.8 908,-66 1057.17,-48.52 1098.25,-66.23 1244,-30 1246.3,-29.43 1248.66,-28.74 1251,-27.97"/>
<polygon fill="#63b8ff" stroke="#63b8ff" points="1252.23,-31.25 1260.42,-24.53 1249.83,-24.67 1252.23,-31.25"/>
</a>
</g>
</g>
<!-- Node19 -->
<g id="Node000019" class="node">
<title>Node19</title>
<g id="a_Node000019"><a xlink:title=" ">
<polygon fill="#e0e0e0" stroke="#999999" points="615.5,-24.5 482.5,-24.5 482.5,-5.5 615.5,-5.5 615.5,-24.5"/>
<text text-anchor="middle" x="549" y="-12.5" font-family="Helvetica,sans-Serif" font-size="10.00">boost/mpl/bool_fwd.hpp</text>
</a>
</g>
</g>
<!-- Node18&#45;&gt;Node19 -->
<g id="edge20_Node000018_Node000019" class="edge">
<title>Node18&#45;&gt;Node19</title>
<g id="a_edge20_Node000018_Node000019"><a xlink:title=" ">
<path fill="none" stroke="#63b8ff" d="M764.68,-71.44C720.14,-59.99 641.14,-39.68 592.11,-27.08"/>
<polygon fill="#63b8ff" stroke="#63b8ff" points="592.68,-23.61 582.13,-24.51 590.94,-30.39 592.68,-23.61"/>
</a>
</g>
</g>
<!-- Node20 -->
<g id="Node000020" class="node">
<title>Node20</title>
<g id="a_Node000020"><a xlink:title=" ">
<polygon fill="#e0e0e0" stroke="#999999" points="758,-24.5 634,-24.5 634,-5.5 758,-5.5 758,-24.5"/>
<text text-anchor="middle" x="696" y="-12.5" font-family="Helvetica,sans-Serif" font-size="10.00">boost/mpl/greater.hpp</text>
</a>
</g>
</g>
<!-- Node18&#45;&gt;Node20 -->
<g id="edge21_Node000018_Node000020" class="edge">
<title>Node18&#45;&gt;Node20</title>
<g id="a_edge21_Node000018_Node000020"><a xlink:title=" ">
<path fill="none" stroke="#63b8ff" d="M784.24,-71.37C767.36,-60.78 738.51,-42.67 718.41,-30.06"/>
<polygon fill="#63b8ff" stroke="#63b8ff" points="720.19,-27.05 709.86,-24.7 716.47,-32.98 720.19,-27.05"/>
</a>
</g>
</g>
<!-- Node21 -->
<g id="Node000021" class="node">
<title>Node21</title>
<g id="a_Node000021"><a xlink:title=" ">
<polygon fill="#e0e0e0" stroke="#999999" points="878,-24.5 776,-24.5 776,-5.5 878,-5.5 878,-24.5"/>
<text text-anchor="middle" x="827" y="-12.5" font-family="Helvetica,sans-Serif" font-size="10.00">boost/mpl/int.hpp</text>
</a>
</g>
</g>
<!-- Node18&#45;&gt;Node21 -->
<g id="edge22_Node000018_Node000021" class="edge">
<title>Node18&#45;&gt;Node21</title>
<g id="a_edge22_Node000018_Node000021"><a xlink:title=" ">
<path fill="none" stroke="#63b8ff" d="M801.91,-71.37C806.21,-61.88 813.24,-46.36 818.77,-34.16"/>
<polygon fill="#63b8ff" stroke="#63b8ff" points="822.03,-35.46 822.96,-24.91 815.65,-32.57 822.03,-35.46"/>
</a>
</g>
</g>
<!-- Node22 -->
<g id="Node000022" class="node">
<title>Node22</title>
<g id="a_Node000022"><a xlink:title=" ">
<polygon fill="#e0e0e0" stroke="#999999" points="1002,-30 896,-30 896,0 1002,0 1002,-30"/>
<text text-anchor="start" x="904" y="-18" font-family="Helvetica,sans-Serif" font-size="10.00">boost/mpl/integral</text>
<text text-anchor="middle" x="949" y="-7" font-family="Helvetica,sans-Serif" font-size="10.00">_c_tag.hpp</text>
</a>
</g>
</g>
<!-- Node18&#45;&gt;Node22 -->
<g id="edge23_Node000018_Node000022" class="edge">
<title>Node18&#45;&gt;Node22</title>
<g id="a_edge23_Node000018_Node000022"><a xlink:title=" ">
<path fill="none" stroke="#63b8ff" d="M818.36,-71.37C840.79,-61.87 877.47,-46.32 906.27,-34.11"/>
<polygon fill="#63b8ff" stroke="#63b8ff" points="907.85,-37.24 915.7,-30.12 905.12,-30.8 907.85,-37.24"/>
</a>
</g>
</g>
<!-- Node23 -->
<g id="Node000023" class="node">
<title>Node23</title>
<g id="a_Node000023"><a xlink:title=" ">
<polygon fill="#e0e0e0" stroke="#999999" points="1171.5,-30 1020.5,-30 1020.5,0 1171.5,0 1171.5,-30"/>
<text text-anchor="start" x="1028.5" y="-18" font-family="Helvetica,sans-Serif" font-size="10.00">boost/serialization</text>
<text text-anchor="middle" x="1096" y="-7" font-family="Helvetica,sans-Serif" font-size="10.00">/is_bitwise_serializable.hpp</text>
</a>
</g>
</g>
<!-- Node18&#45;&gt;Node23 -->
<g id="edge24_Node000018_Node000023" class="edge">
<title>Node18&#45;&gt;Node23</title>
<g id="a_edge24_Node000018_Node000023"><a xlink:title=" ">
<path fill="none" stroke="#63b8ff" d="M837.88,-71.44C884.51,-61.42 962.69,-44.63 1020.82,-32.15"/>
<polygon fill="#63b8ff" stroke="#63b8ff" points="1021.65,-35.55 1030.7,-30.02 1020.18,-28.7 1021.65,-35.55"/>
</a>
</g>
</g>
<!-- Node24 -->
<g id="Node000024" class="node">
<title>Node24</title>
<g id="a_Node000024"><a xlink:title=" ">
<polygon fill="#e0e0e0" stroke="#999999" points="208.5,-30 101.5,-30 101.5,0 208.5,0 208.5,-30"/>
<text text-anchor="start" x="109.5" y="-18" font-family="Helvetica,sans-Serif" font-size="10.00">boost/serialization</text>
<text text-anchor="middle" x="155" y="-7" font-family="Helvetica,sans-Serif" font-size="10.00">/level.hpp</text>
</a>
</g>
</g>
<!-- Node18&#45;&gt;Node24 -->
<g id="edge25_Node000018_Node000024" class="edge">
<title>Node18&#45;&gt;Node24</title>
<g id="a_edge25_Node000018_Node000024"><a xlink:title=" ">
<path fill="none" stroke="#63b8ff" d="M758.53,-71.43C748,-69.39 736.6,-67.4 726,-66 504.46,-36.74 443.15,-62.3 218.79,-30.12"/>
<polygon fill="#63b8ff" stroke="#63b8ff" points="219.08,-26.62 208.68,-28.64 218.07,-33.55 219.08,-26.62"/>
</a>
</g>
</g>
<!-- Node25 -->
<g id="Node000025" class="node">
<title>Node25</title>
<g id="a_Node000025"><a xlink:title=" ">
<polygon fill="#e0e0e0" stroke="#999999" points="333.5,-30 226.5,-30 226.5,0 333.5,0 333.5,-30"/>
<text text-anchor="start" x="234.5" y="-18" font-family="Helvetica,sans-Serif" font-size="10.00">boost/serialization</text>
<text text-anchor="middle" x="280" y="-7" font-family="Helvetica,sans-Serif" font-size="10.00">/tracking.hpp</text>
</a>
</g>
</g>
<!-- Node18&#45;&gt;Node25 -->
<g id="edge26_Node000018_Node000025" class="edge">
<title>Node18&#45;&gt;Node25</title>
<g id="a_edge26_Node000018_Node000025"><a xlink:title=" ">
<path fill="none" stroke="#63b8ff" d="M757.75,-71.45C747.44,-69.46 736.34,-67.49 726,-66 559.56,-42.08 513.05,-56.36 343.69,-30.14"/>
<polygon fill="#63b8ff" stroke="#63b8ff" points="344.11,-26.66 333.69,-28.57 343.02,-33.58 344.11,-26.66"/>
</a>
</g>
</g>
<!-- Node26 -->
<g id="Node000026" class="node">
<title>Node26</title>
<g id="a_Node000026"><a xlink:title=" ">
<polygon fill="#e0e0e0" stroke="#999999" points="464.5,-30 351.5,-30 351.5,0 464.5,0 464.5,-30"/>
<text text-anchor="start" x="359.5" y="-18" font-family="Helvetica,sans-Serif" font-size="10.00">boost/serialization</text>
<text text-anchor="middle" x="408" y="-7" font-family="Helvetica,sans-Serif" font-size="10.00">/tracking_enum.hpp</text>
</a>
</g>
</g>
<!-- Node18&#45;&gt;Node26 -->
<g id="edge27_Node000018_Node000026" class="edge">
<title>Node18&#45;&gt;Node26</title>
<g id="a_edge27_Node000018_Node000026"><a xlink:title=" ">
<path fill="none" stroke="#63b8ff" d="M756.19,-71.5C746.31,-69.59 735.79,-67.65 726,-66 617.17,-47.69 586.53,-49.83 474.67,-30.22"/>
<polygon fill="#63b8ff" stroke="#63b8ff" points="475.13,-26.75 464.67,-28.45 473.91,-33.64 475.13,-26.75"/>
</a>
</g>
</g>
</g>
</svg>
