<?xml version="1.0" encoding="UTF-8" standalone="no"?>
<!DOCTYPE svg PUBLIC "-//W3C//DTD SVG 1.1//EN"
 "http://www.w3.org/Graphics/SVG/1.1/DTD/svg11.dtd">
<!-- Generated by graphviz version 2.43.0 (0)
 -->
<!-- Title: FixedFlux_double_precision.cpp Pages: 1 -->
<svg width="1084pt" height="151pt"
 viewBox="0.00 0.00 1084.00 151.00" xmlns="http://www.w3.org/2000/svg" xmlns:xlink="http://www.w3.org/1999/xlink">
<g id="graph0" class="graph" transform="scale(1 1) rotate(0) translate(4 147)">
<title>FixedFlux_double_precision.cpp</title>
<!-- Node1 -->
<g id="node1" class="node">
<title>Node1</title>
<g id="a_node1"><a xlink:title=" ">
<polygon fill="#bfbfbf" stroke="black" points="422,-123.5 422,-142.5 593,-142.5 593,-123.5 422,-123.5"/>
<text text-anchor="middle" x="507.5" y="-130.5" font-family="Helvetica,sans-Serif" font-size="10.00">FixedFlux_double_precision.cpp</text>
</a>
</g>
</g>
<!-- Node2 -->
<g id="node2" class="node">
<title>Node2</title>
<g id="a_node2"><a xlink:title=" ">
<polygon fill="none" stroke="#bfbfbf" points="378,-67.5 378,-86.5 425,-86.5 425,-67.5 378,-67.5"/>
<text text-anchor="middle" x="401.5" y="-74.5" font-family="Helvetica,sans-Serif" font-size="10.00">cmath</text>
</a>
</g>
</g>
<!-- Node1&#45;&gt;Node2 -->
<g id="edge1" class="edge">
<title>Node1&#45;&gt;Node2</title>
<path fill="none" stroke="midnightblue" d="M490.47,-123.32C473.47,-114.66 447.12,-101.24 427.51,-91.25"/>
<polygon fill="midnightblue" stroke="midnightblue" points="428.99,-88.08 418.49,-86.65 425.81,-94.31 428.99,-88.08"/>
</g>
<!-- Node3 -->
<g id="node3" class="node">
<title>Node3</title>
<g id="a_node3"><a xlink:href="FixedFlux__double__precision_8h.html" target="_top" xlink:title=" ">
<polygon fill="none" stroke="black" points="481.5,-67.5 481.5,-86.5 641.5,-86.5 641.5,-67.5 481.5,-67.5"/>
<text text-anchor="middle" x="561.5" y="-74.5" font-family="Helvetica,sans-Serif" font-size="10.00">FixedFlux_double_precision.h</text>
</a>
</g>
</g>
<!-- Node1&#45;&gt;Node3 -->
<g id="edge2" class="edge">
<title>Node1&#45;&gt;Node3</title>
<path fill="none" stroke="midnightblue" d="M516.42,-123.08C524.28,-115.22 535.93,-103.57 545.42,-94.08"/>
<polygon fill="midnightblue" stroke="midnightblue" points="548.15,-96.3 552.75,-86.75 543.2,-91.35 548.15,-96.3"/>
</g>
<!-- Node4 -->
<g id="node4" class="node">
<title>Node4</title>
<g id="a_node4"><a xlink:title=" ">
<polygon fill="none" stroke="#bfbfbf" points="0,-6 0,-25 101,-25 101,-6 0,-6"/>
<text text-anchor="middle" x="50.5" y="-13" font-family="Helvetica,sans-Serif" font-size="10.00">core/DataTypes.h</text>
</a>
</g>
</g>
<!-- Node1&#45;&gt;Node4 -->
<g id="edge12" class="edge">
<title>Node1&#45;&gt;Node4</title>
<path fill="none" stroke="midnightblue" d="M500.95,-123.43C489.35,-108.95 463.64,-79.98 434.5,-67 302.15,-8.04 253.2,-56.07 110.5,-31 104.62,-29.97 98.45,-28.7 92.41,-27.34"/>
<polygon fill="midnightblue" stroke="midnightblue" points="92.95,-23.87 82.42,-25.01 91.36,-30.69 92.95,-23.87"/>
</g>
<!-- Node13 -->
<g id="node13" class="node">
<title>Node13</title>
<g id="a_node13"><a xlink:title=" ">
<polygon fill="none" stroke="#bfbfbf" points="660,-67.5 660,-86.5 745,-86.5 745,-67.5 660,-67.5"/>
<text text-anchor="middle" x="702.5" y="-74.5" font-family="Helvetica,sans-Serif" font-size="10.00">core/Macros.h</text>
</a>
</g>
</g>
<!-- Node1&#45;&gt;Node13 -->
<g id="edge13" class="edge">
<title>Node1&#45;&gt;Node13</title>
<path fill="none" stroke="midnightblue" d="M538.4,-123.44C571.77,-114.2 625.09,-99.44 661.85,-89.26"/>
<polygon fill="midnightblue" stroke="midnightblue" points="663.04,-92.56 671.75,-86.52 661.17,-85.81 663.04,-92.56"/>
</g>
<!-- Node3&#45;&gt;Node4 -->
<g id="edge3" class="edge">
<title>Node3&#45;&gt;Node4</title>
<path fill="none" stroke="midnightblue" d="M481.32,-68.29C356.59,-56.25 128.46,-34.05 110.5,-31 104.61,-30 98.44,-28.75 92.4,-27.4"/>
<polygon fill="midnightblue" stroke="midnightblue" points="92.94,-23.93 82.4,-25.07 91.35,-30.75 92.94,-23.93"/>
</g>
<!-- Node5 -->
<g id="node5" class="node">
<title>Node5</title>
<g id="a_node5"><a xlink:title=" ">
<polygon fill="none" stroke="#bfbfbf" points="119.5,-0.5 119.5,-30.5 271.5,-30.5 271.5,-0.5 119.5,-0.5"/>
<text text-anchor="start" x="127.5" y="-18.5" font-family="Helvetica,sans-Serif" font-size="10.00">blockforest/StructuredBlock</text>
<text text-anchor="middle" x="195.5" y="-7.5" font-family="Helvetica,sans-Serif" font-size="10.00">Forest.h</text>
</a>
</g>
</g>
<!-- Node3&#45;&gt;Node5 -->
<g id="edge4" class="edge">
<title>Node3&#45;&gt;Node5</title>
<path fill="none" stroke="midnightblue" d="M507.34,-67.49C452.89,-58.9 366.25,-45.14 281.95,-31.23"/>
<polygon fill="midnightblue" stroke="midnightblue" points="282.39,-27.76 271.95,-29.58 281.25,-34.66 282.39,-27.76"/>
</g>
<!-- Node6 -->
<g id="node6" class="node">
<title>Node6</title>
<g id="a_node6"><a xlink:title=" ">
<polygon fill="none" stroke="#bfbfbf" points="289.5,-6 289.5,-25 403.5,-25 403.5,-6 289.5,-6"/>
<text text-anchor="middle" x="346.5" y="-13" font-family="Helvetica,sans-Serif" font-size="10.00">core/debug/Debug.h</text>
</a>
</g>
</g>
<!-- Node3&#45;&gt;Node6 -->
<g id="edge5" class="edge">
<title>Node3&#45;&gt;Node6</title>
<path fill="none" stroke="midnightblue" d="M530.7,-67.48C492.94,-57.03 428.84,-39.29 387.09,-27.73"/>
<polygon fill="midnightblue" stroke="midnightblue" points="387.82,-24.3 377.25,-25.01 385.95,-31.05 387.82,-24.3"/>
</g>
<!-- Node7 -->
<g id="node7" class="node">
<title>Node7</title>
<g id="a_node7"><a xlink:title=" ">
<polygon fill="none" stroke="#bfbfbf" points="422,-0.5 422,-30.5 553,-30.5 553,-0.5 422,-0.5"/>
<text text-anchor="start" x="430" y="-18.5" font-family="Helvetica,sans-Serif" font-size="10.00">domain_decomposition</text>
<text text-anchor="middle" x="487.5" y="-7.5" font-family="Helvetica,sans-Serif" font-size="10.00">/BlockDataID.h</text>
</a>
</g>
</g>
<!-- Node3&#45;&gt;Node7 -->
<g id="edge6" class="edge">
<title>Node3&#45;&gt;Node7</title>
<path fill="none" stroke="midnightblue" d="M550.9,-67.48C541.06,-59.57 526.04,-47.48 513.08,-37.07"/>
<polygon fill="midnightblue" stroke="midnightblue" points="514.93,-34.06 504.94,-30.52 510.54,-39.52 514.93,-34.06"/>
</g>
<!-- Node8 -->
<g id="node8" class="node">
<title>Node8</title>
<g id="a_node8"><a xlink:title=" ">
<polygon fill="none" stroke="#bfbfbf" points="571,-0.5 571,-30.5 702,-30.5 702,-0.5 571,-0.5"/>
<text text-anchor="start" x="579" y="-18.5" font-family="Helvetica,sans-Serif" font-size="10.00">domain_decomposition</text>
<text text-anchor="middle" x="636.5" y="-7.5" font-family="Helvetica,sans-Serif" font-size="10.00">/IBlock.h</text>
</a>
</g>
</g>
<!-- Node3&#45;&gt;Node8 -->
<g id="edge7" class="edge">
<title>Node3&#45;&gt;Node8</title>
<path fill="none" stroke="midnightblue" d="M572.25,-67.48C582.31,-59.49 597.73,-47.25 610.95,-36.77"/>
<polygon fill="midnightblue" stroke="midnightblue" points="613.17,-39.48 618.82,-30.52 608.81,-34 613.17,-39.48"/>
</g>
<!-- Node9 -->
<g id="node9" class="node">
<title>Node9</title>
<g id="a_node9"><a xlink:title=" ">
<polygon fill="none" stroke="#bfbfbf" points="720.5,-6 720.5,-25 814.5,-25 814.5,-6 720.5,-6"/>
<text text-anchor="middle" x="767.5" y="-13" font-family="Helvetica,sans-Serif" font-size="10.00">field/FlagField.h</text>
</a>
</g>
</g>
<!-- Node3&#45;&gt;Node9 -->
<g id="edge8" class="edge">
<title>Node3&#45;&gt;Node9</title>
<path fill="none" stroke="midnightblue" d="M591.01,-67.48C627.12,-57.05 688.35,-39.36 728.35,-27.81"/>
<polygon fill="midnightblue" stroke="midnightblue" points="729.4,-31.15 738.04,-25.01 727.46,-24.42 729.4,-31.15"/>
</g>
<!-- Node10 -->
<g id="node10" class="node">
<title>Node10</title>
<g id="a_node10"><a xlink:title=" ">
<polygon fill="none" stroke="#bfbfbf" points="832.5,-6 832.5,-25 960.5,-25 960.5,-6 832.5,-6"/>
<text text-anchor="middle" x="896.5" y="-13" font-family="Helvetica,sans-Serif" font-size="10.00">field/GhostLayerField.h</text>
</a>
</g>
</g>
<!-- Node3&#45;&gt;Node10 -->
<g id="edge9" class="edge">
<title>Node3&#45;&gt;Node10</title>
<path fill="none" stroke="midnightblue" d="M613.77,-67.43C666.7,-58.66 750.89,-44.44 823.5,-31 830.24,-29.75 837.33,-28.4 844.32,-27.03"/>
<polygon fill="midnightblue" stroke="midnightblue" points="845.32,-30.41 854.46,-25.04 843.97,-23.54 845.32,-30.41"/>
</g>
<!-- Node11 -->
<g id="node11" class="node">
<title>Node11</title>
<g id="a_node11"><a xlink:title=" ">
<polygon fill="none" stroke="#bfbfbf" points="978.5,-6 978.5,-25 1010.5,-25 1010.5,-6 978.5,-6"/>
<text text-anchor="middle" x="994.5" y="-13" font-family="Helvetica,sans-Serif" font-size="10.00">set</text>
</a>
</g>
</g>
<!-- Node3&#45;&gt;Node11 -->
<g id="edge10" class="edge">
<title>Node3&#45;&gt;Node11</title>
<path fill="none" stroke="midnightblue" d="M641.65,-67.58C758.27,-55.27 961.79,-33.54 969.5,-31 970.57,-30.65 971.65,-30.24 972.72,-29.8"/>
<polygon fill="midnightblue" stroke="midnightblue" points="974.67,-32.74 982.01,-25.1 971.51,-26.5 974.67,-32.74"/>
</g>
<!-- Node12 -->
<g id="node12" class="node">
<title>Node12</title>
<g id="a_node12"><a xlink:title=" ">
<polygon fill="none" stroke="#bfbfbf" points="1029,-6 1029,-25 1076,-25 1076,-6 1029,-6"/>
<text text-anchor="middle" x="1052.5" y="-13" font-family="Helvetica,sans-Serif" font-size="10.00">vector</text>
</a>
</g>
</g>
<!-- Node3&#45;&gt;Node12 -->
<g id="edge11" class="edge">
<title>Node3&#45;&gt;Node12</title>
<path fill="none" stroke="midnightblue" d="M641.97,-67.94C645.19,-67.62 648.37,-67.31 651.5,-67 815.04,-50.82 860.51,-72.57 1019.5,-31 1021.8,-30.4 1024.14,-29.66 1026.46,-28.83"/>
<polygon fill="midnightblue" stroke="midnightblue" points="1027.78,-32.07 1035.74,-25.09 1025.16,-25.58 1027.78,-32.07"/>
</g>
</g>
</svg>
