<?xml version="1.0" encoding="UTF-8" standalone="no"?>
<!DOCTYPE svg PUBLIC "-//W3C//DTD SVG 1.1//EN"
 "http://www.w3.org/Graphics/SVG/1.1/DTD/svg11.dtd">
<!-- Generated by graphviz version 2.43.0 (0)
 -->
<!-- Title: FixedFlux_single_precision.cpp Pages: 1 -->
<!--zoomable 148 -->

<svg id="main" version="1.1" xmlns="http://www.w3.org/2000/svg" xmlns:xlink="http://www.w3.org/1999/xlink" xml:space="preserve" onload="init(evt)">
<style type="text/css"><![CDATA[
.node, .edge {opacity: 0.7;}
.node.selected, .edge.selected {opacity: 1;}
.edge:hover path { stroke: red; }
.edge:hover polygon { stroke: red; fill: red; }
]]></style>

<defs>
  <circle id="rim" cx="0" cy="0" r="7"/>
  <circle id="rim2" cx="0" cy="0" r="3.5"/>
  <g id="zoomPlus">
    <use xlink:href="#rim" fill="#404040"><set attributeName="fill" to="#808080" begin="zoomplus.mouseover" end="zoomplus.mouseout"/></use>
    <path d="M-4,0h8M0,-4v8" fill="none" stroke="white" stroke-width="1.5" pointer-events="none"/>
  </g>
  <g id="zoomMin">
    <use xlink:href="#rim" fill="#404040"><set attributeName="fill" to="#808080" begin="zoomminus.mouseover" end="zoomminus.mouseout"/></use>
    <path d="M-4,0h8" fill="none" stroke="white" stroke-width="1.5" pointer-events="none"/>
  </g>
  <g id="arrowUp" transform="translate(30 24)">
    <use xlink:href="#rim"/>
    <path pointer-events="none" fill="none" stroke="white" stroke-width="1.5" d="M0,-3.0v7 M-2.5,-0.5L0,-3.0L2.5,-0.5"/>
  </g>
  <g id="arrowRight" transform="rotate(90) translate(36 -43)">
    <use xlink:href="#rim"/>
    <path pointer-events="none" fill="none" stroke="white" stroke-width="1.5" d="M0,-3.0v7 M-2.5,-0.5L0,-3.0L2.5,-0.5"/>
  </g>
  <g id="arrowDown" transform="rotate(180) translate(-30 -48)">
    <use xlink:href="#rim"/>
    <path pointer-events="none" fill="none" stroke="white" stroke-width="1.5" d="M0,-3.0v7 M-2.5,-0.5L0,-3.0L2.5,-0.5"/>
  </g>
  <g id="arrowLeft" transform="rotate(270) translate(-36 17)">
    <use xlink:href="#rim"/>
    <path pointer-events="none" fill="none" stroke="white" stroke-width="1.5" d="M0,-3.0v7 M-2.5,-0.5L0,-3.0L2.5,-0.5"/>
  </g>
  <g id="resetDef">
    <use xlink:href="#rim2" fill="#404040"><set attributeName="fill" to="#808080" begin="reset.mouseover" end="reset.mouseout"/></use>
  </g>
</defs>
<script type="application/ecmascript">
var viewWidth = 1084;
var viewHeight = 148;
var sectionId = 'dynsection-0';
</script>
<script type="application/ecmascript" xlink:href="svg.min.js"/>
<svg id="graph" class="graph">
<g id="viewport">
<title>FixedFlux_single_precision.cpp</title>
<!-- Node1 -->
<g id="Node000001" class="node">
<title>Node1</title>
<g id="a_Node000001"><a xlink:title=" ">
<polygon fill="#999999" stroke="#666666" points="592,-140 425,-140 425,-121 592,-121 592,-140"/>
<text text-anchor="middle" x="508.5" y="-128" font-family="Helvetica,sans-Serif" font-size="10.00">FixedFlux_single_precision.cpp</text>
</a>
</g>
</g>
<!-- Node2 -->
<g id="Node000002" class="node">
<title>Node2</title>
<g id="a_Node000002"><a xlink:title=" ">
<polygon fill="#e0e0e0" stroke="#999999" points="427,-85 380,-85 380,-66 427,-66 427,-85"/>
<text text-anchor="middle" x="403.5" y="-73" font-family="Helvetica,sans-Serif" font-size="10.00">cmath</text>
</a>
</g>
</g>
<!-- Node1&#45;&gt;Node2 -->
<g id="edge1_Node000001_Node000002" class="edge">
<title>Node1&#45;&gt;Node2</title>
<g id="a_edge1_Node000001_Node000002"><a xlink:title=" ">
<path fill="none" stroke="#63b8ff" d="M491.63,-120.98C474.89,-112.54 449,-99.47 429.61,-89.68"/>
<polygon fill="#63b8ff" stroke="#63b8ff" points="431.18,-86.55 420.68,-85.17 428.03,-92.8 431.18,-86.55"/>
</a>
</g>
</g>
<!-- Node3 -->
<g id="Node000003" class="node">
<title>Node3</title>
<g id="a_Node000003"><a xlink:href="FixedFlux__single__precision_8h.html" target="_top" xlink:title=" ">
<polygon fill="white" stroke="#666666" points="639.5,-85 483.5,-85 483.5,-66 639.5,-66 639.5,-85"/>
<text text-anchor="middle" x="561.5" y="-73" font-family="Helvetica,sans-Serif" font-size="10.00">FixedFlux_single_precision.h</text>
</a>
</g>
</g>
<!-- Node1&#45;&gt;Node3 -->
<g id="edge2_Node000001_Node000003" class="edge">
<title>Node1&#45;&gt;Node3</title>
<g id="a_edge2_Node000001_Node000003"><a xlink:title=" ">
<path fill="none" stroke="#63b8ff" d="M517.25,-120.75C524.97,-113.03 536.4,-101.6 545.72,-92.28"/>
<polygon fill="#63b8ff" stroke="#63b8ff" points="548.31,-94.64 552.91,-85.09 543.36,-89.69 548.31,-94.64"/>
</a>
</g>
</g>
<!-- Node4 -->
<g id="Node000004" class="node">
<title>Node4</title>
<g id="a_Node000004"><a xlink:title=" ">
<polygon fill="#e0e0e0" stroke="#999999" points="101,-24.5 0,-24.5 0,-5.5 101,-5.5 101,-24.5"/>
<text text-anchor="middle" x="50.5" y="-12.5" font-family="Helvetica,sans-Serif" font-size="10.00">core/DataTypes.h</text>
</a>
</g>
</g>
<!-- Node1&#45;&gt;Node4 -->
<g id="edge12_Node000001_Node000004" class="edge">
<title>Node1&#45;&gt;Node4</title>
<g id="a_edge12_Node000001_Node000004"><a xlink:title=" ">
<path fill="none" stroke="#63b8ff" d="M501.65,-120.67C490.01,-106.38 464.85,-78.54 436.5,-66 303.18,-7.04 254.18,-54.61 110.5,-30 105.1,-29.07 99.45,-27.96 93.88,-26.77"/>
<polygon fill="#63b8ff" stroke="#63b8ff" points="94.52,-23.32 83.99,-24.56 92.99,-30.15 94.52,-23.32"/>
</a>
</g>
</g>
<!-- Node13 -->
<g id="Node000013" class="node">
<title>Node13</title>
<g id="a_Node000013"><a xlink:title=" ">
<polygon fill="#e0e0e0" stroke="#999999" points="743,-85 658,-85 658,-66 743,-66 743,-85"/>
<text text-anchor="middle" x="700.5" y="-73" font-family="Helvetica,sans-Serif" font-size="10.00">core/Macros.h</text>
</a>
</g>
</g>
<!-- Node1&#45;&gt;Node13 -->
<g id="edge13_Node000001_Node000013" class="edge">
<title>Node1&#45;&gt;Node13</title>
<g id="a_edge13_Node000001_Node000013"><a xlink:title=" ">
<path fill="none" stroke="#63b8ff" d="M539.35,-120.98C572,-111.97 623.7,-97.7 659.7,-87.76"/>
<polygon fill="#63b8ff" stroke="#63b8ff" points="660.7,-91.12 669.41,-85.08 658.84,-84.37 660.7,-91.12"/>
</a>
</g>
</g>
<!-- Node3&#45;&gt;Node4 -->
<g id="edge3_Node000003_Node000004" class="edge">
<title>Node3&#45;&gt;Node4</title>
<g id="a_edge3_Node000003_Node000004"><a xlink:title=" ">
<path fill="none" stroke="#63b8ff" d="M483.33,-67.05C359.07,-55.18 128.57,-32.99 110.5,-30 105.03,-29.1 99.31,-27.98 93.67,-26.78"/>
<polygon fill="#63b8ff" stroke="#63b8ff" points="94.19,-23.31 83.67,-24.56 92.67,-30.15 94.19,-23.31"/>
</a>
</g>
</g>
<!-- Node5 -->
<g id="Node000005" class="node">
<title>Node5</title>
<g id="a_Node000005"><a xlink:title=" ">
<polygon fill="#e0e0e0" stroke="#999999" points="271.5,-30 119.5,-30 119.5,0 271.5,0 271.5,-30"/>
<text text-anchor="start" x="127.5" y="-18" font-family="Helvetica,sans-Serif" font-size="10.00">blockforest/StructuredBlock</text>
<text text-anchor="middle" x="195.5" y="-7" font-family="Helvetica,sans-Serif" font-size="10.00">Forest.h</text>
</a>
</g>
</g>
<!-- Node3&#45;&gt;Node5 -->
<g id="edge4_Node000003_Node000005" class="edge">
<title>Node3&#45;&gt;Node5</title>
<g id="a_edge4_Node000003_Node000005"><a xlink:title=" ">
<path fill="none" stroke="#63b8ff" d="M507.09,-65.99C452.63,-57.44 366.15,-43.81 281.94,-30.23"/>
<polygon fill="#63b8ff" stroke="#63b8ff" points="282.38,-26.75 271.95,-28.61 281.27,-33.66 282.38,-26.75"/>
</a>
</g>
</g>
<!-- Node6 -->
<g id="Node000006" class="node">
<title>Node6</title>
<g id="a_Node000006"><a xlink:title=" ">
<polygon fill="#e0e0e0" stroke="#999999" points="403.5,-24.5 289.5,-24.5 289.5,-5.5 403.5,-5.5 403.5,-24.5"/>
<text text-anchor="middle" x="346.5" y="-12.5" font-family="Helvetica,sans-Serif" font-size="10.00">core/debug/Debug.h</text>
</a>
</g>
</g>
<!-- Node3&#45;&gt;Node6 -->
<g id="edge5_Node000003_Node000006" class="edge">
<title>Node3&#45;&gt;Node6</title>
<g id="a_edge5_Node000003_Node000006"><a xlink:title=" ">
<path fill="none" stroke="#63b8ff" d="M530.24,-65.99C492.58,-55.75 429.21,-38.5 387.62,-27.19"/>
<polygon fill="#63b8ff" stroke="#63b8ff" points="388.37,-23.77 377.8,-24.52 386.53,-30.52 388.37,-23.77"/>
</a>
</g>
</g>
<!-- Node7 -->
<g id="Node000007" class="node">
<title>Node7</title>
<g id="a_Node000007"><a xlink:title=" ">
<polygon fill="#e0e0e0" stroke="#999999" points="553,-30 422,-30 422,0 553,0 553,-30"/>
<text text-anchor="start" x="430" y="-18" font-family="Helvetica,sans-Serif" font-size="10.00">domain_decomposition</text>
<text text-anchor="middle" x="487.5" y="-7" font-family="Helvetica,sans-Serif" font-size="10.00">/BlockDataID.h</text>
</a>
</g>
</g>
<!-- Node3&#45;&gt;Node7 -->
<g id="edge6_Node000003_Node000007" class="edge">
<title>Node3&#45;&gt;Node7</title>
<g id="a_edge6_Node000003_Node000007"><a xlink:title=" ">
<path fill="none" stroke="#63b8ff" d="M550.58,-65.87C540.82,-58.15 526.13,-46.54 513.38,-36.46"/>
<polygon fill="#63b8ff" stroke="#63b8ff" points="515.37,-33.57 505.35,-30.11 511.03,-39.06 515.37,-33.57"/>
</a>
</g>
</g>
<!-- Node8 -->
<g id="Node000008" class="node">
<title>Node8</title>
<g id="a_Node000008"><a xlink:title=" ">
<polygon fill="#e0e0e0" stroke="#999999" points="702,-30 571,-30 571,0 702,0 702,-30"/>
<text text-anchor="start" x="579" y="-18" font-family="Helvetica,sans-Serif" font-size="10.00">domain_decomposition</text>
<text text-anchor="middle" x="636.5" y="-7" font-family="Helvetica,sans-Serif" font-size="10.00">/IBlock.h</text>
</a>
</g>
</g>
<!-- Node3&#45;&gt;Node8 -->
<g id="edge7_Node000003_Node000008" class="edge">
<title>Node3&#45;&gt;Node8</title>
<g id="a_edge7_Node000003_Node000008"><a xlink:title=" ">
<path fill="none" stroke="#63b8ff" d="M572.57,-65.87C582.46,-58.15 597.35,-46.54 610.27,-36.46"/>
<polygon fill="#63b8ff" stroke="#63b8ff" points="612.67,-39.02 618.4,-30.11 608.37,-33.51 612.67,-39.02"/>
</a>
</g>
</g>
<!-- Node9 -->
<g id="Node000009" class="node">
<title>Node9</title>
<g id="a_Node000009"><a xlink:title=" ">
<polygon fill="#e0e0e0" stroke="#999999" points="814.5,-24.5 720.5,-24.5 720.5,-5.5 814.5,-5.5 814.5,-24.5"/>
<text text-anchor="middle" x="767.5" y="-12.5" font-family="Helvetica,sans-Serif" font-size="10.00">field/FlagField.h</text>
</a>
</g>
</g>
<!-- Node3&#45;&gt;Node9 -->
<g id="edge8_Node000003_Node000009" class="edge">
<title>Node3&#45;&gt;Node9</title>
<g id="a_edge8_Node000003_Node000009"><a xlink:title=" ">
<path fill="none" stroke="#63b8ff" d="M591.45,-65.99C627.46,-55.77 688,-38.58 727.85,-27.26"/>
<polygon fill="#63b8ff" stroke="#63b8ff" points="728.85,-30.62 737.51,-24.52 726.93,-23.88 728.85,-30.62"/>
</a>
</g>
</g>
<!-- Node10 -->
<g id="Node000010" class="node">
<title>Node10</title>
<g id="a_Node000010"><a xlink:title=" ">
<polygon fill="#e0e0e0" stroke="#999999" points="960.5,-24.5 832.5,-24.5 832.5,-5.5 960.5,-5.5 960.5,-24.5"/>
<text text-anchor="middle" x="896.5" y="-12.5" font-family="Helvetica,sans-Serif" font-size="10.00">field/GhostLayerField.h</text>
</a>
</g>
</g>
<!-- Node3&#45;&gt;Node10 -->
<g id="edge9_Node000003_Node000010" class="edge">
<title>Node3&#45;&gt;Node10</title>
<g id="a_edge9_Node000003_Node000010"><a xlink:title=" ">
<path fill="none" stroke="#63b8ff" d="M613.75,-65.96C666.67,-57.23 750.86,-43.13 823.5,-30 829.75,-28.87 836.3,-27.66 842.79,-26.43"/>
<polygon fill="#63b8ff" stroke="#63b8ff" points="843.74,-29.82 852.91,-24.52 842.43,-22.94 843.74,-29.82"/>
</a>
</g>
</g>
<!-- Node11 -->
<g id="Node000011" class="node">
<title>Node11</title>
<g id="a_Node000011"><a xlink:title=" ">
<polygon fill="#e0e0e0" stroke="#999999" points="1010.5,-24.5 978.5,-24.5 978.5,-5.5 1010.5,-5.5 1010.5,-24.5"/>
<text text-anchor="middle" x="994.5" y="-12.5" font-family="Helvetica,sans-Serif" font-size="10.00">set</text>
</a>
</g>
</g>
<!-- Node3&#45;&gt;Node11 -->
<g id="edge10_Node000003_Node000011" class="edge">
<title>Node3&#45;&gt;Node11</title>
<g id="a_edge10_Node000003_Node000011"><a xlink:title=" ">
<path fill="none" stroke="#63b8ff" d="M639.72,-66.78C753.81,-55.4 954.04,-34.95 969.5,-30 970.39,-29.71 971.29,-29.4 972.18,-29.05"/>
<polygon fill="#63b8ff" stroke="#63b8ff" points="973.96,-32.08 981.46,-24.6 970.93,-25.77 973.96,-32.08"/>
</a>
</g>
</g>
<!-- Node12 -->
<g id="Node000012" class="node">
<title>Node12</title>
<g id="a_Node000012"><a xlink:title=" ">
<polygon fill="#e0e0e0" stroke="#999999" points="1076,-24.5 1029,-24.5 1029,-5.5 1076,-5.5 1076,-24.5"/>
<text text-anchor="middle" x="1052.5" y="-12.5" font-family="Helvetica,sans-Serif" font-size="10.00">vector</text>
</a>
</g>
</g>
<!-- Node3&#45;&gt;Node12 -->
<g id="edge11_Node000003_Node000012" class="edge">
<title>Node3&#45;&gt;Node12</title>
<g id="a_edge11_Node000003_Node000012"><a xlink:title=" ">
<path fill="none" stroke="#63b8ff" d="M639.74,-66.94C770.25,-54.31 1018.36,-30.29 1019.5,-30 1021.45,-29.51 1023.42,-28.91 1025.4,-28.26"/>
<polygon fill="#63b8ff" stroke="#63b8ff" points="1026.94,-31.41 1035.03,-24.58 1024.44,-24.87 1026.94,-31.41"/>
</a>
</g>
</g>
</g>
</svg>

<g id="navigator" transform="translate(0 0)" fill="#404254">
  <rect fill="#f2f5e9" fill-opacity="0.5" stroke="#606060" stroke-width=".5" x="0" y="0" width="60" height="60"/>
  <use id="zoomplus" xlink:href="#zoomPlus" x="17" y="9" onmousedown="handleZoom(evt,'in')"/>
  <use id="zoomminus" xlink:href="#zoomMin" x="42" y="9" onmousedown="handleZoom(evt,'out')"/>
  <use id="reset" xlink:href="#resetDef" x="30" y="36" onmousedown="handleReset()"/>
   <use id="arrowup" xlink:href="#arrowUp" x="0" y="0" onmousedown="handlePan(0,-1)"/>
  <use id="arrowright" xlink:href="#arrowRight" x="0" y="0" onmousedown="handlePan(1,0)"/>
  <use id="arrowdown" xlink:href="#arrowDown" x="0" y="0" onmousedown="handlePan(0,1)"/>
  <use id="arrowleft" xlink:href="#arrowLeft" x="0" y="0" onmousedown="handlePan(-1,0)"/>
</g>
<svg viewBox="0 0 15 15" width="100%" height="30px" preserveAspectRatio="xMaxYMin meet">
 <g id="arrow_out" transform="scale(0.3 0.3)">
  <a xlink:href="FixedFlux__single__precision_8cpp__incl_org.svg" target="_base">
   <rect id="button" ry="5" rx="5" y="6" x="6" height="38" width="38"
        fill="#f2f5e9" fill-opacity="0.5" stroke="#606060" stroke-width="1.0"/>
   <path id="arrow"
     d="M 11.500037,31.436501 C 11.940474,20.09759 22.043105,11.32322 32.158766,21.979434 L 37.068811,17.246167 C 37.068811,17.246167 37.088388,32 37.088388,32 L 22.160133,31.978069 C 22.160133,31.978069 26.997745,27.140456 26.997745,27.140456 C 18.528582,18.264221 13.291696,25.230495 11.500037,31.436501 z"
     style="fill:#404040;"/>
  </a>
 </g>
</svg>

<style type='text/css'>
<![CDATA[
[data-mouse-over-selected='false'] { opacity: 0.7; }
[data-mouse-over-selected='true']  { opacity: 1.0; }
]]>
</style>
<script type="application/ecmascript"><![CDATA[
document.addEventListener('DOMContentLoaded', (event) => {
  highlightEdges();
  highlightAdjacentNodes();
});
]]></script>
</svg>
