<?xml version="1.0" encoding="UTF-8" standalone="no"?>
<!DOCTYPE svg PUBLIC "-//W3C//DTD SVG 1.1//EN"
 "http://www.w3.org/Graphics/SVG/1.1/DTD/svg11.dtd">
<!-- Generated by graphviz version 2.43.0 (0)
 -->
<!-- Title: h5md_core.hpp Pages: 1 -->
<svg width="385pt" height="140pt"
 viewBox="0.00 0.00 385.00 140.00" xmlns="http://www.w3.org/2000/svg" xmlns:xlink="http://www.w3.org/1999/xlink">
<g id="graph0" class="graph" transform="scale(1 1) rotate(0) translate(4 136)">
<title>h5md_core.hpp</title>
<!-- Node1 -->
<g id="node1" class="node">
<title>Node1</title>
<g id="a_node1"><a xlink:title=" ">
<polygon fill="#bfbfbf" stroke="black" points="129.5,-112.5 129.5,-131.5 221.5,-131.5 221.5,-112.5 129.5,-112.5"/>
<text text-anchor="middle" x="175.5" y="-119.5" font-family="Helvetica,sans-Serif" font-size="10.00">h5md_core.hpp</text>
</a>
</g>
</g>
<!-- Node2 -->
<g id="node2" class="node">
<title>Node2</title>
<g id="a_node2"><a xlink:href="h5md__core_8cpp.html" target="_top" xlink:title=" ">
<polygon fill="none" stroke="black" points="0,-56.5 0,-75.5 91,-75.5 91,-56.5 0,-56.5"/>
<text text-anchor="middle" x="45.5" y="-63.5" font-family="Helvetica,sans-Serif" font-size="10.00">h5md_core.cpp</text>
</a>
</g>
</g>
<!-- Node1&#45;&gt;Node2 -->
<g id="edge1" class="edge">
<title>Node1&#45;&gt;Node2</title>
<path fill="none" stroke="midnightblue" d="M145.41,-108.5C121.04,-98.38 87.36,-84.39 66,-75.52"/>
<polygon fill="midnightblue" stroke="midnightblue" points="144.32,-111.84 154.9,-112.44 147.01,-105.38 144.32,-111.84"/>
</g>
<!-- Node3 -->
<g id="node3" class="node">
<title>Node3</title>
<g id="a_node3"><a xlink:href="h5md__specification_8cpp.html" target="_top" xlink:title=" ">
<polygon fill="none" stroke="black" points="109.5,-56.5 109.5,-75.5 241.5,-75.5 241.5,-56.5 109.5,-56.5"/>
<text text-anchor="middle" x="175.5" y="-63.5" font-family="Helvetica,sans-Serif" font-size="10.00">h5md_specification.cpp</text>
</a>
</g>
</g>
<!-- Node1&#45;&gt;Node3 -->
<g id="edge2" class="edge">
<title>Node1&#45;&gt;Node3</title>
<path fill="none" stroke="midnightblue" d="M175.5,-101.8C175.5,-92.91 175.5,-82.78 175.5,-75.75"/>
<polygon fill="midnightblue" stroke="midnightblue" points="172,-102.08 175.5,-112.08 179,-102.08 172,-102.08"/>
</g>
<!-- Node4 -->
<g id="node4" class="node">
<title>Node4</title>
<g id="a_node4"><a xlink:href="h5md_8hpp.html" target="_top" xlink:title=" ">
<polygon fill="none" stroke="black" points="260,-56.5 260,-75.5 325,-75.5 325,-56.5 260,-56.5"/>
<text text-anchor="middle" x="292.5" y="-63.5" font-family="Helvetica,sans-Serif" font-size="10.00">h5md.hpp</text>
</a>
</g>
</g>
<!-- Node1&#45;&gt;Node4 -->
<g id="edge3" class="edge">
<title>Node1&#45;&gt;Node4</title>
<path fill="none" stroke="midnightblue" d="M203.16,-108.23C225.05,-98.13 255,-84.31 274.05,-75.52"/>
<polygon fill="midnightblue" stroke="midnightblue" points="201.65,-105.08 194.04,-112.44 204.59,-111.43 201.65,-105.08"/>
</g>
<!-- Node5 -->
<g id="node5" class="node">
<title>Node5</title>
<g id="a_node5"><a xlink:href="h5md_8cpp.html" target="_top" xlink:title=" ">
<polygon fill="none" stroke="black" points="215,-0.5 215,-19.5 280,-19.5 280,-0.5 215,-0.5"/>
<text text-anchor="middle" x="247.5" y="-7.5" font-family="Helvetica,sans-Serif" font-size="10.00">h5md.cpp</text>
</a>
</g>
</g>
<!-- Node4&#45;&gt;Node5 -->
<g id="edge4" class="edge">
<title>Node4&#45;&gt;Node5</title>
<path fill="none" stroke="midnightblue" d="M278.45,-48.14C270.61,-38.74 261.17,-27.4 254.79,-19.75"/>
<polygon fill="midnightblue" stroke="midnightblue" points="275.98,-50.64 285.07,-56.08 281.36,-46.16 275.98,-50.64"/>
</g>
<!-- Node6 -->
<g id="node6" class="node">
<title>Node6</title>
<g id="a_node6"><a xlink:href="h5md_2initialize_8cpp.html" target="_top" xlink:title=" ">
<polygon fill="none" stroke="black" points="298,-0.5 298,-19.5 377,-19.5 377,-0.5 298,-0.5"/>
<text text-anchor="middle" x="337.5" y="-7.5" font-family="Helvetica,sans-Serif" font-size="10.00">initialize.cpp</text>
</a>
</g>
</g>
<!-- Node4&#45;&gt;Node6 -->
<g id="edge5" class="edge">
<title>Node4&#45;&gt;Node6</title>
<path fill="none" stroke="midnightblue" d="M306.55,-48.14C314.39,-38.74 323.83,-27.4 330.21,-19.75"/>
<polygon fill="midnightblue" stroke="midnightblue" points="303.64,-46.16 299.93,-56.08 309.02,-50.64 303.64,-46.16"/>
</g>
</g>
</svg>
