<?xml version="1.0" encoding="UTF-8" standalone="no"?>
<!DOCTYPE svg PUBLIC "-//W3C//DTD SVG 1.1//EN"
 "http://www.w3.org/Graphics/SVG/1.1/DTD/svg11.dtd">
<!-- Generated by graphviz version 2.43.0 (0)
 -->
<!-- Title: harmonic.hpp Pages: 1 -->
<svg width="1910pt" height="269pt"
 viewBox="0.00 0.00 1909.77 269.00" xmlns="http://www.w3.org/2000/svg" xmlns:xlink="http://www.w3.org/1999/xlink">
<g id="graph0" class="graph" transform="scale(1 1) rotate(0) translate(4 265)">
<title>harmonic.hpp</title>
<!-- Node1 -->
<g id="Node000001" class="node">
<title>Node1</title>
<g id="a_Node000001"><a xlink:title="Routines to calculate the harmonic bond potential between particle pairs.">
<polygon fill="#999999" stroke="#666666" points="1167,-261 1084,-261 1084,-242 1167,-242 1167,-261"/>
<text text-anchor="middle" x="1125.5" y="-249" font-family="Helvetica,sans-Serif" font-size="10.00">harmonic.hpp</text>
</a>
</g>
</g>
<!-- Node2 -->
<g id="Node000002" class="node">
<title>Node2</title>
<g id="a_Node000002"><a xlink:href="config_8hpp.html" target="_top" xlink:title=" ">
<polygon fill="white" stroke="#666666" points="225,-145.5 126,-145.5 126,-126.5 225,-126.5 225,-145.5"/>
<text text-anchor="middle" x="175.5" y="-133.5" font-family="Helvetica,sans-Serif" font-size="10.00">config/config.hpp</text>
</a>
</g>
</g>
<!-- Node1&#45;&gt;Node2 -->
<g id="edge1_Node000001_Node000002" class="edge">
<title>Node1&#45;&gt;Node2</title>
<g id="a_edge1_Node000001_Node000002"><a xlink:title=" ">
<path fill="none" stroke="#63b8ff" d="M1083.52,-249.53C946.29,-246.11 511.88,-233.35 374.5,-206 311.79,-193.52 241.89,-165.89 203.89,-149.64"/>
<polygon fill="#63b8ff" stroke="#63b8ff" points="205.07,-146.33 194.5,-145.57 202.29,-152.75 205.07,-146.33"/>
</a>
</g>
</g>
<!-- Node5 -->
<g id="Node000005" class="node">
<title>Node5</title>
<g id="a_Node000005"><a xlink:href="errorhandling_8hpp.html" target="_top" xlink:title="This file contains the errorhandling code for severe errors, like a broken bond or illegal parameter ...">
<polygon fill="white" stroke="#666666" points="487,-206 384,-206 384,-187 487,-187 487,-206"/>
<text text-anchor="middle" x="435.5" y="-194" font-family="Helvetica,sans-Serif" font-size="10.00">errorhandling.hpp</text>
</a>
</g>
</g>
<!-- Node1&#45;&gt;Node5 -->
<g id="edge4_Node000001_Node000005" class="edge">
<title>Node1&#45;&gt;Node5</title>
<g id="a_edge4_Node000001_Node000005"><a xlink:title=" ">
<path fill="none" stroke="#63b8ff" d="M1083.89,-247.3C967.06,-238.33 635.56,-212.87 497.27,-202.24"/>
<polygon fill="#63b8ff" stroke="#63b8ff" points="497.5,-198.75 487.26,-201.48 496.96,-205.73 497.5,-198.75"/>
</a>
</g>
</g>
<!-- Node15 -->
<g id="Node000015" class="node">
<title>Node15</title>
<g id="a_Node000015"><a xlink:href="Vector_8hpp.html" target="_top" xlink:title="Vector implementation and trait types for boost qvm interoperability.">
<polygon fill="white" stroke="#666666" points="1171.5,-206 1079.5,-206 1079.5,-187 1171.5,-187 1171.5,-206"/>
<text text-anchor="middle" x="1125.5" y="-194" font-family="Helvetica,sans-Serif" font-size="10.00">utils/Vector.hpp</text>
</a>
</g>
</g>
<!-- Node1&#45;&gt;Node15 -->
<g id="edge18_Node000001_Node000015" class="edge">
<title>Node1&#45;&gt;Node15</title>
<g id="a_edge18_Node000001_Node000015"><a xlink:title=" ">
<path fill="none" stroke="#63b8ff" d="M1125.5,-241.75C1125.5,-234.8 1125.5,-224.85 1125.5,-216.13"/>
<polygon fill="#63b8ff" stroke="#63b8ff" points="1129,-216.09 1125.5,-206.09 1122,-216.09 1129,-216.09"/>
</a>
</g>
</g>
<!-- Node44 -->
<g id="Node000044" class="node">
<title>Node44</title>
<g id="a_Node000044"><a xlink:href="sqr_8hpp.html" target="_top" xlink:title=" ">
<polygon fill="white" stroke="#666666" points="1293.5,-206 1189.5,-206 1189.5,-187 1293.5,-187 1293.5,-206"/>
<text text-anchor="middle" x="1241.5" y="-194" font-family="Helvetica,sans-Serif" font-size="10.00">utils/math/sqr.hpp</text>
</a>
</g>
</g>
<!-- Node1&#45;&gt;Node44 -->
<g id="edge55_Node000001_Node000044" class="edge">
<title>Node1&#45;&gt;Node44</title>
<g id="a_edge55_Node000001_Node000044"><a xlink:title=" ">
<path fill="none" stroke="#63b8ff" d="M1144.14,-241.98C1162.8,-233.46 1191.75,-220.23 1213.24,-210.41"/>
<polygon fill="#63b8ff" stroke="#63b8ff" points="1214.88,-213.51 1222.52,-206.17 1211.97,-207.14 1214.88,-213.51"/>
</a>
</g>
</g>
<!-- Node45 -->
<g id="Node000045" class="node">
<title>Node45</title>
<g id="a_Node000045"><a xlink:title=" ">
<polygon fill="#e0e0e0" stroke="#999999" points="1367.5,-206 1311.5,-206 1311.5,-187 1367.5,-187 1367.5,-206"/>
<text text-anchor="middle" x="1339.5" y="-194" font-family="Helvetica,sans-Serif" font-size="10.00">optional</text>
</a>
</g>
</g>
<!-- Node1&#45;&gt;Node45 -->
<g id="edge57_Node000001_Node000045" class="edge">
<title>Node1&#45;&gt;Node45</title>
<g id="a_edge57_Node000001_Node000045"><a xlink:title=" ">
<path fill="none" stroke="#63b8ff" d="M1159.88,-241.98C1198.58,-232.4 1261.26,-216.88 1301.41,-206.93"/>
<polygon fill="#63b8ff" stroke="#63b8ff" points="1302.49,-210.27 1311.35,-204.47 1300.8,-203.48 1302.49,-210.27"/>
</a>
</g>
</g>
<!-- Node3 -->
<g id="Node000003" class="node">
<title>Node3</title>
<g id="a_Node000003"><a xlink:title=" ">
<polygon fill="#e0e0e0" stroke="#999999" points="143,-85 0,-85 0,-66 143,-66 143,-85"/>
<text text-anchor="middle" x="71.5" y="-73" font-family="Helvetica,sans-Serif" font-size="10.00">config/config&#45;features.hpp</text>
</a>
</g>
</g>
<!-- Node2&#45;&gt;Node3 -->
<g id="edge2_Node000002_Node000003" class="edge">
<title>Node2&#45;&gt;Node3</title>
<g id="a_edge2_Node000002_Node000003"><a xlink:title=" ">
<path fill="none" stroke="#63b8ff" d="M160.15,-126.37C143.18,-116.82 115.6,-101.31 95.71,-90.12"/>
<polygon fill="#63b8ff" stroke="#63b8ff" points="97.34,-87.02 86.91,-85.17 93.91,-93.12 97.34,-87.02"/>
</a>
</g>
</g>
<!-- Node4 -->
<g id="Node000004" class="node">
<title>Node4</title>
<g id="a_Node000004"><a xlink:title=" ">
<polygon fill="#e0e0e0" stroke="#999999" points="214,-85 161,-85 161,-66 214,-66 214,-85"/>
<text text-anchor="middle" x="187.5" y="-73" font-family="Helvetica,sans-Serif" font-size="10.00">version</text>
</a>
</g>
</g>
<!-- Node2&#45;&gt;Node4 -->
<g id="edge3_Node000002_Node000004" class="edge">
<title>Node2&#45;&gt;Node4</title>
<g id="a_edge3_Node000002_Node000004"><a xlink:title=" ">
<path fill="none" stroke="#63b8ff" d="M177.27,-126.37C178.95,-118.16 181.54,-105.54 183.69,-95.05"/>
<polygon fill="#63b8ff" stroke="#63b8ff" points="187.14,-95.67 185.72,-85.17 180.28,-94.26 187.14,-95.67"/>
</a>
</g>
</g>
<!-- Node5&#45;&gt;Node2 -->
<g id="edge5_Node000005_Node000002" class="edge">
<title>Node5&#45;&gt;Node2</title>
<g id="a_edge5_Node000005_Node000002"><a xlink:title=" ">
<path fill="none" stroke="#63b8ff" d="M397.69,-186.99C351.58,-176.62 273.57,-159.07 223.32,-147.76"/>
<polygon fill="#63b8ff" stroke="#63b8ff" points="223.88,-144.3 213.35,-145.52 222.34,-151.13 223.88,-144.3"/>
</a>
</g>
</g>
<!-- Node6 -->
<g id="Node000006" class="node">
<title>Node6</title>
<g id="a_Node000006"><a xlink:href="RuntimeError_8hpp.html" target="_top" xlink:title=" ">
<polygon fill="white" stroke="#666666" points="628,-85 453,-85 453,-66 628,-66 628,-85"/>
<text text-anchor="middle" x="540.5" y="-73" font-family="Helvetica,sans-Serif" font-size="10.00">error_handling/RuntimeError.hpp</text>
</a>
</g>
</g>
<!-- Node5&#45;&gt;Node6 -->
<g id="edge6_Node000005_Node000006" class="edge">
<title>Node5&#45;&gt;Node6</title>
<g id="a_edge6_Node000005_Node000006"><a xlink:title=" ">
<path fill="none" stroke="#63b8ff" d="M466.36,-186.98C485.25,-180.21 508.43,-168.85 522.5,-151 534.96,-135.19 538.98,-112.05 540.18,-95.76"/>
<polygon fill="#63b8ff" stroke="#63b8ff" points="543.7,-95.46 540.64,-85.32 536.71,-95.16 543.7,-95.46"/>
</a>
</g>
</g>
<!-- Node9 -->
<g id="Node000009" class="node">
<title>Node9</title>
<g id="a_Node000009"><a xlink:title=" ">
<polygon fill="#e0e0e0" stroke="#999999" points="343.5,-24.5 299.5,-24.5 299.5,-5.5 343.5,-5.5 343.5,-24.5"/>
<text text-anchor="middle" x="321.5" y="-12.5" font-family="Helvetica,sans-Serif" font-size="10.00">string</text>
</a>
</g>
</g>
<!-- Node5&#45;&gt;Node9 -->
<g id="edge16_Node000005_Node000009" class="edge">
<title>Node5&#45;&gt;Node9</title>
<g id="a_edge16_Node000005_Node000009"><a xlink:title=" ">
<path fill="none" stroke="#63b8ff" d="M383.77,-188.28C341.32,-181.17 286.07,-168.78 272.5,-151 244.37,-114.16 282.93,-59.65 306.16,-32.54"/>
<polygon fill="#63b8ff" stroke="#63b8ff" points="309.04,-34.57 313.06,-24.77 303.8,-29.92 309.04,-34.57"/>
</a>
</g>
</g>
<!-- Node11 -->
<g id="Node000011" class="node">
<title>Node11</title>
<g id="a_Node000011"><a xlink:href="RuntimeErrorStream_8hpp.html" target="_top" xlink:title=" ">
<polygon fill="white" stroke="#666666" points="513,-151 358,-151 358,-121 513,-121 513,-151"/>
<text text-anchor="start" x="366" y="-139" font-family="Helvetica,sans-Serif" font-size="10.00">error_handling/RuntimeError</text>
<text text-anchor="middle" x="435.5" y="-128" font-family="Helvetica,sans-Serif" font-size="10.00">Stream.hpp</text>
</a>
</g>
</g>
<!-- Node5&#45;&gt;Node11 -->
<g id="edge11_Node000005_Node000011" class="edge">
<title>Node5&#45;&gt;Node11</title>
<g id="a_edge11_Node000005_Node000011"><a xlink:title=" ">
<path fill="none" stroke="#63b8ff" d="M435.5,-186.87C435.5,-180.11 435.5,-170.35 435.5,-161.26"/>
<polygon fill="#63b8ff" stroke="#63b8ff" points="439,-161.11 435.5,-151.11 432,-161.11 439,-161.11"/>
</a>
</g>
</g>
<!-- Node13 -->
<g id="Node000013" class="node">
<title>Node13</title>
<g id="a_Node000013"><a xlink:title=" ">
<polygon fill="#e0e0e0" stroke="#999999" points="339.5,-145.5 281.5,-145.5 281.5,-126.5 339.5,-126.5 339.5,-145.5"/>
<text text-anchor="middle" x="310.5" y="-133.5" font-family="Helvetica,sans-Serif" font-size="10.00">memory</text>
</a>
</g>
</g>
<!-- Node5&#45;&gt;Node13 -->
<g id="edge15_Node000005_Node000013" class="edge">
<title>Node5&#45;&gt;Node13</title>
<g id="a_edge15_Node000005_Node000013"><a xlink:title=" ">
<path fill="none" stroke="#63b8ff" d="M417.32,-186.99C396.49,-177.25 362.13,-161.16 338.02,-149.88"/>
<polygon fill="#63b8ff" stroke="#63b8ff" points="339.24,-146.59 328.7,-145.52 336.27,-152.93 339.24,-146.59"/>
</a>
</g>
</g>
<!-- Node14 -->
<g id="Node000014" class="node">
<title>Node14</title>
<g id="a_Node000014"><a xlink:title=" ">
<polygon fill="#e0e0e0" stroke="#999999" points="617,-145.5 570,-145.5 570,-126.5 617,-126.5 617,-145.5"/>
<text text-anchor="middle" x="593.5" y="-133.5" font-family="Helvetica,sans-Serif" font-size="10.00">vector</text>
</a>
</g>
</g>
<!-- Node5&#45;&gt;Node14 -->
<g id="edge17_Node000005_Node000014" class="edge">
<title>Node5&#45;&gt;Node14</title>
<g id="a_edge17_Node000005_Node000014"><a xlink:title=" ">
<path fill="none" stroke="#63b8ff" d="M458.47,-186.99C485.39,-177.03 530.17,-160.45 560.73,-149.13"/>
<polygon fill="#63b8ff" stroke="#63b8ff" points="562.34,-152.27 570.5,-145.52 559.9,-145.71 562.34,-152.27"/>
</a>
</g>
</g>
<!-- Node7 -->
<g id="Node000007" class="node">
<title>Node7</title>
<g id="a_Node000007"><a xlink:title=" ">
<polygon fill="#e0e0e0" stroke="#999999" points="594,-30 487,-30 487,0 594,0 594,-30"/>
<text text-anchor="start" x="495" y="-18" font-family="Helvetica,sans-Serif" font-size="10.00">boost/serialization</text>
<text text-anchor="middle" x="540.5" y="-7" font-family="Helvetica,sans-Serif" font-size="10.00">/access.hpp</text>
</a>
</g>
</g>
<!-- Node6&#45;&gt;Node7 -->
<g id="edge7_Node000006_Node000007" class="edge">
<title>Node6&#45;&gt;Node7</title>
<g id="a_edge7_Node000006_Node000007"><a xlink:title=" ">
<path fill="none" stroke="#63b8ff" d="M540.5,-65.87C540.5,-59.11 540.5,-49.35 540.5,-40.26"/>
<polygon fill="#63b8ff" stroke="#63b8ff" points="544,-40.11 540.5,-30.11 537,-40.11 544,-40.11"/>
</a>
</g>
</g>
<!-- Node8 -->
<g id="Node000008" class="node">
<title>Node8</title>
<g id="a_Node000008"><a xlink:title=" ">
<polygon fill="#e0e0e0" stroke="#999999" points="469,-30 362,-30 362,0 469,0 469,-30"/>
<text text-anchor="start" x="370" y="-18" font-family="Helvetica,sans-Serif" font-size="10.00">boost/serialization</text>
<text text-anchor="middle" x="415.5" y="-7" font-family="Helvetica,sans-Serif" font-size="10.00">/string.hpp</text>
</a>
</g>
</g>
<!-- Node6&#45;&gt;Node8 -->
<g id="edge8_Node000006_Node000008" class="edge">
<title>Node6&#45;&gt;Node8</title>
<g id="a_edge8_Node000006_Node000008"><a xlink:title=" ">
<path fill="none" stroke="#63b8ff" d="M522.32,-65.99C504.79,-57.79 477.66,-45.09 455.13,-34.55"/>
<polygon fill="#63b8ff" stroke="#63b8ff" points="456.33,-31.25 445.79,-30.18 453.37,-37.59 456.33,-31.25"/>
</a>
</g>
</g>
<!-- Node6&#45;&gt;Node9 -->
<g id="edge9_Node000006_Node000009" class="edge">
<title>Node6&#45;&gt;Node9</title>
<g id="a_edge9_Node000006_Node000009"><a xlink:title=" ">
<path fill="none" stroke="#63b8ff" d="M494.52,-65.95C456.26,-58.27 400.65,-45.78 353.5,-30 352.06,-29.52 350.6,-29 349.13,-28.45"/>
<polygon fill="#63b8ff" stroke="#63b8ff" points="350.14,-25.08 339.56,-24.57 347.51,-31.57 350.14,-25.08"/>
</a>
</g>
</g>
<!-- Node10 -->
<g id="Node000010" class="node">
<title>Node10</title>
<g id="a_Node000010"><a xlink:title=" ">
<polygon fill="#e0e0e0" stroke="#999999" points="657,-24.5 612,-24.5 612,-5.5 657,-5.5 657,-24.5"/>
<text text-anchor="middle" x="634.5" y="-12.5" font-family="Helvetica,sans-Serif" font-size="10.00">utility</text>
</a>
</g>
</g>
<!-- Node6&#45;&gt;Node10 -->
<g id="edge10_Node000006_Node000010" class="edge">
<title>Node6&#45;&gt;Node10</title>
<g id="a_edge10_Node000006_Node000010"><a xlink:title=" ">
<path fill="none" stroke="#63b8ff" d="M554.37,-65.87C569.5,-56.45 593.96,-41.23 611.88,-30.08"/>
<polygon fill="#63b8ff" stroke="#63b8ff" points="613.93,-32.92 620.57,-24.67 610.23,-26.98 613.93,-32.92"/>
</a>
</g>
</g>
<!-- Node11&#45;&gt;Node6 -->
<g id="edge12_Node000011_Node000006" class="edge">
<title>Node11&#45;&gt;Node6</title>
<g id="a_edge12_Node000011_Node000006"><a xlink:title=" ">
<path fill="none" stroke="#63b8ff" d="M460.65,-120.99C477.39,-111.66 499.27,-99.47 515.89,-90.21"/>
<polygon fill="#63b8ff" stroke="#63b8ff" points="517.96,-93.06 524.99,-85.14 514.55,-86.95 517.96,-93.06"/>
</a>
</g>
</g>
<!-- Node11&#45;&gt;Node9 -->
<g id="edge14_Node000011_Node000009" class="edge">
<title>Node11&#45;&gt;Node9</title>
<g id="a_edge14_Node000011_Node000009"><a xlink:title=" ">
<path fill="none" stroke="#63b8ff" d="M432.15,-120.9C427.99,-105.87 419.66,-82.08 405.5,-66 396.95,-56.29 368.8,-40.42 347.42,-29.16"/>
<polygon fill="#63b8ff" stroke="#63b8ff" points="348.95,-26.01 338.46,-24.5 345.72,-32.22 348.95,-26.01"/>
</a>
</g>
</g>
<!-- Node12 -->
<g id="Node000012" class="node">
<title>Node12</title>
<g id="a_Node000012"><a xlink:title=" ">
<polygon fill="#e0e0e0" stroke="#999999" points="396.5,-85 340.5,-85 340.5,-66 396.5,-66 396.5,-85"/>
<text text-anchor="middle" x="368.5" y="-73" font-family="Helvetica,sans-Serif" font-size="10.00">sstream</text>
</a>
</g>
</g>
<!-- Node11&#45;&gt;Node12 -->
<g id="edge13_Node000011_Node000012" class="edge">
<title>Node11&#45;&gt;Node12</title>
<g id="a_edge13_Node000011_Node000012"><a xlink:title=" ">
<path fill="none" stroke="#63b8ff" d="M419.28,-120.84C409.26,-112.09 396.39,-100.85 386.12,-91.88"/>
<polygon fill="#63b8ff" stroke="#63b8ff" points="388.37,-89.21 378.54,-85.27 383.77,-94.48 388.37,-89.21"/>
</a>
</g>
</g>
<!-- Node15&#45;&gt;Node14 -->
<g id="edge54_Node000015_Node000014" class="edge">
<title>Node15&#45;&gt;Node14</title>
<g id="a_edge54_Node000015_Node000014"><a xlink:title=" ">
<path fill="none" stroke="#63b8ff" d="M1079.3,-196.14C990.27,-196.34 789.35,-191.73 626.5,-151 624.55,-150.51 622.57,-149.93 620.6,-149.27"/>
<polygon fill="#63b8ff" stroke="#63b8ff" points="621.55,-145.89 610.96,-145.6 619.06,-152.43 621.55,-145.89"/>
</a>
</g>
</g>
<!-- Node16 -->
<g id="Node000016" class="node">
<title>Node16</title>
<g id="a_Node000016"><a xlink:title=" ">
<polygon fill="#e0e0e0" stroke="#999999" points="1400.5,-145.5 1250.5,-145.5 1250.5,-126.5 1400.5,-126.5 1400.5,-145.5"/>
<text text-anchor="middle" x="1325.5" y="-133.5" font-family="Helvetica,sans-Serif" font-size="10.00">boost/qvm/deduce_vec.hpp</text>
</a>
</g>
</g>
<!-- Node15&#45;&gt;Node16 -->
<g id="edge19_Node000015_Node000016" class="edge">
<title>Node15&#45;&gt;Node16</title>
<g id="a_edge19_Node000015_Node000016"><a xlink:title=" ">
<path fill="none" stroke="#63b8ff" d="M1154.58,-186.99C1189.39,-176.81 1247.82,-159.72 1286.51,-148.4"/>
<polygon fill="#63b8ff" stroke="#63b8ff" points="1287.77,-151.68 1296.38,-145.52 1285.8,-144.96 1287.77,-151.68"/>
</a>
</g>
</g>
<!-- Node17 -->
<g id="Node000017" class="node">
<title>Node17</title>
<g id="a_Node000017"><a xlink:title=" ">
<polygon fill="#e0e0e0" stroke="#999999" points="1558.5,-145.5 1418.5,-145.5 1418.5,-126.5 1558.5,-126.5 1558.5,-145.5"/>
<text text-anchor="middle" x="1488.5" y="-133.5" font-family="Helvetica,sans-Serif" font-size="10.00">boost/qvm/vec_traits.hpp</text>
</a>
</g>
</g>
<!-- Node15&#45;&gt;Node17 -->
<g id="edge20_Node000015_Node000017" class="edge">
<title>Node15&#45;&gt;Node17</title>
<g id="a_edge20_Node000015_Node000017"><a xlink:title=" ">
<path fill="none" stroke="#63b8ff" d="M1171.56,-188.34C1245.93,-176.76 1386.52,-154.84 1409.5,-151 1416.58,-149.82 1424.02,-148.54 1431.38,-147.26"/>
<polygon fill="#63b8ff" stroke="#63b8ff" points="1432.08,-150.69 1441.32,-145.52 1430.87,-143.8 1432.08,-150.69"/>
</a>
</g>
</g>
<!-- Node18 -->
<g id="Node000018" class="node">
<title>Node18</title>
<g id="a_Node000018"><a xlink:href="Array_8hpp.html" target="_top" xlink:title="Array implementation with CUDA support.">
<polygon fill="white" stroke="#666666" points="1662.5,-145.5 1576.5,-145.5 1576.5,-126.5 1662.5,-126.5 1662.5,-145.5"/>
<text text-anchor="middle" x="1619.5" y="-133.5" font-family="Helvetica,sans-Serif" font-size="10.00">utils/Array.hpp</text>
</a>
</g>
</g>
<!-- Node15&#45;&gt;Node18 -->
<g id="edge21_Node000015_Node000018" class="edge">
<title>Node15&#45;&gt;Node18</title>
<g id="a_edge21_Node000015_Node000018"><a xlink:title=" ">
<path fill="none" stroke="#63b8ff" d="M1171.69,-188.15C1174.67,-187.74 1177.62,-187.36 1180.5,-187 1351.94,-165.8 1397.48,-181.56 1567.5,-151 1572.02,-150.19 1576.72,-149.17 1581.37,-148.06"/>
<polygon fill="#63b8ff" stroke="#63b8ff" points="1582.53,-151.37 1591.36,-145.51 1580.81,-144.59 1582.53,-151.37"/>
</a>
</g>
</g>
<!-- Node20 -->
<g id="Node000020" class="node">
<title>Node20</title>
<g id="a_Node000020"><a xlink:title=" ">
<polygon fill="#e0e0e0" stroke="#999999" points="1886.5,-24.5 1834.5,-24.5 1834.5,-5.5 1886.5,-5.5 1886.5,-24.5"/>
<text text-anchor="middle" x="1860.5" y="-12.5" font-family="Helvetica,sans-Serif" font-size="10.00">cassert</text>
</a>
</g>
</g>
<!-- Node15&#45;&gt;Node20 -->
<g id="edge43_Node000015_Node000020" class="edge">
<title>Node15&#45;&gt;Node20</title>
<g id="a_edge43_Node000015_Node000020"><a xlink:title=" ">
<path fill="none" stroke="#63b8ff" d="M1171.67,-188.03C1174.65,-187.65 1177.62,-187.3 1180.5,-187 1253.66,-179.37 1775.34,-183.13 1841.5,-151 1876.63,-133.94 1885.73,-121.54 1899.5,-85 1906.8,-65.63 1892.05,-45.19 1878.64,-31.63"/>
<polygon fill="#63b8ff" stroke="#63b8ff" points="1880.76,-28.82 1871.08,-24.51 1875.96,-33.91 1880.76,-28.82"/>
</a>
</g>
</g>
<!-- Node30 -->
<g id="Node000030" class="node">
<title>Node30</title>
<g id="a_Node000030"><a xlink:title=" ">
<polygon fill="#e0e0e0" stroke="#999999" points="1816,-24.5 1763,-24.5 1763,-5.5 1816,-5.5 1816,-24.5"/>
<text text-anchor="middle" x="1789.5" y="-12.5" font-family="Helvetica,sans-Serif" font-size="10.00">cstddef</text>
</a>
</g>
</g>
<!-- Node15&#45;&gt;Node30 -->
<g id="edge46_Node000015_Node000030" class="edge">
<title>Node15&#45;&gt;Node30</title>
<g id="a_edge46_Node000015_Node000030"><a xlink:title=" ">
<path fill="none" stroke="#63b8ff" d="M1171.68,-188.08C1174.66,-187.69 1177.62,-187.32 1180.5,-187 1294.07,-174.26 1593.84,-206.92 1693.5,-151 1717.81,-137.36 1760.35,-66.96 1779.58,-33.59"/>
<polygon fill="#63b8ff" stroke="#63b8ff" points="1782.63,-35.3 1784.55,-24.88 1776.55,-31.83 1782.63,-35.3"/>
</a>
</g>
</g>
<!-- Node31 -->
<g id="Node000031" class="node">
<title>Node31</title>
<g id="a_Node000031"><a xlink:title=" ">
<polygon fill="#e0e0e0" stroke="#999999" points="1720,-85 1667,-85 1667,-66 1720,-66 1720,-85"/>
<text text-anchor="middle" x="1693.5" y="-73" font-family="Helvetica,sans-Serif" font-size="10.00">iterator</text>
</a>
</g>
</g>
<!-- Node15&#45;&gt;Node31 -->
<g id="edge49_Node000015_Node000031" class="edge">
<title>Node15&#45;&gt;Node31</title>
<g id="a_edge49_Node000015_Node000031"><a xlink:title=" ">
<path fill="none" stroke="#63b8ff" d="M1171.68,-188.09C1174.66,-187.7 1177.62,-187.33 1180.5,-187 1234.85,-180.82 1628.91,-185.33 1671.5,-151 1688.04,-137.67 1692.55,-112.54 1693.58,-95.18"/>
<polygon fill="#63b8ff" stroke="#63b8ff" points="1697.08,-95.18 1693.84,-85.09 1690.08,-95 1697.08,-95.18"/>
</a>
</g>
</g>
<!-- Node35 -->
<g id="Node000035" class="node">
<title>Node35</title>
<g id="a_Node000035"><a xlink:title=" ">
<polygon fill="#e0e0e0" stroke="#999999" points="1832.5,-145.5 1768.5,-145.5 1768.5,-126.5 1832.5,-126.5 1832.5,-145.5"/>
<text text-anchor="middle" x="1800.5" y="-133.5" font-family="Helvetica,sans-Serif" font-size="10.00">algorithm</text>
</a>
</g>
</g>
<!-- Node15&#45;&gt;Node35 -->
<g id="edge42_Node000015_Node000035" class="edge">
<title>Node15&#45;&gt;Node35</title>
<g id="a_edge42_Node000015_Node000035"><a xlink:title=" ">
<path fill="none" stroke="#63b8ff" d="M1171.67,-188.05C1174.66,-187.67 1177.62,-187.31 1180.5,-187 1434.62,-159.45 1502.97,-196.52 1754.5,-151 1758.36,-150.3 1762.36,-149.39 1766.31,-148.36"/>
<polygon fill="#63b8ff" stroke="#63b8ff" points="1767.27,-151.73 1775.93,-145.63 1765.36,-144.99 1767.27,-151.73"/>
</a>
</g>
</g>
<!-- Node36 -->
<g id="Node000036" class="node">
<title>Node36</title>
<g id="a_Node000036"><a xlink:title=" ">
<polygon fill="#e0e0e0" stroke="#999999" points="682,-145.5 635,-145.5 635,-126.5 682,-126.5 682,-145.5"/>
<text text-anchor="middle" x="658.5" y="-133.5" font-family="Helvetica,sans-Serif" font-size="10.00">cmath</text>
</a>
</g>
</g>
<!-- Node15&#45;&gt;Node36 -->
<g id="edge44_Node000015_Node000036" class="edge">
<title>Node15&#45;&gt;Node36</title>
<g id="a_edge44_Node000015_Node000036"><a xlink:title=" ">
<path fill="none" stroke="#63b8ff" d="M1079.41,-195.26C999.27,-193.86 829.59,-186.51 691.5,-151 689.56,-150.5 687.58,-149.9 685.61,-149.24"/>
<polygon fill="#63b8ff" stroke="#63b8ff" points="686.56,-145.86 675.97,-145.56 684.06,-152.4 686.56,-145.86"/>
</a>
</g>
</g>
<!-- Node37 -->
<g id="Node000037" class="node">
<title>Node37</title>
<g id="a_Node000037"><a xlink:title=" ">
<polygon fill="#e0e0e0" stroke="#999999" points="760.5,-145.5 700.5,-145.5 700.5,-126.5 760.5,-126.5 760.5,-145.5"/>
<text text-anchor="middle" x="730.5" y="-133.5" font-family="Helvetica,sans-Serif" font-size="10.00">concepts</text>
</a>
</g>
</g>
<!-- Node15&#45;&gt;Node37 -->
<g id="edge45_Node000015_Node000037" class="edge">
<title>Node15&#45;&gt;Node37</title>
<g id="a_edge45_Node000015_Node000037"><a xlink:title=" ">
<path fill="none" stroke="#63b8ff" d="M1079.28,-192.84C1011,-188.21 879.5,-176.6 770.5,-151 767.68,-150.34 764.78,-149.55 761.89,-148.69"/>
<polygon fill="#63b8ff" stroke="#63b8ff" points="762.85,-145.32 752.26,-145.55 760.69,-151.97 762.85,-145.32"/>
</a>
</g>
</g>
<!-- Node38 -->
<g id="Node000038" class="node">
<title>Node38</title>
<g id="a_Node000038"><a xlink:title=" ">
<polygon fill="#e0e0e0" stroke="#999999" points="844,-145.5 779,-145.5 779,-126.5 844,-126.5 844,-145.5"/>
<text text-anchor="middle" x="811.5" y="-133.5" font-family="Helvetica,sans-Serif" font-size="10.00">functional</text>
</a>
</g>
</g>
<!-- Node15&#45;&gt;Node38 -->
<g id="edge47_Node000015_Node000038" class="edge">
<title>Node15&#45;&gt;Node38</title>
<g id="a_edge47_Node000015_Node000038"><a xlink:title=" ">
<path fill="none" stroke="#63b8ff" d="M1079.33,-190.23C1024.85,-183.48 931.78,-170.32 853.5,-151 850.54,-150.27 847.48,-149.43 844.43,-148.53"/>
<polygon fill="#63b8ff" stroke="#63b8ff" points="845.44,-145.18 834.85,-145.52 843.34,-151.85 845.44,-145.18"/>
</a>
</g>
</g>
<!-- Node39 -->
<g id="Node000039" class="node">
<title>Node39</title>
<g id="a_Node000039"><a xlink:title=" ">
<polygon fill="#e0e0e0" stroke="#999999" points="945,-145.5 862,-145.5 862,-126.5 945,-126.5 945,-145.5"/>
<text text-anchor="middle" x="903.5" y="-133.5" font-family="Helvetica,sans-Serif" font-size="10.00">initializer_list</text>
</a>
</g>
</g>
<!-- Node15&#45;&gt;Node39 -->
<g id="edge48_Node000015_Node000039" class="edge">
<title>Node15&#45;&gt;Node39</title>
<g id="a_edge48_Node000015_Node000039"><a xlink:title=" ">
<path fill="none" stroke="#63b8ff" d="M1092.04,-186.93C1057.55,-178.07 1002.21,-163.76 954.5,-151 951.12,-150.1 947.61,-149.15 944.09,-148.19"/>
<polygon fill="#63b8ff" stroke="#63b8ff" points="944.8,-144.76 934.23,-145.51 942.95,-151.51 944.8,-144.76"/>
</a>
</g>
</g>
<!-- Node40 -->
<g id="Node000040" class="node">
<title>Node40</title>
<g id="a_Node000040"><a xlink:title=" ">
<polygon fill="#e0e0e0" stroke="#999999" points="1019.5,-145.5 963.5,-145.5 963.5,-126.5 1019.5,-126.5 1019.5,-145.5"/>
<text text-anchor="middle" x="991.5" y="-133.5" font-family="Helvetica,sans-Serif" font-size="10.00">numeric</text>
</a>
</g>
</g>
<!-- Node15&#45;&gt;Node40 -->
<g id="edge50_Node000015_Node000040" class="edge">
<title>Node15&#45;&gt;Node40</title>
<g id="a_edge50_Node000015_Node000040"><a xlink:title=" ">
<path fill="none" stroke="#63b8ff" d="M1106.02,-186.99C1083.49,-177.16 1046.19,-160.88 1020.31,-149.58"/>
<polygon fill="#63b8ff" stroke="#63b8ff" points="1021.57,-146.31 1011.01,-145.52 1018.77,-152.73 1021.57,-146.31"/>
</a>
</g>
</g>
<!-- Node41 -->
<g id="Node000041" class="node">
<title>Node41</title>
<g id="a_Node000041"><a xlink:title=" ">
<polygon fill="#e0e0e0" stroke="#999999" points="1087.5,-145.5 1037.5,-145.5 1037.5,-126.5 1087.5,-126.5 1087.5,-145.5"/>
<text text-anchor="middle" x="1062.5" y="-133.5" font-family="Helvetica,sans-Serif" font-size="10.00">ranges</text>
</a>
</g>
</g>
<!-- Node15&#45;&gt;Node41 -->
<g id="edge51_Node000015_Node000041" class="edge">
<title>Node15&#45;&gt;Node41</title>
<g id="a_edge51_Node000015_Node000041"><a xlink:title=" ">
<path fill="none" stroke="#63b8ff" d="M1116.2,-186.87C1106.53,-177.88 1091.16,-163.61 1079.34,-152.64"/>
<polygon fill="#63b8ff" stroke="#63b8ff" points="1081.54,-149.91 1071.83,-145.67 1076.78,-155.04 1081.54,-149.91"/>
</a>
</g>
</g>
<!-- Node42 -->
<g id="Node000042" class="node">
<title>Node42</title>
<g id="a_Node000042"><a xlink:title=" ">
<polygon fill="#e0e0e0" stroke="#999999" points="1145.5,-145.5 1105.5,-145.5 1105.5,-126.5 1145.5,-126.5 1145.5,-145.5"/>
<text text-anchor="middle" x="1125.5" y="-133.5" font-family="Helvetica,sans-Serif" font-size="10.00">span</text>
</a>
</g>
</g>
<!-- Node15&#45;&gt;Node42 -->
<g id="edge52_Node000015_Node000042" class="edge">
<title>Node15&#45;&gt;Node42</title>
<g id="a_edge52_Node000015_Node000042"><a xlink:title=" ">
<path fill="none" stroke="#63b8ff" d="M1125.5,-186.87C1125.5,-178.75 1125.5,-166.31 1125.5,-155.89"/>
<polygon fill="#63b8ff" stroke="#63b8ff" points="1129,-155.67 1125.5,-145.67 1122,-155.67 1129,-155.67"/>
</a>
</g>
</g>
<!-- Node43 -->
<g id="Node000043" class="node">
<title>Node43</title>
<g id="a_Node000043"><a xlink:title=" ">
<polygon fill="#e0e0e0" stroke="#999999" points="1233,-145.5 1164,-145.5 1164,-126.5 1233,-126.5 1233,-145.5"/>
<text text-anchor="middle" x="1198.5" y="-133.5" font-family="Helvetica,sans-Serif" font-size="10.00">type_traits</text>
</a>
</g>
</g>
<!-- Node15&#45;&gt;Node43 -->
<g id="edge53_Node000015_Node000043" class="edge">
<title>Node15&#45;&gt;Node43</title>
<g id="a_edge53_Node000015_Node000043"><a xlink:title=" ">
<path fill="none" stroke="#63b8ff" d="M1136.27,-186.87C1147.7,-177.71 1165.98,-163.06 1179.78,-152.01"/>
<polygon fill="#63b8ff" stroke="#63b8ff" points="1182.07,-154.65 1187.68,-145.67 1177.69,-149.19 1182.07,-154.65"/>
</a>
</g>
</g>
<!-- Node18&#45;&gt;Node7 -->
<g id="edge34_Node000018_Node000007" class="edge">
<title>Node18&#45;&gt;Node7</title>
<g id="a_edge34_Node000018_Node000007"><a xlink:title=" ">
<path fill="none" stroke="#63b8ff" d="M1592.21,-126.48C1584.31,-124.33 1575.63,-122.28 1567.5,-121 1243.53,-70.08 1155.18,-131.15 830.5,-85 748.28,-73.31 655.19,-49.17 597.17,-32.77"/>
<polygon fill="#63b8ff" stroke="#63b8ff" points="598.03,-29.38 587.46,-30.01 596.12,-36.11 598.03,-29.38"/>
</a>
</g>
</g>
<!-- Node18&#45;&gt;Node10 -->
<g id="edge41_Node000018_Node000010" class="edge">
<title>Node18&#45;&gt;Node10</title>
<g id="a_edge41_Node000018_Node000010"><a xlink:title=" ">
<path fill="none" stroke="#63b8ff" d="M1591.08,-126.46C1583.48,-124.42 1575.22,-122.42 1567.5,-121 1171.65,-48.22 1055.81,-132.12 666.5,-30 664.61,-29.5 662.69,-28.91 660.77,-28.25"/>
<polygon fill="#63b8ff" stroke="#63b8ff" points="662.01,-24.98 651.42,-24.57 659.44,-31.49 662.01,-24.98"/>
</a>
</g>
</g>
<!-- Node19 -->
<g id="Node000019" class="node">
<title>Node19</title>
<g id="a_Node000019"><a xlink:href="device__qualifier_8hpp.html" target="_top" xlink:title=" ">
<polygon fill="white" stroke="#666666" points="1890.5,-85 1776.5,-85 1776.5,-66 1890.5,-66 1890.5,-85"/>
<text text-anchor="middle" x="1833.5" y="-73" font-family="Helvetica,sans-Serif" font-size="10.00">device_qualifier.hpp</text>
</a>
</g>
</g>
<!-- Node18&#45;&gt;Node19 -->
<g id="edge22_Node000018_Node000019" class="edge">
<title>Node18&#45;&gt;Node19</title>
<g id="a_edge22_Node000018_Node000019"><a xlink:title=" ">
<path fill="none" stroke="#63b8ff" d="M1650.62,-126.49C1688.1,-116.25 1751.18,-99 1792.57,-87.69"/>
<polygon fill="#63b8ff" stroke="#63b8ff" points="1793.62,-91.03 1802.35,-85.02 1791.78,-84.28 1793.62,-91.03"/>
</a>
</g>
</g>
<!-- Node18&#45;&gt;Node20 -->
<g id="edge35_Node000018_Node000020" class="edge">
<title>Node18&#45;&gt;Node20</title>
<g id="a_edge35_Node000018_Node000020"><a xlink:title=" ">
<path fill="none" stroke="#63b8ff" d="M1621.88,-126.23C1626.4,-111.36 1637.66,-81.33 1658.5,-66 1719.66,-21 1752.88,-52.18 1825.5,-30 1827.38,-29.43 1829.3,-28.8 1831.22,-28.13"/>
<polygon fill="#63b8ff" stroke="#63b8ff" points="1832.57,-31.36 1840.72,-24.58 1830.13,-24.8 1832.57,-31.36"/>
</a>
</g>
</g>
<!-- Node21 -->
<g id="Node000021" class="node">
<title>Node21</title>
<g id="a_Node000021"><a xlink:href="array_8hpp.html" target="_top" xlink:title=" ">
<polygon fill="white" stroke="#666666" points="1354,-85 1229,-85 1229,-66 1354,-66 1354,-85"/>
<text text-anchor="middle" x="1291.5" y="-73" font-family="Helvetica,sans-Serif" font-size="10.00">serialization/array.hpp</text>
</a>
</g>
</g>
<!-- Node18&#45;&gt;Node21 -->
<g id="edge24_Node000018_Node000021" class="edge">
<title>Node18&#45;&gt;Node21</title>
<g id="a_edge24_Node000018_Node000021"><a xlink:title=" ">
<path fill="none" stroke="#63b8ff" d="M1589.93,-126.47C1582.63,-124.53 1574.81,-122.57 1567.5,-121 1499.04,-106.31 1420.08,-94.04 1364.21,-86.13"/>
<polygon fill="#63b8ff" stroke="#63b8ff" points="1364.44,-82.63 1354.05,-84.71 1363.47,-89.56 1364.44,-82.63"/>
</a>
</g>
</g>
<!-- Node18&#45;&gt;Node30 -->
<g id="edge36_Node000018_Node000030" class="edge">
<title>Node18&#45;&gt;Node30</title>
<g id="a_edge36_Node000018_Node000030"><a xlink:title=" ">
<path fill="none" stroke="#63b8ff" d="M1588.77,-126.46C1581.79,-124.6 1574.4,-122.68 1567.5,-121 1492.4,-102.71 1350.7,-123.38 1402.5,-66 1455.04,-7.8 1677.27,-48.38 1753.5,-30 1755.87,-29.43 1758.28,-28.74 1760.69,-27.98"/>
<polygon fill="#63b8ff" stroke="#63b8ff" points="1762.13,-31.18 1770.38,-24.53 1759.78,-24.59 1762.13,-31.18"/>
</a>
</g>
</g>
<!-- Node18&#45;&gt;Node31 -->
<g id="edge37_Node000018_Node000031" class="edge">
<title>Node18&#45;&gt;Node31</title>
<g id="a_edge37_Node000018_Node000031"><a xlink:title=" ">
<path fill="none" stroke="#63b8ff" d="M1630.42,-126.37C1642.01,-117.21 1660.53,-102.56 1674.52,-91.51"/>
<polygon fill="#63b8ff" stroke="#63b8ff" points="1676.86,-94.11 1682.54,-85.17 1672.52,-88.62 1676.86,-94.11"/>
</a>
</g>
</g>
<!-- Node32 -->
<g id="Node000032" class="node">
<title>Node32</title>
<g id="a_Node000032"><a xlink:title=" ">
<polygon fill="#e0e0e0" stroke="#999999" points="1468,-85 1411,-85 1411,-66 1468,-66 1468,-85"/>
<text text-anchor="middle" x="1439.5" y="-73" font-family="Helvetica,sans-Serif" font-size="10.00">ostream</text>
</a>
</g>
</g>
<!-- Node18&#45;&gt;Node32 -->
<g id="edge38_Node000018_Node000032" class="edge">
<title>Node18&#45;&gt;Node32</title>
<g id="a_edge38_Node000018_Node000032"><a xlink:title=" ">
<path fill="none" stroke="#63b8ff" d="M1593.33,-126.49C1562.27,-116.4 1510.31,-99.51 1475.48,-88.19"/>
<polygon fill="#63b8ff" stroke="#63b8ff" points="1476.3,-84.78 1465.71,-85.02 1474.13,-91.44 1476.3,-84.78"/>
</a>
</g>
</g>
<!-- Node33 -->
<g id="Node000033" class="node">
<title>Node33</title>
<g id="a_Node000033"><a xlink:title=" ">
<polygon fill="#e0e0e0" stroke="#999999" points="1551,-85 1486,-85 1486,-66 1551,-66 1551,-85"/>
<text text-anchor="middle" x="1518.5" y="-73" font-family="Helvetica,sans-Serif" font-size="10.00">stdexcept</text>
</a>
</g>
</g>
<!-- Node18&#45;&gt;Node33 -->
<g id="edge39_Node000018_Node000033" class="edge">
<title>Node18&#45;&gt;Node33</title>
<g id="a_edge39_Node000018_Node000033"><a xlink:title=" ">
<path fill="none" stroke="#63b8ff" d="M1604.6,-126.37C1588.19,-116.86 1561.57,-101.45 1542.27,-90.27"/>
<polygon fill="#63b8ff" stroke="#63b8ff" points="1543.87,-87.15 1533.46,-85.17 1540.36,-93.21 1543.87,-87.15"/>
</a>
</g>
</g>
<!-- Node34 -->
<g id="Node000034" class="node">
<title>Node34</title>
<g id="a_Node000034"><a xlink:title=" ">
<polygon fill="#e0e0e0" stroke="#999999" points="1610,-85 1569,-85 1569,-66 1610,-66 1610,-85"/>
<text text-anchor="middle" x="1589.5" y="-73" font-family="Helvetica,sans-Serif" font-size="10.00">tuple</text>
</a>
</g>
</g>
<!-- Node18&#45;&gt;Node34 -->
<g id="edge40_Node000018_Node000034" class="edge">
<title>Node18&#45;&gt;Node34</title>
<g id="a_edge40_Node000018_Node000034"><a xlink:title=" ">
<path fill="none" stroke="#63b8ff" d="M1615.07,-126.37C1610.73,-117.9 1603.98,-104.74 1598.51,-94.07"/>
<polygon fill="#63b8ff" stroke="#63b8ff" points="1601.62,-92.47 1593.94,-85.17 1595.39,-95.66 1601.62,-92.47"/>
</a>
</g>
</g>
<!-- Node19&#45;&gt;Node20 -->
<g id="edge23_Node000019_Node000020" class="edge">
<title>Node19&#45;&gt;Node20</title>
<g id="a_edge23_Node000019_Node000020"><a xlink:title=" ">
<path fill="none" stroke="#63b8ff" d="M1837.48,-65.87C1841.35,-57.49 1847.34,-44.51 1852.24,-33.89"/>
<polygon fill="#63b8ff" stroke="#63b8ff" points="1855.49,-35.21 1856.5,-24.67 1849.13,-32.28 1855.49,-35.21"/>
</a>
</g>
</g>
<!-- Node22 -->
<g id="Node000022" class="node">
<title>Node22</title>
<g id="a_Node000022"><a xlink:title=" ">
<polygon fill="#e0e0e0" stroke="#999999" points="1358,-24.5 1225,-24.5 1225,-5.5 1358,-5.5 1358,-24.5"/>
<text text-anchor="middle" x="1291.5" y="-12.5" font-family="Helvetica,sans-Serif" font-size="10.00">boost/mpl/bool_fwd.hpp</text>
</a>
</g>
</g>
<!-- Node21&#45;&gt;Node22 -->
<g id="edge25_Node000021_Node000022" class="edge">
<title>Node21&#45;&gt;Node22</title>
<g id="a_edge25_Node000021_Node000022"><a xlink:title=" ">
<path fill="none" stroke="#63b8ff" d="M1291.5,-65.87C1291.5,-57.75 1291.5,-45.31 1291.5,-34.89"/>
<polygon fill="#63b8ff" stroke="#63b8ff" points="1295,-34.67 1291.5,-24.67 1288,-34.67 1295,-34.67"/>
</a>
</g>
</g>
<!-- Node23 -->
<g id="Node000023" class="node">
<title>Node23</title>
<g id="a_Node000023"><a xlink:title=" ">
<polygon fill="#e0e0e0" stroke="#999999" points="1500.5,-24.5 1376.5,-24.5 1376.5,-5.5 1500.5,-5.5 1500.5,-24.5"/>
<text text-anchor="middle" x="1438.5" y="-12.5" font-family="Helvetica,sans-Serif" font-size="10.00">boost/mpl/greater.hpp</text>
</a>
</g>
</g>
<!-- Node21&#45;&gt;Node23 -->
<g id="edge26_Node000021_Node000023" class="edge">
<title>Node21&#45;&gt;Node23</title>
<g id="a_edge26_Node000021_Node000023"><a xlink:title=" ">
<path fill="none" stroke="#63b8ff" d="M1312.88,-65.99C1337.81,-56.07 1379.22,-39.59 1407.64,-28.28"/>
<polygon fill="#63b8ff" stroke="#63b8ff" points="1409.1,-31.47 1417.1,-24.52 1406.51,-24.96 1409.1,-31.47"/>
</a>
</g>
</g>
<!-- Node24 -->
<g id="Node000024" class="node">
<title>Node24</title>
<g id="a_Node000024"><a xlink:title=" ">
<polygon fill="#e0e0e0" stroke="#999999" points="1620.5,-24.5 1518.5,-24.5 1518.5,-5.5 1620.5,-5.5 1620.5,-24.5"/>
<text text-anchor="middle" x="1569.5" y="-12.5" font-family="Helvetica,sans-Serif" font-size="10.00">boost/mpl/int.hpp</text>
</a>
</g>
</g>
<!-- Node21&#45;&gt;Node24 -->
<g id="edge27_Node000021_Node000024" class="edge">
<title>Node21&#45;&gt;Node24</title>
<g id="a_edge27_Node000021_Node000024"><a xlink:title=" ">
<path fill="none" stroke="#63b8ff" d="M1335,-65.99C1379.06,-57.29 1449.12,-43.2 1509.5,-30 1514.15,-28.98 1519,-27.9 1523.84,-26.79"/>
<polygon fill="#63b8ff" stroke="#63b8ff" points="1524.72,-30.18 1533.69,-24.53 1523.16,-23.36 1524.72,-30.18"/>
</a>
</g>
</g>
<!-- Node25 -->
<g id="Node000025" class="node">
<title>Node25</title>
<g id="a_Node000025"><a xlink:title=" ">
<polygon fill="#e0e0e0" stroke="#999999" points="1744.5,-30 1638.5,-30 1638.5,0 1744.5,0 1744.5,-30"/>
<text text-anchor="start" x="1646.5" y="-18" font-family="Helvetica,sans-Serif" font-size="10.00">boost/mpl/integral</text>
<text text-anchor="middle" x="1691.5" y="-7" font-family="Helvetica,sans-Serif" font-size="10.00">_c_tag.hpp</text>
</a>
</g>
</g>
<!-- Node21&#45;&gt;Node25 -->
<g id="edge28_Node000021_Node000025" class="edge">
<title>Node21&#45;&gt;Node25</title>
<g id="a_edge28_Node000021_Node000025"><a xlink:title=" ">
<path fill="none" stroke="#63b8ff" d="M1354.17,-66.94C1432.53,-57.38 1563.35,-41.01 1628.26,-30.08"/>
<polygon fill="#63b8ff" stroke="#63b8ff" points="1629.21,-33.47 1638.46,-28.31 1628.01,-26.57 1629.21,-33.47"/>
</a>
</g>
</g>
<!-- Node26 -->
<g id="Node000026" class="node">
<title>Node26</title>
<g id="a_Node000026"><a xlink:title=" ">
<polygon fill="#e0e0e0" stroke="#999999" points="826,-30 675,-30 675,0 826,0 826,-30"/>
<text text-anchor="start" x="683" y="-18" font-family="Helvetica,sans-Serif" font-size="10.00">boost/serialization</text>
<text text-anchor="middle" x="750.5" y="-7" font-family="Helvetica,sans-Serif" font-size="10.00">/is_bitwise_serializable.hpp</text>
</a>
</g>
</g>
<!-- Node21&#45;&gt;Node26 -->
<g id="edge29_Node000021_Node000026" class="edge">
<title>Node21&#45;&gt;Node26</title>
<g id="a_edge29_Node000021_Node000026"><a xlink:title=" ">
<path fill="none" stroke="#63b8ff" d="M1228.65,-69.69C1142.55,-62.8 982.87,-48.98 836.1,-30.02"/>
<polygon fill="#63b8ff" stroke="#63b8ff" points="836.37,-26.52 826.01,-28.7 835.47,-33.46 836.37,-26.52"/>
</a>
</g>
</g>
<!-- Node27 -->
<g id="Node000027" class="node">
<title>Node27</title>
<g id="a_Node000027"><a xlink:title=" ">
<polygon fill="#e0e0e0" stroke="#999999" points="951,-30 844,-30 844,0 951,0 951,-30"/>
<text text-anchor="start" x="852" y="-18" font-family="Helvetica,sans-Serif" font-size="10.00">boost/serialization</text>
<text text-anchor="middle" x="897.5" y="-7" font-family="Helvetica,sans-Serif" font-size="10.00">/level.hpp</text>
</a>
</g>
</g>
<!-- Node21&#45;&gt;Node27 -->
<g id="edge30_Node000021_Node000027" class="edge">
<title>Node21&#45;&gt;Node27</title>
<g id="a_edge30_Node000021_Node000027"><a xlink:title=" ">
<path fill="none" stroke="#63b8ff" d="M1228.72,-67.67C1164.11,-60.28 1060.36,-47.4 960.97,-29.98"/>
<polygon fill="#63b8ff" stroke="#63b8ff" points="961.51,-26.52 951.05,-28.23 960.29,-33.42 961.51,-26.52"/>
</a>
</g>
</g>
<!-- Node28 -->
<g id="Node000028" class="node">
<title>Node28</title>
<g id="a_Node000028"><a xlink:title=" ">
<polygon fill="#e0e0e0" stroke="#999999" points="1076,-30 969,-30 969,0 1076,0 1076,-30"/>
<text text-anchor="start" x="977" y="-18" font-family="Helvetica,sans-Serif" font-size="10.00">boost/serialization</text>
<text text-anchor="middle" x="1022.5" y="-7" font-family="Helvetica,sans-Serif" font-size="10.00">/tracking.hpp</text>
</a>
</g>
</g>
<!-- Node21&#45;&gt;Node28 -->
<g id="edge31_Node000021_Node000028" class="edge">
<title>Node21&#45;&gt;Node28</title>
<g id="a_edge31_Node000021_Node000028"><a xlink:title=" ">
<path fill="none" stroke="#63b8ff" d="M1251.61,-65.96C1212.13,-57.48 1149.69,-44.04 1085.94,-30.09"/>
<polygon fill="#63b8ff" stroke="#63b8ff" points="1086.63,-26.66 1076.11,-27.94 1085.13,-33.49 1086.63,-26.66"/>
</a>
</g>
</g>
<!-- Node29 -->
<g id="Node000029" class="node">
<title>Node29</title>
<g id="a_Node000029"><a xlink:title=" ">
<polygon fill="#e0e0e0" stroke="#999999" points="1207,-30 1094,-30 1094,0 1207,0 1207,-30"/>
<text text-anchor="start" x="1102" y="-18" font-family="Helvetica,sans-Serif" font-size="10.00">boost/serialization</text>
<text text-anchor="middle" x="1150.5" y="-7" font-family="Helvetica,sans-Serif" font-size="10.00">/tracking_enum.hpp</text>
</a>
</g>
</g>
<!-- Node21&#45;&gt;Node29 -->
<g id="edge32_Node000021_Node000029" class="edge">
<title>Node21&#45;&gt;Node29</title>
<g id="a_edge32_Node000021_Node000029"><a xlink:title=" ">
<path fill="none" stroke="#63b8ff" d="M1271,-65.99C1250.88,-57.65 1219.58,-44.66 1193.92,-34.02"/>
<polygon fill="#63b8ff" stroke="#63b8ff" points="1194.98,-30.66 1184.4,-30.06 1192.29,-37.13 1194.98,-30.66"/>
</a>
</g>
</g>
<!-- Node21&#45;&gt;Node30 -->
<g id="edge33_Node000021_Node000030" class="edge">
<title>Node21&#45;&gt;Node30</title>
<g id="a_edge33_Node000021_Node000030"><a xlink:title=" ">
<path fill="none" stroke="#63b8ff" d="M1354.11,-67.5C1358.98,-66.98 1363.82,-66.48 1368.5,-66 1539.47,-48.57 1586.25,-69.52 1753.5,-30 1755.87,-29.44 1758.29,-28.76 1760.7,-28"/>
<polygon fill="#63b8ff" stroke="#63b8ff" points="1762.13,-31.21 1770.38,-24.57 1759.79,-24.61 1762.13,-31.21"/>
</a>
</g>
</g>
<!-- Node44&#45;&gt;Node19 -->
<g id="edge56_Node000044_Node000019" class="edge">
<title>Node44&#45;&gt;Node19</title>
<g id="a_edge56_Node000044_Node000019"><a xlink:title=" ">
<path fill="none" stroke="#63b8ff" d="M1293.71,-187.97C1296.68,-187.62 1299.63,-187.3 1302.5,-187 1362.21,-180.85 1800.5,-194.83 1841.5,-151 1855.48,-136.05 1849.25,-111.34 1842.38,-94.51"/>
<polygon fill="#63b8ff" stroke="#63b8ff" points="1845.49,-92.88 1838.19,-85.2 1839.1,-95.76 1845.49,-92.88"/>
</a>
</g>
</g>
</g>
</svg>
