<?xml version="1.0" encoding="UTF-8" standalone="no"?>
<!DOCTYPE svg PUBLIC "-//W3C//DTD SVG 1.1//EN"
 "http://www.w3.org/Graphics/SVG/1.1/DTD/svg11.dtd">
<!-- Generated by graphviz version 2.43.0 (0)
 -->
<!-- Title: hat.hpp Pages: 1 -->
<!--zoomable 401 -->

<svg id="main" version="1.1" xmlns="http://www.w3.org/2000/svg" xmlns:xlink="http://www.w3.org/1999/xlink" xml:space="preserve" onload="init(evt)">
<style type="text/css"><![CDATA[
.node, .edge {opacity: 0.7;}
.node.selected, .edge.selected {opacity: 1;}
.edge:hover path { stroke: red; }
.edge:hover polygon { stroke: red; fill: red; }
]]></style>

<defs>
  <circle id="rim" cx="0" cy="0" r="7"/>
  <circle id="rim2" cx="0" cy="0" r="3.5"/>
  <g id="zoomPlus">
    <use xlink:href="#rim" fill="#404040"><set attributeName="fill" to="#808080" begin="zoomplus.mouseover" end="zoomplus.mouseout"/></use>
    <path d="M-4,0h8M0,-4v8" fill="none" stroke="white" stroke-width="1.5" pointer-events="none"/>
  </g>
  <g id="zoomMin">
    <use xlink:href="#rim" fill="#404040"><set attributeName="fill" to="#808080" begin="zoomminus.mouseover" end="zoomminus.mouseout"/></use>
    <path d="M-4,0h8" fill="none" stroke="white" stroke-width="1.5" pointer-events="none"/>
  </g>
  <g id="arrowUp" transform="translate(30 24)">
    <use xlink:href="#rim"/>
    <path pointer-events="none" fill="none" stroke="white" stroke-width="1.5" d="M0,-3.0v7 M-2.5,-0.5L0,-3.0L2.5,-0.5"/>
  </g>
  <g id="arrowRight" transform="rotate(90) translate(36 -43)">
    <use xlink:href="#rim"/>
    <path pointer-events="none" fill="none" stroke="white" stroke-width="1.5" d="M0,-3.0v7 M-2.5,-0.5L0,-3.0L2.5,-0.5"/>
  </g>
  <g id="arrowDown" transform="rotate(180) translate(-30 -48)">
    <use xlink:href="#rim"/>
    <path pointer-events="none" fill="none" stroke="white" stroke-width="1.5" d="M0,-3.0v7 M-2.5,-0.5L0,-3.0L2.5,-0.5"/>
  </g>
  <g id="arrowLeft" transform="rotate(270) translate(-36 17)">
    <use xlink:href="#rim"/>
    <path pointer-events="none" fill="none" stroke="white" stroke-width="1.5" d="M0,-3.0v7 M-2.5,-0.5L0,-3.0L2.5,-0.5"/>
  </g>
  <g id="resetDef">
    <use xlink:href="#rim2" fill="#404040"><set attributeName="fill" to="#808080" begin="reset.mouseover" end="reset.mouseout"/></use>
  </g>
</defs>
<script type="application/ecmascript">
var viewWidth = 1956;
var viewHeight = 401;
var sectionId = 'dynsection-0';
</script>
<script type="application/ecmascript" xlink:href="svg.min.js"/>
<svg id="graph" class="graph">
<g id="viewport">
<title>hat.hpp</title>
<!-- Node1 -->
<g id="Node000001" class="node">
<title>Node1</title>
<g id="a_Node000001"><a xlink:title="Routines to calculate the hat potential between particle pairs.">
<polygon fill="#999999" stroke="#666666" points="369,-393 316,-393 316,-374 369,-374 369,-393"/>
<text text-anchor="middle" x="342.5" y="-381" font-family="Helvetica,sans-Serif" font-size="10.00">hat.hpp</text>
</a>
</g>
</g>
<!-- Node2 -->
<g id="Node000002" class="node">
<title>Node2</title>
<g id="a_Node000002"><a xlink:href="config_8hpp.html" target="_top" xlink:title=" ">
<polygon fill="white" stroke="#666666" points="225,-272 126,-272 126,-253 225,-253 225,-272"/>
<text text-anchor="middle" x="175.5" y="-260" font-family="Helvetica,sans-Serif" font-size="10.00">config/config.hpp</text>
</a>
</g>
</g>
<!-- Node1&#45;&gt;Node2 -->
<g id="edge1_Node000001_Node000002" class="edge">
<title>Node1&#45;&gt;Node2</title>
<g id="a_edge1_Node000001_Node000002"><a xlink:title=" ">
<path fill="none" stroke="#63b8ff" d="M330.49,-373.94C302.34,-353.88 231.83,-303.64 196.44,-278.42"/>
<polygon fill="#63b8ff" stroke="#63b8ff" points="198.03,-275.25 187.85,-272.3 193.96,-280.96 198.03,-275.25"/>
</a>
</g>
</g>
<!-- Node5 -->
<g id="Node000005" class="node">
<title>Node5</title>
<g id="a_Node000005"><a xlink:href="nonbonded__interaction__data_8hpp.html" target="_top" xlink:title="Various procedures concerning interactions between particles.">
<polygon fill="white" stroke="#666666" points="546.5,-338 418.5,-338 418.5,-308 546.5,-308 546.5,-338"/>
<text text-anchor="start" x="426.5" y="-326" font-family="Helvetica,sans-Serif" font-size="10.00">nonbonded_interaction</text>
<text text-anchor="middle" x="482.5" y="-315" font-family="Helvetica,sans-Serif" font-size="10.00">_data.hpp</text>
</a>
</g>
</g>
<!-- Node1&#45;&gt;Node5 -->
<g id="edge4_Node000001_Node000005" class="edge">
<title>Node1&#45;&gt;Node5</title>
<g id="a_edge4_Node000001_Node000005"><a xlink:title=" ">
<path fill="none" stroke="#63b8ff" d="M362.86,-373.99C382.83,-365.65 413.91,-352.66 439.39,-342.02"/>
<polygon fill="#63b8ff" stroke="#63b8ff" points="440.96,-345.15 448.84,-338.06 438.27,-338.69 440.96,-345.15"/>
</a>
</g>
</g>
<!-- Node3 -->
<g id="Node000003" class="node">
<title>Node3</title>
<g id="a_Node000003"><a xlink:title=" ">
<polygon fill="#e0e0e0" stroke="#999999" points="143,-217 0,-217 0,-198 143,-198 143,-217"/>
<text text-anchor="middle" x="71.5" y="-205" font-family="Helvetica,sans-Serif" font-size="10.00">config/config&#45;features.hpp</text>
</a>
</g>
</g>
<!-- Node2&#45;&gt;Node3 -->
<g id="edge2_Node000002_Node000003" class="edge">
<title>Node2&#45;&gt;Node3</title>
<g id="a_edge2_Node000002_Node000003"><a xlink:title=" ">
<path fill="none" stroke="#63b8ff" d="M158.79,-252.98C142.29,-244.57 116.8,-231.59 97.62,-221.81"/>
<polygon fill="#63b8ff" stroke="#63b8ff" points="99.01,-218.59 88.51,-217.17 95.83,-224.83 99.01,-218.59"/>
</a>
</g>
</g>
<!-- Node4 -->
<g id="Node000004" class="node">
<title>Node4</title>
<g id="a_Node000004"><a xlink:title=" ">
<polygon fill="#e0e0e0" stroke="#999999" points="214,-217 161,-217 161,-198 214,-198 214,-217"/>
<text text-anchor="middle" x="187.5" y="-205" font-family="Helvetica,sans-Serif" font-size="10.00">version</text>
</a>
</g>
</g>
<!-- Node2&#45;&gt;Node4 -->
<g id="edge3_Node000002_Node000004" class="edge">
<title>Node2&#45;&gt;Node4</title>
<g id="a_edge3_Node000002_Node000004"><a xlink:title=" ">
<path fill="none" stroke="#63b8ff" d="M177.48,-252.75C179.07,-245.72 181.36,-235.62 183.35,-226.84"/>
<polygon fill="#63b8ff" stroke="#63b8ff" points="186.76,-227.62 185.56,-217.09 179.93,-226.07 186.76,-227.62"/>
</a>
</g>
</g>
<!-- Node5&#45;&gt;Node2 -->
<g id="edge5_Node000005_Node000002" class="edge">
<title>Node5&#45;&gt;Node2</title>
<g id="a_edge5_Node000005_Node000002"><a xlink:title=" ">
<path fill="none" stroke="#63b8ff" d="M418.14,-309.74C362.48,-299.13 282.88,-283.96 230.23,-273.93"/>
<polygon fill="#63b8ff" stroke="#63b8ff" points="230.87,-270.49 220.4,-272.06 229.56,-277.37 230.87,-270.49"/>
</a>
</g>
</g>
<!-- Node6 -->
<g id="Node000006" class="node">
<title>Node6</title>
<g id="a_Node000006"><a xlink:href="TabulatedPotential_8hpp.html" target="_top" xlink:title=" ">
<polygon fill="white" stroke="#666666" points="519.5,-217 391.5,-217 391.5,-198 519.5,-198 519.5,-217"/>
<text text-anchor="middle" x="455.5" y="-205" font-family="Helvetica,sans-Serif" font-size="10.00">TabulatedPotential.hpp</text>
</a>
</g>
</g>
<!-- Node5&#45;&gt;Node6 -->
<g id="edge6_Node000005_Node000006" class="edge">
<title>Node5&#45;&gt;Node6</title>
<g id="a_edge6_Node000005_Node000006"><a xlink:title=" ">
<path fill="none" stroke="#63b8ff" d="M479.08,-307.63C474.22,-287.21 465.33,-249.81 459.96,-227.24"/>
<polygon fill="#63b8ff" stroke="#63b8ff" points="463.3,-226.15 457.58,-217.23 456.49,-227.77 463.3,-226.15"/>
</a>
</g>
</g>
<!-- Node8 -->
<g id="Node000008" class="node">
<title>Node8</title>
<g id="a_Node000008"><a xlink:title=" ">
<polygon fill="#e0e0e0" stroke="#999999" points="522.5,-24.5 470.5,-24.5 470.5,-5.5 522.5,-5.5 522.5,-24.5"/>
<text text-anchor="middle" x="496.5" y="-12.5" font-family="Helvetica,sans-Serif" font-size="10.00">cassert</text>
</a>
</g>
</g>
<!-- Node5&#45;&gt;Node8 -->
<g id="edge61_Node000005_Node000008" class="edge">
<title>Node5&#45;&gt;Node8</title>
<g id="a_edge61_Node000005_Node000008"><a xlink:title=" ">
<path fill="none" stroke="#63b8ff" d="M418.41,-317.21C350.66,-308.25 253.5,-282.49 253.5,-208.5 253.5,-208.5 253.5,-208.5 253.5,-146 253.5,-53.35 392.53,-26.48 460.27,-18.89"/>
<polygon fill="#63b8ff" stroke="#63b8ff" points="460.91,-22.34 470.49,-17.83 460.19,-15.38 460.91,-22.34"/>
</a>
</g>
</g>
<!-- Node12 -->
<g id="Node000012" class="node">
<title>Node12</title>
<g id="a_Node000012"><a xlink:title=" ">
<polygon fill="#e0e0e0" stroke="#999999" points="585.5,-156.5 521.5,-156.5 521.5,-137.5 585.5,-137.5 585.5,-156.5"/>
<text text-anchor="middle" x="553.5" y="-144.5" font-family="Helvetica,sans-Serif" font-size="10.00">algorithm</text>
</a>
</g>
</g>
<!-- Node5&#45;&gt;Node12 -->
<g id="edge60_Node000005_Node000012" class="edge">
<title>Node5&#45;&gt;Node12</title>
<g id="a_edge60_Node000005_Node000012"><a xlink:title=" ">
<path fill="none" stroke="#63b8ff" d="M418.12,-314.13C378.54,-305.7 337.2,-288.38 347.5,-253 355.6,-225.18 359.33,-215.4 382.5,-198 420.36,-169.56 474.1,-157.25 511.18,-151.95"/>
<polygon fill="#63b8ff" stroke="#63b8ff" points="511.72,-155.41 521.17,-150.64 510.8,-148.47 511.72,-155.41"/>
</a>
</g>
</g>
<!-- Node13 -->
<g id="Node000013" class="node">
<title>Node13</title>
<g id="a_Node000013"><a xlink:title=" ">
<polygon fill="#e0e0e0" stroke="#999999" points="651,-156.5 604,-156.5 604,-137.5 651,-137.5 651,-156.5"/>
<text text-anchor="middle" x="627.5" y="-144.5" font-family="Helvetica,sans-Serif" font-size="10.00">vector</text>
</a>
</g>
</g>
<!-- Node5&#45;&gt;Node13 -->
<g id="edge64_Node000005_Node000013" class="edge">
<title>Node5&#45;&gt;Node13</title>
<g id="a_edge64_Node000005_Node000013"><a xlink:title=" ">
<path fill="none" stroke="#63b8ff" d="M490.37,-307.66C504.01,-283.52 533.72,-233.91 566.5,-198 578.53,-184.82 594.13,-172.09 606.54,-162.78"/>
<polygon fill="#63b8ff" stroke="#63b8ff" points="608.92,-165.38 614.92,-156.65 604.78,-159.73 608.92,-165.38"/>
</a>
</g>
</g>
<!-- Node14 -->
<g id="Node000014" class="node">
<title>Node14</title>
<g id="a_Node000014"><a xlink:title=" ">
<polygon fill="#e0e0e0" stroke="#999999" points="454,-272 357,-272 357,-253 454,-253 454,-272"/>
<text text-anchor="middle" x="405.5" y="-260" font-family="Helvetica,sans-Serif" font-size="10.00">system/Leaf.hpp</text>
</a>
</g>
</g>
<!-- Node5&#45;&gt;Node14 -->
<g id="edge14_Node000005_Node000014" class="edge">
<title>Node5&#45;&gt;Node14</title>
<g id="a_edge14_Node000005_Node000014"><a xlink:title=" ">
<path fill="none" stroke="#63b8ff" d="M463.86,-307.84C452.11,-298.91 436.97,-287.41 425.05,-278.35"/>
<polygon fill="#63b8ff" stroke="#63b8ff" points="427.12,-275.53 417.04,-272.27 422.88,-281.1 427.12,-275.53"/>
</a>
</g>
</g>
<!-- Node15 -->
<g id="Node000015" class="node">
<title>Node15</title>
<g id="a_Node000015"><a xlink:href="index_8hpp.html" target="_top" xlink:title=" ">
<polygon fill="white" stroke="#666666" points="1191,-272 1102,-272 1102,-253 1191,-253 1191,-272"/>
<text text-anchor="middle" x="1146.5" y="-260" font-family="Helvetica,sans-Serif" font-size="10.00">utils/index.hpp</text>
</a>
</g>
</g>
<!-- Node5&#45;&gt;Node15 -->
<g id="edge15_Node000005_Node000015" class="edge">
<title>Node5&#45;&gt;Node15</title>
<g id="a_edge15_Node000005_Node000015"><a xlink:title=" ">
<path fill="none" stroke="#63b8ff" d="M546.77,-316.34C676.91,-304.87 969.55,-279.09 1091.51,-268.34"/>
<polygon fill="#63b8ff" stroke="#63b8ff" points="1092.08,-271.81 1101.73,-267.44 1091.46,-264.84 1092.08,-271.81"/>
</a>
</g>
</g>
<!-- Node36 -->
<g id="Node000036" class="node">
<title>Node36</title>
<g id="a_Node000036"><a xlink:title=" ">
<polygon fill="#e0e0e0" stroke="#999999" points="755,-156.5 708,-156.5 708,-137.5 755,-137.5 755,-156.5"/>
<text text-anchor="middle" x="731.5" y="-144.5" font-family="Helvetica,sans-Serif" font-size="10.00">cmath</text>
</a>
</g>
</g>
<!-- Node5&#45;&gt;Node36 -->
<g id="edge62_Node000005_Node000036" class="edge">
<title>Node5&#45;&gt;Node36</title>
<g id="a_edge62_Node000005_Node000036"><a xlink:title=" ">
<path fill="none" stroke="#63b8ff" d="M546.84,-318.46C588.51,-313.31 641.99,-301.01 680.5,-272 714.33,-246.52 725.83,-194.63 729.66,-166.73"/>
<polygon fill="#63b8ff" stroke="#63b8ff" points="733.15,-167.04 730.84,-156.7 726.19,-166.22 733.15,-167.04"/>
</a>
</g>
</g>
<!-- Node43 -->
<g id="Node000043" class="node">
<title>Node43</title>
<g id="a_Node000043"><a xlink:href="int__pow_8hpp.html" target="_top" xlink:title=" ">
<polygon fill="white" stroke="#666666" points="703.5,-217 575.5,-217 575.5,-198 703.5,-198 703.5,-217"/>
<text text-anchor="middle" x="639.5" y="-205" font-family="Helvetica,sans-Serif" font-size="10.00">utils/math/int_pow.hpp</text>
</a>
</g>
</g>
<!-- Node5&#45;&gt;Node43 -->
<g id="edge58_Node000005_Node000043" class="edge">
<title>Node5&#45;&gt;Node43</title>
<g id="a_edge58_Node000005_Node000043"><a xlink:title=" ">
<path fill="none" stroke="#63b8ff" d="M506.49,-307.84C522.41,-298.2 543.58,-284.89 561.5,-272 583.03,-256.51 606.46,-237.05 621.97,-223.78"/>
<polygon fill="#63b8ff" stroke="#63b8ff" points="624.42,-226.29 629.7,-217.11 619.84,-220.99 624.42,-226.29"/>
</a>
</g>
</g>
<!-- Node44 -->
<g id="Node000044" class="node">
<title>Node44</title>
<g id="a_Node000044"><a xlink:title=" ">
<polygon fill="#e0e0e0" stroke="#999999" points="671.5,-272 613.5,-272 613.5,-253 671.5,-253 671.5,-272"/>
<text text-anchor="middle" x="642.5" y="-260" font-family="Helvetica,sans-Serif" font-size="10.00">memory</text>
</a>
</g>
</g>
<!-- Node5&#45;&gt;Node44 -->
<g id="edge63_Node000005_Node000044" class="edge">
<title>Node5&#45;&gt;Node44</title>
<g id="a_edge63_Node000005_Node000044"><a xlink:title=" ">
<path fill="none" stroke="#63b8ff" d="M520.82,-307.99C547.76,-298.14 583.43,-285.1 609.19,-275.68"/>
<polygon fill="#63b8ff" stroke="#63b8ff" points="610.68,-278.86 618.87,-272.14 608.28,-272.29 610.68,-278.86"/>
</a>
</g>
</g>
<!-- Node7 -->
<g id="Node000007" class="node">
<title>Node7</title>
<g id="a_Node000007"><a xlink:href="linear__interpolation_8hpp.html" target="_top" xlink:title=" ">
<polygon fill="white" stroke="#666666" points="548,-90.5 391,-90.5 391,-71.5 548,-71.5 548,-90.5"/>
<text text-anchor="middle" x="469.5" y="-78.5" font-family="Helvetica,sans-Serif" font-size="10.00">utils/linear_interpolation.hpp</text>
</a>
</g>
</g>
<!-- Node6&#45;&gt;Node7 -->
<g id="edge7_Node000006_Node000007" class="edge">
<title>Node6&#45;&gt;Node7</title>
<g id="a_edge7_Node000006_Node000007"><a xlink:title=" ">
<path fill="none" stroke="#63b8ff" d="M456.46,-197.94C458.7,-178.04 464.3,-128.26 467.38,-100.85"/>
<polygon fill="#63b8ff" stroke="#63b8ff" points="470.89,-100.95 468.53,-90.62 463.94,-100.16 470.89,-100.95"/>
</a>
</g>
</g>
<!-- Node10 -->
<g id="Node000010" class="node">
<title>Node10</title>
<g id="a_Node000010"><a xlink:title=" ">
<polygon fill="#e0e0e0" stroke="#999999" points="673,-96 566,-96 566,-66 673,-66 673,-96"/>
<text text-anchor="start" x="574" y="-84" font-family="Helvetica,sans-Serif" font-size="10.00">boost/serialization</text>
<text text-anchor="middle" x="619.5" y="-73" font-family="Helvetica,sans-Serif" font-size="10.00">/access.hpp</text>
</a>
</g>
</g>
<!-- Node6&#45;&gt;Node10 -->
<g id="edge10_Node000006_Node000010" class="edge">
<title>Node6&#45;&gt;Node10</title>
<g id="a_edge10_Node000006_Node000010"><a xlink:title=" ">
<path fill="none" stroke="#63b8ff" d="M460.38,-197.59C469.09,-182.37 488.64,-151.19 512.5,-132 529.04,-118.7 549.7,-107.98 568.44,-99.93"/>
<polygon fill="#63b8ff" stroke="#63b8ff" points="569.84,-103.13 577.74,-96.08 567.17,-96.67 569.84,-103.13"/>
</a>
</g>
</g>
<!-- Node11 -->
<g id="Node000011" class="node">
<title>Node11</title>
<g id="a_Node000011"><a xlink:title=" ">
<polygon fill="#e0e0e0" stroke="#999999" points="427,-162 320,-162 320,-132 427,-132 427,-162"/>
<text text-anchor="start" x="328" y="-150" font-family="Helvetica,sans-Serif" font-size="10.00">boost/serialization</text>
<text text-anchor="middle" x="373.5" y="-139" font-family="Helvetica,sans-Serif" font-size="10.00">/vector.hpp</text>
</a>
</g>
</g>
<!-- Node6&#45;&gt;Node11 -->
<g id="edge11_Node000006_Node000011" class="edge">
<title>Node6&#45;&gt;Node11</title>
<g id="a_edge11_Node000006_Node000011"><a xlink:title=" ">
<path fill="none" stroke="#63b8ff" d="M443.4,-197.87C432.48,-190.08 415.99,-178.32 401.78,-168.17"/>
<polygon fill="#63b8ff" stroke="#63b8ff" points="403.46,-165.07 393.28,-162.11 399.39,-170.77 403.46,-165.07"/>
</a>
</g>
</g>
<!-- Node6&#45;&gt;Node12 -->
<g id="edge12_Node000006_Node000012" class="edge">
<title>Node6&#45;&gt;Node12</title>
<g id="a_edge12_Node000006_Node000012"><a xlink:title=" ">
<path fill="none" stroke="#63b8ff" d="M469.96,-197.87C485.81,-188.41 511.47,-173.09 530.18,-161.92"/>
<polygon fill="#63b8ff" stroke="#63b8ff" points="532.19,-164.8 538.98,-156.67 528.6,-158.79 532.19,-164.8"/>
</a>
</g>
</g>
<!-- Node6&#45;&gt;Node13 -->
<g id="edge13_Node000006_Node000013" class="edge">
<title>Node6&#45;&gt;Node13</title>
<g id="a_edge13_Node000006_Node000013"><a xlink:title=" ">
<path fill="none" stroke="#63b8ff" d="M484.78,-197.98C513.1,-189.53 557.09,-175.89 594.5,-162 595.89,-161.49 597.3,-160.95 598.72,-160.39"/>
<polygon fill="#63b8ff" stroke="#63b8ff" points="600.13,-163.6 608.07,-156.59 597.49,-157.11 600.13,-163.6"/>
</a>
</g>
</g>
<!-- Node7&#45;&gt;Node8 -->
<g id="edge8_Node000007_Node000008" class="edge">
<title>Node7&#45;&gt;Node8</title>
<g id="a_edge8_Node000007_Node000008"><a xlink:title=" ">
<path fill="none" stroke="#63b8ff" d="M473.14,-71.37C477.14,-61.88 483.69,-46.36 488.84,-34.16"/>
<polygon fill="#63b8ff" stroke="#63b8ff" points="492.08,-35.48 492.74,-24.91 485.63,-32.76 492.08,-35.48"/>
</a>
</g>
</g>
<!-- Node9 -->
<g id="Node000009" class="node">
<title>Node9</title>
<g id="a_Node000009"><a xlink:title=" ">
<polygon fill="#e0e0e0" stroke="#999999" points="1709,-24.5 1656,-24.5 1656,-5.5 1709,-5.5 1709,-24.5"/>
<text text-anchor="middle" x="1682.5" y="-12.5" font-family="Helvetica,sans-Serif" font-size="10.00">cstddef</text>
</a>
</g>
</g>
<!-- Node7&#45;&gt;Node9 -->
<g id="edge9_Node000007_Node000009" class="edge">
<title>Node7&#45;&gt;Node9</title>
<g id="a_edge9_Node000007_Node000009"><a xlink:title=" ">
<path fill="none" stroke="#63b8ff" d="M515.41,-71.5C528.63,-69.35 543.1,-67.29 556.5,-66 797.73,-42.7 1409.07,-78.61 1646.5,-30 1649.03,-29.48 1651.61,-28.8 1654.18,-28.02"/>
<polygon fill="#63b8ff" stroke="#63b8ff" points="1655.53,-31.26 1663.81,-24.65 1653.21,-24.65 1655.53,-31.26"/>
</a>
</g>
</g>
<!-- Node15&#45;&gt;Node8 -->
<g id="edge16_Node000015_Node000008" class="edge">
<title>Node15&#45;&gt;Node8</title>
<g id="a_edge16_Node000015_Node000008"><a xlink:title=" ">
<path fill="none" stroke="#63b8ff" d="M1101.83,-260.42C948.58,-256.51 449.84,-241.98 382.5,-217 336.08,-199.78 290.72,-177.39 310.5,-132 337.13,-70.89 414.38,-39.1 460.53,-25.12"/>
<polygon fill="#63b8ff" stroke="#63b8ff" points="461.52,-28.47 470.15,-22.32 459.57,-21.75 461.52,-28.47"/>
</a>
</g>
</g>
<!-- Node15&#45;&gt;Node9 -->
<g id="edge17_Node000015_Node000009" class="edge">
<title>Node15&#45;&gt;Node9</title>
<g id="a_edge17_Node000015_Node000009"><a xlink:title=" ">
<path fill="none" stroke="#63b8ff" d="M1191.18,-260.4C1311.63,-257.08 1641.02,-245.59 1745.5,-217 1844.61,-189.88 1897.06,-188.16 1942.5,-96 1948.4,-84.04 1950.99,-76.28 1942.5,-66 1914.63,-32.26 1784.39,-21.05 1719.48,-17.52"/>
<polygon fill="#63b8ff" stroke="#63b8ff" points="1719.44,-14.01 1709.27,-17 1719.08,-21.01 1719.44,-14.01"/>
</a>
</g>
</g>
<!-- Node16 -->
<g id="Node000016" class="node">
<title>Node16</title>
<g id="a_Node000016"><a xlink:title=" ">
<polygon fill="#e0e0e0" stroke="#999999" points="1933,-90.5 1880,-90.5 1880,-71.5 1933,-71.5 1933,-90.5"/>
<text text-anchor="middle" x="1906.5" y="-78.5" font-family="Helvetica,sans-Serif" font-size="10.00">iterator</text>
</a>
</g>
</g>
<!-- Node15&#45;&gt;Node16 -->
<g id="edge18_Node000015_Node000016" class="edge">
<title>Node15&#45;&gt;Node16</title>
<g id="a_edge18_Node000015_Node000016"><a xlink:title=" ">
<path fill="none" stroke="#63b8ff" d="M1191.2,-259.9C1305.47,-255.48 1606.02,-241.81 1702.5,-217 1760.1,-202.19 1775.35,-195.5 1824.5,-162 1851.48,-143.61 1877.57,-115.92 1892.82,-98.41"/>
<polygon fill="#63b8ff" stroke="#63b8ff" points="1895.56,-100.59 1899.4,-90.72 1890.24,-96.04 1895.56,-100.59"/>
</a>
</g>
</g>
<!-- Node17 -->
<g id="Node000017" class="node">
<title>Node17</title>
<g id="a_Node000017"><a xlink:title=" ">
<polygon fill="#e0e0e0" stroke="#999999" points="829.5,-156.5 773.5,-156.5 773.5,-137.5 829.5,-137.5 829.5,-156.5"/>
<text text-anchor="middle" x="801.5" y="-144.5" font-family="Helvetica,sans-Serif" font-size="10.00">numeric</text>
</a>
</g>
</g>
<!-- Node15&#45;&gt;Node17 -->
<g id="edge19_Node000015_Node000017" class="edge">
<title>Node15&#45;&gt;Node17</title>
<g id="a_edge19_Node000015_Node000017"><a xlink:title=" ">
<path fill="none" stroke="#63b8ff" d="M1120.14,-252.89C1067.53,-235.69 945.74,-195.83 843.5,-162 841.37,-161.29 839.17,-160.57 836.96,-159.83"/>
<polygon fill="#63b8ff" stroke="#63b8ff" points="837.85,-156.44 827.26,-156.61 835.64,-163.08 837.85,-156.44"/>
</a>
</g>
</g>
<!-- Node18 -->
<g id="Node000018" class="node">
<title>Node18</title>
<g id="a_Node000018"><a xlink:title=" ">
<polygon fill="#e0e0e0" stroke="#999999" points="1862,-90.5 1797,-90.5 1797,-71.5 1862,-71.5 1862,-90.5"/>
<text text-anchor="middle" x="1829.5" y="-78.5" font-family="Helvetica,sans-Serif" font-size="10.00">stdexcept</text>
</a>
</g>
</g>
<!-- Node15&#45;&gt;Node18 -->
<g id="edge20_Node000015_Node000018" class="edge">
<title>Node15&#45;&gt;Node18</title>
<g id="a_edge20_Node000015_Node000018"><a xlink:title=" ">
<path fill="none" stroke="#63b8ff" d="M1191.44,-260.54C1323.7,-256.83 1708.1,-239.47 1801.5,-162 1819.7,-146.91 1826.08,-119.25 1828.31,-100.74"/>
<polygon fill="#63b8ff" stroke="#63b8ff" points="1831.82,-100.87 1829.23,-90.6 1824.84,-100.24 1831.82,-100.87"/>
</a>
</g>
</g>
<!-- Node19 -->
<g id="Node000019" class="node">
<title>Node19</title>
<g id="a_Node000019"><a xlink:href="Vector_8hpp.html" target="_top" xlink:title="Vector implementation and trait types for boost qvm interoperability.">
<polygon fill="white" stroke="#666666" points="1180.5,-217 1112.5,-217 1112.5,-198 1180.5,-198 1180.5,-217"/>
<text text-anchor="middle" x="1146.5" y="-205" font-family="Helvetica,sans-Serif" font-size="10.00">Vector.hpp</text>
</a>
</g>
</g>
<!-- Node15&#45;&gt;Node19 -->
<g id="edge21_Node000015_Node000019" class="edge">
<title>Node15&#45;&gt;Node19</title>
<g id="a_edge21_Node000015_Node000019"><a xlink:title=" ">
<path fill="none" stroke="#63b8ff" d="M1146.5,-252.75C1146.5,-245.8 1146.5,-235.85 1146.5,-227.13"/>
<polygon fill="#63b8ff" stroke="#63b8ff" points="1150,-227.09 1146.5,-217.09 1143,-227.09 1150,-227.09"/>
</a>
</g>
</g>
<!-- Node19&#45;&gt;Node8 -->
<g id="edge46_Node000019_Node000008" class="edge">
<title>Node19&#45;&gt;Node8</title>
<g id="a_edge46_Node000019_Node000008"><a xlink:title=" ">
<path fill="none" stroke="#63b8ff" d="M1112.12,-206.26C1059.26,-204.73 955.81,-197.02 876.5,-162 856.82,-153.31 857.56,-141.98 838.5,-132 789.92,-106.57 769.24,-121.12 720.5,-96 701.06,-85.98 701.1,-75.71 681.5,-66 655.44,-53.1 578.73,-34.51 532.68,-24.01"/>
<polygon fill="#63b8ff" stroke="#63b8ff" points="533.32,-20.56 522.79,-21.77 531.77,-27.39 533.32,-20.56"/>
</a>
</g>
</g>
<!-- Node19&#45;&gt;Node9 -->
<g id="edge49_Node000019_Node000009" class="edge">
<title>Node19&#45;&gt;Node9</title>
<g id="a_edge49_Node000019_Node000009"><a xlink:title=" ">
<path fill="none" stroke="#63b8ff" d="M1180.79,-206.76C1307.1,-207.37 1741.27,-206.22 1782.5,-162 1823.02,-118.55 1745.26,-57.44 1704.8,-30.14"/>
<polygon fill="#63b8ff" stroke="#63b8ff" points="1706.6,-27.13 1696.32,-24.54 1702.74,-32.97 1706.6,-27.13"/>
</a>
</g>
</g>
<!-- Node19&#45;&gt;Node12 -->
<g id="edge45_Node000019_Node000012" class="edge">
<title>Node19&#45;&gt;Node12</title>
<g id="a_edge45_Node000019_Node000012"><a xlink:title=" ">
<path fill="none" stroke="#63b8ff" d="M1112.48,-206.68C1025.36,-206.5 787.48,-202.07 594.5,-162 591.43,-161.36 588.28,-160.56 585.14,-159.67"/>
<polygon fill="#63b8ff" stroke="#63b8ff" points="585.94,-156.25 575.35,-156.58 583.83,-162.93 585.94,-156.25"/>
</a>
</g>
</g>
<!-- Node19&#45;&gt;Node13 -->
<g id="edge57_Node000019_Node000013" class="edge">
<title>Node19&#45;&gt;Node13</title>
<g id="a_edge57_Node000019_Node000013"><a xlink:title=" ">
<path fill="none" stroke="#63b8ff" d="M1112.36,-204.23C1037.26,-198.99 852.17,-184.73 698.5,-162 686.2,-160.18 672.79,-157.67 660.97,-155.28"/>
<polygon fill="#63b8ff" stroke="#63b8ff" points="661.57,-151.83 651.07,-153.24 660.15,-158.69 661.57,-151.83"/>
</a>
</g>
</g>
<!-- Node19&#45;&gt;Node16 -->
<g id="edge52_Node000019_Node000016" class="edge">
<title>Node19&#45;&gt;Node16</title>
<g id="a_edge52_Node000019_Node000016"><a xlink:title=" ">
<path fill="none" stroke="#63b8ff" d="M1180.7,-205.51C1308.9,-201.63 1756.65,-186.45 1815.5,-162 1848.52,-148.28 1877.81,-117.51 1893.76,-98.38"/>
<polygon fill="#63b8ff" stroke="#63b8ff" points="1896.56,-100.49 1900.12,-90.52 1891.11,-96.09 1896.56,-100.49"/>
</a>
</g>
</g>
<!-- Node19&#45;&gt;Node17 -->
<g id="edge53_Node000019_Node000017" class="edge">
<title>Node19&#45;&gt;Node17</title>
<g id="a_edge53_Node000019_Node000017"><a xlink:title=" ">
<path fill="none" stroke="#63b8ff" d="M1112.05,-203.43C1055.44,-197.95 939.44,-184.85 843.5,-162 840.53,-161.29 837.47,-160.47 834.42,-159.58"/>
<polygon fill="#63b8ff" stroke="#63b8ff" points="835.42,-156.23 824.84,-156.59 833.34,-162.91 835.42,-156.23"/>
</a>
</g>
</g>
<!-- Node20 -->
<g id="Node000020" class="node">
<title>Node20</title>
<g id="a_Node000020"><a xlink:title=" ">
<polygon fill="#e0e0e0" stroke="#999999" points="1615.5,-156.5 1465.5,-156.5 1465.5,-137.5 1615.5,-137.5 1615.5,-156.5"/>
<text text-anchor="middle" x="1540.5" y="-144.5" font-family="Helvetica,sans-Serif" font-size="10.00">boost/qvm/deduce_vec.hpp</text>
</a>
</g>
</g>
<!-- Node19&#45;&gt;Node20 -->
<g id="edge22_Node000019_Node000020" class="edge">
<title>Node19&#45;&gt;Node20</title>
<g id="a_edge22_Node000019_Node000020"><a xlink:title=" ">
<path fill="none" stroke="#63b8ff" d="M1180.6,-201.91C1237.87,-194.12 1356.99,-177.66 1457.5,-162 1465.11,-160.81 1473.11,-159.52 1481.02,-158.22"/>
<polygon fill="#63b8ff" stroke="#63b8ff" points="1481.65,-161.66 1490.94,-156.57 1480.5,-154.76 1481.65,-161.66"/>
</a>
</g>
</g>
<!-- Node21 -->
<g id="Node000021" class="node">
<title>Node21</title>
<g id="a_Node000021"><a xlink:title=" ">
<polygon fill="#e0e0e0" stroke="#999999" points="1773.5,-156.5 1633.5,-156.5 1633.5,-137.5 1773.5,-137.5 1773.5,-156.5"/>
<text text-anchor="middle" x="1703.5" y="-144.5" font-family="Helvetica,sans-Serif" font-size="10.00">boost/qvm/vec_traits.hpp</text>
</a>
</g>
</g>
<!-- Node19&#45;&gt;Node21 -->
<g id="edge23_Node000019_Node000021" class="edge">
<title>Node19&#45;&gt;Node21</title>
<g id="a_edge23_Node000019_Node000021"><a xlink:title=" ">
<path fill="none" stroke="#63b8ff" d="M1180.51,-204.3C1258.99,-199.02 1458.69,-184.37 1624.5,-162 1632.45,-160.93 1640.82,-159.63 1649.02,-158.26"/>
<polygon fill="#63b8ff" stroke="#63b8ff" points="1649.63,-161.71 1658.9,-156.57 1648.45,-154.81 1649.63,-161.71"/>
</a>
</g>
</g>
<!-- Node22 -->
<g id="Node000022" class="node">
<title>Node22</title>
<g id="a_Node000022"><a xlink:href="Array_8hpp.html" target="_top" xlink:title="Array implementation with CUDA support.">
<polygon fill="white" stroke="#666666" points="971.5,-156.5 885.5,-156.5 885.5,-137.5 971.5,-137.5 971.5,-156.5"/>
<text text-anchor="middle" x="928.5" y="-144.5" font-family="Helvetica,sans-Serif" font-size="10.00">utils/Array.hpp</text>
</a>
</g>
</g>
<!-- Node19&#45;&gt;Node22 -->
<g id="edge24_Node000019_Node000022" class="edge">
<title>Node19&#45;&gt;Node22</title>
<g id="a_edge24_Node000019_Node000022"><a xlink:title=" ">
<path fill="none" stroke="#63b8ff" d="M1114.67,-197.98C1081.26,-189.03 1027.18,-174.54 980.5,-162 977.1,-161.09 973.58,-160.14 970.04,-159.19"/>
<polygon fill="#63b8ff" stroke="#63b8ff" points="970.69,-155.74 960.12,-156.52 968.87,-162.5 970.69,-155.74"/>
</a>
</g>
</g>
<!-- Node19&#45;&gt;Node36 -->
<g id="edge47_Node000019_Node000036" class="edge">
<title>Node19&#45;&gt;Node36</title>
<g id="a_edge47_Node000019_Node000036"><a xlink:title=" ">
<path fill="none" stroke="#63b8ff" d="M1112.43,-205.77C1044.93,-203.62 889.88,-195.17 764.5,-162 762.56,-161.49 760.58,-160.88 758.61,-160.21"/>
<polygon fill="#63b8ff" stroke="#63b8ff" points="759.57,-156.83 748.98,-156.51 757.06,-163.37 759.57,-156.83"/>
</a>
</g>
</g>
<!-- Node37 -->
<g id="Node000037" class="node">
<title>Node37</title>
<g id="a_Node000037"><a xlink:title=" ">
<polygon fill="#e0e0e0" stroke="#999999" points="1049.5,-156.5 989.5,-156.5 989.5,-137.5 1049.5,-137.5 1049.5,-156.5"/>
<text text-anchor="middle" x="1019.5" y="-144.5" font-family="Helvetica,sans-Serif" font-size="10.00">concepts</text>
</a>
</g>
</g>
<!-- Node19&#45;&gt;Node37 -->
<g id="edge48_Node000019_Node000037" class="edge">
<title>Node19&#45;&gt;Node37</title>
<g id="a_edge48_Node000019_Node000037"><a xlink:title=" ">
<path fill="none" stroke="#63b8ff" d="M1128.03,-197.99C1106.78,-188.2 1071.65,-172.02 1047.13,-160.73"/>
<polygon fill="#63b8ff" stroke="#63b8ff" points="1048.54,-157.52 1037.99,-156.52 1045.61,-163.88 1048.54,-157.52"/>
</a>
</g>
</g>
<!-- Node38 -->
<g id="Node000038" class="node">
<title>Node38</title>
<g id="a_Node000038"><a xlink:title=" ">
<polygon fill="#e0e0e0" stroke="#999999" points="1133,-156.5 1068,-156.5 1068,-137.5 1133,-137.5 1133,-156.5"/>
<text text-anchor="middle" x="1100.5" y="-144.5" font-family="Helvetica,sans-Serif" font-size="10.00">functional</text>
</a>
</g>
</g>
<!-- Node19&#45;&gt;Node38 -->
<g id="edge50_Node000019_Node000038" class="edge">
<title>Node19&#45;&gt;Node38</title>
<g id="a_edge50_Node000019_Node000038"><a xlink:title=" ">
<path fill="none" stroke="#63b8ff" d="M1139.71,-197.87C1132.85,-189.14 1122.07,-175.43 1113.55,-164.59"/>
<polygon fill="#63b8ff" stroke="#63b8ff" points="1116.25,-162.36 1107.32,-156.67 1110.75,-166.69 1116.25,-162.36"/>
</a>
</g>
</g>
<!-- Node39 -->
<g id="Node000039" class="node">
<title>Node39</title>
<g id="a_Node000039"><a xlink:title=" ">
<polygon fill="#e0e0e0" stroke="#999999" points="1234,-156.5 1151,-156.5 1151,-137.5 1234,-137.5 1234,-156.5"/>
<text text-anchor="middle" x="1192.5" y="-144.5" font-family="Helvetica,sans-Serif" font-size="10.00">initializer_list</text>
</a>
</g>
</g>
<!-- Node19&#45;&gt;Node39 -->
<g id="edge51_Node000019_Node000039" class="edge">
<title>Node19&#45;&gt;Node39</title>
<g id="a_edge51_Node000019_Node000039"><a xlink:title=" ">
<path fill="none" stroke="#63b8ff" d="M1153.29,-197.87C1160.15,-189.14 1170.93,-175.43 1179.45,-164.59"/>
<polygon fill="#63b8ff" stroke="#63b8ff" points="1182.25,-166.69 1185.68,-156.67 1176.75,-162.36 1182.25,-166.69"/>
</a>
</g>
</g>
<!-- Node40 -->
<g id="Node000040" class="node">
<title>Node40</title>
<g id="a_Node000040"><a xlink:title=" ">
<polygon fill="#e0e0e0" stroke="#999999" points="1302.5,-156.5 1252.5,-156.5 1252.5,-137.5 1302.5,-137.5 1302.5,-156.5"/>
<text text-anchor="middle" x="1277.5" y="-144.5" font-family="Helvetica,sans-Serif" font-size="10.00">ranges</text>
</a>
</g>
</g>
<!-- Node19&#45;&gt;Node40 -->
<g id="edge54_Node000019_Node000040" class="edge">
<title>Node19&#45;&gt;Node40</title>
<g id="a_edge54_Node000019_Node000040"><a xlink:title=" ">
<path fill="none" stroke="#63b8ff" d="M1165.55,-197.99C1187.47,-188.2 1223.71,-172.02 1249,-160.73"/>
<polygon fill="#63b8ff" stroke="#63b8ff" points="1250.72,-163.79 1258.43,-156.52 1247.87,-157.4 1250.72,-163.79"/>
</a>
</g>
</g>
<!-- Node41 -->
<g id="Node000041" class="node">
<title>Node41</title>
<g id="a_Node000041"><a xlink:title=" ">
<polygon fill="#e0e0e0" stroke="#999999" points="1360.5,-156.5 1320.5,-156.5 1320.5,-137.5 1360.5,-137.5 1360.5,-156.5"/>
<text text-anchor="middle" x="1340.5" y="-144.5" font-family="Helvetica,sans-Serif" font-size="10.00">span</text>
</a>
</g>
</g>
<!-- Node19&#45;&gt;Node41 -->
<g id="edge55_Node000019_Node000041" class="edge">
<title>Node19&#45;&gt;Node41</title>
<g id="a_edge55_Node000019_Node000041"><a xlink:title=" ">
<path fill="none" stroke="#63b8ff" d="M1180.58,-199.27C1214.35,-191.65 1267.29,-178.47 1311.5,-162 1312.55,-161.61 1313.61,-161.19 1314.67,-160.76"/>
<polygon fill="#63b8ff" stroke="#63b8ff" points="1316.45,-163.8 1324.17,-156.54 1313.61,-157.41 1316.45,-163.8"/>
</a>
</g>
</g>
<!-- Node42 -->
<g id="Node000042" class="node">
<title>Node42</title>
<g id="a_Node000042"><a xlink:title=" ">
<polygon fill="#e0e0e0" stroke="#999999" points="1448,-156.5 1379,-156.5 1379,-137.5 1448,-137.5 1448,-156.5"/>
<text text-anchor="middle" x="1413.5" y="-144.5" font-family="Helvetica,sans-Serif" font-size="10.00">type_traits</text>
</a>
</g>
</g>
<!-- Node19&#45;&gt;Node42 -->
<g id="edge56_Node000019_Node000042" class="edge">
<title>Node19&#45;&gt;Node42</title>
<g id="a_edge56_Node000019_Node000042"><a xlink:title=" ">
<path fill="none" stroke="#63b8ff" d="M1180.77,-200.88C1224.78,-193.39 1303.37,-179.06 1369.5,-162 1372.34,-161.27 1375.26,-160.46 1378.19,-159.61"/>
<polygon fill="#63b8ff" stroke="#63b8ff" points="1379.49,-162.87 1388.05,-156.63 1377.46,-156.18 1379.49,-162.87"/>
</a>
</g>
</g>
<!-- Node22&#45;&gt;Node8 -->
<g id="edge38_Node000022_Node000008" class="edge">
<title>Node22&#45;&gt;Node8</title>
<g id="a_edge38_Node000022_Node000008"><a xlink:title=" ">
<path fill="none" stroke="#63b8ff" d="M923.29,-137.4C912.5,-120.42 885.87,-82.8 852.5,-66 734.92,-6.8 688.2,-52.53 558.5,-30 550.07,-28.54 541.07,-26.68 532.61,-24.79"/>
<polygon fill="#63b8ff" stroke="#63b8ff" points="533.16,-21.33 522.63,-22.51 531.6,-28.15 533.16,-21.33"/>
</a>
</g>
</g>
<!-- Node22&#45;&gt;Node9 -->
<g id="edge39_Node000022_Node000009" class="edge">
<title>Node22&#45;&gt;Node9</title>
<g id="a_edge39_Node000022_Node000009"><a xlink:title=" ">
<path fill="none" stroke="#63b8ff" d="M957.78,-137.46C965.15,-135.49 973.08,-133.52 980.5,-132 1090.89,-109.31 1120.07,-112.85 1231.5,-96 1416.16,-68.07 1466.22,-78.79 1646.5,-30 1648.66,-29.42 1650.86,-28.75 1653.07,-28.03"/>
<polygon fill="#63b8ff" stroke="#63b8ff" points="1654.34,-31.29 1662.57,-24.62 1651.98,-24.7 1654.34,-31.29"/>
</a>
</g>
</g>
<!-- Node22&#45;&gt;Node10 -->
<g id="edge37_Node000022_Node000010" class="edge">
<title>Node22&#45;&gt;Node10</title>
<g id="a_edge37_Node000022_Node000010"><a xlink:title=" ">
<path fill="none" stroke="#63b8ff" d="M887.15,-137.44C834.81,-126.59 744.11,-107.81 682.97,-95.15"/>
<polygon fill="#63b8ff" stroke="#63b8ff" points="683.55,-91.69 673.05,-93.09 682.13,-98.55 683.55,-91.69"/>
</a>
</g>
</g>
<!-- Node22&#45;&gt;Node16 -->
<g id="edge40_Node000022_Node000016" class="edge">
<title>Node22&#45;&gt;Node16</title>
<g id="a_edge40_Node000022_Node000016"><a xlink:title=" ">
<path fill="none" stroke="#63b8ff" d="M955.78,-137.43C963.68,-135.29 972.37,-133.24 980.5,-132 1372.27,-72.11 1483.92,-178.79 1871.5,-96 1873.88,-95.49 1876.3,-94.84 1878.71,-94.09"/>
<polygon fill="#63b8ff" stroke="#63b8ff" points="1880.12,-97.3 1888.34,-90.62 1877.75,-90.71 1880.12,-97.3"/>
</a>
</g>
</g>
<!-- Node22&#45;&gt;Node18 -->
<g id="edge42_Node000022_Node000018" class="edge">
<title>Node22&#45;&gt;Node18</title>
<g id="a_edge42_Node000022_Node000018"><a xlink:title=" ">
<path fill="none" stroke="#63b8ff" d="M956.07,-137.46C963.89,-135.34 972.47,-133.3 980.5,-132 1060.36,-119.04 1625.85,-91.62 1786.84,-84"/>
<polygon fill="#63b8ff" stroke="#63b8ff" points="1787.02,-87.5 1796.85,-83.53 1786.69,-80.5 1787.02,-87.5"/>
</a>
</g>
</g>
<!-- Node23 -->
<g id="Node000023" class="node">
<title>Node23</title>
<g id="a_Node000023"><a xlink:href="device__qualifier_8hpp.html" target="_top" xlink:title=" ">
<polygon fill="white" stroke="#666666" points="843.5,-90.5 729.5,-90.5 729.5,-71.5 843.5,-71.5 843.5,-90.5"/>
<text text-anchor="middle" x="786.5" y="-78.5" font-family="Helvetica,sans-Serif" font-size="10.00">device_qualifier.hpp</text>
</a>
</g>
</g>
<!-- Node22&#45;&gt;Node23 -->
<g id="edge25_Node000022_Node000023" class="edge">
<title>Node22&#45;&gt;Node23</title>
<g id="a_edge25_Node000022_Node000023"><a xlink:title=" ">
<path fill="none" stroke="#63b8ff" d="M909.35,-137.37C885.11,-126.44 843.13,-107.52 815.09,-94.88"/>
<polygon fill="#63b8ff" stroke="#63b8ff" points="816.36,-91.62 805.8,-90.7 813.48,-98 816.36,-91.62"/>
</a>
</g>
</g>
<!-- Node24 -->
<g id="Node000024" class="node">
<title>Node24</title>
<g id="a_Node000024"><a xlink:href="array_8hpp.html" target="_top" xlink:title=" ">
<polygon fill="white" stroke="#666666" points="1222,-90.5 1097,-90.5 1097,-71.5 1222,-71.5 1222,-90.5"/>
<text text-anchor="middle" x="1159.5" y="-78.5" font-family="Helvetica,sans-Serif" font-size="10.00">serialization/array.hpp</text>
</a>
</g>
</g>
<!-- Node22&#45;&gt;Node24 -->
<g id="edge27_Node000022_Node000024" class="edge">
<title>Node22&#45;&gt;Node24</title>
<g id="a_edge27_Node000022_Node000024"><a xlink:title=" ">
<path fill="none" stroke="#63b8ff" d="M959.65,-137.37C1000.76,-125.98 1073.19,-105.91 1118.65,-93.32"/>
<polygon fill="#63b8ff" stroke="#63b8ff" points="1119.77,-96.64 1128.47,-90.6 1117.9,-89.89 1119.77,-96.64"/>
</a>
</g>
</g>
<!-- Node33 -->
<g id="Node000033" class="node">
<title>Node33</title>
<g id="a_Node000033"><a xlink:title=" ">
<polygon fill="#e0e0e0" stroke="#999999" points="957,-90.5 900,-90.5 900,-71.5 957,-71.5 957,-90.5"/>
<text text-anchor="middle" x="928.5" y="-78.5" font-family="Helvetica,sans-Serif" font-size="10.00">ostream</text>
</a>
</g>
</g>
<!-- Node22&#45;&gt;Node33 -->
<g id="edge41_Node000022_Node000033" class="edge">
<title>Node22&#45;&gt;Node33</title>
<g id="a_edge41_Node000022_Node000033"><a xlink:title=" ">
<path fill="none" stroke="#63b8ff" d="M928.5,-137.37C928.5,-128.16 928.5,-113.29 928.5,-101.27"/>
<polygon fill="#63b8ff" stroke="#63b8ff" points="932,-100.91 928.5,-90.91 925,-100.91 932,-100.91"/>
</a>
</g>
</g>
<!-- Node34 -->
<g id="Node000034" class="node">
<title>Node34</title>
<g id="a_Node000034"><a xlink:title=" ">
<polygon fill="#e0e0e0" stroke="#999999" points="1016,-90.5 975,-90.5 975,-71.5 1016,-71.5 1016,-90.5"/>
<text text-anchor="middle" x="995.5" y="-78.5" font-family="Helvetica,sans-Serif" font-size="10.00">tuple</text>
</a>
</g>
</g>
<!-- Node22&#45;&gt;Node34 -->
<g id="edge43_Node000022_Node000034" class="edge">
<title>Node22&#45;&gt;Node34</title>
<g id="a_edge43_Node000022_Node000034"><a xlink:title=" ">
<path fill="none" stroke="#63b8ff" d="M937.54,-137.37C948.07,-127.31 965.69,-110.48 978.74,-98.01"/>
<polygon fill="#63b8ff" stroke="#63b8ff" points="981.36,-100.34 986.18,-90.91 976.53,-95.28 981.36,-100.34"/>
</a>
</g>
</g>
<!-- Node35 -->
<g id="Node000035" class="node">
<title>Node35</title>
<g id="a_Node000035"><a xlink:title=" ">
<polygon fill="#e0e0e0" stroke="#999999" points="1079,-90.5 1034,-90.5 1034,-71.5 1079,-71.5 1079,-90.5"/>
<text text-anchor="middle" x="1056.5" y="-78.5" font-family="Helvetica,sans-Serif" font-size="10.00">utility</text>
</a>
</g>
</g>
<!-- Node22&#45;&gt;Node35 -->
<g id="edge44_Node000022_Node000035" class="edge">
<title>Node22&#45;&gt;Node35</title>
<g id="a_edge44_Node000022_Node000035"><a xlink:title=" ">
<path fill="none" stroke="#63b8ff" d="M945.76,-137.37C967.42,-126.54 1004.79,-107.85 1030.07,-95.22"/>
<polygon fill="#63b8ff" stroke="#63b8ff" points="1031.72,-98.3 1039.1,-90.7 1028.59,-92.04 1031.72,-98.3"/>
</a>
</g>
</g>
<!-- Node23&#45;&gt;Node8 -->
<g id="edge26_Node000023_Node000008" class="edge">
<title>Node23&#45;&gt;Node8</title>
<g id="a_edge26_Node000023_Node000008"><a xlink:title=" ">
<path fill="none" stroke="#63b8ff" d="M747.35,-71.49C701.92,-61.6 624.76,-44.75 558.5,-30 550.15,-28.14 541.18,-26.13 532.72,-24.22"/>
<polygon fill="#63b8ff" stroke="#63b8ff" points="533.26,-20.75 522.74,-21.96 531.72,-27.58 533.26,-20.75"/>
</a>
</g>
</g>
<!-- Node24&#45;&gt;Node9 -->
<g id="edge36_Node000024_Node000009" class="edge">
<title>Node24&#45;&gt;Node9</title>
<g id="a_edge36_Node000024_Node000009"><a xlink:title=" ">
<path fill="none" stroke="#63b8ff" d="M1222.29,-78.91C1315.93,-76.1 1497.15,-66.01 1646.5,-30 1648.87,-29.43 1651.28,-28.74 1653.69,-27.98"/>
<polygon fill="#63b8ff" stroke="#63b8ff" points="1655.13,-31.18 1663.38,-24.53 1652.78,-24.58 1655.13,-31.18"/>
</a>
</g>
</g>
<!-- Node25 -->
<g id="Node000025" class="node">
<title>Node25</title>
<g id="a_Node000025"><a xlink:title=" ">
<polygon fill="#e0e0e0" stroke="#999999" points="1495,-24.5 1362,-24.5 1362,-5.5 1495,-5.5 1495,-24.5"/>
<text text-anchor="middle" x="1428.5" y="-12.5" font-family="Helvetica,sans-Serif" font-size="10.00">boost/mpl/bool_fwd.hpp</text>
</a>
</g>
</g>
<!-- Node24&#45;&gt;Node25 -->
<g id="edge28_Node000024_Node000025" class="edge">
<title>Node24&#45;&gt;Node25</title>
<g id="a_edge28_Node000024_Node000025"><a xlink:title=" ">
<path fill="none" stroke="#63b8ff" d="M1195.5,-71.44C1243.92,-59.92 1330.04,-39.43 1382.92,-26.84"/>
<polygon fill="#63b8ff" stroke="#63b8ff" points="1383.8,-30.23 1392.71,-24.51 1382.18,-23.42 1383.8,-30.23"/>
</a>
</g>
</g>
<!-- Node26 -->
<g id="Node000026" class="node">
<title>Node26</title>
<g id="a_Node000026"><a xlink:title=" ">
<polygon fill="#e0e0e0" stroke="#999999" points="1637.5,-24.5 1513.5,-24.5 1513.5,-5.5 1637.5,-5.5 1637.5,-24.5"/>
<text text-anchor="middle" x="1575.5" y="-12.5" font-family="Helvetica,sans-Serif" font-size="10.00">boost/mpl/greater.hpp</text>
</a>
</g>
</g>
<!-- Node24&#45;&gt;Node26 -->
<g id="edge29_Node000024_Node000026" class="edge">
<title>Node24&#45;&gt;Node26</title>
<g id="a_edge29_Node000024_Node000026"><a xlink:title=" ">
<path fill="none" stroke="#63b8ff" d="M1222.29,-71.87C1291.55,-62.69 1406.22,-46.8 1504.5,-30 1510.76,-28.93 1517.31,-27.74 1523.8,-26.51"/>
<polygon fill="#63b8ff" stroke="#63b8ff" points="1524.73,-29.9 1533.89,-24.57 1523.41,-23.02 1524.73,-29.9"/>
</a>
</g>
</g>
<!-- Node27 -->
<g id="Node000027" class="node">
<title>Node27</title>
<g id="a_Node000027"><a xlink:title=" ">
<polygon fill="#e0e0e0" stroke="#999999" points="669.5,-24.5 567.5,-24.5 567.5,-5.5 669.5,-5.5 669.5,-24.5"/>
<text text-anchor="middle" x="618.5" y="-12.5" font-family="Helvetica,sans-Serif" font-size="10.00">boost/mpl/int.hpp</text>
</a>
</g>
</g>
<!-- Node24&#45;&gt;Node27 -->
<g id="edge30_Node000024_Node000027" class="edge">
<title>Node24&#45;&gt;Node27</title>
<g id="a_edge30_Node000024_Node000027"><a xlink:title=" ">
<path fill="none" stroke="#63b8ff" d="M1120.2,-71.47C1109.92,-69.45 1098.82,-67.47 1088.5,-66 907.4,-40.27 859.13,-58.86 678.5,-30 672.95,-29.11 667.16,-28 661.45,-26.8"/>
<polygon fill="#63b8ff" stroke="#63b8ff" points="661.87,-23.3 651.34,-24.55 660.35,-30.14 661.87,-23.3"/>
</a>
</g>
</g>
<!-- Node28 -->
<g id="Node000028" class="node">
<title>Node28</title>
<g id="a_Node000028"><a xlink:title=" ">
<polygon fill="#e0e0e0" stroke="#999999" points="793.5,-30 687.5,-30 687.5,0 793.5,0 793.5,-30"/>
<text text-anchor="start" x="695.5" y="-18" font-family="Helvetica,sans-Serif" font-size="10.00">boost/mpl/integral</text>
<text text-anchor="middle" x="740.5" y="-7" font-family="Helvetica,sans-Serif" font-size="10.00">_c_tag.hpp</text>
</a>
</g>
</g>
<!-- Node24&#45;&gt;Node28 -->
<g id="edge31_Node000024_Node000028" class="edge">
<title>Node24&#45;&gt;Node28</title>
<g id="a_edge31_Node000024_Node000028"><a xlink:title=" ">
<path fill="none" stroke="#63b8ff" d="M1118.66,-71.44C1108.81,-69.52 1098.3,-67.58 1088.5,-66 965.23,-46.11 930.44,-51.82 803.63,-30.09"/>
<polygon fill="#63b8ff" stroke="#63b8ff" points="803.98,-26.59 793.53,-28.33 802.78,-33.49 803.98,-26.59"/>
</a>
</g>
</g>
<!-- Node29 -->
<g id="Node000029" class="node">
<title>Node29</title>
<g id="a_Node000029"><a xlink:title=" ">
<polygon fill="#e0e0e0" stroke="#999999" points="963,-30 812,-30 812,0 963,0 963,-30"/>
<text text-anchor="start" x="820" y="-18" font-family="Helvetica,sans-Serif" font-size="10.00">boost/serialization</text>
<text text-anchor="middle" x="887.5" y="-7" font-family="Helvetica,sans-Serif" font-size="10.00">/is_bitwise_serializable.hpp</text>
</a>
</g>
</g>
<!-- Node24&#45;&gt;Node29 -->
<g id="edge32_Node000024_Node000029" class="edge">
<title>Node24&#45;&gt;Node29</title>
<g id="a_edge32_Node000024_Node000029"><a xlink:title=" ">
<path fill="none" stroke="#63b8ff" d="M1123.1,-71.44C1080.8,-61.48 1010.06,-44.84 957.11,-32.38"/>
<polygon fill="#63b8ff" stroke="#63b8ff" points="957.64,-28.91 947.11,-30.02 956.04,-35.72 957.64,-28.91"/>
</a>
</g>
</g>
<!-- Node30 -->
<g id="Node000030" class="node">
<title>Node30</title>
<g id="a_Node000030"><a xlink:title=" ">
<polygon fill="#e0e0e0" stroke="#999999" points="1088,-30 981,-30 981,0 1088,0 1088,-30"/>
<text text-anchor="start" x="989" y="-18" font-family="Helvetica,sans-Serif" font-size="10.00">boost/serialization</text>
<text text-anchor="middle" x="1034.5" y="-7" font-family="Helvetica,sans-Serif" font-size="10.00">/level.hpp</text>
</a>
</g>
</g>
<!-- Node24&#45;&gt;Node30 -->
<g id="edge33_Node000024_Node000030" class="edge">
<title>Node24&#45;&gt;Node30</title>
<g id="a_edge33_Node000024_Node000030"><a xlink:title=" ">
<path fill="none" stroke="#63b8ff" d="M1142.64,-71.37C1124.4,-62.03 1094.77,-46.86 1071.13,-34.75"/>
<polygon fill="#63b8ff" stroke="#63b8ff" points="1072.57,-31.56 1062.07,-30.12 1069.38,-37.79 1072.57,-31.56"/>
</a>
</g>
</g>
<!-- Node31 -->
<g id="Node000031" class="node">
<title>Node31</title>
<g id="a_Node000031"><a xlink:title=" ">
<polygon fill="#e0e0e0" stroke="#999999" points="1213,-30 1106,-30 1106,0 1213,0 1213,-30"/>
<text text-anchor="start" x="1114" y="-18" font-family="Helvetica,sans-Serif" font-size="10.00">boost/serialization</text>
<text text-anchor="middle" x="1159.5" y="-7" font-family="Helvetica,sans-Serif" font-size="10.00">/tracking.hpp</text>
</a>
</g>
</g>
<!-- Node24&#45;&gt;Node31 -->
<g id="edge34_Node000024_Node000031" class="edge">
<title>Node24&#45;&gt;Node31</title>
<g id="a_edge34_Node000024_Node000031"><a xlink:title=" ">
<path fill="none" stroke="#63b8ff" d="M1159.5,-71.37C1159.5,-63.49 1159.5,-51.45 1159.5,-40.6"/>
<polygon fill="#63b8ff" stroke="#63b8ff" points="1163,-40.36 1159.5,-30.36 1156,-40.36 1163,-40.36"/>
</a>
</g>
</g>
<!-- Node32 -->
<g id="Node000032" class="node">
<title>Node32</title>
<g id="a_Node000032"><a xlink:title=" ">
<polygon fill="#e0e0e0" stroke="#999999" points="1344,-30 1231,-30 1231,0 1344,0 1344,-30"/>
<text text-anchor="start" x="1239" y="-18" font-family="Helvetica,sans-Serif" font-size="10.00">boost/serialization</text>
<text text-anchor="middle" x="1287.5" y="-7" font-family="Helvetica,sans-Serif" font-size="10.00">/tracking_enum.hpp</text>
</a>
</g>
</g>
<!-- Node24&#45;&gt;Node32 -->
<g id="edge35_Node000024_Node000032" class="edge">
<title>Node24&#45;&gt;Node32</title>
<g id="a_edge35_Node000024_Node000032"><a xlink:title=" ">
<path fill="none" stroke="#63b8ff" d="M1176.76,-71.37C1195.52,-61.99 1226.06,-46.72 1250.32,-34.59"/>
<polygon fill="#63b8ff" stroke="#63b8ff" points="1251.89,-37.72 1259.27,-30.12 1248.76,-31.46 1251.89,-37.72"/>
</a>
</g>
</g>
<!-- Node43&#45;&gt;Node23 -->
<g id="edge59_Node000043_Node000023" class="edge">
<title>Node43&#45;&gt;Node23</title>
<g id="a_edge59_Node000043_Node000023"><a xlink:title=" ">
<path fill="none" stroke="#63b8ff" d="M644.79,-197.8C654.17,-182.9 674.95,-152.19 698.5,-132 716.17,-116.85 739.12,-103.99 757.15,-95.11"/>
<polygon fill="#63b8ff" stroke="#63b8ff" points="759.08,-98.06 766.59,-90.59 756.06,-91.75 759.08,-98.06"/>
</a>
</g>
</g>
</g>
</svg>

<g id="navigator" transform="translate(0 0)" fill="#404254">
  <rect fill="#f2f5e9" fill-opacity="0.5" stroke="#606060" stroke-width=".5" x="0" y="0" width="60" height="60"/>
  <use id="zoomplus" xlink:href="#zoomPlus" x="17" y="9" onmousedown="handleZoom(evt,'in')"/>
  <use id="zoomminus" xlink:href="#zoomMin" x="42" y="9" onmousedown="handleZoom(evt,'out')"/>
  <use id="reset" xlink:href="#resetDef" x="30" y="36" onmousedown="handleReset()"/>
   <use id="arrowup" xlink:href="#arrowUp" x="0" y="0" onmousedown="handlePan(0,-1)"/>
  <use id="arrowright" xlink:href="#arrowRight" x="0" y="0" onmousedown="handlePan(1,0)"/>
  <use id="arrowdown" xlink:href="#arrowDown" x="0" y="0" onmousedown="handlePan(0,1)"/>
  <use id="arrowleft" xlink:href="#arrowLeft" x="0" y="0" onmousedown="handlePan(-1,0)"/>
</g>
<svg viewBox="0 0 15 15" width="100%" height="30px" preserveAspectRatio="xMaxYMin meet">
 <g id="arrow_out" transform="scale(0.3 0.3)">
  <a xlink:href="hat_8hpp__incl_org.svg" target="_base">
   <rect id="button" ry="5" rx="5" y="6" x="6" height="38" width="38"
        fill="#f2f5e9" fill-opacity="0.5" stroke="#606060" stroke-width="1.0"/>
   <path id="arrow"
     d="M 11.500037,31.436501 C 11.940474,20.09759 22.043105,11.32322 32.158766,21.979434 L 37.068811,17.246167 C 37.068811,17.246167 37.088388,32 37.088388,32 L 22.160133,31.978069 C 22.160133,31.978069 26.997745,27.140456 26.997745,27.140456 C 18.528582,18.264221 13.291696,25.230495 11.500037,31.436501 z"
     style="fill:#404040;"/>
  </a>
 </g>
</svg>

<style type='text/css'>
<![CDATA[
[data-mouse-over-selected='false'] { opacity: 0.7; }
[data-mouse-over-selected='true']  { opacity: 1.0; }
]]>
</style>
<script type="application/ecmascript"><![CDATA[
document.addEventListener('DOMContentLoaded', (event) => {
  highlightEdges();
  highlightAdjacentNodes();
});
]]></script>
</svg>
