<?xml version="1.0" encoding="UTF-8" standalone="no"?>
<!DOCTYPE svg PUBLIC "-//W3C//DTD SVG 1.1//EN"
 "http://www.w3.org/Graphics/SVG/1.1/DTD/svg11.dtd">
<!-- Generated by graphviz version 2.43.0 (0)
 -->
<!-- Title: hat.cpp Pages: 1 -->
<svg width="2165pt" height="456pt"
 viewBox="0.00 0.00 2165.30 456.00" xmlns="http://www.w3.org/2000/svg" xmlns:xlink="http://www.w3.org/1999/xlink">
<g id="graph0" class="graph" transform="scale(1 1) rotate(0) translate(4 452)">
<title>hat.cpp</title>
<!-- Node1 -->
<g id="Node000001" class="node">
<title>Node1</title>
<g id="a_Node000001"><a xlink:title="Implementation of hat.hpp.">
<polygon fill="#999999" stroke="#666666" points="985.5,-448 932.5,-448 932.5,-429 985.5,-429 985.5,-448"/>
<text text-anchor="middle" x="959" y="-436" font-family="Helvetica,sans-Serif" font-size="10.00">hat.cpp</text>
</a>
</g>
</g>
<!-- Node2 -->
<g id="Node000002" class="node">
<title>Node2</title>
<g id="a_Node000002"><a xlink:href="hat_8hpp.html" target="_top" xlink:title="Routines to calculate the hat potential between particle pairs.">
<polygon fill="white" stroke="#666666" points="930.5,-393 877.5,-393 877.5,-374 930.5,-374 930.5,-393"/>
<text text-anchor="middle" x="904" y="-381" font-family="Helvetica,sans-Serif" font-size="10.00">hat.hpp</text>
</a>
</g>
</g>
<!-- Node1&#45;&gt;Node2 -->
<g id="edge1_Node000001_Node000002" class="edge">
<title>Node1&#45;&gt;Node2</title>
<g id="a_edge1_Node000001_Node000002"><a xlink:title=" ">
<path fill="none" stroke="#63b8ff" d="M949.92,-428.75C941.91,-421.03 930.04,-409.6 920.38,-400.28"/>
<polygon fill="#63b8ff" stroke="#63b8ff" points="922.54,-397.51 912.91,-393.09 917.69,-402.55 922.54,-397.51"/>
</a>
</g>
</g>
<!-- Node5 -->
<g id="Node000005" class="node">
<title>Node5</title>
<g id="a_Node000005"><a xlink:href="nonbonded__interaction__data_8hpp.html" target="_top" xlink:title="Various procedures concerning interactions between particles.">
<polygon fill="white" stroke="#666666" points="996,-338 868,-338 868,-308 996,-308 996,-338"/>
<text text-anchor="start" x="876" y="-326" font-family="Helvetica,sans-Serif" font-size="10.00">nonbonded_interaction</text>
<text text-anchor="middle" x="932" y="-315" font-family="Helvetica,sans-Serif" font-size="10.00">_data.hpp</text>
</a>
</g>
</g>
<!-- Node1&#45;&gt;Node5 -->
<g id="edge67_Node000001_Node000005" class="edge">
<title>Node1&#45;&gt;Node5</title>
<g id="a_edge67_Node000001_Node000005"><a xlink:title=" ">
<path fill="none" stroke="#63b8ff" d="M956.97,-428.97C952.94,-412.01 943.78,-373.5 937.74,-348.14"/>
<polygon fill="#63b8ff" stroke="#63b8ff" points="941.09,-347.1 935.37,-338.18 934.28,-348.72 941.09,-347.1"/>
</a>
</g>
</g>
<!-- Node18 -->
<g id="Node000018" class="node">
<title>Node18</title>
<g id="a_Node000018"><a xlink:title=" ">
<polygon fill="#e0e0e0" stroke="#999999" points="2128.5,-90.5 2063.5,-90.5 2063.5,-71.5 2128.5,-71.5 2128.5,-90.5"/>
<text text-anchor="middle" x="2096" y="-78.5" font-family="Helvetica,sans-Serif" font-size="10.00">stdexcept</text>
</a>
</g>
</g>
<!-- Node1&#45;&gt;Node18 -->
<g id="edge68_Node000001_Node000018" class="edge">
<title>Node1&#45;&gt;Node18</title>
<g id="a_edge68_Node000001_Node000018"><a xlink:title=" ">
<path fill="none" stroke="#63b8ff" d="M985.69,-437.77C1159.1,-439.2 2119,-441.81 2119,-324 2119,-324 2119,-324 2119,-206.5 2119,-168.36 2108.43,-124.72 2101.62,-100.57"/>
<polygon fill="#63b8ff" stroke="#63b8ff" points="2104.89,-99.27 2098.73,-90.65 2098.17,-101.23 2104.89,-99.27"/>
</a>
</g>
</g>
<!-- Node3 -->
<g id="Node000003" class="node">
<title>Node3</title>
<g id="a_Node000003"><a xlink:href="config_8hpp.html" target="_top" xlink:title="This file contains the defaults for ESPResSo.">
<polygon fill="white" stroke="#666666" points="712.5,-272 613.5,-272 613.5,-253 712.5,-253 712.5,-272"/>
<text text-anchor="middle" x="663" y="-260" font-family="Helvetica,sans-Serif" font-size="10.00">config/config.hpp</text>
</a>
</g>
</g>
<!-- Node2&#45;&gt;Node3 -->
<g id="edge2_Node000002_Node000003" class="edge">
<title>Node2&#45;&gt;Node3</title>
<g id="a_edge2_Node000002_Node000003"><a xlink:title=" ">
<path fill="none" stroke="#63b8ff" d="M886.67,-373.94C845.08,-353.41 739.41,-301.23 689.67,-276.67"/>
<polygon fill="#63b8ff" stroke="#63b8ff" points="691.02,-273.43 680.5,-272.14 687.92,-279.71 691.02,-273.43"/>
</a>
</g>
</g>
<!-- Node2&#45;&gt;Node5 -->
<g id="edge4_Node000002_Node000005" class="edge">
<title>Node2&#45;&gt;Node5</title>
<g id="a_edge4_Node000002_Node000005"><a xlink:title=" ">
<path fill="none" stroke="#63b8ff" d="M908.13,-373.87C911.47,-366.89 916.34,-356.71 920.81,-347.38"/>
<polygon fill="#63b8ff" stroke="#63b8ff" points="924.08,-348.65 925.24,-338.11 917.77,-345.62 924.08,-348.65"/>
</a>
</g>
</g>
<!-- Node4 -->
<g id="Node000004" class="node">
<title>Node4</title>
<g id="a_Node000004"><a xlink:title=" ">
<polygon fill="#e0e0e0" stroke="#999999" points="604.5,-217 461.5,-217 461.5,-198 604.5,-198 604.5,-217"/>
<text text-anchor="middle" x="533" y="-205" font-family="Helvetica,sans-Serif" font-size="10.00">config/config&#45;features.hpp</text>
</a>
</g>
</g>
<!-- Node3&#45;&gt;Node4 -->
<g id="edge3_Node000003_Node000004" class="edge">
<title>Node3&#45;&gt;Node4</title>
<g id="a_edge3_Node000003_Node000004"><a xlink:title=" ">
<path fill="none" stroke="#63b8ff" d="M642.11,-252.98C620.92,-244.34 587.87,-230.87 563.7,-221.02"/>
<polygon fill="#63b8ff" stroke="#63b8ff" points="564.85,-217.7 554.27,-217.17 562.21,-224.19 564.85,-217.7"/>
</a>
</g>
</g>
<!-- Node5&#45;&gt;Node3 -->
<g id="edge13_Node000005_Node000003" class="edge">
<title>Node5&#45;&gt;Node3</title>
<g id="a_edge13_Node000005_Node000003"><a xlink:title=" ">
<path fill="none" stroke="#63b8ff" d="M867.91,-308.06C820.19,-297.68 756,-283.73 712.26,-274.21"/>
<polygon fill="#63b8ff" stroke="#63b8ff" points="712.95,-270.78 702.43,-272.08 711.46,-277.62 712.95,-270.78"/>
</a>
</g>
</g>
<!-- Node6 -->
<g id="Node000006" class="node">
<title>Node6</title>
<g id="a_Node000006"><a xlink:href="TabulatedPotential_8hpp.html" target="_top" xlink:title=" ">
<polygon fill="white" stroke="#666666" points="751,-217 623,-217 623,-198 751,-198 751,-217"/>
<text text-anchor="middle" x="687" y="-205" font-family="Helvetica,sans-Serif" font-size="10.00">TabulatedPotential.hpp</text>
</a>
</g>
</g>
<!-- Node5&#45;&gt;Node6 -->
<g id="edge5_Node000005_Node000006" class="edge">
<title>Node5&#45;&gt;Node6</title>
<g id="a_edge5_Node000005_Node000006"><a xlink:title=" ">
<path fill="none" stroke="#63b8ff" d="M867.86,-309.05C835.79,-301.05 797.09,-289 765,-272 741.04,-259.31 717.46,-238.66 702.6,-224.37"/>
<polygon fill="#63b8ff" stroke="#63b8ff" points="704.88,-221.7 695.3,-217.17 699.97,-226.69 704.88,-221.7"/>
</a>
</g>
</g>
<!-- Node8 -->
<g id="Node000008" class="node">
<title>Node8</title>
<g id="a_Node000008"><a xlink:title=" ">
<polygon fill="#e0e0e0" stroke="#999999" points="1835,-24.5 1783,-24.5 1783,-5.5 1835,-5.5 1835,-24.5"/>
<text text-anchor="middle" x="1809" y="-12.5" font-family="Helvetica,sans-Serif" font-size="10.00">cassert</text>
</a>
</g>
</g>
<!-- Node5&#45;&gt;Node8 -->
<g id="edge63_Node000005_Node000008" class="edge">
<title>Node5&#45;&gt;Node8</title>
<g id="a_edge63_Node000005_Node000008"><a xlink:title=" ">
<path fill="none" stroke="#63b8ff" d="M996.38,-319.89C1225.16,-311.88 1989.96,-280.54 2078,-217 2136.56,-174.74 2185.07,-120.77 2138,-66 2100.59,-22.48 1923.13,-16.39 1845.5,-15.85"/>
<polygon fill="#63b8ff" stroke="#63b8ff" points="1845.25,-12.35 1835.23,-15.81 1845.22,-19.35 1845.25,-12.35"/>
</a>
</g>
</g>
<!-- Node12 -->
<g id="Node000012" class="node">
<title>Node12</title>
<g id="a_Node000012"><a xlink:title=" ">
<polygon fill="#e0e0e0" stroke="#999999" points="847,-156.5 783,-156.5 783,-137.5 847,-137.5 847,-156.5"/>
<text text-anchor="middle" x="815" y="-144.5" font-family="Helvetica,sans-Serif" font-size="10.00">algorithm</text>
</a>
</g>
</g>
<!-- Node5&#45;&gt;Node12 -->
<g id="edge62_Node000005_Node000012" class="edge">
<title>Node5&#45;&gt;Node12</title>
<g id="a_edge62_Node000005_Node000012"><a xlink:title=" ">
<path fill="none" stroke="#63b8ff" d="M885.31,-307.86C867.25,-300.08 848.05,-288.56 836,-272 813.17,-240.63 811.91,-193.06 813.28,-166.9"/>
<polygon fill="#63b8ff" stroke="#63b8ff" points="816.78,-167.04 814,-156.81 809.8,-166.54 816.78,-167.04"/>
</a>
</g>
</g>
<!-- Node13 -->
<g id="Node000013" class="node">
<title>Node13</title>
<g id="a_Node000013"><a xlink:title=" ">
<polygon fill="#e0e0e0" stroke="#999999" points="764.5,-156.5 717.5,-156.5 717.5,-137.5 764.5,-137.5 764.5,-156.5"/>
<text text-anchor="middle" x="741" y="-144.5" font-family="Helvetica,sans-Serif" font-size="10.00">vector</text>
</a>
</g>
</g>
<!-- Node5&#45;&gt;Node13 -->
<g id="edge66_Node000005_Node000013" class="edge">
<title>Node5&#45;&gt;Node13</title>
<g id="a_edge66_Node000005_Node000013"><a xlink:title=" ">
<path fill="none" stroke="#63b8ff" d="M886.4,-307.92C865.2,-299.8 840.62,-287.99 822,-272 786.69,-241.69 760.82,-192.26 748.69,-165.9"/>
<polygon fill="#63b8ff" stroke="#63b8ff" points="751.87,-164.42 744.6,-156.71 745.48,-167.27 751.87,-164.42"/>
</a>
</g>
</g>
<!-- Node14 -->
<g id="Node000014" class="node">
<title>Node14</title>
<g id="a_Node000014"><a xlink:title=" ">
<polygon fill="#e0e0e0" stroke="#999999" points="942.5,-272 845.5,-272 845.5,-253 942.5,-253 942.5,-272"/>
<text text-anchor="middle" x="894" y="-260" font-family="Helvetica,sans-Serif" font-size="10.00">system/Leaf.hpp</text>
</a>
</g>
</g>
<!-- Node5&#45;&gt;Node14 -->
<g id="edge14_Node000005_Node000014" class="edge">
<title>Node5&#45;&gt;Node14</title>
<g id="a_edge14_Node000005_Node000014"><a xlink:title=" ">
<path fill="none" stroke="#63b8ff" d="M922.8,-307.84C917.51,-299.69 910.82,-289.4 905.22,-280.78"/>
<polygon fill="#63b8ff" stroke="#63b8ff" points="908.08,-278.75 899.69,-272.27 902.21,-282.56 908.08,-278.75"/>
</a>
</g>
</g>
<!-- Node15 -->
<g id="Node000015" class="node">
<title>Node15</title>
<g id="a_Node000015"><a xlink:href="index_8hpp.html" target="_top" xlink:title=" ">
<polygon fill="white" stroke="#666666" points="1591.5,-272 1502.5,-272 1502.5,-253 1591.5,-253 1591.5,-272"/>
<text text-anchor="middle" x="1547" y="-260" font-family="Helvetica,sans-Serif" font-size="10.00">utils/index.hpp</text>
</a>
</g>
</g>
<!-- Node5&#45;&gt;Node15 -->
<g id="edge15_Node000005_Node000015" class="edge">
<title>Node5&#45;&gt;Node15</title>
<g id="a_edge15_Node000005_Node000015"><a xlink:title=" ">
<path fill="none" stroke="#63b8ff" d="M996.08,-315.91C1117.35,-304.37 1378.45,-279.53 1492.18,-268.71"/>
<polygon fill="#63b8ff" stroke="#63b8ff" points="1492.77,-272.17 1502.4,-267.74 1492.11,-265.21 1492.77,-272.17"/>
</a>
</g>
</g>
<!-- Node36 -->
<g id="Node000036" class="node">
<title>Node36</title>
<g id="a_Node000036"><a xlink:title=" ">
<polygon fill="#e0e0e0" stroke="#999999" points="912.5,-156.5 865.5,-156.5 865.5,-137.5 912.5,-137.5 912.5,-156.5"/>
<text text-anchor="middle" x="889" y="-144.5" font-family="Helvetica,sans-Serif" font-size="10.00">cmath</text>
</a>
</g>
</g>
<!-- Node5&#45;&gt;Node36 -->
<g id="edge64_Node000005_Node000036" class="edge">
<title>Node5&#45;&gt;Node36</title>
<g id="a_edge64_Node000005_Node000036"><a xlink:title=" ">
<path fill="none" stroke="#63b8ff" d="M940.36,-308C947.62,-294.06 956.21,-272.06 951,-253 941.61,-218.64 917.79,-184.1 902.56,-164.45"/>
<polygon fill="#63b8ff" stroke="#63b8ff" points="905.21,-162.16 896.24,-156.52 899.74,-166.52 905.21,-162.16"/>
</a>
</g>
</g>
<!-- Node41 -->
<g id="Node000041" class="node">
<title>Node41</title>
<g id="a_Node000041"><a xlink:href="int__pow_8hpp.html" target="_top" xlink:title=" ">
<polygon fill="white" stroke="#666666" points="2015,-217 1887,-217 1887,-198 2015,-198 2015,-217"/>
<text text-anchor="middle" x="1951" y="-205" font-family="Helvetica,sans-Serif" font-size="10.00">utils/math/int_pow.hpp</text>
</a>
</g>
</g>
<!-- Node5&#45;&gt;Node41 -->
<g id="edge59_Node000005_Node000041" class="edge">
<title>Node5&#45;&gt;Node41</title>
<g id="a_edge59_Node000005_Node000041"><a xlink:title=" ">
<path fill="none" stroke="#63b8ff" d="M996.01,-320.37C1140.53,-316.18 1488.23,-303.1 1601,-272 1619.2,-266.98 1620.98,-258.63 1639,-253 1661.21,-246.07 1791.63,-228.7 1876.67,-217.83"/>
<polygon fill="#63b8ff" stroke="#63b8ff" points="1877.33,-221.27 1886.8,-216.54 1876.44,-214.33 1877.33,-221.27"/>
</a>
</g>
</g>
<!-- Node42 -->
<g id="Node000042" class="node">
<title>Node42</title>
<g id="a_Node000042"><a xlink:title=" ">
<polygon fill="#e0e0e0" stroke="#999999" points="1706,-272 1648,-272 1648,-253 1706,-253 1706,-272"/>
<text text-anchor="middle" x="1677" y="-260" font-family="Helvetica,sans-Serif" font-size="10.00">memory</text>
</a>
</g>
</g>
<!-- Node5&#45;&gt;Node42 -->
<g id="edge65_Node000005_Node000042" class="edge">
<title>Node5&#45;&gt;Node42</title>
<g id="a_edge65_Node000005_Node000042"><a xlink:title=" ">
<path fill="none" stroke="#63b8ff" d="M996.15,-320.09C1119.96,-315.83 1400.27,-303.3 1634,-272 1635.27,-271.83 1636.56,-271.64 1637.87,-271.45"/>
<polygon fill="#63b8ff" stroke="#63b8ff" points="1638.66,-274.86 1647.94,-269.75 1637.49,-267.96 1638.66,-274.86"/>
</a>
</g>
</g>
<!-- Node7 -->
<g id="Node000007" class="node">
<title>Node7</title>
<g id="a_Node000007"><a xlink:href="linear__interpolation_8hpp.html" target="_top" xlink:title=" ">
<polygon fill="white" stroke="#666666" points="912.5,-90.5 755.5,-90.5 755.5,-71.5 912.5,-71.5 912.5,-90.5"/>
<text text-anchor="middle" x="834" y="-78.5" font-family="Helvetica,sans-Serif" font-size="10.00">utils/linear_interpolation.hpp</text>
</a>
</g>
</g>
<!-- Node6&#45;&gt;Node7 -->
<g id="edge6_Node000006_Node000007" class="edge">
<title>Node6&#45;&gt;Node7</title>
<g id="a_edge6_Node000006_Node000007"><a xlink:title=" ">
<path fill="none" stroke="#63b8ff" d="M687.06,-197.98C687.61,-182.81 690.9,-150.96 708,-132 725.46,-112.65 751.39,-100.68 775.2,-93.33"/>
<polygon fill="#63b8ff" stroke="#63b8ff" points="776.24,-96.67 784.89,-90.55 774.31,-89.95 776.24,-96.67"/>
</a>
</g>
</g>
<!-- Node10 -->
<g id="Node000010" class="node">
<title>Node10</title>
<g id="a_Node000010"><a xlink:title=" ">
<polygon fill="#e0e0e0" stroke="#999999" points="582.5,-96 475.5,-96 475.5,-66 582.5,-66 582.5,-96"/>
<text text-anchor="start" x="483.5" y="-84" font-family="Helvetica,sans-Serif" font-size="10.00">boost/serialization</text>
<text text-anchor="middle" x="529" y="-73" font-family="Helvetica,sans-Serif" font-size="10.00">/access.hpp</text>
</a>
</g>
</g>
<!-- Node6&#45;&gt;Node10 -->
<g id="edge9_Node000006_Node000010" class="edge">
<title>Node6&#45;&gt;Node10</title>
<g id="a_edge9_Node000006_Node000010"><a xlink:title=" ">
<path fill="none" stroke="#63b8ff" d="M642.96,-197.98C606.04,-189.94 557.27,-176.91 544,-162 530.54,-146.88 527.45,-123.63 527.33,-106.08"/>
<polygon fill="#63b8ff" stroke="#63b8ff" points="530.84,-106.1 527.58,-96.02 523.84,-105.93 530.84,-106.1"/>
</a>
</g>
</g>
<!-- Node11 -->
<g id="Node000011" class="node">
<title>Node11</title>
<g id="a_Node000011"><a xlink:title=" ">
<polygon fill="#e0e0e0" stroke="#999999" points="660.5,-162 553.5,-162 553.5,-132 660.5,-132 660.5,-162"/>
<text text-anchor="start" x="561.5" y="-150" font-family="Helvetica,sans-Serif" font-size="10.00">boost/serialization</text>
<text text-anchor="middle" x="607" y="-139" font-family="Helvetica,sans-Serif" font-size="10.00">/vector.hpp</text>
</a>
</g>
</g>
<!-- Node6&#45;&gt;Node11 -->
<g id="edge10_Node000006_Node000011" class="edge">
<title>Node6&#45;&gt;Node11</title>
<g id="a_edge10_Node000006_Node000011"><a xlink:title=" ">
<path fill="none" stroke="#63b8ff" d="M675.2,-197.87C664.54,-190.08 648.46,-178.32 634.59,-168.17"/>
<polygon fill="#63b8ff" stroke="#63b8ff" points="636.44,-165.19 626.3,-162.11 632.31,-170.84 636.44,-165.19"/>
</a>
</g>
</g>
<!-- Node6&#45;&gt;Node12 -->
<g id="edge11_Node000006_Node000012" class="edge">
<title>Node6&#45;&gt;Node12</title>
<g id="a_edge11_Node000006_Node000012"><a xlink:title=" ">
<path fill="none" stroke="#63b8ff" d="M705.61,-197.99C727.04,-188.2 762.44,-172.02 787.15,-160.73"/>
<polygon fill="#63b8ff" stroke="#63b8ff" points="788.72,-163.86 796.37,-156.52 785.82,-157.49 788.72,-163.86"/>
</a>
</g>
</g>
<!-- Node6&#45;&gt;Node13 -->
<g id="edge12_Node000006_Node000013" class="edge">
<title>Node6&#45;&gt;Node13</title>
<g id="a_edge12_Node000006_Node000013"><a xlink:title=" ">
<path fill="none" stroke="#63b8ff" d="M694.97,-197.87C703.1,-189.05 715.93,-175.16 725.98,-164.27"/>
<polygon fill="#63b8ff" stroke="#63b8ff" points="728.79,-166.39 733,-156.67 723.64,-161.64 728.79,-166.39"/>
</a>
</g>
</g>
<!-- Node7&#45;&gt;Node8 -->
<g id="edge7_Node000007_Node000008" class="edge">
<title>Node7&#45;&gt;Node8</title>
<g id="a_edge7_Node000007_Node000008"><a xlink:title=" ">
<path fill="none" stroke="#63b8ff" d="M912.55,-74.84C1111.72,-61.77 1630.7,-27.7 1772.65,-18.39"/>
<polygon fill="#63b8ff" stroke="#63b8ff" points="1773.22,-21.86 1782.97,-17.71 1772.76,-14.87 1773.22,-21.86"/>
</a>
</g>
</g>
<!-- Node9 -->
<g id="Node000009" class="node">
<title>Node9</title>
<g id="a_Node000009"><a xlink:title=" ">
<polygon fill="#e0e0e0" stroke="#999999" points="1140.5,-24.5 1087.5,-24.5 1087.5,-5.5 1140.5,-5.5 1140.5,-24.5"/>
<text text-anchor="middle" x="1114" y="-12.5" font-family="Helvetica,sans-Serif" font-size="10.00">cstddef</text>
</a>
</g>
</g>
<!-- Node7&#45;&gt;Node9 -->
<g id="edge8_Node000007_Node000009" class="edge">
<title>Node7&#45;&gt;Node9</title>
<g id="a_edge8_Node000007_Node000009"><a xlink:title=" ">
<path fill="none" stroke="#63b8ff" d="M888.92,-71.48C938.8,-63.09 1014.12,-48.82 1078,-30 1079.93,-29.43 1081.9,-28.8 1083.88,-28.14"/>
<polygon fill="#63b8ff" stroke="#63b8ff" points="1085.44,-31.3 1093.65,-24.6 1083.05,-24.72 1085.44,-31.3"/>
</a>
</g>
</g>
<!-- Node15&#45;&gt;Node8 -->
<g id="edge16_Node000015_Node000008" class="edge">
<title>Node15&#45;&gt;Node8</title>
<g id="a_edge16_Node000015_Node000008"><a xlink:title=" ">
<path fill="none" stroke="#63b8ff" d="M1591.85,-257.34C1710.53,-246.33 2023.77,-217.25 2024,-217 2093.82,-140.36 1917.92,-58.95 1841.94,-28.47"/>
<polygon fill="#63b8ff" stroke="#63b8ff" points="1842.92,-25.09 1832.34,-24.68 1840.35,-31.61 1842.92,-25.09"/>
</a>
</g>
</g>
<!-- Node15&#45;&gt;Node9 -->
<g id="edge17_Node000015_Node000009" class="edge">
<title>Node15&#45;&gt;Node9</title>
<g id="a_edge17_Node000015_Node000009"><a xlink:title=" ">
<path fill="none" stroke="#63b8ff" d="M1502.42,-260.34C1384.4,-256.22 1068.46,-238.17 1005,-162 989.14,-142.96 1009.56,-80.81 1021,-66 1029.47,-55.03 1060.37,-39.58 1084.25,-28.77"/>
<polygon fill="#63b8ff" stroke="#63b8ff" points="1085.93,-31.85 1093.64,-24.59 1083.09,-25.46 1085.93,-31.85"/>
</a>
</g>
</g>
<!-- Node16 -->
<g id="Node000016" class="node">
<title>Node16</title>
<g id="a_Node000016"><a xlink:title=" ">
<polygon fill="#e0e0e0" stroke="#999999" points="1606.5,-90.5 1553.5,-90.5 1553.5,-71.5 1606.5,-71.5 1606.5,-90.5"/>
<text text-anchor="middle" x="1580" y="-78.5" font-family="Helvetica,sans-Serif" font-size="10.00">iterator</text>
</a>
</g>
</g>
<!-- Node15&#45;&gt;Node16 -->
<g id="edge18_Node000015_Node000016" class="edge">
<title>Node15&#45;&gt;Node16</title>
<g id="a_edge18_Node000015_Node000016"><a xlink:title=" ">
<path fill="none" stroke="#63b8ff" d="M1591.71,-253.92C1670.33,-239.57 1828.05,-205.92 1860,-162 1867.84,-151.22 1868.56,-142.22 1860,-132 1829.46,-95.52 1686.26,-85.63 1617.3,-82.97"/>
<polygon fill="#63b8ff" stroke="#63b8ff" points="1617.01,-79.46 1606.9,-82.6 1616.77,-86.45 1617.01,-79.46"/>
</a>
</g>
</g>
<!-- Node17 -->
<g id="Node000017" class="node">
<title>Node17</title>
<g id="a_Node000017"><a xlink:title=" ">
<polygon fill="#e0e0e0" stroke="#999999" points="1851,-156.5 1795,-156.5 1795,-137.5 1851,-137.5 1851,-156.5"/>
<text text-anchor="middle" x="1823" y="-144.5" font-family="Helvetica,sans-Serif" font-size="10.00">numeric</text>
</a>
</g>
</g>
<!-- Node15&#45;&gt;Node17 -->
<g id="edge19_Node000015_Node000017" class="edge">
<title>Node15&#45;&gt;Node17</title>
<g id="a_edge19_Node000015_Node000017"><a xlink:title=" ">
<path fill="none" stroke="#63b8ff" d="M1567.74,-252.97C1616,-233.13 1735.95,-183.8 1792.54,-160.53"/>
<polygon fill="#63b8ff" stroke="#63b8ff" points="1794.1,-163.67 1802.01,-156.63 1791.43,-157.2 1794.1,-163.67"/>
</a>
</g>
</g>
<!-- Node15&#45;&gt;Node18 -->
<g id="edge20_Node000015_Node000018" class="edge">
<title>Node15&#45;&gt;Node18</title>
<g id="a_edge20_Node000015_Node000018"><a xlink:title=" ">
<path fill="none" stroke="#63b8ff" d="M1591.92,-257.29C1606.89,-255.91 1623.66,-254.37 1639,-253 1685.43,-248.86 2020.98,-246.59 2057,-217 2091.78,-188.43 2096.68,-130.91 2096.71,-101.02"/>
<polygon fill="#63b8ff" stroke="#63b8ff" points="2100.21,-100.64 2096.52,-90.71 2093.21,-100.77 2100.21,-100.64"/>
</a>
</g>
</g>
<!-- Node19 -->
<g id="Node000019" class="node">
<title>Node19</title>
<g id="a_Node000019"><a xlink:href="Vector_8hpp.html" target="_top" xlink:title="Vector implementation and trait types for boost qvm interoperability.">
<polygon fill="white" stroke="#666666" points="1485,-217 1417,-217 1417,-198 1485,-198 1485,-217"/>
<text text-anchor="middle" x="1451" y="-205" font-family="Helvetica,sans-Serif" font-size="10.00">Vector.hpp</text>
</a>
</g>
</g>
<!-- Node15&#45;&gt;Node19 -->
<g id="edge21_Node000015_Node000019" class="edge">
<title>Node15&#45;&gt;Node19</title>
<g id="a_edge21_Node000015_Node000019"><a xlink:title=" ">
<path fill="none" stroke="#63b8ff" d="M1531.58,-252.98C1516.55,-244.69 1493.46,-231.94 1475.84,-222.22"/>
<polygon fill="#63b8ff" stroke="#63b8ff" points="1477.15,-218.94 1466.7,-217.17 1473.77,-225.07 1477.15,-218.94"/>
</a>
</g>
</g>
<!-- Node19&#45;&gt;Node8 -->
<g id="edge49_Node000019_Node000008" class="edge">
<title>Node19&#45;&gt;Node8</title>
<g id="a_edge49_Node000019_Node000008"><a xlink:title=" ">
<path fill="none" stroke="#63b8ff" d="M1485.17,-205.57C1554.37,-203.03 1707.89,-193.86 1748,-162 1783.93,-133.46 1767.96,-108.19 1786,-66 1790.58,-55.29 1796.01,-43.44 1800.45,-33.97"/>
<polygon fill="#63b8ff" stroke="#63b8ff" points="1803.68,-35.32 1804.78,-24.79 1797.35,-32.34 1803.68,-35.32"/>
</a>
</g>
</g>
<!-- Node19&#45;&gt;Node9 -->
<g id="edge51_Node000019_Node000009" class="edge">
<title>Node19&#45;&gt;Node9</title>
<g id="a_edge51_Node000019_Node000009"><a xlink:title=" ">
<path fill="none" stroke="#63b8ff" d="M1416.82,-205.55C1319.53,-202.48 1046.45,-191.32 1020,-162 981.12,-118.9 1053.91,-58.03 1092.38,-30.51"/>
<polygon fill="#63b8ff" stroke="#63b8ff" points="1094.7,-33.16 1100.9,-24.56 1090.69,-27.42 1094.7,-33.16"/>
</a>
</g>
</g>
<!-- Node19&#45;&gt;Node12 -->
<g id="edge48_Node000019_Node000012" class="edge">
<title>Node19&#45;&gt;Node12</title>
<g id="a_edge48_Node000019_Node000012"><a xlink:title=" ">
<path fill="none" stroke="#63b8ff" d="M1416.71,-206.96C1324.82,-207.55 1065.82,-204.94 856,-162 852.93,-161.37 849.77,-160.58 846.64,-159.69"/>
<polygon fill="#63b8ff" stroke="#63b8ff" points="847.43,-156.27 836.84,-156.61 845.33,-162.95 847.43,-156.27"/>
</a>
</g>
</g>
<!-- Node19&#45;&gt;Node13 -->
<g id="edge58_Node000019_Node000013" class="edge">
<title>Node19&#45;&gt;Node13</title>
<g id="a_edge58_Node000019_Node000013"><a xlink:title=" ">
<path fill="none" stroke="#63b8ff" d="M1416.9,-205.76C1297.4,-202.96 898.19,-191.53 774,-162 771.84,-161.49 769.63,-160.84 767.44,-160.11"/>
<polygon fill="#63b8ff" stroke="#63b8ff" points="768.69,-156.84 758.1,-156.54 766.19,-163.38 768.69,-156.84"/>
</a>
</g>
</g>
<!-- Node19&#45;&gt;Node16 -->
<g id="edge54_Node000019_Node000016" class="edge">
<title>Node19&#45;&gt;Node16</title>
<g id="a_edge54_Node000019_Node000016"><a xlink:title=" ">
<path fill="none" stroke="#63b8ff" d="M1485.25,-198.36C1506.41,-191.74 1532.72,-180.41 1550,-162 1566.06,-144.88 1573.73,-118.36 1577.24,-100.6"/>
<polygon fill="#63b8ff" stroke="#63b8ff" points="1580.72,-101.06 1578.97,-90.61 1573.82,-99.87 1580.72,-101.06"/>
</a>
</g>
</g>
<!-- Node19&#45;&gt;Node17 -->
<g id="edge55_Node000019_Node000017" class="edge">
<title>Node19&#45;&gt;Node17</title>
<g id="a_edge55_Node000019_Node000017"><a xlink:title=" ">
<path fill="none" stroke="#63b8ff" d="M1485.11,-204.02C1545.42,-199.18 1674.56,-186.69 1781,-162 1783.97,-161.31 1787.04,-160.5 1790.09,-159.62"/>
<polygon fill="#63b8ff" stroke="#63b8ff" points="1791.16,-162.95 1799.68,-156.64 1789.09,-156.26 1791.16,-162.95"/>
</a>
</g>
</g>
<!-- Node20 -->
<g id="Node000020" class="node">
<title>Node20</title>
<g id="a_Node000020"><a xlink:title=" ">
<polygon fill="#e0e0e0" stroke="#999999" points="1195,-156.5 1045,-156.5 1045,-137.5 1195,-137.5 1195,-156.5"/>
<text text-anchor="middle" x="1120" y="-144.5" font-family="Helvetica,sans-Serif" font-size="10.00">boost/qvm/deduce_vec.hpp</text>
</a>
</g>
</g>
<!-- Node19&#45;&gt;Node20 -->
<g id="edge22_Node000019_Node000020" class="edge">
<title>Node19&#45;&gt;Node20</title>
<g id="a_edge22_Node000019_Node000020"><a xlink:title=" ">
<path fill="none" stroke="#63b8ff" d="M1416.82,-200.46C1360.46,-190.5 1247.39,-170.51 1178.23,-158.29"/>
<polygon fill="#63b8ff" stroke="#63b8ff" points="1178.81,-154.84 1168.36,-156.55 1177.6,-161.73 1178.81,-154.84"/>
</a>
</g>
</g>
<!-- Node21 -->
<g id="Node000021" class="node">
<title>Node21</title>
<g id="a_Node000021"><a xlink:title=" ">
<polygon fill="#e0e0e0" stroke="#999999" points="1353,-156.5 1213,-156.5 1213,-137.5 1353,-137.5 1353,-156.5"/>
<text text-anchor="middle" x="1283" y="-144.5" font-family="Helvetica,sans-Serif" font-size="10.00">boost/qvm/vec_traits.hpp</text>
</a>
</g>
</g>
<!-- Node19&#45;&gt;Node21 -->
<g id="edge23_Node000019_Node000021" class="edge">
<title>Node19&#45;&gt;Node21</title>
<g id="a_edge23_Node000019_Node000021"><a xlink:title=" ">
<path fill="none" stroke="#63b8ff" d="M1426.57,-197.99C1397.71,-187.94 1349.5,-171.16 1317,-159.84"/>
<polygon fill="#63b8ff" stroke="#63b8ff" points="1318.05,-156.5 1307.46,-156.52 1315.75,-163.11 1318.05,-156.5"/>
</a>
</g>
</g>
<!-- Node22 -->
<g id="Node000022" class="node">
<title>Node22</title>
<g id="a_Node000022"><a xlink:href="Array_8hpp.html" target="_top" xlink:title="Array implementation with CUDA support.">
<polygon fill="white" stroke="#666666" points="1541,-156.5 1455,-156.5 1455,-137.5 1541,-137.5 1541,-156.5"/>
<text text-anchor="middle" x="1498" y="-144.5" font-family="Helvetica,sans-Serif" font-size="10.00">utils/Array.hpp</text>
</a>
</g>
</g>
<!-- Node19&#45;&gt;Node22 -->
<g id="edge24_Node000019_Node000022" class="edge">
<title>Node19&#45;&gt;Node22</title>
<g id="a_edge24_Node000019_Node000022"><a xlink:title=" ">
<path fill="none" stroke="#63b8ff" d="M1457.94,-197.87C1464.95,-189.14 1475.96,-175.43 1484.67,-164.59"/>
<polygon fill="#63b8ff" stroke="#63b8ff" points="1487.5,-166.66 1491.04,-156.67 1482.04,-162.27 1487.5,-166.66"/>
</a>
</g>
</g>
<!-- Node24 -->
<g id="Node000024" class="node">
<title>Node24</title>
<g id="a_Node000024"><a xlink:href="get_8hpp.html" target="_top" xlink:title=" ">
<polygon fill="white" stroke="#666666" points="1315.5,-90.5 1262.5,-90.5 1262.5,-71.5 1315.5,-71.5 1315.5,-90.5"/>
<text text-anchor="middle" x="1289" y="-78.5" font-family="Helvetica,sans-Serif" font-size="10.00">get.hpp</text>
</a>
</g>
</g>
<!-- Node19&#45;&gt;Node24 -->
<g id="edge47_Node000019_Node000024" class="edge">
<title>Node19&#45;&gt;Node24</title>
<g id="a_edge47_Node000019_Node000024"><a xlink:title=" ">
<path fill="none" stroke="#63b8ff" d="M1416.73,-205.4C1321.9,-202 1061.3,-190.16 1036,-162 973.7,-92.66 1167.95,-82.96 1252.11,-81.93"/>
<polygon fill="#63b8ff" stroke="#63b8ff" points="1252.3,-85.43 1262.27,-81.84 1252.24,-78.43 1252.3,-85.43"/>
</a>
</g>
</g>
<!-- Node19&#45;&gt;Node36 -->
<g id="edge50_Node000019_Node000036" class="edge">
<title>Node19&#45;&gt;Node36</title>
<g id="a_edge50_Node000019_Node000036"><a xlink:title=" ">
<path fill="none" stroke="#63b8ff" d="M1417,-204.45C1337.6,-199.44 1133.92,-185.24 965,-162 951.05,-160.08 935.77,-157.38 922.59,-154.87"/>
<polygon fill="#63b8ff" stroke="#63b8ff" points="923.02,-151.38 912.53,-152.91 921.68,-158.25 923.02,-151.38"/>
</a>
</g>
</g>
<!-- Node37 -->
<g id="Node000037" class="node">
<title>Node37</title>
<g id="a_Node000037"><a xlink:title=" ">
<polygon fill="#e0e0e0" stroke="#999999" points="1436.5,-156.5 1371.5,-156.5 1371.5,-137.5 1436.5,-137.5 1436.5,-156.5"/>
<text text-anchor="middle" x="1404" y="-144.5" font-family="Helvetica,sans-Serif" font-size="10.00">functional</text>
</a>
</g>
</g>
<!-- Node19&#45;&gt;Node37 -->
<g id="edge52_Node000019_Node000037" class="edge">
<title>Node19&#45;&gt;Node37</title>
<g id="a_edge52_Node000019_Node000037"><a xlink:title=" ">
<path fill="none" stroke="#63b8ff" d="M1444.06,-197.87C1437.05,-189.14 1426.04,-175.43 1417.33,-164.59"/>
<polygon fill="#63b8ff" stroke="#63b8ff" points="1419.96,-162.27 1410.96,-156.67 1414.5,-166.66 1419.96,-162.27"/>
</a>
</g>
</g>
<!-- Node38 -->
<g id="Node000038" class="node">
<title>Node38</title>
<g id="a_Node000038"><a xlink:title=" ">
<polygon fill="#e0e0e0" stroke="#999999" points="1680.5,-156.5 1597.5,-156.5 1597.5,-137.5 1680.5,-137.5 1680.5,-156.5"/>
<text text-anchor="middle" x="1639" y="-144.5" font-family="Helvetica,sans-Serif" font-size="10.00">initializer_list</text>
</a>
</g>
</g>
<!-- Node19&#45;&gt;Node38 -->
<g id="edge53_Node000019_Node000038" class="edge">
<title>Node19&#45;&gt;Node38</title>
<g id="a_edge53_Node000019_Node000038"><a xlink:title=" ">
<path fill="none" stroke="#63b8ff" d="M1478.34,-197.99C1510.92,-187.86 1565.51,-170.87 1601.89,-159.55"/>
<polygon fill="#63b8ff" stroke="#63b8ff" points="1603.12,-162.83 1611.63,-156.52 1601.04,-156.15 1603.12,-162.83"/>
</a>
</g>
</g>
<!-- Node39 -->
<g id="Node000039" class="node">
<title>Node39</title>
<g id="a_Node000039"><a xlink:title=" ">
<polygon fill="#e0e0e0" stroke="#999999" points="1739,-156.5 1699,-156.5 1699,-137.5 1739,-137.5 1739,-156.5"/>
<text text-anchor="middle" x="1719" y="-144.5" font-family="Helvetica,sans-Serif" font-size="10.00">span</text>
</a>
</g>
</g>
<!-- Node19&#45;&gt;Node39 -->
<g id="edge56_Node000019_Node000039" class="edge">
<title>Node19&#45;&gt;Node39</title>
<g id="a_edge56_Node000019_Node000039"><a xlink:title=" ">
<path fill="none" stroke="#63b8ff" d="M1485.35,-203.01C1532.43,-197.57 1619.22,-185.22 1690,-162 1691.23,-161.6 1692.46,-161.16 1693.71,-160.68"/>
<polygon fill="#63b8ff" stroke="#63b8ff" points="1695.27,-163.82 1703.06,-156.63 1692.49,-157.39 1695.27,-163.82"/>
</a>
</g>
</g>
<!-- Node40 -->
<g id="Node000040" class="node">
<title>Node40</title>
<g id="a_Node000040"><a xlink:title=" ">
<polygon fill="#e0e0e0" stroke="#999999" points="1976.5,-156.5 1907.5,-156.5 1907.5,-137.5 1976.5,-137.5 1976.5,-156.5"/>
<text text-anchor="middle" x="1942" y="-144.5" font-family="Helvetica,sans-Serif" font-size="10.00">type_traits</text>
</a>
</g>
</g>
<!-- Node19&#45;&gt;Node40 -->
<g id="edge57_Node000019_Node000040" class="edge">
<title>Node19&#45;&gt;Node40</title>
<g id="a_edge57_Node000019_Node000040"><a xlink:title=" ">
<path fill="none" stroke="#63b8ff" d="M1485.02,-203.5C1555.26,-197.16 1721.35,-181.36 1860,-162 1872.18,-160.3 1885.33,-158.18 1897.46,-156.11"/>
<polygon fill="#63b8ff" stroke="#63b8ff" points="1898.11,-159.55 1907.36,-154.39 1896.91,-152.65 1898.11,-159.55"/>
</a>
</g>
</g>
<!-- Node22&#45;&gt;Node8 -->
<g id="edge41_Node000022_Node000008" class="edge">
<title>Node22&#45;&gt;Node8</title>
<g id="a_edge41_Node000022_Node000008"><a xlink:title=" ">
<path fill="none" stroke="#63b8ff" d="M1500.44,-137.36C1505.63,-120.66 1519.45,-83.99 1545,-66 1581.24,-40.49 1709.12,-25.3 1772.64,-19.17"/>
<polygon fill="#63b8ff" stroke="#63b8ff" points="1773.36,-22.62 1782.99,-18.19 1772.7,-15.65 1773.36,-22.62"/>
</a>
</g>
</g>
<!-- Node22&#45;&gt;Node9 -->
<g id="edge42_Node000022_Node000009" class="edge">
<title>Node22&#45;&gt;Node9</title>
<g id="a_edge42_Node000022_Node000009"><a xlink:title=" ">
<path fill="none" stroke="#63b8ff" d="M1467.85,-137.46C1460.71,-135.55 1453.11,-133.62 1446,-132 1361.35,-112.7 1335.49,-125.95 1254,-96 1208.4,-79.24 1160.29,-48.44 1134.03,-30.34"/>
<polygon fill="#63b8ff" stroke="#63b8ff" points="1135.89,-27.37 1125.69,-24.51 1131.88,-33.11 1135.89,-27.37"/>
</a>
</g>
</g>
<!-- Node22&#45;&gt;Node10 -->
<g id="edge40_Node000022_Node000010" class="edge">
<title>Node22&#45;&gt;Node10</title>
<g id="a_edge40_Node000022_Node000010"><a xlink:title=" ">
<path fill="none" stroke="#63b8ff" d="M1470.72,-137.44C1462.82,-135.3 1454.13,-133.25 1446,-132 1073.6,-74.67 973.08,-141.08 599,-96 596.93,-95.75 594.84,-95.47 592.72,-95.17"/>
<polygon fill="#63b8ff" stroke="#63b8ff" points="593.17,-91.7 582.75,-93.62 592.09,-98.62 593.17,-91.7"/>
</a>
</g>
</g>
<!-- Node22&#45;&gt;Node16 -->
<g id="edge43_Node000022_Node000016" class="edge">
<title>Node22&#45;&gt;Node16</title>
<g id="a_edge43_Node000022_Node000016"><a xlink:title=" ">
<path fill="none" stroke="#63b8ff" d="M1509.06,-137.37C1522.26,-127.06 1544.58,-109.65 1560.66,-97.09"/>
<polygon fill="#63b8ff" stroke="#63b8ff" points="1563.12,-99.61 1568.85,-90.7 1558.82,-94.09 1563.12,-99.61"/>
</a>
</g>
</g>
<!-- Node22&#45;&gt;Node18 -->
<g id="edge45_Node000022_Node000018" class="edge">
<title>Node22&#45;&gt;Node18</title>
<g id="a_edge45_Node000022_Node000018"><a xlink:title=" ">
<path fill="none" stroke="#63b8ff" d="M1541.44,-138.82C1556.48,-136.47 1573.46,-133.96 1589,-132 1760.6,-110.35 1965.87,-92.6 2053.25,-85.43"/>
<polygon fill="#63b8ff" stroke="#63b8ff" points="2053.63,-88.91 2063.31,-84.6 2053.06,-81.93 2053.63,-88.91"/>
</a>
</g>
</g>
<!-- Node23 -->
<g id="Node000023" class="node">
<title>Node23</title>
<g id="a_Node000023"><a xlink:href="device__qualifier_8hpp.html" target="_top" xlink:title=" ">
<polygon fill="white" stroke="#666666" points="1909,-90.5 1795,-90.5 1795,-71.5 1909,-71.5 1909,-90.5"/>
<text text-anchor="middle" x="1852" y="-78.5" font-family="Helvetica,sans-Serif" font-size="10.00">device_qualifier.hpp</text>
</a>
</g>
</g>
<!-- Node22&#45;&gt;Node23 -->
<g id="edge25_Node000022_Node000023" class="edge">
<title>Node22&#45;&gt;Node23</title>
<g id="a_edge25_Node000022_Node000023"><a xlink:title=" ">
<path fill="none" stroke="#63b8ff" d="M1541.05,-138.22C1604.63,-126.72 1723.73,-105.19 1794.65,-92.37"/>
<polygon fill="#63b8ff" stroke="#63b8ff" points="1795.53,-95.77 1804.75,-90.54 1794.28,-88.88 1795.53,-95.77"/>
</a>
</g>
</g>
<!-- Node22&#45;&gt;Node24 -->
<g id="edge27_Node000022_Node000024" class="edge">
<title>Node22&#45;&gt;Node24</title>
<g id="a_edge27_Node000022_Node000024"><a xlink:title=" ">
<path fill="none" stroke="#63b8ff" d="M1469.81,-137.37C1432.45,-125.93 1366.46,-105.72 1325.38,-93.14"/>
<polygon fill="#63b8ff" stroke="#63b8ff" points="1326.34,-89.77 1315.75,-90.19 1324.29,-96.47 1326.34,-89.77"/>
</a>
</g>
</g>
<!-- Node25 -->
<g id="Node000025" class="node">
<title>Node25</title>
<g id="a_Node000025"><a xlink:title=" ">
<polygon fill="#e0e0e0" stroke="#999999" points="1376.5,-24.5 1331.5,-24.5 1331.5,-5.5 1376.5,-5.5 1376.5,-24.5"/>
<text text-anchor="middle" x="1354" y="-12.5" font-family="Helvetica,sans-Serif" font-size="10.00">utility</text>
</a>
</g>
</g>
<!-- Node22&#45;&gt;Node25 -->
<g id="edge46_Node000022_Node000025" class="edge">
<title>Node22&#45;&gt;Node25</title>
<g id="a_edge46_Node000022_Node000025"><a xlink:title=" ">
<path fill="none" stroke="#63b8ff" d="M1496.98,-137.38C1494.67,-121.34 1487.58,-86.68 1468,-66 1446.19,-42.97 1411.91,-29.91 1386.64,-22.96"/>
<polygon fill="#63b8ff" stroke="#63b8ff" points="1387.31,-19.52 1376.76,-20.43 1385.57,-26.3 1387.31,-19.52"/>
</a>
</g>
</g>
<!-- Node26 -->
<g id="Node000026" class="node">
<title>Node26</title>
<g id="a_Node000026"><a xlink:href="array_8hpp.html" target="_top" xlink:title=" ">
<polygon fill="white" stroke="#666666" points="733.5,-90.5 608.5,-90.5 608.5,-71.5 733.5,-71.5 733.5,-90.5"/>
<text text-anchor="middle" x="671" y="-78.5" font-family="Helvetica,sans-Serif" font-size="10.00">serialization/array.hpp</text>
</a>
</g>
</g>
<!-- Node22&#45;&gt;Node26 -->
<g id="edge30_Node000022_Node000026" class="edge">
<title>Node22&#45;&gt;Node26</title>
<g id="a_edge30_Node000022_Node000026"><a xlink:title=" ">
<path fill="none" stroke="#63b8ff" d="M1470.71,-137.49C1462.81,-135.34 1454.13,-133.29 1446,-132 1138.32,-83.23 1055.36,-132.66 746,-96 737.96,-95.05 729.48,-93.75 721.23,-92.33"/>
<polygon fill="#63b8ff" stroke="#63b8ff" points="721.79,-88.87 711.33,-90.55 720.55,-95.76 721.79,-88.87"/>
</a>
</g>
</g>
<!-- Node35 -->
<g id="Node000035" class="node">
<title>Node35</title>
<g id="a_Node000035"><a xlink:title=" ">
<polygon fill="#e0e0e0" stroke="#999999" points="1458.5,-90.5 1401.5,-90.5 1401.5,-71.5 1458.5,-71.5 1458.5,-90.5"/>
<text text-anchor="middle" x="1430" y="-78.5" font-family="Helvetica,sans-Serif" font-size="10.00">ostream</text>
</a>
</g>
</g>
<!-- Node22&#45;&gt;Node35 -->
<g id="edge44_Node000022_Node000035" class="edge">
<title>Node22&#45;&gt;Node35</title>
<g id="a_edge44_Node000022_Node000035"><a xlink:title=" ">
<path fill="none" stroke="#63b8ff" d="M1488.83,-137.37C1478.14,-127.31 1460.26,-110.48 1447.01,-98.01"/>
<polygon fill="#63b8ff" stroke="#63b8ff" points="1449.14,-95.21 1439.46,-90.91 1444.35,-100.31 1449.14,-95.21"/>
</a>
</g>
</g>
<!-- Node23&#45;&gt;Node8 -->
<g id="edge26_Node000023_Node000008" class="edge">
<title>Node23&#45;&gt;Node8</title>
<g id="a_edge26_Node000023_Node000008"><a xlink:title=" ">
<path fill="none" stroke="#63b8ff" d="M1846.2,-71.37C1839.7,-61.69 1828.98,-45.74 1820.72,-33.44"/>
<polygon fill="#63b8ff" stroke="#63b8ff" points="1823.47,-31.25 1814.98,-24.91 1817.65,-35.16 1823.47,-31.25"/>
</a>
</g>
</g>
<!-- Node24&#45;&gt;Node9 -->
<g id="edge28_Node000024_Node000009" class="edge">
<title>Node24&#45;&gt;Node9</title>
<g id="a_edge28_Node000024_Node000009"><a xlink:title=" ">
<path fill="none" stroke="#63b8ff" d="M1265.4,-71.37C1234.91,-60.22 1181.68,-40.75 1147.15,-28.12"/>
<polygon fill="#63b8ff" stroke="#63b8ff" points="1148.1,-24.74 1137.51,-24.6 1145.7,-31.32 1148.1,-24.74"/>
</a>
</g>
</g>
<!-- Node24&#45;&gt;Node25 -->
<g id="edge29_Node000024_Node000025" class="edge">
<title>Node24&#45;&gt;Node25</title>
<g id="a_edge29_Node000024_Node000025"><a xlink:title=" ">
<path fill="none" stroke="#63b8ff" d="M1297.77,-71.37C1307.98,-61.31 1325.08,-44.48 1337.74,-32.01"/>
<polygon fill="#63b8ff" stroke="#63b8ff" points="1340.29,-34.42 1344.96,-24.91 1335.37,-29.43 1340.29,-34.42"/>
</a>
</g>
</g>
<!-- Node26&#45;&gt;Node9 -->
<g id="edge39_Node000026_Node000009" class="edge">
<title>Node26&#45;&gt;Node9</title>
<g id="a_edge39_Node000026_Node000009"><a xlink:title=" ">
<path fill="none" stroke="#63b8ff" d="M713.74,-71.44C724.26,-69.49 735.52,-67.54 746,-66 892.84,-44.37 933.81,-65.2 1078,-30 1080.36,-29.42 1082.78,-28.73 1085.19,-27.96"/>
<polygon fill="#63b8ff" stroke="#63b8ff" points="1086.62,-31.16 1094.87,-24.51 1084.28,-24.57 1086.62,-31.16"/>
</a>
</g>
</g>
<!-- Node27 -->
<g id="Node000027" class="node">
<title>Node27</title>
<g id="a_Node000027"><a xlink:title=" ">
<polygon fill="#e0e0e0" stroke="#999999" points="1069.5,-24.5 936.5,-24.5 936.5,-5.5 1069.5,-5.5 1069.5,-24.5"/>
<text text-anchor="middle" x="1003" y="-12.5" font-family="Helvetica,sans-Serif" font-size="10.00">boost/mpl/bool_fwd.hpp</text>
</a>
</g>
</g>
<!-- Node26&#45;&gt;Node27 -->
<g id="edge31_Node000026_Node000027" class="edge">
<title>Node26&#45;&gt;Node27</title>
<g id="a_edge31_Node000026_Node000027"><a xlink:title=" ">
<path fill="none" stroke="#63b8ff" d="M715.43,-71.44C775.81,-59.8 883.69,-39 948.77,-26.45"/>
<polygon fill="#63b8ff" stroke="#63b8ff" points="949.68,-29.84 958.83,-24.51 948.35,-22.97 949.68,-29.84"/>
</a>
</g>
</g>
<!-- Node28 -->
<g id="Node000028" class="node">
<title>Node28</title>
<g id="a_Node000028"><a xlink:title=" ">
<polygon fill="#e0e0e0" stroke="#999999" points="124,-24.5 0,-24.5 0,-5.5 124,-5.5 124,-24.5"/>
<text text-anchor="middle" x="62" y="-12.5" font-family="Helvetica,sans-Serif" font-size="10.00">boost/mpl/greater.hpp</text>
</a>
</g>
</g>
<!-- Node26&#45;&gt;Node28 -->
<g id="edge32_Node000026_Node000028" class="edge">
<title>Node26&#45;&gt;Node28</title>
<g id="a_edge32_Node000026_Node000028"><a xlink:title=" ">
<path fill="none" stroke="#63b8ff" d="M626.68,-71.47C615.1,-69.46 602.61,-67.47 591,-66 388.43,-40.37 335.28,-57.8 133,-30 125.81,-29.01 118.25,-27.76 110.86,-26.41"/>
<polygon fill="#63b8ff" stroke="#63b8ff" points="111.4,-22.95 100.92,-24.52 110.1,-29.82 111.4,-22.95"/>
</a>
</g>
</g>
<!-- Node29 -->
<g id="Node000029" class="node">
<title>Node29</title>
<g id="a_Node000029"><a xlink:title=" ">
<polygon fill="#e0e0e0" stroke="#999999" points="244,-24.5 142,-24.5 142,-5.5 244,-5.5 244,-24.5"/>
<text text-anchor="middle" x="193" y="-12.5" font-family="Helvetica,sans-Serif" font-size="10.00">boost/mpl/int.hpp</text>
</a>
</g>
</g>
<!-- Node26&#45;&gt;Node29 -->
<g id="edge33_Node000026_Node000029" class="edge">
<title>Node26&#45;&gt;Node29</title>
<g id="a_edge33_Node000026_Node000029"><a xlink:title=" ">
<path fill="none" stroke="#63b8ff" d="M625.39,-71.47C614.17,-69.53 602.17,-67.57 591,-66 441.4,-44.97 401.95,-55.21 253,-30 247.53,-29.07 241.81,-27.95 236.17,-26.74"/>
<polygon fill="#63b8ff" stroke="#63b8ff" points="236.7,-23.27 226.18,-24.51 235.17,-30.11 236.7,-23.27"/>
</a>
</g>
</g>
<!-- Node30 -->
<g id="Node000030" class="node">
<title>Node30</title>
<g id="a_Node000030"><a xlink:title=" ">
<polygon fill="#e0e0e0" stroke="#999999" points="368,-30 262,-30 262,0 368,0 368,-30"/>
<text text-anchor="start" x="270" y="-18" font-family="Helvetica,sans-Serif" font-size="10.00">boost/mpl/integral</text>
<text text-anchor="middle" x="315" y="-7" font-family="Helvetica,sans-Serif" font-size="10.00">_c_tag.hpp</text>
</a>
</g>
</g>
<!-- Node26&#45;&gt;Node30 -->
<g id="edge34_Node000026_Node000030" class="edge">
<title>Node26&#45;&gt;Node30</title>
<g id="a_edge34_Node000026_Node000030"><a xlink:title=" ">
<path fill="none" stroke="#63b8ff" d="M622.36,-71.43C612.01,-69.63 601.14,-67.74 591,-66 499.1,-50.23 473.32,-48.72 378.12,-30.16"/>
<polygon fill="#63b8ff" stroke="#63b8ff" points="378.55,-26.67 368.06,-28.18 377.2,-33.54 378.55,-26.67"/>
</a>
</g>
</g>
<!-- Node31 -->
<g id="Node000031" class="node">
<title>Node31</title>
<g id="a_Node000031"><a xlink:title=" ">
<polygon fill="#e0e0e0" stroke="#999999" points="537.5,-30 386.5,-30 386.5,0 537.5,0 537.5,-30"/>
<text text-anchor="start" x="394.5" y="-18" font-family="Helvetica,sans-Serif" font-size="10.00">boost/serialization</text>
<text text-anchor="middle" x="462" y="-7" font-family="Helvetica,sans-Serif" font-size="10.00">/is_bitwise_serializable.hpp</text>
</a>
</g>
</g>
<!-- Node26&#45;&gt;Node31 -->
<g id="edge35_Node000026_Node000031" class="edge">
<title>Node26&#45;&gt;Node31</title>
<g id="a_edge35_Node000026_Node000031"><a xlink:title=" ">
<path fill="none" stroke="#63b8ff" d="M642.81,-71.37C610.9,-61.6 558.12,-45.43 517.8,-33.09"/>
<polygon fill="#63b8ff" stroke="#63b8ff" points="518.68,-29.7 508.1,-30.12 516.63,-36.39 518.68,-29.7"/>
</a>
</g>
</g>
<!-- Node32 -->
<g id="Node000032" class="node">
<title>Node32</title>
<g id="a_Node000032"><a xlink:title=" ">
<polygon fill="#e0e0e0" stroke="#999999" points="662.5,-30 555.5,-30 555.5,0 662.5,0 662.5,-30"/>
<text text-anchor="start" x="563.5" y="-18" font-family="Helvetica,sans-Serif" font-size="10.00">boost/serialization</text>
<text text-anchor="middle" x="609" y="-7" font-family="Helvetica,sans-Serif" font-size="10.00">/level.hpp</text>
</a>
</g>
</g>
<!-- Node26&#45;&gt;Node32 -->
<g id="edge36_Node000026_Node000032" class="edge">
<title>Node26&#45;&gt;Node32</title>
<g id="a_edge36_Node000026_Node000032"><a xlink:title=" ">
<path fill="none" stroke="#63b8ff" d="M662.64,-71.37C654.29,-62.75 641.12,-49.15 629.92,-37.59"/>
<polygon fill="#63b8ff" stroke="#63b8ff" points="632.38,-35.11 622.91,-30.36 627.36,-39.98 632.38,-35.11"/>
</a>
</g>
</g>
<!-- Node33 -->
<g id="Node000033" class="node">
<title>Node33</title>
<g id="a_Node000033"><a xlink:title=" ">
<polygon fill="#e0e0e0" stroke="#999999" points="787.5,-30 680.5,-30 680.5,0 787.5,0 787.5,-30"/>
<text text-anchor="start" x="688.5" y="-18" font-family="Helvetica,sans-Serif" font-size="10.00">boost/serialization</text>
<text text-anchor="middle" x="734" y="-7" font-family="Helvetica,sans-Serif" font-size="10.00">/tracking.hpp</text>
</a>
</g>
</g>
<!-- Node26&#45;&gt;Node33 -->
<g id="edge37_Node000026_Node000033" class="edge">
<title>Node26&#45;&gt;Node33</title>
<g id="a_edge37_Node000026_Node000033"><a xlink:title=" ">
<path fill="none" stroke="#63b8ff" d="M679.5,-71.37C687.98,-62.75 701.37,-49.15 712.75,-37.59"/>
<polygon fill="#63b8ff" stroke="#63b8ff" points="715.34,-39.94 719.86,-30.36 710.35,-35.03 715.34,-39.94"/>
</a>
</g>
</g>
<!-- Node34 -->
<g id="Node000034" class="node">
<title>Node34</title>
<g id="a_Node000034"><a xlink:title=" ">
<polygon fill="#e0e0e0" stroke="#999999" points="918.5,-30 805.5,-30 805.5,0 918.5,0 918.5,-30"/>
<text text-anchor="start" x="813.5" y="-18" font-family="Helvetica,sans-Serif" font-size="10.00">boost/serialization</text>
<text text-anchor="middle" x="862" y="-7" font-family="Helvetica,sans-Serif" font-size="10.00">/tracking_enum.hpp</text>
</a>
</g>
</g>
<!-- Node26&#45;&gt;Node34 -->
<g id="edge38_Node000026_Node000034" class="edge">
<title>Node26&#45;&gt;Node34</title>
<g id="a_edge38_Node000026_Node000034"><a xlink:title=" ">
<path fill="none" stroke="#63b8ff" d="M696.76,-71.37C725.74,-61.66 773.55,-45.64 810.31,-33.32"/>
<polygon fill="#63b8ff" stroke="#63b8ff" points="811.5,-36.61 819.87,-30.12 809.28,-29.97 811.5,-36.61"/>
</a>
</g>
</g>
<!-- Node41&#45;&gt;Node23 -->
<g id="edge60_Node000041_Node000023" class="edge">
<title>Node41&#45;&gt;Node23</title>
<g id="a_edge60_Node000041_Node000023"><a xlink:title=" ">
<path fill="none" stroke="#63b8ff" d="M1960.82,-197.73C1975.81,-183.27 2001.16,-153.83 1986,-132 1970.69,-109.94 1944.4,-97.6 1919.14,-90.7"/>
<polygon fill="#63b8ff" stroke="#63b8ff" points="1919.71,-87.23 1909.16,-88.23 1918.03,-94.03 1919.71,-87.23"/>
</a>
</g>
</g>
<!-- Node41&#45;&gt;Node40 -->
<g id="edge61_Node000041_Node000040" class="edge">
<title>Node41&#45;&gt;Node40</title>
<g id="a_edge61_Node000041_Node000040"><a xlink:title=" ">
<path fill="none" stroke="#63b8ff" d="M1949.67,-197.87C1948.41,-189.66 1946.47,-177.04 1944.85,-166.55"/>
<polygon fill="#63b8ff" stroke="#63b8ff" points="1948.31,-166.02 1943.33,-156.67 1941.39,-167.08 1948.31,-166.02"/>
</a>
</g>
</g>
</g>
</svg>
