<?xml version="1.0" encoding="UTF-8" standalone="no"?>
<!DOCTYPE svg PUBLIC "-//W3C//DTD SVG 1.1//EN"
 "http://www.w3.org/Graphics/SVG/1.1/DTD/svg11.dtd">
<!-- Generated by graphviz version 2.43.0 (0)
 -->
<!-- Title: hat.cpp Pages: 1 -->
<!--zoomable 456 -->

<svg id="main" version="1.1" xmlns="http://www.w3.org/2000/svg" xmlns:xlink="http://www.w3.org/1999/xlink" xml:space="preserve" onload="init(evt)">
<style type="text/css"><![CDATA[
.node, .edge {opacity: 0.7;}
.node.selected, .edge.selected {opacity: 1;}
.edge:hover path { stroke: red; }
.edge:hover polygon { stroke: red; fill: red; }
]]></style>

<defs>
  <circle id="rim" cx="0" cy="0" r="7"/>
  <circle id="rim2" cx="0" cy="0" r="3.5"/>
  <g id="zoomPlus">
    <use xlink:href="#rim" fill="#404040"><set attributeName="fill" to="#808080" begin="zoomplus.mouseover" end="zoomplus.mouseout"/></use>
    <path d="M-4,0h8M0,-4v8" fill="none" stroke="white" stroke-width="1.5" pointer-events="none"/>
  </g>
  <g id="zoomMin">
    <use xlink:href="#rim" fill="#404040"><set attributeName="fill" to="#808080" begin="zoomminus.mouseover" end="zoomminus.mouseout"/></use>
    <path d="M-4,0h8" fill="none" stroke="white" stroke-width="1.5" pointer-events="none"/>
  </g>
  <g id="arrowUp" transform="translate(30 24)">
    <use xlink:href="#rim"/>
    <path pointer-events="none" fill="none" stroke="white" stroke-width="1.5" d="M0,-3.0v7 M-2.5,-0.5L0,-3.0L2.5,-0.5"/>
  </g>
  <g id="arrowRight" transform="rotate(90) translate(36 -43)">
    <use xlink:href="#rim"/>
    <path pointer-events="none" fill="none" stroke="white" stroke-width="1.5" d="M0,-3.0v7 M-2.5,-0.5L0,-3.0L2.5,-0.5"/>
  </g>
  <g id="arrowDown" transform="rotate(180) translate(-30 -48)">
    <use xlink:href="#rim"/>
    <path pointer-events="none" fill="none" stroke="white" stroke-width="1.5" d="M0,-3.0v7 M-2.5,-0.5L0,-3.0L2.5,-0.5"/>
  </g>
  <g id="arrowLeft" transform="rotate(270) translate(-36 17)">
    <use xlink:href="#rim"/>
    <path pointer-events="none" fill="none" stroke="white" stroke-width="1.5" d="M0,-3.0v7 M-2.5,-0.5L0,-3.0L2.5,-0.5"/>
  </g>
  <g id="resetDef">
    <use xlink:href="#rim2" fill="#404040"><set attributeName="fill" to="#808080" begin="reset.mouseover" end="reset.mouseout"/></use>
  </g>
</defs>
<script type="application/ecmascript">
var viewWidth = 1763;
var viewHeight = 456;
var sectionId = 'dynsection-0';
</script>
<script type="application/ecmascript" xlink:href="svg.min.js"/>
<svg id="graph" class="graph">
<g id="viewport">
<title>hat.cpp</title>
<!-- Node1 -->
<g id="Node000001" class="node">
<title>Node1</title>
<g id="a_Node000001"><a xlink:title="Implementation of hat.hpp.">
<polygon fill="#999999" stroke="#666666" points="662.5,-448 609.5,-448 609.5,-429 662.5,-429 662.5,-448"/>
<text text-anchor="middle" x="636" y="-436" font-family="Helvetica,sans-Serif" font-size="10.00">hat.cpp</text>
</a>
</g>
</g>
<!-- Node2 -->
<g id="Node000002" class="node">
<title>Node2</title>
<g id="a_Node000002"><a xlink:href="hat_8hpp.html" target="_top" xlink:title="Routines to calculate the hat potential between particle pairs.">
<polygon fill="white" stroke="#666666" points="662.5,-393 609.5,-393 609.5,-374 662.5,-374 662.5,-393"/>
<text text-anchor="middle" x="636" y="-381" font-family="Helvetica,sans-Serif" font-size="10.00">hat.hpp</text>
</a>
</g>
</g>
<!-- Node1&#45;&gt;Node2 -->
<g id="edge1_Node000001_Node000002" class="edge">
<title>Node1&#45;&gt;Node2</title>
<g id="a_edge1_Node000001_Node000002"><a xlink:title=" ">
<path fill="none" stroke="#63b8ff" d="M636,-428.75C636,-421.8 636,-411.85 636,-403.13"/>
<polygon fill="#63b8ff" stroke="#63b8ff" points="639.5,-403.09 636,-393.09 632.5,-403.09 639.5,-403.09"/>
</a>
</g>
</g>
<!-- Node5 -->
<g id="Node000005" class="node">
<title>Node5</title>
<g id="a_Node000005"><a xlink:href="nonbonded__interaction__data_8hpp.html" target="_top" xlink:title="Various procedures concerning interactions between particles.">
<polygon fill="white" stroke="#666666" points="1238,-338 1110,-338 1110,-308 1238,-308 1238,-338"/>
<text text-anchor="start" x="1118" y="-326" font-family="Helvetica,sans-Serif" font-size="10.00">nonbonded_interaction</text>
<text text-anchor="middle" x="1174" y="-315" font-family="Helvetica,sans-Serif" font-size="10.00">_data.hpp</text>
</a>
</g>
</g>
<!-- Node1&#45;&gt;Node5 -->
<g id="edge65_Node000001_Node000005" class="edge">
<title>Node1&#45;&gt;Node5</title>
<g id="a_edge65_Node000001_Node000005"><a xlink:title=" ">
<path fill="none" stroke="#63b8ff" d="M662.68,-431.87C741.97,-415.14 978.24,-365.3 1099.86,-339.64"/>
<polygon fill="#63b8ff" stroke="#63b8ff" points="1100.77,-343.03 1109.83,-337.54 1099.33,-336.18 1100.77,-343.03"/>
</a>
</g>
</g>
<!-- Node18 -->
<g id="Node000018" class="node">
<title>Node18</title>
<g id="a_Node000018"><a xlink:title=" ">
<polygon fill="#e0e0e0" stroke="#999999" points="293.5,-90.5 228.5,-90.5 228.5,-71.5 293.5,-71.5 293.5,-90.5"/>
<text text-anchor="middle" x="261" y="-78.5" font-family="Helvetica,sans-Serif" font-size="10.00">stdexcept</text>
</a>
</g>
</g>
<!-- Node1&#45;&gt;Node18 -->
<g id="edge66_Node000001_Node000018" class="edge">
<title>Node1&#45;&gt;Node18</title>
<g id="a_edge66_Node000001_Node000018"><a xlink:title=" ">
<path fill="none" stroke="#63b8ff" d="M609.48,-435.63C489.11,-426.78 0,-386.95 0,-324 0,-324 0,-324 0,-206.5 0,-111.04 143.99,-88.7 218.07,-83.53"/>
<polygon fill="#63b8ff" stroke="#63b8ff" points="218.71,-86.99 228.47,-82.88 218.27,-80.01 218.71,-86.99"/>
</a>
</g>
</g>
<!-- Node3 -->
<g id="Node000003" class="node">
<title>Node3</title>
<g id="a_Node000003"><a xlink:href="config_8hpp.html" target="_top" xlink:title="This file contains the defaults for ESPResSo.">
<polygon fill="white" stroke="#666666" points="485.5,-272 386.5,-272 386.5,-253 485.5,-253 485.5,-272"/>
<text text-anchor="middle" x="436" y="-260" font-family="Helvetica,sans-Serif" font-size="10.00">config/config.hpp</text>
</a>
</g>
</g>
<!-- Node2&#45;&gt;Node3 -->
<g id="edge2_Node000002_Node000003" class="edge">
<title>Node2&#45;&gt;Node3</title>
<g id="a_edge2_Node000002_Node000003"><a xlink:title=" ">
<path fill="none" stroke="#63b8ff" d="M621.62,-373.94C587.39,-353.58 500.87,-302.1 459.17,-277.29"/>
<polygon fill="#63b8ff" stroke="#63b8ff" points="460.91,-274.25 450.52,-272.14 457.33,-280.26 460.91,-274.25"/>
</a>
</g>
</g>
<!-- Node2&#45;&gt;Node5 -->
<g id="edge4_Node000002_Node000005" class="edge">
<title>Node2&#45;&gt;Node5</title>
<g id="a_edge4_Node000002_Node000005"><a xlink:title=" ">
<path fill="none" stroke="#63b8ff" d="M662.68,-379.6C741.97,-370.98 978.24,-345.29 1099.86,-332.06"/>
<polygon fill="#63b8ff" stroke="#63b8ff" points="1100.27,-335.54 1109.83,-330.98 1099.51,-328.58 1100.27,-335.54"/>
</a>
</g>
</g>
<!-- Node4 -->
<g id="Node000004" class="node">
<title>Node4</title>
<g id="a_Node000004"><a xlink:title=" ">
<polygon fill="#e0e0e0" stroke="#999999" points="171.5,-217 28.5,-217 28.5,-198 171.5,-198 171.5,-217"/>
<text text-anchor="middle" x="100" y="-205" font-family="Helvetica,sans-Serif" font-size="10.00">config/config&#45;features.hpp</text>
</a>
</g>
</g>
<!-- Node3&#45;&gt;Node4 -->
<g id="edge3_Node000003_Node000004" class="edge">
<title>Node3&#45;&gt;Node4</title>
<g id="a_edge3_Node000003_Node000004"><a xlink:title=" ">
<path fill="none" stroke="#63b8ff" d="M386.42,-253.68C327.42,-244.37 228.77,-228.81 164.04,-218.6"/>
<polygon fill="#63b8ff" stroke="#63b8ff" points="164.38,-215.11 153.96,-217.01 163.29,-222.03 164.38,-215.11"/>
</a>
</g>
</g>
<!-- Node5&#45;&gt;Node3 -->
<g id="edge13_Node000005_Node000003" class="edge">
<title>Node5&#45;&gt;Node3</title>
<g id="a_edge13_Node000005_Node000003"><a xlink:title=" ">
<path fill="none" stroke="#63b8ff" d="M1109.64,-318.82C990.47,-312.59 727.22,-297.24 495.6,-272.1"/>
<polygon fill="#63b8ff" stroke="#63b8ff" points="495.97,-268.62 485.64,-271.02 495.2,-275.58 495.97,-268.62"/>
</a>
</g>
</g>
<!-- Node6 -->
<g id="Node000006" class="node">
<title>Node6</title>
<g id="a_Node000006"><a xlink:href="TabulatedPotential_8hpp.html" target="_top" xlink:title=" ">
<polygon fill="white" stroke="#666666" points="1617,-217 1489,-217 1489,-198 1617,-198 1617,-217"/>
<text text-anchor="middle" x="1553" y="-205" font-family="Helvetica,sans-Serif" font-size="10.00">TabulatedPotential.hpp</text>
</a>
</g>
</g>
<!-- Node5&#45;&gt;Node6 -->
<g id="edge5_Node000005_Node000006" class="edge">
<title>Node5&#45;&gt;Node6</title>
<g id="a_edge5_Node000005_Node000006"><a xlink:title=" ">
<path fill="none" stroke="#63b8ff" d="M1184.93,-307.97C1198.37,-291.82 1222.77,-265.87 1250,-253 1289.39,-234.38 1402.53,-221.36 1478.85,-214.41"/>
<polygon fill="#63b8ff" stroke="#63b8ff" points="1479.25,-217.89 1488.9,-213.51 1478.62,-210.91 1479.25,-217.89"/>
</a>
</g>
</g>
<!-- Node8 -->
<g id="Node000008" class="node">
<title>Node8</title>
<g id="a_Node000008"><a xlink:title=" ">
<polygon fill="#e0e0e0" stroke="#999999" points="1605,-24.5 1553,-24.5 1553,-5.5 1605,-5.5 1605,-24.5"/>
<text text-anchor="middle" x="1579" y="-12.5" font-family="Helvetica,sans-Serif" font-size="10.00">cassert</text>
</a>
</g>
</g>
<!-- Node5&#45;&gt;Node8 -->
<g id="edge61_Node000005_Node000008" class="edge">
<title>Node5&#45;&gt;Node8</title>
<g id="a_edge61_Node000005_Node000008"><a xlink:title=" ">
<path fill="none" stroke="#63b8ff" d="M1238.12,-322.83C1389.22,-323.07 1755,-312.88 1755,-208.5 1755,-208.5 1755,-208.5 1755,-146 1755,-77.09 1666.62,-40.56 1615.12,-25.13"/>
<polygon fill="#63b8ff" stroke="#63b8ff" points="1615.93,-21.72 1605.35,-22.32 1613.99,-28.45 1615.93,-21.72"/>
</a>
</g>
</g>
<!-- Node12 -->
<g id="Node000012" class="node">
<title>Node12</title>
<g id="a_Node000012"><a xlink:title=" ">
<polygon fill="#e0e0e0" stroke="#999999" points="1421,-156.5 1357,-156.5 1357,-137.5 1421,-137.5 1421,-156.5"/>
<text text-anchor="middle" x="1389" y="-144.5" font-family="Helvetica,sans-Serif" font-size="10.00">algorithm</text>
</a>
</g>
</g>
<!-- Node5&#45;&gt;Node12 -->
<g id="edge60_Node000005_Node000012" class="edge">
<title>Node5&#45;&gt;Node12</title>
<g id="a_edge60_Node000005_Node000012"><a xlink:title=" ">
<path fill="none" stroke="#63b8ff" d="M1180.66,-307.73C1188.16,-292.77 1201.49,-269.24 1218,-253 1260.87,-210.85 1323.65,-177.81 1360.02,-160.76"/>
<polygon fill="#63b8ff" stroke="#63b8ff" points="1361.48,-163.93 1369.1,-156.57 1358.55,-157.58 1361.48,-163.93"/>
</a>
</g>
</g>
<!-- Node13 -->
<g id="Node000013" class="node">
<title>Node13</title>
<g id="a_Node000013"><a xlink:title=" ">
<polygon fill="#e0e0e0" stroke="#999999" points="1486.5,-156.5 1439.5,-156.5 1439.5,-137.5 1486.5,-137.5 1486.5,-156.5"/>
<text text-anchor="middle" x="1463" y="-144.5" font-family="Helvetica,sans-Serif" font-size="10.00">vector</text>
</a>
</g>
</g>
<!-- Node5&#45;&gt;Node13 -->
<g id="edge64_Node000005_Node000013" class="edge">
<title>Node5&#45;&gt;Node13</title>
<g id="a_edge64_Node000005_Node000013"><a xlink:title=" ">
<path fill="none" stroke="#63b8ff" d="M1238.29,-318.31C1308.37,-312.91 1414.25,-300.22 1442,-272 1469.6,-243.94 1468.74,-193.92 1465.82,-166.78"/>
<polygon fill="#63b8ff" stroke="#63b8ff" points="1469.27,-166.14 1464.52,-156.67 1462.33,-167.04 1469.27,-166.14"/>
</a>
</g>
</g>
<!-- Node14 -->
<g id="Node000014" class="node">
<title>Node14</title>
<g id="a_Node000014"><a xlink:title=" ">
<polygon fill="#e0e0e0" stroke="#999999" points="1356.5,-272 1259.5,-272 1259.5,-253 1356.5,-253 1356.5,-272"/>
<text text-anchor="middle" x="1308" y="-260" font-family="Helvetica,sans-Serif" font-size="10.00">system/Leaf.hpp</text>
</a>
</g>
</g>
<!-- Node5&#45;&gt;Node14 -->
<g id="edge14_Node000005_Node000014" class="edge">
<title>Node5&#45;&gt;Node14</title>
<g id="a_edge14_Node000005_Node000014"><a xlink:title=" ">
<path fill="none" stroke="#63b8ff" d="M1206.1,-307.99C1228.25,-298.31 1257.48,-285.56 1278.95,-276.18"/>
<polygon fill="#63b8ff" stroke="#63b8ff" points="1280.45,-279.35 1288.21,-272.14 1277.65,-272.93 1280.45,-279.35"/>
</a>
</g>
</g>
<!-- Node15 -->
<g id="Node000015" class="node">
<title>Node15</title>
<g id="a_Node000015"><a xlink:href="index_8hpp.html" target="_top" xlink:title=" ">
<polygon fill="white" stroke="#666666" points="592.5,-272 503.5,-272 503.5,-253 592.5,-253 592.5,-272"/>
<text text-anchor="middle" x="548" y="-260" font-family="Helvetica,sans-Serif" font-size="10.00">utils/index.hpp</text>
</a>
</g>
</g>
<!-- Node5&#45;&gt;Node15 -->
<g id="edge15_Node000005_Node000015" class="edge">
<title>Node5&#45;&gt;Node15</title>
<g id="a_edge15_Node000005_Node000015"><a xlink:title=" ">
<path fill="none" stroke="#63b8ff" d="M1109.95,-316.01C986.69,-304.5 718.47,-279.43 602.85,-268.63"/>
<polygon fill="#63b8ff" stroke="#63b8ff" points="603.09,-265.13 592.8,-267.69 602.43,-272.1 603.09,-265.13"/>
</a>
</g>
</g>
<!-- Node36 -->
<g id="Node000036" class="node">
<title>Node36</title>
<g id="a_Node000036"><a xlink:title=" ">
<polygon fill="#e0e0e0" stroke="#999999" points="1338.5,-156.5 1291.5,-156.5 1291.5,-137.5 1338.5,-137.5 1338.5,-156.5"/>
<text text-anchor="middle" x="1315" y="-144.5" font-family="Helvetica,sans-Serif" font-size="10.00">cmath</text>
</a>
</g>
</g>
<!-- Node5&#45;&gt;Node36 -->
<g id="edge62_Node000005_Node000036" class="edge">
<title>Node5&#45;&gt;Node36</title>
<g id="a_edge62_Node000005_Node000036"><a xlink:title=" ">
<path fill="none" stroke="#63b8ff" d="M1169.92,-307.73C1163.73,-282.82 1155.03,-230.92 1179,-198 1185.3,-189.34 1243.39,-170.08 1281.59,-158.15"/>
<polygon fill="#63b8ff" stroke="#63b8ff" points="1282.78,-161.44 1291.3,-155.14 1280.71,-154.76 1282.78,-161.44"/>
</a>
</g>
</g>
<!-- Node41 -->
<g id="Node000041" class="node">
<title>Node41</title>
<g id="a_Node000041"><a xlink:href="int__pow_8hpp.html" target="_top" xlink:title=" ">
<polygon fill="white" stroke="#666666" points="1127,-217 999,-217 999,-198 1127,-198 1127,-217"/>
<text text-anchor="middle" x="1063" y="-205" font-family="Helvetica,sans-Serif" font-size="10.00">utils/math/int_pow.hpp</text>
</a>
</g>
</g>
<!-- Node5&#45;&gt;Node41 -->
<g id="edge57_Node000005_Node000041" class="edge">
<title>Node5&#45;&gt;Node41</title>
<g id="a_edge57_Node000005_Node000041"><a xlink:title=" ">
<path fill="none" stroke="#63b8ff" d="M1159.94,-307.63C1139.16,-286.37 1100.36,-246.71 1078.68,-224.54"/>
<polygon fill="#63b8ff" stroke="#63b8ff" points="1081.03,-221.93 1071.54,-217.23 1076.03,-226.83 1081.03,-221.93"/>
</a>
</g>
</g>
<!-- Node42 -->
<g id="Node000042" class="node">
<title>Node42</title>
<g id="a_Node000042"><a xlink:title=" ">
<polygon fill="#e0e0e0" stroke="#999999" points="1433,-272 1375,-272 1375,-253 1433,-253 1433,-272"/>
<text text-anchor="middle" x="1404" y="-260" font-family="Helvetica,sans-Serif" font-size="10.00">memory</text>
</a>
</g>
</g>
<!-- Node5&#45;&gt;Node42 -->
<g id="edge63_Node000005_Node000042" class="edge">
<title>Node5&#45;&gt;Node42</title>
<g id="a_edge63_Node000005_Node000042"><a xlink:title=" ">
<path fill="none" stroke="#63b8ff" d="M1229.09,-307.99C1271,-297.33 1327.64,-282.92 1364.96,-273.43"/>
<polygon fill="#63b8ff" stroke="#63b8ff" points="1366.12,-276.75 1374.95,-270.89 1364.39,-269.96 1366.12,-276.75"/>
</a>
</g>
</g>
<!-- Node7 -->
<g id="Node000007" class="node">
<title>Node7</title>
<g id="a_Node000007"><a xlink:href="linear__interpolation_8hpp.html" target="_top" xlink:title=" ">
<polygon fill="white" stroke="#666666" points="1631.5,-90.5 1474.5,-90.5 1474.5,-71.5 1631.5,-71.5 1631.5,-90.5"/>
<text text-anchor="middle" x="1553" y="-78.5" font-family="Helvetica,sans-Serif" font-size="10.00">utils/linear_interpolation.hpp</text>
</a>
</g>
</g>
<!-- Node6&#45;&gt;Node7 -->
<g id="edge6_Node000006_Node000007" class="edge">
<title>Node6&#45;&gt;Node7</title>
<g id="a_edge6_Node000006_Node000007"><a xlink:title=" ">
<path fill="none" stroke="#63b8ff" d="M1553,-197.94C1553,-178.04 1553,-128.26 1553,-100.85"/>
<polygon fill="#63b8ff" stroke="#63b8ff" points="1556.5,-100.62 1553,-90.62 1549.5,-100.62 1556.5,-100.62"/>
</a>
</g>
</g>
<!-- Node10 -->
<g id="Node000010" class="node">
<title>Node10</title>
<g id="a_Node000010"><a xlink:title=" ">
<polygon fill="#e0e0e0" stroke="#999999" points="1451.5,-96 1344.5,-96 1344.5,-66 1451.5,-66 1451.5,-96"/>
<text text-anchor="start" x="1352.5" y="-84" font-family="Helvetica,sans-Serif" font-size="10.00">boost/serialization</text>
<text text-anchor="middle" x="1398" y="-73" font-family="Helvetica,sans-Serif" font-size="10.00">/access.hpp</text>
</a>
</g>
</g>
<!-- Node6&#45;&gt;Node10 -->
<g id="edge9_Node000006_Node000010" class="edge">
<title>Node6&#45;&gt;Node10</title>
<g id="a_edge9_Node000006_Node000010"><a xlink:title=" ">
<path fill="none" stroke="#63b8ff" d="M1548.05,-197.67C1539.24,-182.59 1519.52,-151.6 1496,-132 1480.65,-119.21 1461.48,-108.52 1444.17,-100.35"/>
<polygon fill="#63b8ff" stroke="#63b8ff" points="1445.34,-97.04 1434.78,-96.08 1442.43,-103.41 1445.34,-97.04"/>
</a>
</g>
</g>
<!-- Node11 -->
<g id="Node000011" class="node">
<title>Node11</title>
<g id="a_Node000011"><a xlink:title=" ">
<polygon fill="#e0e0e0" stroke="#999999" points="1688.5,-162 1581.5,-162 1581.5,-132 1688.5,-132 1688.5,-162"/>
<text text-anchor="start" x="1589.5" y="-150" font-family="Helvetica,sans-Serif" font-size="10.00">boost/serialization</text>
<text text-anchor="middle" x="1635" y="-139" font-family="Helvetica,sans-Serif" font-size="10.00">/vector.hpp</text>
</a>
</g>
</g>
<!-- Node6&#45;&gt;Node11 -->
<g id="edge10_Node000006_Node000011" class="edge">
<title>Node6&#45;&gt;Node11</title>
<g id="a_edge10_Node000006_Node000011"><a xlink:title=" ">
<path fill="none" stroke="#63b8ff" d="M1565.1,-197.87C1576.02,-190.08 1592.51,-178.32 1606.72,-168.17"/>
<polygon fill="#63b8ff" stroke="#63b8ff" points="1609.11,-170.77 1615.22,-162.11 1605.04,-165.07 1609.11,-170.77"/>
</a>
</g>
</g>
<!-- Node6&#45;&gt;Node12 -->
<g id="edge11_Node000006_Node000012" class="edge">
<title>Node6&#45;&gt;Node12</title>
<g id="a_edge11_Node000006_Node000012"><a xlink:title=" ">
<path fill="none" stroke="#63b8ff" d="M1529.15,-197.99C1501.1,-187.99 1454.33,-171.3 1422.6,-159.99"/>
<polygon fill="#63b8ff" stroke="#63b8ff" points="1423.47,-156.58 1412.88,-156.52 1421.12,-163.17 1423.47,-156.58"/>
</a>
</g>
</g>
<!-- Node6&#45;&gt;Node13 -->
<g id="edge12_Node000006_Node000013" class="edge">
<title>Node6&#45;&gt;Node13</title>
<g id="a_edge12_Node000006_Node000013"><a xlink:title=" ">
<path fill="none" stroke="#63b8ff" d="M1539.72,-197.87C1525.36,-188.54 1502.24,-173.51 1485.13,-162.38"/>
<polygon fill="#63b8ff" stroke="#63b8ff" points="1486.63,-159.18 1476.33,-156.67 1482.81,-165.05 1486.63,-159.18"/>
</a>
</g>
</g>
<!-- Node7&#45;&gt;Node8 -->
<g id="edge7_Node000007_Node000008" class="edge">
<title>Node7&#45;&gt;Node8</title>
<g id="a_edge7_Node000007_Node000008"><a xlink:title=" ">
<path fill="none" stroke="#63b8ff" d="M1556.51,-71.37C1560.32,-61.97 1566.54,-46.67 1571.47,-34.53"/>
<polygon fill="#63b8ff" stroke="#63b8ff" points="1574.86,-35.49 1575.38,-24.91 1568.38,-32.85 1574.86,-35.49"/>
</a>
</g>
</g>
<!-- Node9 -->
<g id="Node000009" class="node">
<title>Node9</title>
<g id="a_Node000009"><a xlink:title=" ">
<polygon fill="#e0e0e0" stroke="#999999" points="387.5,-24.5 334.5,-24.5 334.5,-5.5 387.5,-5.5 387.5,-24.5"/>
<text text-anchor="middle" x="361" y="-12.5" font-family="Helvetica,sans-Serif" font-size="10.00">cstddef</text>
</a>
</g>
</g>
<!-- Node7&#45;&gt;Node9 -->
<g id="edge8_Node000007_Node000009" class="edge">
<title>Node7&#45;&gt;Node9</title>
<g id="a_edge8_Node000007_Node000009"><a xlink:title=" ">
<path fill="none" stroke="#63b8ff" d="M1503.95,-71.45C1490.1,-69.33 1475,-67.3 1461,-66 1225.21,-44.15 627.74,-78.7 396,-30 393.62,-29.5 391.2,-28.85 388.79,-28.11"/>
<polygon fill="#63b8ff" stroke="#63b8ff" points="389.75,-24.73 379.15,-24.64 387.38,-31.32 389.75,-24.73"/>
</a>
</g>
</g>
<!-- Node15&#45;&gt;Node8 -->
<g id="edge16_Node000015_Node000008" class="edge">
<title>Node15&#45;&gt;Node8</title>
<g id="a_edge16_Node000015_Node000008"><a xlink:title=" ">
<path fill="none" stroke="#63b8ff" d="M592.55,-261.24C783.52,-259.91 1527.85,-252.47 1626,-217 1672.56,-200.17 1715.26,-178.4 1698,-132 1680.66,-85.4 1632.73,-48.97 1603.26,-30.13"/>
<polygon fill="#63b8ff" stroke="#63b8ff" points="1604.75,-26.94 1594.4,-24.65 1601.06,-32.89 1604.75,-26.94"/>
</a>
</g>
</g>
<!-- Node15&#45;&gt;Node9 -->
<g id="edge17_Node000015_Node000009" class="edge">
<title>Node15&#45;&gt;Node9</title>
<g id="a_edge17_Node000015_Node000009"><a xlink:title=" ">
<path fill="none" stroke="#63b8ff" d="M503.36,-253.92C437.24,-242.57 320.15,-221.96 312,-217 305.03,-212.76 220.21,-99.59 219,-96 214.75,-83.36 211.3,-76.88 219,-66 242.65,-32.61 290.48,-21.36 324.07,-17.66"/>
<polygon fill="#63b8ff" stroke="#63b8ff" points="324.79,-21.1 334.43,-16.7 324.15,-14.13 324.79,-21.1"/>
</a>
</g>
</g>
<!-- Node16 -->
<g id="Node000016" class="node">
<title>Node16</title>
<g id="a_Node000016"><a xlink:title=" ">
<polygon fill="#e0e0e0" stroke="#999999" points="469.5,-90.5 416.5,-90.5 416.5,-71.5 469.5,-71.5 469.5,-90.5"/>
<text text-anchor="middle" x="443" y="-78.5" font-family="Helvetica,sans-Serif" font-size="10.00">iterator</text>
</a>
</g>
</g>
<!-- Node15&#45;&gt;Node16 -->
<g id="edge18_Node000015_Node000016" class="edge">
<title>Node15&#45;&gt;Node16</title>
<g id="a_edge18_Node000015_Node000016"><a xlink:title=" ">
<path fill="none" stroke="#63b8ff" d="M512.71,-252.88C449.28,-236.58 320.22,-199.5 295,-162 265.21,-117.69 353.44,-95.87 406.32,-87.01"/>
<polygon fill="#63b8ff" stroke="#63b8ff" points="407.06,-90.44 416.38,-85.41 405.96,-83.53 407.06,-90.44"/>
</a>
</g>
</g>
<!-- Node17 -->
<g id="Node000017" class="node">
<title>Node17</title>
<g id="a_Node000017"><a xlink:title=" ">
<polygon fill="#e0e0e0" stroke="#999999" points="360,-156.5 304,-156.5 304,-137.5 360,-137.5 360,-156.5"/>
<text text-anchor="middle" x="332" y="-144.5" font-family="Helvetica,sans-Serif" font-size="10.00">numeric</text>
</a>
</g>
</g>
<!-- Node15&#45;&gt;Node17 -->
<g id="edge19_Node000015_Node000017" class="edge">
<title>Node15&#45;&gt;Node17</title>
<g id="a_edge19_Node000015_Node000017"><a xlink:title=" ">
<path fill="none" stroke="#63b8ff" d="M531.76,-252.97C494.47,-233.37 402.45,-185.02 357.51,-161.41"/>
<polygon fill="#63b8ff" stroke="#63b8ff" points="358.9,-158.18 348.42,-156.63 355.65,-164.38 358.9,-158.18"/>
</a>
</g>
</g>
<!-- Node15&#45;&gt;Node18 -->
<g id="edge20_Node000015_Node000018" class="edge">
<title>Node15&#45;&gt;Node18</title>
<g id="a_edge20_Node000015_Node000018"><a xlink:title=" ">
<path fill="none" stroke="#63b8ff" d="M503.44,-254.37C452.84,-245.8 373.85,-230.83 347,-217 314.55,-200.28 305.7,-192.73 286,-162 273.88,-143.09 267.29,-117.89 263.96,-100.87"/>
<polygon fill="#63b8ff" stroke="#63b8ff" points="267.33,-99.81 262.15,-90.57 260.43,-101.02 267.33,-99.81"/>
</a>
</g>
</g>
<!-- Node19 -->
<g id="Node000019" class="node">
<title>Node19</title>
<g id="a_Node000019"><a xlink:href="Vector_8hpp.html" target="_top" xlink:title="Vector implementation and trait types for boost qvm interoperability.">
<polygon fill="white" stroke="#666666" points="774,-217 706,-217 706,-198 774,-198 774,-217"/>
<text text-anchor="middle" x="740" y="-205" font-family="Helvetica,sans-Serif" font-size="10.00">Vector.hpp</text>
</a>
</g>
</g>
<!-- Node15&#45;&gt;Node19 -->
<g id="edge21_Node000015_Node000019" class="edge">
<title>Node15&#45;&gt;Node19</title>
<g id="a_edge21_Node000015_Node000019"><a xlink:title=" ">
<path fill="none" stroke="#63b8ff" d="M578.85,-252.98C611.5,-243.97 663.2,-229.7 699.2,-219.76"/>
<polygon fill="#63b8ff" stroke="#63b8ff" points="700.2,-223.12 708.91,-217.08 698.34,-216.37 700.2,-223.12"/>
</a>
</g>
</g>
<!-- Node19&#45;&gt;Node8 -->
<g id="edge47_Node000019_Node000008" class="edge">
<title>Node19&#45;&gt;Node8</title>
<g id="a_edge47_Node000019_Node000008"><a xlink:title=" ">
<path fill="none" stroke="#63b8ff" d="M774.03,-205.71C855.44,-203.31 1059.06,-194.18 1118,-162 1166.5,-135.52 1148.32,-92.14 1197,-66 1333.6,7.35 1393.47,-67.15 1544,-30 1546.31,-29.43 1548.66,-28.74 1551,-27.98"/>
<polygon fill="#63b8ff" stroke="#63b8ff" points="1552.23,-31.26 1560.42,-24.54 1549.83,-24.68 1552.23,-31.26"/>
</a>
</g>
</g>
<!-- Node19&#45;&gt;Node9 -->
<g id="edge49_Node000019_Node000009" class="edge">
<title>Node19&#45;&gt;Node9</title>
<g id="a_edge49_Node000019_Node000009"><a xlink:title=" ">
<path fill="none" stroke="#63b8ff" d="M706,-205.56C635.04,-202.99 474.19,-193.72 431,-162 388.42,-130.73 370.63,-66.7 364.18,-34.85"/>
<polygon fill="#63b8ff" stroke="#63b8ff" points="367.57,-33.89 362.3,-24.69 360.68,-35.16 367.57,-33.89"/>
</a>
</g>
</g>
<!-- Node19&#45;&gt;Node12 -->
<g id="edge46_Node000019_Node000012" class="edge">
<title>Node19&#45;&gt;Node12</title>
<g id="a_edge46_Node000019_Node000012"><a xlink:title=" ">
<path fill="none" stroke="#63b8ff" d="M774.37,-205.14C885.91,-200.55 1236.91,-184.64 1348,-162 1351.07,-161.37 1354.23,-160.58 1357.36,-159.69"/>
<polygon fill="#63b8ff" stroke="#63b8ff" points="1358.67,-162.95 1367.16,-156.61 1356.57,-156.27 1358.67,-162.95"/>
</a>
</g>
</g>
<!-- Node19&#45;&gt;Node13 -->
<g id="edge56_Node000019_Node000013" class="edge">
<title>Node19&#45;&gt;Node13</title>
<g id="a_edge56_Node000019_Node000013"><a xlink:title=" ">
<path fill="none" stroke="#63b8ff" d="M774.17,-204.97C904.45,-199.05 1365.9,-177.2 1430,-162 1432.16,-161.49 1434.37,-160.84 1436.56,-160.12"/>
<polygon fill="#63b8ff" stroke="#63b8ff" points="1437.81,-163.38 1445.9,-156.54 1435.31,-156.85 1437.81,-163.38"/>
</a>
</g>
</g>
<!-- Node19&#45;&gt;Node16 -->
<g id="edge52_Node000019_Node000016" class="edge">
<title>Node19&#45;&gt;Node16</title>
<g id="a_edge52_Node000019_Node000016"><a xlink:title=" ">
<path fill="none" stroke="#63b8ff" d="M705.86,-206.6C635.65,-206 478.8,-200.3 445,-162 430.38,-145.44 433.15,-118.59 437.35,-100.62"/>
<polygon fill="#63b8ff" stroke="#63b8ff" points="440.79,-101.32 440,-90.75 434.03,-99.5 440.79,-101.32"/>
</a>
</g>
</g>
<!-- Node19&#45;&gt;Node17 -->
<g id="edge53_Node000019_Node000017" class="edge">
<title>Node19&#45;&gt;Node17</title>
<g id="a_edge53_Node000019_Node000017"><a xlink:title=" ">
<path fill="none" stroke="#63b8ff" d="M705.8,-204.64C640.58,-200.58 494.21,-189.05 374,-162 370.95,-161.31 367.81,-160.49 364.68,-159.59"/>
<polygon fill="#63b8ff" stroke="#63b8ff" points="365.46,-156.17 354.87,-156.55 363.38,-162.86 365.46,-156.17"/>
</a>
</g>
</g>
<!-- Node20 -->
<g id="Node000020" class="node">
<title>Node20</title>
<g id="a_Node000020"><a xlink:title=" ">
<polygon fill="#e0e0e0" stroke="#999999" points="951,-156.5 801,-156.5 801,-137.5 951,-137.5 951,-156.5"/>
<text text-anchor="middle" x="876" y="-144.5" font-family="Helvetica,sans-Serif" font-size="10.00">boost/qvm/deduce_vec.hpp</text>
</a>
</g>
</g>
<!-- Node19&#45;&gt;Node20 -->
<g id="edge22_Node000019_Node000020" class="edge">
<title>Node19&#45;&gt;Node20</title>
<g id="a_edge22_Node000019_Node000020"><a xlink:title=" ">
<path fill="none" stroke="#63b8ff" d="M759.78,-197.99C782.64,-188.16 820.49,-171.88 846.76,-160.58"/>
<polygon fill="#63b8ff" stroke="#63b8ff" points="848.4,-163.68 856.2,-156.52 845.63,-157.25 848.4,-163.68"/>
</a>
</g>
</g>
<!-- Node21 -->
<g id="Node000021" class="node">
<title>Node21</title>
<g id="a_Node000021"><a xlink:title=" ">
<polygon fill="#e0e0e0" stroke="#999999" points="1109,-156.5 969,-156.5 969,-137.5 1109,-137.5 1109,-156.5"/>
<text text-anchor="middle" x="1039" y="-144.5" font-family="Helvetica,sans-Serif" font-size="10.00">boost/qvm/vec_traits.hpp</text>
</a>
</g>
</g>
<!-- Node19&#45;&gt;Node21 -->
<g id="edge23_Node000019_Node000021" class="edge">
<title>Node19&#45;&gt;Node21</title>
<g id="a_edge23_Node000019_Node000021"><a xlink:title=" ">
<path fill="none" stroke="#63b8ff" d="M774.01,-199.85C825.62,-189.75 924.2,-170.46 985.49,-158.47"/>
<polygon fill="#63b8ff" stroke="#63b8ff" points="986.22,-161.89 995.37,-156.54 984.88,-155.02 986.22,-161.89"/>
</a>
</g>
</g>
<!-- Node22 -->
<g id="Node000022" class="node">
<title>Node22</title>
<g id="a_Node000022"><a xlink:href="Array_8hpp.html" target="_top" xlink:title="Array implementation with CUDA support.">
<polygon fill="white" stroke="#666666" points="783,-156.5 697,-156.5 697,-137.5 783,-137.5 783,-156.5"/>
<text text-anchor="middle" x="740" y="-144.5" font-family="Helvetica,sans-Serif" font-size="10.00">utils/Array.hpp</text>
</a>
</g>
</g>
<!-- Node19&#45;&gt;Node22 -->
<g id="edge24_Node000019_Node000022" class="edge">
<title>Node19&#45;&gt;Node22</title>
<g id="a_edge24_Node000019_Node000022"><a xlink:title=" ">
<path fill="none" stroke="#63b8ff" d="M740,-197.87C740,-189.75 740,-177.31 740,-166.89"/>
<polygon fill="#63b8ff" stroke="#63b8ff" points="743.5,-166.67 740,-156.67 736.5,-166.67 743.5,-166.67"/>
</a>
</g>
</g>
<!-- Node19&#45;&gt;Node36 -->
<g id="edge48_Node000019_Node000036" class="edge">
<title>Node19&#45;&gt;Node36</title>
<g id="a_edge48_Node000019_Node000036"><a xlink:title=" ">
<path fill="none" stroke="#63b8ff" d="M774.29,-204.7C855.85,-200.14 1067.65,-186.74 1243,-162 1255.58,-160.23 1269.29,-157.71 1281.34,-155.3"/>
<polygon fill="#63b8ff" stroke="#63b8ff" points="1282.34,-158.66 1291.43,-153.22 1280.93,-151.81 1282.34,-158.66"/>
</a>
</g>
</g>
<!-- Node37 -->
<g id="Node000037" class="node">
<title>Node37</title>
<g id="a_Node000037"><a xlink:title=" ">
<polygon fill="#e0e0e0" stroke="#999999" points="519.5,-156.5 454.5,-156.5 454.5,-137.5 519.5,-137.5 519.5,-156.5"/>
<text text-anchor="middle" x="487" y="-144.5" font-family="Helvetica,sans-Serif" font-size="10.00">functional</text>
</a>
</g>
</g>
<!-- Node19&#45;&gt;Node37 -->
<g id="edge50_Node000019_Node000037" class="edge">
<title>Node19&#45;&gt;Node37</title>
<g id="a_edge50_Node000019_Node000037"><a xlink:title=" ">
<path fill="none" stroke="#63b8ff" d="M705.91,-200.67C663.77,-193.16 590.01,-179.03 528,-162 525.52,-161.32 522.98,-160.57 520.43,-159.79"/>
<polygon fill="#63b8ff" stroke="#63b8ff" points="521.29,-156.39 510.7,-156.64 519.13,-163.05 521.29,-156.39"/>
</a>
</g>
</g>
<!-- Node38 -->
<g id="Node000038" class="node">
<title>Node38</title>
<g id="a_Node000038"><a xlink:title=" ">
<polygon fill="#e0e0e0" stroke="#999999" points="620.5,-156.5 537.5,-156.5 537.5,-137.5 620.5,-137.5 620.5,-156.5"/>
<text text-anchor="middle" x="579" y="-144.5" font-family="Helvetica,sans-Serif" font-size="10.00">initializer_list</text>
</a>
</g>
</g>
<!-- Node19&#45;&gt;Node38 -->
<g id="edge51_Node000019_Node000038" class="edge">
<title>Node19&#45;&gt;Node38</title>
<g id="a_edge51_Node000019_Node000038"><a xlink:title=" ">
<path fill="none" stroke="#63b8ff" d="M716.59,-197.99C689.05,-187.99 643.13,-171.3 611.99,-159.99"/>
<polygon fill="#63b8ff" stroke="#63b8ff" points="613.03,-156.64 602.44,-156.52 610.64,-163.22 613.03,-156.64"/>
</a>
</g>
</g>
<!-- Node39 -->
<g id="Node000039" class="node">
<title>Node39</title>
<g id="a_Node000039"><a xlink:title=" ">
<polygon fill="#e0e0e0" stroke="#999999" points="679,-156.5 639,-156.5 639,-137.5 679,-137.5 679,-156.5"/>
<text text-anchor="middle" x="659" y="-144.5" font-family="Helvetica,sans-Serif" font-size="10.00">span</text>
</a>
</g>
</g>
<!-- Node19&#45;&gt;Node39 -->
<g id="edge54_Node000019_Node000039" class="edge">
<title>Node19&#45;&gt;Node39</title>
<g id="a_edge54_Node000019_Node000039"><a xlink:title=" ">
<path fill="none" stroke="#63b8ff" d="M728.05,-197.87C715.25,-188.62 694.7,-173.78 679.35,-162.69"/>
<polygon fill="#63b8ff" stroke="#63b8ff" points="681.16,-159.68 671,-156.67 677.06,-165.36 681.16,-159.68"/>
</a>
</g>
</g>
<!-- Node40 -->
<g id="Node000040" class="node">
<title>Node40</title>
<g id="a_Node000040"><a xlink:title=" ">
<polygon fill="#e0e0e0" stroke="#999999" points="1234.5,-156.5 1165.5,-156.5 1165.5,-137.5 1234.5,-137.5 1234.5,-156.5"/>
<text text-anchor="middle" x="1200" y="-144.5" font-family="Helvetica,sans-Serif" font-size="10.00">type_traits</text>
</a>
</g>
</g>
<!-- Node19&#45;&gt;Node40 -->
<g id="edge55_Node000019_Node000040" class="edge">
<title>Node19&#45;&gt;Node40</title>
<g id="a_edge55_Node000019_Node000040"><a xlink:title=" ">
<path fill="none" stroke="#63b8ff" d="M774.13,-204.78C844.94,-200.77 1012.77,-189.03 1151,-162 1155.1,-161.2 1159.36,-160.21 1163.58,-159.15"/>
<polygon fill="#63b8ff" stroke="#63b8ff" points="1164.5,-162.52 1173.24,-156.54 1162.68,-155.76 1164.5,-162.52"/>
</a>
</g>
</g>
<!-- Node22&#45;&gt;Node8 -->
<g id="edge41_Node000022_Node000008" class="edge">
<title>Node22&#45;&gt;Node8</title>
<g id="a_edge41_Node000022_Node000008"><a xlink:title=" ">
<path fill="none" stroke="#63b8ff" d="M770.44,-137.44C777.49,-135.56 784.99,-133.64 792,-132 865.03,-114.91 1048.74,-76.54 1123,-66 1308.93,-39.6 1361.28,-73.34 1544,-30 1546.31,-29.45 1548.67,-28.78 1551.02,-28.03"/>
<polygon fill="#63b8ff" stroke="#63b8ff" points="1552.24,-31.31 1560.44,-24.6 1549.85,-24.73 1552.24,-31.31"/>
</a>
</g>
</g>
<!-- Node22&#45;&gt;Node9 -->
<g id="edge42_Node000022_Node000009" class="edge">
<title>Node22&#45;&gt;Node9</title>
<g id="a_edge42_Node000022_Node000009"><a xlink:title=" ">
<path fill="none" stroke="#63b8ff" d="M709.55,-137.5C702.49,-135.61 695,-133.68 688,-132 612.47,-113.9 587.54,-128.49 517,-96 497.14,-86.85 496.87,-77.05 478,-66 470.08,-61.36 423.08,-41.65 391.11,-28.41"/>
<polygon fill="#63b8ff" stroke="#63b8ff" points="392.31,-25.11 381.73,-24.53 389.64,-31.58 392.31,-25.11"/>
</a>
</g>
</g>
<!-- Node22&#45;&gt;Node10 -->
<g id="edge40_Node000022_Node000010" class="edge">
<title>Node22&#45;&gt;Node10</title>
<g id="a_edge40_Node000022_Node000010"><a xlink:title=" ">
<path fill="none" stroke="#63b8ff" d="M767.57,-137.5C775.4,-135.38 783.98,-133.34 792,-132 1027.95,-92.72 1091.93,-127.85 1329,-96 1330.71,-95.77 1332.44,-95.52 1334.18,-95.26"/>
<polygon fill="#63b8ff" stroke="#63b8ff" points="1334.94,-98.68 1344.25,-93.63 1333.82,-91.78 1334.94,-98.68"/>
</a>
</g>
</g>
<!-- Node22&#45;&gt;Node16 -->
<g id="edge43_Node000022_Node000016" class="edge">
<title>Node22&#45;&gt;Node16</title>
<g id="a_edge43_Node000022_Node000016"><a xlink:title=" ">
<path fill="none" stroke="#63b8ff" d="M710.14,-137.48C702.92,-135.55 695.21,-133.6 688,-132 598.13,-112.01 573.16,-118.94 484,-96 481.36,-95.32 478.64,-94.55 475.93,-93.74"/>
<polygon fill="#63b8ff" stroke="#63b8ff" points="476.82,-90.35 466.23,-90.63 474.68,-97.01 476.82,-90.35"/>
</a>
</g>
</g>
<!-- Node22&#45;&gt;Node18 -->
<g id="edge45_Node000022_Node000018" class="edge">
<title>Node22&#45;&gt;Node18</title>
<g id="a_edge45_Node000022_Node000018"><a xlink:title=" ">
<path fill="none" stroke="#63b8ff" d="M711.29,-137.47C703.77,-135.45 695.62,-133.46 688,-132 614.95,-117.97 396.81,-95.48 303.79,-86.2"/>
<polygon fill="#63b8ff" stroke="#63b8ff" points="303.9,-82.7 293.6,-85.19 303.21,-89.66 303.9,-82.7"/>
</a>
</g>
</g>
<!-- Node23 -->
<g id="Node000023" class="node">
<title>Node23</title>
<g id="a_Node000023"><a xlink:href="device__qualifier_8hpp.html" target="_top" xlink:title=" ">
<polygon fill="white" stroke="#666666" points="1320,-90.5 1206,-90.5 1206,-71.5 1320,-71.5 1320,-90.5"/>
<text text-anchor="middle" x="1263" y="-78.5" font-family="Helvetica,sans-Serif" font-size="10.00">device_qualifier.hpp</text>
</a>
</g>
</g>
<!-- Node22&#45;&gt;Node23 -->
<g id="edge25_Node000022_Node000023" class="edge">
<title>Node22&#45;&gt;Node23</title>
<g id="a_edge25_Node000022_Node000023"><a xlink:title=" ">
<path fill="none" stroke="#63b8ff" d="M768.42,-137.48C776.03,-135.44 784.28,-133.44 792,-132 934.39,-105.44 1103.82,-91.76 1195.67,-85.81"/>
<polygon fill="#63b8ff" stroke="#63b8ff" points="1195.91,-89.3 1205.67,-85.17 1195.46,-82.31 1195.91,-89.3"/>
</a>
</g>
</g>
<!-- Node24 -->
<g id="Node000024" class="node">
<title>Node24</title>
<g id="a_Node000024"><a xlink:href="get_8hpp.html" target="_top" xlink:title=" ">
<polygon fill="white" stroke="#666666" points="579.5,-90.5 526.5,-90.5 526.5,-71.5 579.5,-71.5 579.5,-90.5"/>
<text text-anchor="middle" x="553" y="-78.5" font-family="Helvetica,sans-Serif" font-size="10.00">get.hpp</text>
</a>
</g>
</g>
<!-- Node22&#45;&gt;Node24 -->
<g id="edge27_Node000022_Node000024" class="edge">
<title>Node22&#45;&gt;Node24</title>
<g id="a_edge27_Node000022_Node000024"><a xlink:title=" ">
<path fill="none" stroke="#63b8ff" d="M714.78,-137.37C682.07,-126.17 624.83,-106.58 587.94,-93.96"/>
<polygon fill="#63b8ff" stroke="#63b8ff" points="588.71,-90.52 578.12,-90.6 586.45,-97.15 588.71,-90.52"/>
</a>
</g>
</g>
<!-- Node26 -->
<g id="Node000026" class="node">
<title>Node26</title>
<g id="a_Node000026"><a xlink:href="array_8hpp.html" target="_top" xlink:title=" ">
<polygon fill="white" stroke="#666666" points="874.5,-90.5 749.5,-90.5 749.5,-71.5 874.5,-71.5 874.5,-90.5"/>
<text text-anchor="middle" x="812" y="-78.5" font-family="Helvetica,sans-Serif" font-size="10.00">serialization/array.hpp</text>
</a>
</g>
</g>
<!-- Node22&#45;&gt;Node26 -->
<g id="edge30_Node000022_Node000026" class="edge">
<title>Node22&#45;&gt;Node26</title>
<g id="a_edge30_Node000022_Node000026"><a xlink:title=" ">
<path fill="none" stroke="#63b8ff" d="M749.71,-137.37C761.13,-127.21 780.32,-110.16 794.39,-97.65"/>
<polygon fill="#63b8ff" stroke="#63b8ff" points="796.83,-100.16 801.98,-90.91 792.18,-94.93 796.83,-100.16"/>
</a>
</g>
</g>
<!-- Node35 -->
<g id="Node000035" class="node">
<title>Node35</title>
<g id="a_Node000035"><a xlink:title=" ">
<polygon fill="#e0e0e0" stroke="#999999" points="949.5,-90.5 892.5,-90.5 892.5,-71.5 949.5,-71.5 949.5,-90.5"/>
<text text-anchor="middle" x="921" y="-78.5" font-family="Helvetica,sans-Serif" font-size="10.00">ostream</text>
</a>
</g>
</g>
<!-- Node22&#45;&gt;Node35 -->
<g id="edge44_Node000022_Node000035" class="edge">
<title>Node22&#45;&gt;Node35</title>
<g id="a_edge44_Node000022_Node000035"><a xlink:title=" ">
<path fill="none" stroke="#63b8ff" d="M764.84,-137.45C793.4,-127.6 841.66,-110.84 883,-96 884.84,-95.34 886.72,-94.66 888.62,-93.97"/>
<polygon fill="#63b8ff" stroke="#63b8ff" points="889.92,-97.22 898.11,-90.5 887.52,-90.65 889.92,-97.22"/>
</a>
</g>
</g>
<!-- Node23&#45;&gt;Node8 -->
<g id="edge26_Node000023_Node000008" class="edge">
<title>Node23&#45;&gt;Node8</title>
<g id="a_edge26_Node000023_Node000008"><a xlink:title=" ">
<path fill="none" stroke="#63b8ff" d="M1306.98,-71.43C1316.54,-69.61 1326.61,-67.71 1336,-66 1428.3,-49.16 1453.73,-55.56 1544,-30 1545.94,-29.45 1547.91,-28.83 1549.89,-28.17"/>
<polygon fill="#63b8ff" stroke="#63b8ff" points="1551.45,-31.32 1559.63,-24.58 1549.04,-24.75 1551.45,-31.32"/>
</a>
</g>
</g>
<!-- Node24&#45;&gt;Node9 -->
<g id="edge28_Node000024_Node000009" class="edge">
<title>Node24&#45;&gt;Node9</title>
<g id="a_edge28_Node000024_Node000009"><a xlink:title=" ">
<path fill="none" stroke="#63b8ff" d="M528.32,-71.45C522.95,-69.62 517.29,-67.72 512,-66 460.67,-49.28 446.88,-48.04 396,-30 394.39,-29.43 392.74,-28.83 391.08,-28.21"/>
<polygon fill="#63b8ff" stroke="#63b8ff" points="392.21,-24.9 381.62,-24.57 389.7,-31.43 392.21,-24.9"/>
</a>
</g>
</g>
<!-- Node25 -->
<g id="Node000025" class="node">
<title>Node25</title>
<g id="a_Node000025"><a xlink:title=" ">
<polygon fill="#e0e0e0" stroke="#999999" points="446.5,-24.5 405.5,-24.5 405.5,-5.5 446.5,-5.5 446.5,-24.5"/>
<text text-anchor="middle" x="426" y="-12.5" font-family="Helvetica,sans-Serif" font-size="10.00">tuple</text>
</a>
</g>
</g>
<!-- Node24&#45;&gt;Node25 -->
<g id="edge29_Node000024_Node000025" class="edge">
<title>Node24&#45;&gt;Node25</title>
<g id="a_edge29_Node000024_Node000025"><a xlink:title=" ">
<path fill="none" stroke="#63b8ff" d="M535.87,-71.37C514.38,-60.54 477.3,-41.85 452.23,-29.22"/>
<polygon fill="#63b8ff" stroke="#63b8ff" points="453.77,-26.07 443.26,-24.7 450.62,-32.32 453.77,-26.07"/>
</a>
</g>
</g>
<!-- Node26&#45;&gt;Node9 -->
<g id="edge39_Node000026_Node000009" class="edge">
<title>Node26&#45;&gt;Node9</title>
<g id="a_edge39_Node000026_Node000009"><a xlink:title=" ">
<path fill="none" stroke="#63b8ff" d="M749.4,-77.56C667.17,-73.2 518.81,-61.37 396,-30 393.84,-29.45 391.63,-28.79 389.42,-28.07"/>
<polygon fill="#63b8ff" stroke="#63b8ff" points="390.55,-24.76 379.95,-24.62 388.15,-31.34 390.55,-24.76"/>
</a>
</g>
</g>
<!-- Node27 -->
<g id="Node000027" class="node">
<title>Node27</title>
<g id="a_Node000027"><a xlink:title=" ">
<polygon fill="#e0e0e0" stroke="#999999" points="1272.5,-24.5 1139.5,-24.5 1139.5,-5.5 1272.5,-5.5 1272.5,-24.5"/>
<text text-anchor="middle" x="1206" y="-12.5" font-family="Helvetica,sans-Serif" font-size="10.00">boost/mpl/bool_fwd.hpp</text>
</a>
</g>
</g>
<!-- Node26&#45;&gt;Node27 -->
<g id="edge31_Node000026_Node000027" class="edge">
<title>Node26&#45;&gt;Node27</title>
<g id="a_edge31_Node000026_Node000027"><a xlink:title=" ">
<path fill="none" stroke="#63b8ff" d="M853.61,-71.43C863.24,-69.55 873.46,-67.63 883,-66 992.34,-47.26 1020.54,-48.05 1130,-30 1136.76,-28.89 1143.85,-27.66 1150.86,-26.41"/>
<polygon fill="#63b8ff" stroke="#63b8ff" points="1151.82,-29.79 1161.04,-24.57 1150.58,-22.9 1151.82,-29.79"/>
</a>
</g>
</g>
<!-- Node28 -->
<g id="Node000028" class="node">
<title>Node28</title>
<g id="a_Node000028"><a xlink:title=" ">
<polygon fill="#e0e0e0" stroke="#999999" points="1415,-24.5 1291,-24.5 1291,-5.5 1415,-5.5 1415,-24.5"/>
<text text-anchor="middle" x="1353" y="-12.5" font-family="Helvetica,sans-Serif" font-size="10.00">boost/mpl/greater.hpp</text>
</a>
</g>
</g>
<!-- Node26&#45;&gt;Node28 -->
<g id="edge32_Node000026_Node000028" class="edge">
<title>Node26&#45;&gt;Node28</title>
<g id="a_edge32_Node000026_Node000028"><a xlink:title=" ">
<path fill="none" stroke="#63b8ff" d="M851.31,-71.49C861.59,-69.47 872.68,-67.48 883,-66 1058.81,-40.79 1105.15,-54.98 1281,-30 1288.19,-28.98 1295.76,-27.72 1303.17,-26.37"/>
<polygon fill="#63b8ff" stroke="#63b8ff" points="1303.95,-29.79 1313.13,-24.5 1302.66,-22.91 1303.95,-29.79"/>
</a>
</g>
</g>
<!-- Node29 -->
<g id="Node000029" class="node">
<title>Node29</title>
<g id="a_Node000029"><a xlink:title=" ">
<polygon fill="#e0e0e0" stroke="#999999" points="1535,-24.5 1433,-24.5 1433,-5.5 1535,-5.5 1535,-24.5"/>
<text text-anchor="middle" x="1484" y="-12.5" font-family="Helvetica,sans-Serif" font-size="10.00">boost/mpl/int.hpp</text>
</a>
</g>
</g>
<!-- Node26&#45;&gt;Node29 -->
<g id="edge33_Node000026_Node000029" class="edge">
<title>Node26&#45;&gt;Node29</title>
<g id="a_edge33_Node000026_Node000029"><a xlink:title=" ">
<path fill="none" stroke="#63b8ff" d="M850.54,-71.47C861.03,-69.4 872.41,-67.39 883,-66 1121.93,-34.63 1185.65,-65.5 1424,-30 1429.83,-29.13 1435.93,-27.99 1441.91,-26.73"/>
<polygon fill="#63b8ff" stroke="#63b8ff" points="1442.8,-30.12 1451.8,-24.53 1441.28,-23.28 1442.8,-30.12"/>
</a>
</g>
</g>
<!-- Node30 -->
<g id="Node000030" class="node">
<title>Node30</title>
<g id="a_Node000030"><a xlink:title=" ">
<polygon fill="#e0e0e0" stroke="#999999" points="571,-30 465,-30 465,0 571,0 571,-30"/>
<text text-anchor="start" x="473" y="-18" font-family="Helvetica,sans-Serif" font-size="10.00">boost/mpl/integral</text>
<text text-anchor="middle" x="518" y="-7" font-family="Helvetica,sans-Serif" font-size="10.00">_c_tag.hpp</text>
</a>
</g>
</g>
<!-- Node26&#45;&gt;Node30 -->
<g id="edge34_Node000026_Node000030" class="edge">
<title>Node26&#45;&gt;Node30</title>
<g id="a_edge34_Node000026_Node000030"><a xlink:title=" ">
<path fill="none" stroke="#63b8ff" d="M771.74,-71.45C727.44,-62.01 653.86,-46.25 580.91,-30.19"/>
<polygon fill="#63b8ff" stroke="#63b8ff" points="581.61,-26.76 571.09,-28.02 580.1,-33.6 581.61,-26.76"/>
</a>
</g>
</g>
<!-- Node31 -->
<g id="Node000031" class="node">
<title>Node31</title>
<g id="a_Node000031"><a xlink:title=" ">
<polygon fill="#e0e0e0" stroke="#999999" points="740.5,-30 589.5,-30 589.5,0 740.5,0 740.5,-30"/>
<text text-anchor="start" x="597.5" y="-18" font-family="Helvetica,sans-Serif" font-size="10.00">boost/serialization</text>
<text text-anchor="middle" x="665" y="-7" font-family="Helvetica,sans-Serif" font-size="10.00">/is_bitwise_serializable.hpp</text>
</a>
</g>
</g>
<!-- Node26&#45;&gt;Node31 -->
<g id="edge35_Node000026_Node000031" class="edge">
<title>Node26&#45;&gt;Node31</title>
<g id="a_edge35_Node000026_Node000031"><a xlink:title=" ">
<path fill="none" stroke="#63b8ff" d="M792.17,-71.37C770.35,-61.87 734.64,-46.32 706.6,-34.11"/>
<polygon fill="#63b8ff" stroke="#63b8ff" points="707.99,-30.9 697.42,-30.12 705.19,-37.32 707.99,-30.9"/>
</a>
</g>
</g>
<!-- Node32 -->
<g id="Node000032" class="node">
<title>Node32</title>
<g id="a_Node000032"><a xlink:title=" ">
<polygon fill="#e0e0e0" stroke="#999999" points="865.5,-30 758.5,-30 758.5,0 865.5,0 865.5,-30"/>
<text text-anchor="start" x="766.5" y="-18" font-family="Helvetica,sans-Serif" font-size="10.00">boost/serialization</text>
<text text-anchor="middle" x="812" y="-7" font-family="Helvetica,sans-Serif" font-size="10.00">/level.hpp</text>
</a>
</g>
</g>
<!-- Node26&#45;&gt;Node32 -->
<g id="edge36_Node000026_Node000032" class="edge">
<title>Node26&#45;&gt;Node32</title>
<g id="a_edge36_Node000026_Node000032"><a xlink:title=" ">
<path fill="none" stroke="#63b8ff" d="M812,-71.37C812,-63.49 812,-51.45 812,-40.6"/>
<polygon fill="#63b8ff" stroke="#63b8ff" points="815.5,-40.36 812,-30.36 808.5,-40.36 815.5,-40.36"/>
</a>
</g>
</g>
<!-- Node33 -->
<g id="Node000033" class="node">
<title>Node33</title>
<g id="a_Node000033"><a xlink:title=" ">
<polygon fill="#e0e0e0" stroke="#999999" points="990.5,-30 883.5,-30 883.5,0 990.5,0 990.5,-30"/>
<text text-anchor="start" x="891.5" y="-18" font-family="Helvetica,sans-Serif" font-size="10.00">boost/serialization</text>
<text text-anchor="middle" x="937" y="-7" font-family="Helvetica,sans-Serif" font-size="10.00">/tracking.hpp</text>
</a>
</g>
</g>
<!-- Node26&#45;&gt;Node33 -->
<g id="edge37_Node000026_Node000033" class="edge">
<title>Node26&#45;&gt;Node33</title>
<g id="a_edge37_Node000026_Node000033"><a xlink:title=" ">
<path fill="none" stroke="#63b8ff" d="M828.86,-71.37C847.1,-62.03 876.73,-46.86 900.37,-34.75"/>
<polygon fill="#63b8ff" stroke="#63b8ff" points="902.12,-37.79 909.43,-30.12 898.93,-31.56 902.12,-37.79"/>
</a>
</g>
</g>
<!-- Node34 -->
<g id="Node000034" class="node">
<title>Node34</title>
<g id="a_Node000034"><a xlink:title=" ">
<polygon fill="#e0e0e0" stroke="#999999" points="1121.5,-30 1008.5,-30 1008.5,0 1121.5,0 1121.5,-30"/>
<text text-anchor="start" x="1016.5" y="-18" font-family="Helvetica,sans-Serif" font-size="10.00">boost/serialization</text>
<text text-anchor="middle" x="1065" y="-7" font-family="Helvetica,sans-Serif" font-size="10.00">/tracking_enum.hpp</text>
</a>
</g>
</g>
<!-- Node26&#45;&gt;Node34 -->
<g id="edge38_Node000026_Node000034" class="edge">
<title>Node26&#45;&gt;Node34</title>
<g id="a_edge38_Node000026_Node000034"><a xlink:title=" ">
<path fill="none" stroke="#63b8ff" d="M845.86,-71.44C885.03,-61.52 950.45,-44.98 999.64,-32.53"/>
<polygon fill="#63b8ff" stroke="#63b8ff" points="1000.72,-35.87 1009.56,-30.02 999.01,-29.08 1000.72,-35.87"/>
</a>
</g>
</g>
<!-- Node41&#45;&gt;Node23 -->
<g id="edge58_Node000041_Node000023" class="edge">
<title>Node41&#45;&gt;Node23</title>
<g id="a_edge58_Node000041_Node000023"><a xlink:title=" ">
<path fill="none" stroke="#63b8ff" d="M1125.86,-197.95C1170.92,-190.57 1226.48,-178.48 1243,-162 1259.04,-146 1262.89,-119.21 1263.5,-101.09"/>
<polygon fill="#63b8ff" stroke="#63b8ff" points="1267,-100.87 1263.52,-90.86 1260,-100.85 1267,-100.87"/>
</a>
</g>
</g>
<!-- Node41&#45;&gt;Node40 -->
<g id="edge59_Node000041_Node000040" class="edge">
<title>Node41&#45;&gt;Node40</title>
<g id="a_edge59_Node000041_Node000040"><a xlink:title=" ">
<path fill="none" stroke="#63b8ff" d="M1082.92,-197.99C1105.95,-188.16 1144.08,-171.88 1170.54,-160.58"/>
<polygon fill="#63b8ff" stroke="#63b8ff" points="1172.23,-163.66 1180.05,-156.52 1169.48,-157.22 1172.23,-163.66"/>
</a>
</g>
</g>
</g>
</svg>

<g id="navigator" transform="translate(0 0)" fill="#404254">
  <rect fill="#f2f5e9" fill-opacity="0.5" stroke="#606060" stroke-width=".5" x="0" y="0" width="60" height="60"/>
  <use id="zoomplus" xlink:href="#zoomPlus" x="17" y="9" onmousedown="handleZoom(evt,'in')"/>
  <use id="zoomminus" xlink:href="#zoomMin" x="42" y="9" onmousedown="handleZoom(evt,'out')"/>
  <use id="reset" xlink:href="#resetDef" x="30" y="36" onmousedown="handleReset()"/>
   <use id="arrowup" xlink:href="#arrowUp" x="0" y="0" onmousedown="handlePan(0,-1)"/>
  <use id="arrowright" xlink:href="#arrowRight" x="0" y="0" onmousedown="handlePan(1,0)"/>
  <use id="arrowdown" xlink:href="#arrowDown" x="0" y="0" onmousedown="handlePan(0,1)"/>
  <use id="arrowleft" xlink:href="#arrowLeft" x="0" y="0" onmousedown="handlePan(-1,0)"/>
</g>
<svg viewBox="0 0 15 15" width="100%" height="30px" preserveAspectRatio="xMaxYMin meet">
 <g id="arrow_out" transform="scale(0.3 0.3)">
  <a xlink:href="hat_8cpp__incl_org.svg" target="_base">
   <rect id="button" ry="5" rx="5" y="6" x="6" height="38" width="38"
        fill="#f2f5e9" fill-opacity="0.5" stroke="#606060" stroke-width="1.0"/>
   <path id="arrow"
     d="M 11.500037,31.436501 C 11.940474,20.09759 22.043105,11.32322 32.158766,21.979434 L 37.068811,17.246167 C 37.068811,17.246167 37.088388,32 37.088388,32 L 22.160133,31.978069 C 22.160133,31.978069 26.997745,27.140456 26.997745,27.140456 C 18.528582,18.264221 13.291696,25.230495 11.500037,31.436501 z"
     style="fill:#404040;"/>
  </a>
 </g>
</svg>

<style type='text/css'>
<![CDATA[
[data-mouse-over-selected='false'] { opacity: 0.7; }
[data-mouse-over-selected='true']  { opacity: 1.0; }
]]>
</style>
<script type="application/ecmascript"><![CDATA[
document.addEventListener('DOMContentLoaded', (event) => {
  highlightEdges();
  highlightAdjacentNodes();
});
]]></script>
</svg>
