<?xml version="1.0" encoding="UTF-8" standalone="no"?>
<!DOCTYPE svg PUBLIC "-//W3C//DTD SVG 1.1//EN"
 "http://www.w3.org/Graphics/SVG/1.1/DTD/svg11.dtd">
<!-- Generated by graphviz version 2.43.0 (0)
 -->
<!-- Title: hat.cpp Pages: 1 -->
<svg width="2551pt" height="456pt"
 viewBox="0.00 0.00 2551.00 456.00" xmlns="http://www.w3.org/2000/svg" xmlns:xlink="http://www.w3.org/1999/xlink">
<g id="graph0" class="graph" transform="scale(1 1) rotate(0) translate(4 452)">
<title>hat.cpp</title>
<!-- Node1 -->
<g id="Node000001" class="node">
<title>Node1</title>
<g id="a_Node000001"><a xlink:title="Implementation of hat.hpp.">
<polygon fill="#999999" stroke="#666666" points="623,-448 570,-448 570,-429 623,-429 623,-448"/>
<text text-anchor="middle" x="596.5" y="-436" font-family="Helvetica,sans-Serif" font-size="10.00">hat.cpp</text>
</a>
</g>
</g>
<!-- Node2 -->
<g id="Node000002" class="node">
<title>Node2</title>
<g id="a_Node000002"><a xlink:href="hat_8hpp.html" target="_top" xlink:title="Routines to calculate the hat potential between particle pairs.">
<polygon fill="white" stroke="#666666" points="568,-393 515,-393 515,-374 568,-374 568,-393"/>
<text text-anchor="middle" x="541.5" y="-381" font-family="Helvetica,sans-Serif" font-size="10.00">hat.hpp</text>
</a>
</g>
</g>
<!-- Node1&#45;&gt;Node2 -->
<g id="edge1_Node000001_Node000002" class="edge">
<title>Node1&#45;&gt;Node2</title>
<g id="a_edge1_Node000001_Node000002"><a xlink:title=" ">
<path fill="none" stroke="#63b8ff" d="M587.42,-428.75C579.41,-421.03 567.54,-409.6 557.88,-400.28"/>
<polygon fill="#63b8ff" stroke="#63b8ff" points="560.04,-397.51 550.41,-393.09 555.19,-402.55 560.04,-397.51"/>
</a>
</g>
</g>
<!-- Node5 -->
<g id="Node000005" class="node">
<title>Node5</title>
<g id="a_Node000005"><a xlink:href="nonbonded__interaction__data_8hpp.html" target="_top" xlink:title="Various procedures concerning interactions between particles.">
<polygon fill="white" stroke="#666666" points="633.5,-338 505.5,-338 505.5,-308 633.5,-308 633.5,-338"/>
<text text-anchor="start" x="513.5" y="-326" font-family="Helvetica,sans-Serif" font-size="10.00">nonbonded_interaction</text>
<text text-anchor="middle" x="569.5" y="-315" font-family="Helvetica,sans-Serif" font-size="10.00">_data.hpp</text>
</a>
</g>
</g>
<!-- Node1&#45;&gt;Node5 -->
<g id="edge65_Node000001_Node000005" class="edge">
<title>Node1&#45;&gt;Node5</title>
<g id="a_edge65_Node000001_Node000005"><a xlink:title=" ">
<path fill="none" stroke="#63b8ff" d="M594.47,-428.97C590.44,-412.01 581.28,-373.5 575.24,-348.14"/>
<polygon fill="#63b8ff" stroke="#63b8ff" points="578.59,-347.1 572.87,-338.18 571.78,-348.72 578.59,-347.1"/>
</a>
</g>
</g>
<!-- Node17 -->
<g id="Node000017" class="node">
<title>Node17</title>
<g id="a_Node000017"><a xlink:title=" ">
<polygon fill="#e0e0e0" stroke="#999999" points="1747,-90.5 1682,-90.5 1682,-71.5 1747,-71.5 1747,-90.5"/>
<text text-anchor="middle" x="1714.5" y="-78.5" font-family="Helvetica,sans-Serif" font-size="10.00">stdexcept</text>
</a>
</g>
</g>
<!-- Node1&#45;&gt;Node17 -->
<g id="edge66_Node000001_Node000017" class="edge">
<title>Node1&#45;&gt;Node17</title>
<g id="a_edge66_Node000001_Node000017"><a xlink:title=" ">
<path fill="none" stroke="#63b8ff" d="M623.05,-436.46C801.02,-429.31 1813.5,-385.94 1813.5,-324 1813.5,-324 1813.5,-324 1813.5,-206.5 1813.5,-157.7 1766.32,-116.95 1737.1,-96.38"/>
<polygon fill="#63b8ff" stroke="#63b8ff" points="1738.92,-93.39 1728.68,-90.67 1734.99,-99.18 1738.92,-93.39"/>
</a>
</g>
</g>
<!-- Node3 -->
<g id="Node000003" class="node">
<title>Node3</title>
<g id="a_Node000003"><a xlink:href="config_8hpp.html" target="_top" xlink:title="This file contains the defaults for ESPResSo.">
<polygon fill="white" stroke="#666666" points="143,-272 44,-272 44,-253 143,-253 143,-272"/>
<text text-anchor="middle" x="93.5" y="-260" font-family="Helvetica,sans-Serif" font-size="10.00">config/config.hpp</text>
</a>
</g>
</g>
<!-- Node2&#45;&gt;Node3 -->
<g id="edge2_Node000002_Node000003" class="edge">
<title>Node2&#45;&gt;Node3</title>
<g id="a_edge2_Node000002_Node000003"><a xlink:title=" ">
<path fill="none" stroke="#63b8ff" d="M514.82,-375.41C439.74,-355.47 226.25,-298.76 135.33,-274.61"/>
<polygon fill="#63b8ff" stroke="#63b8ff" points="136.2,-271.22 125.63,-272.04 134.4,-277.99 136.2,-271.22"/>
</a>
</g>
</g>
<!-- Node2&#45;&gt;Node5 -->
<g id="edge4_Node000002_Node000005" class="edge">
<title>Node2&#45;&gt;Node5</title>
<g id="a_edge4_Node000002_Node000005"><a xlink:title=" ">
<path fill="none" stroke="#63b8ff" d="M545.63,-373.87C548.97,-366.89 553.84,-356.71 558.31,-347.38"/>
<polygon fill="#63b8ff" stroke="#63b8ff" points="561.58,-348.65 562.74,-338.11 555.27,-345.62 561.58,-348.65"/>
</a>
</g>
</g>
<!-- Node4 -->
<g id="Node000004" class="node">
<title>Node4</title>
<g id="a_Node000004"><a xlink:title=" ">
<polygon fill="#e0e0e0" stroke="#999999" points="143,-217 0,-217 0,-198 143,-198 143,-217"/>
<text text-anchor="middle" x="71.5" y="-205" font-family="Helvetica,sans-Serif" font-size="10.00">config/config&#45;features.hpp</text>
</a>
</g>
</g>
<!-- Node3&#45;&gt;Node4 -->
<g id="edge3_Node000003_Node000004" class="edge">
<title>Node3&#45;&gt;Node4</title>
<g id="a_edge3_Node000003_Node000004"><a xlink:title=" ">
<path fill="none" stroke="#63b8ff" d="M89.87,-252.75C86.92,-245.65 82.67,-235.4 78.99,-226.56"/>
<polygon fill="#63b8ff" stroke="#63b8ff" points="82.13,-224.98 75.07,-217.09 75.67,-227.67 82.13,-224.98"/>
</a>
</g>
</g>
<!-- Node5&#45;&gt;Node3 -->
<g id="edge13_Node000005_Node000003" class="edge">
<title>Node5&#45;&gt;Node3</title>
<g id="a_edge13_Node000005_Node000003"><a xlink:title=" ">
<path fill="none" stroke="#63b8ff" d="M505.24,-314.43C424.16,-304.82 280.44,-287.62 157.5,-272 156.04,-271.81 154.56,-271.63 153.07,-271.43"/>
<polygon fill="#63b8ff" stroke="#63b8ff" points="153.47,-267.96 143.11,-270.14 152.57,-274.9 153.47,-267.96"/>
</a>
</g>
</g>
<!-- Node6 -->
<g id="Node000006" class="node">
<title>Node6</title>
<g id="a_Node000006"><a xlink:href="TabulatedPotential_8hpp.html" target="_top" xlink:title=" ">
<polygon fill="white" stroke="#666666" points="564.5,-217 436.5,-217 436.5,-198 564.5,-198 564.5,-217"/>
<text text-anchor="middle" x="500.5" y="-205" font-family="Helvetica,sans-Serif" font-size="10.00">TabulatedPotential.hpp</text>
</a>
</g>
</g>
<!-- Node5&#45;&gt;Node6 -->
<g id="edge5_Node000005_Node000006" class="edge">
<title>Node5&#45;&gt;Node6</title>
<g id="a_edge5_Node000005_Node000006"><a xlink:title=" ">
<path fill="none" stroke="#63b8ff" d="M560.76,-307.63C548.13,-286.84 524.78,-248.44 511.15,-226.02"/>
<polygon fill="#63b8ff" stroke="#63b8ff" points="513.99,-223.96 505.81,-217.23 508.01,-227.59 513.99,-223.96"/>
</a>
</g>
</g>
<!-- Node8 -->
<g id="Node000008" class="node">
<title>Node8</title>
<g id="a_Node000008"><a xlink:title=" ">
<polygon fill="#e0e0e0" stroke="#999999" points="762.5,-24.5 710.5,-24.5 710.5,-5.5 762.5,-5.5 762.5,-24.5"/>
<text text-anchor="middle" x="736.5" y="-12.5" font-family="Helvetica,sans-Serif" font-size="10.00">cassert</text>
</a>
</g>
</g>
<!-- Node5&#45;&gt;Node8 -->
<g id="edge60_Node000005_Node000008" class="edge">
<title>Node5&#45;&gt;Node8</title>
<g id="a_edge60_Node000005_Node000008"><a xlink:title=" ">
<path fill="none" stroke="#63b8ff" d="M505.11,-316.99C392.47,-306.45 171.5,-277.03 171.5,-208.5 171.5,-208.5 171.5,-208.5 171.5,-146 171.5,-37.07 575.38,-19.41 700.2,-16.55"/>
<polygon fill="#63b8ff" stroke="#63b8ff" points="700.46,-20.05 710.38,-16.34 700.31,-13.05 700.46,-20.05"/>
</a>
</g>
</g>
<!-- Node9 -->
<g id="Node000009" class="node">
<title>Node9</title>
<g id="a_Node000009"><a xlink:title=" ">
<polygon fill="#e0e0e0" stroke="#999999" points="1396,-24.5 1343,-24.5 1343,-5.5 1396,-5.5 1396,-24.5"/>
<text text-anchor="middle" x="1369.5" y="-12.5" font-family="Helvetica,sans-Serif" font-size="10.00">cstddef</text>
</a>
</g>
</g>
<!-- Node5&#45;&gt;Node9 -->
<g id="edge62_Node000005_Node000009" class="edge">
<title>Node5&#45;&gt;Node9</title>
<g id="a_edge62_Node000005_Node000009"><a xlink:title=" ">
<path fill="none" stroke="#63b8ff" d="M633.53,-322.5C835.16,-323.54 1455.01,-322.43 1648.5,-272 1709.57,-256.08 1775.5,-271.61 1775.5,-208.5 1775.5,-208.5 1775.5,-208.5 1775.5,-146 1775.5,-109.46 1783.98,-90.09 1756.5,-66 1697.55,-14.3 1481.73,-48.38 1405.5,-30 1403.13,-29.43 1400.72,-28.74 1398.31,-27.98"/>
<polygon fill="#63b8ff" stroke="#63b8ff" points="1399.22,-24.59 1388.62,-24.53 1396.87,-31.18 1399.22,-24.59"/>
</a>
</g>
</g>
<!-- Node12 -->
<g id="Node000012" class="node">
<title>Node12</title>
<g id="a_Node000012"><a xlink:title=" ">
<polygon fill="#e0e0e0" stroke="#999999" points="301.5,-156.5 237.5,-156.5 237.5,-137.5 301.5,-137.5 301.5,-156.5"/>
<text text-anchor="middle" x="269.5" y="-144.5" font-family="Helvetica,sans-Serif" font-size="10.00">algorithm</text>
</a>
</g>
</g>
<!-- Node5&#45;&gt;Node12 -->
<g id="edge59_Node000005_Node000012" class="edge">
<title>Node5&#45;&gt;Node12</title>
<g id="a_edge59_Node000005_Node000012"><a xlink:title=" ">
<path fill="none" stroke="#63b8ff" d="M505.43,-316.88C439.01,-307.98 337.25,-283.63 281.5,-217 269.94,-203.18 267.74,-182.23 267.94,-167.04"/>
<polygon fill="#63b8ff" stroke="#63b8ff" points="271.45,-166.92 268.45,-156.76 264.46,-166.58 271.45,-166.92"/>
</a>
</g>
</g>
<!-- Node13 -->
<g id="Node000013" class="node">
<title>Node13</title>
<g id="a_Node000013"><a xlink:title=" ">
<polygon fill="#e0e0e0" stroke="#999999" points="656,-156.5 609,-156.5 609,-137.5 656,-137.5 656,-156.5"/>
<text text-anchor="middle" x="632.5" y="-144.5" font-family="Helvetica,sans-Serif" font-size="10.00">vector</text>
</a>
</g>
</g>
<!-- Node5&#45;&gt;Node13 -->
<g id="edge64_Node000005_Node000013" class="edge">
<title>Node5&#45;&gt;Node13</title>
<g id="a_edge64_Node000005_Node000013"><a xlink:title=" ">
<path fill="none" stroke="#63b8ff" d="M574.66,-307.76C586,-276.41 613.14,-201.46 625.8,-166.52"/>
<polygon fill="#63b8ff" stroke="#63b8ff" points="629.24,-167.28 629.36,-156.68 622.66,-164.9 629.24,-167.28"/>
</a>
</g>
</g>
<!-- Node14 -->
<g id="Node000014" class="node">
<title>Node14</title>
<g id="a_Node000014"><a xlink:href="index_8hpp.html" target="_top" xlink:title=" ">
<polygon fill="white" stroke="#666666" points="1639,-272 1550,-272 1550,-253 1639,-253 1639,-272"/>
<text text-anchor="middle" x="1594.5" y="-260" font-family="Helvetica,sans-Serif" font-size="10.00">utils/index.hpp</text>
</a>
</g>
</g>
<!-- Node5&#45;&gt;Node14 -->
<g id="edge14_Node000005_Node000014" class="edge">
<title>Node5&#45;&gt;Node14</title>
<g id="a_edge14_Node000005_Node000014"><a xlink:title=" ">
<path fill="none" stroke="#63b8ff" d="M633.62,-318.34C820.97,-307.65 1365.31,-276.58 1539.91,-266.62"/>
<polygon fill="#63b8ff" stroke="#63b8ff" points="1540.12,-270.11 1549.9,-266.05 1539.72,-263.12 1540.12,-270.11"/>
</a>
</g>
</g>
<!-- Node35 -->
<g id="Node000035" class="node">
<title>Node35</title>
<g id="a_Node000035"><a xlink:title=" ">
<polygon fill="#e0e0e0" stroke="#999999" points="760,-156.5 713,-156.5 713,-137.5 760,-137.5 760,-156.5"/>
<text text-anchor="middle" x="736.5" y="-144.5" font-family="Helvetica,sans-Serif" font-size="10.00">cmath</text>
</a>
</g>
</g>
<!-- Node5&#45;&gt;Node35 -->
<g id="edge61_Node000005_Node000035" class="edge">
<title>Node5&#45;&gt;Node35</title>
<g id="a_edge61_Node000005_Node000035"><a xlink:title=" ">
<path fill="none" stroke="#63b8ff" d="M626.9,-307.89C648.18,-300.24 671.11,-288.8 687.5,-272 716.5,-242.28 728.92,-193.33 733.75,-166.69"/>
<polygon fill="#63b8ff" stroke="#63b8ff" points="737.22,-167.2 735.39,-156.76 730.31,-166.06 737.22,-167.2"/>
</a>
</g>
</g>
<!-- Node40 -->
<g id="Node000040" class="node">
<title>Node40</title>
<g id="a_Node000040"><a xlink:href="int__pow_8hpp.html" target="_top" xlink:title=" ">
<polygon fill="white" stroke="#666666" points="418.5,-217 290.5,-217 290.5,-198 418.5,-198 418.5,-217"/>
<text text-anchor="middle" x="354.5" y="-205" font-family="Helvetica,sans-Serif" font-size="10.00">utils/math/int_pow.hpp</text>
</a>
</g>
</g>
<!-- Node5&#45;&gt;Node40 -->
<g id="edge56_Node000005_Node000040" class="edge">
<title>Node5&#45;&gt;Node40</title>
<g id="a_edge56_Node000005_Node000040"><a xlink:title=" ">
<path fill="none" stroke="#63b8ff" d="M542.7,-307.85C500.92,-285.79 420.78,-243.49 379.88,-221.9"/>
<polygon fill="#63b8ff" stroke="#63b8ff" points="381.31,-218.7 370.84,-217.12 378.05,-224.89 381.31,-218.7"/>
</a>
</g>
</g>
<!-- Node41 -->
<g id="Node000041" class="node">
<title>Node41</title>
<g id="a_Node000041"><a xlink:title=" ">
<polygon fill="#e0e0e0" stroke="#999999" points="678.5,-272 620.5,-272 620.5,-253 678.5,-253 678.5,-272"/>
<text text-anchor="middle" x="649.5" y="-260" font-family="Helvetica,sans-Serif" font-size="10.00">memory</text>
</a>
</g>
</g>
<!-- Node5&#45;&gt;Node41 -->
<g id="edge63_Node000005_Node000041" class="edge">
<title>Node5&#45;&gt;Node41</title>
<g id="a_edge63_Node000005_Node000041"><a xlink:title=" ">
<path fill="none" stroke="#63b8ff" d="M588.87,-307.84C601.07,-298.91 616.81,-287.41 629.19,-278.35"/>
<polygon fill="#63b8ff" stroke="#63b8ff" points="631.51,-280.99 637.51,-272.27 627.37,-275.34 631.51,-280.99"/>
</a>
</g>
</g>
<!-- Node7 -->
<g id="Node000007" class="node">
<title>Node7</title>
<g id="a_Node000007"><a xlink:href="linear__interpolation_8hpp.html" target="_top" xlink:title=" ">
<polygon fill="white" stroke="#666666" points="974,-90.5 817,-90.5 817,-71.5 974,-71.5 974,-90.5"/>
<text text-anchor="middle" x="895.5" y="-78.5" font-family="Helvetica,sans-Serif" font-size="10.00">utils/linear_interpolation.hpp</text>
</a>
</g>
</g>
<!-- Node6&#45;&gt;Node7 -->
<g id="edge6_Node000006_Node000007" class="edge">
<title>Node6&#45;&gt;Node7</title>
<g id="a_edge6_Node000006_Node000007"><a xlink:title=" ">
<path fill="none" stroke="#63b8ff" d="M493.29,-197.52C481.92,-182.22 462.74,-150.9 479.5,-132 500.82,-107.96 690.83,-93.29 806.55,-86.5"/>
<polygon fill="#63b8ff" stroke="#63b8ff" points="807.04,-89.98 816.82,-85.91 806.64,-82.99 807.04,-89.98"/>
</a>
</g>
</g>
<!-- Node10 -->
<g id="Node000010" class="node">
<title>Node10</title>
<g id="a_Node000010"><a xlink:title=" ">
<polygon fill="#e0e0e0" stroke="#999999" points="1117,-96 1010,-96 1010,-66 1117,-66 1117,-96"/>
<text text-anchor="start" x="1018" y="-84" font-family="Helvetica,sans-Serif" font-size="10.00">boost/serialization</text>
<text text-anchor="middle" x="1063.5" y="-73" font-family="Helvetica,sans-Serif" font-size="10.00">/access.hpp</text>
</a>
</g>
</g>
<!-- Node6&#45;&gt;Node10 -->
<g id="edge9_Node000006_Node000010" class="edge">
<title>Node6&#45;&gt;Node10</title>
<g id="a_edge9_Node000006_Node000010"><a xlink:title=" ">
<path fill="none" stroke="#63b8ff" d="M498.87,-197.81C496.47,-182.07 494.08,-148.94 512.5,-132 551.13,-96.47 931.42,-102.53 983.5,-96 988.83,-95.33 994.35,-94.55 999.88,-93.71"/>
<polygon fill="#63b8ff" stroke="#63b8ff" points="1000.49,-97.16 1009.82,-92.13 999.39,-90.24 1000.49,-97.16"/>
</a>
</g>
</g>
<!-- Node11 -->
<g id="Node000011" class="node">
<title>Node11</title>
<g id="a_Node000011"><a xlink:title=" ">
<polygon fill="#e0e0e0" stroke="#999999" points="427,-162 320,-162 320,-132 427,-132 427,-162"/>
<text text-anchor="start" x="328" y="-150" font-family="Helvetica,sans-Serif" font-size="10.00">boost/serialization</text>
<text text-anchor="middle" x="373.5" y="-139" font-family="Helvetica,sans-Serif" font-size="10.00">/vector.hpp</text>
</a>
</g>
</g>
<!-- Node6&#45;&gt;Node11 -->
<g id="edge10_Node000006_Node000011" class="edge">
<title>Node6&#45;&gt;Node11</title>
<g id="a_edge10_Node000006_Node000011"><a xlink:title=" ">
<path fill="none" stroke="#63b8ff" d="M482.03,-197.99C464.14,-189.75 436.4,-176.98 413.45,-166.4"/>
<polygon fill="#63b8ff" stroke="#63b8ff" points="414.83,-163.18 404.28,-162.18 411.9,-169.54 414.83,-163.18"/>
</a>
</g>
</g>
<!-- Node6&#45;&gt;Node12 -->
<g id="edge11_Node000006_Node000012" class="edge">
<title>Node6&#45;&gt;Node12</title>
<g id="a_edge11_Node000006_Node000012"><a xlink:title=" ">
<path fill="none" stroke="#63b8ff" d="M458.68,-197.95C419.98,-189.75 360.97,-176.49 310.5,-162 308.03,-161.29 305.5,-160.52 302.95,-159.72"/>
<polygon fill="#63b8ff" stroke="#63b8ff" points="303.81,-156.32 293.22,-156.55 301.64,-162.98 303.81,-156.32"/>
</a>
</g>
</g>
<!-- Node6&#45;&gt;Node13 -->
<g id="edge12_Node000006_Node000013" class="edge">
<title>Node6&#45;&gt;Node13</title>
<g id="a_edge12_Node000006_Node000013"><a xlink:title=" ">
<path fill="none" stroke="#63b8ff" d="M519.69,-197.99C541.89,-188.16 578.62,-171.88 604.12,-160.58"/>
<polygon fill="#63b8ff" stroke="#63b8ff" points="605.56,-163.77 613.28,-156.52 602.72,-157.37 605.56,-163.77"/>
</a>
</g>
</g>
<!-- Node7&#45;&gt;Node8 -->
<g id="edge7_Node000007_Node000008" class="edge">
<title>Node7&#45;&gt;Node8</title>
<g id="a_edge7_Node000007_Node000008"><a xlink:title=" ">
<path fill="none" stroke="#63b8ff" d="M874.06,-71.37C846.6,-60.32 798.82,-41.08 767.43,-28.45"/>
<polygon fill="#63b8ff" stroke="#63b8ff" points="768.44,-25.08 757.86,-24.6 765.83,-31.58 768.44,-25.08"/>
</a>
</g>
</g>
<!-- Node7&#45;&gt;Node9 -->
<g id="edge8_Node000007_Node000009" class="edge">
<title>Node7&#45;&gt;Node9</title>
<g id="a_edge8_Node000007_Node000009"><a xlink:title=" ">
<path fill="none" stroke="#63b8ff" d="M958.93,-71.44C1059.49,-57.86 1252.32,-31.82 1332.8,-20.96"/>
<polygon fill="#63b8ff" stroke="#63b8ff" points="1333.5,-24.39 1342.94,-19.59 1332.56,-17.46 1333.5,-24.39"/>
</a>
</g>
</g>
<!-- Node14&#45;&gt;Node8 -->
<g id="edge15_Node000014_Node000008" class="edge">
<title>Node14&#45;&gt;Node8</title>
<g id="a_edge15_Node000014_Node000008"><a xlink:title=" ">
<path fill="none" stroke="#63b8ff" d="M1549.95,-259.96C1377.43,-253.56 760.05,-226.27 703.5,-162 671.12,-125.21 704.36,-63.39 724.11,-33.39"/>
<polygon fill="#63b8ff" stroke="#63b8ff" points="727.2,-35.07 729.94,-24.83 721.41,-31.12 727.2,-35.07"/>
</a>
</g>
</g>
<!-- Node14&#45;&gt;Node9 -->
<g id="edge16_Node000014_Node000009" class="edge">
<title>Node14&#45;&gt;Node9</title>
<g id="a_edge16_Node000014_Node000009"><a xlink:title=" ">
<path fill="none" stroke="#63b8ff" d="M1607.64,-252.98C1618.65,-245.06 1633.77,-232.23 1641.5,-217 1658.66,-183.2 1664,-166.59 1648.5,-132 1600.61,-25.11 1517.72,-63.54 1405.5,-30 1403.57,-29.42 1401.6,-28.79 1399.63,-28.12"/>
<polygon fill="#63b8ff" stroke="#63b8ff" points="1400.46,-24.7 1389.86,-24.57 1398.07,-31.28 1400.46,-24.7"/>
</a>
</g>
</g>
<!-- Node15 -->
<g id="Node000015" class="node">
<title>Node15</title>
<g id="a_Node000015"><a xlink:title=" ">
<polygon fill="#e0e0e0" stroke="#999999" points="1565,-90.5 1512,-90.5 1512,-71.5 1565,-71.5 1565,-90.5"/>
<text text-anchor="middle" x="1538.5" y="-78.5" font-family="Helvetica,sans-Serif" font-size="10.00">iterator</text>
</a>
</g>
</g>
<!-- Node14&#45;&gt;Node15 -->
<g id="edge17_Node000014_Node000015" class="edge">
<title>Node14&#45;&gt;Node15</title>
<g id="a_edge17_Node000014_Node000015"><a xlink:title=" ">
<path fill="none" stroke="#63b8ff" d="M1601.49,-252.71C1617.95,-230.87 1655.97,-172.94 1631.5,-132 1619.3,-111.58 1595.57,-99.02 1575.14,-91.59"/>
<polygon fill="#63b8ff" stroke="#63b8ff" points="1576.03,-88.2 1565.43,-88.34 1573.81,-94.84 1576.03,-88.2"/>
</a>
</g>
</g>
<!-- Node16 -->
<g id="Node000016" class="node">
<title>Node16</title>
<g id="a_Node000016"><a xlink:title=" ">
<polygon fill="#e0e0e0" stroke="#999999" points="1622.5,-156.5 1566.5,-156.5 1566.5,-137.5 1622.5,-137.5 1622.5,-156.5"/>
<text text-anchor="middle" x="1594.5" y="-144.5" font-family="Helvetica,sans-Serif" font-size="10.00">numeric</text>
</a>
</g>
</g>
<!-- Node14&#45;&gt;Node16 -->
<g id="edge18_Node000014_Node000016" class="edge">
<title>Node14&#45;&gt;Node16</title>
<g id="a_edge18_Node000014_Node000016"><a xlink:title=" ">
<path fill="none" stroke="#63b8ff" d="M1594.5,-252.97C1594.5,-234.73 1594.5,-191.57 1594.5,-166.64"/>
<polygon fill="#63b8ff" stroke="#63b8ff" points="1598,-166.63 1594.5,-156.63 1591,-166.63 1598,-166.63"/>
</a>
</g>
</g>
<!-- Node14&#45;&gt;Node17 -->
<g id="edge19_Node000014_Node000017" class="edge">
<title>Node14&#45;&gt;Node17</title>
<g id="a_edge19_Node000014_Node000017"><a xlink:title=" ">
<path fill="none" stroke="#63b8ff" d="M1639.14,-254.36C1661.79,-248.33 1687.6,-237.25 1702.5,-217 1727.87,-182.52 1723.24,-128.86 1718.44,-100.7"/>
<polygon fill="#63b8ff" stroke="#63b8ff" points="1721.83,-99.8 1716.52,-90.63 1714.95,-101.11 1721.83,-99.8"/>
</a>
</g>
</g>
<!-- Node18 -->
<g id="Node000018" class="node">
<title>Node18</title>
<g id="a_Node000018"><a xlink:href="Vector_8hpp.html" target="_top" xlink:title="Vector implementation and trait types for boost qvm interoperability.">
<polygon fill="white" stroke="#666666" points="1209.5,-217 1141.5,-217 1141.5,-198 1209.5,-198 1209.5,-217"/>
<text text-anchor="middle" x="1175.5" y="-205" font-family="Helvetica,sans-Serif" font-size="10.00">Vector.hpp</text>
</a>
</g>
</g>
<!-- Node14&#45;&gt;Node18 -->
<g id="edge20_Node000014_Node000018" class="edge">
<title>Node14&#45;&gt;Node18</title>
<g id="a_edge20_Node000014_Node000018"><a xlink:title=" ">
<path fill="none" stroke="#63b8ff" d="M1549.66,-255.83C1468.94,-245.62 1300.13,-224.27 1219.81,-214.1"/>
<polygon fill="#63b8ff" stroke="#63b8ff" points="1219.9,-210.59 1209.54,-212.81 1219.02,-217.53 1219.9,-210.59"/>
</a>
</g>
</g>
<!-- Node18&#45;&gt;Node8 -->
<g id="edge46_Node000018_Node000008" class="edge">
<title>Node18&#45;&gt;Node8</title>
<g id="a_edge46_Node000018_Node000008"><a xlink:title=" ">
<path fill="none" stroke="#63b8ff" d="M1141.25,-206.44C1060.43,-205.67 860.63,-199.87 807.5,-162 764.37,-131.26 746.3,-66.98 739.74,-34.96"/>
<polygon fill="#63b8ff" stroke="#63b8ff" points="743.11,-33.93 737.82,-24.75 736.23,-35.22 743.11,-33.93"/>
</a>
</g>
</g>
<!-- Node18&#45;&gt;Node9 -->
<g id="edge48_Node000018_Node000009" class="edge">
<title>Node18&#45;&gt;Node9</title>
<g id="a_edge48_Node000018_Node000009"><a xlink:title=" ">
<path fill="none" stroke="#63b8ff" d="M1184.34,-197.82C1214.51,-168.19 1313.74,-70.75 1353.15,-32.05"/>
<polygon fill="#63b8ff" stroke="#63b8ff" points="1355.93,-34.24 1360.61,-24.73 1351.02,-29.24 1355.93,-34.24"/>
</a>
</g>
</g>
<!-- Node18&#45;&gt;Node12 -->
<g id="edge45_Node000018_Node000012" class="edge">
<title>Node18&#45;&gt;Node12</title>
<g id="a_edge45_Node000018_Node000012"><a xlink:title=" ">
<path fill="none" stroke="#63b8ff" d="M1141.04,-206C1000.95,-203.78 473.85,-193.45 310.5,-162 307.25,-161.37 303.91,-160.55 300.6,-159.61"/>
<polygon fill="#63b8ff" stroke="#63b8ff" points="301.49,-156.23 290.9,-156.56 299.38,-162.9 301.49,-156.23"/>
</a>
</g>
</g>
<!-- Node18&#45;&gt;Node13 -->
<g id="edge55_Node000018_Node000013" class="edge">
<title>Node18&#45;&gt;Node13</title>
<g id="a_edge55_Node000018_Node000013"><a xlink:title=" ">
<path fill="none" stroke="#63b8ff" d="M1141.3,-204.46C1063.35,-199.55 866.61,-185.71 703.5,-162 691.19,-160.21 677.78,-157.71 665.97,-155.32"/>
<polygon fill="#63b8ff" stroke="#63b8ff" points="666.57,-151.87 656.06,-153.27 665.15,-158.72 666.57,-151.87"/>
</a>
</g>
</g>
<!-- Node18&#45;&gt;Node15 -->
<g id="edge51_Node000018_Node000015" class="edge">
<title>Node18&#45;&gt;Node15</title>
<g id="a_edge51_Node000018_Node000015"><a xlink:title=" ">
<path fill="none" stroke="#63b8ff" d="M1209.5,-206.83C1287.18,-206.86 1474.42,-202.6 1519.5,-162 1536.54,-146.65 1539.68,-119.06 1539.65,-100.64"/>
<polygon fill="#63b8ff" stroke="#63b8ff" points="1543.14,-100.42 1539.32,-90.54 1536.15,-100.65 1543.14,-100.42"/>
</a>
</g>
</g>
<!-- Node18&#45;&gt;Node16 -->
<g id="edge52_Node000018_Node000016" class="edge">
<title>Node18&#45;&gt;Node16</title>
<g id="a_edge52_Node000018_Node000016"><a xlink:title=" ">
<path fill="none" stroke="#63b8ff" d="M1209.68,-204.81C1276.34,-200.99 1428.04,-189.78 1552.5,-162 1555.55,-161.32 1558.7,-160.5 1561.82,-159.61"/>
<polygon fill="#63b8ff" stroke="#63b8ff" points="1563.12,-162.87 1571.63,-156.56 1561.04,-156.18 1563.12,-162.87"/>
</a>
</g>
</g>
<!-- Node19 -->
<g id="Node000019" class="node">
<title>Node19</title>
<g id="a_Node000019"><a xlink:title=" ">
<polygon fill="#e0e0e0" stroke="#999999" points="966.5,-156.5 816.5,-156.5 816.5,-137.5 966.5,-137.5 966.5,-156.5"/>
<text text-anchor="middle" x="891.5" y="-144.5" font-family="Helvetica,sans-Serif" font-size="10.00">boost/qvm/deduce_vec.hpp</text>
</a>
</g>
</g>
<!-- Node18&#45;&gt;Node19 -->
<g id="edge21_Node000018_Node000019" class="edge">
<title>Node18&#45;&gt;Node19</title>
<g id="a_edge21_Node000018_Node000019"><a xlink:title=" ">
<path fill="none" stroke="#63b8ff" d="M1141.24,-199.44C1091.84,-189.27 1000.21,-170.39 942.74,-158.55"/>
<polygon fill="#63b8ff" stroke="#63b8ff" points="943.27,-155.09 932.77,-156.5 941.86,-161.95 943.27,-155.09"/>
</a>
</g>
</g>
<!-- Node20 -->
<g id="Node000020" class="node">
<title>Node20</title>
<g id="a_Node000020"><a xlink:title=" ">
<polygon fill="#e0e0e0" stroke="#999999" points="1124.5,-156.5 984.5,-156.5 984.5,-137.5 1124.5,-137.5 1124.5,-156.5"/>
<text text-anchor="middle" x="1054.5" y="-144.5" font-family="Helvetica,sans-Serif" font-size="10.00">boost/qvm/vec_traits.hpp</text>
</a>
</g>
</g>
<!-- Node18&#45;&gt;Node20 -->
<g id="edge22_Node000018_Node000020" class="edge">
<title>Node18&#45;&gt;Node20</title>
<g id="a_edge22_Node000018_Node000020"><a xlink:title=" ">
<path fill="none" stroke="#63b8ff" d="M1157.91,-197.99C1137.74,-188.25 1104.48,-172.16 1081.14,-160.88"/>
<polygon fill="#63b8ff" stroke="#63b8ff" points="1082.64,-157.72 1072.12,-156.52 1079.6,-164.02 1082.64,-157.72"/>
</a>
</g>
</g>
<!-- Node21 -->
<g id="Node000021" class="node">
<title>Node21</title>
<g id="a_Node000021"><a xlink:href="Array_8hpp.html" target="_top" xlink:title="Array implementation with CUDA support.">
<polygon fill="white" stroke="#666666" points="1510.5,-156.5 1424.5,-156.5 1424.5,-137.5 1510.5,-137.5 1510.5,-156.5"/>
<text text-anchor="middle" x="1467.5" y="-144.5" font-family="Helvetica,sans-Serif" font-size="10.00">utils/Array.hpp</text>
</a>
</g>
</g>
<!-- Node18&#45;&gt;Node21 -->
<g id="edge23_Node000018_Node000021" class="edge">
<title>Node18&#45;&gt;Node21</title>
<g id="a_edge23_Node000018_Node000021"><a xlink:title=" ">
<path fill="none" stroke="#63b8ff" d="M1209.86,-201.01C1256.6,-193.35 1342.77,-178.51 1415.5,-162 1419.39,-161.12 1423.43,-160.14 1427.45,-159.12"/>
<polygon fill="#63b8ff" stroke="#63b8ff" points="1428.56,-162.45 1437.35,-156.55 1426.8,-155.68 1428.56,-162.45"/>
</a>
</g>
</g>
<!-- Node18&#45;&gt;Node35 -->
<g id="edge47_Node000018_Node000035" class="edge">
<title>Node18&#45;&gt;Node35</title>
<g id="a_edge47_Node000018_Node000035"><a xlink:title=" ">
<path fill="none" stroke="#63b8ff" d="M1141.5,-205.5C1071.77,-202.84 907.95,-193.49 774.5,-162 771.99,-161.41 769.41,-160.69 766.84,-159.91"/>
<polygon fill="#63b8ff" stroke="#63b8ff" points="767.72,-156.51 757.13,-156.63 765.48,-163.15 767.72,-156.51"/>
</a>
</g>
</g>
<!-- Node36 -->
<g id="Node000036" class="node">
<title>Node36</title>
<g id="a_Node000036"><a xlink:title=" ">
<polygon fill="#e0e0e0" stroke="#999999" points="1208,-156.5 1143,-156.5 1143,-137.5 1208,-137.5 1208,-156.5"/>
<text text-anchor="middle" x="1175.5" y="-144.5" font-family="Helvetica,sans-Serif" font-size="10.00">functional</text>
</a>
</g>
</g>
<!-- Node18&#45;&gt;Node36 -->
<g id="edge49_Node000018_Node000036" class="edge">
<title>Node18&#45;&gt;Node36</title>
<g id="a_edge49_Node000018_Node000036"><a xlink:title=" ">
<path fill="none" stroke="#63b8ff" d="M1175.5,-197.87C1175.5,-189.75 1175.5,-177.31 1175.5,-166.89"/>
<polygon fill="#63b8ff" stroke="#63b8ff" points="1179,-166.67 1175.5,-156.67 1172,-166.67 1179,-166.67"/>
</a>
</g>
</g>
<!-- Node37 -->
<g id="Node000037" class="node">
<title>Node37</title>
<g id="a_Node000037"><a xlink:title=" ">
<polygon fill="#e0e0e0" stroke="#999999" points="1348,-156.5 1265,-156.5 1265,-137.5 1348,-137.5 1348,-156.5"/>
<text text-anchor="middle" x="1306.5" y="-144.5" font-family="Helvetica,sans-Serif" font-size="10.00">initializer_list</text>
</a>
</g>
</g>
<!-- Node18&#45;&gt;Node37 -->
<g id="edge50_Node000018_Node000037" class="edge">
<title>Node18&#45;&gt;Node37</title>
<g id="a_edge50_Node000018_Node000037"><a xlink:title=" ">
<path fill="none" stroke="#63b8ff" d="M1194.55,-197.99C1216.47,-188.2 1252.71,-172.02 1278,-160.73"/>
<polygon fill="#63b8ff" stroke="#63b8ff" points="1279.72,-163.79 1287.43,-156.52 1276.87,-157.4 1279.72,-163.79"/>
</a>
</g>
</g>
<!-- Node38 -->
<g id="Node000038" class="node">
<title>Node38</title>
<g id="a_Node000038"><a xlink:title=" ">
<polygon fill="#e0e0e0" stroke="#999999" points="1406.5,-156.5 1366.5,-156.5 1366.5,-137.5 1406.5,-137.5 1406.5,-156.5"/>
<text text-anchor="middle" x="1386.5" y="-144.5" font-family="Helvetica,sans-Serif" font-size="10.00">span</text>
</a>
</g>
</g>
<!-- Node18&#45;&gt;Node38 -->
<g id="edge53_Node000018_Node000038" class="edge">
<title>Node18&#45;&gt;Node38</title>
<g id="a_edge53_Node000018_Node000038"><a xlink:title=" ">
<path fill="none" stroke="#63b8ff" d="M1209.67,-200.38C1246.72,-193.22 1307.29,-180.03 1357.5,-162 1358.55,-161.62 1359.62,-161.22 1360.69,-160.79"/>
<polygon fill="#63b8ff" stroke="#63b8ff" points="1362.45,-163.84 1370.19,-156.61 1359.63,-157.43 1362.45,-163.84"/>
</a>
</g>
</g>
<!-- Node39 -->
<g id="Node000039" class="node">
<title>Node39</title>
<g id="a_Node000039"><a xlink:title=" ">
<polygon fill="#e0e0e0" stroke="#999999" points="591,-156.5 522,-156.5 522,-137.5 591,-137.5 591,-156.5"/>
<text text-anchor="middle" x="556.5" y="-144.5" font-family="Helvetica,sans-Serif" font-size="10.00">type_traits</text>
</a>
</g>
</g>
<!-- Node18&#45;&gt;Node39 -->
<g id="edge54_Node000018_Node000039" class="edge">
<title>Node18&#45;&gt;Node39</title>
<g id="a_edge54_Node000018_Node000039"><a xlink:title=" ">
<path fill="none" stroke="#63b8ff" d="M1141.36,-206.67C1051.64,-206.53 802.16,-202.22 599.5,-162 596.09,-161.32 592.56,-160.46 589.07,-159.5"/>
<polygon fill="#63b8ff" stroke="#63b8ff" points="590.03,-156.13 579.44,-156.58 588,-162.83 590.03,-156.13"/>
</a>
</g>
</g>
<!-- Node21&#45;&gt;Node8 -->
<g id="edge40_Node000021_Node000008" class="edge">
<title>Node21&#45;&gt;Node8</title>
<g id="a_edge40_Node000021_Node000008"><a xlink:title=" ">
<path fill="none" stroke="#63b8ff" d="M1436.48,-137.44C1429.59,-135.59 1422.3,-133.69 1415.5,-132 1287.64,-100.2 1256.22,-89.07 1126.5,-66 997.32,-43.02 842.26,-26.36 773.01,-19.49"/>
<polygon fill="#63b8ff" stroke="#63b8ff" points="772.94,-15.96 762.65,-18.47 772.26,-22.93 772.94,-15.96"/>
</a>
</g>
</g>
<!-- Node21&#45;&gt;Node9 -->
<g id="edge41_Node000021_Node000009" class="edge">
<title>Node21&#45;&gt;Node9</title>
<g id="a_edge41_Node000021_Node000009"><a xlink:title=" ">
<path fill="none" stroke="#63b8ff" d="M1440.3,-137.41C1410.9,-127.52 1366.98,-110.73 1357.5,-96 1345.54,-77.42 1352.81,-51.46 1360.2,-34.21"/>
<polygon fill="#63b8ff" stroke="#63b8ff" points="1363.56,-35.28 1364.64,-24.74 1357.22,-32.31 1363.56,-35.28"/>
</a>
</g>
</g>
<!-- Node21&#45;&gt;Node10 -->
<g id="edge39_Node000021_Node000010" class="edge">
<title>Node21&#45;&gt;Node10</title>
<g id="a_edge39_Node000021_Node000010"><a xlink:title=" ">
<path fill="none" stroke="#63b8ff" d="M1438.22,-137.45C1430.85,-135.48 1422.92,-133.52 1415.5,-132 1401.56,-129.14 1224.93,-104.44 1127.32,-90.86"/>
<polygon fill="#63b8ff" stroke="#63b8ff" points="1127.65,-87.37 1117.26,-89.46 1126.69,-94.31 1127.65,-87.37"/>
</a>
</g>
</g>
<!-- Node21&#45;&gt;Node15 -->
<g id="edge42_Node000021_Node000015" class="edge">
<title>Node21&#45;&gt;Node15</title>
<g id="a_edge42_Node000021_Node000015"><a xlink:title=" ">
<path fill="none" stroke="#63b8ff" d="M1477.08,-137.37C1488.34,-127.21 1507.26,-110.16 1521.13,-97.65"/>
<polygon fill="#63b8ff" stroke="#63b8ff" points="1523.54,-100.2 1528.62,-90.91 1518.85,-95 1523.54,-100.2"/>
</a>
</g>
</g>
<!-- Node21&#45;&gt;Node17 -->
<g id="edge44_Node000021_Node000017" class="edge">
<title>Node21&#45;&gt;Node17</title>
<g id="a_edge44_Node000021_Node000017"><a xlink:title=" ">
<path fill="none" stroke="#63b8ff" d="M1500.56,-137.44C1544.74,-125.99 1623.1,-105.68 1671.74,-93.08"/>
<polygon fill="#63b8ff" stroke="#63b8ff" points="1672.84,-96.41 1681.64,-90.51 1671.08,-89.63 1672.84,-96.41"/>
</a>
</g>
</g>
<!-- Node22 -->
<g id="Node000022" class="node">
<title>Node22</title>
<g id="a_Node000022"><a xlink:href="device__qualifier_8hpp.html" target="_top" xlink:title=" ">
<polygon fill="white" stroke="#666666" points="656.5,-90.5 542.5,-90.5 542.5,-71.5 656.5,-71.5 656.5,-90.5"/>
<text text-anchor="middle" x="599.5" y="-78.5" font-family="Helvetica,sans-Serif" font-size="10.00">device_qualifier.hpp</text>
</a>
</g>
</g>
<!-- Node21&#45;&gt;Node22 -->
<g id="edge24_Node000021_Node000022" class="edge">
<title>Node21&#45;&gt;Node22</title>
<g id="a_edge24_Node000021_Node000022"><a xlink:title=" ">
<path fill="none" stroke="#63b8ff" d="M1439.93,-137.46C1432.11,-135.34 1423.53,-133.3 1415.5,-132 1148.31,-88.59 1077.66,-113.09 807.5,-96 760.55,-93.03 707.65,-89.47 666.95,-86.68"/>
<polygon fill="#63b8ff" stroke="#63b8ff" points="667.09,-83.18 656.88,-85.99 666.61,-90.16 667.09,-83.18"/>
</a>
</g>
</g>
<!-- Node23 -->
<g id="Node000023" class="node">
<title>Node23</title>
<g id="a_Node000023"><a xlink:href="get_8hpp.html" target="_top" xlink:title=" ">
<polygon fill="white" stroke="#666666" points="1494,-90.5 1441,-90.5 1441,-71.5 1494,-71.5 1494,-90.5"/>
<text text-anchor="middle" x="1467.5" y="-78.5" font-family="Helvetica,sans-Serif" font-size="10.00">get.hpp</text>
</a>
</g>
</g>
<!-- Node21&#45;&gt;Node23 -->
<g id="edge26_Node000021_Node000023" class="edge">
<title>Node21&#45;&gt;Node23</title>
<g id="a_edge26_Node000021_Node000023"><a xlink:title=" ">
<path fill="none" stroke="#63b8ff" d="M1467.5,-137.37C1467.5,-128.16 1467.5,-113.29 1467.5,-101.27"/>
<polygon fill="#63b8ff" stroke="#63b8ff" points="1471,-100.91 1467.5,-90.91 1464,-100.91 1471,-100.91"/>
</a>
</g>
</g>
<!-- Node25 -->
<g id="Node000025" class="node">
<title>Node25</title>
<g id="a_Node000025"><a xlink:href="array_8hpp.html" target="_top" xlink:title=" ">
<polygon fill="white" stroke="#666666" points="1967,-90.5 1842,-90.5 1842,-71.5 1967,-71.5 1967,-90.5"/>
<text text-anchor="middle" x="1904.5" y="-78.5" font-family="Helvetica,sans-Serif" font-size="10.00">serialization/array.hpp</text>
</a>
</g>
</g>
<!-- Node21&#45;&gt;Node25 -->
<g id="edge29_Node000021_Node000025" class="edge">
<title>Node21&#45;&gt;Node25</title>
<g id="a_edge29_Node000021_Node000025"><a xlink:title=" ">
<path fill="none" stroke="#63b8ff" d="M1510.52,-139.21C1525.39,-136.89 1542.17,-134.3 1557.5,-132 1653.17,-117.67 1763.79,-101.86 1833.93,-91.93"/>
<polygon fill="#63b8ff" stroke="#63b8ff" points="1834.57,-95.38 1843.98,-90.51 1833.59,-88.45 1834.57,-95.38"/>
</a>
</g>
</g>
<!-- Node34 -->
<g id="Node000034" class="node">
<title>Node34</title>
<g id="a_Node000034"><a xlink:title=" ">
<polygon fill="#e0e0e0" stroke="#999999" points="1423,-90.5 1366,-90.5 1366,-71.5 1423,-71.5 1423,-90.5"/>
<text text-anchor="middle" x="1394.5" y="-78.5" font-family="Helvetica,sans-Serif" font-size="10.00">ostream</text>
</a>
</g>
</g>
<!-- Node21&#45;&gt;Node34 -->
<g id="edge43_Node000021_Node000034" class="edge">
<title>Node21&#45;&gt;Node34</title>
<g id="a_edge43_Node000021_Node000034"><a xlink:title=" ">
<path fill="none" stroke="#63b8ff" d="M1457.65,-137.37C1446.07,-127.21 1426.62,-110.16 1412.36,-97.65"/>
<polygon fill="#63b8ff" stroke="#63b8ff" points="1414.48,-94.87 1404.66,-90.91 1409.87,-100.13 1414.48,-94.87"/>
</a>
</g>
</g>
<!-- Node22&#45;&gt;Node8 -->
<g id="edge25_Node000022_Node000008" class="edge">
<title>Node22&#45;&gt;Node8</title>
<g id="a_edge25_Node000022_Node000008"><a xlink:title=" ">
<path fill="none" stroke="#63b8ff" d="M617.98,-71.37C641.26,-60.49 681.51,-41.69 708.56,-29.05"/>
<polygon fill="#63b8ff" stroke="#63b8ff" points="710.3,-32.1 717.88,-24.7 707.34,-25.76 710.3,-32.1"/>
</a>
</g>
</g>
<!-- Node23&#45;&gt;Node9 -->
<g id="edge27_Node000023_Node000009" class="edge">
<title>Node23&#45;&gt;Node9</title>
<g id="a_edge27_Node000023_Node000009"><a xlink:title=" ">
<path fill="none" stroke="#63b8ff" d="M1454.28,-71.37C1438.14,-60.82 1410.59,-42.84 1391.29,-30.23"/>
<polygon fill="#63b8ff" stroke="#63b8ff" points="1393.11,-27.24 1382.82,-24.7 1389.28,-33.1 1393.11,-27.24"/>
</a>
</g>
</g>
<!-- Node24 -->
<g id="Node000024" class="node">
<title>Node24</title>
<g id="a_Node000024"><a xlink:title=" ">
<polygon fill="#e0e0e0" stroke="#999999" points="1455,-24.5 1414,-24.5 1414,-5.5 1455,-5.5 1455,-24.5"/>
<text text-anchor="middle" x="1434.5" y="-12.5" font-family="Helvetica,sans-Serif" font-size="10.00">tuple</text>
</a>
</g>
</g>
<!-- Node23&#45;&gt;Node24 -->
<g id="edge28_Node000023_Node000024" class="edge">
<title>Node23&#45;&gt;Node24</title>
<g id="a_edge28_Node000023_Node000024"><a xlink:title=" ">
<path fill="none" stroke="#63b8ff" d="M1463.05,-71.37C1458.11,-61.78 1449.99,-46.05 1443.68,-33.8"/>
<polygon fill="#63b8ff" stroke="#63b8ff" points="1446.79,-32.19 1439.09,-24.91 1440.56,-35.4 1446.79,-32.19"/>
</a>
</g>
</g>
<!-- Node25&#45;&gt;Node9 -->
<g id="edge38_Node000025_Node000009" class="edge">
<title>Node25&#45;&gt;Node9</title>
<g id="a_edge38_Node000025_Node000009"><a xlink:title=" ">
<path fill="none" stroke="#63b8ff" d="M1841.87,-72.06C1824.89,-69.99 1806.5,-67.83 1789.5,-66 1619.07,-47.64 1572.32,-69.44 1405.5,-30 1403.13,-29.44 1400.71,-28.76 1398.3,-28"/>
<polygon fill="#63b8ff" stroke="#63b8ff" points="1399.21,-24.61 1388.62,-24.57 1396.87,-31.21 1399.21,-24.61"/>
</a>
</g>
</g>
<!-- Node26 -->
<g id="Node000026" class="node">
<title>Node26</title>
<g id="a_Node000026"><a xlink:title=" ">
<polygon fill="#e0e0e0" stroke="#999999" points="1862,-24.5 1729,-24.5 1729,-5.5 1862,-5.5 1862,-24.5"/>
<text text-anchor="middle" x="1795.5" y="-12.5" font-family="Helvetica,sans-Serif" font-size="10.00">boost/mpl/bool_fwd.hpp</text>
</a>
</g>
</g>
<!-- Node25&#45;&gt;Node26 -->
<g id="edge30_Node000025_Node000026" class="edge">
<title>Node25&#45;&gt;Node26</title>
<g id="a_edge30_Node000025_Node000026"><a xlink:title=" ">
<path fill="none" stroke="#63b8ff" d="M1889.8,-71.37C1871.68,-60.73 1840.65,-42.51 1819.16,-29.89"/>
<polygon fill="#63b8ff" stroke="#63b8ff" points="1820.71,-26.74 1810.32,-24.7 1817.17,-32.78 1820.71,-26.74"/>
</a>
</g>
</g>
<!-- Node27 -->
<g id="Node000027" class="node">
<title>Node27</title>
<g id="a_Node000027"><a xlink:title=" ">
<polygon fill="#e0e0e0" stroke="#999999" points="2004.5,-24.5 1880.5,-24.5 1880.5,-5.5 2004.5,-5.5 2004.5,-24.5"/>
<text text-anchor="middle" x="1942.5" y="-12.5" font-family="Helvetica,sans-Serif" font-size="10.00">boost/mpl/greater.hpp</text>
</a>
</g>
</g>
<!-- Node25&#45;&gt;Node27 -->
<g id="edge31_Node000025_Node000027" class="edge">
<title>Node25&#45;&gt;Node27</title>
<g id="a_edge31_Node000025_Node000027"><a xlink:title=" ">
<path fill="none" stroke="#63b8ff" d="M1909.62,-71.37C1915.32,-61.78 1924.66,-46.05 1931.93,-33.8"/>
<polygon fill="#63b8ff" stroke="#63b8ff" points="1935.12,-35.29 1937.21,-24.91 1929.1,-31.72 1935.12,-35.29"/>
</a>
</g>
</g>
<!-- Node28 -->
<g id="Node000028" class="node">
<title>Node28</title>
<g id="a_Node000028"><a xlink:title=" ">
<polygon fill="#e0e0e0" stroke="#999999" points="2124.5,-24.5 2022.5,-24.5 2022.5,-5.5 2124.5,-5.5 2124.5,-24.5"/>
<text text-anchor="middle" x="2073.5" y="-12.5" font-family="Helvetica,sans-Serif" font-size="10.00">boost/mpl/int.hpp</text>
</a>
</g>
</g>
<!-- Node25&#45;&gt;Node28 -->
<g id="edge32_Node000025_Node000028" class="edge">
<title>Node25&#45;&gt;Node28</title>
<g id="a_edge32_Node000025_Node000028"><a xlink:title=" ">
<path fill="none" stroke="#63b8ff" d="M1927.29,-71.37C1956.6,-60.27 2007.7,-40.92 2041.06,-28.28"/>
<polygon fill="#63b8ff" stroke="#63b8ff" points="2042.69,-31.41 2050.8,-24.6 2040.21,-24.86 2042.69,-31.41"/>
</a>
</g>
</g>
<!-- Node29 -->
<g id="Node000029" class="node">
<title>Node29</title>
<g id="a_Node000029"><a xlink:title=" ">
<polygon fill="#e0e0e0" stroke="#999999" points="2248.5,-30 2142.5,-30 2142.5,0 2248.5,0 2248.5,-30"/>
<text text-anchor="start" x="2150.5" y="-18" font-family="Helvetica,sans-Serif" font-size="10.00">boost/mpl/integral</text>
<text text-anchor="middle" x="2195.5" y="-7" font-family="Helvetica,sans-Serif" font-size="10.00">_c_tag.hpp</text>
</a>
</g>
</g>
<!-- Node25&#45;&gt;Node29 -->
<g id="edge33_Node000025_Node000029" class="edge">
<title>Node25&#45;&gt;Node29</title>
<g id="a_edge33_Node000025_Node000029"><a xlink:title=" ">
<path fill="none" stroke="#63b8ff" d="M1944.23,-71.41C1987.87,-61.97 2060.28,-46.23 2132.26,-30.27"/>
<polygon fill="#63b8ff" stroke="#63b8ff" points="2133.4,-33.6 2142.41,-28.02 2131.88,-26.77 2133.4,-33.6"/>
</a>
</g>
</g>
<!-- Node30 -->
<g id="Node000030" class="node">
<title>Node30</title>
<g id="a_Node000030"><a xlink:title=" ">
<polygon fill="#e0e0e0" stroke="#999999" points="2418,-30 2267,-30 2267,0 2418,0 2418,-30"/>
<text text-anchor="start" x="2275" y="-18" font-family="Helvetica,sans-Serif" font-size="10.00">boost/serialization</text>
<text text-anchor="middle" x="2342.5" y="-7" font-family="Helvetica,sans-Serif" font-size="10.00">/is_bitwise_serializable.hpp</text>
</a>
</g>
</g>
<!-- Node25&#45;&gt;Node30 -->
<g id="edge34_Node000025_Node000030" class="edge">
<title>Node25&#45;&gt;Node30</title>
<g id="a_edge34_Node000025_Node000030"><a xlink:title=" ">
<path fill="none" stroke="#63b8ff" d="M1967.05,-71.57C2035.52,-62.25 2148.82,-46.54 2256.87,-30.08"/>
<polygon fill="#63b8ff" stroke="#63b8ff" points="2257.61,-33.5 2266.97,-28.53 2256.56,-26.58 2257.61,-33.5"/>
</a>
</g>
</g>
<!-- Node31 -->
<g id="Node000031" class="node">
<title>Node31</title>
<g id="a_Node000031"><a xlink:title=" ">
<polygon fill="#e0e0e0" stroke="#999999" points="2543,-30 2436,-30 2436,0 2543,0 2543,-30"/>
<text text-anchor="start" x="2444" y="-18" font-family="Helvetica,sans-Serif" font-size="10.00">boost/serialization</text>
<text text-anchor="middle" x="2489.5" y="-7" font-family="Helvetica,sans-Serif" font-size="10.00">/level.hpp</text>
</a>
</g>
</g>
<!-- Node25&#45;&gt;Node31 -->
<g id="edge35_Node000025_Node000031" class="edge">
<title>Node25&#45;&gt;Node31</title>
<g id="a_edge35_Node000025_Node000031"><a xlink:title=" ">
<path fill="none" stroke="#63b8ff" d="M1967.22,-76.58C2063.83,-70.75 2255,-56.95 2425.88,-30.14"/>
<polygon fill="#63b8ff" stroke="#63b8ff" points="2426.48,-33.59 2435.81,-28.56 2425.39,-26.67 2426.48,-33.59"/>
</a>
</g>
</g>
<!-- Node32 -->
<g id="Node000032" class="node">
<title>Node32</title>
<g id="a_Node000032"><a xlink:title=" ">
<polygon fill="#e0e0e0" stroke="#999999" points="1580,-30 1473,-30 1473,0 1580,0 1580,-30"/>
<text text-anchor="start" x="1481" y="-18" font-family="Helvetica,sans-Serif" font-size="10.00">boost/serialization</text>
<text text-anchor="middle" x="1526.5" y="-7" font-family="Helvetica,sans-Serif" font-size="10.00">/tracking.hpp</text>
</a>
</g>
</g>
<!-- Node25&#45;&gt;Node32 -->
<g id="edge36_Node000025_Node000032" class="edge">
<title>Node25&#45;&gt;Node32</title>
<g id="a_edge36_Node000025_Node000032"><a xlink:title=" ">
<path fill="none" stroke="#63b8ff" d="M1843.63,-71.47C1782.21,-62.6 1684.45,-47.8 1590.08,-30.04"/>
<polygon fill="#63b8ff" stroke="#63b8ff" points="1590.55,-26.56 1580.07,-28.14 1589.24,-33.44 1590.55,-26.56"/>
</a>
</g>
</g>
<!-- Node33 -->
<g id="Node000033" class="node">
<title>Node33</title>
<g id="a_Node000033"><a xlink:title=" ">
<polygon fill="#e0e0e0" stroke="#999999" points="1711,-30 1598,-30 1598,0 1711,0 1711,-30"/>
<text text-anchor="start" x="1606" y="-18" font-family="Helvetica,sans-Serif" font-size="10.00">boost/serialization</text>
<text text-anchor="middle" x="1654.5" y="-7" font-family="Helvetica,sans-Serif" font-size="10.00">/tracking_enum.hpp</text>
</a>
</g>
</g>
<!-- Node25&#45;&gt;Node33 -->
<g id="edge37_Node000025_Node000033" class="edge">
<title>Node25&#45;&gt;Node33</title>
<g id="a_edge37_Node000025_Node000033"><a xlink:title=" ">
<path fill="none" stroke="#63b8ff" d="M1871.04,-71.44C1832.33,-61.52 1767.69,-44.98 1719.09,-32.53"/>
<polygon fill="#63b8ff" stroke="#63b8ff" points="1719.84,-29.11 1709.28,-30.02 1718.1,-35.9 1719.84,-29.11"/>
</a>
</g>
</g>
<!-- Node40&#45;&gt;Node22 -->
<g id="edge57_Node000040_Node000022" class="edge">
<title>Node40&#45;&gt;Node22</title>
<g id="a_edge57_Node000040_Node000022"><a xlink:title=" ">
<path fill="none" stroke="#63b8ff" d="M311.77,-197.94C264.96,-186.71 200.07,-164.52 228.5,-132 248.14,-109.53 430.61,-93.56 532.13,-86.34"/>
<polygon fill="#63b8ff" stroke="#63b8ff" points="532.56,-89.81 542.29,-85.62 532.07,-82.83 532.56,-89.81"/>
</a>
</g>
</g>
<!-- Node40&#45;&gt;Node39 -->
<g id="edge58_Node000040_Node000039" class="edge">
<title>Node40&#45;&gt;Node39</title>
<g id="a_edge58_Node000040_Node000039"><a xlink:title=" ">
<path fill="none" stroke="#63b8ff" d="M383.87,-197.99C419.1,-187.79 478.29,-170.65 517.37,-159.33"/>
<polygon fill="#63b8ff" stroke="#63b8ff" points="518.46,-162.66 527.09,-156.52 516.51,-155.94 518.46,-162.66"/>
</a>
</g>
</g>
</g>
</svg>
