<?xml version="1.0" encoding="UTF-8" standalone="no"?>
<!DOCTYPE svg PUBLIC "-//W3C//DTD SVG 1.1//EN"
 "http://www.w3.org/Graphics/SVG/1.1/DTD/svg11.dtd">
<!-- Generated by graphviz version 2.43.0 (0)
 -->
<!-- Title: ibm_tribend.hpp Pages: 1 -->
<!--zoomable 442 -->
<svg id="main" version="1.1" xmlns="http://www.w3.org/2000/svg" xmlns:xlink="http://www.w3.org/1999/xlink" xml:space="preserve" onload="init(evt)">
<style type="text/css"><![CDATA[
.edge:hover path { stroke: red; }
.edge:hover polygon { stroke: red; fill: red; }
]]></style>
<script type="text/javascript"><![CDATA[
var edges = document.getElementsByTagName('g');
if (edges && edges.length) {
  for (var i=0;i<edges.length;i++) {
    if (edges[i].id.substr(0,4)=='edge') {
      edges[i].setAttribute('class','edge');
    }
  }
}
]]></script>
        <defs>
                <circle id="rim" cx="0" cy="0" r="7"/>
                <circle id="rim2" cx="0" cy="0" r="3.5"/>
                <g id="zoomPlus">
                        <use xlink:href="#rim" fill="#404040">
                                <set attributeName="fill" to="#808080" begin="zoomplus.mouseover" end="zoomplus.mouseout"/>
                        </use>
                        <path d="M-4,0h8M0,-4v8" fill="none" stroke="white" stroke-width="1.5" pointer-events="none"/>
                </g>
                <g id="zoomMin">
                        <use xlink:href="#rim" fill="#404040">
                                <set attributeName="fill" to="#808080" begin="zoomminus.mouseover" end="zoomminus.mouseout"/>
                        </use>
                        <path d="M-4,0h8" fill="none" stroke="white" stroke-width="1.5" pointer-events="none"/>
                </g>
                <g id="dirArrow">
                        <path fill="none" stroke="white" stroke-width="1.5" d="M0,-3.0v7 M-2.5,-0.5L0,-3.0L2.5,-0.5"/>
                </g>
               <g id="resetDef">
                       <use xlink:href="#rim2" fill="#404040">
                               <set attributeName="fill" to="#808080" begin="reset.mouseover" end="reset.mouseout"/>
                       </use>
               </g>
        </defs>

<script type="text/javascript">
var viewWidth = 2142;
var viewHeight = 442;
var sectionId = 'dynsection-1';
</script>
<script xlink:href="svgpan.js"/>
<svg id="graph" class="graph">
<g id="viewport">
<title>ibm_tribend.hpp</title>
<!-- Node1 -->
<g id="node1" class="node">
<title>Node1</title>
<g id="a_node1"><a xlink:title=" ">
<polygon fill="#bfbfbf" stroke="black" points="931.5,-414.5 931.5,-433.5 1027.5,-433.5 1027.5,-414.5 931.5,-414.5"/>
<text text-anchor="middle" x="979.5" y="-421.5" font-family="Helvetica,sans-Serif" font-size="10.00">ibm_tribend.hpp</text>
</a>
</g>
</g>
<!-- Node2 -->
<g id="node2" class="node">
<title>Node2</title>
<g id="a_node2"><a xlink:href="bonded__interaction__data_8hpp.html" target="_top" xlink:title="Data structures for bonded interactions.">
<polygon fill="none" stroke="black" points="924.5,-347.5 924.5,-377.5 1034.5,-377.5 1034.5,-347.5 924.5,-347.5"/>
<text text-anchor="start" x="932.5" y="-365.5" font-family="Helvetica,sans-Serif" font-size="10.00">bonded_interaction</text>
<text text-anchor="middle" x="979.5" y="-354.5" font-family="Helvetica,sans-Serif" font-size="10.00">_data.hpp</text>
</a>
</g>
</g>
<!-- Node1&#45;&gt;Node2 -->
<g id="edge1" class="edge">
<title>Node1&#45;&gt;Node2</title>
<path fill="none" stroke="midnightblue" d="M979.5,-404.23C979.5,-395.59 979.5,-385.5 979.5,-377.52"/>
<polygon fill="midnightblue" stroke="midnightblue" points="976,-404.48 979.5,-414.48 983,-404.48 976,-404.48"/>
</g>
<!-- Node12 -->
<g id="node12" class="node">
<title>Node12</title>
<g id="a_node12"><a xlink:href="forces__inline_8hpp.html" target="_top" xlink:title="Force calculation.">
<polygon fill="none" stroke="black" points="256.5,-168.5 256.5,-187.5 356.5,-187.5 356.5,-168.5 256.5,-168.5"/>
<text text-anchor="middle" x="306.5" y="-175.5" font-family="Helvetica,sans-Serif" font-size="10.00">forces_inline.hpp</text>
</a>
</g>
</g>
<!-- Node1&#45;&gt;Node12 -->
<g id="edge40" class="edge">
<title>Node1&#45;&gt;Node12</title>
<path fill="none" stroke="midnightblue" d="M921.2,-419.22C744.75,-407.21 225.51,-367.32 176.5,-311 133.85,-261.99 239.45,-208.14 285.89,-187.6"/>
<polygon fill="midnightblue" stroke="midnightblue" points="921.12,-422.73 931.33,-419.91 921.59,-415.74 921.12,-422.73"/>
</g>
<!-- Node33 -->
<g id="node33" class="node">
<title>Node33</title>
<g id="a_node33"><a xlink:href="ibm__tribend_8cpp.html" target="_top" xlink:title=" ">
<polygon fill="none" stroke="black" points="1053,-353 1053,-372 1148,-372 1148,-353 1053,-353"/>
<text text-anchor="middle" x="1100.5" y="-360" font-family="Helvetica,sans-Serif" font-size="10.00">ibm_tribend.cpp</text>
</a>
</g>
</g>
<!-- Node1&#45;&gt;Node33 -->
<g id="edge41" class="edge">
<title>Node1&#45;&gt;Node33</title>
<path fill="none" stroke="midnightblue" d="M1005.89,-410.02C1029.36,-398.48 1062.99,-381.94 1083.2,-372.01"/>
<polygon fill="midnightblue" stroke="midnightblue" points="1004.27,-406.92 996.84,-414.48 1007.35,-413.2 1004.27,-406.92"/>
</g>
<!-- Node3 -->
<g id="node3" class="node">
<title>Node3</title>
<g id="a_node3"><a xlink:href="bonded__interaction__data_8cpp.html" target="_top" xlink:title=" ">
<polygon fill="none" stroke="black" points="1873.5,-280.5 1873.5,-310.5 1983.5,-310.5 1983.5,-280.5 1873.5,-280.5"/>
<text text-anchor="start" x="1881.5" y="-298.5" font-family="Helvetica,sans-Serif" font-size="10.00">bonded_interaction</text>
<text text-anchor="middle" x="1928.5" y="-287.5" font-family="Helvetica,sans-Serif" font-size="10.00">_data.cpp</text>
</a>
</g>
</g>
<!-- Node2&#45;&gt;Node3 -->
<g id="edge2" class="edge">
<title>Node2&#45;&gt;Node3</title>
<path fill="none" stroke="midnightblue" d="M1044.52,-347.05C1406.83,-299.59 1505.13,-358.46 1863.5,-311 1866.71,-310.57 1869.99,-310.07 1873.3,-309.51"/>
<polygon fill="midnightblue" stroke="midnightblue" points="1044,-343.59 1034.54,-348.37 1044.92,-350.52 1044,-343.59"/>
</g>
<!-- Node4 -->
<g id="node4" class="node">
<title>Node4</title>
<g id="a_node4"><a xlink:href="bonded__interaction__utils_8hpp.html" target="_top" xlink:title=" ">
<polygon fill="none" stroke="black" points="185.5,-280.5 185.5,-310.5 295.5,-310.5 295.5,-280.5 185.5,-280.5"/>
<text text-anchor="start" x="193.5" y="-298.5" font-family="Helvetica,sans-Serif" font-size="10.00">bonded_interaction</text>
<text text-anchor="middle" x="240.5" y="-287.5" font-family="Helvetica,sans-Serif" font-size="10.00">_utils.hpp</text>
</a>
</g>
</g>
<!-- Node2&#45;&gt;Node4 -->
<g id="edge3" class="edge">
<title>Node2&#45;&gt;Node4</title>
<path fill="none" stroke="midnightblue" d="M913.93,-359.43C793.62,-354.99 529.73,-342.3 309.5,-311 305.02,-310.36 300.39,-309.61 295.75,-308.78"/>
<polygon fill="midnightblue" stroke="midnightblue" points="913.96,-362.93 924.08,-359.8 914.22,-355.94 913.96,-362.93"/>
</g>
<!-- Node5 -->
<g id="node5" class="node">
<title>Node5</title>
<g id="a_node5"><a xlink:href="thole_8hpp.html" target="_top" xlink:title="Routines to calculate the Thole damping potential between particle pairs.">
<polygon fill="none" stroke="black" points="241.5,-224.5 241.5,-243.5 303.5,-243.5 303.5,-224.5 241.5,-224.5"/>
<text text-anchor="middle" x="272.5" y="-231.5" font-family="Helvetica,sans-Serif" font-size="10.00">thole.hpp</text>
</a>
</g>
</g>
<!-- Node2&#45;&gt;Node5 -->
<g id="edge22" class="edge">
<title>Node2&#45;&gt;Node5</title>
<path fill="none" stroke="midnightblue" d="M914.26,-361.98C773.67,-362.11 446.79,-357.25 347.5,-311 314.9,-295.82 288.64,-260 277.83,-243.54"/>
<polygon fill="midnightblue" stroke="midnightblue" points="914.47,-365.48 924.46,-361.96 914.46,-358.48 914.47,-365.48"/>
</g>
<!-- Node6 -->
<g id="node6" class="node">
<title>Node6</title>
<g id="a_node6"><a xlink:href="energy__inline_8hpp.html" target="_top" xlink:title="Energy calculation.">
<polygon fill="none" stroke="black" points="105.5,-168.5 105.5,-187.5 209.5,-187.5 209.5,-168.5 105.5,-168.5"/>
<text text-anchor="middle" x="157.5" y="-175.5" font-family="Helvetica,sans-Serif" font-size="10.00">energy_inline.hpp</text>
</a>
</g>
</g>
<!-- Node2&#45;&gt;Node6 -->
<g id="edge17" class="edge">
<title>Node2&#45;&gt;Node6</title>
<path fill="none" stroke="midnightblue" d="M914.16,-362.02C732.32,-362.84 230.18,-360.54 176.5,-311 141.11,-278.34 150.69,-211.61 155.52,-187.74"/>
<polygon fill="midnightblue" stroke="midnightblue" points="914.4,-365.52 924.38,-361.97 914.36,-358.52 914.4,-365.52"/>
</g>
<!-- Node2&#45;&gt;Node12 -->
<g id="edge18" class="edge">
<title>Node2&#45;&gt;Node12</title>
<path fill="none" stroke="midnightblue" d="M914.19,-359.29C769.15,-353.9 429.52,-338.48 385.5,-311 338.15,-281.44 315.46,-212.16 308.72,-187.72"/>
<polygon fill="midnightblue" stroke="midnightblue" points="914.17,-362.79 924.29,-359.66 914.42,-355.79 914.17,-362.79"/>
</g>
<!-- Node14 -->
<g id="node14" class="node">
<title>Node14</title>
<g id="a_node14"><a xlink:href="pressure__inline_8hpp.html" target="_top" xlink:title=" ">
<polygon fill="none" stroke="black" points="468.5,-112.5 468.5,-131.5 580.5,-131.5 580.5,-112.5 468.5,-112.5"/>
<text text-anchor="middle" x="524.5" y="-119.5" font-family="Helvetica,sans-Serif" font-size="10.00">pressure_inline.hpp</text>
</a>
</g>
</g>
<!-- Node2&#45;&gt;Node14 -->
<g id="edge25" class="edge">
<title>Node2&#45;&gt;Node14</title>
<path fill="none" stroke="midnightblue" d="M913.89,-360.46C772.96,-357.53 451.37,-346.96 418.5,-311 364.28,-251.68 475.34,-159.78 512.77,-131.54"/>
<polygon fill="midnightblue" stroke="midnightblue" points="914.06,-363.96 924.12,-360.66 914.2,-356.96 914.06,-363.96"/>
</g>
<!-- Node15 -->
<g id="node15" class="node">
<title>Node15</title>
<g id="a_node15"><a xlink:href="pressure_8cpp.html" target="_top" xlink:title=" ">
<polygon fill="none" stroke="black" points="991,-56.5 991,-75.5 1070,-75.5 1070,-56.5 991,-56.5"/>
<text text-anchor="middle" x="1030.5" y="-63.5" font-family="Helvetica,sans-Serif" font-size="10.00">pressure.cpp</text>
</a>
</g>
</g>
<!-- Node2&#45;&gt;Node15 -->
<g id="edge24" class="edge">
<title>Node2&#45;&gt;Node15</title>
<path fill="none" stroke="midnightblue" d="M1044.68,-347.31C1129.31,-339.59 1478.94,-343.53 1517.5,-311 1544.11,-288.55 1536.5,-269.82 1536.5,-235 1536.5,-235 1536.5,-235 1536.5,-177 1536.5,-81.71 1189.49,-68.81 1070.2,-67.19"/>
<polygon fill="midnightblue" stroke="midnightblue" points="1044.09,-343.86 1034.56,-348.49 1044.9,-350.81 1044.09,-343.86"/>
</g>
<!-- Node16 -->
<g id="node16" class="node">
<title>Node16</title>
<g id="a_node16"><a xlink:href="collision_8cpp.html" target="_top" xlink:title=" ">
<polygon fill="none" stroke="black" points="428,-286 428,-305 505,-305 505,-286 428,-286"/>
<text text-anchor="middle" x="466.5" y="-293" font-family="Helvetica,sans-Serif" font-size="10.00">collision.cpp</text>
</a>
</g>
</g>
<!-- Node2&#45;&gt;Node16 -->
<g id="edge16" class="edge">
<title>Node2&#45;&gt;Node16</title>
<path fill="none" stroke="midnightblue" d="M914.32,-358.38C823.66,-353.14 654.7,-340.15 513.5,-311 506.14,-309.48 498.29,-307.29 491.15,-305.07"/>
<polygon fill="midnightblue" stroke="midnightblue" points="914.27,-361.88 924.45,-358.95 914.66,-354.89 914.27,-361.88"/>
</g>
<!-- Node17 -->
<g id="node17" class="node">
<title>Node17</title>
<g id="a_node17"><a xlink:href="ImmersedBoundaries_8cpp.html" target="_top" xlink:title=" ">
<polygon fill="none" stroke="black" points="523,-286 523,-305 664,-305 664,-286 523,-286"/>
<text text-anchor="middle" x="593.5" y="-293" font-family="Helvetica,sans-Serif" font-size="10.00">ImmersedBoundaries.cpp</text>
</a>
</g>
</g>
<!-- Node2&#45;&gt;Node17 -->
<g id="edge19" class="edge">
<title>Node2&#45;&gt;Node17</title>
<path fill="none" stroke="midnightblue" d="M914.21,-351.12C852.02,-341.14 755.8,-325.49 672.5,-311 661.65,-309.11 649.97,-307.01 639.01,-305"/>
<polygon fill="midnightblue" stroke="midnightblue" points="913.84,-354.6 924.27,-352.73 914.95,-347.69 913.84,-354.6"/>
</g>
<!-- Node18 -->
<g id="node18" class="node">
<title>Node18</title>
<g id="a_node18"><a xlink:href="integrate_8cpp.html" target="_top" xlink:title="Molecular dynamics integrator.">
<polygon fill="none" stroke="black" points="682,-286 682,-305 763,-305 763,-286 682,-286"/>
<text text-anchor="middle" x="722.5" y="-293" font-family="Helvetica,sans-Serif" font-size="10.00">integrate.cpp</text>
</a>
</g>
</g>
<!-- Node2&#45;&gt;Node18 -->
<g id="edge20" class="edge">
<title>Node2&#45;&gt;Node18</title>
<path fill="none" stroke="midnightblue" d="M914.24,-346.53C873.15,-336.89 819.07,-323.8 771.5,-311 764.65,-309.16 757.29,-307.05 750.42,-305.02"/>
<polygon fill="midnightblue" stroke="midnightblue" points="913.6,-349.97 924.13,-348.84 915.19,-343.16 913.6,-349.97"/>
</g>
<!-- Node19 -->
<g id="node19" class="node">
<title>Node19</title>
<g id="a_node19"><a xlink:href="mpiio_8cpp.html" target="_top" xlink:title="Concerning the file layouts.">
<polygon fill="none" stroke="black" points="781,-286 781,-305 846,-305 846,-286 781,-286"/>
<text text-anchor="middle" x="813.5" y="-293" font-family="Helvetica,sans-Serif" font-size="10.00">mpiio.cpp</text>
</a>
</g>
</g>
<!-- Node2&#45;&gt;Node19 -->
<g id="edge21" class="edge">
<title>Node2&#45;&gt;Node19</title>
<path fill="none" stroke="midnightblue" d="M933.84,-343.62C901.71,-331.04 860.15,-314.77 835.23,-305.01"/>
<polygon fill="midnightblue" stroke="midnightblue" points="932.89,-347.01 943.48,-347.4 935.45,-340.49 932.89,-347.01"/>
</g>
<!-- Node20 -->
<g id="node20" class="node">
<title>Node20</title>
<g id="a_node20"><a xlink:href="oif__global__forces_8cpp.html" target="_top" xlink:title=" ">
<polygon fill="none" stroke="black" points="864.5,-286 864.5,-305 984.5,-305 984.5,-286 864.5,-286"/>
<text text-anchor="middle" x="924.5" y="-293" font-family="Helvetica,sans-Serif" font-size="10.00">oif_global_forces.cpp</text>
</a>
</g>
</g>
<!-- Node2&#45;&gt;Node20 -->
<g id="edge23" class="edge">
<title>Node2&#45;&gt;Node20</title>
<path fill="none" stroke="midnightblue" d="M961.02,-339.66C951.04,-327.86 939.28,-313.97 931.86,-305.19"/>
<polygon fill="midnightblue" stroke="midnightblue" points="958.43,-342.02 967.57,-347.4 963.78,-337.5 958.43,-342.02"/>
</g>
<!-- Node21 -->
<g id="node21" class="node">
<title>Node21</title>
<g id="a_node21"><a xlink:href="rattle_8cpp.html" target="_top" xlink:title=" ">
<polygon fill="none" stroke="black" points="1003,-286 1003,-305 1066,-305 1066,-286 1003,-286"/>
<text text-anchor="middle" x="1034.5" y="-293" font-family="Helvetica,sans-Serif" font-size="10.00">rattle.cpp</text>
</a>
</g>
</g>
<!-- Node2&#45;&gt;Node21 -->
<g id="edge26" class="edge">
<title>Node2&#45;&gt;Node21</title>
<path fill="none" stroke="midnightblue" d="M997.98,-339.66C1007.96,-327.86 1019.72,-313.97 1027.14,-305.19"/>
<polygon fill="midnightblue" stroke="midnightblue" points="995.22,-337.5 991.43,-347.4 1000.57,-342.02 995.22,-337.5"/>
</g>
<!-- Node22 -->
<g id="node22" class="node">
<title>Node22</title>
<g id="a_node22"><a xlink:href="core_2system_2System_8cpp.html" target="_top" xlink:title=" ">
<polygon fill="none" stroke="black" points="1084.5,-286 1084.5,-305 1158.5,-305 1158.5,-286 1084.5,-286"/>
<text text-anchor="middle" x="1121.5" y="-293" font-family="Helvetica,sans-Serif" font-size="10.00">System.cpp</text>
</a>
</g>
</g>
<!-- Node2&#45;&gt;Node22 -->
<g id="edge27" class="edge">
<title>Node2&#45;&gt;Node22</title>
<path fill="none" stroke="midnightblue" d="M1019.63,-343.13C1046.96,-330.62 1081.87,-314.64 1102.92,-305.01"/>
<polygon fill="midnightblue" stroke="midnightblue" points="1017.95,-340.05 1010.31,-347.4 1020.86,-346.42 1017.95,-340.05"/>
</g>
<!-- Node23 -->
<g id="node23" class="node">
<title>Node23</title>
<g id="a_node23"><a xlink:href="thermostat_8cpp.html" target="_top" xlink:title="Implementation of thermostat.hpp.">
<polygon fill="none" stroke="black" points="1177,-286 1177,-305 1268,-305 1268,-286 1177,-286"/>
<text text-anchor="middle" x="1222.5" y="-293" font-family="Helvetica,sans-Serif" font-size="10.00">thermostat.cpp</text>
</a>
</g>
</g>
<!-- Node2&#45;&gt;Node23 -->
<g id="edge28" class="edge">
<title>Node2&#45;&gt;Node23</title>
<path fill="none" stroke="midnightblue" d="M1041.82,-344.83C1089.38,-332.11 1152.94,-315.11 1190.62,-305.03"/>
<polygon fill="midnightblue" stroke="midnightblue" points="1040.68,-341.51 1031.93,-347.48 1042.49,-348.27 1040.68,-341.51"/>
</g>
<!-- Node24 -->
<g id="node24" class="node">
<title>Node24</title>
<g id="a_node24"><a xlink:href="ObservableStat_8cpp.html" target="_top" xlink:title=" ">
<polygon fill="none" stroke="black" points="1286.5,-286 1286.5,-305 1398.5,-305 1398.5,-286 1286.5,-286"/>
<text text-anchor="middle" x="1342.5" y="-293" font-family="Helvetica,sans-Serif" font-size="10.00">ObservableStat.cpp</text>
</a>
</g>
</g>
<!-- Node2&#45;&gt;Node24 -->
<g id="edge29" class="edge">
<title>Node2&#45;&gt;Node24</title>
<path fill="none" stroke="midnightblue" d="M1044.53,-346.89C1148.15,-327.56 1176.62,-329.67 1276.5,-311 1285.96,-309.23 1296.13,-307.11 1305.58,-305.04"/>
<polygon fill="midnightblue" stroke="midnightblue" points="1043.78,-343.47 1034.61,-348.76 1045.08,-350.34 1043.78,-343.47"/>
</g>
<!-- Node25 -->
<g id="node25" class="node">
<title>Node25</title>
<g id="a_node25"><a xlink:href="CellSystem_8cpp.html" target="_top" xlink:title=" ">
<polygon fill="none" stroke="black" points="1416.5,-286 1416.5,-305 1508.5,-305 1508.5,-286 1416.5,-286"/>
<text text-anchor="middle" x="1462.5" y="-293" font-family="Helvetica,sans-Serif" font-size="10.00">CellSystem.cpp</text>
</a>
</g>
</g>
<!-- Node2&#45;&gt;Node25 -->
<g id="edge30" class="edge">
<title>Node2&#45;&gt;Node25</title>
<path fill="none" stroke="midnightblue" d="M1044.84,-346.93C1205.81,-321.74 1250.79,-339.22 1407.5,-311 1416.05,-309.46 1425.22,-307.27 1433.58,-305.05"/>
<polygon fill="midnightblue" stroke="midnightblue" points="1043.9,-343.53 1034.57,-348.57 1045,-350.45 1043.9,-343.53"/>
</g>
<!-- Node26 -->
<g id="node26" class="node">
<title>Node26</title>
<g id="a_node26"><a xlink:href="BondedInteraction_8hpp.html" target="_top" xlink:title="The ScriptInterface counterparts of the bonded interactions parameters structs from the core are defi...">
<polygon fill="none" stroke="black" points="1728,-286 1728,-305 1855,-305 1855,-286 1728,-286"/>
<text text-anchor="middle" x="1791.5" y="-293" font-family="Helvetica,sans-Serif" font-size="10.00">BondedInteraction.hpp</text>
</a>
</g>
</g>
<!-- Node2&#45;&gt;Node26 -->
<g id="edge31" class="edge">
<title>Node2&#45;&gt;Node26</title>
<path fill="none" stroke="midnightblue" d="M1044.79,-347C1342.88,-306.61 1423.75,-347.94 1718.5,-311 1730.04,-309.55 1742.49,-307.33 1753.78,-305.06"/>
<polygon fill="midnightblue" stroke="midnightblue" points="1043.98,-343.58 1034.55,-348.41 1044.93,-350.51 1043.98,-343.58"/>
</g>
<!-- Node27 -->
<g id="node27" class="node">
<title>Node27</title>
<g id="a_node27"><a xlink:href="BondedInteractions_8hpp.html" target="_top" xlink:title=" ">
<polygon fill="none" stroke="black" points="1631.5,-224.5 1631.5,-243.5 1763.5,-243.5 1763.5,-224.5 1631.5,-224.5"/>
<text text-anchor="middle" x="1697.5" y="-231.5" font-family="Helvetica,sans-Serif" font-size="10.00">BondedInteractions.hpp</text>
</a>
</g>
</g>
<!-- Node2&#45;&gt;Node27 -->
<g id="edge35" class="edge">
<title>Node2&#45;&gt;Node27</title>
<path fill="none" stroke="midnightblue" d="M1044.83,-347.07C1170.91,-331.47 1447.21,-348.44 1550.5,-311 1572.65,-302.97 1573.01,-291.63 1593.5,-280 1619.84,-265.04 1652.13,-251.79 1673.67,-243.61"/>
<polygon fill="midnightblue" stroke="midnightblue" points="1044,-343.65 1034.56,-348.47 1044.94,-350.59 1044,-343.65"/>
</g>
<!-- Node29 -->
<g id="node29" class="node">
<title>Node29</title>
<g id="a_node29"><a xlink:href="ParticleHandle_8cpp.html" target="_top" xlink:title=" ">
<polygon fill="none" stroke="black" points="1603,-286 1603,-305 1710,-305 1710,-286 1603,-286"/>
<text text-anchor="middle" x="1656.5" y="-293" font-family="Helvetica,sans-Serif" font-size="10.00">ParticleHandle.cpp</text>
</a>
</g>
</g>
<!-- Node2&#45;&gt;Node29 -->
<g id="edge36" class="edge">
<title>Node2&#45;&gt;Node29</title>
<path fill="none" stroke="midnightblue" d="M1044.67,-347C1285.52,-312.94 1351.35,-343.94 1588.5,-311 1599.14,-309.52 1610.6,-307.32 1621.03,-305.07"/>
<polygon fill="midnightblue" stroke="midnightblue" points="1043.96,-343.56 1034.56,-348.45 1044.95,-350.49 1043.96,-343.56"/>
</g>
<!-- Node30 -->
<g id="node30" class="node">
<title>Node30</title>
<g id="a_node30"><a xlink:href="script__interface_2thermostat_2thermostat_8hpp.html" target="_top" xlink:title=" ">
<polygon fill="none" stroke="black" points="2001.5,-286 2001.5,-305 2093.5,-305 2093.5,-286 2001.5,-286"/>
<text text-anchor="middle" x="2047.5" y="-293" font-family="Helvetica,sans-Serif" font-size="10.00">thermostat.hpp</text>
</a>
</g>
</g>
<!-- Node2&#45;&gt;Node30 -->
<g id="edge37" class="edge">
<title>Node2&#45;&gt;Node30</title>
<path fill="none" stroke="midnightblue" d="M1044.5,-347.06C1463.78,-293.39 1578.28,-372.69 1992.5,-311 2001.58,-309.65 2011.33,-307.36 2020.05,-305"/>
<polygon fill="midnightblue" stroke="midnightblue" points="1044.01,-343.59 1034.54,-348.35 1044.91,-350.53 1044.01,-343.59"/>
</g>
<!-- Node4&#45;&gt;Node5 -->
<g id="edge4" class="edge">
<title>Node4&#45;&gt;Node5</title>
<path fill="none" stroke="midnightblue" d="M252.87,-271.5C258.12,-261.74 263.92,-250.96 267.84,-243.66"/>
<polygon fill="midnightblue" stroke="midnightblue" points="249.74,-269.93 248.08,-280.4 255.9,-273.25 249.74,-269.93"/>
</g>
<!-- Node5&#45;&gt;Node6 -->
<g id="edge5" class="edge">
<title>Node5&#45;&gt;Node6</title>
<path fill="none" stroke="midnightblue" d="M245.02,-220.1C223.53,-210.01 194.28,-196.27 175.64,-187.52"/>
<polygon fill="midnightblue" stroke="midnightblue" points="243.74,-223.36 254.28,-224.44 246.71,-217.02 243.74,-223.36"/>
</g>
<!-- Node5&#45;&gt;Node12 -->
<g id="edge11" class="edge">
<title>Node5&#45;&gt;Node12</title>
<path fill="none" stroke="midnightblue" d="M283.48,-215.57C289.33,-206.27 296.27,-195.25 300.99,-187.75"/>
<polygon fill="midnightblue" stroke="midnightblue" points="280.48,-213.76 278.11,-224.08 286.4,-217.49 280.48,-213.76"/>
</g>
<!-- Node7 -->
<g id="node7" class="node">
<title>Node7</title>
<g id="a_node7"><a xlink:href="ShapeBasedConstraint_8cpp.html" target="_top" xlink:title=" ">
<polygon fill="none" stroke="black" points="218,-112.5 218,-131.5 365,-131.5 365,-112.5 218,-112.5"/>
<text text-anchor="middle" x="291.5" y="-119.5" font-family="Helvetica,sans-Serif" font-size="10.00">ShapeBasedConstraint.cpp</text>
</a>
</g>
</g>
<!-- Node6&#45;&gt;Node7 -->
<g id="edge6" class="edge">
<title>Node6&#45;&gt;Node7</title>
<path fill="none" stroke="midnightblue" d="M188.18,-164.64C213.32,-154.5 248.25,-140.43 270.37,-131.52"/>
<polygon fill="midnightblue" stroke="midnightblue" points="186.7,-161.46 178.73,-168.44 189.32,-167.95 186.7,-161.46"/>
</g>
<!-- Node8 -->
<g id="node8" class="node">
<title>Node8</title>
<g id="a_node8"><a xlink:href="energy_8cpp.html" target="_top" xlink:title=" ">
<polygon fill="none" stroke="black" points="0,-112.5 0,-131.5 69,-131.5 69,-112.5 0,-112.5"/>
<text text-anchor="middle" x="34.5" y="-119.5" font-family="Helvetica,sans-Serif" font-size="10.00">energy.cpp</text>
</a>
</g>
</g>
<!-- Node6&#45;&gt;Node8 -->
<g id="edge7" class="edge">
<title>Node6&#45;&gt;Node8</title>
<path fill="none" stroke="midnightblue" d="M128.73,-164.37C105.69,-154.26 74.02,-140.35 53.9,-131.52"/>
<polygon fill="midnightblue" stroke="midnightblue" points="127.45,-167.63 138.01,-168.44 130.26,-161.22 127.45,-167.63"/>
</g>
<!-- Node9 -->
<g id="node9" class="node">
<title>Node9</title>
<g id="a_node9"><a xlink:href="core_2pair__criteria_2EnergyCriterion_8hpp.html" target="_top" xlink:title=" ">
<polygon fill="none" stroke="black" points="87,-112.5 87,-131.5 200,-131.5 200,-112.5 87,-112.5"/>
<text text-anchor="middle" x="143.5" y="-119.5" font-family="Helvetica,sans-Serif" font-size="10.00">EnergyCriterion.hpp</text>
</a>
</g>
</g>
<!-- Node6&#45;&gt;Node9 -->
<g id="edge8" class="edge">
<title>Node6&#45;&gt;Node9</title>
<path fill="none" stroke="midnightblue" d="M152.68,-158.4C150.33,-149.36 147.63,-138.94 145.77,-131.75"/>
<polygon fill="midnightblue" stroke="midnightblue" points="149.29,-159.28 155.19,-168.08 156.07,-157.52 149.29,-159.28"/>
</g>
<!-- Node10 -->
<g id="node10" class="node">
<title>Node10</title>
<g id="a_node10"><a xlink:href="script__interface_2pair__criteria_2EnergyCriterion_8hpp.html" target="_top" xlink:title=" ">
<polygon fill="none" stroke="black" points="87,-56.5 87,-75.5 200,-75.5 200,-56.5 87,-56.5"/>
<text text-anchor="middle" x="143.5" y="-63.5" font-family="Helvetica,sans-Serif" font-size="10.00">EnergyCriterion.hpp</text>
</a>
</g>
</g>
<!-- Node9&#45;&gt;Node10 -->
<g id="edge9" class="edge">
<title>Node9&#45;&gt;Node10</title>
<path fill="none" stroke="midnightblue" d="M143.5,-101.8C143.5,-92.91 143.5,-82.78 143.5,-75.75"/>
<polygon fill="midnightblue" stroke="midnightblue" points="140,-102.08 143.5,-112.08 147,-102.08 140,-102.08"/>
</g>
<!-- Node11 -->
<g id="node11" class="node">
<title>Node11</title>
<g id="a_node11"><a xlink:href="pair__criteria_2initialize_8cpp.html" target="_top" xlink:title=" ">
<polygon fill="none" stroke="black" points="104,-0.5 104,-19.5 183,-19.5 183,-0.5 104,-0.5"/>
<text text-anchor="middle" x="143.5" y="-7.5" font-family="Helvetica,sans-Serif" font-size="10.00">initialize.cpp</text>
</a>
</g>
</g>
<!-- Node10&#45;&gt;Node11 -->
<g id="edge10" class="edge">
<title>Node10&#45;&gt;Node11</title>
<path fill="none" stroke="midnightblue" d="M143.5,-45.8C143.5,-36.91 143.5,-26.78 143.5,-19.75"/>
<polygon fill="midnightblue" stroke="midnightblue" points="140,-46.08 143.5,-56.08 147,-46.08 140,-46.08"/>
</g>
<!-- Node12&#45;&gt;Node7 -->
<g id="edge12" class="edge">
<title>Node12&#45;&gt;Node7</title>
<path fill="none" stroke="midnightblue" d="M301.33,-158.4C298.82,-149.36 295.93,-138.94 293.93,-131.75"/>
<polygon fill="midnightblue" stroke="midnightblue" points="297.97,-159.38 304.02,-168.08 304.72,-157.51 297.97,-159.38"/>
</g>
<!-- Node13 -->
<g id="node13" class="node">
<title>Node13</title>
<g id="a_node13"><a xlink:href="forces_8cpp.html" target="_top" xlink:title="Force calculation.">
<polygon fill="none" stroke="black" points="383,-112.5 383,-131.5 450,-131.5 450,-112.5 383,-112.5"/>
<text text-anchor="middle" x="416.5" y="-119.5" font-family="Helvetica,sans-Serif" font-size="10.00">forces.cpp</text>
</a>
</g>
</g>
<!-- Node12&#45;&gt;Node13 -->
<g id="edge13" class="edge">
<title>Node12&#45;&gt;Node13</title>
<path fill="none" stroke="midnightblue" d="M333.26,-163.86C353.66,-153.85 381.17,-140.35 398.87,-131.65"/>
<polygon fill="midnightblue" stroke="midnightblue" points="331.61,-160.78 324.17,-168.32 334.69,-167.06 331.61,-160.78"/>
</g>
<!-- Node12&#45;&gt;Node14 -->
<g id="edge14" class="edge">
<title>Node12&#45;&gt;Node14</title>
<path fill="none" stroke="midnightblue" d="M350.81,-166.02C391.99,-155.82 452.47,-140.84 490.12,-131.52"/>
<polygon fill="midnightblue" stroke="midnightblue" points="349.91,-162.64 341.04,-168.44 351.59,-169.44 349.91,-162.64"/>
</g>
<!-- Node14&#45;&gt;Node15 -->
<g id="edge15" class="edge">
<title>Node14&#45;&gt;Node15</title>
<path fill="none" stroke="midnightblue" d="M590.59,-113.95C697.24,-102.57 904.1,-80.49 990.78,-71.24"/>
<polygon fill="midnightblue" stroke="midnightblue" points="590.16,-110.47 580.58,-115.01 590.9,-117.43 590.16,-110.47"/>
</g>
<!-- Node26&#45;&gt;Node27 -->
<g id="edge32" class="edge">
<title>Node26&#45;&gt;Node27</title>
<path fill="none" stroke="midnightblue" d="M1769.27,-280.43C1751.15,-268.96 1726.15,-253.13 1710.94,-243.51"/>
<polygon fill="midnightblue" stroke="midnightblue" points="1767.71,-283.58 1778.03,-285.98 1771.45,-277.67 1767.71,-283.58"/>
</g>
<!-- Node28 -->
<g id="node28" class="node">
<title>Node28</title>
<g id="a_node28"><a xlink:href="interactions_2initialize_8cpp.html" target="_top" xlink:title=" ">
<polygon fill="none" stroke="black" points="1705,-168.5 1705,-187.5 1784,-187.5 1784,-168.5 1705,-168.5"/>
<text text-anchor="middle" x="1744.5" y="-175.5" font-family="Helvetica,sans-Serif" font-size="10.00">initialize.cpp</text>
</a>
</g>
</g>
<!-- Node26&#45;&gt;Node28 -->
<g id="edge34" class="edge">
<title>Node26&#45;&gt;Node28</title>
<path fill="none" stroke="midnightblue" d="M1788.02,-275.8C1784.96,-261.29 1779.83,-240.88 1772.5,-224 1766.63,-210.5 1757.16,-196.29 1750.88,-187.54"/>
<polygon fill="midnightblue" stroke="midnightblue" points="1784.67,-276.85 1790.04,-285.98 1791.53,-275.49 1784.67,-276.85"/>
</g>
<!-- Node27&#45;&gt;Node28 -->
<g id="edge33" class="edge">
<title>Node27&#45;&gt;Node28</title>
<path fill="none" stroke="midnightblue" d="M1711.92,-216.43C1720.16,-206.97 1730.15,-195.48 1736.88,-187.75"/>
<polygon fill="midnightblue" stroke="midnightblue" points="1709.19,-214.24 1705.26,-224.08 1714.47,-218.84 1709.19,-214.24"/>
</g>
<!-- Node31 -->
<g id="node31" class="node">
<title>Node31</title>
<g id="a_node31"><a xlink:href="script__interface_2system_2System_8cpp.html" target="_top" xlink:title=" ">
<polygon fill="none" stroke="black" points="1962.5,-224.5 1962.5,-243.5 2036.5,-243.5 2036.5,-224.5 1962.5,-224.5"/>
<text text-anchor="middle" x="1999.5" y="-231.5" font-family="Helvetica,sans-Serif" font-size="10.00">System.cpp</text>
</a>
</g>
</g>
<!-- Node30&#45;&gt;Node31 -->
<g id="edge38" class="edge">
<title>Node30&#45;&gt;Node31</title>
<path fill="none" stroke="midnightblue" d="M2034.33,-278.17C2025.28,-266.95 2013.63,-252.52 2006.36,-243.51"/>
<polygon fill="midnightblue" stroke="midnightblue" points="2031.62,-280.39 2040.62,-285.98 2037.07,-275.99 2031.62,-280.39"/>
</g>
<!-- Node32 -->
<g id="node32" class="node">
<title>Node32</title>
<g id="a_node32"><a xlink:href="thermostat_2initialize_8cpp.html" target="_top" xlink:title=" ">
<polygon fill="none" stroke="black" points="2055,-224.5 2055,-243.5 2134,-243.5 2134,-224.5 2055,-224.5"/>
<text text-anchor="middle" x="2094.5" y="-231.5" font-family="Helvetica,sans-Serif" font-size="10.00">initialize.cpp</text>
</a>
</g>
</g>
<!-- Node30&#45;&gt;Node32 -->
<g id="edge39" class="edge">
<title>Node30&#45;&gt;Node32</title>
<path fill="none" stroke="midnightblue" d="M2060.66,-277.84C2069.48,-266.67 2080.73,-252.43 2087.78,-243.51"/>
<polygon fill="midnightblue" stroke="midnightblue" points="2057.69,-275.96 2054.23,-285.98 2063.18,-280.3 2057.69,-275.96"/>
</g>
</g>
</svg>
        <g id="navigator" transform="translate(0 0)" fill="#404254">
                <rect fill="#f2f5e9" fill-opacity="0.5" stroke="#606060" stroke-width=".5" x="0" y="0" width="60" height="60"/>
                <use id="zoomplus" xlink:href="#zoomPlus" x="17" y="9" onmousedown="handleZoom(evt,'in')"/>
                <use id="zoomminus" xlink:href="#zoomMin" x="42" y="9" onmousedown="handleZoom(evt,'out')"/>
                <use id="reset" xlink:href="#resetDef" x="30" y="36" onmousedown="handleReset()"/>
                <g id="arrowUp" xlink:href="#dirArrow" transform="translate(30 24)" onmousedown="handlePan(0,-1)">
                  <use xlink:href="#rim" fill="#404040">
                        <set attributeName="fill" to="#808080" begin="arrowUp.mouseover" end="arrowUp.mouseout"/>
                  </use>
                  <path fill="none" stroke="white" stroke-width="1.5" d="M0,-3.0v7 M-2.5,-0.5L0,-3.0L2.5,-0.5"/>
                </g>
                <g id="arrowRight" xlink:href="#dirArrow" transform="rotate(90) translate(36 -43)" onmousedown="handlePan(1,0)">
                  <use xlink:href="#rim" fill="#404040">
                        <set attributeName="fill" to="#808080" begin="arrowRight.mouseover" end="arrowRight.mouseout"/>
                  </use>
                  <path fill="none" stroke="white" stroke-width="1.5" d="M0,-3.0v7 M-2.5,-0.5L0,-3.0L2.5,-0.5"/>
                </g>
                <g id="arrowDown" xlink:href="#dirArrow" transform="rotate(180) translate(-30 -48)" onmousedown="handlePan(0,1)">
                  <use xlink:href="#rim" fill="#404040">
                        <set attributeName="fill" to="#808080" begin="arrowDown.mouseover" end="arrowDown.mouseout"/>
                  </use>
                  <path fill="none" stroke="white" stroke-width="1.5" d="M0,-3.0v7 M-2.5,-0.5L0,-3.0L2.5,-0.5"/>
                </g>
                <g id="arrowLeft" xlink:href="#dirArrow" transform="rotate(270) translate(-36 17)" onmousedown="handlePan(-1,0)">
                  <use xlink:href="#rim" fill="#404040">
                        <set attributeName="fill" to="#808080" begin="arrowLeft.mouseover" end="arrowLeft.mouseout"/>
                  </use>
                  <path fill="none" stroke="white" stroke-width="1.5" d="M0,-3.0v7 M-2.5,-0.5L0,-3.0L2.5,-0.5"/>
                </g>
        </g>
        <svg viewBox="0 0 15 15" width="100%" height="30px" preserveAspectRatio="xMaxYMin meet">
         <g id="arrow_out" transform="scale(0.3 0.3)">
          <a xlink:href="ibm__tribend_8hpp__dep__incl_org.svg" target="_base">
           <rect id="button" ry="5" rx="5" y="6" x="6" height="38" width="38"
                fill="#f2f5e9" fill-opacity="0.5" stroke="#606060" stroke-width="1.0"/>
           <path id="arrow"
             d="M 11.500037,31.436501 C 11.940474,20.09759 22.043105,11.32322 32.158766,21.979434 L 37.068811,17.246167 C 37.068811,17.246167 37.088388,32 37.088388,32 L 22.160133,31.978069 C 22.160133,31.978069 26.997745,27.140456 26.997745,27.140456 C 18.528582,18.264221 13.291696,25.230495 11.500037,31.436501 z"
             style="fill:#404040;"/>
          </a>
         </g>
        </svg>
</svg>
