<?xml version="1.0" encoding="UTF-8" standalone="no"?>
<!DOCTYPE svg PUBLIC "-//W3C//DTD SVG 1.1//EN"
 "http://www.w3.org/Graphics/SVG/1.1/DTD/svg11.dtd">
<!-- Generated by graphviz version 2.43.0 (0)
 -->
<!-- Title: icc.hpp Pages: 1 -->
<!--zoomable 478 -->

<svg id="main" version="1.1" xmlns="http://www.w3.org/2000/svg" xmlns:xlink="http://www.w3.org/1999/xlink" xml:space="preserve" onload="init(evt)">
<style type="text/css"><![CDATA[
.node, .edge {opacity: 0.7;}
.node.selected, .edge.selected {opacity: 1;}
.edge:hover path { stroke: red; }
.edge:hover polygon { stroke: red; fill: red; }
]]></style>

<defs>
  <circle id="rim" cx="0" cy="0" r="7"/>
  <circle id="rim2" cx="0" cy="0" r="3.5"/>
  <g id="zoomPlus">
    <use xlink:href="#rim" fill="#404040"><set attributeName="fill" to="#808080" begin="zoomplus.mouseover" end="zoomplus.mouseout"/></use>
    <path d="M-4,0h8M0,-4v8" fill="none" stroke="white" stroke-width="1.5" pointer-events="none"/>
  </g>
  <g id="zoomMin">
    <use xlink:href="#rim" fill="#404040"><set attributeName="fill" to="#808080" begin="zoomminus.mouseover" end="zoomminus.mouseout"/></use>
    <path d="M-4,0h8" fill="none" stroke="white" stroke-width="1.5" pointer-events="none"/>
  </g>
  <g id="arrowUp" transform="translate(30 24)">
    <use xlink:href="#rim"/>
    <path pointer-events="none" fill="none" stroke="white" stroke-width="1.5" d="M0,-3.0v7 M-2.5,-0.5L0,-3.0L2.5,-0.5"/>
  </g>
  <g id="arrowRight" transform="rotate(90) translate(36 -43)">
    <use xlink:href="#rim"/>
    <path pointer-events="none" fill="none" stroke="white" stroke-width="1.5" d="M0,-3.0v7 M-2.5,-0.5L0,-3.0L2.5,-0.5"/>
  </g>
  <g id="arrowDown" transform="rotate(180) translate(-30 -48)">
    <use xlink:href="#rim"/>
    <path pointer-events="none" fill="none" stroke="white" stroke-width="1.5" d="M0,-3.0v7 M-2.5,-0.5L0,-3.0L2.5,-0.5"/>
  </g>
  <g id="arrowLeft" transform="rotate(270) translate(-36 17)">
    <use xlink:href="#rim"/>
    <path pointer-events="none" fill="none" stroke="white" stroke-width="1.5" d="M0,-3.0v7 M-2.5,-0.5L0,-3.0L2.5,-0.5"/>
  </g>
  <g id="resetDef">
    <use xlink:href="#rim2" fill="#404040"><set attributeName="fill" to="#808080" begin="reset.mouseover" end="reset.mouseout"/></use>
  </g>
</defs>
<script type="application/ecmascript">
var viewWidth = 1431;
var viewHeight = 478;
var sectionId = 'dynsection-1';
</script>
<script type="application/ecmascript" xlink:href="svg.min.js"/>
<svg id="graph" class="graph">
<g id="viewport">
<title>icc.hpp</title>
<!-- Node1 -->
<g id="Node000001" class="node">
<title>Node1</title>
<g id="a_Node000001"><a xlink:title="ICC is a method that allows to take into account the influence of arbitrarily shaped dielectric inter...">
<polygon fill="#999999" stroke="#666666" points="757.5,-470 706.5,-470 706.5,-451 757.5,-451 757.5,-470"/>
<text text-anchor="middle" x="732" y="-458" font-family="Helvetica,sans-Serif" font-size="10.00">icc.hpp</text>
</a>
</g>
</g>
<!-- Node2 -->
<g id="Node000002" class="node">
<title>Node2</title>
<g id="a_Node000002"><a xlink:href="ICCStar_8hpp.html" target="_top" xlink:title=" ">
<polygon fill="white" stroke="#666666" points="557.5,-415 484.5,-415 484.5,-396 557.5,-396 557.5,-415"/>
<text text-anchor="middle" x="521" y="-403" font-family="Helvetica,sans-Serif" font-size="10.00">ICCStar.hpp</text>
</a>
</g>
</g>
<!-- Node1&#45;&gt;Node2 -->
<g id="edge1_Node000001_Node000002" class="edge">
<title>Node1&#45;&gt;Node2</title>
<g id="a_edge1_Node000001_Node000002"><a xlink:title=" ">
<path fill="none" stroke="#63b8ff" d="M696.41,-450.56C657,-440.66 593.93,-424.82 555.12,-415.07"/>
<polygon fill="#63b8ff" stroke="#63b8ff" points="695.58,-453.96 706.13,-453 697.28,-447.17 695.58,-453.96"/>
</a>
</g>
</g>
<!-- Node4 -->
<g id="Node000004" class="node">
<title>Node4</title>
<g id="a_Node000004"><a xlink:href="core_2system_2System_8cpp.html" target="_top" xlink:title=" ">
<polygon fill="white" stroke="#666666" points="74,-74 0,-74 0,-55 74,-55 74,-74"/>
<text text-anchor="middle" x="37" y="-62" font-family="Helvetica,sans-Serif" font-size="10.00">System.cpp</text>
</a>
</g>
</g>
<!-- Node1&#45;&gt;Node4 -->
<g id="edge3_Node000001_Node000004" class="edge">
<title>Node1&#45;&gt;Node4</title>
<g id="a_edge3_Node000001_Node000004"><a xlink:title=" ">
<path fill="none" stroke="#63b8ff" d="M695.81,-457.73C548.8,-450.05 4,-416.82 4,-346 4,-346 4,-346 4,-173.5 4,-135.07 23.34,-92.18 32.41,-74.18"/>
<polygon fill="#63b8ff" stroke="#63b8ff" points="695.92,-461.24 706.09,-458.26 696.28,-454.25 695.92,-461.24"/>
</a>
</g>
</g>
<!-- Node5 -->
<g id="Node000005" class="node">
<title>Node5</title>
<g id="a_Node000005"><a xlink:href="coulomb_8hpp.html" target="_top" xlink:title=" ">
<polygon fill="white" stroke="#666666" points="772,-415 692,-415 692,-396 772,-396 772,-415"/>
<text text-anchor="middle" x="732" y="-403" font-family="Helvetica,sans-Serif" font-size="10.00">coulomb.hpp</text>
</a>
</g>
</g>
<!-- Node1&#45;&gt;Node5 -->
<g id="edge4_Node000001_Node000005" class="edge">
<title>Node1&#45;&gt;Node5</title>
<g id="a_edge4_Node000001_Node000005"><a xlink:title=" ">
<path fill="none" stroke="#63b8ff" d="M732,-440.66C732,-431.93 732,-421.99 732,-415.09"/>
<polygon fill="#63b8ff" stroke="#63b8ff" points="728.5,-440.75 732,-450.75 735.5,-440.75 728.5,-440.75"/>
</a>
</g>
</g>
<!-- Node25 -->
<g id="Node000025" class="node">
<title>Node25</title>
<g id="a_Node000025"><a xlink:href="forces_8cpp.html" target="_top" xlink:title=" ">
<polygon fill="white" stroke="#666666" points="1141.5,-74 1074.5,-74 1074.5,-55 1141.5,-55 1141.5,-74"/>
<text text-anchor="middle" x="1108" y="-62" font-family="Helvetica,sans-Serif" font-size="10.00">forces.cpp</text>
</a>
</g>
</g>
<!-- Node1&#45;&gt;Node25 -->
<g id="edge55_Node000001_Node000025" class="edge">
<title>Node1&#45;&gt;Node25</title>
<g id="a_edge55_Node000001_Node000025"><a xlink:title=" ">
<path fill="none" stroke="#63b8ff" d="M767.94,-457.09C904.7,-447.47 1385,-409.16 1385,-346 1385,-346 1385,-346 1385,-228.5 1385,-116.76 1215.51,-80.1 1141.69,-69.43"/>
<polygon fill="#63b8ff" stroke="#63b8ff" points="767.33,-453.63 757.6,-457.81 767.82,-460.61 767.33,-453.63"/>
</a>
</g>
</g>
<!-- Node26 -->
<g id="Node000026" class="node">
<title>Node26</title>
<g id="a_Node000026"><a xlink:href="icc_8cpp.html" target="_top" xlink:title="Functions to compute the electric field acting on the induced charges, excluding forces other than th...">
<polygon fill="white" stroke="#666666" points="1332,-74 1282,-74 1282,-55 1332,-55 1332,-74"/>
<text text-anchor="middle" x="1307" y="-62" font-family="Helvetica,sans-Serif" font-size="10.00">icc.cpp</text>
</a>
</g>
</g>
<!-- Node1&#45;&gt;Node26 -->
<g id="edge56_Node000001_Node000026" class="edge">
<title>Node1&#45;&gt;Node26</title>
<g id="a_edge56_Node000001_Node000026"><a xlink:title=" ">
<path fill="none" stroke="#63b8ff" d="M767.81,-459.4C851.23,-458.5 1064.57,-452.39 1238,-415 1323.78,-396.51 1423,-433.75 1423,-346 1423,-346 1423,-346 1423,-173.5 1423,-122.6 1362.42,-88.86 1328.82,-74.07"/>
<polygon fill="#63b8ff" stroke="#63b8ff" points="767.57,-455.9 757.61,-459.49 767.64,-462.9 767.57,-455.9"/>
</a>
</g>
</g>
<!-- Node3 -->
<g id="Node000003" class="node">
<title>Node3</title>
<g id="a_Node000003"><a xlink:href="electrostatics_2initialize_8cpp.html" target="_top" xlink:title=" ">
<polygon fill="white" stroke="#666666" points="517.5,-294 438.5,-294 438.5,-275 517.5,-275 517.5,-294"/>
<text text-anchor="middle" x="478" y="-282" font-family="Helvetica,sans-Serif" font-size="10.00">initialize.cpp</text>
</a>
</g>
</g>
<!-- Node2&#45;&gt;Node3 -->
<g id="edge2_Node000002_Node000003" class="edge">
<title>Node2&#45;&gt;Node3</title>
<g id="a_edge2_Node000002_Node000003"><a xlink:title=" ">
<path fill="none" stroke="#63b8ff" d="M493.76,-390.57C482.35,-383.17 470.3,-372.91 464,-360 453.27,-338 465.52,-308.64 473.02,-294.23"/>
<polygon fill="#63b8ff" stroke="#63b8ff" points="492.27,-393.75 502.65,-395.88 495.86,-387.75 492.27,-393.75"/>
</a>
</g>
</g>
<!-- Node5&#45;&gt;Node3 -->
<g id="edge48_Node000005_Node000003" class="edge">
<title>Node5&#45;&gt;Node3</title>
<g id="a_edge48_Node000005_Node000003"><a xlink:title=" ">
<path fill="none" stroke="#63b8ff" d="M681.42,-401.09C620.79,-395.97 524.07,-384.2 498,-360 479.25,-342.6 477.35,-309.69 477.59,-294.1"/>
<polygon fill="#63b8ff" stroke="#63b8ff" points="681.31,-404.59 691.56,-401.91 681.88,-397.62 681.31,-404.59"/>
</a>
</g>
</g>
<!-- Node6 -->
<g id="Node000006" class="node">
<title>Node6</title>
<g id="a_Node000006"><a xlink:href="electrostatics_2Actor_8impl_8hpp.html" target="_top" xlink:title=" ">
<polygon fill="white" stroke="#666666" points="593.5,-354.5 506.5,-354.5 506.5,-335.5 593.5,-335.5 593.5,-354.5"/>
<text text-anchor="middle" x="550" y="-342.5" font-family="Helvetica,sans-Serif" font-size="10.00">Actor.impl.hpp</text>
</a>
</g>
</g>
<!-- Node5&#45;&gt;Node6 -->
<g id="edge5_Node000005_Node000006" class="edge">
<title>Node5&#45;&gt;Node6</title>
<g id="a_edge5_Node000005_Node000006"><a xlink:title=" ">
<path fill="none" stroke="#63b8ff" d="M695.65,-392.82C660.45,-381.5 607.92,-364.62 576.5,-354.52"/>
<polygon fill="#63b8ff" stroke="#63b8ff" points="694.94,-396.27 705.54,-395.99 697.09,-389.6 694.94,-396.27"/>
</a>
</g>
</g>
<!-- Node7 -->
<g id="Node000007" class="node">
<title>Node7</title>
<g id="a_Node000007"><a xlink:href="System_8impl_8hpp.html" target="_top" xlink:title=" ">
<polygon fill="white" stroke="#666666" points="374.5,-354.5 275.5,-354.5 275.5,-335.5 374.5,-335.5 374.5,-354.5"/>
<text text-anchor="middle" x="325" y="-342.5" font-family="Helvetica,sans-Serif" font-size="10.00">System.impl.hpp</text>
</a>
</g>
</g>
<!-- Node5&#45;&gt;Node7 -->
<g id="edge7_Node000005_Node000007" class="edge">
<title>Node5&#45;&gt;Node7</title>
<g id="a_edge7_Node000005_Node000007"><a xlink:title=" ">
<path fill="none" stroke="#63b8ff" d="M681.74,-397.28C603.28,-386 452.6,-364.34 374.57,-353.12"/>
<polygon fill="#63b8ff" stroke="#63b8ff" points="681.47,-400.77 691.86,-398.73 682.46,-393.84 681.47,-400.77"/>
</a>
</g>
</g>
<!-- Node10 -->
<g id="Node000010" class="node">
<title>Node10</title>
<g id="a_Node000010"><a xlink:href="coulomb_8cpp.html" target="_top" xlink:title=" ">
<polygon fill="white" stroke="#666666" points="805.5,-354.5 726.5,-354.5 726.5,-335.5 805.5,-335.5 805.5,-354.5"/>
<text text-anchor="middle" x="766" y="-342.5" font-family="Helvetica,sans-Serif" font-size="10.00">coulomb.cpp</text>
</a>
</g>
</g>
<!-- Node5&#45;&gt;Node10 -->
<g id="edge11_Node000005_Node000010" class="edge">
<title>Node5&#45;&gt;Node10</title>
<g id="a_edge11_Node000005_Node000010"><a xlink:title=" ">
<path fill="none" stroke="#63b8ff" d="M742.18,-386.98C748.38,-376.31 756.03,-363.15 760.96,-354.67"/>
<polygon fill="#63b8ff" stroke="#63b8ff" points="739.02,-385.46 737.02,-395.87 745.07,-388.98 739.02,-385.46"/>
</a>
</g>
</g>
<!-- Node11 -->
<g id="Node000011" class="node">
<title>Node11</title>
<g id="a_Node000011"><a xlink:href="coulomb__inline_8hpp.html" target="_top" xlink:title=" ">
<polygon fill="white" stroke="#666666" points="1319,-354.5 1207,-354.5 1207,-335.5 1319,-335.5 1319,-354.5"/>
<text text-anchor="middle" x="1263" y="-342.5" font-family="Helvetica,sans-Serif" font-size="10.00">coulomb_inline.hpp</text>
</a>
</g>
</g>
<!-- Node5&#45;&gt;Node11 -->
<g id="edge12_Node000005_Node000011" class="edge">
<title>Node5&#45;&gt;Node11</title>
<g id="a_edge12_Node000005_Node000011"><a xlink:title=" ">
<path fill="none" stroke="#63b8ff" d="M782.32,-401.63C868.02,-396.31 1047.66,-383.29 1198,-360 1207.47,-358.53 1217.63,-356.55 1227.04,-354.53"/>
<polygon fill="#63b8ff" stroke="#63b8ff" points="781.86,-398.15 772.09,-402.26 782.29,-405.14 781.86,-398.15"/>
</a>
</g>
</g>
<!-- Node18 -->
<g id="Node000018" class="node">
<title>Node18</title>
<g id="a_Node000018"><a xlink:href="energy_8cpp.html" target="_top" xlink:title=" ">
<polygon fill="white" stroke="#666666" points="338.5,-74 269.5,-74 269.5,-55 338.5,-55 338.5,-74"/>
<text text-anchor="middle" x="304" y="-62" font-family="Helvetica,sans-Serif" font-size="10.00">energy.cpp</text>
</a>
</g>
</g>
<!-- Node5&#45;&gt;Node18 -->
<g id="edge46_Node000005_Node000018" class="edge">
<title>Node5&#45;&gt;Node18</title>
<g id="a_edge46_Node000005_Node000018"><a xlink:title=" ">
<path fill="none" stroke="#63b8ff" d="M681.53,-401.51C577.78,-395.05 343.79,-378.88 266,-360 179.46,-339 80,-374.55 80,-285.5 80,-285.5 80,-285.5 80,-228.5 80,-199.04 79,-186.63 99,-165 129.08,-132.45 151.95,-147.98 192,-129 228.56,-111.67 269.41,-87.1 290.21,-74.2"/>
<polygon fill="#63b8ff" stroke="#63b8ff" points="681.55,-405.01 691.74,-402.14 681.98,-398.03 681.55,-405.01"/>
</a>
</g>
</g>
<!-- Node5&#45;&gt;Node26 -->
<g id="edge47_Node000005_Node000026" class="edge">
<title>Node5&#45;&gt;Node26</title>
<g id="a_edge47_Node000005_Node000026"><a xlink:title=" ">
<path fill="none" stroke="#63b8ff" d="M782.49,-404.05C918.76,-402.38 1286.64,-394.68 1328,-360 1354.18,-338.04 1347,-319.67 1347,-285.5 1347,-285.5 1347,-285.5 1347,-173.5 1347,-134.31 1323.55,-91.82 1312.56,-74.06"/>
<polygon fill="#63b8ff" stroke="#63b8ff" points="782.28,-400.55 772.32,-404.17 782.36,-407.55 782.28,-400.55"/>
</a>
</g>
</g>
<!-- Node27 -->
<g id="Node000027" class="node">
<title>Node27</title>
<g id="a_Node000027"><a xlink:href="p3m__heffte_8impl_8hpp.html" target="_top" xlink:title=" ">
<polygon fill="white" stroke="#666666" points="737,-74 619,-74 619,-55 737,-55 737,-74"/>
<text text-anchor="middle" x="678" y="-62" font-family="Helvetica,sans-Serif" font-size="10.00">p3m_heffte.impl.hpp</text>
</a>
</g>
</g>
<!-- Node5&#45;&gt;Node27 -->
<g id="edge52_Node000005_Node000027" class="edge">
<title>Node5&#45;&gt;Node27</title>
<g id="a_edge52_Node000005_Node000027"><a xlink:title=" ">
<path fill="none" stroke="#63b8ff" d="M705.28,-390.71C672.72,-371.77 622,-334.41 622,-285.5 622,-285.5 622,-285.5 622,-173.5 622,-132.53 654.16,-91.63 669.74,-74.23"/>
<polygon fill="#63b8ff" stroke="#63b8ff" points="703.89,-393.94 714.33,-395.77 707.31,-387.83 703.89,-393.94"/>
</a>
</g>
</g>
<!-- Node31 -->
<g id="Node000031" class="node">
<title>Node31</title>
<g id="a_Node000031"><a xlink:href="pressure_8cpp.html" target="_top" xlink:title=" ">
<polygon fill="white" stroke="#666666" points="756.5,-129 677.5,-129 677.5,-110 756.5,-110 756.5,-129"/>
<text text-anchor="middle" x="717" y="-117" font-family="Helvetica,sans-Serif" font-size="10.00">pressure.cpp</text>
</a>
</g>
</g>
<!-- Node5&#45;&gt;Node31 -->
<g id="edge53_Node000005_Node000031" class="edge">
<title>Node5&#45;&gt;Node31</title>
<g id="a_edge53_Node000005_Node000031"><a xlink:title=" ">
<path fill="none" stroke="#63b8ff" d="M714.5,-388.55C693.18,-367.3 660,-327.47 660,-285.5 660,-285.5 660,-285.5 660,-228.5 660,-199.04 664.91,-190.87 679,-165 686.58,-151.08 699.03,-137.6 707.61,-129.19"/>
<polygon fill="#63b8ff" stroke="#63b8ff" points="712.35,-391.35 721.99,-395.75 717.2,-386.3 712.35,-391.35"/>
</a>
</g>
</g>
<!-- Node32 -->
<g id="Node000032" class="node">
<title>Node32</title>
<g id="a_Node000032"><a xlink:href="thole_8hpp.html" target="_top" xlink:title="Routines to calculate the Thole damping potential between particle pairs.">
<polygon fill="white" stroke="#666666" points="874,-294 812,-294 812,-275 874,-275 874,-294"/>
<text text-anchor="middle" x="843" y="-282" font-family="Helvetica,sans-Serif" font-size="10.00">thole.hpp</text>
</a>
</g>
</g>
<!-- Node5&#45;&gt;Node32 -->
<g id="edge54_Node000005_Node000032" class="edge">
<title>Node5&#45;&gt;Node32</title>
<g id="a_edge54_Node000005_Node000032"><a xlink:title=" ">
<path fill="none" stroke="#63b8ff" d="M721.8,-386.86C713.92,-370.67 706.19,-346.74 718,-330 739.11,-300.07 782.22,-290.15 811.86,-286.93"/>
<polygon fill="#63b8ff" stroke="#63b8ff" points="718.76,-388.61 726.54,-395.8 724.95,-385.33 718.76,-388.61"/>
</a>
</g>
</g>
<!-- Node33 -->
<g id="Node000033" class="node">
<title>Node33</title>
<g id="a_Node000033"><a xlink:href="elc_8cpp.html" target="_top" xlink:title=" ">
<polygon fill="white" stroke="#666666" points="874.5,-354.5 823.5,-354.5 823.5,-335.5 874.5,-335.5 874.5,-354.5"/>
<text text-anchor="middle" x="849" y="-342.5" font-family="Helvetica,sans-Serif" font-size="10.00">elc.cpp</text>
</a>
</g>
</g>
<!-- Node5&#45;&gt;Node33 -->
<g id="edge45_Node000005_Node000033" class="edge">
<title>Node5&#45;&gt;Node33</title>
<g id="a_edge45_Node000005_Node000033"><a xlink:title=" ">
<path fill="none" stroke="#63b8ff" d="M758.04,-391.48C780.58,-380.21 812.55,-364.23 831.97,-354.52"/>
<polygon fill="#63b8ff" stroke="#63b8ff" points="756.39,-388.39 749.01,-395.99 759.52,-394.65 756.39,-388.39"/>
</a>
</g>
</g>
<!-- Node34 -->
<g id="Node000034" class="node">
<title>Node34</title>
<g id="a_Node000034"><a xlink:href="mmm1d_8cpp.html" target="_top" xlink:title=" ">
<polygon fill="white" stroke="#666666" points="971,-354.5 893,-354.5 893,-335.5 971,-335.5 971,-354.5"/>
<text text-anchor="middle" x="932" y="-342.5" font-family="Helvetica,sans-Serif" font-size="10.00">mmm1d.cpp</text>
</a>
</g>
</g>
<!-- Node5&#45;&gt;Node34 -->
<g id="edge49_Node000005_Node000034" class="edge">
<title>Node5&#45;&gt;Node34</title>
<g id="a_edge49_Node000005_Node000034"><a xlink:title=" ">
<path fill="none" stroke="#63b8ff" d="M770.95,-393.11C809.63,-381.79 868.06,-364.7 902.88,-354.52"/>
<polygon fill="#63b8ff" stroke="#63b8ff" points="769.7,-389.83 761.08,-395.99 771.66,-396.55 769.7,-389.83"/>
</a>
</g>
</g>
<!-- Node35 -->
<g id="Node000035" class="node">
<title>Node35</title>
<g id="a_Node000035"><a xlink:href="nonbonded__interaction__data_8cpp.html" target="_top" xlink:title="Implementation of nonbonded_interaction_data.hpp.">
<polygon fill="white" stroke="#666666" points="1117,-360 989,-360 989,-330 1117,-330 1117,-360"/>
<text text-anchor="start" x="997" y="-348" font-family="Helvetica,sans-Serif" font-size="10.00">nonbonded_interaction</text>
<text text-anchor="middle" x="1053" y="-337" font-family="Helvetica,sans-Serif" font-size="10.00">_data.cpp</text>
</a>
</g>
</g>
<!-- Node5&#45;&gt;Node35 -->
<g id="edge50_Node000005_Node000035" class="edge">
<title>Node5&#45;&gt;Node35</title>
<g id="a_edge50_Node000005_Node000035"><a xlink:title=" ">
<path fill="none" stroke="#63b8ff" d="M782.34,-395.65C832.47,-386.79 911.6,-372.7 980,-360 982.92,-359.46 985.9,-358.9 988.91,-358.34"/>
<polygon fill="#63b8ff" stroke="#63b8ff" points="781.64,-392.22 772.41,-397.4 782.86,-399.11 781.64,-392.22"/>
</a>
</g>
</g>
<!-- Node36 -->
<g id="Node000036" class="node">
<title>Node36</title>
<g id="a_Node000036"><a xlink:href="npt_8cpp.html" target="_top" xlink:title=" ">
<polygon fill="white" stroke="#666666" points="1188.5,-354.5 1135.5,-354.5 1135.5,-335.5 1188.5,-335.5 1188.5,-354.5"/>
<text text-anchor="middle" x="1162" y="-342.5" font-family="Helvetica,sans-Serif" font-size="10.00">npt.cpp</text>
</a>
</g>
</g>
<!-- Node5&#45;&gt;Node36 -->
<g id="edge51_Node000005_Node000036" class="edge">
<title>Node5&#45;&gt;Node36</title>
<g id="a_edge51_Node000005_Node000036"><a xlink:title=" ">
<path fill="none" stroke="#63b8ff" d="M782.2,-402.97C857.79,-399.74 1004.87,-389.86 1126,-360 1131.47,-358.65 1137.23,-356.68 1142.49,-354.64"/>
<polygon fill="#63b8ff" stroke="#63b8ff" points="781.87,-399.48 772.02,-403.38 782.16,-406.47 781.87,-399.48"/>
</a>
</g>
</g>
<!-- Node6&#45;&gt;Node3 -->
<g id="edge6_Node000006_Node000003" class="edge">
<title>Node6&#45;&gt;Node3</title>
<g id="a_edge6_Node000006_Node000003"><a xlink:title=" ">
<path fill="none" stroke="#63b8ff" d="M531.58,-329.04C517.99,-317.99 499.96,-303.34 488.67,-294.17"/>
<polygon fill="#63b8ff" stroke="#63b8ff" points="529.41,-331.78 539.38,-335.37 533.82,-326.35 529.41,-331.78"/>
</a>
</g>
</g>
<!-- Node7&#45;&gt;Node4 -->
<g id="edge8_Node000007_Node000004" class="edge">
<title>Node7&#45;&gt;Node4</title>
<g id="a_edge8_Node000007_Node000004"><a xlink:title=" ">
<path fill="none" stroke="#63b8ff" d="M287.54,-332.18C263.61,-323.65 232.57,-310.7 208,-294 126.77,-238.79 106.61,-215.98 61,-129 51.26,-110.42 43.46,-86.98 39.61,-74.42"/>
<polygon fill="#63b8ff" stroke="#63b8ff" points="286.4,-335.49 297,-335.46 288.69,-328.88 286.4,-335.49"/>
</a>
</g>
</g>
<!-- Node8 -->
<g id="Node000008" class="node">
<title>Node8</title>
<g id="a_Node000008"><a xlink:href="script__interface_2system_2System_8cpp.html" target="_top" xlink:title=" ">
<polygon fill="white" stroke="#666666" points="391,-294 317,-294 317,-275 391,-275 391,-294"/>
<text text-anchor="middle" x="354" y="-282" font-family="Helvetica,sans-Serif" font-size="10.00">System.cpp</text>
</a>
</g>
</g>
<!-- Node7&#45;&gt;Node8 -->
<g id="edge9_Node000007_Node000008" class="edge">
<title>Node7&#45;&gt;Node8</title>
<g id="a_edge9_Node000007_Node000008"><a xlink:title=" ">
<path fill="none" stroke="#63b8ff" d="M333.85,-326.15C339.11,-315.54 345.54,-302.56 349.7,-294.17"/>
<polygon fill="#63b8ff" stroke="#63b8ff" points="330.58,-324.85 329.28,-335.37 336.86,-327.96 330.58,-324.85"/>
</a>
</g>
</g>
<!-- Node9 -->
<g id="Node000009" class="node">
<title>Node9</title>
<g id="a_Node000009"><a xlink:href="integrate_8cpp.html" target="_top" xlink:title="Molecular dynamics integrator.">
<polygon fill="white" stroke="#666666" points="298.5,-294 217.5,-294 217.5,-275 298.5,-275 298.5,-294"/>
<text text-anchor="middle" x="258" y="-282" font-family="Helvetica,sans-Serif" font-size="10.00">integrate.cpp</text>
</a>
</g>
</g>
<!-- Node7&#45;&gt;Node9 -->
<g id="edge10_Node000007_Node000009" class="edge">
<title>Node7&#45;&gt;Node9</title>
<g id="a_edge10_Node000007_Node000009"><a xlink:title=" ">
<path fill="none" stroke="#63b8ff" d="M307.5,-328.72C294.9,-317.71 278.33,-303.25 267.93,-294.17"/>
<polygon fill="#63b8ff" stroke="#63b8ff" points="305.28,-331.43 315.11,-335.37 309.88,-326.15 305.28,-331.43"/>
</a>
</g>
</g>
<!-- Node12 -->
<g id="Node000012" class="node">
<title>Node12</title>
<g id="a_Node000012"><a xlink:href="energy__inline_8hpp.html" target="_top" xlink:title="Energy calculation.">
<polygon fill="white" stroke="#666666" points="470,-239 366,-239 366,-220 470,-220 470,-239"/>
<text text-anchor="middle" x="418" y="-227" font-family="Helvetica,sans-Serif" font-size="10.00">energy_inline.hpp</text>
</a>
</g>
</g>
<!-- Node11&#45;&gt;Node12 -->
<g id="edge13_Node000011_Node000012" class="edge">
<title>Node11&#45;&gt;Node12</title>
<g id="a_edge13_Node000011_Node000012"><a xlink:title=" ">
<path fill="none" stroke="#63b8ff" d="M1217.13,-333.4C1210.73,-332.13 1204.22,-330.95 1198,-330 1023.74,-303.39 977.86,-316.36 803,-294 679.53,-278.21 534.95,-252.37 463.18,-239.05"/>
<polygon fill="#63b8ff" stroke="#63b8ff" points="1216.54,-336.85 1227.04,-335.44 1217.96,-329.99 1216.54,-336.85"/>
</a>
</g>
</g>
<!-- Node20 -->
<g id="Node000020" class="node">
<title>Node20</title>
<g id="a_Node000020"><a xlink:href="forces__inline_8hpp.html" target="_top" xlink:title="Force calculation.">
<polygon fill="white" stroke="#666666" points="922,-239 822,-239 822,-220 922,-220 922,-239"/>
<text text-anchor="middle" x="872" y="-227" font-family="Helvetica,sans-Serif" font-size="10.00">forces_inline.hpp</text>
</a>
</g>
</g>
<!-- Node11&#45;&gt;Node20 -->
<g id="edge24_Node000011_Node000020" class="edge">
<title>Node11&#45;&gt;Node20</title>
<g id="a_edge24_Node000011_Node000020"><a xlink:title=" ">
<path fill="none" stroke="#63b8ff" d="M1223.64,-332.58C1145.2,-309.81 970.97,-259.23 901.46,-239.05"/>
<polygon fill="#63b8ff" stroke="#63b8ff" points="1223.03,-336.04 1233.61,-335.47 1224.98,-329.32 1223.03,-336.04"/>
</a>
</g>
</g>
<!-- Node11&#45;&gt;Node26 -->
<g id="edge41_Node000011_Node000026" class="edge">
<title>Node11&#45;&gt;Node26</title>
<g id="a_edge41_Node000011_Node000026"><a xlink:title=" ">
<path fill="none" stroke="#63b8ff" d="M1264.06,-325.31C1265.25,-302.82 1267,-263.91 1267,-230.5 1267,-230.5 1267,-230.5 1267,-173.5 1267,-134.31 1290.45,-91.82 1301.44,-74.06"/>
<polygon fill="#63b8ff" stroke="#63b8ff" points="1260.56,-325.28 1263.51,-335.46 1267.55,-325.67 1260.56,-325.28"/>
</a>
</g>
</g>
<!-- Node11&#45;&gt;Node32 -->
<g id="edge42_Node000011_Node000032" class="edge">
<title>Node11&#45;&gt;Node32</title>
<g id="a_edge42_Node000011_Node000032"><a xlink:title=" ">
<path fill="none" stroke="#63b8ff" d="M1215.96,-333.36C1209.93,-332.15 1203.83,-330.99 1198,-330 1079.2,-309.8 936.59,-294.66 874.48,-288.51"/>
<polygon fill="#63b8ff" stroke="#63b8ff" points="1215.48,-336.84 1225.99,-335.44 1216.91,-329.98 1215.48,-336.84"/>
</a>
</g>
</g>
<!-- Node13 -->
<g id="Node000013" class="node">
<title>Node13</title>
<g id="a_Node000013"><a xlink:href="core_2pair__criteria_2EnergyCriterion_8hpp.html" target="_top" xlink:title=" ">
<polygon fill="white" stroke="#666666" points="221.5,-184 108.5,-184 108.5,-165 221.5,-165 221.5,-184"/>
<text text-anchor="middle" x="165" y="-172" font-family="Helvetica,sans-Serif" font-size="10.00">EnergyCriterion.hpp</text>
</a>
</g>
</g>
<!-- Node12&#45;&gt;Node13 -->
<g id="edge14_Node000012_Node000013" class="edge">
<title>Node12&#45;&gt;Node13</title>
<g id="a_edge14_Node000012_Node000013"><a xlink:title=" ">
<path fill="none" stroke="#63b8ff" d="M367.3,-217.88C319.88,-207.94 249.95,-193.3 205.97,-184.08"/>
<polygon fill="#63b8ff" stroke="#63b8ff" points="366.85,-221.36 377.35,-219.98 368.28,-214.51 366.85,-221.36"/>
</a>
</g>
</g>
<!-- Node16 -->
<g id="Node000016" class="node">
<title>Node16</title>
<g id="a_Node000016"><a xlink:href="ShapeBasedConstraint_8cpp.html" target="_top" xlink:title=" ">
<polygon fill="white" stroke="#666666" points="593.5,-184 446.5,-184 446.5,-165 593.5,-165 593.5,-184"/>
<text text-anchor="middle" x="520" y="-172" font-family="Helvetica,sans-Serif" font-size="10.00">ShapeBasedConstraint.cpp</text>
</a>
</g>
</g>
<!-- Node12&#45;&gt;Node16 -->
<g id="edge17_Node000012_Node000016" class="edge">
<title>Node12&#45;&gt;Node16</title>
<g id="a_edge17_Node000012_Node000016"><a xlink:title=" ">
<path fill="none" stroke="#63b8ff" d="M443.27,-215.37C462.01,-205.63 487.02,-192.64 503.31,-184.17"/>
<polygon fill="#63b8ff" stroke="#63b8ff" points="441.65,-212.27 434.39,-219.98 444.88,-218.48 441.65,-212.27"/>
</a>
</g>
</g>
<!-- Node17 -->
<g id="Node000017" class="node">
<title>Node17</title>
<g id="a_Node000017"><a xlink:href="bond__energy__kokkos_8hpp.html" target="_top" xlink:title=" ">
<polygon fill="white" stroke="#666666" points="472,-129 332,-129 332,-110 472,-110 472,-129"/>
<text text-anchor="middle" x="402" y="-117" font-family="Helvetica,sans-Serif" font-size="10.00">bond_energy_kokkos.hpp</text>
</a>
</g>
</g>
<!-- Node12&#45;&gt;Node17 -->
<g id="edge18_Node000012_Node000017" class="edge">
<title>Node12&#45;&gt;Node17</title>
<g id="a_edge18_Node000012_Node000017"><a xlink:title=" ">
<path fill="none" stroke="#63b8ff" d="M415.18,-209.48C411.68,-185.84 405.85,-146.5 403.28,-129.16"/>
<polygon fill="#63b8ff" stroke="#63b8ff" points="411.76,-210.28 416.69,-219.66 418.69,-209.26 411.76,-210.28"/>
</a>
</g>
</g>
<!-- Node12&#45;&gt;Node18 -->
<g id="edge20_Node000012_Node000018" class="edge">
<title>Node12&#45;&gt;Node18</title>
<g id="a_edge20_Node000012_Node000018"><a xlink:title=" ">
<path fill="none" stroke="#63b8ff" d="M355.67,-226.58C324.37,-222.06 288.94,-210.76 269,-184 242.98,-149.08 280.24,-95.03 296.78,-74.14"/>
<polygon fill="#63b8ff" stroke="#63b8ff" points="355.31,-230.06 365.67,-227.82 356.18,-223.11 355.31,-230.06"/>
</a>
</g>
</g>
<!-- Node19 -->
<g id="Node000019" class="node">
<title>Node19</title>
<g id="a_Node000019"><a xlink:href="energy__cabana_8hpp.html" target="_top" xlink:title=" ">
<polygon fill="white" stroke="#666666" points="390,-184 278,-184 278,-165 390,-165 390,-184"/>
<text text-anchor="middle" x="334" y="-172" font-family="Helvetica,sans-Serif" font-size="10.00">energy_cabana.hpp</text>
</a>
</g>
</g>
<!-- Node12&#45;&gt;Node19 -->
<g id="edge21_Node000012_Node000019" class="edge">
<title>Node12&#45;&gt;Node19</title>
<g id="a_edge21_Node000012_Node000019"><a xlink:title=" ">
<path fill="none" stroke="#63b8ff" d="M395.69,-214.42C380.45,-204.81 360.73,-192.37 347.74,-184.17"/>
<polygon fill="#63b8ff" stroke="#63b8ff" points="394.18,-217.61 404.5,-219.98 397.91,-211.69 394.18,-217.61"/>
</a>
</g>
</g>
<!-- Node14 -->
<g id="Node000014" class="node">
<title>Node14</title>
<g id="a_Node000014"><a xlink:href="script__interface_2pair__criteria_2EnergyCriterion_8hpp.html" target="_top" xlink:title=" ">
<polygon fill="white" stroke="#666666" points="183.5,-129 70.5,-129 70.5,-110 183.5,-110 183.5,-129"/>
<text text-anchor="middle" x="127" y="-117" font-family="Helvetica,sans-Serif" font-size="10.00">EnergyCriterion.hpp</text>
</a>
</g>
</g>
<!-- Node13&#45;&gt;Node14 -->
<g id="edge15_Node000013_Node000014" class="edge">
<title>Node13&#45;&gt;Node14</title>
<g id="a_edge15_Node000013_Node000014"><a xlink:title=" ">
<path fill="none" stroke="#63b8ff" d="M152.73,-156.39C146.19,-147.27 138.43,-136.45 133.16,-129.09"/>
<polygon fill="#63b8ff" stroke="#63b8ff" points="150.05,-158.66 158.73,-164.75 155.74,-154.58 150.05,-158.66"/>
</a>
</g>
</g>
<!-- Node15 -->
<g id="Node000015" class="node">
<title>Node15</title>
<g id="a_Node000015"><a xlink:href="pair__criteria_2initialize_8cpp.html" target="_top" xlink:title=" ">
<polygon fill="white" stroke="#666666" points="171.5,-74 92.5,-74 92.5,-55 171.5,-55 171.5,-74"/>
<text text-anchor="middle" x="132" y="-62" font-family="Helvetica,sans-Serif" font-size="10.00">initialize.cpp</text>
</a>
</g>
</g>
<!-- Node14&#45;&gt;Node15 -->
<g id="edge16_Node000014_Node000015" class="edge">
<title>Node14&#45;&gt;Node15</title>
<g id="a_edge16_Node000014_Node000015"><a xlink:title=" ">
<path fill="none" stroke="#63b8ff" d="M128.78,-99.66C129.6,-90.93 130.54,-80.99 131.19,-74.09"/>
<polygon fill="#63b8ff" stroke="#63b8ff" points="125.28,-99.46 127.83,-109.75 132.25,-100.12 125.28,-99.46"/>
</a>
</g>
</g>
<!-- Node17&#45;&gt;Node18 -->
<g id="edge19_Node000017_Node000018" class="edge">
<title>Node17&#45;&gt;Node18</title>
<g id="a_edge19_Node000017_Node000018"><a xlink:title=" ">
<path fill="none" stroke="#63b8ff" d="M376.97,-104.97C359.06,-95.28 335.47,-82.52 320.03,-74.17"/>
<polygon fill="#63b8ff" stroke="#63b8ff" points="375.79,-108.31 386.25,-109.98 379.12,-102.15 375.79,-108.31"/>
</a>
</g>
</g>
<!-- Node19&#45;&gt;Node17 -->
<g id="edge22_Node000019_Node000017" class="edge">
<title>Node19&#45;&gt;Node17</title>
<g id="a_edge22_Node000019_Node000017"><a xlink:title=" ">
<path fill="none" stroke="#63b8ff" d="M353.12,-158.6C365.3,-149.11 380.66,-137.13 390.88,-129.17"/>
<polygon fill="#63b8ff" stroke="#63b8ff" points="350.66,-156.08 344.93,-164.98 354.96,-161.6 350.66,-156.08"/>
</a>
</g>
</g>
<!-- Node19&#45;&gt;Node18 -->
<g id="edge23_Node000019_Node000018" class="edge">
<title>Node19&#45;&gt;Node18</title>
<g id="a_edge23_Node000019_Node000018"><a xlink:title=" ">
<path fill="none" stroke="#63b8ff" d="M328.81,-154.8C322.25,-131.2 311.24,-91.58 306.41,-74.16"/>
<polygon fill="#63b8ff" stroke="#63b8ff" points="325.5,-155.96 331.54,-164.66 332.24,-154.09 325.5,-155.96"/>
</a>
</g>
</g>
<!-- Node20&#45;&gt;Node16 -->
<g id="edge25_Node000020_Node000016" class="edge">
<title>Node20&#45;&gt;Node16</title>
<g id="a_edge25_Node000020_Node000016"><a xlink:title=" ">
<path fill="none" stroke="#63b8ff" d="M811.71,-219.42C745.79,-209.5 641,-193.72 576.59,-184.02"/>
<polygon fill="#63b8ff" stroke="#63b8ff" points="811.53,-222.93 821.94,-220.96 812.57,-216.01 811.53,-222.93"/>
</a>
</g>
</g>
<!-- Node21 -->
<g id="Node000021" class="node">
<title>Node21</title>
<g id="a_Node000021"><a xlink:href="bond__forces__kokkos_8hpp.html" target="_top" xlink:title=" ">
<polygon fill="white" stroke="#666666" points="1080,-184 944,-184 944,-165 1080,-165 1080,-184"/>
<text text-anchor="middle" x="1012" y="-172" font-family="Helvetica,sans-Serif" font-size="10.00">bond_forces_kokkos.hpp</text>
</a>
</g>
</g>
<!-- Node20&#45;&gt;Node21 -->
<g id="edge26_Node000020_Node000021" class="edge">
<title>Node20&#45;&gt;Node21</title>
<g id="a_edge26_Node000020_Node000021"><a xlink:title=" ">
<path fill="none" stroke="#63b8ff" d="M903.91,-216.42C929.88,-206.59 965.92,-192.95 989.1,-184.17"/>
<polygon fill="#63b8ff" stroke="#63b8ff" points="902.61,-213.17 894.49,-219.98 905.08,-219.72 902.61,-213.17"/>
</a>
</g>
</g>
<!-- Node20&#45;&gt;Node25 -->
<g id="edge36_Node000020_Node000025" class="edge">
<title>Node20&#45;&gt;Node25</title>
<g id="a_edge36_Node000020_Node000025"><a xlink:title=" ">
<path fill="none" stroke="#63b8ff" d="M932.39,-223.72C988.94,-217.95 1067.81,-206.13 1089,-184 1118.54,-153.15 1112.95,-95.72 1109.56,-74.06"/>
<polygon fill="#63b8ff" stroke="#63b8ff" points="931.72,-220.27 922.11,-224.73 932.41,-227.24 931.72,-220.27"/>
</a>
</g>
</g>
<!-- Node29 -->
<g id="Node000029" class="node">
<title>Node29</title>
<g id="a_Node000029"><a xlink:href="forces__cabana_8hpp.html" target="_top" xlink:title=" ">
<polygon fill="white" stroke="#666666" points="926,-184 818,-184 818,-165 926,-165 926,-184"/>
<text text-anchor="middle" x="872" y="-172" font-family="Helvetica,sans-Serif" font-size="10.00">forces_cabana.hpp</text>
</a>
</g>
</g>
<!-- Node20&#45;&gt;Node29 -->
<g id="edge37_Node000020_Node000029" class="edge">
<title>Node20&#45;&gt;Node29</title>
<g id="a_edge37_Node000020_Node000029"><a xlink:title=" ">
<path fill="none" stroke="#63b8ff" d="M872,-209.66C872,-200.93 872,-190.99 872,-184.09"/>
<polygon fill="#63b8ff" stroke="#63b8ff" points="868.5,-209.75 872,-219.75 875.5,-209.75 868.5,-209.75"/>
</a>
</g>
</g>
<!-- Node30 -->
<g id="Node000030" class="node">
<title>Node30</title>
<g id="a_Node000030"><a xlink:href="pressure__inline_8hpp.html" target="_top" xlink:title=" ">
<polygon fill="white" stroke="#666666" points="800,-184 688,-184 688,-165 800,-165 800,-184"/>
<text text-anchor="middle" x="744" y="-172" font-family="Helvetica,sans-Serif" font-size="10.00">pressure_inline.hpp</text>
</a>
</g>
</g>
<!-- Node20&#45;&gt;Node30 -->
<g id="edge39_Node000020_Node000030" class="edge">
<title>Node20&#45;&gt;Node30</title>
<g id="a_edge39_Node000020_Node000030"><a xlink:title=" ">
<path fill="none" stroke="#63b8ff" d="M841.88,-216.03C818.21,-206.23 785.85,-192.83 764.94,-184.17"/>
<polygon fill="#63b8ff" stroke="#63b8ff" points="840.86,-219.39 851.43,-219.98 843.53,-212.93 840.86,-219.39"/>
</a>
</g>
</g>
<!-- Node22 -->
<g id="Node000022" class="node">
<title>Node22</title>
<g id="a_Node000022"><a xlink:href="short__range__cabana_8hpp.html" target="_top" xlink:title=" ">
<polygon fill="white" stroke="#666666" points="940,-129 804,-129 804,-110 940,-110 940,-129"/>
<text text-anchor="middle" x="872" y="-117" font-family="Helvetica,sans-Serif" font-size="10.00">short_range_cabana.hpp</text>
</a>
</g>
</g>
<!-- Node21&#45;&gt;Node22 -->
<g id="edge27_Node000021_Node000022" class="edge">
<title>Node21&#45;&gt;Node22</title>
<g id="a_edge27_Node000021_Node000022"><a xlink:title=" ">
<path fill="none" stroke="#63b8ff" d="M980.09,-161.42C954.12,-151.59 918.08,-137.95 894.9,-129.17"/>
<polygon fill="#63b8ff" stroke="#63b8ff" points="978.92,-164.72 989.51,-164.98 981.39,-158.17 978.92,-164.72"/>
</a>
</g>
</g>
<!-- Node22&#45;&gt;Node4 -->
<g id="edge28_Node000022_Node000004" class="edge">
<title>Node22&#45;&gt;Node4</title>
<g id="a_edge28_Node000022_Node000004"><a xlink:title=" ">
<path fill="none" stroke="#63b8ff" d="M793.77,-111.98C784.42,-111.28 775,-110.6 766,-110 462.69,-89.85 384.87,-109.69 83,-74 80.1,-73.66 77.1,-73.24 74.09,-72.78"/>
<polygon fill="#63b8ff" stroke="#63b8ff" points="793.64,-115.48 803.88,-112.76 794.18,-108.5 793.64,-115.48"/>
</a>
</g>
</g>
<!-- Node22&#45;&gt;Node18 -->
<g id="edge31_Node000022_Node000018" class="edge">
<title>Node22&#45;&gt;Node18</title>
<g id="a_edge31_Node000022_Node000018"><a xlink:title=" ">
<path fill="none" stroke="#63b8ff" d="M793.47,-111.17C668.11,-99.47 427.78,-77.05 338.51,-68.72"/>
<polygon fill="#63b8ff" stroke="#63b8ff" points="793.49,-114.69 803.77,-112.13 794.14,-107.72 793.49,-114.69"/>
</a>
</g>
</g>
<!-- Node23 -->
<g id="Node000023" class="node">
<title>Node23</title>
<g id="a_Node000023"><a xlink:href="dp3m__heffte_8impl_8hpp.html" target="_top" xlink:title=" ">
<polygon fill="white" stroke="#666666" points="934,-74 810,-74 810,-55 934,-55 934,-74"/>
<text text-anchor="middle" x="872" y="-62" font-family="Helvetica,sans-Serif" font-size="10.00">dp3m_heffte.impl.hpp</text>
</a>
</g>
</g>
<!-- Node22&#45;&gt;Node23 -->
<g id="edge29_Node000022_Node000023" class="edge">
<title>Node22&#45;&gt;Node23</title>
<g id="a_edge29_Node000022_Node000023"><a xlink:title=" ">
<path fill="none" stroke="#63b8ff" d="M872,-99.66C872,-90.93 872,-80.99 872,-74.09"/>
<polygon fill="#63b8ff" stroke="#63b8ff" points="868.5,-99.75 872,-109.75 875.5,-99.75 868.5,-99.75"/>
</a>
</g>
</g>
<!-- Node22&#45;&gt;Node25 -->
<g id="edge32_Node000022_Node000025" class="edge">
<title>Node22&#45;&gt;Node25</title>
<g id="a_edge32_Node000022_Node000025"><a xlink:title=" ">
<path fill="none" stroke="#63b8ff" d="M919.93,-107.74C965.85,-97.42 1033.96,-82.13 1074.38,-73.05"/>
<polygon fill="#63b8ff" stroke="#63b8ff" points="918.91,-104.38 909.92,-109.98 920.44,-111.21 918.91,-104.38"/>
</a>
</g>
</g>
<!-- Node22&#45;&gt;Node26 -->
<g id="edge33_Node000022_Node000026" class="edge">
<title>Node22&#45;&gt;Node26</title>
<g id="a_edge33_Node000022_Node000026"><a xlink:title=" ">
<path fill="none" stroke="#63b8ff" d="M950.52,-108.93C1050.67,-96.73 1218.48,-76.29 1281.79,-68.57"/>
<polygon fill="#63b8ff" stroke="#63b8ff" points="949.95,-105.48 940.45,-110.16 950.8,-112.43 949.95,-105.48"/>
</a>
</g>
</g>
<!-- Node22&#45;&gt;Node27 -->
<g id="edge34_Node000022_Node000027" class="edge">
<title>Node22&#45;&gt;Node27</title>
<g id="a_edge34_Node000022_Node000027"><a xlink:title=" ">
<path fill="none" stroke="#63b8ff" d="M831.04,-107.31C794.74,-97.39 742.5,-83.12 709.41,-74.08"/>
<polygon fill="#63b8ff" stroke="#63b8ff" points="830.26,-110.73 840.83,-109.98 832.11,-103.97 830.26,-110.73"/>
</a>
</g>
</g>
<!-- Node24 -->
<g id="Node000024" class="node">
<title>Node24</title>
<g id="a_Node000024"><a xlink:href="dp3m__heffte_8cpp.html" target="_top" xlink:title=" ">
<polygon fill="white" stroke="#666666" points="921,-19 823,-19 823,0 921,0 921,-19"/>
<text text-anchor="middle" x="872" y="-7" font-family="Helvetica,sans-Serif" font-size="10.00">dp3m_heffte.cpp</text>
</a>
</g>
</g>
<!-- Node23&#45;&gt;Node24 -->
<g id="edge30_Node000023_Node000024" class="edge">
<title>Node23&#45;&gt;Node24</title>
<g id="a_edge30_Node000023_Node000024"><a xlink:title=" ">
<path fill="none" stroke="#63b8ff" d="M872,-44.66C872,-35.93 872,-25.99 872,-19.09"/>
<polygon fill="#63b8ff" stroke="#63b8ff" points="868.5,-44.75 872,-54.75 875.5,-44.75 868.5,-44.75"/>
</a>
</g>
</g>
<!-- Node28 -->
<g id="Node000028" class="node">
<title>Node28</title>
<g id="a_Node000028"><a xlink:href="p3m__heffte_8cpp.html" target="_top" xlink:title=" ">
<polygon fill="white" stroke="#666666" points="724,-19 632,-19 632,0 724,0 724,-19"/>
<text text-anchor="middle" x="678" y="-7" font-family="Helvetica,sans-Serif" font-size="10.00">p3m_heffte.cpp</text>
</a>
</g>
</g>
<!-- Node27&#45;&gt;Node28 -->
<g id="edge35_Node000027_Node000028" class="edge">
<title>Node27&#45;&gt;Node28</title>
<g id="a_edge35_Node000027_Node000028"><a xlink:title=" ">
<path fill="none" stroke="#63b8ff" d="M678,-44.66C678,-35.93 678,-25.99 678,-19.09"/>
<polygon fill="#63b8ff" stroke="#63b8ff" points="674.5,-44.75 678,-54.75 681.5,-44.75 674.5,-44.75"/>
</a>
</g>
</g>
<!-- Node29&#45;&gt;Node22 -->
<g id="edge38_Node000029_Node000022" class="edge">
<title>Node29&#45;&gt;Node22</title>
<g id="a_edge38_Node000029_Node000022"><a xlink:title=" ">
<path fill="none" stroke="#63b8ff" d="M872,-154.66C872,-145.93 872,-135.99 872,-129.09"/>
<polygon fill="#63b8ff" stroke="#63b8ff" points="868.5,-154.75 872,-164.75 875.5,-154.75 868.5,-154.75"/>
</a>
</g>
</g>
<!-- Node30&#45;&gt;Node31 -->
<g id="edge40_Node000030_Node000031" class="edge">
<title>Node30&#45;&gt;Node31</title>
<g id="a_edge40_Node000030_Node000031"><a xlink:title=" ">
<path fill="none" stroke="#63b8ff" d="M734.99,-155.82C730.41,-146.82 725.05,-136.29 721.38,-129.09"/>
<polygon fill="#63b8ff" stroke="#63b8ff" points="731.88,-157.43 739.54,-164.75 738.12,-154.25 731.88,-157.43"/>
</a>
</g>
</g>
<!-- Node32&#45;&gt;Node12 -->
<g id="edge43_Node000032_Node000012" class="edge">
<title>Node32&#45;&gt;Node12</title>
<g id="a_edge43_Node000032_Node000012"><a xlink:title=" ">
<path fill="none" stroke="#63b8ff" d="M801.36,-278.31C723.42,-268.59 555.66,-247.67 470.26,-237.02"/>
<polygon fill="#63b8ff" stroke="#63b8ff" points="801.39,-281.84 811.75,-279.6 802.26,-274.89 801.39,-281.84"/>
</a>
</g>
</g>
<!-- Node32&#45;&gt;Node20 -->
<g id="edge44_Node000032_Node000020" class="edge">
<title>Node32&#45;&gt;Node20</title>
<g id="a_edge44_Node000032_Node000020"><a xlink:title=" ">
<path fill="none" stroke="#63b8ff" d="M852.68,-265.82C857.6,-256.82 863.36,-246.29 867.3,-239.09"/>
<polygon fill="#63b8ff" stroke="#63b8ff" points="849.52,-264.3 847.79,-274.75 855.66,-267.66 849.52,-264.3"/>
</a>
</g>
</g>
</g>
</svg>

<g id="navigator" transform="translate(0 0)" fill="#404254">
  <rect fill="#f2f5e9" fill-opacity="0.5" stroke="#606060" stroke-width=".5" x="0" y="0" width="60" height="60"/>
  <use id="zoomplus" xlink:href="#zoomPlus" x="17" y="9" onmousedown="handleZoom(evt,'in')"/>
  <use id="zoomminus" xlink:href="#zoomMin" x="42" y="9" onmousedown="handleZoom(evt,'out')"/>
  <use id="reset" xlink:href="#resetDef" x="30" y="36" onmousedown="handleReset()"/>
   <use id="arrowup" xlink:href="#arrowUp" x="0" y="0" onmousedown="handlePan(0,-1)"/>
  <use id="arrowright" xlink:href="#arrowRight" x="0" y="0" onmousedown="handlePan(1,0)"/>
  <use id="arrowdown" xlink:href="#arrowDown" x="0" y="0" onmousedown="handlePan(0,1)"/>
  <use id="arrowleft" xlink:href="#arrowLeft" x="0" y="0" onmousedown="handlePan(-1,0)"/>
</g>
<svg viewBox="0 0 15 15" width="100%" height="30px" preserveAspectRatio="xMaxYMin meet">
 <g id="arrow_out" transform="scale(0.3 0.3)">
  <a xlink:href="icc_8hpp__dep__incl_org.svg" target="_base">
   <rect id="button" ry="5" rx="5" y="6" x="6" height="38" width="38"
        fill="#f2f5e9" fill-opacity="0.5" stroke="#606060" stroke-width="1.0"/>
   <path id="arrow"
     d="M 11.500037,31.436501 C 11.940474,20.09759 22.043105,11.32322 32.158766,21.979434 L 37.068811,17.246167 C 37.068811,17.246167 37.088388,32 37.088388,32 L 22.160133,31.978069 C 22.160133,31.978069 26.997745,27.140456 26.997745,27.140456 C 18.528582,18.264221 13.291696,25.230495 11.500037,31.436501 z"
     style="fill:#404040;"/>
  </a>
 </g>
</svg>

<style type='text/css'>
<![CDATA[
[data-mouse-over-selected='false'] { opacity: 0.7; }
[data-mouse-over-selected='true']  { opacity: 1.0; }
]]>
</style>
<script type="application/ecmascript"><![CDATA[
document.addEventListener('DOMContentLoaded', (event) => {
  highlightEdges();
  highlightAdjacentNodes();
});
]]></script>
</svg>
