<?xml version="1.0" encoding="UTF-8" standalone="no"?>
<!DOCTYPE svg PUBLIC "-//W3C//DTD SVG 1.1//EN"
 "http://www.w3.org/Graphics/SVG/1.1/DTD/svg11.dtd">
<!-- Generated by graphviz version 2.43.0 (0)
 -->
<!-- Title: immersed_boundaries.hpp Pages: 1 -->
<svg width="643pt" height="192pt"
 viewBox="0.00 0.00 643.00 192.00" xmlns="http://www.w3.org/2000/svg" xmlns:xlink="http://www.w3.org/1999/xlink">
<g id="graph0" class="graph" transform="scale(1 1) rotate(0) translate(4 188)">
<title>immersed_boundaries.hpp</title>
<!-- Node1 -->
<g id="Node000001" class="node">
<title>Node1</title>
<g id="a_Node000001"><a xlink:title=" ">
<polygon fill="#999999" stroke="#666666" points="394,-184 248,-184 248,-165 394,-165 394,-184"/>
<text text-anchor="middle" x="321" y="-172" font-family="Helvetica,sans-Serif" font-size="10.00">immersed_boundaries.hpp</text>
</a>
</g>
</g>
<!-- Node2 -->
<g id="Node000002" class="node">
<title>Node2</title>
<g id="a_Node000002"><a xlink:href="BondedInteraction_8hpp.html" target="_top" xlink:title="The ScriptInterface counterparts of the bonded interactions parameters structs from the core are defi...">
<polygon fill="white" stroke="#666666" points="176.5,-129 49.5,-129 49.5,-110 176.5,-110 176.5,-129"/>
<text text-anchor="middle" x="113" y="-117" font-family="Helvetica,sans-Serif" font-size="10.00">BondedInteraction.hpp</text>
</a>
</g>
</g>
<!-- Node1&#45;&gt;Node2 -->
<g id="edge1_Node000001_Node000002" class="edge">
<title>Node1&#45;&gt;Node2</title>
<g id="a_edge1_Node000001_Node000002"><a xlink:title=" ">
<path fill="none" stroke="#63b8ff" d="M277.59,-162.44C238.65,-152.52 182.31,-138.16 146.68,-129.08"/>
<polygon fill="#63b8ff" stroke="#63b8ff" points="277.03,-165.91 287.58,-164.98 278.76,-159.12 277.03,-165.91"/>
</a>
</g>
</g>
<!-- Node5 -->
<g id="Node000005" class="node">
<title>Node5</title>
<g id="a_Node000005"><a xlink:href="core_2system_2System_8cpp.html" target="_top" xlink:title=" ">
<polygon fill="white" stroke="#666666" points="269,-129 195,-129 195,-110 269,-110 269,-129"/>
<text text-anchor="middle" x="232" y="-117" font-family="Helvetica,sans-Serif" font-size="10.00">System.cpp</text>
</a>
</g>
</g>
<!-- Node1&#45;&gt;Node5 -->
<g id="edge5_Node000001_Node000005" class="edge">
<title>Node1&#45;&gt;Node5</title>
<g id="a_edge5_Node000001_Node000005"><a xlink:title=" ">
<path fill="none" stroke="#63b8ff" d="M297.82,-159.7C281.61,-150.04 260.45,-137.44 246.56,-129.17"/>
<polygon fill="#63b8ff" stroke="#63b8ff" points="296.32,-162.88 306.7,-164.98 299.9,-156.86 296.32,-162.88"/>
</a>
</g>
</g>
<!-- Node6 -->
<g id="Node000006" class="node">
<title>Node6</title>
<g id="a_Node000006"><a xlink:href="forces_8cpp.html" target="_top" xlink:title="Force calculation.">
<polygon fill="white" stroke="#666666" points="354.5,-129 287.5,-129 287.5,-110 354.5,-110 354.5,-129"/>
<text text-anchor="middle" x="321" y="-117" font-family="Helvetica,sans-Serif" font-size="10.00">forces.cpp</text>
</a>
</g>
</g>
<!-- Node1&#45;&gt;Node6 -->
<g id="edge6_Node000001_Node000006" class="edge">
<title>Node1&#45;&gt;Node6</title>
<g id="a_edge6_Node000001_Node000006"><a xlink:title=" ">
<path fill="none" stroke="#63b8ff" d="M321,-154.66C321,-145.93 321,-135.99 321,-129.09"/>
<polygon fill="#63b8ff" stroke="#63b8ff" points="317.5,-154.75 321,-164.75 324.5,-154.75 317.5,-154.75"/>
</a>
</g>
</g>
<!-- Node7 -->
<g id="Node000007" class="node">
<title>Node7</title>
<g id="a_Node000007"><a xlink:href="ibm__volcons_8cpp.html" target="_top" xlink:title=" ">
<polygon fill="white" stroke="#666666" points="471,-129 373,-129 373,-110 471,-110 471,-129"/>
<text text-anchor="middle" x="422" y="-117" font-family="Helvetica,sans-Serif" font-size="10.00">ibm_volcons.cpp</text>
</a>
</g>
</g>
<!-- Node1&#45;&gt;Node7 -->
<g id="edge7_Node000001_Node000007" class="edge">
<title>Node1&#45;&gt;Node7</title>
<g id="a_edge7_Node000001_Node000007"><a xlink:title=" ">
<path fill="none" stroke="#63b8ff" d="M346.28,-160.23C364.8,-150.51 389.42,-137.6 405.48,-129.17"/>
<polygon fill="#63b8ff" stroke="#63b8ff" points="344.46,-157.24 337.23,-164.98 347.71,-163.44 344.46,-157.24"/>
</a>
</g>
</g>
<!-- Node8 -->
<g id="Node000008" class="node">
<title>Node8</title>
<g id="a_Node000008"><a xlink:href="immersed__boundaries_8cpp.html" target="_top" xlink:title=" ">
<polygon fill="white" stroke="#666666" points="635,-129 489,-129 489,-110 635,-110 635,-129"/>
<text text-anchor="middle" x="562" y="-117" font-family="Helvetica,sans-Serif" font-size="10.00">immersed_boundaries.cpp</text>
</a>
</g>
</g>
<!-- Node1&#45;&gt;Node8 -->
<g id="edge8_Node000001_Node000008" class="edge">
<title>Node1&#45;&gt;Node8</title>
<g id="a_edge8_Node000001_Node000008"><a xlink:title=" ">
<path fill="none" stroke="#63b8ff" d="M369.58,-162.82C414.75,-152.88 481.17,-138.28 522.98,-129.08"/>
<polygon fill="#63b8ff" stroke="#63b8ff" points="368.74,-159.42 359.72,-164.98 370.24,-166.26 368.74,-159.42"/>
</a>
</g>
</g>
<!-- Node3 -->
<g id="Node000003" class="node">
<title>Node3</title>
<g id="a_Node000003"><a xlink:href="BondedInteractions_8hpp.html" target="_top" xlink:title=" ">
<polygon fill="white" stroke="#666666" points="132,-74 0,-74 0,-55 132,-55 132,-74"/>
<text text-anchor="middle" x="66" y="-62" font-family="Helvetica,sans-Serif" font-size="10.00">BondedInteractions.hpp</text>
</a>
</g>
</g>
<!-- Node2&#45;&gt;Node3 -->
<g id="edge2_Node000002_Node000003" class="edge">
<title>Node2&#45;&gt;Node3</title>
<g id="a_edge2_Node000002_Node000003"><a xlink:title=" ">
<path fill="none" stroke="#63b8ff" d="M98.58,-102.24C90.34,-92.95 80.35,-81.68 73.62,-74.09"/>
<polygon fill="#63b8ff" stroke="#63b8ff" points="95.99,-104.59 105.24,-109.75 101.22,-99.94 95.99,-104.59"/>
</a>
</g>
</g>
<!-- Node4 -->
<g id="Node000004" class="node">
<title>Node4</title>
<g id="a_Node000004"><a xlink:href="interactions_2initialize_8cpp.html" target="_top" xlink:title=" ">
<polygon fill="white" stroke="#666666" points="152.5,-19 73.5,-19 73.5,0 152.5,0 152.5,-19"/>
<text text-anchor="middle" x="113" y="-7" font-family="Helvetica,sans-Serif" font-size="10.00">initialize.cpp</text>
</a>
</g>
</g>
<!-- Node2&#45;&gt;Node4 -->
<g id="edge4_Node000002_Node000004" class="edge">
<title>Node2&#45;&gt;Node4</title>
<g id="a_edge4_Node000002_Node000004"><a xlink:title=" ">
<path fill="none" stroke="#63b8ff" d="M126.72,-101.71C132.32,-93.8 138.13,-83.94 141,-74 146.88,-53.63 131.44,-31.25 121.22,-19.26"/>
<polygon fill="#63b8ff" stroke="#63b8ff" points="123.92,-99.61 120.67,-109.7 129.5,-103.84 123.92,-99.61"/>
</a>
</g>
</g>
<!-- Node3&#45;&gt;Node4 -->
<g id="edge3_Node000003_Node000004" class="edge">
<title>Node3&#45;&gt;Node4</title>
<g id="a_edge3_Node000003_Node000004"><a xlink:title=" ">
<path fill="none" stroke="#63b8ff" d="M80.42,-47.24C88.66,-37.95 98.65,-26.68 105.38,-19.09"/>
<polygon fill="#63b8ff" stroke="#63b8ff" points="77.78,-44.94 73.76,-54.75 83.01,-49.59 77.78,-44.94"/>
</a>
</g>
</g>
</g>
</svg>
