<?xml version="1.0" encoding="UTF-8" standalone="no"?>
<!DOCTYPE svg PUBLIC "-//W3C//DTD SVG 1.1//EN"
 "http://www.w3.org/Graphics/SVG/1.1/DTD/svg11.dtd">
<!-- Generated by graphviz version 2.43.0 (0)
 -->
<!-- Title: Graphical Class Hierarchy Pages: 1 -->
<svg width="540pt" height="452pt"
 viewBox="0.00 0.00 540.00 451.50" xmlns="http://www.w3.org/2000/svg" xmlns:xlink="http://www.w3.org/1999/xlink">
<g id="graph0" class="graph" transform="scale(1 1) rotate(0) translate(4 447.5)">
<title>Graphical Class Hierarchy</title>
<!-- Node0 -->
<g id="Node000000" class="node">
<title>Node0</title>
<g id="a_Node000000"><a xlink:title=" ">
<polygon fill="#e0e0e0" stroke="#999999" points="72,-225.5 0,-225.5 0,-206.5 72,-206.5 72,-225.5"/>
<text text-anchor="middle" x="36" y="-213.5" font-family="Helvetica,sans-Serif" font-size="10.00">Observable</text>
</a>
</g>
</g>
<!-- Node1 -->
<g id="Node000001" class="node">
<title>Node1</title>
<g id="a_Node000001"><a xlink:href="classScriptInterface_1_1AutoParameters.html" target="_top" xlink:title=" ">
<polygon fill="white" stroke="#666666" points="294,-443.5 113,-443.5 113,-402.5 294,-402.5 294,-443.5"/>
<text text-anchor="start" x="121" y="-431.5" font-family="Helvetica,sans-Serif" font-size="10.00">ScriptInterface::AutoParameters</text>
<text text-anchor="start" x="121" y="-420.5" font-family="Helvetica,sans-Serif" font-size="10.00">&lt; CylindricalLBProfileObservable</text>
<text text-anchor="middle" x="203.5" y="-409.5" font-family="Helvetica,sans-Serif" font-size="10.00">&lt; CoreCylLBObs &gt;, Observable &gt;</text>
</a>
</g>
</g>
<!-- Node0&#45;&gt;Node1 -->
<g id="edge66_Node000000_Node000001" class="edge">
<title>Node0&#45;&gt;Node1</title>
<g id="a_edge66_Node000000_Node000001"><a xlink:title=" ">
<path fill="none" stroke="#63b8ff" d="M39.34,-236.1C44.69,-272.81 61.19,-350.87 108,-394 111.41,-397.14 115.15,-399.94 119.11,-402.44"/>
<polygon fill="#63b8ff" stroke="#63b8ff" points="42.75,-235.19 37.97,-225.73 35.81,-236.1 42.75,-235.19"/>
</a>
</g>
</g>
<!-- Node3 -->
<g id="Node000003" class="node">
<title>Node3</title>
<g id="a_Node000003"><a xlink:href="classScriptInterface_1_1AutoParameters.html" target="_top" xlink:title=" ">
<polygon fill="white" stroke="#666666" points="294,-384.5 113,-384.5 113,-343.5 294,-343.5 294,-384.5"/>
<text text-anchor="start" x="121" y="-372.5" font-family="Helvetica,sans-Serif" font-size="10.00">ScriptInterface::AutoParameters</text>
<text text-anchor="start" x="121" y="-361.5" font-family="Helvetica,sans-Serif" font-size="10.00">&lt; CylindricalPidProfileObservable</text>
<text text-anchor="middle" x="203.5" y="-350.5" font-family="Helvetica,sans-Serif" font-size="10.00">&lt; CoreObs &gt;, Observable &gt;</text>
</a>
</g>
</g>
<!-- Node0&#45;&gt;Node3 -->
<g id="edge68_Node000000_Node000003" class="edge">
<title>Node0&#45;&gt;Node3</title>
<g id="a_edge68_Node000000_Node000003"><a xlink:title=" ">
<path fill="none" stroke="#63b8ff" d="M43.45,-235.25C53.25,-261.6 74.4,-308.63 108,-335 111.92,-338.07 116.16,-340.82 120.6,-343.28"/>
<polygon fill="#63b8ff" stroke="#63b8ff" points="46.68,-233.9 40.04,-225.65 40.09,-236.24 46.68,-233.9"/>
</a>
</g>
</g>
<!-- Node5 -->
<g id="Node000005" class="node">
<title>Node5</title>
<g id="a_Node000005"><a xlink:href="classScriptInterface_1_1AutoParameters.html" target="_top" xlink:title=" ">
<polygon fill="white" stroke="#666666" points="299,-325.5 108,-325.5 108,-284.5 299,-284.5 299,-325.5"/>
<text text-anchor="start" x="116" y="-313.5" font-family="Helvetica,sans-Serif" font-size="10.00">ScriptInterface::AutoParameters</text>
<text text-anchor="start" x="116" y="-302.5" font-family="Helvetica,sans-Serif" font-size="10.00">&lt; LBProfileObservable&lt; CoreLBObs</text>
<text text-anchor="middle" x="203.5" y="-291.5" font-family="Helvetica,sans-Serif" font-size="10.00"> &gt;, Observable &gt;</text>
</a>
</g>
</g>
<!-- Node0&#45;&gt;Node5 -->
<g id="edge70_Node000000_Node000005" class="edge">
<title>Node0&#45;&gt;Node5</title>
<g id="a_edge70_Node000000_Node000005"><a xlink:title=" ">
<path fill="none" stroke="#63b8ff" d="M53.29,-233.15C66.82,-246.51 87.16,-264.62 108,-276 113.57,-279.04 119.51,-281.81 125.59,-284.32"/>
<polygon fill="#63b8ff" stroke="#63b8ff" points="55.68,-230.59 46.16,-225.93 50.7,-235.5 55.68,-230.59"/>
</a>
</g>
</g>
<!-- Node7 -->
<g id="Node000007" class="node">
<title>Node7</title>
<g id="a_Node000007"><a xlink:href="classScriptInterface_1_1AutoParameters.html" target="_top" xlink:title=" ">
<polygon fill="white" stroke="#666666" points="289.5,-266.5 117.5,-266.5 117.5,-225.5 289.5,-225.5 289.5,-266.5"/>
<text text-anchor="start" x="125.5" y="-254.5" font-family="Helvetica,sans-Serif" font-size="10.00">ScriptInterface::AutoParameters</text>
<text text-anchor="start" x="125.5" y="-243.5" font-family="Helvetica,sans-Serif" font-size="10.00">&lt; PairwiseDistances&lt; CoreObs</text>
<text text-anchor="middle" x="203.5" y="-232.5" font-family="Helvetica,sans-Serif" font-size="10.00"> &gt;, Observable &gt;</text>
</a>
</g>
</g>
<!-- Node0&#45;&gt;Node7 -->
<g id="edge72_Node000000_Node000007" class="edge">
<title>Node0&#45;&gt;Node7</title>
<g id="a_edge72_Node000000_Node000007"><a xlink:title=" ">
<path fill="none" stroke="#63b8ff" d="M82.23,-224.2C93.19,-226.18 105.26,-228.37 117.39,-230.57"/>
<polygon fill="#63b8ff" stroke="#63b8ff" points="82.56,-220.7 72.1,-222.36 81.31,-227.59 82.56,-220.7"/>
</a>
</g>
</g>
<!-- Node9 -->
<g id="Node000009" class="node">
<title>Node9</title>
<g id="a_Node000009"><a xlink:href="classScriptInterface_1_1AutoParameters.html" target="_top" xlink:title=" ">
<polygon fill="white" stroke="#666666" points="289.5,-207.5 117.5,-207.5 117.5,-166.5 289.5,-166.5 289.5,-207.5"/>
<text text-anchor="start" x="125.5" y="-195.5" font-family="Helvetica,sans-Serif" font-size="10.00">ScriptInterface::AutoParameters</text>
<text text-anchor="start" x="125.5" y="-184.5" font-family="Helvetica,sans-Serif" font-size="10.00">&lt; PidObservable&lt; CorePidObs</text>
<text text-anchor="middle" x="203.5" y="-173.5" font-family="Helvetica,sans-Serif" font-size="10.00"> &gt;, Observable &gt;</text>
</a>
</g>
</g>
<!-- Node0&#45;&gt;Node9 -->
<g id="edge74_Node000000_Node000009" class="edge">
<title>Node0&#45;&gt;Node9</title>
<g id="a_edge74_Node000000_Node000009"><a xlink:title=" ">
<path fill="none" stroke="#63b8ff" d="M82.23,-208.07C93.19,-206.15 105.26,-204.04 117.39,-201.91"/>
<polygon fill="#63b8ff" stroke="#63b8ff" points="81.34,-204.68 72.1,-209.85 82.55,-211.57 81.34,-204.68"/>
</a>
</g>
</g>
<!-- Node11 -->
<g id="Node000011" class="node">
<title>Node11</title>
<g id="a_Node000011"><a xlink:href="classScriptInterface_1_1AutoParameters.html" target="_top" xlink:title=" ">
<polygon fill="white" stroke="#666666" points="294.5,-148.5 112.5,-148.5 112.5,-107.5 294.5,-107.5 294.5,-148.5"/>
<text text-anchor="start" x="120.5" y="-136.5" font-family="Helvetica,sans-Serif" font-size="10.00">ScriptInterface::AutoParameters</text>
<text text-anchor="start" x="120.5" y="-125.5" font-family="Helvetica,sans-Serif" font-size="10.00">&lt; PidProfileObservable&lt; CoreObs</text>
<text text-anchor="middle" x="203.5" y="-114.5" font-family="Helvetica,sans-Serif" font-size="10.00"> &gt;, Observable &gt;</text>
</a>
</g>
</g>
<!-- Node0&#45;&gt;Node11 -->
<g id="edge76_Node000000_Node000011" class="edge">
<title>Node0&#45;&gt;Node11</title>
<g id="a_edge76_Node000000_Node000011"><a xlink:title=" ">
<path fill="none" stroke="#63b8ff" d="M53.81,-199.14C67.41,-186.31 87.6,-169.04 108,-158 114.36,-154.56 121.17,-151.44 128.12,-148.63"/>
<polygon fill="#63b8ff" stroke="#63b8ff" points="51,-196.99 46.25,-206.45 55.87,-202.02 51,-196.99"/>
</a>
</g>
</g>
<!-- Node13 -->
<g id="Node000013" class="node">
<title>Node13</title>
<g id="a_Node000013"><a xlink:href="classScriptInterface_1_1AutoParameters.html" target="_top" xlink:title=" ">
<polygon fill="white" stroke="#666666" points="289.5,-89.5 117.5,-89.5 117.5,-48.5 289.5,-48.5 289.5,-89.5"/>
<text text-anchor="start" x="125.5" y="-77.5" font-family="Helvetica,sans-Serif" font-size="10.00">ScriptInterface::AutoParameters</text>
<text text-anchor="start" x="125.5" y="-66.5" font-family="Helvetica,sans-Serif" font-size="10.00">&lt; ProfileObservable&lt; CoreObs</text>
<text text-anchor="middle" x="203.5" y="-55.5" font-family="Helvetica,sans-Serif" font-size="10.00"> &gt;, Observable &gt;</text>
</a>
</g>
</g>
<!-- Node0&#45;&gt;Node13 -->
<g id="edge78_Node000000_Node000013" class="edge">
<title>Node0&#45;&gt;Node13</title>
<g id="a_edge78_Node000000_Node000013"><a xlink:title=" ">
<path fill="none" stroke="#63b8ff" d="M43.72,-196.73C53.74,-170.8 75.01,-124.95 108,-99 112.47,-95.49 117.35,-92.38 122.47,-89.64"/>
<polygon fill="#63b8ff" stroke="#63b8ff" points="40.4,-195.61 40.23,-206.21 46.97,-198.04 40.4,-195.61"/>
</a>
</g>
</g>
<!-- Node15 -->
<g id="Node000015" class="node">
<title>Node15</title>
<g id="a_Node000015"><a xlink:href="classScriptInterface_1_1AutoParameters.html" target="_top" xlink:title=" ">
<polygon fill="white" stroke="#666666" points="289.5,-30 117.5,-30 117.5,0 289.5,0 289.5,-30"/>
<text text-anchor="start" x="125.5" y="-18" font-family="Helvetica,sans-Serif" font-size="10.00">ScriptInterface::AutoParameters</text>
<text text-anchor="middle" x="203.5" y="-7" font-family="Helvetica,sans-Serif" font-size="10.00">&lt; RDF, Observable &gt;</text>
</a>
</g>
</g>
<!-- Node0&#45;&gt;Node15 -->
<g id="edge80_Node000000_Node000015" class="edge">
<title>Node0&#45;&gt;Node15</title>
<g id="a_edge80_Node000000_Node000015"><a xlink:title=" ">
<path fill="none" stroke="#63b8ff" d="M39.12,-196.27C44.12,-159.6 60.14,-80.9 108,-39 111.95,-35.54 116.33,-32.57 120.97,-30.02"/>
<polygon fill="#63b8ff" stroke="#63b8ff" points="35.64,-195.86 37.89,-206.21 42.59,-196.71 35.64,-195.86"/>
</a>
</g>
</g>
<!-- Node2 -->
<g id="Node000002" class="node">
<title>Node2</title>
<g id="a_Node000002"><a xlink:href="classScriptInterface_1_1Observables_1_1CylindricalLBProfileObservable.html" target="_top" xlink:title=" ">
<polygon fill="white" stroke="#666666" points="520,-443.5 347,-443.5 347,-402.5 520,-402.5 520,-443.5"/>
<text text-anchor="start" x="355" y="-431.5" font-family="Helvetica,sans-Serif" font-size="10.00">ScriptInterface::Observables</text>
<text text-anchor="start" x="355" y="-420.5" font-family="Helvetica,sans-Serif" font-size="10.00">::CylindricalLBProfileObservable</text>
<text text-anchor="middle" x="433.5" y="-409.5" font-family="Helvetica,sans-Serif" font-size="10.00">&lt; CoreCylLBObs &gt;</text>
</a>
</g>
</g>
<!-- Node1&#45;&gt;Node2 -->
<g id="edge67_Node000001_Node000002" class="edge">
<title>Node1&#45;&gt;Node2</title>
<g id="a_edge67_Node000001_Node000002"><a xlink:title=" ">
<path fill="none" stroke="#63b8ff" d="M304.51,-423C318.64,-423 333.07,-423 346.89,-423"/>
<polygon fill="#63b8ff" stroke="#63b8ff" points="304.28,-419.5 294.28,-423 304.28,-426.5 304.28,-419.5"/>
</a>
</g>
</g>
<!-- Node4 -->
<g id="Node000004" class="node">
<title>Node4</title>
<g id="a_Node000004"><a xlink:href="classScriptInterface_1_1Observables_1_1CylindricalPidProfileObservable.html" target="_top" xlink:title=" ">
<polygon fill="white" stroke="#666666" points="521.5,-384.5 345.5,-384.5 345.5,-343.5 521.5,-343.5 521.5,-384.5"/>
<text text-anchor="start" x="353.5" y="-372.5" font-family="Helvetica,sans-Serif" font-size="10.00">ScriptInterface::Observables</text>
<text text-anchor="start" x="353.5" y="-361.5" font-family="Helvetica,sans-Serif" font-size="10.00">::CylindricalPidProfileObservable</text>
<text text-anchor="middle" x="433.5" y="-350.5" font-family="Helvetica,sans-Serif" font-size="10.00">&lt; CoreObs &gt;</text>
</a>
</g>
</g>
<!-- Node3&#45;&gt;Node4 -->
<g id="edge69_Node000003_Node000004" class="edge">
<title>Node3&#45;&gt;Node4</title>
<g id="a_edge69_Node000003_Node000004"><a xlink:title=" ">
<path fill="none" stroke="#63b8ff" d="M304.61,-364C318.21,-364 332.07,-364 345.41,-364"/>
<polygon fill="#63b8ff" stroke="#63b8ff" points="304.28,-360.5 294.28,-364 304.28,-367.5 304.28,-360.5"/>
</a>
</g>
</g>
<!-- Node6 -->
<g id="Node000006" class="node">
<title>Node6</title>
<g id="a_Node000006"><a xlink:href="classScriptInterface_1_1Observables_1_1LBProfileObservable.html" target="_top" xlink:title=" ">
<polygon fill="white" stroke="#666666" points="532,-320 335,-320 335,-290 532,-290 532,-320"/>
<text text-anchor="start" x="343" y="-308" font-family="Helvetica,sans-Serif" font-size="10.00">ScriptInterface::Observables</text>
<text text-anchor="middle" x="433.5" y="-297" font-family="Helvetica,sans-Serif" font-size="10.00">::LBProfileObservable&lt; CoreLBObs &gt;</text>
</a>
</g>
</g>
<!-- Node5&#45;&gt;Node6 -->
<g id="edge71_Node000005_Node000006" class="edge">
<title>Node5&#45;&gt;Node6</title>
<g id="a_edge71_Node000005_Node000006"><a xlink:title=" ">
<path fill="none" stroke="#63b8ff" d="M309.46,-305C317.89,-305 326.39,-305 334.77,-305"/>
<polygon fill="#63b8ff" stroke="#63b8ff" points="309.21,-301.5 299.21,-305 309.21,-308.5 309.21,-301.5"/>
</a>
</g>
</g>
<!-- Node8 -->
<g id="Node000008" class="node">
<title>Node8</title>
<g id="a_Node000008"><a xlink:href="classScriptInterface_1_1Observables_1_1PairwiseDistances.html" target="_top" xlink:title=" ">
<polygon fill="white" stroke="#666666" points="521,-261 346,-261 346,-231 521,-231 521,-261"/>
<text text-anchor="start" x="354" y="-249" font-family="Helvetica,sans-Serif" font-size="10.00">ScriptInterface::Observables</text>
<text text-anchor="middle" x="433.5" y="-238" font-family="Helvetica,sans-Serif" font-size="10.00">::PairwiseDistances&lt; CoreObs &gt;</text>
</a>
</g>
</g>
<!-- Node7&#45;&gt;Node8 -->
<g id="edge73_Node000007_Node000008" class="edge">
<title>Node7&#45;&gt;Node8</title>
<g id="a_edge73_Node000007_Node000008"><a xlink:title=" ">
<path fill="none" stroke="#63b8ff" d="M300.14,-246C315.3,-246 330.92,-246 345.86,-246"/>
<polygon fill="#63b8ff" stroke="#63b8ff" points="299.72,-242.5 289.72,-246 299.72,-249.5 299.72,-242.5"/>
</a>
</g>
</g>
<!-- Node10 -->
<g id="Node000010" class="node">
<title>Node10</title>
<g id="a_Node000010"><a xlink:href="classScriptInterface_1_1Observables_1_1PidObservable.html" target="_top" xlink:title="Base class for script interfaces to particle&#45;based observables.">
<polygon fill="white" stroke="#666666" points="519.5,-202 347.5,-202 347.5,-172 519.5,-172 519.5,-202"/>
<text text-anchor="start" x="355.5" y="-190" font-family="Helvetica,sans-Serif" font-size="10.00">ScriptInterface::Observables</text>
<text text-anchor="middle" x="433.5" y="-179" font-family="Helvetica,sans-Serif" font-size="10.00">::PidObservable&lt; CorePidObs &gt;</text>
</a>
</g>
</g>
<!-- Node9&#45;&gt;Node10 -->
<g id="edge75_Node000009_Node000010" class="edge">
<title>Node9&#45;&gt;Node10</title>
<g id="a_edge75_Node000009_Node000010"><a xlink:title=" ">
<path fill="none" stroke="#63b8ff" d="M299.98,-187C315.71,-187 331.92,-187 347.38,-187"/>
<polygon fill="#63b8ff" stroke="#63b8ff" points="299.72,-183.5 289.72,-187 299.72,-190.5 299.72,-183.5"/>
</a>
</g>
</g>
<!-- Node12 -->
<g id="Node000012" class="node">
<title>Node12</title>
<g id="a_Node000012"><a xlink:href="classScriptInterface_1_1Observables_1_1PidProfileObservable.html" target="_top" xlink:title=" ">
<polygon fill="white" stroke="#666666" points="527.5,-143 339.5,-143 339.5,-113 527.5,-113 527.5,-143"/>
<text text-anchor="start" x="347.5" y="-131" font-family="Helvetica,sans-Serif" font-size="10.00">ScriptInterface::Observables</text>
<text text-anchor="middle" x="433.5" y="-120" font-family="Helvetica,sans-Serif" font-size="10.00">::PidProfileObservable&lt; CoreObs &gt;</text>
</a>
</g>
</g>
<!-- Node11&#45;&gt;Node12 -->
<g id="edge77_Node000011_Node000012" class="edge">
<title>Node11&#45;&gt;Node12</title>
<g id="a_edge77_Node000011_Node000012"><a xlink:title=" ">
<path fill="none" stroke="#63b8ff" d="M304.67,-128C316.18,-128 327.89,-128 339.3,-128"/>
<polygon fill="#63b8ff" stroke="#63b8ff" points="304.61,-124.5 294.61,-128 304.61,-131.5 304.61,-124.5"/>
</a>
</g>
</g>
<!-- Node14 -->
<g id="Node000014" class="node">
<title>Node14</title>
<g id="a_Node000014"><a xlink:href="classScriptInterface_1_1Observables_1_1ProfileObservable.html" target="_top" xlink:title=" ">
<polygon fill="white" stroke="#666666" points="520,-84 347,-84 347,-54 520,-54 520,-84"/>
<text text-anchor="start" x="355" y="-72" font-family="Helvetica,sans-Serif" font-size="10.00">ScriptInterface::Observables</text>
<text text-anchor="middle" x="433.5" y="-61" font-family="Helvetica,sans-Serif" font-size="10.00">::ProfileObservable&lt; CoreObs &gt;</text>
</a>
</g>
</g>
<!-- Node13&#45;&gt;Node14 -->
<g id="edge79_Node000013_Node000014" class="edge">
<title>Node13&#45;&gt;Node14</title>
<g id="a_edge79_Node000013_Node000014"><a xlink:title=" ">
<path fill="none" stroke="#63b8ff" d="M299.84,-69C315.36,-69 331.35,-69 346.62,-69"/>
<polygon fill="#63b8ff" stroke="#63b8ff" points="299.72,-65.5 289.72,-69 299.72,-72.5 299.72,-65.5"/>
</a>
</g>
</g>
<!-- Node16 -->
<g id="Node000016" class="node">
<title>Node16</title>
<g id="a_Node000016"><a xlink:href="classScriptInterface_1_1Observables_1_1RDF.html" target="_top" xlink:title=" ">
<polygon fill="white" stroke="#666666" points="524,-24.5 343,-24.5 343,-5.5 524,-5.5 524,-24.5"/>
<text text-anchor="middle" x="433.5" y="-12.5" font-family="Helvetica,sans-Serif" font-size="10.00">ScriptInterface::Observables::RDF</text>
</a>
</g>
</g>
<!-- Node15&#45;&gt;Node16 -->
<g id="edge81_Node000015_Node000016" class="edge">
<title>Node15&#45;&gt;Node16</title>
<g id="a_edge81_Node000015_Node000016"><a xlink:title=" ">
<path fill="none" stroke="#63b8ff" d="M299.97,-15C314.16,-15 328.74,-15 342.81,-15"/>
<polygon fill="#63b8ff" stroke="#63b8ff" points="299.72,-11.5 289.72,-15 299.72,-18.5 299.72,-11.5"/>
</a>
</g>
</g>
</g>
</svg>
