<?xml version="1.0" encoding="UTF-8" standalone="no"?>
<!DOCTYPE svg PUBLIC "-//W3C//DTD SVG 1.1//EN"
 "http://www.w3.org/Graphics/SVG/1.1/DTD/svg11.dtd">
<!-- Generated by graphviz version 2.43.0 (0)
 -->
<!-- Title: Graphical Class Hierarchy Pages: 1 -->
<svg width="288pt" height="753pt"
 viewBox="0.00 0.00 288.00 753.00" xmlns="http://www.w3.org/2000/svg" xmlns:xlink="http://www.w3.org/1999/xlink">
<g id="graph0" class="graph" transform="scale(1 1) rotate(0) translate(4 749)">
<title>Graphical Class Hierarchy</title>
<!-- Node51 -->
<g id="node1" class="node">
<title>Node51</title>
<g id="a_node1"><a xlink:title=" ">
<polygon fill="none" stroke="#bfbfbf" points="0,-335.5 0,-354.5 80,-354.5 80,-335.5 0,-335.5"/>
<text text-anchor="middle" x="40" y="-342.5" font-family="Helvetica,sans-Serif" font-size="10.00">static_visitor</text>
</a>
</g>
</g>
<!-- Node0 -->
<g id="node2" class="node">
<title>Node0</title>
<g id="a_node2"><a xlink:href="structActorEquality.html" target="_top" xlink:title="Check whether two actors are identical by pointer.">
<polygon fill="none" stroke="black" points="157,-725.5 157,-744.5 239,-744.5 239,-725.5 157,-725.5"/>
<text text-anchor="middle" x="198" y="-732.5" font-family="Helvetica,sans-Serif" font-size="10.00">ActorEquality</text>
</a>
</g>
</g>
<!-- Node51&#45;&gt;Node0 -->
<g id="edge1" class="edge">
<title>Node51&#45;&gt;Node0</title>
<path fill="none" stroke="midnightblue" d="M42.24,-364.72C47,-433.99 66.39,-664.83 116,-716 126.56,-726.89 142.08,-732.04 156.72,-734.33"/>
<polygon fill="midnightblue" stroke="midnightblue" points="45.73,-364.45 41.58,-354.71 38.75,-364.92 45.73,-364.45"/>
</g>
<!-- Node53 -->
<g id="node3" class="node">
<title>Node53</title>
<g id="a_node3"><a xlink:href="classBondNumPartners.html" target="_top" xlink:title="Visitor to get the number of bound partners from the bond parameter variant.">
<polygon fill="none" stroke="black" points="145.5,-687.5 145.5,-706.5 250.5,-706.5 250.5,-687.5 145.5,-687.5"/>
<text text-anchor="middle" x="198" y="-694.5" font-family="Helvetica,sans-Serif" font-size="10.00">BondNumPartners</text>
</a>
</g>
</g>
<!-- Node51&#45;&gt;Node53 -->
<g id="edge2" class="edge">
<title>Node51&#45;&gt;Node53</title>
<path fill="none" stroke="midnightblue" d="M42.74,-364.75C48.82,-429.36 71.23,-632.84 116,-678 123.93,-686 134.55,-690.89 145.48,-693.82"/>
<polygon fill="midnightblue" stroke="midnightblue" points="46.21,-364.32 41.82,-354.68 39.24,-364.96 46.21,-364.32"/>
</g>
<!-- Node54 -->
<g id="node4" class="node">
<title>Node54</title>
<g id="a_node4"><a xlink:href="structCoulomb_1_1ShortRangeEnergyKernel.html" target="_top" xlink:title=" ">
<polygon fill="none" stroke="black" points="120,-638 120,-668 276,-668 276,-638 120,-638"/>
<text text-anchor="start" x="128" y="-656" font-family="Helvetica,sans-Serif" font-size="10.00">Coulomb::ShortRangeEnergy</text>
<text text-anchor="middle" x="198" y="-645" font-family="Helvetica,sans-Serif" font-size="10.00">Kernel</text>
</a>
</g>
</g>
<!-- Node51&#45;&gt;Node54 -->
<g id="edge3" class="edge">
<title>Node51&#45;&gt;Node54</title>
<path fill="none" stroke="midnightblue" d="M43.67,-364.71C51.89,-422.6 78.54,-590.4 116,-629 119.37,-632.47 123.22,-635.45 127.36,-638"/>
<polygon fill="midnightblue" stroke="midnightblue" points="47.12,-364.1 42.28,-354.67 40.19,-365.06 47.12,-364.1"/>
</g>
<!-- Node55 -->
<g id="node5" class="node">
<title>Node55</title>
<g id="a_node5"><a xlink:href="structCoulomb_1_1ShortRangeForceCorrectionsKernel.html" target="_top" xlink:title=" ">
<polygon fill="none" stroke="black" points="123.5,-589 123.5,-619 272.5,-619 272.5,-589 123.5,-589"/>
<text text-anchor="start" x="131.5" y="-607" font-family="Helvetica,sans-Serif" font-size="10.00">Coulomb::ShortRangeForce</text>
<text text-anchor="middle" x="198" y="-596" font-family="Helvetica,sans-Serif" font-size="10.00">CorrectionsKernel</text>
</a>
</g>
</g>
<!-- Node51&#45;&gt;Node55 -->
<g id="edge4" class="edge">
<title>Node51&#45;&gt;Node55</title>
<path fill="none" stroke="midnightblue" d="M41.4,-364.85C43.39,-409.75 54.64,-519.91 116,-580 119.46,-583.39 123.37,-586.3 127.56,-588.8"/>
<polygon fill="midnightblue" stroke="midnightblue" points="44.89,-364.56 41.06,-354.68 37.89,-364.79 44.89,-364.56"/>
</g>
<!-- Node56 -->
<g id="node6" class="node">
<title>Node56</title>
<g id="a_node6"><a xlink:href="structCoulomb_1_1ShortRangeForceKernel.html" target="_top" xlink:title=" ">
<polygon fill="none" stroke="black" points="123.5,-540 123.5,-570 272.5,-570 272.5,-540 123.5,-540"/>
<text text-anchor="start" x="131.5" y="-558" font-family="Helvetica,sans-Serif" font-size="10.00">Coulomb::ShortRangeForce</text>
<text text-anchor="middle" x="198" y="-547" font-family="Helvetica,sans-Serif" font-size="10.00">Kernel</text>
</a>
</g>
</g>
<!-- Node51&#45;&gt;Node56 -->
<g id="edge5" class="edge">
<title>Node51&#45;&gt;Node56</title>
<path fill="none" stroke="midnightblue" d="M43.35,-365.02C48.89,-403.01 66.27,-485.79 116,-531 119.8,-534.45 124.07,-537.41 128.62,-539.94"/>
<polygon fill="midnightblue" stroke="midnightblue" points="46.78,-364.21 41.99,-354.76 39.84,-365.13 46.78,-364.21"/>
</g>
<!-- Node57 -->
<g id="node7" class="node">
<title>Node57</title>
<g id="a_node7"><a xlink:href="structCoulomb_1_1ShortRangePressureKernel.html" target="_top" xlink:title=" ">
<polygon fill="none" stroke="black" points="116,-491 116,-521 280,-521 280,-491 116,-491"/>
<text text-anchor="start" x="124" y="-509" font-family="Helvetica,sans-Serif" font-size="10.00">Coulomb::ShortRangePressure</text>
<text text-anchor="middle" x="198" y="-498" font-family="Helvetica,sans-Serif" font-size="10.00">Kernel</text>
</a>
</g>
</g>
<!-- Node51&#45;&gt;Node57 -->
<g id="edge6" class="edge">
<title>Node51&#45;&gt;Node57</title>
<path fill="none" stroke="midnightblue" d="M46.33,-364.24C55.54,-393.93 77.29,-450.76 116,-482 120.22,-485.41 124.92,-488.33 129.86,-490.84"/>
<polygon fill="midnightblue" stroke="midnightblue" points="49.68,-363.22 43.49,-354.62 42.96,-365.2 49.68,-363.22"/>
</g>
<!-- Node58 -->
<g id="node8" class="node">
<title>Node58</title>
<g id="a_node8"><a xlink:href="structDipoles_1_1ShortRangeEnergyKernel.html" target="_top" xlink:title=" ">
<polygon fill="none" stroke="black" points="123.5,-442 123.5,-472 272.5,-472 272.5,-442 123.5,-442"/>
<text text-anchor="start" x="131.5" y="-460" font-family="Helvetica,sans-Serif" font-size="10.00">Dipoles::ShortRangeEnergy</text>
<text text-anchor="middle" x="198" y="-449" font-family="Helvetica,sans-Serif" font-size="10.00">Kernel</text>
</a>
</g>
</g>
<!-- Node51&#45;&gt;Node58 -->
<g id="edge7" class="edge">
<title>Node51&#45;&gt;Node58</title>
<path fill="none" stroke="midnightblue" d="M51.79,-363.03C64.65,-382.99 87.96,-414.77 116,-433 121.29,-436.44 127.08,-439.4 133.07,-441.94"/>
<polygon fill="midnightblue" stroke="midnightblue" points="54.75,-361.16 46.49,-354.53 48.81,-364.87 54.75,-361.16"/>
</g>
<!-- Node59 -->
<g id="node9" class="node">
<title>Node59</title>
<g id="a_node9"><a xlink:href="structDipoles_1_1ShortRangeForceKernel.html" target="_top" xlink:title=" ">
<polygon fill="none" stroke="black" points="127,-393 127,-423 269,-423 269,-393 127,-393"/>
<text text-anchor="start" x="135" y="-411" font-family="Helvetica,sans-Serif" font-size="10.00">Dipoles::ShortRangeForce</text>
<text text-anchor="middle" x="198" y="-400" font-family="Helvetica,sans-Serif" font-size="10.00">Kernel</text>
</a>
</g>
</g>
<!-- Node51&#45;&gt;Node59 -->
<g id="edge8" class="edge">
<title>Node51&#45;&gt;Node59</title>
<path fill="none" stroke="midnightblue" d="M67.05,-359.57C81.24,-367.16 99.29,-376.24 116,-383 124.73,-386.53 134.16,-389.86 143.39,-392.86"/>
<polygon fill="midnightblue" stroke="midnightblue" points="68.35,-356.3 57.89,-354.6 65.01,-362.45 68.35,-356.3"/>
</g>
<!-- Node60 -->
<g id="node10" class="node">
<title>Node60</title>
<g id="a_node10"><a xlink:href="structDipolesSanityChecks.html" target="_top" xlink:title="Run actor sanity checks.">
<polygon fill="none" stroke="black" points="138.5,-354.5 138.5,-373.5 257.5,-373.5 257.5,-354.5 138.5,-354.5"/>
<text text-anchor="middle" x="198" y="-361.5" font-family="Helvetica,sans-Serif" font-size="10.00">DipolesSanityChecks</text>
</a>
</g>
</g>
<!-- Node51&#45;&gt;Node60 -->
<g id="edge9" class="edge">
<title>Node51&#45;&gt;Node60</title>
<path fill="none" stroke="midnightblue" d="M90.6,-351.04C105.82,-352.9 122.72,-354.95 138.47,-356.87"/>
<polygon fill="midnightblue" stroke="midnightblue" points="90.72,-347.53 80.37,-349.79 89.87,-354.48 90.72,-347.53"/>
</g>
<!-- Node61 -->
<g id="node11" class="node">
<title>Node61</title>
<g id="a_node11"><a xlink:href="structGetActorByType.html" target="_top" xlink:title="Get an actor of a specific type, recursively.">
<polygon fill="none" stroke="black" points="126.5,-316.5 126.5,-335.5 269.5,-335.5 269.5,-316.5 126.5,-316.5"/>
<text text-anchor="middle" x="198" y="-323.5" font-family="Helvetica,sans-Serif" font-size="10.00">GetActorByType&lt; Actor &gt;</text>
</a>
</g>
</g>
<!-- Node51&#45;&gt;Node61 -->
<g id="edge10" class="edge">
<title>Node51&#45;&gt;Node61</title>
<path fill="none" stroke="midnightblue" d="M90.53,-338.97C101.93,-337.58 114.27,-336.08 126.37,-334.6"/>
<polygon fill="midnightblue" stroke="midnightblue" points="89.87,-335.52 80.37,-340.21 90.72,-342.47 89.87,-335.52"/>
</g>
<!-- Node62 -->
<g id="node12" class="node">
<title>Node62</title>
<g id="a_node12"><a xlink:href="structGetActorName.html" target="_top" xlink:title=" ">
<polygon fill="none" stroke="black" points="153.5,-278.5 153.5,-297.5 242.5,-297.5 242.5,-278.5 153.5,-278.5"/>
<text text-anchor="middle" x="198" y="-285.5" font-family="Helvetica,sans-Serif" font-size="10.00">GetActorName</text>
</a>
</g>
</g>
<!-- Node51&#45;&gt;Node62 -->
<g id="edge11" class="edge">
<title>Node51&#45;&gt;Node62</title>
<path fill="none" stroke="midnightblue" d="M65.9,-330.49C80.19,-322.65 98.68,-313.32 116,-307 127.81,-302.69 140.94,-299.12 153.14,-296.28"/>
<polygon fill="midnightblue" stroke="midnightblue" points="64.19,-327.44 57.17,-335.38 67.61,-333.55 64.19,-327.44"/>
</g>
<!-- Node63 -->
<g id="node13" class="node">
<title>Node63</title>
<g id="a_node13"><a xlink:href="structGetCoulombPrefactor.html" target="_top" xlink:title="Get the electrostatics prefactor.">
<polygon fill="none" stroke="black" points="137,-240.5 137,-259.5 259,-259.5 259,-240.5 137,-240.5"/>
<text text-anchor="middle" x="198" y="-247.5" font-family="Helvetica,sans-Serif" font-size="10.00">GetCoulombPrefactor</text>
</a>
</g>
</g>
<!-- Node51&#45;&gt;Node63 -->
<g id="edge12" class="edge">
<title>Node51&#45;&gt;Node63</title>
<path fill="none" stroke="midnightblue" d="M53.79,-327.11C67.28,-309.6 90.12,-283.52 116,-269 122.93,-265.11 130.62,-262.02 138.42,-259.56"/>
<polygon fill="midnightblue" stroke="midnightblue" points="50.8,-325.26 47.63,-335.37 56.41,-329.45 50.8,-325.26"/>
</g>
<!-- Node64 -->
<g id="node14" class="node">
<title>Node64</title>
<g id="a_node14"><a xlink:href="structGetDipolesPrefactor.html" target="_top" xlink:title="Get the magnetostatics prefactor.">
<polygon fill="none" stroke="black" points="140.5,-202.5 140.5,-221.5 255.5,-221.5 255.5,-202.5 140.5,-202.5"/>
<text text-anchor="middle" x="198" y="-209.5" font-family="Helvetica,sans-Serif" font-size="10.00">GetDipolesPrefactor</text>
</a>
</g>
</g>
<!-- Node51&#45;&gt;Node64 -->
<g id="edge13" class="edge">
<title>Node51&#45;&gt;Node64</title>
<path fill="none" stroke="midnightblue" d="M48.26,-325.84C59.02,-300.14 81.69,-254.96 116,-231 123.22,-225.96 131.6,-222.24 140.18,-219.5"/>
<polygon fill="midnightblue" stroke="midnightblue" points="44.96,-324.67 44.49,-335.25 51.46,-327.27 44.96,-324.67"/>
</g>
<!-- Node65 -->
<g id="node15" class="node">
<title>Node65</title>
<g id="a_node15"><a xlink:href="structHasActorOfType.html" target="_top" xlink:title="Check if an actor of a specific type is active, recursively.">
<polygon fill="none" stroke="black" points="126.5,-164.5 126.5,-183.5 269.5,-183.5 269.5,-164.5 126.5,-164.5"/>
<text text-anchor="middle" x="198" y="-171.5" font-family="Helvetica,sans-Serif" font-size="10.00">HasActorOfType&lt; Actor &gt;</text>
</a>
</g>
</g>
<!-- Node51&#45;&gt;Node65 -->
<g id="edge14" class="edge">
<title>Node51&#45;&gt;Node65</title>
<path fill="none" stroke="midnightblue" d="M45.02,-325.26C52.77,-292.53 72.93,-227.22 116,-193 120.86,-189.14 126.38,-186.03 132.19,-183.55"/>
<polygon fill="midnightblue" stroke="midnightblue" points="41.53,-324.86 42.79,-335.38 48.36,-326.37 41.53,-324.86"/>
</g>
<!-- Node66 -->
<g id="node16" class="node">
<title>Node66</title>
<g id="a_node16"><a xlink:href="classLeesEdwards_1_1PosOffsetGetter.html" target="_top" xlink:title=" ">
<polygon fill="none" stroke="black" points="116,-126.5 116,-145.5 280,-145.5 280,-126.5 116,-126.5"/>
<text text-anchor="middle" x="198" y="-133.5" font-family="Helvetica,sans-Serif" font-size="10.00">LeesEdwards::PosOffsetGetter</text>
</a>
</g>
</g>
<!-- Node51&#45;&gt;Node66 -->
<g id="edge15" class="edge">
<title>Node51&#45;&gt;Node66</title>
<path fill="none" stroke="midnightblue" d="M42.85,-325.34C47.59,-286.59 63.74,-200.16 116,-155 120.48,-151.13 125.6,-148.01 131.05,-145.5"/>
<polygon fill="midnightblue" stroke="midnightblue" points="39.36,-325.02 41.76,-335.34 46.32,-325.78 39.36,-325.02"/>
</g>
<!-- Node67 -->
<g id="node17" class="node">
<title>Node67</title>
<g id="a_node17"><a xlink:href="classLeesEdwards_1_1ShearVelocityGetter.html" target="_top" xlink:title="Visitor to get shear velocity from the Lees&#45;Edwards protocol.">
<polygon fill="none" stroke="black" points="121,-77 121,-107 275,-107 275,-77 121,-77"/>
<text text-anchor="start" x="129" y="-95" font-family="Helvetica,sans-Serif" font-size="10.00">LeesEdwards::ShearVelocity</text>
<text text-anchor="middle" x="198" y="-84" font-family="Helvetica,sans-Serif" font-size="10.00">Getter</text>
</a>
</g>
</g>
<!-- Node51&#45;&gt;Node67 -->
<g id="edge16" class="edge">
<title>Node51&#45;&gt;Node67</title>
<path fill="none" stroke="midnightblue" d="M41.69,-324.9C44.3,-280.85 56.77,-175.15 116,-117 119.89,-113.19 124.34,-109.95 129.12,-107.21"/>
<polygon fill="midnightblue" stroke="midnightblue" points="38.18,-324.99 41.2,-335.15 45.17,-325.33 38.18,-324.99"/>
</g>
<!-- Node68 -->
<g id="node18" class="node">
<title>Node68</title>
<g id="a_node18"><a xlink:href="structScriptInterface_1_1PackVisitor.html" target="_top" xlink:title="Visitor that converts a Variant to a PackedVariant.">
<polygon fill="none" stroke="black" points="123.5,-38.5 123.5,-57.5 272.5,-57.5 272.5,-38.5 123.5,-38.5"/>
<text text-anchor="middle" x="198" y="-45.5" font-family="Helvetica,sans-Serif" font-size="10.00">ScriptInterface::PackVisitor</text>
</a>
</g>
</g>
<!-- Node51&#45;&gt;Node68 -->
<g id="edge17" class="edge">
<title>Node51&#45;&gt;Node68</title>
<path fill="none" stroke="midnightblue" d="M43.72,-325.31C51.97,-268.27 78.51,-104.66 116,-68 120.35,-63.75 125.45,-60.35 130.94,-57.64"/>
<polygon fill="midnightblue" stroke="midnightblue" points="40.25,-324.83 42.31,-335.23 47.18,-325.82 40.25,-324.83"/>
</g>
<!-- Node69 -->
<g id="node19" class="node">
<title>Node69</title>
<g id="a_node19"><a xlink:href="structScriptInterface_1_1UnpackVisitor.html" target="_top" xlink:title="Visitor that converts a PackedVariant to a Variant.">
<polygon fill="none" stroke="black" points="117,-0.5 117,-19.5 279,-19.5 279,-0.5 117,-0.5"/>
<text text-anchor="middle" x="198" y="-7.5" font-family="Helvetica,sans-Serif" font-size="10.00">ScriptInterface::UnpackVisitor</text>
</a>
</g>
</g>
<!-- Node51&#45;&gt;Node69 -->
<g id="edge18" class="edge">
<title>Node51&#45;&gt;Node69</title>
<path fill="none" stroke="midnightblue" d="M42.97,-325.45C49.64,-263.26 73.34,-71.55 116,-29 119.78,-25.23 124.17,-22.15 128.89,-19.64"/>
<polygon fill="midnightblue" stroke="midnightblue" points="39.48,-325.18 41.92,-335.49 46.44,-325.91 39.48,-325.18"/>
</g>
</g>
</svg>
