<?xml version="1.0" encoding="UTF-8" standalone="no"?>
<!DOCTYPE svg PUBLIC "-//W3C//DTD SVG 1.1//EN"
 "http://www.w3.org/Graphics/SVG/1.1/DTD/svg11.dtd">
<!-- Generated by graphviz version 2.43.0 (0)
 -->
<!-- Title: Graphical Class Hierarchy Pages: 1 -->
<svg width="297pt" height="78pt"
 viewBox="0.00 0.00 297.00 77.50" xmlns="http://www.w3.org/2000/svg" xmlns:xlink="http://www.w3.org/1999/xlink">
<g id="graph0" class="graph" transform="scale(1 1) rotate(0) translate(4 73.5)">
<title>Graphical Class Hierarchy</title>
<!-- Node403 -->
<g id="node1" class="node">
<title>Node403</title>
<g id="a_node1"><a xlink:title=" ">
<polygon fill="none" stroke="#bfbfbf" points="0,-28 0,-47 91,-47 91,-28 0,-28"/>
<text text-anchor="middle" x="45.5" y="-35" font-family="Helvetica,sans-Serif" font-size="10.00">iterator_facade</text>
</a>
</g>
</g>
<!-- Node0 -->
<g id="node2" class="node">
<title>Node0</title>
<g id="a_node2"><a xlink:href="classBondList_1_1Iterator.html" target="_top" xlink:title=" ">
<polygon fill="none" stroke="black" points="157.5,-50 157.5,-69 258.5,-69 258.5,-50 157.5,-50"/>
<text text-anchor="middle" x="208" y="-57" font-family="Helvetica,sans-Serif" font-size="10.00">BondList::Iterator</text>
</a>
</g>
</g>
<!-- Node403&#45;&gt;Node0 -->
<g id="edge1" class="edge">
<title>Node403&#45;&gt;Node0</title>
<path fill="none" stroke="midnightblue" d="M101.12,-44.99C119.38,-47.49 139.61,-50.26 157.46,-52.71"/>
<polygon fill="midnightblue" stroke="midnightblue" points="101.59,-41.52 91.21,-43.63 100.64,-48.45 101.59,-41.52"/>
</g>
<!-- Node405 -->
<g id="node3" class="node">
<title>Node405</title>
<g id="a_node3"><a xlink:href="structParticleIterator.html" target="_top" xlink:title=" ">
<polygon fill="none" stroke="black" points="127,-0.5 127,-30.5 289,-30.5 289,-0.5 127,-0.5"/>
<text text-anchor="start" x="135" y="-18.5" font-family="Helvetica,sans-Serif" font-size="10.00">ParticleIterator&lt; Bidirectional</text>
<text text-anchor="middle" x="208" y="-7.5" font-family="Helvetica,sans-Serif" font-size="10.00">Iterator &gt;</text>
</a>
</g>
</g>
<!-- Node403&#45;&gt;Node405 -->
<g id="edge2" class="edge">
<title>Node403&#45;&gt;Node405</title>
<path fill="none" stroke="midnightblue" d="M101.12,-30.01C109.43,-28.87 118.16,-27.68 126.88,-26.48"/>
<polygon fill="midnightblue" stroke="midnightblue" points="100.64,-26.55 91.21,-31.37 101.59,-33.48 100.64,-26.55"/>
</g>
</g>
</svg>
