<?xml version="1.0" encoding="UTF-8" standalone="no"?>
<!DOCTYPE svg PUBLIC "-//W3C//DTD SVG 1.1//EN"
 "http://www.w3.org/Graphics/SVG/1.1/DTD/svg11.dtd">
<!-- Generated by graphviz version 2.43.0 (0)
 -->
<!-- Title: Graphical Class Hierarchy Pages: 1 -->
<svg width="540pt" height="400pt"
 viewBox="0.00 0.00 540.00 400.00" xmlns="http://www.w3.org/2000/svg" xmlns:xlink="http://www.w3.org/1999/xlink">
<g id="graph0" class="graph" transform="scale(1 1) rotate(0) translate(4 396)">
<title>Graphical Class Hierarchy</title>
<!-- Node684 -->
<g id="node1" class="node">
<title>Node684</title>
<g id="a_node1"><a xlink:title=" ">
<polygon fill="none" stroke="#bfbfbf" points="0,-181.5 0,-200.5 72,-200.5 72,-181.5 0,-181.5"/>
<text text-anchor="middle" x="36" y="-188.5" font-family="Helvetica,sans-Serif" font-size="10.00">Observable</text>
</a>
</g>
</g>
<!-- Node0 -->
<g id="node2" class="node">
<title>Node0</title>
<g id="a_node2"><a xlink:href="classScriptInterface_1_1AutoParameters.html" target="_top" xlink:title=" ">
<polygon fill="none" stroke="black" points="117.5,-350.5 117.5,-391.5 289.5,-391.5 289.5,-350.5 117.5,-350.5"/>
<text text-anchor="start" x="125.5" y="-379.5" font-family="Helvetica,sans-Serif" font-size="10.00">ScriptInterface::AutoParameters</text>
<text text-anchor="start" x="125.5" y="-368.5" font-family="Helvetica,sans-Serif" font-size="10.00">&lt; PidObservable&lt; CorePidObs</text>
<text text-anchor="middle" x="203.5" y="-357.5" font-family="Helvetica,sans-Serif" font-size="10.00"> &gt;, Observable &gt;</text>
</a>
</g>
</g>
<!-- Node684&#45;&gt;Node0 -->
<g id="edge1" class="edge">
<title>Node684&#45;&gt;Node0</title>
<path fill="none" stroke="midnightblue" d="M40.96,-210.57C48.44,-242.49 67.63,-305.73 108,-341 112.02,-344.51 116.45,-347.61 121.13,-350.35"/>
<polygon fill="midnightblue" stroke="midnightblue" points="44.35,-209.7 38.79,-200.68 37.52,-211.2 44.35,-209.7"/>
</g>
<!-- Node687 -->
<g id="node4" class="node">
<title>Node687</title>
<g id="a_node4"><a xlink:href="classScriptInterface_1_1AutoParameters.html" target="_top" xlink:title=" ">
<polygon fill="none" stroke="black" points="112.5,-290.5 112.5,-331.5 294.5,-331.5 294.5,-290.5 112.5,-290.5"/>
<text text-anchor="start" x="120.5" y="-319.5" font-family="Helvetica,sans-Serif" font-size="10.00">ScriptInterface::AutoParameters</text>
<text text-anchor="start" x="120.5" y="-308.5" font-family="Helvetica,sans-Serif" font-size="10.00">&lt; PidProfileObservable&lt; CoreObs</text>
<text text-anchor="middle" x="203.5" y="-297.5" font-family="Helvetica,sans-Serif" font-size="10.00"> &gt;, Observable &gt;</text>
</a>
</g>
</g>
<!-- Node684&#45;&gt;Node687 -->
<g id="edge3" class="edge">
<title>Node684&#45;&gt;Node687</title>
<path fill="none" stroke="midnightblue" d="M47.11,-209.63C59.08,-230 80.85,-262.22 108,-281 113.1,-284.53 118.63,-287.65 124.37,-290.42"/>
<polygon fill="midnightblue" stroke="midnightblue" points="50.02,-207.67 42.04,-200.7 43.93,-211.12 50.02,-207.67"/>
</g>
<!-- Node689 -->
<g id="node6" class="node">
<title>Node689</title>
<g id="a_node6"><a xlink:href="classScriptInterface_1_1AutoParameters.html" target="_top" xlink:title=" ">
<polygon fill="none" stroke="black" points="113,-230.5 113,-271.5 294,-271.5 294,-230.5 113,-230.5"/>
<text text-anchor="start" x="121" y="-259.5" font-family="Helvetica,sans-Serif" font-size="10.00">ScriptInterface::AutoParameters</text>
<text text-anchor="start" x="121" y="-248.5" font-family="Helvetica,sans-Serif" font-size="10.00">&lt; CylindricalPidProfileObservable</text>
<text text-anchor="middle" x="203.5" y="-237.5" font-family="Helvetica,sans-Serif" font-size="10.00">&lt; CoreObs &gt;, Observable &gt;</text>
</a>
</g>
</g>
<!-- Node684&#45;&gt;Node689 -->
<g id="edge5" class="edge">
<title>Node684&#45;&gt;Node689</title>
<path fill="none" stroke="midnightblue" d="M67.67,-204.69C80.09,-210.04 94.63,-216.06 108,-221 116.72,-224.22 125.97,-227.41 135.13,-230.45"/>
<polygon fill="midnightblue" stroke="midnightblue" points="68.8,-201.36 58.23,-200.58 66,-207.78 68.8,-201.36"/>
</g>
<!-- Node691 -->
<g id="node8" class="node">
<title>Node691</title>
<g id="a_node8"><a xlink:href="classScriptInterface_1_1AutoParameters.html" target="_top" xlink:title=" ">
<polygon fill="none" stroke="black" points="108,-170.5 108,-211.5 299,-211.5 299,-170.5 108,-170.5"/>
<text text-anchor="start" x="116" y="-199.5" font-family="Helvetica,sans-Serif" font-size="10.00">ScriptInterface::AutoParameters</text>
<text text-anchor="start" x="116" y="-188.5" font-family="Helvetica,sans-Serif" font-size="10.00">&lt; LBProfileObservable&lt; CoreLBObs</text>
<text text-anchor="middle" x="203.5" y="-177.5" font-family="Helvetica,sans-Serif" font-size="10.00"> &gt;, Observable &gt;</text>
</a>
</g>
</g>
<!-- Node684&#45;&gt;Node691 -->
<g id="edge7" class="edge">
<title>Node684&#45;&gt;Node691</title>
<path fill="none" stroke="midnightblue" d="M82.31,-191C90.38,-191 99.04,-191 107.88,-191"/>
<polygon fill="midnightblue" stroke="midnightblue" points="82.1,-187.5 72.1,-191 82.1,-194.5 82.1,-187.5"/>
</g>
<!-- Node693 -->
<g id="node10" class="node">
<title>Node693</title>
<g id="a_node10"><a xlink:href="classScriptInterface_1_1AutoParameters.html" target="_top" xlink:title=" ">
<polygon fill="none" stroke="black" points="113,-110.5 113,-151.5 294,-151.5 294,-110.5 113,-110.5"/>
<text text-anchor="start" x="121" y="-139.5" font-family="Helvetica,sans-Serif" font-size="10.00">ScriptInterface::AutoParameters</text>
<text text-anchor="start" x="121" y="-128.5" font-family="Helvetica,sans-Serif" font-size="10.00">&lt; CylindricalLBProfileObservable</text>
<text text-anchor="middle" x="203.5" y="-117.5" font-family="Helvetica,sans-Serif" font-size="10.00">&lt; CoreCylLBObs &gt;, Observable &gt;</text>
</a>
</g>
</g>
<!-- Node684&#45;&gt;Node693 -->
<g id="edge9" class="edge">
<title>Node684&#45;&gt;Node693</title>
<path fill="none" stroke="midnightblue" d="M67.67,-177.31C80.09,-171.96 94.63,-165.94 108,-161 116.72,-157.78 125.97,-154.59 135.13,-151.55"/>
<polygon fill="midnightblue" stroke="midnightblue" points="66,-174.22 58.23,-181.42 68.8,-180.64 66,-174.22"/>
</g>
<!-- Node695 -->
<g id="node12" class="node">
<title>Node695</title>
<g id="a_node12"><a xlink:href="classScriptInterface_1_1AutoParameters.html" target="_top" xlink:title=" ">
<polygon fill="none" stroke="black" points="117.5,-61 117.5,-91 289.5,-91 289.5,-61 117.5,-61"/>
<text text-anchor="start" x="125.5" y="-79" font-family="Helvetica,sans-Serif" font-size="10.00">ScriptInterface::AutoParameters</text>
<text text-anchor="middle" x="203.5" y="-68" font-family="Helvetica,sans-Serif" font-size="10.00">&lt; RDF, Observable &gt;</text>
</a>
</g>
</g>
<!-- Node684&#45;&gt;Node695 -->
<g id="edge11" class="edge">
<title>Node684&#45;&gt;Node695</title>
<path fill="none" stroke="midnightblue" d="M46.76,-172.44C58.54,-151.87 80.26,-119.2 108,-101 113.96,-97.09 120.51,-93.79 127.29,-91"/>
<polygon fill="midnightblue" stroke="midnightblue" points="43.56,-171 41.8,-181.45 49.69,-174.38 43.56,-171"/>
</g>
<!-- Node697 -->
<g id="node14" class="node">
<title>Node697</title>
<g id="a_node14"><a xlink:href="classScriptInterface_1_1AutoParameters.html" target="_top" xlink:title=" ">
<polygon fill="none" stroke="black" points="117.5,-0.5 117.5,-41.5 289.5,-41.5 289.5,-0.5 117.5,-0.5"/>
<text text-anchor="start" x="125.5" y="-29.5" font-family="Helvetica,sans-Serif" font-size="10.00">ScriptInterface::AutoParameters</text>
<text text-anchor="start" x="125.5" y="-18.5" font-family="Helvetica,sans-Serif" font-size="10.00">&lt; ProfileObservable&lt; CoreObs</text>
<text text-anchor="middle" x="203.5" y="-7.5" font-family="Helvetica,sans-Serif" font-size="10.00"> &gt;, Observable &gt;</text>
</a>
</g>
</g>
<!-- Node684&#45;&gt;Node697 -->
<g id="edge13" class="edge">
<title>Node684&#45;&gt;Node697</title>
<path fill="none" stroke="midnightblue" d="M41.77,-171.63C50.13,-141.71 70.23,-84.32 108,-52 112.59,-48.07 117.69,-44.64 123.08,-41.64"/>
<polygon fill="midnightblue" stroke="midnightblue" points="38.38,-170.75 39.21,-181.32 45.15,-172.54 38.38,-170.75"/>
</g>
<!-- Node1 -->
<g id="node3" class="node">
<title>Node1</title>
<g id="a_node3"><a xlink:href="classScriptInterface_1_1Observables_1_1PidObservable.html" target="_top" xlink:title="Base class for script interfaces to particle&#45;based observables.">
<polygon fill="none" stroke="black" points="347.5,-356 347.5,-386 519.5,-386 519.5,-356 347.5,-356"/>
<text text-anchor="start" x="355.5" y="-374" font-family="Helvetica,sans-Serif" font-size="10.00">ScriptInterface::Observables</text>
<text text-anchor="middle" x="433.5" y="-363" font-family="Helvetica,sans-Serif" font-size="10.00">::PidObservable&lt; CorePidObs &gt;</text>
</a>
</g>
</g>
<!-- Node0&#45;&gt;Node1 -->
<g id="edge2" class="edge">
<title>Node0&#45;&gt;Node1</title>
<path fill="none" stroke="midnightblue" d="M299.98,-371C315.71,-371 331.92,-371 347.38,-371"/>
<polygon fill="midnightblue" stroke="midnightblue" points="299.72,-367.5 289.72,-371 299.72,-374.5 299.72,-367.5"/>
</g>
<!-- Node688 -->
<g id="node5" class="node">
<title>Node688</title>
<g id="a_node5"><a xlink:href="classScriptInterface_1_1Observables_1_1PidProfileObservable.html" target="_top" xlink:title=" ">
<polygon fill="none" stroke="black" points="339.5,-296 339.5,-326 527.5,-326 527.5,-296 339.5,-296"/>
<text text-anchor="start" x="347.5" y="-314" font-family="Helvetica,sans-Serif" font-size="10.00">ScriptInterface::Observables</text>
<text text-anchor="middle" x="433.5" y="-303" font-family="Helvetica,sans-Serif" font-size="10.00">::PidProfileObservable&lt; CoreObs &gt;</text>
</a>
</g>
</g>
<!-- Node687&#45;&gt;Node688 -->
<g id="edge4" class="edge">
<title>Node687&#45;&gt;Node688</title>
<path fill="none" stroke="midnightblue" d="M304.67,-311C316.18,-311 327.89,-311 339.3,-311"/>
<polygon fill="midnightblue" stroke="midnightblue" points="304.61,-307.5 294.61,-311 304.61,-314.5 304.61,-307.5"/>
</g>
<!-- Node690 -->
<g id="node7" class="node">
<title>Node690</title>
<g id="a_node7"><a xlink:href="classScriptInterface_1_1Observables_1_1CylindricalPidProfileObservable.html" target="_top" xlink:title=" ">
<polygon fill="none" stroke="black" points="345.5,-230.5 345.5,-271.5 521.5,-271.5 521.5,-230.5 345.5,-230.5"/>
<text text-anchor="start" x="353.5" y="-259.5" font-family="Helvetica,sans-Serif" font-size="10.00">ScriptInterface::Observables</text>
<text text-anchor="start" x="353.5" y="-248.5" font-family="Helvetica,sans-Serif" font-size="10.00">::CylindricalPidProfileObservable</text>
<text text-anchor="middle" x="433.5" y="-237.5" font-family="Helvetica,sans-Serif" font-size="10.00">&lt; CoreObs &gt;</text>
</a>
</g>
</g>
<!-- Node689&#45;&gt;Node690 -->
<g id="edge6" class="edge">
<title>Node689&#45;&gt;Node690</title>
<path fill="none" stroke="midnightblue" d="M304.61,-251C318.21,-251 332.07,-251 345.41,-251"/>
<polygon fill="midnightblue" stroke="midnightblue" points="304.28,-247.5 294.28,-251 304.28,-254.5 304.28,-247.5"/>
</g>
<!-- Node692 -->
<g id="node9" class="node">
<title>Node692</title>
<g id="a_node9"><a xlink:href="classScriptInterface_1_1Observables_1_1LBProfileObservable.html" target="_top" xlink:title=" ">
<polygon fill="none" stroke="black" points="335,-176 335,-206 532,-206 532,-176 335,-176"/>
<text text-anchor="start" x="343" y="-194" font-family="Helvetica,sans-Serif" font-size="10.00">ScriptInterface::Observables</text>
<text text-anchor="middle" x="433.5" y="-183" font-family="Helvetica,sans-Serif" font-size="10.00">::LBProfileObservable&lt; CoreLBObs &gt;</text>
</a>
</g>
</g>
<!-- Node691&#45;&gt;Node692 -->
<g id="edge8" class="edge">
<title>Node691&#45;&gt;Node692</title>
<path fill="none" stroke="midnightblue" d="M309.46,-191C317.89,-191 326.39,-191 334.77,-191"/>
<polygon fill="midnightblue" stroke="midnightblue" points="309.21,-187.5 299.21,-191 309.21,-194.5 309.21,-187.5"/>
</g>
<!-- Node694 -->
<g id="node11" class="node">
<title>Node694</title>
<g id="a_node11"><a xlink:href="classScriptInterface_1_1Observables_1_1CylindricalLBProfileObservable.html" target="_top" xlink:title=" ">
<polygon fill="none" stroke="black" points="347,-110.5 347,-151.5 520,-151.5 520,-110.5 347,-110.5"/>
<text text-anchor="start" x="355" y="-139.5" font-family="Helvetica,sans-Serif" font-size="10.00">ScriptInterface::Observables</text>
<text text-anchor="start" x="355" y="-128.5" font-family="Helvetica,sans-Serif" font-size="10.00">::CylindricalLBProfileObservable</text>
<text text-anchor="middle" x="433.5" y="-117.5" font-family="Helvetica,sans-Serif" font-size="10.00">&lt; CoreCylLBObs &gt;</text>
</a>
</g>
</g>
<!-- Node693&#45;&gt;Node694 -->
<g id="edge10" class="edge">
<title>Node693&#45;&gt;Node694</title>
<path fill="none" stroke="midnightblue" d="M304.51,-131C318.64,-131 333.07,-131 346.89,-131"/>
<polygon fill="midnightblue" stroke="midnightblue" points="304.28,-127.5 294.28,-131 304.28,-134.5 304.28,-127.5"/>
</g>
<!-- Node696 -->
<g id="node13" class="node">
<title>Node696</title>
<g id="a_node13"><a xlink:href="classScriptInterface_1_1Observables_1_1RDF.html" target="_top" xlink:title=" ">
<polygon fill="none" stroke="black" points="343,-66.5 343,-85.5 524,-85.5 524,-66.5 343,-66.5"/>
<text text-anchor="middle" x="433.5" y="-73.5" font-family="Helvetica,sans-Serif" font-size="10.00">ScriptInterface::Observables::RDF</text>
</a>
</g>
</g>
<!-- Node695&#45;&gt;Node696 -->
<g id="edge12" class="edge">
<title>Node695&#45;&gt;Node696</title>
<path fill="none" stroke="midnightblue" d="M299.97,-76C314.16,-76 328.74,-76 342.81,-76"/>
<polygon fill="midnightblue" stroke="midnightblue" points="299.72,-72.5 289.72,-76 299.72,-79.5 299.72,-72.5"/>
</g>
<!-- Node698 -->
<g id="node15" class="node">
<title>Node698</title>
<g id="a_node15"><a xlink:href="classScriptInterface_1_1Observables_1_1ProfileObservable.html" target="_top" xlink:title=" ">
<polygon fill="none" stroke="black" points="347,-6 347,-36 520,-36 520,-6 347,-6"/>
<text text-anchor="start" x="355" y="-24" font-family="Helvetica,sans-Serif" font-size="10.00">ScriptInterface::Observables</text>
<text text-anchor="middle" x="433.5" y="-13" font-family="Helvetica,sans-Serif" font-size="10.00">::ProfileObservable&lt; CoreObs &gt;</text>
</a>
</g>
</g>
<!-- Node697&#45;&gt;Node698 -->
<g id="edge14" class="edge">
<title>Node697&#45;&gt;Node698</title>
<path fill="none" stroke="midnightblue" d="M299.84,-21C315.36,-21 331.35,-21 346.62,-21"/>
<polygon fill="midnightblue" stroke="midnightblue" points="299.72,-17.5 289.72,-21 299.72,-24.5 299.72,-17.5"/>
</g>
</g>
</svg>
