<?xml version="1.0" encoding="UTF-8" standalone="no"?>
<!DOCTYPE svg PUBLIC "-//W3C//DTD SVG 1.1//EN"
 "http://www.w3.org/Graphics/SVG/1.1/DTD/svg11.dtd">
<!-- Generated by graphviz version 2.43.0 (0)
 -->
<!-- Title: Graphical Class Hierarchy Pages: 1 -->
<svg width="283pt" height="78pt"
 viewBox="0.00 0.00 283.00 77.50" xmlns="http://www.w3.org/2000/svg" xmlns:xlink="http://www.w3.org/1999/xlink">
<g id="graph0" class="graph" transform="scale(1 1) rotate(0) translate(4 73.5)">
<title>Graphical Class Hierarchy</title>
<!-- Node315 -->
<g id="node1" class="node">
<title>Node315</title>
<g id="a_node1"><a xlink:title=" ">
<polygon fill="none" stroke="#bfbfbf" points="0,-28 0,-47 119,-47 119,-28 0,-28"/>
<text text-anchor="middle" x="59.5" y="-35" font-family="Helvetica,sans-Serif" font-size="10.00">boost::iterator_range</text>
</a>
</g>
</g>
<!-- Node0 -->
<g id="node2" class="node">
<title>Node0</title>
<g id="a_node2"><a xlink:href="classParticleRange.html" target="_top" xlink:title="A range of particles.">
<polygon fill="none" stroke="black" points="173.5,-50 173.5,-69 256.5,-69 256.5,-50 173.5,-50"/>
<text text-anchor="middle" x="215" y="-57" font-family="Helvetica,sans-Serif" font-size="10.00">ParticleRange</text>
</a>
</g>
</g>
<!-- Node315&#45;&gt;Node0 -->
<g id="edge1" class="edge">
<title>Node315&#45;&gt;Node0</title>
<path fill="none" stroke="midnightblue" d="M129.61,-47.4C144.47,-49.53 159.72,-51.72 173.09,-53.64"/>
<polygon fill="midnightblue" stroke="midnightblue" points="129.8,-43.9 119.41,-45.94 128.81,-50.83 129.8,-43.9"/>
</g>
<!-- Node317 -->
<g id="node3" class="node">
<title>Node317</title>
<g id="a_node3"><a xlink:href="classParticleRangeFiltered.html" target="_top" xlink:title=" ">
<polygon fill="none" stroke="black" points="155,-0.5 155,-30.5 275,-30.5 275,-0.5 155,-0.5"/>
<text text-anchor="start" x="163" y="-18.5" font-family="Helvetica,sans-Serif" font-size="10.00">ParticleRangeFiltered</text>
<text text-anchor="middle" x="215" y="-7.5" font-family="Helvetica,sans-Serif" font-size="10.00">&lt; Predicate &gt;</text>
</a>
</g>
</g>
<!-- Node315&#45;&gt;Node317 -->
<g id="edge2" class="edge">
<title>Node315&#45;&gt;Node317</title>
<path fill="none" stroke="midnightblue" d="M129.36,-27.63C137.92,-26.4 146.61,-25.16 155,-23.96"/>
<polygon fill="midnightblue" stroke="midnightblue" points="128.81,-24.17 119.41,-29.06 129.8,-31.1 128.81,-24.17"/>
</g>
</g>
</svg>
