<?xml version="1.0" encoding="UTF-8" standalone="no"?>
<!DOCTYPE svg PUBLIC "-//W3C//DTD SVG 1.1//EN"
 "http://www.w3.org/Graphics/SVG/1.1/DTD/svg11.dtd">
<!-- Generated by graphviz version 2.43.0 (0)
 -->
<!-- Title: Graphical Class Hierarchy Pages: 1 -->
<svg width="282pt" height="86pt"
 viewBox="0.00 0.00 282.00 86.00" xmlns="http://www.w3.org/2000/svg" xmlns:xlink="http://www.w3.org/1999/xlink">
<g id="graph0" class="graph" transform="scale(1 1) rotate(0) translate(4 82)">
<title>Graphical Class Hierarchy</title>
<!-- Node0 -->
<g id="Node000000" class="node">
<title>Node0</title>
<g id="a_Node000000"><a xlink:href="structfft_1_1fft__plan.html" target="_top" xlink:title=" ">
<polygon fill="white" stroke="#666666" points="140,-48.5 0,-48.5 0,-29.5 140,-29.5 140,-48.5"/>
<text text-anchor="middle" x="70" y="-36.5" font-family="Helvetica,sans-Serif" font-size="10.00">fft::fft_plan&lt; FloatType &gt;</text>
</a>
</g>
</g>
<!-- Node1 -->
<g id="Node000001" class="node">
<title>Node1</title>
<g id="a_Node000001"><a xlink:href="structfft_1_1fft__back__plan.html" target="_top" xlink:title="Plan for a backward 1D FFT of a flattened 3D array.">
<polygon fill="white" stroke="#666666" points="274,-78 176,-78 176,-48 274,-48 274,-78"/>
<text text-anchor="start" x="184" y="-66" font-family="Helvetica,sans-Serif" font-size="10.00">fft::fft_back_plan</text>
<text text-anchor="middle" x="225" y="-55" font-family="Helvetica,sans-Serif" font-size="10.00">&lt; FloatType &gt;</text>
</a>
</g>
</g>
<!-- Node0&#45;&gt;Node1 -->
<g id="edge23_Node000000_Node000001" class="edge">
<title>Node0&#45;&gt;Node1</title>
<g id="a_edge23_Node000000_Node000001"><a xlink:title=" ">
<path fill="none" stroke="#63b8ff" d="M141.86,-50.12C153.26,-51.9 164.83,-53.72 175.55,-55.4"/>
<polygon fill="#63b8ff" stroke="#63b8ff" points="142.33,-46.65 131.91,-48.55 141.25,-53.56 142.33,-46.65"/>
</a>
</g>
</g>
<!-- Node2 -->
<g id="Node000002" class="node">
<title>Node2</title>
<g id="a_Node000002"><a xlink:href="structfft_1_1fft__forw__plan.html" target="_top" xlink:title="Plan for a forward 1D FFT of a flattened 3D array.">
<polygon fill="white" stroke="#666666" points="273.5,-30 176.5,-30 176.5,0 273.5,0 273.5,-30"/>
<text text-anchor="start" x="184.5" y="-18" font-family="Helvetica,sans-Serif" font-size="10.00">fft::fft_forw_plan</text>
<text text-anchor="middle" x="225" y="-7" font-family="Helvetica,sans-Serif" font-size="10.00">&lt; FloatType &gt;</text>
</a>
</g>
</g>
<!-- Node0&#45;&gt;Node2 -->
<g id="edge24_Node000000_Node000002" class="edge">
<title>Node0&#45;&gt;Node2</title>
<g id="a_edge24_Node000000_Node000002"><a xlink:title=" ">
<path fill="none" stroke="#63b8ff" d="M142.09,-27.85C153.75,-26.02 165.59,-24.16 176.5,-22.45"/>
<polygon fill="#63b8ff" stroke="#63b8ff" points="141.25,-24.44 131.91,-29.45 142.33,-31.35 141.25,-24.44"/>
</a>
</g>
</g>
</g>
</svg>
