<?xml version="1.0" encoding="UTF-8" standalone="no"?>
<!DOCTYPE svg PUBLIC "-//W3C//DTD SVG 1.1//EN"
 "http://www.w3.org/Graphics/SVG/1.1/DTD/svg11.dtd">
<!-- Generated by graphviz version 2.43.0 (0)
 -->
<!-- Title: Integrator.hpp Pages: 1 -->
<svg width="1200pt" height="137pt"
 viewBox="0.00 0.00 1199.50 137.00" xmlns="http://www.w3.org/2000/svg" xmlns:xlink="http://www.w3.org/1999/xlink">
<g id="graph0" class="graph" transform="scale(1 1) rotate(0) translate(4 133)">
<title>Integrator.hpp</title>
<!-- Node1 -->
<g id="Node000001" class="node">
<title>Node1</title>
<g id="a_Node000001"><a xlink:title=" ">
<polygon fill="#999999" stroke="#666666" points="720,-129 635,-129 635,-110 720,-110 720,-129"/>
<text text-anchor="middle" x="677.5" y="-117" font-family="Helvetica,sans-Serif" font-size="10.00">Integrator.hpp</text>
</a>
</g>
</g>
<!-- Node2 -->
<g id="Node000002" class="node">
<title>Node2</title>
<g id="a_Node000002"><a xlink:href="BrownianDynamics_8hpp.html" target="_top" xlink:title=" ">
<polygon fill="white" stroke="#666666" points="247.5,-74 115.5,-74 115.5,-55 247.5,-55 247.5,-74"/>
<text text-anchor="middle" x="181.5" y="-62" font-family="Helvetica,sans-Serif" font-size="10.00">BrownianDynamics.hpp</text>
</a>
</g>
</g>
<!-- Node1&#45;&gt;Node2 -->
<g id="edge1_Node000001_Node000002" class="edge">
<title>Node1&#45;&gt;Node2</title>
<g id="a_edge1_Node000001_Node000002"><a xlink:title=" ">
<path fill="none" stroke="#63b8ff" d="M624.48,-113.02C544.64,-104.75 388.83,-88.49 256.5,-74 253.63,-73.69 250.71,-73.36 247.75,-73.04"/>
<polygon fill="#63b8ff" stroke="#63b8ff" points="624.45,-116.54 634.76,-114.09 625.17,-109.58 624.45,-116.54"/>
</a>
</g>
</g>
<!-- Node6 -->
<g id="Node000006" class="node">
<title>Node6</title>
<g id="a_Node000006"><a xlink:href="Integrator_8cpp.html" target="_top" xlink:title=" ">
<polygon fill="white" stroke="#666666" points="1191.5,-74 1107.5,-74 1107.5,-55 1191.5,-55 1191.5,-74"/>
<text text-anchor="middle" x="1149.5" y="-62" font-family="Helvetica,sans-Serif" font-size="10.00">Integrator.cpp</text>
</a>
</g>
</g>
<!-- Node1&#45;&gt;Node6 -->
<g id="edge5_Node000001_Node000006" class="edge">
<title>Node1&#45;&gt;Node6</title>
<g id="a_edge5_Node000001_Node000006"><a xlink:title=" ">
<path fill="none" stroke="#63b8ff" d="M730.32,-113.94C810.19,-106.81 966.42,-91.97 1098.5,-74 1101.35,-73.61 1104.28,-73.19 1107.23,-72.75"/>
<polygon fill="#63b8ff" stroke="#63b8ff" points="729.68,-110.48 720.03,-114.85 730.3,-117.46 729.68,-110.48"/>
</a>
</g>
</g>
<!-- Node7 -->
<g id="Node000007" class="node">
<title>Node7</title>
<g id="a_Node000007"><a xlink:href="IntegratorHandle_8hpp.html" target="_top" xlink:title=" ">
<polygon fill="white" stroke="#666666" points="1089.5,-74 969.5,-74 969.5,-55 1089.5,-55 1089.5,-74"/>
<text text-anchor="middle" x="1029.5" y="-62" font-family="Helvetica,sans-Serif" font-size="10.00">IntegratorHandle.hpp</text>
</a>
</g>
</g>
<!-- Node1&#45;&gt;Node7 -->
<g id="edge6_Node000001_Node000007" class="edge">
<title>Node1&#45;&gt;Node7</title>
<g id="a_edge6_Node000001_Node000007"><a xlink:title=" ">
<path fill="none" stroke="#63b8ff" d="M730.37,-110.54C795.54,-100.73 905.85,-84.12 972.76,-74.04"/>
<polygon fill="#63b8ff" stroke="#63b8ff" points="729.68,-107.1 720.31,-112.05 730.72,-114.03 729.68,-107.1"/>
</a>
</g>
</g>
<!-- Node9 -->
<g id="Node000009" class="node">
<title>Node9</title>
<g id="a_Node000009"><a xlink:href="SteepestDescent_8hpp.html" target="_top" xlink:title=" ">
<polygon fill="white" stroke="#666666" points="385.5,-74 265.5,-74 265.5,-55 385.5,-55 385.5,-74"/>
<text text-anchor="middle" x="325.5" y="-62" font-family="Helvetica,sans-Serif" font-size="10.00">SteepestDescent.hpp</text>
</a>
</g>
</g>
<!-- Node1&#45;&gt;Node9 -->
<g id="edge10_Node000001_Node000009" class="edge">
<title>Node1&#45;&gt;Node9</title>
<g id="a_edge10_Node000001_Node000009"><a xlink:title=" ">
<path fill="none" stroke="#63b8ff" d="M624.63,-110.54C559.46,-100.73 449.15,-84.12 382.24,-74.04"/>
<polygon fill="#63b8ff" stroke="#63b8ff" points="624.28,-114.03 634.69,-112.05 625.32,-107.1 624.28,-114.03"/>
</a>
</g>
</g>
<!-- Node11 -->
<g id="Node000011" class="node">
<title>Node11</title>
<g id="a_Node000011"><a xlink:href="StokesianDynamics_8hpp.html" target="_top" xlink:title=" ">
<polygon fill="white" stroke="#666666" points="537.5,-74 403.5,-74 403.5,-55 537.5,-55 537.5,-74"/>
<text text-anchor="middle" x="470.5" y="-62" font-family="Helvetica,sans-Serif" font-size="10.00">StokesianDynamics.hpp</text>
</a>
</g>
</g>
<!-- Node1&#45;&gt;Node11 -->
<g id="edge14_Node000001_Node000011" class="edge">
<title>Node1&#45;&gt;Node11</title>
<g id="a_edge14_Node000001_Node000011"><a xlink:title=" ">
<path fill="none" stroke="#63b8ff" d="M634.29,-107.44C595.54,-97.52 539.47,-83.16 504.02,-74.08"/>
<polygon fill="#63b8ff" stroke="#63b8ff" points="633.69,-110.89 644.24,-109.98 635.42,-104.11 633.69,-110.89"/>
</a>
</g>
</g>
<!-- Node13 -->
<g id="Node000013" class="node">
<title>Node13</title>
<g id="a_Node000013"><a xlink:href="SymplecticEuler_8hpp.html" target="_top" xlink:title=" ">
<polygon fill="white" stroke="#666666" points="671.5,-74 555.5,-74 555.5,-55 671.5,-55 671.5,-74"/>
<text text-anchor="middle" x="613.5" y="-62" font-family="Helvetica,sans-Serif" font-size="10.00">SymplecticEuler.hpp</text>
</a>
</g>
</g>
<!-- Node1&#45;&gt;Node13 -->
<g id="edge18_Node000001_Node000013" class="edge">
<title>Node1&#45;&gt;Node13</title>
<g id="a_edge18_Node000001_Node000013"><a xlink:title=" ">
<path fill="none" stroke="#63b8ff" d="M659.51,-103.6C648.04,-94.11 633.59,-82.13 623.97,-74.17"/>
<polygon fill="#63b8ff" stroke="#63b8ff" points="657.28,-106.3 667.22,-109.98 661.75,-100.91 657.28,-106.3"/>
</a>
</g>
</g>
<!-- Node15 -->
<g id="Node000015" class="node">
<title>Node15</title>
<g id="a_Node000015"><a xlink:href="VelocityVerlet_8hpp.html" target="_top" xlink:title=" ">
<polygon fill="white" stroke="#666666" points="795,-74 690,-74 690,-55 795,-55 795,-74"/>
<text text-anchor="middle" x="742.5" y="-62" font-family="Helvetica,sans-Serif" font-size="10.00">VelocityVerlet.hpp</text>
</a>
</g>
</g>
<!-- Node1&#45;&gt;Node15 -->
<g id="edge22_Node000001_Node000015" class="edge">
<title>Node1&#45;&gt;Node15</title>
<g id="a_edge22_Node000001_Node000015"><a xlink:title=" ">
<path fill="none" stroke="#63b8ff" d="M695.77,-103.6C707.42,-94.11 722.1,-82.13 731.87,-74.17"/>
<polygon fill="#63b8ff" stroke="#63b8ff" points="693.48,-100.95 687.94,-109.98 697.91,-106.38 693.48,-100.95"/>
</a>
</g>
</g>
<!-- Node17 -->
<g id="Node000017" class="node">
<title>Node17</title>
<g id="a_Node000017"><a xlink:href="VelocityVerletIsoNPT_8hpp.html" target="_top" xlink:title=" ">
<polygon fill="white" stroke="#666666" points="951.5,-74 813.5,-74 813.5,-55 951.5,-55 951.5,-74"/>
<text text-anchor="middle" x="882.5" y="-62" font-family="Helvetica,sans-Serif" font-size="10.00">VelocityVerletIsoNPT.hpp</text>
</a>
</g>
</g>
<!-- Node1&#45;&gt;Node17 -->
<g id="edge26_Node000001_Node000017" class="edge">
<title>Node1&#45;&gt;Node17</title>
<g id="a_edge26_Node000001_Node000017"><a xlink:title=" ">
<path fill="none" stroke="#63b8ff" d="M720.29,-107.44C758.67,-97.52 814.19,-83.16 849.31,-74.08"/>
<polygon fill="#63b8ff" stroke="#63b8ff" points="719.24,-104.09 710.44,-109.98 720.99,-110.87 719.24,-104.09"/>
</a>
</g>
</g>
<!-- Node3 -->
<g id="Node000003" class="node">
<title>Node3</title>
<g id="a_Node000003"><a xlink:href="BrownianDynamics_8cpp.html" target="_top" xlink:title=" ">
<polygon fill="white" stroke="#666666" points="131,-19 0,-19 0,0 131,0 131,-19"/>
<text text-anchor="middle" x="65.5" y="-7" font-family="Helvetica,sans-Serif" font-size="10.00">BrownianDynamics.cpp</text>
</a>
</g>
</g>
<!-- Node2&#45;&gt;Node3 -->
<g id="edge2_Node000002_Node000003" class="edge">
<title>Node2&#45;&gt;Node3</title>
<g id="a_edge2_Node000002_Node000003"><a xlink:title=" ">
<path fill="none" stroke="#63b8ff" d="M153.63,-50.77C132.23,-40.99 103.26,-27.75 84.48,-19.17"/>
<polygon fill="#63b8ff" stroke="#63b8ff" points="152.31,-54.01 162.86,-54.98 155.22,-47.65 152.31,-54.01"/>
</a>
</g>
</g>
<!-- Node4 -->
<g id="Node000004" class="node">
<title>Node4</title>
<g id="a_Node000004"><a xlink:href="IntegratorHandle_8cpp.html" target="_top" xlink:title=" ">
<polygon fill="white" stroke="#666666" points="556,-19 437,-19 437,0 556,0 556,-19"/>
<text text-anchor="middle" x="496.5" y="-7" font-family="Helvetica,sans-Serif" font-size="10.00">IntegratorHandle.cpp</text>
</a>
</g>
</g>
<!-- Node2&#45;&gt;Node4 -->
<g id="edge3_Node000002_Node000004" class="edge">
<title>Node2&#45;&gt;Node4</title>
<g id="a_edge3_Node000002_Node000004"><a xlink:title=" ">
<path fill="none" stroke="#63b8ff" d="M242.06,-53.31C301.22,-43.36 390.21,-28.38 445.75,-19.04"/>
<polygon fill="#63b8ff" stroke="#63b8ff" points="241.39,-49.87 232.11,-54.98 242.55,-56.78 241.39,-49.87"/>
</a>
</g>
</g>
<!-- Node5 -->
<g id="Node000005" class="node">
<title>Node5</title>
<g id="a_Node000005"><a xlink:href="integrators_2initialize_8cpp.html" target="_top" xlink:title=" ">
<polygon fill="white" stroke="#666666" points="653,-19 574,-19 574,0 653,0 653,-19"/>
<text text-anchor="middle" x="613.5" y="-7" font-family="Helvetica,sans-Serif" font-size="10.00">initialize.cpp</text>
</a>
</g>
</g>
<!-- Node2&#45;&gt;Node5 -->
<g id="edge4_Node000002_Node000005" class="edge">
<title>Node2&#45;&gt;Node5</title>
<g id="a_edge4_Node000002_Node000005"><a xlink:title=" ">
<path fill="none" stroke="#63b8ff" d="M258.01,-54.72C365.42,-42.38 549.56,-21.16 564.5,-19 567.58,-18.55 570.76,-18.07 573.95,-17.56"/>
<polygon fill="#63b8ff" stroke="#63b8ff" points="257.4,-51.27 247.87,-55.89 258.2,-58.22 257.4,-51.27"/>
</a>
</g>
</g>
<!-- Node7&#45;&gt;Node4 -->
<g id="edge7_Node000007_Node000004" class="edge">
<title>Node7&#45;&gt;Node4</title>
<g id="a_edge7_Node000007_Node000004"><a xlink:title=" ">
<path fill="none" stroke="#63b8ff" d="M959.17,-54.89C783.08,-36.25 736.95,-37.61 564.5,-19 561.78,-18.71 559,-18.4 556.19,-18.08"/>
<polygon fill="#63b8ff" stroke="#63b8ff" points="958.99,-58.39 969.3,-55.97 959.73,-51.43 958.99,-58.39"/>
</a>
</g>
</g>
<!-- Node7&#45;&gt;Node5 -->
<g id="edge9_Node000007_Node000005" class="edge">
<title>Node7&#45;&gt;Node5</title>
<g id="a_edge9_Node000007_Node000005"><a xlink:title=" ">
<path fill="none" stroke="#63b8ff" d="M959.11,-54.84C825.93,-38.8 790.66,-38.2 661.5,-19 658.74,-18.59 655.89,-18.14 653.02,-17.68"/>
<polygon fill="#63b8ff" stroke="#63b8ff" points="958.94,-58.35 969.29,-56.07 959.78,-51.4 958.94,-58.35"/>
</a>
</g>
</g>
<!-- Node8 -->
<g id="Node000008" class="node">
<title>Node8</title>
<g id="a_Node000008"><a xlink:href="script__interface_2system_2System_8cpp.html" target="_top" xlink:title=" ">
<polygon fill="white" stroke="#666666" points="1156.5,-19 1082.5,-19 1082.5,0 1156.5,0 1156.5,-19"/>
<text text-anchor="middle" x="1119.5" y="-7" font-family="Helvetica,sans-Serif" font-size="10.00">System.cpp</text>
</a>
</g>
</g>
<!-- Node7&#45;&gt;Node8 -->
<g id="edge8_Node000007_Node000008" class="edge">
<title>Node7&#45;&gt;Node8</title>
<g id="a_edge8_Node000007_Node000008"><a xlink:title=" ">
<path fill="none" stroke="#63b8ff" d="M1052.94,-49.7C1069.34,-40.04 1090.73,-27.44 1104.78,-19.17"/>
<polygon fill="#63b8ff" stroke="#63b8ff" points="1050.8,-46.89 1043.96,-54.98 1054.35,-52.93 1050.8,-46.89"/>
</a>
</g>
</g>
<!-- Node9&#45;&gt;Node4 -->
<g id="edge11_Node000009_Node000004" class="edge">
<title>Node9&#45;&gt;Node4</title>
<g id="a_edge11_Node000009_Node000004"><a xlink:title=" ">
<path fill="none" stroke="#63b8ff" d="M362.84,-51.93C394.78,-42.03 440.02,-28.01 468.81,-19.08"/>
<polygon fill="#63b8ff" stroke="#63b8ff" points="361.49,-48.68 352.97,-54.98 363.56,-55.37 361.49,-48.68"/>
</a>
</g>
</g>
<!-- Node9&#45;&gt;Node5 -->
<g id="edge13_Node000009_Node000005" class="edge">
<title>Node9&#45;&gt;Node5</title>
<g id="a_edge13_Node000009_Node000005"><a xlink:title=" ">
<path fill="none" stroke="#63b8ff" d="M381.63,-53.17C438.18,-42.76 524,-26.97 573.83,-17.8"/>
<polygon fill="#63b8ff" stroke="#63b8ff" points="380.97,-49.73 371.77,-54.98 382.24,-56.62 380.97,-49.73"/>
</a>
</g>
</g>
<!-- Node10 -->
<g id="Node000010" class="node">
<title>Node10</title>
<g id="a_Node000010"><a xlink:href="SteepestDescent_8cpp.html" target="_top" xlink:title=" ">
<polygon fill="white" stroke="#666666" points="268,-19 149,-19 149,0 268,0 268,-19"/>
<text text-anchor="middle" x="208.5" y="-7" font-family="Helvetica,sans-Serif" font-size="10.00">SteepestDescent.cpp</text>
</a>
</g>
</g>
<!-- Node9&#45;&gt;Node10 -->
<g id="edge12_Node000009_Node000010" class="edge">
<title>Node9&#45;&gt;Node10</title>
<g id="a_edge12_Node000009_Node000010"><a xlink:title=" ">
<path fill="none" stroke="#63b8ff" d="M297.39,-50.77C275.81,-40.99 246.59,-27.75 227.64,-19.17"/>
<polygon fill="#63b8ff" stroke="#63b8ff" points="296.15,-54.05 306.7,-54.98 299.04,-47.67 296.15,-54.05"/>
</a>
</g>
</g>
<!-- Node11&#45;&gt;Node4 -->
<g id="edge15_Node000011_Node000004" class="edge">
<title>Node11&#45;&gt;Node4</title>
<g id="a_edge15_Node000011_Node000004"><a xlink:title=" ">
<path fill="none" stroke="#63b8ff" d="M479.32,-45.53C483.7,-36.6 488.79,-26.22 492.29,-19.09"/>
<polygon fill="#63b8ff" stroke="#63b8ff" points="476.06,-44.23 474.79,-54.75 482.34,-47.31 476.06,-44.23"/>
</a>
</g>
</g>
<!-- Node11&#45;&gt;Node5 -->
<g id="edge17_Node000011_Node000005" class="edge">
<title>Node11&#45;&gt;Node5</title>
<g id="a_edge17_Node000011_Node000005"><a xlink:title=" ">
<path fill="none" stroke="#63b8ff" d="M503.09,-51.42C529.62,-41.59 566.43,-27.95 590.11,-19.17"/>
<polygon fill="#63b8ff" stroke="#63b8ff" points="501.64,-48.23 493.48,-54.98 504.07,-54.79 501.64,-48.23"/>
</a>
</g>
</g>
<!-- Node12 -->
<g id="Node000012" class="node">
<title>Node12</title>
<g id="a_Node000012"><a xlink:href="StokesianDynamics_8cpp.html" target="_top" xlink:title=" ">
<polygon fill="white" stroke="#666666" points="419,-19 286,-19 286,0 419,0 419,-19"/>
<text text-anchor="middle" x="352.5" y="-7" font-family="Helvetica,sans-Serif" font-size="10.00">StokesianDynamics.cpp</text>
</a>
</g>
</g>
<!-- Node11&#45;&gt;Node12 -->
<g id="edge16_Node000011_Node000012" class="edge">
<title>Node11&#45;&gt;Node12</title>
<g id="a_edge16_Node000011_Node000012"><a xlink:title=" ">
<path fill="none" stroke="#63b8ff" d="M442.15,-50.77C420.38,-40.99 390.91,-27.75 371.8,-19.17"/>
<polygon fill="#63b8ff" stroke="#63b8ff" points="440.99,-54.08 451.54,-54.98 443.85,-47.69 440.99,-54.08"/>
</a>
</g>
</g>
<!-- Node13&#45;&gt;Node4 -->
<g id="edge19_Node000013_Node000004" class="edge">
<title>Node13&#45;&gt;Node4</title>
<g id="a_edge19_Node000013_Node000004"><a xlink:title=" ">
<path fill="none" stroke="#63b8ff" d="M585.39,-50.77C563.81,-40.99 534.59,-27.75 515.64,-19.17"/>
<polygon fill="#63b8ff" stroke="#63b8ff" points="584.15,-54.05 594.7,-54.98 587.04,-47.67 584.15,-54.05"/>
</a>
</g>
</g>
<!-- Node13&#45;&gt;Node5 -->
<g id="edge21_Node000013_Node000005" class="edge">
<title>Node13&#45;&gt;Node5</title>
<g id="a_edge21_Node000013_Node000005"><a xlink:title=" ">
<path fill="none" stroke="#63b8ff" d="M613.5,-44.66C613.5,-35.93 613.5,-25.99 613.5,-19.09"/>
<polygon fill="#63b8ff" stroke="#63b8ff" points="610,-44.75 613.5,-54.75 617,-44.75 610,-44.75"/>
</a>
</g>
</g>
<!-- Node14 -->
<g id="Node000014" class="node">
<title>Node14</title>
<g id="a_Node000014"><a xlink:href="SymplecticEuler_8cpp.html" target="_top" xlink:title=" ">
<polygon fill="white" stroke="#666666" points="786,-19 671,-19 671,0 786,0 786,-19"/>
<text text-anchor="middle" x="728.5" y="-7" font-family="Helvetica,sans-Serif" font-size="10.00">SymplecticEuler.cpp</text>
</a>
</g>
</g>
<!-- Node13&#45;&gt;Node14 -->
<g id="edge20_Node000013_Node000014" class="edge">
<title>Node13&#45;&gt;Node14</title>
<g id="a_edge20_Node000013_Node000014"><a xlink:title=" ">
<path fill="none" stroke="#63b8ff" d="M641.13,-50.77C662.34,-40.99 691.06,-27.75 709.69,-19.17"/>
<polygon fill="#63b8ff" stroke="#63b8ff" points="639.59,-47.62 631.98,-54.98 642.52,-53.98 639.59,-47.62"/>
</a>
</g>
</g>
<!-- Node15&#45;&gt;Node4 -->
<g id="edge23_Node000015_Node000004" class="edge">
<title>Node15&#45;&gt;Node4</title>
<g id="a_edge23_Node000015_Node000004"><a xlink:title=" ">
<path fill="none" stroke="#63b8ff" d="M693.2,-52.88C647.09,-42.94 579.1,-28.3 536.33,-19.08"/>
<polygon fill="#63b8ff" stroke="#63b8ff" points="692.46,-56.3 702.98,-54.98 693.94,-49.46 692.46,-56.3"/>
</a>
</g>
</g>
<!-- Node15&#45;&gt;Node5 -->
<g id="edge25_Node000015_Node000005" class="edge">
<title>Node15&#45;&gt;Node5</title>
<g id="a_edge25_Node000015_Node000005"><a xlink:title=" ">
<path fill="none" stroke="#63b8ff" d="M712.46,-51.16C688.58,-41.35 655.78,-27.87 634.6,-19.17"/>
<polygon fill="#63b8ff" stroke="#63b8ff" points="711.19,-54.42 721.77,-54.98 713.85,-47.95 711.19,-54.42"/>
</a>
</g>
</g>
<!-- Node16 -->
<g id="Node000016" class="node">
<title>Node16</title>
<g id="a_Node000016"><a xlink:href="VelocityVerlet_8cpp.html" target="_top" xlink:title=" ">
<polygon fill="white" stroke="#666666" points="908.5,-19 804.5,-19 804.5,0 908.5,0 908.5,-19"/>
<text text-anchor="middle" x="856.5" y="-7" font-family="Helvetica,sans-Serif" font-size="10.00">VelocityVerlet.cpp</text>
</a>
</g>
</g>
<!-- Node15&#45;&gt;Node16 -->
<g id="edge24_Node000015_Node000016" class="edge">
<title>Node15&#45;&gt;Node16</title>
<g id="a_edge24_Node000015_Node000016"><a xlink:title=" ">
<path fill="none" stroke="#63b8ff" d="M769.89,-50.77C790.92,-40.99 819.39,-27.75 837.85,-19.17"/>
<polygon fill="#63b8ff" stroke="#63b8ff" points="768.41,-47.6 760.82,-54.98 771.36,-53.94 768.41,-47.6"/>
</a>
</g>
</g>
<!-- Node17&#45;&gt;Node4 -->
<g id="edge27_Node000017_Node000004" class="edge">
<title>Node17&#45;&gt;Node4</title>
<g id="a_edge27_Node000017_Node000004"><a xlink:title=" ">
<path fill="none" stroke="#63b8ff" d="M810.4,-53.6C737.04,-43.53 624.66,-28.1 556.14,-18.69"/>
<polygon fill="#63b8ff" stroke="#63b8ff" points="810.1,-57.09 820.48,-54.98 811.05,-50.16 810.1,-57.09"/>
</a>
</g>
</g>
<!-- Node17&#45;&gt;Node5 -->
<g id="edge29_Node000017_Node000005" class="edge">
<title>Node17&#45;&gt;Node5</title>
<g id="a_edge29_Node000017_Node000005"><a xlink:title=" ">
<path fill="none" stroke="#63b8ff" d="M829.27,-53.01C777.4,-42.79 699.74,-27.49 653.11,-18.3"/>
<polygon fill="#63b8ff" stroke="#63b8ff" points="828.79,-56.49 839.28,-54.98 830.15,-49.62 828.79,-56.49"/>
</a>
</g>
</g>
<!-- Node18 -->
<g id="Node000018" class="node">
<title>Node18</title>
<g id="a_Node000018"><a xlink:href="VelocityVerletIsoNPT_8cpp.html" target="_top" xlink:title=" ">
<polygon fill="white" stroke="#666666" points="1064,-19 927,-19 927,0 1064,0 1064,-19"/>
<text text-anchor="middle" x="995.5" y="-7" font-family="Helvetica,sans-Serif" font-size="10.00">VelocityVerletIsoNPT.cpp</text>
</a>
</g>
</g>
<!-- Node17&#45;&gt;Node18 -->
<g id="edge28_Node000017_Node000018" class="edge">
<title>Node17&#45;&gt;Node18</title>
<g id="a_edge28_Node000017_Node000018"><a xlink:title=" ">
<path fill="none" stroke="#63b8ff" d="M909.93,-50.63C930.75,-40.87 958.8,-27.71 977.01,-19.17"/>
<polygon fill="#63b8ff" stroke="#63b8ff" points="908.22,-47.57 900.66,-54.98 911.2,-53.91 908.22,-47.57"/>
</a>
</g>
</g>
</g>
</svg>
