<?xml version="1.0" encoding="UTF-8" standalone="no"?>
<!DOCTYPE svg PUBLIC "-//W3C//DTD SVG 1.1//EN"
 "http://www.w3.org/Graphics/SVG/1.1/DTD/svg11.dtd">
<!-- Generated by graphviz version 2.43.0 (0)
 -->
<!-- Title: lattice.hpp Pages: 1 -->
<svg width="2563pt" height="319pt"
 viewBox="0.00 0.00 2562.50 319.00" xmlns="http://www.w3.org/2000/svg" xmlns:xlink="http://www.w3.org/1999/xlink">
<g id="graph0" class="graph" transform="scale(1 1) rotate(0) translate(4 315)">
<title>lattice.hpp</title>
<!-- Node1 -->
<g id="node1" class="node">
<title>Node1</title>
<g id="a_node1"><a xlink:title=" ">
<polygon fill="#bfbfbf" stroke="black" points="2112,-291.5 2112,-310.5 2180,-310.5 2180,-291.5 2112,-291.5"/>
<text text-anchor="middle" x="2146" y="-298.5" font-family="Helvetica,sans-Serif" font-size="10.00">lattice.hpp</text>
</a>
</g>
</g>
<!-- Node2 -->
<g id="node2" class="node">
<title>Node2</title>
<g id="a_node2"><a xlink:href="lb__interface_8hpp.html" target="_top" xlink:title=" ">
<polygon fill="none" stroke="black" points="1231.5,-179.5 1231.5,-198.5 1326.5,-198.5 1326.5,-179.5 1231.5,-179.5"/>
<text text-anchor="middle" x="1279" y="-186.5" font-family="Helvetica,sans-Serif" font-size="10.00">lb_interface.hpp</text>
</a>
</g>
</g>
<!-- Node1&#45;&gt;Node2 -->
<g id="edge1" class="edge">
<title>Node1&#45;&gt;Node2</title>
<path fill="none" stroke="midnightblue" d="M2101.68,-294.38C1953.98,-275.64 1479.2,-215.4 1326.66,-196.05"/>
<polygon fill="midnightblue" stroke="midnightblue" points="2101.38,-297.87 2111.75,-295.65 2102.27,-290.92 2101.38,-297.87"/>
</g>
<!-- Node6 -->
<g id="node6" class="node">
<title>Node6</title>
<g id="a_node6"><a xlink:href="lb__boundaries_8cpp.html" target="_top" xlink:title=" ">
<polygon fill="none" stroke="black" points="1816.5,-118 1816.5,-137 1921.5,-137 1921.5,-118 1816.5,-118"/>
<text text-anchor="middle" x="1869" y="-125" font-family="Helvetica,sans-Serif" font-size="10.00">lb_boundaries.cpp</text>
</a>
</g>
</g>
<!-- Node1&#45;&gt;Node6 -->
<g id="edge37" class="edge">
<title>Node1&#45;&gt;Node6</title>
<path fill="none" stroke="midnightblue" d="M2123.59,-286.13C2068.47,-252 1927.52,-164.73 1882.82,-137.06"/>
<polygon fill="midnightblue" stroke="midnightblue" points="2121.92,-289.21 2132.26,-291.5 2125.6,-283.26 2121.92,-289.21"/>
</g>
<!-- Node23 -->
<g id="node23" class="node">
<title>Node23</title>
<g id="a_node23"><a xlink:href="halo_8cpp.html" target="_top" xlink:title=" ">
<polygon fill="none" stroke="black" points="2060,-179.5 2060,-198.5 2118,-198.5 2118,-179.5 2060,-179.5"/>
<text text-anchor="middle" x="2089" y="-186.5" font-family="Helvetica,sans-Serif" font-size="10.00">halo.cpp</text>
</a>
</g>
</g>
<!-- Node1&#45;&gt;Node23 -->
<g id="edge23" class="edge">
<title>Node1&#45;&gt;Node23</title>
<path fill="none" stroke="midnightblue" d="M2129.56,-283.93C2122.08,-275.85 2113.66,-265.54 2108,-255 2097.99,-236.36 2092.66,-211.8 2090.38,-198.86"/>
<polygon fill="midnightblue" stroke="midnightblue" points="2127.12,-286.44 2136.59,-291.2 2132.16,-281.58 2127.12,-286.44"/>
</g>
<!-- Node24 -->
<g id="node24" class="node">
<title>Node24</title>
<g id="a_node24"><a xlink:href="halo_8hpp.html" target="_top" xlink:title=" ">
<polygon fill="none" stroke="black" points="2116.5,-235.5 2116.5,-254.5 2175.5,-254.5 2175.5,-235.5 2116.5,-235.5"/>
<text text-anchor="middle" x="2146" y="-242.5" font-family="Helvetica,sans-Serif" font-size="10.00">halo.hpp</text>
</a>
</g>
</g>
<!-- Node1&#45;&gt;Node24 -->
<g id="edge24" class="edge">
<title>Node1&#45;&gt;Node24</title>
<path fill="none" stroke="midnightblue" d="M2146,-280.8C2146,-271.91 2146,-261.78 2146,-254.75"/>
<polygon fill="midnightblue" stroke="midnightblue" points="2142.5,-281.08 2146,-291.08 2149.5,-281.08 2142.5,-281.08"/>
</g>
<!-- Node26 -->
<g id="node26" class="node">
<title>Node26</title>
<g id="a_node26"><a xlink:href="lb_8hpp.html" target="_top" xlink:title=" ">
<polygon fill="none" stroke="black" points="2174.5,-179.5 2174.5,-198.5 2221.5,-198.5 2221.5,-179.5 2174.5,-179.5"/>
<text text-anchor="middle" x="2198" y="-186.5" font-family="Helvetica,sans-Serif" font-size="10.00">lb.hpp</text>
</a>
</g>
</g>
<!-- Node1&#45;&gt;Node26 -->
<g id="edge36" class="edge">
<title>Node1&#45;&gt;Node26</title>
<path fill="none" stroke="midnightblue" d="M2163.3,-284.21C2171.07,-276.19 2179.68,-265.86 2185,-255 2194.12,-236.4 2196.84,-211.82 2197.65,-198.87"/>
<polygon fill="midnightblue" stroke="midnightblue" points="2160.66,-281.9 2155.95,-291.39 2165.55,-286.91 2160.66,-281.9"/>
</g>
<!-- Node28 -->
<g id="node28" class="node">
<title>Node28</title>
<g id="a_node28"><a xlink:href="lb__interpolation_8cpp.html" target="_top" xlink:title=" ">
<polygon fill="none" stroke="black" points="2441.5,-118 2441.5,-137 2554.5,-137 2554.5,-118 2441.5,-118"/>
<text text-anchor="middle" x="2498" y="-125" font-family="Helvetica,sans-Serif" font-size="10.00">lb_interpolation.cpp</text>
</a>
</g>
</g>
<!-- Node1&#45;&gt;Node28 -->
<g id="edge38" class="edge">
<title>Node1&#45;&gt;Node28</title>
<path fill="none" stroke="midnightblue" d="M2172.76,-286.96C2241.55,-253.45 2423.17,-164.96 2480.44,-137.06"/>
<polygon fill="midnightblue" stroke="midnightblue" points="2170.91,-283.97 2163.46,-291.5 2173.98,-290.26 2170.91,-283.97"/>
</g>
<!-- Node29 -->
<g id="node29" class="node">
<title>Node29</title>
<g id="a_node29"><a xlink:href="lattice_8cpp.html" target="_top" xlink:title=" ">
<polygon fill="none" stroke="black" points="2316,-235.5 2316,-254.5 2384,-254.5 2384,-235.5 2316,-235.5"/>
<text text-anchor="middle" x="2350" y="-242.5" font-family="Helvetica,sans-Serif" font-size="10.00">lattice.cpp</text>
</a>
</g>
</g>
<!-- Node1&#45;&gt;Node29 -->
<g id="edge35" class="edge">
<title>Node1&#45;&gt;Node29</title>
<path fill="none" stroke="midnightblue" d="M2188.2,-288.83C2226.72,-278.63 2282.82,-263.78 2317.83,-254.52"/>
<polygon fill="midnightblue" stroke="midnightblue" points="2187.1,-285.5 2178.32,-291.44 2188.89,-292.27 2187.1,-285.5"/>
</g>
<!-- Node3 -->
<g id="node3" class="node">
<title>Node3</title>
<g id="a_node3"><a xlink:href="event_8cpp.html" target="_top" xlink:title=" ">
<polygon fill="none" stroke="black" points="1499.5,-118 1499.5,-137 1564.5,-137 1564.5,-118 1499.5,-118"/>
<text text-anchor="middle" x="1532" y="-125" font-family="Helvetica,sans-Serif" font-size="10.00">event.cpp</text>
</a>
</g>
</g>
<!-- Node2&#45;&gt;Node3 -->
<g id="edge2" class="edge">
<title>Node2&#45;&gt;Node3</title>
<path fill="none" stroke="midnightblue" d="M1336.57,-177.89C1379.49,-169.84 1439.37,-157.54 1491,-143 1497.1,-141.28 1503.62,-139.13 1509.61,-137.01"/>
<polygon fill="midnightblue" stroke="midnightblue" points="1335.78,-174.48 1326.58,-179.74 1337.06,-181.36 1335.78,-174.48"/>
</g>
<!-- Node4 -->
<g id="node4" class="node">
<title>Node4</title>
<g id="a_node4"><a xlink:href="forces_8cpp.html" target="_top" xlink:title=" ">
<polygon fill="none" stroke="black" points="1582.5,-118 1582.5,-137 1649.5,-137 1649.5,-118 1582.5,-118"/>
<text text-anchor="middle" x="1616" y="-125" font-family="Helvetica,sans-Serif" font-size="10.00">forces.cpp</text>
</a>
</g>
</g>
<!-- Node2&#45;&gt;Node4 -->
<g id="edge3" class="edge">
<title>Node2&#45;&gt;Node4</title>
<path fill="none" stroke="midnightblue" d="M1336.54,-182.34C1396.45,-175.73 1492.69,-163.06 1574,-143 1580.44,-141.41 1587.29,-139.25 1593.56,-137.09"/>
<polygon fill="midnightblue" stroke="midnightblue" points="1336.09,-178.87 1326.52,-183.43 1336.84,-185.83 1336.09,-178.87"/>
</g>
<!-- Node5 -->
<g id="node5" class="node">
<title>Node5</title>
<g id="a_node5"><a xlink:href="electrokinetics__cuda_8cu.html" target="_top" xlink:title=" ">
<polygon fill="none" stroke="black" points="1667.5,-118 1667.5,-137 1798.5,-137 1798.5,-118 1667.5,-118"/>
<text text-anchor="middle" x="1733" y="-125" font-family="Helvetica,sans-Serif" font-size="10.00">electrokinetics_cuda.cu</text>
</a>
</g>
</g>
<!-- Node2&#45;&gt;Node5 -->
<g id="edge4" class="edge">
<title>Node2&#45;&gt;Node5</title>
<path fill="none" stroke="midnightblue" d="M1336.68,-182.54C1411.3,-175.16 1545.23,-160.86 1659,-143 1669.86,-141.29 1681.57,-139.15 1692.39,-137.03"/>
<polygon fill="midnightblue" stroke="midnightblue" points="1336.16,-179.07 1326.55,-183.54 1336.85,-186.04 1336.16,-179.07"/>
</g>
<!-- Node2&#45;&gt;Node6 -->
<g id="edge5" class="edge">
<title>Node2&#45;&gt;Node6</title>
<path fill="none" stroke="midnightblue" d="M1336.96,-185.89C1434.65,-181.7 1638.09,-170.27 1808,-143 1817.57,-141.46 1827.85,-139.24 1837.2,-137"/>
<polygon fill="midnightblue" stroke="midnightblue" points="1336.55,-182.4 1326.71,-186.32 1336.85,-189.39 1336.55,-182.4"/>
</g>
<!-- Node7 -->
<g id="node7" class="node">
<title>Node7</title>
<g id="a_node7"><a xlink:href="lb__interface_8cpp.html" target="_top" xlink:title=" ">
<polygon fill="none" stroke="black" points="2098.5,-118 2098.5,-137 2193.5,-137 2193.5,-118 2098.5,-118"/>
<text text-anchor="middle" x="2146" y="-125" font-family="Helvetica,sans-Serif" font-size="10.00">lb_interface.cpp</text>
</a>
</g>
</g>
<!-- Node2&#45;&gt;Node7 -->
<g id="edge6" class="edge">
<title>Node2&#45;&gt;Node7</title>
<path fill="none" stroke="midnightblue" d="M1336.89,-188.7C1470.48,-189.46 1810.25,-186.54 2090,-143 2099.03,-141.59 2108.72,-139.36 2117.45,-137.05"/>
<polygon fill="midnightblue" stroke="midnightblue" points="1336.9,-185.2 1326.88,-188.63 1336.85,-192.2 1336.9,-185.2"/>
</g>
<!-- Node8 -->
<g id="node8" class="node">
<title>Node8</title>
<g id="a_node8"><a xlink:href="lb__particle__coupling_8cpp.html" target="_top" xlink:title=" ">
<polygon fill="none" stroke="black" points="0,-118 0,-137 134,-137 134,-118 0,-118"/>
<text text-anchor="middle" x="67" y="-125" font-family="Helvetica,sans-Serif" font-size="10.00">lb_particle_coupling.cpp</text>
</a>
</g>
</g>
<!-- Node2&#45;&gt;Node8 -->
<g id="edge7" class="edge">
<title>Node2&#45;&gt;Node8</title>
<path fill="none" stroke="midnightblue" d="M1221.33,-186.85C1020.9,-182.69 355.26,-167.32 143,-143 130.86,-141.61 117.74,-139.37 105.88,-137.07"/>
<polygon fill="midnightblue" stroke="midnightblue" points="1221.29,-190.35 1231.36,-187.06 1221.43,-183.35 1221.29,-190.35"/>
</g>
<!-- Node9 -->
<g id="node9" class="node">
<title>Node9</title>
<g id="a_node9"><a xlink:href="integrate_8cpp.html" target="_top" xlink:title=" ">
<polygon fill="none" stroke="black" points="152.5,-118 152.5,-137 233.5,-137 233.5,-118 152.5,-118"/>
<text text-anchor="middle" x="193" y="-125" font-family="Helvetica,sans-Serif" font-size="10.00">integrate.cpp</text>
</a>
</g>
</g>
<!-- Node2&#45;&gt;Node9 -->
<g id="edge8" class="edge">
<title>Node2&#45;&gt;Node9</title>
<path fill="none" stroke="midnightblue" d="M1221.31,-187.31C1032.4,-184.75 433.58,-174.31 243,-143 234.79,-141.65 226.03,-139.4 218.17,-137.07"/>
<polygon fill="midnightblue" stroke="midnightblue" points="1221.27,-190.81 1231.32,-187.44 1221.36,-183.81 1221.27,-190.81"/>
</g>
<!-- Node10 -->
<g id="node10" class="node">
<title>Node10</title>
<g id="a_node10"><a xlink:href="CylindricalLBFluxDensityProfileAtParticlePositions_8cpp.html" target="_top" xlink:title=" ">
<polygon fill="none" stroke="black" points="252,-112.5 252,-142.5 412,-142.5 412,-112.5 252,-112.5"/>
<text text-anchor="start" x="260" y="-130.5" font-family="Helvetica,sans-Serif" font-size="10.00">CylindricalLBFluxDensity</text>
<text text-anchor="middle" x="332" y="-119.5" font-family="Helvetica,sans-Serif" font-size="10.00">ProfileAtParticlePositions.cpp</text>
</a>
</g>
</g>
<!-- Node2&#45;&gt;Node10 -->
<g id="edge9" class="edge">
<title>Node2&#45;&gt;Node10</title>
<path fill="none" stroke="midnightblue" d="M1221.04,-187.14C1082.42,-184.61 720.93,-175.2 421,-143 418.2,-142.7 415.35,-142.37 412.48,-142.02"/>
<polygon fill="midnightblue" stroke="midnightblue" points="1221.36,-190.65 1231.42,-187.32 1221.48,-183.65 1221.36,-190.65"/>
</g>
<!-- Node11 -->
<g id="node11" class="node">
<title>Node11</title>
<g id="a_node11"><a xlink:href="CylindricalLBVelocityProfile_8cpp.html" target="_top" xlink:title=" ">
<polygon fill="none" stroke="black" points="430.5,-118 430.5,-137 601.5,-137 601.5,-118 430.5,-118"/>
<text text-anchor="middle" x="516" y="-125" font-family="Helvetica,sans-Serif" font-size="10.00">CylindricalLBVelocityProfile.cpp</text>
</a>
</g>
</g>
<!-- Node2&#45;&gt;Node11 -->
<g id="edge10" class="edge">
<title>Node2&#45;&gt;Node11</title>
<path fill="none" stroke="midnightblue" d="M1221.35,-185.79C1105.32,-180.98 835.47,-167.93 610,-143 595.72,-141.42 580.29,-139.24 566.14,-137.05"/>
<polygon fill="midnightblue" stroke="midnightblue" points="1221.29,-189.29 1231.42,-186.2 1221.58,-182.3 1221.29,-189.29"/>
</g>
<!-- Node12 -->
<g id="node12" class="node">
<title>Node12</title>
<g id="a_node12"><a xlink:href="CylindricalLBVelocityProfileAtParticlePositions_8cpp.html" target="_top" xlink:title=" ">
<polygon fill="none" stroke="black" points="619.5,-112.5 619.5,-142.5 770.5,-142.5 770.5,-112.5 619.5,-112.5"/>
<text text-anchor="start" x="627.5" y="-130.5" font-family="Helvetica,sans-Serif" font-size="10.00">CylindricalLBVelocityProfile</text>
<text text-anchor="middle" x="695" y="-119.5" font-family="Helvetica,sans-Serif" font-size="10.00">AtParticlePositions.cpp</text>
</a>
</g>
</g>
<!-- Node2&#45;&gt;Node12 -->
<g id="edge11" class="edge">
<title>Node2&#45;&gt;Node12</title>
<path fill="none" stroke="midnightblue" d="M1221.21,-184.33C1127.93,-178.06 938.51,-163.91 779,-143 776.21,-142.63 773.38,-142.24 770.51,-141.83"/>
<polygon fill="midnightblue" stroke="midnightblue" points="1221.08,-187.83 1231.29,-185 1221.54,-180.84 1221.08,-187.83"/>
</g>
<!-- Node13 -->
<g id="node13" class="node">
<title>Node13</title>
<g id="a_node13"><a xlink:href="LBFluidPressureTensor_8hpp.html" target="_top" xlink:title=" ">
<polygon fill="none" stroke="black" points="788.5,-118 788.5,-137 935.5,-137 935.5,-118 788.5,-118"/>
<text text-anchor="middle" x="862" y="-125" font-family="Helvetica,sans-Serif" font-size="10.00">LBFluidPressureTensor.hpp</text>
</a>
</g>
</g>
<!-- Node2&#45;&gt;Node13 -->
<g id="edge12" class="edge">
<title>Node2&#45;&gt;Node13</title>
<path fill="none" stroke="midnightblue" d="M1221.16,-180.97C1154.3,-172.67 1041.01,-158.09 944,-143 932.43,-141.2 919.97,-139.09 908.35,-137.04"/>
<polygon fill="midnightblue" stroke="midnightblue" points="1221.12,-184.49 1231.48,-182.25 1221.98,-177.55 1221.12,-184.49"/>
</g>
<!-- Node16 -->
<g id="node16" class="node">
<title>Node16</title>
<g id="a_node16"><a xlink:href="LBVelocityProfile_8cpp.html" target="_top" xlink:title=" ">
<polygon fill="none" stroke="black" points="953.5,-118 953.5,-137 1072.5,-137 1072.5,-118 953.5,-118"/>
<text text-anchor="middle" x="1013" y="-125" font-family="Helvetica,sans-Serif" font-size="10.00">LBVelocityProfile.cpp</text>
</a>
</g>
</g>
<!-- Node2&#45;&gt;Node16 -->
<g id="edge15" class="edge">
<title>Node2&#45;&gt;Node16</title>
<path fill="none" stroke="midnightblue" d="M1230.98,-177.26C1179.38,-165.72 1098.41,-147.61 1051.04,-137.01"/>
<polygon fill="midnightblue" stroke="midnightblue" points="1230.37,-180.71 1240.89,-179.48 1231.89,-173.88 1230.37,-180.71"/>
</g>
<!-- Node17 -->
<g id="node17" class="node">
<title>Node17</title>
<g id="a_node17"><a xlink:href="statistics_8cpp.html" target="_top" xlink:title=" ">
<polygon fill="none" stroke="black" points="1090.5,-118 1090.5,-137 1171.5,-137 1171.5,-118 1090.5,-118"/>
<text text-anchor="middle" x="1131" y="-125" font-family="Helvetica,sans-Serif" font-size="10.00">statistics.cpp</text>
</a>
</g>
</g>
<!-- Node2&#45;&gt;Node17 -->
<g id="edge16" class="edge">
<title>Node2&#45;&gt;Node17</title>
<path fill="none" stroke="midnightblue" d="M1248.23,-175.63C1219.48,-164.07 1177.32,-147.12 1152.17,-137.01"/>
<polygon fill="midnightblue" stroke="midnightblue" points="1247.21,-178.99 1257.8,-179.48 1249.82,-172.5 1247.21,-178.99"/>
</g>
<!-- Node18 -->
<g id="node18" class="node">
<title>Node18</title>
<g id="a_node18"><a xlink:href="lb__inertialess__tracers_8cpp.html" target="_top" xlink:title="Main of the Bayreuth Immersed&#45;Boundary implementation.">
<polygon fill="none" stroke="black" points="1939.5,-118 1939.5,-137 2080.5,-137 2080.5,-118 1939.5,-118"/>
<text text-anchor="middle" x="2010" y="-125" font-family="Helvetica,sans-Serif" font-size="10.00">lb_inertialess_tracers.cpp</text>
</a>
</g>
</g>
<!-- Node2&#45;&gt;Node18 -->
<g id="edge17" class="edge">
<title>Node2&#45;&gt;Node18</title>
<path fill="none" stroke="midnightblue" d="M1336.87,-186.19C1450.93,-182.15 1712.67,-170.48 1931,-143 1943.17,-141.47 1956.31,-139.28 1968.32,-137.06"/>
<polygon fill="midnightblue" stroke="midnightblue" points="1336.5,-182.7 1326.63,-186.55 1336.74,-189.7 1336.5,-182.7"/>
</g>
<!-- Node19 -->
<g id="node19" class="node">
<title>Node19</title>
<g id="a_node19"><a xlink:href="VirtualSitesInertialessTracers_8cpp.html" target="_top" xlink:title=" ">
<polygon fill="none" stroke="black" points="1189.5,-118 1189.5,-137 1368.5,-137 1368.5,-118 1189.5,-118"/>
<text text-anchor="middle" x="1279" y="-125" font-family="Helvetica,sans-Serif" font-size="10.00">VirtualSitesInertialessTracers.cpp</text>
</a>
</g>
</g>
<!-- Node2&#45;&gt;Node19 -->
<g id="edge18" class="edge">
<title>Node2&#45;&gt;Node19</title>
<path fill="none" stroke="midnightblue" d="M1279,-169.32C1279,-158.5 1279,-145.4 1279,-137.01"/>
<polygon fill="midnightblue" stroke="midnightblue" points="1275.5,-169.48 1279,-179.48 1282.5,-169.48 1275.5,-169.48"/>
</g>
<!-- Node20 -->
<g id="node20" class="node">
<title>Node20</title>
<g id="a_node20"><a xlink:href="script__interface_2lbboundaries_2LBBoundary_8hpp.html" target="_top" xlink:title=" ">
<polygon fill="none" stroke="black" points="1386.5,-118 1386.5,-137 1481.5,-137 1481.5,-118 1386.5,-118"/>
<text text-anchor="middle" x="1434" y="-125" font-family="Helvetica,sans-Serif" font-size="10.00">LBBoundary.hpp</text>
</a>
</g>
</g>
<!-- Node2&#45;&gt;Node20 -->
<g id="edge19" class="edge">
<title>Node2&#45;&gt;Node20</title>
<path fill="none" stroke="midnightblue" d="M1310.83,-175.78C1340.95,-164.22 1385.38,-147.16 1411.83,-137.01"/>
<polygon fill="midnightblue" stroke="midnightblue" points="1309.29,-172.62 1301.21,-179.48 1311.8,-179.16 1309.29,-172.62"/>
</g>
<!-- Node14 -->
<g id="node14" class="node">
<title>Node14</title>
<g id="a_node14"><a xlink:href="ParamlessObservable_8hpp.html" target="_top" xlink:title=" ">
<polygon fill="none" stroke="black" points="790,-56.5 790,-75.5 934,-75.5 934,-56.5 790,-56.5"/>
<text text-anchor="middle" x="862" y="-63.5" font-family="Helvetica,sans-Serif" font-size="10.00">ParamlessObservable.hpp</text>
</a>
</g>
</g>
<!-- Node13&#45;&gt;Node14 -->
<g id="edge13" class="edge">
<title>Node13&#45;&gt;Node14</title>
<path fill="none" stroke="midnightblue" d="M862,-107.82C862,-97 862,-83.9 862,-75.51"/>
<polygon fill="midnightblue" stroke="midnightblue" points="858.5,-107.98 862,-117.98 865.5,-107.98 858.5,-107.98"/>
</g>
<!-- Node15 -->
<g id="node15" class="node">
<title>Node15</title>
<g id="a_node15"><a xlink:href="observables_2initialize_8cpp.html" target="_top" xlink:title=" ">
<polygon fill="none" stroke="black" points="822.5,-0.5 822.5,-19.5 901.5,-19.5 901.5,-0.5 822.5,-0.5"/>
<text text-anchor="middle" x="862" y="-7.5" font-family="Helvetica,sans-Serif" font-size="10.00">initialize.cpp</text>
</a>
</g>
</g>
<!-- Node14&#45;&gt;Node15 -->
<g id="edge14" class="edge">
<title>Node14&#45;&gt;Node15</title>
<path fill="none" stroke="midnightblue" d="M862,-45.8C862,-36.91 862,-26.78 862,-19.75"/>
<polygon fill="midnightblue" stroke="midnightblue" points="858.5,-46.08 862,-56.08 865.5,-46.08 858.5,-46.08"/>
</g>
<!-- Node21 -->
<g id="node21" class="node">
<title>Node21</title>
<g id="a_node21"><a xlink:href="LBBoundaries_8hpp.html" target="_top" xlink:title=" ">
<polygon fill="none" stroke="black" points="1422,-56.5 1422,-75.5 1526,-75.5 1526,-56.5 1422,-56.5"/>
<text text-anchor="middle" x="1474" y="-63.5" font-family="Helvetica,sans-Serif" font-size="10.00">LBBoundaries.hpp</text>
</a>
</g>
</g>
<!-- Node20&#45;&gt;Node21 -->
<g id="edge20" class="edge">
<title>Node20&#45;&gt;Node21</title>
<path fill="none" stroke="midnightblue" d="M1445.43,-109.51C1452.9,-98.39 1462.34,-84.34 1468.28,-75.51"/>
<polygon fill="midnightblue" stroke="midnightblue" points="1442.41,-107.72 1439.73,-117.98 1448.21,-111.63 1442.41,-107.72"/>
</g>
<!-- Node22 -->
<g id="node22" class="node">
<title>Node22</title>
<g id="a_node22"><a xlink:href="lbboundaries_2initialize_8cpp.html" target="_top" xlink:title=" ">
<polygon fill="none" stroke="black" points="1394.5,-0.5 1394.5,-19.5 1473.5,-19.5 1473.5,-0.5 1394.5,-0.5"/>
<text text-anchor="middle" x="1434" y="-7.5" font-family="Helvetica,sans-Serif" font-size="10.00">initialize.cpp</text>
</a>
</g>
</g>
<!-- Node20&#45;&gt;Node22 -->
<g id="edge22" class="edge">
<title>Node20&#45;&gt;Node22</title>
<path fill="none" stroke="midnightblue" d="M1423.53,-108.85C1416.41,-94.7 1408.95,-74.26 1413,-56 1415.99,-42.53 1423.44,-28.32 1428.62,-19.56"/>
<polygon fill="midnightblue" stroke="midnightblue" points="1420.62,-110.83 1428.49,-117.92 1426.76,-107.47 1420.62,-110.83"/>
</g>
<!-- Node21&#45;&gt;Node22 -->
<g id="edge21" class="edge">
<title>Node21&#45;&gt;Node22</title>
<path fill="none" stroke="midnightblue" d="M1461.3,-47.86C1454.37,-38.5 1446.09,-27.33 1440.48,-19.75"/>
<polygon fill="midnightblue" stroke="midnightblue" points="1458.63,-50.13 1467.39,-56.08 1464.25,-45.96 1458.63,-50.13"/>
</g>
<!-- Node24&#45;&gt;Node7 -->
<g id="edge34" class="edge">
<title>Node24&#45;&gt;Node7</title>
<path fill="none" stroke="midnightblue" d="M2146,-225.16C2146,-199.87 2146,-155.94 2146,-137.28"/>
<polygon fill="midnightblue" stroke="midnightblue" points="2142.5,-225.32 2146,-235.32 2149.5,-225.32 2142.5,-225.32"/>
</g>
<!-- Node24&#45;&gt;Node23 -->
<g id="edge25" class="edge">
<title>Node24&#45;&gt;Node23</title>
<path fill="none" stroke="midnightblue" d="M2129.38,-228.25C2119.27,-218.67 2106.72,-206.79 2098.32,-198.83"/>
<polygon fill="midnightblue" stroke="midnightblue" points="2127.18,-230.99 2136.84,-235.32 2131.99,-225.91 2127.18,-230.99"/>
</g>
<!-- Node25 -->
<g id="node25" class="node">
<title>Node25</title>
<g id="a_node25"><a xlink:href="lb_8cpp.html" target="_top" xlink:title=" ">
<polygon fill="none" stroke="black" points="2377,-118 2377,-137 2423,-137 2423,-118 2377,-118"/>
<text text-anchor="middle" x="2400" y="-125" font-family="Helvetica,sans-Serif" font-size="10.00">lb.cpp</text>
</a>
</g>
</g>
<!-- Node24&#45;&gt;Node25 -->
<g id="edge26" class="edge">
<title>Node24&#45;&gt;Node25</title>
<path fill="none" stroke="midnightblue" d="M2170.47,-230.61C2195.96,-216.9 2237.24,-195.32 2274,-179 2314.89,-160.85 2326.72,-160.24 2368,-143 2372.39,-141.17 2377.08,-139.1 2381.47,-137.12"/>
<polygon fill="midnightblue" stroke="midnightblue" points="2168.64,-227.62 2161.51,-235.46 2171.97,-233.78 2168.64,-227.62"/>
</g>
<!-- Node24&#45;&gt;Node26 -->
<g id="edge27" class="edge">
<title>Node24&#45;&gt;Node26</title>
<path fill="none" stroke="midnightblue" d="M2161.68,-227.72C2170.84,-218.2 2182.05,-206.56 2189.57,-198.75"/>
<polygon fill="midnightblue" stroke="midnightblue" points="2159,-225.45 2154.59,-235.08 2164.04,-230.31 2159,-225.45"/>
</g>
<!-- Node26&#45;&gt;Node6 -->
<g id="edge29" class="edge">
<title>Node26&#45;&gt;Node6</title>
<path fill="none" stroke="midnightblue" d="M2164.26,-183.01C2113.48,-175.34 2014.47,-159.78 1931,-143 1922.11,-141.21 1912.56,-139.08 1903.68,-137.01"/>
<polygon fill="midnightblue" stroke="midnightblue" points="2163.93,-186.5 2174.34,-184.52 2164.97,-179.58 2163.93,-186.5"/>
</g>
<!-- Node26&#45;&gt;Node7 -->
<g id="edge31" class="edge">
<title>Node26&#45;&gt;Node7</title>
<path fill="none" stroke="midnightblue" d="M2183.73,-171.67C2173.92,-160.45 2161.31,-146.02 2153.44,-137.01"/>
<polygon fill="midnightblue" stroke="midnightblue" points="2181.33,-174.25 2190.55,-179.48 2186.6,-169.64 2181.33,-174.25"/>
</g>
<!-- Node26&#45;&gt;Node18 -->
<g id="edge33" class="edge">
<title>Node26&#45;&gt;Node18</title>
<path fill="none" stroke="midnightblue" d="M2164.51,-177.4C2128.09,-165.87 2070.58,-147.67 2036.95,-137.03"/>
<polygon fill="midnightblue" stroke="midnightblue" points="2163.6,-180.78 2174.19,-180.46 2165.71,-174.11 2163.6,-180.78"/>
</g>
<!-- Node26&#45;&gt;Node25 -->
<g id="edge28" class="edge">
<title>Node26&#45;&gt;Node25</title>
<path fill="none" stroke="midnightblue" d="M2231.35,-179.87C2273.32,-169.53 2342.96,-151.92 2368,-143 2372.83,-141.28 2377.93,-139.13 2382.61,-137.01"/>
<polygon fill="midnightblue" stroke="midnightblue" points="2230.45,-176.49 2221.57,-182.28 2232.12,-183.29 2230.45,-176.49"/>
</g>
<!-- Node27 -->
<g id="node27" class="node">
<title>Node27</title>
<g id="a_node27"><a xlink:href="lb__collective__interface_8cpp.html" target="_top" xlink:title=" ">
<polygon fill="none" stroke="black" points="2211.5,-118 2211.5,-137 2358.5,-137 2358.5,-118 2211.5,-118"/>
<text text-anchor="middle" x="2285" y="-125" font-family="Helvetica,sans-Serif" font-size="10.00">lb_collective_interface.cpp</text>
</a>
</g>
</g>
<!-- Node26&#45;&gt;Node27 -->
<g id="edge30" class="edge">
<title>Node26&#45;&gt;Node27</title>
<path fill="none" stroke="midnightblue" d="M2219.04,-173.61C2235.77,-162.17 2258.61,-146.55 2272.56,-137.01"/>
<polygon fill="midnightblue" stroke="midnightblue" points="2216.74,-170.94 2210.46,-179.48 2220.7,-176.72 2216.74,-170.94"/>
</g>
<!-- Node26&#45;&gt;Node28 -->
<g id="edge32" class="edge">
<title>Node26&#45;&gt;Node28</title>
<path fill="none" stroke="midnightblue" d="M2231.53,-181.84C2277.01,-173.41 2360.77,-157.67 2432,-143 2441.08,-141.13 2450.84,-139.03 2459.99,-137.03"/>
<polygon fill="midnightblue" stroke="midnightblue" points="2230.82,-178.41 2221.62,-183.67 2232.09,-185.29 2230.82,-178.41"/>
</g>
</g>
</svg>
