<?xml version="1.0" encoding="UTF-8" standalone="no"?>
<!DOCTYPE svg PUBLIC "-//W3C//DTD SVG 1.1//EN"
 "http://www.w3.org/Graphics/SVG/1.1/DTD/svg11.dtd">
<!-- Generated by graphviz version 2.43.0 (0)
 -->
<!-- Title: LatticeIndices.hpp Pages: 1 -->
<!--zoomable 247 -->

<svg id="main" version="1.1" xmlns="http://www.w3.org/2000/svg" xmlns:xlink="http://www.w3.org/1999/xlink" xml:space="preserve" onload="init(evt)">
<style type="text/css"><![CDATA[
.node, .edge {opacity: 0.7;}
.node.selected, .edge.selected {opacity: 1;}
.edge:hover path { stroke: red; }
.edge:hover polygon { stroke: red; fill: red; }
]]></style>

<defs>
  <circle id="rim" cx="0" cy="0" r="7"/>
  <circle id="rim2" cx="0" cy="0" r="3.5"/>
  <g id="zoomPlus">
    <use xlink:href="#rim" fill="#404040"><set attributeName="fill" to="#808080" begin="zoomplus.mouseover" end="zoomplus.mouseout"/></use>
    <path d="M-4,0h8M0,-4v8" fill="none" stroke="white" stroke-width="1.5" pointer-events="none"/>
  </g>
  <g id="zoomMin">
    <use xlink:href="#rim" fill="#404040"><set attributeName="fill" to="#808080" begin="zoomminus.mouseover" end="zoomminus.mouseout"/></use>
    <path d="M-4,0h8" fill="none" stroke="white" stroke-width="1.5" pointer-events="none"/>
  </g>
  <g id="arrowUp" transform="translate(30 24)">
    <use xlink:href="#rim"/>
    <path pointer-events="none" fill="none" stroke="white" stroke-width="1.5" d="M0,-3.0v7 M-2.5,-0.5L0,-3.0L2.5,-0.5"/>
  </g>
  <g id="arrowRight" transform="rotate(90) translate(36 -43)">
    <use xlink:href="#rim"/>
    <path pointer-events="none" fill="none" stroke="white" stroke-width="1.5" d="M0,-3.0v7 M-2.5,-0.5L0,-3.0L2.5,-0.5"/>
  </g>
  <g id="arrowDown" transform="rotate(180) translate(-30 -48)">
    <use xlink:href="#rim"/>
    <path pointer-events="none" fill="none" stroke="white" stroke-width="1.5" d="M0,-3.0v7 M-2.5,-0.5L0,-3.0L2.5,-0.5"/>
  </g>
  <g id="arrowLeft" transform="rotate(270) translate(-36 17)">
    <use xlink:href="#rim"/>
    <path pointer-events="none" fill="none" stroke="white" stroke-width="1.5" d="M0,-3.0v7 M-2.5,-0.5L0,-3.0L2.5,-0.5"/>
  </g>
  <g id="resetDef">
    <use xlink:href="#rim2" fill="#404040"><set attributeName="fill" to="#808080" begin="reset.mouseover" end="reset.mouseout"/></use>
  </g>
</defs>
<script type="application/ecmascript">
var viewWidth = 561;
var viewHeight = 247;
var sectionId = 'dynsection-1';
</script>
<script type="application/ecmascript" xlink:href="svg.min.js"/>
<svg id="graph" class="graph">
<g id="viewport">
<title>LatticeIndices.hpp</title>
<!-- Node1 -->
<g id="Node000001" class="node">
<title>Node1</title>
<g id="a_Node000001"><a xlink:title=" ">
<polygon fill="#999999" stroke="#666666" points="353.56,-239 248.56,-239 248.56,-220 353.56,-220 353.56,-239"/>
<text text-anchor="middle" x="301.06" y="-227" font-family="Helvetica,sans-Serif" font-size="10.00">LatticeIndices.hpp</text>
</a>
</g>
</g>
<!-- Node2 -->
<g id="Node000002" class="node">
<title>Node2</title>
<g id="a_Node000002"><a xlink:href="EKReaction_8hpp.html" target="_top" xlink:title=" ">
<polygon fill="white" stroke="#666666" points="107.56,-184 14.56,-184 14.56,-165 107.56,-165 107.56,-184"/>
<text text-anchor="middle" x="61.06" y="-172" font-family="Helvetica,sans-Serif" font-size="10.00">EKReaction.hpp</text>
</a>
</g>
</g>
<!-- Node1&#45;&gt;Node2 -->
<g id="edge1_Node000001_Node000002" class="edge">
<title>Node1&#45;&gt;Node2</title>
<g id="a_edge1_Node000001_Node000002"><a xlink:title=" ">
<path fill="none" stroke="#63b8ff" d="M252.68,-217.82C207.7,-207.88 141.55,-193.28 99.92,-184.08"/>
<polygon fill="#63b8ff" stroke="#63b8ff" points="251.98,-221.25 262.5,-219.98 253.49,-214.41 251.98,-221.25"/>
</a>
</g>
</g>
<!-- Node6 -->
<g id="Node000006" class="node">
<title>Node6</title>
<g id="a_Node000006"><a xlink:href="EKSpeciesNode_8cpp.html" target="_top" xlink:title=" ">
<polygon fill="white" stroke="#666666" points="433.56,-129 320.56,-129 320.56,-110 433.56,-110 433.56,-129"/>
<text text-anchor="middle" x="377.06" y="-117" font-family="Helvetica,sans-Serif" font-size="10.00">EKSpeciesNode.cpp</text>
</a>
</g>
</g>
<!-- Node1&#45;&gt;Node6 -->
<g id="edge7_Node000001_Node000006" class="edge">
<title>Node1&#45;&gt;Node6</title>
<g id="a_edge7_Node000001_Node000006"><a xlink:title=" ">
<path fill="none" stroke="#63b8ff" d="M331.28,-215.09C344.32,-207.76 358.52,-197.41 367.06,-184 377.97,-166.87 378.42,-142 377.77,-129.06"/>
<polygon fill="#63b8ff" stroke="#63b8ff" points="329.33,-212.16 322.08,-219.89 332.57,-218.36 329.33,-212.16"/>
</a>
</g>
</g>
<!-- Node7 -->
<g id="Node000007" class="node">
<title>Node7</title>
<g id="a_Node000007"><a xlink:href="EKSpeciesNode_8hpp.html" target="_top" xlink:title=" ">
<polygon fill="white" stroke="#666666" points="357.56,-184 244.56,-184 244.56,-165 357.56,-165 357.56,-184"/>
<text text-anchor="middle" x="301.06" y="-172" font-family="Helvetica,sans-Serif" font-size="10.00">EKSpeciesNode.hpp</text>
</a>
</g>
</g>
<!-- Node1&#45;&gt;Node7 -->
<g id="edge8_Node000001_Node000007" class="edge">
<title>Node1&#45;&gt;Node7</title>
<g id="a_edge8_Node000001_Node000007"><a xlink:title=" ">
<path fill="none" stroke="#63b8ff" d="M301.06,-209.66C301.06,-200.93 301.06,-190.99 301.06,-184.09"/>
<polygon fill="#63b8ff" stroke="#63b8ff" points="297.56,-209.75 301.06,-219.75 304.56,-209.75 297.56,-209.75"/>
</a>
</g>
</g>
<!-- Node8 -->
<g id="Node000008" class="node">
<title>Node8</title>
<g id="a_Node000008"><a xlink:href="LBFluidNode_8hpp.html" target="_top" xlink:title=" ">
<polygon fill="white" stroke="#666666" points="226.56,-184 127.56,-184 127.56,-165 226.56,-165 226.56,-184"/>
<text text-anchor="middle" x="177.06" y="-172" font-family="Helvetica,sans-Serif" font-size="10.00">LBFluidNode.hpp</text>
</a>
</g>
</g>
<!-- Node1&#45;&gt;Node8 -->
<g id="edge11_Node000001_Node000008" class="edge">
<title>Node1&#45;&gt;Node8</title>
<g id="a_edge11_Node000001_Node000008"><a xlink:title=" ">
<path fill="none" stroke="#63b8ff" d="M271.88,-216.03C248.95,-206.23 217.6,-192.83 197.34,-184.17"/>
<polygon fill="#63b8ff" stroke="#63b8ff" points="270.56,-219.27 281.14,-219.98 273.32,-212.84 270.56,-219.27"/>
</a>
</g>
</g>
<!-- Node10 -->
<g id="Node000010" class="node">
<title>Node10</title>
<g id="a_Node000010"><a xlink:href="LatticeSlice_8hpp.html" target="_top" xlink:title=" ">
<polygon fill="white" stroke="#666666" points="546.06,-129 452.06,-129 452.06,-110 546.06,-110 546.06,-129"/>
<text text-anchor="middle" x="499.06" y="-117" font-family="Helvetica,sans-Serif" font-size="10.00">LatticeSlice.hpp</text>
</a>
</g>
</g>
<!-- Node1&#45;&gt;Node10 -->
<g id="edge14_Node000001_Node000010" class="edge">
<title>Node1&#45;&gt;Node10</title>
<g id="a_edge14_Node000001_Node000010"><a xlink:title=" ">
<path fill="none" stroke="#63b8ff" d="M326.31,-215.06C342.78,-206.28 364.73,-194.52 384.06,-184 419.72,-164.6 461.39,-141.48 483.47,-129.19"/>
<polygon fill="#63b8ff" stroke="#63b8ff" points="324.49,-212.07 317.31,-219.86 327.78,-218.25 324.49,-212.07"/>
</a>
</g>
</g>
<!-- Node3 -->
<g id="Node000003" class="node">
<title>Node3</title>
<g id="a_Node000003"><a xlink:href="script__interface_2walberla_2EKReactions_8hpp.html" target="_top" xlink:title=" ">
<polygon fill="white" stroke="#666666" points="110.06,-129 12.06,-129 12.06,-110 110.06,-110 110.06,-129"/>
<text text-anchor="middle" x="61.06" y="-117" font-family="Helvetica,sans-Serif" font-size="10.00">EKReactions.hpp</text>
</a>
</g>
</g>
<!-- Node2&#45;&gt;Node3 -->
<g id="edge2_Node000002_Node000003" class="edge">
<title>Node2&#45;&gt;Node3</title>
<g id="a_edge2_Node000002_Node000003"><a xlink:title=" ">
<path fill="none" stroke="#63b8ff" d="M61.06,-154.66C61.06,-145.93 61.06,-135.99 61.06,-129.09"/>
<polygon fill="#63b8ff" stroke="#63b8ff" points="57.56,-154.75 61.06,-164.75 64.56,-154.75 57.56,-154.75"/>
</a>
</g>
</g>
<!-- Node5 -->
<g id="Node000005" class="node">
<title>Node5</title>
<g id="a_Node000005"><a xlink:href="walberla_2initialize_8cpp.html" target="_top" xlink:title=" ">
<polygon fill="white" stroke="#666666" points="293.56,-19 214.56,-19 214.56,0 293.56,0 293.56,-19"/>
<text text-anchor="middle" x="254.06" y="-7" font-family="Helvetica,sans-Serif" font-size="10.00">initialize.cpp</text>
</a>
</g>
</g>
<!-- Node2&#45;&gt;Node5 -->
<g id="edge6_Node000002_Node000005" class="edge">
<title>Node2&#45;&gt;Node5</title>
<g id="a_edge6_Node000002_Node000005"><a xlink:title=" ">
<path fill="none" stroke="#63b8ff" d="M33.7,-159.89C21.99,-152.5 9.54,-142.15 3.06,-129 -8.69,-105.18 18.66,-59.53 24.06,-55 52.32,-31.26 156.12,-18.82 214.14,-13.58"/>
<polygon fill="#63b8ff" stroke="#63b8ff" points="31.99,-162.95 42.39,-164.97 35.52,-156.9 31.99,-162.95"/>
</a>
</g>
</g>
<!-- Node4 -->
<g id="Node000004" class="node">
<title>Node4</title>
<g id="a_Node000004"><a xlink:href="script__interface_2walberla_2EKContainer_8hpp.html" target="_top" xlink:title=" ">
<polygon fill="white" stroke="#666666" points="129.06,-74 33.06,-74 33.06,-55 129.06,-55 129.06,-74"/>
<text text-anchor="middle" x="81.06" y="-62" font-family="Helvetica,sans-Serif" font-size="10.00">EKContainer.hpp</text>
</a>
</g>
</g>
<!-- Node3&#45;&gt;Node4 -->
<g id="edge3_Node000003_Node000004" class="edge">
<title>Node3&#45;&gt;Node4</title>
<g id="a_edge3_Node000003_Node000004"><a xlink:title=" ">
<path fill="none" stroke="#63b8ff" d="M67.95,-100.24C71.29,-91.37 75.16,-81.14 77.82,-74.09"/>
<polygon fill="#63b8ff" stroke="#63b8ff" points="64.62,-99.16 64.36,-109.75 71.17,-101.63 64.62,-99.16"/>
</a>
</g>
</g>
<!-- Node3&#45;&gt;Node5 -->
<g id="edge5_Node000003_Node000005" class="edge">
<title>Node3&#45;&gt;Node5</title>
<g id="a_edge5_Node000003_Node000005"><a xlink:title=" ">
<path fill="none" stroke="#63b8ff" d="M85.44,-104.86C125.81,-82.26 205.43,-37.71 238.78,-19.05"/>
<polygon fill="#63b8ff" stroke="#63b8ff" points="83.54,-101.91 76.53,-109.84 86.96,-108.02 83.54,-101.91"/>
</a>
</g>
</g>
<!-- Node4&#45;&gt;Node5 -->
<g id="edge4_Node000004_Node000005" class="edge">
<title>Node4&#45;&gt;Node5</title>
<g id="a_edge4_Node000004_Node000005"><a xlink:title=" ">
<path fill="none" stroke="#63b8ff" d="M118.83,-51.93C151.14,-42.03 196.92,-28.01 226.04,-19.08"/>
<polygon fill="#63b8ff" stroke="#63b8ff" points="117.39,-48.71 108.85,-54.98 119.44,-55.4 117.39,-48.71"/>
</a>
</g>
</g>
<!-- Node7&#45;&gt;Node5 -->
<g id="edge10_Node000007_Node000005" class="edge">
<title>Node7&#45;&gt;Node5</title>
<g id="a_edge10_Node000007_Node000005"><a xlink:title=" ">
<path fill="none" stroke="#63b8ff" d="M296.09,-154.92C289.79,-131.54 278.49,-90.19 268.06,-55 264.33,-42.42 259.71,-27.94 256.83,-19.01"/>
<polygon fill="#63b8ff" stroke="#63b8ff" points="292.78,-156.1 298.75,-164.85 299.54,-154.28 292.78,-156.1"/>
</a>
</g>
</g>
<!-- Node7&#45;&gt;Node6 -->
<g id="edge9_Node000007_Node000006" class="edge">
<title>Node7&#45;&gt;Node6</title>
<g id="a_edge9_Node000007_Node000006"><a xlink:title=" ">
<path fill="none" stroke="#63b8ff" d="M321.63,-159.15C335.37,-149.57 352.98,-137.29 364.63,-129.17"/>
<polygon fill="#63b8ff" stroke="#63b8ff" points="319.47,-156.39 313.27,-164.98 323.47,-162.14 319.47,-156.39"/>
</a>
</g>
</g>
<!-- Node8&#45;&gt;Node5 -->
<g id="edge13_Node000008_Node000005" class="edge">
<title>Node8&#45;&gt;Node5</title>
<g id="a_edge13_Node000008_Node000005"><a xlink:title=" ">
<path fill="none" stroke="#63b8ff" d="M203.02,-159.7C214.65,-152.17 227.44,-141.77 235.06,-129 256.61,-92.85 255.98,-39.97 254.76,-19.27"/>
<polygon fill="#63b8ff" stroke="#63b8ff" points="201.19,-156.71 194.45,-164.88 204.82,-162.7 201.19,-156.71"/>
</a>
</g>
</g>
<!-- Node9 -->
<g id="Node000009" class="node">
<title>Node9</title>
<g id="a_Node000009"><a xlink:href="LBFluidNode_8cpp.html" target="_top" xlink:title=" ">
<polygon fill="white" stroke="#666666" points="226.06,-129 128.06,-129 128.06,-110 226.06,-110 226.06,-129"/>
<text text-anchor="middle" x="177.06" y="-117" font-family="Helvetica,sans-Serif" font-size="10.00">LBFluidNode.cpp</text>
</a>
</g>
</g>
<!-- Node8&#45;&gt;Node9 -->
<g id="edge12_Node000008_Node000009" class="edge">
<title>Node8&#45;&gt;Node9</title>
<g id="a_edge12_Node000008_Node000009"><a xlink:title=" ">
<path fill="none" stroke="#63b8ff" d="M177.06,-154.66C177.06,-145.93 177.06,-135.99 177.06,-129.09"/>
<polygon fill="#63b8ff" stroke="#63b8ff" points="173.56,-154.75 177.06,-164.75 180.56,-154.75 173.56,-154.75"/>
</a>
</g>
</g>
<!-- Node11 -->
<g id="Node000011" class="node">
<title>Node11</title>
<g id="a_Node000011"><a xlink:href="EKSpeciesSlice_8hpp.html" target="_top" xlink:title=" ">
<polygon fill="white" stroke="#666666" points="552.56,-74 441.56,-74 441.56,-55 552.56,-55 552.56,-74"/>
<text text-anchor="middle" x="497.06" y="-62" font-family="Helvetica,sans-Serif" font-size="10.00">EKSpeciesSlice.hpp</text>
</a>
</g>
</g>
<!-- Node10&#45;&gt;Node11 -->
<g id="edge15_Node000010_Node000011" class="edge">
<title>Node10&#45;&gt;Node11</title>
<g id="a_edge15_Node000010_Node000011"><a xlink:title=" ">
<path fill="none" stroke="#63b8ff" d="M498.35,-99.66C498.02,-90.93 497.64,-80.99 497.38,-74.09"/>
<polygon fill="#63b8ff" stroke="#63b8ff" points="494.85,-99.89 498.73,-109.75 501.85,-99.62 494.85,-99.89"/>
</a>
</g>
</g>
<!-- Node13 -->
<g id="Node000013" class="node">
<title>Node13</title>
<g id="a_Node000013"><a xlink:href="LBFluidSlice_8hpp.html" target="_top" xlink:title=" ">
<polygon fill="white" stroke="#666666" points="421.56,-74 324.56,-74 324.56,-55 421.56,-55 421.56,-74"/>
<text text-anchor="middle" x="373.06" y="-62" font-family="Helvetica,sans-Serif" font-size="10.00">LBFluidSlice.hpp</text>
</a>
</g>
</g>
<!-- Node10&#45;&gt;Node13 -->
<g id="edge18_Node000010_Node000013" class="edge">
<title>Node10&#45;&gt;Node13</title>
<g id="a_edge18_Node000010_Node000013"><a xlink:title=" ">
<path fill="none" stroke="#63b8ff" d="M469.41,-106.03C446.11,-96.23 414.26,-82.83 393.67,-74.17"/>
<polygon fill="#63b8ff" stroke="#63b8ff" points="468.24,-109.33 478.81,-109.98 470.95,-102.88 468.24,-109.33"/>
</a>
</g>
</g>
<!-- Node11&#45;&gt;Node5 -->
<g id="edge17_Node000011_Node000005" class="edge">
<title>Node11&#45;&gt;Node5</title>
<g id="a_edge17_Node000011_Node000005"><a xlink:title=" ">
<path fill="none" stroke="#63b8ff" d="M448.07,-52.82C402.53,-42.88 335.56,-28.28 293.41,-19.08"/>
<polygon fill="#63b8ff" stroke="#63b8ff" points="447.5,-56.27 458.02,-54.98 448.99,-49.43 447.5,-56.27"/>
</a>
</g>
</g>
<!-- Node12 -->
<g id="Node000012" class="node">
<title>Node12</title>
<g id="a_Node000012"><a xlink:href="EKSpeciesSlice_8cpp.html" target="_top" xlink:title=" ">
<polygon fill="white" stroke="#666666" points="552.06,-19 442.06,-19 442.06,0 552.06,0 552.06,-19"/>
<text text-anchor="middle" x="497.06" y="-7" font-family="Helvetica,sans-Serif" font-size="10.00">EKSpeciesSlice.cpp</text>
</a>
</g>
</g>
<!-- Node11&#45;&gt;Node12 -->
<g id="edge16_Node000011_Node000012" class="edge">
<title>Node11&#45;&gt;Node12</title>
<g id="a_edge16_Node000011_Node000012"><a xlink:title=" ">
<path fill="none" stroke="#63b8ff" d="M497.06,-44.66C497.06,-35.93 497.06,-25.99 497.06,-19.09"/>
<polygon fill="#63b8ff" stroke="#63b8ff" points="493.56,-44.75 497.06,-54.75 500.56,-44.75 493.56,-44.75"/>
</a>
</g>
</g>
<!-- Node13&#45;&gt;Node5 -->
<g id="edge20_Node000013_Node000005" class="edge">
<title>Node13&#45;&gt;Node5</title>
<g id="a_edge20_Node000013_Node000005"><a xlink:title=" ">
<path fill="none" stroke="#63b8ff" d="M344.76,-50.9C322.78,-41.11 292.88,-27.79 273.53,-19.17"/>
<polygon fill="#63b8ff" stroke="#63b8ff" points="343.38,-54.11 353.94,-54.98 346.23,-47.72 343.38,-54.11"/>
</a>
</g>
</g>
<!-- Node14 -->
<g id="Node000014" class="node">
<title>Node14</title>
<g id="a_Node000014"><a xlink:href="LBFluidSlice_8cpp.html" target="_top" xlink:title=" ">
<polygon fill="white" stroke="#666666" points="421.06,-19 325.06,-19 325.06,0 421.06,0 421.06,-19"/>
<text text-anchor="middle" x="373.06" y="-7" font-family="Helvetica,sans-Serif" font-size="10.00">LBFluidSlice.cpp</text>
</a>
</g>
</g>
<!-- Node13&#45;&gt;Node14 -->
<g id="edge19_Node000013_Node000014" class="edge">
<title>Node13&#45;&gt;Node14</title>
<g id="a_edge19_Node000013_Node000014"><a xlink:title=" ">
<path fill="none" stroke="#63b8ff" d="M373.06,-44.66C373.06,-35.93 373.06,-25.99 373.06,-19.09"/>
<polygon fill="#63b8ff" stroke="#63b8ff" points="369.56,-44.75 373.06,-54.75 376.56,-44.75 369.56,-44.75"/>
</a>
</g>
</g>
</g>
</svg>

<g id="navigator" transform="translate(0 0)" fill="#404254">
  <rect fill="#f2f5e9" fill-opacity="0.5" stroke="#606060" stroke-width=".5" x="0" y="0" width="60" height="60"/>
  <use id="zoomplus" xlink:href="#zoomPlus" x="17" y="9" onmousedown="handleZoom(evt,'in')"/>
  <use id="zoomminus" xlink:href="#zoomMin" x="42" y="9" onmousedown="handleZoom(evt,'out')"/>
  <use id="reset" xlink:href="#resetDef" x="30" y="36" onmousedown="handleReset()"/>
   <use id="arrowup" xlink:href="#arrowUp" x="0" y="0" onmousedown="handlePan(0,-1)"/>
  <use id="arrowright" xlink:href="#arrowRight" x="0" y="0" onmousedown="handlePan(1,0)"/>
  <use id="arrowdown" xlink:href="#arrowDown" x="0" y="0" onmousedown="handlePan(0,1)"/>
  <use id="arrowleft" xlink:href="#arrowLeft" x="0" y="0" onmousedown="handlePan(-1,0)"/>
</g>
<svg viewBox="0 0 15 15" width="100%" height="30px" preserveAspectRatio="xMaxYMin meet">
 <g id="arrow_out" transform="scale(0.3 0.3)">
  <a xlink:href="LatticeIndices_8hpp__dep__incl_org.svg" target="_base">
   <rect id="button" ry="5" rx="5" y="6" x="6" height="38" width="38"
        fill="#f2f5e9" fill-opacity="0.5" stroke="#606060" stroke-width="1.0"/>
   <path id="arrow"
     d="M 11.500037,31.436501 C 11.940474,20.09759 22.043105,11.32322 32.158766,21.979434 L 37.068811,17.246167 C 37.068811,17.246167 37.088388,32 37.088388,32 L 22.160133,31.978069 C 22.160133,31.978069 26.997745,27.140456 26.997745,27.140456 C 18.528582,18.264221 13.291696,25.230495 11.500037,31.436501 z"
     style="fill:#404040;"/>
  </a>
 </g>
</svg>

<style type='text/css'>
<![CDATA[
[data-mouse-over-selected='false'] { opacity: 0.7; }
[data-mouse-over-selected='true']  { opacity: 1.0; }
]]>
</style>
<script type="application/ecmascript"><![CDATA[
document.addEventListener('DOMContentLoaded', (event) => {
  highlightEdges();
  highlightAdjacentNodes();
});
]]></script>
</svg>
