<?xml version="1.0" encoding="UTF-8" standalone="no"?>
<!DOCTYPE svg PUBLIC "-//W3C//DTD SVG 1.1//EN"
 "http://www.w3.org/Graphics/SVG/1.1/DTD/svg11.dtd">
<!-- Generated by graphviz version 2.43.0 (0)
 -->
<!-- Title: lb_kernels.hpp Pages: 1 -->
<svg width="290pt" height="137pt"
 viewBox="0.00 0.00 290.00 137.00" xmlns="http://www.w3.org/2000/svg" xmlns:xlink="http://www.w3.org/1999/xlink">
<g id="graph0" class="graph" transform="scale(1 1) rotate(0) translate(4 133)">
<title>lb_kernels.hpp</title>
<!-- Node1 -->
<g id="Node000001" class="node">
<title>Node1</title>
<g id="a_Node000001"><a xlink:title=" ">
<polygon fill="#999999" stroke="#666666" points="223.5,-129 136.5,-129 136.5,-110 223.5,-110 223.5,-129"/>
<text text-anchor="middle" x="180" y="-117" font-family="Helvetica,sans-Serif" font-size="10.00">lb_kernels.hpp</text>
</a>
</g>
</g>
<!-- Node2 -->
<g id="Node000002" class="node">
<title>Node2</title>
<g id="a_Node000002"><a xlink:href="LBWalberlaImpl_8hpp.html" target="_top" xlink:title="walberla::LBWalberlaImpl implements the interface of the LB waLBerla bridge using sweeps generated by...">
<polygon fill="white" stroke="#666666" points="178,-74 64,-74 64,-55 178,-55 178,-74"/>
<text text-anchor="middle" x="121" y="-62" font-family="Helvetica,sans-Serif" font-size="10.00">LBWalberlaImpl.hpp</text>
</a>
</g>
</g>
<!-- Node1&#45;&gt;Node2 -->
<g id="edge1_Node000001_Node000002" class="edge">
<title>Node1&#45;&gt;Node2</title>
<g id="a_edge1_Node000001_Node000002"><a xlink:title=" ">
<path fill="none" stroke="#63b8ff" d="M162.8,-103.04C152.33,-93.64 139.35,-81.98 130.65,-74.17"/>
<polygon fill="#63b8ff" stroke="#63b8ff" points="160.74,-105.91 170.52,-109.98 165.42,-100.7 160.74,-105.91"/>
</a>
</g>
</g>
<!-- Node5 -->
<g id="Node000005" class="node">
<title>Node5</title>
<g id="a_Node000005"><a xlink:href="lb__kernels_8cuh.html" target="_top" xlink:title=" ">
<polygon fill="white" stroke="#666666" points="282,-74 196,-74 196,-55 282,-55 282,-74"/>
<text text-anchor="middle" x="239" y="-62" font-family="Helvetica,sans-Serif" font-size="10.00">lb_kernels.cuh</text>
</a>
</g>
</g>
<!-- Node1&#45;&gt;Node5 -->
<g id="edge4_Node000001_Node000005" class="edge">
<title>Node1&#45;&gt;Node5</title>
<g id="a_edge4_Node000001_Node000005"><a xlink:title=" ">
<path fill="none" stroke="#63b8ff" d="M197.2,-103.04C207.67,-93.64 220.65,-81.98 229.35,-74.17"/>
<polygon fill="#63b8ff" stroke="#63b8ff" points="194.58,-100.7 189.48,-109.98 199.26,-105.91 194.58,-100.7"/>
</a>
</g>
</g>
<!-- Node3 -->
<g id="Node000003" class="node">
<title>Node3</title>
<g id="a_Node000003"><a xlink:href="lb__walberla__init_8cpp.html" target="_top" xlink:title=" ">
<polygon fill="white" stroke="#666666" points="114,-19 0,-19 0,0 114,0 114,-19"/>
<text text-anchor="middle" x="57" y="-7" font-family="Helvetica,sans-Serif" font-size="10.00">lb_walberla_init.cpp</text>
</a>
</g>
</g>
<!-- Node2&#45;&gt;Node3 -->
<g id="edge2_Node000002_Node000003" class="edge">
<title>Node2&#45;&gt;Node3</title>
<g id="a_edge2_Node000002_Node000003"><a xlink:title=" ">
<path fill="none" stroke="#63b8ff" d="M103.01,-48.6C91.54,-39.11 77.09,-27.13 67.47,-19.17"/>
<polygon fill="#63b8ff" stroke="#63b8ff" points="100.78,-51.3 110.72,-54.98 105.25,-45.91 100.78,-51.3"/>
</a>
</g>
</g>
<!-- Node4 -->
<g id="Node000004" class="node">
<title>Node4</title>
<g id="a_Node000004"><a xlink:href="lb__walberla__init_8cu.html" target="_top" xlink:title=" ">
<polygon fill="white" stroke="#666666" points="240,-19 132,-19 132,0 240,0 240,-19"/>
<text text-anchor="middle" x="186" y="-7" font-family="Helvetica,sans-Serif" font-size="10.00">lb_walberla_init.cu</text>
</a>
</g>
</g>
<!-- Node2&#45;&gt;Node4 -->
<g id="edge3_Node000002_Node000004" class="edge">
<title>Node2&#45;&gt;Node4</title>
<g id="a_edge3_Node000002_Node000004"><a xlink:title=" ">
<path fill="none" stroke="#63b8ff" d="M139.27,-48.6C150.92,-39.11 165.6,-27.13 175.37,-19.17"/>
<polygon fill="#63b8ff" stroke="#63b8ff" points="136.98,-45.95 131.44,-54.98 141.41,-51.38 136.98,-45.95"/>
</a>
</g>
</g>
</g>
</svg>
