<?xml version="1.0" encoding="UTF-8" standalone="no"?>
<!DOCTYPE svg PUBLIC "-//W3C//DTD SVG 1.1//EN"
 "http://www.w3.org/Graphics/SVG/1.1/DTD/svg11.dtd">
<!-- Generated by graphviz version 2.43.0 (0)
 -->
<!-- Title: LBFluidPressureTensor.hpp Pages: 1 -->
<!--zoomable 214 -->

<svg id="main" version="1.1" xmlns="http://www.w3.org/2000/svg" xmlns:xlink="http://www.w3.org/1999/xlink" xml:space="preserve" onload="init(evt)">
<style type="text/css"><![CDATA[
.node, .edge {opacity: 0.7;}
.node.selected, .edge.selected {opacity: 1;}
.edge:hover path { stroke: red; }
.edge:hover polygon { stroke: red; fill: red; }
]]></style>

<defs>
  <circle id="rim" cx="0" cy="0" r="7"/>
  <circle id="rim2" cx="0" cy="0" r="3.5"/>
  <g id="zoomPlus">
    <use xlink:href="#rim" fill="#404040"><set attributeName="fill" to="#808080" begin="zoomplus.mouseover" end="zoomplus.mouseout"/></use>
    <path d="M-4,0h8M0,-4v8" fill="none" stroke="white" stroke-width="1.5" pointer-events="none"/>
  </g>
  <g id="zoomMin">
    <use xlink:href="#rim" fill="#404040"><set attributeName="fill" to="#808080" begin="zoomminus.mouseover" end="zoomminus.mouseout"/></use>
    <path d="M-4,0h8" fill="none" stroke="white" stroke-width="1.5" pointer-events="none"/>
  </g>
  <g id="arrowUp" transform="translate(30 24)">
    <use xlink:href="#rim"/>
    <path pointer-events="none" fill="none" stroke="white" stroke-width="1.5" d="M0,-3.0v7 M-2.5,-0.5L0,-3.0L2.5,-0.5"/>
  </g>
  <g id="arrowRight" transform="rotate(90) translate(36 -43)">
    <use xlink:href="#rim"/>
    <path pointer-events="none" fill="none" stroke="white" stroke-width="1.5" d="M0,-3.0v7 M-2.5,-0.5L0,-3.0L2.5,-0.5"/>
  </g>
  <g id="arrowDown" transform="rotate(180) translate(-30 -48)">
    <use xlink:href="#rim"/>
    <path pointer-events="none" fill="none" stroke="white" stroke-width="1.5" d="M0,-3.0v7 M-2.5,-0.5L0,-3.0L2.5,-0.5"/>
  </g>
  <g id="arrowLeft" transform="rotate(270) translate(-36 17)">
    <use xlink:href="#rim"/>
    <path pointer-events="none" fill="none" stroke="white" stroke-width="1.5" d="M0,-3.0v7 M-2.5,-0.5L0,-3.0L2.5,-0.5"/>
  </g>
  <g id="resetDef">
    <use xlink:href="#rim2" fill="#404040"><set attributeName="fill" to="#808080" begin="reset.mouseover" end="reset.mouseout"/></use>
  </g>
</defs>
<script type="application/ecmascript">
var viewWidth = 1756;
var viewHeight = 214;
var sectionId = 'dynsection-0';
</script>
<script type="application/ecmascript" xlink:href="svg.min.js"/>
<svg id="graph" class="graph">
<g id="viewport">
<title>LBFluidPressureTensor.hpp</title>
<!-- Node1 -->
<g id="Node000001" class="node">
<title>Node1</title>
<g id="a_Node000001"><a xlink:title=" ">
<polygon fill="#999999" stroke="#666666" points="1379.5,-206 1233.5,-206 1233.5,-187 1379.5,-187 1379.5,-206"/>
<text text-anchor="middle" x="1306.5" y="-194" font-family="Helvetica,sans-Serif" font-size="10.00">LBFluidPressureTensor.hpp</text>
</a>
</g>
</g>
<!-- Node2 -->
<g id="Node000002" class="node">
<title>Node2</title>
<g id="a_Node000002"><a xlink:href="core_2observables_2Observable_8hpp.html" target="_top" xlink:title=" ">
<polygon fill="white" stroke="#666666" points="1316,-145.5 1223,-145.5 1223,-126.5 1316,-126.5 1316,-145.5"/>
<text text-anchor="middle" x="1269.5" y="-133.5" font-family="Helvetica,sans-Serif" font-size="10.00">Observable.hpp</text>
</a>
</g>
</g>
<!-- Node1&#45;&gt;Node2 -->
<g id="edge1_Node000001_Node000002" class="edge">
<title>Node1&#45;&gt;Node2</title>
<g id="a_edge1_Node000001_Node000002"><a xlink:title=" ">
<path fill="none" stroke="#63b8ff" d="M1301.04,-186.87C1295.63,-178.31 1287.19,-164.97 1280.4,-154.24"/>
<polygon fill="#63b8ff" stroke="#63b8ff" points="1283.29,-152.25 1274.98,-145.67 1277.37,-155.99 1283.29,-152.25"/>
</a>
</g>
</g>
<!-- Node3 -->
<g id="Node000003" class="node">
<title>Node3</title>
<g id="a_Node000003"><a xlink:title=" ">
<polygon fill="#e0e0e0" stroke="#999999" points="1141,-79.5 1088,-79.5 1088,-60.5 1141,-60.5 1141,-79.5"/>
<text text-anchor="middle" x="1114.5" y="-67.5" font-family="Helvetica,sans-Serif" font-size="10.00">cstddef</text>
</a>
</g>
</g>
<!-- Node1&#45;&gt;Node3 -->
<g id="edge22_Node000001_Node000003" class="edge">
<title>Node1&#45;&gt;Node3</title>
<g id="a_edge22_Node000001_Node000003"><a xlink:title=" ">
<path fill="none" stroke="#63b8ff" d="M1275.4,-186.91C1251.96,-179.57 1219.67,-167.56 1194.5,-151 1167.67,-133.35 1142.48,-105.61 1127.78,-87.87"/>
<polygon fill="#63b8ff" stroke="#63b8ff" points="1130.1,-85.19 1121.09,-79.61 1124.66,-89.59 1130.1,-85.19"/>
</a>
</g>
</g>
<!-- Node4 -->
<g id="Node000004" class="node">
<title>Node4</title>
<g id="a_Node000004"><a xlink:title=" ">
<polygon fill="#e0e0e0" stroke="#999999" points="1224,-79.5 1159,-79.5 1159,-60.5 1224,-60.5 1224,-79.5"/>
<text text-anchor="middle" x="1191.5" y="-67.5" font-family="Helvetica,sans-Serif" font-size="10.00">functional</text>
</a>
</g>
</g>
<!-- Node1&#45;&gt;Node4 -->
<g id="edge23_Node000001_Node000004" class="edge">
<title>Node1&#45;&gt;Node4</title>
<g id="a_edge23_Node000001_Node000004"><a xlink:title=" ">
<path fill="none" stroke="#63b8ff" d="M1273.28,-186.9C1253.58,-180.18 1229.59,-168.91 1214.5,-151 1199.83,-133.59 1194.51,-107.32 1192.58,-89.69"/>
<polygon fill="#63b8ff" stroke="#63b8ff" points="1196.05,-89.2 1191.74,-79.52 1189.08,-89.78 1196.05,-89.2"/>
</a>
</g>
</g>
<!-- Node6 -->
<g id="Node000006" class="node">
<title>Node6</title>
<g id="a_Node000006"><a xlink:title=" ">
<polygon fill="#e0e0e0" stroke="#999999" points="1540,-79.5 1493,-79.5 1493,-60.5 1540,-60.5 1540,-79.5"/>
<text text-anchor="middle" x="1516.5" y="-67.5" font-family="Helvetica,sans-Serif" font-size="10.00">vector</text>
</a>
</g>
</g>
<!-- Node1&#45;&gt;Node6 -->
<g id="edge24_Node000001_Node000006" class="edge">
<title>Node1&#45;&gt;Node6</title>
<g id="a_edge24_Node000001_Node000006"><a xlink:title=" ">
<path fill="none" stroke="#63b8ff" d="M1310.95,-186.71C1319.3,-171.11 1338.8,-138.59 1364.5,-121 1410.44,-89.54 1432.23,-104.19 1484.5,-85 1485.89,-84.49 1487.3,-83.95 1488.72,-83.39"/>
<polygon fill="#63b8ff" stroke="#63b8ff" points="1490.14,-86.59 1498.04,-79.53 1487.46,-80.13 1490.14,-86.59"/>
</a>
</g>
</g>
<!-- Node8 -->
<g id="Node000008" class="node">
<title>Node8</title>
<g id="a_Node000008"><a xlink:title=" ">
<polygon fill="#e0e0e0" stroke="#999999" points="1486,-145.5 1373,-145.5 1373,-126.5 1486,-126.5 1486,-145.5"/>
<text text-anchor="middle" x="1429.5" y="-133.5" font-family="Helvetica,sans-Serif" font-size="10.00">system/System.hpp</text>
</a>
</g>
</g>
<!-- Node1&#45;&gt;Node8 -->
<g id="edge7_Node000001_Node000008" class="edge">
<title>Node1&#45;&gt;Node8</title>
<g id="a_edge7_Node000001_Node000008"><a xlink:title=" ">
<path fill="none" stroke="#63b8ff" d="M1324.39,-186.99C1344.88,-177.25 1378.69,-161.16 1402.42,-149.88"/>
<polygon fill="#63b8ff" stroke="#63b8ff" points="1404.07,-152.97 1411.59,-145.52 1401.06,-146.65 1404.07,-152.97"/>
</a>
</g>
</g>
<!-- Node9 -->
<g id="Node000009" class="node">
<title>Node9</title>
<g id="a_Node000009"><a xlink:href="sqr_8hpp.html" target="_top" xlink:title=" ">
<polygon fill="white" stroke="#666666" points="1608.5,-145.5 1504.5,-145.5 1504.5,-126.5 1608.5,-126.5 1608.5,-145.5"/>
<text text-anchor="middle" x="1556.5" y="-133.5" font-family="Helvetica,sans-Serif" font-size="10.00">utils/math/sqr.hpp</text>
</a>
</g>
</g>
<!-- Node1&#45;&gt;Node9 -->
<g id="edge8_Node000001_Node000009" class="edge">
<title>Node1&#45;&gt;Node9</title>
<g id="a_edge8_Node000001_Node000009"><a xlink:title=" ">
<path fill="none" stroke="#63b8ff" d="M1342.85,-186.99C1387.1,-176.64 1461.89,-159.14 1510.21,-147.83"/>
<polygon fill="#63b8ff" stroke="#63b8ff" points="1511.16,-151.2 1520.1,-145.52 1509.57,-144.39 1511.16,-151.2"/>
</a>
</g>
</g>
<!-- Node12 -->
<g id="Node000012" class="node">
<title>Node12</title>
<g id="a_Node000012"><a xlink:href="array_8hpp.html" target="_top" xlink:title=" ">
<polygon fill="white" stroke="#666666" points="738,-151 637,-151 637,-121 738,-121 738,-151"/>
<text text-anchor="start" x="645" y="-139" font-family="Helvetica,sans-Serif" font-size="10.00">utils/serialization</text>
<text text-anchor="middle" x="687.5" y="-128" font-family="Helvetica,sans-Serif" font-size="10.00">/array.hpp</text>
</a>
</g>
</g>
<!-- Node1&#45;&gt;Node12 -->
<g id="edge11_Node000001_Node000012" class="edge">
<title>Node1&#45;&gt;Node12</title>
<g id="a_edge11_Node000001_Node000012"><a xlink:title=" ">
<path fill="none" stroke="#63b8ff" d="M1233.37,-188.59C1109.93,-176.92 862.52,-153.54 748.1,-142.73"/>
<polygon fill="#63b8ff" stroke="#63b8ff" points="748.39,-139.24 738.11,-141.78 747.74,-146.21 748.39,-139.24"/>
</a>
</g>
</g>
<!-- Node21 -->
<g id="Node000021" class="node">
<title>Node21</title>
<g id="a_Node000021"><a xlink:title=" ">
<polygon fill="#e0e0e0" stroke="#999999" points="1748,-151 1627,-151 1627,-121 1748,-121 1748,-151"/>
<text text-anchor="start" x="1635" y="-139" font-family="Helvetica,sans-Serif" font-size="10.00">boost/mpi/collectives</text>
<text text-anchor="middle" x="1687.5" y="-128" font-family="Helvetica,sans-Serif" font-size="10.00">/reduce.hpp</text>
</a>
</g>
</g>
<!-- Node1&#45;&gt;Node21 -->
<g id="edge21_Node000001_Node000021" class="edge">
<title>Node1&#45;&gt;Node21</title>
<g id="a_edge21_Node000001_Node000021"><a xlink:title=" ">
<path fill="none" stroke="#63b8ff" d="M1373.7,-186.97C1434.53,-179.01 1526.81,-166.31 1616.73,-151.07"/>
<polygon fill="#63b8ff" stroke="#63b8ff" points="1617.56,-154.48 1626.83,-149.35 1616.39,-147.58 1617.56,-154.48"/>
</a>
</g>
</g>
<!-- Node2&#45;&gt;Node3 -->
<g id="edge2_Node000002_Node000003" class="edge">
<title>Node2&#45;&gt;Node3</title>
<g id="a_edge2_Node000002_Node000003"><a xlink:title=" ">
<path fill="none" stroke="#63b8ff" d="M1248.6,-126.37C1221.9,-115.35 1175.51,-96.19 1144.91,-83.55"/>
<polygon fill="#63b8ff" stroke="#63b8ff" points="1146.15,-80.28 1135.57,-79.7 1143.48,-86.75 1146.15,-80.28"/>
</a>
</g>
</g>
<!-- Node2&#45;&gt;Node4 -->
<g id="edge3_Node000002_Node000004" class="edge">
<title>Node2&#45;&gt;Node4</title>
<g id="a_edge3_Node000002_Node000004"><a xlink:title=" ">
<path fill="none" stroke="#63b8ff" d="M1258.98,-126.37C1246.42,-116.06 1225.19,-98.65 1209.9,-86.09"/>
<polygon fill="#63b8ff" stroke="#63b8ff" points="1212.05,-83.34 1202.1,-79.7 1207.61,-88.75 1212.05,-83.34"/>
</a>
</g>
</g>
<!-- Node5 -->
<g id="Node000005" class="node">
<title>Node5</title>
<g id="a_Node000005"><a xlink:title=" ">
<polygon fill="#e0e0e0" stroke="#999999" points="1298.5,-79.5 1242.5,-79.5 1242.5,-60.5 1298.5,-60.5 1298.5,-79.5"/>
<text text-anchor="middle" x="1270.5" y="-67.5" font-family="Helvetica,sans-Serif" font-size="10.00">numeric</text>
</a>
</g>
</g>
<!-- Node2&#45;&gt;Node5 -->
<g id="edge4_Node000002_Node000005" class="edge">
<title>Node2&#45;&gt;Node5</title>
<g id="a_edge4_Node000002_Node000005"><a xlink:title=" ">
<path fill="none" stroke="#63b8ff" d="M1269.63,-126.37C1269.78,-117.16 1270.01,-102.29 1270.2,-90.27"/>
<polygon fill="#63b8ff" stroke="#63b8ff" points="1273.7,-89.96 1270.36,-79.91 1266.7,-89.85 1273.7,-89.96"/>
</a>
</g>
</g>
<!-- Node2&#45;&gt;Node6 -->
<g id="edge5_Node000002_Node000006" class="edge">
<title>Node2&#45;&gt;Node6</title>
<g id="a_edge5_Node000002_Node000006"><a xlink:title=" ">
<path fill="none" stroke="#63b8ff" d="M1306.53,-126.48C1366.88,-112.58 1480.24,-86.41 1484.5,-85 1485.94,-84.52 1487.4,-84 1488.87,-83.46"/>
<polygon fill="#63b8ff" stroke="#63b8ff" points="1490.49,-86.58 1498.45,-79.59 1487.87,-80.09 1490.49,-86.58"/>
</a>
</g>
</g>
<!-- Node7 -->
<g id="Node000007" class="node">
<title>Node7</title>
<g id="a_Node000007"><a xlink:title=" ">
<polygon fill="#e0e0e0" stroke="#999999" points="1475,-79.5 1316,-79.5 1316,-60.5 1475,-60.5 1475,-79.5"/>
<text text-anchor="middle" x="1395.5" y="-67.5" font-family="Helvetica,sans-Serif" font-size="10.00">boost/mpi/communicator.hpp</text>
</a>
</g>
</g>
<!-- Node2&#45;&gt;Node7 -->
<g id="edge6_Node000002_Node000007" class="edge">
<title>Node2&#45;&gt;Node7</title>
<g id="a_edge6_Node000002_Node000007"><a xlink:title=" ">
<path fill="none" stroke="#63b8ff" d="M1286.49,-126.37C1307.72,-115.59 1344.28,-97.02 1369.15,-84.38"/>
<polygon fill="#63b8ff" stroke="#63b8ff" points="1371.04,-87.35 1378.37,-79.7 1367.87,-81.11 1371.04,-87.35"/>
</a>
</g>
</g>
<!-- Node10 -->
<g id="Node000010" class="node">
<title>Node10</title>
<g id="a_Node000010"><a xlink:href="device__qualifier_8hpp.html" target="_top" xlink:title=" ">
<polygon fill="white" stroke="#666666" points="1696.5,-79.5 1558.5,-79.5 1558.5,-60.5 1696.5,-60.5 1696.5,-79.5"/>
<text text-anchor="middle" x="1627.5" y="-67.5" font-family="Helvetica,sans-Serif" font-size="10.00">utils/device_qualifier.hpp</text>
</a>
</g>
</g>
<!-- Node9&#45;&gt;Node10 -->
<g id="edge9_Node000009_Node000010" class="edge">
<title>Node9&#45;&gt;Node10</title>
<g id="a_edge9_Node000009_Node000010"><a xlink:title=" ">
<path fill="none" stroke="#63b8ff" d="M1566.08,-126.37C1577.34,-116.21 1596.26,-99.16 1610.13,-86.65"/>
<polygon fill="#63b8ff" stroke="#63b8ff" points="1612.54,-89.2 1617.62,-79.91 1607.85,-84 1612.54,-89.2"/>
</a>
</g>
</g>
<!-- Node11 -->
<g id="Node000011" class="node">
<title>Node11</title>
<g id="a_Node000011"><a xlink:title=" ">
<polygon fill="#e0e0e0" stroke="#999999" points="1653.5,-19 1601.5,-19 1601.5,0 1653.5,0 1653.5,-19"/>
<text text-anchor="middle" x="1627.5" y="-7" font-family="Helvetica,sans-Serif" font-size="10.00">cassert</text>
</a>
</g>
</g>
<!-- Node10&#45;&gt;Node11 -->
<g id="edge10_Node000010_Node000011" class="edge">
<title>Node10&#45;&gt;Node11</title>
<g id="a_edge10_Node000010_Node000011"><a xlink:title=" ">
<path fill="none" stroke="#63b8ff" d="M1627.5,-60.37C1627.5,-52.25 1627.5,-39.81 1627.5,-29.39"/>
<polygon fill="#63b8ff" stroke="#63b8ff" points="1631,-29.17 1627.5,-19.17 1624,-29.17 1631,-29.17"/>
</a>
</g>
</g>
<!-- Node12&#45;&gt;Node3 -->
<g id="edge20_Node000012_Node000003" class="edge">
<title>Node12&#45;&gt;Node3</title>
<g id="a_edge20_Node000012_Node000003"><a xlink:title=" ">
<path fill="none" stroke="#63b8ff" d="M738.08,-132.65C813.51,-128.22 959.46,-116.12 1079.5,-85 1081.66,-84.44 1083.87,-83.78 1086.07,-83.06"/>
<polygon fill="#63b8ff" stroke="#63b8ff" points="1087.35,-86.32 1095.54,-79.6 1084.94,-79.74 1087.35,-86.32"/>
</a>
</g>
</g>
<!-- Node13 -->
<g id="Node000013" class="node">
<title>Node13</title>
<g id="a_Node000013"><a xlink:title=" ">
<polygon fill="#e0e0e0" stroke="#999999" points="133,-79.5 0,-79.5 0,-60.5 133,-60.5 133,-79.5"/>
<text text-anchor="middle" x="66.5" y="-67.5" font-family="Helvetica,sans-Serif" font-size="10.00">boost/mpl/bool_fwd.hpp</text>
</a>
</g>
</g>
<!-- Node12&#45;&gt;Node13 -->
<g id="edge12_Node000012_Node000013" class="edge">
<title>Node12&#45;&gt;Node13</title>
<g id="a_edge12_Node000012_Node000013"><a xlink:title=" ">
<path fill="none" stroke="#63b8ff" d="M636.98,-131.9C540.55,-125.65 323.7,-109.95 142.5,-85 134.84,-83.94 126.77,-82.65 118.87,-81.29"/>
<polygon fill="#63b8ff" stroke="#63b8ff" points="119.46,-77.84 109,-79.53 118.23,-84.73 119.46,-77.84"/>
</a>
</g>
</g>
<!-- Node14 -->
<g id="Node000014" class="node">
<title>Node14</title>
<g id="a_Node000014"><a xlink:title=" ">
<polygon fill="#e0e0e0" stroke="#999999" points="275.5,-79.5 151.5,-79.5 151.5,-60.5 275.5,-60.5 275.5,-79.5"/>
<text text-anchor="middle" x="213.5" y="-67.5" font-family="Helvetica,sans-Serif" font-size="10.00">boost/mpl/greater.hpp</text>
</a>
</g>
</g>
<!-- Node12&#45;&gt;Node14 -->
<g id="edge13_Node000012_Node000014" class="edge">
<title>Node12&#45;&gt;Node14</title>
<g id="a_edge13_Node000012_Node000014"><a xlink:title=" ">
<path fill="none" stroke="#63b8ff" d="M636.76,-129.88C560.2,-121.88 410.67,-105.24 284.5,-85 277.92,-83.94 271.01,-82.72 264.2,-81.45"/>
<polygon fill="#63b8ff" stroke="#63b8ff" points="264.81,-78.01 254.33,-79.57 263.5,-84.88 264.81,-78.01"/>
</a>
</g>
</g>
<!-- Node15 -->
<g id="Node000015" class="node">
<title>Node15</title>
<g id="a_Node000015"><a xlink:title=" ">
<polygon fill="#e0e0e0" stroke="#999999" points="395.5,-79.5 293.5,-79.5 293.5,-60.5 395.5,-60.5 395.5,-79.5"/>
<text text-anchor="middle" x="344.5" y="-67.5" font-family="Helvetica,sans-Serif" font-size="10.00">boost/mpl/int.hpp</text>
</a>
</g>
</g>
<!-- Node12&#45;&gt;Node15 -->
<g id="edge14_Node000012_Node000015" class="edge">
<title>Node12&#45;&gt;Node15</title>
<g id="a_edge14_Node000012_Node000015"><a xlink:title=" ">
<path fill="none" stroke="#63b8ff" d="M636.99,-126.93C580.26,-117.66 485.52,-101.6 404.5,-85 399.71,-84.02 394.72,-82.94 389.75,-81.83"/>
<polygon fill="#63b8ff" stroke="#63b8ff" points="390.17,-78.34 379.65,-79.54 388.62,-85.17 390.17,-78.34"/>
</a>
</g>
</g>
<!-- Node16 -->
<g id="Node000016" class="node">
<title>Node16</title>
<g id="a_Node000016"><a xlink:title=" ">
<polygon fill="#e0e0e0" stroke="#999999" points="519.5,-85 413.5,-85 413.5,-55 519.5,-55 519.5,-85"/>
<text text-anchor="start" x="421.5" y="-73" font-family="Helvetica,sans-Serif" font-size="10.00">boost/mpl/integral</text>
<text text-anchor="middle" x="466.5" y="-62" font-family="Helvetica,sans-Serif" font-size="10.00">_c_tag.hpp</text>
</a>
</g>
</g>
<!-- Node12&#45;&gt;Node16 -->
<g id="edge15_Node000012_Node000016" class="edge">
<title>Node12&#45;&gt;Node16</title>
<g id="a_edge15_Node000012_Node000016"><a xlink:title=" ">
<path fill="none" stroke="#63b8ff" d="M639,-120.95C605.32,-111.2 560.28,-98.16 524.66,-87.84"/>
<polygon fill="#63b8ff" stroke="#63b8ff" points="525.47,-84.43 514.89,-85.01 523.52,-91.16 525.47,-84.43"/>
</a>
</g>
</g>
<!-- Node17 -->
<g id="Node000017" class="node">
<title>Node17</title>
<g id="a_Node000017"><a xlink:title=" ">
<polygon fill="#e0e0e0" stroke="#999999" points="689,-85 538,-85 538,-55 689,-55 689,-85"/>
<text text-anchor="start" x="546" y="-73" font-family="Helvetica,sans-Serif" font-size="10.00">boost/serialization</text>
<text text-anchor="middle" x="613.5" y="-62" font-family="Helvetica,sans-Serif" font-size="10.00">/is_bitwise_serializable.hpp</text>
</a>
</g>
</g>
<!-- Node12&#45;&gt;Node17 -->
<g id="edge16_Node000012_Node000017" class="edge">
<title>Node12&#45;&gt;Node17</title>
<g id="a_edge16_Node000012_Node000017"><a xlink:title=" ">
<path fill="none" stroke="#63b8ff" d="M671.08,-120.8C661.21,-112.26 648.48,-101.25 637.5,-91.75"/>
<polygon fill="#63b8ff" stroke="#63b8ff" points="639.73,-89.06 629.88,-85.16 635.15,-94.35 639.73,-89.06"/>
</a>
</g>
</g>
<!-- Node18 -->
<g id="Node000018" class="node">
<title>Node18</title>
<g id="a_Node000018"><a xlink:title=" ">
<polygon fill="#e0e0e0" stroke="#999999" points="814,-85 707,-85 707,-55 814,-55 814,-85"/>
<text text-anchor="start" x="715" y="-73" font-family="Helvetica,sans-Serif" font-size="10.00">boost/serialization</text>
<text text-anchor="middle" x="760.5" y="-62" font-family="Helvetica,sans-Serif" font-size="10.00">/level.hpp</text>
</a>
</g>
</g>
<!-- Node12&#45;&gt;Node18 -->
<g id="edge17_Node000012_Node000018" class="edge">
<title>Node12&#45;&gt;Node18</title>
<g id="a_edge17_Node000012_Node000018"><a xlink:title=" ">
<path fill="none" stroke="#63b8ff" d="M703.7,-120.8C713.34,-112.34 725.75,-101.46 736.51,-92.03"/>
<polygon fill="#63b8ff" stroke="#63b8ff" points="739.13,-94.39 744.34,-85.16 734.52,-89.12 739.13,-94.39"/>
</a>
</g>
</g>
<!-- Node19 -->
<g id="Node000019" class="node">
<title>Node19</title>
<g id="a_Node000019"><a xlink:title=" ">
<polygon fill="#e0e0e0" stroke="#999999" points="939,-85 832,-85 832,-55 939,-55 939,-85"/>
<text text-anchor="start" x="840" y="-73" font-family="Helvetica,sans-Serif" font-size="10.00">boost/serialization</text>
<text text-anchor="middle" x="885.5" y="-62" font-family="Helvetica,sans-Serif" font-size="10.00">/tracking.hpp</text>
</a>
</g>
</g>
<!-- Node12&#45;&gt;Node19 -->
<g id="edge18_Node000012_Node000019" class="edge">
<title>Node12&#45;&gt;Node19</title>
<g id="a_edge18_Node000012_Node000019"><a xlink:title=" ">
<path fill="none" stroke="#63b8ff" d="M730.95,-120.95C760.87,-111.28 800.79,-98.38 832.57,-88.11"/>
<polygon fill="#63b8ff" stroke="#63b8ff" points="833.71,-91.42 842.15,-85.01 831.56,-84.76 833.71,-91.42"/>
</a>
</g>
</g>
<!-- Node20 -->
<g id="Node000020" class="node">
<title>Node20</title>
<g id="a_Node000020"><a xlink:title=" ">
<polygon fill="#e0e0e0" stroke="#999999" points="1070,-85 957,-85 957,-55 1070,-55 1070,-85"/>
<text text-anchor="start" x="965" y="-73" font-family="Helvetica,sans-Serif" font-size="10.00">boost/serialization</text>
<text text-anchor="middle" x="1013.5" y="-62" font-family="Helvetica,sans-Serif" font-size="10.00">/tracking_enum.hpp</text>
</a>
</g>
</g>
<!-- Node12&#45;&gt;Node20 -->
<g id="edge19_Node000012_Node000020" class="edge">
<title>Node12&#45;&gt;Node20</title>
<g id="a_edge19_Node000012_Node000020"><a xlink:title=" ">
<path fill="none" stroke="#63b8ff" d="M738.09,-125.66C788.56,-116.27 868.59,-101.16 946.78,-85.33"/>
<polygon fill="#63b8ff" stroke="#63b8ff" points="947.69,-88.71 956.8,-83.29 946.3,-81.85 947.69,-88.71"/>
</a>
</g>
</g>
</g>
</svg>

<g id="navigator" transform="translate(0 0)" fill="#404254">
  <rect fill="#f2f5e9" fill-opacity="0.5" stroke="#606060" stroke-width=".5" x="0" y="0" width="60" height="60"/>
  <use id="zoomplus" xlink:href="#zoomPlus" x="17" y="9" onmousedown="handleZoom(evt,'in')"/>
  <use id="zoomminus" xlink:href="#zoomMin" x="42" y="9" onmousedown="handleZoom(evt,'out')"/>
  <use id="reset" xlink:href="#resetDef" x="30" y="36" onmousedown="handleReset()"/>
   <use id="arrowup" xlink:href="#arrowUp" x="0" y="0" onmousedown="handlePan(0,-1)"/>
  <use id="arrowright" xlink:href="#arrowRight" x="0" y="0" onmousedown="handlePan(1,0)"/>
  <use id="arrowdown" xlink:href="#arrowDown" x="0" y="0" onmousedown="handlePan(0,1)"/>
  <use id="arrowleft" xlink:href="#arrowLeft" x="0" y="0" onmousedown="handlePan(-1,0)"/>
</g>
<svg viewBox="0 0 15 15" width="100%" height="30px" preserveAspectRatio="xMaxYMin meet">
 <g id="arrow_out" transform="scale(0.3 0.3)">
  <a xlink:href="LBFluidPressureTensor_8hpp__incl_org.svg" target="_base">
   <rect id="button" ry="5" rx="5" y="6" x="6" height="38" width="38"
        fill="#f2f5e9" fill-opacity="0.5" stroke="#606060" stroke-width="1.0"/>
   <path id="arrow"
     d="M 11.500037,31.436501 C 11.940474,20.09759 22.043105,11.32322 32.158766,21.979434 L 37.068811,17.246167 C 37.068811,17.246167 37.088388,32 37.088388,32 L 22.160133,31.978069 C 22.160133,31.978069 26.997745,27.140456 26.997745,27.140456 C 18.528582,18.264221 13.291696,25.230495 11.500037,31.436501 z"
     style="fill:#404040;"/>
  </a>
 </g>
</svg>

<style type='text/css'>
<![CDATA[
[data-mouse-over-selected='false'] { opacity: 0.7; }
[data-mouse-over-selected='true']  { opacity: 1.0; }
]]>
</style>
<script type="application/ecmascript"><![CDATA[
document.addEventListener('DOMContentLoaded', (event) => {
  highlightEdges();
  highlightAdjacentNodes();
});
]]></script>
</svg>
