<?xml version="1.0" encoding="UTF-8" standalone="no"?>
<!DOCTYPE svg PUBLIC "-//W3C//DTD SVG 1.1//EN"
 "http://www.w3.org/Graphics/SVG/1.1/DTD/svg11.dtd">
<!-- Generated by graphviz version 2.43.0 (0)
 -->
<!-- Title: LBWalberlaNodeState.hpp Pages: 1 -->
<!--zoomable 269 -->

<svg id="main" version="1.1" xmlns="http://www.w3.org/2000/svg" xmlns:xlink="http://www.w3.org/1999/xlink" xml:space="preserve" onload="init(evt)">
<style type="text/css"><![CDATA[
.node, .edge {opacity: 0.7;}
.node.selected, .edge.selected {opacity: 1;}
.edge:hover path { stroke: red; }
.edge:hover polygon { stroke: red; fill: red; }
]]></style>

<defs>
  <circle id="rim" cx="0" cy="0" r="7"/>
  <circle id="rim2" cx="0" cy="0" r="3.5"/>
  <g id="zoomPlus">
    <use xlink:href="#rim" fill="#404040"><set attributeName="fill" to="#808080" begin="zoomplus.mouseover" end="zoomplus.mouseout"/></use>
    <path d="M-4,0h8M0,-4v8" fill="none" stroke="white" stroke-width="1.5" pointer-events="none"/>
  </g>
  <g id="zoomMin">
    <use xlink:href="#rim" fill="#404040"><set attributeName="fill" to="#808080" begin="zoomminus.mouseover" end="zoomminus.mouseout"/></use>
    <path d="M-4,0h8" fill="none" stroke="white" stroke-width="1.5" pointer-events="none"/>
  </g>
  <g id="arrowUp" transform="translate(30 24)">
    <use xlink:href="#rim"/>
    <path pointer-events="none" fill="none" stroke="white" stroke-width="1.5" d="M0,-3.0v7 M-2.5,-0.5L0,-3.0L2.5,-0.5"/>
  </g>
  <g id="arrowRight" transform="rotate(90) translate(36 -43)">
    <use xlink:href="#rim"/>
    <path pointer-events="none" fill="none" stroke="white" stroke-width="1.5" d="M0,-3.0v7 M-2.5,-0.5L0,-3.0L2.5,-0.5"/>
  </g>
  <g id="arrowDown" transform="rotate(180) translate(-30 -48)">
    <use xlink:href="#rim"/>
    <path pointer-events="none" fill="none" stroke="white" stroke-width="1.5" d="M0,-3.0v7 M-2.5,-0.5L0,-3.0L2.5,-0.5"/>
  </g>
  <g id="arrowLeft" transform="rotate(270) translate(-36 17)">
    <use xlink:href="#rim"/>
    <path pointer-events="none" fill="none" stroke="white" stroke-width="1.5" d="M0,-3.0v7 M-2.5,-0.5L0,-3.0L2.5,-0.5"/>
  </g>
  <g id="resetDef">
    <use xlink:href="#rim2" fill="#404040"><set attributeName="fill" to="#808080" begin="reset.mouseover" end="reset.mouseout"/></use>
  </g>
</defs>
<script type="application/ecmascript">
var viewWidth = 1298;
var viewHeight = 269;
var sectionId = 'dynsection-0';
</script>
<script type="application/ecmascript" xlink:href="svg.min.js"/>
<svg id="graph" class="graph">
<g id="viewport">
<title>LBWalberlaNodeState.hpp</title>
<!-- Node1 -->
<g id="Node000001" class="node">
<title>Node1</title>
<g id="a_Node000001"><a xlink:title=" ">
<polygon fill="#999999" stroke="#666666" points="520.87,-261 377.87,-261 377.87,-242 520.87,-242 520.87,-261"/>
<text text-anchor="middle" x="449.37" y="-249" font-family="Helvetica,sans-Serif" font-size="10.00">LBWalberlaNodeState.hpp</text>
</a>
</g>
</g>
<!-- Node2 -->
<g id="Node000002" class="node">
<title>Node2</title>
<g id="a_Node000002"><a xlink:href="Vector_8hpp.html" target="_top" xlink:title="Vector implementation and trait types for boost qvm interoperability.">
<polygon fill="white" stroke="#666666" points="495.37,-206 403.37,-206 403.37,-187 495.37,-187 495.37,-206"/>
<text text-anchor="middle" x="449.37" y="-194" font-family="Helvetica,sans-Serif" font-size="10.00">utils/Vector.hpp</text>
</a>
</g>
</g>
<!-- Node1&#45;&gt;Node2 -->
<g id="edge1_Node000001_Node000002" class="edge">
<title>Node1&#45;&gt;Node2</title>
<g id="a_edge1_Node000001_Node000002"><a xlink:title=" ">
<path fill="none" stroke="#63b8ff" d="M449.37,-241.75C449.37,-234.8 449.37,-224.85 449.37,-216.13"/>
<polygon fill="#63b8ff" stroke="#63b8ff" points="452.87,-216.09 449.37,-206.09 445.87,-216.09 452.87,-216.09"/>
</a>
</g>
</g>
<!-- Node20 -->
<g id="Node000020" class="node">
<title>Node20</title>
<g id="a_Node000020"><a xlink:title=" ">
<polygon fill="#e0e0e0" stroke="#999999" points="125.87,-96 18.87,-96 18.87,-66 125.87,-66 125.87,-96"/>
<text text-anchor="start" x="26.87" y="-84" font-family="Helvetica,sans-Serif" font-size="10.00">boost/serialization</text>
<text text-anchor="middle" x="72.37" y="-73" font-family="Helvetica,sans-Serif" font-size="10.00">/access.hpp</text>
</a>
</g>
</g>
<!-- Node1&#45;&gt;Node20 -->
<g id="edge37_Node000001_Node000020" class="edge">
<title>Node1&#45;&gt;Node20</title>
<g id="a_edge37_Node000001_Node000020"><a xlink:title=" ">
<path fill="none" stroke="#63b8ff" d="M377.78,-243.57C271.89,-231.67 81.57,-203.43 40.37,-151 29.25,-136.85 39.04,-118.22 50.62,-103.88"/>
<polygon fill="#63b8ff" stroke="#63b8ff" points="53.56,-105.84 57.5,-96 48.29,-101.23 53.56,-105.84"/>
</a>
</g>
</g>
<!-- Node31 -->
<g id="Node000031" class="node">
<title>Node31</title>
<g id="a_Node000031"><a xlink:title=" ">
<polygon fill="#e0e0e0" stroke="#999999" points="1207.87,-151 1160.87,-151 1160.87,-132 1207.87,-132 1207.87,-151"/>
<text text-anchor="middle" x="1184.37" y="-139" font-family="Helvetica,sans-Serif" font-size="10.00">vector</text>
</a>
</g>
</g>
<!-- Node1&#45;&gt;Node31 -->
<g id="edge38_Node000001_Node000031" class="edge">
<title>Node1&#45;&gt;Node31</title>
<g id="a_edge38_Node000001_Node000031"><a xlink:title=" ">
<path fill="none" stroke="#63b8ff" d="M520.91,-242.16C647.51,-226.99 919.12,-192.57 1146.37,-151 1147.82,-150.73 1149.31,-150.45 1150.81,-150.16"/>
<polygon fill="#63b8ff" stroke="#63b8ff" points="1151.64,-153.56 1160.71,-148.09 1150.21,-146.71 1151.64,-153.56"/>
</a>
</g>
</g>
<!-- Node3 -->
<g id="Node000003" class="node">
<title>Node3</title>
<g id="a_Node000003"><a xlink:title=" ">
<polygon fill="#e0e0e0" stroke="#999999" points="757.37,-151 607.37,-151 607.37,-132 757.37,-132 757.37,-151"/>
<text text-anchor="middle" x="682.37" y="-139" font-family="Helvetica,sans-Serif" font-size="10.00">boost/qvm/deduce_vec.hpp</text>
</a>
</g>
</g>
<!-- Node2&#45;&gt;Node3 -->
<g id="edge2_Node000002_Node000003" class="edge">
<title>Node2&#45;&gt;Node3</title>
<g id="a_edge2_Node000002_Node000003"><a xlink:title=" ">
<path fill="none" stroke="#63b8ff" d="M486.81,-186.98C527.02,-177.84 591.05,-163.27 634.81,-153.32"/>
<polygon fill="#63b8ff" stroke="#63b8ff" points="635.67,-156.71 644.64,-151.08 634.11,-149.89 635.67,-156.71"/>
</a>
</g>
</g>
<!-- Node4 -->
<g id="Node000004" class="node">
<title>Node4</title>
<g id="a_Node000004"><a xlink:title=" ">
<polygon fill="#e0e0e0" stroke="#999999" points="915.37,-151 775.37,-151 775.37,-132 915.37,-132 915.37,-151"/>
<text text-anchor="middle" x="845.37" y="-139" font-family="Helvetica,sans-Serif" font-size="10.00">boost/qvm/vec_traits.hpp</text>
</a>
</g>
</g>
<!-- Node2&#45;&gt;Node4 -->
<g id="edge3_Node000002_Node000004" class="edge">
<title>Node2&#45;&gt;Node4</title>
<g id="a_edge3_Node000002_Node000004"><a xlink:title=" ">
<path fill="none" stroke="#63b8ff" d="M495.57,-189.32C563.46,-180.23 690.87,-163.18 771.74,-152.35"/>
<polygon fill="#63b8ff" stroke="#63b8ff" points="772.41,-155.8 781.86,-151 771.48,-148.86 772.41,-155.8"/>
</a>
</g>
</g>
<!-- Node5 -->
<g id="Node000005" class="node">
<title>Node5</title>
<g id="a_Node000005"><a xlink:href="Array_8hpp.html" target="_top" xlink:title="Array implementation with CUDA support.">
<polygon fill="white" stroke="#666666" points="1019.37,-151 933.37,-151 933.37,-132 1019.37,-132 1019.37,-151"/>
<text text-anchor="middle" x="976.37" y="-139" font-family="Helvetica,sans-Serif" font-size="10.00">utils/Array.hpp</text>
</a>
</g>
</g>
<!-- Node2&#45;&gt;Node5 -->
<g id="edge4_Node000002_Node000005" class="edge">
<title>Node2&#45;&gt;Node5</title>
<g id="a_edge4_Node000002_Node000005"><a xlink:title=" ">
<path fill="none" stroke="#63b8ff" d="M495.67,-192.22C579.02,-186.09 760.04,-171.73 923.06,-151.08"/>
<polygon fill="#63b8ff" stroke="#63b8ff" points="923.8,-154.52 933.27,-149.78 922.91,-147.57 923.8,-154.52"/>
</a>
</g>
</g>
<!-- Node7 -->
<g id="Node000007" class="node">
<title>Node7</title>
<g id="a_Node000007"><a xlink:title=" ">
<polygon fill="#e0e0e0" stroke="#999999" points="1290.37,-24.5 1238.37,-24.5 1238.37,-5.5 1290.37,-5.5 1290.37,-24.5"/>
<text text-anchor="middle" x="1264.37" y="-12.5" font-family="Helvetica,sans-Serif" font-size="10.00">cassert</text>
</a>
</g>
</g>
<!-- Node2&#45;&gt;Node7 -->
<g id="edge27_Node000002_Node000007" class="edge">
<title>Node2&#45;&gt;Node7</title>
<g id="a_edge27_Node000002_Node000007"><a xlink:title=" ">
<path fill="none" stroke="#63b8ff" d="M495.64,-194.56C614.68,-191.73 929.11,-181.5 1028.37,-151 1116.09,-124.04 1206.68,-60.17 1245.2,-31"/>
<polygon fill="#63b8ff" stroke="#63b8ff" points="1247.62,-33.55 1253.43,-24.69 1243.36,-28 1247.62,-33.55"/>
</a>
</g>
</g>
<!-- Node9 -->
<g id="Node000009" class="node">
<title>Node9</title>
<g id="a_Node000009"><a xlink:title=" ">
<polygon fill="#e0e0e0" stroke="#999999" points="131.87,-24.5 78.87,-24.5 78.87,-5.5 131.87,-5.5 131.87,-24.5"/>
<text text-anchor="middle" x="105.37" y="-12.5" font-family="Helvetica,sans-Serif" font-size="10.00">cstddef</text>
</a>
</g>
</g>
<!-- Node2&#45;&gt;Node9 -->
<g id="edge29_Node000002_Node000009" class="edge">
<title>Node2&#45;&gt;Node9</title>
<g id="a_edge29_Node000002_Node000009"><a xlink:title=" ">
<path fill="none" stroke="#63b8ff" d="M403.21,-195.67C309.11,-195.19 99.03,-189.68 40.37,-151 6.8,-128.86 -11.49,-100.38 9.37,-66 16.68,-53.94 48.42,-38.84 73.42,-28.4"/>
<polygon fill="#63b8ff" stroke="#63b8ff" points="75.02,-31.53 82.95,-24.51 72.37,-25.05 75.02,-31.53"/>
</a>
</g>
</g>
<!-- Node21 -->
<g id="Node000021" class="node">
<title>Node21</title>
<g id="a_Node000021"><a xlink:title=" ">
<polygon fill="#e0e0e0" stroke="#999999" points="196.87,-90.5 143.87,-90.5 143.87,-71.5 196.87,-71.5 196.87,-90.5"/>
<text text-anchor="middle" x="170.37" y="-78.5" font-family="Helvetica,sans-Serif" font-size="10.00">iterator</text>
</a>
</g>
</g>
<!-- Node2&#45;&gt;Node21 -->
<g id="edge32_Node000002_Node000021" class="edge">
<title>Node2&#45;&gt;Node21</title>
<g id="a_edge32_Node000002_Node000021"><a xlink:title=" ">
<path fill="none" stroke="#63b8ff" d="M403.06,-193.78C302.4,-189.57 70.76,-177.12 47.37,-151 41.74,-144.71 42.66,-139.01 47.37,-132 48.74,-129.96 102.83,-108.47 138.82,-94.33"/>
<polygon fill="#63b8ff" stroke="#63b8ff" points="140.4,-97.47 148.43,-90.56 137.84,-90.95 140.4,-97.47"/>
</a>
</g>
</g>
<!-- Node24 -->
<g id="Node000024" class="node">
<title>Node24</title>
<g id="a_Node000024"><a xlink:title=" ">
<polygon fill="#e0e0e0" stroke="#999999" points="120.37,-151 56.37,-151 56.37,-132 120.37,-132 120.37,-151"/>
<text text-anchor="middle" x="88.37" y="-139" font-family="Helvetica,sans-Serif" font-size="10.00">algorithm</text>
</a>
</g>
</g>
<!-- Node2&#45;&gt;Node24 -->
<g id="edge26_Node000002_Node000024" class="edge">
<title>Node2&#45;&gt;Node24</title>
<g id="a_edge26_Node000002_Node000024"><a xlink:title=" ">
<path fill="none" stroke="#63b8ff" d="M403.12,-190.04C342.71,-182.7 233.47,-168.69 130.5,-151.1"/>
<polygon fill="#63b8ff" stroke="#63b8ff" points="131.01,-147.63 120.56,-149.38 129.82,-154.53 131.01,-147.63"/>
</a>
</g>
</g>
<!-- Node25 -->
<g id="Node000025" class="node">
<title>Node25</title>
<g id="a_Node000025"><a xlink:title=" ">
<polygon fill="#e0e0e0" stroke="#999999" points="185.87,-151 138.87,-151 138.87,-132 185.87,-132 185.87,-151"/>
<text text-anchor="middle" x="162.37" y="-139" font-family="Helvetica,sans-Serif" font-size="10.00">cmath</text>
</a>
</g>
</g>
<!-- Node2&#45;&gt;Node25 -->
<g id="edge28_Node000002_Node000025" class="edge">
<title>Node2&#45;&gt;Node25</title>
<g id="a_edge28_Node000002_Node000025"><a xlink:title=" ">
<path fill="none" stroke="#63b8ff" d="M403.07,-188.66C353.9,-181.12 273.71,-168.04 196.03,-151.22"/>
<polygon fill="#63b8ff" stroke="#63b8ff" points="196.6,-147.76 186.08,-149.04 195.1,-154.6 196.6,-147.76"/>
</a>
</g>
</g>
<!-- Node26 -->
<g id="Node000026" class="node">
<title>Node26</title>
<g id="a_Node000026"><a xlink:title=" ">
<polygon fill="#e0e0e0" stroke="#999999" points="268.87,-151 203.87,-151 203.87,-132 268.87,-132 268.87,-151"/>
<text text-anchor="middle" x="236.37" y="-139" font-family="Helvetica,sans-Serif" font-size="10.00">functional</text>
</a>
</g>
</g>
<!-- Node2&#45;&gt;Node26 -->
<g id="edge30_Node000002_Node000026" class="edge">
<title>Node2&#45;&gt;Node26</title>
<g id="a_edge30_Node000002_Node000026"><a xlink:title=" ">
<path fill="none" stroke="#63b8ff" d="M415.15,-186.98C378.07,-177.76 318.87,-163.03 278.84,-153.07"/>
<polygon fill="#63b8ff" stroke="#63b8ff" points="279.66,-149.66 269.11,-150.65 277.97,-156.46 279.66,-149.66"/>
</a>
</g>
</g>
<!-- Node27 -->
<g id="Node000027" class="node">
<title>Node27</title>
<g id="a_Node000027"><a xlink:title=" ">
<polygon fill="#e0e0e0" stroke="#999999" points="369.87,-151 286.87,-151 286.87,-132 369.87,-132 369.87,-151"/>
<text text-anchor="middle" x="328.37" y="-139" font-family="Helvetica,sans-Serif" font-size="10.00">initializer_list</text>
</a>
</g>
</g>
<!-- Node2&#45;&gt;Node27 -->
<g id="edge31_Node000002_Node000027" class="edge">
<title>Node2&#45;&gt;Node27</title>
<g id="a_edge31_Node000002_Node000027"><a xlink:title=" ">
<path fill="none" stroke="#63b8ff" d="M429.93,-186.98C410.38,-178.42 379.99,-165.11 357.55,-155.28"/>
<polygon fill="#63b8ff" stroke="#63b8ff" points="358.73,-151.98 348.16,-151.17 355.92,-158.39 358.73,-151.98"/>
</a>
</g>
</g>
<!-- Node28 -->
<g id="Node000028" class="node">
<title>Node28</title>
<g id="a_Node000028"><a xlink:title=" ">
<polygon fill="#e0e0e0" stroke="#999999" points="444.37,-151 388.37,-151 388.37,-132 444.37,-132 444.37,-151"/>
<text text-anchor="middle" x="416.37" y="-139" font-family="Helvetica,sans-Serif" font-size="10.00">numeric</text>
</a>
</g>
</g>
<!-- Node2&#45;&gt;Node28 -->
<g id="edge33_Node000002_Node000028" class="edge">
<title>Node2&#45;&gt;Node28</title>
<g id="a_edge33_Node000002_Node000028"><a xlink:title=" ">
<path fill="none" stroke="#63b8ff" d="M443.92,-186.75C439.36,-179.42 432.7,-168.73 427.08,-159.7"/>
<polygon fill="#63b8ff" stroke="#63b8ff" points="429.97,-157.73 421.72,-151.09 424.03,-161.43 429.97,-157.73"/>
</a>
</g>
</g>
<!-- Node29 -->
<g id="Node000029" class="node">
<title>Node29</title>
<g id="a_Node000029"><a xlink:title=" ">
<polygon fill="#e0e0e0" stroke="#999999" points="502.37,-151 462.37,-151 462.37,-132 502.37,-132 502.37,-151"/>
<text text-anchor="middle" x="482.37" y="-139" font-family="Helvetica,sans-Serif" font-size="10.00">span</text>
</a>
</g>
</g>
<!-- Node2&#45;&gt;Node29 -->
<g id="edge34_Node000002_Node000029" class="edge">
<title>Node2&#45;&gt;Node29</title>
<g id="a_edge34_Node000002_Node000029"><a xlink:title=" ">
<path fill="none" stroke="#63b8ff" d="M454.82,-186.75C459.38,-179.42 466.04,-168.73 471.66,-159.7"/>
<polygon fill="#63b8ff" stroke="#63b8ff" points="474.71,-161.43 477.02,-151.09 468.77,-157.73 474.71,-161.43"/>
</a>
</g>
</g>
<!-- Node30 -->
<g id="Node000030" class="node">
<title>Node30</title>
<g id="a_Node000030"><a xlink:title=" ">
<polygon fill="#e0e0e0" stroke="#999999" points="589.87,-151 520.87,-151 520.87,-132 589.87,-132 589.87,-151"/>
<text text-anchor="middle" x="555.37" y="-139" font-family="Helvetica,sans-Serif" font-size="10.00">type_traits</text>
</a>
</g>
</g>
<!-- Node2&#45;&gt;Node30 -->
<g id="edge35_Node000002_Node000030" class="edge">
<title>Node2&#45;&gt;Node30</title>
<g id="a_edge35_Node000002_Node000030"><a xlink:title=" ">
<path fill="none" stroke="#63b8ff" d="M466.4,-186.98C483.3,-178.54 509.43,-165.47 529.01,-155.68"/>
<polygon fill="#63b8ff" stroke="#63b8ff" points="530.65,-158.77 538.03,-151.17 527.52,-152.51 530.65,-158.77"/>
</a>
</g>
</g>
<!-- Node2&#45;&gt;Node31 -->
<g id="edge36_Node000002_Node000031" class="edge">
<title>Node2&#45;&gt;Node31</title>
<g id="a_edge36_Node000002_Node000031"><a xlink:title=" ">
<path fill="none" stroke="#63b8ff" d="M495.71,-195.04C607.93,-193.38 903,-185.77 1146.37,-151 1147.83,-150.79 1149.33,-150.56 1150.83,-150.3"/>
<polygon fill="#63b8ff" stroke="#63b8ff" points="1151.6,-153.71 1160.76,-148.38 1150.28,-146.84 1151.6,-153.71"/>
</a>
</g>
</g>
<!-- Node6 -->
<g id="Node000006" class="node">
<title>Node6</title>
<g id="a_Node000006"><a xlink:href="device__qualifier_8hpp.html" target="_top" xlink:title=" ">
<polygon fill="white" stroke="#666666" points="907.37,-90.5 793.37,-90.5 793.37,-71.5 907.37,-71.5 907.37,-90.5"/>
<text text-anchor="middle" x="850.37" y="-78.5" font-family="Helvetica,sans-Serif" font-size="10.00">device_qualifier.hpp</text>
</a>
</g>
</g>
<!-- Node5&#45;&gt;Node6 -->
<g id="edge5_Node000005_Node000006" class="edge">
<title>Node5&#45;&gt;Node6</title>
<g id="a_edge5_Node000005_Node000006"><a xlink:title=" ">
<path fill="none" stroke="#63b8ff" d="M958.05,-131.99C936.96,-122.2 902.11,-106.02 877.79,-94.73"/>
<polygon fill="#63b8ff" stroke="#63b8ff" points="879.26,-91.55 868.71,-90.52 876.31,-97.9 879.26,-91.55"/>
</a>
</g>
</g>
<!-- Node5&#45;&gt;Node7 -->
<g id="edge21_Node000005_Node000007" class="edge">
<title>Node5&#45;&gt;Node7</title>
<g id="a_edge21_Node000005_Node000007"><a xlink:title=" ">
<path fill="none" stroke="#63b8ff" d="M969.19,-131.54C957.85,-116.27 938.71,-84.99 955.37,-66 995.87,-19.83 1169.95,-45.52 1229.37,-30 1231.53,-29.44 1233.74,-28.77 1235.94,-28.05"/>
<polygon fill="#63b8ff" stroke="#63b8ff" points="1237.22,-31.31 1245.41,-24.59 1234.81,-24.73 1237.22,-31.31"/>
</a>
</g>
</g>
<!-- Node8 -->
<g id="Node000008" class="node">
<title>Node8</title>
<g id="a_Node000008"><a xlink:href="get_8hpp.html" target="_top" xlink:title=" ">
<polygon fill="white" stroke="#666666" points="267.87,-90.5 214.87,-90.5 214.87,-71.5 267.87,-71.5 267.87,-90.5"/>
<text text-anchor="middle" x="241.37" y="-78.5" font-family="Helvetica,sans-Serif" font-size="10.00">get.hpp</text>
</a>
</g>
</g>
<!-- Node5&#45;&gt;Node8 -->
<g id="edge7_Node000005_Node000008" class="edge">
<title>Node5&#45;&gt;Node8</title>
<g id="a_edge7_Node000005_Node000008"><a xlink:title=" ">
<path fill="none" stroke="#63b8ff" d="M933.28,-133.15C930.27,-132.73 927.28,-132.34 924.37,-132 797.31,-116.99 401.13,-91.88 278.16,-84.26"/>
<polygon fill="#63b8ff" stroke="#63b8ff" points="278.31,-80.76 268.12,-83.64 277.88,-87.75 278.31,-80.76"/>
</a>
</g>
</g>
<!-- Node5&#45;&gt;Node9 -->
<g id="edge22_Node000005_Node000009" class="edge">
<title>Node5&#45;&gt;Node9</title>
<g id="a_edge22_Node000005_Node000009"><a xlink:title=" ">
<path fill="none" stroke="#63b8ff" d="M933.27,-133.26C930.26,-132.81 927.27,-132.39 924.37,-132 576.11,-85.25 479.54,-121.82 140.37,-30 138.21,-29.42 136.01,-28.74 133.81,-28"/>
<polygon fill="#63b8ff" stroke="#63b8ff" points="134.95,-24.69 124.35,-24.52 132.53,-31.26 134.95,-24.69"/>
</a>
</g>
</g>
<!-- Node11 -->
<g id="Node000011" class="node">
<title>Node11</title>
<g id="a_Node000011"><a xlink:href="array_8hpp.html" target="_top" xlink:title=" ">
<polygon fill="white" stroke="#666666" points="716.87,-90.5 591.87,-90.5 591.87,-71.5 716.87,-71.5 716.87,-90.5"/>
<text text-anchor="middle" x="654.37" y="-78.5" font-family="Helvetica,sans-Serif" font-size="10.00">serialization/array.hpp</text>
</a>
</g>
</g>
<!-- Node5&#45;&gt;Node11 -->
<g id="edge10_Node000005_Node000011" class="edge">
<title>Node5&#45;&gt;Node11</title>
<g id="a_edge10_Node000005_Node000011"><a xlink:title=" ">
<path fill="none" stroke="#63b8ff" d="M933.28,-132.67C876.02,-122.27 774.71,-103.86 711.24,-92.33"/>
<polygon fill="#63b8ff" stroke="#63b8ff" points="711.85,-88.89 701.39,-90.54 710.6,-95.77 711.85,-88.89"/>
</a>
</g>
</g>
<!-- Node5&#45;&gt;Node20 -->
<g id="edge20_Node000005_Node000020" class="edge">
<title>Node5&#45;&gt;Node20</title>
<g id="a_edge20_Node000005_Node000020"><a xlink:title=" ">
<path fill="none" stroke="#63b8ff" d="M933.29,-133.06C930.28,-132.66 927.28,-132.3 924.37,-132 578.11,-95.93 484.48,-142 136.15,-96.08"/>
<polygon fill="#63b8ff" stroke="#63b8ff" points="136.41,-92.58 126.03,-94.73 135.48,-99.52 136.41,-92.58"/>
</a>
</g>
</g>
<!-- Node5&#45;&gt;Node21 -->
<g id="edge23_Node000005_Node000021" class="edge">
<title>Node5&#45;&gt;Node21</title>
<g id="a_edge23_Node000005_Node000021"><a xlink:title=" ">
<path fill="none" stroke="#63b8ff" d="M933.29,-133.08C930.28,-132.67 927.28,-132.31 924.37,-132 606.21,-98.14 517.94,-164.35 205.37,-96 203,-95.48 200.58,-94.82 198.17,-94.06"/>
<polygon fill="#63b8ff" stroke="#63b8ff" points="199.13,-90.69 188.54,-90.59 196.75,-97.27 199.13,-90.69"/>
</a>
</g>
</g>
<!-- Node22 -->
<g id="Node000022" class="node">
<title>Node22</title>
<g id="a_Node000022"><a xlink:title=" ">
<polygon fill="#e0e0e0" stroke="#999999" points="1020.87,-90.5 963.87,-90.5 963.87,-71.5 1020.87,-71.5 1020.87,-90.5"/>
<text text-anchor="middle" x="992.37" y="-78.5" font-family="Helvetica,sans-Serif" font-size="10.00">ostream</text>
</a>
</g>
</g>
<!-- Node5&#45;&gt;Node22 -->
<g id="edge24_Node000005_Node000022" class="edge">
<title>Node5&#45;&gt;Node22</title>
<g id="a_edge24_Node000005_Node000022"><a xlink:title=" ">
<path fill="none" stroke="#63b8ff" d="M978.73,-131.87C980.98,-123.66 984.43,-111.04 987.3,-100.55"/>
<polygon fill="#63b8ff" stroke="#63b8ff" points="990.74,-101.24 990,-90.67 983.99,-99.39 990.74,-101.24"/>
</a>
</g>
</g>
<!-- Node23 -->
<g id="Node000023" class="node">
<title>Node23</title>
<g id="a_Node000023"><a xlink:title=" ">
<polygon fill="#e0e0e0" stroke="#999999" points="1103.87,-90.5 1038.87,-90.5 1038.87,-71.5 1103.87,-71.5 1103.87,-90.5"/>
<text text-anchor="middle" x="1071.37" y="-78.5" font-family="Helvetica,sans-Serif" font-size="10.00">stdexcept</text>
</a>
</g>
</g>
<!-- Node5&#45;&gt;Node23 -->
<g id="edge25_Node000005_Node000023" class="edge">
<title>Node5&#45;&gt;Node23</title>
<g id="a_edge25_Node000005_Node000023"><a xlink:title=" ">
<path fill="none" stroke="#63b8ff" d="M990.39,-131.87C1005.68,-122.45 1030.4,-107.23 1048.51,-96.08"/>
<polygon fill="#63b8ff" stroke="#63b8ff" points="1050.62,-98.89 1057.3,-90.67 1046.94,-92.93 1050.62,-98.89"/>
</a>
</g>
</g>
<!-- Node6&#45;&gt;Node7 -->
<g id="edge6_Node000006_Node000007" class="edge">
<title>Node6&#45;&gt;Node7</title>
<g id="a_edge6_Node000006_Node000007"><a xlink:title=" ">
<path fill="none" stroke="#63b8ff" d="M890.82,-71.45C900.78,-69.51 911.44,-67.56 921.37,-66 1057.53,-44.65 1095.78,-63.89 1229.37,-30 1231.54,-29.45 1233.74,-28.8 1235.95,-28.08"/>
<polygon fill="#63b8ff" stroke="#63b8ff" points="1237.22,-31.35 1245.42,-24.64 1234.82,-24.77 1237.22,-31.35"/>
</a>
</g>
</g>
<!-- Node8&#45;&gt;Node9 -->
<g id="edge8_Node000008_Node000009" class="edge">
<title>Node8&#45;&gt;Node9</title>
<g id="a_edge8_Node000008_Node000009"><a xlink:title=" ">
<path fill="none" stroke="#63b8ff" d="M223.03,-71.37C199.91,-60.49 159.96,-41.69 133.1,-29.05"/>
<polygon fill="#63b8ff" stroke="#63b8ff" points="134.39,-25.79 123.86,-24.7 131.41,-32.12 134.39,-25.79"/>
</a>
</g>
</g>
<!-- Node10 -->
<g id="Node000010" class="node">
<title>Node10</title>
<g id="a_Node000010"><a xlink:title=" ">
<polygon fill="#e0e0e0" stroke="#999999" points="60.87,-24.5 19.87,-24.5 19.87,-5.5 60.87,-5.5 60.87,-24.5"/>
<text text-anchor="middle" x="40.37" y="-12.5" font-family="Helvetica,sans-Serif" font-size="10.00">tuple</text>
</a>
</g>
</g>
<!-- Node8&#45;&gt;Node10 -->
<g id="edge9_Node000008_Node000010" class="edge">
<title>Node8&#45;&gt;Node10</title>
<g id="a_edge9_Node000008_Node000010"><a xlink:title=" ">
<path fill="none" stroke="#63b8ff" d="M220.57,-71.46C215.63,-69.55 210.34,-67.62 205.37,-66 145.92,-46.64 128.01,-51.69 69.37,-30 68.32,-29.61 67.26,-29.2 66.19,-28.77"/>
<polygon fill="#63b8ff" stroke="#63b8ff" points="67.26,-25.41 56.7,-24.55 64.42,-31.81 67.26,-25.41"/>
</a>
</g>
</g>
<!-- Node11&#45;&gt;Node9 -->
<g id="edge19_Node000011_Node000009" class="edge">
<title>Node11&#45;&gt;Node9</title>
<g id="a_edge19_Node000011_Node000009"><a xlink:title=" ">
<path fill="none" stroke="#63b8ff" d="M591.63,-72.67C572.02,-70.44 550.31,-68.05 530.37,-66 357.21,-48.23 309.6,-70.75 140.37,-30 138.06,-29.44 135.7,-28.76 133.36,-28.01"/>
<polygon fill="#63b8ff" stroke="#63b8ff" points="134.53,-24.71 123.94,-24.58 132.14,-31.29 134.53,-24.71"/>
</a>
</g>
</g>
<!-- Node12 -->
<g id="Node000012" class="node">
<title>Node12</title>
<g id="a_Node000012"><a xlink:title=" ">
<polygon fill="#e0e0e0" stroke="#999999" points="663.87,-24.5 530.87,-24.5 530.87,-5.5 663.87,-5.5 663.87,-24.5"/>
<text text-anchor="middle" x="597.37" y="-12.5" font-family="Helvetica,sans-Serif" font-size="10.00">boost/mpl/bool_fwd.hpp</text>
</a>
</g>
</g>
<!-- Node11&#45;&gt;Node12 -->
<g id="edge11_Node000011_Node000012" class="edge">
<title>Node11&#45;&gt;Node12</title>
<g id="a_edge11_Node000011_Node000012"><a xlink:title=" ">
<path fill="none" stroke="#63b8ff" d="M646.68,-71.37C637.89,-61.5 623.3,-45.11 612.26,-32.72"/>
<polygon fill="#63b8ff" stroke="#63b8ff" points="614.57,-30.05 605.3,-24.91 609.34,-34.7 614.57,-30.05"/>
</a>
</g>
</g>
<!-- Node13 -->
<g id="Node000013" class="node">
<title>Node13</title>
<g id="a_Node000013"><a xlink:title=" ">
<polygon fill="#e0e0e0" stroke="#999999" points="806.37,-24.5 682.37,-24.5 682.37,-5.5 806.37,-5.5 806.37,-24.5"/>
<text text-anchor="middle" x="744.37" y="-12.5" font-family="Helvetica,sans-Serif" font-size="10.00">boost/mpl/greater.hpp</text>
</a>
</g>
</g>
<!-- Node11&#45;&gt;Node13 -->
<g id="edge12_Node000011_Node000013" class="edge">
<title>Node11&#45;&gt;Node13</title>
<g id="a_edge12_Node000011_Node000013"><a xlink:title=" ">
<path fill="none" stroke="#63b8ff" d="M666.51,-71.37C681.14,-60.97 705.95,-43.32 723.63,-30.75"/>
<polygon fill="#63b8ff" stroke="#63b8ff" points="726.02,-33.35 732.14,-24.7 721.96,-27.64 726.02,-33.35"/>
</a>
</g>
</g>
<!-- Node14 -->
<g id="Node000014" class="node">
<title>Node14</title>
<g id="a_Node000014"><a xlink:title=" ">
<polygon fill="#e0e0e0" stroke="#999999" points="926.37,-24.5 824.37,-24.5 824.37,-5.5 926.37,-5.5 926.37,-24.5"/>
<text text-anchor="middle" x="875.37" y="-12.5" font-family="Helvetica,sans-Serif" font-size="10.00">boost/mpl/int.hpp</text>
</a>
</g>
</g>
<!-- Node11&#45;&gt;Node14 -->
<g id="edge13_Node000011_Node000014" class="edge">
<title>Node11&#45;&gt;Node14</title>
<g id="a_edge13_Node000011_Node000014"><a xlink:title=" ">
<path fill="none" stroke="#63b8ff" d="M684.18,-71.37C723.42,-60 792.51,-40 836.01,-27.4"/>
<polygon fill="#63b8ff" stroke="#63b8ff" points="837.05,-30.74 845.69,-24.6 835.11,-24.02 837.05,-30.74"/>
</a>
</g>
</g>
<!-- Node15 -->
<g id="Node000015" class="node">
<title>Node15</title>
<g id="a_Node000015"><a xlink:title=" ">
<polygon fill="#e0e0e0" stroke="#999999" points="1050.37,-30 944.37,-30 944.37,0 1050.37,0 1050.37,-30"/>
<text text-anchor="start" x="952.37" y="-18" font-family="Helvetica,sans-Serif" font-size="10.00">boost/mpl/integral</text>
<text text-anchor="middle" x="997.37" y="-7" font-family="Helvetica,sans-Serif" font-size="10.00">_c_tag.hpp</text>
</a>
</g>
</g>
<!-- Node11&#45;&gt;Node15 -->
<g id="edge14_Node000011_Node000015" class="edge">
<title>Node11&#45;&gt;Node15</title>
<g id="a_edge14_Node000011_Node000015"><a xlink:title=" ">
<path fill="none" stroke="#63b8ff" d="M706.3,-71.5C760.7,-62.42 848.87,-47.25 934.43,-30.14"/>
<polygon fill="#63b8ff" stroke="#63b8ff" points="935.19,-33.55 944.3,-28.15 933.81,-26.69 935.19,-33.55"/>
</a>
</g>
</g>
<!-- Node16 -->
<g id="Node000016" class="node">
<title>Node16</title>
<g id="a_Node000016"><a xlink:title=" ">
<polygon fill="#e0e0e0" stroke="#999999" points="1219.87,-30 1068.87,-30 1068.87,0 1219.87,0 1219.87,-30"/>
<text text-anchor="start" x="1076.87" y="-18" font-family="Helvetica,sans-Serif" font-size="10.00">boost/serialization</text>
<text text-anchor="middle" x="1144.37" y="-7" font-family="Helvetica,sans-Serif" font-size="10.00">/is_bitwise_serializable.hpp</text>
</a>
</g>
</g>
<!-- Node11&#45;&gt;Node16 -->
<g id="edge15_Node000011_Node000016" class="edge">
<title>Node11&#45;&gt;Node16</title>
<g id="a_edge15_Node000011_Node000016"><a xlink:title=" ">
<path fill="none" stroke="#63b8ff" d="M716.92,-73.07C794.55,-64.3 931.25,-48.26 1058.89,-30.03"/>
<polygon fill="#63b8ff" stroke="#63b8ff" points="1059.45,-33.49 1068.85,-28.6 1058.46,-26.56 1059.45,-33.49"/>
</a>
</g>
</g>
<!-- Node17 -->
<g id="Node000017" class="node">
<title>Node17</title>
<g id="a_Node000017"><a xlink:title=" ">
<polygon fill="#e0e0e0" stroke="#999999" points="256.87,-30 149.87,-30 149.87,0 256.87,0 256.87,-30"/>
<text text-anchor="start" x="157.87" y="-18" font-family="Helvetica,sans-Serif" font-size="10.00">boost/serialization</text>
<text text-anchor="middle" x="203.37" y="-7" font-family="Helvetica,sans-Serif" font-size="10.00">/level.hpp</text>
</a>
</g>
</g>
<!-- Node11&#45;&gt;Node17 -->
<g id="edge16_Node000011_Node000017" class="edge">
<title>Node11&#45;&gt;Node17</title>
<g id="a_edge16_Node000011_Node000017"><a xlink:title=" ">
<path fill="none" stroke="#63b8ff" d="M591.72,-72.68C502.4,-62.12 341.82,-42.66 267.04,-30.17"/>
<polygon fill="#63b8ff" stroke="#63b8ff" points="267.53,-26.7 257.08,-28.45 266.34,-33.6 267.53,-26.7"/>
</a>
</g>
</g>
<!-- Node18 -->
<g id="Node000018" class="node">
<title>Node18</title>
<g id="a_Node000018"><a xlink:title=" ">
<polygon fill="#e0e0e0" stroke="#999999" points="381.87,-30 274.87,-30 274.87,0 381.87,0 381.87,-30"/>
<text text-anchor="start" x="282.87" y="-18" font-family="Helvetica,sans-Serif" font-size="10.00">boost/serialization</text>
<text text-anchor="middle" x="328.37" y="-7" font-family="Helvetica,sans-Serif" font-size="10.00">/tracking.hpp</text>
</a>
</g>
</g>
<!-- Node11&#45;&gt;Node18 -->
<g id="edge17_Node000011_Node000018" class="edge">
<title>Node11&#45;&gt;Node18</title>
<g id="a_edge17_Node000011_Node000018"><a xlink:title=" ">
<path fill="none" stroke="#63b8ff" d="M606.58,-71.47C555.69,-62.26 472.55,-46.9 391.93,-30.29"/>
<polygon fill="#63b8ff" stroke="#63b8ff" points="392.62,-26.86 382.11,-28.26 391.2,-33.71 392.62,-26.86"/>
</a>
</g>
</g>
<!-- Node19 -->
<g id="Node000019" class="node">
<title>Node19</title>
<g id="a_Node000019"><a xlink:title=" ">
<polygon fill="#e0e0e0" stroke="#999999" points="512.87,-30 399.87,-30 399.87,0 512.87,0 512.87,-30"/>
<text text-anchor="start" x="407.87" y="-18" font-family="Helvetica,sans-Serif" font-size="10.00">boost/serialization</text>
<text text-anchor="middle" x="456.37" y="-7" font-family="Helvetica,sans-Serif" font-size="10.00">/tracking_enum.hpp</text>
</a>
</g>
</g>
<!-- Node11&#45;&gt;Node19 -->
<g id="edge18_Node000011_Node000019" class="edge">
<title>Node11&#45;&gt;Node19</title>
<g id="a_edge18_Node000011_Node000019"><a xlink:title=" ">
<path fill="none" stroke="#63b8ff" d="M627.67,-71.37C597.63,-61.66 548.06,-45.64 509.96,-33.32"/>
<polygon fill="#63b8ff" stroke="#63b8ff" points="510.63,-29.86 500.04,-30.12 508.48,-36.52 510.63,-29.86"/>
</a>
</g>
</g>
</g>
</svg>

<g id="navigator" transform="translate(0 0)" fill="#404254">
  <rect fill="#f2f5e9" fill-opacity="0.5" stroke="#606060" stroke-width=".5" x="0" y="0" width="60" height="60"/>
  <use id="zoomplus" xlink:href="#zoomPlus" x="17" y="9" onmousedown="handleZoom(evt,'in')"/>
  <use id="zoomminus" xlink:href="#zoomMin" x="42" y="9" onmousedown="handleZoom(evt,'out')"/>
  <use id="reset" xlink:href="#resetDef" x="30" y="36" onmousedown="handleReset()"/>
   <use id="arrowup" xlink:href="#arrowUp" x="0" y="0" onmousedown="handlePan(0,-1)"/>
  <use id="arrowright" xlink:href="#arrowRight" x="0" y="0" onmousedown="handlePan(1,0)"/>
  <use id="arrowdown" xlink:href="#arrowDown" x="0" y="0" onmousedown="handlePan(0,1)"/>
  <use id="arrowleft" xlink:href="#arrowLeft" x="0" y="0" onmousedown="handlePan(-1,0)"/>
</g>
<svg viewBox="0 0 15 15" width="100%" height="30px" preserveAspectRatio="xMaxYMin meet">
 <g id="arrow_out" transform="scale(0.3 0.3)">
  <a xlink:href="LBWalberlaNodeState_8hpp__incl_org.svg" target="_base">
   <rect id="button" ry="5" rx="5" y="6" x="6" height="38" width="38"
        fill="#f2f5e9" fill-opacity="0.5" stroke="#606060" stroke-width="1.0"/>
   <path id="arrow"
     d="M 11.500037,31.436501 C 11.940474,20.09759 22.043105,11.32322 32.158766,21.979434 L 37.068811,17.246167 C 37.068811,17.246167 37.088388,32 37.088388,32 L 22.160133,31.978069 C 22.160133,31.978069 26.997745,27.140456 26.997745,27.140456 C 18.528582,18.264221 13.291696,25.230495 11.500037,31.436501 z"
     style="fill:#404040;"/>
  </a>
 </g>
</svg>

<style type='text/css'>
<![CDATA[
[data-mouse-over-selected='false'] { opacity: 0.7; }
[data-mouse-over-selected='true']  { opacity: 1.0; }
]]>
</style>
<script type="application/ecmascript"><![CDATA[
document.addEventListener('DOMContentLoaded', (event) => {
  highlightEdges();
  highlightAdjacentNodes();
});
]]></script>
</svg>
