<?xml version="1.0" encoding="UTF-8" standalone="no"?>
<!DOCTYPE svg PUBLIC "-//W3C//DTD SVG 1.1//EN"
 "http://www.w3.org/Graphics/SVG/1.1/DTD/svg11.dtd">
<!-- Generated by graphviz version 2.43.0 (0)
 -->
<!-- Title: LBWalberla.hpp Pages: 1 -->
<svg width="814pt" height="192pt"
 viewBox="0.00 0.00 814.00 192.00" xmlns="http://www.w3.org/2000/svg" xmlns:xlink="http://www.w3.org/1999/xlink">
<g id="graph0" class="graph" transform="scale(1 1) rotate(0) translate(4 188)">
<title>LBWalberla.hpp</title>
<!-- Node1 -->
<g id="Node000001" class="node">
<title>Node1</title>
<g id="a_Node000001"><a xlink:title=" ">
<polygon fill="#999999" stroke="#666666" points="362,-184 270,-184 270,-165 362,-165 362,-184"/>
<text text-anchor="middle" x="316" y="-172" font-family="Helvetica,sans-Serif" font-size="10.00">LBWalberla.hpp</text>
</a>
</g>
</g>
<!-- Node2 -->
<g id="Node000002" class="node">
<title>Node2</title>
<g id="a_Node000002"><a xlink:href="EKWalberla_8cpp.html" target="_top" xlink:title=" ">
<polygon fill="white" stroke="#666666" points="92,-74 0,-74 0,-55 92,-55 92,-74"/>
<text text-anchor="middle" x="46" y="-62" font-family="Helvetica,sans-Serif" font-size="10.00">EKWalberla.cpp</text>
</a>
</g>
</g>
<!-- Node1&#45;&gt;Node2 -->
<g id="edge1_Node000001_Node000002" class="edge">
<title>Node1&#45;&gt;Node2</title>
<g id="a_edge1_Node000001_Node000002"><a xlink:title=" ">
<path fill="none" stroke="#63b8ff" d="M259.57,-169.53C216.93,-164.61 158.08,-153.61 112,-129 85.91,-115.07 62.89,-87.86 52.25,-74.02"/>
<polygon fill="#63b8ff" stroke="#63b8ff" points="259.45,-173.04 269.77,-170.63 260.2,-166.08 259.45,-173.04"/>
</a>
</g>
</g>
<!-- Node3 -->
<g id="Node000003" class="node">
<title>Node3</title>
<g id="a_Node000003"><a xlink:href="lb_2Implementation_8hpp.html" target="_top" xlink:title=" ">
<polygon fill="white" stroke="#666666" points="237,-129 121,-129 121,-110 237,-110 237,-129"/>
<text text-anchor="middle" x="179" y="-117" font-family="Helvetica,sans-Serif" font-size="10.00">Implementation.hpp</text>
</a>
</g>
</g>
<!-- Node1&#45;&gt;Node3 -->
<g id="edge2_Node000001_Node000003" class="edge">
<title>Node1&#45;&gt;Node3</title>
<g id="a_edge2_Node000001_Node000003"><a xlink:title=" ">
<path fill="none" stroke="#63b8ff" d="M284.44,-161.29C259.05,-151.47 224,-137.91 201.41,-129.17"/>
<polygon fill="#63b8ff" stroke="#63b8ff" points="283.4,-164.64 293.99,-164.98 285.92,-158.11 283.4,-164.64"/>
</a>
</g>
</g>
<!-- Node4 -->
<g id="Node000004" class="node">
<title>Node4</title>
<g id="a_Node000004"><a xlink:href="lb_2Solver_8cpp.html" target="_top" xlink:title=" ">
<polygon fill="white" stroke="#666666" points="294.5,-74 227.5,-74 227.5,-55 294.5,-55 294.5,-74"/>
<text text-anchor="middle" x="261" y="-62" font-family="Helvetica,sans-Serif" font-size="10.00">Solver.cpp</text>
</a>
</g>
</g>
<!-- Node1&#45;&gt;Node4 -->
<g id="edge23_Node000001_Node000004" class="edge">
<title>Node1&#45;&gt;Node4</title>
<g id="a_edge23_Node000001_Node000004"><a xlink:title=" ">
<path fill="none" stroke="#63b8ff" d="M306.8,-155.44C294.83,-131.92 274.36,-91.73 265.41,-74.16"/>
<polygon fill="#63b8ff" stroke="#63b8ff" points="303.84,-157.34 311.5,-164.66 310.08,-154.16 303.84,-157.34"/>
</a>
</g>
</g>
<!-- Node9 -->
<g id="Node000009" class="node">
<title>Node9</title>
<g id="a_Node000009"><a xlink:href="LBFluid_8cpp.html" target="_top" xlink:title=" ">
<polygon fill="white" stroke="#666666" points="385.5,-74 312.5,-74 312.5,-55 385.5,-55 385.5,-74"/>
<text text-anchor="middle" x="349" y="-62" font-family="Helvetica,sans-Serif" font-size="10.00">LBFluid.cpp</text>
</a>
</g>
</g>
<!-- Node1&#45;&gt;Node9 -->
<g id="edge9_Node000001_Node000009" class="edge">
<title>Node1&#45;&gt;Node9</title>
<g id="a_edge9_Node000001_Node000009"><a xlink:title=" ">
<path fill="none" stroke="#63b8ff" d="M321.71,-154.8C328.92,-131.2 341.03,-91.58 346.35,-74.16"/>
<polygon fill="#63b8ff" stroke="#63b8ff" points="318.28,-154.08 318.7,-164.66 324.97,-156.12 318.28,-154.08"/>
</a>
</g>
</g>
<!-- Node10 -->
<g id="Node000010" class="node">
<title>Node10</title>
<g id="a_Node000010"><a xlink:href="LBFluid_8hpp.html" target="_top" xlink:title=" ">
<polygon fill="white" stroke="#666666" points="487,-129 413,-129 413,-110 487,-110 487,-129"/>
<text text-anchor="middle" x="450" y="-117" font-family="Helvetica,sans-Serif" font-size="10.00">LBFluid.hpp</text>
</a>
</g>
</g>
<!-- Node1&#45;&gt;Node10 -->
<g id="edge10_Node000001_Node000010" class="edge">
<title>Node1&#45;&gt;Node10</title>
<g id="a_edge10_Node000001_Node000010"><a xlink:title=" ">
<path fill="none" stroke="#63b8ff" d="M346.87,-161.29C371.7,-151.47 405.99,-137.91 428.08,-129.17"/>
<polygon fill="#63b8ff" stroke="#63b8ff" points="345.54,-158.05 337.53,-164.98 348.12,-164.56 345.54,-158.05"/>
</a>
</g>
</g>
<!-- Node18 -->
<g id="Node000018" class="node">
<title>Node18</title>
<g id="a_Node000018"><a xlink:href="LBWalberla_8cpp.html" target="_top" xlink:title=" ">
<polygon fill="white" stroke="#666666" points="597,-129 505,-129 505,-110 597,-110 597,-129"/>
<text text-anchor="middle" x="551" y="-117" font-family="Helvetica,sans-Serif" font-size="10.00">LBWalberla.cpp</text>
</a>
</g>
</g>
<!-- Node1&#45;&gt;Node18 -->
<g id="edge22_Node000001_Node000018" class="edge">
<title>Node1&#45;&gt;Node18</title>
<g id="a_edge22_Node000001_Node000018"><a xlink:title=" ">
<path fill="none" stroke="#63b8ff" d="M363.65,-162.75C407.69,-152.82 472.27,-138.26 512.95,-129.08"/>
<polygon fill="#63b8ff" stroke="#63b8ff" points="362.74,-159.37 353.76,-164.98 364.28,-166.2 362.74,-159.37"/>
</a>
</g>
</g>
<!-- Node3&#45;&gt;Node2 -->
<g id="edge3_Node000003_Node000002" class="edge">
<title>Node3&#45;&gt;Node2</title>
<g id="a_edge3_Node000003_Node000002"><a xlink:title=" ">
<path fill="none" stroke="#63b8ff" d="M148.03,-106.16C123.41,-96.35 89.59,-82.87 67.76,-74.17"/>
<polygon fill="#63b8ff" stroke="#63b8ff" points="147.05,-109.53 157.63,-109.98 149.64,-103.03 147.05,-109.53"/>
</a>
</g>
</g>
<!-- Node3&#45;&gt;Node4 -->
<g id="edge4_Node000003_Node000004" class="edge">
<title>Node3&#45;&gt;Node4</title>
<g id="a_edge4_Node000003_Node000004"><a xlink:title=" ">
<path fill="none" stroke="#63b8ff" d="M200.78,-104.42C215.66,-94.81 234.91,-82.37 247.59,-74.17"/>
<polygon fill="#63b8ff" stroke="#63b8ff" points="198.67,-101.62 192.17,-109.98 202.47,-107.5 198.67,-101.62"/>
</a>
</g>
</g>
<!-- Node5 -->
<g id="Node000005" class="node">
<title>Node5</title>
<g id="a_Node000005"><a xlink:href="System_8impl_8hpp.html" target="_top" xlink:title=" ">
<polygon fill="white" stroke="#666666" points="209.5,-74 110.5,-74 110.5,-55 209.5,-55 209.5,-74"/>
<text text-anchor="middle" x="160" y="-62" font-family="Helvetica,sans-Serif" font-size="10.00">System.impl.hpp</text>
</a>
</g>
</g>
<!-- Node3&#45;&gt;Node5 -->
<g id="edge5_Node000003_Node000005" class="edge">
<title>Node3&#45;&gt;Node5</title>
<g id="a_edge5_Node000003_Node000005"><a xlink:title=" ">
<path fill="none" stroke="#63b8ff" d="M172.45,-100.24C169.28,-91.37 165.61,-81.14 163.08,-74.09"/>
<polygon fill="#63b8ff" stroke="#63b8ff" points="169.19,-101.52 175.86,-109.75 175.78,-99.15 169.19,-101.52"/>
</a>
</g>
</g>
<!-- Node6 -->
<g id="Node000006" class="node">
<title>Node6</title>
<g id="a_Node000006"><a xlink:href="core_2system_2System_8cpp.html" target="_top" xlink:title=" ">
<polygon fill="white" stroke="#666666" points="228,-19 154,-19 154,0 228,0 228,-19"/>
<text text-anchor="middle" x="191" y="-7" font-family="Helvetica,sans-Serif" font-size="10.00">System.cpp</text>
</a>
</g>
</g>
<!-- Node5&#45;&gt;Node6 -->
<g id="edge6_Node000005_Node000006" class="edge">
<title>Node5&#45;&gt;Node6</title>
<g id="a_edge6_Node000005_Node000006"><a xlink:title=" ">
<path fill="none" stroke="#63b8ff" d="M170.18,-46.1C175.47,-37.04 181.72,-26.37 185.98,-19.09"/>
<polygon fill="#63b8ff" stroke="#63b8ff" points="167.15,-44.35 165.12,-54.75 173.19,-47.88 167.15,-44.35"/>
</a>
</g>
</g>
<!-- Node7 -->
<g id="Node000007" class="node">
<title>Node7</title>
<g id="a_Node000007"><a xlink:href="script__interface_2system_2System_8cpp.html" target="_top" xlink:title=" ">
<polygon fill="white" stroke="#666666" points="361,-19 287,-19 287,0 361,0 361,-19"/>
<text text-anchor="middle" x="324" y="-7" font-family="Helvetica,sans-Serif" font-size="10.00">System.cpp</text>
</a>
</g>
</g>
<!-- Node5&#45;&gt;Node7 -->
<g id="edge7_Node000005_Node000007" class="edge">
<title>Node5&#45;&gt;Node7</title>
<g id="a_edge7_Node000005_Node000007"><a xlink:title=" ">
<path fill="none" stroke="#63b8ff" d="M196.21,-51.8C226.82,-41.91 269.95,-27.97 297.44,-19.08"/>
<polygon fill="#63b8ff" stroke="#63b8ff" points="194.79,-48.58 186.35,-54.98 196.94,-55.24 194.79,-48.58"/>
</a>
</g>
</g>
<!-- Node8 -->
<g id="Node000008" class="node">
<title>Node8</title>
<g id="a_Node000008"><a xlink:href="integrate_8cpp.html" target="_top" xlink:title="Molecular dynamics integrator.">
<polygon fill="white" stroke="#666666" points="135.5,-19 54.5,-19 54.5,0 135.5,0 135.5,-19"/>
<text text-anchor="middle" x="95" y="-7" font-family="Helvetica,sans-Serif" font-size="10.00">integrate.cpp</text>
</a>
</g>
</g>
<!-- Node5&#45;&gt;Node8 -->
<g id="edge8_Node000005_Node000008" class="edge">
<title>Node5&#45;&gt;Node8</title>
<g id="a_edge8_Node000005_Node000008"><a xlink:title=" ">
<path fill="none" stroke="#63b8ff" d="M141.73,-48.6C130.08,-39.11 115.4,-27.13 105.63,-19.17"/>
<polygon fill="#63b8ff" stroke="#63b8ff" points="139.59,-51.38 149.56,-54.98 144.02,-45.95 139.59,-51.38"/>
</a>
</g>
</g>
<!-- Node10&#45;&gt;Node9 -->
<g id="edge11_Node000010_Node000009" class="edge">
<title>Node10&#45;&gt;Node9</title>
<g id="a_edge11_Node000010_Node000009"><a xlink:title=" ">
<path fill="none" stroke="#63b8ff" d="M424.72,-105.23C406.2,-95.51 381.58,-82.6 365.52,-74.17"/>
<polygon fill="#63b8ff" stroke="#63b8ff" points="423.29,-108.44 433.77,-109.98 426.54,-102.24 423.29,-108.44"/>
</a>
</g>
</g>
<!-- Node11 -->
<g id="Node000011" class="node">
<title>Node11</title>
<g id="a_Node000011"><a xlink:href="LBFluidNode_8hpp.html" target="_top" xlink:title=" ">
<polygon fill="white" stroke="#666666" points="613.5,-74 514.5,-74 514.5,-55 613.5,-55 613.5,-74"/>
<text text-anchor="middle" x="564" y="-62" font-family="Helvetica,sans-Serif" font-size="10.00">LBFluidNode.hpp</text>
</a>
</g>
</g>
<!-- Node10&#45;&gt;Node11 -->
<g id="edge12_Node000010_Node000011" class="edge">
<title>Node10&#45;&gt;Node11</title>
<g id="a_edge12_Node000010_Node000011"><a xlink:title=" ">
<path fill="none" stroke="#63b8ff" d="M477.39,-105.77C498.42,-95.99 526.89,-82.75 545.35,-74.17"/>
<polygon fill="#63b8ff" stroke="#63b8ff" points="475.91,-102.6 468.32,-109.98 478.86,-108.94 475.91,-102.6"/>
</a>
</g>
</g>
<!-- Node13 -->
<g id="Node000013" class="node">
<title>Node13</title>
<g id="a_Node000013"><a xlink:href="walberla_2initialize_8cpp.html" target="_top" xlink:title=" ">
<polygon fill="white" stroke="#666666" points="691.5,-19 612.5,-19 612.5,0 691.5,0 691.5,-19"/>
<text text-anchor="middle" x="652" y="-7" font-family="Helvetica,sans-Serif" font-size="10.00">initialize.cpp</text>
</a>
</g>
</g>
<!-- Node10&#45;&gt;Node13 -->
<g id="edge18_Node000010_Node000013" class="edge">
<title>Node10&#45;&gt;Node13</title>
<g id="a_edge18_Node000010_Node000013"><a xlink:title=" ">
<path fill="none" stroke="#63b8ff" d="M496.92,-108.61C544.73,-98.19 613.23,-82.18 623,-74 640.1,-59.68 647.6,-33.14 650.47,-19.35"/>
<polygon fill="#63b8ff" stroke="#63b8ff" points="496.09,-105.21 487.06,-110.75 497.57,-112.05 496.09,-105.21"/>
</a>
</g>
</g>
<!-- Node14 -->
<g id="Node000014" class="node">
<title>Node14</title>
<g id="a_Node000014"><a xlink:href="LBFluidSlice_8hpp.html" target="_top" xlink:title=" ">
<polygon fill="white" stroke="#666666" points="767.5,-74 670.5,-74 670.5,-55 767.5,-55 767.5,-74"/>
<text text-anchor="middle" x="719" y="-62" font-family="Helvetica,sans-Serif" font-size="10.00">LBFluidSlice.hpp</text>
</a>
</g>
</g>
<!-- Node10&#45;&gt;Node14 -->
<g id="edge15_Node000010_Node000014" class="edge">
<title>Node10&#45;&gt;Node14</title>
<g id="a_edge15_Node000010_Node000014"><a xlink:title=" ">
<path fill="none" stroke="#63b8ff" d="M497.1,-109.22C547.47,-99.3 626.68,-83.69 675.59,-74.05"/>
<polygon fill="#63b8ff" stroke="#63b8ff" points="496.26,-105.82 487.12,-111.19 497.61,-112.69 496.26,-105.82"/>
</a>
</g>
</g>
<!-- Node16 -->
<g id="Node000016" class="node">
<title>Node16</title>
<g id="a_Node000016"><a xlink:href="script__interface_2thermostat_2thermostat_8hpp.html" target="_top" xlink:title=" ">
<polygon fill="white" stroke="#666666" points="496,-74 404,-74 404,-55 496,-55 496,-74"/>
<text text-anchor="middle" x="450" y="-62" font-family="Helvetica,sans-Serif" font-size="10.00">thermostat.hpp</text>
</a>
</g>
</g>
<!-- Node10&#45;&gt;Node16 -->
<g id="edge19_Node000010_Node000016" class="edge">
<title>Node10&#45;&gt;Node16</title>
<g id="a_edge19_Node000010_Node000016"><a xlink:title=" ">
<path fill="none" stroke="#63b8ff" d="M450,-99.66C450,-90.93 450,-80.99 450,-74.09"/>
<polygon fill="#63b8ff" stroke="#63b8ff" points="446.5,-99.75 450,-109.75 453.5,-99.75 446.5,-99.75"/>
</a>
</g>
</g>
<!-- Node12 -->
<g id="Node000012" class="node">
<title>Node12</title>
<g id="a_Node000012"><a xlink:href="LBFluidNode_8cpp.html" target="_top" xlink:title=" ">
<polygon fill="white" stroke="#666666" points="594,-19 496,-19 496,0 594,0 594,-19"/>
<text text-anchor="middle" x="545" y="-7" font-family="Helvetica,sans-Serif" font-size="10.00">LBFluidNode.cpp</text>
</a>
</g>
</g>
<!-- Node11&#45;&gt;Node12 -->
<g id="edge13_Node000011_Node000012" class="edge">
<title>Node11&#45;&gt;Node12</title>
<g id="a_edge13_Node000011_Node000012"><a xlink:title=" ">
<path fill="none" stroke="#63b8ff" d="M557.45,-45.24C554.28,-36.37 550.61,-26.14 548.08,-19.09"/>
<polygon fill="#63b8ff" stroke="#63b8ff" points="554.19,-46.52 560.86,-54.75 560.78,-44.15 554.19,-46.52"/>
</a>
</g>
</g>
<!-- Node11&#45;&gt;Node13 -->
<g id="edge14_Node000011_Node000013" class="edge">
<title>Node11&#45;&gt;Node13</title>
<g id="a_edge14_Node000011_Node000013"><a xlink:title=" ">
<path fill="none" stroke="#63b8ff" d="M586.92,-49.7C602.95,-40.04 623.87,-27.44 637.6,-19.17"/>
<polygon fill="#63b8ff" stroke="#63b8ff" points="584.9,-46.83 578.14,-54.98 588.51,-52.82 584.9,-46.83"/>
</a>
</g>
</g>
<!-- Node14&#45;&gt;Node13 -->
<g id="edge17_Node000014_Node000013" class="edge">
<title>Node14&#45;&gt;Node13</title>
<g id="a_edge17_Node000014_Node000013"><a xlink:title=" ">
<path fill="none" stroke="#63b8ff" d="M700.17,-48.6C688.16,-39.11 673.03,-27.13 662.96,-19.17"/>
<polygon fill="#63b8ff" stroke="#63b8ff" points="698.22,-51.53 708.24,-54.98 702.56,-46.04 698.22,-51.53"/>
</a>
</g>
</g>
<!-- Node15 -->
<g id="Node000015" class="node">
<title>Node15</title>
<g id="a_Node000015"><a xlink:href="LBFluidSlice_8cpp.html" target="_top" xlink:title=" ">
<polygon fill="white" stroke="#666666" points="806,-19 710,-19 710,0 806,0 806,-19"/>
<text text-anchor="middle" x="758" y="-7" font-family="Helvetica,sans-Serif" font-size="10.00">LBFluidSlice.cpp</text>
</a>
</g>
</g>
<!-- Node14&#45;&gt;Node15 -->
<g id="edge16_Node000014_Node000015" class="edge">
<title>Node14&#45;&gt;Node15</title>
<g id="a_edge16_Node000014_Node000015"><a xlink:title=" ">
<path fill="none" stroke="#63b8ff" d="M731.38,-46.67C738.14,-37.5 746.21,-26.52 751.68,-19.09"/>
<polygon fill="#63b8ff" stroke="#63b8ff" points="728.55,-44.62 725.44,-54.75 734.19,-48.77 728.55,-44.62"/>
</a>
</g>
</g>
<!-- Node16&#45;&gt;Node7 -->
<g id="edge20_Node000016_Node000007" class="edge">
<title>Node16&#45;&gt;Node7</title>
<g id="a_edge20_Node000016_Node000007"><a xlink:title=" ">
<path fill="none" stroke="#63b8ff" d="M420.35,-51.03C397.05,-41.23 365.2,-27.83 344.61,-19.17"/>
<polygon fill="#63b8ff" stroke="#63b8ff" points="419.18,-54.33 429.76,-54.98 421.9,-47.88 419.18,-54.33"/>
</a>
</g>
</g>
<!-- Node17 -->
<g id="Node000017" class="node">
<title>Node17</title>
<g id="a_Node000017"><a xlink:href="thermostat_2initialize_8cpp.html" target="_top" xlink:title=" ">
<polygon fill="white" stroke="#666666" points="478.5,-19 399.5,-19 399.5,0 478.5,0 478.5,-19"/>
<text text-anchor="middle" x="439" y="-7" font-family="Helvetica,sans-Serif" font-size="10.00">initialize.cpp</text>
</a>
</g>
</g>
<!-- Node16&#45;&gt;Node17 -->
<g id="edge21_Node000016_Node000017" class="edge">
<title>Node16&#45;&gt;Node17</title>
<g id="a_edge21_Node000016_Node000017"><a xlink:title=" ">
<path fill="none" stroke="#63b8ff" d="M446.15,-44.95C444.32,-36.15 442.23,-26.06 440.78,-19.09"/>
<polygon fill="#63b8ff" stroke="#63b8ff" points="442.72,-45.67 448.18,-54.75 449.58,-44.25 442.72,-45.67"/>
</a>
</g>
</g>
</g>
</svg>
