<?xml version="1.0" encoding="UTF-8" standalone="no"?>
<!DOCTYPE svg PUBLIC "-//W3C//DTD SVG 1.1//EN"
 "http://www.w3.org/Graphics/SVG/1.1/DTD/svg11.dtd">
<!-- Generated by graphviz version 2.43.0 (0)
 -->
<!-- Title: LeesEdwardsBC.hpp Pages: 1 -->
<!--zoomable 274 -->
<svg id="main" version="1.1" xmlns="http://www.w3.org/2000/svg" xmlns:xlink="http://www.w3.org/1999/xlink" xml:space="preserve" onload="init(evt)">
<style type="text/css"><![CDATA[
.edge:hover path { stroke: red; }
.edge:hover polygon { stroke: red; fill: red; }
]]></style>
<script type="text/javascript"><![CDATA[
var edges = document.getElementsByTagName('g');
if (edges && edges.length) {
  for (var i=0;i<edges.length;i++) {
    if (edges[i].id.substr(0,4)=='edge') {
      edges[i].setAttribute('class','edge');
    }
  }
}
]]></script>
        <defs>
                <circle id="rim" cx="0" cy="0" r="7"/>
                <circle id="rim2" cx="0" cy="0" r="3.5"/>
                <g id="zoomPlus">
                        <use xlink:href="#rim" fill="#404040">
                                <set attributeName="fill" to="#808080" begin="zoomplus.mouseover" end="zoomplus.mouseout"/>
                        </use>
                        <path d="M-4,0h8M0,-4v8" fill="none" stroke="white" stroke-width="1.5" pointer-events="none"/>
                </g>
                <g id="zoomMin">
                        <use xlink:href="#rim" fill="#404040">
                                <set attributeName="fill" to="#808080" begin="zoomminus.mouseover" end="zoomminus.mouseout"/>
                        </use>
                        <path d="M-4,0h8" fill="none" stroke="white" stroke-width="1.5" pointer-events="none"/>
                </g>
                <g id="dirArrow">
                        <path fill="none" stroke="white" stroke-width="1.5" d="M0,-3.0v7 M-2.5,-0.5L0,-3.0L2.5,-0.5"/>
                </g>
               <g id="resetDef">
                       <use xlink:href="#rim2" fill="#404040">
                               <set attributeName="fill" to="#808080" begin="reset.mouseover" end="reset.mouseout"/>
                       </use>
               </g>
        </defs>

<script type="text/javascript">
var viewWidth = 2652;
var viewHeight = 274;
var sectionId = 'dynsection-0';
</script>
<script xlink:href="svgpan.js"/>
<svg id="graph" class="graph">
<g id="viewport">
<title>LeesEdwardsBC.hpp</title>
<!-- Node1 -->
<g id="node1" class="node">
<title>Node1</title>
<g id="a_node1"><a xlink:title=" ">
<polygon fill="#bfbfbf" stroke="black" points="2480.5,-246.5 2480.5,-265.5 2595.5,-265.5 2595.5,-246.5 2480.5,-246.5"/>
<text text-anchor="middle" x="2538" y="-253.5" font-family="Helvetica,sans-Serif" font-size="10.00">LeesEdwardsBC.hpp</text>
</a>
</g>
</g>
<!-- Node2 -->
<g id="node2" class="node">
<title>Node2</title>
<g id="a_node2"><a xlink:href="Vector_8hpp.html" target="_top" xlink:title="Vector implementation and trait types for boost qvm interoperability.">
<polygon fill="none" stroke="black" points="1966,-190.5 1966,-209.5 2058,-209.5 2058,-190.5 1966,-190.5"/>
<text text-anchor="middle" x="2012" y="-197.5" font-family="Helvetica,sans-Serif" font-size="10.00">utils/Vector.hpp</text>
</a>
</g>
</g>
<!-- Node1&#45;&gt;Node2 -->
<g id="edge1" class="edge">
<title>Node1&#45;&gt;Node2</title>
<path fill="none" stroke="midnightblue" d="M2480.46,-249.09C2378.79,-238.65 2168.64,-217.08 2068.04,-206.75"/>
<polygon fill="midnightblue" stroke="midnightblue" points="2068.38,-203.27 2058.08,-205.73 2067.67,-210.23 2068.38,-203.27"/>
</g>
<!-- Node25 -->
<g id="node25" class="node">
<title>Node25</title>
<g id="a_node25"><a xlink:title=" ">
<polygon fill="none" stroke="#bfbfbf" points="2495.5,-134.5 2495.5,-153.5 2542.5,-153.5 2542.5,-134.5 2495.5,-134.5"/>
<text text-anchor="middle" x="2519" y="-141.5" font-family="Helvetica,sans-Serif" font-size="10.00">cmath</text>
</a>
</g>
</g>
<!-- Node1&#45;&gt;Node25 -->
<g id="edge37" class="edge">
<title>Node1&#45;&gt;Node25</title>
<path fill="none" stroke="midnightblue" d="M2536.51,-246.37C2533.44,-228.62 2526.37,-187.67 2522.21,-163.6"/>
<polygon fill="midnightblue" stroke="midnightblue" points="2525.64,-162.85 2520.48,-153.59 2518.74,-164.04 2525.64,-162.85"/>
</g>
<!-- Node27 -->
<g id="node27" class="node">
<title>Node27</title>
<g id="a_node27"><a xlink:title=" ">
<polygon fill="none" stroke="#bfbfbf" points="2560.5,-134.5 2560.5,-153.5 2643.5,-153.5 2643.5,-134.5 2560.5,-134.5"/>
<text text-anchor="middle" x="2602" y="-141.5" font-family="Helvetica,sans-Serif" font-size="10.00">initializer_list</text>
</a>
</g>
</g>
<!-- Node1&#45;&gt;Node27 -->
<g id="edge38" class="edge">
<title>Node1&#45;&gt;Node27</title>
<path fill="none" stroke="midnightblue" d="M2543.02,-246.37C2553.54,-228.3 2578.04,-186.18 2591.93,-162.31"/>
<polygon fill="midnightblue" stroke="midnightblue" points="2595,-164 2597,-153.59 2588.95,-160.47 2595,-164"/>
</g>
<!-- Node31 -->
<g id="node31" class="node">
<title>Node31</title>
<g id="a_node31"><a xlink:title=" ">
<polygon fill="none" stroke="#bfbfbf" points="2585,-190.5 2585,-209.5 2629,-209.5 2629,-190.5 2585,-190.5"/>
<text text-anchor="middle" x="2607" y="-197.5" font-family="Helvetica,sans-Serif" font-size="10.00">bitset</text>
</a>
</g>
</g>
<!-- Node1&#45;&gt;Node31 -->
<g id="edge36" class="edge">
<title>Node1&#45;&gt;Node31</title>
<path fill="none" stroke="midnightblue" d="M2549.09,-246.32C2559.49,-238.18 2575.26,-225.84 2587.72,-216.09"/>
<polygon fill="midnightblue" stroke="midnightblue" points="2589.99,-218.75 2595.71,-209.83 2585.68,-213.24 2589.99,-218.75"/>
</g>
<!-- Node3 -->
<g id="node3" class="node">
<title>Node3</title>
<g id="a_node3"><a xlink:title=" ">
<polygon fill="none" stroke="#bfbfbf" points="2169,-134.5 2169,-153.5 2319,-153.5 2319,-134.5 2169,-134.5"/>
<text text-anchor="middle" x="2244" y="-141.5" font-family="Helvetica,sans-Serif" font-size="10.00">boost/qvm/deduce_vec.hpp</text>
</a>
</g>
</g>
<!-- Node2&#45;&gt;Node3 -->
<g id="edge2" class="edge">
<title>Node2&#45;&gt;Node3</title>
<path fill="none" stroke="midnightblue" d="M2048.76,-190.44C2089.06,-181.06 2153.81,-165.99 2197.58,-155.8"/>
<polygon fill="midnightblue" stroke="midnightblue" points="2198.46,-159.19 2207.41,-153.52 2196.88,-152.37 2198.46,-159.19"/>
</g>
<!-- Node4 -->
<g id="node4" class="node">
<title>Node4</title>
<g id="a_node4"><a xlink:title=" ">
<polygon fill="none" stroke="#bfbfbf" points="2337,-134.5 2337,-153.5 2477,-153.5 2477,-134.5 2337,-134.5"/>
<text text-anchor="middle" x="2407" y="-141.5" font-family="Helvetica,sans-Serif" font-size="10.00">boost/qvm/vec_traits.hpp</text>
</a>
</g>
</g>
<!-- Node2&#45;&gt;Node4 -->
<g id="edge3" class="edge">
<title>Node2&#45;&gt;Node4</title>
<path fill="none" stroke="midnightblue" d="M2058.08,-192.7C2126.1,-183.4 2253.99,-165.92 2334.6,-154.9"/>
<polygon fill="midnightblue" stroke="midnightblue" points="2335.25,-158.34 2344.68,-153.52 2334.3,-151.41 2335.25,-158.34"/>
</g>
<!-- Node5 -->
<g id="node5" class="node">
<title>Node5</title>
<g id="a_node5"><a xlink:href="Array_8hpp.html" target="_top" xlink:title="Array implementation with CUDA support.">
<polygon fill="none" stroke="black" points="1363,-134.5 1363,-153.5 1449,-153.5 1449,-134.5 1363,-134.5"/>
<text text-anchor="middle" x="1406" y="-141.5" font-family="Helvetica,sans-Serif" font-size="10.00">utils/Array.hpp</text>
</a>
</g>
</g>
<!-- Node2&#45;&gt;Node5 -->
<g id="edge4" class="edge">
<title>Node2&#45;&gt;Node5</title>
<path fill="none" stroke="midnightblue" d="M1965.95,-194.9C1855.62,-185.07 1576.63,-160.2 1459.29,-149.75"/>
<polygon fill="midnightblue" stroke="midnightblue" points="1459.39,-146.24 1449.12,-148.84 1458.77,-153.22 1459.39,-146.24"/>
</g>
<!-- Node7 -->
<g id="node7" class="node">
<title>Node7</title>
<g id="a_node7"><a xlink:title=" ">
<polygon fill="none" stroke="#bfbfbf" points="1613,-6 1613,-25 1665,-25 1665,-6 1613,-6"/>
<text text-anchor="middle" x="1639" y="-13" font-family="Helvetica,sans-Serif" font-size="10.00">cassert</text>
</a>
</g>
</g>
<!-- Node2&#45;&gt;Node7 -->
<g id="edge27" class="edge">
<title>Node2&#45;&gt;Node7</title>
<path fill="none" stroke="midnightblue" d="M1965.98,-195.59C1904.04,-190.15 1798.11,-177.65 1768,-154 1734.68,-127.82 1757.59,-98.28 1729,-67 1713.56,-50.11 1691.12,-37.5 1672.51,-29.11"/>
<polygon fill="midnightblue" stroke="midnightblue" points="1673.76,-25.83 1663.19,-25.1 1670.99,-32.26 1673.76,-25.83"/>
</g>
<!-- Node9 -->
<g id="node9" class="node">
<title>Node9</title>
<g id="a_node9"><a xlink:title=" ">
<polygon fill="none" stroke="#bfbfbf" points="1087.5,-6 1087.5,-25 1140.5,-25 1140.5,-6 1087.5,-6"/>
<text text-anchor="middle" x="1114" y="-13" font-family="Helvetica,sans-Serif" font-size="10.00">cstddef</text>
</a>
</g>
</g>
<!-- Node2&#45;&gt;Node9 -->
<g id="edge29" class="edge">
<title>Node2&#45;&gt;Node9</title>
<path fill="none" stroke="midnightblue" d="M1965.86,-198.38C1858.13,-196.37 1581.91,-188.05 1354,-154 1245.24,-137.75 1181.39,-184.11 1113,-98 1098.94,-80.3 1102.82,-52.95 1107.72,-34.89"/>
<polygon fill="midnightblue" stroke="midnightblue" points="1111.09,-35.83 1110.68,-25.25 1104.4,-33.78 1111.09,-35.83"/>
</g>
<!-- Node21 -->
<g id="node21" class="node">
<title>Node21</title>
<g id="a_node21"><a xlink:title=" ">
<polygon fill="none" stroke="#bfbfbf" points="1667.5,-73 1667.5,-92 1720.5,-92 1720.5,-73 1667.5,-73"/>
<text text-anchor="middle" x="1694" y="-80" font-family="Helvetica,sans-Serif" font-size="10.00">iterator</text>
</a>
</g>
</g>
<!-- Node2&#45;&gt;Node21 -->
<g id="edge32" class="edge">
<title>Node2&#45;&gt;Node21</title>
<path fill="none" stroke="midnightblue" d="M1965.95,-196.25C1897.15,-191.37 1771.68,-179.23 1735,-154 1716.82,-141.49 1705.58,-118.08 1699.57,-101.68"/>
<polygon fill="midnightblue" stroke="midnightblue" points="1702.85,-100.47 1696.35,-92.1 1696.21,-102.7 1702.85,-100.47"/>
</g>
<!-- Node24 -->
<g id="node24" class="node">
<title>Node24</title>
<g id="a_node24"><a xlink:title=" ">
<polygon fill="none" stroke="#bfbfbf" points="1777,-134.5 1777,-153.5 1841,-153.5 1841,-134.5 1777,-134.5"/>
<text text-anchor="middle" x="1809" y="-141.5" font-family="Helvetica,sans-Serif" font-size="10.00">algorithm</text>
</a>
</g>
</g>
<!-- Node2&#45;&gt;Node24 -->
<g id="edge26" class="edge">
<title>Node2&#45;&gt;Node24</title>
<path fill="none" stroke="midnightblue" d="M1979.83,-190.44C1944.94,-181.16 1889.11,-166.31 1850.83,-156.13"/>
<polygon fill="midnightblue" stroke="midnightblue" points="1851.58,-152.7 1841.02,-153.52 1849.78,-159.47 1851.58,-152.7"/>
</g>
<!-- Node2&#45;&gt;Node25 -->
<g id="edge28" class="edge">
<title>Node2&#45;&gt;Node25</title>
<path fill="none" stroke="midnightblue" d="M2058.12,-197.25C2141.53,-193.52 2323.04,-182.79 2485.16,-153.82"/>
<polygon fill="midnightblue" stroke="midnightblue" points="2486.1,-157.21 2495.32,-151.98 2484.85,-150.32 2486.1,-157.21"/>
</g>
<!-- Node26 -->
<g id="node26" class="node">
<title>Node26</title>
<g id="a_node26"><a xlink:title=" ">
<polygon fill="none" stroke="#bfbfbf" points="1859.5,-134.5 1859.5,-153.5 1924.5,-153.5 1924.5,-134.5 1859.5,-134.5"/>
<text text-anchor="middle" x="1892" y="-141.5" font-family="Helvetica,sans-Serif" font-size="10.00">functional</text>
</a>
</g>
</g>
<!-- Node2&#45;&gt;Node26 -->
<g id="edge30" class="edge">
<title>Node2&#45;&gt;Node26</title>
<path fill="none" stroke="midnightblue" d="M1992.99,-190.44C1973.41,-181.64 1942.69,-167.81 1920.27,-157.72"/>
<polygon fill="midnightblue" stroke="midnightblue" points="1921.48,-154.43 1910.93,-153.52 1918.61,-160.81 1921.48,-154.43"/>
</g>
<!-- Node2&#45;&gt;Node27 -->
<g id="edge31" class="edge">
<title>Node2&#45;&gt;Node27</title>
<path fill="none" stroke="midnightblue" d="M2058.03,-196.64C2149.8,-191.62 2362.24,-178.4 2550.24,-154.12"/>
<polygon fill="midnightblue" stroke="midnightblue" points="2550.84,-157.58 2560.3,-152.81 2549.94,-150.63 2550.84,-157.58"/>
</g>
<!-- Node28 -->
<g id="node28" class="node">
<title>Node28</title>
<g id="a_node28"><a xlink:title=" ">
<polygon fill="none" stroke="#bfbfbf" points="1943,-134.5 1943,-153.5 1999,-153.5 1999,-134.5 1943,-134.5"/>
<text text-anchor="middle" x="1971" y="-141.5" font-family="Helvetica,sans-Serif" font-size="10.00">numeric</text>
</a>
</g>
</g>
<!-- Node2&#45;&gt;Node28 -->
<g id="edge33" class="edge">
<title>Node2&#45;&gt;Node28</title>
<path fill="none" stroke="midnightblue" d="M2005.23,-190.08C1999.44,-182.46 1990.94,-171.26 1983.86,-161.94"/>
<polygon fill="midnightblue" stroke="midnightblue" points="1986.48,-159.6 1977.64,-153.75 1980.9,-163.83 1986.48,-159.6"/>
</g>
<!-- Node29 -->
<g id="node29" class="node">
<title>Node29</title>
<g id="a_node29"><a xlink:title=" ">
<polygon fill="none" stroke="#bfbfbf" points="2017.5,-134.5 2017.5,-153.5 2086.5,-153.5 2086.5,-134.5 2017.5,-134.5"/>
<text text-anchor="middle" x="2052" y="-141.5" font-family="Helvetica,sans-Serif" font-size="10.00">type_traits</text>
</a>
</g>
</g>
<!-- Node2&#45;&gt;Node29 -->
<g id="edge34" class="edge">
<title>Node2&#45;&gt;Node29</title>
<path fill="none" stroke="midnightblue" d="M2018.61,-190.08C2024.26,-182.46 2032.54,-171.26 2039.45,-161.94"/>
<polygon fill="midnightblue" stroke="midnightblue" points="2042.38,-163.87 2045.52,-153.75 2036.75,-159.7 2042.38,-163.87"/>
</g>
<!-- Node30 -->
<g id="node30" class="node">
<title>Node30</title>
<g id="a_node30"><a xlink:title=" ">
<polygon fill="none" stroke="#bfbfbf" points="2104.5,-134.5 2104.5,-153.5 2151.5,-153.5 2151.5,-134.5 2104.5,-134.5"/>
<text text-anchor="middle" x="2128" y="-141.5" font-family="Helvetica,sans-Serif" font-size="10.00">vector</text>
</a>
</g>
</g>
<!-- Node2&#45;&gt;Node30 -->
<g id="edge35" class="edge">
<title>Node2&#45;&gt;Node30</title>
<path fill="none" stroke="midnightblue" d="M2030.38,-190.44C2049.22,-181.68 2078.73,-167.94 2100.38,-157.86"/>
<polygon fill="midnightblue" stroke="midnightblue" points="2102.12,-160.91 2109.71,-153.52 2099.16,-154.56 2102.12,-160.91"/>
</g>
<!-- Node6 -->
<g id="node6" class="node">
<title>Node6</title>
<g id="a_node6"><a xlink:href="device__qualifier_8hpp.html" target="_top" xlink:title=" ">
<polygon fill="none" stroke="black" points="1497,-73 1497,-92 1611,-92 1611,-73 1497,-73"/>
<text text-anchor="middle" x="1554" y="-80" font-family="Helvetica,sans-Serif" font-size="10.00">device_qualifier.hpp</text>
</a>
</g>
</g>
<!-- Node5&#45;&gt;Node6 -->
<g id="edge5" class="edge">
<title>Node5&#45;&gt;Node6</title>
<path fill="none" stroke="midnightblue" d="M1427.2,-134.48C1452.37,-124.36 1494.54,-107.4 1523.28,-95.85"/>
<polygon fill="midnightblue" stroke="midnightblue" points="1524.86,-98.99 1532.83,-92.01 1522.25,-92.49 1524.86,-98.99"/>
</g>
<!-- Node5&#45;&gt;Node7 -->
<g id="edge21" class="edge">
<title>Node5&#45;&gt;Node7</title>
<path fill="none" stroke="midnightblue" d="M1449.11,-139.36C1504.45,-133.8 1596.19,-121.3 1620,-98 1636.68,-81.68 1639.91,-53.74 1640,-35.2"/>
<polygon fill="midnightblue" stroke="midnightblue" points="1643.49,-34.96 1639.74,-25.06 1636.5,-35.14 1643.49,-34.96"/>
</g>
<!-- Node8 -->
<g id="node8" class="node">
<title>Node8</title>
<g id="a_node8"><a xlink:href="get_8hpp.html" target="_top" xlink:title=" ">
<polygon fill="none" stroke="black" points="1142.5,-73 1142.5,-92 1195.5,-92 1195.5,-73 1142.5,-73"/>
<text text-anchor="middle" x="1169" y="-80" font-family="Helvetica,sans-Serif" font-size="10.00">get.hpp</text>
</a>
</g>
</g>
<!-- Node5&#45;&gt;Node8 -->
<g id="edge7" class="edge">
<title>Node5&#45;&gt;Node8</title>
<path fill="none" stroke="midnightblue" d="M1362.87,-135.64C1321.58,-128.07 1257.79,-114.99 1204,-98 1201.86,-97.32 1199.67,-96.57 1197.48,-95.77"/>
<polygon fill="midnightblue" stroke="midnightblue" points="1198.62,-92.46 1188.03,-92.09 1196.08,-98.98 1198.62,-92.46"/>
</g>
<!-- Node5&#45;&gt;Node9 -->
<g id="edge22" class="edge">
<title>Node5&#45;&gt;Node9</title>
<path fill="none" stroke="midnightblue" d="M1362.97,-141.58C1294.6,-138.43 1165.56,-128.49 1133,-98 1115.96,-82.05 1112.83,-54.02 1112.85,-35.35"/>
<polygon fill="midnightblue" stroke="midnightblue" points="1116.36,-35.24 1113.18,-25.14 1109.36,-35.02 1116.36,-35.24"/>
</g>
<!-- Node11 -->
<g id="node11" class="node">
<title>Node11</title>
<g id="a_node11"><a xlink:href="array_8hpp.html" target="_top" xlink:title=" ">
<polygon fill="none" stroke="black" points="609.5,-73 609.5,-92 734.5,-92 734.5,-73 609.5,-73"/>
<text text-anchor="middle" x="672" y="-80" font-family="Helvetica,sans-Serif" font-size="10.00">serialization/array.hpp</text>
</a>
</g>
</g>
<!-- Node5&#45;&gt;Node11 -->
<g id="edge10" class="edge">
<title>Node5&#45;&gt;Node11</title>
<path fill="none" stroke="midnightblue" d="M1362.83,-139.5C1241.46,-129.66 896.31,-101.68 744.81,-89.4"/>
<polygon fill="midnightblue" stroke="midnightblue" points="744.92,-85.9 734.67,-88.58 744.36,-92.88 744.92,-85.9"/>
</g>
<!-- Node20 -->
<g id="node20" class="node">
<title>Node20</title>
<g id="a_node20"><a xlink:title=" ">
<polygon fill="none" stroke="#bfbfbf" points="1213.5,-67.5 1213.5,-97.5 1320.5,-97.5 1320.5,-67.5 1213.5,-67.5"/>
<text text-anchor="start" x="1221.5" y="-85.5" font-family="Helvetica,sans-Serif" font-size="10.00">boost/serialization</text>
<text text-anchor="middle" x="1267" y="-74.5" font-family="Helvetica,sans-Serif" font-size="10.00">/access.hpp</text>
</a>
</g>
</g>
<!-- Node5&#45;&gt;Node20 -->
<g id="edge20" class="edge">
<title>Node5&#45;&gt;Node20</title>
<path fill="none" stroke="midnightblue" d="M1386.08,-134.48C1366.12,-125.93 1334.75,-112.5 1309.22,-101.57"/>
<polygon fill="midnightblue" stroke="midnightblue" points="1310.33,-98.24 1299.76,-97.52 1307.58,-104.68 1310.33,-98.24"/>
</g>
<!-- Node5&#45;&gt;Node21 -->
<g id="edge23" class="edge">
<title>Node5&#45;&gt;Node21</title>
<path fill="none" stroke="midnightblue" d="M1449.3,-137.25C1498.98,-130.16 1582.66,-116.72 1653,-98 1655.97,-97.21 1659.03,-96.3 1662.08,-95.34"/>
<polygon fill="midnightblue" stroke="midnightblue" points="1663.28,-98.63 1671.65,-92.13 1661.05,-91.99 1663.28,-98.63"/>
</g>
<!-- Node22 -->
<g id="node22" class="node">
<title>Node22</title>
<g id="a_node22"><a xlink:title=" ">
<polygon fill="none" stroke="#bfbfbf" points="1338.5,-73 1338.5,-92 1395.5,-92 1395.5,-73 1338.5,-73"/>
<text text-anchor="middle" x="1367" y="-80" font-family="Helvetica,sans-Serif" font-size="10.00">ostream</text>
</a>
</g>
</g>
<!-- Node5&#45;&gt;Node22 -->
<g id="edge24" class="edge">
<title>Node5&#45;&gt;Node22</title>
<path fill="none" stroke="midnightblue" d="M1400.41,-134.48C1394.62,-125.64 1385.41,-111.59 1378.13,-100.48"/>
<polygon fill="midnightblue" stroke="midnightblue" points="1380.99,-98.45 1372.58,-92.01 1375.13,-102.29 1380.99,-98.45"/>
</g>
<!-- Node23 -->
<g id="node23" class="node">
<title>Node23</title>
<g id="a_node23"><a xlink:title=" ">
<polygon fill="none" stroke="#bfbfbf" points="1413.5,-73 1413.5,-92 1478.5,-92 1478.5,-73 1413.5,-73"/>
<text text-anchor="middle" x="1446" y="-80" font-family="Helvetica,sans-Serif" font-size="10.00">stdexcept</text>
</a>
</g>
</g>
<!-- Node5&#45;&gt;Node23 -->
<g id="edge25" class="edge">
<title>Node5&#45;&gt;Node23</title>
<path fill="none" stroke="midnightblue" d="M1411.73,-134.48C1417.67,-125.64 1427.12,-111.59 1434.59,-100.48"/>
<polygon fill="midnightblue" stroke="midnightblue" points="1437.61,-102.26 1440.28,-92.01 1431.8,-98.36 1437.61,-102.26"/>
</g>
<!-- Node6&#45;&gt;Node7 -->
<g id="edge6" class="edge">
<title>Node6&#45;&gt;Node7</title>
<path fill="none" stroke="midnightblue" d="M1565.46,-72.73C1579.36,-62.11 1602.98,-44.05 1619.69,-31.26"/>
<polygon fill="midnightblue" stroke="midnightblue" points="1621.9,-33.98 1627.72,-25.13 1617.65,-28.42 1621.9,-33.98"/>
</g>
<!-- Node8&#45;&gt;Node9 -->
<g id="edge8" class="edge">
<title>Node8&#45;&gt;Node9</title>
<path fill="none" stroke="midnightblue" d="M1161.58,-72.73C1153.01,-62.6 1138.7,-45.69 1128.01,-33.06"/>
<polygon fill="midnightblue" stroke="midnightblue" points="1130.43,-30.5 1121.3,-25.13 1125.09,-35.02 1130.43,-30.5"/>
</g>
<!-- Node10 -->
<g id="node10" class="node">
<title>Node10</title>
<g id="a_node10"><a xlink:title=" ">
<polygon fill="none" stroke="#bfbfbf" points="1158.5,-6 1158.5,-25 1199.5,-25 1199.5,-6 1158.5,-6"/>
<text text-anchor="middle" x="1179" y="-13" font-family="Helvetica,sans-Serif" font-size="10.00">tuple</text>
</a>
</g>
</g>
<!-- Node8&#45;&gt;Node10 -->
<g id="edge9" class="edge">
<title>Node8&#45;&gt;Node10</title>
<path fill="none" stroke="midnightblue" d="M1170.35,-72.73C1171.82,-63.18 1174.21,-47.62 1176.11,-35.28"/>
<polygon fill="midnightblue" stroke="midnightblue" points="1179.61,-35.54 1177.67,-25.13 1172.69,-34.48 1179.61,-35.54"/>
</g>
<!-- Node11&#45;&gt;Node9 -->
<g id="edge19" class="edge">
<title>Node11&#45;&gt;Node9</title>
<path fill="none" stroke="midnightblue" d="M734.85,-78.73C815.45,-74.03 959.04,-61.8 1078,-31 1080.51,-30.35 1083.08,-29.57 1085.64,-28.71"/>
<polygon fill="midnightblue" stroke="midnightblue" points="1087.11,-31.89 1095.25,-25.12 1084.66,-25.34 1087.11,-31.89"/>
</g>
<!-- Node12 -->
<g id="node12" class="node">
<title>Node12</title>
<g id="a_node12"><a xlink:title=" ">
<polygon fill="none" stroke="#bfbfbf" points="936.5,-6 936.5,-25 1069.5,-25 1069.5,-6 936.5,-6"/>
<text text-anchor="middle" x="1003" y="-13" font-family="Helvetica,sans-Serif" font-size="10.00">boost/mpl/bool_fwd.hpp</text>
</a>
</g>
</g>
<!-- Node11&#45;&gt;Node12 -->
<g id="edge11" class="edge">
<title>Node11&#45;&gt;Node12</title>
<path fill="none" stroke="midnightblue" d="M715.61,-72.94C775.85,-61.11 884.43,-39.78 949.5,-27.01"/>
<polygon fill="midnightblue" stroke="midnightblue" points="950.42,-30.39 959.55,-25.03 949.07,-23.52 950.42,-30.39"/>
</g>
<!-- Node13 -->
<g id="node13" class="node">
<title>Node13</title>
<g id="a_node13"><a xlink:title=" ">
<polygon fill="none" stroke="#bfbfbf" points="0,-6 0,-25 124,-25 124,-6 0,-6"/>
<text text-anchor="middle" x="62" y="-13" font-family="Helvetica,sans-Serif" font-size="10.00">boost/mpl/greater.hpp</text>
</a>
</g>
</g>
<!-- Node11&#45;&gt;Node13 -->
<g id="edge12" class="edge">
<title>Node11&#45;&gt;Node13</title>
<path fill="none" stroke="midnightblue" d="M609.49,-77.84C508.78,-71.46 304.52,-56.47 133,-31 125.47,-29.88 117.54,-28.48 109.81,-27"/>
<polygon fill="midnightblue" stroke="midnightblue" points="110.31,-23.53 99.82,-25.01 108.94,-30.39 110.31,-23.53"/>
</g>
<!-- Node14 -->
<g id="node14" class="node">
<title>Node14</title>
<g id="a_node14"><a xlink:title=" ">
<polygon fill="none" stroke="#bfbfbf" points="142,-6 142,-25 244,-25 244,-6 142,-6"/>
<text text-anchor="middle" x="193" y="-13" font-family="Helvetica,sans-Serif" font-size="10.00">boost/mpl/int.hpp</text>
</a>
</g>
</g>
<!-- Node11&#45;&gt;Node14 -->
<g id="edge13" class="edge">
<title>Node11&#45;&gt;Node14</title>
<path fill="none" stroke="midnightblue" d="M609.19,-76.24C526.94,-68.83 378.46,-53.64 253,-31 247.19,-29.95 241.1,-28.68 235.12,-27.34"/>
<polygon fill="midnightblue" stroke="midnightblue" points="235.77,-23.89 225.24,-25.03 234.18,-30.71 235.77,-23.89"/>
</g>
<!-- Node15 -->
<g id="node15" class="node">
<title>Node15</title>
<g id="a_node15"><a xlink:title=" ">
<polygon fill="none" stroke="#bfbfbf" points="262,-0.5 262,-30.5 368,-30.5 368,-0.5 262,-0.5"/>
<text text-anchor="start" x="270" y="-18.5" font-family="Helvetica,sans-Serif" font-size="10.00">boost/mpl/integral</text>
<text text-anchor="middle" x="315" y="-7.5" font-family="Helvetica,sans-Serif" font-size="10.00">_c_tag.hpp</text>
</a>
</g>
</g>
<!-- Node11&#45;&gt;Node15 -->
<g id="edge14" class="edge">
<title>Node11&#45;&gt;Node15</title>
<path fill="none" stroke="midnightblue" d="M616.36,-73C559.06,-64.01 466.97,-48.94 378.04,-31.14"/>
<polygon fill="midnightblue" stroke="midnightblue" points="378.55,-27.67 368.05,-29.13 377.17,-34.54 378.55,-27.67"/>
</g>
<!-- Node16 -->
<g id="node16" class="node">
<title>Node16</title>
<g id="a_node16"><a xlink:title=" ">
<polygon fill="none" stroke="#bfbfbf" points="386.5,-0.5 386.5,-30.5 537.5,-30.5 537.5,-0.5 386.5,-0.5"/>
<text text-anchor="start" x="394.5" y="-18.5" font-family="Helvetica,sans-Serif" font-size="10.00">boost/serialization</text>
<text text-anchor="middle" x="462" y="-7.5" font-family="Helvetica,sans-Serif" font-size="10.00">/is_bitwise_serializable.hpp</text>
</a>
</g>
</g>
<!-- Node11&#45;&gt;Node16 -->
<g id="edge15" class="edge">
<title>Node11&#45;&gt;Node16</title>
<path fill="none" stroke="midnightblue" d="M644.11,-72.87C611.85,-62.88 557.94,-46.2 517.13,-33.56"/>
<polygon fill="midnightblue" stroke="midnightblue" points="517.91,-30.14 507.32,-30.53 515.84,-36.83 517.91,-30.14"/>
</g>
<!-- Node17 -->
<g id="node17" class="node">
<title>Node17</title>
<g id="a_node17"><a xlink:title=" ">
<polygon fill="none" stroke="#bfbfbf" points="555.5,-0.5 555.5,-30.5 662.5,-30.5 662.5,-0.5 555.5,-0.5"/>
<text text-anchor="start" x="563.5" y="-18.5" font-family="Helvetica,sans-Serif" font-size="10.00">boost/serialization</text>
<text text-anchor="middle" x="609" y="-7.5" font-family="Helvetica,sans-Serif" font-size="10.00">/level.hpp</text>
</a>
</g>
</g>
<!-- Node11&#45;&gt;Node17 -->
<g id="edge16" class="edge">
<title>Node11&#45;&gt;Node17</title>
<path fill="none" stroke="midnightblue" d="M663.5,-72.73C654.91,-63.86 641.29,-49.81 629.81,-37.97"/>
<polygon fill="midnightblue" stroke="midnightblue" points="632.13,-35.33 622.66,-30.59 627.1,-40.21 632.13,-35.33"/>
</g>
<!-- Node18 -->
<g id="node18" class="node">
<title>Node18</title>
<g id="a_node18"><a xlink:title=" ">
<polygon fill="none" stroke="#bfbfbf" points="680.5,-0.5 680.5,-30.5 787.5,-30.5 787.5,-0.5 680.5,-0.5"/>
<text text-anchor="start" x="688.5" y="-18.5" font-family="Helvetica,sans-Serif" font-size="10.00">boost/serialization</text>
<text text-anchor="middle" x="734" y="-7.5" font-family="Helvetica,sans-Serif" font-size="10.00">/tracking.hpp</text>
</a>
</g>
</g>
<!-- Node11&#45;&gt;Node18 -->
<g id="edge17" class="edge">
<title>Node11&#45;&gt;Node18</title>
<path fill="none" stroke="midnightblue" d="M680.36,-72.73C688.82,-63.86 702.23,-49.81 713.52,-37.97"/>
<polygon fill="midnightblue" stroke="midnightblue" points="716.19,-40.24 720.56,-30.59 711.13,-35.41 716.19,-40.24"/>
</g>
<!-- Node19 -->
<g id="node19" class="node">
<title>Node19</title>
<g id="a_node19"><a xlink:title=" ">
<polygon fill="none" stroke="#bfbfbf" points="805.5,-0.5 805.5,-30.5 918.5,-30.5 918.5,-0.5 805.5,-0.5"/>
<text text-anchor="start" x="813.5" y="-18.5" font-family="Helvetica,sans-Serif" font-size="10.00">boost/serialization</text>
<text text-anchor="middle" x="862" y="-7.5" font-family="Helvetica,sans-Serif" font-size="10.00">/tracking_enum.hpp</text>
</a>
</g>
</g>
<!-- Node11&#45;&gt;Node19 -->
<g id="edge18" class="edge">
<title>Node11&#45;&gt;Node19</title>
<path fill="none" stroke="midnightblue" d="M697.23,-72.87C726.23,-62.95 774.58,-46.41 811.42,-33.81"/>
<polygon fill="midnightblue" stroke="midnightblue" points="812.67,-37.08 820.99,-30.53 810.4,-30.45 812.67,-37.08"/>
</g>
</g>
</svg>
        <g id="navigator" transform="translate(0 0)" fill="#404254">
                <rect fill="#f2f5e9" fill-opacity="0.5" stroke="#606060" stroke-width=".5" x="0" y="0" width="60" height="60"/>
                <use id="zoomplus" xlink:href="#zoomPlus" x="17" y="9" onmousedown="handleZoom(evt,'in')"/>
                <use id="zoomminus" xlink:href="#zoomMin" x="42" y="9" onmousedown="handleZoom(evt,'out')"/>
                <use id="reset" xlink:href="#resetDef" x="30" y="36" onmousedown="handleReset()"/>
                <g id="arrowUp" xlink:href="#dirArrow" transform="translate(30 24)" onmousedown="handlePan(0,-1)">
                  <use xlink:href="#rim" fill="#404040">
                        <set attributeName="fill" to="#808080" begin="arrowUp.mouseover" end="arrowUp.mouseout"/>
                  </use>
                  <path fill="none" stroke="white" stroke-width="1.5" d="M0,-3.0v7 M-2.5,-0.5L0,-3.0L2.5,-0.5"/>
                </g>
                <g id="arrowRight" xlink:href="#dirArrow" transform="rotate(90) translate(36 -43)" onmousedown="handlePan(1,0)">
                  <use xlink:href="#rim" fill="#404040">
                        <set attributeName="fill" to="#808080" begin="arrowRight.mouseover" end="arrowRight.mouseout"/>
                  </use>
                  <path fill="none" stroke="white" stroke-width="1.5" d="M0,-3.0v7 M-2.5,-0.5L0,-3.0L2.5,-0.5"/>
                </g>
                <g id="arrowDown" xlink:href="#dirArrow" transform="rotate(180) translate(-30 -48)" onmousedown="handlePan(0,1)">
                  <use xlink:href="#rim" fill="#404040">
                        <set attributeName="fill" to="#808080" begin="arrowDown.mouseover" end="arrowDown.mouseout"/>
                  </use>
                  <path fill="none" stroke="white" stroke-width="1.5" d="M0,-3.0v7 M-2.5,-0.5L0,-3.0L2.5,-0.5"/>
                </g>
                <g id="arrowLeft" xlink:href="#dirArrow" transform="rotate(270) translate(-36 17)" onmousedown="handlePan(-1,0)">
                  <use xlink:href="#rim" fill="#404040">
                        <set attributeName="fill" to="#808080" begin="arrowLeft.mouseover" end="arrowLeft.mouseout"/>
                  </use>
                  <path fill="none" stroke="white" stroke-width="1.5" d="M0,-3.0v7 M-2.5,-0.5L0,-3.0L2.5,-0.5"/>
                </g>
        </g>
        <svg viewBox="0 0 15 15" width="100%" height="30px" preserveAspectRatio="xMaxYMin meet">
         <g id="arrow_out" transform="scale(0.3 0.3)">
          <a xlink:href="LeesEdwardsBC_8hpp__incl_org.svg" target="_base">
           <rect id="button" ry="5" rx="5" y="6" x="6" height="38" width="38"
                fill="#f2f5e9" fill-opacity="0.5" stroke="#606060" stroke-width="1.0"/>
           <path id="arrow"
             d="M 11.500037,31.436501 C 11.940474,20.09759 22.043105,11.32322 32.158766,21.979434 L 37.068811,17.246167 C 37.068811,17.246167 37.088388,32 37.088388,32 L 22.160133,31.978069 C 22.160133,31.978069 26.997745,27.140456 26.997745,27.140456 C 18.528582,18.264221 13.291696,25.230495 11.500037,31.436501 z"
             style="fill:#404040;"/>
          </a>
         </g>
        </svg>
</svg>
