<?xml version="1.0" encoding="UTF-8" standalone="no"?>
<!DOCTYPE svg PUBLIC "-//W3C//DTD SVG 1.1//EN"
 "http://www.w3.org/Graphics/SVG/1.1/DTD/svg11.dtd">
<!-- Generated by graphviz version 2.43.0 (0)
 -->
<!-- Title: ljcos2.hpp Pages: 1 -->
<svg width="1986pt" height="419pt"
 viewBox="0.00 0.00 1985.50 419.00" xmlns="http://www.w3.org/2000/svg" xmlns:xlink="http://www.w3.org/1999/xlink">
<g id="graph0" class="graph" transform="scale(1 1) rotate(0) translate(4 415)">
<title>ljcos2.hpp</title>
<!-- Node1 -->
<g id="node1" class="node">
<title>Node1</title>
<g id="a_node1"><a xlink:title="Routines to calculate the Lennard&#45;Jones with cosine tail potential between particle pairs.">
<polygon fill="#bfbfbf" stroke="black" points="1614.5,-391.5 1614.5,-410.5 1680.5,-410.5 1680.5,-391.5 1614.5,-391.5"/>
<text text-anchor="middle" x="1647.5" y="-398.5" font-family="Helvetica,sans-Serif" font-size="10.00">ljcos2.hpp</text>
</a>
</g>
</g>
<!-- Node2 -->
<g id="node2" class="node">
<title>Node2</title>
<g id="a_node2"><a xlink:href="config_8hpp.html" target="_top" xlink:title="This file contains the defaults for ESPResSo.">
<polygon fill="none" stroke="black" points="44,-263 44,-282 143,-282 143,-263 44,-263"/>
<text text-anchor="middle" x="93.5" y="-270" font-family="Helvetica,sans-Serif" font-size="10.00">config/config.hpp</text>
</a>
</g>
</g>
<!-- Node1&#45;&gt;Node2 -->
<g id="edge1" class="edge">
<title>Node1&#45;&gt;Node2</title>
<path fill="none" stroke="midnightblue" d="M1614.18,-400.4C1478,-401.67 950.58,-403.03 520.5,-355 379.63,-339.27 215.62,-302.75 138.26,-284.42"/>
<polygon fill="midnightblue" stroke="midnightblue" points="138.91,-280.97 128.37,-282.06 137.29,-287.78 138.91,-280.97"/>
</g>
<!-- Node4 -->
<g id="node4" class="node">
<title>Node4</title>
<g id="a_node4"><a xlink:href="nonbonded__interaction__data_8hpp.html" target="_top" xlink:title="Various procedures concerning interactions between particles.">
<polygon fill="none" stroke="black" points="529.5,-324.5 529.5,-354.5 657.5,-354.5 657.5,-324.5 529.5,-324.5"/>
<text text-anchor="start" x="537.5" y="-342.5" font-family="Helvetica,sans-Serif" font-size="10.00">nonbonded_interaction</text>
<text text-anchor="middle" x="593.5" y="-331.5" font-family="Helvetica,sans-Serif" font-size="10.00">_data.hpp</text>
</a>
</g>
</g>
<!-- Node1&#45;&gt;Node4 -->
<g id="edge3" class="edge">
<title>Node1&#45;&gt;Node4</title>
<path fill="none" stroke="midnightblue" d="M1614.22,-398.12C1467.62,-389.85 877.57,-356.54 667.89,-344.7"/>
<polygon fill="midnightblue" stroke="midnightblue" points="667.78,-341.19 657.6,-344.12 667.39,-348.18 667.78,-341.19"/>
</g>
<!-- Node34 -->
<g id="node34" class="node">
<title>Node34</title>
<g id="a_node34"><a xlink:title=" ">
<polygon fill="none" stroke="#bfbfbf" points="1505,-140 1505,-159 1552,-159 1552,-140 1505,-140"/>
<text text-anchor="middle" x="1528.5" y="-147" font-family="Helvetica,sans-Serif" font-size="10.00">cmath</text>
</a>
</g>
</g>
<!-- Node1&#45;&gt;Node34 -->
<g id="edge68" class="edge">
<title>Node1&#45;&gt;Node34</title>
<path fill="none" stroke="midnightblue" d="M1643.4,-391.41C1626.31,-355.57 1560.47,-217.52 1536.93,-168.17"/>
<polygon fill="midnightblue" stroke="midnightblue" points="1540.04,-166.57 1532.58,-159.05 1533.72,-169.58 1540.04,-166.57"/>
</g>
<!-- Node38 -->
<g id="node38" class="node">
<title>Node38</title>
<g id="a_node38"><a xlink:href="int__pow_8hpp.html" target="_top" xlink:title=" ">
<polygon fill="none" stroke="black" points="1618.5,-201.5 1618.5,-220.5 1746.5,-220.5 1746.5,-201.5 1618.5,-201.5"/>
<text text-anchor="middle" x="1682.5" y="-208.5" font-family="Helvetica,sans-Serif" font-size="10.00">utils/math/int_pow.hpp</text>
</a>
</g>
</g>
<!-- Node1&#45;&gt;Node38 -->
<g id="edge65" class="edge">
<title>Node1&#45;&gt;Node38</title>
<path fill="none" stroke="midnightblue" d="M1649.09,-391.43C1654.41,-362.87 1671.62,-270.43 1679.04,-230.57"/>
<polygon fill="midnightblue" stroke="midnightblue" points="1682.51,-231.09 1680.9,-220.62 1675.62,-229.81 1682.51,-231.09"/>
</g>
<!-- Node40 -->
<g id="node40" class="node">
<title>Node40</title>
<g id="a_node40"><a xlink:href="constants_8hpp.html" target="_top" xlink:title=" ">
<polygon fill="none" stroke="black" points="1720,-330 1720,-349 1829,-349 1829,-330 1720,-330"/>
<text text-anchor="middle" x="1774.5" y="-337" font-family="Helvetica,sans-Serif" font-size="10.00">utils/constants.hpp</text>
</a>
</g>
</g>
<!-- Node1&#45;&gt;Node40 -->
<g id="edge62" class="edge">
<title>Node1&#45;&gt;Node40</title>
<path fill="none" stroke="midnightblue" d="M1665.7,-391.48C1687.01,-381.49 1722.53,-364.85 1747.16,-353.31"/>
<polygon fill="midnightblue" stroke="midnightblue" points="1748.77,-356.42 1756.34,-349.01 1745.8,-350.08 1748.77,-356.42"/>
</g>
<!-- Node42 -->
<g id="node42" class="node">
<title>Node42</title>
<g id="a_node42"><a xlink:href="sqr_8hpp.html" target="_top" xlink:title=" ">
<polygon fill="none" stroke="black" points="1873.5,-330 1873.5,-349 1977.5,-349 1977.5,-330 1873.5,-330"/>
<text text-anchor="middle" x="1925.5" y="-337" font-family="Helvetica,sans-Serif" font-size="10.00">utils/math/sqr.hpp</text>
</a>
</g>
</g>
<!-- Node1&#45;&gt;Node42 -->
<g id="edge66" class="edge">
<title>Node1&#45;&gt;Node42</title>
<path fill="none" stroke="midnightblue" d="M1680.76,-392.88C1729.06,-382.54 1818.99,-363.3 1875.36,-351.23"/>
<polygon fill="midnightblue" stroke="midnightblue" points="1876.43,-354.58 1885.47,-349.07 1874.96,-347.74 1876.43,-354.58"/>
</g>
<!-- Node3 -->
<g id="node3" class="node">
<title>Node3</title>
<g id="a_node3"><a xlink:title=" ">
<polygon fill="none" stroke="#bfbfbf" points="0,-201.5 0,-220.5 143,-220.5 143,-201.5 0,-201.5"/>
<text text-anchor="middle" x="71.5" y="-208.5" font-family="Helvetica,sans-Serif" font-size="10.00">config/config&#45;features.hpp</text>
</a>
</g>
</g>
<!-- Node2&#45;&gt;Node3 -->
<g id="edge2" class="edge">
<title>Node2&#45;&gt;Node3</title>
<path fill="none" stroke="midnightblue" d="M90.35,-262.98C87.18,-254.4 82.2,-240.93 78.15,-229.98"/>
<polygon fill="midnightblue" stroke="midnightblue" points="81.4,-228.67 74.65,-220.51 74.83,-231.1 81.4,-228.67"/>
</g>
<!-- Node4&#45;&gt;Node2 -->
<g id="edge11" class="edge">
<title>Node4&#45;&gt;Node2</title>
<path fill="none" stroke="midnightblue" d="M529.29,-333.24C443.98,-325.75 288.76,-310.4 157.5,-288 151.16,-286.92 144.51,-285.61 137.99,-284.22"/>
<polygon fill="midnightblue" stroke="midnightblue" points="138.43,-280.74 127.91,-282.01 136.92,-287.57 138.43,-280.74"/>
</g>
<!-- Node5 -->
<g id="node5" class="node">
<title>Node5</title>
<g id="a_node5"><a xlink:href="TabulatedPotential_8hpp.html" target="_top" xlink:title=" ">
<polygon fill="none" stroke="black" points="355.5,-201.5 355.5,-220.5 483.5,-220.5 483.5,-201.5 355.5,-201.5"/>
<text text-anchor="middle" x="419.5" y="-208.5" font-family="Helvetica,sans-Serif" font-size="10.00">TabulatedPotential.hpp</text>
</a>
</g>
</g>
<!-- Node4&#45;&gt;Node5 -->
<g id="edge4" class="edge">
<title>Node4&#45;&gt;Node5</title>
<path fill="none" stroke="midnightblue" d="M529.97,-324.47C506.13,-316.77 480.1,-305.17 460.5,-288 442.92,-272.6 431.55,-247.78 425.35,-230.72"/>
<polygon fill="midnightblue" stroke="midnightblue" points="428.51,-229.16 422,-220.81 421.88,-231.4 428.51,-229.16"/>
</g>
<!-- Node7 -->
<g id="node7" class="node">
<title>Node7</title>
<g id="a_node7"><a xlink:title=" ">
<polygon fill="none" stroke="#bfbfbf" points="1401.5,-6 1401.5,-25 1453.5,-25 1453.5,-6 1401.5,-6"/>
<text text-anchor="middle" x="1427.5" y="-13" font-family="Helvetica,sans-Serif" font-size="10.00">cassert</text>
</a>
</g>
</g>
<!-- Node4&#45;&gt;Node7 -->
<g id="edge57" class="edge">
<title>Node4&#45;&gt;Node7</title>
<path fill="none" stroke="midnightblue" d="M657.72,-338.53C858.18,-336.98 1464.67,-319.44 1560.5,-165 1595.31,-108.89 1504.37,-53.94 1455.78,-29.58"/>
<polygon fill="midnightblue" stroke="midnightblue" points="1457.19,-26.38 1446.67,-25.12 1454.12,-32.66 1457.19,-26.38"/>
</g>
<!-- Node10 -->
<g id="node10" class="node">
<title>Node10</title>
<g id="a_node10"><a xlink:title=" ">
<polygon fill="none" stroke="#bfbfbf" points="439.5,-140 439.5,-159 503.5,-159 503.5,-140 439.5,-140"/>
<text text-anchor="middle" x="471.5" y="-147" font-family="Helvetica,sans-Serif" font-size="10.00">algorithm</text>
</a>
</g>
</g>
<!-- Node4&#45;&gt;Node10 -->
<g id="edge56" class="edge">
<title>Node4&#45;&gt;Node10</title>
<path fill="none" stroke="midnightblue" d="M584.33,-324.37C562.35,-290.51 506.73,-204.79 482.77,-167.87"/>
<polygon fill="midnightblue" stroke="midnightblue" points="485.53,-165.69 477.15,-159.21 479.66,-169.5 485.53,-165.69"/>
</g>
<!-- Node11 -->
<g id="node11" class="node">
<title>Node11</title>
<g id="a_node11"><a xlink:title=" ">
<polygon fill="none" stroke="#bfbfbf" points="522,-140 522,-159 569,-159 569,-140 522,-140"/>
<text text-anchor="middle" x="545.5" y="-147" font-family="Helvetica,sans-Serif" font-size="10.00">vector</text>
</a>
</g>
</g>
<!-- Node4&#45;&gt;Node11 -->
<g id="edge61" class="edge">
<title>Node4&#45;&gt;Node11</title>
<path fill="none" stroke="midnightblue" d="M592.28,-324.14C589.85,-298.79 583.39,-244.64 569.5,-201 565.87,-189.6 560.18,-177.48 555.25,-167.97"/>
<polygon fill="midnightblue" stroke="midnightblue" points="558.32,-166.29 550.5,-159.14 552.15,-169.61 558.32,-166.29"/>
</g>
<!-- Node12 -->
<g id="node12" class="node">
<title>Node12</title>
<g id="a_node12"><a xlink:href="index_8hpp.html" target="_top" xlink:title=" ">
<polygon fill="none" stroke="black" points="1082,-263 1082,-282 1171,-282 1171,-263 1082,-263"/>
<text text-anchor="middle" x="1126.5" y="-270" font-family="Helvetica,sans-Serif" font-size="10.00">utils/index.hpp</text>
</a>
</g>
</g>
<!-- Node4&#45;&gt;Node12 -->
<g id="edge12" class="edge">
<title>Node4&#45;&gt;Node12</title>
<path fill="none" stroke="midnightblue" d="M657.53,-330.69C763.18,-317.81 972.22,-292.31 1071.57,-280.2"/>
<polygon fill="midnightblue" stroke="midnightblue" points="1072.2,-283.65 1081.7,-278.96 1071.35,-276.7 1072.2,-283.65"/>
</g>
<!-- Node13 -->
<g id="node13" class="node">
<title>Node13</title>
<g id="a_node13"><a xlink:title=" ">
<polygon fill="none" stroke="#bfbfbf" points="183,-6 183,-25 236,-25 236,-6 183,-6"/>
<text text-anchor="middle" x="209.5" y="-13" font-family="Helvetica,sans-Serif" font-size="10.00">cstddef</text>
</a>
</g>
</g>
<!-- Node4&#45;&gt;Node13 -->
<g id="edge59" class="edge">
<title>Node4&#45;&gt;Node13</title>
<path fill="none" stroke="midnightblue" d="M529.41,-332.7C411.35,-320.23 171.5,-285.81 171.5,-212 171.5,-212 171.5,-212 171.5,-148.5 171.5,-106.35 189.61,-59.48 200.83,-34.5"/>
<polygon fill="midnightblue" stroke="midnightblue" points="204.11,-35.76 205.14,-25.21 197.76,-32.81 204.11,-35.76"/>
</g>
<!-- Node4&#45;&gt;Node34 -->
<g id="edge58" class="edge">
<title>Node4&#45;&gt;Node34</title>
<path fill="none" stroke="midnightblue" d="M657.77,-336.98C766.19,-333.53 991.95,-322.49 1179.5,-288 1286.32,-268.36 1315.15,-264.87 1414.5,-221 1449.67,-205.47 1486.94,-180.62 1508.94,-164.95"/>
<polygon fill="midnightblue" stroke="midnightblue" points="1511.06,-167.73 1517.11,-159.04 1506.96,-162.06 1511.06,-167.73"/>
</g>
<!-- Node4&#45;&gt;Node38 -->
<g id="edge53" class="edge">
<title>Node4&#45;&gt;Node38</title>
<path fill="none" stroke="midnightblue" d="M657.59,-337.11C860.53,-332.46 1480.63,-316.07 1566.5,-288 1605.69,-275.19 1644.36,-245.5 1665.67,-227.26"/>
<polygon fill="midnightblue" stroke="midnightblue" points="1667.98,-229.88 1673.2,-220.66 1663.37,-224.62 1667.98,-229.88"/>
</g>
<!-- Node39 -->
<g id="node39" class="node">
<title>Node39</title>
<g id="a_node39"><a xlink:title=" ">
<polygon fill="none" stroke="#bfbfbf" points="469.5,-263 469.5,-282 527.5,-282 527.5,-263 469.5,-263"/>
<text text-anchor="middle" x="498.5" y="-270" font-family="Helvetica,sans-Serif" font-size="10.00">memory</text>
</a>
</g>
</g>
<!-- Node4&#45;&gt;Node39 -->
<g id="edge60" class="edge">
<title>Node4&#45;&gt;Node39</title>
<path fill="none" stroke="midnightblue" d="M572.89,-324.4C557.1,-313.6 535.41,-298.76 519.53,-287.89"/>
<polygon fill="midnightblue" stroke="midnightblue" points="521.16,-284.77 510.93,-282.01 517.21,-290.54 521.16,-284.77"/>
</g>
<!-- Node6 -->
<g id="node6" class="node">
<title>Node6</title>
<g id="a_node6"><a xlink:href="linear__interpolation_8hpp.html" target="_top" xlink:title=" ">
<polygon fill="none" stroke="black" points="822,-73 822,-92 979,-92 979,-73 822,-73"/>
<text text-anchor="middle" x="900.5" y="-80" font-family="Helvetica,sans-Serif" font-size="10.00">utils/linear_interpolation.hpp</text>
</a>
</g>
</g>
<!-- Node5&#45;&gt;Node6 -->
<g id="edge5" class="edge">
<title>Node5&#45;&gt;Node6</title>
<path fill="none" stroke="midnightblue" d="M417.74,-201.43C415.04,-185.57 411.96,-151.64 430.5,-134 492.27,-75.23 727.94,-108.94 812.5,-98 822.29,-96.73 832.66,-95.2 842.72,-93.61"/>
<polygon fill="midnightblue" stroke="midnightblue" points="843.32,-97.06 852.63,-92.01 842.2,-90.15 843.32,-97.06"/>
</g>
<!-- Node8 -->
<g id="node8" class="node">
<title>Node8</title>
<g id="a_node8"><a xlink:title=" ">
<polygon fill="none" stroke="#bfbfbf" points="379,-67.5 379,-97.5 486,-97.5 486,-67.5 379,-67.5"/>
<text text-anchor="start" x="387" y="-85.5" font-family="Helvetica,sans-Serif" font-size="10.00">boost/serialization</text>
<text text-anchor="middle" x="432.5" y="-74.5" font-family="Helvetica,sans-Serif" font-size="10.00">/access.hpp</text>
</a>
</g>
</g>
<!-- Node5&#45;&gt;Node8 -->
<g id="edge7" class="edge">
<title>Node5&#45;&gt;Node8</title>
<path fill="none" stroke="midnightblue" d="M413.86,-201.48C408.45,-192.74 400.64,-178.56 397.5,-165 394.39,-151.58 393.39,-147.15 397.5,-134 400.67,-123.87 406.65,-113.99 412.79,-105.7"/>
<polygon fill="midnightblue" stroke="midnightblue" points="415.68,-107.69 419.14,-97.68 410.19,-103.35 415.68,-107.69"/>
</g>
<!-- Node9 -->
<g id="node9" class="node">
<title>Node9</title>
<g id="a_node9"><a xlink:title=" ">
<polygon fill="none" stroke="#bfbfbf" points="238,-134.5 238,-164.5 345,-164.5 345,-134.5 238,-134.5"/>
<text text-anchor="start" x="246" y="-152.5" font-family="Helvetica,sans-Serif" font-size="10.00">boost/serialization</text>
<text text-anchor="middle" x="291.5" y="-141.5" font-family="Helvetica,sans-Serif" font-size="10.00">/vector.hpp</text>
</a>
</g>
</g>
<!-- Node5&#45;&gt;Node9 -->
<g id="edge8" class="edge">
<title>Node5&#45;&gt;Node9</title>
<path fill="none" stroke="midnightblue" d="M401.16,-201.48C382.93,-193 354.4,-179.74 331,-168.86"/>
<polygon fill="midnightblue" stroke="midnightblue" points="332.21,-165.56 321.67,-164.52 329.26,-171.91 332.21,-165.56"/>
</g>
<!-- Node5&#45;&gt;Node10 -->
<g id="edge9" class="edge">
<title>Node5&#45;&gt;Node10</title>
<path fill="none" stroke="midnightblue" d="M426.95,-201.48C434.83,-192.46 447.44,-178.02 457.24,-166.81"/>
<polygon fill="midnightblue" stroke="midnightblue" points="460.12,-168.84 464.06,-159.01 454.85,-164.24 460.12,-168.84"/>
</g>
<!-- Node5&#45;&gt;Node11 -->
<g id="edge10" class="edge">
<title>Node5&#45;&gt;Node11</title>
<path fill="none" stroke="midnightblue" d="M437.55,-201.48C458.7,-191.49 493.94,-174.85 518.38,-163.31"/>
<polygon fill="midnightblue" stroke="midnightblue" points="519.93,-166.44 527.48,-159.01 516.94,-160.11 519.93,-166.44"/>
</g>
<!-- Node6&#45;&gt;Node7 -->
<g id="edge6" class="edge">
<title>Node6&#45;&gt;Node7</title>
<path fill="none" stroke="midnightblue" d="M951.58,-72.93C965.18,-70.81 979.88,-68.67 993.5,-67 1170.22,-45.27 1219.61,-73.56 1392.5,-31 1395.01,-30.38 1397.58,-29.61 1400.13,-28.75"/>
<polygon fill="midnightblue" stroke="midnightblue" points="1401.59,-31.94 1409.69,-25.1 1399.1,-25.4 1401.59,-31.94"/>
</g>
<!-- Node12&#45;&gt;Node7 -->
<g id="edge13" class="edge">
<title>Node12&#45;&gt;Node7</title>
<path fill="none" stroke="midnightblue" d="M1081.82,-268.32C974.65,-259.68 707.88,-231.76 654.5,-165 645.9,-154.24 645.3,-144.25 654.5,-134 704.22,-78.61 918.65,-126.27 987.5,-98 1007.98,-89.59 1005.98,-75.31 1026.5,-67 1178,-5.64 1233.95,-70.71 1392.5,-31 1395.01,-30.37 1397.58,-29.59 1400.13,-28.72"/>
<polygon fill="midnightblue" stroke="midnightblue" points="1401.59,-31.91 1409.68,-25.07 1399.09,-25.37 1401.59,-31.91"/>
</g>
<!-- Node12&#45;&gt;Node13 -->
<g id="edge14" class="edge">
<title>Node12&#45;&gt;Node13</title>
<path fill="none" stroke="midnightblue" d="M1081.75,-270.81C937.67,-268.26 487.04,-257.47 346.5,-221 290.31,-206.42 262.58,-211.99 228.5,-165 200.22,-126.01 202.93,-65.65 206.58,-35.29"/>
<polygon fill="midnightblue" stroke="midnightblue" points="210.07,-35.62 207.96,-25.23 203.13,-34.66 210.07,-35.62"/>
</g>
<!-- Node14 -->
<g id="node14" class="node">
<title>Node14</title>
<g id="a_node14"><a xlink:title=" ">
<polygon fill="none" stroke="#bfbfbf" points="1245,-73 1245,-92 1298,-92 1298,-73 1245,-73"/>
<text text-anchor="middle" x="1271.5" y="-80" font-family="Helvetica,sans-Serif" font-size="10.00">iterator</text>
</a>
</g>
</g>
<!-- Node12&#45;&gt;Node14 -->
<g id="edge15" class="edge">
<title>Node12&#45;&gt;Node14</title>
<path fill="none" stroke="midnightblue" d="M1171.14,-270.26C1238.2,-265.69 1363.09,-246.08 1419.5,-165 1450.12,-120.98 1361.54,-98.27 1308.38,-88.88"/>
<polygon fill="midnightblue" stroke="midnightblue" points="1308.71,-85.39 1298.27,-87.18 1307.55,-92.29 1308.71,-85.39"/>
</g>
<!-- Node15 -->
<g id="node15" class="node">
<title>Node15</title>
<g id="a_node15"><a xlink:title=" ">
<polygon fill="none" stroke="#bfbfbf" points="1354.5,-140 1354.5,-159 1410.5,-159 1410.5,-140 1354.5,-140"/>
<text text-anchor="middle" x="1382.5" y="-147" font-family="Helvetica,sans-Serif" font-size="10.00">numeric</text>
</a>
</g>
</g>
<!-- Node12&#45;&gt;Node15 -->
<g id="edge16" class="edge">
<title>Node12&#45;&gt;Node15</title>
<path fill="none" stroke="midnightblue" d="M1144.5,-262.99C1188.64,-242.13 1302.49,-188.32 1355.1,-163.45"/>
<polygon fill="midnightblue" stroke="midnightblue" points="1356.63,-166.6 1364.18,-159.16 1353.64,-160.27 1356.63,-166.6"/>
</g>
<!-- Node16 -->
<g id="node16" class="node">
<title>Node16</title>
<g id="a_node16"><a xlink:title=" ">
<polygon fill="none" stroke="#bfbfbf" points="1400,-73 1400,-92 1465,-92 1465,-73 1400,-73"/>
<text text-anchor="middle" x="1432.5" y="-80" font-family="Helvetica,sans-Serif" font-size="10.00">stdexcept</text>
</a>
</g>
</g>
<!-- Node12&#45;&gt;Node16 -->
<g id="edge17" class="edge">
<title>Node12&#45;&gt;Node16</title>
<path fill="none" stroke="midnightblue" d="M1171.03,-271.07C1225.01,-268.76 1317.23,-258.96 1385.5,-221 1415.18,-204.49 1425.09,-196.61 1437.5,-165 1445.49,-144.65 1442.04,-119.24 1438.03,-102.25"/>
<polygon fill="midnightblue" stroke="midnightblue" points="1441.38,-101.22 1435.43,-92.45 1434.61,-103.01 1441.38,-101.22"/>
</g>
<!-- Node17 -->
<g id="node17" class="node">
<title>Node17</title>
<g id="a_node17"><a xlink:href="Vector_8hpp.html" target="_top" xlink:title="Vector implementation and trait types for boost qvm interoperability.">
<polygon fill="none" stroke="black" points="1092.5,-201.5 1092.5,-220.5 1160.5,-220.5 1160.5,-201.5 1092.5,-201.5"/>
<text text-anchor="middle" x="1126.5" y="-208.5" font-family="Helvetica,sans-Serif" font-size="10.00">Vector.hpp</text>
</a>
</g>
</g>
<!-- Node12&#45;&gt;Node17 -->
<g id="edge18" class="edge">
<title>Node12&#45;&gt;Node17</title>
<path fill="none" stroke="midnightblue" d="M1126.5,-262.98C1126.5,-254.58 1126.5,-241.48 1126.5,-230.66"/>
<polygon fill="midnightblue" stroke="midnightblue" points="1130,-230.51 1126.5,-220.51 1123,-230.51 1130,-230.51"/>
</g>
<!-- Node17&#45;&gt;Node7 -->
<g id="edge44" class="edge">
<title>Node17&#45;&gt;Node7</title>
<path fill="none" stroke="midnightblue" d="M1160.58,-206.02C1194.93,-200.8 1248.43,-189.28 1288.5,-165 1318.43,-146.87 1385.34,-67.8 1414.02,-33.02"/>
<polygon fill="midnightblue" stroke="midnightblue" points="1416.8,-35.14 1420.44,-25.19 1411.39,-30.7 1416.8,-35.14"/>
</g>
<!-- Node17&#45;&gt;Node10 -->
<g id="edge43" class="edge">
<title>Node17&#45;&gt;Node10</title>
<path fill="none" stroke="midnightblue" d="M1092.45,-210.66C998.79,-211.8 729.83,-210.54 512.5,-165 509.07,-164.28 505.54,-163.35 502.05,-162.3"/>
<polygon fill="midnightblue" stroke="midnightblue" points="503.06,-158.95 492.47,-159.13 500.86,-165.59 503.06,-158.95"/>
</g>
<!-- Node17&#45;&gt;Node11 -->
<g id="edge52" class="edge">
<title>Node17&#45;&gt;Node11</title>
<path fill="none" stroke="midnightblue" d="M1092.32,-210.48C1005.9,-210.97 772.13,-207.9 583.5,-165 580.5,-164.32 577.42,-163.45 574.37,-162.47"/>
<polygon fill="midnightblue" stroke="midnightblue" points="575.49,-159.16 564.9,-159.11 573.15,-165.75 575.49,-159.16"/>
</g>
<!-- Node17&#45;&gt;Node13 -->
<g id="edge46" class="edge">
<title>Node17&#45;&gt;Node13</title>
<path fill="none" stroke="midnightblue" d="M1092.19,-208.73C997.8,-204.94 735.9,-192.18 654.5,-165 575.4,-138.59 572.94,-95.3 494.5,-67 388.91,-28.9 352.75,-60.71 244.5,-31 242.06,-30.33 239.56,-29.53 237.08,-28.66"/>
<polygon fill="midnightblue" stroke="midnightblue" points="238.31,-25.39 227.72,-25.06 235.8,-31.92 238.31,-25.39"/>
</g>
<!-- Node17&#45;&gt;Node14 -->
<g id="edge49" class="edge">
<title>Node17&#45;&gt;Node14</title>
<path fill="none" stroke="midnightblue" d="M1160.55,-209.68C1193.93,-207.33 1243.37,-198.03 1268.5,-165 1282.13,-147.08 1279.99,-119.98 1276.41,-102.02"/>
<polygon fill="midnightblue" stroke="midnightblue" points="1279.79,-101.13 1274.12,-92.18 1272.97,-102.71 1279.79,-101.13"/>
</g>
<!-- Node17&#45;&gt;Node15 -->
<g id="edge50" class="edge">
<title>Node17&#45;&gt;Node15</title>
<path fill="none" stroke="midnightblue" d="M1160.54,-204.2C1203.03,-196.65 1277.75,-182.36 1340.5,-165 1343.53,-164.16 1346.65,-163.23 1349.77,-162.24"/>
<polygon fill="midnightblue" stroke="midnightblue" points="1351.16,-165.47 1359.56,-159 1348.96,-158.82 1351.16,-165.47"/>
</g>
<!-- Node18 -->
<g id="node18" class="node">
<title>Node18</title>
<g id="a_node18"><a xlink:title=" ">
<polygon fill="none" stroke="#bfbfbf" points="663.5,-140 663.5,-159 813.5,-159 813.5,-140 663.5,-140"/>
<text text-anchor="middle" x="738.5" y="-147" font-family="Helvetica,sans-Serif" font-size="10.00">boost/qvm/deduce_vec.hpp</text>
</a>
</g>
</g>
<!-- Node17&#45;&gt;Node18 -->
<g id="edge19" class="edge">
<title>Node17&#45;&gt;Node18</title>
<path fill="none" stroke="midnightblue" d="M1092.27,-205.21C1035.94,-197.26 920.22,-180.66 822.5,-165 814.2,-163.67 805.45,-162.22 796.86,-160.76"/>
<polygon fill="midnightblue" stroke="midnightblue" points="797.33,-157.29 786.88,-159.06 796.15,-164.19 797.33,-157.29"/>
</g>
<!-- Node19 -->
<g id="node19" class="node">
<title>Node19</title>
<g id="a_node19"><a xlink:title=" ">
<polygon fill="none" stroke="#bfbfbf" points="831.5,-140 831.5,-159 971.5,-159 971.5,-140 831.5,-140"/>
<text text-anchor="middle" x="901.5" y="-147" font-family="Helvetica,sans-Serif" font-size="10.00">boost/qvm/vec_traits.hpp</text>
</a>
</g>
</g>
<!-- Node17&#45;&gt;Node19 -->
<g id="edge20" class="edge">
<title>Node17&#45;&gt;Node19</title>
<path fill="none" stroke="midnightblue" d="M1094.26,-201.48C1054.58,-190.98 987.1,-173.14 943.43,-161.59"/>
<polygon fill="midnightblue" stroke="midnightblue" points="944.24,-158.18 933.68,-159.01 942.45,-164.95 944.24,-158.18"/>
</g>
<!-- Node20 -->
<g id="node20" class="node">
<title>Node20</title>
<g id="a_node20"><a xlink:href="Array_8hpp.html" target="_top" xlink:title="Array implementation with CUDA support.">
<polygon fill="none" stroke="black" points="989.5,-140 989.5,-159 1075.5,-159 1075.5,-140 989.5,-140"/>
<text text-anchor="middle" x="1032.5" y="-147" font-family="Helvetica,sans-Serif" font-size="10.00">utils/Array.hpp</text>
</a>
</g>
</g>
<!-- Node17&#45;&gt;Node20 -->
<g id="edge21" class="edge">
<title>Node17&#45;&gt;Node20</title>
<path fill="none" stroke="midnightblue" d="M1113.03,-201.48C1097.82,-191.84 1072.81,-176.02 1054.7,-164.55"/>
<polygon fill="midnightblue" stroke="midnightblue" points="1056.26,-161.4 1045.94,-159.01 1052.52,-167.31 1056.26,-161.4"/>
</g>
<!-- Node17&#45;&gt;Node34 -->
<g id="edge45" class="edge">
<title>Node17&#45;&gt;Node34</title>
<path fill="none" stroke="midnightblue" d="M1160.77,-204.93C1236.94,-193.65 1419.47,-166.64 1494.95,-155.47"/>
<polygon fill="midnightblue" stroke="midnightblue" points="1495.49,-158.92 1504.87,-154 1494.47,-152 1495.49,-158.92"/>
</g>
<!-- Node35 -->
<g id="node35" class="node">
<title>Node35</title>
<g id="a_node35"><a xlink:title=" ">
<polygon fill="none" stroke="#bfbfbf" points="1094,-140 1094,-159 1159,-159 1159,-140 1094,-140"/>
<text text-anchor="middle" x="1126.5" y="-147" font-family="Helvetica,sans-Serif" font-size="10.00">functional</text>
</a>
</g>
</g>
<!-- Node17&#45;&gt;Node35 -->
<g id="edge47" class="edge">
<title>Node17&#45;&gt;Node35</title>
<path fill="none" stroke="midnightblue" d="M1126.5,-201.48C1126.5,-193.08 1126.5,-179.98 1126.5,-169.16"/>
<polygon fill="midnightblue" stroke="midnightblue" points="1130,-169.01 1126.5,-159.01 1123,-169.01 1130,-169.01"/>
</g>
<!-- Node36 -->
<g id="node36" class="node">
<title>Node36</title>
<g id="a_node36"><a xlink:title=" ">
<polygon fill="none" stroke="#bfbfbf" points="1177,-140 1177,-159 1260,-159 1260,-140 1177,-140"/>
<text text-anchor="middle" x="1218.5" y="-147" font-family="Helvetica,sans-Serif" font-size="10.00">initializer_list</text>
</a>
</g>
</g>
<!-- Node17&#45;&gt;Node36 -->
<g id="edge48" class="edge">
<title>Node17&#45;&gt;Node36</title>
<path fill="none" stroke="midnightblue" d="M1139.68,-201.48C1154.57,-191.84 1179.04,-176.02 1196.77,-164.55"/>
<polygon fill="midnightblue" stroke="midnightblue" points="1198.85,-167.38 1205.34,-159.01 1195.05,-161.5 1198.85,-167.38"/>
</g>
<!-- Node37 -->
<g id="node37" class="node">
<title>Node37</title>
<g id="a_node37"><a xlink:title=" ">
<polygon fill="none" stroke="#bfbfbf" points="1609,-140 1609,-159 1678,-159 1678,-140 1609,-140"/>
<text text-anchor="middle" x="1643.5" y="-147" font-family="Helvetica,sans-Serif" font-size="10.00">type_traits</text>
</a>
</g>
</g>
<!-- Node17&#45;&gt;Node37 -->
<g id="edge51" class="edge">
<title>Node17&#45;&gt;Node37</title>
<path fill="none" stroke="midnightblue" d="M1160.64,-207.27C1234.01,-201.24 1412.13,-185.63 1560.5,-165 1572.95,-163.27 1586.4,-161.07 1598.76,-158.9"/>
<polygon fill="midnightblue" stroke="midnightblue" points="1599.62,-162.31 1608.86,-157.11 1598.4,-155.41 1599.62,-162.31"/>
</g>
<!-- Node20&#45;&gt;Node7 -->
<g id="edge38" class="edge">
<title>Node20&#45;&gt;Node7</title>
<path fill="none" stroke="midnightblue" d="M1050.9,-139.98C1086.11,-123.92 1165.74,-88.86 1235.5,-67 1303.81,-45.6 1324.3,-52.78 1392.5,-31 1394.64,-30.32 1396.83,-29.56 1399.02,-28.76"/>
<polygon fill="midnightblue" stroke="midnightblue" points="1400.42,-31.97 1408.46,-25.07 1397.87,-25.45 1400.42,-31.97"/>
</g>
<!-- Node20&#45;&gt;Node8 -->
<g id="edge37" class="edge">
<title>Node20&#45;&gt;Node8</title>
<path fill="none" stroke="midnightblue" d="M1005.46,-139.94C997.49,-137.69 988.71,-135.49 980.5,-134 798.33,-100.99 749.76,-116.03 565.5,-98 542.95,-95.79 518.27,-93.16 496.36,-90.75"/>
<polygon fill="midnightblue" stroke="midnightblue" points="496.51,-87.25 486.18,-89.63 495.74,-94.2 496.51,-87.25"/>
</g>
<!-- Node20&#45;&gt;Node13 -->
<g id="edge39" class="edge">
<title>Node20&#45;&gt;Node13</title>
<path fill="none" stroke="midnightblue" d="M1005.46,-139.98C997.49,-137.73 988.7,-135.52 980.5,-134 812.82,-102.98 758.14,-157.96 598.5,-98 576.44,-89.72 577.47,-75.52 555.5,-67 425.77,-16.69 379.18,-65.96 244.5,-31 241.99,-30.35 239.43,-29.56 236.89,-28.68"/>
<polygon fill="midnightblue" stroke="midnightblue" points="237.93,-25.33 227.34,-25.01 235.41,-31.86 237.93,-25.33"/>
</g>
<!-- Node20&#45;&gt;Node14 -->
<g id="edge40" class="edge">
<title>Node20&#45;&gt;Node14</title>
<path fill="none" stroke="midnightblue" d="M1063.01,-139.95C1070.06,-137.98 1077.54,-135.91 1084.5,-134 1136.67,-119.68 1197.12,-103.42 1234.84,-93.31"/>
<polygon fill="midnightblue" stroke="midnightblue" points="1236.1,-96.59 1244.85,-90.62 1234.28,-89.83 1236.1,-96.59"/>
</g>
<!-- Node20&#45;&gt;Node16 -->
<g id="edge42" class="edge">
<title>Node20&#45;&gt;Node16</title>
<path fill="none" stroke="midnightblue" d="M1060.68,-139.94C1068.35,-137.8 1076.71,-135.65 1084.5,-134 1142.02,-121.86 1309.97,-99.4 1389.63,-89.02"/>
<polygon fill="midnightblue" stroke="midnightblue" points="1390.34,-92.46 1399.8,-87.7 1389.44,-85.52 1390.34,-92.46"/>
</g>
<!-- Node21 -->
<g id="node21" class="node">
<title>Node21</title>
<g id="a_node21"><a xlink:href="device__qualifier_8hpp.html" target="_top" xlink:title=" ">
<polygon fill="none" stroke="black" points="1649.5,-73 1649.5,-92 1763.5,-92 1763.5,-73 1649.5,-73"/>
<text text-anchor="middle" x="1706.5" y="-80" font-family="Helvetica,sans-Serif" font-size="10.00">device_qualifier.hpp</text>
</a>
</g>
</g>
<!-- Node20&#45;&gt;Node21 -->
<g id="edge22" class="edge">
<title>Node20&#45;&gt;Node21</title>
<path fill="none" stroke="midnightblue" d="M1059.26,-139.98C1067.3,-137.71 1076.2,-135.48 1084.5,-134 1138,-124.46 1489.71,-98.85 1639.32,-88.22"/>
<polygon fill="midnightblue" stroke="midnightblue" points="1639.58,-91.72 1649.31,-87.52 1639.09,-84.73 1639.58,-91.72"/>
</g>
<!-- Node22 -->
<g id="node22" class="node">
<title>Node22</title>
<g id="a_node22"><a xlink:href="get_8hpp.html" target="_top" xlink:title=" ">
<polygon fill="none" stroke="black" points="608,-73 608,-92 661,-92 661,-73 608,-73"/>
<text text-anchor="middle" x="634.5" y="-80" font-family="Helvetica,sans-Serif" font-size="10.00">get.hpp</text>
</a>
</g>
</g>
<!-- Node20&#45;&gt;Node22 -->
<g id="edge24" class="edge">
<title>Node20&#45;&gt;Node22</title>
<path fill="none" stroke="midnightblue" d="M1004.9,-139.94C997.07,-137.75 988.5,-135.57 980.5,-134 843.95,-107.23 804.18,-132.96 669.5,-98 666.99,-97.35 664.43,-96.56 661.89,-95.68"/>
<polygon fill="midnightblue" stroke="midnightblue" points="662.93,-92.33 652.34,-92.01 660.41,-98.86 662.93,-92.33"/>
</g>
<!-- Node24 -->
<g id="node24" class="node">
<title>Node24</title>
<g id="a_node24"><a xlink:href="array_8hpp.html" target="_top" xlink:title=" ">
<polygon fill="none" stroke="black" points="679,-73 679,-92 804,-92 804,-73 679,-73"/>
<text text-anchor="middle" x="741.5" y="-80" font-family="Helvetica,sans-Serif" font-size="10.00">serialization/array.hpp</text>
</a>
</g>
</g>
<!-- Node20&#45;&gt;Node24 -->
<g id="edge27" class="edge">
<title>Node20&#45;&gt;Node24</title>
<path fill="none" stroke="midnightblue" d="M1003.16,-139.97C995.79,-137.92 987.87,-135.81 980.5,-134 962.46,-129.58 857.25,-107.58 792.58,-94.11"/>
<polygon fill="midnightblue" stroke="midnightblue" points="793.07,-90.64 782.57,-92.03 791.65,-97.49 793.07,-90.64"/>
</g>
<!-- Node33 -->
<g id="node33" class="node">
<title>Node33</title>
<g id="a_node33"><a xlink:title=" ">
<polygon fill="none" stroke="#bfbfbf" points="1036,-73 1036,-92 1093,-92 1093,-73 1036,-73"/>
<text text-anchor="middle" x="1064.5" y="-80" font-family="Helvetica,sans-Serif" font-size="10.00">ostream</text>
</a>
</g>
</g>
<!-- Node20&#45;&gt;Node33 -->
<g id="edge41" class="edge">
<title>Node20&#45;&gt;Node33</title>
<path fill="none" stroke="midnightblue" d="M1036.82,-139.73C1041.66,-129.89 1049.65,-113.66 1055.81,-101.16"/>
<polygon fill="midnightblue" stroke="midnightblue" points="1058.98,-102.64 1060.25,-92.13 1052.7,-99.55 1058.98,-102.64"/>
</g>
<!-- Node21&#45;&gt;Node7 -->
<g id="edge23" class="edge">
<title>Node21&#45;&gt;Node7</title>
<path fill="none" stroke="midnightblue" d="M1669.74,-72.94C1616.05,-60.43 1516.82,-37.31 1463.54,-24.9"/>
<polygon fill="midnightblue" stroke="midnightblue" points="1464.06,-21.42 1453.53,-22.56 1462.47,-28.24 1464.06,-21.42"/>
</g>
<!-- Node22&#45;&gt;Node13 -->
<g id="edge25" class="edge">
<title>Node22&#45;&gt;Node13</title>
<path fill="none" stroke="midnightblue" d="M613.5,-73C607.16,-70.73 600.13,-68.49 593.5,-67 441.37,-32.76 395.67,-69.24 244.5,-31 241.99,-30.36 239.42,-29.58 236.88,-28.71"/>
<polygon fill="midnightblue" stroke="midnightblue" points="237.92,-25.36 227.33,-25.05 235.41,-31.9 237.92,-25.36"/>
</g>
<!-- Node23 -->
<g id="node23" class="node">
<title>Node23</title>
<g id="a_node23"><a xlink:title=" ">
<polygon fill="none" stroke="#bfbfbf" points="254,-6 254,-25 295,-25 295,-6 254,-6"/>
<text text-anchor="middle" x="274.5" y="-13" font-family="Helvetica,sans-Serif" font-size="10.00">tuple</text>
</a>
</g>
</g>
<!-- Node22&#45;&gt;Node23 -->
<g id="edge26" class="edge">
<title>Node22&#45;&gt;Node23</title>
<path fill="none" stroke="midnightblue" d="M613.06,-72.94C606.83,-70.72 599.97,-68.53 593.5,-67 467.53,-37.25 428.64,-67.65 304.5,-31 302.63,-30.45 300.73,-29.79 298.84,-29.06"/>
<polygon fill="midnightblue" stroke="midnightblue" points="300.25,-25.86 289.68,-25.02 297.42,-32.26 300.25,-25.86"/>
</g>
<!-- Node24&#45;&gt;Node13 -->
<g id="edge36" class="edge">
<title>Node24&#45;&gt;Node13</title>
<path fill="none" stroke="midnightblue" d="M703.15,-72.93C692.32,-70.74 680.48,-68.57 669.5,-67 481.83,-40.24 428.69,-75.81 244.5,-31 241.98,-30.39 239.41,-29.62 236.87,-28.76"/>
<polygon fill="midnightblue" stroke="midnightblue" points="237.9,-25.41 227.31,-25.12 235.41,-31.95 237.9,-25.41"/>
</g>
<!-- Node25 -->
<g id="node25" class="node">
<title>Node25</title>
<g id="a_node25"><a xlink:title=" ">
<polygon fill="none" stroke="#bfbfbf" points="1108,-6 1108,-25 1241,-25 1241,-6 1108,-6"/>
<text text-anchor="middle" x="1174.5" y="-13" font-family="Helvetica,sans-Serif" font-size="10.00">boost/mpl/bool_fwd.hpp</text>
</a>
</g>
</g>
<!-- Node24&#45;&gt;Node25 -->
<g id="edge28" class="edge">
<title>Node24&#45;&gt;Node25</title>
<path fill="none" stroke="midnightblue" d="M780.46,-72.99C790.84,-70.87 802.07,-68.72 812.5,-67 938.91,-46.17 971.96,-51.01 1098.5,-31 1106.24,-29.78 1114.41,-28.36 1122.39,-26.89"/>
<polygon fill="midnightblue" stroke="midnightblue" points="1123.19,-30.31 1132.37,-25.03 1121.9,-23.42 1123.19,-30.31"/>
</g>
<!-- Node26 -->
<g id="node26" class="node">
<title>Node26</title>
<g id="a_node26"><a xlink:title=" ">
<polygon fill="none" stroke="#bfbfbf" points="1259.5,-6 1259.5,-25 1383.5,-25 1383.5,-6 1259.5,-6"/>
<text text-anchor="middle" x="1321.5" y="-13" font-family="Helvetica,sans-Serif" font-size="10.00">boost/mpl/greater.hpp</text>
</a>
</g>
</g>
<!-- Node24&#45;&gt;Node26 -->
<g id="edge29" class="edge">
<title>Node24&#45;&gt;Node26</title>
<path fill="none" stroke="midnightblue" d="M778.94,-72.98C789.73,-70.77 801.54,-68.56 812.5,-67 1005.42,-39.45 1056.54,-58.28 1249.5,-31 1257.31,-29.9 1265.55,-28.48 1273.56,-26.96"/>
<polygon fill="midnightblue" stroke="midnightblue" points="1274.39,-30.37 1283.53,-25.01 1273.04,-23.5 1274.39,-30.37"/>
</g>
<!-- Node27 -->
<g id="node27" class="node">
<title>Node27</title>
<g id="a_node27"><a xlink:title=" ">
<polygon fill="none" stroke="#bfbfbf" points="313.5,-6 313.5,-25 415.5,-25 415.5,-6 313.5,-6"/>
<text text-anchor="middle" x="364.5" y="-13" font-family="Helvetica,sans-Serif" font-size="10.00">boost/mpl/int.hpp</text>
</a>
</g>
</g>
<!-- Node24&#45;&gt;Node27 -->
<g id="edge30" class="edge">
<title>Node24&#45;&gt;Node27</title>
<path fill="none" stroke="midnightblue" d="M701.21,-72.99C690.89,-70.92 679.8,-68.79 669.5,-67 561.07,-48.13 532.55,-51.95 424.5,-31 418.98,-29.93 413.2,-28.69 407.49,-27.39"/>
<polygon fill="midnightblue" stroke="midnightblue" points="407.93,-23.9 397.39,-25.02 406.33,-30.71 407.93,-23.9"/>
</g>
<!-- Node28 -->
<g id="node28" class="node">
<title>Node28</title>
<g id="a_node28"><a xlink:title=" ">
<polygon fill="none" stroke="#bfbfbf" points="433.5,-0.5 433.5,-30.5 539.5,-30.5 539.5,-0.5 433.5,-0.5"/>
<text text-anchor="start" x="441.5" y="-18.5" font-family="Helvetica,sans-Serif" font-size="10.00">boost/mpl/integral</text>
<text text-anchor="middle" x="486.5" y="-7.5" font-family="Helvetica,sans-Serif" font-size="10.00">_c_tag.hpp</text>
</a>
</g>
</g>
<!-- Node24&#45;&gt;Node28 -->
<g id="edge31" class="edge">
<title>Node24&#45;&gt;Node28</title>
<path fill="none" stroke="midnightblue" d="M707.9,-72.94C667.71,-62.69 599.58,-45.32 549.49,-32.56"/>
<polygon fill="midnightblue" stroke="midnightblue" points="550.28,-29.15 539.73,-30.07 548.55,-35.93 550.28,-29.15"/>
</g>
<!-- Node29 -->
<g id="node29" class="node">
<title>Node29</title>
<g id="a_node29"><a xlink:title=" ">
<polygon fill="none" stroke="#bfbfbf" points="558,-0.5 558,-30.5 709,-30.5 709,-0.5 558,-0.5"/>
<text text-anchor="start" x="566" y="-18.5" font-family="Helvetica,sans-Serif" font-size="10.00">boost/serialization</text>
<text text-anchor="middle" x="633.5" y="-7.5" font-family="Helvetica,sans-Serif" font-size="10.00">/is_bitwise_serializable.hpp</text>
</a>
</g>
</g>
<!-- Node24&#45;&gt;Node29 -->
<g id="edge32" class="edge">
<title>Node24&#45;&gt;Node29</title>
<path fill="none" stroke="midnightblue" d="M726.93,-72.73C711.29,-63.32 685.92,-48.05 665.57,-35.8"/>
<polygon fill="midnightblue" stroke="midnightblue" points="667.28,-32.75 656.91,-30.59 663.67,-38.74 667.28,-32.75"/>
</g>
<!-- Node30 -->
<g id="node30" class="node">
<title>Node30</title>
<g id="a_node30"><a xlink:title=" ">
<polygon fill="none" stroke="#bfbfbf" points="727,-0.5 727,-30.5 834,-30.5 834,-0.5 727,-0.5"/>
<text text-anchor="start" x="735" y="-18.5" font-family="Helvetica,sans-Serif" font-size="10.00">boost/serialization</text>
<text text-anchor="middle" x="780.5" y="-7.5" font-family="Helvetica,sans-Serif" font-size="10.00">/level.hpp</text>
</a>
</g>
</g>
<!-- Node24&#45;&gt;Node30 -->
<g id="edge33" class="edge">
<title>Node24&#45;&gt;Node30</title>
<path fill="none" stroke="midnightblue" d="M746.76,-72.73C751.88,-64.2 759.88,-50.87 766.8,-39.33"/>
<polygon fill="midnightblue" stroke="midnightblue" points="769.9,-40.96 772.05,-30.59 763.9,-37.36 769.9,-40.96"/>
</g>
<!-- Node31 -->
<g id="node31" class="node">
<title>Node31</title>
<g id="a_node31"><a xlink:title=" ">
<polygon fill="none" stroke="#bfbfbf" points="852,-0.5 852,-30.5 959,-30.5 959,-0.5 852,-0.5"/>
<text text-anchor="start" x="860" y="-18.5" font-family="Helvetica,sans-Serif" font-size="10.00">boost/serialization</text>
<text text-anchor="middle" x="905.5" y="-7.5" font-family="Helvetica,sans-Serif" font-size="10.00">/tracking.hpp</text>
</a>
</g>
</g>
<!-- Node24&#45;&gt;Node31 -->
<g id="edge34" class="edge">
<title>Node24&#45;&gt;Node31</title>
<path fill="none" stroke="midnightblue" d="M763.28,-72.87C787.99,-63.07 828.98,-46.83 860.62,-34.29"/>
<polygon fill="midnightblue" stroke="midnightblue" points="862.1,-37.47 870.11,-30.53 859.52,-30.96 862.1,-37.47"/>
</g>
<!-- Node32 -->
<g id="node32" class="node">
<title>Node32</title>
<g id="a_node32"><a xlink:title=" ">
<polygon fill="none" stroke="#bfbfbf" points="977,-0.5 977,-30.5 1090,-30.5 1090,-0.5 977,-0.5"/>
<text text-anchor="start" x="985" y="-18.5" font-family="Helvetica,sans-Serif" font-size="10.00">boost/serialization</text>
<text text-anchor="middle" x="1033.5" y="-7.5" font-family="Helvetica,sans-Serif" font-size="10.00">/tracking_enum.hpp</text>
</a>
</g>
</g>
<!-- Node24&#45;&gt;Node32 -->
<g id="edge35" class="edge">
<title>Node24&#45;&gt;Node32</title>
<path fill="none" stroke="midnightblue" d="M779.97,-72.94C827.55,-62.34 909.32,-44.14 967.11,-31.28"/>
<polygon fill="midnightblue" stroke="midnightblue" points="967.89,-34.69 976.89,-29.1 966.37,-27.86 967.89,-34.69"/>
</g>
<!-- Node38&#45;&gt;Node21 -->
<g id="edge54" class="edge">
<title>Node38&#45;&gt;Node21</title>
<path fill="none" stroke="midnightblue" d="M1684.15,-201.31C1688,-180.99 1697.67,-130.05 1702.94,-102.28"/>
<polygon fill="midnightblue" stroke="midnightblue" points="1706.41,-102.73 1704.84,-92.26 1699.54,-101.43 1706.41,-102.73"/>
</g>
<!-- Node38&#45;&gt;Node37 -->
<g id="edge55" class="edge">
<title>Node38&#45;&gt;Node37</title>
<path fill="none" stroke="midnightblue" d="M1676.91,-201.48C1671.12,-192.64 1661.91,-178.59 1654.63,-167.48"/>
<polygon fill="midnightblue" stroke="midnightblue" points="1657.49,-165.45 1649.08,-159.01 1651.63,-169.29 1657.49,-165.45"/>
</g>
<!-- Node40&#45;&gt;Node21 -->
<g id="edge63" class="edge">
<title>Node40&#45;&gt;Node21</title>
<path fill="none" stroke="midnightblue" d="M1774.09,-329.98C1772.86,-308.16 1768.5,-248.66 1755.5,-201 1745.47,-164.2 1726.69,-123.62 1715.52,-101.08"/>
<polygon fill="midnightblue" stroke="midnightblue" points="1718.61,-99.43 1710.99,-92.07 1712.36,-102.58 1718.61,-99.43"/>
</g>
<!-- Node41 -->
<g id="node41" class="node">
<title>Node41</title>
<g id="a_node41"><a xlink:title=" ">
<polygon fill="none" stroke="#bfbfbf" points="1802.5,-257.5 1802.5,-287.5 1924.5,-287.5 1924.5,-257.5 1802.5,-257.5"/>
<text text-anchor="start" x="1810.5" y="-275.5" font-family="Helvetica,sans-Serif" font-size="10.00">boost/math/constants</text>
<text text-anchor="middle" x="1863.5" y="-264.5" font-family="Helvetica,sans-Serif" font-size="10.00">/constants.hpp</text>
</a>
</g>
</g>
<!-- Node40&#45;&gt;Node41 -->
<g id="edge64" class="edge">
<title>Node40&#45;&gt;Node41</title>
<path fill="none" stroke="midnightblue" d="M1786.5,-329.73C1799.11,-320.53 1819.37,-305.73 1835.94,-293.63"/>
<polygon fill="midnightblue" stroke="midnightblue" points="1838.2,-296.31 1844.21,-287.59 1834.07,-290.66 1838.2,-296.31"/>
</g>
<!-- Node42&#45;&gt;Node21 -->
<g id="edge67" class="edge">
<title>Node42&#45;&gt;Node21</title>
<path fill="none" stroke="midnightblue" d="M1929.21,-329.87C1935.27,-314.38 1945.47,-281.22 1933.5,-257 1892.2,-173.45 1789.24,-119.08 1737.38,-96.07"/>
<polygon fill="midnightblue" stroke="midnightblue" points="1738.59,-92.78 1728.02,-92.01 1735.81,-99.2 1738.59,-92.78"/>
</g>
</g>
</svg>
