<?xml version="1.0" encoding="UTF-8" standalone="no"?>
<!DOCTYPE svg PUBLIC "-//W3C//DTD SVG 1.1//EN"
 "http://www.w3.org/Graphics/SVG/1.1/DTD/svg11.dtd">
<!-- Generated by graphviz version 2.43.0 (0)
 -->
<!-- Title: LocalBox.hpp Pages: 1 -->
<!--zoomable 280 -->

<svg id="main" version="1.1" xmlns="http://www.w3.org/2000/svg" xmlns:xlink="http://www.w3.org/1999/xlink" xml:space="preserve" onload="init(evt)">
<style type="text/css"><![CDATA[
.node, .edge {opacity: 0.7;}
.node.selected, .edge.selected {opacity: 1;}
.edge:hover path { stroke: red; }
.edge:hover polygon { stroke: red; fill: red; }
]]></style>

<defs>
  <circle id="rim" cx="0" cy="0" r="7"/>
  <circle id="rim2" cx="0" cy="0" r="3.5"/>
  <g id="zoomPlus">
    <use xlink:href="#rim" fill="#404040"><set attributeName="fill" to="#808080" begin="zoomplus.mouseover" end="zoomplus.mouseout"/></use>
    <path d="M-4,0h8M0,-4v8" fill="none" stroke="white" stroke-width="1.5" pointer-events="none"/>
  </g>
  <g id="zoomMin">
    <use xlink:href="#rim" fill="#404040"><set attributeName="fill" to="#808080" begin="zoomminus.mouseover" end="zoomminus.mouseout"/></use>
    <path d="M-4,0h8" fill="none" stroke="white" stroke-width="1.5" pointer-events="none"/>
  </g>
  <g id="arrowUp" transform="translate(30 24)">
    <use xlink:href="#rim"/>
    <path pointer-events="none" fill="none" stroke="white" stroke-width="1.5" d="M0,-3.0v7 M-2.5,-0.5L0,-3.0L2.5,-0.5"/>
  </g>
  <g id="arrowRight" transform="rotate(90) translate(36 -43)">
    <use xlink:href="#rim"/>
    <path pointer-events="none" fill="none" stroke="white" stroke-width="1.5" d="M0,-3.0v7 M-2.5,-0.5L0,-3.0L2.5,-0.5"/>
  </g>
  <g id="arrowDown" transform="rotate(180) translate(-30 -48)">
    <use xlink:href="#rim"/>
    <path pointer-events="none" fill="none" stroke="white" stroke-width="1.5" d="M0,-3.0v7 M-2.5,-0.5L0,-3.0L2.5,-0.5"/>
  </g>
  <g id="arrowLeft" transform="rotate(270) translate(-36 17)">
    <use xlink:href="#rim"/>
    <path pointer-events="none" fill="none" stroke="white" stroke-width="1.5" d="M0,-3.0v7 M-2.5,-0.5L0,-3.0L2.5,-0.5"/>
  </g>
  <g id="resetDef">
    <use xlink:href="#rim2" fill="#404040"><set attributeName="fill" to="#808080" begin="reset.mouseover" end="reset.mouseout"/></use>
  </g>
</defs>
<script type="application/ecmascript">
var viewWidth = 1738;
var viewHeight = 280;
var sectionId = 'dynsection-0';
</script>
<script type="application/ecmascript" xlink:href="svg.min.js"/>
<svg id="graph" class="graph">
<g id="viewport">
<title>LocalBox.hpp</title>
<!-- Node1 -->
<g id="Node000001" class="node">
<title>Node1</title>
<g id="a_Node000001"><a xlink:title=" ">
<polygon fill="#999999" stroke="#666666" points="873,-272 791,-272 791,-253 873,-253 873,-272"/>
<text text-anchor="middle" x="832" y="-260" font-family="Helvetica,sans-Serif" font-size="10.00">LocalBox.hpp</text>
</a>
</g>
</g>
<!-- Node2 -->
<g id="Node000002" class="node">
<title>Node2</title>
<g id="a_Node000002"><a xlink:href="CellStructureType_8hpp.html" target="_top" xlink:title=" ">
<polygon fill="white" stroke="#666666" points="803.5,-217 662.5,-217 662.5,-187 803.5,-187 803.5,-217"/>
<text text-anchor="start" x="670.5" y="-205" font-family="Helvetica,sans-Serif" font-size="10.00">cell_system/CellStructure</text>
<text text-anchor="middle" x="733" y="-194" font-family="Helvetica,sans-Serif" font-size="10.00">Type.hpp</text>
</a>
</g>
</g>
<!-- Node1&#45;&gt;Node2 -->
<g id="edge1_Node000001_Node000002" class="edge">
<title>Node1&#45;&gt;Node2</title>
<g id="a_edge1_Node000001_Node000002"><a xlink:title=" ">
<path fill="none" stroke="#63b8ff" d="M817.39,-252.87C803.83,-244.86 783.17,-232.65 765.69,-222.31"/>
<polygon fill="#63b8ff" stroke="#63b8ff" points="767.28,-219.19 756.89,-217.11 763.71,-225.22 767.28,-219.19"/>
</a>
</g>
</g>
<!-- Node3 -->
<g id="Node000003" class="node">
<title>Node3</title>
<g id="a_Node000003"><a xlink:href="Array_8hpp.html" target="_top" xlink:title="Array implementation with CUDA support.">
<polygon fill="white" stroke="#666666" points="589,-151 503,-151 503,-132 589,-132 589,-151"/>
<text text-anchor="middle" x="546" y="-139" font-family="Helvetica,sans-Serif" font-size="10.00">utils/Array.hpp</text>
</a>
</g>
</g>
<!-- Node1&#45;&gt;Node3 -->
<g id="edge2_Node000001_Node000003" class="edge">
<title>Node1&#45;&gt;Node3</title>
<g id="a_edge2_Node000001_Node000003"><a xlink:title=" ">
<path fill="none" stroke="#63b8ff" d="M832.45,-252.86C832.75,-237.2 830.94,-204.19 812,-187 811.01,-186.1 676.52,-163.91 599.18,-151.22"/>
<polygon fill="#63b8ff" stroke="#63b8ff" points="599.56,-147.73 589.13,-149.56 598.43,-154.64 599.56,-147.73"/>
</a>
</g>
</g>
<!-- Node23 -->
<g id="Node000023" class="node">
<title>Node23</title>
<g id="a_Node000023"><a xlink:href="Vector_8hpp.html" target="_top" xlink:title="Vector implementation and trait types for boost qvm interoperability.">
<polygon fill="white" stroke="#666666" points="1284,-211.5 1192,-211.5 1192,-192.5 1284,-192.5 1284,-211.5"/>
<text text-anchor="middle" x="1238" y="-199.5" font-family="Helvetica,sans-Serif" font-size="10.00">utils/Vector.hpp</text>
</a>
</g>
</g>
<!-- Node1&#45;&gt;Node23 -->
<g id="edge26_Node000001_Node000023" class="edge">
<title>Node1&#45;&gt;Node23</title>
<g id="a_edge26_Node000001_Node000023"><a xlink:title=" ">
<path fill="none" stroke="#63b8ff" d="M873.16,-255.57C946.32,-245.03 1099.03,-223.02 1181.79,-211.1"/>
<polygon fill="#63b8ff" stroke="#63b8ff" points="1182.37,-214.55 1191.77,-209.66 1181.37,-207.62 1182.37,-214.55"/>
</a>
</g>
</g>
<!-- Node4 -->
<g id="Node000004" class="node">
<title>Node4</title>
<g id="a_Node000004"><a xlink:href="device__qualifier_8hpp.html" target="_top" xlink:title=" ">
<polygon fill="white" stroke="#666666" points="268,-90.5 154,-90.5 154,-71.5 268,-71.5 268,-90.5"/>
<text text-anchor="middle" x="211" y="-78.5" font-family="Helvetica,sans-Serif" font-size="10.00">device_qualifier.hpp</text>
</a>
</g>
</g>
<!-- Node3&#45;&gt;Node4 -->
<g id="edge3_Node000003_Node000004" class="edge">
<title>Node3&#45;&gt;Node4</title>
<g id="a_edge3_Node000003_Node000004"><a xlink:title=" ">
<path fill="none" stroke="#63b8ff" d="M502.89,-132.97C443.56,-122.61 336.51,-103.92 269.85,-92.28"/>
<polygon fill="#63b8ff" stroke="#63b8ff" points="270.37,-88.81 259.92,-90.54 269.17,-95.71 270.37,-88.81"/>
</a>
</g>
</g>
<!-- Node5 -->
<g id="Node000005" class="node">
<title>Node5</title>
<g id="a_Node000005"><a xlink:title=" ">
<polygon fill="#e0e0e0" stroke="#999999" points="52,-24.5 0,-24.5 0,-5.5 52,-5.5 52,-24.5"/>
<text text-anchor="middle" x="26" y="-12.5" font-family="Helvetica,sans-Serif" font-size="10.00">cassert</text>
</a>
</g>
</g>
<!-- Node3&#45;&gt;Node5 -->
<g id="edge19_Node000003_Node000005" class="edge">
<title>Node3&#45;&gt;Node5</title>
<g id="a_edge19_Node000003_Node000005"><a xlink:title=" ">
<path fill="none" stroke="#63b8ff" d="M531.1,-131.9C516.34,-123.23 493.22,-109.28 474,-96 456.01,-83.57 455.34,-74.03 435,-66 279.66,-4.71 223.27,-69.41 61,-30 58.69,-29.44 56.34,-28.76 53.99,-28"/>
<polygon fill="#63b8ff" stroke="#63b8ff" points="55.16,-24.7 44.57,-24.56 52.77,-31.28 55.16,-24.7"/>
</a>
</g>
</g>
<!-- Node6 -->
<g id="Node000006" class="node">
<title>Node6</title>
<g id="a_Node000006"><a xlink:href="get_8hpp.html" target="_top" xlink:title=" ">
<polygon fill="white" stroke="#666666" points="1210.5,-90.5 1157.5,-90.5 1157.5,-71.5 1210.5,-71.5 1210.5,-90.5"/>
<text text-anchor="middle" x="1184" y="-78.5" font-family="Helvetica,sans-Serif" font-size="10.00">get.hpp</text>
</a>
</g>
</g>
<!-- Node3&#45;&gt;Node6 -->
<g id="edge5_Node000003_Node000006" class="edge">
<title>Node3&#45;&gt;Node6</title>
<g id="a_edge5_Node000003_Node000006"><a xlink:title=" ">
<path fill="none" stroke="#63b8ff" d="M589.09,-133.19C592.1,-132.76 595.1,-132.36 598,-132 652.34,-125.25 1027.11,-94.7 1147.12,-84.98"/>
<polygon fill="#63b8ff" stroke="#63b8ff" points="1147.59,-88.45 1157.27,-84.16 1147.02,-81.48 1147.59,-88.45"/>
</a>
</g>
</g>
<!-- Node7 -->
<g id="Node000007" class="node">
<title>Node7</title>
<g id="a_Node000007"><a xlink:title=" ">
<polygon fill="#e0e0e0" stroke="#999999" points="1274.5,-24.5 1221.5,-24.5 1221.5,-5.5 1274.5,-5.5 1274.5,-24.5"/>
<text text-anchor="middle" x="1248" y="-12.5" font-family="Helvetica,sans-Serif" font-size="10.00">cstddef</text>
</a>
</g>
</g>
<!-- Node3&#45;&gt;Node7 -->
<g id="edge20_Node000003_Node000007" class="edge">
<title>Node3&#45;&gt;Node7</title>
<g id="a_edge20_Node000003_Node000007"><a xlink:title=" ">
<path fill="none" stroke="#63b8ff" d="M589.08,-133.1C592.1,-132.7 595.09,-132.32 598,-132 666.7,-124.41 1163.58,-137.3 1219,-96 1238.22,-81.68 1244.73,-53.38 1246.91,-34.57"/>
<polygon fill="#63b8ff" stroke="#63b8ff" points="1250.41,-34.79 1247.78,-24.53 1243.43,-34.19 1250.41,-34.79"/>
</a>
</g>
</g>
<!-- Node8 -->
<g id="Node000008" class="node">
<title>Node8</title>
<g id="a_Node000008"><a xlink:title=" ">
<polygon fill="#e0e0e0" stroke="#999999" points="1203.5,-24.5 1158.5,-24.5 1158.5,-5.5 1203.5,-5.5 1203.5,-24.5"/>
<text text-anchor="middle" x="1181" y="-12.5" font-family="Helvetica,sans-Serif" font-size="10.00">utility</text>
</a>
</g>
</g>
<!-- Node3&#45;&gt;Node8 -->
<g id="edge25_Node000003_Node000008" class="edge">
<title>Node3&#45;&gt;Node8</title>
<g id="a_edge25_Node000003_Node000008"><a xlink:title=" ">
<path fill="none" stroke="#63b8ff" d="M589.12,-133.41C592.13,-132.93 595.11,-132.46 598,-132 844,-93.13 911.78,-105.85 1149,-30 1150.63,-29.48 1152.29,-28.9 1153.95,-28.29"/>
<polygon fill="#63b8ff" stroke="#63b8ff" points="1155.35,-31.5 1163.31,-24.51 1152.73,-25.01 1155.35,-31.5"/>
</a>
</g>
</g>
<!-- Node9 -->
<g id="Node000009" class="node">
<title>Node9</title>
<g id="a_Node000009"><a xlink:href="array_8hpp.html" target="_top" xlink:title=" ">
<polygon fill="white" stroke="#666666" points="608.5,-90.5 483.5,-90.5 483.5,-71.5 608.5,-71.5 608.5,-90.5"/>
<text text-anchor="middle" x="546" y="-78.5" font-family="Helvetica,sans-Serif" font-size="10.00">serialization/array.hpp</text>
</a>
</g>
</g>
<!-- Node3&#45;&gt;Node9 -->
<g id="edge8_Node000003_Node000009" class="edge">
<title>Node3&#45;&gt;Node9</title>
<g id="a_edge8_Node000003_Node000009"><a xlink:title=" ">
<path fill="none" stroke="#63b8ff" d="M546,-131.87C546,-123.75 546,-111.31 546,-100.89"/>
<polygon fill="#63b8ff" stroke="#63b8ff" points="549.5,-100.67 546,-90.67 542.5,-100.67 549.5,-100.67"/>
</a>
</g>
</g>
<!-- Node18 -->
<g id="Node000018" class="node">
<title>Node18</title>
<g id="a_Node000018"><a xlink:title=" ">
<polygon fill="#e0e0e0" stroke="#999999" points="426.5,-96 319.5,-96 319.5,-66 426.5,-66 426.5,-96"/>
<text text-anchor="start" x="327.5" y="-84" font-family="Helvetica,sans-Serif" font-size="10.00">boost/serialization</text>
<text text-anchor="middle" x="373" y="-73" font-family="Helvetica,sans-Serif" font-size="10.00">/access.hpp</text>
</a>
</g>
</g>
<!-- Node3&#45;&gt;Node18 -->
<g id="edge18_Node000003_Node000018" class="edge">
<title>Node3&#45;&gt;Node18</title>
<g id="a_edge18_Node000003_Node000018"><a xlink:title=" ">
<path fill="none" stroke="#63b8ff" d="M520.84,-131.99C495.62,-123.46 456.06,-110.09 424.21,-99.32"/>
<polygon fill="#63b8ff" stroke="#63b8ff" points="425.19,-95.95 414.59,-96.06 422.94,-102.58 425.19,-95.95"/>
</a>
</g>
</g>
<!-- Node19 -->
<g id="Node000019" class="node">
<title>Node19</title>
<g id="a_Node000019"><a xlink:title=" ">
<polygon fill="#e0e0e0" stroke="#999999" points="1542.5,-90.5 1489.5,-90.5 1489.5,-71.5 1542.5,-71.5 1542.5,-90.5"/>
<text text-anchor="middle" x="1516" y="-78.5" font-family="Helvetica,sans-Serif" font-size="10.00">iterator</text>
</a>
</g>
</g>
<!-- Node3&#45;&gt;Node19 -->
<g id="edge21_Node000003_Node000019" class="edge">
<title>Node3&#45;&gt;Node19</title>
<g id="a_edge21_Node000003_Node000019"><a xlink:title=" ">
<path fill="none" stroke="#63b8ff" d="M589.08,-133.09C592.09,-132.69 595.09,-132.32 598,-132 603.58,-131.39 1308.72,-93.22 1479.21,-83.99"/>
<polygon fill="#63b8ff" stroke="#63b8ff" points="1479.41,-87.49 1489.2,-83.45 1479.03,-80.5 1479.41,-87.49"/>
</a>
</g>
</g>
<!-- Node20 -->
<g id="Node000020" class="node">
<title>Node20</title>
<g id="a_Node000020"><a xlink:title=" ">
<polygon fill="#e0e0e0" stroke="#999999" points="683.5,-90.5 626.5,-90.5 626.5,-71.5 683.5,-71.5 683.5,-90.5"/>
<text text-anchor="middle" x="655" y="-78.5" font-family="Helvetica,sans-Serif" font-size="10.00">ostream</text>
</a>
</g>
</g>
<!-- Node3&#45;&gt;Node20 -->
<g id="edge22_Node000003_Node000020" class="edge">
<title>Node3&#45;&gt;Node20</title>
<g id="a_edge22_Node000003_Node000020"><a xlink:title=" ">
<path fill="none" stroke="#63b8ff" d="M562.08,-131.87C579.95,-122.28 609.04,-106.67 629.91,-95.47"/>
<polygon fill="#63b8ff" stroke="#63b8ff" points="631.69,-98.48 638.85,-90.67 628.38,-92.31 631.69,-98.48"/>
</a>
</g>
</g>
<!-- Node21 -->
<g id="Node000021" class="node">
<title>Node21</title>
<g id="a_Node000021"><a xlink:title=" ">
<polygon fill="#e0e0e0" stroke="#999999" points="766.5,-90.5 701.5,-90.5 701.5,-71.5 766.5,-71.5 766.5,-90.5"/>
<text text-anchor="middle" x="734" y="-78.5" font-family="Helvetica,sans-Serif" font-size="10.00">stdexcept</text>
</a>
</g>
</g>
<!-- Node3&#45;&gt;Node21 -->
<g id="edge23_Node000003_Node000021" class="edge">
<title>Node3&#45;&gt;Node21</title>
<g id="a_edge23_Node000003_Node000021"><a xlink:title=" ">
<path fill="none" stroke="#63b8ff" d="M574.88,-131.94C604.38,-123.14 651.48,-108.93 692,-96 694.29,-95.27 696.64,-94.51 699.01,-93.74"/>
<polygon fill="#63b8ff" stroke="#63b8ff" points="700.31,-97 708.72,-90.55 698.12,-90.35 700.31,-97"/>
</a>
</g>
</g>
<!-- Node22 -->
<g id="Node000022" class="node">
<title>Node22</title>
<g id="a_Node000022"><a xlink:title=" ">
<polygon fill="#e0e0e0" stroke="#999999" points="825.5,-90.5 784.5,-90.5 784.5,-71.5 825.5,-71.5 825.5,-90.5"/>
<text text-anchor="middle" x="805" y="-78.5" font-family="Helvetica,sans-Serif" font-size="10.00">tuple</text>
</a>
</g>
</g>
<!-- Node3&#45;&gt;Node22 -->
<g id="edge24_Node000003_Node000022" class="edge">
<title>Node3&#45;&gt;Node22</title>
<g id="a_edge24_Node000003_Node000022"><a xlink:title=" ">
<path fill="none" stroke="#63b8ff" d="M589.18,-133.41C645.58,-123.92 741.11,-107.02 775,-96 776.4,-95.54 777.82,-95.04 779.24,-94.5"/>
<polygon fill="#63b8ff" stroke="#63b8ff" points="780.63,-97.71 788.47,-90.59 777.9,-91.27 780.63,-97.71"/>
</a>
</g>
</g>
<!-- Node4&#45;&gt;Node5 -->
<g id="edge4_Node000004_Node000005" class="edge">
<title>Node4&#45;&gt;Node5</title>
<g id="a_edge4_Node000004_Node000005"><a xlink:title=" ">
<path fill="none" stroke="#63b8ff" d="M183.74,-71.44C153.55,-61.85 103.53,-45.58 61,-30 59.58,-29.48 58.13,-28.94 56.67,-28.39"/>
<polygon fill="#63b8ff" stroke="#63b8ff" points="57.61,-25 47.02,-24.64 55.08,-31.52 57.61,-25"/>
</a>
</g>
</g>
<!-- Node6&#45;&gt;Node7 -->
<g id="edge6_Node000006_Node000007" class="edge">
<title>Node6&#45;&gt;Node7</title>
<g id="a_edge6_Node000006_Node000007"><a xlink:title=" ">
<path fill="none" stroke="#63b8ff" d="M1192.63,-71.37C1202.69,-61.31 1219.52,-44.48 1231.99,-32.01"/>
<polygon fill="#63b8ff" stroke="#63b8ff" points="1234.5,-34.45 1239.09,-24.91 1229.55,-29.5 1234.5,-34.45"/>
</a>
</g>
</g>
<!-- Node6&#45;&gt;Node8 -->
<g id="edge7_Node000006_Node000008" class="edge">
<title>Node6&#45;&gt;Node8</title>
<g id="a_edge7_Node000006_Node000008"><a xlink:title=" ">
<path fill="none" stroke="#63b8ff" d="M1183.6,-71.37C1183.16,-62.07 1182.45,-46.98 1181.89,-34.9"/>
<polygon fill="#63b8ff" stroke="#63b8ff" points="1185.38,-34.73 1181.42,-24.91 1178.39,-35.06 1185.38,-34.73"/>
</a>
</g>
</g>
<!-- Node9&#45;&gt;Node7 -->
<g id="edge17_Node000009_Node000007" class="edge">
<title>Node9&#45;&gt;Node7</title>
<g id="a_edge17_Node000009_Node000007"><a xlink:title=" ">
<path fill="none" stroke="#63b8ff" d="M584.17,-71.5C594.75,-69.41 606.28,-67.37 617,-66 879.78,-32.3 953.21,-86.69 1212,-30 1214.52,-29.45 1217.1,-28.74 1219.66,-27.95"/>
<polygon fill="#63b8ff" stroke="#63b8ff" points="1221.03,-31.18 1229.28,-24.54 1218.69,-24.58 1221.03,-31.18"/>
</a>
</g>
</g>
<!-- Node10 -->
<g id="Node000010" class="node">
<title>Node10</title>
<g id="a_Node000010"><a xlink:title=" ">
<polygon fill="#e0e0e0" stroke="#999999" points="334.5,-24.5 201.5,-24.5 201.5,-5.5 334.5,-5.5 334.5,-24.5"/>
<text text-anchor="middle" x="268" y="-12.5" font-family="Helvetica,sans-Serif" font-size="10.00">boost/mpl/bool_fwd.hpp</text>
</a>
</g>
</g>
<!-- Node9&#45;&gt;Node10 -->
<g id="edge9_Node000009_Node000010" class="edge">
<title>Node9&#45;&gt;Node10</title>
<g id="a_edge9_Node000009_Node000010"><a xlink:title=" ">
<path fill="none" stroke="#63b8ff" d="M508.8,-71.44C458.65,-59.89 369.39,-39.34 314.76,-26.77"/>
<polygon fill="#63b8ff" stroke="#63b8ff" points="315.51,-23.35 304.98,-24.51 313.94,-30.17 315.51,-23.35"/>
</a>
</g>
</g>
<!-- Node11 -->
<g id="Node000011" class="node">
<title>Node11</title>
<g id="a_Node000011"><a xlink:title=" ">
<polygon fill="#e0e0e0" stroke="#999999" points="477,-24.5 353,-24.5 353,-5.5 477,-5.5 477,-24.5"/>
<text text-anchor="middle" x="415" y="-12.5" font-family="Helvetica,sans-Serif" font-size="10.00">boost/mpl/greater.hpp</text>
</a>
</g>
</g>
<!-- Node9&#45;&gt;Node11 -->
<g id="edge10_Node000009_Node000011" class="edge">
<title>Node9&#45;&gt;Node11</title>
<g id="a_edge10_Node000009_Node000011"><a xlink:title=" ">
<path fill="none" stroke="#63b8ff" d="M528.33,-71.37C506.16,-60.54 467.92,-41.85 442.05,-29.22"/>
<polygon fill="#63b8ff" stroke="#63b8ff" points="443.33,-25.94 432.81,-24.7 440.25,-32.23 443.33,-25.94"/>
</a>
</g>
</g>
<!-- Node12 -->
<g id="Node000012" class="node">
<title>Node12</title>
<g id="a_Node000012"><a xlink:title=" ">
<polygon fill="#e0e0e0" stroke="#999999" points="597,-24.5 495,-24.5 495,-5.5 597,-5.5 597,-24.5"/>
<text text-anchor="middle" x="546" y="-12.5" font-family="Helvetica,sans-Serif" font-size="10.00">boost/mpl/int.hpp</text>
</a>
</g>
</g>
<!-- Node9&#45;&gt;Node12 -->
<g id="edge11_Node000009_Node000012" class="edge">
<title>Node9&#45;&gt;Node12</title>
<g id="a_edge11_Node000009_Node000012"><a xlink:title=" ">
<path fill="none" stroke="#63b8ff" d="M546,-71.37C546,-62.16 546,-47.29 546,-35.27"/>
<polygon fill="#63b8ff" stroke="#63b8ff" points="549.5,-34.91 546,-24.91 542.5,-34.91 549.5,-34.91"/>
</a>
</g>
</g>
<!-- Node13 -->
<g id="Node000013" class="node">
<title>Node13</title>
<g id="a_Node000013"><a xlink:title=" ">
<polygon fill="#e0e0e0" stroke="#999999" points="721,-30 615,-30 615,0 721,0 721,-30"/>
<text text-anchor="start" x="623" y="-18" font-family="Helvetica,sans-Serif" font-size="10.00">boost/mpl/integral</text>
<text text-anchor="middle" x="668" y="-7" font-family="Helvetica,sans-Serif" font-size="10.00">_c_tag.hpp</text>
</a>
</g>
</g>
<!-- Node9&#45;&gt;Node13 -->
<g id="edge12_Node000009_Node000013" class="edge">
<title>Node9&#45;&gt;Node13</title>
<g id="a_edge12_Node000009_Node000013"><a xlink:title=" ">
<path fill="none" stroke="#63b8ff" d="M562.45,-71.37C580.17,-62.07 608.92,-46.99 631.95,-34.91"/>
<polygon fill="#63b8ff" stroke="#63b8ff" points="633.86,-37.86 641.09,-30.12 630.61,-31.66 633.86,-37.86"/>
</a>
</g>
</g>
<!-- Node14 -->
<g id="Node000014" class="node">
<title>Node14</title>
<g id="a_Node000014"><a xlink:title=" ">
<polygon fill="#e0e0e0" stroke="#999999" points="890.5,-30 739.5,-30 739.5,0 890.5,0 890.5,-30"/>
<text text-anchor="start" x="747.5" y="-18" font-family="Helvetica,sans-Serif" font-size="10.00">boost/serialization</text>
<text text-anchor="middle" x="815" y="-7" font-family="Helvetica,sans-Serif" font-size="10.00">/is_bitwise_serializable.hpp</text>
</a>
</g>
</g>
<!-- Node9&#45;&gt;Node14 -->
<g id="edge13_Node000009_Node000014" class="edge">
<title>Node9&#45;&gt;Node14</title>
<g id="a_edge13_Node000009_Node000014"><a xlink:title=" ">
<path fill="none" stroke="#63b8ff" d="M582,-71.44C623.83,-61.48 693.79,-44.84 746.16,-32.38"/>
<polygon fill="#63b8ff" stroke="#63b8ff" points="747.13,-35.74 756.05,-30.02 745.51,-28.93 747.13,-35.74"/>
</a>
</g>
</g>
<!-- Node15 -->
<g id="Node000015" class="node">
<title>Node15</title>
<g id="a_Node000015"><a xlink:title=" ">
<polygon fill="#e0e0e0" stroke="#999999" points="1015.5,-30 908.5,-30 908.5,0 1015.5,0 1015.5,-30"/>
<text text-anchor="start" x="916.5" y="-18" font-family="Helvetica,sans-Serif" font-size="10.00">boost/serialization</text>
<text text-anchor="middle" x="962" y="-7" font-family="Helvetica,sans-Serif" font-size="10.00">/level.hpp</text>
</a>
</g>
</g>
<!-- Node9&#45;&gt;Node15 -->
<g id="edge14_Node000009_Node000015" class="edge">
<title>Node9&#45;&gt;Node15</title>
<g id="a_edge14_Node000009_Node000015"><a xlink:title=" ">
<path fill="none" stroke="#63b8ff" d="M586.84,-71.46C596.69,-69.53 607.2,-67.59 617,-66 738.55,-46.28 772.81,-51.44 898.44,-29.98"/>
<polygon fill="#63b8ff" stroke="#63b8ff" points="899.19,-33.4 908.45,-28.25 898,-26.51 899.19,-33.4"/>
</a>
</g>
</g>
<!-- Node16 -->
<g id="Node000016" class="node">
<title>Node16</title>
<g id="a_Node000016"><a xlink:title=" ">
<polygon fill="#e0e0e0" stroke="#999999" points="1140.5,-30 1033.5,-30 1033.5,0 1140.5,0 1140.5,-30"/>
<text text-anchor="start" x="1041.5" y="-18" font-family="Helvetica,sans-Serif" font-size="10.00">boost/serialization</text>
<text text-anchor="middle" x="1087" y="-7" font-family="Helvetica,sans-Serif" font-size="10.00">/tracking.hpp</text>
</a>
</g>
</g>
<!-- Node9&#45;&gt;Node16 -->
<g id="edge15_Node000009_Node000016" class="edge">
<title>Node9&#45;&gt;Node16</title>
<g id="a_edge15_Node000009_Node000016"><a xlink:title=" ">
<path fill="none" stroke="#63b8ff" d="M585.31,-71.47C595.58,-69.46 606.68,-67.47 617,-66 793.53,-40.86 842.77,-57.14 1023.37,-29.94"/>
<polygon fill="#63b8ff" stroke="#63b8ff" points="1024.12,-33.37 1033.47,-28.39 1023.06,-26.45 1024.12,-33.37"/>
</a>
</g>
</g>
<!-- Node17 -->
<g id="Node000017" class="node">
<title>Node17</title>
<g id="a_Node000017"><a xlink:title=" ">
<polygon fill="#e0e0e0" stroke="#999999" points="183.5,-30 70.5,-30 70.5,0 183.5,0 183.5,-30"/>
<text text-anchor="start" x="78.5" y="-18" font-family="Helvetica,sans-Serif" font-size="10.00">boost/serialization</text>
<text text-anchor="middle" x="127" y="-7" font-family="Helvetica,sans-Serif" font-size="10.00">/tracking_enum.hpp</text>
</a>
</g>
</g>
<!-- Node9&#45;&gt;Node17 -->
<g id="edge16_Node000009_Node000017" class="edge">
<title>Node9&#45;&gt;Node17</title>
<g id="a_edge16_Node000009_Node000017"><a xlink:title=" ">
<path fill="none" stroke="#63b8ff" d="M501.28,-71.47C490.71,-69.57 479.47,-67.63 469,-66 349.57,-47.39 316.09,-50.88 193.8,-30.23"/>
<polygon fill="#63b8ff" stroke="#63b8ff" points="194.11,-26.73 183.67,-28.49 192.93,-33.63 194.11,-26.73"/>
</a>
</g>
</g>
<!-- Node23&#45;&gt;Node3 -->
<g id="edge29_Node000023_Node000003" class="edge">
<title>Node23&#45;&gt;Node3</title>
<g id="a_edge29_Node000023_Node000003"><a xlink:title=" ">
<path fill="none" stroke="#63b8ff" d="M1191.69,-198.72C1087.65,-193.31 827.35,-178.17 599.24,-151.05"/>
<polygon fill="#63b8ff" stroke="#63b8ff" points="599.44,-147.55 589.09,-149.83 598.6,-154.5 599.44,-147.55"/>
</a>
</g>
</g>
<!-- Node23&#45;&gt;Node5 -->
<g id="edge32_Node000023_Node000005" class="edge">
<title>Node23&#45;&gt;Node5</title>
<g id="a_edge32_Node000023_Node000005"><a xlink:title=" ">
<path fill="none" stroke="#63b8ff" d="M1191.75,-199.93C1009.38,-195.17 340.52,-172.76 145,-96 105.31,-80.42 65.47,-49.88 43.44,-31.37"/>
<polygon fill="#63b8ff" stroke="#63b8ff" points="45.52,-28.55 35.65,-24.7 40.97,-33.86 45.52,-28.55"/>
</a>
</g>
</g>
<!-- Node23&#45;&gt;Node6 -->
<g id="edge30_Node000023_Node000006" class="edge">
<title>Node23&#45;&gt;Node6</title>
<g id="a_edge30_Node000023_Node000006"><a xlink:title=" ">
<path fill="none" stroke="#63b8ff" d="M1284.44,-201.06C1410.03,-200.43 1743.31,-193.07 1688,-132 1672.31,-114.68 1334.95,-91.63 1221.13,-84.33"/>
<polygon fill="#63b8ff" stroke="#63b8ff" points="1221.03,-80.81 1210.83,-83.67 1220.58,-87.8 1221.03,-80.81"/>
</a>
</g>
</g>
<!-- Node23&#45;&gt;Node7 -->
<g id="edge35_Node000023_Node000007" class="edge">
<title>Node23&#45;&gt;Node7</title>
<g id="a_edge35_Node000023_Node000007"><a xlink:title=" ">
<path fill="none" stroke="#63b8ff" d="M1284.19,-199.69C1399.7,-195.93 1693.9,-183.25 1723,-151 1784.87,-82.42 1406.09,-33.65 1284.6,-19.92"/>
<polygon fill="#63b8ff" stroke="#63b8ff" points="1284.98,-16.44 1274.65,-18.81 1284.2,-23.4 1284.98,-16.44"/>
</a>
</g>
</g>
<!-- Node23&#45;&gt;Node19 -->
<g id="edge38_Node000023_Node000019" class="edge">
<title>Node23&#45;&gt;Node19</title>
<g id="a_edge38_Node000023_Node000019"><a xlink:title=" ">
<path fill="none" stroke="#63b8ff" d="M1284.12,-199.49C1396.47,-195.35 1677.17,-181.97 1705,-151 1750.1,-100.81 1619.53,-87.08 1552.72,-83.36"/>
<polygon fill="#63b8ff" stroke="#63b8ff" points="1552.75,-79.86 1542.58,-82.84 1552.39,-86.85 1552.75,-79.86"/>
</a>
</g>
</g>
<!-- Node24 -->
<g id="Node000024" class="node">
<title>Node24</title>
<g id="a_Node000024"><a xlink:title=" ">
<polygon fill="#e0e0e0" stroke="#999999" points="757,-151 607,-151 607,-132 757,-132 757,-151"/>
<text text-anchor="middle" x="682" y="-139" font-family="Helvetica,sans-Serif" font-size="10.00">boost/qvm/deduce_vec.hpp</text>
</a>
</g>
</g>
<!-- Node23&#45;&gt;Node24 -->
<g id="edge27_Node000023_Node000024" class="edge">
<title>Node23&#45;&gt;Node24</title>
<g id="a_edge27_Node000023_Node000024"><a xlink:title=" ">
<path fill="none" stroke="#63b8ff" d="M1191.55,-196.11C1098.23,-186.29 886.72,-164.04 767.63,-151.51"/>
<polygon fill="#63b8ff" stroke="#63b8ff" points="767.77,-148 757.45,-150.44 767.03,-154.97 767.77,-148"/>
</a>
</g>
</g>
<!-- Node25 -->
<g id="Node000025" class="node">
<title>Node25</title>
<g id="a_Node000025"><a xlink:title=" ">
<polygon fill="#e0e0e0" stroke="#999999" points="915,-151 775,-151 775,-132 915,-132 915,-151"/>
<text text-anchor="middle" x="845" y="-139" font-family="Helvetica,sans-Serif" font-size="10.00">boost/qvm/vec_traits.hpp</text>
</a>
</g>
</g>
<!-- Node23&#45;&gt;Node25 -->
<g id="edge28_Node000023_Node000025" class="edge">
<title>Node23&#45;&gt;Node25</title>
<g id="a_edge28_Node000023_Node000025"><a xlink:title=" ">
<path fill="none" stroke="#63b8ff" d="M1191.76,-194.12C1122.59,-183.82 991.79,-164.35 912.11,-152.49"/>
<polygon fill="#63b8ff" stroke="#63b8ff" points="912.58,-149.02 902.17,-151.01 911.55,-155.94 912.58,-149.02"/>
</a>
</g>
</g>
<!-- Node26 -->
<g id="Node000026" class="node">
<title>Node26</title>
<g id="a_Node000026"><a xlink:title=" ">
<polygon fill="#e0e0e0" stroke="#999999" points="997,-151 933,-151 933,-132 997,-132 997,-151"/>
<text text-anchor="middle" x="965" y="-139" font-family="Helvetica,sans-Serif" font-size="10.00">algorithm</text>
</a>
</g>
</g>
<!-- Node23&#45;&gt;Node26 -->
<g id="edge31_Node000023_Node000026" class="edge">
<title>Node23&#45;&gt;Node26</title>
<g id="a_edge31_Node000023_Node000026"><a xlink:title=" ">
<path fill="none" stroke="#63b8ff" d="M1198.3,-192.49C1147.28,-181.56 1059.09,-162.66 1006.99,-151.5"/>
<polygon fill="#63b8ff" stroke="#63b8ff" points="1007.58,-148.04 997.07,-149.37 1006.11,-154.89 1007.58,-148.04"/>
</a>
</g>
</g>
<!-- Node27 -->
<g id="Node000027" class="node">
<title>Node27</title>
<g id="a_Node000027"><a xlink:title=" ">
<polygon fill="#e0e0e0" stroke="#999999" points="1062.5,-151 1015.5,-151 1015.5,-132 1062.5,-132 1062.5,-151"/>
<text text-anchor="middle" x="1039" y="-139" font-family="Helvetica,sans-Serif" font-size="10.00">cmath</text>
</a>
</g>
</g>
<!-- Node23&#45;&gt;Node27 -->
<g id="edge33_Node000023_Node000027" class="edge">
<title>Node23&#45;&gt;Node27</title>
<g id="a_edge33_Node000023_Node000027"><a xlink:title=" ">
<path fill="none" stroke="#63b8ff" d="M1209.06,-192.49C1172.75,-181.82 1110.59,-163.55 1072.33,-152.3"/>
<polygon fill="#63b8ff" stroke="#63b8ff" points="1073.26,-148.92 1062.67,-149.46 1071.28,-155.64 1073.26,-148.92"/>
</a>
</g>
</g>
<!-- Node28 -->
<g id="Node000028" class="node">
<title>Node28</title>
<g id="a_Node000028"><a xlink:title=" ">
<polygon fill="#e0e0e0" stroke="#999999" points="1141,-151 1081,-151 1081,-132 1141,-132 1141,-151"/>
<text text-anchor="middle" x="1111" y="-139" font-family="Helvetica,sans-Serif" font-size="10.00">concepts</text>
</a>
</g>
</g>
<!-- Node23&#45;&gt;Node28 -->
<g id="edge34_Node000023_Node000028" class="edge">
<title>Node23&#45;&gt;Node28</title>
<g id="a_edge34_Node000023_Node000028"><a xlink:title=" ">
<path fill="none" stroke="#63b8ff" d="M1219.53,-192.49C1198.28,-182.7 1163.15,-166.52 1138.63,-155.23"/>
<polygon fill="#63b8ff" stroke="#63b8ff" points="1140.04,-152.02 1129.49,-151.02 1137.11,-158.38 1140.04,-152.02"/>
</a>
</g>
</g>
<!-- Node29 -->
<g id="Node000029" class="node">
<title>Node29</title>
<g id="a_Node000029"><a xlink:title=" ">
<polygon fill="#e0e0e0" stroke="#999999" points="1224.5,-151 1159.5,-151 1159.5,-132 1224.5,-132 1224.5,-151"/>
<text text-anchor="middle" x="1192" y="-139" font-family="Helvetica,sans-Serif" font-size="10.00">functional</text>
</a>
</g>
</g>
<!-- Node23&#45;&gt;Node29 -->
<g id="edge36_Node000023_Node000029" class="edge">
<title>Node23&#45;&gt;Node29</title>
<g id="a_edge36_Node000023_Node000029"><a xlink:title=" ">
<path fill="none" stroke="#63b8ff" d="M1231.21,-192.37C1224.35,-183.64 1213.57,-169.93 1205.05,-159.09"/>
<polygon fill="#63b8ff" stroke="#63b8ff" points="1207.75,-156.86 1198.82,-151.17 1202.25,-161.19 1207.75,-156.86"/>
</a>
</g>
</g>
<!-- Node30 -->
<g id="Node000030" class="node">
<title>Node30</title>
<g id="a_Node000030"><a xlink:title=" ">
<polygon fill="#e0e0e0" stroke="#999999" points="1325.5,-151 1242.5,-151 1242.5,-132 1325.5,-132 1325.5,-151"/>
<text text-anchor="middle" x="1284" y="-139" font-family="Helvetica,sans-Serif" font-size="10.00">initializer_list</text>
</a>
</g>
</g>
<!-- Node23&#45;&gt;Node30 -->
<g id="edge37_Node000023_Node000030" class="edge">
<title>Node23&#45;&gt;Node30</title>
<g id="a_edge37_Node000023_Node000030"><a xlink:title=" ">
<path fill="none" stroke="#63b8ff" d="M1244.79,-192.37C1251.65,-183.64 1262.43,-169.93 1270.95,-159.09"/>
<polygon fill="#63b8ff" stroke="#63b8ff" points="1273.75,-161.19 1277.18,-151.17 1268.25,-156.86 1273.75,-161.19"/>
</a>
</g>
</g>
<!-- Node31 -->
<g id="Node000031" class="node">
<title>Node31</title>
<g id="a_Node000031"><a xlink:title=" ">
<polygon fill="#e0e0e0" stroke="#999999" points="1400,-151 1344,-151 1344,-132 1400,-132 1400,-151"/>
<text text-anchor="middle" x="1372" y="-139" font-family="Helvetica,sans-Serif" font-size="10.00">numeric</text>
</a>
</g>
</g>
<!-- Node23&#45;&gt;Node31 -->
<g id="edge39_Node000023_Node000031" class="edge">
<title>Node23&#45;&gt;Node31</title>
<g id="a_edge39_Node000023_Node000031"><a xlink:title=" ">
<path fill="none" stroke="#63b8ff" d="M1257.48,-192.49C1280.01,-182.66 1317.31,-166.38 1343.19,-155.08"/>
<polygon fill="#63b8ff" stroke="#63b8ff" points="1344.73,-158.23 1352.49,-151.02 1341.93,-151.81 1344.73,-158.23"/>
</a>
</g>
</g>
<!-- Node32 -->
<g id="Node000032" class="node">
<title>Node32</title>
<g id="a_Node000032"><a xlink:title=" ">
<polygon fill="#e0e0e0" stroke="#999999" points="1468,-151 1418,-151 1418,-132 1468,-132 1468,-151"/>
<text text-anchor="middle" x="1443" y="-139" font-family="Helvetica,sans-Serif" font-size="10.00">ranges</text>
</a>
</g>
</g>
<!-- Node23&#45;&gt;Node32 -->
<g id="edge40_Node000023_Node000032" class="edge">
<title>Node23&#45;&gt;Node32</title>
<g id="a_edge40_Node000023_Node000032"><a xlink:title=" ">
<path fill="none" stroke="#63b8ff" d="M1267.81,-192.49C1305.1,-181.85 1368.82,-163.67 1408.27,-152.41"/>
<polygon fill="#63b8ff" stroke="#63b8ff" points="1409.34,-155.75 1417.99,-149.64 1407.42,-149.01 1409.34,-155.75"/>
</a>
</g>
</g>
<!-- Node33 -->
<g id="Node000033" class="node">
<title>Node33</title>
<g id="a_Node000033"><a xlink:title=" ">
<polygon fill="#e0e0e0" stroke="#999999" points="1526,-151 1486,-151 1486,-132 1526,-132 1526,-151"/>
<text text-anchor="middle" x="1506" y="-139" font-family="Helvetica,sans-Serif" font-size="10.00">span</text>
</a>
</g>
</g>
<!-- Node23&#45;&gt;Node33 -->
<g id="edge41_Node000023_Node000033" class="edge">
<title>Node23&#45;&gt;Node33</title>
<g id="a_edge41_Node000023_Node000033"><a xlink:title=" ">
<path fill="none" stroke="#63b8ff" d="M1284.06,-192.48C1330.3,-183.68 1403.74,-169.03 1476.04,-151.09"/>
<polygon fill="#63b8ff" stroke="#63b8ff" points="1476.92,-154.47 1485.77,-148.65 1475.22,-147.68 1476.92,-154.47"/>
</a>
</g>
</g>
<!-- Node34 -->
<g id="Node000034" class="node">
<title>Node34</title>
<g id="a_Node000034"><a xlink:title=" ">
<polygon fill="#e0e0e0" stroke="#999999" points="1613.5,-151 1544.5,-151 1544.5,-132 1613.5,-132 1613.5,-151"/>
<text text-anchor="middle" x="1579" y="-139" font-family="Helvetica,sans-Serif" font-size="10.00">type_traits</text>
</a>
</g>
</g>
<!-- Node23&#45;&gt;Node34 -->
<g id="edge42_Node000023_Node000034" class="edge">
<title>Node23&#45;&gt;Node34</title>
<g id="a_edge42_Node000023_Node000034"><a xlink:title=" ">
<path fill="none" stroke="#63b8ff" d="M1284.11,-193.59C1340.55,-184.44 1439.33,-168.18 1534.35,-151.08"/>
<polygon fill="#63b8ff" stroke="#63b8ff" points="1535.21,-154.48 1544.43,-149.26 1533.96,-147.59 1535.21,-154.48"/>
</a>
</g>
</g>
<!-- Node35 -->
<g id="Node000035" class="node">
<title>Node35</title>
<g id="a_Node000035"><a xlink:title=" ">
<polygon fill="#e0e0e0" stroke="#999999" points="1678.5,-151 1631.5,-151 1631.5,-132 1678.5,-132 1678.5,-151"/>
<text text-anchor="middle" x="1655" y="-139" font-family="Helvetica,sans-Serif" font-size="10.00">vector</text>
</a>
</g>
</g>
<!-- Node23&#45;&gt;Node35 -->
<g id="edge43_Node000023_Node000035" class="edge">
<title>Node23&#45;&gt;Node35</title>
<g id="a_edge43_Node000023_Node000035"><a xlink:title=" ">
<path fill="none" stroke="#63b8ff" d="M1284.24,-196.96C1355.01,-190.35 1494.5,-175.63 1621.42,-151.1"/>
<polygon fill="#63b8ff" stroke="#63b8ff" points="1622.17,-154.52 1631.31,-149.16 1620.83,-147.65 1622.17,-154.52"/>
</a>
</g>
</g>
</g>
</svg>

<g id="navigator" transform="translate(0 0)" fill="#404254">
  <rect fill="#f2f5e9" fill-opacity="0.5" stroke="#606060" stroke-width=".5" x="0" y="0" width="60" height="60"/>
  <use id="zoomplus" xlink:href="#zoomPlus" x="17" y="9" onmousedown="handleZoom(evt,'in')"/>
  <use id="zoomminus" xlink:href="#zoomMin" x="42" y="9" onmousedown="handleZoom(evt,'out')"/>
  <use id="reset" xlink:href="#resetDef" x="30" y="36" onmousedown="handleReset()"/>
   <use id="arrowup" xlink:href="#arrowUp" x="0" y="0" onmousedown="handlePan(0,-1)"/>
  <use id="arrowright" xlink:href="#arrowRight" x="0" y="0" onmousedown="handlePan(1,0)"/>
  <use id="arrowdown" xlink:href="#arrowDown" x="0" y="0" onmousedown="handlePan(0,1)"/>
  <use id="arrowleft" xlink:href="#arrowLeft" x="0" y="0" onmousedown="handlePan(-1,0)"/>
</g>
<svg viewBox="0 0 15 15" width="100%" height="30px" preserveAspectRatio="xMaxYMin meet">
 <g id="arrow_out" transform="scale(0.3 0.3)">
  <a xlink:href="LocalBox_8hpp__incl_org.svg" target="_base">
   <rect id="button" ry="5" rx="5" y="6" x="6" height="38" width="38"
        fill="#f2f5e9" fill-opacity="0.5" stroke="#606060" stroke-width="1.0"/>
   <path id="arrow"
     d="M 11.500037,31.436501 C 11.940474,20.09759 22.043105,11.32322 32.158766,21.979434 L 37.068811,17.246167 C 37.068811,17.246167 37.088388,32 37.088388,32 L 22.160133,31.978069 C 22.160133,31.978069 26.997745,27.140456 26.997745,27.140456 C 18.528582,18.264221 13.291696,25.230495 11.500037,31.436501 z"
     style="fill:#404040;"/>
  </a>
 </g>
</svg>

<style type='text/css'>
<![CDATA[
[data-mouse-over-selected='false'] { opacity: 0.7; }
[data-mouse-over-selected='true']  { opacity: 1.0; }
]]>
</style>
<script type="application/ecmascript"><![CDATA[
document.addEventListener('DOMContentLoaded', (event) => {
  highlightEdges();
  highlightAdjacentNodes();
});
]]></script>
</svg>
