<?xml version="1.0" encoding="UTF-8" standalone="no"?>
<!DOCTYPE svg PUBLIC "-//W3C//DTD SVG 1.1//EN"
 "http://www.w3.org/Graphics/SVG/1.1/DTD/svg11.dtd">
<!-- Generated by graphviz version 2.43.0 (0)
 -->
<!-- Title: LocalBox.hpp Pages: 1 -->
<svg width="1441pt" height="280pt"
 viewBox="0.00 0.00 1441.13 280.00" xmlns="http://www.w3.org/2000/svg" xmlns:xlink="http://www.w3.org/1999/xlink">
<g id="graph0" class="graph" transform="scale(1 1) rotate(0) translate(4 276)">
<title>LocalBox.hpp</title>
<!-- Node1 -->
<g id="Node000001" class="node">
<title>Node1</title>
<g id="a_Node000001"><a xlink:title=" ">
<polygon fill="#999999" stroke="#666666" points="657.5,-272 575.5,-272 575.5,-253 657.5,-253 657.5,-272"/>
<text text-anchor="middle" x="616.5" y="-260" font-family="Helvetica,sans-Serif" font-size="10.00">LocalBox.hpp</text>
</a>
</g>
</g>
<!-- Node2 -->
<g id="Node000002" class="node">
<title>Node2</title>
<g id="a_Node000002"><a xlink:href="CellStructureType_8hpp.html" target="_top" xlink:title=" ">
<polygon fill="white" stroke="#666666" points="588,-217 447,-217 447,-187 588,-187 588,-217"/>
<text text-anchor="start" x="455" y="-205" font-family="Helvetica,sans-Serif" font-size="10.00">cell_system/CellStructure</text>
<text text-anchor="middle" x="517.5" y="-194" font-family="Helvetica,sans-Serif" font-size="10.00">Type.hpp</text>
</a>
</g>
</g>
<!-- Node1&#45;&gt;Node2 -->
<g id="edge1_Node000001_Node000002" class="edge">
<title>Node1&#45;&gt;Node2</title>
<g id="a_edge1_Node000001_Node000002"><a xlink:title=" ">
<path fill="none" stroke="#63b8ff" d="M601.89,-252.87C588.33,-244.86 567.67,-232.65 550.19,-222.31"/>
<polygon fill="#63b8ff" stroke="#63b8ff" points="551.78,-219.19 541.39,-217.11 548.21,-225.22 551.78,-219.19"/>
</a>
</g>
</g>
<!-- Node3 -->
<g id="Node000003" class="node">
<title>Node3</title>
<g id="a_Node000003"><a xlink:href="Array_8hpp.html" target="_top" xlink:title="Array implementation with CUDA support.">
<polygon fill="white" stroke="#666666" points="431.5,-151 345.5,-151 345.5,-132 431.5,-132 431.5,-151"/>
<text text-anchor="middle" x="388.5" y="-139" font-family="Helvetica,sans-Serif" font-size="10.00">utils/Array.hpp</text>
</a>
</g>
</g>
<!-- Node1&#45;&gt;Node3 -->
<g id="edge2_Node000001_Node000003" class="edge">
<title>Node1&#45;&gt;Node3</title>
<g id="a_edge2_Node000001_Node000003"><a xlink:title=" ">
<path fill="none" stroke="#63b8ff" d="M616.88,-252.69C617.03,-237.07 614.95,-204.52 596.5,-187 574.62,-166.21 495.87,-153.83 441.81,-147.59"/>
<polygon fill="#63b8ff" stroke="#63b8ff" points="442.01,-144.09 431.68,-146.46 441.23,-151.05 442.01,-144.09"/>
</a>
</g>
</g>
<!-- Node22 -->
<g id="Node000022" class="node">
<title>Node22</title>
<g id="a_Node000022"><a xlink:href="Vector_8hpp.html" target="_top" xlink:title="Vector implementation and trait types for boost qvm interoperability.">
<polygon fill="white" stroke="#666666" points="965.5,-211.5 873.5,-211.5 873.5,-192.5 965.5,-192.5 965.5,-211.5"/>
<text text-anchor="middle" x="919.5" y="-199.5" font-family="Helvetica,sans-Serif" font-size="10.00">utils/Vector.hpp</text>
</a>
</g>
</g>
<!-- Node1&#45;&gt;Node22 -->
<g id="edge24_Node000001_Node000022" class="edge">
<title>Node1&#45;&gt;Node22</title>
<g id="a_edge24_Node000001_Node000022"><a xlink:title=" ">
<path fill="none" stroke="#63b8ff" d="M657.68,-253.55C711.52,-243.15 805.96,-224.92 865.49,-213.43"/>
<polygon fill="#63b8ff" stroke="#63b8ff" points="866.31,-216.83 875.46,-211.5 864.98,-209.96 866.31,-216.83"/>
</a>
</g>
</g>
<!-- Node4 -->
<g id="Node000004" class="node">
<title>Node4</title>
<g id="a_Node000004"><a xlink:href="device__qualifier_8hpp.html" target="_top" xlink:title=" ">
<polygon fill="white" stroke="#666666" points="774.5,-90.5 660.5,-90.5 660.5,-71.5 774.5,-71.5 774.5,-90.5"/>
<text text-anchor="middle" x="717.5" y="-78.5" font-family="Helvetica,sans-Serif" font-size="10.00">device_qualifier.hpp</text>
</a>
</g>
</g>
<!-- Node3&#45;&gt;Node4 -->
<g id="edge3_Node000003_Node000004" class="edge">
<title>Node3&#45;&gt;Node4</title>
<g id="a_edge3_Node000003_Node000004"><a xlink:title=" ">
<path fill="none" stroke="#63b8ff" d="M431.92,-133.34C483.24,-124.79 571.19,-109.92 646.5,-96 652.58,-94.88 658.95,-93.67 665.27,-92.45"/>
<polygon fill="#63b8ff" stroke="#63b8ff" points="665.96,-95.88 675.11,-90.53 664.62,-89.01 665.96,-95.88"/>
</a>
</g>
</g>
<!-- Node5 -->
<g id="Node000005" class="node">
<title>Node5</title>
<g id="a_Node000005"><a xlink:title=" ">
<polygon fill="#e0e0e0" stroke="#999999" points="1270.5,-24.5 1218.5,-24.5 1218.5,-5.5 1270.5,-5.5 1270.5,-24.5"/>
<text text-anchor="middle" x="1244.5" y="-12.5" font-family="Helvetica,sans-Serif" font-size="10.00">cassert</text>
</a>
</g>
</g>
<!-- Node3&#45;&gt;Node5 -->
<g id="edge19_Node000003_Node000005" class="edge">
<title>Node3&#45;&gt;Node5</title>
<g id="a_edge19_Node000003_Node000005"><a xlink:title=" ">
<path fill="none" stroke="#63b8ff" d="M431.62,-134.33C487.3,-125.95 580.82,-110.37 612.5,-96 632.41,-86.97 631.03,-73.7 651.5,-66 767.79,-22.22 1088.3,-57.42 1209.5,-30 1211.87,-29.46 1214.29,-28.79 1216.69,-28.03"/>
<polygon fill="#63b8ff" stroke="#63b8ff" points="1218.11,-31.23 1226.32,-24.53 1215.73,-24.65 1218.11,-31.23"/>
</a>
</g>
</g>
<!-- Node6 -->
<g id="Node000006" class="node">
<title>Node6</title>
<g id="a_Node000006"><a xlink:href="get_8hpp.html" target="_top" xlink:title=" ">
<polygon fill="white" stroke="#666666" points="139,-90.5 86,-90.5 86,-71.5 139,-71.5 139,-90.5"/>
<text text-anchor="middle" x="112.5" y="-78.5" font-family="Helvetica,sans-Serif" font-size="10.00">get.hpp</text>
</a>
</g>
</g>
<!-- Node3&#45;&gt;Node6 -->
<g id="edge5_Node000003_Node000006" class="edge">
<title>Node3&#45;&gt;Node6</title>
<g id="a_edge5_Node000003_Node000006"><a xlink:title=" ">
<path fill="none" stroke="#63b8ff" d="M345.21,-134.19C297.74,-126.84 219.54,-113.43 153.5,-96 150.86,-95.3 148.15,-94.52 145.44,-93.7"/>
<polygon fill="#63b8ff" stroke="#63b8ff" points="146.33,-90.31 135.74,-90.58 144.19,-96.97 146.33,-90.31"/>
</a>
</g>
</g>
<!-- Node7 -->
<g id="Node000007" class="node">
<title>Node7</title>
<g id="a_Node000007"><a xlink:title=" ">
<polygon fill="#e0e0e0" stroke="#999999" points="112,-24.5 59,-24.5 59,-5.5 112,-5.5 112,-24.5"/>
<text text-anchor="middle" x="85.5" y="-12.5" font-family="Helvetica,sans-Serif" font-size="10.00">cstddef</text>
</a>
</g>
</g>
<!-- Node3&#45;&gt;Node7 -->
<g id="edge20_Node000003_Node000007" class="edge">
<title>Node3&#45;&gt;Node7</title>
<g id="a_edge20_Node000003_Node000007"><a xlink:title=" ">
<path fill="none" stroke="#63b8ff" d="M345.29,-136.68C303.1,-131.66 237.91,-120.42 186.5,-96 181.85,-93.79 131.73,-53.44 103.89,-30.91"/>
<polygon fill="#63b8ff" stroke="#63b8ff" points="106.01,-28.13 96.04,-24.55 101.6,-33.57 106.01,-28.13"/>
</a>
</g>
</g>
<!-- Node9 -->
<g id="Node000009" class="node">
<title>Node9</title>
<g id="a_Node000009"><a xlink:href="array_8hpp.html" target="_top" xlink:title=" ">
<polygon fill="white" stroke="#666666" points="604,-90.5 479,-90.5 479,-71.5 604,-71.5 604,-90.5"/>
<text text-anchor="middle" x="541.5" y="-78.5" font-family="Helvetica,sans-Serif" font-size="10.00">serialization/array.hpp</text>
</a>
</g>
</g>
<!-- Node3&#45;&gt;Node9 -->
<g id="edge8_Node000003_Node000009" class="edge">
<title>Node3&#45;&gt;Node9</title>
<g id="a_edge8_Node000003_Node000009"><a xlink:title=" ">
<path fill="none" stroke="#63b8ff" d="M410.75,-131.99C436.81,-122.03 480.18,-105.45 509.77,-94.13"/>
<polygon fill="#63b8ff" stroke="#63b8ff" points="511.14,-97.36 519.23,-90.52 508.64,-90.82 511.14,-97.36"/>
</a>
</g>
</g>
<!-- Node18 -->
<g id="Node000018" class="node">
<title>Node18</title>
<g id="a_Node000018"><a xlink:title=" ">
<polygon fill="#e0e0e0" stroke="#999999" points="303,-96 196,-96 196,-66 303,-66 303,-96"/>
<text text-anchor="start" x="204" y="-84" font-family="Helvetica,sans-Serif" font-size="10.00">boost/serialization</text>
<text text-anchor="middle" x="249.5" y="-73" font-family="Helvetica,sans-Serif" font-size="10.00">/access.hpp</text>
</a>
</g>
</g>
<!-- Node3&#45;&gt;Node18 -->
<g id="edge18_Node000003_Node000018" class="edge">
<title>Node3&#45;&gt;Node18</title>
<g id="a_edge18_Node000003_Node000018"><a xlink:title=" ">
<path fill="none" stroke="#63b8ff" d="M368.29,-131.99C348.46,-123.65 317.6,-110.66 292.31,-100.02"/>
<polygon fill="#63b8ff" stroke="#63b8ff" points="293.49,-96.72 282.92,-96.06 290.78,-103.17 293.49,-96.72"/>
</a>
</g>
</g>
<!-- Node19 -->
<g id="Node000019" class="node">
<title>Node19</title>
<g id="a_Node000019"><a xlink:title=" ">
<polygon fill="#e0e0e0" stroke="#999999" points="846,-90.5 793,-90.5 793,-71.5 846,-71.5 846,-90.5"/>
<text text-anchor="middle" x="819.5" y="-78.5" font-family="Helvetica,sans-Serif" font-size="10.00">iterator</text>
</a>
</g>
</g>
<!-- Node3&#45;&gt;Node19 -->
<g id="edge21_Node000003_Node000019" class="edge">
<title>Node3&#45;&gt;Node19</title>
<g id="a_edge21_Node000003_Node000019"><a xlink:title=" ">
<path fill="none" stroke="#63b8ff" d="M431.73,-133.86C436.38,-133.2 441.03,-132.57 445.5,-132 595.35,-112.85 636.7,-131.69 783.5,-96 785.86,-95.43 788.28,-94.73 790.69,-93.97"/>
<polygon fill="#63b8ff" stroke="#63b8ff" points="792.12,-97.17 800.37,-90.52 789.78,-90.58 792.12,-97.17"/>
</a>
</g>
</g>
<!-- Node20 -->
<g id="Node000020" class="node">
<title>Node20</title>
<g id="a_Node000020"><a xlink:title=" ">
<polygon fill="#e0e0e0" stroke="#999999" points="378,-90.5 321,-90.5 321,-71.5 378,-71.5 378,-90.5"/>
<text text-anchor="middle" x="349.5" y="-78.5" font-family="Helvetica,sans-Serif" font-size="10.00">ostream</text>
</a>
</g>
</g>
<!-- Node3&#45;&gt;Node20 -->
<g id="edge22_Node000003_Node000020" class="edge">
<title>Node3&#45;&gt;Node20</title>
<g id="a_edge22_Node000003_Node000020"><a xlink:title=" ">
<path fill="none" stroke="#63b8ff" d="M382.75,-131.87C377.04,-123.31 368.15,-109.97 360.99,-99.24"/>
<polygon fill="#63b8ff" stroke="#63b8ff" points="363.74,-97.05 355.28,-90.67 357.91,-100.93 363.74,-97.05"/>
</a>
</g>
</g>
<!-- Node21 -->
<g id="Node000021" class="node">
<title>Node21</title>
<g id="a_Node000021"><a xlink:title=" ">
<polygon fill="#e0e0e0" stroke="#999999" points="461,-90.5 396,-90.5 396,-71.5 461,-71.5 461,-90.5"/>
<text text-anchor="middle" x="428.5" y="-78.5" font-family="Helvetica,sans-Serif" font-size="10.00">stdexcept</text>
</a>
</g>
</g>
<!-- Node3&#45;&gt;Node21 -->
<g id="edge23_Node000003_Node000021" class="edge">
<title>Node3&#45;&gt;Node21</title>
<g id="a_edge23_Node000003_Node000021"><a xlink:title=" ">
<path fill="none" stroke="#63b8ff" d="M394.4,-131.87C400.25,-123.31 409.37,-109.97 416.71,-99.24"/>
<polygon fill="#63b8ff" stroke="#63b8ff" points="419.82,-100.9 422.57,-90.67 414.04,-96.95 419.82,-100.9"/>
</a>
</g>
</g>
<!-- Node4&#45;&gt;Node5 -->
<g id="edge4_Node000004_Node000005" class="edge">
<title>Node4&#45;&gt;Node5</title>
<g id="a_edge4_Node000004_Node000005"><a xlink:title=" ">
<path fill="none" stroke="#63b8ff" d="M754.22,-71.49C764.01,-69.45 774.62,-67.44 784.5,-66 972.07,-38.56 1025.04,-73.68 1209.5,-30 1211.81,-29.45 1214.17,-28.78 1216.52,-28.03"/>
<polygon fill="#63b8ff" stroke="#63b8ff" points="1217.74,-31.31 1225.94,-24.61 1215.35,-24.73 1217.74,-31.31"/>
</a>
</g>
</g>
<!-- Node6&#45;&gt;Node7 -->
<g id="edge6_Node000006_Node000007" class="edge">
<title>Node6&#45;&gt;Node7</title>
<g id="a_edge6_Node000006_Node000007"><a xlink:title=" ">
<path fill="none" stroke="#63b8ff" d="M108.86,-71.37C104.86,-61.88 98.31,-46.36 93.16,-34.16"/>
<polygon fill="#63b8ff" stroke="#63b8ff" points="96.37,-32.76 89.26,-24.91 89.92,-35.48 96.37,-32.76"/>
</a>
</g>
</g>
<!-- Node8 -->
<g id="Node000008" class="node">
<title>Node8</title>
<g id="a_Node000008"><a xlink:title=" ">
<polygon fill="#e0e0e0" stroke="#999999" points="41,-24.5 0,-24.5 0,-5.5 41,-5.5 41,-24.5"/>
<text text-anchor="middle" x="20.5" y="-12.5" font-family="Helvetica,sans-Serif" font-size="10.00">tuple</text>
</a>
</g>
</g>
<!-- Node6&#45;&gt;Node8 -->
<g id="edge7_Node000006_Node000008" class="edge">
<title>Node6&#45;&gt;Node8</title>
<g id="a_edge7_Node000006_Node000008"><a xlink:title=" ">
<path fill="none" stroke="#63b8ff" d="M100.09,-71.37C85.14,-60.97 59.78,-43.32 41.7,-30.75"/>
<polygon fill="#63b8ff" stroke="#63b8ff" points="43.21,-27.54 33,-24.7 39.22,-33.28 43.21,-27.54"/>
</a>
</g>
</g>
<!-- Node9&#45;&gt;Node7 -->
<g id="edge17_Node000009_Node000007" class="edge">
<title>Node9&#45;&gt;Node7</title>
<g id="a_edge17_Node000009_Node000007"><a xlink:title=" ">
<path fill="none" stroke="#63b8ff" d="M500.87,-71.44C490.66,-69.48 479.7,-67.52 469.5,-66 315.7,-43.14 272.65,-66.51 121.5,-30 119.13,-29.43 116.72,-28.74 114.31,-27.97"/>
<polygon fill="#63b8ff" stroke="#63b8ff" points="115.22,-24.58 104.63,-24.53 112.87,-31.18 115.22,-24.58"/>
</a>
</g>
</g>
<!-- Node10 -->
<g id="Node000010" class="node">
<title>Node10</title>
<g id="a_Node000010"><a xlink:title=" ">
<polygon fill="#e0e0e0" stroke="#999999" points="1058,-24.5 925,-24.5 925,-5.5 1058,-5.5 1058,-24.5"/>
<text text-anchor="middle" x="991.5" y="-12.5" font-family="Helvetica,sans-Serif" font-size="10.00">boost/mpl/bool_fwd.hpp</text>
</a>
</g>
</g>
<!-- Node9&#45;&gt;Node10 -->
<g id="edge9_Node000009_Node000010" class="edge">
<title>Node9&#45;&gt;Node10</title>
<g id="a_edge9_Node000009_Node000010"><a xlink:title=" ">
<path fill="none" stroke="#63b8ff" d="M585.81,-71.48C596.49,-69.55 607.89,-67.6 618.5,-66 750.41,-46.06 784.64,-50.25 916.5,-30 923.61,-28.91 931.08,-27.65 938.44,-26.34"/>
<polygon fill="#63b8ff" stroke="#63b8ff" points="939.14,-29.77 948.35,-24.55 937.89,-22.89 939.14,-29.77"/>
</a>
</g>
</g>
<!-- Node11 -->
<g id="Node000011" class="node">
<title>Node11</title>
<g id="a_Node000011"><a xlink:title=" ">
<polygon fill="#e0e0e0" stroke="#999999" points="1200.5,-24.5 1076.5,-24.5 1076.5,-5.5 1200.5,-5.5 1200.5,-24.5"/>
<text text-anchor="middle" x="1138.5" y="-12.5" font-family="Helvetica,sans-Serif" font-size="10.00">boost/mpl/greater.hpp</text>
</a>
</g>
</g>
<!-- Node9&#45;&gt;Node11 -->
<g id="edge10_Node000009_Node000011" class="edge">
<title>Node9&#45;&gt;Node11</title>
<g id="a_edge10_Node000009_Node000011"><a xlink:title=" ">
<path fill="none" stroke="#63b8ff" d="M584.15,-71.46C595.29,-69.45 607.32,-67.46 618.5,-66 817.01,-40.06 869.19,-57.41 1067.5,-30 1074.69,-29.01 1082.24,-27.75 1089.64,-26.4"/>
<polygon fill="#63b8ff" stroke="#63b8ff" points="1090.4,-29.81 1099.57,-24.51 1089.1,-22.94 1090.4,-29.81"/>
</a>
</g>
</g>
<!-- Node12 -->
<g id="Node000012" class="node">
<title>Node12</title>
<g id="a_Node000012"><a xlink:title=" ">
<polygon fill="#e0e0e0" stroke="#999999" points="232.5,-24.5 130.5,-24.5 130.5,-5.5 232.5,-5.5 232.5,-24.5"/>
<text text-anchor="middle" x="181.5" y="-12.5" font-family="Helvetica,sans-Serif" font-size="10.00">boost/mpl/int.hpp</text>
</a>
</g>
</g>
<!-- Node9&#45;&gt;Node12 -->
<g id="edge11_Node000009_Node000012" class="edge">
<title>Node9&#45;&gt;Node12</title>
<g id="a_edge11_Node000009_Node000012"><a xlink:title=" ">
<path fill="none" stroke="#63b8ff" d="M498.91,-71.46C489.25,-69.59 479.03,-67.68 469.5,-66 368.47,-48.21 342.19,-49.67 241.5,-30 236.51,-29.03 231.3,-27.93 226.14,-26.79"/>
<polygon fill="#63b8ff" stroke="#63b8ff" points="226.83,-23.36 216.31,-24.57 225.29,-30.19 226.83,-23.36"/>
</a>
</g>
</g>
<!-- Node13 -->
<g id="Node000013" class="node">
<title>Node13</title>
<g id="a_Node000013"><a xlink:title=" ">
<polygon fill="#e0e0e0" stroke="#999999" points="356.5,-30 250.5,-30 250.5,0 356.5,0 356.5,-30"/>
<text text-anchor="start" x="258.5" y="-18" font-family="Helvetica,sans-Serif" font-size="10.00">boost/mpl/integral</text>
<text text-anchor="middle" x="303.5" y="-7" font-family="Helvetica,sans-Serif" font-size="10.00">_c_tag.hpp</text>
</a>
</g>
</g>
<!-- Node9&#45;&gt;Node13 -->
<g id="edge12_Node000009_Node000013" class="edge">
<title>Node9&#45;&gt;Node13</title>
<g id="a_edge12_Node000009_Node000013"><a xlink:title=" ">
<path fill="none" stroke="#63b8ff" d="M509.4,-71.37C472.76,-61.51 411.94,-45.16 365.88,-32.77"/>
<polygon fill="#63b8ff" stroke="#63b8ff" points="366.56,-29.33 355.99,-30.12 364.74,-36.09 366.56,-29.33"/>
</a>
</g>
</g>
<!-- Node14 -->
<g id="Node000014" class="node">
<title>Node14</title>
<g id="a_Node000014"><a xlink:title=" ">
<polygon fill="#e0e0e0" stroke="#999999" points="526,-30 375,-30 375,0 526,0 526,-30"/>
<text text-anchor="start" x="383" y="-18" font-family="Helvetica,sans-Serif" font-size="10.00">boost/serialization</text>
<text text-anchor="middle" x="450.5" y="-7" font-family="Helvetica,sans-Serif" font-size="10.00">/is_bitwise_serializable.hpp</text>
</a>
</g>
</g>
<!-- Node9&#45;&gt;Node14 -->
<g id="edge13_Node000009_Node000014" class="edge">
<title>Node9&#45;&gt;Node14</title>
<g id="a_edge13_Node000009_Node000014"><a xlink:title=" ">
<path fill="none" stroke="#63b8ff" d="M529.23,-71.37C516.42,-62.36 495.89,-47.92 479.01,-36.05"/>
<polygon fill="#63b8ff" stroke="#63b8ff" points="480.76,-33.01 470.57,-30.12 476.74,-38.73 480.76,-33.01"/>
</a>
</g>
</g>
<!-- Node15 -->
<g id="Node000015" class="node">
<title>Node15</title>
<g id="a_Node000015"><a xlink:title=" ">
<polygon fill="#e0e0e0" stroke="#999999" points="651,-30 544,-30 544,0 651,0 651,-30"/>
<text text-anchor="start" x="552" y="-18" font-family="Helvetica,sans-Serif" font-size="10.00">boost/serialization</text>
<text text-anchor="middle" x="597.5" y="-7" font-family="Helvetica,sans-Serif" font-size="10.00">/level.hpp</text>
</a>
</g>
</g>
<!-- Node9&#45;&gt;Node15 -->
<g id="edge14_Node000009_Node000015" class="edge">
<title>Node9&#45;&gt;Node15</title>
<g id="a_edge14_Node000009_Node000015"><a xlink:title=" ">
<path fill="none" stroke="#63b8ff" d="M549.05,-71.37C556.52,-62.83 568.27,-49.41 578.32,-37.92"/>
<polygon fill="#63b8ff" stroke="#63b8ff" points="580.98,-40.19 584.93,-30.36 575.72,-35.58 580.98,-40.19"/>
</a>
</g>
</g>
<!-- Node16 -->
<g id="Node000016" class="node">
<title>Node16</title>
<g id="a_Node000016"><a xlink:title=" ">
<polygon fill="#e0e0e0" stroke="#999999" points="776,-30 669,-30 669,0 776,0 776,-30"/>
<text text-anchor="start" x="677" y="-18" font-family="Helvetica,sans-Serif" font-size="10.00">boost/serialization</text>
<text text-anchor="middle" x="722.5" y="-7" font-family="Helvetica,sans-Serif" font-size="10.00">/tracking.hpp</text>
</a>
</g>
</g>
<!-- Node9&#45;&gt;Node16 -->
<g id="edge15_Node000009_Node000016" class="edge">
<title>Node9&#45;&gt;Node16</title>
<g id="a_edge15_Node000009_Node000016"><a xlink:title=" ">
<path fill="none" stroke="#63b8ff" d="M565.91,-71.37C593.25,-61.7 638.29,-45.77 673.07,-33.48"/>
<polygon fill="#63b8ff" stroke="#63b8ff" points="674.32,-36.75 682.58,-30.12 671.98,-30.15 674.32,-36.75"/>
</a>
</g>
</g>
<!-- Node17 -->
<g id="Node000017" class="node">
<title>Node17</title>
<g id="a_Node000017"><a xlink:title=" ">
<polygon fill="#e0e0e0" stroke="#999999" points="907,-30 794,-30 794,0 907,0 907,-30"/>
<text text-anchor="start" x="802" y="-18" font-family="Helvetica,sans-Serif" font-size="10.00">boost/serialization</text>
<text text-anchor="middle" x="850.5" y="-7" font-family="Helvetica,sans-Serif" font-size="10.00">/tracking_enum.hpp</text>
</a>
</g>
</g>
<!-- Node9&#45;&gt;Node17 -->
<g id="edge16_Node000009_Node000017" class="edge">
<title>Node9&#45;&gt;Node17</title>
<g id="a_edge16_Node000009_Node000017"><a xlink:title=" ">
<path fill="none" stroke="#63b8ff" d="M583.22,-71.5C629.66,-62.01 707.19,-46.13 784.11,-30.07"/>
<polygon fill="#63b8ff" stroke="#63b8ff" points="784.91,-33.48 793.98,-28.01 783.47,-26.63 784.91,-33.48"/>
</a>
</g>
</g>
<!-- Node22&#45;&gt;Node3 -->
<g id="edge27_Node000022_Node000003" class="edge">
<title>Node22&#45;&gt;Node3</title>
<g id="a_edge27_Node000022_Node000003"><a xlink:title=" ">
<path fill="none" stroke="#63b8ff" d="M873.33,-196.79C788.48,-188.92 602.08,-170.92 445.5,-151 444.24,-150.84 442.97,-150.68 441.69,-150.51"/>
<polygon fill="#63b8ff" stroke="#63b8ff" points="442.11,-147.03 431.73,-149.15 441.17,-153.97 442.11,-147.03"/>
</a>
</g>
</g>
<!-- Node22&#45;&gt;Node5 -->
<g id="edge29_Node000022_Node000005" class="edge">
<title>Node22&#45;&gt;Node5</title>
<g id="a_edge29_Node000022_Node000005"><a xlink:title=" ">
<path fill="none" stroke="#63b8ff" d="M965.57,-199.86C1083.87,-196.47 1391.19,-184.48 1421.5,-151 1471.48,-95.79 1345.94,-47.21 1280.79,-26.56"/>
<polygon fill="#63b8ff" stroke="#63b8ff" points="1281.48,-23.1 1270.89,-23.48 1279.4,-29.79 1281.48,-23.1"/>
</a>
</g>
</g>
<!-- Node22&#45;&gt;Node7 -->
<g id="edge31_Node000022_Node000007" class="edge">
<title>Node22&#45;&gt;Node7</title>
<g id="a_edge31_Node000022_Node000007"><a xlink:title=" ">
<path fill="none" stroke="#63b8ff" d="M873.22,-198.9C704.16,-190.75 127.17,-158.51 76.5,-96 62.37,-78.57 69.5,-51.55 76.78,-33.82"/>
<polygon fill="#63b8ff" stroke="#63b8ff" points="80.02,-35.15 80.93,-24.59 73.63,-32.28 80.02,-35.15"/>
</a>
</g>
</g>
<!-- Node22&#45;&gt;Node19 -->
<g id="edge34_Node000022_Node000019" class="edge">
<title>Node22&#45;&gt;Node19</title>
<g id="a_edge34_Node000022_Node000019"><a xlink:title=" ">
<path fill="none" stroke="#63b8ff" d="M873.17,-199.17C765.3,-194.45 504.48,-180.1 478.5,-151 472.88,-144.7 472.89,-138.31 478.5,-132 523.84,-80.99 717.28,-112.5 783.5,-96 785.81,-95.43 788.16,-94.74 790.51,-93.99"/>
<polygon fill="#63b8ff" stroke="#63b8ff" points="791.74,-97.27 799.99,-90.62 789.39,-90.67 791.74,-97.27"/>
</a>
</g>
</g>
<!-- Node23 -->
<g id="Node000023" class="node">
<title>Node23</title>
<g id="a_Node000023"><a xlink:title=" ">
<polygon fill="#e0e0e0" stroke="#999999" points="637.5,-151 487.5,-151 487.5,-132 637.5,-132 637.5,-151"/>
<text text-anchor="middle" x="562.5" y="-139" font-family="Helvetica,sans-Serif" font-size="10.00">boost/qvm/deduce_vec.hpp</text>
</a>
</g>
</g>
<!-- Node22&#45;&gt;Node23 -->
<g id="edge25_Node000022_Node000023" class="edge">
<title>Node22&#45;&gt;Node23</title>
<g id="a_edge25_Node000022_Node000023"><a xlink:title=" ">
<path fill="none" stroke="#63b8ff" d="M873.19,-193.41C809.72,-183.01 695.5,-164.29 624.64,-152.68"/>
<polygon fill="#63b8ff" stroke="#63b8ff" points="624.95,-149.19 614.51,-151.02 623.81,-156.09 624.95,-149.19"/>
</a>
</g>
</g>
<!-- Node24 -->
<g id="Node000024" class="node">
<title>Node24</title>
<g id="a_Node000024"><a xlink:title=" ">
<polygon fill="#e0e0e0" stroke="#999999" points="795.5,-151 655.5,-151 655.5,-132 795.5,-132 795.5,-151"/>
<text text-anchor="middle" x="725.5" y="-139" font-family="Helvetica,sans-Serif" font-size="10.00">boost/qvm/vec_traits.hpp</text>
</a>
</g>
</g>
<!-- Node22&#45;&gt;Node24 -->
<g id="edge26_Node000022_Node000024" class="edge">
<title>Node22&#45;&gt;Node24</title>
<g id="a_edge26_Node000022_Node000024"><a xlink:title=" ">
<path fill="none" stroke="#63b8ff" d="M891.29,-192.49C857.53,-182.31 800.85,-165.22 763.32,-153.9"/>
<polygon fill="#63b8ff" stroke="#63b8ff" points="764.33,-150.55 753.74,-151.02 762.31,-157.25 764.33,-150.55"/>
</a>
</g>
</g>
<!-- Node25 -->
<g id="Node000025" class="node">
<title>Node25</title>
<g id="a_Node000025"><a xlink:title=" ">
<polygon fill="#e0e0e0" stroke="#999999" points="877.5,-151 813.5,-151 813.5,-132 877.5,-132 877.5,-151"/>
<text text-anchor="middle" x="845.5" y="-139" font-family="Helvetica,sans-Serif" font-size="10.00">algorithm</text>
</a>
</g>
</g>
<!-- Node22&#45;&gt;Node25 -->
<g id="edge28_Node000022_Node000025" class="edge">
<title>Node22&#45;&gt;Node25</title>
<g id="a_edge28_Node000022_Node000025"><a xlink:title=" ">
<path fill="none" stroke="#63b8ff" d="M908.58,-192.37C896.99,-183.21 878.47,-168.56 864.48,-157.51"/>
<polygon fill="#63b8ff" stroke="#63b8ff" points="866.48,-154.62 856.46,-151.17 862.14,-160.11 866.48,-154.62"/>
</a>
</g>
</g>
<!-- Node26 -->
<g id="Node000026" class="node">
<title>Node26</title>
<g id="a_Node000026"><a xlink:title=" ">
<polygon fill="#e0e0e0" stroke="#999999" points="943,-151 896,-151 896,-132 943,-132 943,-151"/>
<text text-anchor="middle" x="919.5" y="-139" font-family="Helvetica,sans-Serif" font-size="10.00">cmath</text>
</a>
</g>
</g>
<!-- Node22&#45;&gt;Node26 -->
<g id="edge30_Node000022_Node000026" class="edge">
<title>Node22&#45;&gt;Node26</title>
<g id="a_edge30_Node000022_Node000026"><a xlink:title=" ">
<path fill="none" stroke="#63b8ff" d="M919.5,-192.37C919.5,-184.25 919.5,-171.81 919.5,-161.39"/>
<polygon fill="#63b8ff" stroke="#63b8ff" points="923,-161.17 919.5,-151.17 916,-161.17 923,-161.17"/>
</a>
</g>
</g>
<!-- Node27 -->
<g id="Node000027" class="node">
<title>Node27</title>
<g id="a_Node000027"><a xlink:title=" ">
<polygon fill="#e0e0e0" stroke="#999999" points="1026,-151 961,-151 961,-132 1026,-132 1026,-151"/>
<text text-anchor="middle" x="993.5" y="-139" font-family="Helvetica,sans-Serif" font-size="10.00">functional</text>
</a>
</g>
</g>
<!-- Node22&#45;&gt;Node27 -->
<g id="edge32_Node000022_Node000027" class="edge">
<title>Node22&#45;&gt;Node27</title>
<g id="a_edge32_Node000022_Node000027"><a xlink:title=" ">
<path fill="none" stroke="#63b8ff" d="M930.42,-192.37C942.01,-183.21 960.53,-168.56 974.52,-157.51"/>
<polygon fill="#63b8ff" stroke="#63b8ff" points="976.86,-160.11 982.54,-151.17 972.52,-154.62 976.86,-160.11"/>
</a>
</g>
</g>
<!-- Node28 -->
<g id="Node000028" class="node">
<title>Node28</title>
<g id="a_Node000028"><a xlink:title=" ">
<polygon fill="#e0e0e0" stroke="#999999" points="1127,-151 1044,-151 1044,-132 1127,-132 1127,-151"/>
<text text-anchor="middle" x="1085.5" y="-139" font-family="Helvetica,sans-Serif" font-size="10.00">initializer_list</text>
</a>
</g>
</g>
<!-- Node22&#45;&gt;Node28 -->
<g id="edge33_Node000022_Node000028" class="edge">
<title>Node22&#45;&gt;Node28</title>
<g id="a_edge33_Node000022_Node000028"><a xlink:title=" ">
<path fill="none" stroke="#63b8ff" d="M943.64,-192.49C972.04,-182.49 1019.38,-165.8 1051.49,-154.49"/>
<polygon fill="#63b8ff" stroke="#63b8ff" points="1053.06,-157.64 1061.33,-151.02 1050.74,-151.04 1053.06,-157.64"/>
</a>
</g>
</g>
<!-- Node29 -->
<g id="Node000029" class="node">
<title>Node29</title>
<g id="a_Node000029"><a xlink:title=" ">
<polygon fill="#e0e0e0" stroke="#999999" points="1201.5,-151 1145.5,-151 1145.5,-132 1201.5,-132 1201.5,-151"/>
<text text-anchor="middle" x="1173.5" y="-139" font-family="Helvetica,sans-Serif" font-size="10.00">numeric</text>
</a>
</g>
</g>
<!-- Node22&#45;&gt;Node29 -->
<g id="edge35_Node000022_Node000029" class="edge">
<title>Node22&#45;&gt;Node29</title>
<g id="a_edge35_Node000022_Node000029"><a xlink:title=" ">
<path fill="none" stroke="#63b8ff" d="M956.43,-192.49C1004.22,-181.49 1087.05,-162.41 1135.4,-151.28"/>
<polygon fill="#63b8ff" stroke="#63b8ff" points="1136.21,-154.68 1145.17,-149.03 1134.64,-147.86 1136.21,-154.68"/>
</a>
</g>
</g>
<!-- Node30 -->
<g id="Node000030" class="node">
<title>Node30</title>
<g id="a_Node000030"><a xlink:title=" ">
<polygon fill="#e0e0e0" stroke="#999999" points="1259.5,-151 1219.5,-151 1219.5,-132 1259.5,-132 1259.5,-151"/>
<text text-anchor="middle" x="1239.5" y="-139" font-family="Helvetica,sans-Serif" font-size="10.00">span</text>
</a>
</g>
</g>
<!-- Node22&#45;&gt;Node30 -->
<g id="edge36_Node000022_Node000030" class="edge">
<title>Node22&#45;&gt;Node30</title>
<g id="a_edge36_Node000022_Node000030"><a xlink:title=" ">
<path fill="none" stroke="#63b8ff" d="M965.69,-194.74C1021.33,-186.83 1117.77,-171.93 1209.31,-151.05"/>
<polygon fill="#63b8ff" stroke="#63b8ff" points="1210.34,-154.4 1219.3,-148.74 1208.77,-147.58 1210.34,-154.4"/>
</a>
</g>
</g>
<!-- Node31 -->
<g id="Node000031" class="node">
<title>Node31</title>
<g id="a_Node000031"><a xlink:title=" ">
<polygon fill="#e0e0e0" stroke="#999999" points="1347,-151 1278,-151 1278,-132 1347,-132 1347,-151"/>
<text text-anchor="middle" x="1312.5" y="-139" font-family="Helvetica,sans-Serif" font-size="10.00">type_traits</text>
</a>
</g>
</g>
<!-- Node22&#45;&gt;Node31 -->
<g id="edge37_Node000022_Node000031" class="edge">
<title>Node22&#45;&gt;Node31</title>
<g id="a_edge37_Node000022_Node000031"><a xlink:title=" ">
<path fill="none" stroke="#63b8ff" d="M965.62,-195.12C1030.62,-186.67 1153.11,-170.16 1267.92,-151.02"/>
<polygon fill="#63b8ff" stroke="#63b8ff" points="1268.66,-154.45 1277.94,-149.34 1267.5,-147.54 1268.66,-154.45"/>
</a>
</g>
</g>
<!-- Node32 -->
<g id="Node000032" class="node">
<title>Node32</title>
<g id="a_Node000032"><a xlink:title=" ">
<polygon fill="#e0e0e0" stroke="#999999" points="1412,-151 1365,-151 1365,-132 1412,-132 1412,-151"/>
<text text-anchor="middle" x="1388.5" y="-139" font-family="Helvetica,sans-Serif" font-size="10.00">vector</text>
</a>
</g>
</g>
<!-- Node22&#45;&gt;Node32 -->
<g id="edge38_Node000022_Node000032" class="edge">
<title>Node22&#45;&gt;Node32</title>
<g id="a_edge38_Node000022_Node000032"><a xlink:title=" ">
<path fill="none" stroke="#63b8ff" d="M965.76,-197.93C1044.08,-192.26 1207.86,-178.3 1354.73,-151.1"/>
<polygon fill="#63b8ff" stroke="#63b8ff" points="1355.64,-154.49 1364.82,-149.2 1354.35,-147.61 1355.64,-154.49"/>
</a>
</g>
</g>
</g>
</svg>
