<?xml version="1.0" encoding="UTF-8" standalone="no"?>
<!DOCTYPE svg PUBLIC "-//W3C//DTD SVG 1.1//EN"
 "http://www.w3.org/Graphics/SVG/1.1/DTD/svg11.dtd">
<!-- Generated by graphviz version 2.43.0 (0)
 -->
<!-- Title: actor.hpp Pages: 1 -->
<svg width="1633pt" height="544pt"
 viewBox="0.00 0.00 1632.50 544.00" xmlns="http://www.w3.org/2000/svg" xmlns:xlink="http://www.w3.org/1999/xlink">
<g id="graph0" class="graph" transform="scale(1 1) rotate(0) translate(4 540)">
<title>actor.hpp</title>
<!-- Node1 -->
<g id="Node000001" class="node">
<title>Node1</title>
<g id="a_Node000001"><a xlink:title=" ">
<polygon fill="#999999" stroke="#666666" points="607,-536 545,-536 545,-517 607,-517 607,-536"/>
<text text-anchor="middle" x="576" y="-524" font-family="Helvetica,sans-Serif" font-size="10.00">actor.hpp</text>
</a>
</g>
</g>
<!-- Node2 -->
<g id="Node000002" class="node">
<title>Node2</title>
<g id="a_Node000002"><a xlink:href="dipolar__direct__sum_8hpp.html" target="_top" xlink:title=" ">
<polygon fill="white" stroke="#666666" points="407.5,-481 276.5,-481 276.5,-462 407.5,-462 407.5,-481"/>
<text text-anchor="middle" x="342" y="-469" font-family="Helvetica,sans-Serif" font-size="10.00">dipolar_direct_sum.hpp</text>
</a>
</g>
</g>
<!-- Node1&#45;&gt;Node2 -->
<g id="edge1_Node000001_Node000002" class="edge">
<title>Node1&#45;&gt;Node2</title>
<g id="a_edge1_Node000001_Node000002"><a xlink:title=" ">
<path fill="none" stroke="#63b8ff" d="M534.9,-516.19C491.09,-506.27 422.3,-490.69 379.79,-481.06"/>
<polygon fill="#63b8ff" stroke="#63b8ff" points="534.4,-519.67 544.93,-518.46 535.95,-512.84 534.4,-519.67"/>
</a>
</g>
</g>
<!-- Node34 -->
<g id="Node000034" class="node">
<title>Node34</title>
<g id="a_Node000034"><a xlink:href="dlc_8hpp.html" target="_top" xlink:title=" ">
<polygon fill="white" stroke="#666666" points="602,-420.5 550,-420.5 550,-401.5 602,-401.5 602,-420.5"/>
<text text-anchor="middle" x="576" y="-408.5" font-family="Helvetica,sans-Serif" font-size="10.00">dlc.hpp</text>
</a>
</g>
</g>
<!-- Node1&#45;&gt;Node34 -->
<g id="edge54_Node000001_Node000034" class="edge">
<title>Node1&#45;&gt;Node34</title>
<g id="a_edge54_Node000001_Node000034"><a xlink:title=" ">
<path fill="none" stroke="#63b8ff" d="M576,-506.65C576,-481.74 576,-438.88 576,-420.63"/>
<polygon fill="#63b8ff" stroke="#63b8ff" points="572.5,-506.97 576,-516.97 579.5,-506.97 572.5,-506.97"/>
</a>
</g>
</g>
<!-- Node35 -->
<g id="Node000035" class="node">
<title>Node35</title>
<g id="a_Node000035"><a xlink:href="dipolar__direct__sum__gpu_8hpp.html" target="_top" xlink:title=" ">
<polygon fill="white" stroke="#666666" points="532,-426 422,-426 422,-396 532,-396 532,-426"/>
<text text-anchor="start" x="430" y="-414" font-family="Helvetica,sans-Serif" font-size="10.00">dipolar_direct_sum</text>
<text text-anchor="middle" x="477" y="-403" font-family="Helvetica,sans-Serif" font-size="10.00">_gpu.hpp</text>
</a>
</g>
</g>
<!-- Node1&#45;&gt;Node35 -->
<g id="edge49_Node000001_Node000035" class="edge">
<title>Node1&#45;&gt;Node35</title>
<g id="a_edge49_Node000001_Node000035"><a xlink:title=" ">
<path fill="none" stroke="#63b8ff" d="M561.93,-509.37C542.52,-487.12 507.84,-447.36 489.37,-426.18"/>
<polygon fill="#63b8ff" stroke="#63b8ff" points="559.35,-511.73 568.56,-516.97 564.62,-507.13 559.35,-511.73"/>
</a>
</g>
</g>
<!-- Node38 -->
<g id="Node000038" class="node">
<title>Node38</title>
<g id="a_Node000038"><a xlink:href="dp3m_8hpp.html" target="_top" xlink:title="P3M algorithm for long&#45;range magnetic dipole&#45;dipole interaction.">
<polygon fill="white" stroke="#666666" points="841.5,-481 776.5,-481 776.5,-462 841.5,-462 841.5,-481"/>
<text text-anchor="middle" x="809" y="-469" font-family="Helvetica,sans-Serif" font-size="10.00">dp3m.hpp</text>
</a>
</g>
</g>
<!-- Node1&#45;&gt;Node38 -->
<g id="edge55_Node000001_Node000038" class="edge">
<title>Node1&#45;&gt;Node38</title>
<g id="a_edge55_Node000001_Node000038"><a xlink:title=" ">
<path fill="none" stroke="#63b8ff" d="M617.23,-516.12C662.58,-505.81 734.53,-489.44 776.2,-479.96"/>
<polygon fill="#63b8ff" stroke="#63b8ff" points="616.4,-512.72 607.42,-518.35 617.95,-519.55 616.4,-512.72"/>
</a>
</g>
</g>
<!-- Node41 -->
<g id="Node000041" class="node">
<title>Node41</title>
<g id="a_Node000041"><a xlink:href="core_2magnetostatics_2scafacos_8hpp.html" target="_top" xlink:title=" ">
<polygon fill="white" stroke="#666666" points="1556,-420.5 1476,-420.5 1476,-401.5 1556,-401.5 1556,-420.5"/>
<text text-anchor="middle" x="1516" y="-408.5" font-family="Helvetica,sans-Serif" font-size="10.00">scafacos.hpp</text>
</a>
</g>
</g>
<!-- Node1&#45;&gt;Node41 -->
<g id="edge66_Node000001_Node000041" class="edge">
<title>Node1&#45;&gt;Node41</title>
<g id="a_edge66_Node000001_Node000041"><a xlink:title=" ">
<path fill="none" stroke="#63b8ff" d="M617.29,-522.95C744.23,-514.68 1139.63,-485.58 1462,-426 1469.9,-424.54 1478.36,-422.55 1486.18,-420.54"/>
<polygon fill="#63b8ff" stroke="#63b8ff" points="616.98,-519.47 607.23,-523.6 617.44,-526.45 616.98,-519.47"/>
</a>
</g>
</g>
<!-- Node3 -->
<g id="Node000003" class="node">
<title>Node3</title>
<g id="a_Node000003"><a xlink:href="DipolarDirectSum_8hpp.html" target="_top" xlink:title=" ">
<polygon fill="white" stroke="#666666" points="272,-420.5 148,-420.5 148,-401.5 272,-401.5 272,-420.5"/>
<text text-anchor="middle" x="210" y="-408.5" font-family="Helvetica,sans-Serif" font-size="10.00">DipolarDirectSum.hpp</text>
</a>
</g>
</g>
<!-- Node2&#45;&gt;Node3 -->
<g id="edge2_Node000002_Node000003" class="edge">
<title>Node2&#45;&gt;Node3</title>
<g id="a_edge2_Node000002_Node000003"><a xlink:title=" ">
<path fill="none" stroke="#63b8ff" d="M313.64,-457.93C288.16,-446.64 251.42,-430.36 229.22,-420.52"/>
<polygon fill="#63b8ff" stroke="#63b8ff" points="312.25,-461.14 322.81,-461.99 315.08,-454.74 312.25,-461.14"/>
</a>
</g>
</g>
<!-- Node6 -->
<g id="Node000006" class="node">
<title>Node6</title>
<g id="a_Node000006"><a xlink:href="dipolar__direct__sum_8cpp.html" target="_top" xlink:title=" ">
<polygon fill="white" stroke="#666666" points="130,-420.5 0,-420.5 0,-401.5 130,-401.5 130,-420.5"/>
<text text-anchor="middle" x="65" y="-408.5" font-family="Helvetica,sans-Serif" font-size="10.00">dipolar_direct_sum.cpp</text>
</a>
</g>
</g>
<!-- Node2&#45;&gt;Node6 -->
<g id="edge6_Node000002_Node000006" class="edge">
<title>Node2&#45;&gt;Node6</title>
<g id="a_edge6_Node000002_Node000006"><a xlink:title=" ">
<path fill="none" stroke="#63b8ff" d="M291.77,-459.89C238.29,-448.6 154.69,-430.94 105.33,-420.52"/>
<polygon fill="#63b8ff" stroke="#63b8ff" points="291.21,-463.35 301.72,-461.99 292.66,-456.5 291.21,-463.35"/>
</a>
</g>
</g>
<!-- Node7 -->
<g id="Node000007" class="node">
<title>Node7</title>
<g id="a_Node000007"><a xlink:href="dipoles_8hpp.html" target="_top" xlink:title=" ">
<polygon fill="white" stroke="#666666" points="883.5,-354.5 810.5,-354.5 810.5,-335.5 883.5,-335.5 883.5,-354.5"/>
<text text-anchor="middle" x="847" y="-342.5" font-family="Helvetica,sans-Serif" font-size="10.00">dipoles.hpp</text>
</a>
</g>
</g>
<!-- Node2&#45;&gt;Node7 -->
<g id="edge7_Node000002_Node000007" class="edge">
<title>Node2&#45;&gt;Node7</title>
<g id="a_edge7_Node000002_Node000007"><a xlink:title=" ">
<path fill="none" stroke="#63b8ff" d="M417.8,-461.32C472.06,-453.93 546.62,-442.12 611,-426 691.79,-405.77 784.52,-370.73 825.55,-354.59"/>
<polygon fill="#63b8ff" stroke="#63b8ff" points="417.01,-457.89 407.56,-462.69 417.94,-464.83 417.01,-457.89"/>
</a>
</g>
</g>
<!-- Node32 -->
<g id="Node000032" class="node">
<title>Node32</title>
<g id="a_Node000032"><a xlink:href="dlc_8cpp.html" target="_top" xlink:title=" ">
<polygon fill="white" stroke="#666666" points="463.5,-294 412.5,-294 412.5,-275 463.5,-275 463.5,-294"/>
<text text-anchor="middle" x="438" y="-282" font-family="Helvetica,sans-Serif" font-size="10.00">dlc.cpp</text>
</a>
</g>
</g>
<!-- Node2&#45;&gt;Node32 -->
<g id="edge44_Node000002_Node000032" class="edge">
<title>Node2&#45;&gt;Node32</title>
<g id="a_edge44_Node000002_Node000032"><a xlink:title=" ">
<path fill="none" stroke="#63b8ff" d="M326.38,-454.4C308.03,-434.26 278.61,-397.79 267,-360 263.08,-347.25 258.85,-340.55 267,-330 284.68,-307.13 369.04,-293.81 412.29,-288.38"/>
<polygon fill="#63b8ff" stroke="#63b8ff" points="323.87,-456.85 333.26,-461.76 328.99,-452.07 323.87,-456.85"/>
</a>
</g>
</g>
<!-- Node2&#45;&gt;Node34 -->
<g id="edge45_Node000002_Node000034" class="edge">
<title>Node2&#45;&gt;Node34</title>
<g id="a_edge45_Node000002_Node000034"><a xlink:title=" ">
<path fill="none" stroke="#63b8ff" d="M400.27,-460.03C440.29,-452.22 494.39,-440.43 541,-426 546,-424.45 551.29,-422.5 556.21,-420.56"/>
<polygon fill="#63b8ff" stroke="#63b8ff" points="399.57,-456.6 390.42,-461.93 400.9,-463.48 399.57,-456.6"/>
</a>
</g>
</g>
<!-- Node4 -->
<g id="Node000004" class="node">
<title>Node4</title>
<g id="a_Node000004"><a xlink:href="DipolarLayerCorrection_8hpp.html" target="_top" xlink:title=" ">
<polygon fill="white" stroke="#666666" points="792,-354.5 642,-354.5 642,-335.5 792,-335.5 792,-354.5"/>
<text text-anchor="middle" x="717" y="-342.5" font-family="Helvetica,sans-Serif" font-size="10.00">DipolarLayerCorrection.hpp</text>
</a>
</g>
</g>
<!-- Node3&#45;&gt;Node4 -->
<g id="edge3_Node000003_Node000004" class="edge">
<title>Node3&#45;&gt;Node4</title>
<g id="a_edge3_Node000003_Node000004"><a xlink:title=" ">
<path fill="none" stroke="#63b8ff" d="M282.28,-400.88C380.28,-388.5 554,-366.58 649.48,-354.52"/>
<polygon fill="#63b8ff" stroke="#63b8ff" points="281.65,-397.43 272.17,-402.15 282.53,-404.37 281.65,-397.43"/>
</a>
</g>
</g>
<!-- Node5 -->
<g id="Node000005" class="node">
<title>Node5</title>
<g id="a_Node000005"><a xlink:href="magnetostatics_2initialize_8cpp.html" target="_top" xlink:title=" ">
<polygon fill="white" stroke="#666666" points="765.5,-239 686.5,-239 686.5,-220 765.5,-220 765.5,-239"/>
<text text-anchor="middle" x="726" y="-227" font-family="Helvetica,sans-Serif" font-size="10.00">initialize.cpp</text>
</a>
</g>
</g>
<!-- Node3&#45;&gt;Node5 -->
<g id="edge5_Node000003_Node000005" class="edge">
<title>Node3&#45;&gt;Node5</title>
<g id="a_edge5_Node000003_Node000005"><a xlink:title=" ">
<path fill="none" stroke="#63b8ff" d="M217.05,-391.97C224.87,-374.07 239.07,-346.92 259,-330 308.38,-288.06 331.39,-291.66 394,-275 497.27,-247.52 623.33,-236.56 686.27,-232.57"/>
<polygon fill="#63b8ff" stroke="#63b8ff" points="213.78,-390.72 213.19,-401.3 220.25,-393.4 213.78,-390.72"/>
</a>
</g>
</g>
<!-- Node4&#45;&gt;Node5 -->
<g id="edge4_Node000004_Node000005" class="edge">
<title>Node4&#45;&gt;Node5</title>
<g id="a_edge4_Node000004_Node000005"><a xlink:title=" ">
<path fill="none" stroke="#63b8ff" d="M654.92,-333.49C612.6,-324.92 561.97,-311.39 549,-294 543.95,-287.23 543.81,-281.66 549,-275 565.71,-253.57 639.47,-240.88 686.34,-234.84"/>
<polygon fill="#63b8ff" stroke="#63b8ff" points="654.43,-336.96 664.91,-335.46 655.78,-330.09 654.43,-336.96"/>
</a>
</g>
</g>
<!-- Node7&#45;&gt;Node5 -->
<g id="edge40_Node000007_Node000005" class="edge">
<title>Node7&#45;&gt;Node5</title>
<g id="a_edge40_Node000007_Node000005"><a xlink:title=" ">
<path fill="none" stroke="#63b8ff" d="M807.67,-331.78C787.74,-323.82 764.53,-311.6 749,-294 734.88,-278 729.21,-252.66 727.11,-239.34"/>
<polygon fill="#63b8ff" stroke="#63b8ff" points="806.55,-335.09 817.14,-335.34 809.02,-328.54 806.55,-335.09"/>
</a>
</g>
</g>
<!-- Node8 -->
<g id="Node000008" class="node">
<title>Node8</title>
<g id="a_Node000008"><a xlink:href="magnetostatics_2Actor_8impl_8hpp.html" target="_top" xlink:title=" ">
<polygon fill="white" stroke="#666666" points="845.5,-294 758.5,-294 758.5,-275 845.5,-275 845.5,-294"/>
<text text-anchor="middle" x="802" y="-282" font-family="Helvetica,sans-Serif" font-size="10.00">Actor.impl.hpp</text>
</a>
</g>
</g>
<!-- Node7&#45;&gt;Node8 -->
<g id="edge8_Node000007_Node000008" class="edge">
<title>Node7&#45;&gt;Node8</title>
<g id="a_edge8_Node000007_Node000008"><a xlink:title=" ">
<path fill="none" stroke="#63b8ff" d="M834.02,-327.13C825.73,-316.35 815.32,-302.82 808.67,-294.17"/>
<polygon fill="#63b8ff" stroke="#63b8ff" points="831.49,-329.58 840.36,-335.37 837.04,-325.31 831.49,-329.58"/>
</a>
</g>
</g>
<!-- Node9 -->
<g id="Node000009" class="node">
<title>Node9</title>
<g id="a_Node000009"><a xlink:href="System_8impl_8hpp.html" target="_top" xlink:title=" ">
<polygon fill="white" stroke="#666666" points="181.5,-294 82.5,-294 82.5,-275 181.5,-275 181.5,-294"/>
<text text-anchor="middle" x="132" y="-282" font-family="Helvetica,sans-Serif" font-size="10.00">System.impl.hpp</text>
</a>
</g>
</g>
<!-- Node7&#45;&gt;Node9 -->
<g id="edge10_Node000007_Node000009" class="edge">
<title>Node7&#45;&gt;Node9</title>
<g id="a_edge10_Node000007_Node000009"><a xlink:title=" ">
<path fill="none" stroke="#63b8ff" d="M812.81,-332.66C808.86,-331.63 804.86,-330.71 801,-330 682.06,-308.24 315.58,-292.49 181.66,-287.33"/>
<polygon fill="#63b8ff" stroke="#63b8ff" points="811.85,-336.02 822.43,-335.39 813.76,-329.29 811.85,-336.02"/>
</a>
</g>
</g>
<!-- Node13 -->
<g id="Node000013" class="node">
<title>Node13</title>
<g id="a_Node000013"><a xlink:href="dipoles_8cpp.html" target="_top" xlink:title=" ">
<polygon fill="white" stroke="#666666" points="702,-294 630,-294 630,-275 702,-275 702,-294"/>
<text text-anchor="middle" x="666" y="-282" font-family="Helvetica,sans-Serif" font-size="10.00">dipoles.cpp</text>
</a>
</g>
</g>
<!-- Node7&#45;&gt;Node13 -->
<g id="edge14_Node000007_Node000013" class="edge">
<title>Node7&#45;&gt;Node13</title>
<g id="a_edge14_Node000007_Node000013"><a xlink:title=" ">
<path fill="none" stroke="#63b8ff" d="M810.85,-332.32C775.85,-321 723.6,-304.12 692.35,-294.02"/>
<polygon fill="#63b8ff" stroke="#63b8ff" points="810.09,-335.75 820.68,-335.49 812.24,-329.09 810.09,-335.75"/>
</a>
</g>
</g>
<!-- Node14 -->
<g id="Node000014" class="node">
<title>Node14</title>
<g id="a_Node000014"><a xlink:href="dipoles__inline_8hpp.html" target="_top" xlink:title=" ">
<polygon fill="white" stroke="#666666" points="1121.5,-294 1016.5,-294 1016.5,-275 1121.5,-275 1121.5,-294"/>
<text text-anchor="middle" x="1069" y="-282" font-family="Helvetica,sans-Serif" font-size="10.00">dipoles_inline.hpp</text>
</a>
</g>
</g>
<!-- Node7&#45;&gt;Node14 -->
<g id="edge15_Node000007_Node000014" class="edge">
<title>Node7&#45;&gt;Node14</title>
<g id="a_edge15_Node000007_Node000014"><a xlink:title=" ">
<path fill="none" stroke="#63b8ff" d="M889.14,-332.9C932.06,-321.58 997.7,-304.29 1036.68,-294.02"/>
<polygon fill="#63b8ff" stroke="#63b8ff" points="888.06,-329.56 879.28,-335.49 889.84,-336.33 888.06,-329.56"/>
</a>
</g>
</g>
<!-- Node20 -->
<g id="Node000020" class="node">
<title>Node20</title>
<g id="a_Node000020"><a xlink:href="energy_8cpp.html" target="_top" xlink:title=" ">
<polygon fill="white" stroke="#666666" points="1381.5,-184 1312.5,-184 1312.5,-165 1381.5,-165 1381.5,-184"/>
<text text-anchor="middle" x="1347" y="-172" font-family="Helvetica,sans-Serif" font-size="10.00">energy.cpp</text>
</a>
</g>
</g>
<!-- Node7&#45;&gt;Node20 -->
<g id="edge38_Node000007_Node000020" class="edge">
<title>Node7&#45;&gt;Node20</title>
<g id="a_edge38_Node000007_Node000020"><a xlink:title=" ">
<path fill="none" stroke="#63b8ff" d="M893.74,-340.07C950.74,-334.3 1049.43,-321.13 1130,-294 1180.67,-276.93 1190.05,-264.6 1237,-239 1271.65,-220.11 1311.63,-196.59 1332.54,-184.15"/>
<polygon fill="#63b8ff" stroke="#63b8ff" points="893.21,-336.6 883.6,-341.06 893.89,-343.57 893.21,-336.6"/>
</a>
</g>
</g>
<!-- Node22 -->
<g id="Node000022" class="node">
<title>Node22</title>
<g id="a_Node000022"><a xlink:href="forces_8cpp.html" target="_top" xlink:title=" ">
<polygon fill="white" stroke="#666666" points="828.5,-74 761.5,-74 761.5,-55 828.5,-55 828.5,-74"/>
<text text-anchor="middle" x="795" y="-62" font-family="Helvetica,sans-Serif" font-size="10.00">forces.cpp</text>
</a>
</g>
</g>
<!-- Node7&#45;&gt;Node22 -->
<g id="edge39_Node000007_Node000022" class="edge">
<title>Node7&#45;&gt;Node22</title>
<g id="a_edge39_Node000007_Node000022"><a xlink:title=" ">
<path fill="none" stroke="#63b8ff" d="M811.55,-332.62C808.01,-331.66 804.45,-330.77 801,-330 690.56,-305.46 648.79,-347.3 549,-294 515.55,-276.13 492,-268.42 492,-230.5 492,-230.5 492,-230.5 492,-173.5 492,-116.82 682.53,-82.12 761.42,-70.18"/>
<polygon fill="#63b8ff" stroke="#63b8ff" points="810.82,-336.05 821.4,-335.45 812.75,-329.32 810.82,-336.05"/>
</a>
</g>
</g>
<!-- Node25 -->
<g id="Node000025" class="node">
<title>Node25</title>
<g id="a_Node000025"><a xlink:href="dp3m__heffte_8impl_8hpp.html" target="_top" xlink:title=" ">
<polygon fill="white" stroke="#666666" points="1177,-74 1053,-74 1053,-55 1177,-55 1177,-74"/>
<text text-anchor="middle" x="1115" y="-62" font-family="Helvetica,sans-Serif" font-size="10.00">dp3m_heffte.impl.hpp</text>
</a>
</g>
</g>
<!-- Node7&#45;&gt;Node25 -->
<g id="edge37_Node000007_Node000025" class="edge">
<title>Node7&#45;&gt;Node25</title>
<g id="a_edge37_Node000007_Node000025"><a xlink:title=" ">
<path fill="none" stroke="#63b8ff" d="M868.29,-329.62C894.54,-311.08 939.3,-276.7 969,-239 991.88,-209.96 984.61,-194.42 1007,-165 1036.33,-126.45 1081.61,-90.31 1103.01,-74.24"/>
<polygon fill="#63b8ff" stroke="#63b8ff" points="866.05,-326.91 859.84,-335.5 870.05,-332.66 866.05,-326.91"/>
</a>
</g>
</g>
<!-- Node30 -->
<g id="Node000030" class="node">
<title>Node30</title>
<g id="a_Node000030"><a xlink:href="pressure__inline_8hpp.html" target="_top" xlink:title=" ">
<polygon fill="white" stroke="#666666" points="796,-184 684,-184 684,-165 796,-165 796,-184"/>
<text text-anchor="middle" x="740" y="-172" font-family="Helvetica,sans-Serif" font-size="10.00">pressure_inline.hpp</text>
</a>
</g>
</g>
<!-- Node7&#45;&gt;Node30 -->
<g id="edge43_Node000007_Node000030" class="edge">
<title>Node7&#45;&gt;Node30</title>
<g id="a_edge43_Node000007_Node000030"><a xlink:title=" ">
<path fill="none" stroke="#63b8ff" d="M866.47,-328.57C881.4,-314.75 897.91,-293.83 888,-275 873.66,-247.74 792.18,-202.73 756.61,-184.05"/>
<polygon fill="#63b8ff" stroke="#63b8ff" points="863.79,-326.26 858.52,-335.45 868.37,-331.55 863.79,-326.26"/>
</a>
</g>
</g>
<!-- Node31 -->
<g id="Node000031" class="node">
<title>Node31</title>
<g id="a_Node000031"><a xlink:href="pressure_8cpp.html" target="_top" xlink:title=" ">
<polygon fill="white" stroke="#666666" points="737.5,-129 658.5,-129 658.5,-110 737.5,-110 737.5,-129"/>
<text text-anchor="middle" x="698" y="-117" font-family="Helvetica,sans-Serif" font-size="10.00">pressure.cpp</text>
</a>
</g>
</g>
<!-- Node7&#45;&gt;Node31 -->
<g id="edge42_Node000007_Node000031" class="edge">
<title>Node7&#45;&gt;Node31</title>
<g id="a_edge42_Node000007_Node000031"><a xlink:title=" ">
<path fill="none" stroke="#63b8ff" d="M854.24,-325.53C858.73,-310.99 862.22,-290.62 854,-275 833.91,-236.81 812.36,-239.75 774,-220 732.38,-198.57 701.86,-222.35 675,-184 662.89,-166.71 679.18,-142.34 689.92,-129.4"/>
<polygon fill="#63b8ff" stroke="#63b8ff" points="850.81,-324.75 850.8,-335.35 857.41,-327.07 850.81,-324.75"/>
</a>
</g>
</g>
<!-- Node7&#45;&gt;Node32 -->
<g id="edge36_Node000007_Node000032" class="edge">
<title>Node7&#45;&gt;Node32</title>
<g id="a_edge36_Node000007_Node000032"><a xlink:title=" ">
<path fill="none" stroke="#63b8ff" d="M812.17,-332.67C808.42,-331.67 804.65,-330.75 801,-330 659.53,-300.85 620.6,-317.04 478,-294 473.37,-293.25 468.48,-292.33 463.75,-291.36"/>
<polygon fill="#63b8ff" stroke="#63b8ff" points="811.33,-336.07 821.91,-335.45 813.26,-329.34 811.33,-336.07"/>
</a>
</g>
</g>
<!-- Node33 -->
<g id="Node000033" class="node">
<title>Node33</title>
<g id="a_Node000033"><a xlink:href="npt_8cpp.html" target="_top" xlink:title=" ">
<polygon fill="white" stroke="#666666" points="611.5,-294 558.5,-294 558.5,-275 611.5,-275 611.5,-294"/>
<text text-anchor="middle" x="585" y="-282" font-family="Helvetica,sans-Serif" font-size="10.00">npt.cpp</text>
</a>
</g>
</g>
<!-- Node7&#45;&gt;Node33 -->
<g id="edge41_Node000007_Node000033" class="edge">
<title>Node7&#45;&gt;Node33</title>
<g id="a_edge41_Node000007_Node000033"><a xlink:title=" ">
<path fill="none" stroke="#63b8ff" d="M810.68,-332.59C807.42,-331.67 804.16,-330.79 801,-330 721.88,-310.1 700.71,-311.38 621,-294 617.99,-293.34 614.84,-292.63 611.71,-291.92"/>
<polygon fill="#63b8ff" stroke="#63b8ff" points="809.79,-335.97 820.37,-335.41 811.75,-329.25 809.79,-335.97"/>
</a>
</g>
</g>
<!-- Node8&#45;&gt;Node5 -->
<g id="edge9_Node000008_Node000005" class="edge">
<title>Node8&#45;&gt;Node5</title>
<g id="a_edge9_Node000008_Node000005"><a xlink:title=" ">
<path fill="none" stroke="#63b8ff" d="M781.42,-269.15C767.69,-259.57 750.07,-247.29 738.43,-239.17"/>
<polygon fill="#63b8ff" stroke="#63b8ff" points="779.58,-272.14 789.79,-274.98 783.59,-266.39 779.58,-272.14"/>
</a>
</g>
</g>
<!-- Node10 -->
<g id="Node000010" class="node">
<title>Node10</title>
<g id="a_Node000010"><a xlink:href="core_2system_2System_8cpp.html" target="_top" xlink:title=" ">
<polygon fill="white" stroke="#666666" points="424,-74 350,-74 350,-55 424,-55 424,-74"/>
<text text-anchor="middle" x="387" y="-62" font-family="Helvetica,sans-Serif" font-size="10.00">System.cpp</text>
</a>
</g>
</g>
<!-- Node9&#45;&gt;Node10 -->
<g id="edge11_Node000009_Node000010" class="edge">
<title>Node9&#45;&gt;Node10</title>
<g id="a_edge11_Node000009_Node000010"><a xlink:title=" ">
<path fill="none" stroke="#63b8ff" d="M121.99,-265.57C115.98,-252.23 110.93,-233.98 119,-220 169.38,-132.81 289.73,-90.46 350.52,-74.04"/>
<polygon fill="#63b8ff" stroke="#63b8ff" points="118.94,-267.31 126.56,-274.67 125.2,-264.16 118.94,-267.31"/>
</a>
</g>
</g>
<!-- Node11 -->
<g id="Node000011" class="node">
<title>Node11</title>
<g id="a_Node000011"><a xlink:href="script__interface_2system_2System_8cpp.html" target="_top" xlink:title=" ">
<polygon fill="white" stroke="#666666" points="202,-239 128,-239 128,-220 202,-220 202,-239"/>
<text text-anchor="middle" x="165" y="-227" font-family="Helvetica,sans-Serif" font-size="10.00">System.cpp</text>
</a>
</g>
</g>
<!-- Node9&#45;&gt;Node11 -->
<g id="edge12_Node000009_Node000011" class="edge">
<title>Node9&#45;&gt;Node11</title>
<g id="a_edge12_Node000009_Node000011"><a xlink:title=" ">
<path fill="none" stroke="#63b8ff" d="M142.83,-266.1C148.47,-257.04 155.12,-246.37 159.65,-239.09"/>
<polygon fill="#63b8ff" stroke="#63b8ff" points="139.76,-264.41 137.45,-274.75 145.71,-268.11 139.76,-264.41"/>
</a>
</g>
</g>
<!-- Node12 -->
<g id="Node000012" class="node">
<title>Node12</title>
<g id="a_Node000012"><a xlink:href="integrate_8cpp.html" target="_top" xlink:title="Molecular dynamics integrator.">
<polygon fill="white" stroke="#666666" points="301.5,-239 220.5,-239 220.5,-220 301.5,-220 301.5,-239"/>
<text text-anchor="middle" x="261" y="-227" font-family="Helvetica,sans-Serif" font-size="10.00">integrate.cpp</text>
</a>
</g>
</g>
<!-- Node9&#45;&gt;Node12 -->
<g id="edge13_Node000009_Node000012" class="edge">
<title>Node9&#45;&gt;Node12</title>
<g id="a_edge13_Node000009_Node000012"><a xlink:title=" ">
<path fill="none" stroke="#63b8ff" d="M162.04,-271.16C185.92,-261.35 218.72,-247.87 239.9,-239.17"/>
<polygon fill="#63b8ff" stroke="#63b8ff" points="160.65,-267.95 152.73,-274.98 163.31,-274.42 160.65,-267.95"/>
</a>
</g>
</g>
<!-- Node15 -->
<g id="Node000015" class="node">
<title>Node15</title>
<g id="a_Node000015"><a xlink:href="energy__inline_8hpp.html" target="_top" xlink:title="Energy calculation.">
<polygon fill="white" stroke="#666666" points="1228,-239 1124,-239 1124,-220 1228,-220 1228,-239"/>
<text text-anchor="middle" x="1176" y="-227" font-family="Helvetica,sans-Serif" font-size="10.00">energy_inline.hpp</text>
</a>
</g>
</g>
<!-- Node14&#45;&gt;Node15 -->
<g id="edge16_Node000014_Node000015" class="edge">
<title>Node14&#45;&gt;Node15</title>
<g id="a_edge16_Node000014_Node000015"><a xlink:title=" ">
<path fill="none" stroke="#63b8ff" d="M1095.24,-270.5C1114.93,-260.75 1141.32,-247.68 1158.5,-239.17"/>
<polygon fill="#63b8ff" stroke="#63b8ff" points="1093.6,-267.41 1086.19,-274.98 1096.71,-273.68 1093.6,-267.41"/>
</a>
</g>
</g>
<!-- Node21 -->
<g id="Node000021" class="node">
<title>Node21</title>
<g id="a_Node000021"><a xlink:href="forces__inline_8hpp.html" target="_top" xlink:title="Force calculation.">
<polygon fill="white" stroke="#666666" points="960,-239 860,-239 860,-220 960,-220 960,-239"/>
<text text-anchor="middle" x="910" y="-227" font-family="Helvetica,sans-Serif" font-size="10.00">forces_inline.hpp</text>
</a>
</g>
</g>
<!-- Node14&#45;&gt;Node21 -->
<g id="edge22_Node000014_Node000021" class="edge">
<title>Node14&#45;&gt;Node21</title>
<g id="a_edge22_Node000014_Node000021"><a xlink:title=" ">
<path fill="none" stroke="#63b8ff" d="M1033.9,-271.8C1004.22,-261.91 962.4,-247.97 935.75,-239.08"/>
<polygon fill="#63b8ff" stroke="#63b8ff" points="1032.86,-275.14 1043.45,-274.98 1035.07,-268.5 1032.86,-275.14"/>
</a>
</g>
</g>
<!-- Node16 -->
<g id="Node000016" class="node">
<title>Node16</title>
<g id="a_Node000016"><a xlink:href="core_2pair__criteria_2EnergyCriterion_8hpp.html" target="_top" xlink:title=" ">
<polygon fill="white" stroke="#666666" points="1294.5,-184 1181.5,-184 1181.5,-165 1294.5,-165 1294.5,-184"/>
<text text-anchor="middle" x="1238" y="-172" font-family="Helvetica,sans-Serif" font-size="10.00">EnergyCriterion.hpp</text>
</a>
</g>
</g>
<!-- Node15&#45;&gt;Node16 -->
<g id="edge17_Node000015_Node000016" class="edge">
<title>Node15&#45;&gt;Node16</title>
<g id="a_edge17_Node000015_Node000016"><a xlink:title=" ">
<path fill="none" stroke="#63b8ff" d="M1193.75,-213.32C1204.81,-203.87 1218.63,-192.06 1227.86,-184.17"/>
<polygon fill="#63b8ff" stroke="#63b8ff" points="1191.29,-210.83 1185.96,-219.98 1195.84,-216.15 1191.29,-210.83"/>
</a>
</g>
</g>
<!-- Node19 -->
<g id="Node000019" class="node">
<title>Node19</title>
<g id="a_Node000019"><a xlink:href="ShapeBasedConstraint_8cpp.html" target="_top" xlink:title=" ">
<polygon fill="white" stroke="#666666" points="1163.5,-184 1016.5,-184 1016.5,-165 1163.5,-165 1163.5,-184"/>
<text text-anchor="middle" x="1090" y="-172" font-family="Helvetica,sans-Serif" font-size="10.00">ShapeBasedConstraint.cpp</text>
</a>
</g>
</g>
<!-- Node15&#45;&gt;Node19 -->
<g id="edge20_Node000015_Node000019" class="edge">
<title>Node15&#45;&gt;Node19</title>
<g id="a_edge20_Node000015_Node000019"><a xlink:title=" ">
<path fill="none" stroke="#63b8ff" d="M1153.6,-214.7C1137.93,-205.04 1117.49,-192.44 1104.07,-184.17"/>
<polygon fill="#63b8ff" stroke="#63b8ff" points="1151.83,-217.72 1162.18,-219.98 1155.51,-211.76 1151.83,-217.72"/>
</a>
</g>
</g>
<!-- Node15&#45;&gt;Node20 -->
<g id="edge21_Node000015_Node000020" class="edge">
<title>Node15&#45;&gt;Node20</title>
<g id="a_edge21_Node000015_Node000020"><a xlink:title=" ">
<path fill="none" stroke="#63b8ff" d="M1213.34,-216.93C1245.28,-207.03 1290.52,-193.01 1319.31,-184.08"/>
<polygon fill="#63b8ff" stroke="#63b8ff" points="1211.99,-213.68 1203.47,-219.98 1214.06,-220.37 1211.99,-213.68"/>
</a>
</g>
</g>
<!-- Node17 -->
<g id="Node000017" class="node">
<title>Node17</title>
<g id="a_Node000017"><a xlink:href="script__interface_2pair__criteria_2EnergyCriterion_8hpp.html" target="_top" xlink:title=" ">
<polygon fill="white" stroke="#666666" points="1294.5,-129 1181.5,-129 1181.5,-110 1294.5,-110 1294.5,-129"/>
<text text-anchor="middle" x="1238" y="-117" font-family="Helvetica,sans-Serif" font-size="10.00">EnergyCriterion.hpp</text>
</a>
</g>
</g>
<!-- Node16&#45;&gt;Node17 -->
<g id="edge18_Node000016_Node000017" class="edge">
<title>Node16&#45;&gt;Node17</title>
<g id="a_edge18_Node000016_Node000017"><a xlink:title=" ">
<path fill="none" stroke="#63b8ff" d="M1238,-154.66C1238,-145.93 1238,-135.99 1238,-129.09"/>
<polygon fill="#63b8ff" stroke="#63b8ff" points="1234.5,-154.75 1238,-164.75 1241.5,-154.75 1234.5,-154.75"/>
</a>
</g>
</g>
<!-- Node18 -->
<g id="Node000018" class="node">
<title>Node18</title>
<g id="a_Node000018"><a xlink:href="pair__criteria_2initialize_8cpp.html" target="_top" xlink:title=" ">
<polygon fill="white" stroke="#666666" points="1277.5,-74 1198.5,-74 1198.5,-55 1277.5,-55 1277.5,-74"/>
<text text-anchor="middle" x="1238" y="-62" font-family="Helvetica,sans-Serif" font-size="10.00">initialize.cpp</text>
</a>
</g>
</g>
<!-- Node17&#45;&gt;Node18 -->
<g id="edge19_Node000017_Node000018" class="edge">
<title>Node17&#45;&gt;Node18</title>
<g id="a_edge19_Node000017_Node000018"><a xlink:title=" ">
<path fill="none" stroke="#63b8ff" d="M1238,-99.66C1238,-90.93 1238,-80.99 1238,-74.09"/>
<polygon fill="#63b8ff" stroke="#63b8ff" points="1234.5,-99.75 1238,-109.75 1241.5,-99.75 1234.5,-99.75"/>
</a>
</g>
</g>
<!-- Node21&#45;&gt;Node19 -->
<g id="edge23_Node000021_Node000019" class="edge">
<title>Node21&#45;&gt;Node19</title>
<g id="a_edge23_Node000021_Node000019"><a xlink:title=" ">
<path fill="none" stroke="#63b8ff" d="M948.87,-217.06C982.51,-207.15 1030.42,-193.04 1060.85,-184.08"/>
<polygon fill="#63b8ff" stroke="#63b8ff" points="947.52,-213.8 938.92,-219.98 949.5,-220.52 947.52,-213.8"/>
</a>
</g>
</g>
<!-- Node21&#45;&gt;Node22 -->
<g id="edge24_Node000021_Node000022" class="edge">
<title>Node21&#45;&gt;Node22</title>
<g id="a_edge24_Node000021_Node000022"><a xlink:title=" ">
<path fill="none" stroke="#63b8ff" d="M882.42,-215.2C869.05,-207.61 853.62,-197.01 843,-184 814.5,-149.1 801.02,-95.04 796.66,-74.15"/>
<polygon fill="#63b8ff" stroke="#63b8ff" points="880.8,-218.31 891.27,-219.97 884.12,-212.15 880.8,-218.31"/>
</a>
</g>
</g>
<!-- Node23 -->
<g id="Node000023" class="node">
<title>Node23</title>
<g id="a_Node000023"><a xlink:href="forces__cabana_8hpp.html" target="_top" xlink:title=" ">
<polygon fill="white" stroke="#666666" points="960,-184 852,-184 852,-165 960,-165 960,-184"/>
<text text-anchor="middle" x="906" y="-172" font-family="Helvetica,sans-Serif" font-size="10.00">forces_cabana.hpp</text>
</a>
</g>
</g>
<!-- Node21&#45;&gt;Node23 -->
<g id="edge25_Node000021_Node000023" class="edge">
<title>Node21&#45;&gt;Node23</title>
<g id="a_edge25_Node000021_Node000023"><a xlink:title=" ">
<path fill="none" stroke="#63b8ff" d="M908.58,-209.66C907.92,-200.93 907.17,-190.99 906.65,-184.09"/>
<polygon fill="#63b8ff" stroke="#63b8ff" points="905.1,-210.04 909.34,-219.75 912.08,-209.51 905.1,-210.04"/>
</a>
</g>
</g>
<!-- Node21&#45;&gt;Node30 -->
<g id="edge34_Node000021_Node000030" class="edge">
<title>Node21&#45;&gt;Node30</title>
<g id="a_edge34_Node000021_Node000030"><a xlink:title=" ">
<path fill="none" stroke="#63b8ff" d="M872.88,-216.93C841.13,-207.03 796.15,-193.01 767.53,-184.08"/>
<polygon fill="#63b8ff" stroke="#63b8ff" points="872.1,-220.35 882.69,-219.98 874.18,-213.67 872.1,-220.35"/>
</a>
</g>
</g>
<!-- Node24 -->
<g id="Node000024" class="node">
<title>Node24</title>
<g id="a_Node000024"><a xlink:href="short__range__cabana_8hpp.html" target="_top" xlink:title=" ">
<polygon fill="white" stroke="#666666" points="974,-129 838,-129 838,-110 974,-110 974,-129"/>
<text text-anchor="middle" x="906" y="-117" font-family="Helvetica,sans-Serif" font-size="10.00">short_range_cabana.hpp</text>
</a>
</g>
</g>
<!-- Node23&#45;&gt;Node24 -->
<g id="edge26_Node000023_Node000024" class="edge">
<title>Node23&#45;&gt;Node24</title>
<g id="a_edge26_Node000023_Node000024"><a xlink:title=" ">
<path fill="none" stroke="#63b8ff" d="M906,-154.66C906,-145.93 906,-135.99 906,-129.09"/>
<polygon fill="#63b8ff" stroke="#63b8ff" points="902.5,-154.75 906,-164.75 909.5,-154.75 902.5,-154.75"/>
</a>
</g>
</g>
<!-- Node24&#45;&gt;Node10 -->
<g id="edge27_Node000024_Node000010" class="edge">
<title>Node24&#45;&gt;Node10</title>
<g id="a_edge27_Node000024_Node000010"><a xlink:title=" ">
<path fill="none" stroke="#63b8ff" d="M827.87,-110.52C714.36,-98.93 508.28,-77.89 424.21,-69.3"/>
<polygon fill="#63b8ff" stroke="#63b8ff" points="827.58,-114.01 837.88,-111.54 828.29,-107.05 827.58,-114.01"/>
</a>
</g>
</g>
<!-- Node24&#45;&gt;Node22 -->
<g id="edge30_Node000024_Node000022" class="edge">
<title>Node24&#45;&gt;Node22</title>
<g id="a_edge30_Node000024_Node000022"><a xlink:title=" ">
<path fill="none" stroke="#63b8ff" d="M879.05,-105.63C858.61,-95.87 831.05,-82.71 813.16,-74.17"/>
<polygon fill="#63b8ff" stroke="#63b8ff" points="877.63,-108.83 888.17,-109.98 880.65,-102.52 877.63,-108.83"/>
</a>
</g>
</g>
<!-- Node24&#45;&gt;Node25 -->
<g id="edge28_Node000024_Node000025" class="edge">
<title>Node24&#45;&gt;Node25</title>
<g id="a_edge28_Node000024_Node000025"><a xlink:title=" ">
<path fill="none" stroke="#63b8ff" d="M949.37,-107.5C988.51,-97.58 1045.28,-83.18 1081.16,-74.08"/>
<polygon fill="#63b8ff" stroke="#63b8ff" points="948.41,-104.13 939.58,-109.98 950.13,-110.92 948.41,-104.13"/>
</a>
</g>
</g>
<!-- Node27 -->
<g id="Node000027" class="node">
<title>Node27</title>
<g id="a_Node000027"><a xlink:href="icc_8cpp.html" target="_top" xlink:title="Functions to compute the electric field acting on the induced charges, excluding forces other than th...">
<polygon fill="white" stroke="#666666" points="1033,-74 983,-74 983,-55 1033,-55 1033,-74"/>
<text text-anchor="middle" x="1008" y="-62" font-family="Helvetica,sans-Serif" font-size="10.00">icc.cpp</text>
</a>
</g>
</g>
<!-- Node24&#45;&gt;Node27 -->
<g id="edge31_Node000024_Node000027" class="edge">
<title>Node24&#45;&gt;Node27</title>
<g id="a_edge31_Node000024_Node000027"><a xlink:title=" ">
<path fill="none" stroke="#63b8ff" d="M931.27,-105.37C950.01,-95.63 975.02,-82.64 991.31,-74.17"/>
<polygon fill="#63b8ff" stroke="#63b8ff" points="929.65,-102.27 922.39,-109.98 932.88,-108.48 929.65,-102.27"/>
</a>
</g>
</g>
<!-- Node28 -->
<g id="Node000028" class="node">
<title>Node28</title>
<g id="a_Node000028"><a xlink:href="p3m__heffte_8impl_8hpp.html" target="_top" xlink:title=" ">
<polygon fill="white" stroke="#666666" points="965,-74 847,-74 847,-55 965,-55 965,-74"/>
<text text-anchor="middle" x="906" y="-62" font-family="Helvetica,sans-Serif" font-size="10.00">p3m_heffte.impl.hpp</text>
</a>
</g>
</g>
<!-- Node24&#45;&gt;Node28 -->
<g id="edge32_Node000024_Node000028" class="edge">
<title>Node24&#45;&gt;Node28</title>
<g id="a_edge32_Node000024_Node000028"><a xlink:title=" ">
<path fill="none" stroke="#63b8ff" d="M906,-99.66C906,-90.93 906,-80.99 906,-74.09"/>
<polygon fill="#63b8ff" stroke="#63b8ff" points="902.5,-99.75 906,-109.75 909.5,-99.75 902.5,-99.75"/>
</a>
</g>
</g>
<!-- Node26 -->
<g id="Node000026" class="node">
<title>Node26</title>
<g id="a_Node000026"><a xlink:href="dp3m__heffte_8cpp.html" target="_top" xlink:title=" ">
<polygon fill="white" stroke="#666666" points="1164,-19 1066,-19 1066,0 1164,0 1164,-19"/>
<text text-anchor="middle" x="1115" y="-7" font-family="Helvetica,sans-Serif" font-size="10.00">dp3m_heffte.cpp</text>
</a>
</g>
</g>
<!-- Node25&#45;&gt;Node26 -->
<g id="edge29_Node000025_Node000026" class="edge">
<title>Node25&#45;&gt;Node26</title>
<g id="a_edge29_Node000025_Node000026"><a xlink:title=" ">
<path fill="none" stroke="#63b8ff" d="M1115,-44.66C1115,-35.93 1115,-25.99 1115,-19.09"/>
<polygon fill="#63b8ff" stroke="#63b8ff" points="1111.5,-44.75 1115,-54.75 1118.5,-44.75 1111.5,-44.75"/>
</a>
</g>
</g>
<!-- Node29 -->
<g id="Node000029" class="node">
<title>Node29</title>
<g id="a_Node000029"><a xlink:href="p3m__heffte_8cpp.html" target="_top" xlink:title=" ">
<polygon fill="white" stroke="#666666" points="952,-19 860,-19 860,0 952,0 952,-19"/>
<text text-anchor="middle" x="906" y="-7" font-family="Helvetica,sans-Serif" font-size="10.00">p3m_heffte.cpp</text>
</a>
</g>
</g>
<!-- Node28&#45;&gt;Node29 -->
<g id="edge33_Node000028_Node000029" class="edge">
<title>Node28&#45;&gt;Node29</title>
<g id="a_edge33_Node000028_Node000029"><a xlink:title=" ">
<path fill="none" stroke="#63b8ff" d="M906,-44.66C906,-35.93 906,-25.99 906,-19.09"/>
<polygon fill="#63b8ff" stroke="#63b8ff" points="902.5,-44.75 906,-54.75 909.5,-44.75 902.5,-44.75"/>
</a>
</g>
</g>
<!-- Node30&#45;&gt;Node31 -->
<g id="edge35_Node000030_Node000031" class="edge">
<title>Node30&#45;&gt;Node31</title>
<g id="a_edge35_Node000030_Node000031"><a xlink:title=" ">
<path fill="none" stroke="#63b8ff" d="M726.67,-156.67C719.39,-147.5 710.7,-136.52 704.81,-129.09"/>
<polygon fill="#63b8ff" stroke="#63b8ff" points="724.11,-159.08 733.06,-164.75 729.6,-154.74 724.11,-159.08"/>
</a>
</g>
</g>
<!-- Node34&#45;&gt;Node4 -->
<g id="edge46_Node000034_Node000004" class="edge">
<title>Node34&#45;&gt;Node4</title>
<g id="a_edge46_Node000034_Node000004"><a xlink:title=" ">
<path fill="none" stroke="#63b8ff" d="M604.21,-397.19C632,-384.58 673.69,-365.66 697.84,-354.7"/>
<polygon fill="#63b8ff" stroke="#63b8ff" points="602.68,-394.05 595.02,-401.37 605.57,-400.42 602.68,-394.05"/>
</a>
</g>
</g>
<!-- Node34&#45;&gt;Node7 -->
<g id="edge47_Node000034_Node000007" class="edge">
<title>Node34&#45;&gt;Node7</title>
<g id="a_edge47_Node000034_Node000007"><a xlink:title=" ">
<path fill="none" stroke="#63b8ff" d="M608.4,-398.22C610.96,-397.42 613.51,-396.67 616,-396 696.85,-374.11 719.71,-380.22 801,-360 807.32,-358.43 814.06,-356.51 820.37,-354.61"/>
<polygon fill="#63b8ff" stroke="#63b8ff" points="607.07,-394.97 598.67,-401.43 609.26,-401.62 607.07,-394.97"/>
</a>
</g>
</g>
<!-- Node34&#45;&gt;Node32 -->
<g id="edge48_Node000034_Node000032" class="edge">
<title>Node34&#45;&gt;Node32</title>
<g id="a_edge48_Node000034_Node000032"><a xlink:title=" ">
<path fill="none" stroke="#63b8ff" d="M576.07,-391.32C575.15,-373.49 571.07,-346.92 556,-330 543.48,-315.94 494.51,-300.68 463.73,-292.19"/>
<polygon fill="#63b8ff" stroke="#63b8ff" points="572.57,-391.43 576.3,-401.35 579.57,-391.27 572.57,-391.43"/>
</a>
</g>
</g>
<!-- Node35&#45;&gt;Node7 -->
<g id="edge53_Node000035_Node000007" class="edge">
<title>Node35&#45;&gt;Node7</title>
<g id="a_edge53_Node000035_Node000007"><a xlink:title=" ">
<path fill="none" stroke="#63b8ff" d="M542.05,-395.91C657.62,-376.02 690.18,-384.38 801,-360 807.69,-358.53 814.81,-356.56 821.4,-354.57"/>
<polygon fill="#63b8ff" stroke="#63b8ff" points="541.35,-392.48 532.1,-397.66 542.56,-399.38 541.35,-392.48"/>
</a>
</g>
</g>
<!-- Node36 -->
<g id="Node000036" class="node">
<title>Node36</title>
<g id="a_Node000036"><a xlink:href="DipolarDirectSumGpu_8hpp.html" target="_top" xlink:title=" ">
<polygon fill="white" stroke="#666666" points="547.5,-354.5 404.5,-354.5 404.5,-335.5 547.5,-335.5 547.5,-354.5"/>
<text text-anchor="middle" x="476" y="-342.5" font-family="Helvetica,sans-Serif" font-size="10.00">DipolarDirectSumGpu.hpp</text>
</a>
</g>
</g>
<!-- Node35&#45;&gt;Node36 -->
<g id="edge50_Node000035_Node000036" class="edge">
<title>Node35&#45;&gt;Node36</title>
<g id="a_edge50_Node000035_Node000036"><a xlink:title=" ">
<path fill="none" stroke="#63b8ff" d="M476.62,-385.6C476.45,-374.8 476.26,-362.78 476.14,-354.84"/>
<polygon fill="#63b8ff" stroke="#63b8ff" points="473.12,-385.85 476.78,-395.8 480.12,-385.74 473.12,-385.85"/>
</a>
</g>
</g>
<!-- Node37 -->
<g id="Node000037" class="node">
<title>Node37</title>
<g id="a_Node000037"><a xlink:href="dipolar__direct__sum__gpu_8cpp.html" target="_top" xlink:title=" ">
<polygon fill="white" stroke="#666666" points="386,-360 276,-360 276,-330 386,-330 386,-360"/>
<text text-anchor="start" x="284" y="-348" font-family="Helvetica,sans-Serif" font-size="10.00">dipolar_direct_sum</text>
<text text-anchor="middle" x="331" y="-337" font-family="Helvetica,sans-Serif" font-size="10.00">_gpu.cpp</text>
</a>
</g>
</g>
<!-- Node35&#45;&gt;Node37 -->
<g id="edge52_Node000035_Node000037" class="edge">
<title>Node35&#45;&gt;Node37</title>
<g id="a_edge52_Node000035_Node000037"><a xlink:title=" ">
<path fill="none" stroke="#63b8ff" d="M435.75,-391.92C412.68,-381.8 384.34,-369.38 362.97,-360.01"/>
<polygon fill="#63b8ff" stroke="#63b8ff" points="434.4,-395.15 444.96,-395.95 437.21,-388.73 434.4,-395.15"/>
</a>
</g>
</g>
<!-- Node36&#45;&gt;Node5 -->
<g id="edge51_Node000036_Node000005" class="edge">
<title>Node36&#45;&gt;Node5</title>
<g id="a_edge51_Node000036_Node000005"><a xlink:title=" ">
<path fill="none" stroke="#63b8ff" d="M445.23,-331.07C417.82,-317.76 384.65,-296.05 403,-275 439.36,-233.29 608.56,-229.33 686.5,-229.79"/>
<polygon fill="#63b8ff" stroke="#63b8ff" points="444.05,-334.38 454.59,-335.41 446.99,-328.03 444.05,-334.38"/>
</a>
</g>
</g>
<!-- Node38&#45;&gt;Node7 -->
<g id="edge59_Node000038_Node000007" class="edge">
<title>Node38&#45;&gt;Node7</title>
<g id="a_edge59_Node000038_Node000007"><a xlink:title=" ">
<path fill="none" stroke="#63b8ff" d="M817.43,-452.69C821.01,-444.66 825.04,-434.98 828,-426 836.4,-400.51 842.71,-369.31 845.47,-354.54"/>
<polygon fill="#63b8ff" stroke="#63b8ff" points="814.23,-451.26 813.24,-461.81 820.59,-454.18 814.23,-451.26"/>
</a>
</g>
</g>
<!-- Node38&#45;&gt;Node14 -->
<g id="edge60_Node000038_Node000014" class="edge">
<title>Node38&#45;&gt;Node14</title>
<g id="a_edge60_Node000038_Node000014"><a xlink:title=" ">
<path fill="none" stroke="#63b8ff" d="M829.58,-455.86C881.33,-419.03 1015.68,-323.44 1056.83,-294.16"/>
<polygon fill="#63b8ff" stroke="#63b8ff" points="827.31,-453.18 821.19,-461.83 831.37,-458.88 827.31,-453.18"/>
</a>
</g>
</g>
<!-- Node38&#45;&gt;Node25 -->
<g id="edge65_Node000038_Node000025" class="edge">
<title>Node38&#45;&gt;Node25</title>
<g id="a_edge65_Node000038_Node000025"><a xlink:title=" ">
<path fill="none" stroke="#63b8ff" d="M851.89,-470.75C989.36,-470.43 1410,-460.11 1410,-346 1410,-346 1410,-346 1410,-173.5 1410,-122.91 1255.11,-88.93 1169.8,-74.05"/>
<polygon fill="#63b8ff" stroke="#63b8ff" points="851.74,-467.25 841.74,-470.76 851.74,-474.25 851.74,-467.25"/>
</a>
</g>
</g>
<!-- Node38&#45;&gt;Node32 -->
<g id="edge61_Node000038_Node000032" class="edge">
<title>Node38&#45;&gt;Node32</title>
<g id="a_edge61_Node000038_Node000032"><a xlink:title=" ">
<path fill="none" stroke="#63b8ff" d="M779.41,-457.82C760.82,-449.49 736.55,-437.96 716,-426 651.42,-388.42 645.02,-363.02 578,-330 540.02,-311.29 492.43,-298.13 463.66,-291.2"/>
<polygon fill="#63b8ff" stroke="#63b8ff" points="778,-461.02 788.56,-461.86 780.83,-454.62 778,-461.02"/>
</a>
</g>
</g>
<!-- Node38&#45;&gt;Node34 -->
<g id="edge62_Node000038_Node000034" class="edge">
<title>Node38&#45;&gt;Node34</title>
<g id="a_edge62_Node000038_Node000034"><a xlink:title=" ">
<path fill="none" stroke="#63b8ff" d="M766.34,-459.79C718.41,-447.76 642.12,-428.6 602.24,-418.59"/>
<polygon fill="#63b8ff" stroke="#63b8ff" points="765.56,-463.2 776.11,-462.24 767.26,-456.41 765.56,-463.2"/>
</a>
</g>
</g>
<!-- Node39 -->
<g id="Node000039" class="node">
<title>Node39</title>
<g id="a_Node000039"><a xlink:href="DipolarP3M_8hpp.html" target="_top" xlink:title=" ">
<polygon fill="white" stroke="#666666" points="819,-420.5 725,-420.5 725,-401.5 819,-401.5 819,-420.5"/>
<text text-anchor="middle" x="772" y="-408.5" font-family="Helvetica,sans-Serif" font-size="10.00">DipolarP3M.hpp</text>
</a>
</g>
</g>
<!-- Node38&#45;&gt;Node39 -->
<g id="edge56_Node000038_Node000039" class="edge">
<title>Node38&#45;&gt;Node39</title>
<g id="a_edge56_Node000038_Node000039"><a xlink:title=" ">
<path fill="none" stroke="#63b8ff" d="M798.12,-453.3C791.34,-442.58 782.9,-429.23 777.48,-420.67"/>
<polygon fill="#63b8ff" stroke="#63b8ff" points="795.24,-455.29 803.54,-461.87 801.15,-451.55 795.24,-455.29"/>
</a>
</g>
</g>
<!-- Node40 -->
<g id="Node000040" class="node">
<title>Node40</title>
<g id="a_Node000040"><a xlink:href="dp3m__heffte_8hpp.html" target="_top" xlink:title=" ">
<polygon fill="white" stroke="#666666" points="1537.5,-129 1438.5,-129 1438.5,-110 1537.5,-110 1537.5,-129"/>
<text text-anchor="middle" x="1488" y="-117" font-family="Helvetica,sans-Serif" font-size="10.00">dp3m_heffte.hpp</text>
</a>
</g>
</g>
<!-- Node38&#45;&gt;Node40 -->
<g id="edge63_Node000038_Node000040" class="edge">
<title>Node38&#45;&gt;Node40</title>
<g id="a_edge63_Node000038_Node000040"><a xlink:title=" ">
<path fill="none" stroke="#63b8ff" d="M851.56,-468.74C987.2,-462.96 1401.67,-443.91 1424,-426 1452.96,-402.78 1448,-383.12 1448,-346 1448,-346 1448,-346 1448,-228.5 1448,-189.31 1471.45,-146.82 1482.44,-129.06"/>
<polygon fill="#63b8ff" stroke="#63b8ff" points="851.39,-465.24 841.54,-469.16 851.68,-472.24 851.39,-465.24"/>
</a>
</g>
</g>
<!-- Node39&#45;&gt;Node4 -->
<g id="edge57_Node000039_Node000004" class="edge">
<title>Node39&#45;&gt;Node4</title>
<g id="a_edge57_Node000039_Node000004"><a xlink:title=" ">
<path fill="none" stroke="#63b8ff" d="M757.93,-393.62C747.34,-381.31 733.24,-364.89 724.65,-354.91"/>
<polygon fill="#63b8ff" stroke="#63b8ff" points="755.41,-396.07 764.58,-401.37 760.72,-391.5 755.41,-396.07"/>
</a>
</g>
</g>
<!-- Node39&#45;&gt;Node5 -->
<g id="edge58_Node000039_Node000005" class="edge">
<title>Node39&#45;&gt;Node5</title>
<g id="a_edge58_Node000039_Node000005"><a xlink:title=" ">
<path fill="none" stroke="#63b8ff" d="M828.74,-400.64C852.45,-393.63 877.75,-381.37 892,-360 899.4,-348.91 895.97,-342.73 892,-330 883.15,-301.64 877.65,-292.99 854,-275 828.07,-255.27 792.73,-243.86 765.75,-237.55"/>
<polygon fill="#63b8ff" stroke="#63b8ff" points="827.81,-397.27 819.07,-403.25 829.64,-404.03 827.81,-397.27"/>
</a>
</g>
</g>
<!-- Node40&#45;&gt;Node25 -->
<g id="edge64_Node000040_Node000025" class="edge">
<title>Node40&#45;&gt;Node25</title>
<g id="a_edge64_Node000040_Node000025"><a xlink:title=" ">
<path fill="none" stroke="#63b8ff" d="M1428.55,-110.05C1359.04,-100.18 1244.64,-83.92 1174.92,-74.01"/>
<polygon fill="#63b8ff" stroke="#63b8ff" points="1428.08,-113.52 1438.47,-111.46 1429.06,-106.59 1428.08,-113.52"/>
</a>
</g>
</g>
<!-- Node41&#45;&gt;Node7 -->
<g id="edge69_Node000041_Node000007" class="edge">
<title>Node41&#45;&gt;Node7</title>
<g id="a_edge69_Node000041_Node000007"><a xlink:title=" ">
<path fill="none" stroke="#63b8ff" d="M1465.64,-405.18C1336.57,-392.83 996.14,-360.27 883.66,-349.51"/>
<polygon fill="#63b8ff" stroke="#63b8ff" points="1465.37,-408.67 1475.66,-406.14 1466.04,-401.7 1465.37,-408.67"/>
</a>
</g>
</g>
<!-- Node42 -->
<g id="Node000042" class="node">
<title>Node42</title>
<g id="a_Node000042"><a xlink:href="DipolarScafacos_8hpp.html" target="_top" xlink:title=" ">
<polygon fill="white" stroke="#666666" points="1266,-354.5 1150,-354.5 1150,-335.5 1266,-335.5 1266,-354.5"/>
<text text-anchor="middle" x="1208" y="-342.5" font-family="Helvetica,sans-Serif" font-size="10.00">DipolarScafacos.hpp</text>
</a>
</g>
</g>
<!-- Node41&#45;&gt;Node42 -->
<g id="edge67_Node000041_Node000042" class="edge">
<title>Node41&#45;&gt;Node42</title>
<g id="a_edge67_Node000041_Node000042"><a xlink:title=" ">
<path fill="none" stroke="#63b8ff" d="M1465.67,-399.54C1405.31,-387 1305.28,-366.21 1249.26,-354.57"/>
<polygon fill="#63b8ff" stroke="#63b8ff" points="1465.23,-403.03 1475.73,-401.63 1466.66,-396.17 1465.23,-403.03"/>
</a>
</g>
</g>
<!-- Node43 -->
<g id="Node000043" class="node">
<title>Node43</title>
<g id="a_Node000043"><a xlink:href="magnetostatics_2scafacos__impl_8cpp.html" target="_top" xlink:title=" ">
<polygon fill="white" stroke="#666666" points="1624.5,-294 1517.5,-294 1517.5,-275 1624.5,-275 1624.5,-294"/>
<text text-anchor="middle" x="1571" y="-282" font-family="Helvetica,sans-Serif" font-size="10.00">scafacos_impl.cpp</text>
</a>
</g>
</g>
<!-- Node41&#45;&gt;Node43 -->
<g id="edge70_Node000041_Node000043" class="edge">
<title>Node41&#45;&gt;Node43</title>
<g id="a_edge70_Node000041_Node000043"><a xlink:title=" ">
<path fill="none" stroke="#63b8ff" d="M1549.14,-397.19C1565.15,-389.12 1582.85,-376.97 1592,-360 1603.86,-338 1587.4,-308.64 1577.51,-294.23"/>
<polygon fill="#63b8ff" stroke="#63b8ff" points="1547.55,-394.07 1539.98,-401.48 1550.52,-400.41 1547.55,-394.07"/>
</a>
</g>
</g>
<!-- Node44 -->
<g id="Node000044" class="node">
<title>Node44</title>
<g id="a_Node000044"><a xlink:href="magnetostatics_2scafacos__impl_8hpp.html" target="_top" xlink:title=" ">
<polygon fill="white" stroke="#666666" points="1583.5,-354.5 1476.5,-354.5 1476.5,-335.5 1583.5,-335.5 1583.5,-354.5"/>
<text text-anchor="middle" x="1530" y="-342.5" font-family="Helvetica,sans-Serif" font-size="10.00">scafacos_impl.hpp</text>
</a>
</g>
</g>
<!-- Node41&#45;&gt;Node44 -->
<g id="edge71_Node000041_Node000044" class="edge">
<title>Node41&#45;&gt;Node44</title>
<g id="a_edge71_Node000041_Node000044"><a xlink:title=" ">
<path fill="none" stroke="#63b8ff" d="M1520.06,-391.45C1522.69,-379.43 1525.99,-364.32 1528.05,-354.91"/>
<polygon fill="#63b8ff" stroke="#63b8ff" points="1516.61,-390.85 1517.89,-401.37 1523.44,-392.35 1516.61,-390.85"/>
</a>
</g>
</g>
<!-- Node42&#45;&gt;Node5 -->
<g id="edge68_Node000042_Node000005" class="edge">
<title>Node42&#45;&gt;Node5</title>
<g id="a_edge68_Node000042_Node000005"><a xlink:title=" ">
<path fill="none" stroke="#63b8ff" d="M1194.95,-327.66C1180.84,-311.28 1156.75,-286.85 1130,-275 1097.14,-260.44 860.67,-240.87 765.51,-233.49"/>
<polygon fill="#63b8ff" stroke="#63b8ff" points="1192.29,-329.94 1201.38,-335.38 1197.67,-325.46 1192.29,-329.94"/>
</a>
</g>
</g>
<!-- Node44&#45;&gt;Node43 -->
<g id="edge72_Node000044_Node000043" class="edge">
<title>Node44&#45;&gt;Node43</title>
<g id="a_edge72_Node000044_Node000043"><a xlink:title=" ">
<path fill="none" stroke="#63b8ff" d="M1541.82,-327.13C1549.38,-316.35 1558.86,-302.82 1564.93,-294.17"/>
<polygon fill="#63b8ff" stroke="#63b8ff" points="1538.92,-325.17 1536.05,-335.37 1544.66,-329.19 1538.92,-325.17"/>
</a>
</g>
</g>
</g>
</svg>
