<?xml version="1.0" encoding="UTF-8" standalone="no"?>
<!DOCTYPE svg PUBLIC "-//W3C//DTD SVG 1.1//EN"
 "http://www.w3.org/Graphics/SVG/1.1/DTD/svg11.dtd">
<!-- Generated by graphviz version 2.43.0 (0)
 -->
<!-- Title: matrix.hpp Pages: 1 -->
<!--zoomable 269 -->

<svg id="main" version="1.1" xmlns="http://www.w3.org/2000/svg" xmlns:xlink="http://www.w3.org/1999/xlink" xml:space="preserve" onload="init(evt)">
<style type="text/css"><![CDATA[
.node, .edge {opacity: 0.7;}
.node.selected, .edge.selected {opacity: 1;}
.edge:hover path { stroke: red; }
.edge:hover polygon { stroke: red; fill: red; }
]]></style>

<defs>
  <circle id="rim" cx="0" cy="0" r="7"/>
  <circle id="rim2" cx="0" cy="0" r="3.5"/>
  <g id="zoomPlus">
    <use xlink:href="#rim" fill="#404040"><set attributeName="fill" to="#808080" begin="zoomplus.mouseover" end="zoomplus.mouseout"/></use>
    <path d="M-4,0h8M0,-4v8" fill="none" stroke="white" stroke-width="1.5" pointer-events="none"/>
  </g>
  <g id="zoomMin">
    <use xlink:href="#rim" fill="#404040"><set attributeName="fill" to="#808080" begin="zoomminus.mouseover" end="zoomminus.mouseout"/></use>
    <path d="M-4,0h8" fill="none" stroke="white" stroke-width="1.5" pointer-events="none"/>
  </g>
  <g id="arrowUp" transform="translate(30 24)">
    <use xlink:href="#rim"/>
    <path pointer-events="none" fill="none" stroke="white" stroke-width="1.5" d="M0,-3.0v7 M-2.5,-0.5L0,-3.0L2.5,-0.5"/>
  </g>
  <g id="arrowRight" transform="rotate(90) translate(36 -43)">
    <use xlink:href="#rim"/>
    <path pointer-events="none" fill="none" stroke="white" stroke-width="1.5" d="M0,-3.0v7 M-2.5,-0.5L0,-3.0L2.5,-0.5"/>
  </g>
  <g id="arrowDown" transform="rotate(180) translate(-30 -48)">
    <use xlink:href="#rim"/>
    <path pointer-events="none" fill="none" stroke="white" stroke-width="1.5" d="M0,-3.0v7 M-2.5,-0.5L0,-3.0L2.5,-0.5"/>
  </g>
  <g id="arrowLeft" transform="rotate(270) translate(-36 17)">
    <use xlink:href="#rim"/>
    <path pointer-events="none" fill="none" stroke="white" stroke-width="1.5" d="M0,-3.0v7 M-2.5,-0.5L0,-3.0L2.5,-0.5"/>
  </g>
  <g id="resetDef">
    <use xlink:href="#rim2" fill="#404040"><set attributeName="fill" to="#808080" begin="reset.mouseover" end="reset.mouseout"/></use>
  </g>
</defs>
<script type="application/ecmascript">
var viewWidth = 3755;
var viewHeight = 269;
var sectionId = 'dynsection-0';
</script>
<script type="application/ecmascript" xlink:href="svg.min.js"/>
<svg id="graph" class="graph">
<g id="viewport">
<title>matrix.hpp</title>
<!-- Node1 -->
<g id="Node000001" class="node">
<title>Node1</title>
<g id="a_Node000001"><a xlink:title="Matrix implementation and trait types for boost qvm interoperability.">
<polygon fill="#999999" stroke="#666666" points="1952,-261 1882,-261 1882,-242 1952,-242 1952,-261"/>
<text text-anchor="middle" x="1917" y="-249" font-family="Helvetica,sans-Serif" font-size="10.00">matrix.hpp</text>
</a>
</g>
</g>
<!-- Node2 -->
<g id="Node000002" class="node">
<title>Node2</title>
<g id="a_Node000002"><a xlink:href="Array_8hpp.html" target="_top" xlink:title="Array implementation with CUDA support.">
<polygon fill="white" stroke="#666666" points="712,-151 626,-151 626,-132 712,-132 712,-151"/>
<text text-anchor="middle" x="669" y="-139" font-family="Helvetica,sans-Serif" font-size="10.00">utils/Array.hpp</text>
</a>
</g>
</g>
<!-- Node1&#45;&gt;Node2 -->
<g id="edge1_Node000001_Node000002" class="edge">
<title>Node1&#45;&gt;Node2</title>
<g id="a_edge1_Node000001_Node000002"><a xlink:title=" ">
<path fill="none" stroke="#63b8ff" d="M1881.84,-249.96C1690.33,-246.91 779.63,-231.14 726,-206 705.31,-196.3 688.87,-175.25 679.06,-160.03"/>
<polygon fill="#63b8ff" stroke="#63b8ff" points="681.78,-157.78 673.59,-151.06 675.8,-161.42 681.78,-157.78"/>
</a>
</g>
</g>
<!-- Node4 -->
<g id="Node000004" class="node">
<title>Node4</title>
<g id="a_Node000004"><a xlink:title=" ">
<polygon fill="#e0e0e0" stroke="#999999" points="52,-24.5 0,-24.5 0,-5.5 52,-5.5 52,-24.5"/>
<text text-anchor="middle" x="26" y="-12.5" font-family="Helvetica,sans-Serif" font-size="10.00">cassert</text>
</a>
</g>
</g>
<!-- Node1&#45;&gt;Node4 -->
<g id="edge48_Node000001_Node000004" class="edge">
<title>Node1&#45;&gt;Node4</title>
<g id="a_edge48_Node000001_Node000004"><a xlink:title=" ">
<path fill="none" stroke="#63b8ff" d="M1881.98,-250.38C1695.35,-249.59 816.08,-243.87 547,-206 364.85,-180.37 314.61,-173.97 148,-96 108.94,-77.72 67.88,-48.37 44.75,-30.76"/>
<polygon fill="#63b8ff" stroke="#63b8ff" points="46.86,-27.97 36.8,-24.64 42.58,-33.51 46.86,-27.97"/>
</a>
</g>
</g>
<!-- Node6 -->
<g id="Node000006" class="node">
<title>Node6</title>
<g id="a_Node000006"><a xlink:title=" ">
<polygon fill="#e0e0e0" stroke="#999999" points="1273.5,-24.5 1220.5,-24.5 1220.5,-5.5 1273.5,-5.5 1273.5,-24.5"/>
<text text-anchor="middle" x="1247" y="-12.5" font-family="Helvetica,sans-Serif" font-size="10.00">cstddef</text>
</a>
</g>
</g>
<!-- Node1&#45;&gt;Node6 -->
<g id="edge49_Node000001_Node000006" class="edge">
<title>Node1&#45;&gt;Node6</title>
<g id="a_edge49_Node000001_Node000006"><a xlink:title=" ">
<path fill="none" stroke="#63b8ff" d="M1881.84,-248.43C1848.06,-244.73 1797.36,-234.45 1764,-206 1736.32,-182.39 1751.85,-160.31 1729,-132 1698.74,-94.51 1687.56,-84.32 1643,-66 1578.25,-39.38 1368.99,-23.63 1283.69,-18.18"/>
<polygon fill="#63b8ff" stroke="#63b8ff" points="1283.89,-14.68 1273.69,-17.55 1283.45,-21.67 1283.89,-14.68"/>
</a>
</g>
</g>
<!-- Node7 -->
<g id="Node000007" class="node">
<title>Node7</title>
<g id="a_Node000007"><a xlink:title=" ">
<polygon fill="#e0e0e0" stroke="#999999" points="1202.5,-24.5 1157.5,-24.5 1157.5,-5.5 1202.5,-5.5 1202.5,-24.5"/>
<text text-anchor="middle" x="1180" y="-12.5" font-family="Helvetica,sans-Serif" font-size="10.00">utility</text>
</a>
</g>
</g>
<!-- Node1&#45;&gt;Node7 -->
<g id="edge51_Node000001_Node000007" class="edge">
<title>Node1&#45;&gt;Node7</title>
<g id="a_edge51_Node000001_Node000007"><a xlink:title=" ">
<path fill="none" stroke="#63b8ff" d="M1881.77,-250.35C1695.8,-249.19 834,-239.09 760,-151 721.62,-105.31 691.46,-161.74 946,-96 1037.86,-72.27 1060.52,-64.24 1149,-30 1150.18,-29.54 1151.37,-29.07 1152.58,-28.58"/>
<polygon fill="#63b8ff" stroke="#63b8ff" points="1153.97,-31.79 1161.78,-24.63 1151.21,-25.35 1153.97,-31.79"/>
</a>
</g>
</g>
<!-- Node22 -->
<g id="Node000022" class="node">
<title>Node22</title>
<g id="a_Node000022"><a xlink:href="Vector_8hpp.html" target="_top" xlink:title="Vector implementation and trait types for boost qvm interoperability.">
<polygon fill="white" stroke="#666666" points="1175,-206 1083,-206 1083,-187 1175,-187 1175,-206"/>
<text text-anchor="middle" x="1129" y="-194" font-family="Helvetica,sans-Serif" font-size="10.00">utils/Vector.hpp</text>
</a>
</g>
</g>
<!-- Node1&#45;&gt;Node22 -->
<g id="edge25_Node000001_Node000022" class="edge">
<title>Node1&#45;&gt;Node22</title>
<g id="a_edge25_Node000001_Node000022"><a xlink:title=" ">
<path fill="none" stroke="#63b8ff" d="M1881.87,-248.14C1757.57,-239.78 1337.89,-211.55 1185.17,-201.28"/>
<polygon fill="#63b8ff" stroke="#63b8ff" points="1185.28,-197.78 1175.07,-200.6 1184.81,-204.76 1185.28,-197.78"/>
</a>
</g>
</g>
<!-- Node23 -->
<g id="Node000023" class="node">
<title>Node23</title>
<g id="a_Node000023"><a xlink:title=" ">
<polygon fill="#e0e0e0" stroke="#999999" points="488,-151 338,-151 338,-132 488,-132 488,-151"/>
<text text-anchor="middle" x="413" y="-139" font-family="Helvetica,sans-Serif" font-size="10.00">boost/qvm/deduce_vec.hpp</text>
</a>
</g>
</g>
<!-- Node1&#45;&gt;Node23 -->
<g id="edge57_Node000001_Node000023" class="edge">
<title>Node1&#45;&gt;Node23</title>
<g id="a_edge57_Node000001_Node000023"><a xlink:title=" ">
<path fill="none" stroke="#63b8ff" d="M1881.74,-250.47C1701.39,-250.14 880.94,-246.4 630,-206 562.69,-195.16 486.83,-169.8 445,-154.61"/>
<polygon fill="#63b8ff" stroke="#63b8ff" points="445.97,-151.24 435.38,-151.08 443.56,-157.81 445.97,-151.24"/>
</a>
</g>
</g>
<!-- Node25 -->
<g id="Node000025" class="node">
<title>Node25</title>
<g id="a_Node000025"><a xlink:title=" ">
<polygon fill="#e0e0e0" stroke="#999999" points="570,-151 506,-151 506,-132 570,-132 570,-151"/>
<text text-anchor="middle" x="538" y="-139" font-family="Helvetica,sans-Serif" font-size="10.00">algorithm</text>
</a>
</g>
</g>
<!-- Node1&#45;&gt;Node25 -->
<g id="edge46_Node000001_Node000025" class="edge">
<title>Node1&#45;&gt;Node25</title>
<g id="a_edge46_Node000001_Node000025"><a xlink:title=" ">
<path fill="none" stroke="#63b8ff" d="M1881.78,-250.84C1707.01,-252.27 931.97,-255.64 697,-206 647.66,-195.58 593.89,-171.08 563.23,-155.74"/>
<polygon fill="#63b8ff" stroke="#63b8ff" points="564.62,-152.53 554.12,-151.12 561.45,-158.77 564.62,-152.53"/>
</a>
</g>
</g>
<!-- Node33 -->
<g id="Node000033" class="node">
<title>Node33</title>
<g id="a_Node000033"><a xlink:title=" ">
<polygon fill="#e0e0e0" stroke="#999999" points="1704.5,-151 1635.5,-151 1635.5,-132 1704.5,-132 1704.5,-151"/>
<text text-anchor="middle" x="1670" y="-139" font-family="Helvetica,sans-Serif" font-size="10.00">type_traits</text>
</a>
</g>
</g>
<!-- Node1&#45;&gt;Node33 -->
<g id="edge50_Node000001_Node000033" class="edge">
<title>Node1&#45;&gt;Node33</title>
<g id="a_edge50_Node000001_Node000033"><a xlink:title=" ">
<path fill="none" stroke="#63b8ff" d="M1881.98,-250.8C1809.97,-250.58 1649.16,-245.56 1615,-206 1600.22,-188.88 1623.52,-169.21 1644.2,-156.35"/>
<polygon fill="#63b8ff" stroke="#63b8ff" points="1646.23,-159.21 1653.07,-151.12 1642.68,-153.18 1646.23,-159.21"/>
</a>
</g>
</g>
<!-- Node35 -->
<g id="Node000035" class="node">
<title>Node35</title>
<g id="a_Node000035"><a xlink:href="flatten_8hpp.html" target="_top" xlink:title=" ">
<polygon fill="white" stroke="#666666" points="1716.5,-206 1623.5,-206 1623.5,-187 1716.5,-187 1716.5,-206"/>
<text text-anchor="middle" x="1670" y="-194" font-family="Helvetica,sans-Serif" font-size="10.00">utils/flatten.hpp</text>
</a>
</g>
</g>
<!-- Node1&#45;&gt;Node35 -->
<g id="edge43_Node000001_Node000035" class="edge">
<title>Node1&#45;&gt;Node35</title>
<g id="a_edge43_Node000001_Node000035"><a xlink:title=" ">
<path fill="none" stroke="#63b8ff" d="M1881.87,-242.96C1839.47,-233.86 1767.89,-218.5 1719.8,-208.19"/>
<polygon fill="#63b8ff" stroke="#63b8ff" points="1720.43,-204.74 1709.92,-206.06 1718.96,-211.59 1720.43,-204.74"/>
</a>
</g>
</g>
<!-- Node36 -->
<g id="Node000036" class="node">
<title>Node36</title>
<g id="a_Node000036"><a xlink:title=" ">
<polygon fill="#e0e0e0" stroke="#999999" points="1815,-206 1773,-206 1773,-187 1815,-187 1815,-206"/>
<text text-anchor="middle" x="1794" y="-194" font-family="Helvetica,sans-Serif" font-size="10.00">array</text>
</a>
</g>
</g>
<!-- Node1&#45;&gt;Node36 -->
<g id="edge47_Node000001_Node000036" class="edge">
<title>Node1&#45;&gt;Node36</title>
<g id="a_edge47_Node000001_Node000036"><a xlink:title=" ">
<path fill="none" stroke="#63b8ff" d="M1897.24,-241.98C1877.27,-233.38 1846.2,-219.99 1823.35,-210.15"/>
<polygon fill="#63b8ff" stroke="#63b8ff" points="1824.69,-206.91 1814.12,-206.17 1821.92,-213.34 1824.69,-206.91"/>
</a>
</g>
</g>
<!-- Node37 -->
<g id="Node000037" class="node">
<title>Node37</title>
<g id="a_Node000037"><a xlink:title=" ">
<polygon fill="#e0e0e0" stroke="#999999" points="2001.5,-206 1832.5,-206 1832.5,-187 2001.5,-187 2001.5,-206"/>
<text text-anchor="middle" x="1917" y="-194" font-family="Helvetica,sans-Serif" font-size="10.00">boost/qvm/mat_operations.hpp</text>
</a>
</g>
</g>
<!-- Node1&#45;&gt;Node37 -->
<g id="edge52_Node000001_Node000037" class="edge">
<title>Node1&#45;&gt;Node37</title>
<g id="a_edge52_Node000001_Node000037"><a xlink:title=" ">
<path fill="none" stroke="#63b8ff" d="M1917,-241.75C1917,-234.8 1917,-224.85 1917,-216.13"/>
<polygon fill="#63b8ff" stroke="#63b8ff" points="1920.5,-216.09 1917,-206.09 1913.5,-216.09 1920.5,-216.09"/>
</a>
</g>
</g>
<!-- Node38 -->
<g id="Node000038" class="node">
<title>Node38</title>
<g id="a_Node000038"><a xlink:title=" ">
<polygon fill="#e0e0e0" stroke="#999999" points="2210.5,-206 2019.5,-206 2019.5,-187 2210.5,-187 2210.5,-206"/>
<text text-anchor="middle" x="2115" y="-194" font-family="Helvetica,sans-Serif" font-size="10.00">boost/qvm/vec_mat_operations.hpp</text>
</a>
</g>
</g>
<!-- Node1&#45;&gt;Node38 -->
<g id="edge53_Node000001_Node000038" class="edge">
<title>Node1&#45;&gt;Node38</title>
<g id="a_edge53_Node000001_Node000038"><a xlink:title=" ">
<path fill="none" stroke="#63b8ff" d="M1948.81,-241.98C1982.49,-232.97 2035.8,-218.7 2072.92,-208.76"/>
<polygon fill="#63b8ff" stroke="#63b8ff" points="2074.18,-212.05 2082.94,-206.08 2072.37,-205.29 2074.18,-212.05"/>
</a>
</g>
</g>
<!-- Node39 -->
<g id="Node000039" class="node">
<title>Node39</title>
<g id="a_Node000039"><a xlink:title=" ">
<polygon fill="#e0e0e0" stroke="#999999" points="2395.5,-206 2228.5,-206 2228.5,-187 2395.5,-187 2395.5,-206"/>
<text text-anchor="middle" x="2312" y="-194" font-family="Helvetica,sans-Serif" font-size="10.00">boost/qvm/vec_operations.hpp</text>
</a>
</g>
</g>
<!-- Node1&#45;&gt;Node39 -->
<g id="edge54_Node000001_Node000039" class="edge">
<title>Node1&#45;&gt;Node39</title>
<g id="a_edge54_Node000001_Node000039"><a xlink:title=" ">
<path fill="none" stroke="#63b8ff" d="M1952.05,-245.8C2016.01,-237.22 2152.89,-218.85 2238.21,-207.4"/>
<polygon fill="#63b8ff" stroke="#63b8ff" points="2238.9,-210.84 2248.35,-206.04 2237.97,-203.9 2238.9,-210.84"/>
</a>
</g>
</g>
<!-- Node40 -->
<g id="Node000040" class="node">
<title>Node40</title>
<g id="a_Node000040"><a xlink:title=" ">
<polygon fill="#e0e0e0" stroke="#999999" points="2566,-206 2414,-206 2414,-187 2566,-187 2566,-206"/>
<text text-anchor="middle" x="2490" y="-194" font-family="Helvetica,sans-Serif" font-size="10.00">boost/qvm/deduce_mat.hpp</text>
</a>
</g>
</g>
<!-- Node1&#45;&gt;Node40 -->
<g id="edge55_Node000001_Node000040" class="edge">
<title>Node1&#45;&gt;Node40</title>
<g id="a_edge55_Node000001_Node000040"><a xlink:title=" ">
<path fill="none" stroke="#63b8ff" d="M1952.22,-247.39C2031.01,-240.42 2227.73,-222.9 2403.34,-206.15"/>
<polygon fill="#63b8ff" stroke="#63b8ff" points="2403.93,-209.61 2413.55,-205.18 2403.26,-202.64 2403.93,-209.61"/>
</a>
</g>
</g>
<!-- Node41 -->
<g id="Node000041" class="node">
<title>Node41</title>
<g id="a_Node000041"><a xlink:title=" ">
<polygon fill="#e0e0e0" stroke="#999999" points="2745.5,-206 2584.5,-206 2584.5,-187 2745.5,-187 2745.5,-206"/>
<text text-anchor="middle" x="2665" y="-194" font-family="Helvetica,sans-Serif" font-size="10.00">boost/qvm/deduce_scalar.hpp</text>
</a>
</g>
</g>
<!-- Node1&#45;&gt;Node41 -->
<g id="edge56_Node000001_Node000041" class="edge">
<title>Node1&#45;&gt;Node41</title>
<g id="a_edge56_Node000001_Node000041"><a xlink:title=" ">
<path fill="none" stroke="#63b8ff" d="M1952.33,-248.44C2049.57,-242.71 2329.54,-225.73 2573.91,-206.07"/>
<polygon fill="#63b8ff" stroke="#63b8ff" points="2574.37,-209.54 2584.06,-205.25 2573.81,-202.56 2574.37,-209.54"/>
</a>
</g>
</g>
<!-- Node42 -->
<g id="Node000042" class="node">
<title>Node42</title>
<g id="a_Node000042"><a xlink:title=" ">
<polygon fill="#e0e0e0" stroke="#999999" points="2928,-206 2764,-206 2764,-187 2928,-187 2928,-206"/>
<text text-anchor="middle" x="2846" y="-194" font-family="Helvetica,sans-Serif" font-size="10.00">boost/qvm/map_mat_mat.hpp</text>
</a>
</g>
</g>
<!-- Node1&#45;&gt;Node42 -->
<g id="edge58_Node000001_Node000042" class="edge">
<title>Node1&#45;&gt;Node42</title>
<g id="a_edge58_Node000001_Node000042"><a xlink:title=" ">
<path fill="none" stroke="#63b8ff" d="M1952.16,-249.14C2066.15,-244.62 2435.99,-229.11 2753.35,-206.09"/>
<polygon fill="#63b8ff" stroke="#63b8ff" points="2753.95,-209.56 2763.67,-205.34 2753.44,-202.58 2753.95,-209.56"/>
</a>
</g>
</g>
<!-- Node43 -->
<g id="Node000043" class="node">
<title>Node43</title>
<g id="a_Node000043"><a xlink:title=" ">
<polygon fill="#e0e0e0" stroke="#999999" points="3107.5,-206 2946.5,-206 2946.5,-187 3107.5,-187 3107.5,-206"/>
<text text-anchor="middle" x="3027" y="-194" font-family="Helvetica,sans-Serif" font-size="10.00">boost/qvm/map_mat_vec.hpp</text>
</a>
</g>
</g>
<!-- Node1&#45;&gt;Node43 -->
<g id="edge59_Node000001_Node000043" class="edge">
<title>Node1&#45;&gt;Node43</title>
<g id="a_edge59_Node000001_Node000043"><a xlink:title=" ">
<path fill="none" stroke="#63b8ff" d="M1952.27,-249.61C2081.78,-246.19 2543.52,-232.83 2935.93,-206.03"/>
<polygon fill="#63b8ff" stroke="#63b8ff" points="2936.33,-209.52 2946.06,-205.34 2935.85,-202.53 2936.33,-209.52"/>
</a>
</g>
</g>
<!-- Node44 -->
<g id="Node000044" class="node">
<title>Node44</title>
<g id="a_Node000044"><a xlink:title=" ">
<polygon fill="#e0e0e0" stroke="#999999" points="3286.5,-206 3125.5,-206 3125.5,-187 3286.5,-187 3286.5,-206"/>
<text text-anchor="middle" x="3206" y="-194" font-family="Helvetica,sans-Serif" font-size="10.00">boost/qvm/map_vec_mat.hpp</text>
</a>
</g>
</g>
<!-- Node1&#45;&gt;Node44 -->
<g id="edge60_Node000001_Node000044" class="edge">
<title>Node1&#45;&gt;Node44</title>
<g id="a_edge60_Node000001_Node000044"><a xlink:title=" ">
<path fill="none" stroke="#63b8ff" d="M1952.38,-249.94C2095.93,-247.51 2649.09,-236.61 3115.18,-206.08"/>
<polygon fill="#63b8ff" stroke="#63b8ff" points="3115.74,-209.55 3125.49,-205.4 3115.28,-202.57 3115.74,-209.55"/>
</a>
</g>
</g>
<!-- Node45 -->
<g id="Node000045" class="node">
<title>Node45</title>
<g id="a_Node000045"><a xlink:title=" ">
<polygon fill="#e0e0e0" stroke="#999999" points="3417,-206 3305,-206 3305,-187 3417,-187 3417,-206"/>
<text text-anchor="middle" x="3361" y="-194" font-family="Helvetica,sans-Serif" font-size="10.00">boost/qvm/mat.hpp</text>
</a>
</g>
</g>
<!-- Node1&#45;&gt;Node45 -->
<g id="edge61_Node000001_Node000045" class="edge">
<title>Node1&#45;&gt;Node45</title>
<g id="a_edge61_Node000001_Node000045"><a xlink:title=" ">
<path fill="none" stroke="#63b8ff" d="M1952.23,-250.63C2108.43,-250.93 2754.13,-249.41 3294.33,-206.05"/>
<polygon fill="#63b8ff" stroke="#63b8ff" points="3294.98,-209.5 3304.67,-205.21 3294.42,-202.53 3294.98,-209.5"/>
</a>
</g>
</g>
<!-- Node46 -->
<g id="Node000046" class="node">
<title>Node46</title>
<g id="a_Node000046"><a xlink:title=" ">
<polygon fill="#e0e0e0" stroke="#999999" points="3585,-206 3435,-206 3435,-187 3585,-187 3585,-206"/>
<text text-anchor="middle" x="3510" y="-194" font-family="Helvetica,sans-Serif" font-size="10.00">boost/qvm/mat_access.hpp</text>
</a>
</g>
</g>
<!-- Node1&#45;&gt;Node46 -->
<g id="edge62_Node000001_Node000046" class="edge">
<title>Node1&#45;&gt;Node46</title>
<g id="a_edge62_Node000001_Node000046"><a xlink:title=" ">
<path fill="none" stroke="#63b8ff" d="M1952.14,-250.39C2116.89,-249.68 2829.48,-244.46 3424.84,-206.02"/>
<polygon fill="#63b8ff" stroke="#63b8ff" points="3425.16,-209.51 3434.92,-205.37 3424.71,-202.52 3425.16,-209.51"/>
</a>
</g>
</g>
<!-- Node47 -->
<g id="Node000047" class="node">
<title>Node47</title>
<g id="a_Node000047"><a xlink:title=" ">
<polygon fill="#e0e0e0" stroke="#999999" points="3746.5,-206 3603.5,-206 3603.5,-187 3746.5,-187 3746.5,-206"/>
<text text-anchor="middle" x="3675" y="-194" font-family="Helvetica,sans-Serif" font-size="10.00">boost/qvm/mat_traits.hpp</text>
</a>
</g>
</g>
<!-- Node1&#45;&gt;Node47 -->
<g id="edge63_Node000001_Node000047" class="edge">
<title>Node1&#45;&gt;Node47</title>
<g id="a_edge63_Node000001_Node000047"><a xlink:title=" ">
<path fill="none" stroke="#63b8ff" d="M1952.16,-250.58C2127.72,-250.79 2927.12,-249.25 3593.19,-205.98"/>
<polygon fill="#63b8ff" stroke="#63b8ff" points="3593.72,-209.46 3603.47,-205.31 3593.27,-202.47 3593.72,-209.46"/>
</a>
</g>
</g>
<!-- Node3 -->
<g id="Node000003" class="node">
<title>Node3</title>
<g id="a_Node000003"><a xlink:href="device__qualifier_8hpp.html" target="_top" xlink:title=" ">
<polygon fill="white" stroke="#666666" points="416,-90.5 302,-90.5 302,-71.5 416,-71.5 416,-90.5"/>
<text text-anchor="middle" x="359" y="-78.5" font-family="Helvetica,sans-Serif" font-size="10.00">device_qualifier.hpp</text>
</a>
</g>
</g>
<!-- Node2&#45;&gt;Node3 -->
<g id="edge2_Node000002_Node000003" class="edge">
<title>Node2&#45;&gt;Node3</title>
<g id="a_edge2_Node000002_Node000003"><a xlink:title=" ">
<path fill="none" stroke="#63b8ff" d="M625.73,-133C576.9,-124.44 495.13,-109.83 425,-96 419.61,-94.94 413.99,-93.79 408.39,-92.64"/>
<polygon fill="#63b8ff" stroke="#63b8ff" points="408.9,-89.17 398.4,-90.55 407.47,-96.02 408.9,-89.17"/>
</a>
</g>
</g>
<!-- Node2&#45;&gt;Node4 -->
<g id="edge18_Node000002_Node000004" class="edge">
<title>Node2&#45;&gt;Node4</title>
<g id="a_edge18_Node000002_Node000004"><a xlink:title=" ">
<path fill="none" stroke="#63b8ff" d="M625.76,-133.89C621.12,-133.23 616.46,-132.58 612,-132 470.53,-113.48 426.49,-146.36 293,-96 271.2,-87.77 271.47,-75.05 250,-66 171.2,-32.8 143.08,-53.99 61,-30 59.07,-29.44 57.1,-28.8 55.12,-28.13"/>
<polygon fill="#63b8ff" stroke="#63b8ff" points="55.98,-24.72 45.39,-24.52 53.55,-31.28 55.98,-24.72"/>
</a>
</g>
</g>
<!-- Node5 -->
<g id="Node000005" class="node">
<title>Node5</title>
<g id="a_Node000005"><a xlink:href="get_8hpp.html" target="_top" xlink:title=" ">
<polygon fill="white" stroke="#666666" points="1159.5,-90.5 1106.5,-90.5 1106.5,-71.5 1159.5,-71.5 1159.5,-90.5"/>
<text text-anchor="middle" x="1133" y="-78.5" font-family="Helvetica,sans-Serif" font-size="10.00">get.hpp</text>
</a>
</g>
</g>
<!-- Node2&#45;&gt;Node5 -->
<g id="edge4_Node000002_Node000005" class="edge">
<title>Node2&#45;&gt;Node5</title>
<g id="a_edge4_Node000002_Node000005"><a xlink:title=" ">
<path fill="none" stroke="#63b8ff" d="M712.09,-135.92C781.9,-128.39 924.01,-112.55 1044,-96 1061.16,-93.63 1080.13,-90.69 1096.13,-88.12"/>
<polygon fill="#63b8ff" stroke="#63b8ff" points="1096.86,-91.55 1106.17,-86.49 1095.73,-84.64 1096.86,-91.55"/>
</a>
</g>
</g>
<!-- Node2&#45;&gt;Node6 -->
<g id="edge19_Node000002_Node000006" class="edge">
<title>Node2&#45;&gt;Node6</title>
<g id="a_edge19_Node000002_Node000006"><a xlink:title=" ">
<path fill="none" stroke="#63b8ff" d="M712.07,-135.05C805.03,-122.58 1030.71,-88.45 1212,-30 1213.67,-29.46 1215.37,-28.88 1217.09,-28.28"/>
<polygon fill="#63b8ff" stroke="#63b8ff" points="1218.68,-31.42 1226.81,-24.62 1216.22,-24.86 1218.68,-31.42"/>
</a>
</g>
</g>
<!-- Node2&#45;&gt;Node7 -->
<g id="edge24_Node000002_Node000007" class="edge">
<title>Node2&#45;&gt;Node7</title>
<g id="a_edge24_Node000002_Node000007"><a xlink:title=" ">
<path fill="none" stroke="#63b8ff" d="M712.15,-133.59C776.74,-123.09 892.94,-103.54 911,-96 932.5,-87.02 932.5,-74.99 954,-66 1035.32,-32.02 1064.89,-56.33 1149,-30 1150.44,-29.55 1151.91,-29.05 1153.38,-28.51"/>
<polygon fill="#63b8ff" stroke="#63b8ff" points="1154.98,-31.63 1162.91,-24.61 1152.33,-25.16 1154.98,-31.63"/>
</a>
</g>
</g>
<!-- Node8 -->
<g id="Node000008" class="node">
<title>Node8</title>
<g id="a_Node000008"><a xlink:href="array_8hpp.html" target="_top" xlink:title=" ">
<polygon fill="white" stroke="#666666" points="618.5,-90.5 493.5,-90.5 493.5,-71.5 618.5,-71.5 618.5,-90.5"/>
<text text-anchor="middle" x="556" y="-78.5" font-family="Helvetica,sans-Serif" font-size="10.00">serialization/array.hpp</text>
</a>
</g>
</g>
<!-- Node2&#45;&gt;Node8 -->
<g id="edge7_Node000002_Node000008" class="edge">
<title>Node2&#45;&gt;Node8</title>
<g id="a_edge7_Node000002_Node000008"><a xlink:title=" ">
<path fill="none" stroke="#63b8ff" d="M652.33,-131.87C633.72,-122.23 603.38,-106.53 581.72,-95.31"/>
<polygon fill="#63b8ff" stroke="#63b8ff" points="583.23,-92.16 572.74,-90.67 580.01,-98.37 583.23,-92.16"/>
</a>
</g>
</g>
<!-- Node17 -->
<g id="Node000017" class="node">
<title>Node17</title>
<g id="a_Node000017"><a xlink:title=" ">
<polygon fill="#e0e0e0" stroke="#999999" points="743.5,-96 636.5,-96 636.5,-66 743.5,-66 743.5,-96"/>
<text text-anchor="start" x="644.5" y="-84" font-family="Helvetica,sans-Serif" font-size="10.00">boost/serialization</text>
<text text-anchor="middle" x="690" y="-73" font-family="Helvetica,sans-Serif" font-size="10.00">/access.hpp</text>
</a>
</g>
</g>
<!-- Node2&#45;&gt;Node17 -->
<g id="edge17_Node000002_Node000017" class="edge">
<title>Node2&#45;&gt;Node17</title>
<g id="a_edge17_Node000002_Node000017"><a xlink:title=" ">
<path fill="none" stroke="#63b8ff" d="M672.1,-131.87C674.58,-124.96 678.18,-114.93 681.5,-105.67"/>
<polygon fill="#63b8ff" stroke="#63b8ff" points="684.85,-106.71 684.93,-96.11 678.26,-104.34 684.85,-106.71"/>
</a>
</g>
</g>
<!-- Node18 -->
<g id="Node000018" class="node">
<title>Node18</title>
<g id="a_Node000018"><a xlink:title=" ">
<polygon fill="#e0e0e0" stroke="#999999" points="1633.5,-90.5 1580.5,-90.5 1580.5,-71.5 1633.5,-71.5 1633.5,-90.5"/>
<text text-anchor="middle" x="1607" y="-78.5" font-family="Helvetica,sans-Serif" font-size="10.00">iterator</text>
</a>
</g>
</g>
<!-- Node2&#45;&gt;Node18 -->
<g id="edge20_Node000002_Node000018" class="edge">
<title>Node2&#45;&gt;Node18</title>
<g id="a_edge20_Node000002_Node000018"><a xlink:title=" ">
<path fill="none" stroke="#63b8ff" d="M712.02,-136.18C727.18,-134.74 744.34,-133.19 760,-132 1072.99,-108.15 1451.8,-89.36 1569.98,-83.73"/>
<polygon fill="#63b8ff" stroke="#63b8ff" points="1570.45,-87.21 1580.28,-83.24 1570.12,-80.22 1570.45,-87.21"/>
</a>
</g>
</g>
<!-- Node19 -->
<g id="Node000019" class="node">
<title>Node19</title>
<g id="a_Node000019"><a xlink:title=" ">
<polygon fill="#e0e0e0" stroke="#999999" points="818.5,-90.5 761.5,-90.5 761.5,-71.5 818.5,-71.5 818.5,-90.5"/>
<text text-anchor="middle" x="790" y="-78.5" font-family="Helvetica,sans-Serif" font-size="10.00">ostream</text>
</a>
</g>
</g>
<!-- Node2&#45;&gt;Node19 -->
<g id="edge21_Node000002_Node000019" class="edge">
<title>Node2&#45;&gt;Node19</title>
<g id="a_edge21_Node000002_Node000019"><a xlink:title=" ">
<path fill="none" stroke="#63b8ff" d="M686.59,-131.99C706.76,-122.25 740.02,-106.16 763.36,-94.88"/>
<polygon fill="#63b8ff" stroke="#63b8ff" points="764.9,-98.02 772.38,-90.52 761.86,-91.72 764.9,-98.02"/>
</a>
</g>
</g>
<!-- Node20 -->
<g id="Node000020" class="node">
<title>Node20</title>
<g id="a_Node000020"><a xlink:title=" ">
<polygon fill="#e0e0e0" stroke="#999999" points="901.5,-90.5 836.5,-90.5 836.5,-71.5 901.5,-71.5 901.5,-90.5"/>
<text text-anchor="middle" x="869" y="-78.5" font-family="Helvetica,sans-Serif" font-size="10.00">stdexcept</text>
</a>
</g>
</g>
<!-- Node2&#45;&gt;Node20 -->
<g id="edge22_Node000002_Node000020" class="edge">
<title>Node2&#45;&gt;Node20</title>
<g id="a_edge22_Node000002_Node000020"><a xlink:title=" ">
<path fill="none" stroke="#63b8ff" d="M701.44,-131.99C733.68,-123.41 784.47,-109.51 828,-96 830.3,-95.29 832.67,-94.53 835.06,-93.76"/>
<polygon fill="#63b8ff" stroke="#63b8ff" points="836.41,-96.99 844.79,-90.52 834.2,-90.35 836.41,-96.99"/>
</a>
</g>
</g>
<!-- Node21 -->
<g id="Node000021" class="node">
<title>Node21</title>
<g id="a_Node000021"><a xlink:title=" ">
<polygon fill="#e0e0e0" stroke="#999999" points="475.5,-90.5 434.5,-90.5 434.5,-71.5 475.5,-71.5 475.5,-90.5"/>
<text text-anchor="middle" x="455" y="-78.5" font-family="Helvetica,sans-Serif" font-size="10.00">tuple</text>
</a>
</g>
</g>
<!-- Node2&#45;&gt;Node21 -->
<g id="edge23_Node000002_Node000021" class="edge">
<title>Node2&#45;&gt;Node21</title>
<g id="a_edge23_Node000002_Node000021"><a xlink:title=" ">
<path fill="none" stroke="#63b8ff" d="M625.91,-132.61C588.17,-125.11 532.15,-112.52 485,-96 483.78,-95.57 482.54,-95.11 481.3,-94.63"/>
<polygon fill="#63b8ff" stroke="#63b8ff" points="482.46,-91.32 471.89,-90.6 479.7,-97.75 482.46,-91.32"/>
</a>
</g>
</g>
<!-- Node3&#45;&gt;Node4 -->
<g id="edge3_Node000003_Node000004" class="edge">
<title>Node3&#45;&gt;Node4</title>
<g id="a_edge3_Node000003_Node000004"><a xlink:title=" ">
<path fill="none" stroke="#63b8ff" d="M317,-71.45C307.48,-69.58 297.4,-67.67 288,-66 187.43,-48.12 159.48,-57.14 61,-30 59.06,-29.47 57.08,-28.86 55.1,-28.2"/>
<polygon fill="#63b8ff" stroke="#63b8ff" points="55.95,-24.79 45.36,-24.64 53.55,-31.36 55.95,-24.79"/>
</a>
</g>
</g>
<!-- Node5&#45;&gt;Node6 -->
<g id="edge5_Node000005_Node000006" class="edge">
<title>Node5&#45;&gt;Node6</title>
<g id="a_edge5_Node000005_Node000006"><a xlink:title=" ">
<path fill="none" stroke="#63b8ff" d="M1148.37,-71.37C1167.41,-60.68 1200.07,-42.35 1222.56,-29.72"/>
<polygon fill="#63b8ff" stroke="#63b8ff" points="1224.5,-32.65 1231.5,-24.7 1221.07,-26.54 1224.5,-32.65"/>
</a>
</g>
</g>
<!-- Node5&#45;&gt;Node7 -->
<g id="edge6_Node000005_Node000007" class="edge">
<title>Node5&#45;&gt;Node7</title>
<g id="a_edge6_Node000005_Node000007"><a xlink:title=" ">
<path fill="none" stroke="#63b8ff" d="M1139.34,-71.37C1146.52,-61.59 1158.39,-45.42 1167.46,-33.08"/>
<polygon fill="#63b8ff" stroke="#63b8ff" points="1170.36,-35.04 1173.46,-24.91 1164.72,-30.89 1170.36,-35.04"/>
</a>
</g>
</g>
<!-- Node8&#45;&gt;Node6 -->
<g id="edge16_Node000008_Node000006" class="edge">
<title>Node8&#45;&gt;Node6</title>
<g id="a_edge16_Node000008_Node000006"><a xlink:title=" ">
<path fill="none" stroke="#63b8ff" d="M595.09,-71.44C605.72,-69.37 617.26,-67.37 628,-66 885.96,-33.11 958.28,-87.01 1212,-30 1214.37,-29.47 1216.79,-28.79 1219.19,-28.03"/>
<polygon fill="#63b8ff" stroke="#63b8ff" points="1220.61,-31.24 1228.82,-24.54 1218.23,-24.66 1220.61,-31.24"/>
</a>
</g>
</g>
<!-- Node9 -->
<g id="Node000009" class="node">
<title>Node9</title>
<g id="a_Node000009"><a xlink:title=" ">
<polygon fill="#e0e0e0" stroke="#999999" points="1139.5,-24.5 1006.5,-24.5 1006.5,-5.5 1139.5,-5.5 1139.5,-24.5"/>
<text text-anchor="middle" x="1073" y="-12.5" font-family="Helvetica,sans-Serif" font-size="10.00">boost/mpl/bool_fwd.hpp</text>
</a>
</g>
</g>
<!-- Node8&#45;&gt;Node9 -->
<g id="edge8_Node000008_Node000009" class="edge">
<title>Node8&#45;&gt;Node9</title>
<g id="a_edge8_Node000008_Node000009"><a xlink:title=" ">
<path fill="none" stroke="#63b8ff" d="M596.25,-71.47C606.57,-69.48 617.67,-67.5 628,-66 791.5,-42.21 834.41,-53.18 998,-30 1005.39,-28.95 1013.15,-27.69 1020.77,-26.35"/>
<polygon fill="#63b8ff" stroke="#63b8ff" points="1021.45,-29.79 1030.67,-24.57 1020.2,-22.9 1021.45,-29.79"/>
</a>
</g>
</g>
<!-- Node10 -->
<g id="Node000010" class="node">
<title>Node10</title>
<g id="a_Node000010"><a xlink:title=" ">
<polygon fill="#e0e0e0" stroke="#999999" points="194,-24.5 70,-24.5 70,-5.5 194,-5.5 194,-24.5"/>
<text text-anchor="middle" x="132" y="-12.5" font-family="Helvetica,sans-Serif" font-size="10.00">boost/mpl/greater.hpp</text>
</a>
</g>
</g>
<!-- Node8&#45;&gt;Node10 -->
<g id="edge9_Node000008_Node000010" class="edge">
<title>Node8&#45;&gt;Node10</title>
<g id="a_edge9_Node000008_Node000010"><a xlink:title=" ">
<path fill="none" stroke="#63b8ff" d="M514.58,-71.47C504.59,-69.55 493.93,-67.6 484,-66 359.69,-45.97 327.28,-50.19 203,-30 196.42,-28.93 189.51,-27.7 182.7,-26.43"/>
<polygon fill="#63b8ff" stroke="#63b8ff" points="183.32,-22.98 172.84,-24.54 182,-29.86 183.32,-22.98"/>
</a>
</g>
</g>
<!-- Node11 -->
<g id="Node000011" class="node">
<title>Node11</title>
<g id="a_Node000011"><a xlink:title=" ">
<polygon fill="#e0e0e0" stroke="#999999" points="314,-24.5 212,-24.5 212,-5.5 314,-5.5 314,-24.5"/>
<text text-anchor="middle" x="263" y="-12.5" font-family="Helvetica,sans-Serif" font-size="10.00">boost/mpl/int.hpp</text>
</a>
</g>
</g>
<!-- Node8&#45;&gt;Node11 -->
<g id="edge10_Node000008_Node000011" class="edge">
<title>Node8&#45;&gt;Node11</title>
<g id="a_edge10_Node000008_Node000011"><a xlink:title=" ">
<path fill="none" stroke="#63b8ff" d="M515.12,-71.46C468.56,-61.68 390.22,-45.05 323,-30 318.53,-29 313.89,-27.94 309.24,-26.88"/>
<polygon fill="#63b8ff" stroke="#63b8ff" points="309.68,-23.39 299.15,-24.54 308.1,-30.21 309.68,-23.39"/>
</a>
</g>
</g>
<!-- Node12 -->
<g id="Node000012" class="node">
<title>Node12</title>
<g id="a_Node000012"><a xlink:title=" ">
<polygon fill="#e0e0e0" stroke="#999999" points="438,-30 332,-30 332,0 438,0 438,-30"/>
<text text-anchor="start" x="340" y="-18" font-family="Helvetica,sans-Serif" font-size="10.00">boost/mpl/integral</text>
<text text-anchor="middle" x="385" y="-7" font-family="Helvetica,sans-Serif" font-size="10.00">_c_tag.hpp</text>
</a>
</g>
</g>
<!-- Node8&#45;&gt;Node12 -->
<g id="edge11_Node000008_Node000012" class="edge">
<title>Node8&#45;&gt;Node12</title>
<g id="a_edge11_Node000008_Node000012"><a xlink:title=" ">
<path fill="none" stroke="#63b8ff" d="M532.94,-71.37C507.22,-61.74 464.92,-45.91 432.12,-33.64"/>
<polygon fill="#63b8ff" stroke="#63b8ff" points="433.31,-30.34 422.72,-30.12 430.85,-36.9 433.31,-30.34"/>
</a>
</g>
</g>
<!-- Node13 -->
<g id="Node000013" class="node">
<title>Node13</title>
<g id="a_Node000013"><a xlink:title=" ">
<polygon fill="#e0e0e0" stroke="#999999" points="607.5,-30 456.5,-30 456.5,0 607.5,0 607.5,-30"/>
<text text-anchor="start" x="464.5" y="-18" font-family="Helvetica,sans-Serif" font-size="10.00">boost/serialization</text>
<text text-anchor="middle" x="532" y="-7" font-family="Helvetica,sans-Serif" font-size="10.00">/is_bitwise_serializable.hpp</text>
</a>
</g>
</g>
<!-- Node8&#45;&gt;Node13 -->
<g id="edge12_Node000008_Node000013" class="edge">
<title>Node8&#45;&gt;Node13</title>
<g id="a_edge12_Node000008_Node000013"><a xlink:title=" ">
<path fill="none" stroke="#63b8ff" d="M552.76,-71.37C549.75,-63.32 545.1,-50.94 540.97,-39.93"/>
<polygon fill="#63b8ff" stroke="#63b8ff" points="544.17,-38.49 537.39,-30.36 537.62,-40.95 544.17,-38.49"/>
</a>
</g>
</g>
<!-- Node14 -->
<g id="Node000014" class="node">
<title>Node14</title>
<g id="a_Node000014"><a xlink:title=" ">
<polygon fill="#e0e0e0" stroke="#999999" points="732.5,-30 625.5,-30 625.5,0 732.5,0 732.5,-30"/>
<text text-anchor="start" x="633.5" y="-18" font-family="Helvetica,sans-Serif" font-size="10.00">boost/serialization</text>
<text text-anchor="middle" x="679" y="-7" font-family="Helvetica,sans-Serif" font-size="10.00">/level.hpp</text>
</a>
</g>
</g>
<!-- Node8&#45;&gt;Node14 -->
<g id="edge13_Node000008_Node000014" class="edge">
<title>Node8&#45;&gt;Node14</title>
<g id="a_edge13_Node000008_Node000014"><a xlink:title=" ">
<path fill="none" stroke="#63b8ff" d="M572.59,-71.37C590.53,-62.03 619.7,-46.86 642.96,-34.75"/>
<polygon fill="#63b8ff" stroke="#63b8ff" points="644.62,-37.84 651.87,-30.12 641.38,-31.63 644.62,-37.84"/>
</a>
</g>
</g>
<!-- Node15 -->
<g id="Node000015" class="node">
<title>Node15</title>
<g id="a_Node000015"><a xlink:title=" ">
<polygon fill="#e0e0e0" stroke="#999999" points="857.5,-30 750.5,-30 750.5,0 857.5,0 857.5,-30"/>
<text text-anchor="start" x="758.5" y="-18" font-family="Helvetica,sans-Serif" font-size="10.00">boost/serialization</text>
<text text-anchor="middle" x="804" y="-7" font-family="Helvetica,sans-Serif" font-size="10.00">/tracking.hpp</text>
</a>
</g>
</g>
<!-- Node8&#45;&gt;Node15 -->
<g id="edge14_Node000008_Node000015" class="edge">
<title>Node8&#45;&gt;Node15</title>
<g id="a_edge14_Node000008_Node000015"><a xlink:title=" ">
<path fill="none" stroke="#63b8ff" d="M589.19,-71.44C627.72,-61.49 692.13,-44.87 740.39,-32.41"/>
<polygon fill="#63b8ff" stroke="#63b8ff" points="741.32,-35.79 750.13,-29.9 739.57,-29.01 741.32,-35.79"/>
</a>
</g>
</g>
<!-- Node16 -->
<g id="Node000016" class="node">
<title>Node16</title>
<g id="a_Node000016"><a xlink:title=" ">
<polygon fill="#e0e0e0" stroke="#999999" points="988.5,-30 875.5,-30 875.5,0 988.5,0 988.5,-30"/>
<text text-anchor="start" x="883.5" y="-18" font-family="Helvetica,sans-Serif" font-size="10.00">boost/serialization</text>
<text text-anchor="middle" x="932" y="-7" font-family="Helvetica,sans-Serif" font-size="10.00">/tracking_enum.hpp</text>
</a>
</g>
</g>
<!-- Node8&#45;&gt;Node16 -->
<g id="edge15_Node000008_Node000016" class="edge">
<title>Node8&#45;&gt;Node16</title>
<g id="a_edge15_Node000008_Node000016"><a xlink:title=" ">
<path fill="none" stroke="#63b8ff" d="M598.2,-71.48C607.97,-69.6 618.34,-67.67 628,-66 730.65,-48.3 759.6,-49.24 865.2,-30.26"/>
<polygon fill="#63b8ff" stroke="#63b8ff" points="866.11,-33.66 875.32,-28.43 864.86,-26.77 866.11,-33.66"/>
</a>
</g>
</g>
<!-- Node22&#45;&gt;Node2 -->
<g id="edge28_Node000022_Node000002" class="edge">
<title>Node22&#45;&gt;Node2</title>
<g id="a_edge28_Node000022_Node000002"><a xlink:title=" ">
<path fill="none" stroke="#63b8ff" d="M1082.79,-190.18C996.9,-180.28 813.17,-159.11 722.24,-148.63"/>
<polygon fill="#63b8ff" stroke="#63b8ff" points="722.48,-145.14 712.15,-147.47 721.68,-152.09 722.48,-145.14"/>
</a>
</g>
</g>
<!-- Node22&#45;&gt;Node4 -->
<g id="edge31_Node000022_Node000004" class="edge">
<title>Node22&#45;&gt;Node4</title>
<g id="a_edge31_Node000022_Node000004"><a xlink:title=" ">
<path fill="none" stroke="#63b8ff" d="M1082.65,-193.7C973.7,-189.1 703.94,-175.55 617,-151 598.83,-145.87 597.11,-137.33 579,-132 437.89,-90.46 393.47,-128.46 250,-96 177.48,-79.59 96.15,-46.69 54.29,-28.61"/>
<polygon fill="#63b8ff" stroke="#63b8ff" points="55.57,-25.35 45.01,-24.56 52.78,-31.77 55.57,-25.35"/>
</a>
</g>
</g>
<!-- Node22&#45;&gt;Node5 -->
<g id="edge29_Node000022_Node000005" class="edge">
<title>Node22&#45;&gt;Node5</title>
<g id="a_edge29_Node000022_Node000005"><a xlink:title=" ">
<path fill="none" stroke="#63b8ff" d="M1127.76,-186.99C1126.52,-178.05 1124.7,-163.57 1124,-151 1123.53,-142.57 1123.25,-140.41 1124,-132 1124.94,-121.52 1126.95,-109.95 1128.84,-100.58"/>
<polygon fill="#63b8ff" stroke="#63b8ff" points="1132.27,-101.3 1130.93,-90.79 1125.42,-99.84 1132.27,-101.3"/>
</a>
</g>
</g>
<!-- Node22&#45;&gt;Node6 -->
<g id="edge34_Node000022_Node000006" class="edge">
<title>Node22&#45;&gt;Node6</title>
<g id="a_edge34_Node000022_Node000006"><a xlink:title=" ">
<path fill="none" stroke="#63b8ff" d="M1175.23,-190.89C1201.22,-185.67 1231.66,-174.56 1248,-151 1272.41,-115.81 1261.46,-62.07 1253.2,-34.19"/>
<polygon fill="#63b8ff" stroke="#63b8ff" points="1256.5,-33.03 1250.14,-24.56 1249.83,-35.15 1256.5,-33.03"/>
</a>
</g>
</g>
<!-- Node22&#45;&gt;Node18 -->
<g id="edge37_Node000022_Node000018" class="edge">
<title>Node22&#45;&gt;Node18</title>
<g id="a_edge37_Node000022_Node000018"><a xlink:title=" ">
<path fill="none" stroke="#63b8ff" d="M1175.06,-193.96C1285.17,-189.87 1556.83,-177.22 1588,-151 1602.38,-138.9 1606.4,-117.01 1607.28,-101.12"/>
<polygon fill="#63b8ff" stroke="#63b8ff" points="1610.79,-100.9 1607.47,-90.84 1603.79,-100.77 1610.79,-100.9"/>
</a>
</g>
</g>
<!-- Node22&#45;&gt;Node23 -->
<g id="edge26_Node000022_Node000023" class="edge">
<title>Node22&#45;&gt;Node23</title>
<g id="a_edge26_Node000022_Node000023"><a xlink:title=" ">
<path fill="none" stroke="#63b8ff" d="M1082.97,-192.74C980.16,-186.48 723.84,-170.29 498.14,-151.07"/>
<polygon fill="#63b8ff" stroke="#63b8ff" points="498.36,-147.58 488.1,-150.21 497.76,-154.55 498.36,-147.58"/>
</a>
</g>
</g>
<!-- Node24 -->
<g id="Node000024" class="node">
<title>Node24</title>
<g id="a_Node000024"><a xlink:title=" ">
<polygon fill="#e0e0e0" stroke="#999999" points="1435,-151 1295,-151 1295,-132 1435,-132 1435,-151"/>
<text text-anchor="middle" x="1365" y="-139" font-family="Helvetica,sans-Serif" font-size="10.00">boost/qvm/vec_traits.hpp</text>
</a>
</g>
</g>
<!-- Node22&#45;&gt;Node24 -->
<g id="edge27_Node000022_Node000024" class="edge">
<title>Node22&#45;&gt;Node24</title>
<g id="a_edge27_Node000022_Node000024"><a xlink:title=" ">
<path fill="none" stroke="#63b8ff" d="M1166.92,-186.98C1207.65,-177.84 1272.5,-163.27 1316.82,-153.32"/>
<polygon fill="#63b8ff" stroke="#63b8ff" points="1317.8,-156.69 1326.79,-151.08 1316.26,-149.86 1317.8,-156.69"/>
</a>
</g>
</g>
<!-- Node22&#45;&gt;Node25 -->
<g id="edge30_Node000022_Node000025" class="edge">
<title>Node22&#45;&gt;Node25</title>
<g id="a_edge30_Node000022_Node000025"><a xlink:title=" ">
<path fill="none" stroke="#63b8ff" d="M1082.9,-193.31C988.8,-188.51 767.98,-175.44 584,-151 582.73,-150.83 581.45,-150.65 580.15,-150.46"/>
<polygon fill="#63b8ff" stroke="#63b8ff" points="580.53,-146.98 570.1,-148.86 579.43,-153.89 580.53,-146.98"/>
</a>
</g>
</g>
<!-- Node26 -->
<g id="Node000026" class="node">
<title>Node26</title>
<g id="a_Node000026"><a xlink:title=" ">
<polygon fill="#e0e0e0" stroke="#999999" points="1500.5,-151 1453.5,-151 1453.5,-132 1500.5,-132 1500.5,-151"/>
<text text-anchor="middle" x="1477" y="-139" font-family="Helvetica,sans-Serif" font-size="10.00">cmath</text>
</a>
</g>
</g>
<!-- Node22&#45;&gt;Node26 -->
<g id="edge32_Node000022_Node000026" class="edge">
<title>Node22&#45;&gt;Node26</title>
<g id="a_edge32_Node000022_Node000026"><a xlink:title=" ">
<path fill="none" stroke="#63b8ff" d="M1175.18,-190.61C1234.82,-183.94 1342.01,-170.73 1443.19,-150.95"/>
<polygon fill="#63b8ff" stroke="#63b8ff" points="1444.15,-154.32 1453.28,-148.95 1442.79,-147.46 1444.15,-154.32"/>
</a>
</g>
</g>
<!-- Node27 -->
<g id="Node000027" class="node">
<title>Node27</title>
<g id="a_Node000027"><a xlink:title=" ">
<polygon fill="#e0e0e0" stroke="#999999" points="1579,-151 1519,-151 1519,-132 1579,-132 1579,-151"/>
<text text-anchor="middle" x="1549" y="-139" font-family="Helvetica,sans-Serif" font-size="10.00">concepts</text>
</a>
</g>
</g>
<!-- Node22&#45;&gt;Node27 -->
<g id="edge33_Node000022_Node000027" class="edge">
<title>Node22&#45;&gt;Node27</title>
<g id="a_edge33_Node000022_Node000027"><a xlink:title=" ">
<path fill="none" stroke="#63b8ff" d="M1175.24,-191.58C1245.25,-185.32 1382.48,-171.78 1508.6,-151.08"/>
<polygon fill="#63b8ff" stroke="#63b8ff" points="1509.53,-154.47 1518.82,-149.38 1508.38,-147.57 1509.53,-154.47"/>
</a>
</g>
</g>
<!-- Node28 -->
<g id="Node000028" class="node">
<title>Node28</title>
<g id="a_Node000028"><a xlink:title=" ">
<polygon fill="#e0e0e0" stroke="#999999" points="833.5,-151 768.5,-151 768.5,-132 833.5,-132 833.5,-151"/>
<text text-anchor="middle" x="801" y="-139" font-family="Helvetica,sans-Serif" font-size="10.00">functional</text>
</a>
</g>
</g>
<!-- Node22&#45;&gt;Node28 -->
<g id="edge35_Node000022_Node000028" class="edge">
<title>Node22&#45;&gt;Node28</title>
<g id="a_edge35_Node000022_Node000028"><a xlink:title=" ">
<path fill="none" stroke="#63b8ff" d="M1082.83,-188.97C1028.19,-181.1 934.24,-167.11 843.44,-151"/>
<polygon fill="#63b8ff" stroke="#63b8ff" points="843.99,-147.55 833.53,-149.24 842.76,-154.44 843.99,-147.55"/>
</a>
</g>
</g>
<!-- Node29 -->
<g id="Node000029" class="node">
<title>Node29</title>
<g id="a_Node000029"><a xlink:title=" ">
<polygon fill="#e0e0e0" stroke="#999999" points="934.5,-151 851.5,-151 851.5,-132 934.5,-132 934.5,-151"/>
<text text-anchor="middle" x="893" y="-139" font-family="Helvetica,sans-Serif" font-size="10.00">initializer_list</text>
</a>
</g>
</g>
<!-- Node22&#45;&gt;Node29 -->
<g id="edge36_Node000022_Node000029" class="edge">
<title>Node22&#45;&gt;Node29</title>
<g id="a_edge36_Node000022_Node000029"><a xlink:title=" ">
<path fill="none" stroke="#63b8ff" d="M1091.08,-186.98C1050.35,-177.84 985.5,-163.27 941.18,-153.32"/>
<polygon fill="#63b8ff" stroke="#63b8ff" points="941.74,-149.86 931.21,-151.08 940.2,-156.69 941.74,-149.86"/>
</a>
</g>
</g>
<!-- Node30 -->
<g id="Node000030" class="node">
<title>Node30</title>
<g id="a_Node000030"><a xlink:title=" ">
<polygon fill="#e0e0e0" stroke="#999999" points="1009,-151 953,-151 953,-132 1009,-132 1009,-151"/>
<text text-anchor="middle" x="981" y="-139" font-family="Helvetica,sans-Serif" font-size="10.00">numeric</text>
</a>
</g>
</g>
<!-- Node22&#45;&gt;Node30 -->
<g id="edge38_Node000022_Node000030" class="edge">
<title>Node22&#45;&gt;Node30</title>
<g id="a_edge38_Node000022_Node000030"><a xlink:title=" ">
<path fill="none" stroke="#63b8ff" d="M1105.22,-186.98C1080.77,-178.23 1042.47,-164.51 1014.85,-154.62"/>
<polygon fill="#63b8ff" stroke="#63b8ff" points="1015.81,-151.25 1005.21,-151.17 1013.45,-157.84 1015.81,-151.25"/>
</a>
</g>
</g>
<!-- Node31 -->
<g id="Node000031" class="node">
<title>Node31</title>
<g id="a_Node000031"><a xlink:title=" ">
<polygon fill="#e0e0e0" stroke="#999999" points="1077,-151 1027,-151 1027,-132 1077,-132 1077,-151"/>
<text text-anchor="middle" x="1052" y="-139" font-family="Helvetica,sans-Serif" font-size="10.00">ranges</text>
</a>
</g>
</g>
<!-- Node22&#45;&gt;Node31 -->
<g id="edge39_Node000022_Node000031" class="edge">
<title>Node22&#45;&gt;Node31</title>
<g id="a_edge39_Node000022_Node000031"><a xlink:title=" ">
<path fill="none" stroke="#63b8ff" d="M1116.63,-186.98C1104.91,-178.92 1087.08,-166.65 1073.11,-157.03"/>
<polygon fill="#63b8ff" stroke="#63b8ff" points="1074.82,-153.96 1064.6,-151.17 1070.85,-159.72 1074.82,-153.96"/>
</a>
</g>
</g>
<!-- Node32 -->
<g id="Node000032" class="node">
<title>Node32</title>
<g id="a_Node000032"><a xlink:title=" ">
<polygon fill="#e0e0e0" stroke="#999999" points="1173,-151 1133,-151 1133,-132 1173,-132 1173,-151"/>
<text text-anchor="middle" x="1153" y="-139" font-family="Helvetica,sans-Serif" font-size="10.00">span</text>
</a>
</g>
</g>
<!-- Node22&#45;&gt;Node32 -->
<g id="edge40_Node000022_Node000032" class="edge">
<title>Node22&#45;&gt;Node32</title>
<g id="a_edge40_Node000022_Node000032"><a xlink:title=" ">
<path fill="none" stroke="#63b8ff" d="M1132.96,-186.75C1136.21,-179.57 1140.92,-169.18 1144.95,-160.27"/>
<polygon fill="#63b8ff" stroke="#63b8ff" points="1148.17,-161.64 1149.11,-151.09 1141.8,-158.75 1148.17,-161.64"/>
</a>
</g>
</g>
<!-- Node22&#45;&gt;Node33 -->
<g id="edge41_Node000022_Node000033" class="edge">
<title>Node22&#45;&gt;Node33</title>
<g id="a_edge41_Node000022_Node000033"><a xlink:title=" ">
<path fill="none" stroke="#63b8ff" d="M1175.26,-192.58C1262.62,-186.78 1457.74,-172.51 1621,-151 1622.3,-150.83 1623.62,-150.65 1624.95,-150.46"/>
<polygon fill="#63b8ff" stroke="#63b8ff" points="1625.9,-153.86 1635.25,-148.89 1624.84,-146.94 1625.9,-153.86"/>
</a>
</g>
</g>
<!-- Node34 -->
<g id="Node000034" class="node">
<title>Node34</title>
<g id="a_Node000034"><a xlink:title=" ">
<polygon fill="#e0e0e0" stroke="#999999" points="1238.5,-151 1191.5,-151 1191.5,-132 1238.5,-132 1238.5,-151"/>
<text text-anchor="middle" x="1215" y="-139" font-family="Helvetica,sans-Serif" font-size="10.00">vector</text>
</a>
</g>
</g>
<!-- Node22&#45;&gt;Node34 -->
<g id="edge42_Node000022_Node000034" class="edge">
<title>Node22&#45;&gt;Node34</title>
<g id="a_edge42_Node000022_Node000034"><a xlink:title=" ">
<path fill="none" stroke="#63b8ff" d="M1142.82,-186.98C1156.15,-178.77 1176.58,-166.18 1192.31,-156.49"/>
<polygon fill="#63b8ff" stroke="#63b8ff" points="1194.25,-159.4 1200.93,-151.17 1190.58,-153.44 1194.25,-159.4"/>
</a>
</g>
</g>
<!-- Node35&#45;&gt;Node18 -->
<g id="edge44_Node000035_Node000018" class="edge">
<title>Node35&#45;&gt;Node18</title>
<g id="a_edge44_Node000035_Node000018"><a xlink:title=" ">
<path fill="none" stroke="#63b8ff" d="M1683.63,-186.81C1700.83,-174.72 1726.75,-152.03 1714,-132 1698.61,-107.83 1668.14,-95.15 1643.64,-88.61"/>
<polygon fill="#63b8ff" stroke="#63b8ff" points="1644.45,-85.21 1633.9,-86.25 1642.8,-92.01 1644.45,-85.21"/>
</a>
</g>
</g>
<!-- Node35&#45;&gt;Node33 -->
<g id="edge45_Node000035_Node000033" class="edge">
<title>Node35&#45;&gt;Node33</title>
<g id="a_edge45_Node000035_Node000033"><a xlink:title=" ">
<path fill="none" stroke="#63b8ff" d="M1670,-186.75C1670,-179.8 1670,-169.85 1670,-161.13"/>
<polygon fill="#63b8ff" stroke="#63b8ff" points="1673.5,-161.09 1670,-151.09 1666.5,-161.09 1673.5,-161.09"/>
</a>
</g>
</g>
</g>
</svg>

<g id="navigator" transform="translate(0 0)" fill="#404254">
  <rect fill="#f2f5e9" fill-opacity="0.5" stroke="#606060" stroke-width=".5" x="0" y="0" width="60" height="60"/>
  <use id="zoomplus" xlink:href="#zoomPlus" x="17" y="9" onmousedown="handleZoom(evt,'in')"/>
  <use id="zoomminus" xlink:href="#zoomMin" x="42" y="9" onmousedown="handleZoom(evt,'out')"/>
  <use id="reset" xlink:href="#resetDef" x="30" y="36" onmousedown="handleReset()"/>
   <use id="arrowup" xlink:href="#arrowUp" x="0" y="0" onmousedown="handlePan(0,-1)"/>
  <use id="arrowright" xlink:href="#arrowRight" x="0" y="0" onmousedown="handlePan(1,0)"/>
  <use id="arrowdown" xlink:href="#arrowDown" x="0" y="0" onmousedown="handlePan(0,1)"/>
  <use id="arrowleft" xlink:href="#arrowLeft" x="0" y="0" onmousedown="handlePan(-1,0)"/>
</g>
<svg viewBox="0 0 15 15" width="100%" height="30px" preserveAspectRatio="xMaxYMin meet">
 <g id="arrow_out" transform="scale(0.3 0.3)">
  <a xlink:href="matrix_8hpp__incl_org.svg" target="_base">
   <rect id="button" ry="5" rx="5" y="6" x="6" height="38" width="38"
        fill="#f2f5e9" fill-opacity="0.5" stroke="#606060" stroke-width="1.0"/>
   <path id="arrow"
     d="M 11.500037,31.436501 C 11.940474,20.09759 22.043105,11.32322 32.158766,21.979434 L 37.068811,17.246167 C 37.068811,17.246167 37.088388,32 37.088388,32 L 22.160133,31.978069 C 22.160133,31.978069 26.997745,27.140456 26.997745,27.140456 C 18.528582,18.264221 13.291696,25.230495 11.500037,31.436501 z"
     style="fill:#404040;"/>
  </a>
 </g>
</svg>

<style type='text/css'>
<![CDATA[
[data-mouse-over-selected='false'] { opacity: 0.7; }
[data-mouse-over-selected='true']  { opacity: 1.0; }
]]>
</style>
<script type="application/ecmascript"><![CDATA[
document.addEventListener('DOMContentLoaded', (event) => {
  highlightEdges();
  highlightAdjacentNodes();
});
]]></script>
</svg>
