<?xml version="1.0" encoding="UTF-8" standalone="no"?>
<!DOCTYPE svg PUBLIC "-//W3C//DTD SVG 1.1//EN"
 "http://www.w3.org/Graphics/SVG/1.1/DTD/svg11.dtd">
<!-- Generated by graphviz version 2.43.0 (0)
 -->
<!-- Title: matrix.hpp Pages: 1 -->
<!--zoomable 274 -->
<svg id="main" version="1.1" xmlns="http://www.w3.org/2000/svg" xmlns:xlink="http://www.w3.org/1999/xlink" xml:space="preserve" onload="init(evt)">
<style type="text/css"><![CDATA[
.edge:hover path { stroke: red; }
.edge:hover polygon { stroke: red; fill: red; }
]]></style>
<script type="text/javascript"><![CDATA[
var edges = document.getElementsByTagName('g');
if (edges && edges.length) {
  for (var i=0;i<edges.length;i++) {
    if (edges[i].id.substr(0,4)=='edge') {
      edges[i].setAttribute('class','edge');
    }
  }
}
]]></script>
        <defs>
                <circle id="rim" cx="0" cy="0" r="7"/>
                <circle id="rim2" cx="0" cy="0" r="3.5"/>
                <g id="zoomPlus">
                        <use xlink:href="#rim" fill="#404040">
                                <set attributeName="fill" to="#808080" begin="zoomplus.mouseover" end="zoomplus.mouseout"/>
                        </use>
                        <path d="M-4,0h8M0,-4v8" fill="none" stroke="white" stroke-width="1.5" pointer-events="none"/>
                </g>
                <g id="zoomMin">
                        <use xlink:href="#rim" fill="#404040">
                                <set attributeName="fill" to="#808080" begin="zoomminus.mouseover" end="zoomminus.mouseout"/>
                        </use>
                        <path d="M-4,0h8" fill="none" stroke="white" stroke-width="1.5" pointer-events="none"/>
                </g>
                <g id="dirArrow">
                        <path fill="none" stroke="white" stroke-width="1.5" d="M0,-3.0v7 M-2.5,-0.5L0,-3.0L2.5,-0.5"/>
                </g>
               <g id="resetDef">
                       <use xlink:href="#rim2" fill="#404040">
                               <set attributeName="fill" to="#808080" begin="reset.mouseover" end="reset.mouseout"/>
                       </use>
               </g>
        </defs>

<script type="text/javascript">
var viewWidth = 3884;
var viewHeight = 274;
var sectionId = 'dynsection-0';
</script>
<script xlink:href="svgpan.js"/>
<svg id="graph" class="graph">
<g id="viewport">
<title>matrix.hpp</title>
<!-- Node1 -->
<g id="node1" class="node">
<title>Node1</title>
<g id="a_node1"><a xlink:title="Matrix implementation and trait types for boost qvm interoperability.">
<polygon fill="#bfbfbf" stroke="black" points="2011.5,-246.5 2011.5,-265.5 2081.5,-265.5 2081.5,-246.5 2011.5,-246.5"/>
<text text-anchor="middle" x="2046.5" y="-253.5" font-family="Helvetica,sans-Serif" font-size="10.00">matrix.hpp</text>
</a>
</g>
</g>
<!-- Node2 -->
<g id="node2" class="node">
<title>Node2</title>
<g id="a_node2"><a xlink:href="Array_8hpp.html" target="_top" xlink:title="Array implementation with CUDA support.">
<polygon fill="none" stroke="black" points="1691.5,-134.5 1691.5,-153.5 1777.5,-153.5 1777.5,-134.5 1691.5,-134.5"/>
<text text-anchor="middle" x="1734.5" y="-141.5" font-family="Helvetica,sans-Serif" font-size="10.00">utils/Array.hpp</text>
</a>
</g>
</g>
<!-- Node1&#45;&gt;Node2 -->
<g id="edge1" class="edge">
<title>Node1&#45;&gt;Node2</title>
<path fill="none" stroke="midnightblue" d="M2011.19,-251.94C1949.46,-246.08 1824.92,-231.9 1787.5,-210 1768.32,-198.78 1753.18,-177.85 1744.07,-162.76"/>
<polygon fill="midnightblue" stroke="midnightblue" points="1746.98,-160.8 1738.98,-153.85 1740.9,-164.27 1746.98,-160.8"/>
</g>
<!-- Node4 -->
<g id="node4" class="node">
<title>Node4</title>
<g id="a_node4"><a xlink:title=" ">
<polygon fill="none" stroke="#bfbfbf" points="1812.5,-6 1812.5,-25 1864.5,-25 1864.5,-6 1812.5,-6"/>
<text text-anchor="middle" x="1838.5" y="-13" font-family="Helvetica,sans-Serif" font-size="10.00">cassert</text>
</a>
</g>
</g>
<!-- Node1&#45;&gt;Node4 -->
<g id="edge42" class="edge">
<title>Node1&#45;&gt;Node4</title>
<path fill="none" stroke="midnightblue" d="M2011.32,-252.94C1955.84,-248.87 1852.03,-237.68 1829.5,-210 1823.89,-203.11 1825.58,-197.98 1829.5,-190 1844.23,-159.99 1933.77,-128.01 1948.5,-98 1954.57,-85.63 1955.94,-78.6 1948.5,-67 1932.35,-41.81 1900.14,-29.02 1874.73,-22.63"/>
<polygon fill="midnightblue" stroke="midnightblue" points="1875.2,-19.15 1864.67,-20.34 1873.64,-25.97 1875.2,-19.15"/>
</g>
<!-- Node6 -->
<g id="node6" class="node">
<title>Node6</title>
<g id="a_node6"><a xlink:title=" ">
<polygon fill="none" stroke="#bfbfbf" points="1091,-6 1091,-25 1144,-25 1144,-6 1091,-6"/>
<text text-anchor="middle" x="1117.5" y="-13" font-family="Helvetica,sans-Serif" font-size="10.00">cstddef</text>
</a>
</g>
</g>
<!-- Node1&#45;&gt;Node6 -->
<g id="edge43" class="edge">
<title>Node1&#45;&gt;Node6</title>
<path fill="none" stroke="midnightblue" d="M2011.25,-255.14C1808.5,-255.76 798.41,-256.5 753.5,-210 742.84,-198.97 733.56,-164.4 757.5,-134 850.99,-15.3 939.32,-82.15 1081.5,-31 1083.4,-30.32 1085.35,-29.59 1087.31,-28.85"/>
<polygon fill="midnightblue" stroke="midnightblue" points="1089,-31.95 1097.04,-25.05 1086.45,-25.43 1089,-31.95"/>
</g>
<!-- Node21 -->
<g id="node21" class="node">
<title>Node21</title>
<g id="a_node21"><a xlink:href="Vector_8hpp.html" target="_top" xlink:title="Vector implementation and trait types for boost qvm interoperability.">
<polygon fill="none" stroke="black" points="1293,-190.5 1293,-209.5 1386,-209.5 1386,-190.5 1293,-190.5"/>
<text text-anchor="middle" x="1339.5" y="-197.5" font-family="Helvetica,sans-Serif" font-size="10.00">utils/Vector.hpp</text>
</a>
</g>
</g>
<!-- Node1&#45;&gt;Node21 -->
<g id="edge23" class="edge">
<title>Node1&#45;&gt;Node21</title>
<path fill="none" stroke="midnightblue" d="M2011.44,-252.32C1897.54,-243.62 1537.21,-216.1 1396.54,-205.36"/>
<polygon fill="midnightblue" stroke="midnightblue" points="1396.64,-201.85 1386.4,-204.58 1396.1,-208.83 1396.64,-201.85"/>
</g>
<!-- Node22 -->
<g id="node22" class="node">
<title>Node22</title>
<g id="a_node22"><a xlink:title=" ">
<polygon fill="none" stroke="#bfbfbf" points="861.5,-134.5 861.5,-153.5 1011.5,-153.5 1011.5,-134.5 861.5,-134.5"/>
<text text-anchor="middle" x="936.5" y="-141.5" font-family="Helvetica,sans-Serif" font-size="10.00">boost/qvm/deduce_vec.hpp</text>
</a>
</g>
</g>
<!-- Node1&#45;&gt;Node22 -->
<g id="edge51" class="edge">
<title>Node1&#45;&gt;Node22</title>
<path fill="none" stroke="midnightblue" d="M2011.37,-254.5C1902.74,-252.63 1562.72,-244.25 1283.5,-210 1175.37,-196.74 1050.12,-170.56 983.64,-155.79"/>
<polygon fill="midnightblue" stroke="midnightblue" points="984.01,-152.29 973.49,-153.52 982.49,-159.12 984.01,-152.29"/>
</g>
<!-- Node24 -->
<g id="node24" class="node">
<title>Node24</title>
<g id="a_node24"><a xlink:title=" ">
<polygon fill="none" stroke="#bfbfbf" points="1795.5,-134.5 1795.5,-153.5 1859.5,-153.5 1859.5,-134.5 1795.5,-134.5"/>
<text text-anchor="middle" x="1827.5" y="-141.5" font-family="Helvetica,sans-Serif" font-size="10.00">algorithm</text>
</a>
</g>
</g>
<!-- Node1&#45;&gt;Node24 -->
<g id="edge40" class="edge">
<title>Node1&#45;&gt;Node24</title>
<path fill="none" stroke="midnightblue" d="M2011.07,-254C1948.72,-251.41 1823.44,-242.23 1796.5,-210 1784.3,-195.41 1797.55,-175.2 1810.31,-161.21"/>
<polygon fill="midnightblue" stroke="midnightblue" points="1813.08,-163.38 1817.57,-153.78 1808.08,-158.49 1813.08,-163.38"/>
</g>
<!-- Node29 -->
<g id="node29" class="node">
<title>Node29</title>
<g id="a_node29"><a xlink:title=" ">
<polygon fill="none" stroke="#bfbfbf" points="775,-134.5 775,-153.5 844,-153.5 844,-134.5 775,-134.5"/>
<text text-anchor="middle" x="809.5" y="-141.5" font-family="Helvetica,sans-Serif" font-size="10.00">type_traits</text>
</a>
</g>
</g>
<!-- Node1&#45;&gt;Node29 -->
<g id="edge44" class="edge">
<title>Node1&#45;&gt;Node29</title>
<path fill="none" stroke="midnightblue" d="M2011.13,-254.89C1890.83,-254.16 1486.63,-248.79 1155.5,-210 1046.31,-197.21 919.74,-170.3 854.12,-155.43"/>
<polygon fill="midnightblue" stroke="midnightblue" points="854.65,-151.96 844.13,-153.15 853.1,-158.79 854.65,-151.96"/>
</g>
<!-- Node31 -->
<g id="node31" class="node">
<title>Node31</title>
<g id="a_node31"><a xlink:href="flatten_8hpp.html" target="_top" xlink:title=" ">
<polygon fill="none" stroke="black" points="762.5,-190.5 762.5,-209.5 856.5,-209.5 856.5,-190.5 762.5,-190.5"/>
<text text-anchor="middle" x="809.5" y="-197.5" font-family="Helvetica,sans-Serif" font-size="10.00">utils/flatten.hpp</text>
</a>
</g>
</g>
<!-- Node1&#45;&gt;Node31 -->
<g id="edge37" class="edge">
<title>Node1&#45;&gt;Node31</title>
<path fill="none" stroke="midnightblue" d="M2011.47,-253.47C1839.23,-245.95 1081.8,-212.89 866.66,-203.5"/>
<polygon fill="midnightblue" stroke="midnightblue" points="866.68,-199.99 856.54,-203.05 866.37,-206.99 866.68,-199.99"/>
</g>
<!-- Node32 -->
<g id="node32" class="node">
<title>Node32</title>
<g id="a_node32"><a xlink:title=" ">
<polygon fill="none" stroke="#bfbfbf" points="1838.5,-190.5 1838.5,-209.5 1880.5,-209.5 1880.5,-190.5 1838.5,-190.5"/>
<text text-anchor="middle" x="1859.5" y="-197.5" font-family="Helvetica,sans-Serif" font-size="10.00">array</text>
</a>
</g>
</g>
<!-- Node1&#45;&gt;Node32 -->
<g id="edge41" class="edge">
<title>Node1&#45;&gt;Node32</title>
<path fill="none" stroke="midnightblue" d="M2016.88,-246.47C1985.5,-237.43 1934.5,-222.73 1890.5,-210 1890.4,-209.97 1890.3,-209.94 1890.2,-209.91"/>
<polygon fill="midnightblue" stroke="midnightblue" points="1891.09,-206.53 1880.51,-207.1 1889.14,-213.25 1891.09,-206.53"/>
</g>
<!-- Node33 -->
<g id="node33" class="node">
<title>Node33</title>
<g id="a_node33"><a xlink:title=" ">
<polygon fill="none" stroke="#bfbfbf" points="1899,-190.5 1899,-209.5 1944,-209.5 1944,-190.5 1899,-190.5"/>
<text text-anchor="middle" x="1921.5" y="-197.5" font-family="Helvetica,sans-Serif" font-size="10.00">utility</text>
</a>
</g>
</g>
<!-- Node1&#45;&gt;Node33 -->
<g id="edge45" class="edge">
<title>Node1&#45;&gt;Node33</title>
<path fill="none" stroke="midnightblue" d="M2026.69,-246.44C2006.21,-237.6 1974.02,-223.69 1950.64,-213.59"/>
<polygon fill="midnightblue" stroke="midnightblue" points="1951.78,-210.27 1941.21,-209.52 1949.01,-216.7 1951.78,-210.27"/>
</g>
<!-- Node34 -->
<g id="node34" class="node">
<title>Node34</title>
<g id="a_node34"><a xlink:title=" ">
<polygon fill="none" stroke="#bfbfbf" points="1962,-190.5 1962,-209.5 2131,-209.5 2131,-190.5 1962,-190.5"/>
<text text-anchor="middle" x="2046.5" y="-197.5" font-family="Helvetica,sans-Serif" font-size="10.00">boost/qvm/mat_operations.hpp</text>
</a>
</g>
</g>
<!-- Node1&#45;&gt;Node34 -->
<g id="edge46" class="edge">
<title>Node1&#45;&gt;Node34</title>
<path fill="none" stroke="midnightblue" d="M2046.5,-246.08C2046.5,-239.01 2046.5,-228.86 2046.5,-219.99"/>
<polygon fill="midnightblue" stroke="midnightblue" points="2050,-219.75 2046.5,-209.75 2043,-219.75 2050,-219.75"/>
</g>
<!-- Node35 -->
<g id="node35" class="node">
<title>Node35</title>
<g id="a_node35"><a xlink:title=" ">
<polygon fill="none" stroke="#bfbfbf" points="2149,-190.5 2149,-209.5 2340,-209.5 2340,-190.5 2149,-190.5"/>
<text text-anchor="middle" x="2244.5" y="-197.5" font-family="Helvetica,sans-Serif" font-size="10.00">boost/qvm/vec_mat_operations.hpp</text>
</a>
</g>
</g>
<!-- Node1&#45;&gt;Node35 -->
<g id="edge47" class="edge">
<title>Node1&#45;&gt;Node35</title>
<path fill="none" stroke="midnightblue" d="M2077.87,-246.44C2111.76,-237.2 2165.9,-222.44 2203.22,-212.26"/>
<polygon fill="midnightblue" stroke="midnightblue" points="2204.55,-215.52 2213.27,-209.52 2202.7,-208.77 2204.55,-215.52"/>
</g>
<!-- Node36 -->
<g id="node36" class="node">
<title>Node36</title>
<g id="a_node36"><a xlink:title=" ">
<polygon fill="none" stroke="#bfbfbf" points="2358,-190.5 2358,-209.5 2525,-209.5 2525,-190.5 2358,-190.5"/>
<text text-anchor="middle" x="2441.5" y="-197.5" font-family="Helvetica,sans-Serif" font-size="10.00">boost/qvm/vec_operations.hpp</text>
</a>
</g>
</g>
<!-- Node1&#45;&gt;Node36 -->
<g id="edge48" class="edge">
<title>Node1&#45;&gt;Node36</title>
<path fill="none" stroke="midnightblue" d="M2081.55,-250.21C2145.87,-241.41 2283.94,-222.54 2369.15,-210.89"/>
<polygon fill="midnightblue" stroke="midnightblue" points="2369.84,-214.33 2379.27,-209.51 2368.89,-207.39 2369.84,-214.33"/>
</g>
<!-- Node37 -->
<g id="node37" class="node">
<title>Node37</title>
<g id="a_node37"><a xlink:title=" ">
<polygon fill="none" stroke="#bfbfbf" points="2543.5,-190.5 2543.5,-209.5 2695.5,-209.5 2695.5,-190.5 2543.5,-190.5"/>
<text text-anchor="middle" x="2619.5" y="-197.5" font-family="Helvetica,sans-Serif" font-size="10.00">boost/qvm/deduce_mat.hpp</text>
</a>
</g>
</g>
<!-- Node1&#45;&gt;Node37 -->
<g id="edge49" class="edge">
<title>Node1&#45;&gt;Node37</title>
<path fill="none" stroke="midnightblue" d="M2081.73,-251.92C2160.53,-244.98 2357.27,-227.48 2532.85,-210.15"/>
<polygon fill="midnightblue" stroke="midnightblue" points="2533.44,-213.61 2543.05,-209.14 2532.75,-206.65 2533.44,-213.61"/>
</g>
<!-- Node38 -->
<g id="node38" class="node">
<title>Node38</title>
<g id="a_node38"><a xlink:title=" ">
<polygon fill="none" stroke="#bfbfbf" points="2713.5,-190.5 2713.5,-209.5 2875.5,-209.5 2875.5,-190.5 2713.5,-190.5"/>
<text text-anchor="middle" x="2794.5" y="-197.5" font-family="Helvetica,sans-Serif" font-size="10.00">boost/qvm/deduce_scalar.hpp</text>
</a>
</g>
</g>
<!-- Node1&#45;&gt;Node38 -->
<g id="edge50" class="edge">
<title>Node1&#45;&gt;Node38</title>
<path fill="none" stroke="midnightblue" d="M2081.84,-252.97C2179.08,-247.32 2459.09,-230.47 2702.96,-210.11"/>
<polygon fill="midnightblue" stroke="midnightblue" points="2703.4,-213.58 2713.08,-209.26 2702.82,-206.61 2703.4,-213.58"/>
</g>
<!-- Node39 -->
<g id="node39" class="node">
<title>Node39</title>
<g id="a_node39"><a xlink:title=" ">
<polygon fill="none" stroke="#bfbfbf" points="2893.5,-190.5 2893.5,-209.5 3057.5,-209.5 3057.5,-190.5 2893.5,-190.5"/>
<text text-anchor="middle" x="2975.5" y="-197.5" font-family="Helvetica,sans-Serif" font-size="10.00">boost/qvm/map_mat_mat.hpp</text>
</a>
</g>
</g>
<!-- Node1&#45;&gt;Node39 -->
<g id="edge52" class="edge">
<title>Node1&#45;&gt;Node39</title>
<path fill="none" stroke="midnightblue" d="M2081.66,-253.68C2195.67,-249.27 2565.55,-234.04 2882.86,-210.09"/>
<polygon fill="midnightblue" stroke="midnightblue" points="2883.47,-213.56 2893.17,-209.31 2882.94,-206.58 2883.47,-213.56"/>
</g>
<!-- Node40 -->
<g id="node40" class="node">
<title>Node40</title>
<g id="a_node40"><a xlink:title=" ">
<polygon fill="none" stroke="#bfbfbf" points="3076,-190.5 3076,-209.5 3237,-209.5 3237,-190.5 3076,-190.5"/>
<text text-anchor="middle" x="3156.5" y="-197.5" font-family="Helvetica,sans-Serif" font-size="10.00">boost/qvm/map_mat_vec.hpp</text>
</a>
</g>
</g>
<!-- Node1&#45;&gt;Node40 -->
<g id="edge53" class="edge">
<title>Node1&#45;&gt;Node40</title>
<path fill="none" stroke="midnightblue" d="M2081.77,-254.15C2211.3,-250.9 2673.1,-237.97 3065.44,-210.03"/>
<polygon fill="midnightblue" stroke="midnightblue" points="3065.84,-213.51 3075.57,-209.31 3065.34,-206.53 3065.84,-213.51"/>
</g>
<!-- Node41 -->
<g id="node41" class="node">
<title>Node41</title>
<g id="a_node41"><a xlink:title=" ">
<polygon fill="none" stroke="#bfbfbf" points="3255,-190.5 3255,-209.5 3416,-209.5 3416,-190.5 3255,-190.5"/>
<text text-anchor="middle" x="3335.5" y="-197.5" font-family="Helvetica,sans-Serif" font-size="10.00">boost/qvm/map_vec_mat.hpp</text>
</a>
</g>
</g>
<!-- Node1&#45;&gt;Node41 -->
<g id="edge54" class="edge">
<title>Node1&#45;&gt;Node41</title>
<path fill="none" stroke="midnightblue" d="M2081.88,-254.49C2225.45,-252.26 2778.67,-241.98 3244.69,-210.08"/>
<polygon fill="midnightblue" stroke="midnightblue" points="3245.25,-213.55 3254.99,-209.37 3244.77,-206.57 3245.25,-213.55"/>
</g>
<!-- Node42 -->
<g id="node42" class="node">
<title>Node42</title>
<g id="a_node42"><a xlink:title=" ">
<polygon fill="none" stroke="#bfbfbf" points="3434.5,-190.5 3434.5,-209.5 3546.5,-209.5 3546.5,-190.5 3434.5,-190.5"/>
<text text-anchor="middle" x="3490.5" y="-197.5" font-family="Helvetica,sans-Serif" font-size="10.00">boost/qvm/mat.hpp</text>
</a>
</g>
</g>
<!-- Node1&#45;&gt;Node42 -->
<g id="edge55" class="edge">
<title>Node1&#45;&gt;Node42</title>
<path fill="none" stroke="midnightblue" d="M2081.74,-255.21C2237.97,-255.85 2883.8,-255.51 3423.83,-210.04"/>
<polygon fill="midnightblue" stroke="midnightblue" points="3424.5,-213.5 3434.17,-209.17 3423.91,-206.53 3424.5,-213.5"/>
</g>
<!-- Node43 -->
<g id="node43" class="node">
<title>Node43</title>
<g id="a_node43"><a xlink:title=" ">
<polygon fill="none" stroke="#bfbfbf" points="3564.5,-190.5 3564.5,-209.5 3714.5,-209.5 3714.5,-190.5 3564.5,-190.5"/>
<text text-anchor="middle" x="3639.5" y="-197.5" font-family="Helvetica,sans-Serif" font-size="10.00">boost/qvm/mat_access.hpp</text>
</a>
</g>
</g>
<!-- Node1&#45;&gt;Node43 -->
<g id="edge56" class="edge">
<title>Node1&#45;&gt;Node43</title>
<path fill="none" stroke="midnightblue" d="M2081.64,-254.95C2246.41,-254.51 2959.09,-250.28 3554.35,-210.02"/>
<polygon fill="midnightblue" stroke="midnightblue" points="3554.68,-213.5 3564.42,-209.33 3554.2,-206.52 3554.68,-213.5"/>
</g>
<!-- Node44 -->
<g id="node44" class="node">
<title>Node44</title>
<g id="a_node44"><a xlink:title=" ">
<polygon fill="none" stroke="#bfbfbf" points="3733,-190.5 3733,-209.5 3876,-209.5 3876,-190.5 3733,-190.5"/>
<text text-anchor="middle" x="3804.5" y="-197.5" font-family="Helvetica,sans-Serif" font-size="10.00">boost/qvm/mat_traits.hpp</text>
</a>
</g>
</g>
<!-- Node1&#45;&gt;Node44 -->
<g id="edge57" class="edge">
<title>Node1&#45;&gt;Node44</title>
<path fill="none" stroke="midnightblue" d="M2081.66,-255.15C2257.26,-255.67 3056.76,-255.34 3722.69,-209.98"/>
<polygon fill="midnightblue" stroke="midnightblue" points="3723.24,-213.45 3732.98,-209.28 3722.76,-206.47 3723.24,-213.45"/>
</g>
<!-- Node3 -->
<g id="node3" class="node">
<title>Node3</title>
<g id="a_node3"><a xlink:href="device__qualifier_8hpp.html" target="_top" xlink:title=" ">
<polygon fill="none" stroke="black" points="1823.5,-73 1823.5,-92 1939.5,-92 1939.5,-73 1823.5,-73"/>
<text text-anchor="middle" x="1881.5" y="-80" font-family="Helvetica,sans-Serif" font-size="10.00">device_qualifier.hpp</text>
</a>
</g>
</g>
<!-- Node2&#45;&gt;Node3 -->
<g id="edge2" class="edge">
<title>Node2&#45;&gt;Node3</title>
<path fill="none" stroke="midnightblue" d="M1755.56,-134.48C1780.56,-124.36 1822.44,-107.4 1850.99,-95.85"/>
<polygon fill="midnightblue" stroke="midnightblue" points="1852.52,-99.01 1860.48,-92.01 1849.89,-92.52 1852.52,-99.01"/>
</g>
<!-- Node2&#45;&gt;Node4 -->
<g id="edge18" class="edge">
<title>Node2&#45;&gt;Node4</title>
<path fill="none" stroke="midnightblue" d="M1743.14,-134.28C1751.83,-125.38 1765.48,-111.07 1776.5,-98 1794.68,-76.44 1814.14,-50.31 1826.3,-33.55"/>
<polygon fill="midnightblue" stroke="midnightblue" points="1829.25,-35.45 1832.26,-25.29 1823.57,-31.35 1829.25,-35.45"/>
</g>
<!-- Node5 -->
<g id="node5" class="node">
<title>Node5</title>
<g id="a_node5"><a xlink:href="get_8hpp.html" target="_top" xlink:title=" ">
<polygon fill="none" stroke="black" points="1274,-73 1274,-92 1327,-92 1327,-73 1274,-73"/>
<text text-anchor="middle" x="1300.5" y="-80" font-family="Helvetica,sans-Serif" font-size="10.00">get.hpp</text>
</a>
</g>
</g>
<!-- Node2&#45;&gt;Node5 -->
<g id="edge4" class="edge">
<title>Node2&#45;&gt;Node5</title>
<path fill="none" stroke="midnightblue" d="M1691.3,-137.08C1605.94,-125.37 1417.04,-99.48 1337.23,-88.54"/>
<polygon fill="midnightblue" stroke="midnightblue" points="1337.54,-85.05 1327.16,-87.15 1336.59,-91.98 1337.54,-85.05"/>
</g>
<!-- Node2&#45;&gt;Node6 -->
<g id="edge19" class="edge">
<title>Node2&#45;&gt;Node6</title>
<path fill="none" stroke="midnightblue" d="M1691.47,-138.65C1676.6,-137.16 1659.82,-135.49 1644.5,-134 1475.65,-117.56 1426.55,-148.19 1264.5,-98 1215.41,-82.8 1164.3,-49.95 1137.18,-30.92"/>
<polygon fill="midnightblue" stroke="midnightblue" points="1139.11,-28 1128.94,-25.04 1135.05,-33.7 1139.11,-28"/>
</g>
<!-- Node8 -->
<g id="node8" class="node">
<title>Node8</title>
<g id="a_node8"><a xlink:href="array_8hpp.html" target="_top" xlink:title=" ">
<polygon fill="none" stroke="black" points="555,-73 555,-92 680,-92 680,-73 555,-73"/>
<text text-anchor="middle" x="617.5" y="-80" font-family="Helvetica,sans-Serif" font-size="10.00">serialization/array.hpp</text>
</a>
</g>
</g>
<!-- Node2&#45;&gt;Node8 -->
<g id="edge7" class="edge">
<title>Node2&#45;&gt;Node8</title>
<path fill="none" stroke="midnightblue" d="M1691.05,-138.21C1676.29,-136.7 1659.69,-135.13 1644.5,-134 1458.7,-120.15 893.06,-95.31 690.57,-86.61"/>
<polygon fill="midnightblue" stroke="midnightblue" points="690.48,-83.1 680.34,-86.17 690.18,-90.1 690.48,-83.1"/>
</g>
<!-- Node17 -->
<g id="node17" class="node">
<title>Node17</title>
<g id="a_node17"><a xlink:title=" ">
<polygon fill="none" stroke="#bfbfbf" points="1502,-67.5 1502,-97.5 1609,-97.5 1609,-67.5 1502,-67.5"/>
<text text-anchor="start" x="1510" y="-85.5" font-family="Helvetica,sans-Serif" font-size="10.00">boost/serialization</text>
<text text-anchor="middle" x="1555.5" y="-74.5" font-family="Helvetica,sans-Serif" font-size="10.00">/access.hpp</text>
</a>
</g>
</g>
<!-- Node2&#45;&gt;Node17 -->
<g id="edge17" class="edge">
<title>Node2&#45;&gt;Node17</title>
<path fill="none" stroke="midnightblue" d="M1708.85,-134.48C1682.46,-125.7 1640.6,-111.79 1607.28,-100.71"/>
<polygon fill="midnightblue" stroke="midnightblue" points="1608.28,-97.36 1597.69,-97.52 1606.07,-104 1608.28,-97.36"/>
</g>
<!-- Node18 -->
<g id="node18" class="node">
<title>Node18</title>
<g id="a_node18"><a xlink:title=" ">
<polygon fill="none" stroke="#bfbfbf" points="996,-73 996,-92 1049,-92 1049,-73 996,-73"/>
<text text-anchor="middle" x="1022.5" y="-80" font-family="Helvetica,sans-Serif" font-size="10.00">iterator</text>
</a>
</g>
</g>
<!-- Node2&#45;&gt;Node18 -->
<g id="edge20" class="edge">
<title>Node2&#45;&gt;Node18</title>
<path fill="none" stroke="midnightblue" d="M1691.49,-138.48C1676.61,-136.98 1659.83,-135.34 1644.5,-134 1432.71,-115.42 1379.29,-116.58 1167.5,-98 1130.69,-94.77 1088.68,-90.51 1059.39,-87.44"/>
<polygon fill="midnightblue" stroke="midnightblue" points="1059.52,-83.93 1049.21,-86.37 1058.79,-90.89 1059.52,-83.93"/>
</g>
<!-- Node19 -->
<g id="node19" class="node">
<title>Node19</title>
<g id="a_node19"><a xlink:title=" ">
<polygon fill="none" stroke="#bfbfbf" points="1627,-73 1627,-92 1684,-92 1684,-73 1627,-73"/>
<text text-anchor="middle" x="1655.5" y="-80" font-family="Helvetica,sans-Serif" font-size="10.00">ostream</text>
</a>
</g>
</g>
<!-- Node2&#45;&gt;Node19 -->
<g id="edge21" class="edge">
<title>Node2&#45;&gt;Node19</title>
<path fill="none" stroke="midnightblue" d="M1723.18,-134.48C1710.63,-125.02 1690.15,-109.6 1675,-98.19"/>
<polygon fill="midnightblue" stroke="midnightblue" points="1676.89,-95.23 1666.8,-92.01 1672.68,-100.82 1676.89,-95.23"/>
</g>
<!-- Node20 -->
<g id="node20" class="node">
<title>Node20</title>
<g id="a_node20"><a xlink:title=" ">
<polygon fill="none" stroke="#bfbfbf" points="1702,-73 1702,-92 1767,-92 1767,-73 1702,-73"/>
<text text-anchor="middle" x="1734.5" y="-80" font-family="Helvetica,sans-Serif" font-size="10.00">stdexcept</text>
</a>
</g>
</g>
<!-- Node2&#45;&gt;Node20 -->
<g id="edge22" class="edge">
<title>Node2&#45;&gt;Node20</title>
<path fill="none" stroke="midnightblue" d="M1734.5,-134.48C1734.5,-126.08 1734.5,-112.98 1734.5,-102.16"/>
<polygon fill="midnightblue" stroke="midnightblue" points="1738,-102.01 1734.5,-92.01 1731,-102.01 1738,-102.01"/>
</g>
<!-- Node3&#45;&gt;Node4 -->
<g id="edge3" class="edge">
<title>Node3&#45;&gt;Node4</title>
<path fill="none" stroke="midnightblue" d="M1875.7,-72.73C1869.12,-62.79 1858.24,-46.34 1849.94,-33.79"/>
<polygon fill="midnightblue" stroke="midnightblue" points="1852.64,-31.54 1844.21,-25.13 1846.81,-35.4 1852.64,-31.54"/>
</g>
<!-- Node5&#45;&gt;Node6 -->
<g id="edge5" class="edge">
<title>Node5&#45;&gt;Node6</title>
<path fill="none" stroke="midnightblue" d="M1276.2,-72.87C1244.12,-61.47 1187.47,-41.35 1151.25,-28.49"/>
<polygon fill="midnightblue" stroke="midnightblue" points="1152.2,-25.11 1141.61,-25.06 1149.86,-31.71 1152.2,-25.11"/>
</g>
<!-- Node7 -->
<g id="node7" class="node">
<title>Node7</title>
<g id="a_node7"><a xlink:title=" ">
<polygon fill="none" stroke="#bfbfbf" points="1280,-6 1280,-25 1321,-25 1321,-6 1280,-6"/>
<text text-anchor="middle" x="1300.5" y="-13" font-family="Helvetica,sans-Serif" font-size="10.00">tuple</text>
</a>
</g>
</g>
<!-- Node5&#45;&gt;Node7 -->
<g id="edge6" class="edge">
<title>Node5&#45;&gt;Node7</title>
<path fill="none" stroke="midnightblue" d="M1300.5,-72.73C1300.5,-63.18 1300.5,-47.62 1300.5,-35.28"/>
<polygon fill="midnightblue" stroke="midnightblue" points="1304,-35.13 1300.5,-25.13 1297,-35.13 1304,-35.13"/>
</g>
<!-- Node8&#45;&gt;Node6 -->
<g id="edge16" class="edge">
<title>Node8&#45;&gt;Node6</title>
<path fill="none" stroke="midnightblue" d="M658.94,-72.96C670.42,-70.8 682.91,-68.63 694.5,-67 865.57,-42.99 913.62,-71.7 1081.5,-31 1084.17,-30.35 1086.9,-29.54 1089.61,-28.64"/>
<polygon fill="midnightblue" stroke="midnightblue" points="1091.01,-31.86 1099.15,-25.08 1088.56,-25.3 1091.01,-31.86"/>
</g>
<!-- Node9 -->
<g id="node9" class="node">
<title>Node9</title>
<g id="a_node9"><a xlink:title=" ">
<polygon fill="none" stroke="#bfbfbf" points="550.5,-6 550.5,-25 684.5,-25 684.5,-6 550.5,-6"/>
<text text-anchor="middle" x="617.5" y="-13" font-family="Helvetica,sans-Serif" font-size="10.00">boost/mpl/bool_fwd.hpp</text>
</a>
</g>
</g>
<!-- Node8&#45;&gt;Node9 -->
<g id="edge8" class="edge">
<title>Node8&#45;&gt;Node9</title>
<path fill="none" stroke="midnightblue" d="M617.5,-72.73C617.5,-63.18 617.5,-47.62 617.5,-35.28"/>
<polygon fill="midnightblue" stroke="midnightblue" points="621,-35.13 617.5,-25.13 614,-35.13 621,-35.13"/>
</g>
<!-- Node10 -->
<g id="node10" class="node">
<title>Node10</title>
<g id="a_node10"><a xlink:title=" ">
<polygon fill="none" stroke="#bfbfbf" points="703,-6 703,-25 828,-25 828,-6 703,-6"/>
<text text-anchor="middle" x="765.5" y="-13" font-family="Helvetica,sans-Serif" font-size="10.00">boost/mpl/greater.hpp</text>
</a>
</g>
</g>
<!-- Node8&#45;&gt;Node10 -->
<g id="edge9" class="edge">
<title>Node8&#45;&gt;Node10</title>
<path fill="none" stroke="midnightblue" d="M637.15,-72.87C662.59,-61.7 707.1,-42.15 736.45,-29.26"/>
<polygon fill="midnightblue" stroke="midnightblue" points="738.02,-32.39 745.77,-25.17 735.2,-25.98 738.02,-32.39"/>
</g>
<!-- Node11 -->
<g id="node11" class="node">
<title>Node11</title>
<g id="a_node11"><a xlink:title=" ">
<polygon fill="none" stroke="#bfbfbf" points="846.5,-6 846.5,-25 948.5,-25 948.5,-6 846.5,-6"/>
<text text-anchor="middle" x="897.5" y="-13" font-family="Helvetica,sans-Serif" font-size="10.00">boost/mpl/int.hpp</text>
</a>
</g>
</g>
<!-- Node8&#45;&gt;Node11 -->
<g id="edge10" class="edge">
<title>Node8&#45;&gt;Node11</title>
<path fill="none" stroke="midnightblue" d="M654.72,-73C698.3,-63.02 772.68,-45.94 836.5,-31 841.47,-29.84 846.67,-28.61 851.85,-27.39"/>
<polygon fill="midnightblue" stroke="midnightblue" points="852.78,-30.76 861.71,-25.05 851.17,-23.95 852.78,-30.76"/>
</g>
<!-- Node12 -->
<g id="node12" class="node">
<title>Node12</title>
<g id="a_node12"><a xlink:title=" ">
<polygon fill="none" stroke="#bfbfbf" points="966.5,-0.5 966.5,-30.5 1072.5,-30.5 1072.5,-0.5 966.5,-0.5"/>
<text text-anchor="start" x="974.5" y="-18.5" font-family="Helvetica,sans-Serif" font-size="10.00">boost/mpl/integral</text>
<text text-anchor="middle" x="1019.5" y="-7.5" font-family="Helvetica,sans-Serif" font-size="10.00">_c_tag.hpp</text>
</a>
</g>
</g>
<!-- Node8&#45;&gt;Node12 -->
<g id="edge11" class="edge">
<title>Node8&#45;&gt;Node12</title>
<path fill="none" stroke="midnightblue" d="M660.6,-72.99C671.63,-70.92 683.49,-68.79 694.5,-67 807.77,-48.59 839.75,-52.23 956.42,-31.09"/>
<polygon fill="midnightblue" stroke="midnightblue" points="957.26,-34.49 966.47,-29.25 956,-27.61 957.26,-34.49"/>
</g>
<!-- Node13 -->
<g id="node13" class="node">
<title>Node13</title>
<g id="a_node13"><a xlink:title=" ">
<polygon fill="none" stroke="#bfbfbf" points="0,-0.5 0,-30.5 151,-30.5 151,-0.5 0,-0.5"/>
<text text-anchor="start" x="8" y="-18.5" font-family="Helvetica,sans-Serif" font-size="10.00">boost/serialization</text>
<text text-anchor="middle" x="75.5" y="-7.5" font-family="Helvetica,sans-Serif" font-size="10.00">/is_bitwise_serializable.hpp</text>
</a>
</g>
</g>
<!-- Node8&#45;&gt;Node13 -->
<g id="edge12" class="edge">
<title>Node8&#45;&gt;Node13</title>
<path fill="none" stroke="midnightblue" d="M554.75,-75.81C468.36,-67.69 307.72,-51.64 161.1,-31.18"/>
<polygon fill="midnightblue" stroke="midnightblue" points="161.41,-27.69 151.02,-29.76 160.44,-34.62 161.41,-27.69"/>
</g>
<!-- Node14 -->
<g id="node14" class="node">
<title>Node14</title>
<g id="a_node14"><a xlink:title=" ">
<polygon fill="none" stroke="#bfbfbf" points="169,-0.5 169,-30.5 276,-30.5 276,-0.5 169,-0.5"/>
<text text-anchor="start" x="177" y="-18.5" font-family="Helvetica,sans-Serif" font-size="10.00">boost/serialization</text>
<text text-anchor="middle" x="222.5" y="-7.5" font-family="Helvetica,sans-Serif" font-size="10.00">/level.hpp</text>
</a>
</g>
</g>
<!-- Node8&#45;&gt;Node14 -->
<g id="edge13" class="edge">
<title>Node8&#45;&gt;Node14</title>
<path fill="none" stroke="midnightblue" d="M554.95,-73.52C490,-64.9 385.26,-50.04 286.1,-31.23"/>
<polygon fill="midnightblue" stroke="midnightblue" points="286.69,-27.78 276.21,-29.34 285.38,-34.65 286.69,-27.78"/>
</g>
<!-- Node15 -->
<g id="node15" class="node">
<title>Node15</title>
<g id="a_node15"><a xlink:title=" ">
<polygon fill="none" stroke="#bfbfbf" points="294,-0.5 294,-30.5 401,-30.5 401,-0.5 294,-0.5"/>
<text text-anchor="start" x="302" y="-18.5" font-family="Helvetica,sans-Serif" font-size="10.00">boost/serialization</text>
<text text-anchor="middle" x="347.5" y="-7.5" font-family="Helvetica,sans-Serif" font-size="10.00">/tracking.hpp</text>
</a>
</g>
</g>
<!-- Node8&#45;&gt;Node15 -->
<g id="edge14" class="edge">
<title>Node8&#45;&gt;Node15</title>
<path fill="none" stroke="midnightblue" d="M581.92,-72.94C538.61,-62.51 464.64,-44.7 411.37,-31.88"/>
<polygon fill="midnightblue" stroke="midnightblue" points="411.88,-28.4 401.34,-29.46 410.24,-35.2 411.88,-28.4"/>
</g>
<!-- Node16 -->
<g id="node16" class="node">
<title>Node16</title>
<g id="a_node16"><a xlink:title=" ">
<polygon fill="none" stroke="#bfbfbf" points="419,-0.5 419,-30.5 532,-30.5 532,-0.5 419,-0.5"/>
<text text-anchor="start" x="427" y="-18.5" font-family="Helvetica,sans-Serif" font-size="10.00">boost/serialization</text>
<text text-anchor="middle" x="475.5" y="-7.5" font-family="Helvetica,sans-Serif" font-size="10.00">/tracking_enum.hpp</text>
</a>
</g>
</g>
<!-- Node8&#45;&gt;Node16 -->
<g id="edge15" class="edge">
<title>Node8&#45;&gt;Node16</title>
<path fill="none" stroke="midnightblue" d="M598.64,-72.87C577.52,-63.2 542.67,-47.25 515.43,-34.78"/>
<polygon fill="midnightblue" stroke="midnightblue" points="516.7,-31.51 506.15,-30.53 513.78,-37.87 516.7,-31.51"/>
</g>
<!-- Node21&#45;&gt;Node2 -->
<g id="edge26" class="edge">
<title>Node21&#45;&gt;Node2</title>
<path fill="none" stroke="midnightblue" d="M1386.02,-193.17C1451.24,-184.91 1573.52,-169.13 1677.5,-154 1678.75,-153.82 1680.02,-153.63 1681.31,-153.44"/>
<polygon fill="midnightblue" stroke="midnightblue" points="1681.89,-156.89 1691.26,-151.94 1680.85,-149.97 1681.89,-156.89"/>
</g>
<!-- Node21&#45;&gt;Node4 -->
<g id="edge28" class="edge">
<title>Node21&#45;&gt;Node4</title>
<path fill="none" stroke="midnightblue" d="M1386.28,-199.22C1463.34,-198.47 1611.71,-191.98 1644.5,-154 1650.31,-147.27 1650.01,-140.97 1644.5,-134 1601.44,-79.55 1535.56,-152.45 1492.5,-98 1483.95,-87.19 1483.49,-77.42 1492.5,-67 1532.26,-21.02 1721.54,-16.07 1802.09,-16.1"/>
<polygon fill="midnightblue" stroke="midnightblue" points="1802.24,-19.6 1812.25,-16.13 1802.26,-12.6 1802.24,-19.6"/>
</g>
<!-- Node21&#45;&gt;Node6 -->
<g id="edge30" class="edge">
<title>Node21&#45;&gt;Node6</title>
<path fill="none" stroke="midnightblue" d="M1292.9,-193.59C1225.89,-185.33 1108.95,-168.97 1096.5,-154 1067.77,-119.46 1091.89,-62.49 1107.22,-33.95"/>
<polygon fill="midnightblue" stroke="midnightblue" points="1110.33,-35.55 1112.17,-25.12 1104.23,-32.13 1110.33,-35.55"/>
</g>
<!-- Node21&#45;&gt;Node18 -->
<g id="edge33" class="edge">
<title>Node21&#45;&gt;Node18</title>
<path fill="none" stroke="midnightblue" d="M1292.77,-196.17C1224.04,-191.23 1099.89,-179.05 1063.5,-154 1045.32,-141.49 1034.08,-118.08 1028.07,-101.68"/>
<polygon fill="midnightblue" stroke="midnightblue" points="1031.35,-100.47 1024.85,-92.1 1024.72,-102.69 1031.35,-100.47"/>
</g>
<!-- Node21&#45;&gt;Node22 -->
<g id="edge24" class="edge">
<title>Node21&#45;&gt;Node22</title>
<path fill="none" stroke="midnightblue" d="M1292.88,-192.75C1223.56,-183.46 1092.68,-165.93 1010.27,-154.89"/>
<polygon fill="midnightblue" stroke="midnightblue" points="1010.6,-151.4 1000.22,-153.54 1009.67,-158.34 1010.6,-151.4"/>
</g>
<!-- Node23 -->
<g id="node23" class="node">
<title>Node23</title>
<g id="a_node23"><a xlink:title=" ">
<polygon fill="none" stroke="#bfbfbf" points="1495.5,-134.5 1495.5,-153.5 1635.5,-153.5 1635.5,-134.5 1495.5,-134.5"/>
<text text-anchor="middle" x="1565.5" y="-141.5" font-family="Helvetica,sans-Serif" font-size="10.00">boost/qvm/vec_traits.hpp</text>
</a>
</g>
</g>
<!-- Node21&#45;&gt;Node23 -->
<g id="edge25" class="edge">
<title>Node21&#45;&gt;Node23</title>
<path fill="none" stroke="midnightblue" d="M1375.31,-190.44C1414.49,-181.08 1477.38,-166.06 1520.02,-155.87"/>
<polygon fill="midnightblue" stroke="midnightblue" points="1520.94,-159.24 1529.86,-153.52 1519.32,-152.44 1520.94,-159.24"/>
</g>
<!-- Node21&#45;&gt;Node24 -->
<g id="edge27" class="edge">
<title>Node21&#45;&gt;Node24</title>
<path fill="none" stroke="midnightblue" d="M1386.06,-196.1C1465.83,-190.73 1633.89,-177.74 1785.38,-154.01"/>
<polygon fill="midnightblue" stroke="midnightblue" points="1786.01,-157.45 1795.34,-152.43 1784.91,-150.54 1786.01,-157.45"/>
</g>
<!-- Node25 -->
<g id="node25" class="node">
<title>Node25</title>
<g id="a_node25"><a xlink:title=" ">
<polygon fill="none" stroke="#bfbfbf" points="1106,-134.5 1106,-153.5 1153,-153.5 1153,-134.5 1106,-134.5"/>
<text text-anchor="middle" x="1129.5" y="-141.5" font-family="Helvetica,sans-Serif" font-size="10.00">cmath</text>
</a>
</g>
</g>
<!-- Node21&#45;&gt;Node25 -->
<g id="edge29" class="edge">
<title>Node21&#45;&gt;Node25</title>
<path fill="none" stroke="midnightblue" d="M1304.64,-190.48C1270.74,-182.12 1217.54,-168.85 1163.07,-154.37"/>
<polygon fill="midnightblue" stroke="midnightblue" points="1163.81,-150.95 1153.25,-151.75 1162.01,-157.71 1163.81,-150.95"/>
</g>
<!-- Node26 -->
<g id="node26" class="node">
<title>Node26</title>
<g id="a_node26"><a xlink:title=" ">
<polygon fill="none" stroke="#bfbfbf" points="1171,-134.5 1171,-153.5 1236,-153.5 1236,-134.5 1171,-134.5"/>
<text text-anchor="middle" x="1203.5" y="-141.5" font-family="Helvetica,sans-Serif" font-size="10.00">functional</text>
</a>
</g>
</g>
<!-- Node21&#45;&gt;Node26 -->
<g id="edge31" class="edge">
<title>Node21&#45;&gt;Node26</title>
<path fill="none" stroke="midnightblue" d="M1317.95,-190.44C1295.47,-181.52 1260.01,-167.44 1234.52,-157.32"/>
<polygon fill="midnightblue" stroke="midnightblue" points="1235.53,-153.95 1224.95,-153.52 1232.95,-160.46 1235.53,-153.95"/>
</g>
<!-- Node27 -->
<g id="node27" class="node">
<title>Node27</title>
<g id="a_node27"><a xlink:title=" ">
<polygon fill="none" stroke="#bfbfbf" points="1254,-134.5 1254,-153.5 1337,-153.5 1337,-134.5 1254,-134.5"/>
<text text-anchor="middle" x="1295.5" y="-141.5" font-family="Helvetica,sans-Serif" font-size="10.00">initializer_list</text>
</a>
</g>
</g>
<!-- Node21&#45;&gt;Node27 -->
<g id="edge32" class="edge">
<title>Node21&#45;&gt;Node27</title>
<path fill="none" stroke="midnightblue" d="M1332.23,-190.08C1325.96,-182.38 1316.71,-171.03 1309.07,-161.65"/>
<polygon fill="midnightblue" stroke="midnightblue" points="1311.66,-159.29 1302.63,-153.75 1306.23,-163.71 1311.66,-159.29"/>
</g>
<!-- Node28 -->
<g id="node28" class="node">
<title>Node28</title>
<g id="a_node28"><a xlink:title=" ">
<polygon fill="none" stroke="#bfbfbf" points="1355.5,-134.5 1355.5,-153.5 1411.5,-153.5 1411.5,-134.5 1355.5,-134.5"/>
<text text-anchor="middle" x="1383.5" y="-141.5" font-family="Helvetica,sans-Serif" font-size="10.00">numeric</text>
</a>
</g>
</g>
<!-- Node21&#45;&gt;Node28 -->
<g id="edge34" class="edge">
<title>Node21&#45;&gt;Node28</title>
<path fill="none" stroke="midnightblue" d="M1346.77,-190.08C1353.04,-182.38 1362.29,-171.03 1369.93,-161.65"/>
<polygon fill="midnightblue" stroke="midnightblue" points="1372.77,-163.71 1376.37,-153.75 1367.34,-159.29 1372.77,-163.71"/>
</g>
<!-- Node21&#45;&gt;Node29 -->
<g id="edge35" class="edge">
<title>Node21&#45;&gt;Node29</title>
<path fill="none" stroke="midnightblue" d="M1292.96,-196.47C1207.73,-191.46 1020.78,-178.69 854.11,-154.1"/>
<polygon fill="midnightblue" stroke="midnightblue" points="854.58,-150.63 844.17,-152.61 853.55,-157.55 854.58,-150.63"/>
</g>
<!-- Node30 -->
<g id="node30" class="node">
<title>Node30</title>
<g id="a_node30"><a xlink:title=" ">
<polygon fill="none" stroke="#bfbfbf" points="1430,-134.5 1430,-153.5 1477,-153.5 1477,-134.5 1430,-134.5"/>
<text text-anchor="middle" x="1453.5" y="-141.5" font-family="Helvetica,sans-Serif" font-size="10.00">vector</text>
</a>
</g>
</g>
<!-- Node21&#45;&gt;Node30 -->
<g id="edge36" class="edge">
<title>Node21&#45;&gt;Node30</title>
<path fill="none" stroke="midnightblue" d="M1357.56,-190.44C1376.07,-181.68 1405.08,-167.94 1426.36,-157.86"/>
<polygon fill="midnightblue" stroke="midnightblue" points="1427.98,-160.96 1435.52,-153.52 1424.99,-154.63 1427.98,-160.96"/>
</g>
<!-- Node31&#45;&gt;Node18 -->
<g id="edge38" class="edge">
<title>Node31&#45;&gt;Node18</title>
<path fill="none" stroke="midnightblue" d="M796.35,-190.44C778.31,-177.65 749.83,-153.05 765.5,-134 792.93,-100.65 921.12,-88.99 985.46,-85.19"/>
<polygon fill="midnightblue" stroke="midnightblue" points="985.79,-88.68 995.58,-84.63 985.4,-81.69 985.79,-88.68"/>
</g>
<!-- Node31&#45;&gt;Node29 -->
<g id="edge39" class="edge">
<title>Node31&#45;&gt;Node29</title>
<path fill="none" stroke="midnightblue" d="M809.5,-190.08C809.5,-183.01 809.5,-172.86 809.5,-163.99"/>
<polygon fill="midnightblue" stroke="midnightblue" points="813,-163.75 809.5,-153.75 806,-163.75 813,-163.75"/>
</g>
</g>
</svg>
        <g id="navigator" transform="translate(0 0)" fill="#404254">
                <rect fill="#f2f5e9" fill-opacity="0.5" stroke="#606060" stroke-width=".5" x="0" y="0" width="60" height="60"/>
                <use id="zoomplus" xlink:href="#zoomPlus" x="17" y="9" onmousedown="handleZoom(evt,'in')"/>
                <use id="zoomminus" xlink:href="#zoomMin" x="42" y="9" onmousedown="handleZoom(evt,'out')"/>
                <use id="reset" xlink:href="#resetDef" x="30" y="36" onmousedown="handleReset()"/>
                <g id="arrowUp" xlink:href="#dirArrow" transform="translate(30 24)" onmousedown="handlePan(0,-1)">
                  <use xlink:href="#rim" fill="#404040">
                        <set attributeName="fill" to="#808080" begin="arrowUp.mouseover" end="arrowUp.mouseout"/>
                  </use>
                  <path fill="none" stroke="white" stroke-width="1.5" d="M0,-3.0v7 M-2.5,-0.5L0,-3.0L2.5,-0.5"/>
                </g>
                <g id="arrowRight" xlink:href="#dirArrow" transform="rotate(90) translate(36 -43)" onmousedown="handlePan(1,0)">
                  <use xlink:href="#rim" fill="#404040">
                        <set attributeName="fill" to="#808080" begin="arrowRight.mouseover" end="arrowRight.mouseout"/>
                  </use>
                  <path fill="none" stroke="white" stroke-width="1.5" d="M0,-3.0v7 M-2.5,-0.5L0,-3.0L2.5,-0.5"/>
                </g>
                <g id="arrowDown" xlink:href="#dirArrow" transform="rotate(180) translate(-30 -48)" onmousedown="handlePan(0,1)">
                  <use xlink:href="#rim" fill="#404040">
                        <set attributeName="fill" to="#808080" begin="arrowDown.mouseover" end="arrowDown.mouseout"/>
                  </use>
                  <path fill="none" stroke="white" stroke-width="1.5" d="M0,-3.0v7 M-2.5,-0.5L0,-3.0L2.5,-0.5"/>
                </g>
                <g id="arrowLeft" xlink:href="#dirArrow" transform="rotate(270) translate(-36 17)" onmousedown="handlePan(-1,0)">
                  <use xlink:href="#rim" fill="#404040">
                        <set attributeName="fill" to="#808080" begin="arrowLeft.mouseover" end="arrowLeft.mouseout"/>
                  </use>
                  <path fill="none" stroke="white" stroke-width="1.5" d="M0,-3.0v7 M-2.5,-0.5L0,-3.0L2.5,-0.5"/>
                </g>
        </g>
        <svg viewBox="0 0 15 15" width="100%" height="30px" preserveAspectRatio="xMaxYMin meet">
         <g id="arrow_out" transform="scale(0.3 0.3)">
          <a xlink:href="matrix_8hpp__incl_org.svg" target="_base">
           <rect id="button" ry="5" rx="5" y="6" x="6" height="38" width="38"
                fill="#f2f5e9" fill-opacity="0.5" stroke="#606060" stroke-width="1.0"/>
           <path id="arrow"
             d="M 11.500037,31.436501 C 11.940474,20.09759 22.043105,11.32322 32.158766,21.979434 L 37.068811,17.246167 C 37.068811,17.246167 37.088388,32 37.088388,32 L 22.160133,31.978069 C 22.160133,31.978069 26.997745,27.140456 26.997745,27.140456 C 18.528582,18.264221 13.291696,25.230495 11.500037,31.436501 z"
             style="fill:#404040;"/>
          </a>
         </g>
        </svg>
</svg>
