<?xml version="1.0" encoding="UTF-8" standalone="no"?>
<!DOCTYPE svg PUBLIC "-//W3C//DTD SVG 1.1//EN"
 "http://www.w3.org/Graphics/SVG/1.1/DTD/svg11.dtd">
<!-- Generated by graphviz version 2.43.0 (0)
 -->
<!-- Title: mmm&#45;modpsi.cpp Pages: 1 -->
<svg width="534pt" height="137pt"
 viewBox="0.00 0.00 534.00 137.00" xmlns="http://www.w3.org/2000/svg" xmlns:xlink="http://www.w3.org/1999/xlink">
<g id="graph0" class="graph" transform="scale(1 1) rotate(0) translate(4 133)">
<title>mmm&#45;modpsi.cpp</title>
<!-- Node1 -->
<g id="Node000001" class="node">
<title>Node1</title>
<g id="a_Node000001"><a xlink:title=" ">
<polygon fill="#999999" stroke="#666666" points="361.5,-129 255.5,-129 255.5,-110 361.5,-110 361.5,-129"/>
<text text-anchor="middle" x="308.5" y="-117" font-family="Helvetica,sans-Serif" font-size="10.00">mmm&#45;modpsi.cpp</text>
</a>
</g>
</g>
<!-- Node2 -->
<g id="Node000002" class="node">
<title>Node2</title>
<g id="a_Node000002"><a xlink:href="config_8hpp.html" target="_top" xlink:title="This file contains the defaults for ESPResSo.">
<polygon fill="white" stroke="#666666" points="121,-74 22,-74 22,-55 121,-55 121,-74"/>
<text text-anchor="middle" x="71.5" y="-62" font-family="Helvetica,sans-Serif" font-size="10.00">config/config.hpp</text>
</a>
</g>
</g>
<!-- Node1&#45;&gt;Node2 -->
<g id="edge1_Node000001_Node000002" class="edge">
<title>Node1&#45;&gt;Node2</title>
<g id="a_edge1_Node000001_Node000002"><a xlink:title=" ">
<path fill="none" stroke="#63b8ff" d="M270.42,-109.98C229.51,-100.84 164.39,-86.27 119.88,-76.32"/>
<polygon fill="#63b8ff" stroke="#63b8ff" points="120.4,-72.85 109.88,-74.08 118.87,-79.68 120.4,-72.85"/>
</a>
</g>
</g>
<!-- Node4 -->
<g id="Node000004" class="node">
<title>Node4</title>
<g id="a_Node000004"><a xlink:href="mmm-modpsi_8hpp.html" target="_top" xlink:title="Common parts of the MMM family of methods for the electrostatic interaction: MMM1D and ELC.">
<polygon fill="white" stroke="#666666" points="246,-74 139,-74 139,-55 246,-55 246,-74"/>
<text text-anchor="middle" x="192.5" y="-62" font-family="Helvetica,sans-Serif" font-size="10.00">mmm&#45;modpsi.hpp</text>
</a>
</g>
</g>
<!-- Node1&#45;&gt;Node4 -->
<g id="edge3_Node000001_Node000004" class="edge">
<title>Node1&#45;&gt;Node4</title>
<g id="a_edge3_Node000001_Node000004"><a xlink:title=" ">
<path fill="none" stroke="#63b8ff" d="M289.86,-109.98C271.2,-101.46 242.25,-88.23 220.76,-78.41"/>
<polygon fill="#63b8ff" stroke="#63b8ff" points="222.03,-75.14 211.48,-74.17 219.12,-81.51 222.03,-75.14"/>
</a>
</g>
</g>
<!-- Node5 -->
<g id="Node000005" class="node">
<title>Node5</title>
<g id="a_Node000005"><a xlink:title=" ">
<polygon fill="#e0e0e0" stroke="#999999" points="219,-19 172,-19 172,0 219,0 219,-19"/>
<text text-anchor="middle" x="195.5" y="-7" font-family="Helvetica,sans-Serif" font-size="10.00">vector</text>
</a>
</g>
</g>
<!-- Node1&#45;&gt;Node5 -->
<g id="edge12_Node000001_Node000005" class="edge">
<title>Node1&#45;&gt;Node5</title>
<g id="a_edge12_Node000001_Node000005"><a xlink:title=" ">
<path fill="none" stroke="#63b8ff" d="M302.06,-109.76C292.45,-97.01 273.45,-72.87 254.5,-55 242.9,-44.06 228.65,-33.25 217.06,-25.02"/>
<polygon fill="#63b8ff" stroke="#63b8ff" points="219.02,-22.12 208.81,-19.28 215.02,-27.86 219.02,-22.12"/>
</a>
</g>
</g>
<!-- Node6 -->
<g id="Node000006" class="node">
<title>Node6</title>
<g id="a_Node000006"><a xlink:href="specfunc_8hpp.html" target="_top" xlink:title="This file contains implementations for some special functions which are needed by the MMM family of a...">
<polygon fill="white" stroke="#666666" points="384,-74 303,-74 303,-55 384,-55 384,-74"/>
<text text-anchor="middle" x="343.5" y="-62" font-family="Helvetica,sans-Serif" font-size="10.00">specfunc.hpp</text>
</a>
</g>
</g>
<!-- Node1&#45;&gt;Node6 -->
<g id="edge5_Node000001_Node000006" class="edge">
<title>Node1&#45;&gt;Node6</title>
<g id="a_edge5_Node000001_Node000006"><a xlink:title=" ">
<path fill="none" stroke="#63b8ff" d="M314.28,-109.75C319.12,-102.42 326.18,-91.73 332.14,-82.7"/>
<polygon fill="#63b8ff" stroke="#63b8ff" points="335.24,-84.36 337.83,-74.09 329.4,-80.5 335.24,-84.36"/>
</a>
</g>
</g>
<!-- Node11 -->
<g id="Node000011" class="node">
<title>Node11</title>
<g id="a_Node000011"><a xlink:title=" ">
<polygon fill="#e0e0e0" stroke="#999999" points="449,-74 402,-74 402,-55 449,-55 449,-74"/>
<text text-anchor="middle" x="425.5" y="-62" font-family="Helvetica,sans-Serif" font-size="10.00">cmath</text>
</a>
</g>
</g>
<!-- Node1&#45;&gt;Node11 -->
<g id="edge10_Node000001_Node000011" class="edge">
<title>Node1&#45;&gt;Node11</title>
<g id="a_edge10_Node000001_Node000011"><a xlink:title=" ">
<path fill="none" stroke="#63b8ff" d="M327.3,-109.98C346.12,-101.46 375.32,-88.23 397,-78.41"/>
<polygon fill="#63b8ff" stroke="#63b8ff" points="398.7,-81.48 406.36,-74.17 395.81,-75.11 398.7,-81.48"/>
</a>
</g>
</g>
<!-- Node12 -->
<g id="Node000012" class="node">
<title>Node12</title>
<g id="a_Node000012"><a xlink:title=" ">
<polygon fill="#e0e0e0" stroke="#999999" points="526,-74 467,-74 467,-55 526,-55 526,-74"/>
<text text-anchor="middle" x="496.5" y="-62" font-family="Helvetica,sans-Serif" font-size="10.00">numbers</text>
</a>
</g>
</g>
<!-- Node1&#45;&gt;Node12 -->
<g id="edge11_Node000001_Node000012" class="edge">
<title>Node1&#45;&gt;Node12</title>
<g id="a_edge11_Node000001_Node000012"><a xlink:title=" ">
<path fill="none" stroke="#63b8ff" d="M338.71,-109.98C370.83,-100.93 421.76,-86.57 457.03,-76.63"/>
<polygon fill="#63b8ff" stroke="#63b8ff" points="458.31,-79.9 466.99,-73.82 456.41,-73.16 458.31,-79.9"/>
</a>
</g>
</g>
<!-- Node3 -->
<g id="Node000003" class="node">
<title>Node3</title>
<g id="a_Node000003"><a xlink:title=" ">
<polygon fill="#e0e0e0" stroke="#999999" points="143,-19 0,-19 0,0 143,0 143,-19"/>
<text text-anchor="middle" x="71.5" y="-7" font-family="Helvetica,sans-Serif" font-size="10.00">config/config&#45;features.hpp</text>
</a>
</g>
</g>
<!-- Node2&#45;&gt;Node3 -->
<g id="edge2_Node000002_Node000003" class="edge">
<title>Node2&#45;&gt;Node3</title>
<g id="a_edge2_Node000002_Node000003"><a xlink:title=" ">
<path fill="none" stroke="#63b8ff" d="M71.5,-54.75C71.5,-47.8 71.5,-37.85 71.5,-29.13"/>
<polygon fill="#63b8ff" stroke="#63b8ff" points="75,-29.09 71.5,-19.09 68,-29.09 75,-29.09"/>
</a>
</g>
</g>
<!-- Node4&#45;&gt;Node5 -->
<g id="edge4_Node000004_Node000005" class="edge">
<title>Node4&#45;&gt;Node5</title>
<g id="a_edge4_Node000004_Node000005"><a xlink:title=" ">
<path fill="none" stroke="#63b8ff" d="M193,-54.75C193.39,-47.8 193.95,-37.85 194.45,-29.13"/>
<polygon fill="#63b8ff" stroke="#63b8ff" points="197.94,-29.27 195.01,-19.09 190.95,-28.88 197.94,-29.27"/>
</a>
</g>
</g>
<!-- Node7 -->
<g id="Node000007" class="node">
<title>Node7</title>
<g id="a_Node000007"><a xlink:title=" ">
<polygon fill="#e0e0e0" stroke="#999999" points="294.5,-19 242.5,-19 242.5,0 294.5,0 294.5,-19"/>
<text text-anchor="middle" x="268.5" y="-7" font-family="Helvetica,sans-Serif" font-size="10.00">cassert</text>
</a>
</g>
</g>
<!-- Node6&#45;&gt;Node7 -->
<g id="edge6_Node000006_Node000007" class="edge">
<title>Node6&#45;&gt;Node7</title>
<g id="a_edge6_Node000006_Node000007"><a xlink:title=" ">
<path fill="none" stroke="#63b8ff" d="M331.45,-54.98C320.04,-46.92 302.67,-34.65 289.07,-25.03"/>
<polygon fill="#63b8ff" stroke="#63b8ff" points="290.96,-22.08 280.77,-19.17 286.92,-27.8 290.96,-22.08"/>
</a>
</g>
</g>
<!-- Node8 -->
<g id="Node000008" class="node">
<title>Node8</title>
<g id="a_Node000008"><a xlink:title=" ">
<polygon fill="#e0e0e0" stroke="#999999" points="368.5,-19 312.5,-19 312.5,0 368.5,0 368.5,-19"/>
<text text-anchor="middle" x="340.5" y="-7" font-family="Helvetica,sans-Serif" font-size="10.00">numeric</text>
</a>
</g>
</g>
<!-- Node6&#45;&gt;Node8 -->
<g id="edge7_Node000006_Node000008" class="edge">
<title>Node6&#45;&gt;Node8</title>
<g id="a_edge7_Node000006_Node000008"><a xlink:title=" ">
<path fill="none" stroke="#63b8ff" d="M343,-54.75C342.61,-47.8 342.05,-37.85 341.55,-29.13"/>
<polygon fill="#63b8ff" stroke="#63b8ff" points="345.05,-28.88 340.99,-19.09 338.06,-29.27 345.05,-28.88"/>
</a>
</g>
</g>
<!-- Node9 -->
<g id="Node000009" class="node">
<title>Node9</title>
<g id="a_Node000009"><a xlink:title=" ">
<polygon fill="#e0e0e0" stroke="#999999" points="426.5,-19 386.5,-19 386.5,0 426.5,0 426.5,-19"/>
<text text-anchor="middle" x="406.5" y="-7" font-family="Helvetica,sans-Serif" font-size="10.00">span</text>
</a>
</g>
</g>
<!-- Node6&#45;&gt;Node9 -->
<g id="edge8_Node000006_Node000009" class="edge">
<title>Node6&#45;&gt;Node9</title>
<g id="a_edge8_Node000006_Node000009"><a xlink:title=" ">
<path fill="none" stroke="#63b8ff" d="M353.62,-54.98C362.94,-47.15 376.97,-35.34 388.24,-25.86"/>
<polygon fill="#63b8ff" stroke="#63b8ff" points="390.79,-28.29 396.19,-19.17 386.29,-22.93 390.79,-28.29"/>
</a>
</g>
</g>
<!-- Node10 -->
<g id="Node000010" class="node">
<title>Node10</title>
<g id="a_Node000010"><a xlink:title=" ">
<polygon fill="#e0e0e0" stroke="#999999" points="490,-19 445,-19 445,0 490,0 490,-19"/>
<text text-anchor="middle" x="467.5" y="-7" font-family="Helvetica,sans-Serif" font-size="10.00">utility</text>
</a>
</g>
</g>
<!-- Node6&#45;&gt;Node10 -->
<g id="edge9_Node000006_Node000010" class="edge">
<title>Node6&#45;&gt;Node10</title>
<g id="a_edge9_Node000006_Node000010"><a xlink:title=" ">
<path fill="none" stroke="#63b8ff" d="M363.42,-54.98C383.55,-46.38 414.88,-32.99 437.91,-23.15"/>
<polygon fill="#63b8ff" stroke="#63b8ff" points="439.4,-26.32 447.21,-19.17 436.64,-19.88 439.4,-26.32"/>
</a>
</g>
</g>
</g>
</svg>
