<?xml version="1.0" encoding="UTF-8" standalone="no"?>
<!DOCTYPE svg PUBLIC "-//W3C//DTD SVG 1.1//EN"
 "http://www.w3.org/Graphics/SVG/1.1/DTD/svg11.dtd">
<!-- Generated by graphviz version 2.43.0 (0)
 -->
<!-- Title: mmm1d.hpp Pages: 1 -->
<svg width="1739pt" height="478pt"
 viewBox="0.00 0.00 1739.00 478.00" xmlns="http://www.w3.org/2000/svg" xmlns:xlink="http://www.w3.org/1999/xlink">
<g id="graph0" class="graph" transform="scale(1 1) rotate(0) translate(4 474)">
<title>mmm1d.hpp</title>
<!-- Node1 -->
<g id="Node000001" class="node">
<title>Node1</title>
<g id="a_Node000001"><a xlink:title="MMM1D algorithm for long&#45;range Coulomb interactions on the CPU.">
<polygon fill="#999999" stroke="#666666" points="1540.5,-470 1461.5,-470 1461.5,-451 1540.5,-451 1540.5,-470"/>
<text text-anchor="middle" x="1501" y="-458" font-family="Helvetica,sans-Serif" font-size="10.00">mmm1d.hpp</text>
</a>
</g>
</g>
<!-- Node2 -->
<g id="Node000002" class="node">
<title>Node2</title>
<g id="a_Node000002"><a xlink:href="CoulombMMM1D_8hpp.html" target="_top" xlink:title=" ">
<polygon fill="white" stroke="#666666" points="1607,-415 1485,-415 1485,-396 1607,-396 1607,-415"/>
<text text-anchor="middle" x="1546" y="-403" font-family="Helvetica,sans-Serif" font-size="10.00">CoulombMMM1D.hpp</text>
</a>
</g>
</g>
<!-- Node1&#45;&gt;Node2 -->
<g id="edge1_Node000001_Node000002" class="edge">
<title>Node1&#45;&gt;Node2</title>
<g id="a_edge1_Node000001_Node000002"><a xlink:title=" ">
<path fill="none" stroke="#63b8ff" d="M1515.05,-442.96C1522.89,-433.72 1532.33,-422.6 1538.71,-415.09"/>
<polygon fill="#63b8ff" stroke="#63b8ff" points="1512.24,-440.86 1508.43,-450.75 1517.57,-445.39 1512.24,-440.86"/>
</a>
</g>
</g>
<!-- Node4 -->
<g id="Node000004" class="node">
<title>Node4</title>
<g id="a_Node000004"><a xlink:href="coulomb_8hpp.html" target="_top" xlink:title=" ">
<polygon fill="white" stroke="#666666" points="991,-415 911,-415 911,-396 991,-396 991,-415"/>
<text text-anchor="middle" x="951" y="-403" font-family="Helvetica,sans-Serif" font-size="10.00">coulomb.hpp</text>
</a>
</g>
</g>
<!-- Node1&#45;&gt;Node4 -->
<g id="edge3_Node000001_Node000004" class="edge">
<title>Node1&#45;&gt;Node4</title>
<g id="a_edge3_Node000001_Node000004"><a xlink:title=" ">
<path fill="none" stroke="#63b8ff" d="M1451.49,-454.73C1343.8,-444.35 1090.05,-419.9 991.31,-410.38"/>
<polygon fill="#63b8ff" stroke="#63b8ff" points="1451.16,-458.21 1461.45,-455.69 1451.83,-451.25 1451.16,-458.21"/>
</a>
</g>
</g>
<!-- Node30 -->
<g id="Node000030" class="node">
<title>Node30</title>
<g id="a_Node000030"><a xlink:href="mmm1d_8cpp.html" target="_top" xlink:title=" ">
<polygon fill="white" stroke="#666666" points="1518,-354.5 1440,-354.5 1440,-335.5 1518,-335.5 1518,-354.5"/>
<text text-anchor="middle" x="1479" y="-342.5" font-family="Helvetica,sans-Serif" font-size="10.00">mmm1d.cpp</text>
</a>
</g>
</g>
<!-- Node1&#45;&gt;Node30 -->
<g id="edge46_Node000001_Node000030" class="edge">
<title>Node1&#45;&gt;Node30</title>
<g id="a_edge46_Node000001_Node000030"><a xlink:title=" ">
<path fill="none" stroke="#63b8ff" d="M1488.76,-442.54C1483.75,-434.59 1478.55,-424.74 1476,-415 1470.48,-393.89 1474.32,-367.92 1477.01,-354.67"/>
<polygon fill="#63b8ff" stroke="#63b8ff" points="1485.89,-444.54 1494.37,-450.88 1491.69,-440.63 1485.89,-444.54"/>
</a>
</g>
</g>
<!-- Node33 -->
<g id="Node000033" class="node">
<title>Node33</title>
<g id="a_Node000033"><a xlink:href="mmm-modpsi_8cpp.html" target="_top" xlink:title=" ">
<polygon fill="white" stroke="#666666" points="1731,-415 1625,-415 1625,-396 1731,-396 1731,-415"/>
<text text-anchor="middle" x="1678" y="-403" font-family="Helvetica,sans-Serif" font-size="10.00">mmm&#45;modpsi.cpp</text>
</a>
</g>
</g>
<!-- Node1&#45;&gt;Node33 -->
<g id="edge45_Node000001_Node000033" class="edge">
<title>Node1&#45;&gt;Node33</title>
<g id="a_edge45_Node000001_Node000033"><a xlink:title=" ">
<path fill="none" stroke="#63b8ff" d="M1539.22,-448.06C1572.3,-438.15 1619.41,-424.04 1649.34,-415.08"/>
<polygon fill="#63b8ff" stroke="#63b8ff" points="1538.01,-444.76 1529.44,-450.98 1540.02,-451.47 1538.01,-444.76"/>
</a>
</g>
</g>
<!-- Node3 -->
<g id="Node000003" class="node">
<title>Node3</title>
<g id="a_Node000003"><a xlink:href="electrostatics_2initialize_8cpp.html" target="_top" xlink:title=" ">
<polygon fill="white" stroke="#666666" points="1417.5,-294 1338.5,-294 1338.5,-275 1417.5,-275 1417.5,-294"/>
<text text-anchor="middle" x="1378" y="-282" font-family="Helvetica,sans-Serif" font-size="10.00">initialize.cpp</text>
</a>
</g>
</g>
<!-- Node2&#45;&gt;Node3 -->
<g id="edge2_Node000002_Node000003" class="edge">
<title>Node2&#45;&gt;Node3</title>
<g id="a_edge2_Node000002_Node000003"><a xlink:title=" ">
<path fill="none" stroke="#63b8ff" d="M1546.14,-385.63C1545.24,-368.89 1541.27,-344.86 1527,-330 1498.58,-300.4 1451.38,-290.26 1417.72,-286.91"/>
<polygon fill="#63b8ff" stroke="#63b8ff" points="1542.65,-385.92 1546.37,-395.85 1549.65,-385.77 1542.65,-385.92"/>
</a>
</g>
</g>
<!-- Node4&#45;&gt;Node3 -->
<g id="edge38_Node000004_Node000003" class="edge">
<title>Node4&#45;&gt;Node3</title>
<g id="a_edge38_Node000004_Node000003"><a xlink:title=" ">
<path fill="none" stroke="#63b8ff" d="M1001.64,-401.14C1082.3,-395.24 1235.97,-381.53 1286,-360 1290.74,-357.96 1344.75,-313.2 1367.74,-294.06"/>
<polygon fill="#63b8ff" stroke="#63b8ff" points="1000.95,-397.68 991.23,-401.89 1001.46,-404.67 1000.95,-397.68"/>
</a>
</g>
</g>
<!-- Node5 -->
<g id="Node000005" class="node">
<title>Node5</title>
<g id="a_Node000005"><a xlink:href="electrostatics_2Actor_8impl_8hpp.html" target="_top" xlink:title=" ">
<polygon fill="white" stroke="#666666" points="1421.5,-354.5 1334.5,-354.5 1334.5,-335.5 1421.5,-335.5 1421.5,-354.5"/>
<text text-anchor="middle" x="1378" y="-342.5" font-family="Helvetica,sans-Serif" font-size="10.00">Actor.impl.hpp</text>
</a>
</g>
</g>
<!-- Node4&#45;&gt;Node5 -->
<g id="edge4_Node000004_Node000005" class="edge">
<title>Node4&#45;&gt;Node5</title>
<g id="a_edge4_Node000004_Node000005"><a xlink:title=" ">
<path fill="none" stroke="#63b8ff" d="M1001.13,-400.33C1072.37,-393.97 1206.82,-380.41 1320,-360 1328.36,-358.49 1337.31,-356.51 1345.63,-354.52"/>
<polygon fill="#63b8ff" stroke="#63b8ff" points="1000.74,-396.85 991.09,-401.21 1001.36,-403.82 1000.74,-396.85"/>
</a>
</g>
</g>
<!-- Node6 -->
<g id="Node000006" class="node">
<title>Node6</title>
<g id="a_Node000006"><a xlink:href="System_8impl_8hpp.html" target="_top" xlink:title=" ">
<polygon fill="white" stroke="#666666" points="101.5,-354.5 2.5,-354.5 2.5,-335.5 101.5,-335.5 101.5,-354.5"/>
<text text-anchor="middle" x="52" y="-342.5" font-family="Helvetica,sans-Serif" font-size="10.00">System.impl.hpp</text>
</a>
</g>
</g>
<!-- Node4&#45;&gt;Node6 -->
<g id="edge6_Node000004_Node000006" class="edge">
<title>Node4&#45;&gt;Node6</title>
<g id="a_edge6_Node000004_Node000006"><a xlink:title=" ">
<path fill="none" stroke="#63b8ff" d="M900.73,-404.65C770.48,-404.43 411.55,-399.93 116,-360 106.19,-358.68 95.66,-356.63 86.03,-354.52"/>
<polygon fill="#63b8ff" stroke="#63b8ff" points="900.8,-408.15 910.81,-404.66 900.81,-401.15 900.8,-408.15"/>
</a>
</g>
</g>
<!-- Node9 -->
<g id="Node000009" class="node">
<title>Node9</title>
<g id="a_Node000009"><a xlink:href="coulomb_8cpp.html" target="_top" xlink:title=" ">
<polygon fill="white" stroke="#666666" points="990.5,-354.5 911.5,-354.5 911.5,-335.5 990.5,-335.5 990.5,-354.5"/>
<text text-anchor="middle" x="951" y="-342.5" font-family="Helvetica,sans-Serif" font-size="10.00">coulomb.cpp</text>
</a>
</g>
</g>
<!-- Node4&#45;&gt;Node9 -->
<g id="edge9_Node000004_Node000009" class="edge">
<title>Node4&#45;&gt;Node9</title>
<g id="a_edge9_Node000004_Node000009"><a xlink:title=" ">
<path fill="none" stroke="#63b8ff" d="M951,-385.66C951,-375.24 951,-362.8 951,-354.67"/>
<polygon fill="#63b8ff" stroke="#63b8ff" points="947.5,-385.87 951,-395.87 954.5,-385.87 947.5,-385.87"/>
</a>
</g>
</g>
<!-- Node10 -->
<g id="Node000010" class="node">
<title>Node10</title>
<g id="a_Node000010"><a xlink:href="coulomb__inline_8hpp.html" target="_top" xlink:title=" ">
<polygon fill="white" stroke="#666666" points="715,-354.5 603,-354.5 603,-335.5 715,-335.5 715,-354.5"/>
<text text-anchor="middle" x="659" y="-342.5" font-family="Helvetica,sans-Serif" font-size="10.00">coulomb_inline.hpp</text>
</a>
</g>
</g>
<!-- Node4&#45;&gt;Node10 -->
<g id="edge10_Node000004_Node000010" class="edge">
<title>Node4&#45;&gt;Node10</title>
<g id="a_edge10_Node000004_Node000010"><a xlink:title=" ">
<path fill="none" stroke="#63b8ff" d="M900.63,-394.41C844.46,-383.16 754.58,-365.15 701.72,-354.56"/>
<polygon fill="#63b8ff" stroke="#63b8ff" points="900.21,-397.89 910.71,-396.43 901.59,-391.03 900.21,-397.89"/>
</a>
</g>
</g>
<!-- Node16 -->
<g id="Node000016" class="node">
<title>Node16</title>
<g id="a_Node000016"><a xlink:href="energy_8cpp.html" target="_top" xlink:title=" ">
<polygon fill="white" stroke="#666666" points="908.5,-184 839.5,-184 839.5,-165 908.5,-165 908.5,-184"/>
<text text-anchor="middle" x="874" y="-172" font-family="Helvetica,sans-Serif" font-size="10.00">energy.cpp</text>
</a>
</g>
</g>
<!-- Node4&#45;&gt;Node16 -->
<g id="edge36_Node000004_Node000016" class="edge">
<title>Node4&#45;&gt;Node16</title>
<g id="a_edge36_Node000004_Node000016"><a xlink:title=" ">
<path fill="none" stroke="#63b8ff" d="M909.29,-392.09C893.84,-385.24 877.92,-374.98 869,-360 833.93,-301.07 860.99,-211.74 870.81,-184.01"/>
<polygon fill="#63b8ff" stroke="#63b8ff" points="908.2,-395.42 918.79,-395.92 910.83,-388.93 908.2,-395.42"/>
</a>
</g>
</g>
<!-- Node23 -->
<g id="Node000023" class="node">
<title>Node23</title>
<g id="a_Node000023"><a xlink:href="icc_8cpp.html" target="_top" xlink:title="Functions to compute the electric field acting on the induced charges, excluding forces other than th...">
<polygon fill="white" stroke="#666666" points="291,-74 241,-74 241,-55 291,-55 291,-74"/>
<text text-anchor="middle" x="266" y="-62" font-family="Helvetica,sans-Serif" font-size="10.00">icc.cpp</text>
</a>
</g>
</g>
<!-- Node4&#45;&gt;Node23 -->
<g id="edge37_Node000004_Node000023" class="edge">
<title>Node4&#45;&gt;Node23</title>
<g id="a_edge37_Node000004_Node000023"><a xlink:title=" ">
<path fill="none" stroke="#63b8ff" d="M900.42,-404.23C761.95,-403 379.02,-396.33 259,-360 195.63,-340.82 130,-351.71 130,-285.5 130,-285.5 130,-285.5 130,-173.5 130,-144.04 128.94,-131.57 149,-110 173.27,-83.9 214.46,-72.98 240.93,-68.5"/>
<polygon fill="#63b8ff" stroke="#63b8ff" points="900.71,-407.73 910.74,-404.31 900.77,-400.73 900.71,-407.73"/>
</a>
</g>
</g>
<!-- Node24 -->
<g id="Node000024" class="node">
<title>Node24</title>
<g id="a_Node000024"><a xlink:href="p3m__heffte_8impl_8hpp.html" target="_top" xlink:title=" ">
<polygon fill="white" stroke="#666666" points="824,-74 706,-74 706,-55 824,-55 824,-74"/>
<text text-anchor="middle" x="765" y="-62" font-family="Helvetica,sans-Serif" font-size="10.00">p3m_heffte.impl.hpp</text>
</a>
</g>
</g>
<!-- Node4&#45;&gt;Node24 -->
<g id="edge42_Node000004_Node000024" class="edge">
<title>Node4&#45;&gt;Node24</title>
<g id="a_edge42_Node000004_Node000024"><a xlink:title=" ">
<path fill="none" stroke="#63b8ff" d="M927.51,-389.76C917.68,-382.2 907.32,-372.03 902,-360 866.81,-280.52 958.34,-241.46 917,-165 890.45,-115.89 827.95,-87.13 791.91,-74.05"/>
<polygon fill="#63b8ff" stroke="#63b8ff" points="925.7,-392.77 935.87,-395.73 929.76,-387.07 925.7,-392.77"/>
</a>
</g>
</g>
<!-- Node27 -->
<g id="Node000027" class="node">
<title>Node27</title>
<g id="a_Node000027"><a xlink:href="pressure_8cpp.html" target="_top" xlink:title=" ">
<polygon fill="white" stroke="#666666" points="237.5,-129 158.5,-129 158.5,-110 237.5,-110 237.5,-129"/>
<text text-anchor="middle" x="198" y="-117" font-family="Helvetica,sans-Serif" font-size="10.00">pressure.cpp</text>
</a>
</g>
</g>
<!-- Node4&#45;&gt;Node27 -->
<g id="edge43_Node000004_Node000027" class="edge">
<title>Node4&#45;&gt;Node27</title>
<g id="a_edge43_Node000004_Node000027"><a xlink:title=" ">
<path fill="none" stroke="#63b8ff" d="M900.56,-402.03C729.64,-392.98 183,-358.35 183,-285.5 183,-285.5 183,-285.5 183,-228.5 183,-191.21 191.88,-147.36 195.98,-129.12"/>
<polygon fill="#63b8ff" stroke="#63b8ff" points="900.62,-405.53 910.79,-402.56 900.99,-398.54 900.62,-405.53"/>
</a>
</g>
</g>
<!-- Node28 -->
<g id="Node000028" class="node">
<title>Node28</title>
<g id="a_Node000028"><a xlink:href="thole_8hpp.html" target="_top" xlink:title="Routines to calculate the Thole damping potential between particle pairs.">
<polygon fill="white" stroke="#666666" points="749,-294 687,-294 687,-275 749,-275 749,-294"/>
<text text-anchor="middle" x="718" y="-282" font-family="Helvetica,sans-Serif" font-size="10.00">thole.hpp</text>
</a>
</g>
</g>
<!-- Node4&#45;&gt;Node28 -->
<g id="edge44_Node000004_Node000028" class="edge">
<title>Node4&#45;&gt;Node28</title>
<g id="a_edge44_Node000004_Node000028"><a xlink:title=" ">
<path fill="none" stroke="#63b8ff" d="M912.77,-392.8C888.72,-384.85 857.36,-373.36 831,-360 791.38,-339.93 748.67,-308.89 729.03,-294.01"/>
<polygon fill="#63b8ff" stroke="#63b8ff" points="912,-396.23 922.59,-395.99 914.16,-389.58 912,-396.23"/>
</a>
</g>
</g>
<!-- Node29 -->
<g id="Node000029" class="node">
<title>Node29</title>
<g id="a_Node000029"><a xlink:href="elc_8cpp.html" target="_top" xlink:title=" ">
<polygon fill="white" stroke="#666666" points="1059.5,-354.5 1008.5,-354.5 1008.5,-335.5 1059.5,-335.5 1059.5,-354.5"/>
<text text-anchor="middle" x="1034" y="-342.5" font-family="Helvetica,sans-Serif" font-size="10.00">elc.cpp</text>
</a>
</g>
</g>
<!-- Node4&#45;&gt;Node29 -->
<g id="edge35_Node000004_Node000029" class="edge">
<title>Node4&#45;&gt;Node29</title>
<g id="a_edge35_Node000004_Node000029"><a xlink:title=" ">
<path fill="none" stroke="#63b8ff" d="M971.79,-389.85C987.51,-378.77 1008.56,-363.93 1021.7,-354.67"/>
<polygon fill="#63b8ff" stroke="#63b8ff" points="969.4,-387.25 963.25,-395.87 973.44,-392.97 969.4,-387.25"/>
</a>
</g>
</g>
<!-- Node4&#45;&gt;Node30 -->
<g id="edge39_Node000004_Node000030" class="edge">
<title>Node4&#45;&gt;Node30</title>
<g id="a_edge39_Node000004_Node000030"><a xlink:title=" ">
<path fill="none" stroke="#63b8ff" d="M1001.29,-402.9C1089.01,-399.42 1275.4,-389.01 1430,-360 1437.39,-358.61 1445.28,-356.6 1452.51,-354.54"/>
<polygon fill="#63b8ff" stroke="#63b8ff" points="1000.95,-399.41 991.09,-403.29 1001.22,-406.4 1000.95,-399.41"/>
</a>
</g>
</g>
<!-- Node31 -->
<g id="Node000031" class="node">
<title>Node31</title>
<g id="a_Node000031"><a xlink:href="nonbonded__interaction__data_8cpp.html" target="_top" xlink:title="Implementation of nonbonded_interaction_data.hpp.">
<polygon fill="white" stroke="#666666" points="1206,-360 1078,-360 1078,-330 1206,-330 1206,-360"/>
<text text-anchor="start" x="1086" y="-348" font-family="Helvetica,sans-Serif" font-size="10.00">nonbonded_interaction</text>
<text text-anchor="middle" x="1142" y="-337" font-family="Helvetica,sans-Serif" font-size="10.00">_data.cpp</text>
</a>
</g>
</g>
<!-- Node4&#45;&gt;Node31 -->
<g id="edge40_Node000004_Node000031" class="edge">
<title>Node4&#45;&gt;Node31</title>
<g id="a_edge40_Node000004_Node000031"><a xlink:title=" ">
<path fill="none" stroke="#63b8ff" d="M988.7,-392.95C1019.52,-383.51 1063.22,-370.13 1096.08,-360.06"/>
<polygon fill="#63b8ff" stroke="#63b8ff" points="987.31,-389.72 978.77,-395.99 989.36,-396.41 987.31,-389.72"/>
</a>
</g>
</g>
<!-- Node32 -->
<g id="Node000032" class="node">
<title>Node32</title>
<g id="a_Node000032"><a xlink:href="npt_8cpp.html" target="_top" xlink:title=" ">
<polygon fill="white" stroke="#666666" points="1277.5,-354.5 1224.5,-354.5 1224.5,-335.5 1277.5,-335.5 1277.5,-354.5"/>
<text text-anchor="middle" x="1251" y="-342.5" font-family="Helvetica,sans-Serif" font-size="10.00">npt.cpp</text>
</a>
</g>
</g>
<!-- Node4&#45;&gt;Node32 -->
<g id="edge41_Node000004_Node000032" class="edge">
<title>Node4&#45;&gt;Node32</title>
<g id="a_edge41_Node000004_Node000032"><a xlink:title=" ">
<path fill="none" stroke="#63b8ff" d="M1001.3,-399.12C1054.91,-392.67 1141.96,-380.13 1215,-360 1220.3,-358.54 1225.9,-356.58 1231.06,-354.59"/>
<polygon fill="#63b8ff" stroke="#63b8ff" points="1000.88,-395.64 991.36,-400.29 1001.7,-402.59 1000.88,-395.64"/>
</a>
</g>
</g>
<!-- Node5&#45;&gt;Node3 -->
<g id="edge5_Node000005_Node000003" class="edge">
<title>Node5&#45;&gt;Node3</title>
<g id="a_edge5_Node000005_Node000003"><a xlink:title=" ">
<path fill="none" stroke="#63b8ff" d="M1378,-325.16C1378,-314.74 1378,-302.3 1378,-294.17"/>
<polygon fill="#63b8ff" stroke="#63b8ff" points="1374.5,-325.37 1378,-335.37 1381.5,-325.37 1374.5,-325.37"/>
</a>
</g>
</g>
<!-- Node7 -->
<g id="Node000007" class="node">
<title>Node7</title>
<g id="a_Node000007"><a xlink:href="core_2system_2System_8cpp.html" target="_top" xlink:title=" ">
<polygon fill="white" stroke="#666666" points="130,-74 56,-74 56,-55 130,-55 130,-74"/>
<text text-anchor="middle" x="93" y="-62" font-family="Helvetica,sans-Serif" font-size="10.00">System.cpp</text>
</a>
</g>
</g>
<!-- Node6&#45;&gt;Node7 -->
<g id="edge7_Node000006_Node000007" class="edge">
<title>Node6&#45;&gt;Node7</title>
<g id="a_edge7_Node000006_Node000007"><a xlink:title=" ">
<path fill="none" stroke="#63b8ff" d="M38.77,-327.25C23.37,-306.02 0,-267.69 0,-230.5 0,-230.5 0,-230.5 0,-173.5 0,-126.73 50.69,-90.15 77.22,-74.21"/>
<polygon fill="#63b8ff" stroke="#63b8ff" points="36.17,-329.62 44.99,-335.5 41.76,-325.41 36.17,-329.62"/>
</a>
</g>
</g>
<!-- Node8 -->
<g id="Node000008" class="node">
<title>Node8</title>
<g id="a_Node000008"><a xlink:href="script__interface_2system_2System_8cpp.html" target="_top" xlink:title=" ">
<polygon fill="white" stroke="#666666" points="102,-294 28,-294 28,-275 102,-275 102,-294"/>
<text text-anchor="middle" x="65" y="-282" font-family="Helvetica,sans-Serif" font-size="10.00">System.cpp</text>
</a>
</g>
</g>
<!-- Node6&#45;&gt;Node8 -->
<g id="edge8_Node000006_Node000008" class="edge">
<title>Node6&#45;&gt;Node8</title>
<g id="a_edge8_Node000006_Node000008"><a xlink:title=" ">
<path fill="none" stroke="#63b8ff" d="M56.11,-325.49C58.44,-315.01 61.25,-302.39 63.07,-294.17"/>
<polygon fill="#63b8ff" stroke="#63b8ff" points="52.67,-324.85 53.92,-335.37 59.5,-326.37 52.67,-324.85"/>
</a>
</g>
</g>
<!-- Node11 -->
<g id="Node000011" class="node">
<title>Node11</title>
<g id="a_Node000011"><a xlink:href="energy__inline_8hpp.html" target="_top" xlink:title="Energy calculation.">
<polygon fill="white" stroke="#666666" points="770,-239 666,-239 666,-220 770,-220 770,-239"/>
<text text-anchor="middle" x="718" y="-227" font-family="Helvetica,sans-Serif" font-size="10.00">energy_inline.hpp</text>
</a>
</g>
</g>
<!-- Node10&#45;&gt;Node11 -->
<g id="edge11_Node000010_Node000011" class="edge">
<title>Node10&#45;&gt;Node11</title>
<g id="a_edge11_Node000010_Node000011"><a xlink:title=" ">
<path fill="none" stroke="#63b8ff" d="M661.73,-325.3C664.4,-310.9 669.34,-290.83 678,-275 685.78,-260.78 698.93,-247.37 708.02,-239.06"/>
<polygon fill="#63b8ff" stroke="#63b8ff" points="658.23,-325.02 660.06,-335.46 665.14,-326.16 658.23,-325.02"/>
</a>
</g>
</g>
<!-- Node17 -->
<g id="Node000017" class="node">
<title>Node17</title>
<g id="a_Node000017"><a xlink:href="forces__inline_8hpp.html" target="_top" xlink:title="Force calculation.">
<polygon fill="white" stroke="#666666" points="583,-239 483,-239 483,-220 583,-220 583,-239"/>
<text text-anchor="middle" x="533" y="-227" font-family="Helvetica,sans-Serif" font-size="10.00">forces_inline.hpp</text>
</a>
</g>
</g>
<!-- Node10&#45;&gt;Node17 -->
<g id="edge17_Node000010_Node000017" class="edge">
<title>Node10&#45;&gt;Node17</title>
<g id="a_edge17_Node000010_Node000017"><a xlink:title=" ">
<path fill="none" stroke="#63b8ff" d="M642.05,-328.73C615.23,-304.57 563.85,-258.29 542.58,-239.13"/>
<polygon fill="#63b8ff" stroke="#63b8ff" points="639.76,-331.38 649.53,-335.47 644.44,-326.18 639.76,-331.38"/>
</a>
</g>
</g>
<!-- Node10&#45;&gt;Node23 -->
<g id="edge31_Node000010_Node000023" class="edge">
<title>Node10&#45;&gt;Node23</title>
<g id="a_edge31_Node000010_Node000023"><a xlink:title=" ">
<path fill="none" stroke="#63b8ff" d="M592.62,-340.72C496.11,-331.97 319.89,-300.02 240,-184 235.21,-177.04 238.92,-173.38 240,-165 244.41,-130.65 257.07,-91.22 262.94,-74.14"/>
<polygon fill="#63b8ff" stroke="#63b8ff" points="592.58,-344.23 602.84,-341.59 593.17,-337.26 592.58,-344.23"/>
</a>
</g>
</g>
<!-- Node10&#45;&gt;Node28 -->
<g id="edge32_Node000010_Node000028" class="edge">
<title>Node10&#45;&gt;Node28</title>
<g id="a_edge32_Node000010_Node000028"><a xlink:title=" ">
<path fill="none" stroke="#63b8ff" d="M675.05,-328.09C686.06,-317.17 700.27,-303.08 709.26,-294.17"/>
<polygon fill="#63b8ff" stroke="#63b8ff" points="672.34,-325.84 667.71,-335.37 677.27,-330.81 672.34,-325.84"/>
</a>
</g>
</g>
<!-- Node12 -->
<g id="Node000012" class="node">
<title>Node12</title>
<g id="a_Node000012"><a xlink:href="core_2pair__criteria_2EnergyCriterion_8hpp.html" target="_top" xlink:title=" ">
<polygon fill="white" stroke="#666666" points="821.5,-184 708.5,-184 708.5,-165 821.5,-165 821.5,-184"/>
<text text-anchor="middle" x="765" y="-172" font-family="Helvetica,sans-Serif" font-size="10.00">EnergyCriterion.hpp</text>
</a>
</g>
</g>
<!-- Node11&#45;&gt;Node12 -->
<g id="edge12_Node000011_Node000012" class="edge">
<title>Node11&#45;&gt;Node12</title>
<g id="a_edge12_Node000011_Node000012"><a xlink:title=" ">
<path fill="none" stroke="#63b8ff" d="M732.42,-212.24C740.66,-202.95 750.65,-191.68 757.38,-184.09"/>
<polygon fill="#63b8ff" stroke="#63b8ff" points="729.78,-209.94 725.76,-219.75 735.01,-214.59 729.78,-209.94"/>
</a>
</g>
</g>
<!-- Node15 -->
<g id="Node000015" class="node">
<title>Node15</title>
<g id="a_Node000015"><a xlink:href="ShapeBasedConstraint_8cpp.html" target="_top" xlink:title=" ">
<polygon fill="white" stroke="#666666" points="690.5,-184 543.5,-184 543.5,-165 690.5,-165 690.5,-184"/>
<text text-anchor="middle" x="617" y="-172" font-family="Helvetica,sans-Serif" font-size="10.00">ShapeBasedConstraint.cpp</text>
</a>
</g>
</g>
<!-- Node11&#45;&gt;Node15 -->
<g id="edge15_Node000011_Node000015" class="edge">
<title>Node11&#45;&gt;Node15</title>
<g id="a_edge15_Node000011_Node000015"><a xlink:title=" ">
<path fill="none" stroke="#63b8ff" d="M692.72,-215.23C674.2,-205.51 649.58,-192.6 633.52,-184.17"/>
<polygon fill="#63b8ff" stroke="#63b8ff" points="691.29,-218.44 701.77,-219.98 694.54,-212.24 691.29,-218.44"/>
</a>
</g>
</g>
<!-- Node11&#45;&gt;Node16 -->
<g id="edge16_Node000011_Node000016" class="edge">
<title>Node11&#45;&gt;Node16</title>
<g id="a_edge16_Node000011_Node000016"><a xlink:title=" ">
<path fill="none" stroke="#63b8ff" d="M752.82,-216.67C781.91,-206.79 822.7,-192.93 848.74,-184.08"/>
<polygon fill="#63b8ff" stroke="#63b8ff" points="751.41,-213.45 743.06,-219.98 753.66,-220.08 751.41,-213.45"/>
</a>
</g>
</g>
<!-- Node13 -->
<g id="Node000013" class="node">
<title>Node13</title>
<g id="a_Node000013"><a xlink:href="script__interface_2pair__criteria_2EnergyCriterion_8hpp.html" target="_top" xlink:title=" ">
<polygon fill="white" stroke="#666666" points="1078.5,-129 965.5,-129 965.5,-110 1078.5,-110 1078.5,-129"/>
<text text-anchor="middle" x="1022" y="-117" font-family="Helvetica,sans-Serif" font-size="10.00">EnergyCriterion.hpp</text>
</a>
</g>
</g>
<!-- Node12&#45;&gt;Node13 -->
<g id="edge13_Node000012_Node000013" class="edge">
<title>Node12&#45;&gt;Node13</title>
<g id="a_edge13_Node000012_Node000013"><a xlink:title=" ">
<path fill="none" stroke="#63b8ff" d="M816.2,-162.94C864.38,-153.01 935.62,-138.31 980.38,-129.08"/>
<polygon fill="#63b8ff" stroke="#63b8ff" points="815.38,-159.54 806.29,-164.98 816.79,-166.39 815.38,-159.54"/>
</a>
</g>
</g>
<!-- Node14 -->
<g id="Node000014" class="node">
<title>Node14</title>
<g id="a_Node000014"><a xlink:href="pair__criteria_2initialize_8cpp.html" target="_top" xlink:title=" ">
<polygon fill="white" stroke="#666666" points="1061.5,-74 982.5,-74 982.5,-55 1061.5,-55 1061.5,-74"/>
<text text-anchor="middle" x="1022" y="-62" font-family="Helvetica,sans-Serif" font-size="10.00">initialize.cpp</text>
</a>
</g>
</g>
<!-- Node13&#45;&gt;Node14 -->
<g id="edge14_Node000013_Node000014" class="edge">
<title>Node13&#45;&gt;Node14</title>
<g id="a_edge14_Node000013_Node000014"><a xlink:title=" ">
<path fill="none" stroke="#63b8ff" d="M1022,-99.66C1022,-90.93 1022,-80.99 1022,-74.09"/>
<polygon fill="#63b8ff" stroke="#63b8ff" points="1018.5,-99.75 1022,-109.75 1025.5,-99.75 1018.5,-99.75"/>
</a>
</g>
</g>
<!-- Node17&#45;&gt;Node15 -->
<g id="edge18_Node000017_Node000015" class="edge">
<title>Node17&#45;&gt;Node15</title>
<g id="a_edge18_Node000017_Node000015"><a xlink:title=" ">
<path fill="none" stroke="#63b8ff" d="M555.31,-214.42C570.55,-204.81 590.27,-192.37 603.26,-184.17"/>
<polygon fill="#63b8ff" stroke="#63b8ff" points="553.09,-211.69 546.5,-219.98 556.82,-217.61 553.09,-211.69"/>
</a>
</g>
</g>
<!-- Node18 -->
<g id="Node000018" class="node">
<title>Node18</title>
<g id="a_Node000018"><a xlink:href="forces_8cpp.html" target="_top" xlink:title="Force calculation.">
<polygon fill="white" stroke="#666666" points="548.5,-74 481.5,-74 481.5,-55 548.5,-55 548.5,-74"/>
<text text-anchor="middle" x="515" y="-62" font-family="Helvetica,sans-Serif" font-size="10.00">forces.cpp</text>
</a>
</g>
</g>
<!-- Node17&#45;&gt;Node18 -->
<g id="edge19_Node000017_Node000018" class="edge">
<title>Node17&#45;&gt;Node18</title>
<g id="a_edge19_Node000017_Node000018"><a xlink:title=" ">
<path fill="none" stroke="#63b8ff" d="M530.89,-209.37C526.98,-174.03 518.79,-99.79 515.97,-74.31"/>
<polygon fill="#63b8ff" stroke="#63b8ff" points="527.46,-210.18 532.03,-219.74 534.41,-209.41 527.46,-210.18"/>
</a>
</g>
</g>
<!-- Node19 -->
<g id="Node000019" class="node">
<title>Node19</title>
<g id="a_Node000019"><a xlink:href="forces__cabana_8hpp.html" target="_top" xlink:title=" ">
<polygon fill="white" stroke="#666666" points="487,-184 379,-184 379,-165 487,-165 487,-184"/>
<text text-anchor="middle" x="433" y="-172" font-family="Helvetica,sans-Serif" font-size="10.00">forces_cabana.hpp</text>
</a>
</g>
</g>
<!-- Node17&#45;&gt;Node19 -->
<g id="edge20_Node000017_Node000019" class="edge">
<title>Node17&#45;&gt;Node19</title>
<g id="a_edge20_Node000017_Node000019"><a xlink:title=" ">
<path fill="none" stroke="#63b8ff" d="M507.97,-215.23C489.63,-205.51 465.26,-192.6 449.36,-184.17"/>
<polygon fill="#63b8ff" stroke="#63b8ff" points="506.46,-218.39 516.93,-219.98 509.74,-212.21 506.46,-218.39"/>
</a>
</g>
</g>
<!-- Node26 -->
<g id="Node000026" class="node">
<title>Node26</title>
<g id="a_Node000026"><a xlink:href="pressure__inline_8hpp.html" target="_top" xlink:title=" ">
<polygon fill="white" stroke="#666666" points="361,-184 249,-184 249,-165 361,-165 361,-184"/>
<text text-anchor="middle" x="305" y="-172" font-family="Helvetica,sans-Serif" font-size="10.00">pressure_inline.hpp</text>
</a>
</g>
</g>
<!-- Node17&#45;&gt;Node26 -->
<g id="edge29_Node000017_Node000026" class="edge">
<title>Node17&#45;&gt;Node26</title>
<g id="a_edge29_Node000017_Node000026"><a xlink:title=" ">
<path fill="none" stroke="#63b8ff" d="M486.5,-217.69C443.78,-207.76 381.3,-193.24 341.92,-184.08"/>
<polygon fill="#63b8ff" stroke="#63b8ff" points="485.84,-221.13 496.37,-219.98 487.42,-214.31 485.84,-221.13"/>
</a>
</g>
</g>
<!-- Node20 -->
<g id="Node000020" class="node">
<title>Node20</title>
<g id="a_Node000020"><a xlink:href="short__range__cabana_8hpp.html" target="_top" xlink:title=" ">
<polygon fill="white" stroke="#666666" points="478,-129 342,-129 342,-110 478,-110 478,-129"/>
<text text-anchor="middle" x="410" y="-117" font-family="Helvetica,sans-Serif" font-size="10.00">short_range_cabana.hpp</text>
</a>
</g>
</g>
<!-- Node19&#45;&gt;Node20 -->
<g id="edge21_Node000019_Node000020" class="edge">
<title>Node19&#45;&gt;Node20</title>
<g id="a_edge21_Node000019_Node000020"><a xlink:title=" ">
<path fill="none" stroke="#63b8ff" d="M425.2,-155.53C421.32,-146.6 416.82,-136.22 413.73,-129.09"/>
<polygon fill="#63b8ff" stroke="#63b8ff" points="422.01,-156.97 429.2,-164.75 428.43,-154.18 422.01,-156.97"/>
</a>
</g>
</g>
<!-- Node20&#45;&gt;Node7 -->
<g id="edge22_Node000020_Node000007" class="edge">
<title>Node20&#45;&gt;Node7</title>
<g id="a_edge22_Node000020_Node000007"><a xlink:title=" ">
<path fill="none" stroke="#63b8ff" d="M349.01,-108.3C284.35,-97.49 184.28,-80.76 130.41,-71.75"/>
<polygon fill="#63b8ff" stroke="#63b8ff" points="348.63,-111.79 359.07,-109.98 349.78,-104.88 348.63,-111.79"/>
</a>
</g>
</g>
<!-- Node20&#45;&gt;Node18 -->
<g id="edge25_Node000020_Node000018" class="edge">
<title>Node20&#45;&gt;Node18</title>
<g id="a_edge25_Node000020_Node000018"><a xlink:title=" ">
<path fill="none" stroke="#63b8ff" d="M436.02,-105.37C455.3,-95.63 481.05,-82.64 497.82,-74.17"/>
<polygon fill="#63b8ff" stroke="#63b8ff" points="434.22,-102.35 426.87,-109.98 437.37,-108.6 434.22,-102.35"/>
</a>
</g>
</g>
<!-- Node21 -->
<g id="Node000021" class="node">
<title>Node21</title>
<g id="a_Node000021"><a xlink:href="dp3m__heffte_8impl_8hpp.html" target="_top" xlink:title=" ">
<polygon fill="white" stroke="#666666" points="463,-74 339,-74 339,-55 463,-55 463,-74"/>
<text text-anchor="middle" x="401" y="-62" font-family="Helvetica,sans-Serif" font-size="10.00">dp3m_heffte.impl.hpp</text>
</a>
</g>
</g>
<!-- Node20&#45;&gt;Node21 -->
<g id="edge23_Node000020_Node000021" class="edge">
<title>Node20&#45;&gt;Node21</title>
<g id="a_edge23_Node000020_Node000021"><a xlink:title=" ">
<path fill="none" stroke="#63b8ff" d="M406.8,-99.66C405.32,-90.93 403.63,-80.99 402.46,-74.09"/>
<polygon fill="#63b8ff" stroke="#63b8ff" points="403.39,-100.48 408.51,-109.75 410.29,-99.3 403.39,-100.48"/>
</a>
</g>
</g>
<!-- Node20&#45;&gt;Node23 -->
<g id="edge26_Node000020_Node000023" class="edge">
<title>Node20&#45;&gt;Node23</title>
<g id="a_edge26_Node000020_Node000023"><a xlink:title=" ">
<path fill="none" stroke="#63b8ff" d="M377.18,-106.42C350.47,-96.59 313.4,-82.95 289.56,-74.17"/>
<polygon fill="#63b8ff" stroke="#63b8ff" points="376.27,-109.82 386.86,-109.98 378.69,-103.25 376.27,-109.82"/>
</a>
</g>
</g>
<!-- Node20&#45;&gt;Node24 -->
<g id="edge27_Node000020_Node000024" class="edge">
<title>Node20&#45;&gt;Node24</title>
<g id="a_edge27_Node000020_Node000024"><a xlink:title=" ">
<path fill="none" stroke="#63b8ff" d="M477.02,-108.49C543.67,-98.54 644.83,-83.44 707.81,-74.04"/>
<polygon fill="#63b8ff" stroke="#63b8ff" points="476.41,-105.05 467.04,-109.98 477.44,-111.97 476.41,-105.05"/>
</a>
</g>
</g>
<!-- Node22 -->
<g id="Node000022" class="node">
<title>Node22</title>
<g id="a_Node000022"><a xlink:href="dp3m__heffte_8cpp.html" target="_top" xlink:title=" ">
<polygon fill="white" stroke="#666666" points="450,-19 352,-19 352,0 450,0 450,-19"/>
<text text-anchor="middle" x="401" y="-7" font-family="Helvetica,sans-Serif" font-size="10.00">dp3m_heffte.cpp</text>
</a>
</g>
</g>
<!-- Node21&#45;&gt;Node22 -->
<g id="edge24_Node000021_Node000022" class="edge">
<title>Node21&#45;&gt;Node22</title>
<g id="a_edge24_Node000021_Node000022"><a xlink:title=" ">
<path fill="none" stroke="#63b8ff" d="M401,-44.66C401,-35.93 401,-25.99 401,-19.09"/>
<polygon fill="#63b8ff" stroke="#63b8ff" points="397.5,-44.75 401,-54.75 404.5,-44.75 397.5,-44.75"/>
</a>
</g>
</g>
<!-- Node25 -->
<g id="Node000025" class="node">
<title>Node25</title>
<g id="a_Node000025"><a xlink:href="p3m__heffte_8cpp.html" target="_top" xlink:title=" ">
<polygon fill="white" stroke="#666666" points="811,-19 719,-19 719,0 811,0 811,-19"/>
<text text-anchor="middle" x="765" y="-7" font-family="Helvetica,sans-Serif" font-size="10.00">p3m_heffte.cpp</text>
</a>
</g>
</g>
<!-- Node24&#45;&gt;Node25 -->
<g id="edge28_Node000024_Node000025" class="edge">
<title>Node24&#45;&gt;Node25</title>
<g id="a_edge28_Node000024_Node000025"><a xlink:title=" ">
<path fill="none" stroke="#63b8ff" d="M765,-44.66C765,-35.93 765,-25.99 765,-19.09"/>
<polygon fill="#63b8ff" stroke="#63b8ff" points="761.5,-44.75 765,-54.75 768.5,-44.75 761.5,-44.75"/>
</a>
</g>
</g>
<!-- Node26&#45;&gt;Node27 -->
<g id="edge30_Node000026_Node000027" class="edge">
<title>Node26&#45;&gt;Node27</title>
<g id="a_edge30_Node000026_Node000027"><a xlink:title=" ">
<path fill="none" stroke="#63b8ff" d="M278.76,-160.5C259.07,-150.75 232.68,-137.68 215.5,-129.17"/>
<polygon fill="#63b8ff" stroke="#63b8ff" points="277.29,-163.68 287.81,-164.98 280.4,-157.41 277.29,-163.68"/>
</a>
</g>
</g>
<!-- Node28&#45;&gt;Node11 -->
<g id="edge33_Node000028_Node000011" class="edge">
<title>Node28&#45;&gt;Node11</title>
<g id="a_edge33_Node000028_Node000011"><a xlink:title=" ">
<path fill="none" stroke="#63b8ff" d="M718,-264.66C718,-255.93 718,-245.99 718,-239.09"/>
<polygon fill="#63b8ff" stroke="#63b8ff" points="714.5,-264.75 718,-274.75 721.5,-264.75 714.5,-264.75"/>
</a>
</g>
</g>
<!-- Node28&#45;&gt;Node17 -->
<g id="edge34_Node000028_Node000017" class="edge">
<title>Node28&#45;&gt;Node17</title>
<g id="a_edge34_Node000028_Node000017"><a xlink:title=" ">
<path fill="none" stroke="#63b8ff" d="M678.5,-272.18C643.9,-262.27 594.37,-248.08 562.96,-239.08"/>
<polygon fill="#63b8ff" stroke="#63b8ff" points="677.7,-275.6 688.28,-274.98 679.63,-268.87 677.7,-275.6"/>
</a>
</g>
</g>
</g>
</svg>
