<?xml version="1.0" encoding="UTF-8" standalone="no"?>
<!DOCTYPE svg PUBLIC "-//W3C//DTD SVG 1.1//EN"
 "http://www.w3.org/Graphics/SVG/1.1/DTD/svg11.dtd">
<!-- Generated by graphviz version 2.43.0 (0)
 -->
<!-- Title: nonbonded_tab.hpp Pages: 1 -->
<!--zoomable 419 -->
<svg id="main" version="1.1" xmlns="http://www.w3.org/2000/svg" xmlns:xlink="http://www.w3.org/1999/xlink" xml:space="preserve" onload="init(evt)">
<style type="text/css"><![CDATA[
.edge:hover path { stroke: red; }
.edge:hover polygon { stroke: red; fill: red; }
]]></style>
<script type="text/javascript"><![CDATA[
var edges = document.getElementsByTagName('g');
if (edges && edges.length) {
  for (var i=0;i<edges.length;i++) {
    if (edges[i].id.substr(0,4)=='edge') {
      edges[i].setAttribute('class','edge');
    }
  }
}
]]></script>
        <defs>
                <circle id="rim" cx="0" cy="0" r="7"/>
                <circle id="rim2" cx="0" cy="0" r="3.5"/>
                <g id="zoomPlus">
                        <use xlink:href="#rim" fill="#404040">
                                <set attributeName="fill" to="#808080" begin="zoomplus.mouseover" end="zoomplus.mouseout"/>
                        </use>
                        <path d="M-4,0h8M0,-4v8" fill="none" stroke="white" stroke-width="1.5" pointer-events="none"/>
                </g>
                <g id="zoomMin">
                        <use xlink:href="#rim" fill="#404040">
                                <set attributeName="fill" to="#808080" begin="zoomminus.mouseover" end="zoomminus.mouseout"/>
                        </use>
                        <path d="M-4,0h8" fill="none" stroke="white" stroke-width="1.5" pointer-events="none"/>
                </g>
                <g id="dirArrow">
                        <path fill="none" stroke="white" stroke-width="1.5" d="M0,-3.0v7 M-2.5,-0.5L0,-3.0L2.5,-0.5"/>
                </g>
               <g id="resetDef">
                       <use xlink:href="#rim2" fill="#404040">
                               <set attributeName="fill" to="#808080" begin="reset.mouseover" end="reset.mouseout"/>
                       </use>
               </g>
        </defs>

<script type="text/javascript">
var viewWidth = 1629;
var viewHeight = 419;
var sectionId = 'dynsection-0';
</script>
<script xlink:href="svgpan.js"/>
<svg id="graph" class="graph">
<g id="viewport">
<title>nonbonded_tab.hpp</title>
<!-- Node1 -->
<g id="node1" class="node">
<title>Node1</title>
<g id="a_node1"><a xlink:title=" ">
<polygon fill="#bfbfbf" stroke="black" points="245.5,-391.5 245.5,-410.5 358.5,-410.5 358.5,-391.5 245.5,-391.5"/>
<text text-anchor="middle" x="302" y="-398.5" font-family="Helvetica,sans-Serif" font-size="10.00">nonbonded_tab.hpp</text>
</a>
</g>
</g>
<!-- Node2 -->
<g id="node2" class="node">
<title>Node2</title>
<g id="a_node2"><a xlink:href="config_8hpp.html" target="_top" xlink:title=" ">
<polygon fill="none" stroke="black" points="63,-257.5 63,-276.5 131,-276.5 131,-257.5 63,-257.5"/>
<text text-anchor="middle" x="97" y="-264.5" font-family="Helvetica,sans-Serif" font-size="10.00">config.hpp</text>
</a>
</g>
</g>
<!-- Node1&#45;&gt;Node2 -->
<g id="edge1" class="edge">
<title>Node1&#45;&gt;Node2</title>
<path fill="none" stroke="midnightblue" d="M245.16,-394.53C212.94,-388.96 173.49,-377.71 145,-355 122.69,-337.22 109.17,-306.11 102.4,-286.3"/>
<polygon fill="midnightblue" stroke="midnightblue" points="105.69,-285.09 99.32,-276.62 99.02,-287.21 105.69,-285.09"/>
</g>
<!-- Node4 -->
<g id="node4" class="node">
<title>Node4</title>
<g id="a_node4"><a xlink:href="TabulatedPotential_8hpp.html" target="_top" xlink:title=" ">
<polygon fill="none" stroke="black" points="168,-201.5 168,-220.5 296,-220.5 296,-201.5 168,-201.5"/>
<text text-anchor="middle" x="232" y="-208.5" font-family="Helvetica,sans-Serif" font-size="10.00">TabulatedPotential.hpp</text>
</a>
</g>
</g>
<!-- Node1&#45;&gt;Node4 -->
<g id="edge3" class="edge">
<title>Node1&#45;&gt;Node4</title>
<path fill="none" stroke="midnightblue" d="M273.98,-391.4C256.83,-384.51 236.25,-372.98 226,-355 203.41,-315.38 216.3,-259.06 225.4,-230.36"/>
<polygon fill="midnightblue" stroke="midnightblue" points="228.75,-231.39 228.63,-220.8 222.11,-229.16 228.75,-231.39"/>
</g>
<!-- Node10 -->
<g id="node10" class="node">
<title>Node10</title>
<g id="a_node10"><a xlink:title=" ">
<polygon fill="none" stroke="#bfbfbf" points="402.5,-140 402.5,-159 449.5,-159 449.5,-140 402.5,-140"/>
<text text-anchor="middle" x="426" y="-147" font-family="Helvetica,sans-Serif" font-size="10.00">vector</text>
</a>
</g>
</g>
<!-- Node1&#45;&gt;Node10 -->
<g id="edge60" class="edge">
<title>Node1&#45;&gt;Node10</title>
<path fill="none" stroke="midnightblue" d="M326.48,-391.47C343.45,-384.31 365.2,-372.43 378,-355 420.25,-297.46 425.95,-208.35 426.3,-169.59"/>
<polygon fill="midnightblue" stroke="midnightblue" points="429.8,-169.26 426.27,-159.27 422.8,-169.28 429.8,-169.26"/>
</g>
<!-- Node11 -->
<g id="node11" class="node">
<title>Node11</title>
<g id="a_node11"><a xlink:href="nonbonded__interaction__data_8hpp.html" target="_top" xlink:title=" ">
<polygon fill="none" stroke="black" points="235,-313.5 235,-354.5 369,-354.5 369,-313.5 235,-313.5"/>
<text text-anchor="start" x="243" y="-342.5" font-family="Helvetica,sans-Serif" font-size="10.00">nonbonded_interactions</text>
<text text-anchor="start" x="243" y="-331.5" font-family="Helvetica,sans-Serif" font-size="10.00">/nonbonded_interaction</text>
<text text-anchor="middle" x="302" y="-320.5" font-family="Helvetica,sans-Serif" font-size="10.00">_data.hpp</text>
</a>
</g>
</g>
<!-- Node1&#45;&gt;Node11 -->
<g id="edge11" class="edge">
<title>Node1&#45;&gt;Node11</title>
<path fill="none" stroke="midnightblue" d="M302,-391.23C302,-384.36 302,-374.38 302,-364.73"/>
<polygon fill="midnightblue" stroke="midnightblue" points="305.5,-364.54 302,-354.54 298.5,-364.54 305.5,-364.54"/>
</g>
<!-- Node17 -->
<g id="node17" class="node">
<title>Node17</title>
<g id="a_node17"><a xlink:href="Vector_8hpp.html" target="_top" xlink:title="Vector implementation and trait types for boost qvm interoperability.">
<polygon fill="none" stroke="black" points="822.5,-201.5 822.5,-220.5 891.5,-220.5 891.5,-201.5 822.5,-201.5"/>
<text text-anchor="middle" x="857" y="-208.5" font-family="Helvetica,sans-Serif" font-size="10.00">Vector.hpp</text>
</a>
</g>
</g>
<!-- Node1&#45;&gt;Node17 -->
<g id="edge59" class="edge">
<title>Node1&#45;&gt;Node17</title>
<path fill="none" stroke="midnightblue" d="M332.72,-391.42C363.52,-382.7 412.26,-368.57 454,-355 592.67,-309.91 755.79,-249.83 824.21,-224.3"/>
<polygon fill="midnightblue" stroke="midnightblue" points="825.83,-227.43 833.98,-220.65 823.38,-220.88 825.83,-227.43"/>
</g>
<!-- Node3 -->
<g id="node3" class="node">
<title>Node3</title>
<g id="a_node3"><a xlink:title=" ">
<polygon fill="none" stroke="#bfbfbf" points="0,-201.5 0,-220.5 112,-220.5 112,-201.5 0,-201.5"/>
<text text-anchor="middle" x="56" y="-208.5" font-family="Helvetica,sans-Serif" font-size="10.00">config&#45;features.hpp</text>
</a>
</g>
</g>
<!-- Node2&#45;&gt;Node3 -->
<g id="edge2" class="edge">
<title>Node2&#45;&gt;Node3</title>
<path fill="none" stroke="midnightblue" d="M90.23,-257.08C84.44,-249.46 75.94,-238.26 68.86,-228.94"/>
<polygon fill="midnightblue" stroke="midnightblue" points="71.48,-226.6 62.64,-220.75 65.9,-230.83 71.48,-226.6"/>
</g>
<!-- Node5 -->
<g id="node5" class="node">
<title>Node5</title>
<g id="a_node5"><a xlink:href="linear__interpolation_8hpp.html" target="_top" xlink:title=" ">
<polygon fill="none" stroke="black" points="266.5,-73 266.5,-92 423.5,-92 423.5,-73 266.5,-73"/>
<text text-anchor="middle" x="345" y="-80" font-family="Helvetica,sans-Serif" font-size="10.00">utils/linear_interpolation.hpp</text>
</a>
</g>
</g>
<!-- Node4&#45;&gt;Node5 -->
<g id="edge4" class="edge">
<title>Node4&#45;&gt;Node5</title>
<path fill="none" stroke="midnightblue" d="M259.58,-201.45C278.15,-194.39 301.92,-182.64 317,-165 332.39,-147.01 339.45,-120.11 342.6,-102.2"/>
<polygon fill="midnightblue" stroke="midnightblue" points="346.09,-102.55 344.13,-92.14 339.17,-101.5 346.09,-102.55"/>
</g>
<!-- Node6 -->
<g id="node6" class="node">
<title>Node6</title>
<g id="a_node6"><a xlink:title=" ">
<polygon fill="none" stroke="#bfbfbf" points="345,-6 345,-25 397,-25 397,-6 345,-6"/>
<text text-anchor="middle" x="371" y="-13" font-family="Helvetica,sans-Serif" font-size="10.00">cassert</text>
</a>
</g>
</g>
<!-- Node4&#45;&gt;Node6 -->
<g id="edge9" class="edge">
<title>Node4&#45;&gt;Node6</title>
<path fill="none" stroke="midnightblue" d="M175.74,-201.46C117.76,-192.09 34.52,-176.81 25,-165 16.35,-154.27 16.98,-145.2 25,-134 97.37,-32.99 261.54,-17.77 334.68,-16.18"/>
<polygon fill="midnightblue" stroke="midnightblue" points="334.83,-19.68 344.78,-16.04 334.74,-12.68 334.83,-19.68"/>
</g>
<!-- Node7 -->
<g id="node7" class="node">
<title>Node7</title>
<g id="a_node7"><a xlink:title=" ">
<polygon fill="none" stroke="#bfbfbf" points="34,-140 34,-159 182,-159 182,-140 34,-140"/>
<text text-anchor="middle" x="108" y="-147" font-family="Helvetica,sans-Serif" font-size="10.00">boost/algorithm/clamp.hpp</text>
</a>
</g>
</g>
<!-- Node4&#45;&gt;Node7 -->
<g id="edge6" class="edge">
<title>Node4&#45;&gt;Node7</title>
<path fill="none" stroke="midnightblue" d="M214.23,-201.48C193.52,-191.53 159.05,-174.99 135.01,-163.46"/>
<polygon fill="midnightblue" stroke="midnightblue" points="136.26,-160.18 125.73,-159.01 133.23,-166.49 136.26,-160.18"/>
</g>
<!-- Node8 -->
<g id="node8" class="node">
<title>Node8</title>
<g id="a_node8"><a xlink:title=" ">
<polygon fill="none" stroke="#bfbfbf" points="497.5,-67.5 497.5,-97.5 604.5,-97.5 604.5,-67.5 497.5,-67.5"/>
<text text-anchor="start" x="505.5" y="-85.5" font-family="Helvetica,sans-Serif" font-size="10.00">boost/serialization</text>
<text text-anchor="middle" x="551" y="-74.5" font-family="Helvetica,sans-Serif" font-size="10.00">/access.hpp</text>
</a>
</g>
</g>
<!-- Node4&#45;&gt;Node8 -->
<g id="edge7" class="edge">
<title>Node4&#45;&gt;Node8</title>
<path fill="none" stroke="midnightblue" d="M254.47,-201.43C276.35,-192.87 310.41,-179.01 339,-165 364.2,-152.65 368.29,-145.24 394,-134 424.4,-120.7 459.46,-109.1 488.72,-100.37"/>
<polygon fill="midnightblue" stroke="midnightblue" points="489.8,-103.71 498.41,-97.53 487.82,-96.99 489.8,-103.71"/>
</g>
<!-- Node9 -->
<g id="node9" class="node">
<title>Node9</title>
<g id="a_node9"><a xlink:title=" ">
<polygon fill="none" stroke="#bfbfbf" points="200.5,-134.5 200.5,-164.5 307.5,-164.5 307.5,-134.5 200.5,-134.5"/>
<text text-anchor="start" x="208.5" y="-152.5" font-family="Helvetica,sans-Serif" font-size="10.00">boost/serialization</text>
<text text-anchor="middle" x="254" y="-141.5" font-family="Helvetica,sans-Serif" font-size="10.00">/vector.hpp</text>
</a>
</g>
</g>
<!-- Node4&#45;&gt;Node9 -->
<g id="edge8" class="edge">
<title>Node4&#45;&gt;Node9</title>
<path fill="none" stroke="midnightblue" d="M235.15,-201.48C237.8,-194.32 241.71,-183.75 245.28,-174.08"/>
<polygon fill="midnightblue" stroke="midnightblue" points="248.63,-175.12 248.82,-164.52 242.06,-172.69 248.63,-175.12"/>
</g>
<!-- Node4&#45;&gt;Node10 -->
<g id="edge10" class="edge">
<title>Node4&#45;&gt;Node10</title>
<path fill="none" stroke="midnightblue" d="M264.51,-201.47C296.24,-192.95 345.76,-179.12 388,-165 390.26,-164.24 392.58,-163.44 394.92,-162.6"/>
<polygon fill="midnightblue" stroke="midnightblue" points="396.24,-165.84 404.41,-159.1 393.82,-159.28 396.24,-165.84"/>
</g>
<!-- Node5&#45;&gt;Node6 -->
<g id="edge5" class="edge">
<title>Node5&#45;&gt;Node6</title>
<path fill="none" stroke="midnightblue" d="M348.51,-72.73C352.4,-62.99 358.81,-46.98 363.79,-34.53"/>
<polygon fill="midnightblue" stroke="midnightblue" points="367.08,-35.71 367.55,-25.13 360.59,-33.11 367.08,-35.71"/>
</g>
<!-- Node11&#45;&gt;Node2 -->
<g id="edge13" class="edge">
<title>Node11&#45;&gt;Node2</title>
<path fill="none" stroke="midnightblue" d="M240.49,-313.5C205.63,-302.44 163.2,-288.99 133.55,-279.59"/>
<polygon fill="midnightblue" stroke="midnightblue" points="134.61,-276.25 124.02,-276.57 132.49,-282.93 134.61,-276.25"/>
</g>
<!-- Node11&#45;&gt;Node4 -->
<g id="edge12" class="edge">
<title>Node11&#45;&gt;Node4</title>
<path fill="none" stroke="midnightblue" d="M290.6,-313.29C277.1,-289.96 254.83,-251.47 241.99,-229.26"/>
<polygon fill="midnightblue" stroke="midnightblue" points="245,-227.48 236.96,-220.57 238.94,-230.98 245,-227.48"/>
</g>
<!-- Node11&#45;&gt;Node6 -->
<g id="edge56" class="edge">
<title>Node11&#45;&gt;Node6</title>
<path fill="none" stroke="midnightblue" d="M279.77,-313.3C247.02,-285.12 182.96,-233.16 121,-201 76.84,-178.08 43.98,-205.44 15,-165 6.98,-153.8 11.05,-147.2 15,-134 25.21,-99.87 29.11,-86.38 59,-67 104.09,-37.77 262.83,-23.71 334.91,-18.71"/>
<polygon fill="midnightblue" stroke="midnightblue" points="335.15,-22.2 344.89,-18.04 334.68,-15.22 335.15,-22.2"/>
</g>
<!-- Node11&#45;&gt;Node10 -->
<g id="edge58" class="edge">
<title>Node11&#45;&gt;Node10</title>
<path fill="none" stroke="midnightblue" d="M304.03,-313.2C306.33,-297.21 311.14,-274.55 321,-257 342.63,-218.49 381.87,-184.13 405.78,-165.42"/>
<polygon fill="midnightblue" stroke="midnightblue" points="408.02,-168.11 413.83,-159.25 403.76,-162.55 408.02,-168.11"/>
</g>
<!-- Node12 -->
<g id="node12" class="node">
<title>Node12</title>
<g id="a_node12"><a xlink:href="index_8hpp.html" target="_top" xlink:title=" ">
<polygon fill="none" stroke="black" points="509.5,-257.5 509.5,-276.5 598.5,-276.5 598.5,-257.5 509.5,-257.5"/>
<text text-anchor="middle" x="554" y="-264.5" font-family="Helvetica,sans-Serif" font-size="10.00">utils/index.hpp</text>
</a>
</g>
</g>
<!-- Node11&#45;&gt;Node12 -->
<g id="edge14" class="edge">
<title>Node11&#45;&gt;Node12</title>
<path fill="none" stroke="midnightblue" d="M369.2,-315.67C414.17,-304.07 472.02,-289.14 510.92,-279.11"/>
<polygon fill="midnightblue" stroke="midnightblue" points="512.06,-282.43 520.87,-276.55 510.31,-275.65 512.06,-282.43"/>
</g>
<!-- Node34 -->
<g id="node34" class="node">
<title>Node34</title>
<g id="a_node34"><a xlink:title=" ">
<polygon fill="none" stroke="#bfbfbf" points="582,-140 582,-159 646,-159 646,-140 582,-140"/>
<text text-anchor="middle" x="614" y="-147" font-family="Helvetica,sans-Serif" font-size="10.00">algorithm</text>
</a>
</g>
</g>
<!-- Node11&#45;&gt;Node34 -->
<g id="edge55" class="edge">
<title>Node11&#45;&gt;Node34</title>
<path fill="none" stroke="midnightblue" d="M335.39,-313.47C398.99,-276.27 536.05,-196.09 590.76,-164.09"/>
<polygon fill="midnightblue" stroke="midnightblue" points="592.53,-167.11 599.4,-159.04 589,-161.07 592.53,-167.11"/>
</g>
<!-- Node39 -->
<g id="node39" class="node">
<title>Node39</title>
<g id="a_node39"><a xlink:title=" ">
<polygon fill="none" stroke="#bfbfbf" points="330,-257.5 330,-276.5 374,-276.5 374,-257.5 330,-257.5"/>
<text text-anchor="middle" x="352" y="-264.5" font-family="Helvetica,sans-Serif" font-size="10.00">string</text>
</a>
</g>
</g>
<!-- Node11&#45;&gt;Node39 -->
<g id="edge57" class="edge">
<title>Node11&#45;&gt;Node39</title>
<path fill="none" stroke="midnightblue" d="M317,-313.5C324.08,-304.3 332.43,-293.44 339.21,-284.63"/>
<polygon fill="midnightblue" stroke="midnightblue" points="342.02,-286.71 345.34,-276.65 336.47,-282.44 342.02,-286.71"/>
</g>
<!-- Node12&#45;&gt;Node6 -->
<g id="edge15" class="edge">
<title>Node12&#45;&gt;Node6</title>
<path fill="none" stroke="midnightblue" d="M548.6,-257.39C542.93,-248.35 533.79,-233.71 526,-221 484.21,-152.83 485.44,-127.36 433,-67 421.02,-53.21 404.97,-40.25 392.2,-30.91"/>
<polygon fill="midnightblue" stroke="midnightblue" points="394.15,-28 383.97,-25.06 390.09,-33.71 394.15,-28"/>
</g>
<!-- Node13 -->
<g id="node13" class="node">
<title>Node13</title>
<g id="a_node13"><a xlink:title=" ">
<polygon fill="none" stroke="#bfbfbf" points="1564.5,-6 1564.5,-25 1617.5,-25 1617.5,-6 1564.5,-6"/>
<text text-anchor="middle" x="1591" y="-13" font-family="Helvetica,sans-Serif" font-size="10.00">cstddef</text>
</a>
</g>
</g>
<!-- Node12&#45;&gt;Node13 -->
<g id="edge16" class="edge">
<title>Node12&#45;&gt;Node13</title>
<path fill="none" stroke="midnightblue" d="M598.53,-264.63C787.63,-258.41 1517.87,-230.3 1595,-165 1628.8,-136.39 1622.03,-110.35 1613,-67 1610.62,-55.59 1605.52,-43.59 1600.83,-34.16"/>
<polygon fill="midnightblue" stroke="midnightblue" points="1603.8,-32.29 1596.04,-25.07 1597.61,-35.55 1603.8,-32.29"/>
</g>
<!-- Node14 -->
<g id="node14" class="node">
<title>Node14</title>
<g id="a_node14"><a xlink:title=" ">
<polygon fill="none" stroke="#bfbfbf" points="661.5,-73 661.5,-92 714.5,-92 714.5,-73 661.5,-73"/>
<text text-anchor="middle" x="688" y="-80" font-family="Helvetica,sans-Serif" font-size="10.00">iterator</text>
</a>
</g>
</g>
<!-- Node12&#45;&gt;Node14 -->
<g id="edge17" class="edge">
<title>Node12&#45;&gt;Node14</title>
<path fill="none" stroke="midnightblue" d="M549.45,-257.28C538.28,-234.56 512.38,-172.61 540,-134 553.19,-115.57 612.13,-99.7 651.53,-90.89"/>
<polygon fill="midnightblue" stroke="midnightblue" points="652.31,-94.3 661.33,-88.75 650.82,-87.46 652.31,-94.3"/>
</g>
<!-- Node15 -->
<g id="node15" class="node">
<title>Node15</title>
<g id="a_node15"><a xlink:title=" ">
<polygon fill="none" stroke="#bfbfbf" points="664,-140 664,-159 720,-159 720,-140 664,-140"/>
<text text-anchor="middle" x="692" y="-147" font-family="Helvetica,sans-Serif" font-size="10.00">numeric</text>
</a>
</g>
</g>
<!-- Node12&#45;&gt;Node15 -->
<g id="edge18" class="edge">
<title>Node12&#45;&gt;Node15</title>
<path fill="none" stroke="midnightblue" d="M564.37,-257.32C587.65,-237.84 644.3,-190.42 673.67,-165.84"/>
<polygon fill="midnightblue" stroke="midnightblue" points="676.09,-168.38 681.51,-159.28 671.59,-163.02 676.09,-168.38"/>
</g>
<!-- Node16 -->
<g id="node16" class="node">
<title>Node16</title>
<g id="a_node16"><a xlink:title=" ">
<polygon fill="none" stroke="#bfbfbf" points="732.5,-73 732.5,-92 797.5,-92 797.5,-73 732.5,-73"/>
<text text-anchor="middle" x="765" y="-80" font-family="Helvetica,sans-Serif" font-size="10.00">stdexcept</text>
</a>
</g>
</g>
<!-- Node12&#45;&gt;Node16 -->
<g id="edge19" class="edge">
<title>Node12&#45;&gt;Node16</title>
<path fill="none" stroke="midnightblue" d="M552.27,-257.23C548.21,-233.86 540.69,-169.4 573,-134 619.51,-83.04 657.83,-117.53 724,-98 726.78,-97.18 729.66,-96.28 732.53,-95.34"/>
<polygon fill="midnightblue" stroke="midnightblue" points="733.82,-98.6 742.15,-92.06 731.56,-91.97 733.82,-98.6"/>
</g>
<!-- Node12&#45;&gt;Node17 -->
<g id="edge20" class="edge">
<title>Node12&#45;&gt;Node17</title>
<path fill="none" stroke="midnightblue" d="M598.71,-258.03C656.17,-247.79 755.32,-230.12 812.62,-219.91"/>
<polygon fill="midnightblue" stroke="midnightblue" points="813.24,-223.35 822.47,-218.15 812.01,-216.46 813.24,-223.35"/>
</g>
<!-- Node17&#45;&gt;Node6 -->
<g id="edge46" class="edge">
<title>Node17&#45;&gt;Node6</title>
<path fill="none" stroke="midnightblue" d="M834.05,-201.49C814.12,-193.56 784.92,-180.62 762,-165 745.37,-153.67 745.63,-145.33 729,-134 698.12,-112.95 684.73,-117.76 653,-98 634.2,-86.29 634.2,-76.06 614,-67 528.39,-28.62 496.11,-57.11 406,-31 403.71,-30.34 401.36,-29.57 399.03,-28.74"/>
<polygon fill="midnightblue" stroke="midnightblue" points="400.21,-25.45 389.62,-25.11 397.68,-31.98 400.21,-25.45"/>
</g>
<!-- Node17&#45;&gt;Node10 -->
<g id="edge54" class="edge">
<title>Node17&#45;&gt;Node10</title>
<path fill="none" stroke="midnightblue" d="M822.46,-205.23C741.4,-194.04 539.8,-166.21 459.64,-155.14"/>
<polygon fill="midnightblue" stroke="midnightblue" points="459.99,-151.66 449.6,-153.76 459.03,-158.59 459.99,-151.66"/>
</g>
<!-- Node17&#45;&gt;Node13 -->
<g id="edge48" class="edge">
<title>Node17&#45;&gt;Node13</title>
<path fill="none" stroke="midnightblue" d="M891.55,-210.35C1027.68,-211.39 1521.98,-211.9 1572,-165 1607.63,-131.59 1601.19,-67.21 1595.24,-35.33"/>
<polygon fill="midnightblue" stroke="midnightblue" points="1598.6,-34.26 1593.15,-25.18 1591.74,-35.68 1598.6,-34.26"/>
</g>
<!-- Node17&#45;&gt;Node14 -->
<g id="edge51" class="edge">
<title>Node17&#45;&gt;Node14</title>
<path fill="none" stroke="midnightblue" d="M846.66,-201.3C829.42,-186.89 793.59,-157.36 762,-134 744.81,-121.29 724.74,-107.66 709.85,-97.78"/>
<polygon fill="midnightblue" stroke="midnightblue" points="711.58,-94.73 701.31,-92.14 707.73,-100.57 711.58,-94.73"/>
</g>
<!-- Node17&#45;&gt;Node15 -->
<g id="edge52" class="edge">
<title>Node17&#45;&gt;Node15</title>
<path fill="none" stroke="midnightblue" d="M833.36,-201.48C805.06,-191.27 757.47,-174.11 725.41,-162.55"/>
<polygon fill="midnightblue" stroke="midnightblue" points="726.19,-159.11 715.6,-159.01 723.82,-165.69 726.19,-159.11"/>
</g>
<!-- Node18 -->
<g id="node18" class="node">
<title>Node18</title>
<g id="a_node18"><a xlink:title=" ">
<polygon fill="none" stroke="#bfbfbf" points="918,-140 918,-159 1068,-159 1068,-140 918,-140"/>
<text text-anchor="middle" x="993" y="-147" font-family="Helvetica,sans-Serif" font-size="10.00">boost/qvm/deduce_vec.hpp</text>
</a>
</g>
</g>
<!-- Node17&#45;&gt;Node18 -->
<g id="edge21" class="edge">
<title>Node17&#45;&gt;Node18</title>
<path fill="none" stroke="midnightblue" d="M876.49,-201.48C899.41,-191.45 937.69,-174.7 964.08,-163.15"/>
<polygon fill="midnightblue" stroke="midnightblue" points="965.79,-166.22 973.55,-159.01 962.99,-159.81 965.79,-166.22"/>
</g>
<!-- Node19 -->
<g id="node19" class="node">
<title>Node19</title>
<g id="a_node19"><a xlink:title=" ">
<polygon fill="none" stroke="#bfbfbf" points="1086,-140 1086,-159 1226,-159 1226,-140 1086,-140"/>
<text text-anchor="middle" x="1156" y="-147" font-family="Helvetica,sans-Serif" font-size="10.00">boost/qvm/vec_traits.hpp</text>
</a>
</g>
</g>
<!-- Node17&#45;&gt;Node19 -->
<g id="edge22" class="edge">
<title>Node17&#45;&gt;Node19</title>
<path fill="none" stroke="midnightblue" d="M891.59,-203.12C943.58,-192.77 1042.24,-173.14 1103.24,-161"/>
<polygon fill="midnightblue" stroke="midnightblue" points="1103.94,-164.43 1113.06,-159.04 1102.57,-157.56 1103.94,-164.43"/>
</g>
<!-- Node20 -->
<g id="node20" class="node">
<title>Node20</title>
<g id="a_node20"><a xlink:href="Array_8hpp.html" target="_top" xlink:title="Array implementation with CUDA support.">
<polygon fill="none" stroke="black" points="814,-140 814,-159 900,-159 900,-140 814,-140"/>
<text text-anchor="middle" x="857" y="-147" font-family="Helvetica,sans-Serif" font-size="10.00">utils/Array.hpp</text>
</a>
</g>
</g>
<!-- Node17&#45;&gt;Node20 -->
<g id="edge23" class="edge">
<title>Node17&#45;&gt;Node20</title>
<path fill="none" stroke="midnightblue" d="M857,-201.48C857,-193.08 857,-179.98 857,-169.16"/>
<polygon fill="midnightblue" stroke="midnightblue" points="860.5,-169.01 857,-159.01 853.5,-169.01 860.5,-169.01"/>
</g>
<!-- Node17&#45;&gt;Node34 -->
<g id="edge45" class="edge">
<title>Node17&#45;&gt;Node34</title>
<path fill="none" stroke="midnightblue" d="M822.37,-203.61C781.88,-195.83 713.02,-181.66 655,-165 652.21,-164.2 649.33,-163.31 646.46,-162.38"/>
<polygon fill="midnightblue" stroke="midnightblue" points="647.42,-159.01 636.83,-159.12 645.18,-165.64 647.42,-159.01"/>
</g>
<!-- Node35 -->
<g id="node35" class="node">
<title>Node35</title>
<g id="a_node35"><a xlink:title=" ">
<polygon fill="none" stroke="#bfbfbf" points="1244.5,-140 1244.5,-159 1291.5,-159 1291.5,-140 1244.5,-140"/>
<text text-anchor="middle" x="1268" y="-147" font-family="Helvetica,sans-Serif" font-size="10.00">cmath</text>
</a>
</g>
</g>
<!-- Node17&#45;&gt;Node35 -->
<g id="edge47" class="edge">
<title>Node17&#45;&gt;Node35</title>
<path fill="none" stroke="midnightblue" d="M891.53,-209.28C958.8,-207.14 1111.62,-198.65 1235,-165 1237.29,-164.37 1239.63,-163.62 1241.95,-162.78"/>
<polygon fill="midnightblue" stroke="midnightblue" points="1243.27,-166.02 1251.22,-159.01 1240.64,-159.53 1243.27,-166.02"/>
</g>
<!-- Node36 -->
<g id="node36" class="node">
<title>Node36</title>
<g id="a_node36"><a xlink:title=" ">
<polygon fill="none" stroke="#bfbfbf" points="1309.5,-140 1309.5,-159 1374.5,-159 1374.5,-140 1309.5,-140"/>
<text text-anchor="middle" x="1342" y="-147" font-family="Helvetica,sans-Serif" font-size="10.00">functional</text>
</a>
</g>
</g>
<!-- Node17&#45;&gt;Node36 -->
<g id="edge49" class="edge">
<title>Node17&#45;&gt;Node36</title>
<path fill="none" stroke="midnightblue" d="M891.71,-209.29C967.1,-207.14 1151.12,-198.59 1301,-165 1304.42,-164.23 1307.95,-163.27 1311.43,-162.2"/>
<polygon fill="midnightblue" stroke="midnightblue" points="1312.62,-165.49 1321,-159.01 1310.41,-158.85 1312.62,-165.49"/>
</g>
<!-- Node37 -->
<g id="node37" class="node">
<title>Node37</title>
<g id="a_node37"><a xlink:title=" ">
<polygon fill="none" stroke="#bfbfbf" points="1392.5,-140 1392.5,-159 1475.5,-159 1475.5,-140 1392.5,-140"/>
<text text-anchor="middle" x="1434" y="-147" font-family="Helvetica,sans-Serif" font-size="10.00">initializer_list</text>
</a>
</g>
</g>
<!-- Node17&#45;&gt;Node37 -->
<g id="edge50" class="edge">
<title>Node17&#45;&gt;Node37</title>
<path fill="none" stroke="midnightblue" d="M891.53,-209.4C976.19,-207.42 1200.5,-199.1 1384,-165 1388.75,-164.12 1393.69,-162.97 1398.55,-161.71"/>
<polygon fill="midnightblue" stroke="midnightblue" points="1399.58,-165.06 1408.28,-159.01 1397.71,-158.31 1399.58,-165.06"/>
</g>
<!-- Node38 -->
<g id="node38" class="node">
<title>Node38</title>
<g id="a_node38"><a xlink:title=" ">
<polygon fill="none" stroke="#bfbfbf" points="1493.5,-140 1493.5,-159 1562.5,-159 1562.5,-140 1493.5,-140"/>
<text text-anchor="middle" x="1528" y="-147" font-family="Helvetica,sans-Serif" font-size="10.00">type_traits</text>
</a>
</g>
</g>
<!-- Node17&#45;&gt;Node38 -->
<g id="edge53" class="edge">
<title>Node17&#45;&gt;Node38</title>
<path fill="none" stroke="midnightblue" d="M891.79,-210.58C987.5,-211.51 1262.37,-209.76 1485,-165 1488.69,-164.26 1492.51,-163.29 1496.27,-162.2"/>
<polygon fill="midnightblue" stroke="midnightblue" points="1497.5,-165.48 1505.98,-159.12 1495.39,-158.81 1497.5,-165.48"/>
</g>
<!-- Node20&#45;&gt;Node6 -->
<g id="edge40" class="edge">
<title>Node20&#45;&gt;Node6</title>
<path fill="none" stroke="midnightblue" d="M877.67,-139.98C910.17,-125.45 966.95,-94.76 941,-67 900.31,-23.48 464.01,-44.58 406,-31 403.33,-30.37 400.6,-29.57 397.9,-28.66"/>
<polygon fill="midnightblue" stroke="midnightblue" points="399.02,-25.34 388.43,-25.03 396.52,-31.88 399.02,-25.34"/>
</g>
<!-- Node20&#45;&gt;Node8 -->
<g id="edge39" class="edge">
<title>Node20&#45;&gt;Node8</title>
<path fill="none" stroke="midnightblue" d="M816.68,-139.94C765.1,-128.98 675.19,-109.88 614.41,-96.97"/>
<polygon fill="midnightblue" stroke="midnightblue" points="615.05,-93.53 604.54,-94.87 613.59,-100.37 615.05,-93.53"/>
</g>
<!-- Node20&#45;&gt;Node13 -->
<g id="edge41" class="edge">
<title>Node20&#45;&gt;Node13</title>
<path fill="none" stroke="midnightblue" d="M883.47,-139.94C891.58,-137.64 900.59,-135.4 909,-134 1046.24,-111.19 1412.52,-165.79 1534,-98 1559.05,-84.02 1575.59,-53.86 1584.12,-34.41"/>
<polygon fill="midnightblue" stroke="midnightblue" points="1587.38,-35.69 1587.94,-25.11 1580.9,-33.03 1587.38,-35.69"/>
</g>
<!-- Node20&#45;&gt;Node14 -->
<g id="edge42" class="edge">
<title>Node20&#45;&gt;Node14</title>
<path fill="none" stroke="midnightblue" d="M833.88,-139.88C807.31,-129.94 762.41,-113.03 724,-98 722.16,-97.28 720.28,-96.54 718.38,-95.79"/>
<polygon fill="midnightblue" stroke="midnightblue" points="719.5,-92.46 708.91,-92.01 716.9,-98.96 719.5,-92.46"/>
</g>
<!-- Node20&#45;&gt;Node16 -->
<g id="edge44" class="edge">
<title>Node20&#45;&gt;Node16</title>
<path fill="none" stroke="midnightblue" d="M844.59,-139.73C829.42,-129.01 803.52,-110.72 785.4,-97.91"/>
<polygon fill="midnightblue" stroke="midnightblue" points="787.4,-95.04 777.21,-92.13 783.36,-100.76 787.4,-95.04"/>
</g>
<!-- Node21 -->
<g id="node21" class="node">
<title>Node21</title>
<g id="a_node21"><a xlink:href="device__qualifier_8hpp.html" target="_top" xlink:title=" ">
<polygon fill="none" stroke="black" points="816,-73 816,-92 932,-92 932,-73 816,-73"/>
<text text-anchor="middle" x="874" y="-80" font-family="Helvetica,sans-Serif" font-size="10.00">device_qualifier.hpp</text>
</a>
</g>
</g>
<!-- Node20&#45;&gt;Node21 -->
<g id="edge24" class="edge">
<title>Node20&#45;&gt;Node21</title>
<path fill="none" stroke="midnightblue" d="M859.29,-139.73C861.82,-130.09 865.94,-114.3 869.19,-101.91"/>
<polygon fill="midnightblue" stroke="midnightblue" points="872.6,-102.69 871.74,-92.13 865.83,-100.92 872.6,-102.69"/>
</g>
<!-- Node22 -->
<g id="node22" class="node">
<title>Node22</title>
<g id="a_node22"><a xlink:href="get_8hpp.html" target="_top" xlink:title=" ">
<polygon fill="none" stroke="black" points="1471.5,-73 1471.5,-92 1524.5,-92 1524.5,-73 1471.5,-73"/>
<text text-anchor="middle" x="1498" y="-80" font-family="Helvetica,sans-Serif" font-size="10.00">get.hpp</text>
</a>
</g>
</g>
<!-- Node20&#45;&gt;Node22 -->
<g id="edge26" class="edge">
<title>Node20&#45;&gt;Node22</title>
<path fill="none" stroke="midnightblue" d="M884.04,-139.93C892.01,-137.69 900.79,-135.48 909,-134 1115.65,-96.67 1368.24,-86.75 1461.31,-84.27"/>
<polygon fill="midnightblue" stroke="midnightblue" points="1461.44,-87.77 1471.35,-84.02 1461.27,-80.77 1461.44,-87.77"/>
</g>
<!-- Node24 -->
<g id="node24" class="node">
<title>Node24</title>
<g id="a_node24"><a xlink:href="array_8hpp.html" target="_top" xlink:title=" ">
<polygon fill="none" stroke="black" points="988.5,-73 988.5,-92 1113.5,-92 1113.5,-73 988.5,-73"/>
<text text-anchor="middle" x="1051" y="-80" font-family="Helvetica,sans-Serif" font-size="10.00">serialization/array.hpp</text>
</a>
</g>
</g>
<!-- Node20&#45;&gt;Node24 -->
<g id="edge29" class="edge">
<title>Node20&#45;&gt;Node24</title>
<path fill="none" stroke="midnightblue" d="M882.76,-139.87C916.92,-128.42 977.34,-108.18 1015.71,-95.32"/>
<polygon fill="midnightblue" stroke="midnightblue" points="1017.07,-98.56 1025.44,-92.06 1014.85,-91.92 1017.07,-98.56"/>
</g>
<!-- Node33 -->
<g id="node33" class="node">
<title>Node33</title>
<g id="a_node33"><a xlink:title=" ">
<polygon fill="none" stroke="#bfbfbf" points="1131.5,-73 1131.5,-92 1188.5,-92 1188.5,-73 1131.5,-73"/>
<text text-anchor="middle" x="1160" y="-80" font-family="Helvetica,sans-Serif" font-size="10.00">ostream</text>
</a>
</g>
</g>
<!-- Node20&#45;&gt;Node33 -->
<g id="edge43" class="edge">
<title>Node20&#45;&gt;Node33</title>
<path fill="none" stroke="midnightblue" d="M885.47,-139.98C893.08,-137.86 901.32,-135.71 909,-134 1003.14,-113.02 1030.05,-123.73 1123,-98 1125.59,-97.28 1128.25,-96.45 1130.9,-95.55"/>
<polygon fill="midnightblue" stroke="midnightblue" points="1132.11,-98.83 1140.29,-92.1 1129.69,-92.26 1132.11,-98.83"/>
</g>
<!-- Node21&#45;&gt;Node6 -->
<g id="edge25" class="edge">
<title>Node21&#45;&gt;Node6</title>
<path fill="none" stroke="midnightblue" d="M838.34,-72.93C828.25,-70.74 817.24,-68.56 807,-67 630.11,-40.02 579.76,-73.73 406,-31 403.49,-30.38 400.92,-29.61 398.37,-28.75"/>
<polygon fill="midnightblue" stroke="midnightblue" points="399.4,-25.4 388.81,-25.1 396.91,-31.94 399.4,-25.4"/>
</g>
<!-- Node22&#45;&gt;Node13 -->
<g id="edge27" class="edge">
<title>Node22&#45;&gt;Node13</title>
<path fill="none" stroke="midnightblue" d="M1510.54,-72.73C1525.88,-62.01 1552.06,-43.72 1570.38,-30.91"/>
<polygon fill="midnightblue" stroke="midnightblue" points="1572.46,-33.72 1578.66,-25.13 1568.45,-27.99 1572.46,-33.72"/>
</g>
<!-- Node23 -->
<g id="node23" class="node">
<title>Node23</title>
<g id="a_node23"><a xlink:title=" ">
<polygon fill="none" stroke="#bfbfbf" points="1505.5,-6 1505.5,-25 1546.5,-25 1546.5,-6 1505.5,-6"/>
<text text-anchor="middle" x="1526" y="-13" font-family="Helvetica,sans-Serif" font-size="10.00">tuple</text>
</a>
</g>
</g>
<!-- Node22&#45;&gt;Node23 -->
<g id="edge28" class="edge">
<title>Node22&#45;&gt;Node23</title>
<path fill="none" stroke="midnightblue" d="M1501.78,-72.73C1505.97,-62.99 1512.87,-46.98 1518.23,-34.53"/>
<polygon fill="midnightblue" stroke="midnightblue" points="1521.54,-35.7 1522.28,-25.13 1515.11,-32.93 1521.54,-35.7"/>
</g>
<!-- Node24&#45;&gt;Node13 -->
<g id="edge38" class="edge">
<title>Node24&#45;&gt;Node13</title>
<path fill="none" stroke="midnightblue" d="M1088.97,-73C1099.91,-70.78 1111.89,-68.58 1123,-67 1314.2,-39.89 1368.33,-76.5 1556,-31 1558.52,-30.39 1561.09,-29.62 1563.64,-28.77"/>
<polygon fill="midnightblue" stroke="midnightblue" points="1565.09,-31.96 1573.19,-25.12 1562.6,-25.41 1565.09,-31.96"/>
</g>
<!-- Node25 -->
<g id="node25" class="node">
<title>Node25</title>
<g id="a_node25"><a xlink:title=" ">
<polygon fill="none" stroke="#bfbfbf" points="415,-6 415,-25 549,-25 549,-6 415,-6"/>
<text text-anchor="middle" x="482" y="-13" font-family="Helvetica,sans-Serif" font-size="10.00">boost/mpl/bool_fwd.hpp</text>
</a>
</g>
</g>
<!-- Node24&#45;&gt;Node25 -->
<g id="edge30" class="edge">
<title>Node24&#45;&gt;Node25</title>
<path fill="none" stroke="midnightblue" d="M1009.96,-72.99C998.37,-70.8 985.72,-68.61 974,-67 790.58,-41.84 742.42,-56.16 559,-31 550.57,-29.84 541.67,-28.39 533.02,-26.85"/>
<polygon fill="midnightblue" stroke="midnightblue" points="533.5,-23.38 523.04,-25.01 532.24,-30.26 533.5,-23.38"/>
</g>
<!-- Node26 -->
<g id="node26" class="node">
<title>Node26</title>
<g id="a_node26"><a xlink:title=" ">
<polygon fill="none" stroke="#bfbfbf" points="567.5,-6 567.5,-25 692.5,-25 692.5,-6 567.5,-6"/>
<text text-anchor="middle" x="630" y="-13" font-family="Helvetica,sans-Serif" font-size="10.00">boost/mpl/greater.hpp</text>
</a>
</g>
</g>
<!-- Node24&#45;&gt;Node26 -->
<g id="edge31" class="edge">
<title>Node24&#45;&gt;Node26</title>
<path fill="none" stroke="midnightblue" d="M1007.9,-72.96C996.87,-70.89 985.01,-68.76 974,-67 853.59,-47.71 822.28,-51.05 702,-31 694.82,-29.8 687.27,-28.42 679.86,-26.99"/>
<polygon fill="midnightblue" stroke="midnightblue" points="680.39,-23.53 669.9,-25.03 679.04,-30.4 680.39,-23.53"/>
</g>
<!-- Node27 -->
<g id="node27" class="node">
<title>Node27</title>
<g id="a_node27"><a xlink:title=" ">
<polygon fill="none" stroke="#bfbfbf" points="711,-6 711,-25 813,-25 813,-6 711,-6"/>
<text text-anchor="middle" x="762" y="-13" font-family="Helvetica,sans-Serif" font-size="10.00">boost/mpl/int.hpp</text>
</a>
</g>
</g>
<!-- Node24&#45;&gt;Node27 -->
<g id="edge32" class="edge">
<title>Node24&#45;&gt;Node27</title>
<path fill="none" stroke="midnightblue" d="M1011.23,-72.98C965.51,-63.13 888.24,-46.31 822,-31 817.04,-29.85 811.85,-28.63 806.69,-27.4"/>
<polygon fill="midnightblue" stroke="midnightblue" points="807.41,-23.98 796.87,-25.05 805.78,-30.79 807.41,-23.98"/>
</g>
<!-- Node28 -->
<g id="node28" class="node">
<title>Node28</title>
<g id="a_node28"><a xlink:title=" ">
<polygon fill="none" stroke="#bfbfbf" points="831,-0.5 831,-30.5 937,-30.5 937,-0.5 831,-0.5"/>
<text text-anchor="start" x="839" y="-18.5" font-family="Helvetica,sans-Serif" font-size="10.00">boost/mpl/integral</text>
<text text-anchor="middle" x="884" y="-7.5" font-family="Helvetica,sans-Serif" font-size="10.00">_c_tag.hpp</text>
</a>
</g>
</g>
<!-- Node24&#45;&gt;Node28 -->
<g id="edge33" class="edge">
<title>Node24&#45;&gt;Node28</title>
<path fill="none" stroke="midnightblue" d="M1028.82,-72.87C1003.66,-63.07 961.92,-46.83 929.71,-34.29"/>
<polygon fill="midnightblue" stroke="midnightblue" points="930.63,-30.89 920.04,-30.53 928.09,-37.42 930.63,-30.89"/>
</g>
<!-- Node29 -->
<g id="node29" class="node">
<title>Node29</title>
<g id="a_node29"><a xlink:title=" ">
<polygon fill="none" stroke="#bfbfbf" points="955.5,-0.5 955.5,-30.5 1106.5,-30.5 1106.5,-0.5 955.5,-0.5"/>
<text text-anchor="start" x="963.5" y="-18.5" font-family="Helvetica,sans-Serif" font-size="10.00">boost/serialization</text>
<text text-anchor="middle" x="1031" y="-7.5" font-family="Helvetica,sans-Serif" font-size="10.00">/is_bitwise_serializable.hpp</text>
</a>
</g>
</g>
<!-- Node24&#45;&gt;Node29 -->
<g id="edge34" class="edge">
<title>Node24&#45;&gt;Node29</title>
<path fill="none" stroke="midnightblue" d="M1048.3,-72.73C1045.76,-64.46 1041.82,-51.66 1038.34,-40.37"/>
<polygon fill="midnightblue" stroke="midnightblue" points="1041.62,-39.12 1035.34,-30.59 1034.93,-41.18 1041.62,-39.12"/>
</g>
<!-- Node30 -->
<g id="node30" class="node">
<title>Node30</title>
<g id="a_node30"><a xlink:title=" ">
<polygon fill="none" stroke="#bfbfbf" points="1124.5,-0.5 1124.5,-30.5 1231.5,-30.5 1231.5,-0.5 1124.5,-0.5"/>
<text text-anchor="start" x="1132.5" y="-18.5" font-family="Helvetica,sans-Serif" font-size="10.00">boost/serialization</text>
<text text-anchor="middle" x="1178" y="-7.5" font-family="Helvetica,sans-Serif" font-size="10.00">/level.hpp</text>
</a>
</g>
</g>
<!-- Node24&#45;&gt;Node30 -->
<g id="edge35" class="edge">
<title>Node24&#45;&gt;Node30</title>
<path fill="none" stroke="midnightblue" d="M1067.86,-72.87C1086.53,-63.31 1117.18,-47.63 1141.41,-35.22"/>
<polygon fill="midnightblue" stroke="midnightblue" points="1143.04,-38.32 1150.35,-30.65 1139.85,-32.09 1143.04,-38.32"/>
</g>
<!-- Node31 -->
<g id="node31" class="node">
<title>Node31</title>
<g id="a_node31"><a xlink:title=" ">
<polygon fill="none" stroke="#bfbfbf" points="1249.5,-0.5 1249.5,-30.5 1356.5,-30.5 1356.5,-0.5 1249.5,-0.5"/>
<text text-anchor="start" x="1257.5" y="-18.5" font-family="Helvetica,sans-Serif" font-size="10.00">boost/serialization</text>
<text text-anchor="middle" x="1303" y="-7.5" font-family="Helvetica,sans-Serif" font-size="10.00">/tracking.hpp</text>
</a>
</g>
</g>
<!-- Node24&#45;&gt;Node31 -->
<g id="edge36" class="edge">
<title>Node24&#45;&gt;Node31</title>
<path fill="none" stroke="midnightblue" d="M1084.2,-72.94C1123.59,-62.78 1190.12,-45.62 1239.5,-32.88"/>
<polygon fill="midnightblue" stroke="midnightblue" points="1240.64,-36.2 1249.45,-30.31 1238.89,-29.42 1240.64,-36.2"/>
</g>
<!-- Node32 -->
<g id="node32" class="node">
<title>Node32</title>
<g id="a_node32"><a xlink:title=" ">
<polygon fill="none" stroke="#bfbfbf" points="1374.5,-0.5 1374.5,-30.5 1487.5,-30.5 1487.5,-0.5 1374.5,-0.5"/>
<text text-anchor="start" x="1382.5" y="-18.5" font-family="Helvetica,sans-Serif" font-size="10.00">boost/serialization</text>
<text text-anchor="middle" x="1431" y="-7.5" font-family="Helvetica,sans-Serif" font-size="10.00">/tracking_enum.hpp</text>
</a>
</g>
</g>
<!-- Node24&#45;&gt;Node32 -->
<g id="edge37" class="edge">
<title>Node24&#45;&gt;Node32</title>
<path fill="none" stroke="midnightblue" d="M1091.67,-72.93C1101.88,-70.88 1112.83,-68.78 1123,-67 1227.4,-48.77 1256.94,-50.76 1364.38,-31.22"/>
<polygon fill="midnightblue" stroke="midnightblue" points="1365.13,-34.65 1374.33,-29.4 1363.86,-27.76 1365.13,-34.65"/>
</g>
</g>
</svg>
        <g id="navigator" transform="translate(0 0)" fill="#404254">
                <rect fill="#f2f5e9" fill-opacity="0.5" stroke="#606060" stroke-width=".5" x="0" y="0" width="60" height="60"/>
                <use id="zoomplus" xlink:href="#zoomPlus" x="17" y="9" onmousedown="handleZoom(evt,'in')"/>
                <use id="zoomminus" xlink:href="#zoomMin" x="42" y="9" onmousedown="handleZoom(evt,'out')"/>
                <use id="reset" xlink:href="#resetDef" x="30" y="36" onmousedown="handleReset()"/>
                <g id="arrowUp" xlink:href="#dirArrow" transform="translate(30 24)" onmousedown="handlePan(0,-1)">
                  <use xlink:href="#rim" fill="#404040">
                        <set attributeName="fill" to="#808080" begin="arrowUp.mouseover" end="arrowUp.mouseout"/>
                  </use>
                  <path fill="none" stroke="white" stroke-width="1.5" d="M0,-3.0v7 M-2.5,-0.5L0,-3.0L2.5,-0.5"/>
                </g>
                <g id="arrowRight" xlink:href="#dirArrow" transform="rotate(90) translate(36 -43)" onmousedown="handlePan(1,0)">
                  <use xlink:href="#rim" fill="#404040">
                        <set attributeName="fill" to="#808080" begin="arrowRight.mouseover" end="arrowRight.mouseout"/>
                  </use>
                  <path fill="none" stroke="white" stroke-width="1.5" d="M0,-3.0v7 M-2.5,-0.5L0,-3.0L2.5,-0.5"/>
                </g>
                <g id="arrowDown" xlink:href="#dirArrow" transform="rotate(180) translate(-30 -48)" onmousedown="handlePan(0,1)">
                  <use xlink:href="#rim" fill="#404040">
                        <set attributeName="fill" to="#808080" begin="arrowDown.mouseover" end="arrowDown.mouseout"/>
                  </use>
                  <path fill="none" stroke="white" stroke-width="1.5" d="M0,-3.0v7 M-2.5,-0.5L0,-3.0L2.5,-0.5"/>
                </g>
                <g id="arrowLeft" xlink:href="#dirArrow" transform="rotate(270) translate(-36 17)" onmousedown="handlePan(-1,0)">
                  <use xlink:href="#rim" fill="#404040">
                        <set attributeName="fill" to="#808080" begin="arrowLeft.mouseover" end="arrowLeft.mouseout"/>
                  </use>
                  <path fill="none" stroke="white" stroke-width="1.5" d="M0,-3.0v7 M-2.5,-0.5L0,-3.0L2.5,-0.5"/>
                </g>
        </g>
        <svg viewBox="0 0 15 15" width="100%" height="30px" preserveAspectRatio="xMaxYMin meet">
         <g id="arrow_out" transform="scale(0.3 0.3)">
          <a xlink:href="nonbonded__tab_8hpp__incl_org.svg" target="_base">
           <rect id="button" ry="5" rx="5" y="6" x="6" height="38" width="38"
                fill="#f2f5e9" fill-opacity="0.5" stroke="#606060" stroke-width="1.0"/>
           <path id="arrow"
             d="M 11.500037,31.436501 C 11.940474,20.09759 22.043105,11.32322 32.158766,21.979434 L 37.068811,17.246167 C 37.068811,17.246167 37.088388,32 37.088388,32 L 22.160133,31.978069 C 22.160133,31.978069 26.997745,27.140456 26.997745,27.140456 C 18.528582,18.264221 13.291696,25.230495 11.500037,31.436501 z"
             style="fill:#404040;"/>
          </a>
         </g>
        </svg>
</svg>
