<?xml version="1.0" encoding="UTF-8" standalone="no"?>
<!DOCTYPE svg PUBLIC "-//W3C//DTD SVG 1.1//EN"
 "http://www.w3.org/Graphics/SVG/1.1/DTD/svg11.dtd">
<!-- Generated by graphviz version 2.43.0 (0)
 -->
<!-- Title: nonbonded_interaction_data.hpp Pages: 1 -->
<svg width="1958pt" height="346pt"
 viewBox="0.00 0.00 1958.00 346.00" xmlns="http://www.w3.org/2000/svg" xmlns:xlink="http://www.w3.org/1999/xlink">
<g id="graph0" class="graph" transform="scale(1 1) rotate(0) translate(4 342)">
<title>nonbonded_interaction_data.hpp</title>
<!-- Node1 -->
<g id="Node000001" class="node">
<title>Node1</title>
<g id="a_Node000001"><a xlink:title="Various procedures concerning interactions between particles.">
<polygon fill="#999999" stroke="#666666" points="919,-338 791,-338 791,-308 919,-308 919,-338"/>
<text text-anchor="start" x="799" y="-326" font-family="Helvetica,sans-Serif" font-size="10.00">nonbonded_interaction</text>
<text text-anchor="middle" x="855" y="-315" font-family="Helvetica,sans-Serif" font-size="10.00">_data.hpp</text>
</a>
</g>
</g>
<!-- Node2 -->
<g id="Node000002" class="node">
<title>Node2</title>
<g id="a_Node000002"><a xlink:href="TabulatedPotential_8hpp.html" target="_top" xlink:title=" ">
<polygon fill="white" stroke="#666666" points="269,-217 141,-217 141,-198 269,-198 269,-217"/>
<text text-anchor="middle" x="205" y="-205" font-family="Helvetica,sans-Serif" font-size="10.00">TabulatedPotential.hpp</text>
</a>
</g>
</g>
<!-- Node1&#45;&gt;Node2 -->
<g id="edge1_Node000001_Node000002" class="edge">
<title>Node1&#45;&gt;Node2</title>
<g id="a_edge1_Node000001_Node000002"><a xlink:title=" ">
<path fill="none" stroke="#63b8ff" d="M790.57,-320.6C662.78,-317.11 381.79,-305.75 292,-272 264.28,-261.58 237.55,-239.75 221.21,-224.61"/>
<polygon fill="#63b8ff" stroke="#63b8ff" points="223.31,-221.77 213.65,-217.4 218.47,-226.84 223.31,-221.77"/>
</a>
</g>
</g>
<!-- Node4 -->
<g id="Node000004" class="node">
<title>Node4</title>
<g id="a_Node000004"><a xlink:title=" ">
<polygon fill="#e0e0e0" stroke="#999999" points="260,-24.5 208,-24.5 208,-5.5 260,-5.5 260,-24.5"/>
<text text-anchor="middle" x="234" y="-12.5" font-family="Helvetica,sans-Serif" font-size="10.00">cassert</text>
</a>
</g>
</g>
<!-- Node1&#45;&gt;Node4 -->
<g id="edge60_Node000001_Node000004" class="edge">
<title>Node1&#45;&gt;Node4</title>
<g id="a_edge60_Node000001_Node000004"><a xlink:title=" ">
<path fill="none" stroke="#63b8ff" d="M790.74,-320.22C591.9,-313.86 0,-288.24 0,-208.5 0,-208.5 0,-208.5 0,-146 0,-56.67 131.92,-28.2 197.66,-19.55"/>
<polygon fill="#63b8ff" stroke="#63b8ff" points="198.11,-23.02 207.61,-18.33 197.26,-16.08 198.11,-23.02"/>
</a>
</g>
</g>
<!-- Node8 -->
<g id="Node000008" class="node">
<title>Node8</title>
<g id="a_Node000008"><a xlink:title=" ">
<polygon fill="#e0e0e0" stroke="#999999" points="294,-156.5 230,-156.5 230,-137.5 294,-137.5 294,-156.5"/>
<text text-anchor="middle" x="262" y="-144.5" font-family="Helvetica,sans-Serif" font-size="10.00">algorithm</text>
</a>
</g>
</g>
<!-- Node1&#45;&gt;Node8 -->
<g id="edge59_Node000001_Node000008" class="edge">
<title>Node1&#45;&gt;Node8</title>
<g id="a_edge59_Node000001_Node000008"><a xlink:title=" ">
<path fill="none" stroke="#63b8ff" d="M790.91,-321.32C710.4,-318.83 568.87,-308.97 454,-272 381.88,-248.79 310.53,-191.22 278.93,-163.46"/>
<polygon fill="#63b8ff" stroke="#63b8ff" points="281.23,-160.82 271.43,-156.78 276.57,-166.04 281.23,-160.82"/>
</a>
</g>
</g>
<!-- Node9 -->
<g id="Node000009" class="node">
<title>Node9</title>
<g id="a_Node000009"><a xlink:title=" ">
<polygon fill="#e0e0e0" stroke="#999999" points="359.5,-156.5 312.5,-156.5 312.5,-137.5 359.5,-137.5 359.5,-156.5"/>
<text text-anchor="middle" x="336" y="-144.5" font-family="Helvetica,sans-Serif" font-size="10.00">vector</text>
</a>
</g>
</g>
<!-- Node1&#45;&gt;Node9 -->
<g id="edge63_Node000001_Node000009" class="edge">
<title>Node1&#45;&gt;Node9</title>
<g id="a_edge63_Node000001_Node000009"><a xlink:title=" ">
<path fill="none" stroke="#63b8ff" d="M790.82,-314.63C675.59,-300.33 439.5,-265.89 374,-217 357.26,-204.51 346.97,-182.36 341.39,-166.52"/>
<polygon fill="#63b8ff" stroke="#63b8ff" points="344.65,-165.22 338.26,-156.76 337.98,-167.36 344.65,-165.22"/>
</a>
</g>
</g>
<!-- Node10 -->
<g id="Node000010" class="node">
<title>Node10</title>
<g id="a_Node000010"><a xlink:href="config_8hpp.html" target="_top" xlink:title="This file contains the defaults for ESPResSo.">
<polygon fill="white" stroke="#666666" points="1758.5,-272 1659.5,-272 1659.5,-253 1758.5,-253 1758.5,-272"/>
<text text-anchor="middle" x="1709" y="-260" font-family="Helvetica,sans-Serif" font-size="10.00">config/config.hpp</text>
</a>
</g>
</g>
<!-- Node1&#45;&gt;Node10 -->
<g id="edge9_Node000001_Node000010" class="edge">
<title>Node1&#45;&gt;Node10</title>
<g id="a_edge9_Node000001_Node000010"><a xlink:title=" ">
<path fill="none" stroke="#63b8ff" d="M919.12,-319.44C1053.8,-313.73 1375.9,-298.35 1645,-272 1646.46,-271.86 1647.95,-271.71 1649.44,-271.55"/>
<polygon fill="#63b8ff" stroke="#63b8ff" points="1649.88,-275.02 1659.42,-270.43 1649.1,-268.06 1649.88,-275.02"/>
</a>
</g>
</g>
<!-- Node12 -->
<g id="Node000012" class="node">
<title>Node12</title>
<g id="a_Node000012"><a xlink:title=" ">
<polygon fill="#e0e0e0" stroke="#999999" points="1873.5,-272 1776.5,-272 1776.5,-253 1873.5,-253 1873.5,-272"/>
<text text-anchor="middle" x="1825" y="-260" font-family="Helvetica,sans-Serif" font-size="10.00">system/Leaf.hpp</text>
</a>
</g>
</g>
<!-- Node1&#45;&gt;Node12 -->
<g id="edge11_Node000001_Node000012" class="edge">
<title>Node1&#45;&gt;Node12</title>
<g id="a_edge11_Node000001_Node000012"><a xlink:title=" ">
<path fill="none" stroke="#63b8ff" d="M919.08,-320.55C1066.76,-316.75 1442.55,-304.56 1766.18,-272.1"/>
<polygon fill="#63b8ff" stroke="#63b8ff" points="1766.62,-275.57 1776.22,-271.08 1765.92,-268.6 1766.62,-275.57"/>
</a>
</g>
</g>
<!-- Node13 -->
<g id="Node000013" class="node">
<title>Node13</title>
<g id="a_Node000013"><a xlink:href="index_8hpp.html" target="_top" xlink:title=" ">
<polygon fill="white" stroke="#666666" points="1025.5,-272 936.5,-272 936.5,-253 1025.5,-253 1025.5,-272"/>
<text text-anchor="middle" x="981" y="-260" font-family="Helvetica,sans-Serif" font-size="10.00">utils/index.hpp</text>
</a>
</g>
</g>
<!-- Node1&#45;&gt;Node13 -->
<g id="edge12_Node000001_Node000013" class="edge">
<title>Node1&#45;&gt;Node13</title>
<g id="a_edge12_Node000001_Node000013"><a xlink:title=" ">
<path fill="none" stroke="#63b8ff" d="M885.18,-307.99C905.83,-298.4 933,-285.79 953.13,-276.44"/>
<polygon fill="#63b8ff" stroke="#63b8ff" points="954.8,-279.52 962.39,-272.14 951.85,-273.18 954.8,-279.52"/>
</a>
</g>
</g>
<!-- Node34 -->
<g id="Node000034" class="node">
<title>Node34</title>
<g id="a_Node000034"><a xlink:title=" ">
<polygon fill="#e0e0e0" stroke="#999999" points="1526.5,-156.5 1479.5,-156.5 1479.5,-137.5 1526.5,-137.5 1526.5,-156.5"/>
<text text-anchor="middle" x="1503" y="-144.5" font-family="Helvetica,sans-Serif" font-size="10.00">cmath</text>
</a>
</g>
</g>
<!-- Node1&#45;&gt;Node34 -->
<g id="edge61_Node000001_Node000034" class="edge">
<title>Node1&#45;&gt;Node34</title>
<g id="a_edge61_Node000001_Node000034"><a xlink:title=" ">
<path fill="none" stroke="#63b8ff" d="M919.21,-308.56C1032.1,-284.21 1272.85,-229.06 1470,-162 1471.44,-161.51 1472.9,-160.99 1474.37,-160.44"/>
<polygon fill="#63b8ff" stroke="#63b8ff" points="1475.99,-163.57 1483.99,-156.63 1473.4,-157.06 1475.99,-163.57"/>
</a>
</g>
</g>
<!-- Node39 -->
<g id="Node000039" class="node">
<title>Node39</title>
<g id="a_Node000039"><a xlink:href="int__pow_8hpp.html" target="_top" xlink:title=" ">
<polygon fill="white" stroke="#666666" points="544,-217 416,-217 416,-198 544,-198 544,-217"/>
<text text-anchor="middle" x="480" y="-205" font-family="Helvetica,sans-Serif" font-size="10.00">utils/math/int_pow.hpp</text>
</a>
</g>
</g>
<!-- Node1&#45;&gt;Node39 -->
<g id="edge56_Node000001_Node000039" class="edge">
<title>Node1&#45;&gt;Node39</title>
<g id="a_edge56_Node000001_Node000039"><a xlink:title=" ">
<path fill="none" stroke="#63b8ff" d="M808.64,-307.97C733.74,-285.3 587.53,-241.05 518.21,-220.07"/>
<polygon fill="#63b8ff" stroke="#63b8ff" points="519.15,-216.69 508.56,-217.14 517.12,-223.39 519.15,-216.69"/>
</a>
</g>
</g>
<!-- Node40 -->
<g id="Node000040" class="node">
<title>Node40</title>
<g id="a_Node000040"><a xlink:title=" ">
<polygon fill="#e0e0e0" stroke="#999999" points="1950,-272 1892,-272 1892,-253 1950,-253 1950,-272"/>
<text text-anchor="middle" x="1921" y="-260" font-family="Helvetica,sans-Serif" font-size="10.00">memory</text>
</a>
</g>
</g>
<!-- Node1&#45;&gt;Node40 -->
<g id="edge62_Node000001_Node000040" class="edge">
<title>Node1&#45;&gt;Node40</title>
<g id="a_edge62_Node000001_Node000040"><a xlink:title=" ">
<path fill="none" stroke="#63b8ff" d="M919.11,-322.69C1079.85,-323.59 1512.97,-320.99 1881.57,-271.94"/>
<polygon fill="#63b8ff" stroke="#63b8ff" points="1882.19,-275.39 1891.63,-270.59 1881.25,-268.45 1882.19,-275.39"/>
</a>
</g>
</g>
<!-- Node3 -->
<g id="Node000003" class="node">
<title>Node3</title>
<g id="a_Node000003"><a xlink:href="linear__interpolation_8hpp.html" target="_top" xlink:title=" ">
<polygon fill="white" stroke="#666666" points="436.5,-90.5 279.5,-90.5 279.5,-71.5 436.5,-71.5 436.5,-90.5"/>
<text text-anchor="middle" x="358" y="-78.5" font-family="Helvetica,sans-Serif" font-size="10.00">utils/linear_interpolation.hpp</text>
</a>
</g>
</g>
<!-- Node2&#45;&gt;Node3 -->
<g id="edge2_Node000002_Node000003" class="edge">
<title>Node2&#45;&gt;Node3</title>
<g id="a_edge2_Node000002_Node000003"><a xlink:title=" ">
<path fill="none" stroke="#63b8ff" d="M198.88,-197.75C189.23,-182.79 173.06,-151.97 188,-132 201.12,-114.46 252.25,-100.96 295.04,-92.44"/>
<polygon fill="#63b8ff" stroke="#63b8ff" points="295.71,-95.87 304.87,-90.54 294.38,-89 295.71,-95.87"/>
</a>
</g>
</g>
<!-- Node6 -->
<g id="Node000006" class="node">
<title>Node6</title>
<g id="a_Node000006"><a xlink:title=" ">
<polygon fill="#e0e0e0" stroke="#999999" points="561.5,-96 454.5,-96 454.5,-66 561.5,-66 561.5,-96"/>
<text text-anchor="start" x="462.5" y="-84" font-family="Helvetica,sans-Serif" font-size="10.00">boost/serialization</text>
<text text-anchor="middle" x="508" y="-73" font-family="Helvetica,sans-Serif" font-size="10.00">/access.hpp</text>
</a>
</g>
</g>
<!-- Node2&#45;&gt;Node6 -->
<g id="edge5_Node000002_Node000006" class="edge">
<title>Node2&#45;&gt;Node6</title>
<g id="a_edge5_Node000002_Node000006"><a xlink:title=" ">
<path fill="none" stroke="#63b8ff" d="M204.03,-197.89C202.79,-182.3 202.67,-149.39 221,-132 255.64,-99.12 381.22,-104.73 444.47,-95.77"/>
<polygon fill="#63b8ff" stroke="#63b8ff" points="445.13,-99.21 454.43,-94.13 443.99,-92.3 445.13,-99.21"/>
</a>
</g>
</g>
<!-- Node7 -->
<g id="Node000007" class="node">
<title>Node7</title>
<g id="a_Node000007"><a xlink:title=" ">
<polygon fill="#e0e0e0" stroke="#999999" points="135.5,-162 28.5,-162 28.5,-132 135.5,-132 135.5,-162"/>
<text text-anchor="start" x="36.5" y="-150" font-family="Helvetica,sans-Serif" font-size="10.00">boost/serialization</text>
<text text-anchor="middle" x="82" y="-139" font-family="Helvetica,sans-Serif" font-size="10.00">/vector.hpp</text>
</a>
</g>
</g>
<!-- Node2&#45;&gt;Node7 -->
<g id="edge6_Node000002_Node000007" class="edge">
<title>Node2&#45;&gt;Node7</title>
<g id="a_edge6_Node000002_Node000007"><a xlink:title=" ">
<path fill="none" stroke="#63b8ff" d="M187.11,-197.99C169.86,-189.79 143.16,-177.09 120.99,-166.55"/>
<polygon fill="#63b8ff" stroke="#63b8ff" points="122.34,-163.31 111.81,-162.18 119.34,-169.63 122.34,-163.31"/>
</a>
</g>
</g>
<!-- Node2&#45;&gt;Node8 -->
<g id="edge7_Node000002_Node000008" class="edge">
<title>Node2&#45;&gt;Node8</title>
<g id="a_edge7_Node000002_Node000008"><a xlink:title=" ">
<path fill="none" stroke="#63b8ff" d="M213.41,-197.87C222.08,-188.97 235.8,-174.89 246.46,-163.95"/>
<polygon fill="#63b8ff" stroke="#63b8ff" points="249.08,-166.27 253.55,-156.67 244.07,-161.39 249.08,-166.27"/>
</a>
</g>
</g>
<!-- Node2&#45;&gt;Node9 -->
<g id="edge8_Node000002_Node000009" class="edge">
<title>Node2&#45;&gt;Node9</title>
<g id="a_edge8_Node000002_Node000009"><a xlink:title=" ">
<path fill="none" stroke="#63b8ff" d="M224.05,-197.99C245.97,-188.2 282.21,-172.02 307.5,-160.73"/>
<polygon fill="#63b8ff" stroke="#63b8ff" points="309.22,-163.79 316.93,-156.52 306.37,-157.4 309.22,-163.79"/>
</a>
</g>
</g>
<!-- Node3&#45;&gt;Node4 -->
<g id="edge3_Node000003_Node000004" class="edge">
<title>Node3&#45;&gt;Node4</title>
<g id="a_edge3_Node000003_Node000004"><a xlink:title=" ">
<path fill="none" stroke="#63b8ff" d="M341.28,-71.37C320.38,-60.59 284.41,-42.02 259.93,-29.38"/>
<polygon fill="#63b8ff" stroke="#63b8ff" points="261.35,-26.18 250.85,-24.7 258.14,-32.4 261.35,-26.18"/>
</a>
</g>
</g>
<!-- Node5 -->
<g id="Node000005" class="node">
<title>Node5</title>
<g id="a_Node000005"><a xlink:title=" ">
<polygon fill="#e0e0e0" stroke="#999999" points="1419.5,-24.5 1366.5,-24.5 1366.5,-5.5 1419.5,-5.5 1419.5,-24.5"/>
<text text-anchor="middle" x="1393" y="-12.5" font-family="Helvetica,sans-Serif" font-size="10.00">cstddef</text>
</a>
</g>
</g>
<!-- Node3&#45;&gt;Node5 -->
<g id="edge4_Node000003_Node000005" class="edge">
<title>Node3&#45;&gt;Node5</title>
<g id="a_edge4_Node000003_Node000005"><a xlink:title=" ">
<path fill="none" stroke="#63b8ff" d="M404.37,-71.48C417.47,-69.36 431.76,-67.32 445,-66 646.82,-45.85 1158.43,-71.32 1357,-30 1359.53,-29.47 1362.11,-28.79 1364.67,-28.01"/>
<polygon fill="#63b8ff" stroke="#63b8ff" points="1366.03,-31.24 1374.3,-24.62 1363.71,-24.64 1366.03,-31.24"/>
</a>
</g>
</g>
<!-- Node11 -->
<g id="Node000011" class="node">
<title>Node11</title>
<g id="a_Node000011"><a xlink:title=" ">
<polygon fill="#e0e0e0" stroke="#999999" points="1802.5,-217 1659.5,-217 1659.5,-198 1802.5,-198 1802.5,-217"/>
<text text-anchor="middle" x="1731" y="-205" font-family="Helvetica,sans-Serif" font-size="10.00">config/config&#45;features.hpp</text>
</a>
</g>
</g>
<!-- Node10&#45;&gt;Node11 -->
<g id="edge10_Node000010_Node000011" class="edge">
<title>Node10&#45;&gt;Node11</title>
<g id="a_edge10_Node000010_Node000011"><a xlink:title=" ">
<path fill="none" stroke="#63b8ff" d="M1712.63,-252.75C1715.58,-245.65 1719.83,-235.4 1723.51,-226.56"/>
<polygon fill="#63b8ff" stroke="#63b8ff" points="1726.83,-227.67 1727.43,-217.09 1720.37,-224.98 1726.83,-227.67"/>
</a>
</g>
</g>
<!-- Node13&#45;&gt;Node4 -->
<g id="edge13_Node000013_Node000004" class="edge">
<title>Node13&#45;&gt;Node4</title>
<g id="a_edge13_Node000013_Node000004"><a xlink:title=" ">
<path fill="none" stroke="#63b8ff" d="M936.23,-260.61C808.72,-257.73 450.04,-247.02 407,-217 372.91,-193.22 398.52,-160.22 368,-132 333.93,-100.5 303.95,-127.63 270,-96 252.28,-79.49 242.69,-52.63 237.96,-34.64"/>
<polygon fill="#63b8ff" stroke="#63b8ff" points="241.33,-33.68 235.61,-24.76 234.52,-35.3 241.33,-33.68"/>
</a>
</g>
</g>
<!-- Node13&#45;&gt;Node5 -->
<g id="edge14_Node000013_Node000005" class="edge">
<title>Node13&#45;&gt;Node5</title>
<g id="a_edge14_Node000013_Node000005"><a xlink:title=" ">
<path fill="none" stroke="#63b8ff" d="M1025.53,-261.92C1150.7,-261.94 1499.99,-253.68 1552,-162 1574.06,-123.12 1554.56,-96.63 1522,-66 1489.42,-35.34 1469.66,-46.31 1428,-30 1426.63,-29.46 1425.23,-28.91 1423.81,-28.35"/>
<polygon fill="#63b8ff" stroke="#63b8ff" points="1425.04,-25.07 1414.45,-24.64 1422.45,-31.58 1425.04,-25.07"/>
</a>
</g>
</g>
<!-- Node14 -->
<g id="Node000014" class="node">
<title>Node14</title>
<g id="a_Node000014"><a xlink:title=" ">
<polygon fill="#e0e0e0" stroke="#999999" points="1513.5,-90.5 1460.5,-90.5 1460.5,-71.5 1513.5,-71.5 1513.5,-90.5"/>
<text text-anchor="middle" x="1487" y="-78.5" font-family="Helvetica,sans-Serif" font-size="10.00">iterator</text>
</a>
</g>
</g>
<!-- Node13&#45;&gt;Node14 -->
<g id="edge15_Node000013_Node000014" class="edge">
<title>Node13&#45;&gt;Node14</title>
<g id="a_edge15_Node000013_Node000014"><a xlink:title=" ">
<path fill="none" stroke="#63b8ff" d="M1025.68,-260.53C1145.6,-256.88 1469.88,-239.86 1535,-162 1552.35,-141.25 1526.64,-113.53 1506.67,-96.76"/>
<polygon fill="#63b8ff" stroke="#63b8ff" points="1508.85,-94.03 1498.86,-90.5 1504.47,-99.49 1508.85,-94.03"/>
</a>
</g>
</g>
<!-- Node15 -->
<g id="Node000015" class="node">
<title>Node15</title>
<g id="a_Node000015"><a xlink:title=" ">
<polygon fill="#e0e0e0" stroke="#999999" points="1461,-156.5 1405,-156.5 1405,-137.5 1461,-137.5 1461,-156.5"/>
<text text-anchor="middle" x="1433" y="-144.5" font-family="Helvetica,sans-Serif" font-size="10.00">numeric</text>
</a>
</g>
</g>
<!-- Node13&#45;&gt;Node15 -->
<g id="edge16_Node000013_Node000015" class="edge">
<title>Node13&#45;&gt;Node15</title>
<g id="a_edge16_Node000013_Node000015"><a xlink:title=" ">
<path fill="none" stroke="#63b8ff" d="M1016.37,-252.94C1086.19,-236 1246.61,-196.8 1381,-162 1385.62,-160.8 1390.47,-159.53 1395.27,-158.25"/>
<polygon fill="#63b8ff" stroke="#63b8ff" points="1396.21,-161.62 1404.96,-155.66 1394.39,-154.86 1396.21,-161.62"/>
</a>
</g>
</g>
<!-- Node16 -->
<g id="Node000016" class="node">
<title>Node16</title>
<g id="a_Node000016"><a xlink:title=" ">
<polygon fill="#e0e0e0" stroke="#999999" points="815.5,-90.5 750.5,-90.5 750.5,-71.5 815.5,-71.5 815.5,-90.5"/>
<text text-anchor="middle" x="783" y="-78.5" font-family="Helvetica,sans-Serif" font-size="10.00">stdexcept</text>
</a>
</g>
</g>
<!-- Node13&#45;&gt;Node16 -->
<g id="edge17_Node000013_Node000016" class="edge">
<title>Node13&#45;&gt;Node16</title>
<g id="a_edge17_Node000013_Node000016"><a xlink:title=" ">
<path fill="none" stroke="#63b8ff" d="M936.43,-255.84C819.68,-240.56 511.93,-197.28 483,-162 428.09,-95.03 442.77,-165.89 741,-96 743.97,-95.3 747.03,-94.49 750.08,-93.6"/>
<polygon fill="#63b8ff" stroke="#63b8ff" points="751.16,-96.93 759.67,-90.62 749.08,-90.25 751.16,-96.93"/>
</a>
</g>
</g>
<!-- Node17 -->
<g id="Node000017" class="node">
<title>Node17</title>
<g id="a_Node000017"><a xlink:href="Vector_8hpp.html" target="_top" xlink:title="Vector implementation and trait types for boost qvm interoperability.">
<polygon fill="white" stroke="#666666" points="1015,-217 947,-217 947,-198 1015,-198 1015,-217"/>
<text text-anchor="middle" x="981" y="-205" font-family="Helvetica,sans-Serif" font-size="10.00">Vector.hpp</text>
</a>
</g>
</g>
<!-- Node13&#45;&gt;Node17 -->
<g id="edge18_Node000013_Node000017" class="edge">
<title>Node13&#45;&gt;Node17</title>
<g id="a_edge18_Node000013_Node000017"><a xlink:title=" ">
<path fill="none" stroke="#63b8ff" d="M981,-252.75C981,-245.8 981,-235.85 981,-227.13"/>
<polygon fill="#63b8ff" stroke="#63b8ff" points="984.5,-227.09 981,-217.09 977.5,-227.09 984.5,-227.09"/>
</a>
</g>
</g>
<!-- Node17&#45;&gt;Node4 -->
<g id="edge46_Node000017_Node000004" class="edge">
<title>Node17&#45;&gt;Node4</title>
<g id="a_edge46_Node000017_Node000004"><a xlink:title=" ">
<path fill="none" stroke="#63b8ff" d="M946.82,-206.72C865.14,-206.58 661.54,-202.11 609,-162 572.39,-134.06 606.61,-93.94 570,-66 516.45,-25.13 334.28,-46.65 269,-30 266.84,-29.45 264.63,-28.79 262.42,-28.08"/>
<polygon fill="#63b8ff" stroke="#63b8ff" points="263.55,-24.76 252.95,-24.63 261.15,-31.34 263.55,-24.76"/>
</a>
</g>
</g>
<!-- Node17&#45;&gt;Node5 -->
<g id="edge48_Node000017_Node000005" class="edge">
<title>Node17&#45;&gt;Node5</title>
<g id="a_edge48_Node000017_Node000005"><a xlink:title=" ">
<path fill="none" stroke="#63b8ff" d="M1015.16,-199.22C1043.05,-192.33 1082.81,-180.29 1114,-162 1131.1,-151.97 1130.52,-143.02 1147,-132 1185.05,-106.57 1306.54,-53.13 1363.28,-28.69"/>
<polygon fill="#63b8ff" stroke="#63b8ff" points="1364.96,-31.78 1372.77,-24.61 1362.2,-25.35 1364.96,-31.78"/>
</a>
</g>
</g>
<!-- Node17&#45;&gt;Node8 -->
<g id="edge45_Node000017_Node000008" class="edge">
<title>Node17&#45;&gt;Node8</title>
<g id="a_edge45_Node000017_Node000008"><a xlink:title=" ">
<path fill="none" stroke="#63b8ff" d="M946.91,-205.45C827.48,-201.58 428.36,-187.06 303,-162 299.93,-161.39 296.77,-160.6 293.63,-159.72"/>
<polygon fill="#63b8ff" stroke="#63b8ff" points="294.43,-156.3 283.84,-156.64 292.33,-162.98 294.43,-156.3"/>
</a>
</g>
</g>
<!-- Node17&#45;&gt;Node9 -->
<g id="edge55_Node000017_Node000009" class="edge">
<title>Node17&#45;&gt;Node9</title>
<g id="a_edge55_Node000017_Node000009"><a xlink:title=" ">
<path fill="none" stroke="#63b8ff" d="M946.88,-203.52C866.21,-196.46 657.38,-178.1 483,-162 444.24,-158.42 399.74,-154.16 369.95,-151.29"/>
<polygon fill="#63b8ff" stroke="#63b8ff" points="369.96,-147.78 359.67,-150.3 369.29,-154.74 369.96,-147.78"/>
</a>
</g>
</g>
<!-- Node17&#45;&gt;Node14 -->
<g id="edge51_Node000017_Node000014" class="edge">
<title>Node17&#45;&gt;Node14</title>
<g id="a_edge51_Node000017_Node000014"><a xlink:title=" ">
<path fill="none" stroke="#63b8ff" d="M1015.26,-200.92C1049.69,-194.49 1103.72,-182.14 1147,-162 1168.13,-152.17 1168.33,-140.56 1190,-132 1294.41,-90.77 1330.36,-120.09 1440,-96 1443.62,-95.2 1447.37,-94.27 1451.1,-93.28"/>
<polygon fill="#63b8ff" stroke="#63b8ff" points="1452.15,-96.62 1460.83,-90.53 1450.25,-89.88 1452.15,-96.62"/>
</a>
</g>
</g>
<!-- Node17&#45;&gt;Node15 -->
<g id="edge52_Node000017_Node000015" class="edge">
<title>Node17&#45;&gt;Node15</title>
<g id="a_edge52_Node000017_Node000015"><a xlink:title=" ">
<path fill="none" stroke="#63b8ff" d="M1015.14,-205.26C1085.97,-202.14 1253.72,-191.97 1391,-162 1394.06,-161.33 1397.2,-160.52 1400.33,-159.64"/>
<polygon fill="#63b8ff" stroke="#63b8ff" points="1401.62,-162.9 1410.14,-156.6 1399.55,-156.21 1401.62,-162.9"/>
</a>
</g>
</g>
<!-- Node18 -->
<g id="Node000018" class="node">
<title>Node18</title>
<g id="a_Node000018"><a xlink:title=" ">
<polygon fill="#e0e0e0" stroke="#999999" points="1349,-156.5 1199,-156.5 1199,-137.5 1349,-137.5 1349,-156.5"/>
<text text-anchor="middle" x="1274" y="-144.5" font-family="Helvetica,sans-Serif" font-size="10.00">boost/qvm/deduce_vec.hpp</text>
</a>
</g>
</g>
<!-- Node17&#45;&gt;Node18 -->
<g id="edge19_Node000017_Node000018" class="edge">
<title>Node17&#45;&gt;Node18</title>
<g id="a_edge19_Node000017_Node000018"><a xlink:title=" ">
<path fill="none" stroke="#63b8ff" d="M1015.18,-199.67C1065.84,-189.56 1161.28,-170.51 1221.04,-158.57"/>
<polygon fill="#63b8ff" stroke="#63b8ff" points="1221.91,-161.97 1231.03,-156.58 1220.54,-155.1 1221.91,-161.97"/>
</a>
</g>
</g>
<!-- Node19 -->
<g id="Node000019" class="node">
<title>Node19</title>
<g id="a_Node000019"><a xlink:title=" ">
<polygon fill="#e0e0e0" stroke="#999999" points="758,-156.5 618,-156.5 618,-137.5 758,-137.5 758,-156.5"/>
<text text-anchor="middle" x="688" y="-144.5" font-family="Helvetica,sans-Serif" font-size="10.00">boost/qvm/vec_traits.hpp</text>
</a>
</g>
</g>
<!-- Node17&#45;&gt;Node19 -->
<g id="edge20_Node000017_Node000019" class="edge">
<title>Node17&#45;&gt;Node19</title>
<g id="a_edge20_Node000017_Node000019"><a xlink:title=" ">
<path fill="none" stroke="#63b8ff" d="M946.82,-199.67C896.16,-189.56 800.72,-170.51 740.96,-158.57"/>
<polygon fill="#63b8ff" stroke="#63b8ff" points="741.46,-155.1 730.97,-156.58 740.09,-161.97 741.46,-155.1"/>
</a>
</g>
</g>
<!-- Node20 -->
<g id="Node000020" class="node">
<title>Node20</title>
<g id="a_Node000020"><a xlink:href="Array_8hpp.html" target="_top" xlink:title="Array implementation with CUDA support.">
<polygon fill="white" stroke="#666666" points="1105,-156.5 1019,-156.5 1019,-137.5 1105,-137.5 1105,-156.5"/>
<text text-anchor="middle" x="1062" y="-144.5" font-family="Helvetica,sans-Serif" font-size="10.00">utils/Array.hpp</text>
</a>
</g>
</g>
<!-- Node17&#45;&gt;Node20 -->
<g id="edge21_Node000017_Node000020" class="edge">
<title>Node17&#45;&gt;Node20</title>
<g id="a_edge21_Node000017_Node000020"><a xlink:title=" ">
<path fill="none" stroke="#63b8ff" d="M992.95,-197.87C1005.75,-188.62 1026.3,-173.78 1041.65,-162.69"/>
<polygon fill="#63b8ff" stroke="#63b8ff" points="1043.94,-165.36 1050,-156.67 1039.84,-159.68 1043.94,-165.36"/>
</a>
</g>
</g>
<!-- Node22 -->
<g id="Node000022" class="node">
<title>Node22</title>
<g id="a_Node000022"><a xlink:href="get_8hpp.html" target="_top" xlink:title=" ">
<polygon fill="white" stroke="#666666" points="1403.5,-90.5 1350.5,-90.5 1350.5,-71.5 1403.5,-71.5 1403.5,-90.5"/>
<text text-anchor="middle" x="1377" y="-78.5" font-family="Helvetica,sans-Serif" font-size="10.00">get.hpp</text>
</a>
</g>
</g>
<!-- Node17&#45;&gt;Node22 -->
<g id="edge44_Node000017_Node000022" class="edge">
<title>Node17&#45;&gt;Node22</title>
<g id="a_edge44_Node000017_Node000022"><a xlink:title=" ">
<path fill="none" stroke="#63b8ff" d="M1015.3,-204.67C1103.43,-199.67 1332.62,-184.6 1358,-162 1375.13,-146.75 1378.24,-119.13 1378.18,-100.68"/>
<polygon fill="#63b8ff" stroke="#63b8ff" points="1381.68,-100.44 1377.84,-90.56 1374.68,-100.68 1381.68,-100.44"/>
</a>
</g>
</g>
<!-- Node17&#45;&gt;Node34 -->
<g id="edge47_Node000017_Node000034" class="edge">
<title>Node17&#45;&gt;Node34</title>
<g id="a_edge47_Node000017_Node000034"><a xlink:title=" ">
<path fill="none" stroke="#63b8ff" d="M1015.1,-206.99C1095.59,-207.39 1303.19,-203.88 1470,-162 1471.95,-161.51 1473.93,-160.92 1475.9,-160.27"/>
<polygon fill="#63b8ff" stroke="#63b8ff" points="1477.44,-163.43 1485.54,-156.6 1474.95,-156.89 1477.44,-163.43"/>
</a>
</g>
</g>
<!-- Node35 -->
<g id="Node000035" class="node">
<title>Node35</title>
<g id="a_Node000035"><a xlink:title=" ">
<polygon fill="#e0e0e0" stroke="#999999" points="841.5,-156.5 776.5,-156.5 776.5,-137.5 841.5,-137.5 841.5,-156.5"/>
<text text-anchor="middle" x="809" y="-144.5" font-family="Helvetica,sans-Serif" font-size="10.00">functional</text>
</a>
</g>
</g>
<!-- Node17&#45;&gt;Node35 -->
<g id="edge49_Node000017_Node000035" class="edge">
<title>Node17&#45;&gt;Node35</title>
<g id="a_edge49_Node000017_Node000035"><a xlink:title=" ">
<path fill="none" stroke="#63b8ff" d="M955.88,-197.98C929.51,-189.03 886.83,-174.54 850,-162 847.92,-161.29 845.78,-160.56 843.61,-159.82"/>
<polygon fill="#63b8ff" stroke="#63b8ff" points="844.74,-156.51 834.15,-156.59 842.48,-163.14 844.74,-156.51"/>
</a>
</g>
</g>
<!-- Node36 -->
<g id="Node000036" class="node">
<title>Node36</title>
<g id="a_Node000036"><a xlink:title=" ">
<polygon fill="#e0e0e0" stroke="#999999" points="942.5,-156.5 859.5,-156.5 859.5,-137.5 942.5,-137.5 942.5,-156.5"/>
<text text-anchor="middle" x="901" y="-144.5" font-family="Helvetica,sans-Serif" font-size="10.00">initializer_list</text>
</a>
</g>
</g>
<!-- Node17&#45;&gt;Node36 -->
<g id="edge50_Node000017_Node000036" class="edge">
<title>Node17&#45;&gt;Node36</title>
<g id="a_edge50_Node000017_Node000036"><a xlink:title=" ">
<path fill="none" stroke="#63b8ff" d="M969.2,-197.87C956.55,-188.62 936.26,-173.78 921.09,-162.69"/>
<polygon fill="#63b8ff" stroke="#63b8ff" points="922.99,-159.74 912.85,-156.67 918.86,-165.4 922.99,-159.74"/>
</a>
</g>
</g>
<!-- Node37 -->
<g id="Node000037" class="node">
<title>Node37</title>
<g id="a_Node000037"><a xlink:title=" ">
<polygon fill="#e0e0e0" stroke="#999999" points="1001,-156.5 961,-156.5 961,-137.5 1001,-137.5 1001,-156.5"/>
<text text-anchor="middle" x="981" y="-144.5" font-family="Helvetica,sans-Serif" font-size="10.00">span</text>
</a>
</g>
</g>
<!-- Node17&#45;&gt;Node37 -->
<g id="edge53_Node000017_Node000037" class="edge">
<title>Node17&#45;&gt;Node37</title>
<g id="a_edge53_Node000017_Node000037"><a xlink:title=" ">
<path fill="none" stroke="#63b8ff" d="M981,-197.87C981,-189.75 981,-177.31 981,-166.89"/>
<polygon fill="#63b8ff" stroke="#63b8ff" points="984.5,-166.67 981,-156.67 977.5,-166.67 984.5,-166.67"/>
</a>
</g>
</g>
<!-- Node38 -->
<g id="Node000038" class="node">
<title>Node38</title>
<g id="a_Node000038"><a xlink:title=" ">
<polygon fill="#e0e0e0" stroke="#999999" points="561.5,-156.5 492.5,-156.5 492.5,-137.5 561.5,-137.5 561.5,-156.5"/>
<text text-anchor="middle" x="527" y="-144.5" font-family="Helvetica,sans-Serif" font-size="10.00">type_traits</text>
</a>
</g>
</g>
<!-- Node17&#45;&gt;Node38 -->
<g id="edge54_Node000017_Node000038" class="edge">
<title>Node17&#45;&gt;Node38</title>
<g id="a_edge54_Node000017_Node000038"><a xlink:title=" ">
<path fill="none" stroke="#63b8ff" d="M946.84,-204.7C876.75,-200.58 711.87,-188.68 576,-162 571.9,-161.19 567.64,-160.21 563.43,-159.14"/>
<polygon fill="#63b8ff" stroke="#63b8ff" points="564.33,-155.76 553.76,-156.53 562.5,-162.51 564.33,-155.76"/>
</a>
</g>
</g>
<!-- Node20&#45;&gt;Node4 -->
<g id="edge38_Node000020_Node000004" class="edge">
<title>Node20&#45;&gt;Node4</title>
<g id="a_edge38_Node000020_Node000004"><a xlink:title=" ">
<path fill="none" stroke="#63b8ff" d="M1030.68,-137.44C1023.87,-135.62 1016.7,-133.72 1010,-132 944.85,-115.26 923.63,-125.13 863,-96 843.29,-86.53 844.46,-73.71 824,-66 592.68,21.13 510.08,-84.58 269,-30 266.63,-29.46 264.21,-28.79 261.81,-28.03"/>
<polygon fill="#63b8ff" stroke="#63b8ff" points="262.77,-24.65 252.18,-24.53 260.39,-31.23 262.77,-24.65"/>
</a>
</g>
</g>
<!-- Node20&#45;&gt;Node5 -->
<g id="edge39_Node000020_Node000005" class="edge">
<title>Node20&#45;&gt;Node5</title>
<g id="a_edge39_Node000020_Node000005"><a xlink:title=" ">
<path fill="none" stroke="#63b8ff" d="M1066.09,-137.24C1074.48,-120.32 1095.39,-83.3 1125,-66 1215.09,-13.36 1256.23,-57.07 1357,-30 1359.16,-29.42 1361.36,-28.75 1363.57,-28.03"/>
<polygon fill="#63b8ff" stroke="#63b8ff" points="1364.84,-31.3 1373.07,-24.63 1362.48,-24.71 1364.84,-31.3"/>
</a>
</g>
</g>
<!-- Node20&#45;&gt;Node6 -->
<g id="edge37_Node000020_Node000006" class="edge">
<title>Node20&#45;&gt;Node6</title>
<g id="a_edge37_Node000020_Node000006"><a xlink:title=" ">
<path fill="none" stroke="#63b8ff" d="M1033.86,-137.47C1026.18,-135.41 1017.82,-133.39 1010,-132 833.83,-100.62 786.78,-116.29 609,-96 596.98,-94.63 584.17,-92.99 571.86,-91.33"/>
<polygon fill="#63b8ff" stroke="#63b8ff" points="572.05,-87.82 561.67,-89.93 571.1,-94.75 572.05,-87.82"/>
</a>
</g>
</g>
<!-- Node20&#45;&gt;Node14 -->
<g id="edge40_Node000020_Node000014" class="edge">
<title>Node20&#45;&gt;Node14</title>
<g id="a_edge40_Node000020_Node000014"><a xlink:title=" ">
<path fill="none" stroke="#63b8ff" d="M1105.01,-139.45C1121.28,-137.03 1139.99,-134.31 1157,-132 1285.26,-114.56 1319.87,-125.07 1446,-96 1448.98,-95.31 1452.05,-94.49 1455.11,-93.59"/>
<polygon fill="#63b8ff" stroke="#63b8ff" points="1456.22,-96.91 1464.68,-90.55 1454.09,-90.24 1456.22,-96.91"/>
</a>
</g>
</g>
<!-- Node20&#45;&gt;Node16 -->
<g id="edge42_Node000020_Node000016" class="edge">
<title>Node20&#45;&gt;Node16</title>
<g id="a_edge42_Node000020_Node000016"><a xlink:title=" ">
<path fill="none" stroke="#63b8ff" d="M1031.56,-137.45C1024.51,-135.56 1017.01,-133.64 1010,-132 930.57,-113.39 909.18,-115.67 830,-96 826.78,-95.2 823.45,-94.32 820.11,-93.4"/>
<polygon fill="#63b8ff" stroke="#63b8ff" points="820.8,-89.95 810.22,-90.57 818.87,-96.68 820.8,-89.95"/>
</a>
</g>
</g>
<!-- Node21 -->
<g id="Node000021" class="node">
<title>Node21</title>
<g id="a_Node000021"><a xlink:href="device__qualifier_8hpp.html" target="_top" xlink:title=" ">
<polygon fill="white" stroke="#666666" points="732,-90.5 618,-90.5 618,-71.5 732,-71.5 732,-90.5"/>
<text text-anchor="middle" x="675" y="-78.5" font-family="Helvetica,sans-Serif" font-size="10.00">device_qualifier.hpp</text>
</a>
</g>
</g>
<!-- Node20&#45;&gt;Node21 -->
<g id="edge22_Node000020_Node000021" class="edge">
<title>Node20&#45;&gt;Node21</title>
<g id="a_edge22_Node000020_Node000021"><a xlink:title=" ">
<path fill="none" stroke="#63b8ff" d="M1033.01,-137.48C1025.55,-135.49 1017.52,-133.51 1010,-132 891.74,-108.27 859.86,-116.53 741,-96 735.16,-94.99 729.05,-93.83 723,-92.63"/>
<polygon fill="#63b8ff" stroke="#63b8ff" points="723.45,-89.14 712.95,-90.56 722.04,-96 723.45,-89.14"/>
</a>
</g>
</g>
<!-- Node20&#45;&gt;Node22 -->
<g id="edge24_Node000020_Node000022" class="edge">
<title>Node20&#45;&gt;Node22</title>
<g id="a_edge24_Node000020_Node000022"><a xlink:title=" ">
<path fill="none" stroke="#63b8ff" d="M1104.16,-137.44C1166.31,-124.81 1281.51,-101.4 1340.35,-89.45"/>
<polygon fill="#63b8ff" stroke="#63b8ff" points="1341.21,-92.84 1350.31,-87.42 1339.81,-85.98 1341.21,-92.84"/>
</a>
</g>
</g>
<!-- Node23 -->
<g id="Node000023" class="node">
<title>Node23</title>
<g id="a_Node000023"><a xlink:title=" ">
<polygon fill="#e0e0e0" stroke="#999999" points="1482.5,-24.5 1437.5,-24.5 1437.5,-5.5 1482.5,-5.5 1482.5,-24.5"/>
<text text-anchor="middle" x="1460" y="-12.5" font-family="Helvetica,sans-Serif" font-size="10.00">utility</text>
</a>
</g>
</g>
<!-- Node20&#45;&gt;Node23 -->
<g id="edge43_Node000020_Node000023" class="edge">
<title>Node20&#45;&gt;Node23</title>
<g id="a_edge43_Node000020_Node000023"><a xlink:title=" ">
<path fill="none" stroke="#63b8ff" d="M1105.03,-139.6C1121.31,-137.2 1140,-134.45 1157,-132 1270.28,-115.66 1316.6,-159.23 1412,-96 1434,-81.42 1447.44,-52.99 1454.3,-34.25"/>
<polygon fill="#63b8ff" stroke="#63b8ff" points="1457.63,-35.34 1457.53,-24.75 1451,-33.09 1457.63,-35.34"/>
</a>
</g>
</g>
<!-- Node24 -->
<g id="Node000024" class="node">
<title>Node24</title>
<g id="a_Node000024"><a xlink:href="array_8hpp.html" target="_top" xlink:title=" ">
<polygon fill="white" stroke="#666666" points="997.5,-90.5 872.5,-90.5 872.5,-71.5 997.5,-71.5 997.5,-90.5"/>
<text text-anchor="middle" x="935" y="-78.5" font-family="Helvetica,sans-Serif" font-size="10.00">serialization/array.hpp</text>
</a>
</g>
</g>
<!-- Node20&#45;&gt;Node24 -->
<g id="edge27_Node000020_Node000024" class="edge">
<title>Node20&#45;&gt;Node24</title>
<g id="a_edge27_Node000020_Node000024"><a xlink:title=" ">
<path fill="none" stroke="#63b8ff" d="M1044.87,-137.37C1023.38,-126.54 986.3,-107.85 961.23,-95.22"/>
<polygon fill="#63b8ff" stroke="#63b8ff" points="962.77,-92.07 952.26,-90.7 959.62,-98.32 962.77,-92.07"/>
</a>
</g>
</g>
<!-- Node33 -->
<g id="Node000033" class="node">
<title>Node33</title>
<g id="a_Node000033"><a xlink:title=" ">
<polygon fill="#e0e0e0" stroke="#999999" points="1072.5,-90.5 1015.5,-90.5 1015.5,-71.5 1072.5,-71.5 1072.5,-90.5"/>
<text text-anchor="middle" x="1044" y="-78.5" font-family="Helvetica,sans-Serif" font-size="10.00">ostream</text>
</a>
</g>
</g>
<!-- Node20&#45;&gt;Node33 -->
<g id="edge41_Node000020_Node000033" class="edge">
<title>Node20&#45;&gt;Node33</title>
<g id="a_edge41_Node000020_Node000033"><a xlink:title=" ">
<path fill="none" stroke="#63b8ff" d="M1059.57,-137.37C1056.96,-128.07 1052.71,-112.98 1049.32,-100.9"/>
<polygon fill="#63b8ff" stroke="#63b8ff" points="1052.58,-99.58 1046.5,-90.91 1045.84,-101.48 1052.58,-99.58"/>
</a>
</g>
</g>
<!-- Node21&#45;&gt;Node4 -->
<g id="edge23_Node000021_Node000004" class="edge">
<title>Node21&#45;&gt;Node4</title>
<g id="a_edge23_Node000021_Node000004"><a xlink:title=" ">
<path fill="none" stroke="#63b8ff" d="M634.93,-71.46C624.86,-69.49 614.06,-67.53 604,-66 455.95,-43.49 414.32,-66.14 269,-30 266.7,-29.43 264.34,-28.74 262,-27.97"/>
<polygon fill="#63b8ff" stroke="#63b8ff" points="263.17,-24.67 252.58,-24.52 260.77,-31.25 263.17,-24.67"/>
</a>
</g>
</g>
<!-- Node22&#45;&gt;Node5 -->
<g id="edge25_Node000022_Node000005" class="edge">
<title>Node22&#45;&gt;Node5</title>
<g id="a_edge25_Node000022_Node000005"><a xlink:title=" ">
<path fill="none" stroke="#63b8ff" d="M1379.16,-71.37C1381.48,-62.07 1385.26,-46.98 1388.28,-34.9"/>
<polygon fill="#63b8ff" stroke="#63b8ff" points="1391.74,-35.46 1390.77,-24.91 1384.95,-33.76 1391.74,-35.46"/>
</a>
</g>
</g>
<!-- Node22&#45;&gt;Node23 -->
<g id="edge26_Node000022_Node000023" class="edge">
<title>Node22&#45;&gt;Node23</title>
<g id="a_edge26_Node000022_Node000023"><a xlink:title=" ">
<path fill="none" stroke="#63b8ff" d="M1388.19,-71.37C1401.56,-61.06 1424.15,-43.65 1440.42,-31.09"/>
<polygon fill="#63b8ff" stroke="#63b8ff" points="1442.94,-33.58 1448.72,-24.7 1438.66,-28.03 1442.94,-33.58"/>
</a>
</g>
</g>
<!-- Node24&#45;&gt;Node5 -->
<g id="edge36_Node000024_Node000005" class="edge">
<title>Node24&#45;&gt;Node5</title>
<g id="a_edge36_Node000024_Node000005"><a xlink:title=" ">
<path fill="none" stroke="#63b8ff" d="M975.06,-71.43C985.13,-69.46 995.94,-67.51 1006,-66 1161.09,-42.81 1204.55,-66.75 1357,-30 1359.37,-29.43 1361.78,-28.74 1364.19,-27.98"/>
<polygon fill="#63b8ff" stroke="#63b8ff" points="1365.63,-31.18 1373.88,-24.53 1363.28,-24.59 1365.63,-31.18"/>
</a>
</g>
</g>
<!-- Node25 -->
<g id="Node000025" class="node">
<title>Node25</title>
<g id="a_Node000025"><a xlink:title=" ">
<polygon fill="#e0e0e0" stroke="#999999" points="961.5,-24.5 828.5,-24.5 828.5,-5.5 961.5,-5.5 961.5,-24.5"/>
<text text-anchor="middle" x="895" y="-12.5" font-family="Helvetica,sans-Serif" font-size="10.00">boost/mpl/bool_fwd.hpp</text>
</a>
</g>
</g>
<!-- Node24&#45;&gt;Node25 -->
<g id="edge28_Node000024_Node000025" class="edge">
<title>Node24&#45;&gt;Node25</title>
<g id="a_edge28_Node000024_Node000025"><a xlink:title=" ">
<path fill="none" stroke="#63b8ff" d="M929.61,-71.37C923.56,-61.69 913.59,-45.74 905.9,-33.44"/>
<polygon fill="#63b8ff" stroke="#63b8ff" points="908.83,-31.53 900.57,-24.91 902.9,-35.24 908.83,-31.53"/>
</a>
</g>
</g>
<!-- Node26 -->
<g id="Node000026" class="node">
<title>Node26</title>
<g id="a_Node000026"><a xlink:title=" ">
<polygon fill="#e0e0e0" stroke="#999999" points="1104,-24.5 980,-24.5 980,-5.5 1104,-5.5 1104,-24.5"/>
<text text-anchor="middle" x="1042" y="-12.5" font-family="Helvetica,sans-Serif" font-size="10.00">boost/mpl/greater.hpp</text>
</a>
</g>
</g>
<!-- Node24&#45;&gt;Node26 -->
<g id="edge29_Node000024_Node000026" class="edge">
<title>Node24&#45;&gt;Node26</title>
<g id="a_edge29_Node000024_Node000026"><a xlink:title=" ">
<path fill="none" stroke="#63b8ff" d="M949.43,-71.37C967.22,-60.73 997.68,-42.51 1018.78,-29.89"/>
<polygon fill="#63b8ff" stroke="#63b8ff" points="1020.67,-32.84 1027.46,-24.7 1017.08,-26.83 1020.67,-32.84"/>
</a>
</g>
</g>
<!-- Node27 -->
<g id="Node000027" class="node">
<title>Node27</title>
<g id="a_Node000027"><a xlink:title=" ">
<polygon fill="#e0e0e0" stroke="#999999" points="1224,-24.5 1122,-24.5 1122,-5.5 1224,-5.5 1224,-24.5"/>
<text text-anchor="middle" x="1173" y="-12.5" font-family="Helvetica,sans-Serif" font-size="10.00">boost/mpl/int.hpp</text>
</a>
</g>
</g>
<!-- Node24&#45;&gt;Node27 -->
<g id="edge30_Node000024_Node000027" class="edge">
<title>Node24&#45;&gt;Node27</title>
<g id="a_edge30_Node000024_Node000027"><a xlink:title=" ">
<path fill="none" stroke="#63b8ff" d="M967.1,-71.37C1009.53,-59.96 1084.39,-39.83 1131.2,-27.24"/>
<polygon fill="#63b8ff" stroke="#63b8ff" points="1132.28,-30.57 1141.03,-24.6 1130.47,-23.81 1132.28,-30.57"/>
</a>
</g>
</g>
<!-- Node28 -->
<g id="Node000028" class="node">
<title>Node28</title>
<g id="a_Node000028"><a xlink:title=" ">
<polygon fill="#e0e0e0" stroke="#999999" points="1348,-30 1242,-30 1242,0 1348,0 1348,-30"/>
<text text-anchor="start" x="1250" y="-18" font-family="Helvetica,sans-Serif" font-size="10.00">boost/mpl/integral</text>
<text text-anchor="middle" x="1295" y="-7" font-family="Helvetica,sans-Serif" font-size="10.00">_c_tag.hpp</text>
</a>
</g>
</g>
<!-- Node24&#45;&gt;Node28 -->
<g id="edge31_Node000024_Node000028" class="edge">
<title>Node24&#45;&gt;Node28</title>
<g id="a_edge31_Node000024_Node000028"><a xlink:title=" ">
<path fill="none" stroke="#63b8ff" d="M977,-71.45C986.52,-69.58 996.6,-67.67 1006,-66 1103.43,-48.67 1130.98,-49.21 1231.94,-30.13"/>
<polygon fill="#63b8ff" stroke="#63b8ff" points="1232.78,-33.53 1241.95,-28.22 1231.47,-26.65 1232.78,-33.53"/>
</a>
</g>
</g>
<!-- Node29 -->
<g id="Node000029" class="node">
<title>Node29</title>
<g id="a_Node000029"><a xlink:title=" ">
<polygon fill="#e0e0e0" stroke="#999999" points="429.5,-30 278.5,-30 278.5,0 429.5,0 429.5,-30"/>
<text text-anchor="start" x="286.5" y="-18" font-family="Helvetica,sans-Serif" font-size="10.00">boost/serialization</text>
<text text-anchor="middle" x="354" y="-7" font-family="Helvetica,sans-Serif" font-size="10.00">/is_bitwise_serializable.hpp</text>
</a>
</g>
</g>
<!-- Node24&#45;&gt;Node29 -->
<g id="edge32_Node000024_Node000029" class="edge">
<title>Node24&#45;&gt;Node29</title>
<g id="a_edge32_Node000024_Node000029"><a xlink:title=" ">
<path fill="none" stroke="#63b8ff" d="M891.95,-71.43C880.91,-69.44 869.04,-67.47 858,-66 675.56,-41.65 625.63,-53 439.63,-30.14"/>
<polygon fill="#63b8ff" stroke="#63b8ff" points="439.87,-26.64 429.51,-28.88 439,-33.59 439.87,-26.64"/>
</a>
</g>
</g>
<!-- Node30 -->
<g id="Node000030" class="node">
<title>Node30</title>
<g id="a_Node000030"><a xlink:title=" ">
<polygon fill="#e0e0e0" stroke="#999999" points="554.5,-30 447.5,-30 447.5,0 554.5,0 554.5,-30"/>
<text text-anchor="start" x="455.5" y="-18" font-family="Helvetica,sans-Serif" font-size="10.00">boost/serialization</text>
<text text-anchor="middle" x="501" y="-7" font-family="Helvetica,sans-Serif" font-size="10.00">/level.hpp</text>
</a>
</g>
</g>
<!-- Node24&#45;&gt;Node30 -->
<g id="edge33_Node000024_Node000030" class="edge">
<title>Node24&#45;&gt;Node30</title>
<g id="a_edge33_Node000024_Node000030"><a xlink:title=" ">
<path fill="none" stroke="#63b8ff" d="M890.69,-71.49C880.01,-69.56 868.61,-67.61 858,-66 730.6,-46.66 694.87,-52.28 564.66,-30.19"/>
<polygon fill="#63b8ff" stroke="#63b8ff" points="565.15,-26.72 554.7,-28.47 563.96,-33.62 565.15,-26.72"/>
</a>
</g>
</g>
<!-- Node31 -->
<g id="Node000031" class="node">
<title>Node31</title>
<g id="a_Node000031"><a xlink:title=" ">
<polygon fill="#e0e0e0" stroke="#999999" points="679.5,-30 572.5,-30 572.5,0 679.5,0 679.5,-30"/>
<text text-anchor="start" x="580.5" y="-18" font-family="Helvetica,sans-Serif" font-size="10.00">boost/serialization</text>
<text text-anchor="middle" x="626" y="-7" font-family="Helvetica,sans-Serif" font-size="10.00">/tracking.hpp</text>
</a>
</g>
</g>
<!-- Node24&#45;&gt;Node31 -->
<g id="edge34_Node000024_Node000031" class="edge">
<title>Node24&#45;&gt;Node31</title>
<g id="a_edge34_Node000024_Node000031"><a xlink:title=" ">
<path fill="none" stroke="#63b8ff" d="M891.21,-71.44C843.91,-62.13 766.07,-46.61 689.99,-30.4"/>
<polygon fill="#63b8ff" stroke="#63b8ff" points="690.26,-26.88 679.75,-28.21 688.8,-33.73 690.26,-26.88"/>
</a>
</g>
</g>
<!-- Node32 -->
<g id="Node000032" class="node">
<title>Node32</title>
<g id="a_Node000032"><a xlink:title=" ">
<polygon fill="#e0e0e0" stroke="#999999" points="810.5,-30 697.5,-30 697.5,0 810.5,0 810.5,-30"/>
<text text-anchor="start" x="705.5" y="-18" font-family="Helvetica,sans-Serif" font-size="10.00">boost/serialization</text>
<text text-anchor="middle" x="754" y="-7" font-family="Helvetica,sans-Serif" font-size="10.00">/tracking_enum.hpp</text>
</a>
</g>
</g>
<!-- Node24&#45;&gt;Node32 -->
<g id="edge35_Node000024_Node000032" class="edge">
<title>Node24&#45;&gt;Node32</title>
<g id="a_edge35_Node000024_Node000032"><a xlink:title=" ">
<path fill="none" stroke="#63b8ff" d="M910.59,-71.37C883.25,-61.7 838.21,-45.77 803.43,-33.48"/>
<polygon fill="#63b8ff" stroke="#63b8ff" points="804.52,-30.15 793.92,-30.12 802.18,-36.75 804.52,-30.15"/>
</a>
</g>
</g>
<!-- Node39&#45;&gt;Node21 -->
<g id="edge57_Node000039_Node000021" class="edge">
<title>Node39&#45;&gt;Node21</title>
<g id="a_edge57_Node000039_Node000021"><a xlink:title=" ">
<path fill="none" stroke="#63b8ff" d="M471.3,-197.85C457.47,-183.04 433.6,-152.45 450,-132 460.12,-119.38 547.27,-102.75 610.08,-92.21"/>
<polygon fill="#63b8ff" stroke="#63b8ff" points="611.03,-95.6 620.32,-90.51 609.88,-88.69 611.03,-95.6"/>
</a>
</g>
</g>
<!-- Node39&#45;&gt;Node38 -->
<g id="edge58_Node000039_Node000038" class="edge">
<title>Node39&#45;&gt;Node38</title>
<g id="a_edge58_Node000039_Node000038"><a xlink:title=" ">
<path fill="none" stroke="#63b8ff" d="M486.94,-197.87C493.95,-189.14 504.96,-175.43 513.67,-164.59"/>
<polygon fill="#63b8ff" stroke="#63b8ff" points="516.5,-166.66 520.04,-156.67 511.04,-162.27 516.5,-166.66"/>
</a>
</g>
</g>
</g>
</svg>
