<?xml version="1.0" encoding="UTF-8" standalone="no"?>
<!DOCTYPE svg PUBLIC "-//W3C//DTD SVG 1.1//EN"
 "http://www.w3.org/Graphics/SVG/1.1/DTD/svg11.dtd">
<!-- Generated by graphviz version 2.43.0 (0)
 -->
<!-- Title: npt.hpp Pages: 1 -->
<!--zoomable 269 -->

<svg id="main" version="1.1" xmlns="http://www.w3.org/2000/svg" xmlns:xlink="http://www.w3.org/1999/xlink" xml:space="preserve" onload="init(evt)">
<style type="text/css"><![CDATA[
.node, .edge {opacity: 0.7;}
.node.selected, .edge.selected {opacity: 1;}
.edge:hover path { stroke: red; }
.edge:hover polygon { stroke: red; fill: red; }
]]></style>

<defs>
  <circle id="rim" cx="0" cy="0" r="7"/>
  <circle id="rim2" cx="0" cy="0" r="3.5"/>
  <g id="zoomPlus">
    <use xlink:href="#rim" fill="#404040"><set attributeName="fill" to="#808080" begin="zoomplus.mouseover" end="zoomplus.mouseout"/></use>
    <path d="M-4,0h8M0,-4v8" fill="none" stroke="white" stroke-width="1.5" pointer-events="none"/>
  </g>
  <g id="zoomMin">
    <use xlink:href="#rim" fill="#404040"><set attributeName="fill" to="#808080" begin="zoomminus.mouseover" end="zoomminus.mouseout"/></use>
    <path d="M-4,0h8" fill="none" stroke="white" stroke-width="1.5" pointer-events="none"/>
  </g>
  <g id="arrowUp" transform="translate(30 24)">
    <use xlink:href="#rim"/>
    <path pointer-events="none" fill="none" stroke="white" stroke-width="1.5" d="M0,-3.0v7 M-2.5,-0.5L0,-3.0L2.5,-0.5"/>
  </g>
  <g id="arrowRight" transform="rotate(90) translate(36 -43)">
    <use xlink:href="#rim"/>
    <path pointer-events="none" fill="none" stroke="white" stroke-width="1.5" d="M0,-3.0v7 M-2.5,-0.5L0,-3.0L2.5,-0.5"/>
  </g>
  <g id="arrowDown" transform="rotate(180) translate(-30 -48)">
    <use xlink:href="#rim"/>
    <path pointer-events="none" fill="none" stroke="white" stroke-width="1.5" d="M0,-3.0v7 M-2.5,-0.5L0,-3.0L2.5,-0.5"/>
  </g>
  <g id="arrowLeft" transform="rotate(270) translate(-36 17)">
    <use xlink:href="#rim"/>
    <path pointer-events="none" fill="none" stroke="white" stroke-width="1.5" d="M0,-3.0v7 M-2.5,-0.5L0,-3.0L2.5,-0.5"/>
  </g>
  <g id="resetDef">
    <use xlink:href="#rim2" fill="#404040"><set attributeName="fill" to="#808080" begin="reset.mouseover" end="reset.mouseout"/></use>
  </g>
</defs>
<script type="application/ecmascript">
var viewWidth = 1872;
var viewHeight = 269;
var sectionId = 'dynsection-0';
</script>
<script type="application/ecmascript" xlink:href="svg.min.js"/>
<svg id="graph" class="graph">
<g id="viewport">
<title>npt.hpp</title>
<!-- Node1 -->
<g id="Node000001" class="node">
<title>Node1</title>
<g id="a_Node000001"><a xlink:title="Exports for the NpT code.">
<polygon fill="#999999" stroke="#666666" points="1768,-261 1715,-261 1715,-242 1768,-242 1768,-261"/>
<text text-anchor="middle" x="1741.5" y="-249" font-family="Helvetica,sans-Serif" font-size="10.00">npt.hpp</text>
</a>
</g>
</g>
<!-- Node2 -->
<g id="Node000002" class="node">
<title>Node2</title>
<g id="a_Node000002"><a xlink:href="config_8hpp.html" target="_top" xlink:title=" ">
<polygon fill="white" stroke="#666666" points="192,-206 93,-206 93,-187 192,-187 192,-206"/>
<text text-anchor="middle" x="142.5" y="-194" font-family="Helvetica,sans-Serif" font-size="10.00">config/config.hpp</text>
</a>
</g>
</g>
<!-- Node1&#45;&gt;Node2 -->
<g id="edge1_Node000001_Node000002" class="edge">
<title>Node1&#45;&gt;Node2</title>
<g id="a_edge1_Node000001_Node000002"><a xlink:title=" ">
<path fill="none" stroke="#63b8ff" d="M1714.75,-249.61C1532.06,-243.56 467.55,-208.27 202.33,-199.48"/>
<polygon fill="#63b8ff" stroke="#63b8ff" points="202.25,-195.98 192.14,-199.15 202.01,-202.97 202.25,-195.98"/>
</a>
</g>
</g>
<!-- Node5 -->
<g id="Node000005" class="node">
<title>Node5</title>
<g id="a_Node000005"><a xlink:href="Vector_8hpp.html" target="_top" xlink:title="Vector implementation and trait types for boost qvm interoperability.">
<polygon fill="white" stroke="#666666" points="1173.5,-206 1081.5,-206 1081.5,-187 1173.5,-187 1173.5,-206"/>
<text text-anchor="middle" x="1127.5" y="-194" font-family="Helvetica,sans-Serif" font-size="10.00">utils/Vector.hpp</text>
</a>
</g>
</g>
<!-- Node1&#45;&gt;Node5 -->
<g id="edge4_Node000001_Node000005" class="edge">
<title>Node1&#45;&gt;Node5</title>
<g id="a_edge4_Node000001_Node000005"><a xlink:title=" ">
<path fill="none" stroke="#63b8ff" d="M1714.72,-248.19C1621.8,-240.17 1311.93,-213.42 1183.75,-202.36"/>
<polygon fill="#63b8ff" stroke="#63b8ff" points="1184.01,-198.86 1173.74,-201.49 1183.4,-205.84 1184.01,-198.86"/>
</a>
</g>
</g>
<!-- Node20 -->
<g id="Node000020" class="node">
<title>Node20</title>
<g id="a_Node000020"><a xlink:title=" ">
<polygon fill="#e0e0e0" stroke="#999999" points="1669,-24.5 1616,-24.5 1616,-5.5 1669,-5.5 1669,-24.5"/>
<text text-anchor="middle" x="1642.5" y="-12.5" font-family="Helvetica,sans-Serif" font-size="10.00">cstddef</text>
</a>
</g>
</g>
<!-- Node1&#45;&gt;Node20 -->
<g id="edge42_Node000001_Node000020" class="edge">
<title>Node1&#45;&gt;Node20</title>
<g id="a_edge42_Node000001_Node000020"><a xlink:title=" ">
<path fill="none" stroke="#63b8ff" d="M1747.73,-241.85C1761.33,-221.83 1791.08,-171.06 1773.5,-132 1751.93,-84.1 1699.73,-47.98 1668.12,-29.58"/>
<polygon fill="#63b8ff" stroke="#63b8ff" points="1669.83,-26.54 1659.41,-24.66 1666.39,-32.63 1669.83,-26.54"/>
</a>
</g>
</g>
<!-- Node36 -->
<g id="Node000036" class="node">
<title>Node36</title>
<g id="a_Node000036"><a xlink:title=" ">
<polygon fill="#e0e0e0" stroke="#999999" points="1765,-151 1718,-151 1718,-132 1765,-132 1765,-151"/>
<text text-anchor="middle" x="1741.5" y="-139" font-family="Helvetica,sans-Serif" font-size="10.00">vector</text>
</a>
</g>
</g>
<!-- Node1&#45;&gt;Node36 -->
<g id="edge43_Node000001_Node000036" class="edge">
<title>Node1&#45;&gt;Node36</title>
<g id="a_edge43_Node000001_Node000036"><a xlink:title=" ">
<path fill="none" stroke="#63b8ff" d="M1741.5,-241.66C1741.5,-224.17 1741.5,-184.8 1741.5,-161.27"/>
<polygon fill="#63b8ff" stroke="#63b8ff" points="1745,-161.16 1741.5,-151.16 1738,-161.16 1745,-161.16"/>
</a>
</g>
</g>
<!-- Node37 -->
<g id="Node000037" class="node">
<title>Node37</title>
<g id="a_Node000037"><a xlink:title=" ">
<polygon fill="#e0e0e0" stroke="#999999" points="1863.5,-206 1821.5,-206 1821.5,-187 1863.5,-187 1863.5,-206"/>
<text text-anchor="middle" x="1842.5" y="-194" font-family="Helvetica,sans-Serif" font-size="10.00">array</text>
</a>
</g>
</g>
<!-- Node1&#45;&gt;Node37 -->
<g id="edge41_Node000001_Node000037" class="edge">
<title>Node1&#45;&gt;Node37</title>
<g id="a_edge41_Node000001_Node000037"><a xlink:title=" ">
<path fill="none" stroke="#63b8ff" d="M1757.73,-241.98C1773.68,-233.61 1798.28,-220.7 1816.88,-210.95"/>
<polygon fill="#63b8ff" stroke="#63b8ff" points="1818.75,-213.92 1825.98,-206.17 1815.5,-207.72 1818.75,-213.92"/>
</a>
</g>
</g>
<!-- Node3 -->
<g id="Node000003" class="node">
<title>Node3</title>
<g id="a_Node000003"><a xlink:title=" ">
<polygon fill="#e0e0e0" stroke="#999999" points="214,-151 71,-151 71,-132 214,-132 214,-151"/>
<text text-anchor="middle" x="142.5" y="-139" font-family="Helvetica,sans-Serif" font-size="10.00">config/config&#45;features.hpp</text>
</a>
</g>
</g>
<!-- Node2&#45;&gt;Node3 -->
<g id="edge2_Node000002_Node000003" class="edge">
<title>Node2&#45;&gt;Node3</title>
<g id="a_edge2_Node000002_Node000003"><a xlink:title=" ">
<path fill="none" stroke="#63b8ff" d="M142.5,-186.75C142.5,-179.8 142.5,-169.85 142.5,-161.13"/>
<polygon fill="#63b8ff" stroke="#63b8ff" points="146,-161.09 142.5,-151.09 139,-161.09 146,-161.09"/>
</a>
</g>
</g>
<!-- Node4 -->
<g id="Node000004" class="node">
<title>Node4</title>
<g id="a_Node000004"><a xlink:title=" ">
<polygon fill="#e0e0e0" stroke="#999999" points="53,-151 0,-151 0,-132 53,-132 53,-151"/>
<text text-anchor="middle" x="26.5" y="-139" font-family="Helvetica,sans-Serif" font-size="10.00">version</text>
</a>
</g>
</g>
<!-- Node2&#45;&gt;Node4 -->
<g id="edge3_Node000002_Node000004" class="edge">
<title>Node2&#45;&gt;Node4</title>
<g id="a_edge3_Node000002_Node000004"><a xlink:title=" ">
<path fill="none" stroke="#63b8ff" d="M123.86,-186.98C105.2,-178.46 76.25,-165.23 54.76,-155.41"/>
<polygon fill="#63b8ff" stroke="#63b8ff" points="56.03,-152.14 45.48,-151.17 53.12,-158.51 56.03,-152.14"/>
</a>
</g>
</g>
<!-- Node6 -->
<g id="Node000006" class="node">
<title>Node6</title>
<g id="a_Node000006"><a xlink:title=" ">
<polygon fill="#e0e0e0" stroke="#999999" points="1465.5,-151 1315.5,-151 1315.5,-132 1465.5,-132 1465.5,-151"/>
<text text-anchor="middle" x="1390.5" y="-139" font-family="Helvetica,sans-Serif" font-size="10.00">boost/qvm/deduce_vec.hpp</text>
</a>
</g>
</g>
<!-- Node5&#45;&gt;Node6 -->
<g id="edge5_Node000005_Node000006" class="edge">
<title>Node5&#45;&gt;Node6</title>
<g id="a_edge5_Node000005_Node000006"><a xlink:title=" ">
<path fill="none" stroke="#63b8ff" d="M1169.76,-186.98C1215.54,-177.76 1288.64,-163.03 1338.05,-153.07"/>
<polygon fill="#63b8ff" stroke="#63b8ff" points="1338.8,-156.49 1347.91,-151.08 1337.42,-149.63 1338.8,-156.49"/>
</a>
</g>
</g>
<!-- Node7 -->
<g id="Node000007" class="node">
<title>Node7</title>
<g id="a_Node000007"><a xlink:title=" ">
<polygon fill="#e0e0e0" stroke="#999999" points="1623.5,-151 1483.5,-151 1483.5,-132 1623.5,-132 1623.5,-151"/>
<text text-anchor="middle" x="1553.5" y="-139" font-family="Helvetica,sans-Serif" font-size="10.00">boost/qvm/vec_traits.hpp</text>
</a>
</g>
</g>
<!-- Node5&#45;&gt;Node7 -->
<g id="edge6_Node000005_Node000007" class="edge">
<title>Node5&#45;&gt;Node7</title>
<g id="a_edge6_Node000005_Node000007"><a xlink:title=" ">
<path fill="none" stroke="#63b8ff" d="M1173.9,-189.73C1246.26,-180.72 1386.83,-163.24 1475.12,-152.25"/>
<polygon fill="#63b8ff" stroke="#63b8ff" points="1475.59,-155.72 1485.08,-151.01 1474.73,-148.77 1475.59,-155.72"/>
</a>
</g>
</g>
<!-- Node8 -->
<g id="Node000008" class="node">
<title>Node8</title>
<g id="a_Node000008"><a xlink:href="Array_8hpp.html" target="_top" xlink:title="Array implementation with CUDA support.">
<polygon fill="white" stroke="#666666" points="599.5,-151 513.5,-151 513.5,-132 599.5,-132 599.5,-151"/>
<text text-anchor="middle" x="556.5" y="-139" font-family="Helvetica,sans-Serif" font-size="10.00">utils/Array.hpp</text>
</a>
</g>
</g>
<!-- Node5&#45;&gt;Node8 -->
<g id="edge7_Node000005_Node000008" class="edge">
<title>Node5&#45;&gt;Node8</title>
<g id="a_edge7_Node000005_Node000008"><a xlink:title=" ">
<path fill="none" stroke="#63b8ff" d="M1081.2,-192.72C991.99,-187.11 789.85,-173.15 609.52,-151.03"/>
<polygon fill="#63b8ff" stroke="#63b8ff" points="609.95,-147.56 599.59,-149.8 609.09,-154.51 609.95,-147.56"/>
</a>
</g>
</g>
<!-- Node10 -->
<g id="Node000010" class="node">
<title>Node10</title>
<g id="a_Node000010"><a xlink:title=" ">
<polygon fill="#e0e0e0" stroke="#999999" points="353.5,-24.5 301.5,-24.5 301.5,-5.5 353.5,-5.5 353.5,-24.5"/>
<text text-anchor="middle" x="327.5" y="-12.5" font-family="Helvetica,sans-Serif" font-size="10.00">cassert</text>
</a>
</g>
</g>
<!-- Node5&#45;&gt;Node10 -->
<g id="edge29_Node000005_Node000010" class="edge">
<title>Node5&#45;&gt;Node10</title>
<g id="a_edge29_Node000005_Node000010"><a xlink:title=" ">
<path fill="none" stroke="#63b8ff" d="M1081.41,-193.91C909.53,-187.5 313.19,-160.7 261.5,-96 242.7,-72.47 276.65,-45.53 302.44,-29.69"/>
<polygon fill="#63b8ff" stroke="#63b8ff" points="304.28,-32.66 311.12,-24.57 300.73,-26.63 304.28,-32.66"/>
</a>
</g>
</g>
<!-- Node5&#45;&gt;Node20 -->
<g id="edge32_Node000005_Node000020" class="edge">
<title>Node5&#45;&gt;Node20</title>
<g id="a_edge32_Node000005_Node000020"><a xlink:title=" ">
<path fill="none" stroke="#63b8ff" d="M1173.61,-195.05C1295.24,-193.38 1617.62,-185.71 1649.5,-151 1678.91,-118.98 1662.09,-62.61 1650.55,-33.9"/>
<polygon fill="#63b8ff" stroke="#63b8ff" points="1653.76,-32.5 1646.63,-24.67 1647.31,-35.24 1653.76,-32.5"/>
</a>
</g>
</g>
<!-- Node22 -->
<g id="Node000022" class="node">
<title>Node22</title>
<g id="a_Node000022"><a xlink:title=" ">
<polygon fill="#e0e0e0" stroke="#999999" points="1581,-90.5 1528,-90.5 1528,-71.5 1581,-71.5 1581,-90.5"/>
<text text-anchor="middle" x="1554.5" y="-78.5" font-family="Helvetica,sans-Serif" font-size="10.00">iterator</text>
</a>
</g>
</g>
<!-- Node5&#45;&gt;Node22 -->
<g id="edge35_Node000005_Node000022" class="edge">
<title>Node5&#45;&gt;Node22</title>
<g id="a_edge35_Node000005_Node000022"><a xlink:title=" ">
<path fill="none" stroke="#63b8ff" d="M1173.83,-194.9C1292.79,-192.89 1601.85,-184.47 1632.5,-151 1652.17,-129.52 1616.21,-107.76 1586.84,-94.57"/>
<polygon fill="#63b8ff" stroke="#63b8ff" points="1588.18,-91.34 1577.61,-90.6 1585.41,-97.77 1588.18,-91.34"/>
</a>
</g>
</g>
<!-- Node27 -->
<g id="Node000027" class="node">
<title>Node27</title>
<g id="a_Node000027"><a xlink:title=" ">
<polygon fill="#e0e0e0" stroke="#999999" points="681.5,-151 617.5,-151 617.5,-132 681.5,-132 681.5,-151"/>
<text text-anchor="middle" x="649.5" y="-139" font-family="Helvetica,sans-Serif" font-size="10.00">algorithm</text>
</a>
</g>
</g>
<!-- Node5&#45;&gt;Node27 -->
<g id="edge28_Node000005_Node000027" class="edge">
<title>Node5&#45;&gt;Node27</title>
<g id="a_edge28_Node000005_Node000027"><a xlink:title=" ">
<path fill="none" stroke="#63b8ff" d="M1081.37,-192.37C1003.25,-186.73 839.75,-173.46 691.84,-151.05"/>
<polygon fill="#63b8ff" stroke="#63b8ff" points="692.09,-147.55 681.67,-149.5 691.03,-154.47 692.09,-147.55"/>
</a>
</g>
</g>
<!-- Node28 -->
<g id="Node000028" class="node">
<title>Node28</title>
<g id="a_Node000028"><a xlink:title=" ">
<polygon fill="#e0e0e0" stroke="#999999" points="747,-151 700,-151 700,-132 747,-132 747,-151"/>
<text text-anchor="middle" x="723.5" y="-139" font-family="Helvetica,sans-Serif" font-size="10.00">cmath</text>
</a>
</g>
</g>
<!-- Node5&#45;&gt;Node28 -->
<g id="edge30_Node000005_Node000028" class="edge">
<title>Node5&#45;&gt;Node28</title>
<g id="a_edge30_Node000005_Node000028"><a xlink:title=" ">
<path fill="none" stroke="#63b8ff" d="M1081.22,-191.94C1012.58,-186.22 879.62,-173.47 757.14,-150.87"/>
<polygon fill="#63b8ff" stroke="#63b8ff" points="757.68,-147.41 747.21,-149.01 756.39,-154.29 757.68,-147.41"/>
</a>
</g>
</g>
<!-- Node29 -->
<g id="Node000029" class="node">
<title>Node29</title>
<g id="a_Node000029"><a xlink:title=" ">
<polygon fill="#e0e0e0" stroke="#999999" points="825.5,-151 765.5,-151 765.5,-132 825.5,-132 825.5,-151"/>
<text text-anchor="middle" x="795.5" y="-139" font-family="Helvetica,sans-Serif" font-size="10.00">concepts</text>
</a>
</g>
</g>
<!-- Node5&#45;&gt;Node29 -->
<g id="edge31_Node000005_Node000029" class="edge">
<title>Node5&#45;&gt;Node29</title>
<g id="a_edge31_Node000005_Node000029"><a xlink:title=" ">
<path fill="none" stroke="#63b8ff" d="M1081.42,-189.43C1025.61,-181.87 928.53,-168.07 835.81,-151.14"/>
<polygon fill="#63b8ff" stroke="#63b8ff" points="836.16,-147.65 825.7,-149.28 834.9,-154.53 836.16,-147.65"/>
</a>
</g>
</g>
<!-- Node30 -->
<g id="Node000030" class="node">
<title>Node30</title>
<g id="a_Node000030"><a xlink:title=" ">
<polygon fill="#e0e0e0" stroke="#999999" points="909,-151 844,-151 844,-132 909,-132 909,-151"/>
<text text-anchor="middle" x="876.5" y="-139" font-family="Helvetica,sans-Serif" font-size="10.00">functional</text>
</a>
</g>
</g>
<!-- Node5&#45;&gt;Node30 -->
<g id="edge33_Node000005_Node000030" class="edge">
<title>Node5&#45;&gt;Node30</title>
<g id="a_edge33_Node000005_Node000030"><a xlink:title=" ">
<path fill="none" stroke="#63b8ff" d="M1087.17,-186.98C1041.08,-177.25 965.97,-161.39 918.99,-151.47"/>
<polygon fill="#63b8ff" stroke="#63b8ff" points="919.64,-148.03 909.13,-149.39 918.19,-154.88 919.64,-148.03"/>
</a>
</g>
</g>
<!-- Node31 -->
<g id="Node000031" class="node">
<title>Node31</title>
<g id="a_Node000031"><a xlink:title=" ">
<polygon fill="#e0e0e0" stroke="#999999" points="1010,-151 927,-151 927,-132 1010,-132 1010,-151"/>
<text text-anchor="middle" x="968.5" y="-139" font-family="Helvetica,sans-Serif" font-size="10.00">initializer_list</text>
</a>
</g>
</g>
<!-- Node5&#45;&gt;Node31 -->
<g id="edge34_Node000005_Node000031" class="edge">
<title>Node5&#45;&gt;Node31</title>
<g id="a_edge34_Node000005_Node000031"><a xlink:title=" ">
<path fill="none" stroke="#63b8ff" d="M1101.95,-186.98C1075.38,-178.13 1033.56,-164.19 1003.83,-154.28"/>
<polygon fill="#63b8ff" stroke="#63b8ff" points="1004.84,-150.92 994.25,-151.08 1002.63,-157.56 1004.84,-150.92"/>
</a>
</g>
</g>
<!-- Node32 -->
<g id="Node000032" class="node">
<title>Node32</title>
<g id="a_Node000032"><a xlink:title=" ">
<polygon fill="#e0e0e0" stroke="#999999" points="1084.5,-151 1028.5,-151 1028.5,-132 1084.5,-132 1084.5,-151"/>
<text text-anchor="middle" x="1056.5" y="-139" font-family="Helvetica,sans-Serif" font-size="10.00">numeric</text>
</a>
</g>
</g>
<!-- Node5&#45;&gt;Node32 -->
<g id="edge36_Node000005_Node000032" class="edge">
<title>Node5&#45;&gt;Node32</title>
<g id="a_edge36_Node000005_Node000032"><a xlink:title=" ">
<path fill="none" stroke="#63b8ff" d="M1116.09,-186.98C1105.39,-179 1089.16,-166.88 1076.34,-157.31"/>
<polygon fill="#63b8ff" stroke="#63b8ff" points="1078.22,-154.35 1068.11,-151.17 1074.03,-159.96 1078.22,-154.35"/>
</a>
</g>
</g>
<!-- Node33 -->
<g id="Node000033" class="node">
<title>Node33</title>
<g id="a_Node000033"><a xlink:title=" ">
<polygon fill="#e0e0e0" stroke="#999999" points="1152.5,-151 1102.5,-151 1102.5,-132 1152.5,-132 1152.5,-151"/>
<text text-anchor="middle" x="1127.5" y="-139" font-family="Helvetica,sans-Serif" font-size="10.00">ranges</text>
</a>
</g>
</g>
<!-- Node5&#45;&gt;Node33 -->
<g id="edge37_Node000005_Node000033" class="edge">
<title>Node5&#45;&gt;Node33</title>
<g id="a_edge37_Node000005_Node000033"><a xlink:title=" ">
<path fill="none" stroke="#63b8ff" d="M1127.5,-186.75C1127.5,-179.8 1127.5,-169.85 1127.5,-161.13"/>
<polygon fill="#63b8ff" stroke="#63b8ff" points="1131,-161.09 1127.5,-151.09 1124,-161.09 1131,-161.09"/>
</a>
</g>
</g>
<!-- Node34 -->
<g id="Node000034" class="node">
<title>Node34</title>
<g id="a_Node000034"><a xlink:title=" ">
<polygon fill="#e0e0e0" stroke="#999999" points="1210.5,-151 1170.5,-151 1170.5,-132 1210.5,-132 1210.5,-151"/>
<text text-anchor="middle" x="1190.5" y="-139" font-family="Helvetica,sans-Serif" font-size="10.00">span</text>
</a>
</g>
</g>
<!-- Node5&#45;&gt;Node34 -->
<g id="edge38_Node000005_Node000034" class="edge">
<title>Node5&#45;&gt;Node34</title>
<g id="a_edge38_Node000005_Node000034"><a xlink:title=" ">
<path fill="none" stroke="#63b8ff" d="M1137.62,-186.98C1146.94,-179.15 1160.97,-167.34 1172.24,-157.86"/>
<polygon fill="#63b8ff" stroke="#63b8ff" points="1174.79,-160.29 1180.19,-151.17 1170.29,-154.93 1174.79,-160.29"/>
</a>
</g>
</g>
<!-- Node35 -->
<g id="Node000035" class="node">
<title>Node35</title>
<g id="a_Node000035"><a xlink:title=" ">
<polygon fill="#e0e0e0" stroke="#999999" points="1298,-151 1229,-151 1229,-132 1298,-132 1298,-151"/>
<text text-anchor="middle" x="1263.5" y="-139" font-family="Helvetica,sans-Serif" font-size="10.00">type_traits</text>
</a>
</g>
</g>
<!-- Node5&#45;&gt;Node35 -->
<g id="edge39_Node000005_Node000035" class="edge">
<title>Node5&#45;&gt;Node35</title>
<g id="a_edge39_Node000005_Node000035"><a xlink:title=" ">
<path fill="none" stroke="#63b8ff" d="M1149.35,-186.98C1171.62,-178.3 1206.4,-164.75 1231.72,-154.88"/>
<polygon fill="#63b8ff" stroke="#63b8ff" points="1233.21,-158.06 1241.25,-151.17 1230.66,-151.54 1233.21,-158.06"/>
</a>
</g>
</g>
<!-- Node5&#45;&gt;Node36 -->
<g id="edge40_Node000005_Node000036" class="edge">
<title>Node5&#45;&gt;Node36</title>
<g id="a_edge40_Node000005_Node000036"><a xlink:title=" ">
<path fill="none" stroke="#63b8ff" d="M1173.67,-194.17C1271.74,-190.86 1507.84,-180.29 1703.5,-151 1704.96,-150.78 1706.45,-150.54 1707.95,-150.28"/>
<polygon fill="#63b8ff" stroke="#63b8ff" points="1708.74,-153.69 1717.88,-148.33 1707.4,-146.82 1708.74,-153.69"/>
</a>
</g>
</g>
<!-- Node9 -->
<g id="Node000009" class="node">
<title>Node9</title>
<g id="a_Node000009"><a xlink:href="device__qualifier_8hpp.html" target="_top" xlink:title=" ">
<polygon fill="white" stroke="#666666" points="384.5,-90.5 270.5,-90.5 270.5,-71.5 384.5,-71.5 384.5,-90.5"/>
<text text-anchor="middle" x="327.5" y="-78.5" font-family="Helvetica,sans-Serif" font-size="10.00">device_qualifier.hpp</text>
</a>
</g>
</g>
<!-- Node8&#45;&gt;Node9 -->
<g id="edge8_Node000008_Node000009" class="edge">
<title>Node8&#45;&gt;Node9</title>
<g id="a_edge8_Node000008_Node000009"><a xlink:title=" ">
<path fill="none" stroke="#63b8ff" d="M523.2,-131.99C482.92,-121.7 415.02,-104.36 370.73,-93.04"/>
<polygon fill="#63b8ff" stroke="#63b8ff" points="371.39,-89.6 360.84,-90.52 369.66,-96.38 371.39,-89.6"/>
</a>
</g>
</g>
<!-- Node8&#45;&gt;Node10 -->
<g id="edge21_Node000008_Node000010" class="edge">
<title>Node8&#45;&gt;Node10</title>
<g id="a_edge21_Node000008_Node000010"><a xlink:title=" ">
<path fill="none" stroke="#63b8ff" d="M599.62,-133.29C668.33,-121.7 795.31,-99.83 798.5,-96 807.03,-85.75 807.47,-75.86 798.5,-66 769.88,-34.55 459.69,-35.27 417.5,-30 399.87,-27.8 380.37,-24.83 364.05,-22.2"/>
<polygon fill="#63b8ff" stroke="#63b8ff" points="364.26,-18.68 353.83,-20.52 363.13,-25.59 364.26,-18.68"/>
</a>
</g>
</g>
<!-- Node11 -->
<g id="Node000011" class="node">
<title>Node11</title>
<g id="a_Node000011"><a xlink:href="array_8hpp.html" target="_top" xlink:title=" ">
<polygon fill="white" stroke="#666666" points="1019,-90.5 894,-90.5 894,-71.5 1019,-71.5 1019,-90.5"/>
<text text-anchor="middle" x="956.5" y="-78.5" font-family="Helvetica,sans-Serif" font-size="10.00">serialization/array.hpp</text>
</a>
</g>
</g>
<!-- Node8&#45;&gt;Node11 -->
<g id="edge10_Node000008_Node000011" class="edge">
<title>Node8&#45;&gt;Node11</title>
<g id="a_edge10_Node000008_Node000011"><a xlink:title=" ">
<path fill="none" stroke="#63b8ff" d="M599.62,-133.39C602.62,-132.91 605.61,-132.44 608.5,-132 703.81,-117.36 814.01,-101.75 884.43,-91.94"/>
<polygon fill="#63b8ff" stroke="#63b8ff" points="885.1,-95.38 894.53,-90.54 884.14,-88.45 885.1,-95.38"/>
</a>
</g>
</g>
<!-- Node8&#45;&gt;Node20 -->
<g id="edge22_Node000008_Node000020" class="edge">
<title>Node8&#45;&gt;Node20</title>
<g id="a_edge22_Node000008_Node000020"><a xlink:title=" ">
<path fill="none" stroke="#63b8ff" d="M599.59,-133.2C602.6,-132.77 605.6,-132.36 608.5,-132 793.98,-108.91 841.67,-116.06 1027.5,-96 1247.53,-72.25 1510.7,-35.06 1605.89,-21.33"/>
<polygon fill="#63b8ff" stroke="#63b8ff" points="1606.48,-24.78 1615.88,-19.89 1605.48,-17.85 1606.48,-24.78"/>
</a>
</g>
</g>
<!-- Node21 -->
<g id="Node000021" class="node">
<title>Node21</title>
<g id="a_Node000021"><a xlink:title=" ">
<polygon fill="#e0e0e0" stroke="#999999" points="510,-96 403,-96 403,-66 510,-66 510,-96"/>
<text text-anchor="start" x="411" y="-84" font-family="Helvetica,sans-Serif" font-size="10.00">boost/serialization</text>
<text text-anchor="middle" x="456.5" y="-73" font-family="Helvetica,sans-Serif" font-size="10.00">/access.hpp</text>
</a>
</g>
</g>
<!-- Node8&#45;&gt;Node21 -->
<g id="edge20_Node000008_Node000021" class="edge">
<title>Node8&#45;&gt;Node21</title>
<g id="a_edge20_Node000008_Node000021"><a xlink:title=" ">
<path fill="none" stroke="#63b8ff" d="M541.74,-131.87C528.05,-123.86 507.18,-111.65 489.52,-101.31"/>
<polygon fill="#63b8ff" stroke="#63b8ff" points="491.03,-98.14 480.63,-96.11 487.49,-104.19 491.03,-98.14"/>
</a>
</g>
</g>
<!-- Node8&#45;&gt;Node22 -->
<g id="edge23_Node000008_Node000022" class="edge">
<title>Node8&#45;&gt;Node22</title>
<g id="a_edge23_Node000008_Node000022"><a xlink:title=" ">
<path fill="none" stroke="#63b8ff" d="M599.58,-133.07C602.59,-132.67 605.59,-132.31 608.5,-132 937.72,-97.24 1022.02,-115.45 1352.5,-96 1410.16,-92.61 1477.02,-87.8 1517.52,-84.8"/>
<polygon fill="#63b8ff" stroke="#63b8ff" points="1518.01,-88.27 1527.72,-84.03 1517.49,-81.29 1518.01,-88.27"/>
</a>
</g>
</g>
<!-- Node23 -->
<g id="Node000023" class="node">
<title>Node23</title>
<g id="a_Node000023"><a xlink:title=" ">
<polygon fill="#e0e0e0" stroke="#999999" points="585,-90.5 528,-90.5 528,-71.5 585,-71.5 585,-90.5"/>
<text text-anchor="middle" x="556.5" y="-78.5" font-family="Helvetica,sans-Serif" font-size="10.00">ostream</text>
</a>
</g>
</g>
<!-- Node8&#45;&gt;Node23 -->
<g id="edge24_Node000008_Node000023" class="edge">
<title>Node8&#45;&gt;Node23</title>
<g id="a_edge24_Node000008_Node000023"><a xlink:title=" ">
<path fill="none" stroke="#63b8ff" d="M556.5,-131.87C556.5,-123.75 556.5,-111.31 556.5,-100.89"/>
<polygon fill="#63b8ff" stroke="#63b8ff" points="560,-100.67 556.5,-90.67 553,-100.67 560,-100.67"/>
</a>
</g>
</g>
<!-- Node24 -->
<g id="Node000024" class="node">
<title>Node24</title>
<g id="a_Node000024"><a xlink:title=" ">
<polygon fill="#e0e0e0" stroke="#999999" points="668,-90.5 603,-90.5 603,-71.5 668,-71.5 668,-90.5"/>
<text text-anchor="middle" x="635.5" y="-78.5" font-family="Helvetica,sans-Serif" font-size="10.00">stdexcept</text>
</a>
</g>
</g>
<!-- Node8&#45;&gt;Node24 -->
<g id="edge25_Node000008_Node000024" class="edge">
<title>Node8&#45;&gt;Node24</title>
<g id="a_edge25_Node000008_Node000024"><a xlink:title=" ">
<path fill="none" stroke="#63b8ff" d="M568.16,-131.87C580.64,-122.62 600.68,-107.78 615.66,-96.69"/>
<polygon fill="#63b8ff" stroke="#63b8ff" points="617.84,-99.43 623.8,-90.67 613.68,-93.81 617.84,-99.43"/>
</a>
</g>
</g>
<!-- Node25 -->
<g id="Node000025" class="node">
<title>Node25</title>
<g id="a_Node000025"><a xlink:title=" ">
<polygon fill="#e0e0e0" stroke="#999999" points="727,-90.5 686,-90.5 686,-71.5 727,-71.5 727,-90.5"/>
<text text-anchor="middle" x="706.5" y="-78.5" font-family="Helvetica,sans-Serif" font-size="10.00">tuple</text>
</a>
</g>
</g>
<!-- Node8&#45;&gt;Node25 -->
<g id="edge26_Node000008_Node000025" class="edge">
<title>Node8&#45;&gt;Node25</title>
<g id="a_edge26_Node000008_Node000025"><a xlink:title=" ">
<path fill="none" stroke="#63b8ff" d="M581.55,-131.88C605.99,-123.32 644.11,-109.54 676.5,-96 677.51,-95.58 678.53,-95.14 679.56,-94.7"/>
<polygon fill="#63b8ff" stroke="#63b8ff" points="681.15,-97.82 688.84,-90.53 678.28,-91.43 681.15,-97.82"/>
</a>
</g>
</g>
<!-- Node26 -->
<g id="Node000026" class="node">
<title>Node26</title>
<g id="a_Node000026"><a xlink:title=" ">
<polygon fill="#e0e0e0" stroke="#999999" points="790,-90.5 745,-90.5 745,-71.5 790,-71.5 790,-90.5"/>
<text text-anchor="middle" x="767.5" y="-78.5" font-family="Helvetica,sans-Serif" font-size="10.00">utility</text>
</a>
</g>
</g>
<!-- Node8&#45;&gt;Node26 -->
<g id="edge27_Node000008_Node000026" class="edge">
<title>Node8&#45;&gt;Node26</title>
<g id="a_edge27_Node000008_Node000026"><a xlink:title=" ">
<path fill="none" stroke="#63b8ff" d="M599.4,-131.97C636.03,-124.18 689.88,-111.53 735.5,-96 736.94,-95.51 738.4,-94.99 739.86,-94.43"/>
<polygon fill="#63b8ff" stroke="#63b8ff" points="741.49,-97.55 749.43,-90.54 738.85,-91.06 741.49,-97.55"/>
</a>
</g>
</g>
<!-- Node9&#45;&gt;Node10 -->
<g id="edge9_Node000009_Node000010" class="edge">
<title>Node9&#45;&gt;Node10</title>
<g id="a_edge9_Node000009_Node000010"><a xlink:title=" ">
<path fill="none" stroke="#63b8ff" d="M327.5,-71.37C327.5,-62.16 327.5,-47.29 327.5,-35.27"/>
<polygon fill="#63b8ff" stroke="#63b8ff" points="331,-34.91 327.5,-24.91 324,-34.91 331,-34.91"/>
</a>
</g>
</g>
<!-- Node12 -->
<g id="Node000012" class="node">
<title>Node12</title>
<g id="a_Node000012"><a xlink:title=" ">
<polygon fill="#e0e0e0" stroke="#999999" points="1354,-24.5 1221,-24.5 1221,-5.5 1354,-5.5 1354,-24.5"/>
<text text-anchor="middle" x="1287.5" y="-12.5" font-family="Helvetica,sans-Serif" font-size="10.00">boost/mpl/bool_fwd.hpp</text>
</a>
</g>
</g>
<!-- Node11&#45;&gt;Node12 -->
<g id="edge11_Node000011_Node000012" class="edge">
<title>Node11&#45;&gt;Node12</title>
<g id="a_edge11_Node000011_Node000012"><a xlink:title=" ">
<path fill="none" stroke="#63b8ff" d="M1000.8,-71.44C1060.99,-59.8 1168.55,-39 1233.43,-26.45"/>
<polygon fill="#63b8ff" stroke="#63b8ff" points="1234.31,-29.85 1243.47,-24.51 1232.98,-22.98 1234.31,-29.85"/>
</a>
</g>
</g>
<!-- Node13 -->
<g id="Node000013" class="node">
<title>Node13</title>
<g id="a_Node000013"><a xlink:title=" ">
<polygon fill="#e0e0e0" stroke="#999999" points="1496.5,-24.5 1372.5,-24.5 1372.5,-5.5 1496.5,-5.5 1496.5,-24.5"/>
<text text-anchor="middle" x="1434.5" y="-12.5" font-family="Helvetica,sans-Serif" font-size="10.00">boost/mpl/greater.hpp</text>
</a>
</g>
</g>
<!-- Node11&#45;&gt;Node13 -->
<g id="edge12_Node000011_Node000013" class="edge">
<title>Node11&#45;&gt;Node13</title>
<g id="a_edge12_Node000011_Node000013"><a xlink:title=" ">
<path fill="none" stroke="#63b8ff" d="M1019.29,-73.64C1099.23,-65.22 1241.51,-49.19 1362.5,-30 1369.18,-28.94 1376.18,-27.72 1383.09,-26.45"/>
<polygon fill="#63b8ff" stroke="#63b8ff" points="1383.91,-29.85 1393.09,-24.56 1382.61,-22.98 1383.91,-29.85"/>
</a>
</g>
</g>
<!-- Node14 -->
<g id="Node000014" class="node">
<title>Node14</title>
<g id="a_Node000014"><a xlink:title=" ">
<polygon fill="#e0e0e0" stroke="#999999" points="528.5,-24.5 426.5,-24.5 426.5,-5.5 528.5,-5.5 528.5,-24.5"/>
<text text-anchor="middle" x="477.5" y="-12.5" font-family="Helvetica,sans-Serif" font-size="10.00">boost/mpl/int.hpp</text>
</a>
</g>
</g>
<!-- Node11&#45;&gt;Node14 -->
<g id="edge13_Node000011_Node000014" class="edge">
<title>Node11&#45;&gt;Node14</title>
<g id="a_edge13_Node000011_Node000014"><a xlink:title=" ">
<path fill="none" stroke="#63b8ff" d="M893.72,-72.9C785.41,-60.58 571.73,-36.02 537.5,-30 532.1,-29.05 526.46,-27.92 520.89,-26.72"/>
<polygon fill="#63b8ff" stroke="#63b8ff" points="521.53,-23.28 511,-24.51 520,-30.11 521.53,-23.28"/>
</a>
</g>
</g>
<!-- Node15 -->
<g id="Node000015" class="node">
<title>Node15</title>
<g id="a_Node000015"><a xlink:title=" ">
<polygon fill="#e0e0e0" stroke="#999999" points="652.5,-30 546.5,-30 546.5,0 652.5,0 652.5,-30"/>
<text text-anchor="start" x="554.5" y="-18" font-family="Helvetica,sans-Serif" font-size="10.00">boost/mpl/integral</text>
<text text-anchor="middle" x="599.5" y="-7" font-family="Helvetica,sans-Serif" font-size="10.00">_c_tag.hpp</text>
</a>
</g>
</g>
<!-- Node11&#45;&gt;Node15 -->
<g id="edge14_Node000011_Node000015" class="edge">
<title>Node11&#45;&gt;Node15</title>
<g id="a_edge14_Node000011_Node000015"><a xlink:title=" ">
<path fill="none" stroke="#63b8ff" d="M900.88,-71.49C843.6,-62.53 751.52,-47.54 662.55,-30.15"/>
<polygon fill="#63b8ff" stroke="#63b8ff" points="663.05,-26.68 652.56,-28.18 661.7,-33.54 663.05,-26.68"/>
</a>
</g>
</g>
<!-- Node16 -->
<g id="Node000016" class="node">
<title>Node16</title>
<g id="a_Node000016"><a xlink:title=" ">
<polygon fill="#e0e0e0" stroke="#999999" points="822,-30 671,-30 671,0 822,0 822,-30"/>
<text text-anchor="start" x="679" y="-18" font-family="Helvetica,sans-Serif" font-size="10.00">boost/serialization</text>
<text text-anchor="middle" x="746.5" y="-7" font-family="Helvetica,sans-Serif" font-size="10.00">/is_bitwise_serializable.hpp</text>
</a>
</g>
</g>
<!-- Node11&#45;&gt;Node16 -->
<g id="edge15_Node000011_Node000016" class="edge">
<title>Node11&#45;&gt;Node16</title>
<g id="a_edge15_Node000011_Node000016"><a xlink:title=" ">
<path fill="none" stroke="#63b8ff" d="M928.18,-71.37C896.12,-61.6 843.08,-45.43 802.56,-33.09"/>
<polygon fill="#63b8ff" stroke="#63b8ff" points="803.4,-29.68 792.82,-30.12 801.36,-36.38 803.4,-29.68"/>
</a>
</g>
</g>
<!-- Node17 -->
<g id="Node000017" class="node">
<title>Node17</title>
<g id="a_Node000017"><a xlink:title=" ">
<polygon fill="#e0e0e0" stroke="#999999" points="947,-30 840,-30 840,0 947,0 947,-30"/>
<text text-anchor="start" x="848" y="-18" font-family="Helvetica,sans-Serif" font-size="10.00">boost/serialization</text>
<text text-anchor="middle" x="893.5" y="-7" font-family="Helvetica,sans-Serif" font-size="10.00">/level.hpp</text>
</a>
</g>
</g>
<!-- Node11&#45;&gt;Node17 -->
<g id="edge16_Node000011_Node000017" class="edge">
<title>Node11&#45;&gt;Node17</title>
<g id="a_edge16_Node000011_Node000017"><a xlink:title=" ">
<path fill="none" stroke="#63b8ff" d="M948,-71.37C939.52,-62.75 926.13,-49.15 914.75,-37.59"/>
<polygon fill="#63b8ff" stroke="#63b8ff" points="917.15,-35.03 907.64,-30.36 912.16,-39.94 917.15,-35.03"/>
</a>
</g>
</g>
<!-- Node18 -->
<g id="Node000018" class="node">
<title>Node18</title>
<g id="a_Node000018"><a xlink:title=" ">
<polygon fill="#e0e0e0" stroke="#999999" points="1072,-30 965,-30 965,0 1072,0 1072,-30"/>
<text text-anchor="start" x="973" y="-18" font-family="Helvetica,sans-Serif" font-size="10.00">boost/serialization</text>
<text text-anchor="middle" x="1018.5" y="-7" font-family="Helvetica,sans-Serif" font-size="10.00">/tracking.hpp</text>
</a>
</g>
</g>
<!-- Node11&#45;&gt;Node18 -->
<g id="edge17_Node000011_Node000018" class="edge">
<title>Node11&#45;&gt;Node18</title>
<g id="a_edge17_Node000011_Node000018"><a xlink:title=" ">
<path fill="none" stroke="#63b8ff" d="M964.86,-71.37C973.21,-62.75 986.38,-49.15 997.58,-37.59"/>
<polygon fill="#63b8ff" stroke="#63b8ff" points="1000.14,-39.98 1004.59,-30.36 995.12,-35.11 1000.14,-39.98"/>
</a>
</g>
</g>
<!-- Node19 -->
<g id="Node000019" class="node">
<title>Node19</title>
<g id="a_Node000019"><a xlink:title=" ">
<polygon fill="#e0e0e0" stroke="#999999" points="1203,-30 1090,-30 1090,0 1203,0 1203,-30"/>
<text text-anchor="start" x="1098" y="-18" font-family="Helvetica,sans-Serif" font-size="10.00">boost/serialization</text>
<text text-anchor="middle" x="1146.5" y="-7" font-family="Helvetica,sans-Serif" font-size="10.00">/tracking_enum.hpp</text>
</a>
</g>
</g>
<!-- Node11&#45;&gt;Node19 -->
<g id="edge18_Node000011_Node000019" class="edge">
<title>Node11&#45;&gt;Node19</title>
<g id="a_edge18_Node000011_Node000019"><a xlink:title=" ">
<path fill="none" stroke="#63b8ff" d="M982.12,-71.37C1010.95,-61.66 1058.51,-45.64 1095.08,-33.32"/>
<polygon fill="#63b8ff" stroke="#63b8ff" points="1096.23,-36.62 1104.59,-30.12 1094,-29.99 1096.23,-36.62"/>
</a>
</g>
</g>
<!-- Node11&#45;&gt;Node20 -->
<g id="edge19_Node000011_Node000020" class="edge">
<title>Node11&#45;&gt;Node20</title>
<g id="a_edge19_Node000011_Node000020"><a xlink:title=" ">
<path fill="none" stroke="#63b8ff" d="M1019.09,-74.53C1121.04,-65.56 1329.26,-47.03 1505.5,-30 1539.58,-26.71 1578.4,-22.72 1606,-19.84"/>
<polygon fill="#63b8ff" stroke="#63b8ff" points="1606.41,-23.32 1615.99,-18.8 1605.68,-16.35 1606.41,-23.32"/>
</a>
</g>
</g>
</g>
</svg>

<g id="navigator" transform="translate(0 0)" fill="#404254">
  <rect fill="#f2f5e9" fill-opacity="0.5" stroke="#606060" stroke-width=".5" x="0" y="0" width="60" height="60"/>
  <use id="zoomplus" xlink:href="#zoomPlus" x="17" y="9" onmousedown="handleZoom(evt,'in')"/>
  <use id="zoomminus" xlink:href="#zoomMin" x="42" y="9" onmousedown="handleZoom(evt,'out')"/>
  <use id="reset" xlink:href="#resetDef" x="30" y="36" onmousedown="handleReset()"/>
   <use id="arrowup" xlink:href="#arrowUp" x="0" y="0" onmousedown="handlePan(0,-1)"/>
  <use id="arrowright" xlink:href="#arrowRight" x="0" y="0" onmousedown="handlePan(1,0)"/>
  <use id="arrowdown" xlink:href="#arrowDown" x="0" y="0" onmousedown="handlePan(0,1)"/>
  <use id="arrowleft" xlink:href="#arrowLeft" x="0" y="0" onmousedown="handlePan(-1,0)"/>
</g>
<svg viewBox="0 0 15 15" width="100%" height="30px" preserveAspectRatio="xMaxYMin meet">
 <g id="arrow_out" transform="scale(0.3 0.3)">
  <a xlink:href="npt_8hpp__incl_org.svg" target="_base">
   <rect id="button" ry="5" rx="5" y="6" x="6" height="38" width="38"
        fill="#f2f5e9" fill-opacity="0.5" stroke="#606060" stroke-width="1.0"/>
   <path id="arrow"
     d="M 11.500037,31.436501 C 11.940474,20.09759 22.043105,11.32322 32.158766,21.979434 L 37.068811,17.246167 C 37.068811,17.246167 37.088388,32 37.088388,32 L 22.160133,31.978069 C 22.160133,31.978069 26.997745,27.140456 26.997745,27.140456 C 18.528582,18.264221 13.291696,25.230495 11.500037,31.436501 z"
     style="fill:#404040;"/>
  </a>
 </g>
</svg>

<style type='text/css'>
<![CDATA[
[data-mouse-over-selected='false'] { opacity: 0.7; }
[data-mouse-over-selected='true']  { opacity: 1.0; }
]]>
</style>
<script type="application/ecmascript"><![CDATA[
document.addEventListener('DOMContentLoaded', (event) => {
  highlightEdges();
  highlightAdjacentNodes();
});
]]></script>
</svg>
