<?xml version="1.0" encoding="UTF-8" standalone="no"?>
<!DOCTYPE svg PUBLIC "-//W3C//DTD SVG 1.1//EN"
 "http://www.w3.org/Graphics/SVG/1.1/DTD/svg11.dtd">
<!-- Generated by graphviz version 2.43.0 (0)
 -->
<!-- Title: npt.hpp Pages: 1 -->
<svg width="1735pt" height="269pt"
 viewBox="0.00 0.00 1734.50 269.00" xmlns="http://www.w3.org/2000/svg" xmlns:xlink="http://www.w3.org/1999/xlink">
<g id="graph0" class="graph" transform="scale(1 1) rotate(0) translate(4 265)">
<title>npt.hpp</title>
<!-- Node1 -->
<g id="Node000001" class="node">
<title>Node1</title>
<g id="a_Node000001"><a xlink:title="Exports for the NpT code.">
<polygon fill="#999999" stroke="#666666" points="1631,-261 1578,-261 1578,-242 1631,-242 1631,-261"/>
<text text-anchor="middle" x="1604.5" y="-249" font-family="Helvetica,sans-Serif" font-size="10.00">npt.hpp</text>
</a>
</g>
</g>
<!-- Node2 -->
<g id="Node000002" class="node">
<title>Node2</title>
<g id="a_Node000002"><a xlink:href="config_8hpp.html" target="_top" xlink:title=" ">
<polygon fill="white" stroke="#666666" points="507,-206 408,-206 408,-187 507,-187 507,-206"/>
<text text-anchor="middle" x="457.5" y="-194" font-family="Helvetica,sans-Serif" font-size="10.00">config/config.hpp</text>
</a>
</g>
</g>
<!-- Node1&#45;&gt;Node2 -->
<g id="edge1_Node000001_Node000002" class="edge">
<title>Node1&#45;&gt;Node2</title>
<g id="a_edge1_Node000001_Node000002"><a xlink:title=" ">
<path fill="none" stroke="#63b8ff" d="M1577.84,-249.27C1431.88,-242.52 728.62,-210.03 517.53,-200.27"/>
<polygon fill="#63b8ff" stroke="#63b8ff" points="517.41,-196.76 507.26,-199.8 517.09,-203.76 517.41,-196.76"/>
</a>
</g>
</g>
<!-- Node4 -->
<g id="Node000004" class="node">
<title>Node4</title>
<g id="a_Node000004"><a xlink:href="Vector_8hpp.html" target="_top" xlink:title="Vector implementation and trait types for boost qvm interoperability.">
<polygon fill="white" stroke="#666666" points="1003.5,-206 911.5,-206 911.5,-187 1003.5,-187 1003.5,-206"/>
<text text-anchor="middle" x="957.5" y="-194" font-family="Helvetica,sans-Serif" font-size="10.00">utils/Vector.hpp</text>
</a>
</g>
</g>
<!-- Node1&#45;&gt;Node4 -->
<g id="edge3_Node000001_Node000004" class="edge">
<title>Node1&#45;&gt;Node4</title>
<g id="a_edge3_Node000001_Node000004"><a xlink:title=" ">
<path fill="none" stroke="#63b8ff" d="M1577.93,-248.32C1481.41,-240.42 1147.95,-213.1 1013.93,-202.12"/>
<polygon fill="#63b8ff" stroke="#63b8ff" points="1014.12,-198.63 1003.87,-201.3 1013.55,-205.6 1014.12,-198.63"/>
</a>
</g>
</g>
<!-- Node19 -->
<g id="Node000019" class="node">
<title>Node19</title>
<g id="a_Node000019"><a xlink:title=" ">
<polygon fill="#e0e0e0" stroke="#999999" points="1563,-24.5 1510,-24.5 1510,-5.5 1563,-5.5 1563,-24.5"/>
<text text-anchor="middle" x="1536.5" y="-12.5" font-family="Helvetica,sans-Serif" font-size="10.00">cstddef</text>
</a>
</g>
</g>
<!-- Node1&#45;&gt;Node19 -->
<g id="edge41_Node000001_Node000019" class="edge">
<title>Node1&#45;&gt;Node19</title>
<g id="a_edge41_Node000001_Node000019"><a xlink:title=" ">
<path fill="none" stroke="#63b8ff" d="M1610.7,-241.71C1623.91,-221.83 1652.47,-172 1637.5,-132 1621.25,-88.6 1580.62,-50.74 1556.13,-30.84"/>
<polygon fill="#63b8ff" stroke="#63b8ff" points="1558.22,-28.04 1548.21,-24.58 1553.88,-33.53 1558.22,-28.04"/>
</a>
</g>
</g>
<!-- Node35 -->
<g id="Node000035" class="node">
<title>Node35</title>
<g id="a_Node000035"><a xlink:title=" ">
<polygon fill="#e0e0e0" stroke="#999999" points="1628,-151 1581,-151 1581,-132 1628,-132 1628,-151"/>
<text text-anchor="middle" x="1604.5" y="-139" font-family="Helvetica,sans-Serif" font-size="10.00">vector</text>
</a>
</g>
</g>
<!-- Node1&#45;&gt;Node35 -->
<g id="edge42_Node000001_Node000035" class="edge">
<title>Node1&#45;&gt;Node35</title>
<g id="a_edge42_Node000001_Node000035"><a xlink:title=" ">
<path fill="none" stroke="#63b8ff" d="M1604.5,-241.66C1604.5,-224.17 1604.5,-184.8 1604.5,-161.27"/>
<polygon fill="#63b8ff" stroke="#63b8ff" points="1608,-161.16 1604.5,-151.16 1601,-161.16 1608,-161.16"/>
</a>
</g>
</g>
<!-- Node36 -->
<g id="Node000036" class="node">
<title>Node36</title>
<g id="a_Node000036"><a xlink:title=" ">
<polygon fill="#e0e0e0" stroke="#999999" points="1726.5,-206 1684.5,-206 1684.5,-187 1726.5,-187 1726.5,-206"/>
<text text-anchor="middle" x="1705.5" y="-194" font-family="Helvetica,sans-Serif" font-size="10.00">array</text>
</a>
</g>
</g>
<!-- Node1&#45;&gt;Node36 -->
<g id="edge40_Node000001_Node000036" class="edge">
<title>Node1&#45;&gt;Node36</title>
<g id="a_edge40_Node000001_Node000036"><a xlink:title=" ">
<path fill="none" stroke="#63b8ff" d="M1620.73,-241.98C1636.68,-233.61 1661.28,-220.7 1679.88,-210.95"/>
<polygon fill="#63b8ff" stroke="#63b8ff" points="1681.75,-213.92 1688.98,-206.17 1678.5,-207.72 1681.75,-213.92"/>
</a>
</g>
</g>
<!-- Node3 -->
<g id="Node000003" class="node">
<title>Node3</title>
<g id="a_Node000003"><a xlink:title=" ">
<polygon fill="#e0e0e0" stroke="#999999" points="143,-151 0,-151 0,-132 143,-132 143,-151"/>
<text text-anchor="middle" x="71.5" y="-139" font-family="Helvetica,sans-Serif" font-size="10.00">config/config&#45;features.hpp</text>
</a>
</g>
</g>
<!-- Node2&#45;&gt;Node3 -->
<g id="edge2_Node000002_Node000003" class="edge">
<title>Node2&#45;&gt;Node3</title>
<g id="a_edge2_Node000002_Node000003"><a xlink:title=" ">
<path fill="none" stroke="#63b8ff" d="M407.83,-188.68C340.7,-179.46 220.56,-162.97 143.52,-152.39"/>
<polygon fill="#63b8ff" stroke="#63b8ff" points="143.8,-148.89 133.41,-151 142.84,-155.83 143.8,-148.89"/>
</a>
</g>
</g>
<!-- Node5 -->
<g id="Node000005" class="node">
<title>Node5</title>
<g id="a_Node000005"><a xlink:title=" ">
<polygon fill="#e0e0e0" stroke="#999999" points="1366.5,-151 1216.5,-151 1216.5,-132 1366.5,-132 1366.5,-151"/>
<text text-anchor="middle" x="1291.5" y="-139" font-family="Helvetica,sans-Serif" font-size="10.00">boost/qvm/deduce_vec.hpp</text>
</a>
</g>
</g>
<!-- Node4&#45;&gt;Node5 -->
<g id="edge4_Node000004_Node000005" class="edge">
<title>Node4&#45;&gt;Node5</title>
<g id="a_edge4_Node000004_Node000005"><a xlink:title=" ">
<path fill="none" stroke="#63b8ff" d="M1003.59,-188.19C1061.77,-178.95 1162.15,-163.03 1227.68,-152.63"/>
<polygon fill="#63b8ff" stroke="#63b8ff" points="1228.55,-156.03 1237.88,-151.01 1227.46,-149.12 1228.55,-156.03"/>
</a>
</g>
</g>
<!-- Node6 -->
<g id="Node000006" class="node">
<title>Node6</title>
<g id="a_Node000006"><a xlink:title=" ">
<polygon fill="#e0e0e0" stroke="#999999" points="1524.5,-151 1384.5,-151 1384.5,-132 1524.5,-132 1524.5,-151"/>
<text text-anchor="middle" x="1454.5" y="-139" font-family="Helvetica,sans-Serif" font-size="10.00">boost/qvm/vec_traits.hpp</text>
</a>
</g>
</g>
<!-- Node4&#45;&gt;Node6 -->
<g id="edge5_Node000004_Node000006" class="edge">
<title>Node4&#45;&gt;Node6</title>
<g id="a_edge5_Node000004_Node000006"><a xlink:title=" ">
<path fill="none" stroke="#63b8ff" d="M1003.58,-190.61C1078.79,-182.63 1232.9,-166.26 1374.14,-151.14"/>
<polygon fill="#63b8ff" stroke="#63b8ff" points="1374.72,-154.6 1384.29,-150.06 1373.97,-147.64 1374.72,-154.6"/>
</a>
</g>
</g>
<!-- Node7 -->
<g id="Node000007" class="node">
<title>Node7</title>
<g id="a_Node000007"><a xlink:href="Array_8hpp.html" target="_top" xlink:title="Array implementation with CUDA support.">
<polygon fill="white" stroke="#666666" points="500.5,-151 414.5,-151 414.5,-132 500.5,-132 500.5,-151"/>
<text text-anchor="middle" x="457.5" y="-139" font-family="Helvetica,sans-Serif" font-size="10.00">utils/Array.hpp</text>
</a>
</g>
</g>
<!-- Node4&#45;&gt;Node7 -->
<g id="edge6_Node000004_Node000007" class="edge">
<title>Node4&#45;&gt;Node7</title>
<g id="a_edge6_Node000004_Node000007"><a xlink:title=" ">
<path fill="none" stroke="#63b8ff" d="M911.28,-191.88C831.64,-185.42 663.21,-170.84 510.63,-151.07"/>
<polygon fill="#63b8ff" stroke="#63b8ff" points="510.97,-147.58 500.6,-149.76 510.06,-154.53 510.97,-147.58"/>
</a>
</g>
</g>
<!-- Node9 -->
<g id="Node000009" class="node">
<title>Node9</title>
<g id="a_Node000009"><a xlink:title=" ">
<polygon fill="#e0e0e0" stroke="#999999" points="354.5,-24.5 302.5,-24.5 302.5,-5.5 354.5,-5.5 354.5,-24.5"/>
<text text-anchor="middle" x="328.5" y="-12.5" font-family="Helvetica,sans-Serif" font-size="10.00">cassert</text>
</a>
</g>
</g>
<!-- Node4&#45;&gt;Node9 -->
<g id="edge28_Node000004_Node000009" class="edge">
<title>Node4&#45;&gt;Node9</title>
<g id="a_edge28_Node000004_Node000009"><a xlink:title=" ">
<path fill="none" stroke="#63b8ff" d="M911.26,-193.82C787.42,-189.05 450.28,-174.27 341.5,-151 271.66,-136.06 231.46,-154.51 190.5,-96 161.81,-55.02 242.33,-32.04 292.22,-22.06"/>
<polygon fill="#63b8ff" stroke="#63b8ff" points="293.18,-25.44 302.34,-20.13 291.87,-18.56 293.18,-25.44"/>
</a>
</g>
</g>
<!-- Node4&#45;&gt;Node19 -->
<g id="edge31_Node000004_Node000019" class="edge">
<title>Node4&#45;&gt;Node19</title>
<g id="a_edge31_Node000004_Node000019"><a xlink:title=" ">
<path fill="none" stroke="#63b8ff" d="M1003.57,-195.41C1133.76,-194.67 1497.35,-189.2 1533.5,-151 1563.22,-119.6 1551.68,-63.37 1542.9,-34.39"/>
<polygon fill="#63b8ff" stroke="#63b8ff" points="1546.18,-33.15 1539.76,-24.72 1539.52,-35.32 1546.18,-33.15"/>
</a>
</g>
</g>
<!-- Node21 -->
<g id="Node000021" class="node">
<title>Node21</title>
<g id="a_Node000021"><a xlink:title=" ">
<polygon fill="#e0e0e0" stroke="#999999" points="253,-90.5 200,-90.5 200,-71.5 253,-71.5 253,-90.5"/>
<text text-anchor="middle" x="226.5" y="-78.5" font-family="Helvetica,sans-Serif" font-size="10.00">iterator</text>
</a>
</g>
</g>
<!-- Node4&#45;&gt;Node21 -->
<g id="edge34_Node000004_Node000021" class="edge">
<title>Node4&#45;&gt;Node21</title>
<g id="a_edge34_Node000004_Node000021"><a xlink:title=" ">
<path fill="none" stroke="#63b8ff" d="M911.39,-196.2C815.78,-196.7 589.48,-192.88 405.5,-151 349.34,-138.22 287.37,-111.22 253.07,-95.04"/>
<polygon fill="#63b8ff" stroke="#63b8ff" points="254.29,-91.74 243.75,-90.59 251.27,-98.06 254.29,-91.74"/>
</a>
</g>
</g>
<!-- Node26 -->
<g id="Node000026" class="node">
<title>Node26</title>
<g id="a_Node000026"><a xlink:title=" ">
<polygon fill="#e0e0e0" stroke="#999999" points="582.5,-151 518.5,-151 518.5,-132 582.5,-132 582.5,-151"/>
<text text-anchor="middle" x="550.5" y="-139" font-family="Helvetica,sans-Serif" font-size="10.00">algorithm</text>
</a>
</g>
</g>
<!-- Node4&#45;&gt;Node26 -->
<g id="edge27_Node000004_Node000026" class="edge">
<title>Node4&#45;&gt;Node26</title>
<g id="a_edge27_Node000004_Node000026"><a xlink:title=" ">
<path fill="none" stroke="#63b8ff" d="M911.39,-191.14C843.73,-184.47 713.36,-170.58 592.82,-151.09"/>
<polygon fill="#63b8ff" stroke="#63b8ff" points="593.12,-147.59 582.68,-149.44 591.99,-154.5 593.12,-147.59"/>
</a>
</g>
</g>
<!-- Node27 -->
<g id="Node000027" class="node">
<title>Node27</title>
<g id="a_Node000027"><a xlink:title=" ">
<polygon fill="#e0e0e0" stroke="#999999" points="648,-151 601,-151 601,-132 648,-132 648,-151"/>
<text text-anchor="middle" x="624.5" y="-139" font-family="Helvetica,sans-Serif" font-size="10.00">cmath</text>
</a>
</g>
</g>
<!-- Node4&#45;&gt;Node27 -->
<g id="edge29_Node000004_Node000027" class="edge">
<title>Node4&#45;&gt;Node27</title>
<g id="a_edge29_Node000004_Node000027"><a xlink:title=" ">
<path fill="none" stroke="#63b8ff" d="M911.5,-190.2C854.36,-183.28 753.74,-169.99 658.06,-150.91"/>
<polygon fill="#63b8ff" stroke="#63b8ff" points="658.72,-147.48 648.22,-148.93 657.33,-154.34 658.72,-147.48"/>
</a>
</g>
</g>
<!-- Node28 -->
<g id="Node000028" class="node">
<title>Node28</title>
<g id="a_Node000028"><a xlink:title=" ">
<polygon fill="#e0e0e0" stroke="#999999" points="726.5,-151 666.5,-151 666.5,-132 726.5,-132 726.5,-151"/>
<text text-anchor="middle" x="696.5" y="-139" font-family="Helvetica,sans-Serif" font-size="10.00">concepts</text>
</a>
</g>
</g>
<!-- Node4&#45;&gt;Node28 -->
<g id="edge30_Node000004_Node000028" class="edge">
<title>Node4&#45;&gt;Node28</title>
<g id="a_edge30_Node000004_Node000028"><a xlink:title=" ">
<path fill="none" stroke="#63b8ff" d="M913.65,-186.94C870.94,-178.54 803.91,-165.24 736.65,-151.21"/>
<polygon fill="#63b8ff" stroke="#63b8ff" points="737.23,-147.76 726.72,-149.14 735.8,-154.61 737.23,-147.76"/>
</a>
</g>
</g>
<!-- Node29 -->
<g id="Node000029" class="node">
<title>Node29</title>
<g id="a_Node000029"><a xlink:title=" ">
<polygon fill="#e0e0e0" stroke="#999999" points="810,-151 745,-151 745,-132 810,-132 810,-151"/>
<text text-anchor="middle" x="777.5" y="-139" font-family="Helvetica,sans-Serif" font-size="10.00">functional</text>
</a>
</g>
</g>
<!-- Node4&#45;&gt;Node29 -->
<g id="edge32_Node000004_Node000029" class="edge">
<title>Node4&#45;&gt;Node29</title>
<g id="a_edge32_Node000004_Node000029"><a xlink:title=" ">
<path fill="none" stroke="#63b8ff" d="M928.58,-186.98C898.23,-178.05 850.33,-163.94 816.62,-154.02"/>
<polygon fill="#63b8ff" stroke="#63b8ff" points="817.23,-150.55 806.65,-151.08 815.25,-157.26 817.23,-150.55"/>
</a>
</g>
</g>
<!-- Node30 -->
<g id="Node000030" class="node">
<title>Node30</title>
<g id="a_Node000030"><a xlink:title=" ">
<polygon fill="#e0e0e0" stroke="#999999" points="911,-151 828,-151 828,-132 911,-132 911,-151"/>
<text text-anchor="middle" x="869.5" y="-139" font-family="Helvetica,sans-Serif" font-size="10.00">initializer_list</text>
</a>
</g>
</g>
<!-- Node4&#45;&gt;Node30 -->
<g id="edge33_Node000004_Node000030" class="edge">
<title>Node4&#45;&gt;Node30</title>
<g id="a_edge33_Node000004_Node000030"><a xlink:title=" ">
<path fill="none" stroke="#63b8ff" d="M943.36,-186.98C929.71,-178.77 908.81,-166.18 892.72,-156.49"/>
<polygon fill="#63b8ff" stroke="#63b8ff" points="894.27,-153.33 883.9,-151.17 890.66,-159.33 894.27,-153.33"/>
</a>
</g>
</g>
<!-- Node31 -->
<g id="Node000031" class="node">
<title>Node31</title>
<g id="a_Node000031"><a xlink:title=" ">
<polygon fill="#e0e0e0" stroke="#999999" points="985.5,-151 929.5,-151 929.5,-132 985.5,-132 985.5,-151"/>
<text text-anchor="middle" x="957.5" y="-139" font-family="Helvetica,sans-Serif" font-size="10.00">numeric</text>
</a>
</g>
</g>
<!-- Node4&#45;&gt;Node31 -->
<g id="edge35_Node000004_Node000031" class="edge">
<title>Node4&#45;&gt;Node31</title>
<g id="a_edge35_Node000004_Node000031"><a xlink:title=" ">
<path fill="none" stroke="#63b8ff" d="M957.5,-186.75C957.5,-179.8 957.5,-169.85 957.5,-161.13"/>
<polygon fill="#63b8ff" stroke="#63b8ff" points="961,-161.09 957.5,-151.09 954,-161.09 961,-161.09"/>
</a>
</g>
</g>
<!-- Node32 -->
<g id="Node000032" class="node">
<title>Node32</title>
<g id="a_Node000032"><a xlink:title=" ">
<polygon fill="#e0e0e0" stroke="#999999" points="1053.5,-151 1003.5,-151 1003.5,-132 1053.5,-132 1053.5,-151"/>
<text text-anchor="middle" x="1028.5" y="-139" font-family="Helvetica,sans-Serif" font-size="10.00">ranges</text>
</a>
</g>
</g>
<!-- Node4&#45;&gt;Node32 -->
<g id="edge36_Node000004_Node000032" class="edge">
<title>Node4&#45;&gt;Node32</title>
<g id="a_edge36_Node000004_Node000032"><a xlink:title=" ">
<path fill="none" stroke="#63b8ff" d="M968.91,-186.98C979.61,-179 995.84,-166.88 1008.66,-157.31"/>
<polygon fill="#63b8ff" stroke="#63b8ff" points="1010.97,-159.96 1016.89,-151.17 1006.78,-154.35 1010.97,-159.96"/>
</a>
</g>
</g>
<!-- Node33 -->
<g id="Node000033" class="node">
<title>Node33</title>
<g id="a_Node000033"><a xlink:title=" ">
<polygon fill="#e0e0e0" stroke="#999999" points="1111.5,-151 1071.5,-151 1071.5,-132 1111.5,-132 1111.5,-151"/>
<text text-anchor="middle" x="1091.5" y="-139" font-family="Helvetica,sans-Serif" font-size="10.00">span</text>
</a>
</g>
</g>
<!-- Node4&#45;&gt;Node33 -->
<g id="edge37_Node000004_Node000033" class="edge">
<title>Node4&#45;&gt;Node33</title>
<g id="a_edge37_Node000004_Node000033"><a xlink:title=" ">
<path fill="none" stroke="#63b8ff" d="M979.03,-186.98C1001.5,-178.1 1036.88,-164.1 1061.95,-154.19"/>
<polygon fill="#63b8ff" stroke="#63b8ff" points="1063.33,-157.41 1071.34,-150.47 1060.75,-150.9 1063.33,-157.41"/>
</a>
</g>
</g>
<!-- Node34 -->
<g id="Node000034" class="node">
<title>Node34</title>
<g id="a_Node000034"><a xlink:title=" ">
<polygon fill="#e0e0e0" stroke="#999999" points="1199,-151 1130,-151 1130,-132 1199,-132 1199,-151"/>
<text text-anchor="middle" x="1164.5" y="-139" font-family="Helvetica,sans-Serif" font-size="10.00">type_traits</text>
</a>
</g>
</g>
<!-- Node4&#45;&gt;Node34 -->
<g id="edge38_Node000004_Node000034" class="edge">
<title>Node4&#45;&gt;Node34</title>
<g id="a_edge38_Node000004_Node000034"><a xlink:title=" ">
<path fill="none" stroke="#63b8ff" d="M990.76,-186.98C1026.11,-177.93 1082.17,-163.58 1121.01,-153.64"/>
<polygon fill="#63b8ff" stroke="#63b8ff" points="1122.16,-156.95 1130.98,-151.08 1120.43,-150.17 1122.16,-156.95"/>
</a>
</g>
</g>
<!-- Node4&#45;&gt;Node35 -->
<g id="edge39_Node000004_Node000035" class="edge">
<title>Node4&#45;&gt;Node35</title>
<g id="a_edge39_Node000004_Node000035"><a xlink:title=" ">
<path fill="none" stroke="#63b8ff" d="M1003.59,-194.44C1105.57,-191.6 1357.8,-181.8 1566.5,-151 1567.96,-150.78 1569.45,-150.54 1570.96,-150.28"/>
<polygon fill="#63b8ff" stroke="#63b8ff" points="1571.74,-153.7 1580.88,-148.35 1570.4,-146.83 1571.74,-153.7"/>
</a>
</g>
</g>
<!-- Node8 -->
<g id="Node000008" class="node">
<title>Node8</title>
<g id="a_Node000008"><a xlink:href="device__qualifier_8hpp.html" target="_top" xlink:title=" ">
<polygon fill="white" stroke="#666666" points="385.5,-90.5 271.5,-90.5 271.5,-71.5 385.5,-71.5 385.5,-90.5"/>
<text text-anchor="middle" x="328.5" y="-78.5" font-family="Helvetica,sans-Serif" font-size="10.00">device_qualifier.hpp</text>
</a>
</g>
</g>
<!-- Node7&#45;&gt;Node8 -->
<g id="edge7_Node000007_Node000008" class="edge">
<title>Node7&#45;&gt;Node8</title>
<g id="a_edge7_Node000007_Node000008"><a xlink:title=" ">
<path fill="none" stroke="#63b8ff" d="M438.74,-131.99C417.15,-122.2 381.47,-106.02 356.57,-94.73"/>
<polygon fill="#63b8ff" stroke="#63b8ff" points="357.83,-91.46 347.28,-90.52 354.94,-97.83 357.83,-91.46"/>
</a>
</g>
</g>
<!-- Node7&#45;&gt;Node9 -->
<g id="edge20_Node000007_Node000009" class="edge">
<title>Node7&#45;&gt;Node9</title>
<g id="a_edge20_Node000007_Node000009"><a xlink:title=" ">
<path fill="none" stroke="#63b8ff" d="M500.61,-133.32C503.62,-132.86 506.6,-132.42 509.5,-132 640.34,-113.19 888.88,-163.39 799.5,-66 767.9,-31.57 426.52,-38.11 380.5,-30 375.34,-29.09 369.94,-27.91 364.66,-26.62"/>
<polygon fill="#63b8ff" stroke="#63b8ff" points="365.31,-23.17 354.75,-24.04 363.55,-29.94 365.31,-23.17"/>
</a>
</g>
</g>
<!-- Node10 -->
<g id="Node000010" class="node">
<title>Node10</title>
<g id="a_Node000010"><a xlink:href="array_8hpp.html" target="_top" xlink:title=" ">
<polygon fill="white" stroke="#666666" points="1001,-90.5 876,-90.5 876,-71.5 1001,-71.5 1001,-90.5"/>
<text text-anchor="middle" x="938.5" y="-78.5" font-family="Helvetica,sans-Serif" font-size="10.00">serialization/array.hpp</text>
</a>
</g>
</g>
<!-- Node7&#45;&gt;Node10 -->
<g id="edge9_Node000007_Node000010" class="edge">
<title>Node7&#45;&gt;Node10</title>
<g id="a_edge9_Node000007_Node000010"><a xlink:title=" ">
<path fill="none" stroke="#63b8ff" d="M500.6,-133.28C503.61,-132.83 506.6,-132.4 509.5,-132 653.04,-112.31 689.68,-113.58 833.5,-96 844.12,-94.7 855.34,-93.27 866.33,-91.83"/>
<polygon fill="#63b8ff" stroke="#63b8ff" points="866.89,-95.29 876.34,-90.52 865.97,-88.35 866.89,-95.29"/>
</a>
</g>
</g>
<!-- Node7&#45;&gt;Node19 -->
<g id="edge21_Node000007_Node000019" class="edge">
<title>Node7&#45;&gt;Node19</title>
<g id="a_edge21_Node000007_Node000019"><a xlink:title=" ">
<path fill="none" stroke="#63b8ff" d="M500.59,-133.15C503.6,-132.73 506.59,-132.34 509.5,-132 730.78,-106 787.98,-119.87 1009.5,-96 1214.41,-73.92 1265.48,-65.46 1468.5,-30 1478.74,-28.21 1489.8,-26.04 1499.96,-23.94"/>
<polygon fill="#63b8ff" stroke="#63b8ff" points="1500.69,-27.37 1509.76,-21.89 1499.26,-20.52 1500.69,-27.37"/>
</a>
</g>
</g>
<!-- Node20 -->
<g id="Node000020" class="node">
<title>Node20</title>
<g id="a_Node000020"><a xlink:title=" ">
<polygon fill="#e0e0e0" stroke="#999999" points="511,-96 404,-96 404,-66 511,-66 511,-96"/>
<text text-anchor="start" x="412" y="-84" font-family="Helvetica,sans-Serif" font-size="10.00">boost/serialization</text>
<text text-anchor="middle" x="457.5" y="-73" font-family="Helvetica,sans-Serif" font-size="10.00">/access.hpp</text>
</a>
</g>
</g>
<!-- Node7&#45;&gt;Node20 -->
<g id="edge19_Node000007_Node000020" class="edge">
<title>Node7&#45;&gt;Node20</title>
<g id="a_edge19_Node000007_Node000020"><a xlink:title=" ">
<path fill="none" stroke="#63b8ff" d="M457.5,-131.87C457.5,-125.11 457.5,-115.35 457.5,-106.26"/>
<polygon fill="#63b8ff" stroke="#63b8ff" points="461,-106.11 457.5,-96.11 454,-106.11 461,-106.11"/>
</a>
</g>
</g>
<!-- Node7&#45;&gt;Node21 -->
<g id="edge22_Node000007_Node000021" class="edge">
<title>Node7&#45;&gt;Node21</title>
<g id="a_edge22_Node000007_Node000021"><a xlink:title=" ">
<path fill="none" stroke="#63b8ff" d="M414.42,-132.56C374.59,-124.77 313.96,-111.78 262.5,-96 260.58,-95.41 258.61,-94.77 256.64,-94.09"/>
<polygon fill="#63b8ff" stroke="#63b8ff" points="257.47,-90.67 246.88,-90.52 255.07,-97.24 257.47,-90.67"/>
</a>
</g>
</g>
<!-- Node22 -->
<g id="Node000022" class="node">
<title>Node22</title>
<g id="a_Node000022"><a xlink:title=" ">
<polygon fill="#e0e0e0" stroke="#999999" points="586,-90.5 529,-90.5 529,-71.5 586,-71.5 586,-90.5"/>
<text text-anchor="middle" x="557.5" y="-78.5" font-family="Helvetica,sans-Serif" font-size="10.00">ostream</text>
</a>
</g>
</g>
<!-- Node7&#45;&gt;Node22 -->
<g id="edge23_Node000007_Node000022" class="edge">
<title>Node7&#45;&gt;Node22</title>
<g id="a_edge23_Node000007_Node000022"><a xlink:title=" ">
<path fill="none" stroke="#63b8ff" d="M472.26,-131.87C488.5,-122.36 514.85,-106.95 533.96,-95.77"/>
<polygon fill="#63b8ff" stroke="#63b8ff" points="535.82,-98.74 542.68,-90.67 532.29,-92.7 535.82,-98.74"/>
</a>
</g>
</g>
<!-- Node23 -->
<g id="Node000023" class="node">
<title>Node23</title>
<g id="a_Node000023"><a xlink:title=" ">
<polygon fill="#e0e0e0" stroke="#999999" points="669,-90.5 604,-90.5 604,-71.5 669,-71.5 669,-90.5"/>
<text text-anchor="middle" x="636.5" y="-78.5" font-family="Helvetica,sans-Serif" font-size="10.00">stdexcept</text>
</a>
</g>
</g>
<!-- Node7&#45;&gt;Node23 -->
<g id="edge24_Node000007_Node000023" class="edge">
<title>Node7&#45;&gt;Node23</title>
<g id="a_edge24_Node000007_Node000023"><a xlink:title=" ">
<path fill="none" stroke="#63b8ff" d="M484.04,-131.95C511.65,-123.03 556.14,-108.62 594.5,-96 596.64,-95.3 598.83,-94.57 601.05,-93.84"/>
<polygon fill="#63b8ff" stroke="#63b8ff" points="602.36,-97.09 610.74,-90.62 600.15,-90.45 602.36,-97.09"/>
</a>
</g>
</g>
<!-- Node24 -->
<g id="Node000024" class="node">
<title>Node24</title>
<g id="a_Node000024"><a xlink:title=" ">
<polygon fill="#e0e0e0" stroke="#999999" points="728,-90.5 687,-90.5 687,-71.5 728,-71.5 728,-90.5"/>
<text text-anchor="middle" x="707.5" y="-78.5" font-family="Helvetica,sans-Serif" font-size="10.00">tuple</text>
</a>
</g>
</g>
<!-- Node7&#45;&gt;Node24 -->
<g id="edge25_Node000007_Node000024" class="edge">
<title>Node7&#45;&gt;Node24</title>
<g id="a_edge25_Node000007_Node000024"><a xlink:title=" ">
<path fill="none" stroke="#63b8ff" d="M500.84,-132.99C555.24,-123.35 645.3,-106.6 677.5,-96 678.9,-95.54 680.32,-95.03 681.74,-94.49"/>
<polygon fill="#63b8ff" stroke="#63b8ff" points="683.13,-97.7 690.97,-90.57 680.39,-91.26 683.13,-97.7"/>
</a>
</g>
</g>
<!-- Node25 -->
<g id="Node000025" class="node">
<title>Node25</title>
<g id="a_Node000025"><a xlink:title=" ">
<polygon fill="#e0e0e0" stroke="#999999" points="791,-90.5 746,-90.5 746,-71.5 791,-71.5 791,-90.5"/>
<text text-anchor="middle" x="768.5" y="-78.5" font-family="Helvetica,sans-Serif" font-size="10.00">utility</text>
</a>
</g>
</g>
<!-- Node7&#45;&gt;Node25 -->
<g id="edge26_Node000007_Node000025" class="edge">
<title>Node7&#45;&gt;Node25</title>
<g id="a_edge26_Node000007_Node000025"><a xlink:title=" ">
<path fill="none" stroke="#63b8ff" d="M500.63,-133.43C503.63,-132.95 506.61,-132.47 509.5,-132 610.35,-115.76 638.47,-124.71 736.5,-96 738.18,-95.51 739.89,-94.95 741.6,-94.34"/>
<polygon fill="#63b8ff" stroke="#63b8ff" points="743.2,-97.48 751.2,-90.53 740.61,-90.97 743.2,-97.48"/>
</a>
</g>
</g>
<!-- Node8&#45;&gt;Node9 -->
<g id="edge8_Node000008_Node000009" class="edge">
<title>Node8&#45;&gt;Node9</title>
<g id="a_edge8_Node000008_Node000009"><a xlink:title=" ">
<path fill="none" stroke="#63b8ff" d="M328.5,-71.37C328.5,-62.16 328.5,-47.29 328.5,-35.27"/>
<polygon fill="#63b8ff" stroke="#63b8ff" points="332,-34.91 328.5,-24.91 325,-34.91 332,-34.91"/>
</a>
</g>
</g>
<!-- Node11 -->
<g id="Node000011" class="node">
<title>Node11</title>
<g id="a_Node000011"><a xlink:title=" ">
<polygon fill="#e0e0e0" stroke="#999999" points="1317,-24.5 1184,-24.5 1184,-5.5 1317,-5.5 1317,-24.5"/>
<text text-anchor="middle" x="1250.5" y="-12.5" font-family="Helvetica,sans-Serif" font-size="10.00">boost/mpl/bool_fwd.hpp</text>
</a>
</g>
</g>
<!-- Node10&#45;&gt;Node11 -->
<g id="edge10_Node000010_Node000011" class="edge">
<title>Node10&#45;&gt;Node11</title>
<g id="a_edge10_Node000010_Node000011"><a xlink:title=" ">
<path fill="none" stroke="#63b8ff" d="M980.25,-71.44C1036.88,-59.82 1137.96,-39.09 1199.16,-26.53"/>
<polygon fill="#63b8ff" stroke="#63b8ff" points="1199.9,-29.95 1208.99,-24.51 1198.49,-23.1 1199.9,-29.95"/>
</a>
</g>
</g>
<!-- Node12 -->
<g id="Node000012" class="node">
<title>Node12</title>
<g id="a_Node000012"><a xlink:title=" ">
<polygon fill="#e0e0e0" stroke="#999999" points="1459.5,-24.5 1335.5,-24.5 1335.5,-5.5 1459.5,-5.5 1459.5,-24.5"/>
<text text-anchor="middle" x="1397.5" y="-12.5" font-family="Helvetica,sans-Serif" font-size="10.00">boost/mpl/greater.hpp</text>
</a>
</g>
</g>
<!-- Node10&#45;&gt;Node12 -->
<g id="edge11_Node000010_Node000012" class="edge">
<title>Node10&#45;&gt;Node12</title>
<g id="a_edge11_Node000010_Node000012"><a xlink:title=" ">
<path fill="none" stroke="#63b8ff" d="M1001.01,-73.16C1077.67,-64.49 1211.47,-48.43 1325.5,-30 1332.17,-28.92 1339.17,-27.69 1346.08,-26.41"/>
<polygon fill="#63b8ff" stroke="#63b8ff" points="1346.9,-29.82 1356.08,-24.52 1345.6,-22.94 1346.9,-29.82"/>
</a>
</g>
</g>
<!-- Node13 -->
<g id="Node000013" class="node">
<title>Node13</title>
<g id="a_Node000013"><a xlink:title=" ">
<polygon fill="#e0e0e0" stroke="#999999" points="491.5,-24.5 389.5,-24.5 389.5,-5.5 491.5,-5.5 491.5,-24.5"/>
<text text-anchor="middle" x="440.5" y="-12.5" font-family="Helvetica,sans-Serif" font-size="10.00">boost/mpl/int.hpp</text>
</a>
</g>
</g>
<!-- Node10&#45;&gt;Node13 -->
<g id="edge12_Node000010_Node000013" class="edge">
<title>Node10&#45;&gt;Node13</title>
<g id="a_edge12_Node000010_Node000013"><a xlink:title=" ">
<path fill="none" stroke="#63b8ff" d="M876.63,-71.49C862.46,-69.61 847.47,-67.69 833.5,-66 685.71,-48.16 647.26,-54.96 500.5,-30 495.1,-29.08 489.45,-27.97 483.88,-26.78"/>
<polygon fill="#63b8ff" stroke="#63b8ff" points="484.51,-23.33 473.99,-24.57 482.99,-30.17 484.51,-23.33"/>
</a>
</g>
</g>
<!-- Node14 -->
<g id="Node000014" class="node">
<title>Node14</title>
<g id="a_Node000014"><a xlink:title=" ">
<polygon fill="#e0e0e0" stroke="#999999" points="615.5,-30 509.5,-30 509.5,0 615.5,0 615.5,-30"/>
<text text-anchor="start" x="517.5" y="-18" font-family="Helvetica,sans-Serif" font-size="10.00">boost/mpl/integral</text>
<text text-anchor="middle" x="562.5" y="-7" font-family="Helvetica,sans-Serif" font-size="10.00">_c_tag.hpp</text>
</a>
</g>
</g>
<!-- Node10&#45;&gt;Node14 -->
<g id="edge13_Node000010_Node000014" class="edge">
<title>Node10&#45;&gt;Node14</title>
<g id="a_edge13_Node000010_Node000014"><a xlink:title=" ">
<path fill="none" stroke="#63b8ff" d="M877.52,-71.47C816.27,-62.64 718.98,-47.89 625.46,-30.11"/>
<polygon fill="#63b8ff" stroke="#63b8ff" points="626.03,-26.66 615.55,-28.21 624.72,-33.53 626.03,-26.66"/>
</a>
</g>
</g>
<!-- Node15 -->
<g id="Node000015" class="node">
<title>Node15</title>
<g id="a_Node000015"><a xlink:title=" ">
<polygon fill="#e0e0e0" stroke="#999999" points="785,-30 634,-30 634,0 785,0 785,-30"/>
<text text-anchor="start" x="642" y="-18" font-family="Helvetica,sans-Serif" font-size="10.00">boost/serialization</text>
<text text-anchor="middle" x="709.5" y="-7" font-family="Helvetica,sans-Serif" font-size="10.00">/is_bitwise_serializable.hpp</text>
</a>
</g>
</g>
<!-- Node10&#45;&gt;Node15 -->
<g id="edge14_Node000010_Node000015" class="edge">
<title>Node10&#45;&gt;Node15</title>
<g id="a_edge14_Node000010_Node000015"><a xlink:title=" ">
<path fill="none" stroke="#63b8ff" d="M907.62,-71.37C872.43,-61.54 814.08,-45.23 769.8,-32.85"/>
<polygon fill="#63b8ff" stroke="#63b8ff" points="770.58,-29.44 760.01,-30.12 768.7,-36.18 770.58,-29.44"/>
</a>
</g>
</g>
<!-- Node16 -->
<g id="Node000016" class="node">
<title>Node16</title>
<g id="a_Node000016"><a xlink:title=" ">
<polygon fill="#e0e0e0" stroke="#999999" points="910,-30 803,-30 803,0 910,0 910,-30"/>
<text text-anchor="start" x="811" y="-18" font-family="Helvetica,sans-Serif" font-size="10.00">boost/serialization</text>
<text text-anchor="middle" x="856.5" y="-7" font-family="Helvetica,sans-Serif" font-size="10.00">/level.hpp</text>
</a>
</g>
</g>
<!-- Node10&#45;&gt;Node16 -->
<g id="edge15_Node000010_Node000016" class="edge">
<title>Node10&#45;&gt;Node16</title>
<g id="a_edge15_Node000010_Node000016"><a xlink:title=" ">
<path fill="none" stroke="#63b8ff" d="M927.44,-71.37C916.01,-62.44 897.74,-48.19 882.61,-36.38"/>
<polygon fill="#63b8ff" stroke="#63b8ff" points="884.62,-33.51 874.59,-30.12 880.32,-39.03 884.62,-33.51"/>
</a>
</g>
</g>
<!-- Node17 -->
<g id="Node000017" class="node">
<title>Node17</title>
<g id="a_Node000017"><a xlink:title=" ">
<polygon fill="#e0e0e0" stroke="#999999" points="1035,-30 928,-30 928,0 1035,0 1035,-30"/>
<text text-anchor="start" x="936" y="-18" font-family="Helvetica,sans-Serif" font-size="10.00">boost/serialization</text>
<text text-anchor="middle" x="981.5" y="-7" font-family="Helvetica,sans-Serif" font-size="10.00">/tracking.hpp</text>
</a>
</g>
</g>
<!-- Node10&#45;&gt;Node17 -->
<g id="edge16_Node000010_Node000017" class="edge">
<title>Node10&#45;&gt;Node17</title>
<g id="a_edge16_Node000010_Node000017"><a xlink:title=" ">
<path fill="none" stroke="#63b8ff" d="M944.3,-71.37C949.87,-63.08 958.53,-50.18 966.1,-38.92"/>
<polygon fill="#63b8ff" stroke="#63b8ff" points="969.18,-40.61 971.85,-30.36 963.37,-36.71 969.18,-40.61"/>
</a>
</g>
</g>
<!-- Node18 -->
<g id="Node000018" class="node">
<title>Node18</title>
<g id="a_Node000018"><a xlink:title=" ">
<polygon fill="#e0e0e0" stroke="#999999" points="1166,-30 1053,-30 1053,0 1166,0 1166,-30"/>
<text text-anchor="start" x="1061" y="-18" font-family="Helvetica,sans-Serif" font-size="10.00">boost/serialization</text>
<text text-anchor="middle" x="1109.5" y="-7" font-family="Helvetica,sans-Serif" font-size="10.00">/tracking_enum.hpp</text>
</a>
</g>
</g>
<!-- Node10&#45;&gt;Node18 -->
<g id="edge17_Node000010_Node000018" class="edge">
<title>Node10&#45;&gt;Node18</title>
<g id="a_edge17_Node000010_Node000018"><a xlink:title=" ">
<path fill="none" stroke="#63b8ff" d="M961.56,-71.37C987.28,-61.74 1029.58,-45.91 1062.38,-33.64"/>
<polygon fill="#63b8ff" stroke="#63b8ff" points="1063.65,-36.9 1071.78,-30.12 1061.19,-30.34 1063.65,-36.9"/>
</a>
</g>
</g>
<!-- Node10&#45;&gt;Node19 -->
<g id="edge18_Node000010_Node000019" class="edge">
<title>Node10&#45;&gt;Node19</title>
<g id="a_edge18_Node000010_Node000019"><a xlink:title=" ">
<path fill="none" stroke="#63b8ff" d="M1001.18,-76.31C1100.64,-69.95 1300.54,-55.14 1468.5,-30 1478.78,-28.46 1489.85,-26.37 1500.02,-24.27"/>
<polygon fill="#63b8ff" stroke="#63b8ff" points="1500.76,-27.69 1509.81,-22.2 1499.31,-20.85 1500.76,-27.69"/>
</a>
</g>
</g>
</g>
</svg>
