<?xml version="1.0" encoding="UTF-8" standalone="no"?>
<!DOCTYPE svg PUBLIC "-//W3C//DTD SVG 1.1//EN"
 "http://www.w3.org/Graphics/SVG/1.1/DTD/svg11.dtd">
<!-- Generated by graphviz version 2.43.0 (0)
 -->
<!-- Title: ObjectContainer.hpp Pages: 1 -->
<svg width="1001pt" height="247pt"
 viewBox="0.00 0.00 1000.50 247.00" xmlns="http://www.w3.org/2000/svg" xmlns:xlink="http://www.w3.org/1999/xlink">
<g id="graph0" class="graph" transform="scale(1 1) rotate(0) translate(4 243)">
<title>ObjectContainer.hpp</title>
<!-- Node1 -->
<g id="Node000001" class="node">
<title>Node1</title>
<g id="a_Node000001"><a xlink:title=" ">
<polygon fill="#999999" stroke="#666666" points="507,-239 391,-239 391,-220 507,-220 507,-239"/>
<text text-anchor="middle" x="449" y="-227" font-family="Helvetica,sans-Serif" font-size="10.00">ObjectContainer.hpp</text>
</a>
</g>
</g>
<!-- Node2 -->
<g id="Node000002" class="node">
<title>Node2</title>
<g id="a_Node000002"><a xlink:href="ObjectList_8hpp.html" target="_top" xlink:title=" ">
<polygon fill="white" stroke="#666666" points="384,-184 298,-184 298,-165 384,-165 384,-184"/>
<text text-anchor="middle" x="341" y="-172" font-family="Helvetica,sans-Serif" font-size="10.00">ObjectList.hpp</text>
</a>
</g>
</g>
<!-- Node1&#45;&gt;Node2 -->
<g id="edge1_Node000001_Node000002" class="edge">
<title>Node1&#45;&gt;Node2</title>
<g id="a_edge1_Node000001_Node000002"><a xlink:title=" ">
<path fill="none" stroke="#63b8ff" d="M422.51,-215.5C402.64,-205.75 376,-192.68 358.67,-184.17"/>
<polygon fill="#63b8ff" stroke="#63b8ff" points="421.13,-218.72 431.65,-219.98 424.21,-212.44 421.13,-218.72"/>
</a>
</g>
</g>
<!-- Node12 -->
<g id="Node000012" class="node">
<title>Node12</title>
<g id="a_Node000012"><a xlink:href="ObjectMap_8hpp.html" target="_top" xlink:title=" ">
<polygon fill="white" stroke="#666666" points="721,-184 631,-184 631,-165 721,-165 721,-184"/>
<text text-anchor="middle" x="676" y="-172" font-family="Helvetica,sans-Serif" font-size="10.00">ObjectMap.hpp</text>
</a>
</g>
</g>
<!-- Node1&#45;&gt;Node12 -->
<g id="edge13_Node000001_Node000012" class="edge">
<title>Node1&#45;&gt;Node12</title>
<g id="a_edge13_Node000001_Node000012"><a xlink:title=" ">
<path fill="none" stroke="#63b8ff" d="M495.3,-217.69C537.83,-207.76 600.03,-193.24 639.24,-184.08"/>
<polygon fill="#63b8ff" stroke="#63b8ff" points="494.41,-214.3 485.47,-219.98 496.01,-221.12 494.41,-214.3"/>
</a>
</g>
</g>
<!-- Node3 -->
<g id="Node000003" class="node">
<title>Node3</title>
<g id="a_Node000003"><a xlink:href="AutoUpdateAccumulators_8hpp.html" target="_top" xlink:title=" ">
<polygon fill="white" stroke="#666666" points="162,-129 0,-129 0,-110 162,-110 162,-129"/>
<text text-anchor="middle" x="81" y="-117" font-family="Helvetica,sans-Serif" font-size="10.00">AutoUpdateAccumulators.hpp</text>
</a>
</g>
</g>
<!-- Node2&#45;&gt;Node3 -->
<g id="edge2_Node000002_Node000003" class="edge">
<title>Node2&#45;&gt;Node3</title>
<g id="a_edge2_Node000002_Node000003"><a xlink:title=" ">
<path fill="none" stroke="#63b8ff" d="M289.2,-162.94C240.46,-153.01 168.39,-138.31 123.1,-129.08"/>
<polygon fill="#63b8ff" stroke="#63b8ff" points="288.73,-166.42 299.23,-164.98 290.13,-159.56 288.73,-166.42"/>
</a>
</g>
</g>
<!-- Node5 -->
<g id="Node000005" class="node">
<title>Node5</title>
<g id="a_Node000005"><a xlink:href="script__interface_2constraints_2Constraints_8hpp.html" target="_top" xlink:title=" ">
<polygon fill="white" stroke="#666666" points="273.5,-129 180.5,-129 180.5,-110 273.5,-110 273.5,-129"/>
<text text-anchor="middle" x="227" y="-117" font-family="Helvetica,sans-Serif" font-size="10.00">Constraints.hpp</text>
</a>
</g>
</g>
<!-- Node2&#45;&gt;Node5 -->
<g id="edge4_Node000002_Node000005" class="edge">
<title>Node2&#45;&gt;Node5</title>
<g id="a_edge4_Node000002_Node000005"><a xlink:title=" ">
<path fill="none" stroke="#63b8ff" d="M313.61,-160.77C292.58,-150.99 264.11,-137.75 245.65,-129.17"/>
<polygon fill="#63b8ff" stroke="#63b8ff" points="312.14,-163.94 322.68,-164.98 315.09,-157.6 312.14,-163.94"/>
</a>
</g>
</g>
<!-- Node7 -->
<g id="Node000007" class="node">
<title>Node7</title>
<g id="a_Node000007"><a xlink:href="script__interface_2walberla_2EKContainer_8hpp.html" target="_top" xlink:title=" ">
<polygon fill="white" stroke="#666666" points="366,-74 270,-74 270,-55 366,-55 366,-74"/>
<text text-anchor="middle" x="318" y="-62" font-family="Helvetica,sans-Serif" font-size="10.00">EKContainer.hpp</text>
</a>
</g>
</g>
<!-- Node2&#45;&gt;Node7 -->
<g id="edge6_Node000002_Node000007" class="edge">
<title>Node2&#45;&gt;Node7</title>
<g id="a_edge6_Node000002_Node000007"><a xlink:title=" ">
<path fill="none" stroke="#63b8ff" d="M331.28,-155.96C327.35,-147.98 323.22,-138.27 321,-129 316.43,-109.89 316.76,-86.66 317.39,-74.27"/>
<polygon fill="#63b8ff" stroke="#63b8ff" points="328.26,-157.74 336,-164.98 334.47,-154.5 328.26,-157.74"/>
</a>
</g>
</g>
<!-- Node9 -->
<g id="Node000009" class="node">
<title>Node9</title>
<g id="a_Node000009"><a xlink:href="script__interface_2walberla_2EKReactions_8hpp.html" target="_top" xlink:title=" ">
<polygon fill="white" stroke="#666666" points="428,-129 330,-129 330,-110 428,-110 428,-129"/>
<text text-anchor="middle" x="379" y="-117" font-family="Helvetica,sans-Serif" font-size="10.00">EKReactions.hpp</text>
</a>
</g>
</g>
<!-- Node2&#45;&gt;Node9 -->
<g id="edge8_Node000002_Node000009" class="edge">
<title>Node2&#45;&gt;Node9</title>
<g id="a_edge8_Node000002_Node000009"><a xlink:title=" ">
<path fill="none" stroke="#63b8ff" d="M353.27,-156.39C359.81,-147.27 367.57,-136.45 372.84,-129.09"/>
<polygon fill="#63b8ff" stroke="#63b8ff" points="350.26,-154.58 347.27,-164.75 355.95,-158.66 350.26,-154.58"/>
</a>
</g>
</g>
<!-- Node10 -->
<g id="Node000010" class="node">
<title>Node10</title>
<g id="a_Node000010"><a xlink:href="script__interface_2shapes_2Union_8hpp.html" target="_top" xlink:title=" ">
<polygon fill="white" stroke="#666666" points="512,-129 446,-129 446,-110 512,-110 512,-129"/>
<text text-anchor="middle" x="479" y="-117" font-family="Helvetica,sans-Serif" font-size="10.00">Union.hpp</text>
</a>
</g>
</g>
<!-- Node2&#45;&gt;Node10 -->
<g id="edge11_Node000002_Node000010" class="edge">
<title>Node2&#45;&gt;Node10</title>
<g id="a_edge11_Node000002_Node000010"><a xlink:title=" ">
<path fill="none" stroke="#63b8ff" d="M372.79,-161.29C398.37,-151.47 433.67,-137.91 456.42,-129.17"/>
<polygon fill="#63b8ff" stroke="#63b8ff" points="371.25,-158.13 363.17,-164.98 373.76,-164.67 371.25,-158.13"/>
</a>
</g>
</g>
<!-- Node4 -->
<g id="Node000004" class="node">
<title>Node4</title>
<g id="a_Node000004"><a xlink:href="accumulators_2initialize_8cpp.html" target="_top" xlink:title=" ">
<polygon fill="white" stroke="#666666" points="120.5,-74 41.5,-74 41.5,-55 120.5,-55 120.5,-74"/>
<text text-anchor="middle" x="81" y="-62" font-family="Helvetica,sans-Serif" font-size="10.00">initialize.cpp</text>
</a>
</g>
</g>
<!-- Node3&#45;&gt;Node4 -->
<g id="edge3_Node000003_Node000004" class="edge">
<title>Node3&#45;&gt;Node4</title>
<g id="a_edge3_Node000003_Node000004"><a xlink:title=" ">
<path fill="none" stroke="#63b8ff" d="M81,-99.66C81,-90.93 81,-80.99 81,-74.09"/>
<polygon fill="#63b8ff" stroke="#63b8ff" points="77.5,-99.75 81,-109.75 84.5,-99.75 77.5,-99.75"/>
</a>
</g>
</g>
<!-- Node6 -->
<g id="Node000006" class="node">
<title>Node6</title>
<g id="a_Node000006"><a xlink:href="constraints_2initialize_8cpp.html" target="_top" xlink:title=" ">
<polygon fill="white" stroke="#666666" points="251.5,-74 172.5,-74 172.5,-55 251.5,-55 251.5,-74"/>
<text text-anchor="middle" x="212" y="-62" font-family="Helvetica,sans-Serif" font-size="10.00">initialize.cpp</text>
</a>
</g>
</g>
<!-- Node5&#45;&gt;Node6 -->
<g id="edge5_Node000005_Node000006" class="edge">
<title>Node5&#45;&gt;Node6</title>
<g id="a_edge5_Node000005_Node000006"><a xlink:title=" ">
<path fill="none" stroke="#63b8ff" d="M221.75,-99.95C219.26,-91.15 216.4,-81.06 214.43,-74.09"/>
<polygon fill="#63b8ff" stroke="#63b8ff" points="218.43,-101.08 224.52,-109.75 225.17,-99.17 218.43,-101.08"/>
</a>
</g>
</g>
<!-- Node8 -->
<g id="Node000008" class="node">
<title>Node8</title>
<g id="a_Node000008"><a xlink:href="walberla_2initialize_8cpp.html" target="_top" xlink:title=" ">
<polygon fill="white" stroke="#666666" points="395.5,-19 316.5,-19 316.5,0 395.5,0 395.5,-19"/>
<text text-anchor="middle" x="356" y="-7" font-family="Helvetica,sans-Serif" font-size="10.00">initialize.cpp</text>
</a>
</g>
</g>
<!-- Node7&#45;&gt;Node8 -->
<g id="edge7_Node000007_Node000008" class="edge">
<title>Node7&#45;&gt;Node8</title>
<g id="a_edge7_Node000007_Node000008"><a xlink:title=" ">
<path fill="none" stroke="#63b8ff" d="M330.27,-46.39C336.81,-37.27 344.57,-26.45 349.84,-19.09"/>
<polygon fill="#63b8ff" stroke="#63b8ff" points="327.26,-44.58 324.27,-54.75 332.95,-48.66 327.26,-44.58"/>
</a>
</g>
</g>
<!-- Node9&#45;&gt;Node7 -->
<g id="edge9_Node000009_Node000007" class="edge">
<title>Node9&#45;&gt;Node7</title>
<g id="a_edge9_Node000009_Node000007"><a xlink:title=" ">
<path fill="none" stroke="#63b8ff" d="M361.53,-103.32C350.66,-93.87 337.06,-82.06 327.98,-74.17"/>
<polygon fill="#63b8ff" stroke="#63b8ff" points="359.35,-106.07 369.2,-109.98 363.95,-100.78 359.35,-106.07"/>
</a>
</g>
</g>
<!-- Node9&#45;&gt;Node8 -->
<g id="edge10_Node000009_Node000008" class="edge">
<title>Node9&#45;&gt;Node8</title>
<g id="a_edge10_Node000009_Node000008"><a xlink:title=" ">
<path fill="none" stroke="#63b8ff" d="M379.48,-99.44C379.39,-86.69 378.48,-69.65 375,-55 371.89,-41.92 365.25,-27.81 360.7,-19.06"/>
<polygon fill="#63b8ff" stroke="#63b8ff" points="375.97,-99.7 379.38,-109.74 382.97,-99.77 375.97,-99.7"/>
</a>
</g>
</g>
<!-- Node11 -->
<g id="Node000011" class="node">
<title>Node11</title>
<g id="a_Node000011"><a xlink:href="shapes_2initialize_8cpp.html" target="_top" xlink:title=" ">
<polygon fill="white" stroke="#666666" points="518.5,-74 439.5,-74 439.5,-55 518.5,-55 518.5,-74"/>
<text text-anchor="middle" x="479" y="-62" font-family="Helvetica,sans-Serif" font-size="10.00">initialize.cpp</text>
</a>
</g>
</g>
<!-- Node10&#45;&gt;Node11 -->
<g id="edge12_Node000010_Node000011" class="edge">
<title>Node10&#45;&gt;Node11</title>
<g id="a_edge12_Node000010_Node000011"><a xlink:title=" ">
<path fill="none" stroke="#63b8ff" d="M479,-99.66C479,-90.93 479,-80.99 479,-74.09"/>
<polygon fill="#63b8ff" stroke="#63b8ff" points="475.5,-99.75 479,-109.75 482.5,-99.75 475.5,-99.75"/>
</a>
</g>
</g>
<!-- Node13 -->
<g id="Node000013" class="node">
<title>Node13</title>
<g id="a_Node000013"><a xlink:href="BondedInteractions_8hpp.html" target="_top" xlink:title=" ">
<polygon fill="white" stroke="#666666" points="662,-129 530,-129 530,-110 662,-110 662,-129"/>
<text text-anchor="middle" x="596" y="-117" font-family="Helvetica,sans-Serif" font-size="10.00">BondedInteractions.hpp</text>
</a>
</g>
</g>
<!-- Node12&#45;&gt;Node13 -->
<g id="edge14_Node000012_Node000013" class="edge">
<title>Node12&#45;&gt;Node13</title>
<g id="a_edge14_Node000012_Node000013"><a xlink:title=" ">
<path fill="none" stroke="#63b8ff" d="M654.75,-159.42C640.24,-149.81 621.46,-137.37 609.09,-129.17"/>
<polygon fill="#63b8ff" stroke="#63b8ff" points="652.88,-162.38 663.15,-164.98 656.74,-156.54 652.88,-162.38"/>
</a>
</g>
</g>
<!-- Node15 -->
<g id="Node000015" class="node">
<title>Node15</title>
<g id="a_Node000015"><a xlink:href="BreakageSpecs_8hpp.html" target="_top" xlink:title=" ">
<polygon fill="white" stroke="#666666" points="962,-129 850,-129 850,-110 962,-110 962,-129"/>
<text text-anchor="middle" x="906" y="-117" font-family="Helvetica,sans-Serif" font-size="10.00">BreakageSpecs.hpp</text>
</a>
</g>
</g>
<!-- Node12&#45;&gt;Node15 -->
<g id="edge16_Node000012_Node000015" class="edge">
<title>Node12&#45;&gt;Node15</title>
<g id="a_edge16_Node000012_Node000015"><a xlink:title=" ">
<path fill="none" stroke="#63b8ff" d="M722.91,-162.69C766,-152.76 829.03,-138.24 868.76,-129.08"/>
<polygon fill="#63b8ff" stroke="#63b8ff" points="721.91,-159.33 712.95,-164.98 723.48,-166.15 721.91,-159.33"/>
</a>
</g>
</g>
<!-- Node18 -->
<g id="Node000018" class="node">
<title>Node18</title>
<g id="a_Node000018"><a xlink:href="NonBondedInteractions_8hpp.html" target="_top" xlink:title=" ">
<polygon fill="white" stroke="#666666" points="832,-129 680,-129 680,-110 832,-110 832,-129"/>
<text text-anchor="middle" x="756" y="-117" font-family="Helvetica,sans-Serif" font-size="10.00">NonBondedInteractions.hpp</text>
</a>
</g>
</g>
<!-- Node12&#45;&gt;Node18 -->
<g id="edge19_Node000012_Node000018" class="edge">
<title>Node12&#45;&gt;Node18</title>
<g id="a_edge19_Node000012_Node000018"><a xlink:title=" ">
<path fill="none" stroke="#63b8ff" d="M697.25,-159.42C711.76,-149.81 730.54,-137.37 742.91,-129.17"/>
<polygon fill="#63b8ff" stroke="#63b8ff" points="695.26,-156.54 688.85,-164.98 699.12,-162.38 695.26,-156.54"/>
</a>
</g>
</g>
<!-- Node14 -->
<g id="Node000014" class="node">
<title>Node14</title>
<g id="a_Node000014"><a xlink:href="interactions_2initialize_8cpp.html" target="_top" xlink:title=" ">
<polygon fill="white" stroke="#666666" points="715.5,-74 636.5,-74 636.5,-55 715.5,-55 715.5,-74"/>
<text text-anchor="middle" x="676" y="-62" font-family="Helvetica,sans-Serif" font-size="10.00">initialize.cpp</text>
</a>
</g>
</g>
<!-- Node13&#45;&gt;Node14 -->
<g id="edge15_Node000013_Node000014" class="edge">
<title>Node13&#45;&gt;Node14</title>
<g id="a_edge15_Node000013_Node000014"><a xlink:title=" ">
<path fill="none" stroke="#63b8ff" d="M617.25,-104.42C631.76,-94.81 650.54,-82.37 662.91,-74.17"/>
<polygon fill="#63b8ff" stroke="#63b8ff" points="615.26,-101.54 608.85,-109.98 619.12,-107.38 615.26,-101.54"/>
</a>
</g>
</g>
<!-- Node16 -->
<g id="Node000016" class="node">
<title>Node16</title>
<g id="a_Node000016"><a xlink:href="script__interface_2system_2System_8cpp.html" target="_top" xlink:title=" ">
<polygon fill="white" stroke="#666666" points="895,-74 821,-74 821,-55 895,-55 895,-74"/>
<text text-anchor="middle" x="858" y="-62" font-family="Helvetica,sans-Serif" font-size="10.00">System.cpp</text>
</a>
</g>
</g>
<!-- Node15&#45;&gt;Node16 -->
<g id="edge17_Node000015_Node000016" class="edge">
<title>Node15&#45;&gt;Node16</title>
<g id="a_edge17_Node000015_Node000016"><a xlink:title=" ">
<path fill="none" stroke="#63b8ff" d="M891.27,-102.24C882.86,-92.95 872.65,-81.68 865.78,-74.09"/>
<polygon fill="#63b8ff" stroke="#63b8ff" points="888.77,-104.69 898.07,-109.75 893.96,-99.99 888.77,-104.69"/>
</a>
</g>
</g>
<!-- Node17 -->
<g id="Node000017" class="node">
<title>Node17</title>
<g id="a_Node000017"><a xlink:href="bond__breakage_2initialize_8cpp.html" target="_top" xlink:title=" ">
<polygon fill="white" stroke="#666666" points="992.5,-74 913.5,-74 913.5,-55 992.5,-55 992.5,-74"/>
<text text-anchor="middle" x="953" y="-62" font-family="Helvetica,sans-Serif" font-size="10.00">initialize.cpp</text>
</a>
</g>
</g>
<!-- Node15&#45;&gt;Node17 -->
<g id="edge18_Node000015_Node000017" class="edge">
<title>Node15&#45;&gt;Node17</title>
<g id="a_edge18_Node000015_Node000017"><a xlink:title=" ">
<path fill="none" stroke="#63b8ff" d="M920.42,-102.24C928.66,-92.95 938.65,-81.68 945.38,-74.09"/>
<polygon fill="#63b8ff" stroke="#63b8ff" points="917.78,-99.94 913.76,-109.75 923.01,-104.59 917.78,-99.94"/>
</a>
</g>
</g>
<!-- Node18&#45;&gt;Node14 -->
<g id="edge20_Node000018_Node000014" class="edge">
<title>Node18&#45;&gt;Node14</title>
<g id="a_edge20_Node000018_Node000014"><a xlink:title=" ">
<path fill="none" stroke="#63b8ff" d="M734.75,-104.42C720.24,-94.81 701.46,-82.37 689.09,-74.17"/>
<polygon fill="#63b8ff" stroke="#63b8ff" points="732.88,-107.38 743.15,-109.98 736.74,-101.54 732.88,-107.38"/>
</a>
</g>
</g>
</g>
</svg>
