<?xml version="1.0" encoding="UTF-8" standalone="no"?>
<!DOCTYPE svg PUBLIC "-//W3C//DTD SVG 1.1//EN"
 "http://www.w3.org/Graphics/SVG/1.1/DTD/svg11.dtd">
<!-- Generated by graphviz version 2.43.0 (0)
 -->
<!-- Title: ObjectHandle.hpp Pages: 1 -->
<svg width="2295pt" height="357pt"
 viewBox="0.00 0.00 2294.50 357.00" xmlns="http://www.w3.org/2000/svg" xmlns:xlink="http://www.w3.org/1999/xlink">
<g id="graph0" class="graph" transform="scale(1 1) rotate(0) translate(4 353)">
<title>ObjectHandle.hpp</title>
<!-- Node1 -->
<g id="Node000001" class="node">
<title>Node1</title>
<g id="a_Node000001"><a xlink:title=" ">
<polygon fill="#999999" stroke="#666666" points="1432.5,-349 1328.5,-349 1328.5,-330 1432.5,-330 1432.5,-349"/>
<text text-anchor="middle" x="1380.5" y="-337" font-family="Helvetica,sans-Serif" font-size="10.00">ObjectHandle.hpp</text>
</a>
</g>
</g>
<!-- Node2 -->
<g id="Node000002" class="node">
<title>Node2</title>
<g id="a_Node000002"><a xlink:href="Variant_8hpp.html" target="_top" xlink:title=" ">
<polygon fill="white" stroke="#666666" points="987.5,-288.5 915.5,-288.5 915.5,-269.5 987.5,-269.5 987.5,-288.5"/>
<text text-anchor="middle" x="951.5" y="-276.5" font-family="Helvetica,sans-Serif" font-size="10.00">Variant.hpp</text>
</a>
</g>
</g>
<!-- Node1&#45;&gt;Node2 -->
<g id="edge1_Node000001_Node000002" class="edge">
<title>Node1&#45;&gt;Node2</title>
<g id="a_edge1_Node000001_Node000002"><a xlink:title=" ">
<path fill="none" stroke="#63b8ff" d="M1328.33,-331.39C1243.91,-319.87 1078.73,-297.35 998.06,-286.35"/>
<polygon fill="#63b8ff" stroke="#63b8ff" points="998.1,-282.82 987.72,-284.94 997.16,-289.76 998.1,-282.82"/>
</a>
</g>
</g>
<!-- Node31 -->
<g id="Node000031" class="node">
<title>Node31</title>
<g id="a_Node000031"><a xlink:title=" ">
<polygon fill="#e0e0e0" stroke="#999999" points="1739.5,-156.5 1699.5,-156.5 1699.5,-137.5 1739.5,-137.5 1739.5,-156.5"/>
<text text-anchor="middle" x="1719.5" y="-144.5" font-family="Helvetica,sans-Serif" font-size="10.00">span</text>
</a>
</g>
</g>
<!-- Node1&#45;&gt;Node31 -->
<g id="edge58_Node000001_Node000031" class="edge">
<title>Node1&#45;&gt;Node31</title>
<g id="a_edge58_Node000001_Node000031"><a xlink:title=" ">
<path fill="none" stroke="#63b8ff" d="M1386.78,-329.55C1397.88,-314.29 1422.37,-283.04 1449.5,-264 1544.7,-197.18 1584.54,-209.96 1690.5,-162 1691.32,-161.63 1692.16,-161.24 1693,-160.86"/>
<polygon fill="#63b8ff" stroke="#63b8ff" points="1694.53,-164.01 1702.08,-156.58 1691.55,-157.67 1694.53,-164.01"/>
</a>
</g>
</g>
<!-- Node33 -->
<g id="Node000033" class="node">
<title>Node33</title>
<g id="a_Node000033"><a xlink:title=" ">
<polygon fill="#e0e0e0" stroke="#999999" points="643,-156.5 596,-156.5 596,-137.5 643,-137.5 643,-156.5"/>
<text text-anchor="middle" x="619.5" y="-144.5" font-family="Helvetica,sans-Serif" font-size="10.00">vector</text>
</a>
</g>
</g>
<!-- Node1&#45;&gt;Node33 -->
<g id="edge61_Node000001_Node000033" class="edge">
<title>Node1&#45;&gt;Node33</title>
<g id="a_edge61_Node000001_Node000033"><a xlink:title=" ">
<path fill="none" stroke="#63b8ff" d="M1359.9,-329.87C1316.39,-311.57 1212.03,-267.34 1125.5,-228 1097.27,-215.17 1092.4,-206.24 1062.5,-198 897.68,-152.55 848.25,-189.49 679.5,-162 670.77,-160.58 661.43,-158.62 652.77,-156.61"/>
<polygon fill="#63b8ff" stroke="#63b8ff" points="653.55,-153.2 643.01,-154.26 651.91,-160 653.55,-153.2"/>
</a>
</g>
</g>
<!-- Node43 -->
<g id="Node000043" class="node">
<title>Node43</title>
<g id="a_Node000043"><a xlink:title=" ">
<polygon fill="#e0e0e0" stroke="#999999" points="1340.5,-222.5 1282.5,-222.5 1282.5,-203.5 1340.5,-203.5 1340.5,-222.5"/>
<text text-anchor="middle" x="1311.5" y="-210.5" font-family="Helvetica,sans-Serif" font-size="10.00">memory</text>
</a>
</g>
</g>
<!-- Node1&#45;&gt;Node43 -->
<g id="edge57_Node000001_Node000043" class="edge">
<title>Node1&#45;&gt;Node43</title>
<g id="a_edge57_Node000001_Node000043"><a xlink:title=" ">
<path fill="none" stroke="#63b8ff" d="M1375.76,-329.94C1364.53,-309.69 1336.15,-258.47 1321.14,-231.4"/>
<polygon fill="#63b8ff" stroke="#63b8ff" points="1324.18,-229.67 1316.28,-222.62 1318.06,-233.06 1324.18,-229.67"/>
</a>
</g>
</g>
<!-- Node44 -->
<g id="Node000044" class="node">
<title>Node44</title>
<g id="a_Node000044"><a xlink:title=" ">
<polygon fill="#e0e0e0" stroke="#999999" points="1402.5,-222.5 1358.5,-222.5 1358.5,-203.5 1402.5,-203.5 1402.5,-222.5"/>
<text text-anchor="middle" x="1380.5" y="-210.5" font-family="Helvetica,sans-Serif" font-size="10.00">string</text>
</a>
</g>
</g>
<!-- Node1&#45;&gt;Node44 -->
<g id="edge59_Node000001_Node000044" class="edge">
<title>Node1&#45;&gt;Node44</title>
<g id="a_edge59_Node000001_Node000044"><a xlink:title=" ">
<path fill="none" stroke="#63b8ff" d="M1380.5,-329.94C1380.5,-310.04 1380.5,-260.26 1380.5,-232.85"/>
<polygon fill="#63b8ff" stroke="#63b8ff" points="1384,-232.62 1380.5,-222.62 1377,-232.62 1384,-232.62"/>
</a>
</g>
</g>
<!-- Node45 -->
<g id="Node000045" class="node">
<title>Node45</title>
<g id="a_Node000045"><a xlink:title=" ">
<polygon fill="#e0e0e0" stroke="#999999" points="1564.5,-294 1458.5,-294 1458.5,-264 1564.5,-264 1564.5,-294"/>
<text text-anchor="start" x="1466.5" y="-282" font-family="Helvetica,sans-Serif" font-size="10.00">boost/utility/string</text>
<text text-anchor="middle" x="1511.5" y="-271" font-family="Helvetica,sans-Serif" font-size="10.00">_ref.hpp</text>
</a>
</g>
</g>
<!-- Node1&#45;&gt;Node45 -->
<g id="edge56_Node000001_Node000045" class="edge">
<title>Node1&#45;&gt;Node45</title>
<g id="a_edge56_Node000001_Node000045"><a xlink:title=" ">
<path fill="none" stroke="#63b8ff" d="M1399.55,-329.99C1418.15,-321.68 1447.06,-308.78 1470.84,-298.16"/>
<polygon fill="#63b8ff" stroke="#63b8ff" points="1472.3,-301.34 1480.01,-294.06 1469.45,-294.95 1472.3,-301.34"/>
</a>
</g>
</g>
<!-- Node46 -->
<g id="Node000046" class="node">
<title>Node46</title>
<g id="a_Node000046"><a xlink:title=" ">
<polygon fill="#e0e0e0" stroke="#999999" points="1628,-288.5 1583,-288.5 1583,-269.5 1628,-269.5 1628,-288.5"/>
<text text-anchor="middle" x="1605.5" y="-276.5" font-family="Helvetica,sans-Serif" font-size="10.00">utility</text>
</a>
</g>
</g>
<!-- Node1&#45;&gt;Node46 -->
<g id="edge60_Node000001_Node000046" class="edge">
<title>Node1&#45;&gt;Node46</title>
<g id="a_edge60_Node000001_Node000046"><a xlink:title=" ">
<path fill="none" stroke="#63b8ff" d="M1428.77,-329.96C1468.23,-322.36 1525.18,-309.99 1573.5,-294 1574.94,-293.52 1576.4,-293.01 1577.87,-292.46"/>
<polygon fill="#63b8ff" stroke="#63b8ff" points="1579.49,-295.58 1587.45,-288.59 1576.87,-289.09 1579.49,-295.58"/>
</a>
</g>
</g>
<!-- Node3 -->
<g id="Node000003" class="node">
<title>Node3</title>
<g id="a_Node000003"><a xlink:href="script__interface_2None_8hpp.html" target="_top" xlink:title=" ">
<polygon fill="white" stroke="#666666" points="578,-156.5 515,-156.5 515,-137.5 578,-137.5 578,-156.5"/>
<text text-anchor="middle" x="546.5" y="-144.5" font-family="Helvetica,sans-Serif" font-size="10.00">None.hpp</text>
</a>
</g>
</g>
<!-- Node2&#45;&gt;Node3 -->
<g id="edge2_Node000002_Node000003" class="edge">
<title>Node2&#45;&gt;Node3</title>
<g id="a_edge2_Node000002_Node000003"><a xlink:title=" ">
<path fill="none" stroke="#63b8ff" d="M966.24,-269.39C990.42,-254.25 1033.7,-222.16 1011.5,-198 979.43,-163.1 632.84,-171.91 586.5,-162 583.5,-161.36 580.42,-160.56 577.36,-159.66"/>
<polygon fill="#63b8ff" stroke="#63b8ff" points="578.4,-156.32 567.8,-156.57 576.24,-162.98 578.4,-156.32"/>
</a>
</g>
</g>
<!-- Node5 -->
<g id="Node000005" class="node">
<title>Node5</title>
<g id="a_Node000005"><a xlink:title=" ">
<polygon fill="#e0e0e0" stroke="#999999" points="827,-24.5 774,-24.5 774,-5.5 827,-5.5 827,-24.5"/>
<text text-anchor="middle" x="800.5" y="-12.5" font-family="Helvetica,sans-Serif" font-size="10.00">cstddef</text>
</a>
</g>
</g>
<!-- Node2&#45;&gt;Node5 -->
<g id="edge50_Node000002_Node000005" class="edge">
<title>Node2&#45;&gt;Node5</title>
<g id="a_edge50_Node000002_Node000005"><a xlink:title=" ">
<path fill="none" stroke="#63b8ff" d="M915.26,-277.54C796.69,-275.67 425.93,-266.73 390.5,-228 274.2,-100.88 642.48,-37.74 763.39,-20.79"/>
<polygon fill="#63b8ff" stroke="#63b8ff" points="764.21,-24.21 773.64,-19.38 763.26,-17.27 764.21,-24.21"/>
</a>
</g>
</g>
<!-- Node6 -->
<g id="Node000006" class="node">
<title>Node6</title>
<g id="a_Node000006"><a xlink:href="Vector_8hpp.html" target="_top" xlink:title="Vector implementation and trait types for boost qvm interoperability.">
<polygon fill="white" stroke="#666666" points="1226.5,-222.5 1134.5,-222.5 1134.5,-203.5 1226.5,-203.5 1226.5,-222.5"/>
<text text-anchor="middle" x="1180.5" y="-210.5" font-family="Helvetica,sans-Serif" font-size="10.00">utils/Vector.hpp</text>
</a>
</g>
</g>
<!-- Node2&#45;&gt;Node6 -->
<g id="edge5_Node000002_Node000006" class="edge">
<title>Node2&#45;&gt;Node6</title>
<g id="a_edge5_Node000002_Node000006"><a xlink:title=" ">
<path fill="none" stroke="#63b8ff" d="M982.38,-269.37C1023.13,-257.98 1094.94,-237.91 1140,-225.32"/>
<polygon fill="#63b8ff" stroke="#63b8ff" points="1141.05,-228.66 1149.74,-222.6 1139.17,-221.92 1141.05,-228.66"/>
</a>
</g>
</g>
<!-- Node32 -->
<g id="Node000032" class="node">
<title>Node32</title>
<g id="a_Node000032"><a xlink:title=" ">
<polygon fill="#e0e0e0" stroke="#999999" points="1681,-156.5 1612,-156.5 1612,-137.5 1681,-137.5 1681,-156.5"/>
<text text-anchor="middle" x="1646.5" y="-144.5" font-family="Helvetica,sans-Serif" font-size="10.00">type_traits</text>
</a>
</g>
</g>
<!-- Node2&#45;&gt;Node32 -->
<g id="edge53_Node000002_Node000032" class="edge">
<title>Node2&#45;&gt;Node32</title>
<g id="a_edge53_Node000002_Node000032"><a xlink:title=" ">
<path fill="none" stroke="#63b8ff" d="M987.67,-277.24C1043.29,-274.86 1152.12,-265.36 1235.5,-228 1255.14,-219.2 1253.59,-206.15 1273.5,-198 1409.63,-142.26 1458.59,-192.45 1602.5,-162 1605.9,-161.28 1609.4,-160.4 1612.89,-159.44"/>
<polygon fill="#63b8ff" stroke="#63b8ff" points="1613.94,-162.78 1622.52,-156.58 1611.94,-156.07 1613.94,-162.78"/>
</a>
</g>
</g>
<!-- Node2&#45;&gt;Node33 -->
<g id="edge55_Node000002_Node000033" class="edge">
<title>Node2&#45;&gt;Node33</title>
<g id="a_edge55_Node000002_Node000033"><a xlink:title=" ">
<path fill="none" stroke="#63b8ff" d="M975.7,-269.45C1011.3,-255.62 1070.9,-226.96 1044.5,-198 986.32,-134.16 741.74,-181.09 657.5,-162 654.83,-161.39 652.09,-160.65 649.37,-159.82"/>
<polygon fill="#63b8ff" stroke="#63b8ff" points="650.31,-156.44 639.71,-156.55 648.06,-163.07 650.31,-156.44"/>
</a>
</g>
</g>
<!-- Node34 -->
<g id="Node000034" class="node">
<title>Node34</title>
<g id="a_Node000034"><a xlink:href="unordered__map_8hpp.html" target="_top" xlink:title=" ">
<polygon fill="white" stroke="#666666" points="271,-228 154,-228 154,-198 271,-198 271,-228"/>
<text text-anchor="start" x="162" y="-216" font-family="Helvetica,sans-Serif" font-size="10.00">utils/serialization</text>
<text text-anchor="middle" x="212.5" y="-205" font-family="Helvetica,sans-Serif" font-size="10.00">/unordered_map.hpp</text>
</a>
</g>
</g>
<!-- Node2&#45;&gt;Node34 -->
<g id="edge41_Node000002_Node000034" class="edge">
<title>Node2&#45;&gt;Node34</title>
<g id="a_edge41_Node000002_Node000034"><a xlink:title=" ">
<path fill="none" stroke="#63b8ff" d="M915.41,-276.26C816.71,-271.27 534.1,-255.51 300.5,-228 294.25,-227.26 287.76,-226.41 281.27,-225.49"/>
<polygon fill="#63b8ff" stroke="#63b8ff" points="281.51,-221.99 271.1,-224 280.49,-228.91 281.51,-221.99"/>
</a>
</g>
</g>
<!-- Node37 -->
<g id="Node000037" class="node">
<title>Node37</title>
<g id="a_Node000037"><a xlink:title=" ">
<polygon fill="#e0e0e0" stroke="#999999" points="343,-156.5 250,-156.5 250,-137.5 343,-137.5 343,-156.5"/>
<text text-anchor="middle" x="296.5" y="-144.5" font-family="Helvetica,sans-Serif" font-size="10.00">unordered_map</text>
</a>
</g>
</g>
<!-- Node2&#45;&gt;Node37 -->
<g id="edge54_Node000002_Node000037" class="edge">
<title>Node2&#45;&gt;Node37</title>
<g id="a_edge54_Node000002_Node000037"><a xlink:title=" ">
<path fill="none" stroke="#63b8ff" d="M915.27,-276.65C793.89,-271.91 406.39,-254.81 357.5,-228 332.19,-214.12 314.13,-184.81 304.51,-165.78"/>
<polygon fill="#63b8ff" stroke="#63b8ff" points="307.63,-164.18 300.15,-156.67 301.31,-167.2 307.63,-164.18"/>
</a>
</g>
</g>
<!-- Node38 -->
<g id="Node000038" class="node">
<title>Node38</title>
<g id="a_Node000038"><a xlink:title=" ">
<polygon fill="#e0e0e0" stroke="#999999" points="507,-228 400,-228 400,-198 507,-198 507,-228"/>
<text text-anchor="start" x="408" y="-216" font-family="Helvetica,sans-Serif" font-size="10.00">boost/serialization</text>
<text text-anchor="middle" x="453.5" y="-205" font-family="Helvetica,sans-Serif" font-size="10.00">/serialization.hpp</text>
</a>
</g>
</g>
<!-- Node2&#45;&gt;Node38 -->
<g id="edge45_Node000002_Node000038" class="edge">
<title>Node2&#45;&gt;Node38</title>
<g id="a_edge45_Node000002_Node000038"><a xlink:title=" ">
<path fill="none" stroke="#63b8ff" d="M915.43,-275.19C842.15,-269.2 670.5,-253.71 517.26,-228.19"/>
<polygon fill="#63b8ff" stroke="#63b8ff" points="517.64,-224.71 507.2,-226.5 516.48,-231.61 517.64,-224.71"/>
</a>
</g>
</g>
<!-- Node39 -->
<g id="Node000039" class="node">
<title>Node39</title>
<g id="a_Node000039"><a xlink:title=" ">
<polygon fill="#e0e0e0" stroke="#999999" points="632,-228 525,-228 525,-198 632,-198 632,-228"/>
<text text-anchor="start" x="533" y="-216" font-family="Helvetica,sans-Serif" font-size="10.00">boost/serialization</text>
<text text-anchor="middle" x="578.5" y="-205" font-family="Helvetica,sans-Serif" font-size="10.00">/string.hpp</text>
</a>
</g>
</g>
<!-- Node2&#45;&gt;Node39 -->
<g id="edge46_Node000002_Node000039" class="edge">
<title>Node2&#45;&gt;Node39</title>
<g id="a_edge46_Node000002_Node000039"><a xlink:title=" ">
<path fill="none" stroke="#63b8ff" d="M915.45,-272.95C859.19,-264.92 746.87,-248.22 642.32,-228.29"/>
<polygon fill="#63b8ff" stroke="#63b8ff" points="642.71,-224.8 632.23,-226.35 641.39,-231.67 642.71,-224.8"/>
</a>
</g>
</g>
<!-- Node40 -->
<g id="Node000040" class="node">
<title>Node40</title>
<g id="a_Node000040"><a xlink:title=" ">
<polygon fill="#e0e0e0" stroke="#999999" points="757,-228 650,-228 650,-198 757,-198 757,-228"/>
<text text-anchor="start" x="658" y="-216" font-family="Helvetica,sans-Serif" font-size="10.00">boost/serialization</text>
<text text-anchor="middle" x="703.5" y="-205" font-family="Helvetica,sans-Serif" font-size="10.00">/variant.hpp</text>
</a>
</g>
</g>
<!-- Node2&#45;&gt;Node40 -->
<g id="edge47_Node000002_Node000040" class="edge">
<title>Node2&#45;&gt;Node40</title>
<g id="a_edge47_Node000002_Node000040"><a xlink:title=" ">
<path fill="none" stroke="#63b8ff" d="M918.31,-269.44C879.78,-259.49 815.37,-242.87 767.11,-230.41"/>
<polygon fill="#63b8ff" stroke="#63b8ff" points="767.93,-227.01 757.37,-227.9 766.18,-233.79 767.93,-227.01"/>
</a>
</g>
</g>
<!-- Node41 -->
<g id="Node000041" class="node">
<title>Node41</title>
<g id="a_Node000041"><a xlink:title=" ">
<polygon fill="#e0e0e0" stroke="#999999" points="882,-228 775,-228 775,-198 882,-198 882,-228"/>
<text text-anchor="start" x="783" y="-216" font-family="Helvetica,sans-Serif" font-size="10.00">boost/serialization</text>
<text text-anchor="middle" x="828.5" y="-205" font-family="Helvetica,sans-Serif" font-size="10.00">/vector.hpp</text>
</a>
</g>
</g>
<!-- Node2&#45;&gt;Node41 -->
<g id="edge48_Node000002_Node000041" class="edge">
<title>Node2&#45;&gt;Node41</title>
<g id="a_edge48_Node000002_Node000041"><a xlink:title=" ">
<path fill="none" stroke="#63b8ff" d="M934.91,-269.37C916.97,-260.03 887.8,-244.86 864.54,-232.75"/>
<polygon fill="#63b8ff" stroke="#63b8ff" points="866.12,-229.63 855.63,-228.12 862.88,-235.84 866.12,-229.63"/>
</a>
</g>
</g>
<!-- Node42 -->
<g id="Node000042" class="node">
<title>Node42</title>
<g id="a_Node000042"><a xlink:title=" ">
<polygon fill="#e0e0e0" stroke="#999999" points="1002.5,-222.5 900.5,-222.5 900.5,-203.5 1002.5,-203.5 1002.5,-222.5"/>
<text text-anchor="middle" x="951.5" y="-210.5" font-family="Helvetica,sans-Serif" font-size="10.00">boost/variant.hpp</text>
</a>
</g>
</g>
<!-- Node2&#45;&gt;Node42 -->
<g id="edge49_Node000002_Node000042" class="edge">
<title>Node2&#45;&gt;Node42</title>
<g id="a_edge49_Node000002_Node000042"><a xlink:title=" ">
<path fill="none" stroke="#63b8ff" d="M951.5,-269.37C951.5,-260.16 951.5,-245.29 951.5,-233.27"/>
<polygon fill="#63b8ff" stroke="#63b8ff" points="955,-232.91 951.5,-222.91 948,-232.91 955,-232.91"/>
</a>
</g>
</g>
<!-- Node2&#45;&gt;Node43 -->
<g id="edge51_Node000002_Node000043" class="edge">
<title>Node2&#45;&gt;Node43</title>
<g id="a_edge51_Node000002_Node000043"><a xlink:title=" ">
<path fill="none" stroke="#63b8ff" d="M987.52,-274.2C1046.7,-267.54 1168,-252.12 1268.5,-228 1271.53,-227.27 1274.66,-226.43 1277.78,-225.53"/>
<polygon fill="#63b8ff" stroke="#63b8ff" points="1279.05,-228.81 1287.58,-222.53 1277,-222.11 1279.05,-228.81"/>
</a>
</g>
</g>
<!-- Node2&#45;&gt;Node44 -->
<g id="edge52_Node000002_Node000044" class="edge">
<title>Node2&#45;&gt;Node44</title>
<g id="a_edge52_Node000002_Node000044"><a xlink:title=" ">
<path fill="none" stroke="#63b8ff" d="M987.62,-277.06C1058.36,-274.43 1219.63,-264.59 1349.5,-228 1351.14,-227.54 1352.81,-227 1354.47,-226.41"/>
<polygon fill="#63b8ff" stroke="#63b8ff" points="1355.83,-229.64 1363.79,-222.65 1353.21,-223.15 1355.83,-229.64"/>
</a>
</g>
</g>
<!-- Node4 -->
<g id="Node000004" class="node">
<title>Node4</title>
<g id="a_Node000004"><a xlink:title=" ">
<polygon fill="#e0e0e0" stroke="#999999" points="813,-96 706,-96 706,-66 813,-66 813,-96"/>
<text text-anchor="start" x="714" y="-84" font-family="Helvetica,sans-Serif" font-size="10.00">boost/serialization</text>
<text text-anchor="middle" x="759.5" y="-73" font-family="Helvetica,sans-Serif" font-size="10.00">/access.hpp</text>
</a>
</g>
</g>
<!-- Node3&#45;&gt;Node4 -->
<g id="edge3_Node000003_Node000004" class="edge">
<title>Node3&#45;&gt;Node4</title>
<g id="a_edge3_Node000003_Node000004"><a xlink:title=" ">
<path fill="none" stroke="#63b8ff" d="M570.12,-137.49C575.48,-135.63 581.17,-133.7 586.5,-132 623.34,-120.24 664.97,-108.17 698.16,-98.83"/>
<polygon fill="#63b8ff" stroke="#63b8ff" points="699.49,-102.1 708.18,-96.03 697.61,-95.36 699.49,-102.1"/>
</a>
</g>
</g>
<!-- Node3&#45;&gt;Node5 -->
<g id="edge4_Node000003_Node000005" class="edge">
<title>Node3&#45;&gt;Node5</title>
<g id="a_edge4_Node000003_Node000005"><a xlink:title=" ">
<path fill="none" stroke="#63b8ff" d="M556.26,-137.45C574.84,-121.54 617.05,-87.08 657.5,-66 692.03,-48.01 734.44,-34.1 764.08,-25.58"/>
<polygon fill="#63b8ff" stroke="#63b8ff" points="765.32,-28.86 773.99,-22.79 763.42,-22.13 765.32,-28.86"/>
</a>
</g>
</g>
<!-- Node6&#45;&gt;Node5 -->
<g id="edge33_Node000006_Node000005" class="edge">
<title>Node6&#45;&gt;Node5</title>
<g id="a_edge33_Node000006_Node000005"><a xlink:title=" ">
<path fill="none" stroke="#63b8ff" d="M1147.66,-203.43C1138.89,-201.39 1129.38,-199.4 1120.5,-198 1073.14,-190.53 722.96,-197.29 690.5,-162 678.79,-149.27 679.83,-90.02 696.5,-66 712.12,-43.49 740.73,-30.76 764,-23.79"/>
<polygon fill="#63b8ff" stroke="#63b8ff" points="765.2,-27.09 773.91,-21.06 763.34,-20.34 765.2,-27.09"/>
</a>
</g>
</g>
<!-- Node7 -->
<g id="Node000007" class="node">
<title>Node7</title>
<g id="a_Node000007"><a xlink:title=" ">
<polygon fill="#e0e0e0" stroke="#999999" points="1173.5,-156.5 1023.5,-156.5 1023.5,-137.5 1173.5,-137.5 1173.5,-156.5"/>
<text text-anchor="middle" x="1098.5" y="-144.5" font-family="Helvetica,sans-Serif" font-size="10.00">boost/qvm/deduce_vec.hpp</text>
</a>
</g>
</g>
<!-- Node6&#45;&gt;Node7 -->
<g id="edge6_Node000006_Node000007" class="edge">
<title>Node6&#45;&gt;Node7</title>
<g id="a_edge6_Node000006_Node000007"><a xlink:title=" ">
<path fill="none" stroke="#63b8ff" d="M1169.44,-203.37C1156.24,-193.06 1133.92,-175.65 1117.84,-163.09"/>
<polygon fill="#63b8ff" stroke="#63b8ff" points="1119.68,-160.09 1109.65,-156.7 1115.38,-165.61 1119.68,-160.09"/>
</a>
</g>
</g>
<!-- Node8 -->
<g id="Node000008" class="node">
<title>Node8</title>
<g id="a_Node000008"><a xlink:title=" ">
<polygon fill="#e0e0e0" stroke="#999999" points="1331.5,-156.5 1191.5,-156.5 1191.5,-137.5 1331.5,-137.5 1331.5,-156.5"/>
<text text-anchor="middle" x="1261.5" y="-144.5" font-family="Helvetica,sans-Serif" font-size="10.00">boost/qvm/vec_traits.hpp</text>
</a>
</g>
</g>
<!-- Node6&#45;&gt;Node8 -->
<g id="edge7_Node000006_Node000008" class="edge">
<title>Node6&#45;&gt;Node8</title>
<g id="a_edge7_Node000006_Node000008"><a xlink:title=" ">
<path fill="none" stroke="#63b8ff" d="M1191.42,-203.37C1204.47,-193.06 1226.51,-175.65 1242.4,-163.09"/>
<polygon fill="#63b8ff" stroke="#63b8ff" points="1244.81,-165.64 1250.49,-156.7 1240.47,-160.15 1244.81,-165.64"/>
</a>
</g>
</g>
<!-- Node9 -->
<g id="Node000009" class="node">
<title>Node9</title>
<g id="a_Node000009"><a xlink:href="Array_8hpp.html" target="_top" xlink:title="Array implementation with CUDA support.">
<polygon fill="white" stroke="#666666" points="1435.5,-156.5 1349.5,-156.5 1349.5,-137.5 1435.5,-137.5 1435.5,-156.5"/>
<text text-anchor="middle" x="1392.5" y="-144.5" font-family="Helvetica,sans-Serif" font-size="10.00">utils/Array.hpp</text>
</a>
</g>
</g>
<!-- Node6&#45;&gt;Node9 -->
<g id="edge8_Node000006_Node000009" class="edge">
<title>Node6&#45;&gt;Node9</title>
<g id="a_edge8_Node000006_Node000009"><a xlink:title=" ">
<path fill="none" stroke="#63b8ff" d="M1209.09,-203.37C1246.58,-192.05 1312.46,-172.16 1354.22,-159.56"/>
<polygon fill="#63b8ff" stroke="#63b8ff" points="1355.46,-162.84 1364.02,-156.6 1353.44,-156.14 1355.46,-162.84"/>
</a>
</g>
</g>
<!-- Node11 -->
<g id="Node000011" class="node">
<title>Node11</title>
<g id="a_Node000011"><a xlink:title=" ">
<polygon fill="#e0e0e0" stroke="#999999" points="1198.5,-24.5 1146.5,-24.5 1146.5,-5.5 1198.5,-5.5 1198.5,-24.5"/>
<text text-anchor="middle" x="1172.5" y="-12.5" font-family="Helvetica,sans-Serif" font-size="10.00">cassert</text>
</a>
</g>
</g>
<!-- Node6&#45;&gt;Node11 -->
<g id="edge31_Node000006_Node000011" class="edge">
<title>Node6&#45;&gt;Node11</title>
<g id="a_edge31_Node000006_Node000011"><a xlink:title=" ">
<path fill="none" stroke="#63b8ff" d="M1209.5,-203.5C1216.66,-201.55 1224.33,-199.59 1231.5,-198 1278.37,-187.63 1413.51,-198.66 1444.5,-162 1460.48,-143.09 1445.01,-79.82 1430.5,-66 1357.79,3.23 1304.25,-56.81 1207.5,-30 1205.56,-29.46 1203.58,-28.85 1201.6,-28.19"/>
<polygon fill="#63b8ff" stroke="#63b8ff" points="1202.45,-24.78 1191.86,-24.63 1200.05,-31.35 1202.45,-24.78"/>
</a>
</g>
</g>
<!-- Node23 -->
<g id="Node000023" class="node">
<title>Node23</title>
<g id="a_Node000023"><a xlink:title=" ">
<polygon fill="#e0e0e0" stroke="#999999" points="1694,-90.5 1641,-90.5 1641,-71.5 1694,-71.5 1694,-90.5"/>
<text text-anchor="middle" x="1667.5" y="-78.5" font-family="Helvetica,sans-Serif" font-size="10.00">iterator</text>
</a>
</g>
</g>
<!-- Node6&#45;&gt;Node23 -->
<g id="edge36_Node000006_Node000023" class="edge">
<title>Node6&#45;&gt;Node23</title>
<g id="a_edge36_Node000006_Node000023"><a xlink:title=" ">
<path fill="none" stroke="#63b8ff" d="M1214.98,-203.47C1223.31,-201.54 1232.2,-199.6 1240.5,-198 1345.12,-177.88 1378.56,-201.51 1477.5,-162 1499.14,-153.36 1499.62,-142.35 1520.5,-132 1567.35,-108.78 1583.31,-113.72 1632.5,-96 1634.11,-95.42 1635.75,-94.81 1637.41,-94.19"/>
<polygon fill="#63b8ff" stroke="#63b8ff" points="1638.8,-97.41 1646.86,-90.53 1636.27,-90.88 1638.8,-97.41"/>
</a>
</g>
</g>
<!-- Node26 -->
<g id="Node000026" class="node">
<title>Node26</title>
<g id="a_Node000026"><a xlink:title=" ">
<polygon fill="#e0e0e0" stroke="#999999" points="1593.5,-156.5 1529.5,-156.5 1529.5,-137.5 1593.5,-137.5 1593.5,-156.5"/>
<text text-anchor="middle" x="1561.5" y="-144.5" font-family="Helvetica,sans-Serif" font-size="10.00">algorithm</text>
</a>
</g>
</g>
<!-- Node6&#45;&gt;Node26 -->
<g id="edge30_Node000006_Node000026" class="edge">
<title>Node6&#45;&gt;Node26</title>
<g id="a_edge30_Node000006_Node000026"><a xlink:title=" ">
<path fill="none" stroke="#63b8ff" d="M1214.33,-203.49C1222.84,-201.52 1231.98,-199.55 1240.5,-198 1361.78,-175.97 1395.02,-188.03 1515.5,-162 1518.95,-161.25 1522.52,-160.37 1526.06,-159.42"/>
<polygon fill="#63b8ff" stroke="#63b8ff" points="1527.26,-162.72 1535.91,-156.61 1525.33,-155.99 1527.26,-162.72"/>
</a>
</g>
</g>
<!-- Node27 -->
<g id="Node000027" class="node">
<title>Node27</title>
<g id="a_Node000027"><a xlink:title=" ">
<polygon fill="#e0e0e0" stroke="#999999" points="747,-156.5 700,-156.5 700,-137.5 747,-137.5 747,-156.5"/>
<text text-anchor="middle" x="723.5" y="-144.5" font-family="Helvetica,sans-Serif" font-size="10.00">cmath</text>
</a>
</g>
</g>
<!-- Node6&#45;&gt;Node27 -->
<g id="edge32_Node000006_Node000027" class="edge">
<title>Node6&#45;&gt;Node27</title>
<g id="a_edge32_Node000006_Node000027"><a xlink:title=" ">
<path fill="none" stroke="#63b8ff" d="M1147.33,-203.44C1138.65,-201.43 1129.26,-199.45 1120.5,-198 959.67,-171.42 913.22,-203.18 755.5,-162 753.61,-161.51 751.68,-160.91 749.77,-160.26"/>
<polygon fill="#63b8ff" stroke="#63b8ff" points="751,-156.98 740.42,-156.58 748.44,-163.5 751,-156.98"/>
</a>
</g>
</g>
<!-- Node28 -->
<g id="Node000028" class="node">
<title>Node28</title>
<g id="a_Node000028"><a xlink:title=" ">
<polygon fill="#e0e0e0" stroke="#999999" points="830,-156.5 765,-156.5 765,-137.5 830,-137.5 830,-156.5"/>
<text text-anchor="middle" x="797.5" y="-144.5" font-family="Helvetica,sans-Serif" font-size="10.00">functional</text>
</a>
</g>
</g>
<!-- Node6&#45;&gt;Node28 -->
<g id="edge34_Node000006_Node000028" class="edge">
<title>Node6&#45;&gt;Node28</title>
<g id="a_edge34_Node000006_Node000028"><a xlink:title=" ">
<path fill="none" stroke="#63b8ff" d="M1146.67,-203.47C1138.16,-201.5 1129.03,-199.53 1120.5,-198 996.15,-175.62 961.58,-190.56 838.5,-162 835.52,-161.31 832.45,-160.48 829.4,-159.58"/>
<polygon fill="#63b8ff" stroke="#63b8ff" points="830.41,-156.23 819.82,-156.53 828.29,-162.9 830.41,-156.23"/>
</a>
</g>
</g>
<!-- Node29 -->
<g id="Node000029" class="node">
<title>Node29</title>
<g id="a_Node000029"><a xlink:title=" ">
<polygon fill="#e0e0e0" stroke="#999999" points="931,-156.5 848,-156.5 848,-137.5 931,-137.5 931,-156.5"/>
<text text-anchor="middle" x="889.5" y="-144.5" font-family="Helvetica,sans-Serif" font-size="10.00">initializer_list</text>
</a>
</g>
</g>
<!-- Node6&#45;&gt;Node29 -->
<g id="edge35_Node000006_Node000029" class="edge">
<title>Node6&#45;&gt;Node29</title>
<g id="a_edge35_Node000006_Node000029"><a xlink:title=" ">
<path fill="none" stroke="#63b8ff" d="M1144.69,-203.45C1136.74,-201.6 1128.34,-199.7 1120.5,-198 1040.76,-180.73 1019.89,-180.81 940.5,-162 936.85,-161.13 933.06,-160.19 929.27,-159.21"/>
<polygon fill="#63b8ff" stroke="#63b8ff" points="929.91,-155.76 919.34,-156.57 928.11,-162.52 929.91,-155.76"/>
</a>
</g>
</g>
<!-- Node30 -->
<g id="Node000030" class="node">
<title>Node30</title>
<g id="a_Node000030"><a xlink:title=" ">
<polygon fill="#e0e0e0" stroke="#999999" points="1005.5,-156.5 949.5,-156.5 949.5,-137.5 1005.5,-137.5 1005.5,-156.5"/>
<text text-anchor="middle" x="977.5" y="-144.5" font-family="Helvetica,sans-Serif" font-size="10.00">numeric</text>
</a>
</g>
</g>
<!-- Node6&#45;&gt;Node30 -->
<g id="edge37_Node000006_Node000030" class="edge">
<title>Node6&#45;&gt;Node30</title>
<g id="a_edge37_Node000006_Node000030"><a xlink:title=" ">
<path fill="none" stroke="#63b8ff" d="M1149.7,-203.41C1116.22,-193.92 1061.24,-177.86 1014.5,-162 1012.65,-161.37 1010.75,-160.71 1008.83,-160.03"/>
<polygon fill="#63b8ff" stroke="#63b8ff" points="1009.92,-156.7 999.32,-156.54 1007.51,-163.27 1009.92,-156.7"/>
</a>
</g>
</g>
<!-- Node6&#45;&gt;Node31 -->
<g id="edge38_Node000006_Node000031" class="edge">
<title>Node6&#45;&gt;Node31</title>
<g id="a_edge38_Node000006_Node000031"><a xlink:title=" ">
<path fill="none" stroke="#63b8ff" d="M1226.78,-204.44C1241.67,-202.17 1258.26,-199.8 1273.5,-198 1458.23,-176.14 1511.11,-211.25 1690.5,-162 1691.95,-161.6 1693.41,-161.13 1694.87,-160.61"/>
<polygon fill="#63b8ff" stroke="#63b8ff" points="1696.41,-163.76 1704.25,-156.64 1693.68,-157.32 1696.41,-163.76"/>
</a>
</g>
</g>
<!-- Node6&#45;&gt;Node32 -->
<g id="edge39_Node000006_Node000032" class="edge">
<title>Node6&#45;&gt;Node32</title>
<g id="a_edge39_Node000006_Node000032"><a xlink:title=" ">
<path fill="none" stroke="#63b8ff" d="M1213.67,-203.45C1222.36,-201.43 1231.74,-199.45 1240.5,-198 1400.01,-171.57 1444.16,-194.69 1602.5,-162 1605.9,-161.3 1609.41,-160.43 1612.89,-159.48"/>
<polygon fill="#63b8ff" stroke="#63b8ff" points="1613.94,-162.82 1622.53,-156.62 1611.95,-156.11 1613.94,-162.82"/>
</a>
</g>
</g>
<!-- Node6&#45;&gt;Node33 -->
<g id="edge40_Node000006_Node000033" class="edge">
<title>Node6&#45;&gt;Node33</title>
<g id="a_edge40_Node000006_Node000033"><a xlink:title=" ">
<path fill="none" stroke="#63b8ff" d="M1147.98,-203.47C1139.12,-201.4 1129.49,-199.39 1120.5,-198 916.53,-166.46 859.13,-206.09 657.5,-162 654.82,-161.41 652.08,-160.68 649.36,-159.86"/>
<polygon fill="#63b8ff" stroke="#63b8ff" points="650.3,-156.49 639.7,-156.61 648.06,-163.12 650.3,-156.49"/>
</a>
</g>
</g>
<!-- Node9&#45;&gt;Node4 -->
<g id="edge24_Node000009_Node000004" class="edge">
<title>Node9&#45;&gt;Node4</title>
<g id="a_edge24_Node000009_Node000004"><a xlink:title=" ">
<path fill="none" stroke="#63b8ff" d="M1364.37,-137.44C1356.69,-135.38 1348.33,-133.37 1340.5,-132 1153.35,-99.17 1103.79,-112.55 914.5,-96 884.53,-93.38 851.32,-90.39 823.35,-87.85"/>
<polygon fill="#63b8ff" stroke="#63b8ff" points="823.57,-84.36 813.29,-86.94 822.93,-91.33 823.57,-84.36"/>
</a>
</g>
</g>
<!-- Node9&#45;&gt;Node5 -->
<g id="edge26_Node000009_Node000005" class="edge">
<title>Node9&#45;&gt;Node5</title>
<g id="a_edge26_Node000009_Node000005"><a xlink:title=" ">
<path fill="none" stroke="#63b8ff" d="M1364.08,-137.47C1356.48,-135.43 1348.22,-133.43 1340.5,-132 1187.17,-103.64 1142.6,-134.54 991.5,-96 929.41,-80.16 861.19,-47.6 825.47,-29.28"/>
<polygon fill="#63b8ff" stroke="#63b8ff" points="826.78,-26.01 816.29,-24.51 823.56,-32.22 826.78,-26.01"/>
</a>
</g>
</g>
<!-- Node10 -->
<g id="Node000010" class="node">
<title>Node10</title>
<g id="a_Node000010"><a xlink:href="device__qualifier_8hpp.html" target="_top" xlink:title=" ">
<polygon fill="white" stroke="#666666" points="1340.5,-90.5 1226.5,-90.5 1226.5,-71.5 1340.5,-71.5 1340.5,-90.5"/>
<text text-anchor="middle" x="1283.5" y="-78.5" font-family="Helvetica,sans-Serif" font-size="10.00">device_qualifier.hpp</text>
</a>
</g>
</g>
<!-- Node9&#45;&gt;Node10 -->
<g id="edge9_Node000009_Node000010" class="edge">
<title>Node9&#45;&gt;Node10</title>
<g id="a_edge9_Node000009_Node000010"><a xlink:title=" ">
<path fill="none" stroke="#63b8ff" d="M1377.8,-137.37C1359.68,-126.73 1328.65,-108.51 1307.16,-95.89"/>
<polygon fill="#63b8ff" stroke="#63b8ff" points="1308.71,-92.74 1298.32,-90.7 1305.17,-98.78 1308.71,-92.74"/>
</a>
</g>
</g>
<!-- Node9&#45;&gt;Node11 -->
<g id="edge25_Node000009_Node000011" class="edge">
<title>Node9&#45;&gt;Node11</title>
<g id="a_edge25_Node000009_Node000011"><a xlink:title=" ">
<path fill="none" stroke="#63b8ff" d="M1361.45,-137.45C1311.95,-123.78 1220.39,-98.28 1217.5,-96 1197.43,-80.15 1184.84,-52.73 1178.23,-34.48"/>
<polygon fill="#63b8ff" stroke="#63b8ff" points="1181.53,-33.31 1175.03,-24.94 1174.9,-35.54 1181.53,-33.31"/>
</a>
</g>
</g>
<!-- Node12 -->
<g id="Node000012" class="node">
<title>Node12</title>
<g id="a_Node000012"><a xlink:href="get_8hpp.html" target="_top" xlink:title=" ">
<polygon fill="white" stroke="#666666" points="1137,-90.5 1084,-90.5 1084,-71.5 1137,-71.5 1137,-90.5"/>
<text text-anchor="middle" x="1110.5" y="-78.5" font-family="Helvetica,sans-Serif" font-size="10.00">get.hpp</text>
</a>
</g>
</g>
<!-- Node9&#45;&gt;Node12 -->
<g id="edge11_Node000009_Node000012" class="edge">
<title>Node9&#45;&gt;Node12</title>
<g id="a_edge11_Node000009_Node000012"><a xlink:title=" ">
<path fill="none" stroke="#63b8ff" d="M1361.77,-137.45C1354.79,-135.59 1347.41,-133.67 1340.5,-132 1266.71,-114.12 1247.67,-112.24 1173.5,-96 1164.93,-94.12 1155.7,-92.08 1147.02,-90.16"/>
<polygon fill="#63b8ff" stroke="#63b8ff" points="1147.68,-86.72 1137.16,-87.96 1146.16,-93.55 1147.68,-86.72"/>
</a>
</g>
</g>
<!-- Node14 -->
<g id="Node000014" class="node">
<title>Node14</title>
<g id="a_Node000014"><a xlink:href="array_8hpp.html" target="_top" xlink:title=" ">
<polygon fill="white" stroke="#666666" points="1623,-90.5 1498,-90.5 1498,-71.5 1623,-71.5 1623,-90.5"/>
<text text-anchor="middle" x="1560.5" y="-78.5" font-family="Helvetica,sans-Serif" font-size="10.00">serialization/array.hpp</text>
</a>
</g>
</g>
<!-- Node9&#45;&gt;Node14 -->
<g id="edge14_Node000009_Node000014" class="edge">
<title>Node9&#45;&gt;Node14</title>
<g id="a_edge14_Node000009_Node000014"><a xlink:title=" ">
<path fill="none" stroke="#63b8ff" d="M1415.16,-137.37C1444.3,-126.27 1495.09,-106.92 1528.25,-94.28"/>
<polygon fill="#63b8ff" stroke="#63b8ff" points="1529.84,-97.43 1537.93,-90.6 1527.34,-90.89 1529.84,-97.43"/>
</a>
</g>
</g>
<!-- Node9&#45;&gt;Node23 -->
<g id="edge27_Node000009_Node000023" class="edge">
<title>Node9&#45;&gt;Node23</title>
<g id="a_edge27_Node000009_Node000023"><a xlink:title=" ">
<path fill="none" stroke="#63b8ff" d="M1435.55,-139.37C1484.03,-131.37 1564.86,-116.4 1632.5,-96 1634.38,-95.43 1636.3,-94.81 1638.22,-94.14"/>
<polygon fill="#63b8ff" stroke="#63b8ff" points="1639.57,-97.38 1647.73,-90.61 1637.13,-90.81 1639.57,-97.38"/>
</a>
</g>
</g>
<!-- Node24 -->
<g id="Node000024" class="node">
<title>Node24</title>
<g id="a_Node000024"><a xlink:title=" ">
<polygon fill="#e0e0e0" stroke="#999999" points="1421,-90.5 1364,-90.5 1364,-71.5 1421,-71.5 1421,-90.5"/>
<text text-anchor="middle" x="1392.5" y="-78.5" font-family="Helvetica,sans-Serif" font-size="10.00">ostream</text>
</a>
</g>
</g>
<!-- Node9&#45;&gt;Node24 -->
<g id="edge28_Node000009_Node000024" class="edge">
<title>Node9&#45;&gt;Node24</title>
<g id="a_edge28_Node000009_Node000024"><a xlink:title=" ">
<path fill="none" stroke="#63b8ff" d="M1392.5,-137.37C1392.5,-128.16 1392.5,-113.29 1392.5,-101.27"/>
<polygon fill="#63b8ff" stroke="#63b8ff" points="1396,-100.91 1392.5,-90.91 1389,-100.91 1396,-100.91"/>
</a>
</g>
</g>
<!-- Node25 -->
<g id="Node000025" class="node">
<title>Node25</title>
<g id="a_Node000025"><a xlink:title=" ">
<polygon fill="#e0e0e0" stroke="#999999" points="1066,-90.5 1001,-90.5 1001,-71.5 1066,-71.5 1066,-90.5"/>
<text text-anchor="middle" x="1033.5" y="-78.5" font-family="Helvetica,sans-Serif" font-size="10.00">stdexcept</text>
</a>
</g>
</g>
<!-- Node9&#45;&gt;Node25 -->
<g id="edge29_Node000009_Node000025" class="edge">
<title>Node9&#45;&gt;Node25</title>
<g id="a_edge29_Node000009_Node000025"><a xlink:title=" ">
<path fill="none" stroke="#63b8ff" d="M1363.5,-137.49C1356.05,-135.49 1348.02,-133.51 1340.5,-132 1223.55,-108.44 1190.61,-123.41 1074.5,-96 1071.52,-95.3 1068.45,-94.46 1065.4,-93.56"/>
<polygon fill="#63b8ff" stroke="#63b8ff" points="1066.42,-90.21 1055.83,-90.5 1064.29,-96.88 1066.42,-90.21"/>
</a>
</g>
</g>
<!-- Node10&#45;&gt;Node11 -->
<g id="edge10_Node000010_Node000011" class="edge">
<title>Node10&#45;&gt;Node11</title>
<g id="a_edge10_Node000010_Node000011"><a xlink:title=" ">
<path fill="none" stroke="#63b8ff" d="M1268.53,-71.37C1249.99,-60.68 1218.19,-42.35 1196.3,-29.72"/>
<polygon fill="#63b8ff" stroke="#63b8ff" points="1198,-26.66 1187.59,-24.7 1194.5,-32.73 1198,-26.66"/>
</a>
</g>
</g>
<!-- Node12&#45;&gt;Node5 -->
<g id="edge12_Node000012_Node000005" class="edge">
<title>Node12&#45;&gt;Node5</title>
<g id="a_edge12_Node000012_Node000005"><a xlink:title=" ">
<path fill="none" stroke="#63b8ff" d="M1090.55,-71.46C1085.39,-69.47 1079.79,-67.5 1074.5,-66 991.18,-42.43 890.37,-27.37 837.29,-20.45"/>
<polygon fill="#63b8ff" stroke="#63b8ff" points="837.7,-16.97 827.33,-19.17 836.81,-23.91 837.7,-16.97"/>
</a>
</g>
</g>
<!-- Node13 -->
<g id="Node000013" class="node">
<title>Node13</title>
<g id="a_Node000013"><a xlink:title=" ">
<polygon fill="#e0e0e0" stroke="#999999" points="1128,-24.5 1087,-24.5 1087,-5.5 1128,-5.5 1128,-24.5"/>
<text text-anchor="middle" x="1107.5" y="-12.5" font-family="Helvetica,sans-Serif" font-size="10.00">tuple</text>
</a>
</g>
</g>
<!-- Node12&#45;&gt;Node13 -->
<g id="edge13_Node000012_Node000013" class="edge">
<title>Node12&#45;&gt;Node13</title>
<g id="a_edge13_Node000012_Node000013"><a xlink:title=" ">
<path fill="none" stroke="#63b8ff" d="M1110.1,-71.37C1109.66,-62.07 1108.95,-46.98 1108.39,-34.9"/>
<polygon fill="#63b8ff" stroke="#63b8ff" points="1111.88,-34.73 1107.92,-24.91 1104.89,-35.06 1111.88,-34.73"/>
</a>
</g>
</g>
<!-- Node14&#45;&gt;Node5 -->
<g id="edge23_Node000014_Node000005" class="edge">
<title>Node14&#45;&gt;Node5</title>
<g id="a_edge23_Node000014_Node000005"><a xlink:title=" ">
<path fill="none" stroke="#63b8ff" d="M1497.72,-72.88C1476.4,-70.56 1452.42,-68.05 1430.5,-66 1205.43,-44.95 934.59,-25.4 837.42,-18.57"/>
<polygon fill="#63b8ff" stroke="#63b8ff" points="837.46,-15.06 827.23,-17.85 836.97,-22.04 837.46,-15.06"/>
</a>
</g>
</g>
<!-- Node15 -->
<g id="Node000015" class="node">
<title>Node15</title>
<g id="a_Node000015"><a xlink:title=" ">
<polygon fill="#e0e0e0" stroke="#999999" points="2024,-24.5 1891,-24.5 1891,-5.5 2024,-5.5 2024,-24.5"/>
<text text-anchor="middle" x="1957.5" y="-12.5" font-family="Helvetica,sans-Serif" font-size="10.00">boost/mpl/bool_fwd.hpp</text>
</a>
</g>
</g>
<!-- Node14&#45;&gt;Node15 -->
<g id="edge15_Node000014_Node000015" class="edge">
<title>Node14&#45;&gt;Node15</title>
<g id="a_edge15_Node000014_Node000015"><a xlink:title=" ">
<path fill="none" stroke="#63b8ff" d="M1602.7,-71.44C1612.47,-69.55 1622.83,-67.64 1632.5,-66 1743.19,-47.28 1771.75,-48.3 1882.5,-30 1889.26,-28.88 1896.35,-27.65 1903.36,-26.38"/>
<polygon fill="#63b8ff" stroke="#63b8ff" points="1904.33,-29.76 1913.53,-24.52 1903.07,-22.88 1904.33,-29.76"/>
</a>
</g>
</g>
<!-- Node16 -->
<g id="Node000016" class="node">
<title>Node16</title>
<g id="a_Node000016"><a xlink:title=" ">
<polygon fill="#e0e0e0" stroke="#999999" points="2166.5,-24.5 2042.5,-24.5 2042.5,-5.5 2166.5,-5.5 2166.5,-24.5"/>
<text text-anchor="middle" x="2104.5" y="-12.5" font-family="Helvetica,sans-Serif" font-size="10.00">boost/mpl/greater.hpp</text>
</a>
</g>
</g>
<!-- Node14&#45;&gt;Node16 -->
<g id="edge16_Node000014_Node000016" class="edge">
<title>Node14&#45;&gt;Node16</title>
<g id="a_edge16_Node000014_Node000016"><a xlink:title=" ">
<path fill="none" stroke="#63b8ff" d="M1600.37,-71.49C1610.79,-69.48 1622.04,-67.48 1632.5,-66 1809.67,-40.89 1856.36,-55.34 2033.5,-30 2040.6,-28.98 2048.06,-27.73 2055.37,-26.38"/>
<polygon fill="#63b8ff" stroke="#63b8ff" points="2056.02,-29.82 2065.19,-24.52 2054.72,-22.95 2056.02,-29.82"/>
</a>
</g>
</g>
<!-- Node17 -->
<g id="Node000017" class="node">
<title>Node17</title>
<g id="a_Node000017"><a xlink:title=" ">
<polygon fill="#e0e0e0" stroke="#999999" points="2286.5,-24.5 2184.5,-24.5 2184.5,-5.5 2286.5,-5.5 2286.5,-24.5"/>
<text text-anchor="middle" x="2235.5" y="-12.5" font-family="Helvetica,sans-Serif" font-size="10.00">boost/mpl/int.hpp</text>
</a>
</g>
</g>
<!-- Node14&#45;&gt;Node17 -->
<g id="edge17_Node000014_Node000017" class="edge">
<title>Node14&#45;&gt;Node17</title>
<g id="a_edge17_Node000014_Node000017"><a xlink:title=" ">
<path fill="none" stroke="#63b8ff" d="M1599.59,-71.47C1610.22,-69.41 1621.77,-67.39 1632.5,-66 1872.35,-34.86 1936.27,-65.6 2175.5,-30 2181.33,-29.13 2187.43,-27.99 2193.41,-26.73"/>
<polygon fill="#63b8ff" stroke="#63b8ff" points="2194.3,-30.12 2203.3,-24.53 2192.78,-23.29 2194.3,-30.12"/>
</a>
</g>
</g>
<!-- Node18 -->
<g id="Node000018" class="node">
<title>Node18</title>
<g id="a_Node000018"><a xlink:title=" ">
<polygon fill="#e0e0e0" stroke="#999999" points="1322.5,-30 1216.5,-30 1216.5,0 1322.5,0 1322.5,-30"/>
<text text-anchor="start" x="1224.5" y="-18" font-family="Helvetica,sans-Serif" font-size="10.00">boost/mpl/integral</text>
<text text-anchor="middle" x="1269.5" y="-7" font-family="Helvetica,sans-Serif" font-size="10.00">_c_tag.hpp</text>
</a>
</g>
</g>
<!-- Node14&#45;&gt;Node18 -->
<g id="edge18_Node000014_Node000018" class="edge">
<title>Node14&#45;&gt;Node18</title>
<g id="a_edge18_Node000014_Node000018"><a xlink:title=" ">
<path fill="none" stroke="#63b8ff" d="M1520.77,-71.41C1477.13,-61.97 1404.72,-46.23 1332.74,-30.27"/>
<polygon fill="#63b8ff" stroke="#63b8ff" points="1333.12,-26.77 1322.59,-28.02 1331.6,-33.6 1333.12,-26.77"/>
</a>
</g>
</g>
<!-- Node19 -->
<g id="Node000019" class="node">
<title>Node19</title>
<g id="a_Node000019"><a xlink:title=" ">
<polygon fill="#e0e0e0" stroke="#999999" points="1492,-30 1341,-30 1341,0 1492,0 1492,-30"/>
<text text-anchor="start" x="1349" y="-18" font-family="Helvetica,sans-Serif" font-size="10.00">boost/serialization</text>
<text text-anchor="middle" x="1416.5" y="-7" font-family="Helvetica,sans-Serif" font-size="10.00">/is_bitwise_serializable.hpp</text>
</a>
</g>
</g>
<!-- Node14&#45;&gt;Node19 -->
<g id="edge19_Node000014_Node000019" class="edge">
<title>Node14&#45;&gt;Node19</title>
<g id="a_edge19_Node000014_Node000019"><a xlink:title=" ">
<path fill="none" stroke="#63b8ff" d="M1541.08,-71.37C1519.79,-61.91 1485.02,-46.45 1457.61,-34.27"/>
<polygon fill="#63b8ff" stroke="#63b8ff" points="1458.82,-30.98 1448.26,-30.12 1455.98,-37.38 1458.82,-30.98"/>
</a>
</g>
</g>
<!-- Node20 -->
<g id="Node000020" class="node">
<title>Node20</title>
<g id="a_Node000020"><a xlink:title=" ">
<polygon fill="#e0e0e0" stroke="#999999" points="1617,-30 1510,-30 1510,0 1617,0 1617,-30"/>
<text text-anchor="start" x="1518" y="-18" font-family="Helvetica,sans-Serif" font-size="10.00">boost/serialization</text>
<text text-anchor="middle" x="1563.5" y="-7" font-family="Helvetica,sans-Serif" font-size="10.00">/level.hpp</text>
</a>
</g>
</g>
<!-- Node14&#45;&gt;Node20 -->
<g id="edge20_Node000014_Node000020" class="edge">
<title>Node14&#45;&gt;Node20</title>
<g id="a_edge20_Node000014_Node000020"><a xlink:title=" ">
<path fill="none" stroke="#63b8ff" d="M1560.9,-71.37C1561.27,-63.49 1561.84,-51.45 1562.35,-40.6"/>
<polygon fill="#63b8ff" stroke="#63b8ff" points="1565.85,-40.51 1562.83,-30.36 1558.86,-40.19 1565.85,-40.51"/>
</a>
</g>
</g>
<!-- Node21 -->
<g id="Node000021" class="node">
<title>Node21</title>
<g id="a_Node000021"><a xlink:title=" ">
<polygon fill="#e0e0e0" stroke="#999999" points="1742,-30 1635,-30 1635,0 1742,0 1742,-30"/>
<text text-anchor="start" x="1643" y="-18" font-family="Helvetica,sans-Serif" font-size="10.00">boost/serialization</text>
<text text-anchor="middle" x="1688.5" y="-7" font-family="Helvetica,sans-Serif" font-size="10.00">/tracking.hpp</text>
</a>
</g>
</g>
<!-- Node14&#45;&gt;Node21 -->
<g id="edge21_Node000014_Node000021" class="edge">
<title>Node14&#45;&gt;Node21</title>
<g id="a_edge21_Node000014_Node000021"><a xlink:title=" ">
<path fill="none" stroke="#63b8ff" d="M1577.76,-71.37C1596.52,-61.99 1627.06,-46.72 1651.32,-34.59"/>
<polygon fill="#63b8ff" stroke="#63b8ff" points="1652.89,-37.72 1660.27,-30.12 1649.76,-31.46 1652.89,-37.72"/>
</a>
</g>
</g>
<!-- Node22 -->
<g id="Node000022" class="node">
<title>Node22</title>
<g id="a_Node000022"><a xlink:title=" ">
<polygon fill="#e0e0e0" stroke="#999999" points="1873,-30 1760,-30 1760,0 1873,0 1873,-30"/>
<text text-anchor="start" x="1768" y="-18" font-family="Helvetica,sans-Serif" font-size="10.00">boost/serialization</text>
<text text-anchor="middle" x="1816.5" y="-7" font-family="Helvetica,sans-Serif" font-size="10.00">/tracking_enum.hpp</text>
</a>
</g>
</g>
<!-- Node14&#45;&gt;Node22 -->
<g id="edge22_Node000014_Node000022" class="edge">
<title>Node14&#45;&gt;Node22</title>
<g id="a_edge22_Node000014_Node000022"><a xlink:title=" ">
<path fill="none" stroke="#63b8ff" d="M1594.76,-71.44C1634.48,-61.5 1700.87,-44.91 1750.67,-32.46"/>
<polygon fill="#63b8ff" stroke="#63b8ff" points="1751.55,-35.85 1760.4,-30.02 1749.85,-29.05 1751.55,-35.85"/>
</a>
</g>
</g>
<!-- Node35 -->
<g id="Node000035" class="node">
<title>Node35</title>
<g id="a_Node000035"><a xlink:title=" ">
<polygon fill="#e0e0e0" stroke="#999999" points="232,-162 125,-162 125,-132 232,-132 232,-162"/>
<text text-anchor="start" x="133" y="-150" font-family="Helvetica,sans-Serif" font-size="10.00">boost/serialization</text>
<text text-anchor="middle" x="178.5" y="-139" font-family="Helvetica,sans-Serif" font-size="10.00">/split_free.hpp</text>
</a>
</g>
</g>
<!-- Node34&#45;&gt;Node35 -->
<g id="edge42_Node000034_Node000035" class="edge">
<title>Node34&#45;&gt;Node35</title>
<g id="a_edge42_Node000034_Node000035"><a xlink:title=" ">
<path fill="none" stroke="#63b8ff" d="M204.95,-197.8C200.82,-190.01 195.58,-180.16 190.87,-171.28"/>
<polygon fill="#63b8ff" stroke="#63b8ff" points="193.81,-169.35 186.02,-162.16 187.63,-172.64 193.81,-169.35"/>
</a>
</g>
</g>
<!-- Node36 -->
<g id="Node000036" class="node">
<title>Node36</title>
<g id="a_Node000036"><a xlink:title=" ">
<polygon fill="#e0e0e0" stroke="#999999" points="107,-162 0,-162 0,-132 107,-132 107,-162"/>
<text text-anchor="start" x="8" y="-150" font-family="Helvetica,sans-Serif" font-size="10.00">boost/serialization</text>
<text text-anchor="middle" x="53.5" y="-139" font-family="Helvetica,sans-Serif" font-size="10.00">/utility.hpp</text>
</a>
</g>
</g>
<!-- Node34&#45;&gt;Node36 -->
<g id="edge43_Node000034_Node000036" class="edge">
<title>Node34&#45;&gt;Node36</title>
<g id="a_edge43_Node000034_Node000036"><a xlink:title=" ">
<path fill="none" stroke="#63b8ff" d="M177.61,-197.95C154.1,-188.49 122.9,-175.93 97.66,-165.78"/>
<polygon fill="#63b8ff" stroke="#63b8ff" points="98.9,-162.5 88.31,-162.01 96.28,-168.99 98.9,-162.5"/>
</a>
</g>
</g>
<!-- Node34&#45;&gt;Node37 -->
<g id="edge44_Node000034_Node000037" class="edge">
<title>Node34&#45;&gt;Node37</title>
<g id="a_edge44_Node000034_Node000037"><a xlink:title=" ">
<path fill="none" stroke="#63b8ff" d="M231.14,-197.8C244.62,-187.53 262.81,-173.67 276.58,-163.18"/>
<polygon fill="#63b8ff" stroke="#63b8ff" points="279.06,-165.69 284.89,-156.84 274.82,-160.12 279.06,-165.69"/>
</a>
</g>
</g>
</g>
</svg>
