<?xml version="1.0" encoding="UTF-8" standalone="no"?>
<!DOCTYPE svg PUBLIC "-//W3C//DTD SVG 1.1//EN"
 "http://www.w3.org/Graphics/SVG/1.1/DTD/svg11.dtd">
<!-- Generated by graphviz version 2.43.0 (0)
 -->
<!-- Title: observable.hpp Pages: 1 -->
<svg width="303pt" height="140pt"
 viewBox="0.00 0.00 302.50 140.00" xmlns="http://www.w3.org/2000/svg" xmlns:xlink="http://www.w3.org/1999/xlink">
<g id="graph0" class="graph" transform="scale(1 1) rotate(0) translate(4 136)">
<title>observable.hpp</title>
<!-- Node1 -->
<g id="node1" class="node">
<title>Node1</title>
<g id="a_node1"><a xlink:title=" ">
<polygon fill="#bfbfbf" stroke="black" points="151,-112.5 151,-131.5 243,-131.5 243,-112.5 151,-112.5"/>
<text text-anchor="middle" x="197" y="-119.5" font-family="Helvetica,sans-Serif" font-size="10.00">observable.hpp</text>
</a>
</g>
</g>
<!-- Node2 -->
<g id="node2" class="node">
<title>Node2</title>
<g id="a_node2"><a xlink:href="algorithms_8hpp.html" target="_top" xlink:title=" ">
<polygon fill="none" stroke="black" points="99,-56.5 99,-75.5 189,-75.5 189,-56.5 99,-56.5"/>
<text text-anchor="middle" x="144" y="-63.5" font-family="Helvetica,sans-Serif" font-size="10.00">algorithms.hpp</text>
</a>
</g>
</g>
<!-- Node1&#45;&gt;Node2 -->
<g id="edge1" class="edge">
<title>Node1&#45;&gt;Node2</title>
<path fill="none" stroke="midnightblue" d="M188.25,-112.08C180.53,-104.22 169.1,-92.57 159.78,-83.08"/>
<polygon fill="midnightblue" stroke="midnightblue" points="162.09,-80.44 152.59,-75.75 157.1,-85.34 162.09,-80.44"/>
</g>
<!-- Node7 -->
<g id="node7" class="node">
<title>Node7</title>
<g id="a_node7"><a xlink:href="properties_8hpp.html" target="_top" xlink:title=" ">
<polygon fill="none" stroke="black" points="207.5,-56.5 207.5,-75.5 294.5,-75.5 294.5,-56.5 207.5,-56.5"/>
<text text-anchor="middle" x="251" y="-63.5" font-family="Helvetica,sans-Serif" font-size="10.00">properties.hpp</text>
</a>
</g>
</g>
<!-- Node1&#45;&gt;Node7 -->
<g id="edge6" class="edge">
<title>Node1&#45;&gt;Node7</title>
<path fill="none" stroke="midnightblue" d="M205.92,-112.08C213.78,-104.22 225.43,-92.57 234.92,-83.08"/>
<polygon fill="midnightblue" stroke="midnightblue" points="237.65,-85.3 242.25,-75.75 232.7,-80.35 237.65,-85.3"/>
</g>
<!-- Node3 -->
<g id="node3" class="node">
<title>Node3</title>
<g id="a_node3"><a xlink:title=" ">
<polygon fill="none" stroke="#bfbfbf" points="0,-0.5 0,-19.5 64,-19.5 64,-0.5 0,-0.5"/>
<text text-anchor="middle" x="32" y="-7.5" font-family="Helvetica,sans-Serif" font-size="10.00">algorithm</text>
</a>
</g>
</g>
<!-- Node2&#45;&gt;Node3 -->
<g id="edge2" class="edge">
<title>Node2&#45;&gt;Node3</title>
<path fill="none" stroke="midnightblue" d="M126.01,-56.32C107.96,-47.62 79.95,-34.12 59.2,-24.11"/>
<polygon fill="midnightblue" stroke="midnightblue" points="60.48,-20.84 49.95,-19.65 57.44,-27.15 60.48,-20.84"/>
</g>
<!-- Node4 -->
<g id="node4" class="node">
<title>Node4</title>
<g id="a_node4"><a xlink:title=" ">
<polygon fill="none" stroke="#bfbfbf" points="82,-0.5 82,-19.5 138,-19.5 138,-0.5 82,-0.5"/>
<text text-anchor="middle" x="110" y="-7.5" font-family="Helvetica,sans-Serif" font-size="10.00">numeric</text>
</a>
</g>
</g>
<!-- Node2&#45;&gt;Node4 -->
<g id="edge3" class="edge">
<title>Node2&#45;&gt;Node4</title>
<path fill="none" stroke="midnightblue" d="M138.39,-56.08C133.63,-48.53 126.68,-37.49 120.85,-28.23"/>
<polygon fill="midnightblue" stroke="midnightblue" points="123.8,-26.35 115.51,-19.75 117.88,-30.08 123.8,-26.35"/>
</g>
<!-- Node5 -->
<g id="node5" class="node">
<title>Node5</title>
<g id="a_node5"><a xlink:title=" ">
<polygon fill="none" stroke="#bfbfbf" points="156.5,-0.5 156.5,-19.5 201.5,-19.5 201.5,-0.5 156.5,-0.5"/>
<text text-anchor="middle" x="179" y="-7.5" font-family="Helvetica,sans-Serif" font-size="10.00">utility</text>
</a>
</g>
</g>
<!-- Node2&#45;&gt;Node5 -->
<g id="edge4" class="edge">
<title>Node2&#45;&gt;Node5</title>
<path fill="none" stroke="midnightblue" d="M149.78,-56.08C154.67,-48.53 161.83,-37.49 167.83,-28.23"/>
<polygon fill="midnightblue" stroke="midnightblue" points="170.83,-30.05 173.33,-19.75 164.95,-26.24 170.83,-30.05"/>
</g>
<!-- Node6 -->
<g id="node6" class="node">
<title>Node6</title>
<g id="a_node6"><a xlink:title=" ">
<polygon fill="none" stroke="#bfbfbf" points="219.5,-0.5 219.5,-19.5 266.5,-19.5 266.5,-0.5 219.5,-0.5"/>
<text text-anchor="middle" x="243" y="-7.5" font-family="Helvetica,sans-Serif" font-size="10.00">vector</text>
</a>
</g>
</g>
<!-- Node2&#45;&gt;Node6 -->
<g id="edge5" class="edge">
<title>Node2&#45;&gt;Node6</title>
<path fill="none" stroke="midnightblue" d="M159.91,-56.32C175.64,-47.74 199.94,-34.49 218.21,-24.52"/>
<polygon fill="midnightblue" stroke="midnightblue" points="220.03,-27.52 227.13,-19.65 216.68,-21.37 220.03,-27.52"/>
</g>
</g>
</svg>
