<?xml version="1.0" encoding="UTF-8" standalone="no"?>
<!DOCTYPE svg PUBLIC "-//W3C//DTD SVG 1.1//EN"
 "http://www.w3.org/Graphics/SVG/1.1/DTD/svg11.dtd">
<!-- Generated by graphviz version 2.43.0 (0)
 -->
<!-- Title: Observable_stat.hpp Pages: 1 -->
<svg width="2399pt" height="302pt"
 viewBox="0.00 0.00 2398.50 302.00" xmlns="http://www.w3.org/2000/svg" xmlns:xlink="http://www.w3.org/1999/xlink">
<g id="graph0" class="graph" transform="scale(1 1) rotate(0) translate(4 298)">
<title>Observable_stat.hpp</title>
<!-- Node1 -->
<g id="Node000001" class="node">
<title>Node1</title>
<g id="a_Node000001"><a xlink:title=" ">
<polygon fill="#999999" stroke="#666666" points="1384.5,-294 1267.5,-294 1267.5,-275 1384.5,-275 1384.5,-294"/>
<text text-anchor="middle" x="1326" y="-282" font-family="Helvetica,sans-Serif" font-size="10.00">Observable_stat.hpp</text>
</a>
</g>
</g>
<!-- Node2 -->
<g id="Node000002" class="node">
<title>Node2</title>
<g id="a_Node000002"><a xlink:href="core_2constraints_2Constraint_8hpp.html" target="_top" xlink:title=" ">
<polygon fill="white" stroke="#666666" points="538,-239 450,-239 450,-220 538,-220 538,-239"/>
<text text-anchor="middle" x="494" y="-227" font-family="Helvetica,sans-Serif" font-size="10.00">Constraint.hpp</text>
</a>
</g>
</g>
<!-- Node1&#45;&gt;Node2 -->
<g id="edge1_Node000001_Node000002" class="edge">
<title>Node1&#45;&gt;Node2</title>
<g id="a_edge1_Node000001_Node000002"><a xlink:title=" ">
<path fill="none" stroke="#63b8ff" d="M1257.45,-279.13C1092.16,-268.6 675.21,-242.04 538.31,-233.32"/>
<polygon fill="#63b8ff" stroke="#63b8ff" points="1257.29,-282.63 1267.5,-279.77 1257.74,-275.64 1257.29,-282.63"/>
</a>
</g>
</g>
<!-- Node11 -->
<g id="Node000011" class="node">
<title>Node11</title>
<g id="a_Node000011"><a xlink:href="Constraints_8cpp.html" target="_top" xlink:title=" ">
<polygon fill="white" stroke="#666666" points="823,-129 731,-129 731,-110 823,-110 823,-129"/>
<text text-anchor="middle" x="777" y="-117" font-family="Helvetica,sans-Serif" font-size="10.00">Constraints.cpp</text>
</a>
</g>
</g>
<!-- Node1&#45;&gt;Node11 -->
<g id="edge36_Node000001_Node000011" class="edge">
<title>Node1&#45;&gt;Node11</title>
<g id="a_edge36_Node000001_Node000011"><a xlink:title=" ">
<path fill="none" stroke="#63b8ff" d="M1257.17,-276.75C1135.71,-263.76 889.5,-232.22 819,-184 798.71,-170.12 785.73,-142.89 780.15,-129.03"/>
<polygon fill="#63b8ff" stroke="#63b8ff" points="1257.15,-280.27 1267.46,-277.84 1257.88,-273.31 1257.15,-280.27"/>
</a>
</g>
</g>
<!-- Node13 -->
<g id="Node000013" class="node">
<title>Node13</title>
<g id="a_Node000013"><a xlink:href="energy_8cpp.html" target="_top" xlink:title=" ">
<polygon fill="white" stroke="#666666" points="1285.5,-129 1216.5,-129 1216.5,-110 1285.5,-110 1285.5,-129"/>
<text text-anchor="middle" x="1251" y="-117" font-family="Helvetica,sans-Serif" font-size="10.00">energy.cpp</text>
</a>
</g>
</g>
<!-- Node1&#45;&gt;Node13 -->
<g id="edge52_Node000001_Node000013" class="edge">
<title>Node1&#45;&gt;Node13</title>
<g id="a_edge52_Node000001_Node000013"><a xlink:title=" ">
<path fill="none" stroke="#63b8ff" d="M1281.91,-271.68C1261.47,-264.62 1237.83,-254.04 1220,-239 1197.85,-220.32 1193.1,-211.82 1185,-184 1182.64,-175.89 1181.03,-172.46 1185,-165 1194.08,-147.92 1212.97,-136.21 1228.22,-129.11"/>
<polygon fill="#63b8ff" stroke="#63b8ff" points="1281.05,-275.08 1291.64,-274.87 1283.22,-268.43 1281.05,-275.08"/>
</a>
</g>
</g>
<!-- Node18 -->
<g id="Node000018" class="node">
<title>Node18</title>
<g id="a_Node000018"><a xlink:href="core_2constraints_2HomogeneousMagneticField_8hpp.html" target="_top" xlink:title=" ">
<polygon fill="white" stroke="#666666" points="772,-184 596,-184 596,-165 772,-165 772,-184"/>
<text text-anchor="middle" x="684" y="-172" font-family="Helvetica,sans-Serif" font-size="10.00">HomogeneousMagneticField.hpp</text>
</a>
</g>
</g>
<!-- Node1&#45;&gt;Node18 -->
<g id="edge41_Node000001_Node000018" class="edge">
<title>Node1&#45;&gt;Node18</title>
<g id="a_edge41_Node000001_Node000018"><a xlink:title=" ">
<path fill="none" stroke="#63b8ff" d="M1256.94,-281.84C1131.57,-278.17 871.56,-267.31 786,-239 748.97,-226.75 711.61,-198.51 694.16,-184.18"/>
<polygon fill="#63b8ff" stroke="#63b8ff" points="1257.09,-285.35 1267.19,-282.14 1257.29,-278.35 1257.09,-285.35"/>
</a>
</g>
</g>
<!-- Node19 -->
<g id="Node000019" class="node">
<title>Node19</title>
<g id="a_Node000019"><a xlink:href="HomogeneousMagneticField_8cpp.html" target="_top" xlink:title=" ">
<polygon fill="white" stroke="#666666" points="1198,-129 1022,-129 1022,-110 1198,-110 1198,-129"/>
<text text-anchor="middle" x="1110" y="-117" font-family="Helvetica,sans-Serif" font-size="10.00">HomogeneousMagneticField.cpp</text>
</a>
</g>
</g>
<!-- Node1&#45;&gt;Node19 -->
<g id="edge40_Node000001_Node000019" class="edge">
<title>Node1&#45;&gt;Node19</title>
<g id="a_edge40_Node000001_Node000019"><a xlink:title=" ">
<path fill="none" stroke="#63b8ff" d="M1270.92,-272.37C1246.62,-265.56 1218.71,-254.99 1197,-239 1154.87,-207.97 1124.43,-150.65 1113.97,-129.04"/>
<polygon fill="#63b8ff" stroke="#63b8ff" points="1270.17,-275.79 1280.73,-274.97 1271.96,-269.02 1270.17,-275.79"/>
</a>
</g>
</g>
<!-- Node20 -->
<g id="Node000020" class="node">
<title>Node20</title>
<g id="a_Node000020"><a xlink:href="core_2constraints_2ShapeBasedConstraint_8hpp.html" target="_top" xlink:title=" ">
<polygon fill="white" stroke="#666666" points="1088,-184 940,-184 940,-165 1088,-165 1088,-184"/>
<text text-anchor="middle" x="1014" y="-172" font-family="Helvetica,sans-Serif" font-size="10.00">ShapeBasedConstraint.hpp</text>
</a>
</g>
</g>
<!-- Node1&#45;&gt;Node20 -->
<g id="edge51_Node000001_Node000020" class="edge">
<title>Node1&#45;&gt;Node20</title>
<g id="a_edge51_Node000001_Node000020"><a xlink:title=" ">
<path fill="none" stroke="#63b8ff" d="M1257.47,-276.17C1213.99,-269.89 1157.24,-258.63 1110,-239 1075.86,-224.82 1040.93,-197.97 1024.18,-184.17"/>
<polygon fill="#63b8ff" stroke="#63b8ff" points="1256.99,-279.64 1267.38,-277.55 1257.96,-272.7 1256.99,-279.64"/>
</a>
</g>
</g>
<!-- Node21 -->
<g id="Node000021" class="node">
<title>Node21</title>
<g id="a_Node000021"><a xlink:href="ShapeBasedConstraint_8cpp.html" target="_top" xlink:title=" ">
<polygon fill="white" stroke="#666666" points="1581.5,-129 1434.5,-129 1434.5,-110 1581.5,-110 1581.5,-129"/>
<text text-anchor="middle" x="1508" y="-117" font-family="Helvetica,sans-Serif" font-size="10.00">ShapeBasedConstraint.cpp</text>
</a>
</g>
</g>
<!-- Node1&#45;&gt;Node21 -->
<g id="edge50_Node000001_Node000021" class="edge">
<title>Node1&#45;&gt;Node21</title>
<g id="a_edge50_Node000001_Node000021"><a xlink:title=" ">
<path fill="none" stroke="#63b8ff" d="M1295.91,-270.43C1273.03,-258.55 1247.58,-239.88 1261,-220 1285.9,-183.12 1413.02,-145.44 1474.54,-129.02"/>
<polygon fill="#63b8ff" stroke="#63b8ff" points="1294.6,-273.68 1305.12,-274.94 1297.68,-267.39 1294.6,-273.68"/>
</a>
</g>
</g>
<!-- Node22 -->
<g id="Node000022" class="node">
<title>Node22</title>
<g id="a_Node000022"><a xlink:href="EnergyObservable_8hpp.html" target="_top" xlink:title=" ">
<polygon fill="white" stroke="#666666" points="1661.5,-239 1534.5,-239 1534.5,-220 1661.5,-220 1661.5,-239"/>
<text text-anchor="middle" x="1598" y="-227" font-family="Helvetica,sans-Serif" font-size="10.00">EnergyObservable.hpp</text>
</a>
</g>
</g>
<!-- Node1&#45;&gt;Node22 -->
<g id="edge37_Node000001_Node000022" class="edge">
<title>Node1&#45;&gt;Node22</title>
<g id="a_edge37_Node000001_Node000022"><a xlink:title=" ">
<path fill="none" stroke="#63b8ff" d="M1379.55,-273.07C1430.55,-263.13 1506.37,-248.35 1553.96,-239.08"/>
<polygon fill="#63b8ff" stroke="#63b8ff" points="1378.85,-269.64 1369.7,-274.98 1380.19,-276.51 1378.85,-269.64"/>
</a>
</g>
</g>
<!-- Node25 -->
<g id="Node000025" class="node">
<title>Node25</title>
<g id="a_Node000025"><a xlink:href="ObservableStat_8cpp.html" target="_top" xlink:title=" ">
<polygon fill="white" stroke="#666666" points="1382,-239 1270,-239 1270,-220 1382,-220 1382,-239"/>
<text text-anchor="middle" x="1326" y="-227" font-family="Helvetica,sans-Serif" font-size="10.00">ObservableStat.cpp</text>
</a>
</g>
</g>
<!-- Node1&#45;&gt;Node25 -->
<g id="edge42_Node000001_Node000025" class="edge">
<title>Node1&#45;&gt;Node25</title>
<g id="a_edge42_Node000001_Node000025"><a xlink:title=" ">
<path fill="none" stroke="#63b8ff" d="M1326,-264.66C1326,-255.93 1326,-245.99 1326,-239.09"/>
<polygon fill="#63b8ff" stroke="#63b8ff" points="1322.5,-264.75 1326,-274.75 1329.5,-264.75 1322.5,-264.75"/>
</a>
</g>
</g>
<!-- Node26 -->
<g id="Node000026" class="node">
<title>Node26</title>
<g id="a_Node000026"><a xlink:href="Observable__stat_8cpp.html" target="_top" xlink:title=" ">
<polygon fill="white" stroke="#666666" points="1516,-239 1400,-239 1400,-220 1516,-220 1516,-239"/>
<text text-anchor="middle" x="1458" y="-227" font-family="Helvetica,sans-Serif" font-size="10.00">Observable_stat.cpp</text>
</a>
</g>
</g>
<!-- Node1&#45;&gt;Node26 -->
<g id="edge43_Node000001_Node000026" class="edge">
<title>Node1&#45;&gt;Node26</title>
<g id="a_edge43_Node000001_Node000026"><a xlink:title=" ">
<path fill="none" stroke="#63b8ff" d="M1356.73,-271.16C1381.17,-261.35 1414.74,-247.87 1436.41,-239.17"/>
<polygon fill="#63b8ff" stroke="#63b8ff" points="1355.18,-268.01 1347.21,-274.98 1357.79,-274.51 1355.18,-268.01"/>
</a>
</g>
</g>
<!-- Node27 -->
<g id="Node000027" class="node">
<title>Node27</title>
<g id="a_Node000027"><a xlink:href="PressureObservable_8hpp.html" target="_top" xlink:title=" ">
<polygon fill="white" stroke="#666666" points="1814.5,-239 1679.5,-239 1679.5,-220 1814.5,-220 1814.5,-239"/>
<text text-anchor="middle" x="1747" y="-227" font-family="Helvetica,sans-Serif" font-size="10.00">PressureObservable.hpp</text>
</a>
</g>
</g>
<!-- Node1&#45;&gt;Node27 -->
<g id="edge44_Node000001_Node000027" class="edge">
<title>Node1&#45;&gt;Node27</title>
<g id="a_edge44_Node000001_Node000027"><a xlink:title=" ">
<path fill="none" stroke="#63b8ff" d="M1394.81,-274.84C1473.38,-264.95 1601.08,-248.87 1679.21,-239.03"/>
<polygon fill="#63b8ff" stroke="#63b8ff" points="1394.02,-271.41 1384.54,-276.13 1394.9,-278.35 1394.02,-271.41"/>
</a>
</g>
</g>
<!-- Node28 -->
<g id="Node000028" class="node">
<title>Node28</title>
<g id="a_Node000028"><a xlink:href="PressureTensor_8hpp.html" target="_top" xlink:title=" ">
<polygon fill="white" stroke="#666666" points="2235,-239 2125,-239 2125,-220 2235,-220 2235,-239"/>
<text text-anchor="middle" x="2180" y="-227" font-family="Helvetica,sans-Serif" font-size="10.00">PressureTensor.hpp</text>
</a>
</g>
</g>
<!-- Node1&#45;&gt;Node28 -->
<g id="edge46_Node000001_Node000028" class="edge">
<title>Node1&#45;&gt;Node28</title>
<g id="a_edge46_Node000001_Node000028"><a xlink:title=" ">
<path fill="none" stroke="#63b8ff" d="M1394.96,-281.37C1532.39,-276.75 1850.09,-264.11 2116,-239 2118.9,-238.73 2121.87,-238.42 2124.87,-238.09"/>
<polygon fill="#63b8ff" stroke="#63b8ff" points="1394.46,-277.89 1384.59,-281.72 1394.7,-284.88 1394.46,-277.89"/>
</a>
</g>
</g>
<!-- Node29 -->
<g id="Node000029" class="node">
<title>Node29</title>
<g id="a_Node000029"><a xlink:href="core_2reaction__methods_2ReactionAlgorithm_8cpp.html" target="_top" xlink:title=" ">
<polygon fill="white" stroke="#666666" points="1961,-239 1833,-239 1833,-220 1961,-220 1961,-239"/>
<text text-anchor="middle" x="1897" y="-227" font-family="Helvetica,sans-Serif" font-size="10.00">ReactionAlgorithm.cpp</text>
</a>
</g>
</g>
<!-- Node1&#45;&gt;Node29 -->
<g id="edge48_Node000001_Node000029" class="edge">
<title>Node1&#45;&gt;Node29</title>
<g id="a_edge48_Node000001_Node000029"><a xlink:title=" ">
<path fill="none" stroke="#63b8ff" d="M1394.73,-277.89C1490.68,-269.94 1670.21,-254.61 1823,-239 1826.22,-238.67 1829.51,-238.33 1832.84,-237.97"/>
<polygon fill="#63b8ff" stroke="#63b8ff" points="1394.25,-274.42 1384.58,-278.73 1394.83,-281.4 1394.25,-274.42"/>
</a>
</g>
</g>
<!-- Node30 -->
<g id="Node000030" class="node">
<title>Node30</title>
<g id="a_Node000030"><a xlink:href="script__interface_2reaction__methods_2ReactionAlgorithm_8cpp.html" target="_top" xlink:title=" ">
<polygon fill="white" stroke="#666666" points="2107,-239 1979,-239 1979,-220 2107,-220 2107,-239"/>
<text text-anchor="middle" x="2043" y="-227" font-family="Helvetica,sans-Serif" font-size="10.00">ReactionAlgorithm.cpp</text>
</a>
</g>
</g>
<!-- Node1&#45;&gt;Node30 -->
<g id="edge49_Node000001_Node000030" class="edge">
<title>Node1&#45;&gt;Node30</title>
<g id="a_edge49_Node000001_Node000030"><a xlink:title=" ">
<path fill="none" stroke="#63b8ff" d="M1395,-279.8C1512.97,-273.23 1760.93,-258.38 1970,-239 1972.92,-238.73 1975.91,-238.44 1978.92,-238.13"/>
<polygon fill="#63b8ff" stroke="#63b8ff" points="1394.47,-276.32 1384.68,-280.37 1394.86,-283.31 1394.47,-276.32"/>
</a>
</g>
</g>
<!-- Node31 -->
<g id="Node000031" class="node">
<title>Node31</title>
<g id="a_Node000031"><a xlink:href="energy__inline_8hpp.html" target="_top" xlink:title="Energy calculation.">
<polygon fill="white" stroke="#666666" points="1298,-184 1194,-184 1194,-165 1298,-165 1298,-184"/>
<text text-anchor="middle" x="1246" y="-172" font-family="Helvetica,sans-Serif" font-size="10.00">energy_inline.hpp</text>
</a>
</g>
</g>
<!-- Node1&#45;&gt;Node31 -->
<g id="edge53_Node000001_Node000031" class="edge">
<title>Node1&#45;&gt;Node31</title>
<g id="a_edge53_Node000001_Node000031"><a xlink:title=" ">
<path fill="none" stroke="#63b8ff" d="M1272.66,-271.65C1255.43,-265.02 1238.16,-254.77 1228,-239 1216.83,-221.66 1230.27,-197.31 1239.23,-184.38"/>
<polygon fill="#63b8ff" stroke="#63b8ff" points="1271.59,-274.98 1282.19,-274.97 1273.9,-268.37 1271.59,-274.98"/>
</a>
</g>
</g>
<!-- Node35 -->
<g id="Node000035" class="node">
<title>Node35</title>
<g id="a_Node000035"><a xlink:href="pressure_8cpp.html" target="_top" xlink:title=" ">
<polygon fill="white" stroke="#666666" points="2390.5,-184 2311.5,-184 2311.5,-165 2390.5,-165 2390.5,-184"/>
<text text-anchor="middle" x="2351" y="-172" font-family="Helvetica,sans-Serif" font-size="10.00">pressure.cpp</text>
</a>
</g>
</g>
<!-- Node1&#45;&gt;Node35 -->
<g id="edge59_Node000001_Node000035" class="edge">
<title>Node1&#45;&gt;Node35</title>
<g id="a_edge59_Node000001_Node000035"><a xlink:title=" ">
<path fill="none" stroke="#63b8ff" d="M1394.81,-283.16C1622.68,-281.72 2340.1,-274.37 2374,-239 2388.93,-223.42 2370.52,-197.43 2358.98,-184.05"/>
<polygon fill="#63b8ff" stroke="#63b8ff" points="1394.64,-279.67 1384.66,-283.23 1394.68,-286.66 1394.64,-279.67"/>
</a>
</g>
</g>
<!-- Node36 -->
<g id="Node000036" class="node">
<title>Node36</title>
<g id="a_Node000036"><a xlink:href="pressure__inline_8hpp.html" target="_top" xlink:title=" ">
<polygon fill="white" stroke="#666666" points="2365,-239 2253,-239 2253,-220 2365,-220 2365,-239"/>
<text text-anchor="middle" x="2309" y="-227" font-family="Helvetica,sans-Serif" font-size="10.00">pressure_inline.hpp</text>
</a>
</g>
</g>
<!-- Node1&#45;&gt;Node36 -->
<g id="edge60_Node000001_Node000036" class="edge">
<title>Node1&#45;&gt;Node36</title>
<g id="a_edge60_Node000001_Node000036"><a xlink:title=" ">
<path fill="none" stroke="#63b8ff" d="M1394.83,-282.08C1547.79,-278.51 1927.46,-267.32 2244,-239 2246.83,-238.75 2249.73,-238.46 2252.66,-238.15"/>
<polygon fill="#63b8ff" stroke="#63b8ff" points="1394.56,-278.59 1384.65,-282.32 1394.72,-285.59 1394.56,-278.59"/>
</a>
</g>
</g>
<!-- Node3 -->
<g id="Node000003" class="node">
<title>Node3</title>
<g id="a_Node000003"><a xlink:href="script__interface_2constraints_2Constraint_8hpp.html" target="_top" xlink:title=" ">
<polygon fill="white" stroke="#666666" points="502,-184 414,-184 414,-165 502,-165 502,-184"/>
<text text-anchor="middle" x="458" y="-172" font-family="Helvetica,sans-Serif" font-size="10.00">Constraint.hpp</text>
</a>
</g>
</g>
<!-- Node2&#45;&gt;Node3 -->
<g id="edge2_Node000002_Node000003" class="edge">
<title>Node2&#45;&gt;Node3</title>
<g id="a_edge2_Node000002_Node000003"><a xlink:title=" ">
<path fill="none" stroke="#63b8ff" d="M482.38,-211.39C476.18,-202.27 468.83,-191.45 463.83,-184.09"/>
<polygon fill="#63b8ff" stroke="#63b8ff" points="479.54,-213.44 488.06,-219.75 485.33,-209.51 479.54,-213.44"/>
</a>
</g>
</g>
<!-- Node7 -->
<g id="Node000007" class="node">
<title>Node7</title>
<g id="a_Node000007"><a xlink:href="script__interface_2constraints_2ExternalField_8hpp.html" target="_top" xlink:title=" ">
<polygon fill="white" stroke="#666666" points="241.5,-129 140.5,-129 140.5,-110 241.5,-110 241.5,-129"/>
<text text-anchor="middle" x="191" y="-117" font-family="Helvetica,sans-Serif" font-size="10.00">ExternalField.hpp</text>
</a>
</g>
</g>
<!-- Node2&#45;&gt;Node7 -->
<g id="edge23_Node000002_Node000007" class="edge">
<title>Node2&#45;&gt;Node7</title>
<g id="a_edge23_Node000002_Node000007"><a xlink:title=" ">
<path fill="none" stroke="#63b8ff" d="M439.46,-228.79C386.98,-226.82 306.96,-217.79 247,-184 223.18,-170.58 204.41,-143.14 195.93,-129.14"/>
<polygon fill="#63b8ff" stroke="#63b8ff" points="439.48,-232.29 449.58,-229.09 439.69,-225.29 439.48,-232.29"/>
</a>
</g>
</g>
<!-- Node8 -->
<g id="Node000008" class="node">
<title>Node8</title>
<g id="a_Node000008"><a xlink:href="script__interface_2constraints_2ExternalPotential_8hpp.html" target="_top" xlink:title=" ">
<polygon fill="white" stroke="#666666" points="122,-129 0,-129 0,-110 122,-110 122,-129"/>
<text text-anchor="middle" x="61" y="-117" font-family="Helvetica,sans-Serif" font-size="10.00">ExternalPotential.hpp</text>
</a>
</g>
</g>
<!-- Node2&#45;&gt;Node8 -->
<g id="edge26_Node000002_Node000008" class="edge">
<title>Node2&#45;&gt;Node8</title>
<g id="a_edge26_Node000002_Node000008"><a xlink:title=" ">
<path fill="none" stroke="#63b8ff" d="M439.87,-226.53C331.3,-222.06 95.03,-209.49 69,-184 54.39,-169.7 56.65,-143.15 59.08,-129.35"/>
<polygon fill="#63b8ff" stroke="#63b8ff" points="439.84,-230.03 449.97,-226.94 440.12,-223.04 439.84,-230.03"/>
</a>
</g>
</g>
<!-- Node9 -->
<g id="Node000009" class="node">
<title>Node9</title>
<g id="a_Node000009"><a xlink:href="script__interface_2constraints_2HomogeneousMagneticField_8hpp.html" target="_top" xlink:title=" ">
<polygon fill="white" stroke="#666666" points="436,-129 260,-129 260,-110 436,-110 436,-129"/>
<text text-anchor="middle" x="348" y="-117" font-family="Helvetica,sans-Serif" font-size="10.00">HomogeneousMagneticField.hpp</text>
</a>
</g>
</g>
<!-- Node2&#45;&gt;Node9 -->
<g id="edge30_Node000002_Node000009" class="edge">
<title>Node2&#45;&gt;Node9</title>
<g id="a_edge30_Node000002_Node000009"><a xlink:title=" ">
<path fill="none" stroke="#63b8ff" d="M461.73,-215.89C444.04,-208.14 422.27,-197.17 405,-184 383.56,-167.65 363.8,-142.45 354.16,-129.25"/>
<polygon fill="#63b8ff" stroke="#63b8ff" points="460.51,-219.17 471.08,-219.86 463.24,-212.73 460.51,-219.17"/>
</a>
</g>
</g>
<!-- Node10 -->
<g id="Node000010" class="node">
<title>Node10</title>
<g id="a_Node000010"><a xlink:href="script__interface_2constraints_2ShapeBasedConstraint_8hpp.html" target="_top" xlink:title=" ">
<polygon fill="white" stroke="#666666" points="713,-129 565,-129 565,-110 713,-110 713,-129"/>
<text text-anchor="middle" x="639" y="-117" font-family="Helvetica,sans-Serif" font-size="10.00">ShapeBasedConstraint.hpp</text>
</a>
</g>
</g>
<!-- Node2&#45;&gt;Node10 -->
<g id="edge35_Node000002_Node000010" class="edge">
<title>Node2&#45;&gt;Node10</title>
<g id="a_edge35_Node000002_Node000010"><a xlink:title=" ">
<path fill="none" stroke="#63b8ff" d="M507.17,-211.72C518.54,-197.99 535.95,-178.67 554,-165 574.05,-149.82 600.02,-137.06 617.95,-129.16"/>
<polygon fill="#63b8ff" stroke="#63b8ff" points="504.19,-209.85 500.63,-219.83 509.63,-214.25 504.19,-209.85"/>
</a>
</g>
</g>
<!-- Node2&#45;&gt;Node11 -->
<g id="edge14_Node000002_Node000011" class="edge">
<title>Node2&#45;&gt;Node11</title>
<g id="a_edge14_Node000002_Node000011"><a xlink:title=" ">
<path fill="none" stroke="#63b8ff" d="M513.48,-213.94C535.98,-197.35 571.83,-171.67 587,-165 612.66,-153.71 684.55,-138.42 732.17,-129.02"/>
<polygon fill="#63b8ff" stroke="#63b8ff" points="511.26,-211.23 505.31,-220 515.43,-216.85 511.26,-211.23"/>
</a>
</g>
</g>
<!-- Node12 -->
<g id="Node000012" class="node">
<title>Node12</title>
<g id="a_Node000012"><a xlink:href="core_2constraints_2Constraints_8hpp.html" target="_top" xlink:title=" ">
<polygon fill="white" stroke="#666666" points="921.5,-184 828.5,-184 828.5,-165 921.5,-165 921.5,-184"/>
<text text-anchor="middle" x="875" y="-172" font-family="Helvetica,sans-Serif" font-size="10.00">Constraints.hpp</text>
</a>
</g>
</g>
<!-- Node2&#45;&gt;Node12 -->
<g id="edge15_Node000002_Node000012" class="edge">
<title>Node2&#45;&gt;Node12</title>
<g id="a_edge15_Node000002_Node000012"><a xlink:title=" ">
<path fill="none" stroke="#63b8ff" d="M548.26,-220.95C623.32,-210.51 757.56,-191.84 828.35,-181.99"/>
<polygon fill="#63b8ff" stroke="#63b8ff" points="547.5,-217.52 538.08,-222.37 548.46,-224.46 547.5,-217.52"/>
</a>
</g>
</g>
<!-- Node16 -->
<g id="Node000016" class="node">
<title>Node16</title>
<g id="a_Node000016"><a xlink:href="core_2constraints_2ExternalField_8hpp.html" target="_top" xlink:title=" ">
<polygon fill="white" stroke="#666666" points="357.5,-184 256.5,-184 256.5,-165 357.5,-165 357.5,-184"/>
<text text-anchor="middle" x="307" y="-172" font-family="Helvetica,sans-Serif" font-size="10.00">ExternalField.hpp</text>
</a>
</g>
</g>
<!-- Node2&#45;&gt;Node16 -->
<g id="edge21_Node000002_Node000016" class="edge">
<title>Node2&#45;&gt;Node16</title>
<g id="a_edge21_Node000002_Node000016"><a xlink:title=" ">
<path fill="none" stroke="#63b8ff" d="M454.07,-217.18C419.1,-207.27 369.04,-193.08 337.28,-184.08"/>
<polygon fill="#63b8ff" stroke="#63b8ff" points="453.38,-220.63 463.96,-219.98 455.29,-213.89 453.38,-220.63"/>
</a>
</g>
</g>
<!-- Node17 -->
<g id="Node000017" class="node">
<title>Node17</title>
<g id="a_Node000017"><a xlink:href="core_2constraints_2ExternalPotential_8hpp.html" target="_top" xlink:title=" ">
<polygon fill="white" stroke="#666666" points="200,-184 78,-184 78,-165 200,-165 200,-184"/>
<text text-anchor="middle" x="139" y="-172" font-family="Helvetica,sans-Serif" font-size="10.00">ExternalPotential.hpp</text>
</a>
</g>
</g>
<!-- Node2&#45;&gt;Node17 -->
<g id="edge24_Node000002_Node000017" class="edge">
<title>Node2&#45;&gt;Node17</title>
<g id="a_edge24_Node000002_Node000017"><a xlink:title=" ">
<path fill="none" stroke="#63b8ff" d="M439.58,-220.38C373.69,-210.54 263.24,-194.05 196.15,-184.03"/>
<polygon fill="#63b8ff" stroke="#63b8ff" points="439.35,-223.88 449.76,-221.89 440.38,-216.96 439.35,-223.88"/>
</a>
</g>
</g>
<!-- Node2&#45;&gt;Node18 -->
<g id="edge27_Node000002_Node000018" class="edge">
<title>Node2&#45;&gt;Node18</title>
<g id="a_edge27_Node000002_Node000018"><a xlink:title=" ">
<path fill="none" stroke="#63b8ff" d="M534.57,-217.18C570.1,-207.27 620.97,-193.08 653.23,-184.08"/>
<polygon fill="#63b8ff" stroke="#63b8ff" points="533.22,-213.93 524.53,-219.98 535.1,-220.67 533.22,-213.93"/>
</a>
</g>
</g>
<!-- Node2&#45;&gt;Node20 -->
<g id="edge31_Node000002_Node000020" class="edge">
<title>Node2&#45;&gt;Node20</title>
<g id="a_edge31_Node000002_Node000020"><a xlink:title=" ">
<path fill="none" stroke="#63b8ff" d="M548.45,-222.95C642.11,-213.4 833.85,-193.86 939.7,-183.07"/>
<polygon fill="#63b8ff" stroke="#63b8ff" points="547.93,-219.49 538.33,-223.98 548.64,-226.45 547.93,-219.49"/>
</a>
</g>
</g>
<!-- Node4 -->
<g id="Node000004" class="node">
<title>Node4</title>
<g id="a_Node000004"><a xlink:href="script__interface_2constraints_2Constraints_8hpp.html" target="_top" xlink:title=" ">
<polygon fill="white" stroke="#666666" points="546.5,-129 453.5,-129 453.5,-110 546.5,-110 546.5,-129"/>
<text text-anchor="middle" x="500" y="-117" font-family="Helvetica,sans-Serif" font-size="10.00">Constraints.hpp</text>
</a>
</g>
</g>
<!-- Node3&#45;&gt;Node4 -->
<g id="edge3_Node000003_Node000004" class="edge">
<title>Node3&#45;&gt;Node4</title>
<g id="a_edge3_Node000003_Node000004"><a xlink:title=" ">
<path fill="none" stroke="#63b8ff" d="M471.33,-156.67C478.61,-147.5 487.3,-136.52 493.19,-129.09"/>
<polygon fill="#63b8ff" stroke="#63b8ff" points="468.4,-154.74 464.94,-164.75 473.89,-159.08 468.4,-154.74"/>
</a>
</g>
</g>
<!-- Node3&#45;&gt;Node7 -->
<g id="edge6_Node000003_Node000007" class="edge">
<title>Node3&#45;&gt;Node7</title>
<g id="a_edge6_Node000003_Node000007"><a xlink:title=" ">
<path fill="none" stroke="#63b8ff" d="M405.12,-163C355.07,-153.07 280.84,-138.33 234.23,-129.08"/>
<polygon fill="#63b8ff" stroke="#63b8ff" points="404.61,-166.47 415.1,-164.98 405.97,-159.6 404.61,-166.47"/>
</a>
</g>
</g>
<!-- Node3&#45;&gt;Node8 -->
<g id="edge8_Node000003_Node000008" class="edge">
<title>Node3&#45;&gt;Node8</title>
<g id="a_edge8_Node000003_Node000008"><a xlink:title=" ">
<path fill="none" stroke="#63b8ff" d="M404.01,-166.29C330.46,-156.47 199.11,-138.94 122.05,-128.65"/>
<polygon fill="#63b8ff" stroke="#63b8ff" points="403.62,-169.77 414,-167.63 404.55,-162.83 403.62,-169.77"/>
</a>
</g>
</g>
<!-- Node3&#45;&gt;Node9 -->
<g id="edge10_Node000003_Node000009" class="edge">
<title>Node3&#45;&gt;Node9</title>
<g id="a_edge10_Node000003_Node000009"><a xlink:title=" ">
<path fill="none" stroke="#63b8ff" d="M431.3,-160.63C411.03,-150.87 383.73,-137.71 365.99,-129.17"/>
<polygon fill="#63b8ff" stroke="#63b8ff" points="429.8,-163.8 440.33,-164.98 432.84,-157.49 429.8,-163.8"/>
</a>
</g>
</g>
<!-- Node3&#45;&gt;Node10 -->
<g id="edge12_Node000003_Node000010" class="edge">
<title>Node3&#45;&gt;Node10</title>
<g id="a_edge12_Node000003_Node000010"><a xlink:title=" ">
<path fill="none" stroke="#63b8ff" d="M497.08,-162.06C530.91,-152.15 579.08,-138.04 609.69,-129.08"/>
<polygon fill="#63b8ff" stroke="#63b8ff" points="495.69,-158.82 487.08,-164.98 497.66,-165.53 495.69,-158.82"/>
</a>
</g>
</g>
<!-- Node5 -->
<g id="Node000005" class="node">
<title>Node5</title>
<g id="a_Node000005"><a xlink:href="script__interface_2system_2System_8cpp.html" target="_top" xlink:title=" ">
<polygon fill="white" stroke="#666666" points="537,-74 463,-74 463,-55 537,-55 537,-74"/>
<text text-anchor="middle" x="500" y="-62" font-family="Helvetica,sans-Serif" font-size="10.00">System.cpp</text>
</a>
</g>
</g>
<!-- Node4&#45;&gt;Node5 -->
<g id="edge4_Node000004_Node000005" class="edge">
<title>Node4&#45;&gt;Node5</title>
<g id="a_edge4_Node000004_Node000005"><a xlink:title=" ">
<path fill="none" stroke="#63b8ff" d="M500,-99.66C500,-90.93 500,-80.99 500,-74.09"/>
<polygon fill="#63b8ff" stroke="#63b8ff" points="496.5,-99.75 500,-109.75 503.5,-99.75 496.5,-99.75"/>
</a>
</g>
</g>
<!-- Node6 -->
<g id="Node000006" class="node">
<title>Node6</title>
<g id="a_Node000006"><a xlink:href="constraints_2initialize_8cpp.html" target="_top" xlink:title=" ">
<polygon fill="white" stroke="#666666" points="387.5,-74 308.5,-74 308.5,-55 387.5,-55 387.5,-74"/>
<text text-anchor="middle" x="348" y="-62" font-family="Helvetica,sans-Serif" font-size="10.00">initialize.cpp</text>
</a>
</g>
</g>
<!-- Node4&#45;&gt;Node6 -->
<g id="edge5_Node000004_Node000006" class="edge">
<title>Node4&#45;&gt;Node6</title>
<g id="a_edge5_Node000004_Node000006"><a xlink:title=" ">
<path fill="none" stroke="#63b8ff" d="M466.07,-106.67C437.73,-96.79 397.98,-82.93 372.61,-74.08"/>
<polygon fill="#63b8ff" stroke="#63b8ff" points="464.98,-110 475.58,-109.98 467.29,-103.39 464.98,-110"/>
</a>
</g>
</g>
<!-- Node7&#45;&gt;Node6 -->
<g id="edge7_Node000007_Node000006" class="edge">
<title>Node7&#45;&gt;Node6</title>
<g id="a_edge7_Node000007_Node000006"><a xlink:title=" ">
<path fill="none" stroke="#63b8ff" d="M226.05,-106.67C255.32,-96.79 296.37,-82.93 322.58,-74.08"/>
<polygon fill="#63b8ff" stroke="#63b8ff" points="224.58,-103.47 216.22,-109.98 226.82,-110.1 224.58,-103.47"/>
</a>
</g>
</g>
<!-- Node8&#45;&gt;Node6 -->
<g id="edge9_Node000008_Node000006" class="edge">
<title>Node8&#45;&gt;Node6</title>
<g id="a_edge9_Node000008_Node000006"><a xlink:title=" ">
<path fill="none" stroke="#63b8ff" d="M117.28,-108.11C173.64,-97.7 258.91,-81.95 308.47,-72.8"/>
<polygon fill="#63b8ff" stroke="#63b8ff" points="116.31,-104.73 107.11,-109.98 117.58,-111.61 116.31,-104.73"/>
</a>
</g>
</g>
<!-- Node9&#45;&gt;Node6 -->
<g id="edge11_Node000009_Node000006" class="edge">
<title>Node9&#45;&gt;Node6</title>
<g id="a_edge11_Node000009_Node000006"><a xlink:title=" ">
<path fill="none" stroke="#63b8ff" d="M348,-99.66C348,-90.93 348,-80.99 348,-74.09"/>
<polygon fill="#63b8ff" stroke="#63b8ff" points="344.5,-99.75 348,-109.75 351.5,-99.75 344.5,-99.75"/>
</a>
</g>
</g>
<!-- Node10&#45;&gt;Node6 -->
<g id="edge13_Node000010_Node000006" class="edge">
<title>Node10&#45;&gt;Node6</title>
<g id="a_edge13_Node000010_Node000006"><a xlink:title=" ">
<path fill="none" stroke="#63b8ff" d="M582.26,-108.17C524.95,-97.73 437.9,-81.87 387.63,-72.72"/>
<polygon fill="#63b8ff" stroke="#63b8ff" points="581.78,-111.64 592.25,-109.98 583.03,-104.75 581.78,-111.64"/>
</a>
</g>
</g>
<!-- Node12&#45;&gt;Node4 -->
<g id="edge17_Node000012_Node000004" class="edge">
<title>Node12&#45;&gt;Node4</title>
<g id="a_edge17_Node000012_Node000004"><a xlink:title=" ">
<path fill="none" stroke="#63b8ff" d="M818.24,-165.79C754.42,-157.08 647.73,-142.36 556,-129 552.98,-128.56 549.88,-128.1 546.74,-127.64"/>
<polygon fill="#63b8ff" stroke="#63b8ff" points="818.1,-169.31 828.48,-167.19 819.05,-162.37 818.1,-169.31"/>
</a>
</g>
</g>
<!-- Node12&#45;&gt;Node11 -->
<g id="edge16_Node000012_Node000011" class="edge">
<title>Node12&#45;&gt;Node11</title>
<g id="a_edge16_Node000012_Node000011"><a xlink:title=" ">
<path fill="none" stroke="#63b8ff" d="M849.97,-159.97C832.06,-150.28 808.47,-137.52 793.03,-129.17"/>
<polygon fill="#63b8ff" stroke="#63b8ff" points="848.79,-163.31 859.25,-164.98 852.12,-157.15 848.79,-163.31"/>
</a>
</g>
</g>
<!-- Node12&#45;&gt;Node13 -->
<g id="edge18_Node000012_Node000013" class="edge">
<title>Node12&#45;&gt;Node13</title>
<g id="a_edge18_Node000012_Node000013"><a xlink:title=" ">
<path fill="none" stroke="#63b8ff" d="M931.96,-164.9C1055.21,-147.76 1088.1,-148.22 1207,-129 1210.07,-128.5 1213.26,-127.95 1216.45,-127.38"/>
<polygon fill="#63b8ff" stroke="#63b8ff" points="931.16,-161.48 921.74,-166.33 932.13,-168.41 931.16,-161.48"/>
</a>
</g>
</g>
<!-- Node14 -->
<g id="Node000014" class="node">
<title>Node14</title>
<g id="a_Node000014"><a xlink:href="forces_8cpp.html" target="_top" xlink:title=" ">
<polygon fill="white" stroke="#666666" points="908.5,-129 841.5,-129 841.5,-110 908.5,-110 908.5,-129"/>
<text text-anchor="middle" x="875" y="-117" font-family="Helvetica,sans-Serif" font-size="10.00">forces.cpp</text>
</a>
</g>
</g>
<!-- Node12&#45;&gt;Node14 -->
<g id="edge19_Node000012_Node000014" class="edge">
<title>Node12&#45;&gt;Node14</title>
<g id="a_edge19_Node000012_Node000014"><a xlink:title=" ">
<path fill="none" stroke="#63b8ff" d="M875,-154.66C875,-145.93 875,-135.99 875,-129.09"/>
<polygon fill="#63b8ff" stroke="#63b8ff" points="871.5,-154.75 875,-164.75 878.5,-154.75 871.5,-154.75"/>
</a>
</g>
</g>
<!-- Node15 -->
<g id="Node000015" class="node">
<title>Node15</title>
<g id="a_Node000015"><a xlink:href="polymer_8cpp.html" target="_top" xlink:title="This file contains everything needed to create a start&#45;up configuration of (possibly charged) polymer...">
<polygon fill="white" stroke="#666666" points="1003.5,-129 926.5,-129 926.5,-110 1003.5,-110 1003.5,-129"/>
<text text-anchor="middle" x="965" y="-117" font-family="Helvetica,sans-Serif" font-size="10.00">polymer.cpp</text>
</a>
</g>
</g>
<!-- Node12&#45;&gt;Node15 -->
<g id="edge20_Node000012_Node000015" class="edge">
<title>Node12&#45;&gt;Node15</title>
<g id="a_edge20_Node000012_Node000015"><a xlink:title=" ">
<path fill="none" stroke="#63b8ff" d="M898.44,-159.7C914.84,-150.04 936.23,-137.44 950.28,-129.17"/>
<polygon fill="#63b8ff" stroke="#63b8ff" points="896.3,-156.89 889.46,-164.98 899.85,-162.93 896.3,-156.89"/>
</a>
</g>
</g>
<!-- Node16&#45;&gt;Node7 -->
<g id="edge22_Node000016_Node000007" class="edge">
<title>Node16&#45;&gt;Node7</title>
<g id="a_edge22_Node000016_Node000007"><a xlink:title=" ">
<path fill="none" stroke="#63b8ff" d="M279.13,-160.77C257.73,-150.99 228.76,-137.75 209.98,-129.17"/>
<polygon fill="#63b8ff" stroke="#63b8ff" points="277.81,-164.01 288.36,-164.98 280.72,-157.65 277.81,-164.01"/>
</a>
</g>
</g>
<!-- Node17&#45;&gt;Node8 -->
<g id="edge25_Node000017_Node000008" class="edge">
<title>Node17&#45;&gt;Node8</title>
<g id="a_edge25_Node000017_Node000008"><a xlink:title=" ">
<path fill="none" stroke="#63b8ff" d="M117.88,-159.15C103.79,-149.57 85.71,-137.29 73.76,-129.17"/>
<polygon fill="#63b8ff" stroke="#63b8ff" points="116.23,-162.26 126.47,-164.98 120.16,-156.47 116.23,-162.26"/>
</a>
</g>
</g>
<!-- Node18&#45;&gt;Node9 -->
<g id="edge29_Node000018_Node000009" class="edge">
<title>Node18&#45;&gt;Node9</title>
<g id="a_edge29_Node000018_Node000009"><a xlink:title=" ">
<path fill="none" stroke="#63b8ff" d="M619.79,-163.37C556.7,-153.42 461.49,-138.4 402.13,-129.04"/>
<polygon fill="#63b8ff" stroke="#63b8ff" points="619.59,-166.88 630.02,-164.98 620.68,-159.97 619.59,-166.88"/>
</a>
</g>
</g>
<!-- Node18&#45;&gt;Node19 -->
<g id="edge28_Node000018_Node000019" class="edge">
<title>Node18&#45;&gt;Node19</title>
<g id="a_edge28_Node000018_Node000019"><a xlink:title=" ">
<path fill="none" stroke="#63b8ff" d="M762.46,-163.74C842.41,-153.79 965.18,-138.52 1041.37,-129.04"/>
<polygon fill="#63b8ff" stroke="#63b8ff" points="761.94,-160.28 752.44,-164.98 762.8,-167.22 761.94,-160.28"/>
</a>
</g>
</g>
<!-- Node20&#45;&gt;Node10 -->
<g id="edge33_Node000020_Node000010" class="edge">
<title>Node20&#45;&gt;Node10</title>
<g id="a_edge33_Node000020_Node000010"><a xlink:title=" ">
<path fill="none" stroke="#63b8ff" d="M943.64,-163.56C873.24,-153.61 766.08,-138.46 699.41,-129.04"/>
<polygon fill="#63b8ff" stroke="#63b8ff" points="943.36,-167.05 953.75,-164.98 944.34,-160.12 943.36,-167.05"/>
</a>
</g>
</g>
<!-- Node20&#45;&gt;Node15 -->
<g id="edge34_Node000020_Node000015" class="edge">
<title>Node20&#45;&gt;Node15</title>
<g id="a_edge34_Node000020_Node000015"><a xlink:title=" ">
<path fill="none" stroke="#63b8ff" d="M998.97,-157.24C990.38,-147.95 979.96,-136.68 972.94,-129.09"/>
<polygon fill="#63b8ff" stroke="#63b8ff" points="996.55,-159.78 1005.91,-164.75 1001.69,-155.03 996.55,-159.78"/>
</a>
</g>
</g>
<!-- Node20&#45;&gt;Node21 -->
<g id="edge32_Node000020_Node000021" class="edge">
<title>Node20&#45;&gt;Node21</title>
<g id="a_edge32_Node000020_Node000021"><a xlink:title=" ">
<path fill="none" stroke="#63b8ff" d="M1098.32,-164.45C1192.83,-154.31 1344.55,-138.04 1434.43,-128.39"/>
<polygon fill="#63b8ff" stroke="#63b8ff" points="1097.79,-160.99 1088.22,-165.54 1098.54,-167.95 1097.79,-160.99"/>
</a>
</g>
</g>
<!-- Node23 -->
<g id="Node000023" class="node">
<title>Node23</title>
<g id="a_Node000023"><a xlink:href="ParamlessObservable_8hpp.html" target="_top" xlink:title=" ">
<polygon fill="white" stroke="#666666" points="1818.5,-184 1675.5,-184 1675.5,-165 1818.5,-165 1818.5,-184"/>
<text text-anchor="middle" x="1747" y="-172" font-family="Helvetica,sans-Serif" font-size="10.00">ParamlessObservable.hpp</text>
</a>
</g>
</g>
<!-- Node22&#45;&gt;Node23 -->
<g id="edge38_Node000022_Node000023" class="edge">
<title>Node22&#45;&gt;Node23</title>
<g id="a_edge38_Node000022_Node000023"><a xlink:title=" ">
<path fill="none" stroke="#63b8ff" d="M1631.59,-216.55C1659.26,-206.71 1697.84,-192.98 1722.62,-184.17"/>
<polygon fill="#63b8ff" stroke="#63b8ff" points="1630.19,-213.34 1621.94,-219.98 1632.53,-219.93 1630.19,-213.34"/>
</a>
</g>
</g>
<!-- Node24 -->
<g id="Node000024" class="node">
<title>Node24</title>
<g id="a_Node000024"><a xlink:href="observables_2initialize_8cpp.html" target="_top" xlink:title=" ">
<polygon fill="white" stroke="#666666" points="1786.5,-129 1707.5,-129 1707.5,-110 1786.5,-110 1786.5,-129"/>
<text text-anchor="middle" x="1747" y="-117" font-family="Helvetica,sans-Serif" font-size="10.00">initialize.cpp</text>
</a>
</g>
</g>
<!-- Node23&#45;&gt;Node24 -->
<g id="edge39_Node000023_Node000024" class="edge">
<title>Node23&#45;&gt;Node24</title>
<g id="a_edge39_Node000023_Node000024"><a xlink:title=" ">
<path fill="none" stroke="#63b8ff" d="M1747,-154.66C1747,-145.93 1747,-135.99 1747,-129.09"/>
<polygon fill="#63b8ff" stroke="#63b8ff" points="1743.5,-154.75 1747,-164.75 1750.5,-154.75 1743.5,-154.75"/>
</a>
</g>
</g>
<!-- Node27&#45;&gt;Node23 -->
<g id="edge45_Node000027_Node000023" class="edge">
<title>Node27&#45;&gt;Node23</title>
<g id="a_edge45_Node000027_Node000023"><a xlink:title=" ">
<path fill="none" stroke="#63b8ff" d="M1747,-209.66C1747,-200.93 1747,-190.99 1747,-184.09"/>
<polygon fill="#63b8ff" stroke="#63b8ff" points="1743.5,-209.75 1747,-219.75 1750.5,-209.75 1743.5,-209.75"/>
</a>
</g>
</g>
<!-- Node28&#45;&gt;Node23 -->
<g id="edge47_Node000028_Node000023" class="edge">
<title>Node28&#45;&gt;Node23</title>
<g id="a_edge47_Node000028_Node000023"><a xlink:title=" ">
<path fill="none" stroke="#63b8ff" d="M2114.65,-219.84C2005.58,-206.06 1890.94,-192.4 1818.81,-183.9"/>
<polygon fill="#63b8ff" stroke="#63b8ff" points="2114.49,-223.35 2124.85,-221.13 2115.37,-216.4 2114.49,-223.35"/>
</a>
</g>
</g>
<!-- Node31&#45;&gt;Node13 -->
<g id="edge58_Node000031_Node000013" class="edge">
<title>Node31&#45;&gt;Node13</title>
<g id="a_edge58_Node000031_Node000013"><a xlink:title=" ">
<path fill="none" stroke="#63b8ff" d="M1247.78,-154.66C1248.6,-145.93 1249.54,-135.99 1250.19,-129.09"/>
<polygon fill="#63b8ff" stroke="#63b8ff" points="1244.28,-154.46 1246.83,-164.75 1251.25,-155.12 1244.28,-154.46"/>
</a>
</g>
</g>
<!-- Node31&#45;&gt;Node21 -->
<g id="edge57_Node000031_Node000021" class="edge">
<title>Node31&#45;&gt;Node21</title>
<g id="a_edge57_Node000031_Node000021"><a xlink:title=" ">
<path fill="none" stroke="#63b8ff" d="M1298.2,-162.94C1347.31,-153.01 1419.93,-138.31 1465.58,-129.08"/>
<polygon fill="#63b8ff" stroke="#63b8ff" points="1297.2,-159.57 1288.09,-164.98 1298.59,-166.43 1297.2,-159.57"/>
</a>
</g>
</g>
<!-- Node32 -->
<g id="Node000032" class="node">
<title>Node32</title>
<g id="a_Node000032"><a xlink:href="core_2pair__criteria_2EnergyCriterion_8hpp.html" target="_top" xlink:title=" ">
<polygon fill="white" stroke="#666666" points="1416.5,-129 1303.5,-129 1303.5,-110 1416.5,-110 1416.5,-129"/>
<text text-anchor="middle" x="1360" y="-117" font-family="Helvetica,sans-Serif" font-size="10.00">EnergyCriterion.hpp</text>
</a>
</g>
</g>
<!-- Node31&#45;&gt;Node32 -->
<g id="edge54_Node000031_Node000032" class="edge">
<title>Node31&#45;&gt;Node32</title>
<g id="a_edge54_Node000031_Node000032"><a xlink:title=" ">
<path fill="none" stroke="#63b8ff" d="M1273.39,-160.77C1294.42,-150.99 1322.89,-137.75 1341.35,-129.17"/>
<polygon fill="#63b8ff" stroke="#63b8ff" points="1271.91,-157.6 1264.32,-164.98 1274.86,-163.94 1271.91,-157.6"/>
</a>
</g>
</g>
<!-- Node33 -->
<g id="Node000033" class="node">
<title>Node33</title>
<g id="a_Node000033"><a xlink:href="script__interface_2pair__criteria_2EnergyCriterion_8hpp.html" target="_top" xlink:title=" ">
<polygon fill="white" stroke="#666666" points="1416.5,-74 1303.5,-74 1303.5,-55 1416.5,-55 1416.5,-74"/>
<text text-anchor="middle" x="1360" y="-62" font-family="Helvetica,sans-Serif" font-size="10.00">EnergyCriterion.hpp</text>
</a>
</g>
</g>
<!-- Node32&#45;&gt;Node33 -->
<g id="edge55_Node000032_Node000033" class="edge">
<title>Node32&#45;&gt;Node33</title>
<g id="a_edge55_Node000032_Node000033"><a xlink:title=" ">
<path fill="none" stroke="#63b8ff" d="M1360,-99.66C1360,-90.93 1360,-80.99 1360,-74.09"/>
<polygon fill="#63b8ff" stroke="#63b8ff" points="1356.5,-99.75 1360,-109.75 1363.5,-99.75 1356.5,-99.75"/>
</a>
</g>
</g>
<!-- Node34 -->
<g id="Node000034" class="node">
<title>Node34</title>
<g id="a_Node000034"><a xlink:href="pair__criteria_2initialize_8cpp.html" target="_top" xlink:title=" ">
<polygon fill="white" stroke="#666666" points="1399.5,-19 1320.5,-19 1320.5,0 1399.5,0 1399.5,-19"/>
<text text-anchor="middle" x="1360" y="-7" font-family="Helvetica,sans-Serif" font-size="10.00">initialize.cpp</text>
</a>
</g>
</g>
<!-- Node33&#45;&gt;Node34 -->
<g id="edge56_Node000033_Node000034" class="edge">
<title>Node33&#45;&gt;Node34</title>
<g id="a_edge56_Node000033_Node000034"><a xlink:title=" ">
<path fill="none" stroke="#63b8ff" d="M1360,-44.66C1360,-35.93 1360,-25.99 1360,-19.09"/>
<polygon fill="#63b8ff" stroke="#63b8ff" points="1356.5,-44.75 1360,-54.75 1363.5,-44.75 1356.5,-44.75"/>
</a>
</g>
</g>
<!-- Node36&#45;&gt;Node35 -->
<g id="edge61_Node000036_Node000035" class="edge">
<title>Node36&#45;&gt;Node35</title>
<g id="a_edge61_Node000036_Node000035"><a xlink:title=" ">
<path fill="none" stroke="#63b8ff" d="M2322.33,-211.67C2329.61,-202.5 2338.3,-191.52 2344.19,-184.09"/>
<polygon fill="#63b8ff" stroke="#63b8ff" points="2319.4,-209.74 2315.94,-219.75 2324.89,-214.08 2319.4,-209.74"/>
</a>
</g>
</g>
</g>
</svg>
