<?xml version="1.0" encoding="UTF-8" standalone="no"?>
<!DOCTYPE svg PUBLIC "-//W3C//DTD SVG 1.1//EN"
 "http://www.w3.org/Graphics/SVG/1.1/DTD/svg11.dtd">
<!-- Generated by graphviz version 2.43.0 (0)
 -->
<!-- Title: oif_global_forces.hpp Pages: 1 -->
<svg width="555pt" height="192pt"
 viewBox="0.00 0.00 555.00 192.00" xmlns="http://www.w3.org/2000/svg" xmlns:xlink="http://www.w3.org/1999/xlink">
<g id="graph0" class="graph" transform="scale(1 1) rotate(0) translate(4 188)">
<title>oif_global_forces.hpp</title>
<!-- Node1 -->
<g id="Node000001" class="node">
<title>Node1</title>
<g id="a_Node000001"><a xlink:title="Routines to calculate the OIF global forces for a particle triple (triangle from mesh).">
<polygon fill="#999999" stroke="#666666" points="253.5,-184 132.5,-184 132.5,-165 253.5,-165 253.5,-184"/>
<text text-anchor="middle" x="193" y="-172" font-family="Helvetica,sans-Serif" font-size="10.00">oif_global_forces.hpp</text>
</a>
</g>
</g>
<!-- Node2 -->
<g id="Node000002" class="node">
<title>Node2</title>
<g id="a_Node000002"><a xlink:href="script__interface_2system_2System_8cpp.html" target="_top" xlink:title=" ">
<polygon fill="white" stroke="#666666" points="74,-74 0,-74 0,-55 74,-55 74,-74"/>
<text text-anchor="middle" x="37" y="-62" font-family="Helvetica,sans-Serif" font-size="10.00">System.cpp</text>
</a>
</g>
</g>
<!-- Node1&#45;&gt;Node2 -->
<g id="edge1_Node000001_Node000002" class="edge">
<title>Node1&#45;&gt;Node2</title>
<g id="a_edge1_Node000001_Node000002"><a xlink:title=" ">
<path fill="none" stroke="#63b8ff" d="M135.44,-162.2C113.03,-155.52 88.38,-145.1 70,-129 52.8,-113.94 43.28,-87.72 39.28,-74.17"/>
<polygon fill="#63b8ff" stroke="#63b8ff" points="134.64,-165.61 145.21,-164.93 136.52,-158.87 134.64,-165.61"/>
</a>
</g>
</g>
<!-- Node3 -->
<g id="Node000003" class="node">
<title>Node3</title>
<g id="a_Node000003"><a xlink:href="System_8impl_8hpp.html" target="_top" xlink:title=" ">
<polygon fill="white" stroke="#666666" points="178.5,-129 79.5,-129 79.5,-110 178.5,-110 178.5,-129"/>
<text text-anchor="middle" x="129" y="-117" font-family="Helvetica,sans-Serif" font-size="10.00">System.impl.hpp</text>
</a>
</g>
</g>
<!-- Node1&#45;&gt;Node3 -->
<g id="edge2_Node000001_Node000003" class="edge">
<title>Node1&#45;&gt;Node3</title>
<g id="a_edge2_Node000001_Node000003"><a xlink:title=" ">
<path fill="none" stroke="#63b8ff" d="M175.01,-158.6C163.54,-149.11 149.09,-137.13 139.47,-129.17"/>
<polygon fill="#63b8ff" stroke="#63b8ff" points="172.78,-161.3 182.72,-164.98 177.25,-155.91 172.78,-161.3"/>
</a>
</g>
</g>
<!-- Node5 -->
<g id="Node000005" class="node">
<title>Node5</title>
<g id="a_Node000005"><a xlink:href="forces__inline_8hpp.html" target="_top" xlink:title="Force calculation.">
<polygon fill="white" stroke="#666666" points="308,-129 208,-129 208,-110 308,-110 308,-129"/>
<text text-anchor="middle" x="258" y="-117" font-family="Helvetica,sans-Serif" font-size="10.00">forces_inline.hpp</text>
</a>
</g>
</g>
<!-- Node1&#45;&gt;Node5 -->
<g id="edge5_Node000001_Node000005" class="edge">
<title>Node1&#45;&gt;Node5</title>
<g id="a_edge5_Node000001_Node000005"><a xlink:title=" ">
<path fill="none" stroke="#63b8ff" d="M211.27,-158.6C222.92,-149.11 237.6,-137.13 247.37,-129.17"/>
<polygon fill="#63b8ff" stroke="#63b8ff" points="208.98,-155.95 203.44,-164.98 213.41,-161.38 208.98,-155.95"/>
</a>
</g>
</g>
<!-- Node10 -->
<g id="Node000010" class="node">
<title>Node10</title>
<g id="a_Node000010"><a xlink:href="oif__global__forces_8cpp.html" target="_top" xlink:title=" ">
<polygon fill="white" stroke="#666666" points="446,-129 326,-129 326,-110 446,-110 446,-129"/>
<text text-anchor="middle" x="386" y="-117" font-family="Helvetica,sans-Serif" font-size="10.00">oif_global_forces.cpp</text>
</a>
</g>
</g>
<!-- Node1&#45;&gt;Node10 -->
<g id="edge10_Node000001_Node000010" class="edge">
<title>Node1&#45;&gt;Node10</title>
<g id="a_edge10_Node000001_Node000010"><a xlink:title=" ">
<path fill="none" stroke="#63b8ff" d="M233.75,-162.31C269.86,-152.39 321.83,-138.12 354.75,-129.08"/>
<polygon fill="#63b8ff" stroke="#63b8ff" points="232.72,-158.96 224.01,-164.98 234.58,-165.71 232.72,-158.96"/>
</a>
</g>
</g>
<!-- Node3&#45;&gt;Node2 -->
<g id="edge4_Node000003_Node000002" class="edge">
<title>Node3&#45;&gt;Node2</title>
<g id="a_edge4_Node000003_Node000002"><a xlink:title=" ">
<path fill="none" stroke="#63b8ff" d="M105.51,-104.97C88.69,-95.28 66.55,-82.52 52.05,-74.17"/>
<polygon fill="#63b8ff" stroke="#63b8ff" points="103.81,-108.03 114.22,-109.98 107.3,-101.96 103.81,-108.03"/>
</a>
</g>
</g>
<!-- Node4 -->
<g id="Node000004" class="node">
<title>Node4</title>
<g id="a_Node000004"><a xlink:href="core_2system_2System_8cpp.html" target="_top" xlink:title=" ">
<polygon fill="white" stroke="#666666" points="166,-74 92,-74 92,-55 166,-55 166,-74"/>
<text text-anchor="middle" x="129" y="-62" font-family="Helvetica,sans-Serif" font-size="10.00">System.cpp</text>
</a>
</g>
</g>
<!-- Node3&#45;&gt;Node4 -->
<g id="edge3_Node000003_Node000004" class="edge">
<title>Node3&#45;&gt;Node4</title>
<g id="a_edge3_Node000003_Node000004"><a xlink:title=" ">
<path fill="none" stroke="#63b8ff" d="M129,-99.66C129,-90.93 129,-80.99 129,-74.09"/>
<polygon fill="#63b8ff" stroke="#63b8ff" points="125.5,-99.75 129,-109.75 132.5,-99.75 125.5,-99.75"/>
</a>
</g>
</g>
<!-- Node6 -->
<g id="Node000006" class="node">
<title>Node6</title>
<g id="a_Node000006"><a xlink:href="ShapeBasedConstraint_8cpp.html" target="_top" xlink:title=" ">
<polygon fill="white" stroke="#666666" points="331.5,-74 184.5,-74 184.5,-55 331.5,-55 331.5,-74"/>
<text text-anchor="middle" x="258" y="-62" font-family="Helvetica,sans-Serif" font-size="10.00">ShapeBasedConstraint.cpp</text>
</a>
</g>
</g>
<!-- Node5&#45;&gt;Node6 -->
<g id="edge6_Node000005_Node000006" class="edge">
<title>Node5&#45;&gt;Node6</title>
<g id="a_edge6_Node000005_Node000006"><a xlink:title=" ">
<path fill="none" stroke="#63b8ff" d="M258,-99.66C258,-90.93 258,-80.99 258,-74.09"/>
<polygon fill="#63b8ff" stroke="#63b8ff" points="254.5,-99.75 258,-109.75 261.5,-99.75 254.5,-99.75"/>
</a>
</g>
</g>
<!-- Node7 -->
<g id="Node000007" class="node">
<title>Node7</title>
<g id="a_Node000007"><a xlink:href="forces_8cpp.html" target="_top" xlink:title="Force calculation.">
<polygon fill="white" stroke="#666666" points="416.5,-74 349.5,-74 349.5,-55 416.5,-55 416.5,-74"/>
<text text-anchor="middle" x="383" y="-62" font-family="Helvetica,sans-Serif" font-size="10.00">forces.cpp</text>
</a>
</g>
</g>
<!-- Node5&#45;&gt;Node7 -->
<g id="edge7_Node000005_Node000007" class="edge">
<title>Node5&#45;&gt;Node7</title>
<g id="a_edge7_Node000005_Node000007"><a xlink:title=" ">
<path fill="none" stroke="#63b8ff" d="M287.41,-106.03C310.53,-96.23 342.13,-82.83 362.55,-74.17"/>
<polygon fill="#63b8ff" stroke="#63b8ff" points="285.92,-102.86 278.08,-109.98 288.66,-109.3 285.92,-102.86"/>
</a>
</g>
</g>
<!-- Node8 -->
<g id="Node000008" class="node">
<title>Node8</title>
<g id="a_Node000008"><a xlink:href="pressure__inline_8hpp.html" target="_top" xlink:title=" ">
<polygon fill="white" stroke="#666666" points="547,-74 435,-74 435,-55 547,-55 547,-74"/>
<text text-anchor="middle" x="491" y="-62" font-family="Helvetica,sans-Serif" font-size="10.00">pressure_inline.hpp</text>
</a>
</g>
</g>
<!-- Node5&#45;&gt;Node8 -->
<g id="edge8_Node000005_Node000008" class="edge">
<title>Node5&#45;&gt;Node8</title>
<g id="a_edge8_Node000005_Node000008"><a xlink:title=" ">
<path fill="none" stroke="#63b8ff" d="M305.25,-107.75C348.91,-97.82 412.94,-83.26 453.27,-74.08"/>
<polygon fill="#63b8ff" stroke="#63b8ff" points="304.41,-104.35 295.44,-109.98 305.96,-111.18 304.41,-104.35"/>
</a>
</g>
</g>
<!-- Node9 -->
<g id="Node000009" class="node">
<title>Node9</title>
<g id="a_Node000009"><a xlink:href="pressure_8cpp.html" target="_top" xlink:title=" ">
<polygon fill="white" stroke="#666666" points="530.5,-19 451.5,-19 451.5,0 530.5,0 530.5,-19"/>
<text text-anchor="middle" x="491" y="-7" font-family="Helvetica,sans-Serif" font-size="10.00">pressure.cpp</text>
</a>
</g>
</g>
<!-- Node8&#45;&gt;Node9 -->
<g id="edge9_Node000008_Node000009" class="edge">
<title>Node8&#45;&gt;Node9</title>
<g id="a_edge9_Node000008_Node000009"><a xlink:title=" ">
<path fill="none" stroke="#63b8ff" d="M491,-44.66C491,-35.93 491,-25.99 491,-19.09"/>
<polygon fill="#63b8ff" stroke="#63b8ff" points="487.5,-44.75 491,-54.75 494.5,-44.75 487.5,-44.75"/>
</a>
</g>
</g>
</g>
</svg>
