<?xml version="1.0" encoding="UTF-8" standalone="no"?>
<!DOCTYPE svg PUBLIC "-//W3C//DTD SVG 1.1//EN"
 "http://www.w3.org/Graphics/SVG/1.1/DTD/svg11.dtd">
<!-- Generated by graphviz version 2.43.0 (0)
 -->
<!-- Title: oif_global_forces.hpp Pages: 1 -->
<!--zoomable 247 -->

<svg id="main" version="1.1" xmlns="http://www.w3.org/2000/svg" xmlns:xlink="http://www.w3.org/1999/xlink" xml:space="preserve" onload="init(evt)">
<style type="text/css"><![CDATA[
.node, .edge {opacity: 0.7;}
.node.selected, .edge.selected {opacity: 1;}
.edge:hover path { stroke: red; }
.edge:hover polygon { stroke: red; fill: red; }
]]></style>

<defs>
  <circle id="rim" cx="0" cy="0" r="7"/>
  <circle id="rim2" cx="0" cy="0" r="3.5"/>
  <g id="zoomPlus">
    <use xlink:href="#rim" fill="#404040"><set attributeName="fill" to="#808080" begin="zoomplus.mouseover" end="zoomplus.mouseout"/></use>
    <path d="M-4,0h8M0,-4v8" fill="none" stroke="white" stroke-width="1.5" pointer-events="none"/>
  </g>
  <g id="zoomMin">
    <use xlink:href="#rim" fill="#404040"><set attributeName="fill" to="#808080" begin="zoomminus.mouseover" end="zoomminus.mouseout"/></use>
    <path d="M-4,0h8" fill="none" stroke="white" stroke-width="1.5" pointer-events="none"/>
  </g>
  <g id="arrowUp" transform="translate(30 24)">
    <use xlink:href="#rim"/>
    <path pointer-events="none" fill="none" stroke="white" stroke-width="1.5" d="M0,-3.0v7 M-2.5,-0.5L0,-3.0L2.5,-0.5"/>
  </g>
  <g id="arrowRight" transform="rotate(90) translate(36 -43)">
    <use xlink:href="#rim"/>
    <path pointer-events="none" fill="none" stroke="white" stroke-width="1.5" d="M0,-3.0v7 M-2.5,-0.5L0,-3.0L2.5,-0.5"/>
  </g>
  <g id="arrowDown" transform="rotate(180) translate(-30 -48)">
    <use xlink:href="#rim"/>
    <path pointer-events="none" fill="none" stroke="white" stroke-width="1.5" d="M0,-3.0v7 M-2.5,-0.5L0,-3.0L2.5,-0.5"/>
  </g>
  <g id="arrowLeft" transform="rotate(270) translate(-36 17)">
    <use xlink:href="#rim"/>
    <path pointer-events="none" fill="none" stroke="white" stroke-width="1.5" d="M0,-3.0v7 M-2.5,-0.5L0,-3.0L2.5,-0.5"/>
  </g>
  <g id="resetDef">
    <use xlink:href="#rim2" fill="#404040"><set attributeName="fill" to="#808080" begin="reset.mouseover" end="reset.mouseout"/></use>
  </g>
</defs>
<script type="application/ecmascript">
var viewWidth = 560;
var viewHeight = 247;
var sectionId = 'dynsection-1';
</script>
<script type="application/ecmascript" xlink:href="svg.min.js"/>
<svg id="graph" class="graph">
<g id="viewport">
<title>oif_global_forces.hpp</title>
<!-- Node1 -->
<g id="Node000001" class="node">
<title>Node1</title>
<g id="a_Node000001"><a xlink:title="Routines to calculate the OIF global forces for a particle triple (triangle from mesh).">
<polygon fill="#999999" stroke="#666666" points="234.5,-239 113.5,-239 113.5,-220 234.5,-220 234.5,-239"/>
<text text-anchor="middle" x="174" y="-227" font-family="Helvetica,sans-Serif" font-size="10.00">oif_global_forces.hpp</text>
</a>
</g>
</g>
<!-- Node2 -->
<g id="Node000002" class="node">
<title>Node2</title>
<g id="a_Node000002"><a xlink:href="script__interface_2system_2System_8cpp.html" target="_top" xlink:title=" ">
<polygon fill="white" stroke="#666666" points="74,-129 0,-129 0,-110 74,-110 74,-129"/>
<text text-anchor="middle" x="37" y="-117" font-family="Helvetica,sans-Serif" font-size="10.00">System.cpp</text>
</a>
</g>
</g>
<!-- Node1&#45;&gt;Node2 -->
<g id="edge1_Node000001_Node000002" class="edge">
<title>Node1&#45;&gt;Node2</title>
<g id="a_edge1_Node000001_Node000002"><a xlink:title=" ">
<path fill="none" stroke="#63b8ff" d="M113.2,-217.1C92.63,-210.51 71.08,-200.17 56,-184 41.56,-168.51 38.06,-142.49 37.24,-129.07"/>
<polygon fill="#63b8ff" stroke="#63b8ff" points="112.28,-220.48 122.86,-219.96 114.27,-213.77 112.28,-220.48"/>
</a>
</g>
</g>
<!-- Node3 -->
<g id="Node000003" class="node">
<title>Node3</title>
<g id="a_Node000003"><a xlink:href="System_8impl_8hpp.html" target="_top" xlink:title=" ">
<polygon fill="white" stroke="#666666" points="164.5,-184 65.5,-184 65.5,-165 164.5,-165 164.5,-184"/>
<text text-anchor="middle" x="115" y="-172" font-family="Helvetica,sans-Serif" font-size="10.00">System.impl.hpp</text>
</a>
</g>
</g>
<!-- Node1&#45;&gt;Node3 -->
<g id="edge2_Node000001_Node000003" class="edge">
<title>Node1&#45;&gt;Node3</title>
<g id="a_edge2_Node000001_Node000003"><a xlink:title=" ">
<path fill="none" stroke="#63b8ff" d="M156.8,-213.04C146.33,-203.64 133.35,-191.98 124.65,-184.17"/>
<polygon fill="#63b8ff" stroke="#63b8ff" points="154.74,-215.91 164.52,-219.98 159.42,-210.7 154.74,-215.91"/>
</a>
</g>
</g>
<!-- Node5 -->
<g id="Node000005" class="node">
<title>Node5</title>
<g id="a_Node000005"><a xlink:href="forces__inline_8hpp.html" target="_top" xlink:title="Force calculation.">
<polygon fill="white" stroke="#666666" points="322,-184 222,-184 222,-165 322,-165 322,-184"/>
<text text-anchor="middle" x="272" y="-172" font-family="Helvetica,sans-Serif" font-size="10.00">forces_inline.hpp</text>
</a>
</g>
</g>
<!-- Node1&#45;&gt;Node5 -->
<g id="edge5_Node000001_Node000005" class="edge">
<title>Node1&#45;&gt;Node5</title>
<g id="a_edge5_Node000001_Node000005"><a xlink:title=" ">
<path fill="none" stroke="#63b8ff" d="M199.03,-214.97C216.94,-205.28 240.53,-192.52 255.97,-184.17"/>
<polygon fill="#63b8ff" stroke="#63b8ff" points="196.88,-212.15 189.75,-219.98 200.21,-218.31 196.88,-212.15"/>
</a>
</g>
</g>
<!-- Node15 -->
<g id="Node000015" class="node">
<title>Node15</title>
<g id="a_Node000015"><a xlink:href="oif__global__forces_8cpp.html" target="_top" xlink:title=" ">
<polygon fill="white" stroke="#666666" points="460,-184 340,-184 340,-165 460,-165 460,-184"/>
<text text-anchor="middle" x="400" y="-172" font-family="Helvetica,sans-Serif" font-size="10.00">oif_global_forces.cpp</text>
</a>
</g>
</g>
<!-- Node1&#45;&gt;Node15 -->
<g id="edge17_Node000001_Node000015" class="edge">
<title>Node1&#45;&gt;Node15</title>
<g id="a_edge17_Node000001_Node000015"><a xlink:title=" ">
<path fill="none" stroke="#63b8ff" d="M220.09,-217.69C262.44,-207.76 324.36,-193.24 363.4,-184.08"/>
<polygon fill="#63b8ff" stroke="#63b8ff" points="219.25,-214.29 210.31,-219.98 220.85,-221.11 219.25,-214.29"/>
</a>
</g>
</g>
<!-- Node3&#45;&gt;Node2 -->
<g id="edge4_Node000003_Node000002" class="edge">
<title>Node3&#45;&gt;Node2</title>
<g id="a_edge4_Node000003_Node000002"><a xlink:title=" ">
<path fill="none" stroke="#63b8ff" d="M93.88,-159.15C79.79,-149.57 61.71,-137.29 49.76,-129.17"/>
<polygon fill="#63b8ff" stroke="#63b8ff" points="92.23,-162.26 102.47,-164.98 96.16,-156.47 92.23,-162.26"/>
</a>
</g>
</g>
<!-- Node4 -->
<g id="Node000004" class="node">
<title>Node4</title>
<g id="a_Node000004"><a xlink:href="core_2system_2System_8cpp.html" target="_top" xlink:title=" ">
<polygon fill="white" stroke="#666666" points="139,-19 65,-19 65,0 139,0 139,-19"/>
<text text-anchor="middle" x="102" y="-7" font-family="Helvetica,sans-Serif" font-size="10.00">System.cpp</text>
</a>
</g>
</g>
<!-- Node3&#45;&gt;Node4 -->
<g id="edge3_Node000003_Node000004" class="edge">
<title>Node3&#45;&gt;Node4</title>
<g id="a_edge3_Node000003_Node000004"><a xlink:title=" ">
<path fill="none" stroke="#63b8ff" d="M113.47,-154.37C110.66,-119.03 104.73,-44.79 102.7,-19.31"/>
<polygon fill="#63b8ff" stroke="#63b8ff" points="110.02,-155.05 114.3,-164.74 116.99,-154.49 110.02,-155.05"/>
</a>
</g>
</g>
<!-- Node6 -->
<g id="Node000006" class="node">
<title>Node6</title>
<g id="a_Node000006"><a xlink:href="ShapeBasedConstraint_8cpp.html" target="_top" xlink:title=" ">
<polygon fill="white" stroke="#666666" points="533.5,-129 386.5,-129 386.5,-110 533.5,-110 533.5,-129"/>
<text text-anchor="middle" x="460" y="-117" font-family="Helvetica,sans-Serif" font-size="10.00">ShapeBasedConstraint.cpp</text>
</a>
</g>
</g>
<!-- Node5&#45;&gt;Node6 -->
<g id="edge6_Node000005_Node000006" class="edge">
<title>Node5&#45;&gt;Node6</title>
<g id="a_edge6_Node000005_Node000006"><a xlink:title=" ">
<path fill="none" stroke="#63b8ff" d="M312.14,-162.18C347.3,-152.27 397.63,-138.08 429.56,-129.08"/>
<polygon fill="#63b8ff" stroke="#63b8ff" points="310.88,-158.9 302.21,-164.98 312.78,-165.64 310.88,-158.9"/>
</a>
</g>
</g>
<!-- Node7 -->
<g id="Node000007" class="node">
<title>Node7</title>
<g id="a_Node000007"><a xlink:href="forces_8cpp.html" target="_top" xlink:title="Force calculation.">
<polygon fill="white" stroke="#666666" points="524.5,-19 457.5,-19 457.5,0 524.5,0 524.5,-19"/>
<text text-anchor="middle" x="491" y="-7" font-family="Helvetica,sans-Serif" font-size="10.00">forces.cpp</text>
</a>
</g>
</g>
<!-- Node5&#45;&gt;Node7 -->
<g id="edge7_Node000005_Node000007" class="edge">
<title>Node5&#45;&gt;Node7</title>
<g id="a_edge7_Node000005_Node000007"><a xlink:title=" ">
<path fill="none" stroke="#63b8ff" d="M332.45,-164.56C411.27,-152.77 539.58,-133.02 543,-129 572.52,-94.24 522.53,-40.09 500.56,-19.16"/>
<polygon fill="#63b8ff" stroke="#63b8ff" points="331.52,-161.16 322.15,-166.1 332.56,-168.08 331.52,-161.16"/>
</a>
</g>
</g>
<!-- Node8 -->
<g id="Node000008" class="node">
<title>Node8</title>
<g id="a_Node000008"><a xlink:href="forces__cabana_8hpp.html" target="_top" xlink:title=" ">
<polygon fill="white" stroke="#666666" points="238,-129 130,-129 130,-110 238,-110 238,-129"/>
<text text-anchor="middle" x="184" y="-117" font-family="Helvetica,sans-Serif" font-size="10.00">forces_cabana.hpp</text>
</a>
</g>
</g>
<!-- Node5&#45;&gt;Node8 -->
<g id="edge8_Node000005_Node000008" class="edge">
<title>Node5&#45;&gt;Node8</title>
<g id="a_edge8_Node000005_Node000008"><a xlink:title=" ">
<path fill="none" stroke="#63b8ff" d="M249.08,-159.7C233.05,-150.04 212.13,-137.44 198.4,-129.17"/>
<polygon fill="#63b8ff" stroke="#63b8ff" points="247.49,-162.82 257.86,-164.98 251.1,-156.83 247.49,-162.82"/>
</a>
</g>
</g>
<!-- Node13 -->
<g id="Node000013" class="node">
<title>Node13</title>
<g id="a_Node000013"><a xlink:href="pressure__inline_8hpp.html" target="_top" xlink:title=" ">
<polygon fill="white" stroke="#666666" points="368,-129 256,-129 256,-110 368,-110 368,-129"/>
<text text-anchor="middle" x="312" y="-117" font-family="Helvetica,sans-Serif" font-size="10.00">pressure_inline.hpp</text>
</a>
</g>
</g>
<!-- Node5&#45;&gt;Node13 -->
<g id="edge15_Node000005_Node000013" class="edge">
<title>Node5&#45;&gt;Node13</title>
<g id="a_edge15_Node000005_Node000013"><a xlink:title=" ">
<path fill="none" stroke="#63b8ff" d="M284.7,-156.67C291.63,-147.5 299.91,-136.52 305.52,-129.09"/>
<polygon fill="#63b8ff" stroke="#63b8ff" points="281.84,-154.66 278.61,-164.75 287.42,-158.87 281.84,-154.66"/>
</a>
</g>
</g>
<!-- Node9 -->
<g id="Node000009" class="node">
<title>Node9</title>
<g id="a_Node000009"><a xlink:href="short__range__cabana_8hpp.html" target="_top" xlink:title=" ">
<polygon fill="white" stroke="#666666" points="266,-74 130,-74 130,-55 266,-55 266,-74"/>
<text text-anchor="middle" x="198" y="-62" font-family="Helvetica,sans-Serif" font-size="10.00">short_range_cabana.hpp</text>
</a>
</g>
</g>
<!-- Node8&#45;&gt;Node9 -->
<g id="edge9_Node000008_Node000009" class="edge">
<title>Node8&#45;&gt;Node9</title>
<g id="a_edge9_Node000008_Node000009"><a xlink:title=" ">
<path fill="none" stroke="#63b8ff" d="M188.9,-99.95C191.22,-91.15 193.89,-81.06 195.73,-74.09"/>
<polygon fill="#63b8ff" stroke="#63b8ff" points="185.48,-99.19 186.31,-109.75 192.25,-100.97 185.48,-99.19"/>
</a>
</g>
</g>
<!-- Node9&#45;&gt;Node4 -->
<g id="edge10_Node000009_Node000004" class="edge">
<title>Node9&#45;&gt;Node4</title>
<g id="a_edge10_Node000009_Node000004"><a xlink:title=" ">
<path fill="none" stroke="#63b8ff" d="M173.48,-49.97C155.94,-40.28 132.83,-27.52 117.7,-19.17"/>
<polygon fill="#63b8ff" stroke="#63b8ff" points="172.13,-53.22 182.58,-54.98 175.51,-47.09 172.13,-53.22"/>
</a>
</g>
</g>
<!-- Node9&#45;&gt;Node7 -->
<g id="edge12_Node000009_Node000007" class="edge">
<title>Node9&#45;&gt;Node7</title>
<g id="a_edge12_Node000009_Node000007"><a xlink:title=" ">
<path fill="none" stroke="#63b8ff" d="M255.17,-53.16C315.3,-42.28 407.91,-25.53 457.28,-16.6"/>
<polygon fill="#63b8ff" stroke="#63b8ff" points="254.29,-49.76 245.08,-54.98 255.54,-56.65 254.29,-49.76"/>
</a>
</g>
</g>
<!-- Node10 -->
<g id="Node000010" class="node">
<title>Node10</title>
<g id="a_Node000010"><a xlink:href="dp3m_8cpp.html" target="_top" xlink:title="P3M algorithm for long&#45;range magnetic dipole&#45;dipole interaction.">
<polygon fill="white" stroke="#666666" points="367.5,-19 302.5,-19 302.5,0 367.5,0 367.5,-19"/>
<text text-anchor="middle" x="335" y="-7" font-family="Helvetica,sans-Serif" font-size="10.00">dp3m.cpp</text>
</a>
</g>
</g>
<!-- Node9&#45;&gt;Node10 -->
<g id="edge11_Node000009_Node000010" class="edge">
<title>Node9&#45;&gt;Node10</title>
<g id="a_edge11_Node000009_Node000010"><a xlink:title=" ">
<path fill="none" stroke="#63b8ff" d="M229.56,-51.29C254.95,-41.47 290,-27.91 312.59,-19.17"/>
<polygon fill="#63b8ff" stroke="#63b8ff" points="228.08,-48.11 220.01,-54.98 230.6,-54.64 228.08,-48.11"/>
</a>
</g>
</g>
<!-- Node11 -->
<g id="Node000011" class="node">
<title>Node11</title>
<g id="a_Node000011"><a xlink:href="icc_8cpp.html" target="_top" xlink:title="Functions to compute the electric field acting on the induced charges, excluding forces other than th...">
<polygon fill="white" stroke="#666666" points="207,-19 157,-19 157,0 207,0 207,-19"/>
<text text-anchor="middle" x="182" y="-7" font-family="Helvetica,sans-Serif" font-size="10.00">icc.cpp</text>
</a>
</g>
</g>
<!-- Node9&#45;&gt;Node11 -->
<g id="edge13_Node000009_Node000011" class="edge">
<title>Node9&#45;&gt;Node11</title>
<g id="a_edge13_Node000009_Node000011"><a xlink:title=" ">
<path fill="none" stroke="#63b8ff" d="M192.4,-44.95C189.74,-36.15 186.7,-26.06 184.59,-19.09"/>
<polygon fill="#63b8ff" stroke="#63b8ff" points="189.12,-46.19 195.36,-54.75 195.82,-44.16 189.12,-46.19"/>
</a>
</g>
</g>
<!-- Node12 -->
<g id="Node000012" class="node">
<title>Node12</title>
<g id="a_Node000012"><a xlink:href="p3m_8cpp.html" target="_top" xlink:title="The corresponding header file is p3m.hpp.">
<polygon fill="white" stroke="#666666" points="284.5,-19 225.5,-19 225.5,0 284.5,0 284.5,-19"/>
<text text-anchor="middle" x="255" y="-7" font-family="Helvetica,sans-Serif" font-size="10.00">p3m.cpp</text>
</a>
</g>
</g>
<!-- Node9&#45;&gt;Node12 -->
<g id="edge14_Node000009_Node000012" class="edge">
<title>Node9&#45;&gt;Node12</title>
<g id="a_edge14_Node000009_Node000012"><a xlink:title=" ">
<path fill="none" stroke="#63b8ff" d="M214.62,-48.04C224.73,-38.64 237.28,-26.98 245.68,-19.17"/>
<polygon fill="#63b8ff" stroke="#63b8ff" points="212.1,-45.61 207.16,-54.98 216.86,-50.74 212.1,-45.61"/>
</a>
</g>
</g>
<!-- Node14 -->
<g id="Node000014" class="node">
<title>Node14</title>
<g id="a_Node000014"><a xlink:href="pressure_8cpp.html" target="_top" xlink:title=" ">
<polygon fill="white" stroke="#666666" points="363.5,-74 284.5,-74 284.5,-55 363.5,-55 363.5,-74"/>
<text text-anchor="middle" x="324" y="-62" font-family="Helvetica,sans-Serif" font-size="10.00">pressure.cpp</text>
</a>
</g>
</g>
<!-- Node13&#45;&gt;Node14 -->
<g id="edge16_Node000013_Node000014" class="edge">
<title>Node13&#45;&gt;Node14</title>
<g id="a_edge16_Node000013_Node000014"><a xlink:title=" ">
<path fill="none" stroke="#63b8ff" d="M316.2,-99.95C318.19,-91.15 320.48,-81.06 322.06,-74.09"/>
<polygon fill="#63b8ff" stroke="#63b8ff" points="312.78,-99.22 313.98,-109.75 319.6,-100.77 312.78,-99.22"/>
</a>
</g>
</g>
</g>
</svg>

<g id="navigator" transform="translate(0 0)" fill="#404254">
  <rect fill="#f2f5e9" fill-opacity="0.5" stroke="#606060" stroke-width=".5" x="0" y="0" width="60" height="60"/>
  <use id="zoomplus" xlink:href="#zoomPlus" x="17" y="9" onmousedown="handleZoom(evt,'in')"/>
  <use id="zoomminus" xlink:href="#zoomMin" x="42" y="9" onmousedown="handleZoom(evt,'out')"/>
  <use id="reset" xlink:href="#resetDef" x="30" y="36" onmousedown="handleReset()"/>
   <use id="arrowup" xlink:href="#arrowUp" x="0" y="0" onmousedown="handlePan(0,-1)"/>
  <use id="arrowright" xlink:href="#arrowRight" x="0" y="0" onmousedown="handlePan(1,0)"/>
  <use id="arrowdown" xlink:href="#arrowDown" x="0" y="0" onmousedown="handlePan(0,1)"/>
  <use id="arrowleft" xlink:href="#arrowLeft" x="0" y="0" onmousedown="handlePan(-1,0)"/>
</g>
<svg viewBox="0 0 15 15" width="100%" height="30px" preserveAspectRatio="xMaxYMin meet">
 <g id="arrow_out" transform="scale(0.3 0.3)">
  <a xlink:href="oif__global__forces_8hpp__dep__incl_org.svg" target="_base">
   <rect id="button" ry="5" rx="5" y="6" x="6" height="38" width="38"
        fill="#f2f5e9" fill-opacity="0.5" stroke="#606060" stroke-width="1.0"/>
   <path id="arrow"
     d="M 11.500037,31.436501 C 11.940474,20.09759 22.043105,11.32322 32.158766,21.979434 L 37.068811,17.246167 C 37.068811,17.246167 37.088388,32 37.088388,32 L 22.160133,31.978069 C 22.160133,31.978069 26.997745,27.140456 26.997745,27.140456 C 18.528582,18.264221 13.291696,25.230495 11.500037,31.436501 z"
     style="fill:#404040;"/>
  </a>
 </g>
</svg>

<style type='text/css'>
<![CDATA[
[data-mouse-over-selected='false'] { opacity: 0.7; }
[data-mouse-over-selected='true']  { opacity: 1.0; }
]]>
</style>
<script type="application/ecmascript"><![CDATA[
document.addEventListener('DOMContentLoaded', (event) => {
  highlightEdges();
  highlightAdjacentNodes();
});
]]></script>
</svg>
