<?xml version="1.0" encoding="UTF-8" standalone="no"?>
<!DOCTYPE svg PUBLIC "-//W3C//DTD SVG 1.1//EN"
 "http://www.w3.org/Graphics/SVG/1.1/DTD/svg11.dtd">
<!-- Generated by graphviz version 2.43.0 (0)
 -->
<!-- Title: p3m_gpu.hpp Pages: 1 -->
<!--zoomable 487 -->
<svg id="main" version="1.1" xmlns="http://www.w3.org/2000/svg" xmlns:xlink="http://www.w3.org/1999/xlink" xml:space="preserve" onload="init(evt)">
<style type="text/css"><![CDATA[
.edge:hover path { stroke: red; }
.edge:hover polygon { stroke: red; fill: red; }
]]></style>
<script type="text/javascript"><![CDATA[
var edges = document.getElementsByTagName('g');
if (edges && edges.length) {
  for (var i=0;i<edges.length;i++) {
    if (edges[i].id.substr(0,4)=='edge') {
      edges[i].setAttribute('class','edge');
    }
  }
}
]]></script>
        <defs>
                <circle id="rim" cx="0" cy="0" r="7"/>
                <circle id="rim2" cx="0" cy="0" r="3.5"/>
                <g id="zoomPlus">
                        <use xlink:href="#rim" fill="#404040">
                                <set attributeName="fill" to="#808080" begin="zoomplus.mouseover" end="zoomplus.mouseout"/>
                        </use>
                        <path d="M-4,0h8M0,-4v8" fill="none" stroke="white" stroke-width="1.5" pointer-events="none"/>
                </g>
                <g id="zoomMin">
                        <use xlink:href="#rim" fill="#404040">
                                <set attributeName="fill" to="#808080" begin="zoomminus.mouseover" end="zoomminus.mouseout"/>
                        </use>
                        <path d="M-4,0h8" fill="none" stroke="white" stroke-width="1.5" pointer-events="none"/>
                </g>
                <g id="dirArrow">
                        <path fill="none" stroke="white" stroke-width="1.5" d="M0,-3.0v7 M-2.5,-0.5L0,-3.0L2.5,-0.5"/>
                </g>
               <g id="resetDef">
                       <use xlink:href="#rim2" fill="#404040">
                               <set attributeName="fill" to="#808080" begin="reset.mouseover" end="reset.mouseout"/>
                       </use>
               </g>
        </defs>

<script type="text/javascript">
var viewWidth = 1432;
var viewHeight = 487;
var sectionId = 'dynsection-1';
</script>
<script xlink:href="svgpan.js"/>
<svg id="graph" class="graph">
<g id="viewport">
<title>p3m_gpu.hpp</title>
<!-- Node1 -->
<g id="node1" class="node">
<title>Node1</title>
<g id="a_node1"><a xlink:title="P3M electrostatics on GPU.">
<polygon fill="#bfbfbf" stroke="black" points="923,-459.5 923,-478.5 1006,-478.5 1006,-459.5 923,-459.5"/>
<text text-anchor="middle" x="964.5" y="-466.5" font-family="Helvetica,sans-Serif" font-size="10.00">p3m_gpu.hpp</text>
</a>
</g>
</g>
<!-- Node2 -->
<g id="node2" class="node">
<title>Node2</title>
<g id="a_node2"><a xlink:href="coulomb_8hpp.html" target="_top" xlink:title=" ">
<polygon fill="none" stroke="black" points="790.5,-347.5 790.5,-366.5 870.5,-366.5 870.5,-347.5 790.5,-347.5"/>
<text text-anchor="middle" x="830.5" y="-354.5" font-family="Helvetica,sans-Serif" font-size="10.00">coulomb.hpp</text>
</a>
</g>
</g>
<!-- Node1&#45;&gt;Node2 -->
<g id="edge1" class="edge">
<title>Node1&#45;&gt;Node2</title>
<path fill="none" stroke="midnightblue" d="M930.48,-455.54C912.79,-447.96 891.58,-437.01 875.5,-423 856.46,-406.41 841.54,-380.09 834.66,-366.6"/>
<polygon fill="midnightblue" stroke="midnightblue" points="929.3,-458.85 939.88,-459.41 931.96,-452.37 929.3,-458.85"/>
</g>
<!-- Node13 -->
<g id="node13" class="node">
<title>Node13</title>
<g id="a_node13"><a xlink:href="forces_8cpp.html" target="_top" xlink:title="Force calculation.">
<polygon fill="none" stroke="black" points="0,-112.5 0,-131.5 67,-131.5 67,-112.5 0,-112.5"/>
<text text-anchor="middle" x="33.5" y="-119.5" font-family="Helvetica,sans-Serif" font-size="10.00">forces.cpp</text>
</a>
</g>
</g>
<!-- Node1&#45;&gt;Node13 -->
<g id="edge44" class="edge">
<title>Node1&#45;&gt;Node13</title>
<path fill="none" stroke="midnightblue" d="M912.71,-467.29C718.63,-463.95 45.5,-446.01 45.5,-358 45.5,-358 45.5,-358 45.5,-233 45.5,-194.96 38.32,-149.96 35.07,-131.52"/>
<polygon fill="midnightblue" stroke="midnightblue" points="912.87,-470.79 922.93,-467.46 912.99,-463.79 912.87,-470.79"/>
</g>
<!-- Node17 -->
<g id="node17" class="node">
<title>Node17</title>
<g id="a_node17"><a xlink:href="elc_8cpp.html" target="_top" xlink:title=" ">
<polygon fill="none" stroke="black" points="1043,-286 1043,-305 1094,-305 1094,-286 1043,-286"/>
<text text-anchor="middle" x="1068.5" y="-293" font-family="Helvetica,sans-Serif" font-size="10.00">elc.cpp</text>
</a>
</g>
</g>
<!-- Node1&#45;&gt;Node17 -->
<g id="edge35" class="edge">
<title>Node1&#45;&gt;Node17</title>
<path fill="none" stroke="midnightblue" d="M962.78,-449.41C961.39,-424.03 962.41,-378.15 983.5,-347 997.55,-326.25 1023.22,-312.74 1042.69,-304.97"/>
<polygon fill="midnightblue" stroke="midnightblue" points="959.3,-449.78 963.52,-459.5 966.28,-449.27 959.3,-449.78"/>
</g>
<!-- Node19 -->
<g id="node19" class="node">
<title>Node19</title>
<g id="a_node19"><a xlink:href="p3m_8cpp.html" target="_top" xlink:title="The corresponding header file is p3m.hpp.">
<polygon fill="none" stroke="black" points="1251,-286 1251,-305 1310,-305 1310,-286 1251,-286"/>
<text text-anchor="middle" x="1280.5" y="-293" font-family="Helvetica,sans-Serif" font-size="10.00">p3m.cpp</text>
</a>
</g>
</g>
<!-- Node1&#45;&gt;Node19 -->
<g id="edge42" class="edge">
<title>Node1&#45;&gt;Node19</title>
<path fill="none" stroke="midnightblue" d="M1016.49,-461.17C1052.37,-454.9 1100.3,-443.4 1138.5,-423 1198.79,-390.81 1254.42,-327.97 1273.51,-305.09"/>
<polygon fill="midnightblue" stroke="midnightblue" points="1015.53,-457.78 1006.24,-462.87 1016.68,-464.68 1015.53,-457.78"/>
</g>
<!-- Node20 -->
<g id="node20" class="node">
<title>Node20</title>
<g id="a_node20"><a xlink:href="p3m__gpu_8cpp.html" target="_top" xlink:title=" ">
<polygon fill="none" stroke="black" points="1150.5,-286 1150.5,-305 1232.5,-305 1232.5,-286 1150.5,-286"/>
<text text-anchor="middle" x="1191.5" y="-293" font-family="Helvetica,sans-Serif" font-size="10.00">p3m_gpu.cpp</text>
</a>
</g>
</g>
<!-- Node1&#45;&gt;Node20 -->
<g id="edge43" class="edge">
<title>Node1&#45;&gt;Node20</title>
<path fill="none" stroke="midnightblue" d="M1016.23,-457.49C1065.41,-444.71 1137.61,-418.19 1177.5,-367 1191.77,-348.69 1192.69,-319.77 1192.13,-305.32"/>
<polygon fill="midnightblue" stroke="midnightblue" points="1015.27,-454.12 1006.42,-459.94 1016.97,-460.92 1015.27,-454.12"/>
</g>
<!-- Node28 -->
<g id="node28" class="node">
<title>Node28</title>
<g id="a_node28"><a xlink:href="elc_8hpp.html" target="_top" xlink:title="ELC algorithm for long&#45;range Coulomb interactions.">
<polygon fill="none" stroke="black" points="884.5,-403.5 884.5,-422.5 936.5,-422.5 936.5,-403.5 884.5,-403.5"/>
<text text-anchor="middle" x="910.5" y="-410.5" font-family="Helvetica,sans-Serif" font-size="10.00">elc.hpp</text>
</a>
</g>
</g>
<!-- Node1&#45;&gt;Node28 -->
<g id="edge36" class="edge">
<title>Node1&#45;&gt;Node28</title>
<path fill="none" stroke="midnightblue" d="M948.5,-452C938.93,-442.43 927.14,-430.64 919.25,-422.75"/>
<polygon fill="midnightblue" stroke="midnightblue" points="946.04,-454.49 955.58,-459.08 950.99,-449.54 946.04,-454.49"/>
</g>
<!-- Node30 -->
<g id="node30" class="node">
<title>Node30</title>
<g id="a_node30"><a xlink:href="CoulombP3MGPU_8hpp.html" target="_top" xlink:title=" ">
<polygon fill="none" stroke="black" points="1301,-403.5 1301,-422.5 1424,-422.5 1424,-403.5 1301,-403.5"/>
<text text-anchor="middle" x="1362.5" y="-410.5" font-family="Helvetica,sans-Serif" font-size="10.00">CoulombP3MGPU.hpp</text>
</a>
</g>
</g>
<!-- Node1&#45;&gt;Node30 -->
<g id="edge45" class="edge">
<title>Node1&#45;&gt;Node30</title>
<path fill="none" stroke="midnightblue" d="M1016.69,-460.92C1089.9,-450.99 1222.83,-432.95 1300.82,-422.37"/>
<polygon fill="midnightblue" stroke="midnightblue" points="1015.78,-457.51 1006.34,-462.32 1016.72,-464.45 1015.78,-457.51"/>
</g>
<!-- Node3 -->
<g id="node3" class="node">
<title>Node3</title>
<g id="a_node3"><a xlink:href="coulomb_8cpp.html" target="_top" xlink:title=" ">
<polygon fill="none" stroke="black" points="723,-286 723,-305 802,-305 802,-286 723,-286"/>
<text text-anchor="middle" x="762.5" y="-293" font-family="Helvetica,sans-Serif" font-size="10.00">coulomb.cpp</text>
</a>
</g>
</g>
<!-- Node2&#45;&gt;Node3 -->
<g id="edge2" class="edge">
<title>Node2&#45;&gt;Node3</title>
<path fill="none" stroke="midnightblue" d="M812.96,-340.65C799.99,-329.31 782.82,-314.28 772.22,-305.01"/>
<polygon fill="midnightblue" stroke="midnightblue" points="810.93,-343.52 820.76,-347.48 815.54,-338.26 810.93,-343.52"/>
</g>
<!-- Node4 -->
<g id="node4" class="node">
<title>Node4</title>
<g id="a_node4"><a xlink:href="coulomb__inline_8hpp.html" target="_top" xlink:title=" ">
<polygon fill="none" stroke="black" points="592.5,-286 592.5,-305 704.5,-305 704.5,-286 592.5,-286"/>
<text text-anchor="middle" x="648.5" y="-293" font-family="Helvetica,sans-Serif" font-size="10.00">coulomb_inline.hpp</text>
</a>
</g>
</g>
<!-- Node2&#45;&gt;Node4 -->
<g id="edge3" class="edge">
<title>Node2&#45;&gt;Node4</title>
<path fill="none" stroke="midnightblue" d="M794.5,-344.23C759.13,-332.67 706,-315.3 674.53,-305.01"/>
<polygon fill="midnightblue" stroke="midnightblue" points="793.83,-347.69 804.42,-347.48 796.01,-341.04 793.83,-347.69"/>
</g>
<!-- Node5 -->
<g id="node5" class="node">
<title>Node5</title>
<g id="a_node5"><a xlink:href="icc_8cpp.html" target="_top" xlink:title="Functions to compute the electric field acting on the induced charges, excluding forces other than th...">
<polygon fill="none" stroke="black" points="541.5,-224.5 541.5,-243.5 591.5,-243.5 591.5,-224.5 541.5,-224.5"/>
<text text-anchor="middle" x="566.5" y="-231.5" font-family="Helvetica,sans-Serif" font-size="10.00">icc.cpp</text>
</a>
</g>
</g>
<!-- Node2&#45;&gt;Node5 -->
<g id="edge20" class="edge">
<title>Node2&#45;&gt;Node5</title>
<path fill="none" stroke="midnightblue" d="M780.23,-353.27C716.33,-348.75 611,-337.43 583.5,-311 564.78,-293.01 564.58,-259.26 565.65,-243.5"/>
<polygon fill="midnightblue" stroke="midnightblue" points="780.28,-356.78 790.5,-353.97 780.76,-349.8 780.28,-356.78"/>
</g>
<!-- Node8 -->
<g id="node8" class="node">
<title>Node8</title>
<g id="a_node8"><a xlink:href="energy_8cpp.html" target="_top" xlink:title=" ">
<polygon fill="none" stroke="black" points="820,-112.5 820,-131.5 889,-131.5 889,-112.5 820,-112.5"/>
<text text-anchor="middle" x="854.5" y="-119.5" font-family="Helvetica,sans-Serif" font-size="10.00">energy.cpp</text>
</a>
</g>
</g>
<!-- Node2&#45;&gt;Node8 -->
<g id="edge24" class="edge">
<title>Node2&#45;&gt;Node8</title>
<path fill="none" stroke="midnightblue" d="M832.42,-337.36C837.3,-289.95 850.06,-166.15 853.58,-131.9"/>
<polygon fill="midnightblue" stroke="midnightblue" points="828.93,-337.13 831.38,-347.43 835.89,-337.84 828.93,-337.13"/>
</g>
<!-- Node15 -->
<g id="node15" class="node">
<title>Node15</title>
<g id="a_node15"><a xlink:href="pressure_8cpp.html" target="_top" xlink:title=" ">
<polygon fill="none" stroke="black" points="152,-56.5 152,-75.5 231,-75.5 231,-56.5 152,-56.5"/>
<text text-anchor="middle" x="191.5" y="-63.5" font-family="Helvetica,sans-Serif" font-size="10.00">pressure.cpp</text>
</a>
</g>
</g>
<!-- Node2&#45;&gt;Node15 -->
<g id="edge28" class="edge">
<title>Node2&#45;&gt;Node15</title>
<path fill="none" stroke="midnightblue" d="M780.16,-356.21C625.62,-356.4 165.38,-353.36 114.5,-311 87.74,-288.72 95.5,-269.82 95.5,-235 95.5,-235 95.5,-235 95.5,-177 95.5,-128.84 148.38,-91.57 175.65,-75.56"/>
<polygon fill="midnightblue" stroke="midnightblue" points="780.33,-359.71 790.32,-356.19 780.31,-352.71 780.33,-359.71"/>
</g>
<!-- Node16 -->
<g id="node16" class="node">
<title>Node16</title>
<g id="a_node16"><a xlink:href="thole_8hpp.html" target="_top" xlink:title="Routines to calculate the Thole damping potential between particle pairs.">
<polygon fill="none" stroke="black" points="685.5,-224.5 685.5,-243.5 747.5,-243.5 747.5,-224.5 685.5,-224.5"/>
<text text-anchor="middle" x="716.5" y="-231.5" font-family="Helvetica,sans-Serif" font-size="10.00">thole.hpp</text>
</a>
</g>
</g>
<!-- Node2&#45;&gt;Node16 -->
<g id="edge26" class="edge">
<title>Node2&#45;&gt;Node16</title>
<path fill="none" stroke="midnightblue" d="M830.19,-337.26C828.98,-320.53 824.81,-296.24 811.5,-280 795.42,-260.38 768.79,-248.8 747.81,-242.31"/>
<polygon fill="midnightblue" stroke="midnightblue" points="826.7,-337.6 830.63,-347.43 833.69,-337.29 826.7,-337.6"/>
</g>
<!-- Node2&#45;&gt;Node17 -->
<g id="edge19" class="edge">
<title>Node2&#45;&gt;Node17</title>
<path fill="none" stroke="midnightblue" d="M880.55,-346.42C920.84,-338.28 978.77,-325.6 1028.5,-311 1034.31,-309.29 1040.5,-307.19 1046.24,-305.12"/>
<polygon fill="midnightblue" stroke="midnightblue" points="879.81,-343 870.7,-348.39 881.19,-349.86 879.81,-343"/>
</g>
<!-- Node18 -->
<g id="node18" class="node">
<title>Node18</title>
<g id="a_node18"><a xlink:href="mmm1d_8cpp.html" target="_top" xlink:title=" ">
<polygon fill="none" stroke="black" points="123.5,-286 123.5,-305 201.5,-305 201.5,-286 123.5,-286"/>
<text text-anchor="middle" x="162.5" y="-293" font-family="Helvetica,sans-Serif" font-size="10.00">mmm1d.cpp</text>
</a>
</g>
</g>
<!-- Node2&#45;&gt;Node18 -->
<g id="edge21" class="edge">
<title>Node2&#45;&gt;Node18</title>
<path fill="none" stroke="midnightblue" d="M780.1,-356.09C673.86,-355.47 419.5,-349.66 210.5,-311 202.8,-309.57 194.58,-307.36 187.16,-305.09"/>
<polygon fill="midnightblue" stroke="midnightblue" points="780.2,-359.59 790.22,-356.14 780.23,-352.59 780.2,-359.59"/>
</g>
<!-- Node2&#45;&gt;Node19 -->
<g id="edge22" class="edge">
<title>Node2&#45;&gt;Node19</title>
<path fill="none" stroke="midnightblue" d="M880.65,-352.07C974.69,-344.44 1174.09,-326.96 1241.5,-311 1247.69,-309.54 1254.23,-307.36 1260.15,-305.15"/>
<polygon fill="midnightblue" stroke="midnightblue" points="880.22,-348.59 870.54,-352.88 880.78,-355.57 880.22,-348.59"/>
</g>
<!-- Node2&#45;&gt;Node20 -->
<g id="edge23" class="edge">
<title>Node2&#45;&gt;Node20</title>
<path fill="none" stroke="midnightblue" d="M880.69,-347.73C952.69,-335.86 1083.94,-314.23 1150.48,-303.26"/>
<polygon fill="midnightblue" stroke="midnightblue" points="879.81,-344.33 870.51,-349.41 880.95,-351.23 879.81,-344.33"/>
</g>
<!-- Node21 -->
<g id="node21" class="node">
<title>Node21</title>
<g id="a_node21"><a xlink:href="nonbonded__interaction__data_8cpp.html" target="_top" xlink:title="Implementation of nonbonded_interaction_data.hpp.">
<polygon fill="none" stroke="black" points="219.5,-280.5 219.5,-310.5 347.5,-310.5 347.5,-280.5 219.5,-280.5"/>
<text text-anchor="start" x="227.5" y="-298.5" font-family="Helvetica,sans-Serif" font-size="10.00">nonbonded_interaction</text>
<text text-anchor="middle" x="283.5" y="-287.5" font-family="Helvetica,sans-Serif" font-size="10.00">_data.cpp</text>
</a>
</g>
</g>
<!-- Node2&#45;&gt;Node21 -->
<g id="edge25" class="edge">
<title>Node2&#45;&gt;Node21</title>
<path fill="none" stroke="midnightblue" d="M780.29,-352.91C693.55,-347.21 510.15,-333.49 356.5,-311 353.56,-310.57 350.56,-310.1 347.53,-309.6"/>
<polygon fill="midnightblue" stroke="midnightblue" points="780.18,-356.41 790.38,-353.57 780.63,-349.43 780.18,-356.41"/>
</g>
<!-- Node22 -->
<g id="node22" class="node">
<title>Node22</title>
<g id="a_node22"><a xlink:href="npt_8cpp.html" target="_top" xlink:title=" ">
<polygon fill="none" stroke="black" points="366,-286 366,-305 419,-305 419,-286 366,-286"/>
<text text-anchor="middle" x="392.5" y="-293" font-family="Helvetica,sans-Serif" font-size="10.00">npt.cpp</text>
</a>
</g>
</g>
<!-- Node2&#45;&gt;Node22 -->
<g id="edge27" class="edge">
<title>Node2&#45;&gt;Node22</title>
<path fill="none" stroke="midnightblue" d="M779.98,-354.9C702.83,-352.21 551.54,-342.94 427.5,-311 421.77,-309.52 415.74,-307.29 410.33,-305.02"/>
<polygon fill="midnightblue" stroke="midnightblue" points="780.25,-358.41 790.36,-355.24 780.48,-351.41 780.25,-358.41"/>
</g>
<!-- Node23 -->
<g id="node23" class="node">
<title>Node23</title>
<g id="a_node23"><a xlink:href="System_8impl_8hpp.html" target="_top" xlink:title=" ">
<polygon fill="none" stroke="black" points="437,-286 437,-305 536,-305 536,-286 437,-286"/>
<text text-anchor="middle" x="486.5" y="-293" font-family="Helvetica,sans-Serif" font-size="10.00">System.impl.hpp</text>
</a>
</g>
</g>
<!-- Node2&#45;&gt;Node23 -->
<g id="edge29" class="edge">
<title>Node2&#45;&gt;Node23</title>
<path fill="none" stroke="midnightblue" d="M780.45,-348.93C724.3,-340.78 630.59,-326.49 550.5,-311 541.33,-309.23 531.47,-307.1 522.3,-305.03"/>
<polygon fill="midnightblue" stroke="midnightblue" points="780.09,-352.42 790.48,-350.38 781.09,-345.49 780.09,-352.42"/>
</g>
<!-- Node26 -->
<g id="node26" class="node">
<title>Node26</title>
<g id="a_node26"><a xlink:href="electrostatics_2Actor__impl_8hpp.html" target="_top" xlink:title=" ">
<polygon fill="none" stroke="black" points="896.5,-286 896.5,-305 986.5,-305 986.5,-286 896.5,-286"/>
<text text-anchor="middle" x="941.5" y="-293" font-family="Helvetica,sans-Serif" font-size="10.00">Actor_impl.hpp</text>
</a>
</g>
</g>
<!-- Node2&#45;&gt;Node26 -->
<g id="edge32" class="edge">
<title>Node2&#45;&gt;Node26</title>
<path fill="none" stroke="midnightblue" d="M855.29,-342.71C876.79,-331.19 907.26,-314.86 925.63,-305.01"/>
<polygon fill="midnightblue" stroke="midnightblue" points="853.56,-339.67 846.4,-347.48 856.87,-345.84 853.56,-339.67"/>
</g>
<!-- Node27 -->
<g id="node27" class="node">
<title>Node27</title>
<g id="a_node27"><a xlink:href="electrostatics_2initialize_8cpp.html" target="_top" xlink:title=" ">
<polygon fill="none" stroke="black" points="1029,-224.5 1029,-243.5 1108,-243.5 1108,-224.5 1029,-224.5"/>
<text text-anchor="middle" x="1068.5" y="-231.5" font-family="Helvetica,sans-Serif" font-size="10.00">initialize.cpp</text>
</a>
</g>
</g>
<!-- Node2&#45;&gt;Node27 -->
<g id="edge34" class="edge">
<title>Node2&#45;&gt;Node27</title>
<path fill="none" stroke="midnightblue" d="M880.75,-349.49C914.94,-343.4 960.22,-331.95 995.5,-311 1025.7,-293.06 1051.66,-259.28 1062.76,-243.51"/>
<polygon fill="midnightblue" stroke="midnightblue" points="879.79,-346.11 870.51,-351.22 880.95,-353.01 879.79,-346.11"/>
</g>
<!-- Node4&#45;&gt;Node5 -->
<g id="edge4" class="edge">
<title>Node4&#45;&gt;Node5</title>
<path fill="none" stroke="midnightblue" d="M628.23,-279.79C612.5,-268.38 591.25,-252.96 578.23,-243.51"/>
<polygon fill="midnightblue" stroke="midnightblue" points="626.6,-282.93 636.75,-285.98 630.71,-277.27 626.6,-282.93"/>
</g>
<!-- Node6 -->
<g id="node6" class="node">
<title>Node6</title>
<g id="a_node6"><a xlink:href="energy__inline_8hpp.html" target="_top" xlink:title="Energy calculation.">
<polygon fill="none" stroke="black" points="664.5,-168.5 664.5,-187.5 768.5,-187.5 768.5,-168.5 664.5,-168.5"/>
<text text-anchor="middle" x="716.5" y="-175.5" font-family="Helvetica,sans-Serif" font-size="10.00">energy_inline.hpp</text>
</a>
</g>
</g>
<!-- Node4&#45;&gt;Node6 -->
<g id="edge5" class="edge">
<title>Node4&#45;&gt;Node6</title>
<path fill="none" stroke="midnightblue" d="M653.92,-275.89C658.66,-261.17 666.37,-240.44 676.5,-224 685.17,-209.94 698.37,-196.09 707.21,-187.55"/>
<polygon fill="midnightblue" stroke="midnightblue" points="650.46,-275.22 650.88,-285.8 657.16,-277.27 650.46,-275.22"/>
</g>
<!-- Node12 -->
<g id="node12" class="node">
<title>Node12</title>
<g id="a_node12"><a xlink:href="forces__inline_8hpp.html" target="_top" xlink:title="Force calculation.">
<polygon fill="none" stroke="black" points="532.5,-168.5 532.5,-187.5 632.5,-187.5 632.5,-168.5 532.5,-168.5"/>
<text text-anchor="middle" x="582.5" y="-175.5" font-family="Helvetica,sans-Serif" font-size="10.00">forces_inline.hpp</text>
</a>
</g>
</g>
<!-- Node4&#45;&gt;Node12 -->
<g id="edge11" class="edge">
<title>Node4&#45;&gt;Node12</title>
<path fill="none" stroke="midnightblue" d="M638.51,-277.01C624.19,-251.96 598.37,-206.77 587.52,-187.78"/>
<polygon fill="midnightblue" stroke="midnightblue" points="635.54,-278.87 643.54,-285.82 641.62,-275.4 635.54,-278.87"/>
</g>
<!-- Node4&#45;&gt;Node16 -->
<g id="edge16" class="edge">
<title>Node4&#45;&gt;Node16</title>
<path fill="none" stroke="midnightblue" d="M666.04,-279.15C679.01,-267.81 696.18,-252.78 706.78,-243.51"/>
<polygon fill="midnightblue" stroke="midnightblue" points="663.46,-276.76 658.24,-285.98 668.07,-282.02 663.46,-276.76"/>
</g>
<!-- Node7 -->
<g id="node7" class="node">
<title>Node7</title>
<g id="a_node7"><a xlink:href="ShapeBasedConstraint_8cpp.html" target="_top" xlink:title=" ">
<polygon fill="none" stroke="black" points="509,-112.5 509,-131.5 656,-131.5 656,-112.5 509,-112.5"/>
<text text-anchor="middle" x="582.5" y="-119.5" font-family="Helvetica,sans-Serif" font-size="10.00">ShapeBasedConstraint.cpp</text>
</a>
</g>
</g>
<!-- Node6&#45;&gt;Node7 -->
<g id="edge6" class="edge">
<title>Node6&#45;&gt;Node7</title>
<path fill="none" stroke="midnightblue" d="M685.82,-164.64C660.68,-154.5 625.75,-140.43 603.63,-131.52"/>
<polygon fill="midnightblue" stroke="midnightblue" points="684.68,-167.95 695.27,-168.44 687.3,-161.46 684.68,-167.95"/>
</g>
<!-- Node6&#45;&gt;Node8 -->
<g id="edge7" class="edge">
<title>Node6&#45;&gt;Node8</title>
<path fill="none" stroke="midnightblue" d="M747.75,-164.77C773.67,-154.63 809.86,-140.47 832.74,-131.52"/>
<polygon fill="midnightblue" stroke="midnightblue" points="746.4,-161.54 738.37,-168.44 748.95,-168.06 746.4,-161.54"/>
</g>
<!-- Node9 -->
<g id="node9" class="node">
<title>Node9</title>
<g id="a_node9"><a xlink:href="core_2pair__criteria_2EnergyCriterion_8hpp.html" target="_top" xlink:title=" ">
<polygon fill="none" stroke="black" points="674,-112.5 674,-131.5 787,-131.5 787,-112.5 674,-112.5"/>
<text text-anchor="middle" x="730.5" y="-119.5" font-family="Helvetica,sans-Serif" font-size="10.00">EnergyCriterion.hpp</text>
</a>
</g>
</g>
<!-- Node6&#45;&gt;Node9 -->
<g id="edge8" class="edge">
<title>Node6&#45;&gt;Node9</title>
<path fill="none" stroke="midnightblue" d="M721.32,-158.4C723.67,-149.36 726.37,-138.94 728.23,-131.75"/>
<polygon fill="midnightblue" stroke="midnightblue" points="717.93,-157.52 718.81,-168.08 724.71,-159.28 717.93,-157.52"/>
</g>
<!-- Node10 -->
<g id="node10" class="node">
<title>Node10</title>
<g id="a_node10"><a xlink:href="script__interface_2pair__criteria_2EnergyCriterion_8hpp.html" target="_top" xlink:title=" ">
<polygon fill="none" stroke="black" points="674,-56.5 674,-75.5 787,-75.5 787,-56.5 674,-56.5"/>
<text text-anchor="middle" x="730.5" y="-63.5" font-family="Helvetica,sans-Serif" font-size="10.00">EnergyCriterion.hpp</text>
</a>
</g>
</g>
<!-- Node9&#45;&gt;Node10 -->
<g id="edge9" class="edge">
<title>Node9&#45;&gt;Node10</title>
<path fill="none" stroke="midnightblue" d="M730.5,-101.8C730.5,-92.91 730.5,-82.78 730.5,-75.75"/>
<polygon fill="midnightblue" stroke="midnightblue" points="727,-102.08 730.5,-112.08 734,-102.08 727,-102.08"/>
</g>
<!-- Node11 -->
<g id="node11" class="node">
<title>Node11</title>
<g id="a_node11"><a xlink:href="pair__criteria_2initialize_8cpp.html" target="_top" xlink:title=" ">
<polygon fill="none" stroke="black" points="691,-0.5 691,-19.5 770,-19.5 770,-0.5 691,-0.5"/>
<text text-anchor="middle" x="730.5" y="-7.5" font-family="Helvetica,sans-Serif" font-size="10.00">initialize.cpp</text>
</a>
</g>
</g>
<!-- Node10&#45;&gt;Node11 -->
<g id="edge10" class="edge">
<title>Node10&#45;&gt;Node11</title>
<path fill="none" stroke="midnightblue" d="M730.5,-45.8C730.5,-36.91 730.5,-26.78 730.5,-19.75"/>
<polygon fill="midnightblue" stroke="midnightblue" points="727,-46.08 730.5,-56.08 734,-46.08 727,-46.08"/>
</g>
<!-- Node12&#45;&gt;Node7 -->
<g id="edge12" class="edge">
<title>Node12&#45;&gt;Node7</title>
<path fill="none" stroke="midnightblue" d="M582.5,-157.8C582.5,-148.91 582.5,-138.78 582.5,-131.75"/>
<polygon fill="midnightblue" stroke="midnightblue" points="579,-158.08 582.5,-168.08 586,-158.08 579,-158.08"/>
</g>
<!-- Node12&#45;&gt;Node13 -->
<g id="edge13" class="edge">
<title>Node12&#45;&gt;Node13</title>
<path fill="none" stroke="midnightblue" d="M522.24,-171.07C406.77,-159.71 157.74,-135.22 67.25,-126.32"/>
<polygon fill="midnightblue" stroke="midnightblue" points="522.03,-174.57 532.32,-172.06 522.72,-167.6 522.03,-174.57"/>
</g>
<!-- Node14 -->
<g id="node14" class="node">
<title>Node14</title>
<g id="a_node14"><a xlink:href="pressure__inline_8hpp.html" target="_top" xlink:title=" ">
<polygon fill="none" stroke="black" points="297.5,-112.5 297.5,-131.5 409.5,-131.5 409.5,-112.5 297.5,-112.5"/>
<text text-anchor="middle" x="353.5" y="-119.5" font-family="Helvetica,sans-Serif" font-size="10.00">pressure_inline.hpp</text>
</a>
</g>
</g>
<!-- Node12&#45;&gt;Node14 -->
<g id="edge14" class="edge">
<title>Node12&#45;&gt;Node14</title>
<path fill="none" stroke="midnightblue" d="M536.23,-166.09C492.96,-155.89 429.24,-140.86 389.62,-131.52"/>
<polygon fill="midnightblue" stroke="midnightblue" points="535.68,-169.55 546.21,-168.44 537.28,-162.74 535.68,-169.55"/>
</g>
<!-- Node14&#45;&gt;Node15 -->
<g id="edge15" class="edge">
<title>Node14&#45;&gt;Node15</title>
<path fill="none" stroke="midnightblue" d="M318.02,-109.17C287.51,-99 244.26,-84.59 217.05,-75.52"/>
<polygon fill="midnightblue" stroke="midnightblue" points="317.24,-112.6 327.83,-112.44 319.45,-105.96 317.24,-112.6"/>
</g>
<!-- Node16&#45;&gt;Node6 -->
<g id="edge17" class="edge">
<title>Node16&#45;&gt;Node6</title>
<path fill="none" stroke="midnightblue" d="M716.5,-213.8C716.5,-204.91 716.5,-194.78 716.5,-187.75"/>
<polygon fill="midnightblue" stroke="midnightblue" points="713,-214.08 716.5,-224.08 720,-214.08 713,-214.08"/>
</g>
<!-- Node16&#45;&gt;Node12 -->
<g id="edge18" class="edge">
<title>Node16&#45;&gt;Node12</title>
<path fill="none" stroke="midnightblue" d="M685.82,-220.64C660.68,-210.5 625.75,-196.43 603.63,-187.52"/>
<polygon fill="midnightblue" stroke="midnightblue" points="684.68,-223.95 695.27,-224.44 687.3,-217.46 684.68,-223.95"/>
</g>
<!-- Node24 -->
<g id="node24" class="node">
<title>Node24</title>
<g id="a_node24"><a xlink:href="core_2system_2System_8cpp.html" target="_top" xlink:title=" ">
<polygon fill="none" stroke="black" points="449.5,-224.5 449.5,-243.5 523.5,-243.5 523.5,-224.5 449.5,-224.5"/>
<text text-anchor="middle" x="486.5" y="-231.5" font-family="Helvetica,sans-Serif" font-size="10.00">System.cpp</text>
</a>
</g>
</g>
<!-- Node23&#45;&gt;Node24 -->
<g id="edge30" class="edge">
<title>Node23&#45;&gt;Node24</title>
<path fill="none" stroke="midnightblue" d="M486.5,-275.82C486.5,-265 486.5,-251.9 486.5,-243.51"/>
<polygon fill="midnightblue" stroke="midnightblue" points="483,-275.98 486.5,-285.98 490,-275.98 483,-275.98"/>
</g>
<!-- Node25 -->
<g id="node25" class="node">
<title>Node25</title>
<g id="a_node25"><a xlink:href="script__interface_2system_2System_8cpp.html" target="_top" xlink:title=" ">
<polygon fill="none" stroke="black" points="357.5,-224.5 357.5,-243.5 431.5,-243.5 431.5,-224.5 357.5,-224.5"/>
<text text-anchor="middle" x="394.5" y="-231.5" font-family="Helvetica,sans-Serif" font-size="10.00">System.cpp</text>
</a>
</g>
</g>
<!-- Node23&#45;&gt;Node25 -->
<g id="edge31" class="edge">
<title>Node23&#45;&gt;Node25</title>
<path fill="none" stroke="midnightblue" d="M464.74,-280.43C447.01,-268.96 422.54,-253.13 407.66,-243.51"/>
<polygon fill="midnightblue" stroke="midnightblue" points="463.02,-283.48 473.32,-285.98 466.82,-277.61 463.02,-283.48"/>
</g>
<!-- Node26&#45;&gt;Node27 -->
<g id="edge33" class="edge">
<title>Node26&#45;&gt;Node27</title>
<path fill="none" stroke="midnightblue" d="M968.88,-281.67C993.52,-270.13 1029.04,-253.49 1050.34,-243.51"/>
<polygon fill="midnightblue" stroke="midnightblue" points="967.27,-278.56 959.7,-285.98 970.24,-284.9 967.27,-278.56"/>
</g>
<!-- Node28&#45;&gt;Node2 -->
<g id="edge37" class="edge">
<title>Node28&#45;&gt;Node2</title>
<path fill="none" stroke="midnightblue" d="M889.2,-397.62C874.58,-387.76 855.67,-374.99 843.32,-366.65"/>
<polygon fill="midnightblue" stroke="midnightblue" points="887.4,-400.63 897.65,-403.32 891.32,-394.83 887.4,-400.63"/>
</g>
<!-- Node28&#45;&gt;Node17 -->
<g id="edge38" class="edge">
<title>Node28&#45;&gt;Node17</title>
<path fill="none" stroke="midnightblue" d="M917.91,-393.91C924.59,-379.55 935.64,-359.81 950.5,-347 958.18,-340.38 1014.58,-317.65 1046.55,-305.06"/>
<polygon fill="midnightblue" stroke="midnightblue" points="914.63,-392.68 913.83,-403.25 921.05,-395.49 914.63,-392.68"/>
</g>
<!-- Node28&#45;&gt;Node19 -->
<g id="edge39" class="edge">
<title>Node28&#45;&gt;Node19</title>
<path fill="none" stroke="midnightblue" d="M946.71,-410.81C999.33,-408.01 1099.2,-398.6 1177.5,-367 1215.68,-351.59 1253.92,-320.22 1271.1,-305.07"/>
<polygon fill="midnightblue" stroke="midnightblue" points="946.35,-407.33 936.53,-411.3 946.68,-414.32 946.35,-407.33"/>
</g>
<!-- Node29 -->
<g id="node29" class="node">
<title>Node29</title>
<g id="a_node29"><a xlink:href="ElectrostaticLayerCorrection_8hpp.html" target="_top" xlink:title=" ">
<polygon fill="none" stroke="black" points="992.5,-347.5 992.5,-366.5 1168.5,-366.5 1168.5,-347.5 992.5,-347.5"/>
<text text-anchor="middle" x="1080.5" y="-354.5" font-family="Helvetica,sans-Serif" font-size="10.00">ElectrostaticLayerCorrection.hpp</text>
</a>
</g>
</g>
<!-- Node28&#45;&gt;Node29 -->
<g id="edge40" class="edge">
<title>Node28&#45;&gt;Node29</title>
<path fill="none" stroke="midnightblue" d="M946.57,-400.54C978.65,-390.35 1024.82,-375.69 1053.72,-366.51"/>
<polygon fill="midnightblue" stroke="midnightblue" points="945.16,-397.32 936.69,-403.68 947.28,-403.99 945.16,-397.32"/>
</g>
<!-- Node29&#45;&gt;Node27 -->
<g id="edge41" class="edge">
<title>Node29&#45;&gt;Node27</title>
<path fill="none" stroke="midnightblue" d="M1092.11,-338.49C1100.87,-323.01 1110.32,-299.87 1103.5,-280 1098.49,-265.4 1086.59,-251.88 1078.06,-243.55"/>
<polygon fill="midnightblue" stroke="midnightblue" points="1089.11,-336.68 1086.89,-347.04 1095.08,-340.33 1089.11,-336.68"/>
</g>
<!-- Node30&#45;&gt;Node27 -->
<g id="edge46" class="edge">
<title>Node30&#45;&gt;Node27</title>
<path fill="none" stroke="midnightblue" d="M1362.13,-393.28C1360.49,-364.35 1352.87,-309.07 1319.5,-280 1288.54,-253.03 1170.66,-241.52 1108.08,-237.22"/>
<polygon fill="midnightblue" stroke="midnightblue" points="1358.64,-393.43 1362.52,-403.29 1365.63,-393.16 1358.64,-393.43"/>
</g>
</g>
</svg>
        <g id="navigator" transform="translate(0 0)" fill="#404254">
                <rect fill="#f2f5e9" fill-opacity="0.5" stroke="#606060" stroke-width=".5" x="0" y="0" width="60" height="60"/>
                <use id="zoomplus" xlink:href="#zoomPlus" x="17" y="9" onmousedown="handleZoom(evt,'in')"/>
                <use id="zoomminus" xlink:href="#zoomMin" x="42" y="9" onmousedown="handleZoom(evt,'out')"/>
                <use id="reset" xlink:href="#resetDef" x="30" y="36" onmousedown="handleReset()"/>
                <g id="arrowUp" xlink:href="#dirArrow" transform="translate(30 24)" onmousedown="handlePan(0,-1)">
                  <use xlink:href="#rim" fill="#404040">
                        <set attributeName="fill" to="#808080" begin="arrowUp.mouseover" end="arrowUp.mouseout"/>
                  </use>
                  <path fill="none" stroke="white" stroke-width="1.5" d="M0,-3.0v7 M-2.5,-0.5L0,-3.0L2.5,-0.5"/>
                </g>
                <g id="arrowRight" xlink:href="#dirArrow" transform="rotate(90) translate(36 -43)" onmousedown="handlePan(1,0)">
                  <use xlink:href="#rim" fill="#404040">
                        <set attributeName="fill" to="#808080" begin="arrowRight.mouseover" end="arrowRight.mouseout"/>
                  </use>
                  <path fill="none" stroke="white" stroke-width="1.5" d="M0,-3.0v7 M-2.5,-0.5L0,-3.0L2.5,-0.5"/>
                </g>
                <g id="arrowDown" xlink:href="#dirArrow" transform="rotate(180) translate(-30 -48)" onmousedown="handlePan(0,1)">
                  <use xlink:href="#rim" fill="#404040">
                        <set attributeName="fill" to="#808080" begin="arrowDown.mouseover" end="arrowDown.mouseout"/>
                  </use>
                  <path fill="none" stroke="white" stroke-width="1.5" d="M0,-3.0v7 M-2.5,-0.5L0,-3.0L2.5,-0.5"/>
                </g>
                <g id="arrowLeft" xlink:href="#dirArrow" transform="rotate(270) translate(-36 17)" onmousedown="handlePan(-1,0)">
                  <use xlink:href="#rim" fill="#404040">
                        <set attributeName="fill" to="#808080" begin="arrowLeft.mouseover" end="arrowLeft.mouseout"/>
                  </use>
                  <path fill="none" stroke="white" stroke-width="1.5" d="M0,-3.0v7 M-2.5,-0.5L0,-3.0L2.5,-0.5"/>
                </g>
        </g>
        <svg viewBox="0 0 15 15" width="100%" height="30px" preserveAspectRatio="xMaxYMin meet">
         <g id="arrow_out" transform="scale(0.3 0.3)">
          <a xlink:href="p3m__gpu_8hpp__dep__incl_org.svg" target="_base">
           <rect id="button" ry="5" rx="5" y="6" x="6" height="38" width="38"
                fill="#f2f5e9" fill-opacity="0.5" stroke="#606060" stroke-width="1.0"/>
           <path id="arrow"
             d="M 11.500037,31.436501 C 11.940474,20.09759 22.043105,11.32322 32.158766,21.979434 L 37.068811,17.246167 C 37.068811,17.246167 37.088388,32 37.088388,32 L 22.160133,31.978069 C 22.160133,31.978069 26.997745,27.140456 26.997745,27.140456 C 18.528582,18.264221 13.291696,25.230495 11.500037,31.436501 z"
             style="fill:#404040;"/>
          </a>
         </g>
        </svg>
</svg>
