<?xml version="1.0" encoding="UTF-8" standalone="no"?>
<!DOCTYPE svg PUBLIC "-//W3C//DTD SVG 1.1//EN"
 "http://www.w3.org/Graphics/SVG/1.1/DTD/svg11.dtd">
<!-- Generated by graphviz version 2.43.0 (0)
 -->
<!-- Title: p3m_gpu_error_cuda.cu Pages: 1 -->
<!--zoomable 247 -->

<svg id="main" version="1.1" xmlns="http://www.w3.org/2000/svg" xmlns:xlink="http://www.w3.org/1999/xlink" xml:space="preserve" onload="init(evt)">
<style type="text/css"><![CDATA[
.node, .edge {opacity: 0.7;}
.node.selected, .edge.selected {opacity: 1;}
.edge:hover path { stroke: red; }
.edge:hover polygon { stroke: red; fill: red; }
]]></style>

<defs>
  <circle id="rim" cx="0" cy="0" r="7"/>
  <circle id="rim2" cx="0" cy="0" r="3.5"/>
  <g id="zoomPlus">
    <use xlink:href="#rim" fill="#404040"><set attributeName="fill" to="#808080" begin="zoomplus.mouseover" end="zoomplus.mouseout"/></use>
    <path d="M-4,0h8M0,-4v8" fill="none" stroke="white" stroke-width="1.5" pointer-events="none"/>
  </g>
  <g id="zoomMin">
    <use xlink:href="#rim" fill="#404040"><set attributeName="fill" to="#808080" begin="zoomminus.mouseover" end="zoomminus.mouseout"/></use>
    <path d="M-4,0h8" fill="none" stroke="white" stroke-width="1.5" pointer-events="none"/>
  </g>
  <g id="arrowUp" transform="translate(30 24)">
    <use xlink:href="#rim"/>
    <path pointer-events="none" fill="none" stroke="white" stroke-width="1.5" d="M0,-3.0v7 M-2.5,-0.5L0,-3.0L2.5,-0.5"/>
  </g>
  <g id="arrowRight" transform="rotate(90) translate(36 -43)">
    <use xlink:href="#rim"/>
    <path pointer-events="none" fill="none" stroke="white" stroke-width="1.5" d="M0,-3.0v7 M-2.5,-0.5L0,-3.0L2.5,-0.5"/>
  </g>
  <g id="arrowDown" transform="rotate(180) translate(-30 -48)">
    <use xlink:href="#rim"/>
    <path pointer-events="none" fill="none" stroke="white" stroke-width="1.5" d="M0,-3.0v7 M-2.5,-0.5L0,-3.0L2.5,-0.5"/>
  </g>
  <g id="arrowLeft" transform="rotate(270) translate(-36 17)">
    <use xlink:href="#rim"/>
    <path pointer-events="none" fill="none" stroke="white" stroke-width="1.5" d="M0,-3.0v7 M-2.5,-0.5L0,-3.0L2.5,-0.5"/>
  </g>
  <g id="resetDef">
    <use xlink:href="#rim2" fill="#404040"><set attributeName="fill" to="#808080" begin="reset.mouseover" end="reset.mouseout"/></use>
  </g>
</defs>
<script type="application/ecmascript">
var viewWidth = 1204;
var viewHeight = 247;
var sectionId = 'dynsection-0';
</script>
<script type="application/ecmascript" xlink:href="svg.min.js"/>
<svg id="graph" class="graph">
<g id="viewport">
<title>p3m_gpu_error_cuda.cu</title>
<!-- Node1 -->
<g id="Node000001" class="node">
<title>Node1</title>
<g id="a_Node000001"><a xlink:title="P3M electrostatics on GPU.">
<polygon fill="#999999" stroke="#666666" points="718.5,-239 585.5,-239 585.5,-220 718.5,-220 718.5,-239"/>
<text text-anchor="middle" x="652" y="-227" font-family="Helvetica,sans-Serif" font-size="10.00">p3m_gpu_error_cuda.cu</text>
</a>
</g>
</g>
<!-- Node2 -->
<g id="Node000002" class="node">
<title>Node2</title>
<g id="a_Node000002"><a xlink:href="math_8hpp.html" target="_top" xlink:title=" ">
<polygon fill="white" stroke="#666666" points="426,-184 338,-184 338,-165 426,-165 426,-184"/>
<text text-anchor="middle" x="382" y="-172" font-family="Helvetica,sans-Serif" font-size="10.00">p3m/math.hpp</text>
</a>
</g>
</g>
<!-- Node1&#45;&gt;Node2 -->
<g id="edge1_Node000001_Node000002" class="edge">
<title>Node1&#45;&gt;Node2</title>
<g id="a_edge1_Node000001_Node000002"><a xlink:title=" ">
<path fill="none" stroke="#63b8ff" d="M608.62,-219.98C561.62,-210.76 486.57,-196.03 435.84,-186.07"/>
<polygon fill="#63b8ff" stroke="#63b8ff" points="436.21,-182.57 425.72,-184.08 434.86,-189.44 436.21,-182.57"/>
</a>
</g>
</g>
<!-- Node5 -->
<g id="Node000005" class="node">
<title>Node5</title>
<g id="a_Node000005"><a xlink:href="sqr_8hpp.html" target="_top" xlink:title=" ">
<polygon fill="white" stroke="#666666" points="250,-129 146,-129 146,-110 250,-110 250,-129"/>
<text text-anchor="middle" x="198" y="-117" font-family="Helvetica,sans-Serif" font-size="10.00">utils/math/sqr.hpp</text>
</a>
</g>
</g>
<!-- Node1&#45;&gt;Node5 -->
<g id="edge25_Node000001_Node000005" class="edge">
<title>Node1&#45;&gt;Node5</title>
<g id="a_edge25_Node000001_Node000005"><a xlink:title=" ">
<path fill="none" stroke="#63b8ff" d="M585.44,-225.43C519.2,-220.97 415.27,-210.13 329,-184 289.11,-171.92 246.24,-149.05 220.79,-134.3"/>
<polygon fill="#63b8ff" stroke="#63b8ff" points="222.33,-131.15 211.94,-129.09 218.78,-137.18 222.33,-131.15"/>
</a>
</g>
</g>
<!-- Node7 -->
<g id="Node000007" class="node">
<title>Node7</title>
<g id="a_Node000007"><a xlink:title=" ">
<polygon fill="#e0e0e0" stroke="#999999" points="507.5,-129 448.5,-129 448.5,-110 507.5,-110 507.5,-129"/>
<text text-anchor="middle" x="478" y="-117" font-family="Helvetica,sans-Serif" font-size="10.00">numbers</text>
</a>
</g>
</g>
<!-- Node1&#45;&gt;Node7 -->
<g id="edge31_Node000001_Node000007" class="edge">
<title>Node1&#45;&gt;Node7</title>
<g id="a_edge31_Node000001_Node000007"><a xlink:title=" ">
<path fill="none" stroke="#63b8ff" d="M613.84,-219.97C588.72,-213.08 555.97,-201.6 531,-184 513.45,-171.63 498.32,-152.06 488.77,-137.91"/>
<polygon fill="#63b8ff" stroke="#63b8ff" points="491.47,-135.62 483.09,-129.13 485.59,-139.43 491.47,-135.62"/>
</a>
</g>
</g>
<!-- Node10 -->
<g id="Node000010" class="node">
<title>Node10</title>
<g id="a_Node000010"><a xlink:href="p3m__gpu__error_8hpp.html" target="_top" xlink:title="P3M electrostatics on GPU.">
<polygon fill="white" stroke="#666666" points="790,-184 680,-184 680,-165 790,-165 790,-184"/>
<text text-anchor="middle" x="735" y="-172" font-family="Helvetica,sans-Serif" font-size="10.00">p3m_gpu_error.hpp</text>
</a>
</g>
</g>
<!-- Node1&#45;&gt;Node10 -->
<g id="edge10_Node000001_Node000010" class="edge">
<title>Node1&#45;&gt;Node10</title>
<g id="a_edge10_Node000001_Node000010"><a xlink:title=" ">
<path fill="none" stroke="#63b8ff" d="M665.34,-219.98C678.09,-211.84 697.55,-199.41 712.67,-189.76"/>
<polygon fill="#63b8ff" stroke="#63b8ff" points="714.88,-192.5 721.42,-184.17 711.11,-186.6 714.88,-192.5"/>
</a>
</g>
</g>
<!-- Node14 -->
<g id="Node000014" class="node">
<title>Node14</title>
<g id="a_Node000014"><a xlink:href="utils_8cuh.html" target="_top" xlink:title=" ">
<polygon fill="white" stroke="#666666" points="624,-184 540,-184 540,-165 624,-165 624,-184"/>
<text text-anchor="middle" x="582" y="-172" font-family="Helvetica,sans-Serif" font-size="10.00">cuda/utils.cuh</text>
</a>
</g>
</g>
<!-- Node1&#45;&gt;Node14 -->
<g id="edge14_Node000001_Node000014" class="edge">
<title>Node1&#45;&gt;Node14</title>
<g id="a_edge14_Node000001_Node000014"><a xlink:title=" ">
<path fill="none" stroke="#63b8ff" d="M640.75,-219.98C630.2,-212 614.2,-199.88 601.56,-190.31"/>
<polygon fill="#63b8ff" stroke="#63b8ff" points="603.54,-187.42 593.45,-184.17 599.31,-193 603.54,-187.42"/>
</a>
</g>
</g>
<!-- Node17 -->
<g id="Node000017" class="node">
<title>Node17</title>
<g id="a_Node000017"><a xlink:title=" ">
<polygon fill="#e0e0e0" stroke="#999999" points="801.5,-129 752.5,-129 752.5,-110 801.5,-110 801.5,-129"/>
<text text-anchor="middle" x="777" y="-117" font-family="Helvetica,sans-Serif" font-size="10.00">cuda.h</text>
</a>
</g>
</g>
<!-- Node1&#45;&gt;Node17 -->
<g id="edge28_Node000001_Node000017" class="edge">
<title>Node1&#45;&gt;Node17</title>
<g id="a_edge28_Node000001_Node000017"><a xlink:title=" ">
<path fill="none" stroke="#63b8ff" d="M652.31,-219.99C653.22,-206.66 656.85,-180.75 671,-165 681.04,-153.83 715.92,-140.41 742.95,-131.25"/>
<polygon fill="#63b8ff" stroke="#63b8ff" points="744.11,-134.55 752.5,-128.08 741.91,-127.91 744.11,-134.55"/>
</a>
</g>
</g>
<!-- Node19 -->
<g id="Node000019" class="node">
<title>Node19</title>
<g id="a_Node000019"><a xlink:href="int__pow_8hpp.html" target="_top" xlink:title=" ">
<polygon fill="white" stroke="#666666" points="128,-129 0,-129 0,-110 128,-110 128,-129"/>
<text text-anchor="middle" x="64" y="-117" font-family="Helvetica,sans-Serif" font-size="10.00">utils/math/int_pow.hpp</text>
</a>
</g>
</g>
<!-- Node1&#45;&gt;Node19 -->
<g id="edge23_Node000001_Node000019" class="edge">
<title>Node1&#45;&gt;Node19</title>
<g id="a_edge23_Node000001_Node000019"><a xlink:title=" ">
<path fill="none" stroke="#63b8ff" d="M585.4,-224.07C509.99,-218.24 383.74,-206.07 277,-184 212.42,-170.64 139.13,-146.82 97.55,-132.46"/>
<polygon fill="#63b8ff" stroke="#63b8ff" points="98.53,-129.09 87.93,-129.11 96.22,-135.7 98.53,-129.09"/>
</a>
</g>
</g>
<!-- Node20 -->
<g id="Node000020" class="node">
<title>Node20</title>
<g id="a_Node000020"><a xlink:title=" ">
<polygon fill="#e0e0e0" stroke="#999999" points="933.5,-184 808.5,-184 808.5,-165 933.5,-165 933.5,-184"/>
<text text-anchor="middle" x="871" y="-172" font-family="Helvetica,sans-Serif" font-size="10.00">thrust/device_vector.h</text>
</a>
</g>
</g>
<!-- Node1&#45;&gt;Node20 -->
<g id="edge26_Node000001_Node000020" class="edge">
<title>Node1&#45;&gt;Node20</title>
<g id="a_edge26_Node000001_Node000020"><a xlink:title=" ">
<path fill="none" stroke="#63b8ff" d="M687.19,-219.98C724.83,-210.87 784.66,-196.4 825.77,-186.45"/>
<polygon fill="#63b8ff" stroke="#63b8ff" points="826.64,-189.84 835.54,-184.08 825,-183.03 826.64,-189.84"/>
</a>
</g>
</g>
<!-- Node21 -->
<g id="Node000021" class="node">
<title>Node21</title>
<g id="a_Node000021"><a xlink:title=" ">
<polygon fill="#e0e0e0" stroke="#999999" points="1042,-184 952,-184 952,-165 1042,-165 1042,-184"/>
<text text-anchor="middle" x="997" y="-172" font-family="Helvetica,sans-Serif" font-size="10.00">thrust/reduce.h</text>
</a>
</g>
</g>
<!-- Node1&#45;&gt;Node21 -->
<g id="edge27_Node000001_Node000021" class="edge">
<title>Node1&#45;&gt;Node21</title>
<g id="a_edge27_Node000001_Node000021"><a xlink:title=" ">
<path fill="none" stroke="#63b8ff" d="M708.34,-219.96C764.79,-211.38 854.47,-197.72 941.83,-184.18"/>
<polygon fill="#63b8ff" stroke="#63b8ff" points="942.58,-187.6 951.92,-182.61 941.5,-180.69 942.58,-187.6"/>
</a>
</g>
</g>
<!-- Node22 -->
<g id="Node000022" class="node">
<title>Node22</title>
<g id="a_Node000022"><a xlink:title=" ">
<polygon fill="#e0e0e0" stroke="#999999" points="1124,-184 1060,-184 1060,-165 1124,-165 1124,-184"/>
<text text-anchor="middle" x="1092" y="-172" font-family="Helvetica,sans-Serif" font-size="10.00">algorithm</text>
</a>
</g>
</g>
<!-- Node1&#45;&gt;Node22 -->
<g id="edge29_Node000001_Node000022" class="edge">
<title>Node1&#45;&gt;Node22</title>
<g id="a_edge29_Node000001_Node000022"><a xlink:title=" ">
<path fill="none" stroke="#63b8ff" d="M718.62,-222.99C795.95,-216.16 927.5,-203.21 1049.9,-184.04"/>
<polygon fill="#63b8ff" stroke="#63b8ff" points="1050.49,-187.49 1059.82,-182.47 1049.4,-180.57 1050.49,-187.49"/>
</a>
</g>
</g>
<!-- Node23 -->
<g id="Node000023" class="node">
<title>Node23</title>
<g id="a_Node000023"><a xlink:title=" ">
<polygon fill="#e0e0e0" stroke="#999999" points="1195.5,-184 1142.5,-184 1142.5,-165 1195.5,-165 1195.5,-184"/>
<text text-anchor="middle" x="1169" y="-172" font-family="Helvetica,sans-Serif" font-size="10.00">cstddef</text>
</a>
</g>
</g>
<!-- Node1&#45;&gt;Node23 -->
<g id="edge30_Node000001_Node000023" class="edge">
<title>Node1&#45;&gt;Node23</title>
<g id="a_edge30_Node000001_Node000023"><a xlink:title=" ">
<path fill="none" stroke="#63b8ff" d="M718.51,-225.29C809.66,-220.23 978.64,-208.54 1132.25,-183.87"/>
<polygon fill="#63b8ff" stroke="#63b8ff" points="1133.04,-187.29 1142.35,-182.23 1131.91,-180.38 1133.04,-187.29"/>
</a>
</g>
</g>
<!-- Node3 -->
<g id="Node000003" class="node">
<title>Node3</title>
<g id="a_Node000003"><a xlink:href="device__qualifier_8hpp.html" target="_top" xlink:title=" ">
<polygon fill="white" stroke="#666666" points="267,-74 129,-74 129,-55 267,-55 267,-74"/>
<text text-anchor="middle" x="198" y="-62" font-family="Helvetica,sans-Serif" font-size="10.00">utils/device_qualifier.hpp</text>
</a>
</g>
</g>
<!-- Node2&#45;&gt;Node3 -->
<g id="edge2_Node000002_Node000003" class="edge">
<title>Node2&#45;&gt;Node3</title>
<g id="a_edge2_Node000002_Node000003"><a xlink:title=" ">
<path fill="none" stroke="#63b8ff" d="M364.5,-164.91C347.14,-156.25 319.9,-142.3 297,-129 269.56,-113.06 238.96,-93.08 219.14,-79.83"/>
<polygon fill="#63b8ff" stroke="#63b8ff" points="220.84,-76.76 210.59,-74.08 216.94,-82.57 220.84,-76.76"/>
</a>
</g>
</g>
<!-- Node2&#45;&gt;Node5 -->
<g id="edge4_Node000002_Node000005" class="edge">
<title>Node2&#45;&gt;Node5</title>
<g id="a_edge4_Node000002_Node000005"><a xlink:title=" ">
<path fill="none" stroke="#63b8ff" d="M352.44,-164.98C321.28,-156.01 272.03,-141.82 237.54,-131.89"/>
<polygon fill="#63b8ff" stroke="#63b8ff" points="238.37,-128.49 227.79,-129.08 236.43,-135.21 238.37,-128.49"/>
</a>
</g>
</g>
<!-- Node6 -->
<g id="Node000006" class="node">
<title>Node6</title>
<g id="a_Node000006"><a xlink:title=" ">
<polygon fill="#e0e0e0" stroke="#999999" points="353.5,-129 306.5,-129 306.5,-110 353.5,-110 353.5,-129"/>
<text text-anchor="middle" x="330" y="-117" font-family="Helvetica,sans-Serif" font-size="10.00">cmath</text>
</a>
</g>
</g>
<!-- Node2&#45;&gt;Node6 -->
<g id="edge6_Node000002_Node000006" class="edge">
<title>Node2&#45;&gt;Node6</title>
<g id="a_edge6_Node000002_Node000006"><a xlink:title=" ">
<path fill="none" stroke="#63b8ff" d="M373.41,-164.75C365.84,-157.03 354.62,-145.6 345.49,-136.28"/>
<polygon fill="#63b8ff" stroke="#63b8ff" points="347.93,-133.78 338.43,-129.09 342.93,-138.68 347.93,-133.78"/>
</a>
</g>
</g>
<!-- Node2&#45;&gt;Node7 -->
<g id="edge7_Node000002_Node000007" class="edge">
<title>Node2&#45;&gt;Node7</title>
<g id="a_edge7_Node000002_Node000007"><a xlink:title=" ">
<path fill="none" stroke="#63b8ff" d="M397.42,-164.98C412.45,-156.69 435.54,-143.94 453.16,-134.22"/>
<polygon fill="#63b8ff" stroke="#63b8ff" points="455.23,-137.07 462.3,-129.17 451.85,-130.94 455.23,-137.07"/>
</a>
</g>
</g>
<!-- Node8 -->
<g id="Node000008" class="node">
<title>Node8</title>
<g id="a_Node000008"><a xlink:title=" ">
<polygon fill="#e0e0e0" stroke="#999999" points="447.5,-74 382.5,-74 382.5,-55 447.5,-55 447.5,-74"/>
<text text-anchor="middle" x="415" y="-62" font-family="Helvetica,sans-Serif" font-size="10.00">stdexcept</text>
</a>
</g>
</g>
<!-- Node2&#45;&gt;Node8 -->
<g id="edge8_Node000002_Node000008" class="edge">
<title>Node2&#45;&gt;Node8</title>
<g id="a_edge8_Node000002_Node000008"><a xlink:title=" ">
<path fill="none" stroke="#63b8ff" d="M384.7,-164.66C390.07,-147.09 402.18,-107.45 409.36,-83.95"/>
<polygon fill="#63b8ff" stroke="#63b8ff" points="412.78,-84.74 412.35,-74.16 406.08,-82.7 412.78,-84.74"/>
</a>
</g>
</g>
<!-- Node9 -->
<g id="Node000009" class="node">
<title>Node9</title>
<g id="a_Node000009"><a xlink:title=" ">
<polygon fill="#e0e0e0" stroke="#999999" points="550,-74 506,-74 506,-55 550,-55 550,-74"/>
<text text-anchor="middle" x="528" y="-62" font-family="Helvetica,sans-Serif" font-size="10.00">string</text>
</a>
</g>
</g>
<!-- Node2&#45;&gt;Node9 -->
<g id="edge9_Node000002_Node000009" class="edge">
<title>Node2&#45;&gt;Node9</title>
<g id="a_edge9_Node000002_Node000009"><a xlink:title=" ">
<path fill="none" stroke="#63b8ff" d="M388.16,-164.75C397.8,-151.55 417.56,-126.35 439,-110 456.5,-96.65 478.63,-85.57 496.44,-77.8"/>
<polygon fill="#63b8ff" stroke="#63b8ff" points="497.98,-80.95 505.83,-73.83 495.26,-74.5 497.98,-80.95"/>
</a>
</g>
</g>
<!-- Node4 -->
<g id="Node000004" class="node">
<title>Node4</title>
<g id="a_Node000004"><a xlink:title=" ">
<polygon fill="#e0e0e0" stroke="#999999" points="224,-19 172,-19 172,0 224,0 224,-19"/>
<text text-anchor="middle" x="198" y="-7" font-family="Helvetica,sans-Serif" font-size="10.00">cassert</text>
</a>
</g>
</g>
<!-- Node3&#45;&gt;Node4 -->
<g id="edge3_Node000003_Node000004" class="edge">
<title>Node3&#45;&gt;Node4</title>
<g id="a_edge3_Node000003_Node000004"><a xlink:title=" ">
<path fill="none" stroke="#63b8ff" d="M198,-54.75C198,-47.8 198,-37.85 198,-29.13"/>
<polygon fill="#63b8ff" stroke="#63b8ff" points="201.5,-29.09 198,-19.09 194.5,-29.09 201.5,-29.09"/>
</a>
</g>
</g>
<!-- Node5&#45;&gt;Node3 -->
<g id="edge5_Node000005_Node000003" class="edge">
<title>Node5&#45;&gt;Node3</title>
<g id="a_edge5_Node000005_Node000003"><a xlink:title=" ">
<path fill="none" stroke="#63b8ff" d="M198,-109.75C198,-102.8 198,-92.85 198,-84.13"/>
<polygon fill="#63b8ff" stroke="#63b8ff" points="201.5,-84.09 198,-74.09 194.5,-84.09 201.5,-84.09"/>
</a>
</g>
</g>
<!-- Node11 -->
<g id="Node000011" class="node">
<title>Node11</title>
<g id="a_Node000011"><a xlink:href="config_8hpp.html" target="_top" xlink:title=" ">
<polygon fill="white" stroke="#666666" points="818.5,-74 719.5,-74 719.5,-55 818.5,-55 818.5,-74"/>
<text text-anchor="middle" x="769" y="-62" font-family="Helvetica,sans-Serif" font-size="10.00">config/config.hpp</text>
</a>
</g>
</g>
<!-- Node10&#45;&gt;Node11 -->
<g id="edge11_Node000010_Node000011" class="edge">
<title>Node10&#45;&gt;Node11</title>
<g id="a_edge11_Node000010_Node000011"><a xlink:title=" ">
<path fill="none" stroke="#63b8ff" d="M763.39,-164.92C780.46,-158.13 800.81,-146.77 811,-129 820.82,-111.87 804.89,-93.12 789.91,-80.46"/>
<polygon fill="#63b8ff" stroke="#63b8ff" points="791.87,-77.56 781.85,-74.11 787.54,-83.05 791.87,-77.56"/>
</a>
</g>
</g>
<!-- Node12 -->
<g id="Node000012" class="node">
<title>Node12</title>
<g id="a_Node000012"><a xlink:title=" ">
<polygon fill="#e0e0e0" stroke="#999999" points="898.5,-19 755.5,-19 755.5,0 898.5,0 898.5,-19"/>
<text text-anchor="middle" x="827" y="-7" font-family="Helvetica,sans-Serif" font-size="10.00">config/config&#45;features.hpp</text>
</a>
</g>
</g>
<!-- Node11&#45;&gt;Node12 -->
<g id="edge12_Node000011_Node000012" class="edge">
<title>Node11&#45;&gt;Node12</title>
<g id="a_edge12_Node000011_Node000012"><a xlink:title=" ">
<path fill="none" stroke="#63b8ff" d="M778.32,-54.98C786.81,-47.23 799.56,-35.58 809.88,-26.14"/>
<polygon fill="#63b8ff" stroke="#63b8ff" points="812.49,-28.5 817.51,-19.17 807.77,-23.33 812.49,-28.5"/>
</a>
</g>
</g>
<!-- Node13 -->
<g id="Node000013" class="node">
<title>Node13</title>
<g id="a_Node000013"><a xlink:title=" ">
<polygon fill="#e0e0e0" stroke="#999999" points="737.5,-19 684.5,-19 684.5,0 737.5,0 737.5,-19"/>
<text text-anchor="middle" x="711" y="-7" font-family="Helvetica,sans-Serif" font-size="10.00">version</text>
</a>
</g>
</g>
<!-- Node11&#45;&gt;Node13 -->
<g id="edge13_Node000011_Node000013" class="edge">
<title>Node11&#45;&gt;Node13</title>
<g id="a_edge13_Node000011_Node000013"><a xlink:title=" ">
<path fill="none" stroke="#63b8ff" d="M759.68,-54.98C751.19,-47.23 738.44,-35.58 728.12,-26.14"/>
<polygon fill="#63b8ff" stroke="#63b8ff" points="730.23,-23.33 720.49,-19.17 725.51,-28.5 730.23,-23.33"/>
</a>
</g>
</g>
<!-- Node14&#45;&gt;Node9 -->
<g id="edge22_Node000014_Node000009" class="edge">
<title>Node14&#45;&gt;Node9</title>
<g id="a_edge22_Node000014_Node000009"><a xlink:title=" ">
<path fill="none" stroke="#63b8ff" d="M576.24,-164.85C570.49,-156.03 561.6,-141.87 555,-129 547.4,-114.18 540.09,-96.72 535,-83.86"/>
<polygon fill="#63b8ff" stroke="#63b8ff" points="538.17,-82.36 531.28,-74.31 531.64,-84.9 538.17,-82.36"/>
</a>
</g>
</g>
<!-- Node15 -->
<g id="Node000015" class="node">
<title>Node15</title>
<g id="a_Node000015"><a xlink:href="core_2cuda_2utils_8hpp.html" target="_top" xlink:title=" ">
<polygon fill="white" stroke="#666666" points="623.5,-129 564.5,-129 564.5,-110 623.5,-110 623.5,-129"/>
<text text-anchor="middle" x="594" y="-117" font-family="Helvetica,sans-Serif" font-size="10.00">utils.hpp</text>
</a>
</g>
</g>
<!-- Node14&#45;&gt;Node15 -->
<g id="edge15_Node000014_Node000015" class="edge">
<title>Node14&#45;&gt;Node15</title>
<g id="a_edge15_Node000014_Node000015"><a xlink:title=" ">
<path fill="none" stroke="#63b8ff" d="M583.98,-164.75C585.57,-157.72 587.86,-147.62 589.85,-138.84"/>
<polygon fill="#63b8ff" stroke="#63b8ff" points="593.26,-139.62 592.06,-129.09 586.43,-138.07 593.26,-139.62"/>
</a>
</g>
</g>
<!-- Node14&#45;&gt;Node17 -->
<g id="edge20_Node000014_Node000017" class="edge">
<title>Node14&#45;&gt;Node17</title>
<g id="a_edge20_Node000014_Node000017"><a xlink:title=" ">
<path fill="none" stroke="#63b8ff" d="M613.33,-164.98C648.66,-155.38 705.93,-139.82 742.51,-129.87"/>
<polygon fill="#63b8ff" stroke="#63b8ff" points="743.51,-133.23 752.24,-127.23 741.67,-126.47 743.51,-133.23"/>
</a>
</g>
</g>
<!-- Node18 -->
<g id="Node000018" class="node">
<title>Node18</title>
<g id="a_Node000018"><a xlink:title=" ">
<polygon fill="#e0e0e0" stroke="#999999" points="734,-129 642,-129 642,-110 734,-110 734,-129"/>
<text text-anchor="middle" x="688" y="-117" font-family="Helvetica,sans-Serif" font-size="10.00">cuda_runtime.h</text>
</a>
</g>
</g>
<!-- Node14&#45;&gt;Node18 -->
<g id="edge21_Node000014_Node000018" class="edge">
<title>Node14&#45;&gt;Node18</title>
<g id="a_edge21_Node000014_Node000018"><a xlink:title=" ">
<path fill="none" stroke="#63b8ff" d="M599.03,-164.98C615.93,-156.54 642.06,-143.47 661.64,-133.68"/>
<polygon fill="#63b8ff" stroke="#63b8ff" points="663.28,-136.77 670.66,-129.17 660.15,-130.51 663.28,-136.77"/>
</a>
</g>
</g>
<!-- Node15&#45;&gt;Node8 -->
<g id="edge18_Node000015_Node000008" class="edge">
<title>Node15&#45;&gt;Node8</title>
<g id="a_edge18_Node000015_Node000008"><a xlink:title=" ">
<path fill="none" stroke="#63b8ff" d="M565.24,-109.98C535.06,-101.05 487.43,-86.94 453.9,-77.02"/>
<polygon fill="#63b8ff" stroke="#63b8ff" points="454.57,-73.57 443.98,-74.08 452.58,-80.28 454.57,-73.57"/>
</a>
</g>
</g>
<!-- Node15&#45;&gt;Node9 -->
<g id="edge19_Node000015_Node000009" class="edge">
<title>Node15&#45;&gt;Node9</title>
<g id="a_edge19_Node000015_Node000009"><a xlink:title=" ">
<path fill="none" stroke="#63b8ff" d="M583.4,-109.98C573.54,-102.07 558.65,-90.11 546.78,-80.58"/>
<polygon fill="#63b8ff" stroke="#63b8ff" points="548.79,-77.7 538.8,-74.17 544.4,-83.16 548.79,-77.7"/>
</a>
</g>
</g>
<!-- Node15&#45;&gt;Node11 -->
<g id="edge16_Node000015_Node000011" class="edge">
<title>Node15&#45;&gt;Node11</title>
<g id="a_edge16_Node000015_Node000011"><a xlink:title=" ">
<path fill="none" stroke="#63b8ff" d="M622.12,-109.98C651.62,-101.05 698.19,-86.94 730.97,-77.02"/>
<polygon fill="#63b8ff" stroke="#63b8ff" points="732.11,-80.33 740.66,-74.08 730.08,-73.63 732.11,-80.33"/>
</a>
</g>
</g>
<!-- Node16 -->
<g id="Node000016" class="node">
<title>Node16</title>
<g id="a_Node000016"><a xlink:title=" ">
<polygon fill="#e0e0e0" stroke="#999999" points="633.5,-74 568.5,-74 568.5,-55 633.5,-55 633.5,-74"/>
<text text-anchor="middle" x="601" y="-62" font-family="Helvetica,sans-Serif" font-size="10.00">exception</text>
</a>
</g>
</g>
<!-- Node15&#45;&gt;Node16 -->
<g id="edge17_Node000015_Node000016" class="edge">
<title>Node15&#45;&gt;Node16</title>
<g id="a_edge17_Node000015_Node000016"><a xlink:title=" ">
<path fill="none" stroke="#63b8ff" d="M595.16,-109.75C596.07,-102.8 597.39,-92.85 598.54,-84.13"/>
<polygon fill="#63b8ff" stroke="#63b8ff" points="602.03,-84.46 599.87,-74.09 595.09,-83.54 602.03,-84.46"/>
</a>
</g>
</g>
<!-- Node19&#45;&gt;Node3 -->
<g id="edge24_Node000019_Node000003" class="edge">
<title>Node19&#45;&gt;Node3</title>
<g id="a_edge24_Node000019_Node000003"><a xlink:title=" ">
<path fill="none" stroke="#63b8ff" d="M85.53,-109.98C107.47,-101.3 141.74,-87.75 166.69,-77.88"/>
<polygon fill="#63b8ff" stroke="#63b8ff" points="168.07,-81.1 176.08,-74.17 165.49,-74.59 168.07,-81.1"/>
</a>
</g>
</g>
</g>
</svg>

<g id="navigator" transform="translate(0 0)" fill="#404254">
  <rect fill="#f2f5e9" fill-opacity="0.5" stroke="#606060" stroke-width=".5" x="0" y="0" width="60" height="60"/>
  <use id="zoomplus" xlink:href="#zoomPlus" x="17" y="9" onmousedown="handleZoom(evt,'in')"/>
  <use id="zoomminus" xlink:href="#zoomMin" x="42" y="9" onmousedown="handleZoom(evt,'out')"/>
  <use id="reset" xlink:href="#resetDef" x="30" y="36" onmousedown="handleReset()"/>
   <use id="arrowup" xlink:href="#arrowUp" x="0" y="0" onmousedown="handlePan(0,-1)"/>
  <use id="arrowright" xlink:href="#arrowRight" x="0" y="0" onmousedown="handlePan(1,0)"/>
  <use id="arrowdown" xlink:href="#arrowDown" x="0" y="0" onmousedown="handlePan(0,1)"/>
  <use id="arrowleft" xlink:href="#arrowLeft" x="0" y="0" onmousedown="handlePan(-1,0)"/>
</g>
<svg viewBox="0 0 15 15" width="100%" height="30px" preserveAspectRatio="xMaxYMin meet">
 <g id="arrow_out" transform="scale(0.3 0.3)">
  <a xlink:href="p3m__gpu__error__cuda_8cu__incl_org.svg" target="_base">
   <rect id="button" ry="5" rx="5" y="6" x="6" height="38" width="38"
        fill="#f2f5e9" fill-opacity="0.5" stroke="#606060" stroke-width="1.0"/>
   <path id="arrow"
     d="M 11.500037,31.436501 C 11.940474,20.09759 22.043105,11.32322 32.158766,21.979434 L 37.068811,17.246167 C 37.068811,17.246167 37.088388,32 37.088388,32 L 22.160133,31.978069 C 22.160133,31.978069 26.997745,27.140456 26.997745,27.140456 C 18.528582,18.264221 13.291696,25.230495 11.500037,31.436501 z"
     style="fill:#404040;"/>
  </a>
 </g>
</svg>

<style type='text/css'>
<![CDATA[
[data-mouse-over-selected='false'] { opacity: 0.7; }
[data-mouse-over-selected='true']  { opacity: 1.0; }
]]>
</style>
<script type="application/ecmascript"><![CDATA[
document.addEventListener('DOMContentLoaded', (event) => {
  highlightEdges();
  highlightAdjacentNodes();
});
]]></script>
</svg>
