<?xml version="1.0" encoding="UTF-8" standalone="no"?>
<!DOCTYPE svg PUBLIC "-//W3C//DTD SVG 1.1//EN"
 "http://www.w3.org/Graphics/SVG/1.1/DTD/svg11.dtd">
<!-- Generated by graphviz version 2.43.0 (0)
 -->
<!-- Title: p3m.hpp Pages: 1 -->
<!--zoomable 543 -->
<svg id="main" version="1.1" xmlns="http://www.w3.org/2000/svg" xmlns:xlink="http://www.w3.org/1999/xlink" xml:space="preserve" onload="init(evt)">
<style type="text/css"><![CDATA[
.edge:hover path { stroke: red; }
.edge:hover polygon { stroke: red; fill: red; }
]]></style>
<script type="text/javascript"><![CDATA[
var edges = document.getElementsByTagName('g');
if (edges && edges.length) {
  for (var i=0;i<edges.length;i++) {
    if (edges[i].id.substr(0,4)=='edge') {
      edges[i].setAttribute('class','edge');
    }
  }
}
]]></script>
        <defs>
                <circle id="rim" cx="0" cy="0" r="7"/>
                <circle id="rim2" cx="0" cy="0" r="3.5"/>
                <g id="zoomPlus">
                        <use xlink:href="#rim" fill="#404040">
                                <set attributeName="fill" to="#808080" begin="zoomplus.mouseover" end="zoomplus.mouseout"/>
                        </use>
                        <path d="M-4,0h8M0,-4v8" fill="none" stroke="white" stroke-width="1.5" pointer-events="none"/>
                </g>
                <g id="zoomMin">
                        <use xlink:href="#rim" fill="#404040">
                                <set attributeName="fill" to="#808080" begin="zoomminus.mouseover" end="zoomminus.mouseout"/>
                        </use>
                        <path d="M-4,0h8" fill="none" stroke="white" stroke-width="1.5" pointer-events="none"/>
                </g>
                <g id="dirArrow">
                        <path fill="none" stroke="white" stroke-width="1.5" d="M0,-3.0v7 M-2.5,-0.5L0,-3.0L2.5,-0.5"/>
                </g>
               <g id="resetDef">
                       <use xlink:href="#rim2" fill="#404040">
                               <set attributeName="fill" to="#808080" begin="reset.mouseover" end="reset.mouseout"/>
                       </use>
               </g>
        </defs>

<script type="text/javascript">
var viewWidth = 1419;
var viewHeight = 543;
var sectionId = 'dynsection-1';
</script>
<script xlink:href="svgpan.js"/>
<svg id="graph" class="graph">
<g id="viewport">
<title>p3m.hpp</title>
<!-- Node1 -->
<g id="node1" class="node">
<title>Node1</title>
<g id="a_node1"><a xlink:title=" ">
<polygon fill="#bfbfbf" stroke="black" points="1105.1,-515.5 1105.1,-534.5 1164.1,-534.5 1164.1,-515.5 1105.1,-515.5"/>
<text text-anchor="middle" x="1134.6" y="-522.5" font-family="Helvetica,sans-Serif" font-size="10.00">p3m.hpp</text>
</a>
</g>
</g>
<!-- Node2 -->
<g id="node2" class="node">
<title>Node2</title>
<g id="a_node2"><a xlink:href="coulomb_8hpp.html" target="_top" xlink:title=" ">
<polygon fill="none" stroke="black" points="695.6,-347.5 695.6,-366.5 775.6,-366.5 775.6,-347.5 695.6,-347.5"/>
<text text-anchor="middle" x="735.6" y="-354.5" font-family="Helvetica,sans-Serif" font-size="10.00">coulomb.hpp</text>
</a>
</g>
</g>
<!-- Node1&#45;&gt;Node2 -->
<g id="edge1" class="edge">
<title>Node1&#45;&gt;Node2</title>
<path fill="none" stroke="midnightblue" d="M1104.33,-511.41C1026.72,-479.12 822.16,-394.01 756.33,-366.62"/>
<polygon fill="midnightblue" stroke="midnightblue" points="1103.41,-514.81 1113.99,-515.42 1106.1,-508.35 1103.41,-514.81"/>
</g>
<!-- Node18 -->
<g id="node18" class="node">
<title>Node18</title>
<g id="a_node18"><a xlink:href="elc_8cpp.html" target="_top" xlink:title=" ">
<polygon fill="none" stroke="black" points="1331.1,-286 1331.1,-305 1382.1,-305 1382.1,-286 1331.1,-286"/>
<text text-anchor="middle" x="1356.6" y="-293" font-family="Helvetica,sans-Serif" font-size="10.00">elc.cpp</text>
</a>
</g>
</g>
<!-- Node1&#45;&gt;Node18 -->
<g id="edge40" class="edge">
<title>Node1&#45;&gt;Node18</title>
<path fill="none" stroke="midnightblue" d="M1173.92,-512.62C1194.21,-505.35 1218.44,-494.37 1236.6,-479 1298.54,-426.58 1340.78,-334.27 1352.97,-305.39"/>
<polygon fill="midnightblue" stroke="midnightblue" points="1172.66,-509.35 1164.33,-515.89 1174.92,-515.97 1172.66,-509.35"/>
</g>
<!-- Node20 -->
<g id="node20" class="node">
<title>Node20</title>
<g id="a_node20"><a xlink:href="p3m_8cpp.html" target="_top" xlink:title=" ">
<polygon fill="none" stroke="black" points="1254.1,-286 1254.1,-305 1313.1,-305 1313.1,-286 1254.1,-286"/>
<text text-anchor="middle" x="1283.6" y="-293" font-family="Helvetica,sans-Serif" font-size="10.00">p3m.cpp</text>
</a>
</g>
</g>
<!-- Node1&#45;&gt;Node20 -->
<g id="edge47" class="edge">
<title>Node1&#45;&gt;Node20</title>
<path fill="none" stroke="midnightblue" d="M1169.21,-511.34C1185.17,-504.01 1203.27,-493.34 1215.6,-479 1262.77,-424.14 1278.6,-333.47 1282.52,-305.19"/>
<polygon fill="midnightblue" stroke="midnightblue" points="1167.41,-508.3 1159.62,-515.48 1170.19,-514.73 1167.41,-508.3"/>
</g>
<!-- Node30 -->
<g id="node30" class="node">
<title>Node30</title>
<g id="a_node30"><a xlink:href="elc_8hpp.html" target="_top" xlink:title="ELC algorithm for long&#45;range Coulomb interactions.">
<polygon fill="none" stroke="black" points="1057.6,-403.5 1057.6,-422.5 1109.6,-422.5 1109.6,-403.5 1057.6,-403.5"/>
<text text-anchor="middle" x="1083.6" y="-410.5" font-family="Helvetica,sans-Serif" font-size="10.00">elc.hpp</text>
</a>
</g>
</g>
<!-- Node1&#45;&gt;Node30 -->
<g id="edge41" class="edge">
<title>Node1&#45;&gt;Node30</title>
<path fill="none" stroke="midnightblue" d="M1126.25,-506C1115.12,-482 1095.87,-440.47 1087.58,-422.59"/>
<polygon fill="midnightblue" stroke="midnightblue" points="1123.22,-507.77 1130.6,-515.37 1129.57,-504.82 1123.22,-507.77"/>
</g>
<!-- Node32 -->
<g id="node32" class="node">
<title>Node32</title>
<g id="a_node32"><a xlink:href="p3m__gpu_8hpp.html" target="_top" xlink:title=" ">
<polygon fill="none" stroke="black" points="1123.1,-459.5 1123.1,-478.5 1206.1,-478.5 1206.1,-459.5 1123.1,-459.5"/>
<text text-anchor="middle" x="1164.6" y="-466.5" font-family="Helvetica,sans-Serif" font-size="10.00">p3m_gpu.hpp</text>
</a>
</g>
</g>
<!-- Node1&#45;&gt;Node32 -->
<g id="edge48" class="edge">
<title>Node1&#45;&gt;Node32</title>
<path fill="none" stroke="midnightblue" d="M1144.45,-506.27C1149.57,-497.05 1155.62,-486.17 1159.74,-478.75"/>
<polygon fill="midnightblue" stroke="midnightblue" points="1141.35,-504.64 1139.55,-515.08 1147.47,-508.04 1141.35,-504.64"/>
</g>
<!-- Node34 -->
<g id="node34" class="node">
<title>Node34</title>
<g id="a_node34"><a xlink:href="CoulombP3M_8hpp.html" target="_top" xlink:title=" ">
<polygon fill="none" stroke="black" points="83.6,-403.5 83.6,-422.5 185.6,-422.5 185.6,-403.5 83.6,-403.5"/>
<text text-anchor="middle" x="134.6" y="-410.5" font-family="Helvetica,sans-Serif" font-size="10.00">CoulombP3M.hpp</text>
</a>
</g>
</g>
<!-- Node1&#45;&gt;Node34 -->
<g id="edge57" class="edge">
<title>Node1&#45;&gt;Node34</title>
<path fill="none" stroke="midnightblue" d="M1094.79,-519.62C937.8,-502.35 361.57,-438.97 185.82,-419.63"/>
<polygon fill="midnightblue" stroke="midnightblue" points="1094.62,-523.12 1104.94,-520.74 1095.38,-516.17 1094.62,-523.12"/>
</g>
<!-- Node3 -->
<g id="node3" class="node">
<title>Node3</title>
<g id="a_node3"><a xlink:href="coulomb_8cpp.html" target="_top" xlink:title=" ">
<polygon fill="none" stroke="black" points="334.1,-286 334.1,-305 413.1,-305 413.1,-286 334.1,-286"/>
<text text-anchor="middle" x="373.6" y="-293" font-family="Helvetica,sans-Serif" font-size="10.00">coulomb.cpp</text>
</a>
</g>
</g>
<!-- Node2&#45;&gt;Node3 -->
<g id="edge2" class="edge">
<title>Node2&#45;&gt;Node3</title>
<path fill="none" stroke="midnightblue" d="M684.92,-351C622.68,-344.34 514.11,-331.01 422.6,-311 415.15,-309.37 407.17,-307.2 399.86,-305.03"/>
<polygon fill="midnightblue" stroke="midnightblue" points="684.93,-354.52 695.24,-352.09 685.67,-347.56 684.93,-354.52"/>
</g>
<!-- Node4 -->
<g id="node4" class="node">
<title>Node4</title>
<g id="a_node4"><a xlink:href="coulomb__inline_8hpp.html" target="_top" xlink:title=" ">
<polygon fill="none" stroke="black" points="985.6,-286 985.6,-305 1097.6,-305 1097.6,-286 985.6,-286"/>
<text text-anchor="middle" x="1041.6" y="-293" font-family="Helvetica,sans-Serif" font-size="10.00">coulomb_inline.hpp</text>
</a>
</g>
</g>
<!-- Node2&#45;&gt;Node4 -->
<g id="edge3" class="edge">
<title>Node2&#45;&gt;Node4</title>
<path fill="none" stroke="midnightblue" d="M785.75,-347.16C834.57,-338.43 910.81,-324.48 976.6,-311 985.66,-309.14 995.41,-307.03 1004.52,-305.01"/>
<polygon fill="midnightblue" stroke="midnightblue" points="785,-343.74 775.77,-348.94 786.23,-350.63 785,-343.74"/>
</g>
<!-- Node5 -->
<g id="node5" class="node">
<title>Node5</title>
<g id="a_node5"><a xlink:href="icc_8cpp.html" target="_top" xlink:title=" ">
<polygon fill="none" stroke="black" points="779.6,-224.5 779.6,-243.5 829.6,-243.5 829.6,-224.5 779.6,-224.5"/>
<text text-anchor="middle" x="804.6" y="-231.5" font-family="Helvetica,sans-Serif" font-size="10.00">icc.cpp</text>
</a>
</g>
</g>
<!-- Node2&#45;&gt;Node5 -->
<g id="edge21" class="edge">
<title>Node2&#45;&gt;Node5</title>
<path fill="none" stroke="midnightblue" d="M724.04,-338.46C714.97,-322.26 705.55,-298.06 716.6,-280 730.21,-257.75 758.68,-246.06 779.57,-240.23"/>
<polygon fill="midnightblue" stroke="midnightblue" points="721.28,-340.65 729.46,-347.38 727.26,-337.02 721.28,-340.65"/>
</g>
<!-- Node8 -->
<g id="node8" class="node">
<title>Node8</title>
<g id="a_node8"><a xlink:href="energy_8cpp.html" target="_top" xlink:title=" ">
<polygon fill="none" stroke="black" points="655.1,-112.5 655.1,-131.5 724.1,-131.5 724.1,-112.5 655.1,-112.5"/>
<text text-anchor="middle" x="689.6" y="-119.5" font-family="Helvetica,sans-Serif" font-size="10.00">energy.cpp</text>
</a>
</g>
</g>
<!-- Node2&#45;&gt;Node8 -->
<g id="edge32" class="edge">
<title>Node2&#45;&gt;Node8</title>
<path fill="none" stroke="midnightblue" d="M722.53,-339.16C716.96,-331.09 710.98,-321.01 707.6,-311 685.23,-244.84 687.62,-158.63 689.06,-131.53"/>
<polygon fill="midnightblue" stroke="midnightblue" points="719.76,-341.3 728.48,-347.32 725.41,-337.18 719.76,-341.3"/>
</g>
<!-- Node12 -->
<g id="node12" class="node">
<title>Node12</title>
<g id="a_node12"><a xlink:href="thole_8hpp.html" target="_top" xlink:title=" ">
<polygon fill="none" stroke="black" points="1069.6,-224.5 1069.6,-243.5 1131.6,-243.5 1131.6,-224.5 1069.6,-224.5"/>
<text text-anchor="middle" x="1100.6" y="-231.5" font-family="Helvetica,sans-Serif" font-size="10.00">thole.hpp</text>
</a>
</g>
</g>
<!-- Node2&#45;&gt;Node12 -->
<g id="edge31" class="edge">
<title>Node2&#45;&gt;Node12</title>
<path fill="none" stroke="midnightblue" d="M786.05,-353.54C882.56,-348.31 1085.69,-334.6 1106.6,-311 1123.28,-292.18 1111.89,-259.43 1104.92,-243.8"/>
<polygon fill="midnightblue" stroke="midnightblue" points="785.74,-350.05 775.94,-354.08 786.11,-357.04 785.74,-350.05"/>
</g>
<!-- Node16 -->
<g id="node16" class="node">
<title>Node16</title>
<g id="a_node16"><a xlink:href="pressure_8cpp.html" target="_top" xlink:title=" ">
<polygon fill="none" stroke="black" points="619.1,-56.5 619.1,-75.5 698.1,-75.5 698.1,-56.5 619.1,-56.5"/>
<text text-anchor="middle" x="658.6" y="-63.5" font-family="Helvetica,sans-Serif" font-size="10.00">pressure.cpp</text>
</a>
</g>
</g>
<!-- Node2&#45;&gt;Node16 -->
<g id="edge37" class="edge">
<title>Node2&#45;&gt;Node16</title>
<path fill="none" stroke="midnightblue" d="M708.87,-342.66C675.18,-323.72 621.6,-285.65 621.6,-235 621.6,-235 621.6,-235 621.6,-177 621.6,-137.31 643.51,-93.56 653.61,-75.51"/>
<polygon fill="midnightblue" stroke="midnightblue" points="707.33,-345.8 717.79,-347.48 710.66,-339.64 707.33,-345.8"/>
</g>
<!-- Node2&#45;&gt;Node18 -->
<g id="edge20" class="edge">
<title>Node2&#45;&gt;Node18</title>
<path fill="none" stroke="midnightblue" d="M786.23,-354.24C909.29,-349.61 1221.42,-335.74 1322.6,-311 1328.33,-309.6 1334.34,-307.33 1339.68,-305"/>
<polygon fill="midnightblue" stroke="midnightblue" points="785.82,-350.75 775.96,-354.62 786.08,-357.74 785.82,-350.75"/>
</g>
<!-- Node19 -->
<g id="node19" class="node">
<title>Node19</title>
<g id="a_node19"><a xlink:href="mmm1d_8cpp.html" target="_top" xlink:title=" ">
<polygon fill="none" stroke="black" points="431.6,-286 431.6,-305 509.6,-305 509.6,-286 431.6,-286"/>
<text text-anchor="middle" x="470.6" y="-293" font-family="Helvetica,sans-Serif" font-size="10.00">mmm1d.cpp</text>
</a>
</g>
</g>
<!-- Node2&#45;&gt;Node19 -->
<g id="edge22" class="edge">
<title>Node2&#45;&gt;Node19</title>
<path fill="none" stroke="midnightblue" d="M685.45,-346.91C641.28,-338.6 575.33,-325.42 518.6,-311 511.68,-309.24 504.27,-307.12 497.39,-305.05"/>
<polygon fill="midnightblue" stroke="midnightblue" points="684.89,-350.37 695.36,-348.76 686.17,-343.49 684.89,-350.37"/>
</g>
<!-- Node2&#45;&gt;Node20 -->
<g id="edge23" class="edge">
<title>Node2&#45;&gt;Node20</title>
<path fill="none" stroke="midnightblue" d="M785.92,-355.98C878.06,-354.98 1079.62,-348.25 1244.6,-311 1250.94,-309.57 1257.64,-307.35 1263.67,-305.08"/>
<polygon fill="midnightblue" stroke="midnightblue" points="785.72,-352.48 775.76,-356.07 785.79,-359.48 785.72,-352.48"/>
</g>
<!-- Node21 -->
<g id="node21" class="node">
<title>Node21</title>
<g id="a_node21"><a xlink:href="p3m__gpu_8cpp.html" target="_top" xlink:title=" ">
<polygon fill="none" stroke="black" points="1153.6,-286 1153.6,-305 1235.6,-305 1235.6,-286 1153.6,-286"/>
<text text-anchor="middle" x="1194.6" y="-293" font-family="Helvetica,sans-Serif" font-size="10.00">p3m_gpu.cpp</text>
</a>
</g>
</g>
<!-- Node2&#45;&gt;Node21 -->
<g id="edge24" class="edge">
<title>Node2&#45;&gt;Node21</title>
<path fill="none" stroke="midnightblue" d="M786.08,-352.77C862.9,-347.31 1013.54,-334.51 1139.6,-311 1148.04,-309.43 1157.1,-307.25 1165.38,-305.06"/>
<polygon fill="midnightblue" stroke="midnightblue" points="785.47,-349.3 775.74,-353.49 785.96,-356.29 785.47,-349.3"/>
</g>
<!-- Node22 -->
<g id="node22" class="node">
<title>Node22</title>
<g id="a_node22"><a xlink:href="electrostatics_2registration_8hpp.html" target="_top" xlink:title=" ">
<polygon fill="none" stroke="black" points="35.6,-286 35.6,-305 129.6,-305 129.6,-286 35.6,-286"/>
<text text-anchor="middle" x="82.6" y="-293" font-family="Helvetica,sans-Serif" font-size="10.00">registration.hpp</text>
</a>
</g>
</g>
<!-- Node2&#45;&gt;Node22 -->
<g id="edge25" class="edge">
<title>Node2&#45;&gt;Node22</title>
<path fill="none" stroke="midnightblue" d="M685.3,-353.18C587.22,-347.41 363.67,-332.93 176.6,-311 161.35,-309.21 144.77,-306.81 129.85,-304.48"/>
<polygon fill="midnightblue" stroke="midnightblue" points="685.32,-356.69 695.51,-353.78 685.73,-349.7 685.32,-356.69"/>
</g>
<!-- Node23 -->
<g id="node23" class="node">
<title>Node23</title>
<g id="a_node23"><a xlink:href="electrostatics_2Actor__impl_8hpp.html" target="_top" xlink:title=" ">
<polygon fill="none" stroke="black" points="185.6,-224.5 185.6,-243.5 275.6,-243.5 275.6,-224.5 185.6,-224.5"/>
<text text-anchor="middle" x="230.6" y="-231.5" font-family="Helvetica,sans-Serif" font-size="10.00">Actor_impl.hpp</text>
</a>
</g>
</g>
<!-- Node2&#45;&gt;Node23 -->
<g id="edge38" class="edge">
<title>Node2&#45;&gt;Node23</title>
<path fill="none" stroke="midnightblue" d="M685.33,-353.09C576.39,-346.48 325.56,-329.45 291.6,-311 263.06,-295.49 243.01,-260.5 234.78,-243.97"/>
<polygon fill="midnightblue" stroke="midnightblue" points="685.22,-356.59 695.42,-353.7 685.64,-349.61 685.22,-356.59"/>
</g>
<!-- Node24 -->
<g id="node24" class="node">
<title>Node24</title>
<g id="a_node24"><a xlink:href="electrostatics_2initialize_8cpp.html" target="_top" xlink:title=" ">
<polygon fill="none" stroke="black" points="80.1,-168.5 80.1,-187.5 159.1,-187.5 159.1,-168.5 80.1,-168.5"/>
<text text-anchor="middle" x="119.6" y="-175.5" font-family="Helvetica,sans-Serif" font-size="10.00">initialize.cpp</text>
</a>
</g>
</g>
<!-- Node2&#45;&gt;Node24 -->
<g id="edge39" class="edge">
<title>Node2&#45;&gt;Node24</title>
<path fill="none" stroke="midnightblue" d="M685.1,-353.25C581.73,-347.21 353.31,-331.69 324.6,-311 290.07,-286.12 317.07,-251.52 284.6,-224 249.26,-194.05 195.72,-183.89 159.28,-180.53"/>
<polygon fill="midnightblue" stroke="midnightblue" points="685.11,-356.75 695.29,-353.83 685.51,-349.76 685.11,-356.75"/>
</g>
<!-- Node26 -->
<g id="node26" class="node">
<title>Node26</title>
<g id="a_node26"><a xlink:href="event_8cpp.html" target="_top" xlink:title=" ">
<polygon fill="none" stroke="black" points="528.1,-286 528.1,-305 593.1,-305 593.1,-286 528.1,-286"/>
<text text-anchor="middle" x="560.6" y="-293" font-family="Helvetica,sans-Serif" font-size="10.00">event.cpp</text>
</a>
</g>
</g>
<!-- Node2&#45;&gt;Node26 -->
<g id="edge33" class="edge">
<title>Node2&#45;&gt;Node26</title>
<path fill="none" stroke="midnightblue" d="M700.99,-344.23C666.97,-332.67 615.88,-315.3 585.63,-305.01"/>
<polygon fill="midnightblue" stroke="midnightblue" points="699.93,-347.57 710.53,-347.48 702.18,-340.94 699.93,-347.57"/>
</g>
<!-- Node27 -->
<g id="node27" class="node">
<title>Node27</title>
<g id="a_node27"><a xlink:href="interactions_8cpp.html" target="_top" xlink:title=" ">
<polygon fill="none" stroke="black" points="726.1,-286 726.1,-305 821.1,-305 821.1,-286 726.1,-286"/>
<text text-anchor="middle" x="773.6" y="-293" font-family="Helvetica,sans-Serif" font-size="10.00">interactions.cpp</text>
</a>
</g>
</g>
<!-- Node2&#45;&gt;Node27 -->
<g id="edge34" class="edge">
<title>Node2&#45;&gt;Node27</title>
<path fill="none" stroke="midnightblue" d="M746.45,-339.01C753.55,-327.89 762.52,-313.84 768.16,-305.01"/>
<polygon fill="midnightblue" stroke="midnightblue" points="743.48,-337.16 741.04,-347.48 749.38,-340.93 743.48,-337.16"/>
</g>
<!-- Node28 -->
<g id="node28" class="node">
<title>Node28</title>
<g id="a_node28"><a xlink:href="nonbonded__interaction__data_8cpp.html" target="_top" xlink:title=" ">
<polygon fill="none" stroke="black" points="839.6,-280.5 839.6,-310.5 967.6,-310.5 967.6,-280.5 839.6,-280.5"/>
<text text-anchor="start" x="847.6" y="-298.5" font-family="Helvetica,sans-Serif" font-size="10.00">nonbonded_interaction</text>
<text text-anchor="middle" x="903.6" y="-287.5" font-family="Helvetica,sans-Serif" font-size="10.00">_data.cpp</text>
</a>
</g>
</g>
<!-- Node2&#45;&gt;Node28 -->
<g id="edge35" class="edge">
<title>Node2&#45;&gt;Node28</title>
<path fill="none" stroke="midnightblue" d="M769.19,-344.1C796.53,-334.42 835.17,-320.74 864,-310.52"/>
<polygon fill="midnightblue" stroke="midnightblue" points="767.93,-340.84 759.67,-347.48 770.26,-347.44 767.93,-340.84"/>
</g>
<!-- Node29 -->
<g id="node29" class="node">
<title>Node29</title>
<g id="a_node29"><a xlink:href="npt_8cpp.html" target="_top" xlink:title=" ">
<polygon fill="none" stroke="black" points="186.1,-286 186.1,-305 239.1,-305 239.1,-286 186.1,-286"/>
<text text-anchor="middle" x="212.6" y="-293" font-family="Helvetica,sans-Serif" font-size="10.00">npt.cpp</text>
</a>
</g>
</g>
<!-- Node2&#45;&gt;Node29 -->
<g id="edge36" class="edge">
<title>Node2&#45;&gt;Node29</title>
<path fill="none" stroke="midnightblue" d="M685.34,-352.89C579.13,-346.04 334.92,-328.89 253.6,-311 246.96,-309.54 239.92,-307.31 233.59,-305.04"/>
<polygon fill="midnightblue" stroke="midnightblue" points="685.28,-356.39 695.48,-353.53 685.73,-349.4 685.28,-356.39"/>
</g>
<!-- Node4&#45;&gt;Node5 -->
<g id="edge4" class="edge">
<title>Node4&#45;&gt;Node5</title>
<path fill="none" stroke="midnightblue" d="M997.88,-283.52C948.49,-271.13 869.81,-251.37 829.78,-241.32"/>
<polygon fill="midnightblue" stroke="midnightblue" points="997.09,-286.93 1007.64,-285.98 998.8,-280.15 997.09,-286.93"/>
</g>
<!-- Node6 -->
<g id="node6" class="node">
<title>Node6</title>
<g id="a_node6"><a xlink:href="energy__inline_8hpp.html" target="_top" xlink:title=" ">
<polygon fill="none" stroke="black" points="897.6,-168.5 897.6,-187.5 1001.6,-187.5 1001.6,-168.5 897.6,-168.5"/>
<text text-anchor="middle" x="949.6" y="-175.5" font-family="Helvetica,sans-Serif" font-size="10.00">energy_inline.hpp</text>
</a>
</g>
</g>
<!-- Node4&#45;&gt;Node6 -->
<g id="edge5" class="edge">
<title>Node4&#45;&gt;Node6</title>
<path fill="none" stroke="midnightblue" d="M1028.2,-277.67C1008.35,-252.76 971.85,-206.94 956.59,-187.78"/>
<polygon fill="midnightblue" stroke="midnightblue" points="1025.72,-280.18 1034.68,-285.82 1031.19,-275.82 1025.72,-280.18"/>
</g>
<!-- Node4&#45;&gt;Node12 -->
<g id="edge11" class="edge">
<title>Node4&#45;&gt;Node12</title>
<path fill="none" stroke="midnightblue" d="M1057.14,-278.82C1068.35,-267.52 1083.05,-252.69 1092.16,-243.51"/>
<polygon fill="midnightblue" stroke="midnightblue" points="1054.61,-276.41 1050.05,-285.98 1059.58,-281.34 1054.61,-276.41"/>
</g>
<!-- Node13 -->
<g id="node13" class="node">
<title>Node13</title>
<g id="a_node13"><a xlink:href="forces__inline_8hpp.html" target="_top" xlink:title=" ">
<polygon fill="none" stroke="black" points="1033.6,-168.5 1033.6,-187.5 1133.6,-187.5 1133.6,-168.5 1033.6,-168.5"/>
<text text-anchor="middle" x="1083.6" y="-175.5" font-family="Helvetica,sans-Serif" font-size="10.00">forces_inline.hpp</text>
</a>
</g>
</g>
<!-- Node4&#45;&gt;Node13 -->
<g id="edge19" class="edge">
<title>Node4&#45;&gt;Node13</title>
<path fill="none" stroke="midnightblue" d="M1045.58,-275.49C1048.87,-261.1 1054.05,-240.99 1060.6,-224 1065.65,-210.9 1073.37,-196.6 1078.45,-187.71"/>
<polygon fill="midnightblue" stroke="midnightblue" points="1042.08,-275.11 1043.36,-285.63 1048.92,-276.61 1042.08,-275.11"/>
</g>
<!-- Node7 -->
<g id="node7" class="node">
<title>Node7</title>
<g id="a_node7"><a xlink:href="ShapeBasedConstraint_8cpp.html" target="_top" xlink:title=" ">
<polygon fill="none" stroke="black" points="876.1,-112.5 876.1,-131.5 1023.1,-131.5 1023.1,-112.5 876.1,-112.5"/>
<text text-anchor="middle" x="949.6" y="-119.5" font-family="Helvetica,sans-Serif" font-size="10.00">ShapeBasedConstraint.cpp</text>
</a>
</g>
</g>
<!-- Node6&#45;&gt;Node7 -->
<g id="edge6" class="edge">
<title>Node6&#45;&gt;Node7</title>
<path fill="none" stroke="midnightblue" d="M949.6,-157.8C949.6,-148.91 949.6,-138.78 949.6,-131.75"/>
<polygon fill="midnightblue" stroke="midnightblue" points="946.1,-158.08 949.6,-168.08 953.1,-158.08 946.1,-158.08"/>
</g>
<!-- Node6&#45;&gt;Node8 -->
<g id="edge7" class="edge">
<title>Node6&#45;&gt;Node8</title>
<path fill="none" stroke="midnightblue" d="M898.48,-166.38C847.03,-155.7 769.06,-139.5 724.36,-130.22"/>
<polygon fill="midnightblue" stroke="midnightblue" points="897.9,-169.84 908.4,-168.44 899.32,-162.98 897.9,-169.84"/>
</g>
<!-- Node9 -->
<g id="node9" class="node">
<title>Node9</title>
<g id="a_node9"><a xlink:href="core_2pair__criteria_2EnergyCriterion_8hpp.html" target="_top" xlink:title=" ">
<polygon fill="none" stroke="black" points="745.1,-112.5 745.1,-131.5 858.1,-131.5 858.1,-112.5 745.1,-112.5"/>
<text text-anchor="middle" x="801.6" y="-119.5" font-family="Helvetica,sans-Serif" font-size="10.00">EnergyCriterion.hpp</text>
</a>
</g>
</g>
<!-- Node6&#45;&gt;Node9 -->
<g id="edge8" class="edge">
<title>Node6&#45;&gt;Node9</title>
<path fill="none" stroke="midnightblue" d="M916.45,-164.91C888.63,-154.75 849.58,-140.51 824.94,-131.52"/>
<polygon fill="midnightblue" stroke="midnightblue" points="915.55,-168.3 926.15,-168.44 917.95,-161.73 915.55,-168.3"/>
</g>
<!-- Node10 -->
<g id="node10" class="node">
<title>Node10</title>
<g id="a_node10"><a xlink:href="script__interface_2pair__criteria_2EnergyCriterion_8hpp.html" target="_top" xlink:title=" ">
<polygon fill="none" stroke="black" points="745.1,-56.5 745.1,-75.5 858.1,-75.5 858.1,-56.5 745.1,-56.5"/>
<text text-anchor="middle" x="801.6" y="-63.5" font-family="Helvetica,sans-Serif" font-size="10.00">EnergyCriterion.hpp</text>
</a>
</g>
</g>
<!-- Node9&#45;&gt;Node10 -->
<g id="edge9" class="edge">
<title>Node9&#45;&gt;Node10</title>
<path fill="none" stroke="midnightblue" d="M801.6,-101.8C801.6,-92.91 801.6,-82.78 801.6,-75.75"/>
<polygon fill="midnightblue" stroke="midnightblue" points="798.1,-102.08 801.6,-112.08 805.1,-102.08 798.1,-102.08"/>
</g>
<!-- Node11 -->
<g id="node11" class="node">
<title>Node11</title>
<g id="a_node11"><a xlink:href="pair__criteria_2initialize_8cpp.html" target="_top" xlink:title=" ">
<polygon fill="none" stroke="black" points="762.1,-0.5 762.1,-19.5 841.1,-19.5 841.1,-0.5 762.1,-0.5"/>
<text text-anchor="middle" x="801.6" y="-7.5" font-family="Helvetica,sans-Serif" font-size="10.00">initialize.cpp</text>
</a>
</g>
</g>
<!-- Node10&#45;&gt;Node11 -->
<g id="edge10" class="edge">
<title>Node10&#45;&gt;Node11</title>
<path fill="none" stroke="midnightblue" d="M801.6,-45.8C801.6,-36.91 801.6,-26.78 801.6,-19.75"/>
<polygon fill="midnightblue" stroke="midnightblue" points="798.1,-46.08 801.6,-56.08 805.1,-46.08 798.1,-46.08"/>
</g>
<!-- Node12&#45;&gt;Node6 -->
<g id="edge12" class="edge">
<title>Node12&#45;&gt;Node6</title>
<path fill="none" stroke="midnightblue" d="M1067.15,-221.04C1038.74,-210.88 998.66,-196.55 973.41,-187.52"/>
<polygon fill="midnightblue" stroke="midnightblue" points="1066.08,-224.37 1076.67,-224.44 1068.44,-217.78 1066.08,-224.37"/>
</g>
<!-- Node12&#45;&gt;Node13 -->
<g id="edge13" class="edge">
<title>Node12&#45;&gt;Node13</title>
<path fill="none" stroke="midnightblue" d="M1094.74,-214.4C1091.9,-205.36 1088.62,-194.94 1086.35,-187.75"/>
<polygon fill="midnightblue" stroke="midnightblue" points="1091.45,-215.6 1097.79,-224.08 1098.13,-213.49 1091.45,-215.6"/>
</g>
<!-- Node17 -->
<g id="node17" class="node">
<title>Node17</title>
<g id="a_node17"><a xlink:href="thole_8cpp.html" target="_top" xlink:title=" ">
<polygon fill="none" stroke="black" points="1151.6,-168.5 1151.6,-187.5 1213.6,-187.5 1213.6,-168.5 1151.6,-168.5"/>
<text text-anchor="middle" x="1182.6" y="-175.5" font-family="Helvetica,sans-Serif" font-size="10.00">thole.cpp</text>
</a>
</g>
</g>
<!-- Node12&#45;&gt;Node17 -->
<g id="edge18" class="edge">
<title>Node12&#45;&gt;Node17</title>
<path fill="none" stroke="midnightblue" d="M1122.43,-218.62C1137.41,-208.76 1156.8,-195.99 1169.46,-187.65"/>
<polygon fill="midnightblue" stroke="midnightblue" points="1120.2,-215.9 1113.77,-224.32 1124.05,-221.75 1120.2,-215.9"/>
</g>
<!-- Node13&#45;&gt;Node7 -->
<g id="edge14" class="edge">
<title>Node13&#45;&gt;Node7</title>
<path fill="none" stroke="midnightblue" d="M1052.92,-164.64C1027.78,-154.5 992.84,-140.43 970.73,-131.52"/>
<polygon fill="midnightblue" stroke="midnightblue" points="1051.78,-167.95 1062.37,-168.44 1054.4,-161.46 1051.78,-167.95"/>
</g>
<!-- Node14 -->
<g id="node14" class="node">
<title>Node14</title>
<g id="a_node14"><a xlink:href="forces_8cpp.html" target="_top" xlink:title=" ">
<polygon fill="none" stroke="black" points="1274.1,-112.5 1274.1,-131.5 1341.1,-131.5 1341.1,-112.5 1274.1,-112.5"/>
<text text-anchor="middle" x="1307.6" y="-119.5" font-family="Helvetica,sans-Serif" font-size="10.00">forces.cpp</text>
</a>
</g>
</g>
<!-- Node13&#45;&gt;Node14 -->
<g id="edge15" class="edge">
<title>Node13&#45;&gt;Node14</title>
<path fill="none" stroke="midnightblue" d="M1128.98,-166.06C1171.84,-155.73 1235.13,-140.47 1273.74,-131.16"/>
<polygon fill="midnightblue" stroke="midnightblue" points="1127.99,-162.7 1119.09,-168.44 1129.63,-169.5 1127.99,-162.7"/>
</g>
<!-- Node15 -->
<g id="node15" class="node">
<title>Node15</title>
<g id="a_node15"><a xlink:href="pressure__inline_8hpp.html" target="_top" xlink:title=" ">
<polygon fill="none" stroke="black" points="1041.6,-112.5 1041.6,-131.5 1153.6,-131.5 1153.6,-112.5 1041.6,-112.5"/>
<text text-anchor="middle" x="1097.6" y="-119.5" font-family="Helvetica,sans-Serif" font-size="10.00">pressure_inline.hpp</text>
</a>
</g>
</g>
<!-- Node13&#45;&gt;Node15 -->
<g id="edge16" class="edge">
<title>Node13&#45;&gt;Node15</title>
<path fill="none" stroke="midnightblue" d="M1088.42,-158.4C1090.76,-149.36 1093.47,-138.94 1095.33,-131.75"/>
<polygon fill="midnightblue" stroke="midnightblue" points="1085.03,-157.52 1085.91,-168.08 1091.81,-159.28 1085.03,-157.52"/>
</g>
<!-- Node15&#45;&gt;Node16 -->
<g id="edge17" class="edge">
<title>Node15&#45;&gt;Node16</title>
<path fill="none" stroke="midnightblue" d="M1031.55,-111.89C952.6,-101.82 777.18,-81.01 698.23,-71.68"/>
<polygon fill="midnightblue" stroke="midnightblue" points="1031.22,-115.38 1041.59,-113.18 1032.12,-108.43 1031.22,-115.38"/>
</g>
<!-- Node22&#45;&gt;Node23 -->
<g id="edge26" class="edge">
<title>Node22&#45;&gt;Node23</title>
<path fill="none" stroke="midnightblue" d="M113.36,-282.13C142.12,-270.57 184.28,-253.62 209.43,-243.51"/>
<polygon fill="midnightblue" stroke="midnightblue" points="111.78,-279 103.8,-285.98 114.39,-285.49 111.78,-279"/>
</g>
<!-- Node22&#45;&gt;Node24 -->
<g id="edge30" class="edge">
<title>Node22&#45;&gt;Node24</title>
<path fill="none" stroke="midnightblue" d="M89.35,-276.37C92.84,-266.79 97.1,-254.81 100.6,-244 107.05,-224.09 113.72,-200.44 117.18,-187.88"/>
<polygon fill="midnightblue" stroke="midnightblue" points="85.98,-275.38 85.81,-285.97 92.55,-277.8 85.98,-275.38"/>
</g>
<!-- Node25 -->
<g id="node25" class="node">
<title>Node25</title>
<g id="a_node25"><a xlink:href="ICCStar_8hpp.html" target="_top" xlink:title=" ">
<polygon fill="none" stroke="black" points="17.6,-224.5 17.6,-243.5 91.6,-243.5 91.6,-224.5 17.6,-224.5"/>
<text text-anchor="middle" x="54.6" y="-231.5" font-family="Helvetica,sans-Serif" font-size="10.00">ICCStar.hpp</text>
</a>
</g>
</g>
<!-- Node22&#45;&gt;Node25 -->
<g id="edge28" class="edge">
<title>Node22&#45;&gt;Node25</title>
<path fill="none" stroke="midnightblue" d="M74.29,-276.83C69.11,-265.83 62.68,-252.16 58.6,-243.51"/>
<polygon fill="midnightblue" stroke="midnightblue" points="71.16,-278.42 78.59,-285.98 77.5,-275.44 71.16,-278.42"/>
</g>
<!-- Node23&#45;&gt;Node24 -->
<g id="edge27" class="edge">
<title>Node23&#45;&gt;Node24</title>
<path fill="none" stroke="midnightblue" d="M203.59,-219.86C183.01,-209.85 155.25,-196.35 137.39,-187.65"/>
<polygon fill="midnightblue" stroke="midnightblue" points="202.24,-223.1 212.76,-224.32 205.3,-216.8 202.24,-223.1"/>
</g>
<!-- Node25&#45;&gt;Node24 -->
<g id="edge29" class="edge">
<title>Node25&#45;&gt;Node24</title>
<path fill="none" stroke="midnightblue" d="M72.87,-217.82C84.52,-208.15 99.2,-195.95 108.97,-187.83"/>
<polygon fill="midnightblue" stroke="midnightblue" points="70.5,-215.24 65.04,-224.32 74.97,-220.63 70.5,-215.24"/>
</g>
<!-- Node30&#45;&gt;Node2 -->
<g id="edge42" class="edge">
<title>Node30&#45;&gt;Node2</title>
<path fill="none" stroke="midnightblue" d="M1047.17,-406.35C981.51,-396.16 843.83,-374.79 775.63,-364.21"/>
<polygon fill="midnightblue" stroke="midnightblue" points="1047.02,-409.87 1057.44,-407.94 1048.1,-402.95 1047.02,-409.87"/>
</g>
<!-- Node30&#45;&gt;Node18 -->
<g id="edge43" class="edge">
<title>Node30&#45;&gt;Node18</title>
<path fill="none" stroke="midnightblue" d="M1114.67,-399.65C1136.97,-390.72 1167.71,-378.3 1194.6,-367 1246.35,-345.25 1306.89,-318.57 1337.22,-305.12"/>
<polygon fill="midnightblue" stroke="midnightblue" points="1113.35,-396.41 1105.36,-403.37 1115.95,-402.91 1113.35,-396.41"/>
</g>
<!-- Node30&#45;&gt;Node20 -->
<g id="edge44" class="edge">
<title>Node30&#45;&gt;Node20</title>
<path fill="none" stroke="midnightblue" d="M1107.3,-398.31C1148.97,-374.25 1234.22,-325.02 1268.66,-305.12"/>
<polygon fill="midnightblue" stroke="midnightblue" points="1105.54,-395.29 1098.63,-403.32 1109.04,-401.35 1105.54,-395.29"/>
</g>
<!-- Node31 -->
<g id="node31" class="node">
<title>Node31</title>
<g id="a_node31"><a xlink:href="ElectrostaticLayerCorrection_8hpp.html" target="_top" xlink:title=" ">
<polygon fill="none" stroke="black" points="46.6,-347.5 46.6,-366.5 222.6,-366.5 222.6,-347.5 46.6,-347.5"/>
<text text-anchor="middle" x="134.6" y="-354.5" font-family="Helvetica,sans-Serif" font-size="10.00">ElectrostaticLayerCorrection.hpp</text>
</a>
</g>
</g>
<!-- Node30&#45;&gt;Node31 -->
<g id="edge45" class="edge">
<title>Node30&#45;&gt;Node31</title>
<path fill="none" stroke="midnightblue" d="M1046.85,-409.91C909.47,-402.09 423.81,-374.46 222.76,-363.02"/>
<polygon fill="midnightblue" stroke="midnightblue" points="1047.04,-413.43 1057.23,-410.5 1047.44,-406.44 1047.04,-413.43"/>
</g>
<!-- Node31&#45;&gt;Node24 -->
<g id="edge46" class="edge">
<title>Node31&#45;&gt;Node24</title>
<path fill="none" stroke="midnightblue" d="M81.5,-344.47C61.79,-337.72 40.8,-327.22 26.6,-311 6.29,-287.8 12.63,-274.57 8.6,-244 7.44,-235.19 3.63,-231.37 8.6,-224 24.46,-200.46 54.96,-189.23 79.99,-183.87"/>
<polygon fill="midnightblue" stroke="midnightblue" points="80.44,-347.8 91.03,-347.48 82.56,-341.13 80.44,-347.8"/>
</g>
<!-- Node32&#45;&gt;Node2 -->
<g id="edge49" class="edge">
<title>Node32&#45;&gt;Node2</title>
<path fill="none" stroke="midnightblue" d="M1157.05,-450.07C1149.62,-434.84 1136.76,-413.78 1118.6,-403 1061.4,-369.03 862.16,-360.68 775.91,-358.65"/>
<polygon fill="midnightblue" stroke="midnightblue" points="1154,-451.82 1161.32,-459.49 1160.37,-448.93 1154,-451.82"/>
</g>
<!-- Node32&#45;&gt;Node14 -->
<g id="edge54" class="edge">
<title>Node32&#45;&gt;Node14</title>
<path fill="none" stroke="midnightblue" d="M1214.73,-456.95C1286.67,-437.81 1410.6,-391.1 1410.6,-296.5 1410.6,-296.5 1410.6,-296.5 1410.6,-233 1410.6,-183.81 1355.05,-147.55 1325.54,-131.75"/>
<polygon fill="midnightblue" stroke="midnightblue" points="1213.76,-453.59 1204.95,-459.47 1215.5,-460.37 1213.76,-453.59"/>
</g>
<!-- Node32&#45;&gt;Node18 -->
<g id="edge50" class="edge">
<title>Node32&#45;&gt;Node18</title>
<path fill="none" stroke="midnightblue" d="M1182.36,-452.8C1192.44,-444.12 1205.28,-433.01 1216.6,-423 1266.17,-379.17 1324.68,-325.75 1347.16,-305.16"/>
<polygon fill="midnightblue" stroke="midnightblue" points="1179.93,-450.27 1174.62,-459.44 1184.49,-455.58 1179.93,-450.27"/>
</g>
<!-- Node32&#45;&gt;Node20 -->
<g id="edge52" class="edge">
<title>Node32&#45;&gt;Node20</title>
<path fill="none" stroke="midnightblue" d="M1176.57,-450.74C1201.7,-414.53 1259.12,-331.78 1277.69,-305.02"/>
<polygon fill="midnightblue" stroke="midnightblue" points="1173.49,-449.05 1170.66,-459.26 1179.24,-453.04 1173.49,-449.05"/>
</g>
<!-- Node32&#45;&gt;Node21 -->
<g id="edge53" class="edge">
<title>Node32&#45;&gt;Node21</title>
<path fill="none" stroke="midnightblue" d="M1167.86,-449.33C1174.32,-412.43 1188.49,-331.44 1193.11,-305.02"/>
<polygon fill="midnightblue" stroke="midnightblue" points="1164.4,-448.81 1166.13,-459.26 1171.3,-450.01 1164.4,-448.81"/>
</g>
<!-- Node32&#45;&gt;Node30 -->
<g id="edge51" class="edge">
<title>Node32&#45;&gt;Node30</title>
<path fill="none" stroke="midnightblue" d="M1143.03,-453.62C1128.23,-443.76 1109.09,-430.99 1096.58,-422.65"/>
<polygon fill="midnightblue" stroke="midnightblue" points="1141.32,-456.69 1151.58,-459.32 1145.21,-450.86 1141.32,-456.69"/>
</g>
<!-- Node33 -->
<g id="node33" class="node">
<title>Node33</title>
<g id="a_node33"><a xlink:href="CoulombP3MGPU_8hpp.html" target="_top" xlink:title=" ">
<polygon fill="none" stroke="black" points="450.1,-347.5 450.1,-366.5 573.1,-366.5 573.1,-347.5 450.1,-347.5"/>
<text text-anchor="middle" x="511.6" y="-354.5" font-family="Helvetica,sans-Serif" font-size="10.00">CoulombP3MGPU.hpp</text>
</a>
</g>
</g>
<!-- Node32&#45;&gt;Node33 -->
<g id="edge55" class="edge">
<title>Node32&#45;&gt;Node33</title>
<path fill="none" stroke="midnightblue" d="M1112.87,-459.29C990.38,-438.65 683.81,-387.01 562.33,-366.55"/>
<polygon fill="midnightblue" stroke="midnightblue" points="1112.31,-462.74 1122.76,-460.95 1113.48,-455.84 1112.31,-462.74"/>
</g>
<!-- Node33&#45;&gt;Node24 -->
<g id="edge56" class="edge">
<title>Node33&#45;&gt;Node24</title>
<path fill="none" stroke="midnightblue" d="M439.71,-354.48C353.85,-351.29 216.77,-341.43 176.6,-311 135.01,-279.5 123.34,-211.45 120.45,-187.53"/>
<polygon fill="midnightblue" stroke="midnightblue" points="439.8,-357.98 449.92,-354.83 440.04,-350.98 439.8,-357.98"/>
</g>
<!-- Node34&#45;&gt;Node24 -->
<g id="edge59" class="edge">
<title>Node34&#45;&gt;Node24</title>
<path fill="none" stroke="midnightblue" d="M94.49,-400.05C75.52,-392.84 53.58,-382.09 37.6,-367 -3.73,-327.98 4.72,-300.8 2.6,-244 2.27,-235.12 -2.43,-231.33 2.6,-224 19.85,-198.88 53.22,-187.78 79.93,-182.87"/>
<polygon fill="midnightblue" stroke="midnightblue" points="93.5,-403.41 104.09,-403.49 95.86,-396.82 93.5,-403.41"/>
</g>
<!-- Node34&#45;&gt;Node31 -->
<g id="edge58" class="edge">
<title>Node34&#45;&gt;Node31</title>
<path fill="none" stroke="midnightblue" d="M134.6,-392.8C134.6,-383.91 134.6,-373.78 134.6,-366.75"/>
<polygon fill="midnightblue" stroke="midnightblue" points="131.1,-393.08 134.6,-403.08 138.1,-393.08 131.1,-393.08"/>
</g>
</g>
</svg>
        <g id="navigator" transform="translate(0 0)" fill="#404254">
                <rect fill="#f2f5e9" fill-opacity="0.5" stroke="#606060" stroke-width=".5" x="0" y="0" width="60" height="60"/>
                <use id="zoomplus" xlink:href="#zoomPlus" x="17" y="9" onmousedown="handleZoom(evt,'in')"/>
                <use id="zoomminus" xlink:href="#zoomMin" x="42" y="9" onmousedown="handleZoom(evt,'out')"/>
                <use id="reset" xlink:href="#resetDef" x="30" y="36" onmousedown="handleReset()"/>
                <g id="arrowUp" xlink:href="#dirArrow" transform="translate(30 24)" onmousedown="handlePan(0,-1)">
                  <use xlink:href="#rim" fill="#404040">
                        <set attributeName="fill" to="#808080" begin="arrowUp.mouseover" end="arrowUp.mouseout"/>
                  </use>
                  <path fill="none" stroke="white" stroke-width="1.5" d="M0,-3.0v7 M-2.5,-0.5L0,-3.0L2.5,-0.5"/>
                </g>
                <g id="arrowRight" xlink:href="#dirArrow" transform="rotate(90) translate(36 -43)" onmousedown="handlePan(1,0)">
                  <use xlink:href="#rim" fill="#404040">
                        <set attributeName="fill" to="#808080" begin="arrowRight.mouseover" end="arrowRight.mouseout"/>
                  </use>
                  <path fill="none" stroke="white" stroke-width="1.5" d="M0,-3.0v7 M-2.5,-0.5L0,-3.0L2.5,-0.5"/>
                </g>
                <g id="arrowDown" xlink:href="#dirArrow" transform="rotate(180) translate(-30 -48)" onmousedown="handlePan(0,1)">
                  <use xlink:href="#rim" fill="#404040">
                        <set attributeName="fill" to="#808080" begin="arrowDown.mouseover" end="arrowDown.mouseout"/>
                  </use>
                  <path fill="none" stroke="white" stroke-width="1.5" d="M0,-3.0v7 M-2.5,-0.5L0,-3.0L2.5,-0.5"/>
                </g>
                <g id="arrowLeft" xlink:href="#dirArrow" transform="rotate(270) translate(-36 17)" onmousedown="handlePan(-1,0)">
                  <use xlink:href="#rim" fill="#404040">
                        <set attributeName="fill" to="#808080" begin="arrowLeft.mouseover" end="arrowLeft.mouseout"/>
                  </use>
                  <path fill="none" stroke="white" stroke-width="1.5" d="M0,-3.0v7 M-2.5,-0.5L0,-3.0L2.5,-0.5"/>
                </g>
        </g>
        <svg viewBox="0 0 15 15" width="100%" height="30px" preserveAspectRatio="xMaxYMin meet">
         <g id="arrow_out" transform="scale(0.3 0.3)">
          <a xlink:href="p3m_8hpp__dep__incl_org.svg" target="_base">
           <rect id="button" ry="5" rx="5" y="6" x="6" height="38" width="38"
                fill="#f2f5e9" fill-opacity="0.5" stroke="#606060" stroke-width="1.0"/>
           <path id="arrow"
             d="M 11.500037,31.436501 C 11.940474,20.09759 22.043105,11.32322 32.158766,21.979434 L 37.068811,17.246167 C 37.068811,17.246167 37.088388,32 37.088388,32 L 22.160133,31.978069 C 22.160133,31.978069 26.997745,27.140456 26.997745,27.140456 C 18.528582,18.264221 13.291696,25.230495 11.500037,31.436501 z"
             style="fill:#404040;"/>
          </a>
         </g>
        </svg>
</svg>
