<?xml version="1.0" encoding="UTF-8" standalone="no"?>
<!DOCTYPE svg PUBLIC "-//W3C//DTD SVG 1.1//EN"
 "http://www.w3.org/Graphics/SVG/1.1/DTD/svg11.dtd">
<!-- Generated by graphviz version 2.43.0 (0)
 -->
<!-- Title: common.hpp Pages: 1 -->
<svg width="1663pt" height="335pt"
 viewBox="0.00 0.00 1663.00 335.00" xmlns="http://www.w3.org/2000/svg" xmlns:xlink="http://www.w3.org/1999/xlink">
<g id="graph0" class="graph" transform="scale(1 1) rotate(0) translate(4 331)">
<title>common.hpp</title>
<!-- Node1 -->
<g id="Node000001" class="node">
<title>Node1</title>
<g id="a_Node000001"><a xlink:title="Common functions for dipolar and charge P3M.">
<polygon fill="#999999" stroke="#666666" points="1135,-327 1055,-327 1055,-308 1135,-308 1135,-327"/>
<text text-anchor="middle" x="1095" y="-315" font-family="Helvetica,sans-Serif" font-size="10.00">common.hpp</text>
</a>
</g>
</g>
<!-- Node2 -->
<g id="Node000002" class="node">
<title>Node2</title>
<g id="a_Node000002"><a xlink:href="config_8hpp.html" target="_top" xlink:title="This file contains the defaults for ESPResSo.">
<polygon fill="white" stroke="#666666" points="392.5,-272 293.5,-272 293.5,-253 392.5,-253 392.5,-272"/>
<text text-anchor="middle" x="343" y="-260" font-family="Helvetica,sans-Serif" font-size="10.00">config/config.hpp</text>
</a>
</g>
</g>
<!-- Node1&#45;&gt;Node2 -->
<g id="edge1_Node000001_Node000002" class="edge">
<title>Node1&#45;&gt;Node2</title>
<g id="a_edge1_Node000001_Node000002"><a xlink:title=" ">
<path fill="none" stroke="#63b8ff" d="M1054.89,-314.53C950.07,-309.22 659.39,-293.6 418,-272 412.99,-271.55 407.79,-271.05 402.58,-270.51"/>
<polygon fill="#63b8ff" stroke="#63b8ff" points="402.9,-267.03 392.59,-269.45 402.16,-273.99 402.9,-267.03"/>
</a>
</g>
</g>
<!-- Node4 -->
<g id="Node000004" class="node">
<title>Node4</title>
<g id="a_Node000004"><a xlink:href="Vector_8hpp.html" target="_top" xlink:title="Vector implementation and trait types for boost qvm interoperability.">
<polygon fill="white" stroke="#666666" points="1141,-211.5 1049,-211.5 1049,-192.5 1141,-192.5 1141,-211.5"/>
<text text-anchor="middle" x="1095" y="-199.5" font-family="Helvetica,sans-Serif" font-size="10.00">utils/Vector.hpp</text>
</a>
</g>
</g>
<!-- Node1&#45;&gt;Node4 -->
<g id="edge3_Node000001_Node000004" class="edge">
<title>Node1&#45;&gt;Node4</title>
<g id="a_edge3_Node000001_Node000004"><a xlink:title=" ">
<path fill="none" stroke="#63b8ff" d="M1095,-307.97C1095,-289.73 1095,-246.57 1095,-221.64"/>
<polygon fill="#63b8ff" stroke="#63b8ff" points="1098.5,-221.63 1095,-211.63 1091.5,-221.63 1098.5,-221.63"/>
</a>
</g>
</g>
<!-- Node11 -->
<g id="Node000011" class="node">
<title>Node11</title>
<g id="a_Node000011"><a xlink:title=" ">
<polygon fill="#e0e0e0" stroke="#999999" points="1270.5,-24.5 1217.5,-24.5 1217.5,-5.5 1270.5,-5.5 1270.5,-24.5"/>
<text text-anchor="middle" x="1244" y="-12.5" font-family="Helvetica,sans-Serif" font-size="10.00">cstddef</text>
</a>
</g>
</g>
<!-- Node1&#45;&gt;Node11 -->
<g id="edge46_Node000001_Node000011" class="edge">
<title>Node1&#45;&gt;Node11</title>
<g id="a_edge46_Node000001_Node000011"><a xlink:title=" ">
<path fill="none" stroke="#63b8ff" d="M1135.27,-316.91C1263.68,-317.14 1655,-309.14 1655,-203 1655,-203 1655,-203 1655,-140.5 1655,-62.64 1381.43,-28.96 1280.68,-19.19"/>
<polygon fill="#63b8ff" stroke="#63b8ff" points="1280.94,-15.7 1270.65,-18.24 1280.28,-22.67 1280.94,-15.7"/>
</a>
</g>
</g>
<!-- Node25 -->
<g id="Node000025" class="node">
<title>Node25</title>
<g id="a_Node000025"><a xlink:title=" ">
<polygon fill="#e0e0e0" stroke="#999999" points="418.5,-90.5 353.5,-90.5 353.5,-71.5 418.5,-71.5 418.5,-90.5"/>
<text text-anchor="middle" x="386" y="-78.5" font-family="Helvetica,sans-Serif" font-size="10.00">stdexcept</text>
</a>
</g>
</g>
<!-- Node1&#45;&gt;Node25 -->
<g id="edge48_Node000001_Node000025" class="edge">
<title>Node1&#45;&gt;Node25</title>
<g id="a_edge48_Node000001_Node000025"><a xlink:title=" ">
<path fill="none" stroke="#63b8ff" d="M1054.7,-308.64C1011.25,-300.07 940.08,-285.72 879,-272 686.13,-228.68 617.9,-256.93 451,-151 429.16,-137.14 409.64,-114.29 397.82,-98.72"/>
<polygon fill="#63b8ff" stroke="#63b8ff" points="400.53,-96.5 391.79,-90.51 394.89,-100.64 400.53,-96.5"/>
</a>
</g>
</g>
<!-- Node26 -->
<g id="Node000026" class="node">
<title>Node26</title>
<g id="a_Node000026"><a xlink:title=" ">
<polygon fill="#e0e0e0" stroke="#999999" points="524,-151 460,-151 460,-132 524,-132 524,-151"/>
<text text-anchor="middle" x="492" y="-139" font-family="Helvetica,sans-Serif" font-size="10.00">algorithm</text>
</a>
</g>
</g>
<!-- Node1&#45;&gt;Node26 -->
<g id="edge39_Node000001_Node000026" class="edge">
<title>Node1&#45;&gt;Node26</title>
<g id="a_edge39_Node000001_Node000026"><a xlink:title=" ">
<path fill="none" stroke="#63b8ff" d="M1065.51,-307.99C966.24,-279.34 644.16,-186.41 531.42,-153.87"/>
<polygon fill="#63b8ff" stroke="#63b8ff" points="532.37,-150.51 521.79,-151.1 530.43,-157.23 532.37,-150.51"/>
</a>
</g>
</g>
<!-- Node31 -->
<g id="Node000031" class="node">
<title>Node31</title>
<g id="a_Node000031"><a xlink:title=" ">
<polygon fill="#e0e0e0" stroke="#999999" points="1561,-151 1521,-151 1521,-132 1561,-132 1561,-151"/>
<text text-anchor="middle" x="1541" y="-139" font-family="Helvetica,sans-Serif" font-size="10.00">span</text>
</a>
</g>
</g>
<!-- Node1&#45;&gt;Node31 -->
<g id="edge47_Node000001_Node000031" class="edge">
<title>Node1&#45;&gt;Node31</title>
<g id="a_edge47_Node000001_Node000031"><a xlink:title=" ">
<path fill="none" stroke="#63b8ff" d="M1098.53,-307.98C1108.92,-284.1 1141.91,-216.37 1193,-187 1250.64,-153.86 1424.19,-160.47 1490,-151 1496.65,-150.04 1503.76,-148.92 1510.51,-147.81"/>
<polygon fill="#63b8ff" stroke="#63b8ff" points="1511.4,-151.21 1520.68,-146.1 1510.24,-144.31 1511.4,-151.21"/>
</a>
</g>
</g>
<!-- Node33 -->
<g id="Node000033" class="node">
<title>Node33</title>
<g id="a_Node000033"><a xlink:title=" ">
<polygon fill="#e0e0e0" stroke="#999999" points="1626.5,-151 1579.5,-151 1579.5,-132 1626.5,-132 1626.5,-151"/>
<text text-anchor="middle" x="1603" y="-139" font-family="Helvetica,sans-Serif" font-size="10.00">vector</text>
</a>
</g>
</g>
<!-- Node1&#45;&gt;Node33 -->
<g id="edge41_Node000001_Node000033" class="edge">
<title>Node1&#45;&gt;Node33</title>
<g id="a_edge41_Node000001_Node000033"><a xlink:title=" ">
<path fill="none" stroke="#63b8ff" d="M1110.75,-307.8C1134.98,-294.67 1183.08,-269.56 1226,-253 1290.55,-228.09 1489.59,-173.26 1569.39,-151.58"/>
<polygon fill="#63b8ff" stroke="#63b8ff" points="1570.66,-154.86 1579.4,-148.86 1568.83,-148.1 1570.66,-154.86"/>
</a>
</g>
</g>
<!-- Node34 -->
<g id="Node000034" class="node">
<title>Node34</title>
<g id="a_Node000034"><a xlink:title=" ">
<polygon fill="#e0e0e0" stroke="#999999" points="1277,-272 1235,-272 1235,-253 1277,-253 1277,-272"/>
<text text-anchor="middle" x="1256" y="-260" font-family="Helvetica,sans-Serif" font-size="10.00">array</text>
</a>
</g>
</g>
<!-- Node1&#45;&gt;Node34 -->
<g id="edge40_Node000001_Node000034" class="edge">
<title>Node1&#45;&gt;Node34</title>
<g id="a_edge40_Node000001_Node000034"><a xlink:title=" ">
<path fill="none" stroke="#63b8ff" d="M1120.87,-307.98C1149.3,-298.63 1194.94,-283.6 1225.2,-273.64"/>
<polygon fill="#63b8ff" stroke="#63b8ff" points="1226.42,-276.92 1234.82,-270.47 1224.23,-270.27 1226.42,-276.92"/>
</a>
</g>
</g>
<!-- Node35 -->
<g id="Node000035" class="node">
<title>Node35</title>
<g id="a_Node000035"><a xlink:href="LocalBox_8hpp.html" target="_top" xlink:title=" ">
<polygon fill="white" stroke="#666666" points="1034,-272 952,-272 952,-253 1034,-253 1034,-272"/>
<text text-anchor="middle" x="993" y="-260" font-family="Helvetica,sans-Serif" font-size="10.00">LocalBox.hpp</text>
</a>
</g>
</g>
<!-- Node1&#45;&gt;Node35 -->
<g id="edge42_Node000001_Node000035" class="edge">
<title>Node1&#45;&gt;Node35</title>
<g id="a_edge42_Node000001_Node000035"><a xlink:title=" ">
<path fill="none" stroke="#63b8ff" d="M1078.61,-307.98C1062.43,-299.57 1037.43,-286.59 1018.62,-276.81"/>
<polygon fill="#63b8ff" stroke="#63b8ff" points="1020.17,-273.68 1009.69,-272.17 1016.95,-279.89 1020.17,-273.68"/>
</a>
</g>
</g>
<!-- Node3 -->
<g id="Node000003" class="node">
<title>Node3</title>
<g id="a_Node000003"><a xlink:title=" ">
<polygon fill="#e0e0e0" stroke="#999999" points="403.5,-211.5 260.5,-211.5 260.5,-192.5 403.5,-192.5 403.5,-211.5"/>
<text text-anchor="middle" x="332" y="-199.5" font-family="Helvetica,sans-Serif" font-size="10.00">config/config&#45;features.hpp</text>
</a>
</g>
</g>
<!-- Node2&#45;&gt;Node3 -->
<g id="edge2_Node000002_Node000003" class="edge">
<title>Node2&#45;&gt;Node3</title>
<g id="a_edge2_Node000002_Node000003"><a xlink:title=" ">
<path fill="none" stroke="#63b8ff" d="M341.38,-252.87C339.83,-244.66 337.46,-232.04 335.49,-221.55"/>
<polygon fill="#63b8ff" stroke="#63b8ff" points="338.92,-220.85 333.63,-211.67 332.04,-222.14 338.92,-220.85"/>
</a>
</g>
</g>
<!-- Node5 -->
<g id="Node000005" class="node">
<title>Node5</title>
<g id="a_Node000005"><a xlink:title=" ">
<polygon fill="#e0e0e0" stroke="#999999" points="1015,-151 865,-151 865,-132 1015,-132 1015,-151"/>
<text text-anchor="middle" x="940" y="-139" font-family="Helvetica,sans-Serif" font-size="10.00">boost/qvm/deduce_vec.hpp</text>
</a>
</g>
</g>
<!-- Node4&#45;&gt;Node5 -->
<g id="edge4_Node000004_Node000005" class="edge">
<title>Node4&#45;&gt;Node5</title>
<g id="a_edge4_Node000004_Node000005"><a xlink:title=" ">
<path fill="none" stroke="#63b8ff" d="M1072.46,-192.49C1046.06,-182.53 1002.12,-165.95 972.15,-154.63"/>
<polygon fill="#63b8ff" stroke="#63b8ff" points="973.16,-151.27 962.57,-151.02 970.69,-157.82 973.16,-151.27"/>
</a>
</g>
</g>
<!-- Node6 -->
<g id="Node000006" class="node">
<title>Node6</title>
<g id="a_Node000006"><a xlink:title=" ">
<polygon fill="#e0e0e0" stroke="#999999" points="847,-151 707,-151 707,-132 847,-132 847,-151"/>
<text text-anchor="middle" x="777" y="-139" font-family="Helvetica,sans-Serif" font-size="10.00">boost/qvm/vec_traits.hpp</text>
</a>
</g>
</g>
<!-- Node4&#45;&gt;Node6 -->
<g id="edge5_Node000004_Node000006" class="edge">
<title>Node4&#45;&gt;Node6</title>
<g id="a_edge5_Node000004_Node000006"><a xlink:title=" ">
<path fill="none" stroke="#63b8ff" d="M1062.52,-192.43C1054.84,-190.53 1046.65,-188.6 1039,-187 973.35,-173.24 897.77,-160.76 844.71,-152.54"/>
<polygon fill="#63b8ff" stroke="#63b8ff" points="845.16,-149.07 834.74,-151 844.09,-155.98 845.16,-149.07"/>
</a>
</g>
</g>
<!-- Node7 -->
<g id="Node000007" class="node">
<title>Node7</title>
<g id="a_Node000007"><a xlink:href="Array_8hpp.html" target="_top" xlink:title="Array implementation with CUDA support.">
<polygon fill="white" stroke="#666666" points="689,-151 603,-151 603,-132 689,-132 689,-151"/>
<text text-anchor="middle" x="646" y="-139" font-family="Helvetica,sans-Serif" font-size="10.00">utils/Array.hpp</text>
</a>
</g>
</g>
<!-- Node4&#45;&gt;Node7 -->
<g id="edge6_Node000004_Node000007" class="edge">
<title>Node4&#45;&gt;Node7</title>
<g id="a_edge6_Node000004_Node000007"><a xlink:title=" ">
<path fill="none" stroke="#63b8ff" d="M1064.06,-192.45C1055.96,-190.43 1047.19,-188.45 1039,-187 892.16,-161.02 850.8,-170.85 699.25,-151.08"/>
<polygon fill="#63b8ff" stroke="#63b8ff" points="699.48,-147.58 689.1,-149.74 698.56,-154.52 699.48,-147.58"/>
</a>
</g>
</g>
<!-- Node9 -->
<g id="Node000009" class="node">
<title>Node9</title>
<g id="a_Node000009"><a xlink:title=" ">
<polygon fill="#e0e0e0" stroke="#999999" points="52,-24.5 0,-24.5 0,-5.5 52,-5.5 52,-24.5"/>
<text text-anchor="middle" x="26" y="-12.5" font-family="Helvetica,sans-Serif" font-size="10.00">cassert</text>
</a>
</g>
</g>
<!-- Node4&#45;&gt;Node9 -->
<g id="edge29_Node000004_Node000009" class="edge">
<title>Node4&#45;&gt;Node9</title>
<g id="a_edge29_Node000004_Node000009"><a xlink:title=" ">
<path fill="none" stroke="#63b8ff" d="M1064.67,-192.45C1056.4,-190.39 1047.41,-188.38 1039,-187 843.2,-154.83 788.8,-188.73 594,-151 566.12,-145.6 560.55,-138.89 533,-132 450.05,-111.25 427.66,-113.71 344,-96 217.65,-69.24 184.2,-68.76 61,-30 59.13,-29.41 57.21,-28.77 55.29,-28.09"/>
<polygon fill="#63b8ff" stroke="#63b8ff" points="56.39,-24.77 45.8,-24.52 53.93,-31.32 56.39,-24.77"/>
</a>
</g>
</g>
<!-- Node4&#45;&gt;Node11 -->
<g id="edge31_Node000004_Node000011" class="edge">
<title>Node4&#45;&gt;Node11</title>
<g id="a_edge31_Node000004_Node000011"><a xlink:title=" ">
<path fill="none" stroke="#63b8ff" d="M1085.34,-192.31C1071.8,-179.03 1050.09,-153.03 1062,-132 1077.32,-104.94 1095.66,-112.53 1122,-96 1157.76,-73.56 1198.68,-46.42 1222.88,-30.22"/>
<polygon fill="#63b8ff" stroke="#63b8ff" points="1224.93,-33.06 1231.29,-24.58 1221.03,-27.24 1224.93,-33.06"/>
</a>
</g>
</g>
<!-- Node23 -->
<g id="Node000023" class="node">
<title>Node23</title>
<g id="a_Node000023"><a xlink:title=" ">
<polygon fill="#e0e0e0" stroke="#999999" points="1113.5,-90.5 1060.5,-90.5 1060.5,-71.5 1113.5,-71.5 1113.5,-90.5"/>
<text text-anchor="middle" x="1087" y="-78.5" font-family="Helvetica,sans-Serif" font-size="10.00">iterator</text>
</a>
</g>
</g>
<!-- Node4&#45;&gt;Node23 -->
<g id="edge34_Node000004_Node000023" class="edge">
<title>Node4&#45;&gt;Node23</title>
<g id="a_edge34_Node000004_Node000023"><a xlink:title=" ">
<path fill="none" stroke="#63b8ff" d="M1128.5,-192.46C1137.09,-190.46 1146.36,-188.49 1155,-187 1225.89,-174.77 1521.5,-186.03 1474,-132 1451.04,-105.88 1215.93,-89.49 1123.77,-84.03"/>
<polygon fill="#63b8ff" stroke="#63b8ff" points="1123.96,-80.54 1113.78,-83.45 1123.56,-87.52 1123.96,-80.54"/>
</a>
</g>
</g>
<!-- Node4&#45;&gt;Node26 -->
<g id="edge28_Node000004_Node000026" class="edge">
<title>Node4&#45;&gt;Node26</title>
<g id="a_edge28_Node000004_Node000026"><a xlink:title=" ">
<path fill="none" stroke="#63b8ff" d="M1064.97,-192.48C1056.62,-190.38 1047.51,-188.36 1039,-187 818.55,-151.8 759.44,-179.33 538,-151 536.73,-150.84 535.44,-150.66 534.15,-150.48"/>
<polygon fill="#63b8ff" stroke="#63b8ff" points="534.52,-146.99 524.1,-148.9 533.44,-153.91 534.52,-146.99"/>
</a>
</g>
</g>
<!-- Node27 -->
<g id="Node000027" class="node">
<title>Node27</title>
<g id="a_Node000027"><a xlink:title=" ">
<polygon fill="#e0e0e0" stroke="#999999" points="1118.5,-151 1071.5,-151 1071.5,-132 1118.5,-132 1118.5,-151"/>
<text text-anchor="middle" x="1095" y="-139" font-family="Helvetica,sans-Serif" font-size="10.00">cmath</text>
</a>
</g>
</g>
<!-- Node4&#45;&gt;Node27 -->
<g id="edge30_Node000004_Node000027" class="edge">
<title>Node4&#45;&gt;Node27</title>
<g id="a_edge30_Node000004_Node000027"><a xlink:title=" ">
<path fill="none" stroke="#63b8ff" d="M1095,-192.37C1095,-184.25 1095,-171.81 1095,-161.39"/>
<polygon fill="#63b8ff" stroke="#63b8ff" points="1098.5,-161.17 1095,-151.17 1091.5,-161.17 1098.5,-161.17"/>
</a>
</g>
</g>
<!-- Node28 -->
<g id="Node000028" class="node">
<title>Node28</title>
<g id="a_Node000028"><a xlink:title=" ">
<polygon fill="#e0e0e0" stroke="#999999" points="1201.5,-151 1136.5,-151 1136.5,-132 1201.5,-132 1201.5,-151"/>
<text text-anchor="middle" x="1169" y="-139" font-family="Helvetica,sans-Serif" font-size="10.00">functional</text>
</a>
</g>
</g>
<!-- Node4&#45;&gt;Node28 -->
<g id="edge32_Node000004_Node000028" class="edge">
<title>Node4&#45;&gt;Node28</title>
<g id="a_edge32_Node000004_Node000028"><a xlink:title=" ">
<path fill="none" stroke="#63b8ff" d="M1105.92,-192.37C1117.51,-183.21 1136.03,-168.56 1150.02,-157.51"/>
<polygon fill="#63b8ff" stroke="#63b8ff" points="1152.36,-160.11 1158.04,-151.17 1148.02,-154.62 1152.36,-160.11"/>
</a>
</g>
</g>
<!-- Node29 -->
<g id="Node000029" class="node">
<title>Node29</title>
<g id="a_Node000029"><a xlink:title=" ">
<polygon fill="#e0e0e0" stroke="#999999" points="1302.5,-151 1219.5,-151 1219.5,-132 1302.5,-132 1302.5,-151"/>
<text text-anchor="middle" x="1261" y="-139" font-family="Helvetica,sans-Serif" font-size="10.00">initializer_list</text>
</a>
</g>
</g>
<!-- Node4&#45;&gt;Node29 -->
<g id="edge33_Node000004_Node000029" class="edge">
<title>Node4&#45;&gt;Node29</title>
<g id="a_edge33_Node000004_Node000029"><a xlink:title=" ">
<path fill="none" stroke="#63b8ff" d="M1119.14,-192.49C1147.54,-182.49 1194.88,-165.8 1226.99,-154.49"/>
<polygon fill="#63b8ff" stroke="#63b8ff" points="1228.56,-157.64 1236.83,-151.02 1226.24,-151.04 1228.56,-157.64"/>
</a>
</g>
</g>
<!-- Node30 -->
<g id="Node000030" class="node">
<title>Node30</title>
<g id="a_Node000030"><a xlink:title=" ">
<polygon fill="#e0e0e0" stroke="#999999" points="1377,-151 1321,-151 1321,-132 1377,-132 1377,-151"/>
<text text-anchor="middle" x="1349" y="-139" font-family="Helvetica,sans-Serif" font-size="10.00">numeric</text>
</a>
</g>
</g>
<!-- Node4&#45;&gt;Node30 -->
<g id="edge35_Node000004_Node000030" class="edge">
<title>Node4&#45;&gt;Node30</title>
<g id="a_edge35_Node000004_Node000030"><a xlink:title=" ">
<path fill="none" stroke="#63b8ff" d="M1131.48,-192.46C1139.24,-190.65 1147.39,-188.76 1155,-187 1209.08,-174.49 1271.68,-160.16 1310.81,-151.21"/>
<polygon fill="#63b8ff" stroke="#63b8ff" points="1311.75,-154.59 1320.72,-148.95 1310.19,-147.77 1311.75,-154.59"/>
</a>
</g>
</g>
<!-- Node4&#45;&gt;Node31 -->
<g id="edge36_Node000004_Node000031" class="edge">
<title>Node4&#45;&gt;Node31</title>
<g id="a_edge36_Node000004_Node000031"><a xlink:title=" ">
<path fill="none" stroke="#63b8ff" d="M1128.17,-192.47C1136.86,-190.45 1146.24,-188.46 1155,-187 1310.11,-161.08 1352.1,-178.14 1507,-151 1508.28,-150.78 1509.59,-150.53 1510.9,-150.27"/>
<polygon fill="#63b8ff" stroke="#63b8ff" points="1511.97,-153.61 1520.97,-148.01 1510.44,-146.78 1511.97,-153.61"/>
</a>
</g>
</g>
<!-- Node32 -->
<g id="Node000032" class="node">
<title>Node32</title>
<g id="a_Node000032"><a xlink:title=" ">
<polygon fill="#e0e0e0" stroke="#999999" points="1464.5,-151 1395.5,-151 1395.5,-132 1464.5,-132 1464.5,-151"/>
<text text-anchor="middle" x="1430" y="-139" font-family="Helvetica,sans-Serif" font-size="10.00">type_traits</text>
</a>
</g>
</g>
<!-- Node4&#45;&gt;Node32 -->
<g id="edge37_Node000004_Node000032" class="edge">
<title>Node4&#45;&gt;Node32</title>
<g id="a_edge37_Node000004_Node000032"><a xlink:title=" ">
<path fill="none" stroke="#63b8ff" d="M1129.49,-192.49C1137.82,-190.56 1146.7,-188.61 1155,-187 1253.91,-167.78 1281.96,-168.78 1385.51,-151.02"/>
<polygon fill="#63b8ff" stroke="#63b8ff" points="1386.18,-154.46 1395.43,-149.3 1384.98,-147.56 1386.18,-154.46"/>
</a>
</g>
</g>
<!-- Node4&#45;&gt;Node33 -->
<g id="edge38_Node000004_Node000033" class="edge">
<title>Node4&#45;&gt;Node33</title>
<g id="a_edge38_Node000004_Node000033"><a xlink:title=" ">
<path fill="none" stroke="#63b8ff" d="M1141.3,-193.93C1157.62,-191.56 1176.1,-189.01 1193,-187 1356.87,-167.48 1402.44,-179.59 1569.19,-150.84"/>
<polygon fill="#63b8ff" stroke="#63b8ff" points="1570.06,-154.25 1579.3,-149.08 1568.85,-147.35 1570.06,-154.25"/>
</a>
</g>
</g>
<!-- Node8 -->
<g id="Node000008" class="node">
<title>Node8</title>
<g id="a_Node000008"><a xlink:href="device__qualifier_8hpp.html" target="_top" xlink:title=" ">
<polygon fill="white" stroke="#666666" points="589,-90.5 475,-90.5 475,-71.5 589,-71.5 589,-90.5"/>
<text text-anchor="middle" x="532" y="-78.5" font-family="Helvetica,sans-Serif" font-size="10.00">device_qualifier.hpp</text>
</a>
</g>
</g>
<!-- Node7&#45;&gt;Node8 -->
<g id="edge7_Node000007_Node000008" class="edge">
<title>Node7&#45;&gt;Node8</title>
<g id="a_edge7_Node000007_Node000008"><a xlink:title=" ">
<path fill="none" stroke="#63b8ff" d="M629.18,-131.87C610.4,-122.23 579.8,-106.53 557.95,-95.31"/>
<polygon fill="#63b8ff" stroke="#63b8ff" points="559.39,-92.12 548.89,-90.67 556.19,-98.35 559.39,-92.12"/>
</a>
</g>
</g>
<!-- Node7&#45;&gt;Node9 -->
<g id="edge23_Node000007_Node000009" class="edge">
<title>Node7&#45;&gt;Node9</title>
<g id="a_edge23_Node000007_Node000009"><a xlink:title=" ">
<path fill="none" stroke="#63b8ff" d="M602.84,-134.95C565.27,-128.95 510.08,-117.24 466,-96 446.3,-86.51 447.33,-74.05 427,-66 275.02,-5.85 219.79,-68.74 61,-30 58.69,-29.44 56.34,-28.75 53.99,-27.99"/>
<polygon fill="#63b8ff" stroke="#63b8ff" points="55.16,-24.69 44.57,-24.56 52.77,-31.27 55.16,-24.69"/>
</a>
</g>
</g>
<!-- Node10 -->
<g id="Node000010" class="node">
<title>Node10</title>
<g id="a_Node000010"><a xlink:href="get_8hpp.html" target="_top" xlink:title=" ">
<polygon fill="white" stroke="#666666" points="1003.5,-90.5 950.5,-90.5 950.5,-71.5 1003.5,-71.5 1003.5,-90.5"/>
<text text-anchor="middle" x="977" y="-78.5" font-family="Helvetica,sans-Serif" font-size="10.00">get.hpp</text>
</a>
</g>
</g>
<!-- Node7&#45;&gt;Node10 -->
<g id="edge9_Node000007_Node000010" class="edge">
<title>Node7&#45;&gt;Node10</title>
<g id="a_edge9_Node000007_Node000010"><a xlink:title=" ">
<path fill="none" stroke="#63b8ff" d="M689.12,-133.4C692.13,-132.92 695.11,-132.45 698,-132 805.88,-115.19 835.46,-123.96 941,-96 943.3,-95.39 945.65,-94.68 947.99,-93.91"/>
<polygon fill="#63b8ff" stroke="#63b8ff" points="949.23,-97.19 957.46,-90.51 946.86,-90.6 949.23,-97.19"/>
</a>
</g>
</g>
<!-- Node7&#45;&gt;Node11 -->
<g id="edge24_Node000007_Node000011" class="edge">
<title>Node7&#45;&gt;Node11</title>
<g id="a_edge24_Node000007_Node000011"><a xlink:title=" ">
<path fill="none" stroke="#63b8ff" d="M689.11,-133.29C692.11,-132.84 695.1,-132.4 698,-132 837.13,-112.66 881.81,-148.74 1012,-96 1032.27,-87.79 1031.22,-75.33 1051,-66 1115.75,-35.47 1139.57,-51.03 1208,-30 1209.92,-29.41 1211.89,-28.76 1213.86,-28.09"/>
<polygon fill="#63b8ff" stroke="#63b8ff" points="1215.43,-31.24 1223.62,-24.52 1213.03,-24.67 1215.43,-31.24"/>
</a>
</g>
</g>
<!-- Node13 -->
<g id="Node000013" class="node">
<title>Node13</title>
<g id="a_Node000013"><a xlink:href="array_8hpp.html" target="_top" xlink:title=" ">
<polygon fill="white" stroke="#666666" points="732.5,-90.5 607.5,-90.5 607.5,-71.5 732.5,-71.5 732.5,-90.5"/>
<text text-anchor="middle" x="670" y="-78.5" font-family="Helvetica,sans-Serif" font-size="10.00">serialization/array.hpp</text>
</a>
</g>
</g>
<!-- Node7&#45;&gt;Node13 -->
<g id="edge12_Node000007_Node000013" class="edge">
<title>Node7&#45;&gt;Node13</title>
<g id="a_edge12_Node000007_Node000013"><a xlink:title=" ">
<path fill="none" stroke="#63b8ff" d="M649.54,-131.87C652.94,-123.57 658.19,-110.78 662.52,-100.22"/>
<polygon fill="#63b8ff" stroke="#63b8ff" points="665.89,-101.25 666.44,-90.67 659.41,-98.59 665.89,-101.25"/>
</a>
</g>
</g>
<!-- Node22 -->
<g id="Node000022" class="node">
<title>Node22</title>
<g id="a_Node000022"><a xlink:title=" ">
<polygon fill="#e0e0e0" stroke="#999999" points="857.5,-96 750.5,-96 750.5,-66 857.5,-66 857.5,-96"/>
<text text-anchor="start" x="758.5" y="-84" font-family="Helvetica,sans-Serif" font-size="10.00">boost/serialization</text>
<text text-anchor="middle" x="804" y="-73" font-family="Helvetica,sans-Serif" font-size="10.00">/access.hpp</text>
</a>
</g>
</g>
<!-- Node7&#45;&gt;Node22 -->
<g id="edge22_Node000007_Node000022" class="edge">
<title>Node7&#45;&gt;Node22</title>
<g id="a_edge22_Node000007_Node000022"><a xlink:title=" ">
<path fill="none" stroke="#63b8ff" d="M668.97,-131.99C691.81,-123.54 727.52,-110.32 756.48,-99.59"/>
<polygon fill="#63b8ff" stroke="#63b8ff" points="757.85,-102.82 766.01,-96.06 755.42,-96.25 757.85,-102.82"/>
</a>
</g>
</g>
<!-- Node7&#45;&gt;Node23 -->
<g id="edge25_Node000007_Node000023" class="edge">
<title>Node7&#45;&gt;Node23</title>
<g id="a_edge25_Node000007_Node000023"><a xlink:title=" ">
<path fill="none" stroke="#63b8ff" d="M689.1,-133.25C692.11,-132.81 695.1,-132.39 698,-132 852.13,-111.45 894.12,-129.34 1046,-96 1048.99,-95.34 1052.06,-94.54 1055.12,-93.66"/>
<polygon fill="#63b8ff" stroke="#63b8ff" points="1056.22,-96.98 1064.7,-90.63 1054.11,-90.31 1056.22,-96.98"/>
</a>
</g>
</g>
<!-- Node24 -->
<g id="Node000024" class="node">
<title>Node24</title>
<g id="a_Node000024"><a xlink:title=" ">
<polygon fill="#e0e0e0" stroke="#999999" points="932.5,-90.5 875.5,-90.5 875.5,-71.5 932.5,-71.5 932.5,-90.5"/>
<text text-anchor="middle" x="904" y="-78.5" font-family="Helvetica,sans-Serif" font-size="10.00">ostream</text>
</a>
</g>
</g>
<!-- Node7&#45;&gt;Node24 -->
<g id="edge26_Node000007_Node000024" class="edge">
<title>Node7&#45;&gt;Node24</title>
<g id="a_edge26_Node000007_Node000024"><a xlink:title=" ">
<path fill="none" stroke="#63b8ff" d="M689.22,-132.57C743.47,-122.48 833.38,-105.25 866,-96 868.28,-95.35 870.62,-94.63 872.97,-93.87"/>
<polygon fill="#63b8ff" stroke="#63b8ff" points="874.18,-97.16 882.49,-90.58 871.89,-90.54 874.18,-97.16"/>
</a>
</g>
</g>
<!-- Node7&#45;&gt;Node25 -->
<g id="edge27_Node000007_Node000025" class="edge">
<title>Node7&#45;&gt;Node25</title>
<g id="a_edge27_Node000007_Node000025"><a xlink:title=" ">
<path fill="none" stroke="#63b8ff" d="M602.92,-132.6C559.72,-124.41 491.42,-110.77 433,-96 429.78,-95.19 426.45,-94.29 423.12,-93.37"/>
<polygon fill="#63b8ff" stroke="#63b8ff" points="423.81,-89.93 413.23,-90.53 421.88,-96.65 423.81,-89.93"/>
</a>
</g>
</g>
<!-- Node8&#45;&gt;Node9 -->
<g id="edge8_Node000008_Node000009" class="edge">
<title>Node8&#45;&gt;Node9</title>
<g id="a_edge8_Node000008_Node000009"><a xlink:title=" ">
<path fill="none" stroke="#63b8ff" d="M492.69,-71.49C482.42,-69.47 471.32,-67.48 461,-66 284.31,-40.7 234.58,-71.58 61,-30 58.69,-29.45 56.33,-28.77 53.99,-28.01"/>
<polygon fill="#63b8ff" stroke="#63b8ff" points="55.16,-24.71 44.56,-24.59 52.77,-31.29 55.16,-24.71"/>
</a>
</g>
</g>
<!-- Node10&#45;&gt;Node11 -->
<g id="edge10_Node000010_Node000011" class="edge">
<title>Node10&#45;&gt;Node11</title>
<g id="a_edge10_Node000010_Node000011"><a xlink:title=" ">
<path fill="none" stroke="#63b8ff" d="M1000.24,-71.43C1006,-69.48 1012.18,-67.54 1018,-66 1101.1,-44.06 1125.38,-53.68 1208,-30 1210.15,-29.38 1212.35,-28.69 1214.55,-27.95"/>
<polygon fill="#63b8ff" stroke="#63b8ff" points="1215.83,-31.21 1224.04,-24.51 1213.45,-24.63 1215.83,-31.21"/>
</a>
</g>
</g>
<!-- Node12 -->
<g id="Node000012" class="node">
<title>Node12</title>
<g id="a_Node000012"><a xlink:title=" ">
<polygon fill="#e0e0e0" stroke="#999999" points="1199.5,-24.5 1158.5,-24.5 1158.5,-5.5 1199.5,-5.5 1199.5,-24.5"/>
<text text-anchor="middle" x="1179" y="-12.5" font-family="Helvetica,sans-Serif" font-size="10.00">tuple</text>
</a>
</g>
</g>
<!-- Node10&#45;&gt;Node12 -->
<g id="edge11_Node000010_Node000012" class="edge">
<title>Node10&#45;&gt;Node12</title>
<g id="a_edge11_Node000010_Node000012"><a xlink:title=" ">
<path fill="none" stroke="#63b8ff" d="M1001.2,-71.46C1006.7,-69.6 1012.54,-67.68 1018,-66 1075.71,-48.24 1092.33,-50.84 1149,-30 1150.21,-29.55 1151.45,-29.08 1152.68,-28.58"/>
<polygon fill="#63b8ff" stroke="#63b8ff" points="1154.3,-31.7 1162.08,-24.5 1151.51,-25.27 1154.3,-31.7"/>
</a>
</g>
</g>
<!-- Node13&#45;&gt;Node11 -->
<g id="edge21_Node000013_Node000011" class="edge">
<title>Node13&#45;&gt;Node11</title>
<g id="a_edge21_Node000013_Node000011"><a xlink:title=" ">
<path fill="none" stroke="#63b8ff" d="M708.92,-71.47C719.3,-69.43 730.54,-67.43 741,-66 947.25,-37.81 1005.03,-76.22 1208,-30 1210.37,-29.46 1212.8,-28.79 1215.21,-28.04"/>
<polygon fill="#63b8ff" stroke="#63b8ff" points="1216.63,-31.25 1224.9,-24.63 1214.3,-24.65 1216.63,-31.25"/>
</a>
</g>
</g>
<!-- Node14 -->
<g id="Node000014" class="node">
<title>Node14</title>
<g id="a_Node000014"><a xlink:title=" ">
<polygon fill="#e0e0e0" stroke="#999999" points="877.5,-24.5 744.5,-24.5 744.5,-5.5 877.5,-5.5 877.5,-24.5"/>
<text text-anchor="middle" x="811" y="-12.5" font-family="Helvetica,sans-Serif" font-size="10.00">boost/mpl/bool_fwd.hpp</text>
</a>
</g>
</g>
<!-- Node13&#45;&gt;Node14 -->
<g id="edge13_Node000013_Node000014" class="edge">
<title>Node13&#45;&gt;Node14</title>
<g id="a_edge13_Node000013_Node000014"><a xlink:title=" ">
<path fill="none" stroke="#63b8ff" d="M689.02,-71.37C713.09,-60.44 754.77,-41.52 782.61,-28.88"/>
<polygon fill="#63b8ff" stroke="#63b8ff" points="784.18,-32.02 791.84,-24.7 781.28,-25.65 784.18,-32.02"/>
</a>
</g>
</g>
<!-- Node15 -->
<g id="Node000015" class="node">
<title>Node15</title>
<g id="a_Node000015"><a xlink:title=" ">
<polygon fill="#e0e0e0" stroke="#999999" points="1020,-24.5 896,-24.5 896,-5.5 1020,-5.5 1020,-24.5"/>
<text text-anchor="middle" x="958" y="-12.5" font-family="Helvetica,sans-Serif" font-size="10.00">boost/mpl/greater.hpp</text>
</a>
</g>
</g>
<!-- Node13&#45;&gt;Node15 -->
<g id="edge14_Node000013_Node000015" class="edge">
<title>Node13&#45;&gt;Node15</title>
<g id="a_edge14_Node000013_Node000015"><a xlink:title=" ">
<path fill="none" stroke="#63b8ff" d="M708.54,-71.44C760.6,-59.87 853.35,-39.26 909.91,-26.69"/>
<polygon fill="#63b8ff" stroke="#63b8ff" points="910.68,-30.1 919.69,-24.51 909.16,-23.27 910.68,-30.1"/>
</a>
</g>
</g>
<!-- Node16 -->
<g id="Node000016" class="node">
<title>Node16</title>
<g id="a_Node000016"><a xlink:title=" ">
<polygon fill="#e0e0e0" stroke="#999999" points="1140,-24.5 1038,-24.5 1038,-5.5 1140,-5.5 1140,-24.5"/>
<text text-anchor="middle" x="1089" y="-12.5" font-family="Helvetica,sans-Serif" font-size="10.00">boost/mpl/int.hpp</text>
</a>
</g>
</g>
<!-- Node13&#45;&gt;Node16 -->
<g id="edge15_Node000013_Node000016" class="edge">
<title>Node13&#45;&gt;Node16</title>
<g id="a_edge15_Node000013_Node000016"><a xlink:title=" ">
<path fill="none" stroke="#63b8ff" d="M710.84,-71.44C720.69,-69.51 731.2,-67.58 741,-66 868.36,-45.51 902.01,-52.69 1029,-30 1034.33,-29.05 1039.9,-27.92 1045.4,-26.74"/>
<polygon fill="#63b8ff" stroke="#63b8ff" points="1046.18,-30.15 1055.18,-24.55 1044.65,-23.32 1046.18,-30.15"/>
</a>
</g>
</g>
<!-- Node17 -->
<g id="Node000017" class="node">
<title>Node17</title>
<g id="a_Node000017"><a xlink:title=" ">
<polygon fill="#e0e0e0" stroke="#999999" points="176,-30 70,-30 70,0 176,0 176,-30"/>
<text text-anchor="start" x="78" y="-18" font-family="Helvetica,sans-Serif" font-size="10.00">boost/mpl/integral</text>
<text text-anchor="middle" x="123" y="-7" font-family="Helvetica,sans-Serif" font-size="10.00">_c_tag.hpp</text>
</a>
</g>
</g>
<!-- Node13&#45;&gt;Node17 -->
<g id="edge16_Node000013_Node000017" class="edge">
<title>Node13&#45;&gt;Node17</title>
<g id="a_edge16_Node000013_Node000017"><a xlink:title=" ">
<path fill="none" stroke="#63b8ff" d="M630.14,-71.47C619.71,-69.46 608.47,-67.47 598,-66 418.75,-40.83 368.8,-57.74 185.95,-30"/>
<polygon fill="#63b8ff" stroke="#63b8ff" points="186.43,-26.53 176.01,-28.46 185.36,-33.45 186.43,-26.53"/>
</a>
</g>
</g>
<!-- Node18 -->
<g id="Node000018" class="node">
<title>Node18</title>
<g id="a_Node000018"><a xlink:title=" ">
<polygon fill="#e0e0e0" stroke="#999999" points="345.5,-30 194.5,-30 194.5,0 345.5,0 345.5,-30"/>
<text text-anchor="start" x="202.5" y="-18" font-family="Helvetica,sans-Serif" font-size="10.00">boost/serialization</text>
<text text-anchor="middle" x="270" y="-7" font-family="Helvetica,sans-Serif" font-size="10.00">/is_bitwise_serializable.hpp</text>
</a>
</g>
</g>
<!-- Node13&#45;&gt;Node18 -->
<g id="edge17_Node000013_Node000018" class="edge">
<title>Node13&#45;&gt;Node18</title>
<g id="a_edge17_Node000013_Node000018"><a xlink:title=" ">
<path fill="none" stroke="#63b8ff" d="M627.8,-71.46C618.03,-69.58 607.67,-67.65 598,-66 493.11,-48.07 463.98,-47.06 355.58,-30.23"/>
<polygon fill="#63b8ff" stroke="#63b8ff" points="355.97,-26.74 345.55,-28.66 354.89,-33.66 355.97,-26.74"/>
</a>
</g>
</g>
<!-- Node19 -->
<g id="Node000019" class="node">
<title>Node19</title>
<g id="a_Node000019"><a xlink:title=" ">
<polygon fill="#e0e0e0" stroke="#999999" points="470.5,-30 363.5,-30 363.5,0 470.5,0 470.5,-30"/>
<text text-anchor="start" x="371.5" y="-18" font-family="Helvetica,sans-Serif" font-size="10.00">boost/serialization</text>
<text text-anchor="middle" x="417" y="-7" font-family="Helvetica,sans-Serif" font-size="10.00">/level.hpp</text>
</a>
</g>
</g>
<!-- Node13&#45;&gt;Node19 -->
<g id="edge18_Node000013_Node000019" class="edge">
<title>Node13&#45;&gt;Node19</title>
<g id="a_edge18_Node000013_Node000019"><a xlink:title=" ">
<path fill="none" stroke="#63b8ff" d="M636.14,-71.44C596.46,-61.4 529.86,-44.55 480.47,-32.06"/>
<polygon fill="#63b8ff" stroke="#63b8ff" points="481.08,-28.6 470.52,-29.54 479.36,-35.39 481.08,-28.6"/>
</a>
</g>
</g>
<!-- Node20 -->
<g id="Node000020" class="node">
<title>Node20</title>
<g id="a_Node000020"><a xlink:title=" ">
<polygon fill="#e0e0e0" stroke="#999999" points="595.5,-30 488.5,-30 488.5,0 595.5,0 595.5,-30"/>
<text text-anchor="start" x="496.5" y="-18" font-family="Helvetica,sans-Serif" font-size="10.00">boost/serialization</text>
<text text-anchor="middle" x="542" y="-7" font-family="Helvetica,sans-Serif" font-size="10.00">/tracking.hpp</text>
</a>
</g>
</g>
<!-- Node13&#45;&gt;Node20 -->
<g id="edge19_Node000013_Node000020" class="edge">
<title>Node13&#45;&gt;Node20</title>
<g id="a_edge19_Node000013_Node000020"><a xlink:title=" ">
<path fill="none" stroke="#63b8ff" d="M652.74,-71.37C633.98,-61.99 603.44,-46.72 579.18,-34.59"/>
<polygon fill="#63b8ff" stroke="#63b8ff" points="580.74,-31.46 570.23,-30.12 577.61,-37.72 580.74,-31.46"/>
</a>
</g>
</g>
<!-- Node21 -->
<g id="Node000021" class="node">
<title>Node21</title>
<g id="a_Node000021"><a xlink:title=" ">
<polygon fill="#e0e0e0" stroke="#999999" points="726.5,-30 613.5,-30 613.5,0 726.5,0 726.5,-30"/>
<text text-anchor="start" x="621.5" y="-18" font-family="Helvetica,sans-Serif" font-size="10.00">boost/serialization</text>
<text text-anchor="middle" x="670" y="-7" font-family="Helvetica,sans-Serif" font-size="10.00">/tracking_enum.hpp</text>
</a>
</g>
</g>
<!-- Node13&#45;&gt;Node21 -->
<g id="edge20_Node000013_Node000021" class="edge">
<title>Node13&#45;&gt;Node21</title>
<g id="a_edge20_Node000013_Node000021"><a xlink:title=" ">
<path fill="none" stroke="#63b8ff" d="M670,-71.37C670,-63.49 670,-51.45 670,-40.6"/>
<polygon fill="#63b8ff" stroke="#63b8ff" points="673.5,-40.36 670,-30.36 666.5,-40.36 673.5,-40.36"/>
</a>
</g>
</g>
<!-- Node35&#45;&gt;Node4 -->
<g id="edge45_Node000035_Node000004" class="edge">
<title>Node35&#45;&gt;Node4</title>
<g id="a_edge45_Node000035_Node000004"><a xlink:title=" ">
<path fill="none" stroke="#63b8ff" d="M1008.05,-252.87C1024.62,-243.36 1051.5,-227.95 1070.99,-216.77"/>
<polygon fill="#63b8ff" stroke="#63b8ff" points="1072.95,-219.68 1079.89,-211.67 1069.47,-213.61 1072.95,-219.68"/>
</a>
</g>
</g>
<!-- Node35&#45;&gt;Node7 -->
<g id="edge44_Node000035_Node000007" class="edge">
<title>Node35&#45;&gt;Node7</title>
<g id="a_edge44_Node000035_Node000007"><a xlink:title=" ">
<path fill="none" stroke="#63b8ff" d="M968.04,-252.94C907.17,-232.07 750.93,-178.48 680.88,-154.46"/>
<polygon fill="#63b8ff" stroke="#63b8ff" points="681.79,-151.07 671.2,-151.14 679.52,-157.7 681.79,-151.07"/>
</a>
</g>
</g>
<!-- Node36 -->
<g id="Node000036" class="node">
<title>Node36</title>
<g id="a_Node000036"><a xlink:href="CellStructureType_8hpp.html" target="_top" xlink:title=" ">
<polygon fill="white" stroke="#666666" points="1030.5,-217 889.5,-217 889.5,-187 1030.5,-187 1030.5,-217"/>
<text text-anchor="start" x="897.5" y="-205" font-family="Helvetica,sans-Serif" font-size="10.00">cell_system/CellStructure</text>
<text text-anchor="middle" x="960" y="-194" font-family="Helvetica,sans-Serif" font-size="10.00">Type.hpp</text>
</a>
</g>
</g>
<!-- Node35&#45;&gt;Node36 -->
<g id="edge43_Node000035_Node000036" class="edge">
<title>Node35&#45;&gt;Node36</title>
<g id="a_edge43_Node000035_Node000036"><a xlink:title=" ">
<path fill="none" stroke="#63b8ff" d="M988.13,-252.87C984.15,-245.81 978.33,-235.5 973.02,-226.08"/>
<polygon fill="#63b8ff" stroke="#63b8ff" points="975.92,-224.1 967.96,-217.11 969.83,-227.54 975.92,-224.1"/>
</a>
</g>
</g>
</g>
</svg>
