<?xml version="1.0" encoding="UTF-8" standalone="no"?>
<!DOCTYPE svg PUBLIC "-//W3C//DTD SVG 1.1//EN"
 "http://www.w3.org/Graphics/SVG/1.1/DTD/svg11.dtd">
<!-- Generated by graphviz version 2.43.0 (0)
 -->
<!-- Title: PackInfoPdfSinglePrecision.h Pages: 1 -->
<svg width="381pt" height="247pt"
 viewBox="0.00 0.00 381.00 247.00" xmlns="http://www.w3.org/2000/svg" xmlns:xlink="http://www.w3.org/1999/xlink">

<svg id="main" version="1.1" xmlns="http://www.w3.org/2000/svg" xmlns:xlink="http://www.w3.org/1999/xlink" xml:space="preserve" onload="init(evt)">
<style type="text/css"><![CDATA[
.node, .edge {opacity: 0.7;}
.node.selected, .edge.selected {opacity: 1;}
.edge:hover path { stroke: red; }
.edge:hover polygon { stroke: red; fill: red; }
]]></style>
<script type="application/ecmascript" xlink:href="svg.min.js"/>
<svg id="graph" class="graph">
<g id="graph0" class="graph" transform="scale(1 1) rotate(0) translate(4 243)">
<title>PackInfoPdfSinglePrecision.h</title>
<!-- Node1 -->
<g id="Node000001" class="node">
<title>Node1</title>
<g id="a_Node000001"><a xlink:title=" ">
<polygon fill="#999999" stroke="#666666" points="235.5,-239 78.5,-239 78.5,-220 235.5,-220 235.5,-239"/>
<text text-anchor="middle" x="157" y="-227" font-family="Helvetica,sans-Serif" font-size="10.00">PackInfoPdfSinglePrecision.h</text>
</a>
</g>
</g>
<!-- Node2 -->
<g id="Node000002" class="node">
<title>Node2</title>
<g id="a_Node000002"><a xlink:href="PackInfoPdfSinglePrecision_8cpp.html" target="_top" xlink:title=" ">
<polygon fill="white" stroke="#666666" points="168,-184 0,-184 0,-165 168,-165 168,-184"/>
<text text-anchor="middle" x="84" y="-172" font-family="Helvetica,sans-Serif" font-size="10.00">PackInfoPdfSinglePrecision.cpp</text>
</a>
</g>
</g>
<!-- Node1&#45;&gt;Node2 -->
<g id="edge1_Node000001_Node000002" class="edge">
<title>Node1&#45;&gt;Node2</title>
<g id="a_edge1_Node000001_Node000002"><a xlink:title=" ">
<path fill="none" stroke="#63b8ff" d="M136.86,-213.88C123.72,-204.34 107.02,-192.21 95.94,-184.17"/>
<polygon fill="#63b8ff" stroke="#63b8ff" points="135.12,-216.94 145.27,-219.98 139.24,-211.28 135.12,-216.94"/>
</a>
</g>
</g>
<!-- Node3 -->
<g id="Node000003" class="node">
<title>Node3</title>
<g id="a_Node000003"><a xlink:href="lb__kernels_8hpp.html" target="_top" xlink:title=" ">
<polygon fill="white" stroke="#666666" points="273.5,-184 186.5,-184 186.5,-165 273.5,-165 273.5,-184"/>
<text text-anchor="middle" x="230" y="-172" font-family="Helvetica,sans-Serif" font-size="10.00">lb_kernels.hpp</text>
</a>
</g>
</g>
<!-- Node1&#45;&gt;Node3 -->
<g id="edge2_Node000001_Node000003" class="edge">
<title>Node1&#45;&gt;Node3</title>
<g id="a_edge2_Node000001_Node000003"><a xlink:title=" ">
<path fill="none" stroke="#63b8ff" d="M177.14,-213.88C190.28,-204.34 206.98,-192.21 218.06,-184.17"/>
<polygon fill="#63b8ff" stroke="#63b8ff" points="174.76,-211.28 168.73,-219.98 178.88,-216.94 174.76,-211.28"/>
</a>
</g>
</g>
<!-- Node4 -->
<g id="Node000004" class="node">
<title>Node4</title>
<g id="a_Node000004"><a xlink:href="LBWalberlaImpl_8hpp.html" target="_top" xlink:title="walberla::LBWalberlaImpl implements the interface of the LB waLBerla bridge using sweeps generated by...">
<polygon fill="white" stroke="#666666" points="247,-74 133,-74 133,-55 247,-55 247,-74"/>
<text text-anchor="middle" x="190" y="-62" font-family="Helvetica,sans-Serif" font-size="10.00">LBWalberlaImpl.hpp</text>
</a>
</g>
</g>
<!-- Node3&#45;&gt;Node4 -->
<g id="edge3_Node000003_Node000004" class="edge">
<title>Node3&#45;&gt;Node4</title>
<g id="a_edge3_Node000003_Node000004"><a xlink:title=" ">
<path fill="none" stroke="#63b8ff" d="M207.37,-158.97C197.63,-151.35 187.27,-141.08 182,-129 174,-110.67 181.2,-86.72 186.19,-74.12"/>
<polygon fill="#63b8ff" stroke="#63b8ff" points="205.48,-161.93 215.63,-164.96 209.59,-156.26 205.48,-161.93"/>
</a>
</g>
</g>
<!-- Node7 -->
<g id="Node000007" class="node">
<title>Node7</title>
<g id="a_Node000007"><a xlink:href="lb__fields_8hpp.html" target="_top" xlink:title=" ">
<polygon fill="white" stroke="#666666" points="269,-129 191,-129 191,-110 269,-110 269,-129"/>
<text text-anchor="middle" x="230" y="-117" font-family="Helvetica,sans-Serif" font-size="10.00">lb_fields.hpp</text>
</a>
</g>
</g>
<!-- Node3&#45;&gt;Node7 -->
<g id="edge6_Node000003_Node000007" class="edge">
<title>Node3&#45;&gt;Node7</title>
<g id="a_edge6_Node000003_Node000007"><a xlink:title=" ">
<path fill="none" stroke="#63b8ff" d="M230,-154.66C230,-145.93 230,-135.99 230,-129.09"/>
<polygon fill="#63b8ff" stroke="#63b8ff" points="226.5,-154.75 230,-164.75 233.5,-154.75 226.5,-154.75"/>
</a>
</g>
</g>
<!-- Node8 -->
<g id="Node000008" class="node">
<title>Node8</title>
<g id="a_Node000008"><a xlink:href="lb__kernels_8cuh.html" target="_top" xlink:title=" ">
<polygon fill="white" stroke="#666666" points="373,-129 287,-129 287,-110 373,-110 373,-129"/>
<text text-anchor="middle" x="330" y="-117" font-family="Helvetica,sans-Serif" font-size="10.00">lb_kernels.cuh</text>
</a>
</g>
</g>
<!-- Node3&#45;&gt;Node8 -->
<g id="edge8_Node000003_Node000008" class="edge">
<title>Node3&#45;&gt;Node8</title>
<g id="a_edge8_Node000003_Node000008"><a xlink:title=" ">
<path fill="none" stroke="#63b8ff" d="M255.03,-160.23C273.37,-150.51 297.74,-137.6 313.64,-129.17"/>
<polygon fill="#63b8ff" stroke="#63b8ff" points="253.26,-157.21 246.07,-164.98 256.54,-163.39 253.26,-157.21"/>
</a>
</g>
</g>
<!-- Node5 -->
<g id="Node000005" class="node">
<title>Node5</title>
<g id="a_Node000005"><a xlink:href="lb__walberla__init_8cpp.html" target="_top" xlink:title=" ">
<polygon fill="white" stroke="#666666" points="183,-19 69,-19 69,0 183,0 183,-19"/>
<text text-anchor="middle" x="126" y="-7" font-family="Helvetica,sans-Serif" font-size="10.00">lb_walberla_init.cpp</text>
</a>
</g>
</g>
<!-- Node4&#45;&gt;Node5 -->
<g id="edge4_Node000004_Node000005" class="edge">
<title>Node4&#45;&gt;Node5</title>
<g id="a_edge4_Node000004_Node000005"><a xlink:title=" ">
<path fill="none" stroke="#63b8ff" d="M172.01,-48.6C160.54,-39.11 146.09,-27.13 136.47,-19.17"/>
<polygon fill="#63b8ff" stroke="#63b8ff" points="169.78,-51.3 179.72,-54.98 174.25,-45.91 169.78,-51.3"/>
</a>
</g>
</g>
<!-- Node6 -->
<g id="Node000006" class="node">
<title>Node6</title>
<g id="a_Node000006"><a xlink:href="lb__walberla__init_8cu.html" target="_top" xlink:title=" ">
<polygon fill="white" stroke="#666666" points="309,-19 201,-19 201,0 309,0 309,-19"/>
<text text-anchor="middle" x="255" y="-7" font-family="Helvetica,sans-Serif" font-size="10.00">lb_walberla_init.cu</text>
</a>
</g>
</g>
<!-- Node4&#45;&gt;Node6 -->
<g id="edge5_Node000004_Node000006" class="edge">
<title>Node4&#45;&gt;Node6</title>
<g id="a_edge5_Node000004_Node000006"><a xlink:title=" ">
<path fill="none" stroke="#63b8ff" d="M208.27,-48.6C219.92,-39.11 234.6,-27.13 244.37,-19.17"/>
<polygon fill="#63b8ff" stroke="#63b8ff" points="205.98,-45.95 200.44,-54.98 210.41,-51.38 205.98,-45.95"/>
</a>
</g>
</g>
<!-- Node7&#45;&gt;Node4 -->
<g id="edge7_Node000007_Node000004" class="edge">
<title>Node7&#45;&gt;Node4</title>
<g id="a_edge7_Node000007_Node000004"><a xlink:title=" ">
<path fill="none" stroke="#63b8ff" d="M217.3,-101.67C210.37,-92.5 202.09,-81.52 196.48,-74.09"/>
<polygon fill="#63b8ff" stroke="#63b8ff" points="214.58,-103.87 223.39,-109.75 220.16,-99.66 214.58,-103.87"/>
</a>
</g>
</g>
<!-- Node9 -->
<g id="Node000009" class="node">
<title>Node9</title>
<g id="a_Node000009"><a xlink:href="lb__fields_8cuh.html" target="_top" xlink:title=" ">
<polygon fill="white" stroke="#666666" points="368.5,-74 291.5,-74 291.5,-55 368.5,-55 368.5,-74"/>
<text text-anchor="middle" x="330" y="-62" font-family="Helvetica,sans-Serif" font-size="10.00">lb_fields.cuh</text>
</a>
</g>
</g>
<!-- Node8&#45;&gt;Node9 -->
<g id="edge9_Node000008_Node000009" class="edge">
<title>Node8&#45;&gt;Node9</title>
<g id="a_edge9_Node000008_Node000009"><a xlink:title=" ">
<path fill="none" stroke="#63b8ff" d="M330,-99.66C330,-90.93 330,-80.99 330,-74.09"/>
<polygon fill="#63b8ff" stroke="#63b8ff" points="326.5,-99.75 330,-109.75 333.5,-99.75 326.5,-99.75"/>
</a>
</g>
</g>
</g>
</svg>
</svg>

<style type='text/css'>
<![CDATA[
[data-mouse-over-selected='false'] { opacity: 0.7; }
[data-mouse-over-selected='true']  { opacity: 1.0; }
]]>
</style>
<script type="application/ecmascript"><![CDATA[
document.addEventListener('DOMContentLoaded', (event) => {
  highlightEdges();
  highlightAdjacentNodes();
});
]]></script>
</svg>
