<?xml version="1.0" encoding="UTF-8" standalone="no"?>
<!DOCTYPE svg PUBLIC "-//W3C//DTD SVG 1.1//EN"
 "http://www.w3.org/Graphics/SVG/1.1/DTD/svg11.dtd">
<!-- Generated by graphviz version 2.43.0 (0)
 -->
<!-- Title: pack.hpp Pages: 1 -->
<svg width="1217pt" height="247pt"
 viewBox="0.00 0.00 1217.00 247.00" xmlns="http://www.w3.org/2000/svg" xmlns:xlink="http://www.w3.org/1999/xlink">
<g id="graph0" class="graph" transform="scale(1 1) rotate(0) translate(4 243)">
<title>pack.hpp</title>
<!-- Node1 -->
<g id="Node000001" class="node">
<title>Node1</title>
<g id="a_Node000001"><a xlink:title=" ">
<polygon fill="#999999" stroke="#666666" points="447,-239 386,-239 386,-220 447,-220 447,-239"/>
<text text-anchor="middle" x="416.5" y="-227" font-family="Helvetica,sans-Serif" font-size="10.00">pack.hpp</text>
</a>
</g>
</g>
<!-- Node2 -->
<g id="Node000002" class="node">
<title>Node2</title>
<g id="a_Node000002"><a xlink:href="ContextManager_8cpp.html" target="_top" xlink:title=" ">
<polygon fill="white" stroke="#666666" points="117,-74 0,-74 0,-55 117,-55 117,-74"/>
<text text-anchor="middle" x="58.5" y="-62" font-family="Helvetica,sans-Serif" font-size="10.00">ContextManager.cpp</text>
</a>
</g>
</g>
<!-- Node1&#45;&gt;Node2 -->
<g id="edge1_Node000001_Node000002" class="edge">
<title>Node1&#45;&gt;Node2</title>
<g id="a_edge1_Node000001_Node000002"><a xlink:title=" ">
<path fill="none" stroke="#63b8ff" d="M375.66,-225.62C309.51,-220.34 182.48,-207.42 144.5,-184 99.93,-156.51 71.4,-96.53 61.96,-74.15"/>
<polygon fill="#63b8ff" stroke="#63b8ff" points="375.49,-229.12 385.73,-226.4 376.04,-222.14 375.49,-229.12"/>
</a>
</g>
</g>
<!-- Node3 -->
<g id="Node000003" class="node">
<title>Node3</title>
<g id="a_Node000003"><a xlink:href="GlobalContext_8cpp.html" target="_top" xlink:title="Infrastructure to synchronize objects created on the head node with their corresponding remote copies...">
<polygon fill="white" stroke="#666666" points="242,-74 135,-74 135,-55 242,-55 242,-74"/>
<text text-anchor="middle" x="188.5" y="-62" font-family="Helvetica,sans-Serif" font-size="10.00">GlobalContext.cpp</text>
</a>
</g>
</g>
<!-- Node1&#45;&gt;Node3 -->
<g id="edge2_Node000001_Node000003" class="edge">
<title>Node1&#45;&gt;Node3</title>
<g id="a_edge2_Node000001_Node000003"><a xlink:title=" ">
<path fill="none" stroke="#63b8ff" d="M375.54,-225.7C329.2,-221.34 252.29,-210.48 191.5,-184 153.27,-167.35 134.46,-166.13 115.5,-129 102.74,-104.02 137.69,-84.61 163.54,-74.13"/>
<polygon fill="#63b8ff" stroke="#63b8ff" points="375.52,-229.21 385.79,-226.6 376.13,-222.24 375.52,-229.21"/>
</a>
</g>
</g>
<!-- Node4 -->
<g id="Node000004" class="node">
<title>Node4</title>
<g id="a_Node000004"><a xlink:href="NonBondedInteractions_8hpp.html" target="_top" xlink:title=" ">
<polygon fill="white" stroke="#666666" points="706.5,-184 554.5,-184 554.5,-165 706.5,-165 706.5,-184"/>
<text text-anchor="middle" x="630.5" y="-172" font-family="Helvetica,sans-Serif" font-size="10.00">NonBondedInteractions.hpp</text>
</a>
</g>
</g>
<!-- Node1&#45;&gt;Node4 -->
<g id="edge3_Node000001_Node000004" class="edge">
<title>Node1&#45;&gt;Node4</title>
<g id="a_edge3_Node000001_Node000004"><a xlink:title=" ">
<path fill="none" stroke="#63b8ff" d="M456.9,-218.49C497.07,-208.55 558.03,-193.45 596,-184.05"/>
<polygon fill="#63b8ff" stroke="#63b8ff" points="456.03,-215.1 447.16,-220.91 457.71,-221.9 456.03,-215.1"/>
</a>
</g>
</g>
<!-- Node5 -->
<g id="Node000005" class="node">
<title>Node5</title>
<g id="a_Node000005"><a xlink:href="script__interface_2system_2System_8cpp.html" target="_top" xlink:title=" ">
<polygon fill="white" stroke="#666666" points="689.5,-74 615.5,-74 615.5,-55 689.5,-55 689.5,-74"/>
<text text-anchor="middle" x="652.5" y="-62" font-family="Helvetica,sans-Serif" font-size="10.00">System.cpp</text>
</a>
</g>
</g>
<!-- Node1&#45;&gt;Node5 -->
<g id="edge22_Node000001_Node000005" class="edge">
<title>Node1&#45;&gt;Node5</title>
<g id="a_edge22_Node000001_Node000005"><a xlink:title=" ">
<path fill="none" stroke="#63b8ff" d="M433.29,-212.93C467.51,-181.24 542.34,-112.02 545.5,-110 570.59,-93.97 602.43,-81.6 624.83,-74.02"/>
<polygon fill="#63b8ff" stroke="#63b8ff" points="430.86,-210.41 425.91,-219.78 435.62,-215.55 430.86,-210.41"/>
</a>
</g>
</g>
<!-- Node7 -->
<g id="Node000007" class="node">
<title>Node7</title>
<g id="a_Node000007"><a xlink:href="ObjectHandle_8cpp.html" target="_top" xlink:title=" ">
<polygon fill="white" stroke="#666666" points="388,-74 285,-74 285,-55 388,-55 388,-74"/>
<text text-anchor="middle" x="336.5" y="-62" font-family="Helvetica,sans-Serif" font-size="10.00">ObjectHandle.cpp</text>
</a>
</g>
</g>
<!-- Node1&#45;&gt;Node7 -->
<g id="edge6_Node000001_Node000007" class="edge">
<title>Node1&#45;&gt;Node7</title>
<g id="a_edge6_Node000001_Node000007"><a xlink:title=" ">
<path fill="none" stroke="#63b8ff" d="M404.24,-211.59C390.76,-192.37 369.21,-159.68 355.5,-129 347.14,-110.3 341.22,-86.91 338.39,-74.38"/>
<polygon fill="#63b8ff" stroke="#63b8ff" points="401.48,-213.76 410.13,-219.87 407.19,-209.7 401.48,-213.76"/>
</a>
</g>
</g>
<!-- Node8 -->
<g id="Node000008" class="node">
<title>Node8</title>
<g id="a_Node000008"><a xlink:href="ObjectList_8hpp.html" target="_top" xlink:title=" ">
<polygon fill="white" stroke="#666666" points="980.5,-184 894.5,-184 894.5,-165 980.5,-165 980.5,-184"/>
<text text-anchor="middle" x="937.5" y="-172" font-family="Helvetica,sans-Serif" font-size="10.00">ObjectList.hpp</text>
</a>
</g>
</g>
<!-- Node1&#45;&gt;Node8 -->
<g id="edge7_Node000001_Node000008" class="edge">
<title>Node1&#45;&gt;Node8</title>
<g id="a_edge7_Node000001_Node000008"><a xlink:title=" ">
<path fill="none" stroke="#63b8ff" d="M457.37,-224.34C553.89,-214.52 795.23,-189.97 894.16,-179.91"/>
<polygon fill="#63b8ff" stroke="#63b8ff" points="456.74,-220.89 447.15,-225.38 457.45,-227.85 456.74,-220.89"/>
</a>
</g>
</g>
<!-- Node18 -->
<g id="Node000018" class="node">
<title>Node18</title>
<g id="a_Node000018"><a xlink:href="ParticleList_8cpp.html" target="_top" xlink:title=" ">
<polygon fill="white" stroke="#666666" points="515.5,-74 425.5,-74 425.5,-55 515.5,-55 515.5,-74"/>
<text text-anchor="middle" x="470.5" y="-62" font-family="Helvetica,sans-Serif" font-size="10.00">ParticleList.cpp</text>
</a>
</g>
</g>
<!-- Node1&#45;&gt;Node18 -->
<g id="edge21_Node000001_Node000018" class="edge">
<title>Node1&#45;&gt;Node18</title>
<g id="a_edge21_Node000001_Node000018"><a xlink:title=" ">
<path fill="none" stroke="#63b8ff" d="M428.42,-211.55C441.07,-192.49 460.33,-160.13 468.5,-129 473.48,-110.01 472.5,-86.73 471.44,-74.3"/>
<polygon fill="#63b8ff" stroke="#63b8ff" points="425.4,-209.76 422.66,-220 431.19,-213.71 425.4,-209.76"/>
</a>
</g>
</g>
<!-- Node19 -->
<g id="Node000019" class="node">
<title>Node19</title>
<g id="a_Node000019"><a xlink:href="packed__variant_8hpp.html" target="_top" xlink:title=" ">
<polygon fill="white" stroke="#666666" points="312.5,-184 200.5,-184 200.5,-165 312.5,-165 312.5,-184"/>
<text text-anchor="middle" x="256.5" y="-172" font-family="Helvetica,sans-Serif" font-size="10.00">packed_variant.hpp</text>
</a>
</g>
</g>
<!-- Node1&#45;&gt;Node19 -->
<g id="edge23_Node000001_Node000019" class="edge">
<title>Node1&#45;&gt;Node19</title>
<g id="a_edge23_Node000001_Node000019"><a xlink:title=" ">
<path fill="none" stroke="#63b8ff" d="M381.17,-216.8C351.31,-206.91 309.23,-192.97 282.41,-184.08"/>
<polygon fill="#63b8ff" stroke="#63b8ff" points="380.2,-220.16 390.79,-219.98 382.4,-213.52 380.2,-220.16"/>
</a>
</g>
</g>
<!-- Node4&#45;&gt;Node5 -->
<g id="edge4_Node000004_Node000005" class="edge">
<title>Node4&#45;&gt;Node5</title>
<g id="a_edge4_Node000004_Node000005"><a xlink:title=" ">
<path fill="none" stroke="#63b8ff" d="M635.97,-154.99C638.19,-147.04 640.67,-137.61 642.5,-129 646.64,-109.57 649.86,-86.46 651.43,-74.18"/>
<polygon fill="#63b8ff" stroke="#63b8ff" points="632.58,-154.12 633.17,-164.7 639.3,-156.06 632.58,-154.12"/>
</a>
</g>
</g>
<!-- Node6 -->
<g id="Node000006" class="node">
<title>Node6</title>
<g id="a_Node000006"><a xlink:href="interactions_2initialize_8cpp.html" target="_top" xlink:title=" ">
<polygon fill="white" stroke="#666666" points="634,-129 555,-129 555,-110 634,-110 634,-129"/>
<text text-anchor="middle" x="594.5" y="-117" font-family="Helvetica,sans-Serif" font-size="10.00">initialize.cpp</text>
</a>
</g>
</g>
<!-- Node4&#45;&gt;Node6 -->
<g id="edge5_Node000004_Node000006" class="edge">
<title>Node4&#45;&gt;Node6</title>
<g id="a_edge5_Node000004_Node000006"><a xlink:title=" ">
<path fill="none" stroke="#63b8ff" d="M618.88,-156.39C612.68,-147.27 605.33,-136.45 600.33,-129.09"/>
<polygon fill="#63b8ff" stroke="#63b8ff" points="616.04,-158.44 624.56,-164.75 621.83,-154.51 616.04,-158.44"/>
</a>
</g>
</g>
<!-- Node9 -->
<g id="Node000009" class="node">
<title>Node9</title>
<g id="a_Node000009"><a xlink:href="script__interface_2accumulators_2AutoUpdateAccumulators_8hpp.html" target="_top" xlink:title=" ">
<polygon fill="white" stroke="#666666" points="964.5,-129 802.5,-129 802.5,-110 964.5,-110 964.5,-129"/>
<text text-anchor="middle" x="883.5" y="-117" font-family="Helvetica,sans-Serif" font-size="10.00">AutoUpdateAccumulators.hpp</text>
</a>
</g>
</g>
<!-- Node8&#45;&gt;Node9 -->
<g id="edge8_Node000008_Node000009" class="edge">
<title>Node8&#45;&gt;Node9</title>
<g id="a_edge8_Node000008_Node000009"><a xlink:title=" ">
<path fill="none" stroke="#63b8ff" d="M921.22,-157.52C911.7,-148.18 900.06,-136.75 892.25,-129.09"/>
<polygon fill="#63b8ff" stroke="#63b8ff" points="918.99,-160.24 928.58,-164.75 923.9,-155.25 918.99,-160.24"/>
</a>
</g>
</g>
<!-- Node11 -->
<g id="Node000011" class="node">
<title>Node11</title>
<g id="a_Node000011"><a xlink:href="script__interface_2constraints_2Constraints_8hpp.html" target="_top" xlink:title=" ">
<polygon fill="white" stroke="#666666" points="784,-129 691,-129 691,-110 784,-110 784,-129"/>
<text text-anchor="middle" x="737.5" y="-117" font-family="Helvetica,sans-Serif" font-size="10.00">Constraints.hpp</text>
</a>
</g>
</g>
<!-- Node8&#45;&gt;Node11 -->
<g id="edge11_Node000008_Node000011" class="edge">
<title>Node8&#45;&gt;Node11</title>
<g id="a_edge11_Node000008_Node000011"><a xlink:title=" ">
<path fill="none" stroke="#63b8ff" d="M895.28,-162.31C857.85,-152.39 804,-138.12 769.89,-129.08"/>
<polygon fill="#63b8ff" stroke="#63b8ff" points="894.8,-165.81 905.37,-164.98 896.6,-159.04 894.8,-165.81"/>
</a>
</g>
</g>
<!-- Node13 -->
<g id="Node000013" class="node">
<title>Node13</title>
<g id="a_Node000013"><a xlink:href="script__interface_2walberla_2EKContainer_8hpp.html" target="_top" xlink:title=" ">
<polygon fill="white" stroke="#666666" points="1041.5,-74 945.5,-74 945.5,-55 1041.5,-55 1041.5,-74"/>
<text text-anchor="middle" x="993.5" y="-62" font-family="Helvetica,sans-Serif" font-size="10.00">EKContainer.hpp</text>
</a>
</g>
</g>
<!-- Node8&#45;&gt;Node13 -->
<g id="edge14_Node000008_Node000013" class="edge">
<title>Node8&#45;&gt;Node13</title>
<g id="a_edge14_Node000008_Node000013"><a xlink:title=" ">
<path fill="none" stroke="#63b8ff" d="M953.17,-157.2C960.18,-149.21 968.06,-139.14 973.5,-129 983.34,-110.67 989.23,-86.72 991.86,-74.12"/>
<polygon fill="#63b8ff" stroke="#63b8ff" points="950.49,-154.94 946.33,-164.69 955.66,-159.66 950.49,-154.94"/>
</a>
</g>
</g>
<!-- Node15 -->
<g id="Node000015" class="node">
<title>Node15</title>
<g id="a_Node000015"><a xlink:href="script__interface_2walberla_2EKReactions_8hpp.html" target="_top" xlink:title=" ">
<polygon fill="white" stroke="#666666" points="1118.5,-129 1020.5,-129 1020.5,-110 1118.5,-110 1118.5,-129"/>
<text text-anchor="middle" x="1069.5" y="-117" font-family="Helvetica,sans-Serif" font-size="10.00">EKReactions.hpp</text>
</a>
</g>
</g>
<!-- Node8&#45;&gt;Node15 -->
<g id="edge16_Node000008_Node000015" class="edge">
<title>Node8&#45;&gt;Node15</title>
<g id="a_edge16_Node000008_Node000015"><a xlink:title=" ">
<path fill="none" stroke="#63b8ff" d="M968.23,-161.16C992.67,-151.35 1026.24,-137.87 1047.91,-129.17"/>
<polygon fill="#63b8ff" stroke="#63b8ff" points="966.68,-158.01 958.71,-164.98 969.29,-164.51 966.68,-158.01"/>
</a>
</g>
</g>
<!-- Node16 -->
<g id="Node000016" class="node">
<title>Node16</title>
<g id="a_Node000016"><a xlink:href="script__interface_2shapes_2Union_8hpp.html" target="_top" xlink:title=" ">
<polygon fill="white" stroke="#666666" points="1202.5,-129 1136.5,-129 1136.5,-110 1202.5,-110 1202.5,-129"/>
<text text-anchor="middle" x="1169.5" y="-117" font-family="Helvetica,sans-Serif" font-size="10.00">Union.hpp</text>
</a>
</g>
</g>
<!-- Node8&#45;&gt;Node16 -->
<g id="edge19_Node000008_Node000016" class="edge">
<title>Node8&#45;&gt;Node16</title>
<g id="a_edge19_Node000008_Node000016"><a xlink:title=" ">
<path fill="none" stroke="#63b8ff" d="M984.62,-162.74C1029.76,-152.42 1096.72,-137.13 1136.45,-128.05"/>
<polygon fill="#63b8ff" stroke="#63b8ff" points="983.74,-159.35 974.77,-164.98 985.3,-166.17 983.74,-159.35"/>
</a>
</g>
</g>
<!-- Node9&#45;&gt;Node5 -->
<g id="edge9_Node000009_Node000005" class="edge">
<title>Node9&#45;&gt;Node5</title>
<g id="a_edge9_Node000009_Node000005"><a xlink:title=" ">
<path fill="none" stroke="#63b8ff" d="M836.63,-107.75C793.21,-97.78 729.48,-83.16 689.52,-73.99"/>
<polygon fill="#63b8ff" stroke="#63b8ff" points="835.86,-111.16 846.39,-109.98 837.42,-104.34 835.86,-111.16"/>
</a>
</g>
</g>
<!-- Node10 -->
<g id="Node000010" class="node">
<title>Node10</title>
<g id="a_Node000010"><a xlink:href="accumulators_2initialize_8cpp.html" target="_top" xlink:title=" ">
<polygon fill="white" stroke="#666666" points="923,-74 844,-74 844,-55 923,-55 923,-74"/>
<text text-anchor="middle" x="883.5" y="-62" font-family="Helvetica,sans-Serif" font-size="10.00">initialize.cpp</text>
</a>
</g>
</g>
<!-- Node9&#45;&gt;Node10 -->
<g id="edge10_Node000009_Node000010" class="edge">
<title>Node9&#45;&gt;Node10</title>
<g id="a_edge10_Node000009_Node000010"><a xlink:title=" ">
<path fill="none" stroke="#63b8ff" d="M883.5,-99.66C883.5,-90.93 883.5,-80.99 883.5,-74.09"/>
<polygon fill="#63b8ff" stroke="#63b8ff" points="880,-99.75 883.5,-109.75 887,-99.75 880,-99.75"/>
</a>
</g>
</g>
<!-- Node11&#45;&gt;Node5 -->
<g id="edge12_Node000011_Node000005" class="edge">
<title>Node11&#45;&gt;Node5</title>
<g id="a_edge12_Node000011_Node000005"><a xlink:title=" ">
<path fill="none" stroke="#63b8ff" d="M714.93,-104.42C699.5,-94.81 679.55,-82.37 666.41,-74.17"/>
<polygon fill="#63b8ff" stroke="#63b8ff" points="713.51,-107.66 723.84,-109.98 717.21,-101.72 713.51,-107.66"/>
</a>
</g>
</g>
<!-- Node12 -->
<g id="Node000012" class="node">
<title>Node12</title>
<g id="a_Node000012"><a xlink:href="constraints_2initialize_8cpp.html" target="_top" xlink:title=" ">
<polygon fill="white" stroke="#666666" points="787,-74 708,-74 708,-55 787,-55 787,-74"/>
<text text-anchor="middle" x="747.5" y="-62" font-family="Helvetica,sans-Serif" font-size="10.00">initialize.cpp</text>
</a>
</g>
</g>
<!-- Node11&#45;&gt;Node12 -->
<g id="edge13_Node000011_Node000012" class="edge">
<title>Node11&#45;&gt;Node12</title>
<g id="a_edge13_Node000011_Node000012"><a xlink:title=" ">
<path fill="none" stroke="#63b8ff" d="M741.05,-99.66C742.7,-90.93 744.58,-80.99 745.88,-74.09"/>
<polygon fill="#63b8ff" stroke="#63b8ff" points="737.57,-99.27 739.15,-109.75 744.44,-100.57 737.57,-99.27"/>
</a>
</g>
</g>
<!-- Node14 -->
<g id="Node000014" class="node">
<title>Node14</title>
<g id="a_Node000014"><a xlink:href="walberla_2initialize_8cpp.html" target="_top" xlink:title=" ">
<polygon fill="white" stroke="#666666" points="1071,-19 992,-19 992,0 1071,0 1071,-19"/>
<text text-anchor="middle" x="1031.5" y="-7" font-family="Helvetica,sans-Serif" font-size="10.00">initialize.cpp</text>
</a>
</g>
</g>
<!-- Node13&#45;&gt;Node14 -->
<g id="edge15_Node000013_Node000014" class="edge">
<title>Node13&#45;&gt;Node14</title>
<g id="a_edge15_Node000013_Node000014"><a xlink:title=" ">
<path fill="none" stroke="#63b8ff" d="M1005.77,-46.39C1012.31,-37.27 1020.07,-26.45 1025.34,-19.09"/>
<polygon fill="#63b8ff" stroke="#63b8ff" points="1002.76,-44.58 999.77,-54.75 1008.45,-48.66 1002.76,-44.58"/>
</a>
</g>
</g>
<!-- Node15&#45;&gt;Node13 -->
<g id="edge17_Node000015_Node000013" class="edge">
<title>Node15&#45;&gt;Node13</title>
<g id="a_edge17_Node000015_Node000013"><a xlink:title=" ">
<path fill="none" stroke="#63b8ff" d="M1048.92,-104.15C1035.19,-94.57 1017.57,-82.29 1005.93,-74.17"/>
<polygon fill="#63b8ff" stroke="#63b8ff" points="1047.08,-107.14 1057.29,-109.98 1051.09,-101.39 1047.08,-107.14"/>
</a>
</g>
</g>
<!-- Node15&#45;&gt;Node14 -->
<g id="edge18_Node000015_Node000014" class="edge">
<title>Node15&#45;&gt;Node14</title>
<g id="a_edge18_Node000015_Node000014"><a xlink:title=" ">
<path fill="none" stroke="#63b8ff" d="M1064.53,-99.89C1060.98,-87.14 1055.89,-69.9 1050.5,-55 1045.93,-42.36 1039.65,-28.14 1035.58,-19.25"/>
<polygon fill="#63b8ff" stroke="#63b8ff" points="1061.22,-101.04 1067.22,-109.77 1067.97,-99.2 1061.22,-101.04"/>
</a>
</g>
</g>
<!-- Node17 -->
<g id="Node000017" class="node">
<title>Node17</title>
<g id="a_Node000017"><a xlink:href="shapes_2initialize_8cpp.html" target="_top" xlink:title=" ">
<polygon fill="white" stroke="#666666" points="1209,-74 1130,-74 1130,-55 1209,-55 1209,-74"/>
<text text-anchor="middle" x="1169.5" y="-62" font-family="Helvetica,sans-Serif" font-size="10.00">initialize.cpp</text>
</a>
</g>
</g>
<!-- Node16&#45;&gt;Node17 -->
<g id="edge20_Node000016_Node000017" class="edge">
<title>Node16&#45;&gt;Node17</title>
<g id="a_edge20_Node000016_Node000017"><a xlink:title=" ">
<path fill="none" stroke="#63b8ff" d="M1169.5,-99.66C1169.5,-90.93 1169.5,-80.99 1169.5,-74.09"/>
<polygon fill="#63b8ff" stroke="#63b8ff" points="1166,-99.75 1169.5,-109.75 1173,-99.75 1166,-99.75"/>
</a>
</g>
</g>
<!-- Node19&#45;&gt;Node3 -->
<g id="edge24_Node000019_Node000003" class="edge">
<title>Node19&#45;&gt;Node3</title>
<g id="a_edge24_Node000019_Node000003"><a xlink:title=" ">
<path fill="none" stroke="#63b8ff" d="M254.75,-154.31C252.84,-141.05 248.84,-123.45 240.5,-110 231.11,-94.85 214.87,-82.18 203.03,-74.28"/>
<polygon fill="#63b8ff" stroke="#63b8ff" points="251.32,-155.1 255.96,-164.63 258.28,-154.29 251.32,-155.1"/>
</a>
</g>
</g>
<!-- Node19&#45;&gt;Node7 -->
<g id="edge28_Node000019_Node000007" class="edge">
<title>Node19&#45;&gt;Node7</title>
<g id="a_edge28_Node000019_Node000007"><a xlink:title=" ">
<path fill="none" stroke="#63b8ff" d="M269.18,-156.38C286.5,-133.01 316.89,-91.97 330.09,-74.16"/>
<polygon fill="#63b8ff" stroke="#63b8ff" points="266.19,-154.54 263.05,-164.66 271.81,-158.71 266.19,-154.54"/>
</a>
</g>
</g>
<!-- Node20 -->
<g id="Node000020" class="node">
<title>Node20</title>
<g id="a_Node000020"><a xlink:href="GlobalContext_8hpp.html" target="_top" xlink:title="Infrastructure to synchronize objects created on the head node with their corresponding remote copies...">
<polygon fill="white" stroke="#666666" points="232,-129 125,-129 125,-110 232,-110 232,-129"/>
<text text-anchor="middle" x="178.5" y="-117" font-family="Helvetica,sans-Serif" font-size="10.00">GlobalContext.hpp</text>
</a>
</g>
</g>
<!-- Node19&#45;&gt;Node20 -->
<g id="edge25_Node000019_Node000020" class="edge">
<title>Node19&#45;&gt;Node20</title>
<g id="a_edge25_Node000019_Node000020"><a xlink:title=" ">
<path fill="none" stroke="#63b8ff" d="M235.38,-159.15C221.29,-149.57 203.21,-137.29 191.26,-129.17"/>
<polygon fill="#63b8ff" stroke="#63b8ff" points="233.73,-162.26 243.97,-164.98 237.66,-156.47 233.73,-162.26"/>
</a>
</g>
</g>
<!-- Node21 -->
<g id="Node000021" class="node">
<title>Node21</title>
<g id="a_Node000021"><a xlink:href="ObjectState_8hpp.html" target="_top" xlink:title=" ">
<polygon fill="white" stroke="#666666" points="460,-129 365,-129 365,-110 460,-110 460,-129"/>
<text text-anchor="middle" x="412.5" y="-117" font-family="Helvetica,sans-Serif" font-size="10.00">ObjectState.hpp</text>
</a>
</g>
</g>
<!-- Node19&#45;&gt;Node21 -->
<g id="edge29_Node000019_Node000021" class="edge">
<title>Node19&#45;&gt;Node21</title>
<g id="a_edge29_Node000019_Node000021"><a xlink:title=" ">
<path fill="none" stroke="#63b8ff" d="M291.32,-161.67C320.41,-151.79 361.2,-137.93 387.24,-129.08"/>
<polygon fill="#63b8ff" stroke="#63b8ff" points="289.91,-158.45 281.56,-164.98 292.16,-165.08 289.91,-158.45"/>
</a>
</g>
</g>
<!-- Node20&#45;&gt;Node2 -->
<g id="edge26_Node000020_Node000002" class="edge">
<title>Node20&#45;&gt;Node2</title>
<g id="a_edge26_Node000020_Node000002"><a xlink:title=" ">
<path fill="none" stroke="#63b8ff" d="M149.97,-105.9C127.8,-96.11 97.65,-82.79 78.13,-74.17"/>
<polygon fill="#63b8ff" stroke="#63b8ff" points="148.66,-109.15 159.22,-109.98 151.49,-102.74 148.66,-109.15"/>
</a>
</g>
</g>
<!-- Node20&#45;&gt;Node3 -->
<g id="edge27_Node000020_Node000003" class="edge">
<title>Node20&#45;&gt;Node3</title>
<g id="a_edge27_Node000020_Node000003"><a xlink:title=" ">
<path fill="none" stroke="#63b8ff" d="M182.05,-99.66C183.7,-90.93 185.58,-80.99 186.88,-74.09"/>
<polygon fill="#63b8ff" stroke="#63b8ff" points="178.57,-99.27 180.15,-109.75 185.44,-100.57 178.57,-99.27"/>
</a>
</g>
</g>
<!-- Node21&#45;&gt;Node5 -->
<g id="edge32_Node000021_Node000005" class="edge">
<title>Node21&#45;&gt;Node5</title>
<g id="a_edge32_Node000021_Node000005"><a xlink:title=" ">
<path fill="none" stroke="#63b8ff" d="M461,-107.79C506.55,-97.73 573.73,-82.89 615.22,-73.73"/>
<polygon fill="#63b8ff" stroke="#63b8ff" points="460.07,-104.41 451.06,-109.98 461.58,-111.25 460.07,-104.41"/>
</a>
</g>
</g>
<!-- Node21&#45;&gt;Node7 -->
<g id="edge30_Node000021_Node000007" class="edge">
<title>Node21&#45;&gt;Node7</title>
<g id="a_edge30_Node000021_Node000007"><a xlink:title=" ">
<path fill="none" stroke="#63b8ff" d="M391.92,-104.15C378.19,-94.57 360.57,-82.29 348.93,-74.17"/>
<polygon fill="#63b8ff" stroke="#63b8ff" points="390.08,-107.14 400.29,-109.98 394.09,-101.39 390.08,-107.14"/>
</a>
</g>
</g>
<!-- Node21&#45;&gt;Node18 -->
<g id="edge31_Node000021_Node000018" class="edge">
<title>Node21&#45;&gt;Node18</title>
<g id="a_edge31_Node000021_Node000018"><a xlink:title=" ">
<path fill="none" stroke="#63b8ff" d="M429.41,-103.04C439.7,-93.64 452.47,-81.98 461.01,-74.17"/>
<polygon fill="#63b8ff" stroke="#63b8ff" points="426.84,-100.66 421.82,-109.98 431.56,-105.82 426.84,-100.66"/>
</a>
</g>
</g>
</g>
</svg>
