<?xml version="1.0" encoding="UTF-8" standalone="no"?>
<!DOCTYPE svg PUBLIC "-//W3C//DTD SVG 1.1//EN"
 "http://www.w3.org/Graphics/SVG/1.1/DTD/svg11.dtd">
<!-- Generated by graphviz version 2.43.0 (0)
 -->
<!-- Title: particle_node.hpp Pages: 1 -->
<!--zoomable 252 -->
<svg id="main" version="1.1" xmlns="http://www.w3.org/2000/svg" xmlns:xlink="http://www.w3.org/1999/xlink" xml:space="preserve" onload="init(evt)">
<style type="text/css"><![CDATA[
.edge:hover path { stroke: red; }
.edge:hover polygon { stroke: red; fill: red; }
]]></style>
<script type="text/javascript"><![CDATA[
var edges = document.getElementsByTagName('g');
if (edges && edges.length) {
  for (var i=0;i<edges.length;i++) {
    if (edges[i].id.substr(0,4)=='edge') {
      edges[i].setAttribute('class','edge');
    }
  }
}
]]></script>
        <defs>
                <circle id="rim" cx="0" cy="0" r="7"/>
                <circle id="rim2" cx="0" cy="0" r="3.5"/>
                <g id="zoomPlus">
                        <use xlink:href="#rim" fill="#404040">
                                <set attributeName="fill" to="#808080" begin="zoomplus.mouseover" end="zoomplus.mouseout"/>
                        </use>
                        <path d="M-4,0h8M0,-4v8" fill="none" stroke="white" stroke-width="1.5" pointer-events="none"/>
                </g>
                <g id="zoomMin">
                        <use xlink:href="#rim" fill="#404040">
                                <set attributeName="fill" to="#808080" begin="zoomminus.mouseover" end="zoomminus.mouseout"/>
                        </use>
                        <path d="M-4,0h8" fill="none" stroke="white" stroke-width="1.5" pointer-events="none"/>
                </g>
                <g id="dirArrow">
                        <path fill="none" stroke="white" stroke-width="1.5" d="M0,-3.0v7 M-2.5,-0.5L0,-3.0L2.5,-0.5"/>
                </g>
               <g id="resetDef">
                       <use xlink:href="#rim2" fill="#404040">
                               <set attributeName="fill" to="#808080" begin="reset.mouseover" end="reset.mouseout"/>
                       </use>
               </g>
        </defs>

<script type="text/javascript">
var viewWidth = 1553;
var viewHeight = 252;
var sectionId = 'dynsection-1';
</script>
<script xlink:href="svgpan.js"/>
<svg id="graph" class="graph">
<g id="viewport">
<title>particle_node.hpp</title>
<!-- Node1 -->
<g id="node1" class="node">
<title>Node1</title>
<g id="a_node1"><a xlink:title="Particles creation and deletion.">
<polygon fill="#bfbfbf" stroke="black" points="699.5,-224.5 699.5,-243.5 803.5,-243.5 803.5,-224.5 699.5,-224.5"/>
<text text-anchor="middle" x="751.5" y="-231.5" font-family="Helvetica,sans-Serif" font-size="10.00">particle_node.hpp</text>
</a>
</g>
</g>
<!-- Node2 -->
<g id="node2" class="node">
<title>Node2</title>
<g id="a_node2"><a xlink:href="cells_8cpp.html" target="_top" xlink:title="This file contains functions for the cell system.">
<polygon fill="none" stroke="black" points="0,-168.5 0,-187.5 59,-187.5 59,-168.5 0,-168.5"/>
<text text-anchor="middle" x="29.5" y="-175.5" font-family="Helvetica,sans-Serif" font-size="10.00">cells.cpp</text>
</a>
</g>
</g>
<!-- Node1&#45;&gt;Node2 -->
<g id="edge1" class="edge">
<title>Node1&#45;&gt;Node2</title>
<path fill="none" stroke="midnightblue" d="M689.11,-232.37C568.4,-230.38 294.78,-222.15 67.5,-188 64.82,-187.6 62.05,-187.1 59.28,-186.55"/>
<polygon fill="midnightblue" stroke="midnightblue" points="689.22,-235.87 699.27,-232.53 689.33,-228.87 689.22,-235.87"/>
</g>
<!-- Node3 -->
<g id="node3" class="node">
<title>Node3</title>
<g id="a_node3"><a xlink:href="Cluster_8cpp.html" target="_top" xlink:title=" ">
<polygon fill="none" stroke="black" points="77,-168.5 77,-187.5 148,-187.5 148,-168.5 77,-168.5"/>
<text text-anchor="middle" x="112.5" y="-175.5" font-family="Helvetica,sans-Serif" font-size="10.00">Cluster.cpp</text>
</a>
</g>
</g>
<!-- Node1&#45;&gt;Node3 -->
<g id="edge2" class="edge">
<title>Node1&#45;&gt;Node3</title>
<path fill="none" stroke="midnightblue" d="M689.12,-230.77C580.62,-226.35 350.31,-214.48 157.5,-188 154.5,-187.59 151.4,-187.1 148.29,-186.57"/>
<polygon fill="midnightblue" stroke="midnightblue" points="689.1,-234.28 699.23,-231.18 689.38,-227.28 689.1,-234.28"/>
</g>
<!-- Node4 -->
<g id="node4" class="node">
<title>Node4</title>
<g id="a_node4"><a xlink:href="ClusterStructure_8cpp.html" target="_top" xlink:title=" ">
<polygon fill="none" stroke="black" points="166.5,-168.5 166.5,-187.5 282.5,-187.5 282.5,-168.5 166.5,-168.5"/>
<text text-anchor="middle" x="224.5" y="-175.5" font-family="Helvetica,sans-Serif" font-size="10.00">ClusterStructure.cpp</text>
</a>
</g>
</g>
<!-- Node1&#45;&gt;Node4 -->
<g id="edge3" class="edge">
<title>Node1&#45;&gt;Node4</title>
<path fill="none" stroke="midnightblue" d="M689.22,-227.62C600.71,-219.82 433.53,-204.48 291.5,-188 288.59,-187.66 285.6,-187.3 282.59,-186.93"/>
<polygon fill="midnightblue" stroke="midnightblue" points="689.08,-231.13 699.35,-228.51 689.7,-224.15 689.08,-231.13"/>
</g>
<!-- Node5 -->
<g id="node5" class="node">
<title>Node5</title>
<g id="a_node5"><a xlink:href="core_2pair__criteria_2PairCriterion_8hpp.html" target="_top" xlink:title=" ">
<polygon fill="none" stroke="black" points="300.5,-168.5 300.5,-187.5 398.5,-187.5 398.5,-168.5 300.5,-168.5"/>
<text text-anchor="middle" x="349.5" y="-175.5" font-family="Helvetica,sans-Serif" font-size="10.00">PairCriterion.hpp</text>
</a>
</g>
</g>
<!-- Node1&#45;&gt;Node5 -->
<g id="edge4" class="edge">
<title>Node1&#45;&gt;Node5</title>
<path fill="none" stroke="midnightblue" d="M689.03,-225.28C620.06,-216.66 505.76,-202.05 407.5,-188 404.57,-187.58 401.57,-187.14 398.54,-186.69"/>
<polygon fill="midnightblue" stroke="midnightblue" points="688.93,-228.8 699.29,-226.56 689.8,-221.85 688.93,-228.8"/>
</g>
<!-- Node13 -->
<g id="node13" class="node">
<title>Node13</title>
<g id="a_node13"><a xlink:href="PartCfg_8cpp.html" target="_top" xlink:title=" ">
<polygon fill="none" stroke="black" points="416.5,-168.5 416.5,-187.5 488.5,-187.5 488.5,-168.5 416.5,-168.5"/>
<text text-anchor="middle" x="452.5" y="-175.5" font-family="Helvetica,sans-Serif" font-size="10.00">PartCfg.cpp</text>
</a>
</g>
</g>
<!-- Node1&#45;&gt;Node13 -->
<g id="edge15" class="edge">
<title>Node1&#45;&gt;Node13</title>
<path fill="none" stroke="midnightblue" d="M692.09,-222.73C640.78,-213.79 564.69,-200.36 498.5,-188 495.3,-187.4 491.98,-186.77 488.65,-186.13"/>
<polygon fill="midnightblue" stroke="midnightblue" points="691.55,-226.19 702.01,-224.46 692.75,-219.29 691.55,-226.19"/>
</g>
<!-- Node14 -->
<g id="node14" class="node">
<title>Node14</title>
<g id="a_node14"><a xlink:href="particle__node_8cpp.html" target="_top" xlink:title=" ">
<polygon fill="none" stroke="black" points="507,-168.5 507,-187.5 610,-187.5 610,-168.5 507,-168.5"/>
<text text-anchor="middle" x="558.5" y="-175.5" font-family="Helvetica,sans-Serif" font-size="10.00">particle_node.cpp</text>
</a>
</g>
</g>
<!-- Node1&#45;&gt;Node14 -->
<g id="edge16" class="edge">
<title>Node1&#45;&gt;Node14</title>
<path fill="none" stroke="midnightblue" d="M711.11,-221.7C674.68,-211.51 621.91,-196.74 588.94,-187.52"/>
<polygon fill="midnightblue" stroke="midnightblue" points="710.35,-225.12 720.92,-224.44 712.23,-218.38 710.35,-225.12"/>
</g>
<!-- Node15 -->
<g id="node15" class="node">
<title>Node15</title>
<g id="a_node15"><a xlink:href="core_2reaction__methods_2ReactionAlgorithm_8cpp.html" target="_top" xlink:title=" ">
<polygon fill="none" stroke="black" points="628.5,-168.5 628.5,-187.5 756.5,-187.5 756.5,-168.5 628.5,-168.5"/>
<text text-anchor="middle" x="692.5" y="-175.5" font-family="Helvetica,sans-Serif" font-size="10.00">ReactionAlgorithm.cpp</text>
</a>
</g>
</g>
<!-- Node1&#45;&gt;Node15 -->
<g id="edge17" class="edge">
<title>Node1&#45;&gt;Node15</title>
<path fill="none" stroke="midnightblue" d="M734.61,-217.54C724.09,-207.91 710.93,-195.87 702.15,-187.83"/>
<polygon fill="midnightblue" stroke="midnightblue" points="732.28,-220.15 742.02,-224.32 737.01,-214.99 732.28,-220.15"/>
</g>
<!-- Node16 -->
<g id="node16" class="node">
<title>Node16</title>
<g id="a_node16"><a xlink:href="core_2system_2System_8cpp.html" target="_top" xlink:title=" ">
<polygon fill="none" stroke="black" points="774.5,-168.5 774.5,-187.5 848.5,-187.5 848.5,-168.5 774.5,-168.5"/>
<text text-anchor="middle" x="811.5" y="-175.5" font-family="Helvetica,sans-Serif" font-size="10.00">System.cpp</text>
</a>
</g>
</g>
<!-- Node1&#45;&gt;Node16 -->
<g id="edge18" class="edge">
<title>Node1&#45;&gt;Node16</title>
<path fill="none" stroke="midnightblue" d="M768.68,-217.54C779.38,-207.91 792.76,-195.87 801.68,-187.83"/>
<polygon fill="midnightblue" stroke="midnightblue" points="766.23,-215.03 761.14,-224.32 770.91,-220.24 766.23,-215.03"/>
</g>
<!-- Node17 -->
<g id="node17" class="node">
<title>Node17</title>
<g id="a_node17"><a xlink:href="CellSystem_8cpp.html" target="_top" xlink:title=" ">
<polygon fill="none" stroke="black" points="866.5,-168.5 866.5,-187.5 958.5,-187.5 958.5,-168.5 866.5,-168.5"/>
<text text-anchor="middle" x="912.5" y="-175.5" font-family="Helvetica,sans-Serif" font-size="10.00">CellSystem.cpp</text>
</a>
</g>
</g>
<!-- Node1&#45;&gt;Node17 -->
<g id="edge19" class="edge">
<title>Node1&#45;&gt;Node17</title>
<path fill="none" stroke="midnightblue" d="M786.76,-221.17C817.08,-211 860.07,-196.59 887.11,-187.52"/>
<polygon fill="midnightblue" stroke="midnightblue" points="785.38,-217.95 777.01,-224.44 787.6,-224.58 785.38,-217.95"/>
</g>
<!-- Node18 -->
<g id="node18" class="node">
<title>Node18</title>
<g id="a_node18"><a xlink:href="ParticleHandle_8cpp.html" target="_top" xlink:title=" ">
<polygon fill="none" stroke="black" points="977,-168.5 977,-187.5 1084,-187.5 1084,-168.5 977,-168.5"/>
<text text-anchor="middle" x="1030.5" y="-175.5" font-family="Helvetica,sans-Serif" font-size="10.00">ParticleHandle.cpp</text>
</a>
</g>
</g>
<!-- Node1&#45;&gt;Node18 -->
<g id="edge20" class="edge">
<title>Node1&#45;&gt;Node18</title>
<path fill="none" stroke="midnightblue" d="M805.56,-222.54C858.29,-212.33 937.5,-197 986.5,-187.52"/>
<polygon fill="midnightblue" stroke="midnightblue" points="804.86,-219.11 795.71,-224.44 806.19,-225.98 804.86,-219.11"/>
</g>
<!-- Node19 -->
<g id="node19" class="node">
<title>Node19</title>
<g id="a_node19"><a xlink:href="ParticleList_8cpp.html" target="_top" xlink:title=" ">
<polygon fill="none" stroke="black" points="1102.5,-168.5 1102.5,-187.5 1192.5,-187.5 1192.5,-168.5 1102.5,-168.5"/>
<text text-anchor="middle" x="1147.5" y="-175.5" font-family="Helvetica,sans-Serif" font-size="10.00">ParticleList.cpp</text>
</a>
</g>
</g>
<!-- Node1&#45;&gt;Node19 -->
<g id="edge21" class="edge">
<title>Node1&#45;&gt;Node19</title>
<path fill="none" stroke="midnightblue" d="M813.93,-225.44C882.56,-216.97 996.03,-202.53 1093.5,-188 1096.41,-187.57 1099.41,-187.1 1102.44,-186.63"/>
<polygon fill="midnightblue" stroke="midnightblue" points="813.22,-222 803.72,-226.69 814.08,-228.95 813.22,-222"/>
</g>
<!-- Node20 -->
<g id="node20" class="node">
<title>Node20</title>
<g id="a_node20"><a xlink:href="ParticleSlice_8cpp.html" target="_top" xlink:title=" ">
<polygon fill="none" stroke="black" points="1210.5,-168.5 1210.5,-187.5 1306.5,-187.5 1306.5,-168.5 1210.5,-168.5"/>
<text text-anchor="middle" x="1258.5" y="-175.5" font-family="Helvetica,sans-Serif" font-size="10.00">ParticleSlice.cpp</text>
</a>
</g>
</g>
<!-- Node1&#45;&gt;Node20 -->
<g id="edge22" class="edge">
<title>Node1&#45;&gt;Node20</title>
<path fill="none" stroke="midnightblue" d="M813.8,-227.9C900.78,-220.52 1063.44,-205.79 1201.5,-188 1204.38,-187.63 1207.34,-187.23 1210.33,-186.8"/>
<polygon fill="midnightblue" stroke="midnightblue" points="813.25,-224.43 803.58,-228.76 813.84,-231.41 813.25,-224.43"/>
</g>
<!-- Node21 -->
<g id="node21" class="node">
<title>Node21</title>
<g id="a_node21"><a xlink:href="script__interface_2reaction__methods_2ReactionAlgorithm_8cpp.html" target="_top" xlink:title=" ">
<polygon fill="none" stroke="black" points="1324.5,-168.5 1324.5,-187.5 1452.5,-187.5 1452.5,-168.5 1324.5,-168.5"/>
<text text-anchor="middle" x="1388.5" y="-175.5" font-family="Helvetica,sans-Serif" font-size="10.00">ReactionAlgorithm.cpp</text>
</a>
</g>
</g>
<!-- Node1&#45;&gt;Node21 -->
<g id="edge23" class="edge">
<title>Node1&#45;&gt;Node21</title>
<path fill="none" stroke="midnightblue" d="M813.68,-228.92C917.68,-221.89 1133.44,-206.48 1315.5,-188 1318.42,-187.7 1321.41,-187.39 1324.42,-187.06"/>
<polygon fill="midnightblue" stroke="midnightblue" points="813.41,-225.43 803.67,-229.59 813.88,-232.41 813.41,-225.43"/>
</g>
<!-- Node22 -->
<g id="node22" class="node">
<title>Node22</title>
<g id="a_node22"><a xlink:href="script__interface_2system_2System_8cpp.html" target="_top" xlink:title=" ">
<polygon fill="none" stroke="black" points="1470.5,-168.5 1470.5,-187.5 1544.5,-187.5 1544.5,-168.5 1470.5,-168.5"/>
<text text-anchor="middle" x="1507.5" y="-175.5" font-family="Helvetica,sans-Serif" font-size="10.00">System.cpp</text>
</a>
</g>
</g>
<!-- Node1&#45;&gt;Node22 -->
<g id="edge24" class="edge">
<title>Node1&#45;&gt;Node22</title>
<path fill="none" stroke="midnightblue" d="M813.89,-231.77C937.81,-228.72 1223.5,-218.69 1461.5,-188 1464.41,-187.63 1467.4,-187.18 1470.41,-186.69"/>
<polygon fill="midnightblue" stroke="midnightblue" points="813.75,-228.27 803.83,-232.01 813.91,-235.27 813.75,-228.27"/>
</g>
<!-- Node6 -->
<g id="node6" class="node">
<title>Node6</title>
<g id="a_node6"><a xlink:href="script__interface_2pair__criteria_2PairCriterion_8hpp.html" target="_top" xlink:title=" ">
<polygon fill="none" stroke="black" points="300.5,-112.5 300.5,-131.5 398.5,-131.5 398.5,-112.5 300.5,-112.5"/>
<text text-anchor="middle" x="349.5" y="-119.5" font-family="Helvetica,sans-Serif" font-size="10.00">PairCriterion.hpp</text>
</a>
</g>
</g>
<!-- Node5&#45;&gt;Node6 -->
<g id="edge5" class="edge">
<title>Node5&#45;&gt;Node6</title>
<path fill="none" stroke="midnightblue" d="M349.5,-157.8C349.5,-148.91 349.5,-138.78 349.5,-131.75"/>
<polygon fill="midnightblue" stroke="midnightblue" points="346,-158.08 349.5,-168.08 353,-158.08 346,-158.08"/>
</g>
<!-- Node7 -->
<g id="node7" class="node">
<title>Node7</title>
<g id="a_node7"><a xlink:href="script__interface_2cluster__analysis_2ClusterStructure_8hpp.html" target="_top" xlink:title=" ">
<polygon fill="none" stroke="black" points="83.5,-56.5 83.5,-75.5 199.5,-75.5 199.5,-56.5 83.5,-56.5"/>
<text text-anchor="middle" x="141.5" y="-63.5" font-family="Helvetica,sans-Serif" font-size="10.00">ClusterStructure.hpp</text>
</a>
</g>
</g>
<!-- Node6&#45;&gt;Node7 -->
<g id="edge6" class="edge">
<title>Node6&#45;&gt;Node7</title>
<path fill="none" stroke="midnightblue" d="M306.72,-109.89C267.44,-99.7 210.07,-84.8 174.3,-75.52"/>
<polygon fill="midnightblue" stroke="midnightblue" points="305.98,-113.32 316.54,-112.44 307.74,-106.54 305.98,-113.32"/>
</g>
<!-- Node9 -->
<g id="node9" class="node">
<title>Node9</title>
<g id="a_node9"><a xlink:href="script__interface_2pair__criteria_2BondCriterion_8hpp.html" target="_top" xlink:title=" ">
<polygon fill="none" stroke="black" points="217.5,-56.5 217.5,-75.5 321.5,-75.5 321.5,-56.5 217.5,-56.5"/>
<text text-anchor="middle" x="269.5" y="-63.5" font-family="Helvetica,sans-Serif" font-size="10.00">BondCriterion.hpp</text>
</a>
</g>
</g>
<!-- Node6&#45;&gt;Node9 -->
<g id="edge8" class="edge">
<title>Node6&#45;&gt;Node9</title>
<path fill="none" stroke="midnightblue" d="M328.2,-106.62C313.58,-96.76 294.67,-83.99 282.32,-75.65"/>
<polygon fill="midnightblue" stroke="midnightblue" points="326.4,-109.63 336.65,-112.32 330.32,-103.83 326.4,-109.63"/>
</g>
<!-- Node10 -->
<g id="node10" class="node">
<title>Node10</title>
<g id="a_node10"><a xlink:href="pair__criteria_2initialize_8cpp.html" target="_top" xlink:title=" ">
<polygon fill="none" stroke="black" points="354,-0.5 354,-19.5 433,-19.5 433,-0.5 354,-0.5"/>
<text text-anchor="middle" x="393.5" y="-7.5" font-family="Helvetica,sans-Serif" font-size="10.00">initialize.cpp</text>
</a>
</g>
</g>
<!-- Node6&#45;&gt;Node10 -->
<g id="edge14" class="edge">
<title>Node6&#45;&gt;Node10</title>
<path fill="none" stroke="midnightblue" d="M353.72,-102.59C357.02,-89.36 362.13,-71.26 368.5,-56 374.01,-42.81 382.4,-28.53 387.92,-19.67"/>
<polygon fill="midnightblue" stroke="midnightblue" points="350.3,-101.84 351.37,-112.38 357.1,-103.47 350.3,-101.84"/>
</g>
<!-- Node11 -->
<g id="node11" class="node">
<title>Node11</title>
<g id="a_node11"><a xlink:href="script__interface_2pair__criteria_2DistanceCriterion_8hpp.html" target="_top" xlink:title=" ">
<polygon fill="none" stroke="black" points="377.5,-56.5 377.5,-75.5 499.5,-75.5 499.5,-56.5 377.5,-56.5"/>
<text text-anchor="middle" x="438.5" y="-63.5" font-family="Helvetica,sans-Serif" font-size="10.00">DistanceCriterion.hpp</text>
</a>
</g>
</g>
<!-- Node6&#45;&gt;Node11 -->
<g id="edge10" class="edge">
<title>Node6&#45;&gt;Node11</title>
<path fill="none" stroke="midnightblue" d="M372.74,-106.9C389.06,-97 410.37,-84.07 424.24,-75.65"/>
<polygon fill="midnightblue" stroke="midnightblue" points="370.53,-104.14 363.8,-112.32 374.16,-110.13 370.53,-104.14"/>
</g>
<!-- Node12 -->
<g id="node12" class="node">
<title>Node12</title>
<g id="a_node12"><a xlink:href="script__interface_2pair__criteria_2EnergyCriterion_8hpp.html" target="_top" xlink:title=" ">
<polygon fill="none" stroke="black" points="518,-56.5 518,-75.5 631,-75.5 631,-56.5 518,-56.5"/>
<text text-anchor="middle" x="574.5" y="-63.5" font-family="Helvetica,sans-Serif" font-size="10.00">EnergyCriterion.hpp</text>
</a>
</g>
</g>
<!-- Node6&#45;&gt;Node12 -->
<g id="edge12" class="edge">
<title>Node6&#45;&gt;Node12</title>
<path fill="none" stroke="midnightblue" d="M394.97,-110.09C437.47,-99.89 500.08,-84.86 539.01,-75.52"/>
<polygon fill="midnightblue" stroke="midnightblue" points="394.06,-106.71 385.15,-112.44 395.69,-113.51 394.06,-106.71"/>
</g>
<!-- Node8 -->
<g id="node8" class="node">
<title>Node8</title>
<g id="a_node8"><a xlink:href="cluster__analysis_2initialize_8cpp.html" target="_top" xlink:title=" ">
<polygon fill="none" stroke="black" points="102,-0.5 102,-19.5 181,-19.5 181,-0.5 102,-0.5"/>
<text text-anchor="middle" x="141.5" y="-7.5" font-family="Helvetica,sans-Serif" font-size="10.00">initialize.cpp</text>
</a>
</g>
</g>
<!-- Node7&#45;&gt;Node8 -->
<g id="edge7" class="edge">
<title>Node7&#45;&gt;Node8</title>
<path fill="none" stroke="midnightblue" d="M141.5,-45.8C141.5,-36.91 141.5,-26.78 141.5,-19.75"/>
<polygon fill="midnightblue" stroke="midnightblue" points="138,-46.08 141.5,-56.08 145,-46.08 138,-46.08"/>
</g>
<!-- Node9&#45;&gt;Node10 -->
<g id="edge9" class="edge">
<title>Node9&#45;&gt;Node10</title>
<path fill="none" stroke="midnightblue" d="M298.51,-52.37C321.73,-42.26 353.66,-28.35 373.94,-19.52"/>
<polygon fill="midnightblue" stroke="midnightblue" points="296.92,-49.24 289.15,-56.44 299.71,-55.66 296.92,-49.24"/>
</g>
<!-- Node11&#45;&gt;Node10 -->
<g id="edge11" class="edge">
<title>Node11&#45;&gt;Node10</title>
<path fill="none" stroke="midnightblue" d="M424.45,-48.14C416.61,-38.74 407.17,-27.4 400.79,-19.75"/>
<polygon fill="midnightblue" stroke="midnightblue" points="421.98,-50.64 431.07,-56.08 427.36,-46.16 421.98,-50.64"/>
</g>
<!-- Node12&#45;&gt;Node10 -->
<g id="edge13" class="edge">
<title>Node12&#45;&gt;Node10</title>
<path fill="none" stroke="midnightblue" d="M536.18,-53.57C502.04,-43.38 452.84,-28.7 422.05,-19.52"/>
<polygon fill="midnightblue" stroke="midnightblue" points="535.24,-56.94 545.82,-56.44 537.24,-50.23 535.24,-56.94"/>
</g>
</g>
</svg>
        <g id="navigator" transform="translate(0 0)" fill="#404254">
                <rect fill="#f2f5e9" fill-opacity="0.5" stroke="#606060" stroke-width=".5" x="0" y="0" width="60" height="60"/>
                <use id="zoomplus" xlink:href="#zoomPlus" x="17" y="9" onmousedown="handleZoom(evt,'in')"/>
                <use id="zoomminus" xlink:href="#zoomMin" x="42" y="9" onmousedown="handleZoom(evt,'out')"/>
                <use id="reset" xlink:href="#resetDef" x="30" y="36" onmousedown="handleReset()"/>
                <g id="arrowUp" xlink:href="#dirArrow" transform="translate(30 24)" onmousedown="handlePan(0,-1)">
                  <use xlink:href="#rim" fill="#404040">
                        <set attributeName="fill" to="#808080" begin="arrowUp.mouseover" end="arrowUp.mouseout"/>
                  </use>
                  <path fill="none" stroke="white" stroke-width="1.5" d="M0,-3.0v7 M-2.5,-0.5L0,-3.0L2.5,-0.5"/>
                </g>
                <g id="arrowRight" xlink:href="#dirArrow" transform="rotate(90) translate(36 -43)" onmousedown="handlePan(1,0)">
                  <use xlink:href="#rim" fill="#404040">
                        <set attributeName="fill" to="#808080" begin="arrowRight.mouseover" end="arrowRight.mouseout"/>
                  </use>
                  <path fill="none" stroke="white" stroke-width="1.5" d="M0,-3.0v7 M-2.5,-0.5L0,-3.0L2.5,-0.5"/>
                </g>
                <g id="arrowDown" xlink:href="#dirArrow" transform="rotate(180) translate(-30 -48)" onmousedown="handlePan(0,1)">
                  <use xlink:href="#rim" fill="#404040">
                        <set attributeName="fill" to="#808080" begin="arrowDown.mouseover" end="arrowDown.mouseout"/>
                  </use>
                  <path fill="none" stroke="white" stroke-width="1.5" d="M0,-3.0v7 M-2.5,-0.5L0,-3.0L2.5,-0.5"/>
                </g>
                <g id="arrowLeft" xlink:href="#dirArrow" transform="rotate(270) translate(-36 17)" onmousedown="handlePan(-1,0)">
                  <use xlink:href="#rim" fill="#404040">
                        <set attributeName="fill" to="#808080" begin="arrowLeft.mouseover" end="arrowLeft.mouseout"/>
                  </use>
                  <path fill="none" stroke="white" stroke-width="1.5" d="M0,-3.0v7 M-2.5,-0.5L0,-3.0L2.5,-0.5"/>
                </g>
        </g>
        <svg viewBox="0 0 15 15" width="100%" height="30px" preserveAspectRatio="xMaxYMin meet">
         <g id="arrow_out" transform="scale(0.3 0.3)">
          <a xlink:href="particle__node_8hpp__dep__incl_org.svg" target="_base">
           <rect id="button" ry="5" rx="5" y="6" x="6" height="38" width="38"
                fill="#f2f5e9" fill-opacity="0.5" stroke="#606060" stroke-width="1.0"/>
           <path id="arrow"
             d="M 11.500037,31.436501 C 11.940474,20.09759 22.043105,11.32322 32.158766,21.979434 L 37.068811,17.246167 C 37.068811,17.246167 37.088388,32 37.088388,32 L 22.160133,31.978069 C 22.160133,31.978069 26.997745,27.140456 26.997745,27.140456 C 18.528582,18.264221 13.291696,25.230495 11.500037,31.436501 z"
             style="fill:#404040;"/>
          </a>
         </g>
        </svg>
</svg>
