<?xml version="1.0" encoding="UTF-8" standalone="no"?>
<!DOCTYPE svg PUBLIC "-//W3C//DTD SVG 1.1//EN"
 "http://www.w3.org/Graphics/SVG/1.1/DTD/svg11.dtd">
<!-- Generated by graphviz version 2.43.0 (0)
 -->
<!-- Title: particle_node.hpp Pages: 1 -->
<svg width="1358pt" height="308pt"
 viewBox="0.00 0.00 1358.00 308.00" xmlns="http://www.w3.org/2000/svg" xmlns:xlink="http://www.w3.org/1999/xlink">
<g id="graph0" class="graph" transform="scale(1 1) rotate(0) translate(4 304)">
<title>particle_node.hpp</title>
<!-- Node1 -->
<g id="node1" class="node">
<title>Node1</title>
<g id="a_node1"><a xlink:title=" ">
<polygon fill="#bfbfbf" stroke="black" points="517.5,-280.5 517.5,-299.5 621.5,-299.5 621.5,-280.5 517.5,-280.5"/>
<text text-anchor="middle" x="569.5" y="-287.5" font-family="Helvetica,sans-Serif" font-size="10.00">particle_node.hpp</text>
</a>
</g>
</g>
<!-- Node2 -->
<g id="node2" class="node">
<title>Node2</title>
<g id="a_node2"><a xlink:href="cells_8cpp.html" target="_top" xlink:title=" ">
<polygon fill="none" stroke="black" points="0,-224.5 0,-243.5 59,-243.5 59,-224.5 0,-224.5"/>
<text text-anchor="middle" x="29.5" y="-231.5" font-family="Helvetica,sans-Serif" font-size="10.00">cells.cpp</text>
</a>
</g>
</g>
<!-- Node1&#45;&gt;Node2 -->
<g id="edge1" class="edge">
<title>Node1&#45;&gt;Node2</title>
<path fill="none" stroke="midnightblue" d="M507.12,-286.28C411.84,-281.49 224.59,-269.51 67.5,-244 64.82,-243.57 62.06,-243.05 59.29,-242.48"/>
<polygon fill="midnightblue" stroke="midnightblue" points="507,-289.78 517.16,-286.78 507.34,-282.79 507,-289.78"/>
</g>
<!-- Node3 -->
<g id="node3" class="node">
<title>Node3</title>
<g id="a_node3"><a xlink:href="Cluster_8cpp.html" target="_top" xlink:title=" ">
<polygon fill="none" stroke="black" points="77,-224.5 77,-243.5 148,-243.5 148,-224.5 77,-224.5"/>
<text text-anchor="middle" x="112.5" y="-231.5" font-family="Helvetica,sans-Serif" font-size="10.00">Cluster.cpp</text>
</a>
</g>
</g>
<!-- Node1&#45;&gt;Node3 -->
<g id="edge2" class="edge">
<title>Node1&#45;&gt;Node3</title>
<path fill="none" stroke="midnightblue" d="M506.92,-283.41C426.87,-275.96 284.03,-261.64 162.5,-244 157.87,-243.33 153.02,-242.55 148.23,-241.74"/>
<polygon fill="midnightblue" stroke="midnightblue" points="507.04,-286.94 517.32,-284.37 507.68,-279.97 507.04,-286.94"/>
</g>
<!-- Node4 -->
<g id="node4" class="node">
<title>Node4</title>
<g id="a_node4"><a xlink:href="ClusterStructure_8cpp.html" target="_top" xlink:title=" ">
<polygon fill="none" stroke="black" points="125.5,-56.5 125.5,-75.5 241.5,-75.5 241.5,-56.5 125.5,-56.5"/>
<text text-anchor="middle" x="183.5" y="-63.5" font-family="Helvetica,sans-Serif" font-size="10.00">ClusterStructure.cpp</text>
</a>
</g>
</g>
<!-- Node1&#45;&gt;Node4 -->
<g id="edge3" class="edge">
<title>Node1&#45;&gt;Node4</title>
<path fill="none" stroke="midnightblue" d="M507.35,-285.79C406.56,-279.98 216.56,-266.18 195.5,-244 150.12,-196.2 172.22,-104.63 180.7,-75.87"/>
<polygon fill="midnightblue" stroke="midnightblue" points="507.22,-289.29 517.4,-286.37 507.62,-282.3 507.22,-289.29"/>
</g>
<!-- Node5 -->
<g id="node5" class="node">
<title>Node5</title>
<g id="a_node5"><a xlink:href="event_8cpp.html" target="_top" xlink:title=" ">
<polygon fill="none" stroke="black" points="205,-224.5 205,-243.5 270,-243.5 270,-224.5 205,-224.5"/>
<text text-anchor="middle" x="237.5" y="-231.5" font-family="Helvetica,sans-Serif" font-size="10.00">event.cpp</text>
</a>
</g>
</g>
<!-- Node1&#45;&gt;Node5 -->
<g id="edge4" class="edge">
<title>Node1&#45;&gt;Node5</title>
<path fill="none" stroke="midnightblue" d="M507.24,-280.39C448.4,-272 357.72,-258.44 279.5,-244 276.42,-243.43 273.22,-242.81 270.02,-242.16"/>
<polygon fill="midnightblue" stroke="midnightblue" points="507.09,-283.9 517.49,-281.84 508.08,-276.97 507.09,-283.9"/>
</g>
<!-- Node6 -->
<g id="node6" class="node">
<title>Node6</title>
<g id="a_node6"><a xlink:href="fetch__particles_8hpp.html" target="_top" xlink:title=" ">
<polygon fill="none" stroke="black" points="288.5,-224.5 288.5,-243.5 398.5,-243.5 398.5,-224.5 288.5,-224.5"/>
<text text-anchor="middle" x="343.5" y="-231.5" font-family="Helvetica,sans-Serif" font-size="10.00">fetch_particles.hpp</text>
</a>
</g>
</g>
<!-- Node1&#45;&gt;Node6 -->
<g id="edge5" class="edge">
<title>Node1&#45;&gt;Node6</title>
<path fill="none" stroke="midnightblue" d="M523.83,-278.09C481.14,-267.89 418.25,-252.86 379.14,-243.52"/>
<polygon fill="midnightblue" stroke="midnightblue" points="523.15,-281.52 533.69,-280.44 524.78,-274.72 523.15,-281.52"/>
</g>
<!-- Node9 -->
<g id="node9" class="node">
<title>Node9</title>
<g id="a_node9"><a xlink:href="core_2pair__criteria_2PairCriterion_8hpp.html" target="_top" xlink:title=" ">
<polygon fill="none" stroke="black" points="416.5,-224.5 416.5,-243.5 514.5,-243.5 514.5,-224.5 416.5,-224.5"/>
<text text-anchor="middle" x="465.5" y="-231.5" font-family="Helvetica,sans-Serif" font-size="10.00">PairCriterion.hpp</text>
</a>
</g>
</g>
<!-- Node1&#45;&gt;Node9 -->
<g id="edge8" class="edge">
<title>Node1&#45;&gt;Node9</title>
<path fill="none" stroke="midnightblue" d="M543.67,-275.59C524.44,-265.61 498.76,-252.27 482.17,-243.65"/>
<polygon fill="midnightblue" stroke="midnightblue" points="542.3,-278.82 552.79,-280.32 545.53,-272.61 542.3,-278.82"/>
</g>
<!-- Node21 -->
<g id="node21" class="node">
<title>Node21</title>
<g id="a_node21"><a xlink:href="PartCfg_8cpp.html" target="_top" xlink:title=" ">
<polygon fill="none" stroke="black" points="533,-224.5 533,-243.5 606,-243.5 606,-224.5 533,-224.5"/>
<text text-anchor="middle" x="569.5" y="-231.5" font-family="Helvetica,sans-Serif" font-size="10.00">PartCfg.cpp</text>
</a>
</g>
</g>
<!-- Node1&#45;&gt;Node21 -->
<g id="edge28" class="edge">
<title>Node1&#45;&gt;Node21</title>
<path fill="none" stroke="midnightblue" d="M569.5,-269.8C569.5,-260.91 569.5,-250.78 569.5,-243.75"/>
<polygon fill="midnightblue" stroke="midnightblue" points="566,-270.08 569.5,-280.08 573,-270.08 566,-270.08"/>
</g>
<!-- Node22 -->
<g id="node22" class="node">
<title>Node22</title>
<g id="a_node22"><a xlink:href="particle__data_8cpp.html" target="_top" xlink:title=" ">
<polygon fill="none" stroke="black" points="624,-224.5 624,-243.5 725,-243.5 725,-224.5 624,-224.5"/>
<text text-anchor="middle" x="674.5" y="-231.5" font-family="Helvetica,sans-Serif" font-size="10.00">particle_data.cpp</text>
</a>
</g>
</g>
<!-- Node1&#45;&gt;Node22 -->
<g id="edge29" class="edge">
<title>Node1&#45;&gt;Node22</title>
<path fill="none" stroke="midnightblue" d="M595.31,-275.73C614.75,-265.73 640.85,-252.31 657.67,-243.65"/>
<polygon fill="midnightblue" stroke="midnightblue" points="593.66,-272.64 586.37,-280.32 596.86,-278.86 593.66,-272.64"/>
</g>
<!-- Node23 -->
<g id="node23" class="node">
<title>Node23</title>
<g id="a_node23"><a xlink:href="particle__node_8cpp.html" target="_top" xlink:title=" ">
<polygon fill="none" stroke="black" points="743,-224.5 743,-243.5 846,-243.5 846,-224.5 743,-224.5"/>
<text text-anchor="middle" x="794.5" y="-231.5" font-family="Helvetica,sans-Serif" font-size="10.00">particle_node.cpp</text>
</a>
</g>
</g>
<!-- Node1&#45;&gt;Node23 -->
<g id="edge30" class="edge">
<title>Node1&#45;&gt;Node23</title>
<path fill="none" stroke="midnightblue" d="M614.97,-278.09C657.47,-267.89 720.08,-252.86 759.01,-243.52"/>
<polygon fill="midnightblue" stroke="midnightblue" points="614.06,-274.71 605.15,-280.44 615.69,-281.51 614.06,-274.71"/>
</g>
<!-- Node24 -->
<g id="node24" class="node">
<title>Node24</title>
<g id="a_node24"><a xlink:href="ReactionAlgorithm_8cpp.html" target="_top" xlink:title=" ">
<polygon fill="none" stroke="black" points="864.5,-224.5 864.5,-243.5 992.5,-243.5 992.5,-224.5 864.5,-224.5"/>
<text text-anchor="middle" x="928.5" y="-231.5" font-family="Helvetica,sans-Serif" font-size="10.00">ReactionAlgorithm.cpp</text>
</a>
</g>
</g>
<!-- Node1&#45;&gt;Node24 -->
<g id="edge31" class="edge">
<title>Node1&#45;&gt;Node24</title>
<path fill="none" stroke="midnightblue" d="M631.79,-279.63C699.41,-269.46 806.44,-253.36 871.79,-243.53"/>
<polygon fill="midnightblue" stroke="midnightblue" points="631.07,-276.2 621.7,-281.15 632.11,-283.12 631.07,-276.2"/>
</g>
<!-- Node25 -->
<g id="node25" class="node">
<title>Node25</title>
<g id="a_node25"><a xlink:href="statistics__chain_8cpp.html" target="_top" xlink:title=" ">
<polygon fill="none" stroke="black" points="1011,-224.5 1011,-243.5 1124,-243.5 1124,-224.5 1011,-224.5"/>
<text text-anchor="middle" x="1067.5" y="-231.5" font-family="Helvetica,sans-Serif" font-size="10.00">statistics_chain.cpp</text>
</a>
</g>
</g>
<!-- Node1&#45;&gt;Node25 -->
<g id="edge32" class="edge">
<title>Node1&#45;&gt;Node25</title>
<path fill="none" stroke="midnightblue" d="M631.91,-283.13C715.96,-275.07 870.16,-259.79 1001.5,-244 1004.6,-243.63 1007.78,-243.23 1010.99,-242.83"/>
<polygon fill="midnightblue" stroke="midnightblue" points="631.38,-279.66 621.76,-284.1 632.05,-286.63 631.38,-279.66"/>
</g>
<!-- Node26 -->
<g id="node26" class="node">
<title>Node26</title>
<g id="a_node26"><a xlink:href="virtual__sites_8cpp.html" target="_top" xlink:title=" ">
<polygon fill="none" stroke="black" points="1142,-224.5 1142,-243.5 1239,-243.5 1239,-224.5 1142,-224.5"/>
<text text-anchor="middle" x="1190.5" y="-231.5" font-family="Helvetica,sans-Serif" font-size="10.00">virtual_sites.cpp</text>
</a>
</g>
</g>
<!-- Node1&#45;&gt;Node26 -->
<g id="edge33" class="edge">
<title>Node1&#45;&gt;Node26</title>
<path fill="none" stroke="midnightblue" d="M631.75,-285.6C735.86,-279.57 951.78,-265.56 1133.5,-244 1136.19,-243.68 1138.94,-243.33 1141.72,-242.96"/>
<polygon fill="midnightblue" stroke="midnightblue" points="631.51,-282.11 621.73,-286.18 631.91,-289.1 631.51,-282.11"/>
</g>
<!-- Node27 -->
<g id="node27" class="node">
<title>Node27</title>
<g id="a_node27"><a xlink:href="CellSystem_8hpp.html" target="_top" xlink:title=" ">
<polygon fill="none" stroke="black" points="1257,-224.5 1257,-243.5 1350,-243.5 1350,-224.5 1257,-224.5"/>
<text text-anchor="middle" x="1303.5" y="-231.5" font-family="Helvetica,sans-Serif" font-size="10.00">CellSystem.hpp</text>
</a>
</g>
</g>
<!-- Node1&#45;&gt;Node27 -->
<g id="edge34" class="edge">
<title>Node1&#45;&gt;Node27</title>
<path fill="none" stroke="midnightblue" d="M631.69,-286.88C751.42,-282.35 1022.12,-269.96 1248.5,-244 1251.19,-243.69 1253.95,-243.34 1256.73,-242.97"/>
<polygon fill="midnightblue" stroke="midnightblue" points="631.48,-283.38 621.62,-287.25 631.74,-290.38 631.48,-283.38"/>
</g>
<!-- Node7 -->
<g id="node7" class="node">
<title>Node7</title>
<g id="a_node7"><a xlink:href="PidObservable_8cpp.html" target="_top" xlink:title=" ">
<polygon fill="none" stroke="black" points="252,-168.5 252,-187.5 359,-187.5 359,-168.5 252,-168.5"/>
<text text-anchor="middle" x="305.5" y="-175.5" font-family="Helvetica,sans-Serif" font-size="10.00">PidObservable.cpp</text>
</a>
</g>
</g>
<!-- Node6&#45;&gt;Node7 -->
<g id="edge6" class="edge">
<title>Node6&#45;&gt;Node7</title>
<path fill="none" stroke="midnightblue" d="M331.44,-215.86C324.86,-206.5 316.99,-195.33 311.66,-187.75"/>
<polygon fill="midnightblue" stroke="midnightblue" points="328.61,-217.92 337.23,-224.08 334.33,-213.89 328.61,-217.92"/>
</g>
<!-- Node8 -->
<g id="node8" class="node">
<title>Node8</title>
<g id="a_node8"><a xlink:href="RDF_8cpp.html" target="_top" xlink:title=" ">
<polygon fill="none" stroke="black" points="377.5,-168.5 377.5,-187.5 433.5,-187.5 433.5,-168.5 377.5,-168.5"/>
<text text-anchor="middle" x="405.5" y="-175.5" font-family="Helvetica,sans-Serif" font-size="10.00">RDF.cpp</text>
</a>
</g>
</g>
<!-- Node6&#45;&gt;Node8 -->
<g id="edge7" class="edge">
<title>Node6&#45;&gt;Node8</title>
<path fill="none" stroke="midnightblue" d="M361.25,-217.54C372.31,-207.91 386.13,-195.87 395.36,-187.83"/>
<polygon fill="midnightblue" stroke="midnightblue" points="358.7,-215.12 353.46,-224.32 363.3,-220.4 358.7,-215.12"/>
</g>
<!-- Node10 -->
<g id="node10" class="node">
<title>Node10</title>
<g id="a_node10"><a xlink:href="script__interface_2pair__criteria_2PairCriterion_8hpp.html" target="_top" xlink:title=" ">
<polygon fill="none" stroke="black" points="478.5,-168.5 478.5,-187.5 576.5,-187.5 576.5,-168.5 478.5,-168.5"/>
<text text-anchor="middle" x="527.5" y="-175.5" font-family="Helvetica,sans-Serif" font-size="10.00">PairCriterion.hpp</text>
</a>
</g>
</g>
<!-- Node9&#45;&gt;Node10 -->
<g id="edge9" class="edge">
<title>Node9&#45;&gt;Node10</title>
<path fill="none" stroke="midnightblue" d="M483.25,-217.54C494.31,-207.91 508.13,-195.87 517.36,-187.83"/>
<polygon fill="midnightblue" stroke="midnightblue" points="480.7,-215.12 475.46,-224.32 485.3,-220.4 480.7,-215.12"/>
</g>
<!-- Node11 -->
<g id="node11" class="node">
<title>Node11</title>
<g id="a_node11"><a xlink:href="core_2cluster__analysis_2ClusterStructure_8hpp.html" target="_top" xlink:title=" ">
<polygon fill="none" stroke="black" points="204.5,-112.5 204.5,-131.5 320.5,-131.5 320.5,-112.5 204.5,-112.5"/>
<text text-anchor="middle" x="262.5" y="-119.5" font-family="Helvetica,sans-Serif" font-size="10.00">ClusterStructure.hpp</text>
</a>
</g>
</g>
<!-- Node10&#45;&gt;Node11 -->
<g id="edge10" class="edge">
<title>Node10&#45;&gt;Node11</title>
<path fill="none" stroke="midnightblue" d="M475.53,-166.41C425.45,-156.2 350.64,-140.96 304.29,-131.52"/>
<polygon fill="midnightblue" stroke="midnightblue" points="475.01,-169.88 485.51,-168.44 476.41,-163.02 475.01,-169.88"/>
</g>
<!-- Node12 -->
<g id="node12" class="node">
<title>Node12</title>
<g id="a_node12"><a xlink:href="script__interface_2cluster__analysis_2ClusterStructure_8hpp.html" target="_top" xlink:title=" ">
<polygon fill="none" stroke="black" points="273.5,-56.5 273.5,-75.5 389.5,-75.5 389.5,-56.5 273.5,-56.5"/>
<text text-anchor="middle" x="331.5" y="-63.5" font-family="Helvetica,sans-Serif" font-size="10.00">ClusterStructure.hpp</text>
</a>
</g>
</g>
<!-- Node10&#45;&gt;Node12 -->
<g id="edge23" class="edge">
<title>Node10&#45;&gt;Node12</title>
<path fill="none" stroke="midnightblue" d="M467.93,-171.47C435.42,-165.88 396.08,-154.62 367.5,-132 348.69,-117.11 338.21,-89.54 333.88,-75.58"/>
<polygon fill="midnightblue" stroke="midnightblue" points="467.8,-175 478.23,-173.1 468.9,-168.08 467.8,-175"/>
</g>
<!-- Node14 -->
<g id="node14" class="node">
<title>Node14</title>
<g id="a_node14"><a xlink:href="core_2pair__criteria_2BondCriterion_8hpp.html" target="_top" xlink:title=" ">
<polygon fill="none" stroke="black" points="376.5,-112.5 376.5,-131.5 480.5,-131.5 480.5,-112.5 376.5,-112.5"/>
<text text-anchor="middle" x="428.5" y="-119.5" font-family="Helvetica,sans-Serif" font-size="10.00">BondCriterion.hpp</text>
</a>
</g>
</g>
<!-- Node10&#45;&gt;Node14 -->
<g id="edge14" class="edge">
<title>Node10&#45;&gt;Node14</title>
<path fill="none" stroke="midnightblue" d="M502.66,-163.45C484.39,-153.48 460.08,-140.23 444.37,-131.65"/>
<polygon fill="midnightblue" stroke="midnightblue" points="501.14,-166.61 511.59,-168.32 504.49,-160.46 501.14,-166.61"/>
</g>
<!-- Node15 -->
<g id="node15" class="node">
<title>Node15</title>
<g id="a_node15"><a xlink:href="script__interface_2pair__criteria_2BondCriterion_8hpp.html" target="_top" xlink:title=" ">
<polygon fill="none" stroke="black" points="414.5,-56.5 414.5,-75.5 518.5,-75.5 518.5,-56.5 414.5,-56.5"/>
<text text-anchor="middle" x="466.5" y="-63.5" font-family="Helvetica,sans-Serif" font-size="10.00">BondCriterion.hpp</text>
</a>
</g>
</g>
<!-- Node10&#45;&gt;Node15 -->
<g id="edge24" class="edge">
<title>Node10&#45;&gt;Node15</title>
<path fill="none" stroke="midnightblue" d="M517.7,-159.32C504.41,-135.37 481.22,-93.55 471.26,-75.59"/>
<polygon fill="midnightblue" stroke="midnightblue" points="514.8,-161.32 522.71,-168.37 520.92,-157.93 514.8,-161.32"/>
</g>
<!-- Node16 -->
<g id="node16" class="node">
<title>Node16</title>
<g id="a_node16"><a xlink:href="pair__criteria_2initialize_8cpp.html" target="_top" xlink:title=" ">
<polygon fill="none" stroke="black" points="551,-0.5 551,-19.5 630,-19.5 630,-0.5 551,-0.5"/>
<text text-anchor="middle" x="590.5" y="-7.5" font-family="Helvetica,sans-Serif" font-size="10.00">initialize.cpp</text>
</a>
</g>
</g>
<!-- Node10&#45;&gt;Node16 -->
<g id="edge27" class="edge">
<title>Node10&#45;&gt;Node16</title>
<path fill="none" stroke="midnightblue" d="M532.1,-158.34C538.33,-134.21 550.42,-91.11 565.5,-56 571.14,-42.86 579.5,-28.57 584.97,-19.7"/>
<polygon fill="midnightblue" stroke="midnightblue" points="528.64,-157.72 529.59,-168.28 535.43,-159.44 528.64,-157.72"/>
</g>
<!-- Node17 -->
<g id="node17" class="node">
<title>Node17</title>
<g id="a_node17"><a xlink:href="core_2pair__criteria_2DistanceCriterion_8hpp.html" target="_top" xlink:title=" ">
<polygon fill="none" stroke="black" points="574.5,-112.5 574.5,-131.5 696.5,-131.5 696.5,-112.5 574.5,-112.5"/>
<text text-anchor="middle" x="635.5" y="-119.5" font-family="Helvetica,sans-Serif" font-size="10.00">DistanceCriterion.hpp</text>
</a>
</g>
</g>
<!-- Node10&#45;&gt;Node17 -->
<g id="edge17" class="edge">
<title>Node10&#45;&gt;Node17</title>
<path fill="none" stroke="midnightblue" d="M554.05,-163.73C574.05,-153.73 600.89,-140.31 618.19,-131.65"/>
<polygon fill="midnightblue" stroke="midnightblue" points="552.23,-160.72 544.85,-168.32 555.36,-166.98 552.23,-160.72"/>
</g>
<!-- Node18 -->
<g id="node18" class="node">
<title>Node18</title>
<g id="a_node18"><a xlink:href="script__interface_2pair__criteria_2DistanceCriterion_8hpp.html" target="_top" xlink:title=" ">
<polygon fill="none" stroke="black" points="574.5,-56.5 574.5,-75.5 696.5,-75.5 696.5,-56.5 574.5,-56.5"/>
<text text-anchor="middle" x="635.5" y="-63.5" font-family="Helvetica,sans-Serif" font-size="10.00">DistanceCriterion.hpp</text>
</a>
</g>
</g>
<!-- Node10&#45;&gt;Node18 -->
<g id="edge25" class="edge">
<title>Node10&#45;&gt;Node18</title>
<path fill="none" stroke="midnightblue" d="M586.95,-169.84C632.84,-162.94 690.89,-150.76 705.5,-132 723.33,-109.1 684.07,-87.13 657.44,-75.53"/>
<polygon fill="midnightblue" stroke="midnightblue" points="586.17,-166.41 576.77,-171.31 587.17,-173.34 586.17,-166.41"/>
</g>
<!-- Node19 -->
<g id="node19" class="node">
<title>Node19</title>
<g id="a_node19"><a xlink:href="core_2pair__criteria_2EnergyCriterion_8hpp.html" target="_top" xlink:title=" ">
<polygon fill="none" stroke="black" points="753,-112.5 753,-131.5 866,-131.5 866,-112.5 753,-112.5"/>
<text text-anchor="middle" x="809.5" y="-119.5" font-family="Helvetica,sans-Serif" font-size="10.00">EnergyCriterion.hpp</text>
</a>
</g>
</g>
<!-- Node10&#45;&gt;Node19 -->
<g id="edge20" class="edge">
<title>Node10&#45;&gt;Node19</title>
<path fill="none" stroke="midnightblue" d="M582.14,-166.54C635.44,-156.33 715.5,-141 765.03,-131.52"/>
<polygon fill="midnightblue" stroke="midnightblue" points="581.35,-163.13 572.18,-168.44 582.66,-170 581.35,-163.13"/>
</g>
<!-- Node20 -->
<g id="node20" class="node">
<title>Node20</title>
<g id="a_node20"><a xlink:href="script__interface_2pair__criteria_2EnergyCriterion_8hpp.html" target="_top" xlink:title=" ">
<polygon fill="none" stroke="black" points="753,-56.5 753,-75.5 866,-75.5 866,-56.5 753,-56.5"/>
<text text-anchor="middle" x="809.5" y="-63.5" font-family="Helvetica,sans-Serif" font-size="10.00">EnergyCriterion.hpp</text>
</a>
</g>
</g>
<!-- Node10&#45;&gt;Node20 -->
<g id="edge26" class="edge">
<title>Node10&#45;&gt;Node20</title>
<path fill="none" stroke="midnightblue" d="M586.92,-173.51C681.07,-167.36 855.85,-153.22 874.5,-132 893.15,-110.78 854.93,-87.83 829.58,-75.69"/>
<polygon fill="midnightblue" stroke="midnightblue" points="586.44,-170.03 576.69,-174.17 586.89,-177.02 586.44,-170.03"/>
</g>
<!-- Node11&#45;&gt;Node4 -->
<g id="edge11" class="edge">
<title>Node11&#45;&gt;Node4</title>
<path fill="none" stroke="midnightblue" d="M241.47,-106.62C227.03,-96.76 208.36,-83.99 196.16,-75.65"/>
<polygon fill="midnightblue" stroke="midnightblue" points="239.58,-109.57 249.81,-112.32 243.53,-103.79 239.58,-109.57"/>
</g>
<!-- Node11&#45;&gt;Node12 -->
<g id="edge12" class="edge">
<title>Node11&#45;&gt;Node12</title>
<path fill="none" stroke="midnightblue" d="M281.54,-106.1C293.96,-96.38 309.74,-84.03 320.21,-75.83"/>
<polygon fill="midnightblue" stroke="midnightblue" points="279.3,-103.4 273.59,-112.32 283.62,-108.92 279.3,-103.4"/>
</g>
<!-- Node13 -->
<g id="node13" class="node">
<title>Node13</title>
<g id="a_node13"><a xlink:href="cluster__analysis_2initialize_8cpp.html" target="_top" xlink:title=" ">
<polygon fill="none" stroke="black" points="292,-0.5 292,-19.5 371,-19.5 371,-0.5 292,-0.5"/>
<text text-anchor="middle" x="331.5" y="-7.5" font-family="Helvetica,sans-Serif" font-size="10.00">initialize.cpp</text>
</a>
</g>
</g>
<!-- Node12&#45;&gt;Node13 -->
<g id="edge13" class="edge">
<title>Node12&#45;&gt;Node13</title>
<path fill="none" stroke="midnightblue" d="M331.5,-45.8C331.5,-36.91 331.5,-26.78 331.5,-19.75"/>
<polygon fill="midnightblue" stroke="midnightblue" points="328,-46.08 331.5,-56.08 335,-46.08 328,-46.08"/>
</g>
<!-- Node14&#45;&gt;Node15 -->
<g id="edge15" class="edge">
<title>Node14&#45;&gt;Node15</title>
<path fill="none" stroke="midnightblue" d="M440.56,-103.86C447.14,-94.5 455.01,-83.33 460.34,-75.75"/>
<polygon fill="midnightblue" stroke="midnightblue" points="437.67,-101.89 434.77,-112.08 443.39,-105.92 437.67,-101.89"/>
</g>
<!-- Node15&#45;&gt;Node16 -->
<g id="edge16" class="edge">
<title>Node15&#45;&gt;Node16</title>
<path fill="none" stroke="midnightblue" d="M495.51,-52.37C518.73,-42.26 550.66,-28.35 570.94,-19.52"/>
<polygon fill="midnightblue" stroke="midnightblue" points="493.92,-49.24 486.15,-56.44 496.71,-55.66 493.92,-49.24"/>
</g>
<!-- Node17&#45;&gt;Node18 -->
<g id="edge18" class="edge">
<title>Node17&#45;&gt;Node18</title>
<path fill="none" stroke="midnightblue" d="M635.5,-101.8C635.5,-92.91 635.5,-82.78 635.5,-75.75"/>
<polygon fill="midnightblue" stroke="midnightblue" points="632,-102.08 635.5,-112.08 639,-102.08 632,-102.08"/>
</g>
<!-- Node18&#45;&gt;Node16 -->
<g id="edge19" class="edge">
<title>Node18&#45;&gt;Node16</title>
<path fill="none" stroke="midnightblue" d="M621.45,-48.14C613.61,-38.74 604.17,-27.4 597.79,-19.75"/>
<polygon fill="midnightblue" stroke="midnightblue" points="618.98,-50.64 628.07,-56.08 624.36,-46.16 618.98,-50.64"/>
</g>
<!-- Node19&#45;&gt;Node20 -->
<g id="edge21" class="edge">
<title>Node19&#45;&gt;Node20</title>
<path fill="none" stroke="midnightblue" d="M809.5,-101.8C809.5,-92.91 809.5,-82.78 809.5,-75.75"/>
<polygon fill="midnightblue" stroke="midnightblue" points="806,-102.08 809.5,-112.08 813,-102.08 806,-102.08"/>
</g>
<!-- Node20&#45;&gt;Node16 -->
<g id="edge22" class="edge">
<title>Node20&#45;&gt;Node16</title>
<path fill="none" stroke="midnightblue" d="M764.99,-54.02C723.62,-43.82 662.86,-28.84 625.04,-19.52"/>
<polygon fill="midnightblue" stroke="midnightblue" points="764.25,-57.45 774.8,-56.44 765.93,-50.65 764.25,-57.45"/>
</g>
<!-- Node28 -->
<g id="node28" class="node">
<title>Node28</title>
<g id="a_node28"><a xlink:href="cell__system_2initialize_8cpp.html" target="_top" xlink:title=" ">
<polygon fill="none" stroke="black" points="1264,-168.5 1264,-187.5 1343,-187.5 1343,-168.5 1264,-168.5"/>
<text text-anchor="middle" x="1303.5" y="-175.5" font-family="Helvetica,sans-Serif" font-size="10.00">initialize.cpp</text>
</a>
</g>
</g>
<!-- Node27&#45;&gt;Node28 -->
<g id="edge35" class="edge">
<title>Node27&#45;&gt;Node28</title>
<path fill="none" stroke="midnightblue" d="M1303.5,-213.8C1303.5,-204.91 1303.5,-194.78 1303.5,-187.75"/>
<polygon fill="midnightblue" stroke="midnightblue" points="1300,-214.08 1303.5,-224.08 1307,-214.08 1300,-214.08"/>
</g>
</g>
</svg>
