<?xml version="1.0" encoding="UTF-8" standalone="no"?>
<!DOCTYPE svg PUBLIC "-//W3C//DTD SVG 1.1//EN"
 "http://www.w3.org/Graphics/SVG/1.1/DTD/svg11.dtd">
<!-- Generated by graphviz version 2.43.0 (0)
 -->
<!-- Title: random.hpp Pages: 1 -->
<!--zoomable 285 -->
<svg id="main" version="1.1" xmlns="http://www.w3.org/2000/svg" xmlns:xlink="http://www.w3.org/1999/xlink" xml:space="preserve" onload="init(evt)">
<style type="text/css"><![CDATA[
.edge:hover path { stroke: red; }
.edge:hover polygon { stroke: red; fill: red; }
]]></style>
<script type="text/javascript"><![CDATA[
var edges = document.getElementsByTagName('g');
if (edges && edges.length) {
  for (var i=0;i<edges.length;i++) {
    if (edges[i].id.substr(0,4)=='edge') {
      edges[i].setAttribute('class','edge');
    }
  }
}
]]></script>
        <defs>
                <circle id="rim" cx="0" cy="0" r="7"/>
                <circle id="rim2" cx="0" cy="0" r="3.5"/>
                <g id="zoomPlus">
                        <use xlink:href="#rim" fill="#404040">
                                <set attributeName="fill" to="#808080" begin="zoomplus.mouseover" end="zoomplus.mouseout"/>
                        </use>
                        <path d="M-4,0h8M0,-4v8" fill="none" stroke="white" stroke-width="1.5" pointer-events="none"/>
                </g>
                <g id="zoomMin">
                        <use xlink:href="#rim" fill="#404040">
                                <set attributeName="fill" to="#808080" begin="zoomminus.mouseover" end="zoomminus.mouseout"/>
                        </use>
                        <path d="M-4,0h8" fill="none" stroke="white" stroke-width="1.5" pointer-events="none"/>
                </g>
                <g id="dirArrow">
                        <path fill="none" stroke="white" stroke-width="1.5" d="M0,-3.0v7 M-2.5,-0.5L0,-3.0L2.5,-0.5"/>
                </g>
               <g id="resetDef">
                       <use xlink:href="#rim2" fill="#404040">
                               <set attributeName="fill" to="#808080" begin="reset.mouseover" end="reset.mouseout"/>
                       </use>
               </g>
        </defs>

<script type="text/javascript">
var viewWidth = 2181;
var viewHeight = 285;
var sectionId = 'dynsection-0';
</script>
<script xlink:href="svgpan.js"/>
<svg id="graph" class="graph">
<g id="viewport">
<title>random.hpp</title>
<!-- Node1 -->
<g id="node1" class="node">
<title>Node1</title>
<g id="a_node1"><a xlink:title="Random number generation using Philox.">
<polygon fill="#bfbfbf" stroke="black" points="1321.5,-257.5 1321.5,-276.5 1396.5,-276.5 1396.5,-257.5 1321.5,-257.5"/>
<text text-anchor="middle" x="1359" y="-264.5" font-family="Helvetica,sans-Serif" font-size="10.00">random.hpp</text>
</a>
</g>
</g>
<!-- Node2 -->
<g id="node2" class="node">
<title>Node2</title>
<g id="a_node2"><a xlink:href="Vector_8hpp.html" target="_top" xlink:title="Vector implementation and trait types for boost qvm interoperability.">
<polygon fill="none" stroke="black" points="794,-201.5 794,-220.5 886,-220.5 886,-201.5 794,-201.5"/>
<text text-anchor="middle" x="840" y="-208.5" font-family="Helvetica,sans-Serif" font-size="10.00">utils/Vector.hpp</text>
</a>
</g>
</g>
<!-- Node1&#45;&gt;Node2 -->
<g id="edge1" class="edge">
<title>Node1&#45;&gt;Node2</title>
<path fill="none" stroke="midnightblue" d="M1321.26,-262.07C1231.18,-252.7 1003.24,-228.98 896.62,-217.89"/>
<polygon fill="midnightblue" stroke="midnightblue" points="896.69,-214.38 886.38,-216.83 895.96,-221.34 896.69,-214.38"/>
</g>
<!-- Node9 -->
<g id="node9" class="node">
<title>Node9</title>
<g id="a_node9"><a xlink:title=" ">
<polygon fill="none" stroke="#bfbfbf" points="1031.5,-6 1031.5,-25 1084.5,-25 1084.5,-6 1031.5,-6"/>
<text text-anchor="middle" x="1058" y="-13" font-family="Helvetica,sans-Serif" font-size="10.00">cstddef</text>
</a>
</g>
</g>
<!-- Node1&#45;&gt;Node9 -->
<g id="edge46" class="edge">
<title>Node1&#45;&gt;Node9</title>
<path fill="none" stroke="midnightblue" d="M1354.22,-257.46C1349.25,-248.48 1341.31,-233.88 1335,-221 1316.35,-182.95 1324.33,-165.51 1296,-134 1228.36,-58.77 1186.55,-69.51 1093,-31 1091.41,-30.35 1089.78,-29.67 1088.14,-29"/>
<polygon fill="midnightblue" stroke="midnightblue" points="1089.3,-25.69 1078.72,-25.1 1086.63,-32.16 1089.3,-25.69"/>
</g>
<!-- Node30 -->
<g id="node30" class="node">
<title>Node30</title>
<g id="a_node30"><a xlink:title=" ">
<polygon fill="none" stroke="#bfbfbf" points="1240.5,-140 1240.5,-159 1287.5,-159 1287.5,-140 1240.5,-140"/>
<text text-anchor="middle" x="1264" y="-147" font-family="Helvetica,sans-Serif" font-size="10.00">vector</text>
</a>
</g>
</g>
<!-- Node1&#45;&gt;Node30 -->
<g id="edge48" class="edge">
<title>Node1&#45;&gt;Node30</title>
<path fill="none" stroke="midnightblue" d="M1345.01,-257.34C1332.58,-249.13 1314.49,-235.87 1302,-221 1288.63,-205.08 1277.92,-183.71 1271.32,-168.69"/>
<polygon fill="midnightblue" stroke="midnightblue" points="1274.53,-167.3 1267.42,-159.44 1268.08,-170.02 1274.53,-167.3"/>
</g>
<!-- Node31 -->
<g id="node31" class="node">
<title>Node31</title>
<g id="a_node31"><a xlink:href="constants_8hpp.html" target="_top" xlink:title=" ">
<polygon fill="none" stroke="black" points="95.5,-201.5 95.5,-220.5 204.5,-220.5 204.5,-201.5 95.5,-201.5"/>
<text text-anchor="middle" x="150" y="-208.5" font-family="Helvetica,sans-Serif" font-size="10.00">utils/constants.hpp</text>
</a>
</g>
</g>
<!-- Node1&#45;&gt;Node31 -->
<g id="edge36" class="edge">
<title>Node1&#45;&gt;Node31</title>
<path fill="none" stroke="midnightblue" d="M1321.49,-264.32C1149.45,-256.64 434.85,-224.72 214.79,-214.89"/>
<polygon fill="midnightblue" stroke="midnightblue" points="214.84,-211.39 204.69,-214.44 214.52,-218.39 214.84,-211.39"/>
</g>
<!-- Node33 -->
<g id="node33" class="node">
<title>Node33</title>
<g id="a_node33"><a xlink:href="u32__to__u64_8hpp.html" target="_top" xlink:title=" ">
<polygon fill="none" stroke="black" points="1344,-201.5 1344,-220.5 1462,-220.5 1462,-201.5 1344,-201.5"/>
<text text-anchor="middle" x="1403" y="-208.5" font-family="Helvetica,sans-Serif" font-size="10.00">utils/u32_to_u64.hpp</text>
</a>
</g>
</g>
<!-- Node1&#45;&gt;Node33 -->
<g id="edge39" class="edge">
<title>Node1&#45;&gt;Node33</title>
<path fill="none" stroke="midnightblue" d="M1366.27,-257.08C1372.54,-249.38 1381.79,-238.03 1389.43,-228.65"/>
<polygon fill="midnightblue" stroke="midnightblue" points="1392.27,-230.71 1395.87,-220.75 1386.84,-226.29 1392.27,-230.71"/>
</g>
<!-- Node36 -->
<g id="node36" class="node">
<title>Node36</title>
<g id="a_node36"><a xlink:href="uniform_8hpp.html" target="_top" xlink:title=" ">
<polygon fill="none" stroke="black" points="1480,-201.5 1480,-220.5 1580,-220.5 1580,-201.5 1480,-201.5"/>
<text text-anchor="middle" x="1530" y="-208.5" font-family="Helvetica,sans-Serif" font-size="10.00">utils/uniform.hpp</text>
</a>
</g>
</g>
<!-- Node1&#45;&gt;Node36 -->
<g id="edge42" class="edge">
<title>Node1&#45;&gt;Node36</title>
<path fill="none" stroke="midnightblue" d="M1386.1,-257.44C1414.99,-248.32 1460.92,-233.81 1493.11,-223.65"/>
<polygon fill="midnightblue" stroke="midnightblue" points="1494.55,-226.87 1503.03,-220.52 1492.44,-220.19 1494.55,-226.87"/>
</g>
<!-- Node39 -->
<g id="node39" class="node">
<title>Node39</title>
<g id="a_node39"><a xlink:title=" ">
<polygon fill="none" stroke="#bfbfbf" points="1598.5,-201.5 1598.5,-220.5 1715.5,-220.5 1715.5,-201.5 1598.5,-201.5"/>
<text text-anchor="middle" x="1657" y="-208.5" font-family="Helvetica,sans-Serif" font-size="10.00">Random123/philox.h</text>
</a>
</g>
</g>
<!-- Node1&#45;&gt;Node39 -->
<g id="edge45" class="edge">
<title>Node1&#45;&gt;Node39</title>
<path fill="none" stroke="midnightblue" d="M1396.74,-259.16C1448.04,-249.86 1540.22,-233.16 1599.98,-222.33"/>
<polygon fill="midnightblue" stroke="midnightblue" points="1600.8,-225.74 1610.01,-220.51 1599.55,-218.85 1600.8,-225.74"/>
</g>
<!-- Node40 -->
<g id="node40" class="node">
<title>Node40</title>
<g id="a_node40"><a xlink:title=" ">
<polygon fill="none" stroke="#bfbfbf" points="1734,-201.5 1734,-220.5 1788,-220.5 1788,-201.5 1734,-201.5"/>
<text text-anchor="middle" x="1761" y="-208.5" font-family="Helvetica,sans-Serif" font-size="10.00">random</text>
</a>
</g>
</g>
<!-- Node1&#45;&gt;Node40 -->
<g id="edge47" class="edge">
<title>Node1&#45;&gt;Node40</title>
<path fill="none" stroke="midnightblue" d="M1396.64,-262.91C1461.48,-257.25 1598.56,-243.83 1723.8,-221.01"/>
<polygon fill="midnightblue" stroke="midnightblue" points="1724.75,-224.4 1733.95,-219.14 1723.48,-217.51 1724.75,-224.4"/>
</g>
<!-- Node3 -->
<g id="node3" class="node">
<title>Node3</title>
<g id="a_node3"><a xlink:title=" ">
<polygon fill="none" stroke="#bfbfbf" points="327,-140 327,-159 477,-159 477,-140 327,-140"/>
<text text-anchor="middle" x="402" y="-147" font-family="Helvetica,sans-Serif" font-size="10.00">boost/qvm/deduce_vec.hpp</text>
</a>
</g>
</g>
<!-- Node2&#45;&gt;Node3 -->
<g id="edge2" class="edge">
<title>Node2&#45;&gt;Node3</title>
<path fill="none" stroke="midnightblue" d="M793.8,-204.79C726.13,-197.01 596.13,-181.5 486,-165 477.39,-163.71 468.29,-162.25 459.4,-160.76"/>
<polygon fill="midnightblue" stroke="midnightblue" points="459.92,-157.3 449.47,-159.07 458.75,-164.2 459.92,-157.3"/>
</g>
<!-- Node4 -->
<g id="node4" class="node">
<title>Node4</title>
<g id="a_node4"><a xlink:title=" ">
<polygon fill="none" stroke="#bfbfbf" points="495,-140 495,-159 635,-159 635,-140 495,-140"/>
<text text-anchor="middle" x="565" y="-147" font-family="Helvetica,sans-Serif" font-size="10.00">boost/qvm/vec_traits.hpp</text>
</a>
</g>
</g>
<!-- Node2&#45;&gt;Node4 -->
<g id="edge3" class="edge">
<title>Node2&#45;&gt;Node4</title>
<path fill="none" stroke="midnightblue" d="M800.6,-201.48C751.49,-190.85 667.53,-172.68 614.23,-161.15"/>
<polygon fill="midnightblue" stroke="midnightblue" points="614.84,-157.7 604.33,-159.01 613.36,-164.54 614.84,-157.7"/>
</g>
<!-- Node5 -->
<g id="node5" class="node">
<title>Node5</title>
<g id="a_node5"><a xlink:href="Array_8hpp.html" target="_top" xlink:title="Array implementation with CUDA support.">
<polygon fill="none" stroke="black" points="839,-140 839,-159 925,-159 925,-140 839,-140"/>
<text text-anchor="middle" x="882" y="-147" font-family="Helvetica,sans-Serif" font-size="10.00">utils/Array.hpp</text>
</a>
</g>
</g>
<!-- Node2&#45;&gt;Node5 -->
<g id="edge4" class="edge">
<title>Node2&#45;&gt;Node5</title>
<path fill="none" stroke="midnightblue" d="M846.02,-201.48C852.26,-192.64 862.17,-178.59 870.02,-167.48"/>
<polygon fill="midnightblue" stroke="midnightblue" points="873.09,-169.2 875.99,-159.01 867.37,-165.16 873.09,-169.2"/>
</g>
<!-- Node7 -->
<g id="node7" class="node">
<title>Node7</title>
<g id="a_node7"><a xlink:title=" ">
<polygon fill="none" stroke="#bfbfbf" points="186,-6 186,-25 238,-25 238,-6 186,-6"/>
<text text-anchor="middle" x="212" y="-13" font-family="Helvetica,sans-Serif" font-size="10.00">cassert</text>
</a>
</g>
</g>
<!-- Node2&#45;&gt;Node7 -->
<g id="edge27" class="edge">
<title>Node2&#45;&gt;Node7</title>
<path fill="none" stroke="midnightblue" d="M793.93,-209.88C658.99,-209.1 271.59,-203.47 231,-165 195.55,-131.4 201.91,-67.11 207.8,-35.29"/>
<polygon fill="midnightblue" stroke="midnightblue" points="211.29,-35.65 209.87,-25.16 204.44,-34.25 211.29,-35.65"/>
</g>
<!-- Node2&#45;&gt;Node9 -->
<g id="edge29" class="edge">
<title>Node2&#45;&gt;Node9</title>
<path fill="none" stroke="midnightblue" d="M886.13,-207.47C977.2,-201.99 1173.02,-187.69 1193,-165 1221.56,-132.57 1162.51,-76.93 1152,-67 1141.65,-57.21 1109.8,-40.96 1086.03,-29.54"/>
<polygon fill="midnightblue" stroke="midnightblue" points="1087.27,-26.25 1076.74,-25.12 1084.27,-32.58 1087.27,-26.25"/>
</g>
<!-- Node21 -->
<g id="node21" class="node">
<title>Node21</title>
<g id="a_node21"><a xlink:title=" ">
<polygon fill="none" stroke="#bfbfbf" points="639.5,-73 639.5,-92 692.5,-92 692.5,-73 639.5,-73"/>
<text text-anchor="middle" x="666" y="-80" font-family="Helvetica,sans-Serif" font-size="10.00">iterator</text>
</a>
</g>
</g>
<!-- Node2&#45;&gt;Node21 -->
<g id="edge32" class="edge">
<title>Node2&#45;&gt;Node21</title>
<path fill="none" stroke="midnightblue" d="M793.9,-209.26C758.27,-206.12 710.38,-195.86 682,-165 666.48,-148.12 664.07,-120.77 664.47,-102.47"/>
<polygon fill="midnightblue" stroke="midnightblue" points="667.96,-102.58 664.99,-92.41 660.97,-102.22 667.96,-102.58"/>
</g>
<!-- Node24 -->
<g id="node24" class="node">
<title>Node24</title>
<g id="a_node24"><a xlink:title=" ">
<polygon fill="none" stroke="#bfbfbf" points="691,-140 691,-159 755,-159 755,-140 691,-140"/>
<text text-anchor="middle" x="723" y="-147" font-family="Helvetica,sans-Serif" font-size="10.00">algorithm</text>
</a>
</g>
</g>
<!-- Node2&#45;&gt;Node24 -->
<g id="edge26" class="edge">
<title>Node2&#45;&gt;Node24</title>
<path fill="none" stroke="midnightblue" d="M823.24,-201.48C803.78,-191.58 771.45,-175.14 748.79,-163.62"/>
<polygon fill="midnightblue" stroke="midnightblue" points="750.23,-160.42 739.73,-159.01 747.06,-166.66 750.23,-160.42"/>
</g>
<!-- Node25 -->
<g id="node25" class="node">
<title>Node25</title>
<g id="a_node25"><a xlink:title=" ">
<polygon fill="none" stroke="#bfbfbf" points="773.5,-140 773.5,-159 820.5,-159 820.5,-140 773.5,-140"/>
<text text-anchor="middle" x="797" y="-147" font-family="Helvetica,sans-Serif" font-size="10.00">cmath</text>
</a>
</g>
</g>
<!-- Node2&#45;&gt;Node25 -->
<g id="edge28" class="edge">
<title>Node2&#45;&gt;Node25</title>
<path fill="none" stroke="midnightblue" d="M833.84,-201.48C827.39,-192.55 817.1,-178.31 809.03,-167.14"/>
<polygon fill="midnightblue" stroke="midnightblue" points="811.84,-165.06 803.15,-159.01 806.17,-169.16 811.84,-165.06"/>
</g>
<!-- Node26 -->
<g id="node26" class="node">
<title>Node26</title>
<g id="a_node26"><a xlink:title=" ">
<polygon fill="none" stroke="#bfbfbf" points="943.5,-140 943.5,-159 1008.5,-159 1008.5,-140 943.5,-140"/>
<text text-anchor="middle" x="976" y="-147" font-family="Helvetica,sans-Serif" font-size="10.00">functional</text>
</a>
</g>
</g>
<!-- Node2&#45;&gt;Node26 -->
<g id="edge30" class="edge">
<title>Node2&#45;&gt;Node26</title>
<path fill="none" stroke="midnightblue" d="M859.49,-201.48C882.41,-191.45 920.69,-174.7 947.08,-163.15"/>
<polygon fill="midnightblue" stroke="midnightblue" points="948.79,-166.22 956.55,-159.01 945.99,-159.81 948.79,-166.22"/>
</g>
<!-- Node27 -->
<g id="node27" class="node">
<title>Node27</title>
<g id="a_node27"><a xlink:title=" ">
<polygon fill="none" stroke="#bfbfbf" points="1026.5,-140 1026.5,-159 1109.5,-159 1109.5,-140 1026.5,-140"/>
<text text-anchor="middle" x="1068" y="-147" font-family="Helvetica,sans-Serif" font-size="10.00">initializer_list</text>
</a>
</g>
</g>
<!-- Node2&#45;&gt;Node27 -->
<g id="edge31" class="edge">
<title>Node2&#45;&gt;Node27</title>
<path fill="none" stroke="midnightblue" d="M874.67,-201.49C910.41,-192.65 967.71,-178.27 1017,-165 1020.79,-163.98 1024.74,-162.9 1028.68,-161.8"/>
<polygon fill="midnightblue" stroke="midnightblue" points="1029.69,-165.15 1038.37,-159.07 1027.8,-158.41 1029.69,-165.15"/>
</g>
<!-- Node28 -->
<g id="node28" class="node">
<title>Node28</title>
<g id="a_node28"><a xlink:title=" ">
<polygon fill="none" stroke="#bfbfbf" points="1128,-140 1128,-159 1184,-159 1184,-140 1128,-140"/>
<text text-anchor="middle" x="1156" y="-147" font-family="Helvetica,sans-Serif" font-size="10.00">numeric</text>
</a>
</g>
</g>
<!-- Node2&#45;&gt;Node28 -->
<g id="edge33" class="edge">
<title>Node2&#45;&gt;Node28</title>
<path fill="none" stroke="midnightblue" d="M886.36,-205.42C942.04,-199.26 1037.97,-186.51 1118,-165 1120.66,-164.29 1123.39,-163.45 1126.1,-162.55"/>
<polygon fill="midnightblue" stroke="midnightblue" points="1127.51,-165.77 1135.74,-159.11 1125.15,-159.18 1127.51,-165.77"/>
</g>
<!-- Node29 -->
<g id="node29" class="node">
<title>Node29</title>
<g id="a_node29"><a xlink:title=" ">
<polygon fill="none" stroke="#bfbfbf" points="240.5,-140 240.5,-159 309.5,-159 309.5,-140 240.5,-140"/>
<text text-anchor="middle" x="275" y="-147" font-family="Helvetica,sans-Serif" font-size="10.00">type_traits</text>
</a>
</g>
</g>
<!-- Node2&#45;&gt;Node29 -->
<g id="edge34" class="edge">
<title>Node2&#45;&gt;Node29</title>
<path fill="none" stroke="midnightblue" d="M793.73,-209.71C701.99,-208.31 490.97,-201.07 318,-165 314.31,-164.23 310.5,-163.24 306.74,-162.15"/>
<polygon fill="midnightblue" stroke="midnightblue" points="307.63,-158.75 297.04,-159.06 305.51,-165.42 307.63,-158.75"/>
</g>
<!-- Node2&#45;&gt;Node30 -->
<g id="edge35" class="edge">
<title>Node2&#45;&gt;Node30</title>
<path fill="none" stroke="midnightblue" d="M886.11,-208.32C959.17,-204.84 1105.59,-194.5 1226,-165 1228.83,-164.31 1231.73,-163.46 1234.61,-162.53"/>
<polygon fill="midnightblue" stroke="midnightblue" points="1235.93,-165.77 1244.18,-159.13 1233.59,-159.18 1235.93,-165.77"/>
</g>
<!-- Node6 -->
<g id="node6" class="node">
<title>Node6</title>
<g id="a_node6"><a xlink:href="device__qualifier_8hpp.html" target="_top" xlink:title=" ">
<polygon fill="none" stroke="black" points="70,-73 70,-92 184,-92 184,-73 70,-73"/>
<text text-anchor="middle" x="127" y="-80" font-family="Helvetica,sans-Serif" font-size="10.00">device_qualifier.hpp</text>
</a>
</g>
</g>
<!-- Node5&#45;&gt;Node6 -->
<g id="edge5" class="edge">
<title>Node5&#45;&gt;Node6</title>
<path fill="none" stroke="midnightblue" d="M854.72,-139.94C846.53,-137.67 837.46,-135.45 829,-134 598.51,-94.57 320.33,-85.87 194.57,-83.99"/>
<polygon fill="midnightblue" stroke="midnightblue" points="194.37,-80.49 184.32,-83.85 194.27,-87.49 194.37,-80.49"/>
</g>
<!-- Node5&#45;&gt;Node7 -->
<g id="edge21" class="edge">
<title>Node5&#45;&gt;Node7</title>
<path fill="none" stroke="midnightblue" d="M859.03,-139.87C834.1,-130.32 793.25,-114.13 759,-98 732.56,-85.54 728.95,-75.55 701,-67 616.15,-41.04 346.55,-23.94 248.28,-18.43"/>
<polygon fill="midnightblue" stroke="midnightblue" points="248.42,-14.93 238.24,-17.87 248.03,-21.92 248.42,-14.93"/>
</g>
<!-- Node8 -->
<g id="node8" class="node">
<title>Node8</title>
<g id="a_node8"><a xlink:href="get_8hpp.html" target="_top" xlink:title=" ">
<polygon fill="none" stroke="black" points="851.5,-73 851.5,-92 904.5,-92 904.5,-73 851.5,-73"/>
<text text-anchor="middle" x="878" y="-80" font-family="Helvetica,sans-Serif" font-size="10.00">get.hpp</text>
</a>
</g>
</g>
<!-- Node5&#45;&gt;Node8 -->
<g id="edge7" class="edge">
<title>Node5&#45;&gt;Node8</title>
<path fill="none" stroke="midnightblue" d="M881.46,-139.73C880.87,-130.18 879.91,-114.62 879.16,-102.28"/>
<polygon fill="midnightblue" stroke="midnightblue" points="882.64,-101.89 878.53,-92.13 875.65,-102.32 882.64,-101.89"/>
</g>
<!-- Node5&#45;&gt;Node9 -->
<g id="edge22" class="edge">
<title>Node5&#45;&gt;Node9</title>
<path fill="none" stroke="midnightblue" d="M911.02,-139.9C954.9,-126.79 1033.54,-102.79 1038,-98 1053.78,-81.04 1057.67,-53.71 1058.36,-35.43"/>
<polygon fill="midnightblue" stroke="midnightblue" points="1061.86,-35.42 1058.45,-25.39 1054.86,-35.36 1061.86,-35.42"/>
</g>
<!-- Node11 -->
<g id="node11" class="node">
<title>Node11</title>
<g id="a_node11"><a xlink:href="array_8hpp.html" target="_top" xlink:title=" ">
<polygon fill="none" stroke="black" points="1445.5,-73 1445.5,-92 1570.5,-92 1570.5,-73 1445.5,-73"/>
<text text-anchor="middle" x="1508" y="-80" font-family="Helvetica,sans-Serif" font-size="10.00">serialization/array.hpp</text>
</a>
</g>
</g>
<!-- Node5&#45;&gt;Node11 -->
<g id="edge10" class="edge">
<title>Node5&#45;&gt;Node11</title>
<path fill="none" stroke="midnightblue" d="M909.04,-139.94C917.01,-137.7 925.79,-135.49 934,-134 1112.3,-101.58 1325.69,-89.76 1435.22,-85.61"/>
<polygon fill="midnightblue" stroke="midnightblue" points="1435.63,-89.1 1445.49,-85.24 1435.37,-82.11 1435.63,-89.1"/>
</g>
<!-- Node20 -->
<g id="node20" class="node">
<title>Node20</title>
<g id="a_node20"><a xlink:title=" ">
<polygon fill="none" stroke="#bfbfbf" points="922.5,-67.5 922.5,-97.5 1029.5,-97.5 1029.5,-67.5 922.5,-67.5"/>
<text text-anchor="start" x="930.5" y="-85.5" font-family="Helvetica,sans-Serif" font-size="10.00">boost/serialization</text>
<text text-anchor="middle" x="976" y="-74.5" font-family="Helvetica,sans-Serif" font-size="10.00">/access.hpp</text>
</a>
</g>
</g>
<!-- Node5&#45;&gt;Node20 -->
<g id="edge20" class="edge">
<title>Node5&#45;&gt;Node20</title>
<path fill="none" stroke="midnightblue" d="M894.68,-139.73C908.11,-130.44 929.78,-115.46 947.37,-103.3"/>
<polygon fill="midnightblue" stroke="midnightblue" points="949.39,-106.16 955.63,-97.59 945.41,-100.4 949.39,-106.16"/>
</g>
<!-- Node5&#45;&gt;Node21 -->
<g id="edge23" class="edge">
<title>Node5&#45;&gt;Node21</title>
<path fill="none" stroke="midnightblue" d="M853.32,-139.87C814.43,-128.17 744.98,-107.27 702.44,-94.47"/>
<polygon fill="midnightblue" stroke="midnightblue" points="703.35,-91.08 692.76,-91.55 701.33,-97.79 703.35,-91.08"/>
</g>
<!-- Node22 -->
<g id="node22" class="node">
<title>Node22</title>
<g id="a_node22"><a xlink:title=" ">
<polygon fill="none" stroke="#bfbfbf" points="1086.5,-73 1086.5,-92 1143.5,-92 1143.5,-73 1086.5,-73"/>
<text text-anchor="middle" x="1115" y="-80" font-family="Helvetica,sans-Serif" font-size="10.00">ostream</text>
</a>
</g>
</g>
<!-- Node5&#45;&gt;Node22 -->
<g id="edge24" class="edge">
<title>Node5&#45;&gt;Node22</title>
<path fill="none" stroke="midnightblue" d="M912.22,-139.98C919.36,-137.99 926.94,-135.9 934,-134 995.2,-117.49 1011.26,-116.14 1072,-98 1074.93,-97.13 1077.95,-96.19 1080.98,-95.22"/>
<polygon fill="midnightblue" stroke="midnightblue" points="1082.13,-98.52 1090.54,-92.08 1079.94,-91.87 1082.13,-98.52"/>
</g>
<!-- Node23 -->
<g id="node23" class="node">
<title>Node23</title>
<g id="a_node23"><a xlink:title=" ">
<polygon fill="none" stroke="#bfbfbf" points="768.5,-73 768.5,-92 833.5,-92 833.5,-73 768.5,-73"/>
<text text-anchor="middle" x="801" y="-80" font-family="Helvetica,sans-Serif" font-size="10.00">stdexcept</text>
</a>
</g>
</g>
<!-- Node5&#45;&gt;Node23 -->
<g id="edge25" class="edge">
<title>Node5&#45;&gt;Node23</title>
<path fill="none" stroke="midnightblue" d="M871.08,-139.73C857.96,-129.21 835.74,-111.38 819.84,-98.62"/>
<polygon fill="midnightblue" stroke="midnightblue" points="821.74,-95.66 811.75,-92.13 817.36,-101.12 821.74,-95.66"/>
</g>
<!-- Node6&#45;&gt;Node7 -->
<g id="edge6" class="edge">
<title>Node6&#45;&gt;Node7</title>
<path fill="none" stroke="midnightblue" d="M138.46,-72.73C152.36,-62.11 175.98,-44.05 192.69,-31.26"/>
<polygon fill="midnightblue" stroke="midnightblue" points="194.9,-33.98 200.72,-25.13 190.65,-28.42 194.9,-33.98"/>
</g>
<!-- Node8&#45;&gt;Node9 -->
<g id="edge8" class="edge">
<title>Node8&#45;&gt;Node9</title>
<path fill="none" stroke="midnightblue" d="M898.28,-72.87C903.08,-70.89 908.21,-68.83 913,-67 949.88,-52.95 992.6,-38.26 1022.07,-28.37"/>
<polygon fill="midnightblue" stroke="midnightblue" points="1023.53,-31.57 1031.91,-25.08 1021.31,-24.93 1023.53,-31.57"/>
</g>
<!-- Node10 -->
<g id="node10" class="node">
<title>Node10</title>
<g id="a_node10"><a xlink:title=" ">
<polygon fill="none" stroke="#bfbfbf" points="857.5,-6 857.5,-25 898.5,-25 898.5,-6 857.5,-6"/>
<text text-anchor="middle" x="878" y="-13" font-family="Helvetica,sans-Serif" font-size="10.00">tuple</text>
</a>
</g>
</g>
<!-- Node8&#45;&gt;Node10 -->
<g id="edge9" class="edge">
<title>Node8&#45;&gt;Node10</title>
<path fill="none" stroke="midnightblue" d="M878,-72.73C878,-63.18 878,-47.62 878,-35.28"/>
<polygon fill="midnightblue" stroke="midnightblue" points="881.5,-35.13 878,-25.13 874.5,-35.13 881.5,-35.13"/>
</g>
<!-- Node11&#45;&gt;Node9 -->
<g id="edge19" class="edge">
<title>Node11&#45;&gt;Node9</title>
<path fill="none" stroke="midnightblue" d="M1445.33,-75.97C1346.25,-66.89 1158.02,-48.08 1093,-31 1090.55,-30.36 1088.05,-29.58 1085.56,-28.72"/>
<polygon fill="midnightblue" stroke="midnightblue" points="1086.79,-25.45 1076.2,-25.14 1084.29,-31.98 1086.79,-25.45"/>
</g>
<!-- Node12 -->
<g id="node12" class="node">
<title>Node12</title>
<g id="a_node12"><a xlink:title=" ">
<polygon fill="none" stroke="#bfbfbf" points="1102.5,-6 1102.5,-25 1235.5,-25 1235.5,-6 1102.5,-6"/>
<text text-anchor="middle" x="1169" y="-13" font-family="Helvetica,sans-Serif" font-size="10.00">boost/mpl/bool_fwd.hpp</text>
</a>
</g>
</g>
<!-- Node11&#45;&gt;Node12 -->
<g id="edge11" class="edge">
<title>Node11&#45;&gt;Node12</title>
<path fill="none" stroke="midnightblue" d="M1463.33,-72.94C1401.51,-61.08 1289.98,-39.7 1223.38,-26.93"/>
<polygon fill="midnightblue" stroke="midnightblue" points="1223.98,-23.48 1213.5,-25.03 1222.66,-30.35 1223.98,-23.48"/>
</g>
<!-- Node13 -->
<g id="node13" class="node">
<title>Node13</title>
<g id="a_node13"><a xlink:title=" ">
<polygon fill="none" stroke="#bfbfbf" points="1254,-6 1254,-25 1378,-25 1378,-6 1254,-6"/>
<text text-anchor="middle" x="1316" y="-13" font-family="Helvetica,sans-Serif" font-size="10.00">boost/mpl/greater.hpp</text>
</a>
</g>
</g>
<!-- Node11&#45;&gt;Node13 -->
<g id="edge12" class="edge">
<title>Node11&#45;&gt;Node13</title>
<path fill="none" stroke="midnightblue" d="M1482.5,-72.87C1448.7,-61.42 1388.9,-41.18 1350.92,-28.32"/>
<polygon fill="midnightblue" stroke="midnightblue" points="1351.89,-24.96 1341.3,-25.06 1349.65,-31.59 1351.89,-24.96"/>
</g>
<!-- Node14 -->
<g id="node14" class="node">
<title>Node14</title>
<g id="a_node14"><a xlink:title=" ">
<polygon fill="none" stroke="#bfbfbf" points="1396,-6 1396,-25 1498,-25 1498,-6 1396,-6"/>
<text text-anchor="middle" x="1447" y="-13" font-family="Helvetica,sans-Serif" font-size="10.00">boost/mpl/int.hpp</text>
</a>
</g>
</g>
<!-- Node11&#45;&gt;Node14 -->
<g id="edge13" class="edge">
<title>Node11&#45;&gt;Node14</title>
<path fill="none" stroke="midnightblue" d="M1499.77,-72.73C1490.17,-62.5 1474.09,-45.36 1462.2,-32.69"/>
<polygon fill="midnightblue" stroke="midnightblue" points="1464.49,-30.02 1455.1,-25.13 1459.39,-34.81 1464.49,-30.02"/>
</g>
<!-- Node15 -->
<g id="node15" class="node">
<title>Node15</title>
<g id="a_node15"><a xlink:title=" ">
<polygon fill="none" stroke="#bfbfbf" points="1516,-0.5 1516,-30.5 1622,-30.5 1622,-0.5 1516,-0.5"/>
<text text-anchor="start" x="1524" y="-18.5" font-family="Helvetica,sans-Serif" font-size="10.00">boost/mpl/integral</text>
<text text-anchor="middle" x="1569" y="-7.5" font-family="Helvetica,sans-Serif" font-size="10.00">_c_tag.hpp</text>
</a>
</g>
</g>
<!-- Node11&#45;&gt;Node15 -->
<g id="edge14" class="edge">
<title>Node11&#45;&gt;Node15</title>
<path fill="none" stroke="midnightblue" d="M1516.23,-72.73C1524.55,-63.86 1537.74,-49.81 1548.85,-37.97"/>
<polygon fill="midnightblue" stroke="midnightblue" points="1551.49,-40.28 1555.78,-30.59 1546.38,-35.49 1551.49,-40.28"/>
</g>
<!-- Node16 -->
<g id="node16" class="node">
<title>Node16</title>
<g id="a_node16"><a xlink:title=" ">
<polygon fill="none" stroke="#bfbfbf" points="1640.5,-0.5 1640.5,-30.5 1791.5,-30.5 1791.5,-0.5 1640.5,-0.5"/>
<text text-anchor="start" x="1648.5" y="-18.5" font-family="Helvetica,sans-Serif" font-size="10.00">boost/serialization</text>
<text text-anchor="middle" x="1716" y="-7.5" font-family="Helvetica,sans-Serif" font-size="10.00">/is_bitwise_serializable.hpp</text>
</a>
</g>
</g>
<!-- Node11&#45;&gt;Node16 -->
<g id="edge15" class="edge">
<title>Node11&#45;&gt;Node16</title>
<path fill="none" stroke="midnightblue" d="M1535.62,-72.87C1567.58,-62.88 1620.97,-46.2 1661.39,-33.56"/>
<polygon fill="midnightblue" stroke="midnightblue" points="1662.61,-36.85 1671.11,-30.53 1660.52,-30.17 1662.61,-36.85"/>
</g>
<!-- Node17 -->
<g id="node17" class="node">
<title>Node17</title>
<g id="a_node17"><a xlink:title=" ">
<polygon fill="none" stroke="#bfbfbf" points="1809.5,-0.5 1809.5,-30.5 1916.5,-30.5 1916.5,-0.5 1809.5,-0.5"/>
<text text-anchor="start" x="1817.5" y="-18.5" font-family="Helvetica,sans-Serif" font-size="10.00">boost/serialization</text>
<text text-anchor="middle" x="1863" y="-7.5" font-family="Helvetica,sans-Serif" font-size="10.00">/level.hpp</text>
</a>
</g>
</g>
<!-- Node11&#45;&gt;Node17 -->
<g id="edge16" class="edge">
<title>Node11&#45;&gt;Node17</title>
<path fill="none" stroke="midnightblue" d="M1563.26,-72.97C1620.17,-63.97 1711.64,-48.87 1799.42,-31.26"/>
<polygon fill="midnightblue" stroke="midnightblue" points="1800.17,-34.68 1809.27,-29.27 1798.78,-27.82 1800.17,-34.68"/>
</g>
<!-- Node18 -->
<g id="node18" class="node">
<title>Node18</title>
<g id="a_node18"><a xlink:title=" ">
<polygon fill="none" stroke="#bfbfbf" points="1934.5,-0.5 1934.5,-30.5 2041.5,-30.5 2041.5,-0.5 1934.5,-0.5"/>
<text text-anchor="start" x="1942.5" y="-18.5" font-family="Helvetica,sans-Serif" font-size="10.00">boost/serialization</text>
<text text-anchor="middle" x="1988" y="-7.5" font-family="Helvetica,sans-Serif" font-size="10.00">/tracking.hpp</text>
</a>
</g>
</g>
<!-- Node11&#45;&gt;Node18 -->
<g id="edge17" class="edge">
<title>Node11&#45;&gt;Node18</title>
<path fill="none" stroke="midnightblue" d="M1570.64,-76.09C1650.58,-68.71 1793.28,-53.92 1924.11,-31.23"/>
<polygon fill="midnightblue" stroke="midnightblue" points="1925.06,-34.61 1934.31,-29.44 1923.85,-27.72 1925.06,-34.61"/>
</g>
<!-- Node19 -->
<g id="node19" class="node">
<title>Node19</title>
<g id="a_node19"><a xlink:title=" ">
<polygon fill="none" stroke="#bfbfbf" points="2059.5,-0.5 2059.5,-30.5 2172.5,-30.5 2172.5,-0.5 2059.5,-0.5"/>
<text text-anchor="start" x="2067.5" y="-18.5" font-family="Helvetica,sans-Serif" font-size="10.00">boost/serialization</text>
<text text-anchor="middle" x="2116" y="-7.5" font-family="Helvetica,sans-Serif" font-size="10.00">/tracking_enum.hpp</text>
</a>
</g>
</g>
<!-- Node11&#45;&gt;Node19 -->
<g id="edge18" class="edge">
<title>Node11&#45;&gt;Node19</title>
<path fill="none" stroke="midnightblue" d="M1570.62,-78.26C1670.13,-72.55 1870.59,-58.72 2049.25,-31.16"/>
<polygon fill="midnightblue" stroke="midnightblue" points="2050.02,-34.58 2059.36,-29.58 2048.94,-27.66 2050.02,-34.58"/>
</g>
<!-- Node31&#45;&gt;Node6 -->
<g id="edge37" class="edge">
<title>Node31&#45;&gt;Node6</title>
<path fill="none" stroke="midnightblue" d="M148.42,-201.31C144.73,-180.99 135.46,-130.05 130.41,-102.28"/>
<polygon fill="midnightblue" stroke="midnightblue" points="133.82,-101.47 128.59,-92.26 126.94,-102.72 133.82,-101.47"/>
</g>
<!-- Node32 -->
<g id="node32" class="node">
<title>Node32</title>
<g id="a_node32"><a xlink:title=" ">
<polygon fill="none" stroke="#bfbfbf" points="0,-134.5 0,-164.5 122,-164.5 122,-134.5 0,-134.5"/>
<text text-anchor="start" x="8" y="-152.5" font-family="Helvetica,sans-Serif" font-size="10.00">boost/math/constants</text>
<text text-anchor="middle" x="61" y="-141.5" font-family="Helvetica,sans-Serif" font-size="10.00">/constants.hpp</text>
</a>
</g>
</g>
<!-- Node31&#45;&gt;Node32 -->
<g id="edge38" class="edge">
<title>Node31&#45;&gt;Node32</title>
<path fill="none" stroke="midnightblue" d="M137.25,-201.48C125.08,-193.34 106.31,-180.79 90.44,-170.18"/>
<polygon fill="midnightblue" stroke="midnightblue" points="92.23,-167.17 81.98,-164.52 88.34,-172.99 92.23,-167.17"/>
</g>
<!-- Node34 -->
<g id="node34" class="node">
<title>Node34</title>
<g id="a_node34"><a xlink:title=" ">
<polygon fill="none" stroke="#bfbfbf" points="1350,-140 1350,-159 1400,-159 1400,-140 1350,-140"/>
<text text-anchor="middle" x="1375" y="-147" font-family="Helvetica,sans-Serif" font-size="10.00">cstdint</text>
</a>
</g>
</g>
<!-- Node33&#45;&gt;Node34 -->
<g id="edge40" class="edge">
<title>Node33&#45;&gt;Node34</title>
<path fill="none" stroke="midnightblue" d="M1398.99,-201.48C1394.91,-192.82 1388.48,-179.15 1383.3,-168.15"/>
<polygon fill="midnightblue" stroke="midnightblue" points="1386.43,-166.57 1379,-159.01 1380.1,-169.55 1386.43,-166.57"/>
</g>
<!-- Node35 -->
<g id="node35" class="node">
<title>Node35</title>
<g id="a_node35"><a xlink:title=" ">
<polygon fill="none" stroke="#bfbfbf" points="1418.5,-140 1418.5,-159 1463.5,-159 1463.5,-140 1418.5,-140"/>
<text text-anchor="middle" x="1441" y="-147" font-family="Helvetica,sans-Serif" font-size="10.00">utility</text>
</a>
</g>
</g>
<!-- Node33&#45;&gt;Node35 -->
<g id="edge41" class="edge">
<title>Node33&#45;&gt;Node35</title>
<path fill="none" stroke="midnightblue" d="M1408.44,-201.48C1414.09,-192.64 1423.06,-178.59 1430.16,-167.48"/>
<polygon fill="midnightblue" stroke="midnightblue" points="1433.13,-169.32 1435.57,-159.01 1427.23,-165.55 1433.13,-169.32"/>
</g>
<!-- Node37 -->
<g id="node37" class="node">
<title>Node37</title>
<g id="a_node37"><a xlink:title=" ">
<polygon fill="none" stroke="#bfbfbf" points="1493,-140 1493,-159 1555,-159 1555,-140 1493,-140"/>
<text text-anchor="middle" x="1524" y="-147" font-family="Helvetica,sans-Serif" font-size="10.00">cinttypes</text>
</a>
</g>
</g>
<!-- Node36&#45;&gt;Node37 -->
<g id="edge43" class="edge">
<title>Node36&#45;&gt;Node37</title>
<path fill="none" stroke="midnightblue" d="M1529.14,-201.48C1528.29,-193.08 1526.97,-179.98 1525.88,-169.16"/>
<polygon fill="midnightblue" stroke="midnightblue" points="1529.34,-168.61 1524.86,-159.01 1522.38,-169.31 1529.34,-168.61"/>
</g>
<!-- Node38 -->
<g id="node38" class="node">
<title>Node38</title>
<g id="a_node38"><a xlink:title=" ">
<polygon fill="none" stroke="#bfbfbf" points="1573,-140 1573,-159 1617,-159 1617,-140 1573,-140"/>
<text text-anchor="middle" x="1595" y="-147" font-family="Helvetica,sans-Serif" font-size="10.00">limits</text>
</a>
</g>
</g>
<!-- Node36&#45;&gt;Node38 -->
<g id="edge44" class="edge">
<title>Node36&#45;&gt;Node38</title>
<path fill="none" stroke="midnightblue" d="M1539.31,-201.48C1549.45,-192.2 1565.86,-177.17 1578.25,-165.83"/>
<polygon fill="midnightblue" stroke="midnightblue" points="1580.69,-168.34 1585.7,-159.01 1575.96,-163.18 1580.69,-168.34"/>
</g>
</g>
</svg>
        <g id="navigator" transform="translate(0 0)" fill="#404254">
                <rect fill="#f2f5e9" fill-opacity="0.5" stroke="#606060" stroke-width=".5" x="0" y="0" width="60" height="60"/>
                <use id="zoomplus" xlink:href="#zoomPlus" x="17" y="9" onmousedown="handleZoom(evt,'in')"/>
                <use id="zoomminus" xlink:href="#zoomMin" x="42" y="9" onmousedown="handleZoom(evt,'out')"/>
                <use id="reset" xlink:href="#resetDef" x="30" y="36" onmousedown="handleReset()"/>
                <g id="arrowUp" xlink:href="#dirArrow" transform="translate(30 24)" onmousedown="handlePan(0,-1)">
                  <use xlink:href="#rim" fill="#404040">
                        <set attributeName="fill" to="#808080" begin="arrowUp.mouseover" end="arrowUp.mouseout"/>
                  </use>
                  <path fill="none" stroke="white" stroke-width="1.5" d="M0,-3.0v7 M-2.5,-0.5L0,-3.0L2.5,-0.5"/>
                </g>
                <g id="arrowRight" xlink:href="#dirArrow" transform="rotate(90) translate(36 -43)" onmousedown="handlePan(1,0)">
                  <use xlink:href="#rim" fill="#404040">
                        <set attributeName="fill" to="#808080" begin="arrowRight.mouseover" end="arrowRight.mouseout"/>
                  </use>
                  <path fill="none" stroke="white" stroke-width="1.5" d="M0,-3.0v7 M-2.5,-0.5L0,-3.0L2.5,-0.5"/>
                </g>
                <g id="arrowDown" xlink:href="#dirArrow" transform="rotate(180) translate(-30 -48)" onmousedown="handlePan(0,1)">
                  <use xlink:href="#rim" fill="#404040">
                        <set attributeName="fill" to="#808080" begin="arrowDown.mouseover" end="arrowDown.mouseout"/>
                  </use>
                  <path fill="none" stroke="white" stroke-width="1.5" d="M0,-3.0v7 M-2.5,-0.5L0,-3.0L2.5,-0.5"/>
                </g>
                <g id="arrowLeft" xlink:href="#dirArrow" transform="rotate(270) translate(-36 17)" onmousedown="handlePan(-1,0)">
                  <use xlink:href="#rim" fill="#404040">
                        <set attributeName="fill" to="#808080" begin="arrowLeft.mouseover" end="arrowLeft.mouseout"/>
                  </use>
                  <path fill="none" stroke="white" stroke-width="1.5" d="M0,-3.0v7 M-2.5,-0.5L0,-3.0L2.5,-0.5"/>
                </g>
        </g>
        <svg viewBox="0 0 15 15" width="100%" height="30px" preserveAspectRatio="xMaxYMin meet">
         <g id="arrow_out" transform="scale(0.3 0.3)">
          <a xlink:href="random_8hpp__incl_org.svg" target="_base">
           <rect id="button" ry="5" rx="5" y="6" x="6" height="38" width="38"
                fill="#f2f5e9" fill-opacity="0.5" stroke="#606060" stroke-width="1.0"/>
           <path id="arrow"
             d="M 11.500037,31.436501 C 11.940474,20.09759 22.043105,11.32322 32.158766,21.979434 L 37.068811,17.246167 C 37.068811,17.246167 37.088388,32 37.088388,32 L 22.160133,31.978069 C 22.160133,31.978069 26.997745,27.140456 26.997745,27.140456 C 18.528582,18.264221 13.291696,25.230495 11.500037,31.436501 z"
             style="fill:#404040;"/>
          </a>
         </g>
        </svg>
</svg>
