<?xml version="1.0" encoding="UTF-8" standalone="no"?>
<!DOCTYPE svg PUBLIC "-//W3C//DTD SVG 1.1//EN"
 "http://www.w3.org/Graphics/SVG/1.1/DTD/svg11.dtd">
<!-- Generated by graphviz version 2.43.0 (0)
 -->
<!-- Title: random.hpp Pages: 1 -->
<!--zoomable 269 -->

<svg id="main" version="1.1" xmlns="http://www.w3.org/2000/svg" xmlns:xlink="http://www.w3.org/1999/xlink" xml:space="preserve" onload="init(evt)">
<style type="text/css"><![CDATA[
.node, .edge {opacity: 0.7;}
.node.selected, .edge.selected {opacity: 1;}
.edge:hover path { stroke: red; }
.edge:hover polygon { stroke: red; fill: red; }
]]></style>

<defs>
  <circle id="rim" cx="0" cy="0" r="7"/>
  <circle id="rim2" cx="0" cy="0" r="3.5"/>
  <g id="zoomPlus">
    <use xlink:href="#rim" fill="#404040"><set attributeName="fill" to="#808080" begin="zoomplus.mouseover" end="zoomplus.mouseout"/></use>
    <path d="M-4,0h8M0,-4v8" fill="none" stroke="white" stroke-width="1.5" pointer-events="none"/>
  </g>
  <g id="zoomMin">
    <use xlink:href="#rim" fill="#404040"><set attributeName="fill" to="#808080" begin="zoomminus.mouseover" end="zoomminus.mouseout"/></use>
    <path d="M-4,0h8" fill="none" stroke="white" stroke-width="1.5" pointer-events="none"/>
  </g>
  <g id="arrowUp" transform="translate(30 24)">
    <use xlink:href="#rim"/>
    <path pointer-events="none" fill="none" stroke="white" stroke-width="1.5" d="M0,-3.0v7 M-2.5,-0.5L0,-3.0L2.5,-0.5"/>
  </g>
  <g id="arrowRight" transform="rotate(90) translate(36 -43)">
    <use xlink:href="#rim"/>
    <path pointer-events="none" fill="none" stroke="white" stroke-width="1.5" d="M0,-3.0v7 M-2.5,-0.5L0,-3.0L2.5,-0.5"/>
  </g>
  <g id="arrowDown" transform="rotate(180) translate(-30 -48)">
    <use xlink:href="#rim"/>
    <path pointer-events="none" fill="none" stroke="white" stroke-width="1.5" d="M0,-3.0v7 M-2.5,-0.5L0,-3.0L2.5,-0.5"/>
  </g>
  <g id="arrowLeft" transform="rotate(270) translate(-36 17)">
    <use xlink:href="#rim"/>
    <path pointer-events="none" fill="none" stroke="white" stroke-width="1.5" d="M0,-3.0v7 M-2.5,-0.5L0,-3.0L2.5,-0.5"/>
  </g>
  <g id="resetDef">
    <use xlink:href="#rim2" fill="#404040"><set attributeName="fill" to="#808080" begin="reset.mouseover" end="reset.mouseout"/></use>
  </g>
</defs>
<script type="application/ecmascript">
var viewWidth = 2201;
var viewHeight = 269;
var sectionId = 'dynsection-0';
</script>
<script type="application/ecmascript" xlink:href="svg.min.js"/>
<svg id="graph" class="graph">
<g id="viewport">
<title>random.hpp</title>
<!-- Node1 -->
<g id="Node000001" class="node">
<title>Node1</title>
<g id="a_Node000001"><a xlink:title="Random number generation using Philox.">
<polygon fill="#999999" stroke="#666666" points="1831,-261 1756,-261 1756,-242 1831,-242 1831,-261"/>
<text text-anchor="middle" x="1793.5" y="-249" font-family="Helvetica,sans-Serif" font-size="10.00">random.hpp</text>
</a>
</g>
</g>
<!-- Node2 -->
<g id="Node000002" class="node">
<title>Node2</title>
<g id="a_Node000002"><a xlink:href="Vector_8hpp.html" target="_top" xlink:title="Vector implementation and trait types for boost qvm interoperability.">
<polygon fill="white" stroke="#666666" points="1020.5,-206 928.5,-206 928.5,-187 1020.5,-187 1020.5,-206"/>
<text text-anchor="middle" x="974.5" y="-194" font-family="Helvetica,sans-Serif" font-size="10.00">utils/Vector.hpp</text>
</a>
</g>
</g>
<!-- Node1&#45;&gt;Node2 -->
<g id="edge1_Node000001_Node000002" class="edge">
<title>Node1&#45;&gt;Node2</title>
<g id="a_edge1_Node000001_Node000002"><a xlink:title=" ">
<path fill="none" stroke="#63b8ff" d="M1755.91,-248.07C1624.87,-239.59 1187.65,-211.29 1030.97,-201.15"/>
<polygon fill="#63b8ff" stroke="#63b8ff" points="1030.83,-197.64 1020.62,-200.48 1030.38,-204.62 1030.83,-197.64"/>
</a>
</g>
</g>
<!-- Node9 -->
<g id="Node000009" class="node">
<title>Node9</title>
<g id="a_Node000009"><a xlink:title=" ">
<polygon fill="#e0e0e0" stroke="#999999" points="1145,-24.5 1092,-24.5 1092,-5.5 1145,-5.5 1145,-24.5"/>
<text text-anchor="middle" x="1118.5" y="-12.5" font-family="Helvetica,sans-Serif" font-size="10.00">cstddef</text>
</a>
</g>
</g>
<!-- Node1&#45;&gt;Node9 -->
<g id="edge44_Node000001_Node000009" class="edge">
<title>Node1&#45;&gt;Node9</title>
<g id="a_edge44_Node000001_Node000009"><a xlink:title=" ">
<path fill="none" stroke="#63b8ff" d="M1755.92,-247.21C1726.55,-242.66 1686.76,-231.82 1662.5,-206 1618.36,-159.01 1673.72,-107.64 1624.5,-66 1588.83,-35.83 1266.12,-21.36 1155.51,-17.26"/>
<polygon fill="#63b8ff" stroke="#63b8ff" points="1155.3,-13.75 1145.18,-16.89 1155.05,-20.75 1155.3,-13.75"/>
</a>
</g>
</g>
<!-- Node31 -->
<g id="Node000031" class="node">
<title>Node31</title>
<g id="a_Node000031"><a xlink:title=" ">
<polygon fill="#e0e0e0" stroke="#999999" points="1615,-151 1568,-151 1568,-132 1615,-132 1615,-151"/>
<text text-anchor="middle" x="1591.5" y="-139" font-family="Helvetica,sans-Serif" font-size="10.00">vector</text>
</a>
</g>
</g>
<!-- Node1&#45;&gt;Node31 -->
<g id="edge47_Node000001_Node000031" class="edge">
<title>Node1&#45;&gt;Node31</title>
<g id="a_edge47_Node000001_Node000031"><a xlink:title=" ">
<path fill="none" stroke="#63b8ff" d="M1755.8,-248.27C1720.08,-244.43 1666.54,-234.06 1629.5,-206 1614.34,-194.51 1604,-175.07 1597.98,-160.72"/>
<polygon fill="#63b8ff" stroke="#63b8ff" points="1601.23,-159.42 1594.36,-151.36 1594.7,-161.95 1601.23,-159.42"/>
</a>
</g>
</g>
<!-- Node32 -->
<g id="Node000032" class="node">
<title>Node32</title>
<g id="a_Node000032"><a xlink:href="u32__to__u64_8hpp.html" target="_top" xlink:title=" ">
<polygon fill="white" stroke="#666666" points="1789.5,-206 1671.5,-206 1671.5,-187 1789.5,-187 1789.5,-206"/>
<text text-anchor="middle" x="1730.5" y="-194" font-family="Helvetica,sans-Serif" font-size="10.00">utils/u32_to_u64.hpp</text>
</a>
</g>
</g>
<!-- Node1&#45;&gt;Node32 -->
<g id="edge37_Node000001_Node000032" class="edge">
<title>Node1&#45;&gt;Node32</title>
<g id="a_edge37_Node000001_Node000032"><a xlink:title=" ">
<path fill="none" stroke="#63b8ff" d="M1783.38,-241.98C1774.06,-234.15 1760.03,-222.34 1748.76,-212.86"/>
<polygon fill="#63b8ff" stroke="#63b8ff" points="1750.71,-209.93 1740.81,-206.17 1746.21,-215.29 1750.71,-209.93"/>
</a>
</g>
</g>
<!-- Node35 -->
<g id="Node000035" class="node">
<title>Node35</title>
<g id="a_Node000035"><a xlink:href="uniform_8hpp.html" target="_top" xlink:title=" ">
<polygon fill="white" stroke="#666666" points="1907.5,-206 1807.5,-206 1807.5,-187 1907.5,-187 1907.5,-206"/>
<text text-anchor="middle" x="1857.5" y="-194" font-family="Helvetica,sans-Serif" font-size="10.00">utils/uniform.hpp</text>
</a>
</g>
</g>
<!-- Node1&#45;&gt;Node35 -->
<g id="edge40_Node000001_Node000035" class="edge">
<title>Node1&#45;&gt;Node35</title>
<g id="a_edge40_Node000001_Node000035"><a xlink:title=" ">
<path fill="none" stroke="#63b8ff" d="M1803.78,-241.98C1813.34,-234.07 1827.78,-222.11 1839.28,-212.58"/>
<polygon fill="#63b8ff" stroke="#63b8ff" points="1841.56,-215.24 1847.03,-206.17 1837.1,-209.85 1841.56,-215.24"/>
</a>
</g>
</g>
<!-- Node38 -->
<g id="Node000038" class="node">
<title>Node38</title>
<g id="a_Node000038"><a xlink:title=" ">
<polygon fill="#e0e0e0" stroke="#999999" points="2043,-206 1926,-206 1926,-187 2043,-187 2043,-206"/>
<text text-anchor="middle" x="1984.5" y="-194" font-family="Helvetica,sans-Serif" font-size="10.00">Random123/philox.h</text>
</a>
</g>
</g>
<!-- Node1&#45;&gt;Node38 -->
<g id="edge43_Node000001_Node000038" class="edge">
<title>Node1&#45;&gt;Node38</title>
<g id="a_edge43_Node000001_Node000038"><a xlink:title=" ">
<path fill="none" stroke="#63b8ff" d="M1824.19,-241.98C1856.67,-232.97 1908.1,-218.7 1943.91,-208.76"/>
<polygon fill="#63b8ff" stroke="#63b8ff" points="1944.87,-212.13 1953.57,-206.08 1943,-205.38 1944.87,-212.13"/>
</a>
</g>
</g>
<!-- Node39 -->
<g id="Node000039" class="node">
<title>Node39</title>
<g id="a_Node000039"><a xlink:title=" ">
<polygon fill="#e0e0e0" stroke="#999999" points="2120,-206 2061,-206 2061,-187 2120,-187 2120,-206"/>
<text text-anchor="middle" x="2090.5" y="-194" font-family="Helvetica,sans-Serif" font-size="10.00">numbers</text>
</a>
</g>
</g>
<!-- Node1&#45;&gt;Node39 -->
<g id="edge45_Node000001_Node000039" class="edge">
<title>Node1&#45;&gt;Node39</title>
<g id="a_edge45_Node000001_Node000039"><a xlink:title=" ">
<path fill="none" stroke="#63b8ff" d="M1831.35,-244.6C1879.98,-236.9 1967.2,-222.62 2050.75,-206.27"/>
<polygon fill="#63b8ff" stroke="#63b8ff" points="2051.52,-209.69 2060.66,-204.32 2050.17,-202.82 2051.52,-209.69"/>
</a>
</g>
</g>
<!-- Node40 -->
<g id="Node000040" class="node">
<title>Node40</title>
<g id="a_Node000040"><a xlink:title=" ">
<polygon fill="#e0e0e0" stroke="#999999" points="2192.5,-206 2138.5,-206 2138.5,-187 2192.5,-187 2192.5,-206"/>
<text text-anchor="middle" x="2165.5" y="-194" font-family="Helvetica,sans-Serif" font-size="10.00">random</text>
</a>
</g>
</g>
<!-- Node1&#45;&gt;Node40 -->
<g id="edge46_Node000001_Node000040" class="edge">
<title>Node1&#45;&gt;Node40</title>
<g id="a_edge46_Node000001_Node000040"><a xlink:title=" ">
<path fill="none" stroke="#63b8ff" d="M1831.23,-246.75C1891.84,-240.46 2014.78,-226.57 2128.52,-206.01"/>
<polygon fill="#63b8ff" stroke="#63b8ff" points="2129.23,-209.44 2138.43,-204.2 2127.97,-202.55 2129.23,-209.44"/>
</a>
</g>
</g>
<!-- Node3 -->
<g id="Node000003" class="node">
<title>Node3</title>
<g id="a_Node000003"><a xlink:title=" ">
<polygon fill="#e0e0e0" stroke="#999999" points="1249.5,-151 1099.5,-151 1099.5,-132 1249.5,-132 1249.5,-151"/>
<text text-anchor="middle" x="1174.5" y="-139" font-family="Helvetica,sans-Serif" font-size="10.00">boost/qvm/deduce_vec.hpp</text>
</a>
</g>
</g>
<!-- Node2&#45;&gt;Node3 -->
<g id="edge2_Node000002_Node000003" class="edge">
<title>Node2&#45;&gt;Node3</title>
<g id="a_edge2_Node000002_Node000003"><a xlink:title=" ">
<path fill="none" stroke="#63b8ff" d="M1006.63,-186.98C1040.65,-177.97 1094.5,-163.7 1132,-153.76"/>
<polygon fill="#63b8ff" stroke="#63b8ff" points="1133.34,-157.03 1142.11,-151.08 1131.55,-150.26 1133.34,-157.03"/>
</a>
</g>
</g>
<!-- Node4 -->
<g id="Node000004" class="node">
<title>Node4</title>
<g id="a_Node000004"><a xlink:title=" ">
<polygon fill="#e0e0e0" stroke="#999999" points="1407.5,-151 1267.5,-151 1267.5,-132 1407.5,-132 1407.5,-151"/>
<text text-anchor="middle" x="1337.5" y="-139" font-family="Helvetica,sans-Serif" font-size="10.00">boost/qvm/vec_traits.hpp</text>
</a>
</g>
</g>
<!-- Node2&#45;&gt;Node4 -->
<g id="edge3_Node000002_Node000004" class="edge">
<title>Node2&#45;&gt;Node4</title>
<g id="a_edge3_Node000002_Node000004"><a xlink:title=" ">
<path fill="none" stroke="#63b8ff" d="M1020.84,-188.73C1083.73,-179.55 1196.56,-163.08 1269.17,-152.48"/>
<polygon fill="#63b8ff" stroke="#63b8ff" points="1269.75,-155.93 1279.14,-151.02 1268.74,-149 1269.75,-155.93"/>
</a>
</g>
</g>
<!-- Node5 -->
<g id="Node000005" class="node">
<title>Node5</title>
<g id="a_Node000005"><a xlink:href="Array_8hpp.html" target="_top" xlink:title="Array implementation with CUDA support.">
<polygon fill="white" stroke="#666666" points="1511.5,-151 1425.5,-151 1425.5,-132 1511.5,-132 1511.5,-151"/>
<text text-anchor="middle" x="1468.5" y="-139" font-family="Helvetica,sans-Serif" font-size="10.00">utils/Array.hpp</text>
</a>
</g>
</g>
<!-- Node2&#45;&gt;Node5 -->
<g id="edge4_Node000002_Node000005" class="edge">
<title>Node2&#45;&gt;Node5</title>
<g id="a_edge4_Node000002_Node000005"><a xlink:title=" ">
<path fill="none" stroke="#63b8ff" d="M1020.74,-191.79C1099.5,-185.27 1264.91,-170.67 1415.07,-151.11"/>
<polygon fill="#63b8ff" stroke="#63b8ff" points="1415.94,-154.53 1425.4,-149.76 1415.03,-147.59 1415.94,-154.53"/>
</a>
</g>
</g>
<!-- Node7 -->
<g id="Node000007" class="node">
<title>Node7</title>
<g id="a_Node000007"><a xlink:title=" ">
<polygon fill="#e0e0e0" stroke="#999999" points="1707.5,-24.5 1655.5,-24.5 1655.5,-5.5 1707.5,-5.5 1707.5,-24.5"/>
<text text-anchor="middle" x="1681.5" y="-12.5" font-family="Helvetica,sans-Serif" font-size="10.00">cassert</text>
</a>
</g>
</g>
<!-- Node2&#45;&gt;Node7 -->
<g id="edge27_Node000002_Node000007" class="edge">
<title>Node2&#45;&gt;Node7</title>
<g id="a_edge27_Node000002_Node000007"><a xlink:title=" ">
<path fill="none" stroke="#63b8ff" d="M1020.53,-194C1134.4,-189.93 1426.84,-177.17 1520.5,-151 1538.69,-145.92 1541.2,-139.58 1558.5,-132 1599.86,-113.88 1621.98,-128.33 1653.5,-96 1669.75,-79.32 1676.61,-52.7 1679.48,-34.79"/>
<polygon fill="#63b8ff" stroke="#63b8ff" points="1682.97,-35.08 1680.82,-24.71 1676.03,-34.16 1682.97,-35.08"/>
</a>
</g>
</g>
<!-- Node2&#45;&gt;Node9 -->
<g id="edge29_Node000002_Node000009" class="edge">
<title>Node2&#45;&gt;Node9</title>
<g id="a_edge29_Node000002_Node000009"><a xlink:title=" ">
<path fill="none" stroke="#63b8ff" d="M928.14,-196.09C806.15,-196.82 488.98,-192.97 539.5,-132 558.94,-108.53 1049.06,-37.89 1078.5,-30 1080.99,-29.33 1083.54,-28.59 1086.1,-27.8"/>
<polygon fill="#63b8ff" stroke="#63b8ff" points="1087.43,-31.04 1095.84,-24.59 1085.25,-24.39 1087.43,-31.04"/>
</a>
</g>
</g>
<!-- Node21 -->
<g id="Node000021" class="node">
<title>Node21</title>
<g id="a_Node000021"><a xlink:title=" ">
<polygon fill="#e0e0e0" stroke="#999999" points="509,-90.5 456,-90.5 456,-71.5 509,-71.5 509,-90.5"/>
<text text-anchor="middle" x="482.5" y="-78.5" font-family="Helvetica,sans-Serif" font-size="10.00">iterator</text>
</a>
</g>
</g>
<!-- Node2&#45;&gt;Node21 -->
<g id="edge32_Node000002_Node000021" class="edge">
<title>Node2&#45;&gt;Node21</title>
<g id="a_edge32_Node000002_Node000021"><a xlink:title=" ">
<path fill="none" stroke="#63b8ff" d="M928.47,-193.92C816.99,-189.7 539.24,-176.7 506.5,-151 491.41,-139.15 485.77,-117.21 483.69,-101.24"/>
<polygon fill="#63b8ff" stroke="#63b8ff" points="487.13,-100.53 482.71,-90.9 480.16,-101.19 487.13,-100.53"/>
</a>
</g>
</g>
<!-- Node24 -->
<g id="Node000024" class="node">
<title>Node24</title>
<g id="a_Node000024"><a xlink:title=" ">
<polygon fill="#e0e0e0" stroke="#999999" points="612.5,-151 548.5,-151 548.5,-132 612.5,-132 612.5,-151"/>
<text text-anchor="middle" x="580.5" y="-139" font-family="Helvetica,sans-Serif" font-size="10.00">algorithm</text>
</a>
</g>
</g>
<!-- Node2&#45;&gt;Node24 -->
<g id="edge26_Node000002_Node000024" class="edge">
<title>Node2&#45;&gt;Node24</title>
<g id="a_edge26_Node000002_Node000024"><a xlink:title=" ">
<path fill="none" stroke="#63b8ff" d="M928.36,-190.86C862.69,-184 738.32,-170.05 622.76,-151.09"/>
<polygon fill="#63b8ff" stroke="#63b8ff" points="623.12,-147.6 612.68,-149.42 621.98,-154.51 623.12,-147.6"/>
</a>
</g>
</g>
<!-- Node25 -->
<g id="Node000025" class="node">
<title>Node25</title>
<g id="a_Node000025"><a xlink:title=" ">
<polygon fill="#e0e0e0" stroke="#999999" points="678,-151 631,-151 631,-132 678,-132 678,-151"/>
<text text-anchor="middle" x="654.5" y="-139" font-family="Helvetica,sans-Serif" font-size="10.00">cmath</text>
</a>
</g>
</g>
<!-- Node2&#45;&gt;Node25 -->
<g id="edge28_Node000002_Node000025" class="edge">
<title>Node2&#45;&gt;Node25</title>
<g id="a_edge28_Node000002_Node000025"><a xlink:title=" ">
<path fill="none" stroke="#63b8ff" d="M928.34,-189.91C873.24,-182.89 778.16,-169.7 688.03,-151.15"/>
<polygon fill="#63b8ff" stroke="#63b8ff" points="688.7,-147.71 678.2,-149.1 687.27,-154.56 688.7,-147.71"/>
</a>
</g>
</g>
<!-- Node26 -->
<g id="Node000026" class="node">
<title>Node26</title>
<g id="a_Node000026"><a xlink:title=" ">
<polygon fill="#e0e0e0" stroke="#999999" points="761,-151 696,-151 696,-132 761,-132 761,-151"/>
<text text-anchor="middle" x="728.5" y="-139" font-family="Helvetica,sans-Serif" font-size="10.00">functional</text>
</a>
</g>
</g>
<!-- Node2&#45;&gt;Node26 -->
<g id="edge30_Node000002_Node000026" class="edge">
<title>Node2&#45;&gt;Node26</title>
<g id="a_edge30_Node000002_Node000026"><a xlink:title=" ">
<path fill="none" stroke="#63b8ff" d="M934.98,-186.98C890.15,-177.33 817.32,-161.64 771.21,-151.7"/>
<polygon fill="#63b8ff" stroke="#63b8ff" points="771.75,-148.24 761.24,-149.55 770.27,-155.08 771.75,-148.24"/>
</a>
</g>
</g>
<!-- Node27 -->
<g id="Node000027" class="node">
<title>Node27</title>
<g id="a_Node000027"><a xlink:title=" ">
<polygon fill="#e0e0e0" stroke="#999999" points="862,-151 779,-151 779,-132 862,-132 862,-151"/>
<text text-anchor="middle" x="820.5" y="-139" font-family="Helvetica,sans-Serif" font-size="10.00">initializer_list</text>
</a>
</g>
</g>
<!-- Node2&#45;&gt;Node27 -->
<g id="edge31_Node000002_Node000027" class="edge">
<title>Node2&#45;&gt;Node27</title>
<g id="a_edge31_Node000002_Node000027"><a xlink:title=" ">
<path fill="none" stroke="#63b8ff" d="M949.76,-186.98C924.13,-178.16 883.87,-164.31 855.09,-154.41"/>
<polygon fill="#63b8ff" stroke="#63b8ff" points="856.03,-151.03 845.44,-151.08 853.75,-157.65 856.03,-151.03"/>
</a>
</g>
</g>
<!-- Node28 -->
<g id="Node000028" class="node">
<title>Node28</title>
<g id="a_Node000028"><a xlink:title=" ">
<polygon fill="#e0e0e0" stroke="#999999" points="936.5,-151 880.5,-151 880.5,-132 936.5,-132 936.5,-151"/>
<text text-anchor="middle" x="908.5" y="-139" font-family="Helvetica,sans-Serif" font-size="10.00">numeric</text>
</a>
</g>
</g>
<!-- Node2&#45;&gt;Node28 -->
<g id="edge33_Node000002_Node000028" class="edge">
<title>Node2&#45;&gt;Node28</title>
<g id="a_edge33_Node000002_Node000028"><a xlink:title=" ">
<path fill="none" stroke="#63b8ff" d="M963.9,-186.98C954.04,-179.07 939.15,-167.11 927.28,-157.58"/>
<polygon fill="#63b8ff" stroke="#63b8ff" points="929.29,-154.7 919.3,-151.17 924.9,-160.16 929.29,-154.7"/>
</a>
</g>
</g>
<!-- Node29 -->
<g id="Node000029" class="node">
<title>Node29</title>
<g id="a_Node000029"><a xlink:title=" ">
<polygon fill="#e0e0e0" stroke="#999999" points="994.5,-151 954.5,-151 954.5,-132 994.5,-132 994.5,-151"/>
<text text-anchor="middle" x="974.5" y="-139" font-family="Helvetica,sans-Serif" font-size="10.00">span</text>
</a>
</g>
</g>
<!-- Node2&#45;&gt;Node29 -->
<g id="edge34_Node000002_Node000029" class="edge">
<title>Node2&#45;&gt;Node29</title>
<g id="a_edge34_Node000002_Node000029"><a xlink:title=" ">
<path fill="none" stroke="#63b8ff" d="M974.5,-186.75C974.5,-179.8 974.5,-169.85 974.5,-161.13"/>
<polygon fill="#63b8ff" stroke="#63b8ff" points="978,-161.09 974.5,-151.09 971,-161.09 978,-161.09"/>
</a>
</g>
</g>
<!-- Node30 -->
<g id="Node000030" class="node">
<title>Node30</title>
<g id="a_Node000030"><a xlink:title=" ">
<polygon fill="#e0e0e0" stroke="#999999" points="1082,-151 1013,-151 1013,-132 1082,-132 1082,-151"/>
<text text-anchor="middle" x="1047.5" y="-139" font-family="Helvetica,sans-Serif" font-size="10.00">type_traits</text>
</a>
</g>
</g>
<!-- Node2&#45;&gt;Node30 -->
<g id="edge35_Node000002_Node000030" class="edge">
<title>Node2&#45;&gt;Node30</title>
<g id="a_edge35_Node000002_Node000030"><a xlink:title=" ">
<path fill="none" stroke="#63b8ff" d="M986.23,-186.98C997.23,-179 1013.92,-166.88 1027.1,-157.31"/>
<polygon fill="#63b8ff" stroke="#63b8ff" points="1029.52,-159.88 1035.56,-151.17 1025.41,-154.21 1029.52,-159.88"/>
</a>
</g>
</g>
<!-- Node2&#45;&gt;Node31 -->
<g id="edge36_Node000002_Node000031" class="edge">
<title>Node2&#45;&gt;Node31</title>
<g id="a_edge36_Node000002_Node000031"><a xlink:title=" ">
<path fill="none" stroke="#63b8ff" d="M1020.54,-194.2C1118.88,-190.94 1356.57,-180.44 1553.5,-151 1554.96,-150.78 1556.45,-150.54 1557.95,-150.28"/>
<polygon fill="#63b8ff" stroke="#63b8ff" points="1558.74,-153.69 1567.88,-148.33 1557.4,-146.82 1558.74,-153.69"/>
</a>
</g>
</g>
<!-- Node6 -->
<g id="Node000006" class="node">
<title>Node6</title>
<g id="a_Node000006"><a xlink:href="device__qualifier_8hpp.html" target="_top" xlink:title=" ">
<polygon fill="white" stroke="#666666" points="1615.5,-90.5 1501.5,-90.5 1501.5,-71.5 1615.5,-71.5 1615.5,-90.5"/>
<text text-anchor="middle" x="1558.5" y="-78.5" font-family="Helvetica,sans-Serif" font-size="10.00">device_qualifier.hpp</text>
</a>
</g>
</g>
<!-- Node5&#45;&gt;Node6 -->
<g id="edge5_Node000005_Node000006" class="edge">
<title>Node5&#45;&gt;Node6</title>
<g id="a_edge5_Node000005_Node000006"><a xlink:title=" ">
<path fill="none" stroke="#63b8ff" d="M1481.78,-131.87C1496.14,-122.54 1519.26,-107.51 1536.37,-96.38"/>
<polygon fill="#63b8ff" stroke="#63b8ff" points="1538.69,-99.05 1545.17,-90.67 1534.87,-93.18 1538.69,-99.05"/>
</a>
</g>
</g>
<!-- Node5&#45;&gt;Node7 -->
<g id="edge21_Node000005_Node000007" class="edge">
<title>Node5&#45;&gt;Node7</title>
<g id="a_edge21_Node000005_Node000007"><a xlink:title=" ">
<path fill="none" stroke="#63b8ff" d="M1509.72,-131.98C1549.41,-123.22 1606.04,-109.04 1624.5,-96 1647.07,-80.06 1663.9,-52.26 1673.22,-33.99"/>
<polygon fill="#63b8ff" stroke="#63b8ff" points="1676.38,-35.48 1677.61,-24.96 1670.09,-32.42 1676.38,-35.48"/>
</a>
</g>
</g>
<!-- Node8 -->
<g id="Node000008" class="node">
<title>Node8</title>
<g id="a_Node000008"><a xlink:href="get_8hpp.html" target="_top" xlink:title=" ">
<polygon fill="white" stroke="#666666" points="1483,-90.5 1430,-90.5 1430,-71.5 1483,-71.5 1483,-90.5"/>
<text text-anchor="middle" x="1456.5" y="-78.5" font-family="Helvetica,sans-Serif" font-size="10.00">get.hpp</text>
</a>
</g>
</g>
<!-- Node5&#45;&gt;Node8 -->
<g id="edge7_Node000005_Node000008" class="edge">
<title>Node5&#45;&gt;Node8</title>
<g id="a_edge7_Node000005_Node000008"><a xlink:title=" ">
<path fill="none" stroke="#63b8ff" d="M1466.73,-131.87C1465.05,-123.66 1462.46,-111.04 1460.31,-100.55"/>
<polygon fill="#63b8ff" stroke="#63b8ff" points="1463.72,-99.76 1458.28,-90.67 1456.86,-101.17 1463.72,-99.76"/>
</a>
</g>
</g>
<!-- Node5&#45;&gt;Node9 -->
<g id="edge22_Node000005_Node000009" class="edge">
<title>Node5&#45;&gt;Node9</title>
<g id="a_edge22_Node000005_Node000009"><a xlink:title=" ">
<path fill="none" stroke="#63b8ff" d="M1425.39,-133.34C1422.38,-132.87 1419.4,-132.42 1416.5,-132 1354.64,-122.96 1183.96,-137.83 1137.5,-96 1120.46,-80.66 1117.32,-53.06 1117.35,-34.64"/>
<polygon fill="#63b8ff" stroke="#63b8ff" points="1120.85,-34.65 1117.68,-24.54 1113.86,-34.42 1120.85,-34.65"/>
</a>
</g>
</g>
<!-- Node11 -->
<g id="Node000011" class="node">
<title>Node11</title>
<g id="a_Node000011"><a xlink:href="array_8hpp.html" target="_top" xlink:title=" ">
<polygon fill="white" stroke="#666666" points="652,-90.5 527,-90.5 527,-71.5 652,-71.5 652,-90.5"/>
<text text-anchor="middle" x="589.5" y="-78.5" font-family="Helvetica,sans-Serif" font-size="10.00">serialization/array.hpp</text>
</a>
</g>
</g>
<!-- Node5&#45;&gt;Node11 -->
<g id="edge10_Node000005_Node000011" class="edge">
<title>Node5&#45;&gt;Node11</title>
<g id="a_edge10_Node000005_Node000011"><a xlink:title=" ">
<path fill="none" stroke="#63b8ff" d="M1425.42,-133.11C1422.4,-132.7 1419.41,-132.32 1416.5,-132 1138.87,-101 806.51,-88.26 662.25,-83.91"/>
<polygon fill="#63b8ff" stroke="#63b8ff" points="662.29,-80.41 652.19,-83.62 662.08,-87.41 662.29,-80.41"/>
</a>
</g>
</g>
<!-- Node20 -->
<g id="Node000020" class="node">
<title>Node20</title>
<g id="a_Node000020"><a xlink:title=" ">
<polygon fill="#e0e0e0" stroke="#999999" points="1254,-96 1147,-96 1147,-66 1254,-66 1254,-96"/>
<text text-anchor="start" x="1155" y="-84" font-family="Helvetica,sans-Serif" font-size="10.00">boost/serialization</text>
<text text-anchor="middle" x="1200.5" y="-73" font-family="Helvetica,sans-Serif" font-size="10.00">/access.hpp</text>
</a>
</g>
</g>
<!-- Node5&#45;&gt;Node20 -->
<g id="edge20_Node000005_Node000020" class="edge">
<title>Node5&#45;&gt;Node20</title>
<g id="a_edge20_Node000005_Node000020"><a xlink:title=" ">
<path fill="none" stroke="#63b8ff" d="M1428.6,-132C1389.19,-123.57 1326.93,-110.19 1264.31,-96.39"/>
<polygon fill="#63b8ff" stroke="#63b8ff" points="1264.78,-92.91 1254.26,-94.17 1263.27,-99.75 1264.78,-92.91"/>
</a>
</g>
</g>
<!-- Node5&#45;&gt;Node21 -->
<g id="edge23_Node000005_Node000021" class="edge">
<title>Node5&#45;&gt;Node21</title>
<g id="a_edge23_Node000005_Node000021"><a xlink:title=" ">
<path fill="none" stroke="#63b8ff" d="M1425.42,-133.04C1422.41,-132.65 1419.41,-132.3 1416.5,-132 1217.58,-111.84 713.03,-137.73 517.5,-96 515.12,-95.49 512.7,-94.84 510.29,-94.09"/>
<polygon fill="#63b8ff" stroke="#63b8ff" points="511.25,-90.72 500.66,-90.62 508.88,-97.3 511.25,-90.72"/>
</a>
</g>
</g>
<!-- Node22 -->
<g id="Node000022" class="node">
<title>Node22</title>
<g id="a_Node000022"><a xlink:title=" ">
<polygon fill="#e0e0e0" stroke="#999999" points="1329,-90.5 1272,-90.5 1272,-71.5 1329,-71.5 1329,-90.5"/>
<text text-anchor="middle" x="1300.5" y="-78.5" font-family="Helvetica,sans-Serif" font-size="10.00">ostream</text>
</a>
</g>
</g>
<!-- Node5&#45;&gt;Node22 -->
<g id="edge24_Node000005_Node000022" class="edge">
<title>Node5&#45;&gt;Node22</title>
<g id="a_edge24_Node000005_Node000022"><a xlink:title=" ">
<path fill="none" stroke="#63b8ff" d="M1442.31,-131.9C1415.8,-123.12 1373.67,-108.98 1337.5,-96 1335.86,-95.41 1334.17,-94.8 1332.48,-94.18"/>
<polygon fill="#63b8ff" stroke="#63b8ff" points="1333.35,-90.77 1322.76,-90.56 1330.91,-97.33 1333.35,-90.77"/>
</a>
</g>
</g>
<!-- Node23 -->
<g id="Node000023" class="node">
<title>Node23</title>
<g id="a_Node000023"><a xlink:title=" ">
<polygon fill="#e0e0e0" stroke="#999999" points="1412,-90.5 1347,-90.5 1347,-71.5 1412,-71.5 1412,-90.5"/>
<text text-anchor="middle" x="1379.5" y="-78.5" font-family="Helvetica,sans-Serif" font-size="10.00">stdexcept</text>
</a>
</g>
</g>
<!-- Node5&#45;&gt;Node23 -->
<g id="edge25_Node000005_Node000023" class="edge">
<title>Node5&#45;&gt;Node23</title>
<g id="a_edge25_Node000005_Node000023"><a xlink:title=" ">
<path fill="none" stroke="#63b8ff" d="M1455.37,-131.87C1441.17,-122.54 1418.3,-107.51 1401.38,-96.38"/>
<polygon fill="#63b8ff" stroke="#63b8ff" points="1402.97,-93.24 1392.69,-90.67 1399.12,-99.08 1402.97,-93.24"/>
</a>
</g>
</g>
<!-- Node6&#45;&gt;Node7 -->
<g id="edge6_Node000006_Node000007" class="edge">
<title>Node6&#45;&gt;Node7</title>
<g id="a_edge6_Node000006_Node000007"><a xlink:title=" ">
<path fill="none" stroke="#63b8ff" d="M1575.09,-71.37C1595.81,-60.59 1631.5,-42.02 1655.78,-29.38"/>
<polygon fill="#63b8ff" stroke="#63b8ff" points="1657.53,-32.42 1664.78,-24.7 1654.3,-26.21 1657.53,-32.42"/>
</a>
</g>
</g>
<!-- Node8&#45;&gt;Node9 -->
<g id="edge8_Node000008_Node000009" class="edge">
<title>Node8&#45;&gt;Node9</title>
<g id="a_edge8_Node000008_Node000009"><a xlink:title=" ">
<path fill="none" stroke="#63b8ff" d="M1436.56,-71.4C1431.4,-69.41 1425.8,-67.45 1420.5,-66 1326.65,-40.28 1212.56,-25.77 1155.19,-19.6"/>
<polygon fill="#63b8ff" stroke="#63b8ff" points="1155.47,-16.11 1145.15,-18.54 1154.73,-23.07 1155.47,-16.11"/>
</a>
</g>
</g>
<!-- Node10 -->
<g id="Node000010" class="node">
<title>Node10</title>
<g id="a_Node000010"><a xlink:title=" ">
<polygon fill="#e0e0e0" stroke="#999999" points="1477,-24.5 1436,-24.5 1436,-5.5 1477,-5.5 1477,-24.5"/>
<text text-anchor="middle" x="1456.5" y="-12.5" font-family="Helvetica,sans-Serif" font-size="10.00">tuple</text>
</a>
</g>
</g>
<!-- Node8&#45;&gt;Node10 -->
<g id="edge9_Node000008_Node000010" class="edge">
<title>Node8&#45;&gt;Node10</title>
<g id="a_edge9_Node000008_Node000010"><a xlink:title=" ">
<path fill="none" stroke="#63b8ff" d="M1456.5,-71.37C1456.5,-62.16 1456.5,-47.29 1456.5,-35.27"/>
<polygon fill="#63b8ff" stroke="#63b8ff" points="1460,-34.91 1456.5,-24.91 1453,-34.91 1460,-34.91"/>
</a>
</g>
</g>
<!-- Node11&#45;&gt;Node9 -->
<g id="edge19_Node000011_Node000009" class="edge">
<title>Node11&#45;&gt;Node9</title>
<g id="a_edge19_Node000011_Node000009"><a xlink:title=" ">
<path fill="none" stroke="#63b8ff" d="M632.56,-71.44C643.59,-69.45 655.46,-67.48 666.5,-66 848.67,-41.53 898.8,-68.66 1078.5,-30 1081.5,-29.36 1084.58,-28.55 1087.63,-27.65"/>
<polygon fill="#63b8ff" stroke="#63b8ff" points="1088.76,-30.97 1097.19,-24.56 1086.6,-24.31 1088.76,-30.97"/>
</a>
</g>
</g>
<!-- Node12 -->
<g id="Node000012" class="node">
<title>Node12</title>
<g id="a_Node000012"><a xlink:title=" ">
<polygon fill="#e0e0e0" stroke="#999999" points="514,-24.5 381,-24.5 381,-5.5 514,-5.5 514,-24.5"/>
<text text-anchor="middle" x="447.5" y="-12.5" font-family="Helvetica,sans-Serif" font-size="10.00">boost/mpl/bool_fwd.hpp</text>
</a>
</g>
</g>
<!-- Node11&#45;&gt;Node12 -->
<g id="edge11_Node000011_Node000012" class="edge">
<title>Node11&#45;&gt;Node12</title>
<g id="a_edge11_Node000011_Node000012"><a xlink:title=" ">
<path fill="none" stroke="#63b8ff" d="M570.35,-71.37C546.11,-60.44 504.13,-41.52 476.09,-28.88"/>
<polygon fill="#63b8ff" stroke="#63b8ff" points="477.36,-25.62 466.8,-24.7 474.48,-32 477.36,-25.62"/>
</a>
</g>
</g>
<!-- Node13 -->
<g id="Node000013" class="node">
<title>Node13</title>
<g id="a_Node000013"><a xlink:title=" ">
<polygon fill="#e0e0e0" stroke="#999999" points="656.5,-24.5 532.5,-24.5 532.5,-5.5 656.5,-5.5 656.5,-24.5"/>
<text text-anchor="middle" x="594.5" y="-12.5" font-family="Helvetica,sans-Serif" font-size="10.00">boost/mpl/greater.hpp</text>
</a>
</g>
</g>
<!-- Node11&#45;&gt;Node13 -->
<g id="edge12_Node000011_Node000013" class="edge">
<title>Node11&#45;&gt;Node13</title>
<g id="a_edge12_Node000011_Node000013"><a xlink:title=" ">
<path fill="none" stroke="#63b8ff" d="M590.17,-71.37C590.9,-62.07 592.08,-46.98 593.02,-34.9"/>
<polygon fill="#63b8ff" stroke="#63b8ff" points="596.51,-35.15 593.8,-24.91 589.54,-34.6 596.51,-35.15"/>
</a>
</g>
</g>
<!-- Node14 -->
<g id="Node000014" class="node">
<title>Node14</title>
<g id="a_Node000014"><a xlink:title=" ">
<polygon fill="#e0e0e0" stroke="#999999" points="776.5,-24.5 674.5,-24.5 674.5,-5.5 776.5,-5.5 776.5,-24.5"/>
<text text-anchor="middle" x="725.5" y="-12.5" font-family="Helvetica,sans-Serif" font-size="10.00">boost/mpl/int.hpp</text>
</a>
</g>
</g>
<!-- Node11&#45;&gt;Node14 -->
<g id="edge13_Node000011_Node000014" class="edge">
<title>Node11&#45;&gt;Node14</title>
<g id="a_edge13_Node000011_Node000014"><a xlink:title=" ">
<path fill="none" stroke="#63b8ff" d="M607.84,-71.37C630.96,-60.49 670.91,-41.69 697.77,-29.05"/>
<polygon fill="#63b8ff" stroke="#63b8ff" points="699.46,-32.12 707.01,-24.7 696.48,-25.79 699.46,-32.12"/>
</a>
</g>
</g>
<!-- Node15 -->
<g id="Node000015" class="node">
<title>Node15</title>
<g id="a_Node000015"><a xlink:title=" ">
<polygon fill="#e0e0e0" stroke="#999999" points="900.5,-30 794.5,-30 794.5,0 900.5,0 900.5,-30"/>
<text text-anchor="start" x="802.5" y="-18" font-family="Helvetica,sans-Serif" font-size="10.00">boost/mpl/integral</text>
<text text-anchor="middle" x="847.5" y="-7" font-family="Helvetica,sans-Serif" font-size="10.00">_c_tag.hpp</text>
</a>
</g>
</g>
<!-- Node11&#45;&gt;Node15 -->
<g id="edge14_Node000011_Node000015" class="edge">
<title>Node11&#45;&gt;Node15</title>
<g id="a_edge14_Node000011_Node000015"><a xlink:title=" ">
<path fill="none" stroke="#63b8ff" d="M624.03,-71.44C664.96,-61.28 733.99,-44.16 784.52,-31.62"/>
<polygon fill="#63b8ff" stroke="#63b8ff" points="785.51,-34.98 794.37,-29.18 783.82,-28.19 785.51,-34.98"/>
</a>
</g>
</g>
<!-- Node16 -->
<g id="Node000016" class="node">
<title>Node16</title>
<g id="a_Node000016"><a xlink:title=" ">
<polygon fill="#e0e0e0" stroke="#999999" points="1070,-30 919,-30 919,0 1070,0 1070,-30"/>
<text text-anchor="start" x="927" y="-18" font-family="Helvetica,sans-Serif" font-size="10.00">boost/serialization</text>
<text text-anchor="middle" x="994.5" y="-7" font-family="Helvetica,sans-Serif" font-size="10.00">/is_bitwise_serializable.hpp</text>
</a>
</g>
</g>
<!-- Node11&#45;&gt;Node16 -->
<g id="edge15_Node000011_Node000016" class="edge">
<title>Node11&#45;&gt;Node16</title>
<g id="a_edge15_Node000011_Node000016"><a xlink:title=" ">
<path fill="none" stroke="#63b8ff" d="M635.06,-71.46C645.39,-69.6 656.31,-67.68 666.5,-66 771.07,-48.75 799.96,-46.97 908.88,-30.08"/>
<polygon fill="#63b8ff" stroke="#63b8ff" points="909.62,-33.5 918.97,-28.51 908.55,-26.59 909.62,-33.5"/>
</a>
</g>
</g>
<!-- Node17 -->
<g id="Node000017" class="node">
<title>Node17</title>
<g id="a_Node000017"><a xlink:title=" ">
<polygon fill="#e0e0e0" stroke="#999999" points="107,-30 0,-30 0,0 107,0 107,-30"/>
<text text-anchor="start" x="8" y="-18" font-family="Helvetica,sans-Serif" font-size="10.00">boost/serialization</text>
<text text-anchor="middle" x="53.5" y="-7" font-family="Helvetica,sans-Serif" font-size="10.00">/level.hpp</text>
</a>
</g>
</g>
<!-- Node11&#45;&gt;Node17 -->
<g id="edge16_Node000011_Node000017" class="edge">
<title>Node11&#45;&gt;Node17</title>
<g id="a_edge16_Node000011_Node000017"><a xlink:title=" ">
<path fill="none" stroke="#63b8ff" d="M549.64,-71.49C539.21,-69.47 527.96,-67.48 517.5,-66 343.1,-41.3 294.46,-57.22 117.11,-30.12"/>
<polygon fill="#63b8ff" stroke="#63b8ff" points="117.6,-26.66 107.18,-28.58 116.53,-33.57 117.6,-26.66"/>
</a>
</g>
</g>
<!-- Node18 -->
<g id="Node000018" class="node">
<title>Node18</title>
<g id="a_Node000018"><a xlink:title=" ">
<polygon fill="#e0e0e0" stroke="#999999" points="232,-30 125,-30 125,0 232,0 232,-30"/>
<text text-anchor="start" x="133" y="-18" font-family="Helvetica,sans-Serif" font-size="10.00">boost/serialization</text>
<text text-anchor="middle" x="178.5" y="-7" font-family="Helvetica,sans-Serif" font-size="10.00">/tracking.hpp</text>
</a>
</g>
</g>
<!-- Node11&#45;&gt;Node18 -->
<g id="edge17_Node000011_Node000018" class="edge">
<title>Node11&#45;&gt;Node18</title>
<g id="a_edge17_Node000011_Node000018"><a xlink:title=" ">
<path fill="none" stroke="#63b8ff" d="M548.08,-71.48C538.09,-69.56 527.43,-67.61 517.5,-66 398.18,-46.67 364.5,-51.42 242.33,-30.23"/>
<polygon fill="#63b8ff" stroke="#63b8ff" points="242.66,-26.73 232.21,-28.45 241.45,-33.63 242.66,-26.73"/>
</a>
</g>
</g>
<!-- Node19 -->
<g id="Node000019" class="node">
<title>Node19</title>
<g id="a_Node000019"><a xlink:title=" ">
<polygon fill="#e0e0e0" stroke="#999999" points="363,-30 250,-30 250,0 363,0 363,-30"/>
<text text-anchor="start" x="258" y="-18" font-family="Helvetica,sans-Serif" font-size="10.00">boost/serialization</text>
<text text-anchor="middle" x="306.5" y="-7" font-family="Helvetica,sans-Serif" font-size="10.00">/tracking_enum.hpp</text>
</a>
</g>
</g>
<!-- Node11&#45;&gt;Node19 -->
<g id="edge18_Node000011_Node000019" class="edge">
<title>Node11&#45;&gt;Node19</title>
<g id="a_edge18_Node000011_Node000019"><a xlink:title=" ">
<path fill="none" stroke="#63b8ff" d="M551.63,-71.44C506.02,-61.12 428.61,-43.62 372.98,-31.03"/>
<polygon fill="#63b8ff" stroke="#63b8ff" points="373.73,-27.62 363.2,-28.82 372.18,-34.44 373.73,-27.62"/>
</a>
</g>
</g>
<!-- Node33 -->
<g id="Node000033" class="node">
<title>Node33</title>
<g id="a_Node000033"><a xlink:title=" ">
<polygon fill="#e0e0e0" stroke="#999999" points="1793.5,-151 1743.5,-151 1743.5,-132 1793.5,-132 1793.5,-151"/>
<text text-anchor="middle" x="1768.5" y="-139" font-family="Helvetica,sans-Serif" font-size="10.00">cstdint</text>
</a>
</g>
</g>
<!-- Node32&#45;&gt;Node33 -->
<g id="edge38_Node000032_Node000033" class="edge">
<title>Node32&#45;&gt;Node33</title>
<g id="a_edge38_Node000032_Node000033"><a xlink:title=" ">
<path fill="none" stroke="#63b8ff" d="M1736.77,-186.75C1742.09,-179.34 1749.86,-168.5 1756.38,-159.41"/>
<polygon fill="#63b8ff" stroke="#63b8ff" points="1759.36,-161.26 1762.34,-151.09 1753.67,-157.18 1759.36,-161.26"/>
</a>
</g>
</g>
<!-- Node34 -->
<g id="Node000034" class="node">
<title>Node34</title>
<g id="a_Node000034"><a xlink:title=" ">
<polygon fill="#e0e0e0" stroke="#999999" points="1725,-151 1680,-151 1680,-132 1725,-132 1725,-151"/>
<text text-anchor="middle" x="1702.5" y="-139" font-family="Helvetica,sans-Serif" font-size="10.00">utility</text>
</a>
</g>
</g>
<!-- Node32&#45;&gt;Node34 -->
<g id="edge39_Node000032_Node000034" class="edge">
<title>Node32&#45;&gt;Node34</title>
<g id="a_edge39_Node000032_Node000034"><a xlink:title=" ">
<path fill="none" stroke="#63b8ff" d="M1725.88,-186.75C1722.04,-179.49 1716.48,-168.95 1711.74,-159.98"/>
<polygon fill="#63b8ff" stroke="#63b8ff" points="1714.8,-158.3 1707.04,-151.09 1708.61,-161.57 1714.8,-158.3"/>
</a>
</g>
</g>
<!-- Node36 -->
<g id="Node000036" class="node">
<title>Node36</title>
<g id="a_Node000036"><a xlink:title=" ">
<polygon fill="#e0e0e0" stroke="#999999" points="1951.5,-151 1889.5,-151 1889.5,-132 1951.5,-132 1951.5,-151"/>
<text text-anchor="middle" x="1920.5" y="-139" font-family="Helvetica,sans-Serif" font-size="10.00">cinttypes</text>
</a>
</g>
</g>
<!-- Node35&#45;&gt;Node36 -->
<g id="edge41_Node000035_Node000036" class="edge">
<title>Node35&#45;&gt;Node36</title>
<g id="a_edge41_Node000035_Node000036"><a xlink:title=" ">
<path fill="none" stroke="#63b8ff" d="M1867.62,-186.98C1876.94,-179.15 1890.97,-167.34 1902.24,-157.86"/>
<polygon fill="#63b8ff" stroke="#63b8ff" points="1904.79,-160.29 1910.19,-151.17 1900.29,-154.93 1904.79,-160.29"/>
</a>
</g>
</g>
<!-- Node37 -->
<g id="Node000037" class="node">
<title>Node37</title>
<g id="a_Node000037"><a xlink:title=" ">
<polygon fill="#e0e0e0" stroke="#999999" points="1871.5,-151 1827.5,-151 1827.5,-132 1871.5,-132 1871.5,-151"/>
<text text-anchor="middle" x="1849.5" y="-139" font-family="Helvetica,sans-Serif" font-size="10.00">limits</text>
</a>
</g>
</g>
<!-- Node35&#45;&gt;Node37 -->
<g id="edge42_Node000035_Node000037" class="edge">
<title>Node35&#45;&gt;Node37</title>
<g id="a_edge42_Node000035_Node000037"><a xlink:title=" ">
<path fill="none" stroke="#63b8ff" d="M1856.18,-186.75C1855.13,-179.8 1853.63,-169.85 1852.31,-161.13"/>
<polygon fill="#63b8ff" stroke="#63b8ff" points="1855.75,-160.45 1850.8,-151.09 1848.83,-161.5 1855.75,-160.45"/>
</a>
</g>
</g>
</g>
</svg>

<g id="navigator" transform="translate(0 0)" fill="#404254">
  <rect fill="#f2f5e9" fill-opacity="0.5" stroke="#606060" stroke-width=".5" x="0" y="0" width="60" height="60"/>
  <use id="zoomplus" xlink:href="#zoomPlus" x="17" y="9" onmousedown="handleZoom(evt,'in')"/>
  <use id="zoomminus" xlink:href="#zoomMin" x="42" y="9" onmousedown="handleZoom(evt,'out')"/>
  <use id="reset" xlink:href="#resetDef" x="30" y="36" onmousedown="handleReset()"/>
   <use id="arrowup" xlink:href="#arrowUp" x="0" y="0" onmousedown="handlePan(0,-1)"/>
  <use id="arrowright" xlink:href="#arrowRight" x="0" y="0" onmousedown="handlePan(1,0)"/>
  <use id="arrowdown" xlink:href="#arrowDown" x="0" y="0" onmousedown="handlePan(0,1)"/>
  <use id="arrowleft" xlink:href="#arrowLeft" x="0" y="0" onmousedown="handlePan(-1,0)"/>
</g>
<svg viewBox="0 0 15 15" width="100%" height="30px" preserveAspectRatio="xMaxYMin meet">
 <g id="arrow_out" transform="scale(0.3 0.3)">
  <a xlink:href="random_8hpp__incl_org.svg" target="_base">
   <rect id="button" ry="5" rx="5" y="6" x="6" height="38" width="38"
        fill="#f2f5e9" fill-opacity="0.5" stroke="#606060" stroke-width="1.0"/>
   <path id="arrow"
     d="M 11.500037,31.436501 C 11.940474,20.09759 22.043105,11.32322 32.158766,21.979434 L 37.068811,17.246167 C 37.068811,17.246167 37.088388,32 37.088388,32 L 22.160133,31.978069 C 22.160133,31.978069 26.997745,27.140456 26.997745,27.140456 C 18.528582,18.264221 13.291696,25.230495 11.500037,31.436501 z"
     style="fill:#404040;"/>
  </a>
 </g>
</svg>

<style type='text/css'>
<![CDATA[
[data-mouse-over-selected='false'] { opacity: 0.7; }
[data-mouse-over-selected='true']  { opacity: 1.0; }
]]>
</style>
<script type="application/ecmascript"><![CDATA[
document.addEventListener('DOMContentLoaded', (event) => {
  highlightEdges();
  highlightAdjacentNodes();
});
]]></script>
</svg>
