<?xml version="1.0" encoding="UTF-8" standalone="no"?>
<!DOCTYPE svg PUBLIC "-//W3C//DTD SVG 1.1//EN"
 "http://www.w3.org/Graphics/SVG/1.1/DTD/svg11.dtd">
<!-- Generated by graphviz version 2.43.0 (0)
 -->
<!-- Title: Rhomboid.cpp Pages: 1 -->
<svg width="2036pt" height="269pt"
 viewBox="0.00 0.00 2035.50 269.00" xmlns="http://www.w3.org/2000/svg" xmlns:xlink="http://www.w3.org/1999/xlink">
<g id="graph0" class="graph" transform="scale(1 1) rotate(0) translate(4 265)">
<title>Rhomboid.cpp</title>
<!-- Node1 -->
<g id="Node000001" class="node">
<title>Node1</title>
<g id="a_Node000001"><a xlink:title=" ">
<polygon fill="#999999" stroke="#666666" points="1352,-261 1266,-261 1266,-242 1352,-242 1352,-261"/>
<text text-anchor="middle" x="1309" y="-249" font-family="Helvetica,sans-Serif" font-size="10.00">Rhomboid.cpp</text>
</a>
</g>
</g>
<!-- Node2 -->
<g id="Node000002" class="node">
<title>Node2</title>
<g id="a_Node000002"><a xlink:title=" ">
<polygon fill="#e0e0e0" stroke="#999999" points="1244.5,-206 1119.5,-206 1119.5,-187 1244.5,-187 1244.5,-206"/>
<text text-anchor="middle" x="1182" y="-194" font-family="Helvetica,sans-Serif" font-size="10.00">shapes/Rhomboid.hpp</text>
</a>
</g>
</g>
<!-- Node1&#45;&gt;Node2 -->
<g id="edge1_Node000001_Node000002" class="edge">
<title>Node1&#45;&gt;Node2</title>
<g id="a_edge1_Node000001_Node000002"><a xlink:title=" ">
<path fill="none" stroke="#63b8ff" d="M1288.6,-241.98C1267.98,-233.38 1235.89,-219.99 1212.31,-210.15"/>
<polygon fill="#63b8ff" stroke="#63b8ff" points="1213.35,-206.79 1202.78,-206.17 1210.66,-213.25 1213.35,-206.79"/>
</a>
</g>
</g>
<!-- Node3 -->
<g id="Node000003" class="node">
<title>Node3</title>
<g id="a_Node000003"><a xlink:href="Vector_8hpp.html" target="_top" xlink:title="Vector implementation and trait types for boost qvm interoperability.">
<polygon fill="white" stroke="#666666" points="1355,-206 1263,-206 1263,-187 1355,-187 1355,-206"/>
<text text-anchor="middle" x="1309" y="-194" font-family="Helvetica,sans-Serif" font-size="10.00">utils/Vector.hpp</text>
</a>
</g>
</g>
<!-- Node1&#45;&gt;Node3 -->
<g id="edge2_Node000001_Node000003" class="edge">
<title>Node1&#45;&gt;Node3</title>
<g id="a_edge2_Node000001_Node000003"><a xlink:title=" ">
<path fill="none" stroke="#63b8ff" d="M1309,-241.75C1309,-234.8 1309,-224.85 1309,-216.13"/>
<polygon fill="#63b8ff" stroke="#63b8ff" points="1312.5,-216.09 1309,-206.09 1305.5,-216.09 1312.5,-216.09"/>
</a>
</g>
</g>
<!-- Node29 -->
<g id="Node000029" class="node">
<title>Node29</title>
<g id="a_Node000029"><a xlink:title=" ">
<polygon fill="#e0e0e0" stroke="#999999" points="2027.5,-151 1962.5,-151 1962.5,-132 2027.5,-132 2027.5,-151"/>
<text text-anchor="middle" x="1995" y="-139" font-family="Helvetica,sans-Serif" font-size="10.00">functional</text>
</a>
</g>
</g>
<!-- Node1&#45;&gt;Node29 -->
<g id="edge43_Node000001_Node000029" class="edge">
<title>Node1&#45;&gt;Node29</title>
<g id="a_edge43_Node000001_Node000029"><a xlink:title=" ">
<path fill="none" stroke="#63b8ff" d="M1352.06,-244.17C1455.13,-228.93 1724.07,-188.68 1948,-151 1949.46,-150.75 1950.94,-150.5 1952.43,-150.25"/>
<polygon fill="#63b8ff" stroke="#63b8ff" points="1953.15,-153.67 1962.4,-148.5 1951.95,-146.78 1953.15,-153.67"/>
</a>
</g>
</g>
<!-- Node4 -->
<g id="Node000004" class="node">
<title>Node4</title>
<g id="a_Node000004"><a xlink:title=" ">
<polygon fill="#e0e0e0" stroke="#999999" points="1748,-151 1598,-151 1598,-132 1748,-132 1748,-151"/>
<text text-anchor="middle" x="1673" y="-139" font-family="Helvetica,sans-Serif" font-size="10.00">boost/qvm/deduce_vec.hpp</text>
</a>
</g>
</g>
<!-- Node3&#45;&gt;Node4 -->
<g id="edge3_Node000003_Node000004" class="edge">
<title>Node3&#45;&gt;Node4</title>
<g id="a_edge3_Node000003_Node000004"><a xlink:title=" ">
<path fill="none" stroke="#63b8ff" d="M1355.1,-188.79C1418.04,-179.62 1531.37,-163.12 1604.33,-152.5"/>
<polygon fill="#63b8ff" stroke="#63b8ff" points="1604.96,-155.94 1614.35,-151.04 1603.95,-149.02 1604.96,-155.94"/>
</a>
</g>
</g>
<!-- Node5 -->
<g id="Node000005" class="node">
<title>Node5</title>
<g id="a_Node000005"><a xlink:title=" ">
<polygon fill="#e0e0e0" stroke="#999999" points="1906,-151 1766,-151 1766,-132 1906,-132 1906,-151"/>
<text text-anchor="middle" x="1836" y="-139" font-family="Helvetica,sans-Serif" font-size="10.00">boost/qvm/vec_traits.hpp</text>
</a>
</g>
</g>
<!-- Node3&#45;&gt;Node5 -->
<g id="edge4_Node000003_Node000005" class="edge">
<title>Node3&#45;&gt;Node5</title>
<g id="a_edge4_Node000003_Node000005"><a xlink:title=" ">
<path fill="none" stroke="#63b8ff" d="M1355.12,-191.04C1434.62,-183.34 1602.83,-166.91 1755.74,-151.12"/>
<polygon fill="#63b8ff" stroke="#63b8ff" points="1756.2,-154.59 1765.79,-150.08 1755.49,-147.63 1756.2,-154.59"/>
</a>
</g>
</g>
<!-- Node6 -->
<g id="Node000006" class="node">
<title>Node6</title>
<g id="a_Node000006"><a xlink:href="Array_8hpp.html" target="_top" xlink:title="Array implementation with CUDA support.">
<polygon fill="white" stroke="#666666" points="824,-151 738,-151 738,-132 824,-132 824,-151"/>
<text text-anchor="middle" x="781" y="-139" font-family="Helvetica,sans-Serif" font-size="10.00">utils/Array.hpp</text>
</a>
</g>
</g>
<!-- Node3&#45;&gt;Node6 -->
<g id="edge5_Node000003_Node000006" class="edge">
<title>Node3&#45;&gt;Node6</title>
<g id="a_edge5_Node000003_Node000006"><a xlink:title=" ">
<path fill="none" stroke="#63b8ff" d="M1262.89,-188.26C1259.54,-187.81 1256.22,-187.38 1253,-187 1069.16,-165.1 1021.87,-172.66 838,-151 836.74,-150.85 835.47,-150.7 834.19,-150.54"/>
<polygon fill="#63b8ff" stroke="#63b8ff" points="834.59,-147.06 824.22,-149.23 833.68,-154 834.59,-147.06"/>
</a>
</g>
</g>
<!-- Node8 -->
<g id="Node000008" class="node">
<title>Node8</title>
<g id="a_Node000008"><a xlink:title=" ">
<polygon fill="#e0e0e0" stroke="#999999" points="52,-24.5 0,-24.5 0,-5.5 52,-5.5 52,-24.5"/>
<text text-anchor="middle" x="26" y="-12.5" font-family="Helvetica,sans-Serif" font-size="10.00">cassert</text>
</a>
</g>
</g>
<!-- Node3&#45;&gt;Node8 -->
<g id="edge31_Node000003_Node000008" class="edge">
<title>Node3&#45;&gt;Node8</title>
<g id="a_edge31_Node000003_Node000008"><a xlink:title=" ">
<path fill="none" stroke="#63b8ff" d="M1262.89,-188.2C1259.55,-187.76 1256.23,-187.35 1253,-187 777.27,-134.64 638.69,-232.62 180,-96 129.19,-80.87 75.47,-48.74 46.85,-30.13"/>
<polygon fill="#63b8ff" stroke="#63b8ff" points="48.75,-27.19 38.47,-24.61 44.89,-33.03 48.75,-27.19"/>
</a>
</g>
</g>
<!-- Node9 -->
<g id="Node000009" class="node">
<title>Node9</title>
<g id="a_Node000009"><a xlink:href="get_8hpp.html" target="_top" xlink:title=" ">
<polygon fill="white" stroke="#666666" points="1020.5,-90.5 967.5,-90.5 967.5,-71.5 1020.5,-71.5 1020.5,-90.5"/>
<text text-anchor="middle" x="994" y="-78.5" font-family="Helvetica,sans-Serif" font-size="10.00">get.hpp</text>
</a>
</g>
</g>
<!-- Node3&#45;&gt;Node9 -->
<g id="edge29_Node000003_Node000009" class="edge">
<title>Node3&#45;&gt;Node9</title>
<g id="a_edge29_Node000003_Node000009"><a xlink:title=" ">
<path fill="none" stroke="#63b8ff" d="M1262.88,-188.3C1259.54,-187.84 1256.22,-187.4 1253,-187 1212.12,-181.91 911.68,-181.51 884,-151 878.33,-144.75 879.43,-139.1 884,-132 888.61,-124.84 931.65,-106.64 962.5,-94.29"/>
<polygon fill="#63b8ff" stroke="#63b8ff" points="964.02,-97.45 972.02,-90.51 961.44,-90.94 964.02,-97.45"/>
</a>
</g>
</g>
<!-- Node10 -->
<g id="Node000010" class="node">
<title>Node10</title>
<g id="a_Node000010"><a xlink:title=" ">
<polygon fill="#e0e0e0" stroke="#999999" points="1274.5,-24.5 1221.5,-24.5 1221.5,-5.5 1274.5,-5.5 1274.5,-24.5"/>
<text text-anchor="middle" x="1248" y="-12.5" font-family="Helvetica,sans-Serif" font-size="10.00">cstddef</text>
</a>
</g>
</g>
<!-- Node3&#45;&gt;Node10 -->
<g id="edge34_Node000003_Node000010" class="edge">
<title>Node3&#45;&gt;Node10</title>
<g id="a_edge34_Node000003_Node000010"><a xlink:title=" ">
<path fill="none" stroke="#63b8ff" d="M1355.35,-193.8C1493.82,-188.52 1895.99,-171.45 1915,-151 1920.75,-144.81 1920.44,-138.46 1915,-132 1833.04,-34.56 1412.06,-18.96 1284.61,-16.47"/>
<polygon fill="#63b8ff" stroke="#63b8ff" points="1284.63,-12.97 1274.57,-16.29 1284.5,-19.97 1284.63,-12.97"/>
</a>
</g>
</g>
<!-- Node22 -->
<g id="Node000022" class="node">
<title>Node22</title>
<g id="a_Node000022"><a xlink:title=" ">
<polygon fill="#e0e0e0" stroke="#999999" points="1091.5,-90.5 1038.5,-90.5 1038.5,-71.5 1091.5,-71.5 1091.5,-90.5"/>
<text text-anchor="middle" x="1065" y="-78.5" font-family="Helvetica,sans-Serif" font-size="10.00">iterator</text>
</a>
</g>
</g>
<!-- Node3&#45;&gt;Node22 -->
<g id="edge37_Node000003_Node000022" class="edge">
<title>Node3&#45;&gt;Node22</title>
<g id="a_edge37_Node000003_Node000022"><a xlink:title=" ">
<path fill="none" stroke="#63b8ff" d="M1262.88,-188.33C1259.54,-187.86 1256.22,-187.41 1253,-187 1176.76,-177.23 960.44,-208.11 909,-151 852.51,-88.29 824.61,-166.28 1029,-96 1030.66,-95.43 1032.35,-94.83 1034.06,-94.21"/>
<polygon fill="#63b8ff" stroke="#63b8ff" points="1035.64,-97.36 1043.78,-90.57 1033.19,-90.8 1035.64,-97.36"/>
</a>
</g>
</g>
<!-- Node26 -->
<g id="Node000026" class="node">
<title>Node26</title>
<g id="a_Node000026"><a xlink:title=" ">
<polygon fill="#e0e0e0" stroke="#999999" points="982,-151 918,-151 918,-132 982,-132 982,-151"/>
<text text-anchor="middle" x="950" y="-139" font-family="Helvetica,sans-Serif" font-size="10.00">algorithm</text>
</a>
</g>
</g>
<!-- Node3&#45;&gt;Node26 -->
<g id="edge30_Node000003_Node000026" class="edge">
<title>Node3&#45;&gt;Node26</title>
<g id="a_edge30_Node000003_Node000026"><a xlink:title=" ">
<path fill="none" stroke="#63b8ff" d="M1262.86,-188.44C1259.53,-187.95 1256.21,-187.46 1253,-187 1139.85,-170.64 1108.53,-170.91 992.21,-151.11"/>
<polygon fill="#63b8ff" stroke="#63b8ff" points="992.64,-147.63 982.19,-149.39 991.45,-154.53 992.64,-147.63"/>
</a>
</g>
</g>
<!-- Node27 -->
<g id="Node000027" class="node">
<title>Node27</title>
<g id="a_Node000027"><a xlink:title=" ">
<polygon fill="#e0e0e0" stroke="#999999" points="1047.5,-151 1000.5,-151 1000.5,-132 1047.5,-132 1047.5,-151"/>
<text text-anchor="middle" x="1024" y="-139" font-family="Helvetica,sans-Serif" font-size="10.00">cmath</text>
</a>
</g>
</g>
<!-- Node3&#45;&gt;Node27 -->
<g id="edge32_Node000003_Node000027" class="edge">
<title>Node3&#45;&gt;Node27</title>
<g id="a_edge32_Node000003_Node000027"><a xlink:title=" ">
<path fill="none" stroke="#63b8ff" d="M1262.81,-188.44C1214.19,-180.77 1135.23,-167.62 1057.68,-151"/>
<polygon fill="#63b8ff" stroke="#63b8ff" points="1058.25,-147.54 1047.74,-148.85 1056.77,-154.38 1058.25,-147.54"/>
</a>
</g>
</g>
<!-- Node28 -->
<g id="Node000028" class="node">
<title>Node28</title>
<g id="a_Node000028"><a xlink:title=" ">
<polygon fill="#e0e0e0" stroke="#999999" points="1126,-151 1066,-151 1066,-132 1126,-132 1126,-151"/>
<text text-anchor="middle" x="1096" y="-139" font-family="Helvetica,sans-Serif" font-size="10.00">concepts</text>
</a>
</g>
</g>
<!-- Node3&#45;&gt;Node28 -->
<g id="edge33_Node000003_Node000028" class="edge">
<title>Node3&#45;&gt;Node28</title>
<g id="a_edge33_Node000003_Node000028"><a xlink:title=" ">
<path fill="none" stroke="#63b8ff" d="M1274.78,-186.98C1236.91,-177.56 1175.97,-162.4 1135.95,-152.44"/>
<polygon fill="#63b8ff" stroke="#63b8ff" points="1136.56,-148.98 1126.01,-149.97 1134.87,-155.78 1136.56,-148.98"/>
</a>
</g>
</g>
<!-- Node3&#45;&gt;Node29 -->
<g id="edge35_Node000003_Node000029" class="edge">
<title>Node3&#45;&gt;Node29</title>
<g id="a_edge35_Node000003_Node000029"><a xlink:title=" ">
<path fill="none" stroke="#63b8ff" d="M1355.28,-194.01C1460.76,-190.25 1727.03,-178.59 1948,-151 1949.47,-150.82 1950.95,-150.62 1952.46,-150.41"/>
<polygon fill="#63b8ff" stroke="#63b8ff" points="1953.11,-153.85 1962.45,-148.86 1952.04,-146.93 1953.11,-153.85"/>
</a>
</g>
</g>
<!-- Node30 -->
<g id="Node000030" class="node">
<title>Node30</title>
<g id="a_Node000030"><a xlink:title=" ">
<polygon fill="#e0e0e0" stroke="#999999" points="1227.5,-151 1144.5,-151 1144.5,-132 1227.5,-132 1227.5,-151"/>
<text text-anchor="middle" x="1186" y="-139" font-family="Helvetica,sans-Serif" font-size="10.00">initializer_list</text>
</a>
</g>
</g>
<!-- Node3&#45;&gt;Node30 -->
<g id="edge36_Node000003_Node000030" class="edge">
<title>Node3&#45;&gt;Node30</title>
<g id="a_edge36_Node000003_Node000030"><a xlink:title=" ">
<path fill="none" stroke="#63b8ff" d="M1289.24,-186.98C1269.27,-178.38 1238.2,-164.99 1215.35,-155.15"/>
<polygon fill="#63b8ff" stroke="#63b8ff" points="1216.69,-151.91 1206.12,-151.17 1213.92,-158.34 1216.69,-151.91"/>
</a>
</g>
</g>
<!-- Node31 -->
<g id="Node000031" class="node">
<title>Node31</title>
<g id="a_Node000031"><a xlink:title=" ">
<polygon fill="#e0e0e0" stroke="#999999" points="1302,-151 1246,-151 1246,-132 1302,-132 1302,-151"/>
<text text-anchor="middle" x="1274" y="-139" font-family="Helvetica,sans-Serif" font-size="10.00">numeric</text>
</a>
</g>
</g>
<!-- Node3&#45;&gt;Node31 -->
<g id="edge38_Node000003_Node000031" class="edge">
<title>Node3&#45;&gt;Node31</title>
<g id="a_edge38_Node000003_Node000031"><a xlink:title=" ">
<path fill="none" stroke="#63b8ff" d="M1303.22,-186.75C1298.38,-179.42 1291.32,-168.73 1285.36,-159.7"/>
<polygon fill="#63b8ff" stroke="#63b8ff" points="1288.1,-157.5 1279.67,-151.09 1282.26,-161.36 1288.1,-157.5"/>
</a>
</g>
</g>
<!-- Node32 -->
<g id="Node000032" class="node">
<title>Node32</title>
<g id="a_Node000032"><a xlink:title=" ">
<polygon fill="#e0e0e0" stroke="#999999" points="1370,-151 1320,-151 1320,-132 1370,-132 1370,-151"/>
<text text-anchor="middle" x="1345" y="-139" font-family="Helvetica,sans-Serif" font-size="10.00">ranges</text>
</a>
</g>
</g>
<!-- Node3&#45;&gt;Node32 -->
<g id="edge39_Node000003_Node000032" class="edge">
<title>Node3&#45;&gt;Node32</title>
<g id="a_edge39_Node000003_Node000032"><a xlink:title=" ">
<path fill="none" stroke="#63b8ff" d="M1314.94,-186.75C1319.98,-179.34 1327.34,-168.5 1333.51,-159.41"/>
<polygon fill="#63b8ff" stroke="#63b8ff" points="1336.44,-161.33 1339.17,-151.09 1330.65,-157.39 1336.44,-161.33"/>
</a>
</g>
</g>
<!-- Node33 -->
<g id="Node000033" class="node">
<title>Node33</title>
<g id="a_Node000033"><a xlink:title=" ">
<polygon fill="#e0e0e0" stroke="#999999" points="1428,-151 1388,-151 1388,-132 1428,-132 1428,-151"/>
<text text-anchor="middle" x="1408" y="-139" font-family="Helvetica,sans-Serif" font-size="10.00">span</text>
</a>
</g>
</g>
<!-- Node3&#45;&gt;Node33 -->
<g id="edge40_Node000003_Node000033" class="edge">
<title>Node3&#45;&gt;Node33</title>
<g id="a_edge40_Node000003_Node000033"><a xlink:title=" ">
<path fill="none" stroke="#63b8ff" d="M1324.91,-186.98C1340.55,-178.61 1364.66,-165.7 1382.88,-155.95"/>
<polygon fill="#63b8ff" stroke="#63b8ff" points="1384.64,-158.98 1391.8,-151.17 1381.34,-152.8 1384.64,-158.98"/>
</a>
</g>
</g>
<!-- Node34 -->
<g id="Node000034" class="node">
<title>Node34</title>
<g id="a_Node000034"><a xlink:title=" ">
<polygon fill="#e0e0e0" stroke="#999999" points="1515.5,-151 1446.5,-151 1446.5,-132 1515.5,-132 1515.5,-151"/>
<text text-anchor="middle" x="1481" y="-139" font-family="Helvetica,sans-Serif" font-size="10.00">type_traits</text>
</a>
</g>
</g>
<!-- Node3&#45;&gt;Node34 -->
<g id="edge41_Node000003_Node000034" class="edge">
<title>Node3&#45;&gt;Node34</title>
<g id="a_edge41_Node000003_Node000034"><a xlink:title=" ">
<path fill="none" stroke="#63b8ff" d="M1336.63,-186.98C1365.51,-178.09 1411.01,-164.07 1443.2,-154.15"/>
<polygon fill="#63b8ff" stroke="#63b8ff" points="1444.62,-157.37 1453.15,-151.08 1442.56,-150.68 1444.62,-157.37"/>
</a>
</g>
</g>
<!-- Node35 -->
<g id="Node000035" class="node">
<title>Node35</title>
<g id="a_Node000035"><a xlink:title=" ">
<polygon fill="#e0e0e0" stroke="#999999" points="1580.5,-151 1533.5,-151 1533.5,-132 1580.5,-132 1580.5,-151"/>
<text text-anchor="middle" x="1557" y="-139" font-family="Helvetica,sans-Serif" font-size="10.00">vector</text>
</a>
</g>
</g>
<!-- Node3&#45;&gt;Node35 -->
<g id="edge42_Node000003_Node000035" class="edge">
<title>Node3&#45;&gt;Node35</title>
<g id="a_edge42_Node000003_Node000035"><a xlink:title=" ">
<path fill="none" stroke="#63b8ff" d="M1353.19,-187C1394.63,-178.88 1458.53,-166 1523.27,-151.08"/>
<polygon fill="#63b8ff" stroke="#63b8ff" points="1524.29,-154.43 1533.24,-148.77 1522.71,-147.62 1524.29,-154.43"/>
</a>
</g>
</g>
<!-- Node7 -->
<g id="Node000007" class="node">
<title>Node7</title>
<g id="a_Node000007"><a xlink:href="device__qualifier_8hpp.html" target="_top" xlink:title=" ">
<polygon fill="white" stroke="#666666" points="303,-90.5 189,-90.5 189,-71.5 303,-71.5 303,-90.5"/>
<text text-anchor="middle" x="246" y="-78.5" font-family="Helvetica,sans-Serif" font-size="10.00">device_qualifier.hpp</text>
</a>
</g>
</g>
<!-- Node6&#45;&gt;Node7 -->
<g id="edge6_Node000006_Node000007" class="edge">
<title>Node6&#45;&gt;Node7</title>
<g id="a_edge6_Node000006_Node000007"><a xlink:title=" ">
<path fill="none" stroke="#63b8ff" d="M737.93,-136.28C661.28,-128.7 496.15,-112.08 357,-96 342.87,-94.37 327.74,-92.52 313.34,-90.72"/>
<polygon fill="#63b8ff" stroke="#63b8ff" points="313.37,-87.2 303.01,-89.42 312.5,-94.14 313.37,-87.2"/>
</a>
</g>
</g>
<!-- Node6&#45;&gt;Node8 -->
<g id="edge22_Node000006_Node000008" class="edge">
<title>Node6&#45;&gt;Node8</title>
<g id="a_edge22_Node000006_Node000008"><a xlink:title=" ">
<path fill="none" stroke="#63b8ff" d="M737.78,-135.33C699.15,-129.51 641.75,-117.87 596,-96 576.27,-86.57 577.43,-73.79 557,-66 350.46,12.7 276.38,-79.63 61,-30 58.63,-29.45 56.22,-28.77 53.81,-28.01"/>
<polygon fill="#63b8ff" stroke="#63b8ff" points="54.78,-24.63 44.19,-24.5 52.39,-31.21 54.78,-24.63"/>
</a>
</g>
</g>
<!-- Node6&#45;&gt;Node9 -->
<g id="edge8_Node000006_Node000009" class="edge">
<title>Node6&#45;&gt;Node9</title>
<g id="a_edge8_Node000006_Node000009"><a xlink:title=" ">
<path fill="none" stroke="#63b8ff" d="M817.13,-132C852.08,-123.57 906.46,-109.94 953,-96 955.31,-95.31 957.68,-94.57 960.07,-93.81"/>
<polygon fill="#63b8ff" stroke="#63b8ff" points="961.41,-97.05 969.82,-90.6 959.22,-90.4 961.41,-97.05"/>
</a>
</g>
</g>
<!-- Node6&#45;&gt;Node10 -->
<g id="edge23_Node000006_Node000010" class="edge">
<title>Node6&#45;&gt;Node10</title>
<g id="a_edge23_Node000006_Node000010"><a xlink:title=" ">
<path fill="none" stroke="#63b8ff" d="M817.46,-131.93C845.57,-124.53 884.95,-112.44 917,-96 937.09,-85.69 937.08,-74.51 958,-66 1063.62,-23.05 1101.69,-58.85 1212,-30 1214.3,-29.4 1216.65,-28.7 1219,-27.93"/>
<polygon fill="#63b8ff" stroke="#63b8ff" points="1220.23,-31.21 1228.46,-24.54 1217.87,-24.62 1220.23,-31.21"/>
</a>
</g>
</g>
<!-- Node11 -->
<g id="Node000011" class="node">
<title>Node11</title>
<g id="a_Node000011"><a xlink:title=" ">
<polygon fill="#e0e0e0" stroke="#999999" points="1203.5,-24.5 1158.5,-24.5 1158.5,-5.5 1203.5,-5.5 1203.5,-24.5"/>
<text text-anchor="middle" x="1181" y="-12.5" font-family="Helvetica,sans-Serif" font-size="10.00">utility</text>
</a>
</g>
</g>
<!-- Node6&#45;&gt;Node11 -->
<g id="edge28_Node000006_Node000011" class="edge">
<title>Node6&#45;&gt;Node11</title>
<g id="a_edge28_Node000006_Node000011"><a xlink:title=" ">
<path fill="none" stroke="#63b8ff" d="M803.4,-131.88C824.04,-123.63 855.27,-110.34 881,-96 901.67,-84.48 903.01,-74.75 925,-66 1018.68,-28.7 1052.26,-58.44 1149,-30 1150.68,-29.51 1152.39,-28.95 1154.1,-28.34"/>
<polygon fill="#63b8ff" stroke="#63b8ff" points="1155.7,-31.47 1163.69,-24.52 1153.11,-24.97 1155.7,-31.47"/>
</a>
</g>
</g>
<!-- Node12 -->
<g id="Node000012" class="node">
<title>Node12</title>
<g id="a_Node000012"><a xlink:href="array_8hpp.html" target="_top" xlink:title=" ">
<polygon fill="white" stroke="#666666" points="730.5,-90.5 605.5,-90.5 605.5,-71.5 730.5,-71.5 730.5,-90.5"/>
<text text-anchor="middle" x="668" y="-78.5" font-family="Helvetica,sans-Serif" font-size="10.00">serialization/array.hpp</text>
</a>
</g>
</g>
<!-- Node6&#45;&gt;Node12 -->
<g id="edge11_Node000006_Node000012" class="edge">
<title>Node6&#45;&gt;Node12</title>
<g id="a_edge11_Node000006_Node000012"><a xlink:title=" ">
<path fill="none" stroke="#63b8ff" d="M764.33,-131.87C745.72,-122.23 715.38,-106.53 693.72,-95.31"/>
<polygon fill="#63b8ff" stroke="#63b8ff" points="695.23,-92.16 684.74,-90.67 692.01,-98.37 695.23,-92.16"/>
</a>
</g>
</g>
<!-- Node21 -->
<g id="Node000021" class="node">
<title>Node21</title>
<g id="a_Node000021"><a xlink:title=" ">
<polygon fill="#e0e0e0" stroke="#999999" points="473.5,-96 366.5,-96 366.5,-66 473.5,-66 473.5,-96"/>
<text text-anchor="start" x="374.5" y="-84" font-family="Helvetica,sans-Serif" font-size="10.00">boost/serialization</text>
<text text-anchor="middle" x="420" y="-73" font-family="Helvetica,sans-Serif" font-size="10.00">/access.hpp</text>
</a>
</g>
</g>
<!-- Node6&#45;&gt;Node21 -->
<g id="edge21_Node000006_Node000021" class="edge">
<title>Node6&#45;&gt;Node21</title>
<g id="a_edge21_Node000006_Node000021"><a xlink:title=" ">
<path fill="none" stroke="#63b8ff" d="M737.75,-135.09C681.4,-127.81 579.58,-113.9 483.59,-96.22"/>
<polygon fill="#63b8ff" stroke="#63b8ff" points="484.19,-92.77 473.72,-94.39 482.91,-99.66 484.19,-92.77"/>
</a>
</g>
</g>
<!-- Node6&#45;&gt;Node22 -->
<g id="edge24_Node000006_Node000022" class="edge">
<title>Node6&#45;&gt;Node22</title>
<g id="a_edge24_Node000006_Node000022"><a xlink:title=" ">
<path fill="none" stroke="#63b8ff" d="M824.14,-135.34C874.06,-128.77 958.47,-115.84 1029,-96 1031.15,-95.4 1033.35,-94.71 1035.55,-93.98"/>
<polygon fill="#63b8ff" stroke="#63b8ff" points="1036.83,-97.24 1045.05,-90.55 1034.46,-90.65 1036.83,-97.24"/>
</a>
</g>
</g>
<!-- Node23 -->
<g id="Node000023" class="node">
<title>Node23</title>
<g id="a_Node000023"><a xlink:title=" ">
<polygon fill="#e0e0e0" stroke="#999999" points="548.5,-90.5 491.5,-90.5 491.5,-71.5 548.5,-71.5 548.5,-90.5"/>
<text text-anchor="middle" x="520" y="-78.5" font-family="Helvetica,sans-Serif" font-size="10.00">ostream</text>
</a>
</g>
</g>
<!-- Node6&#45;&gt;Node23 -->
<g id="edge25_Node000006_Node000023" class="edge">
<title>Node6&#45;&gt;Node23</title>
<g id="a_edge25_Node000006_Node000023"><a xlink:title=" ">
<path fill="none" stroke="#63b8ff" d="M737.65,-133.15C693.41,-125.3 622.94,-111.82 563,-96 560.22,-95.27 557.36,-94.46 554.5,-93.61"/>
<polygon fill="#63b8ff" stroke="#63b8ff" points="555.46,-90.24 544.87,-90.63 553.39,-96.93 555.46,-90.24"/>
</a>
</g>
</g>
<!-- Node24 -->
<g id="Node000024" class="node">
<title>Node24</title>
<g id="a_Node000024"><a xlink:title=" ">
<polygon fill="#e0e0e0" stroke="#999999" points="813.5,-90.5 748.5,-90.5 748.5,-71.5 813.5,-71.5 813.5,-90.5"/>
<text text-anchor="middle" x="781" y="-78.5" font-family="Helvetica,sans-Serif" font-size="10.00">stdexcept</text>
</a>
</g>
</g>
<!-- Node6&#45;&gt;Node24 -->
<g id="edge26_Node000006_Node000024" class="edge">
<title>Node6&#45;&gt;Node24</title>
<g id="a_edge26_Node000006_Node000024"><a xlink:title=" ">
<path fill="none" stroke="#63b8ff" d="M781,-131.87C781,-123.75 781,-111.31 781,-100.89"/>
<polygon fill="#63b8ff" stroke="#63b8ff" points="784.5,-100.67 781,-90.67 777.5,-100.67 784.5,-100.67"/>
</a>
</g>
</g>
<!-- Node25 -->
<g id="Node000025" class="node">
<title>Node25</title>
<g id="a_Node000025"><a xlink:title=" ">
<polygon fill="#e0e0e0" stroke="#999999" points="872.5,-90.5 831.5,-90.5 831.5,-71.5 872.5,-71.5 872.5,-90.5"/>
<text text-anchor="middle" x="852" y="-78.5" font-family="Helvetica,sans-Serif" font-size="10.00">tuple</text>
</a>
</g>
</g>
<!-- Node6&#45;&gt;Node25 -->
<g id="edge27_Node000006_Node000025" class="edge">
<title>Node6&#45;&gt;Node25</title>
<g id="a_edge27_Node000006_Node000025"><a xlink:title=" ">
<path fill="none" stroke="#63b8ff" d="M791.48,-131.87C802.49,-122.8 820.04,-108.34 833.41,-97.32"/>
<polygon fill="#63b8ff" stroke="#63b8ff" points="835.99,-99.73 841.48,-90.67 831.54,-94.33 835.99,-99.73"/>
</a>
</g>
</g>
<!-- Node7&#45;&gt;Node8 -->
<g id="edge7_Node000007_Node000008" class="edge">
<title>Node7&#45;&gt;Node8</title>
<g id="a_edge7_Node000007_Node000008"><a xlink:title=" ">
<path fill="none" stroke="#63b8ff" d="M209.47,-71.46C171.88,-62.37 111.81,-46.96 61,-30 59.34,-29.44 57.64,-28.85 55.93,-28.24"/>
<polygon fill="#63b8ff" stroke="#63b8ff" points="56.8,-24.82 46.21,-24.55 54.32,-31.37 56.8,-24.82"/>
</a>
</g>
</g>
<!-- Node9&#45;&gt;Node10 -->
<g id="edge9_Node000009_Node000010" class="edge">
<title>Node9&#45;&gt;Node10</title>
<g id="a_edge9_Node000009_Node000010"><a xlink:title=" ">
<path fill="none" stroke="#63b8ff" d="M1013.39,-71.5C1018.41,-69.5 1023.85,-67.52 1029,-66 1108.49,-42.51 1132.4,-53.11 1212,-30 1213.93,-29.44 1215.91,-28.82 1217.88,-28.16"/>
<polygon fill="#63b8ff" stroke="#63b8ff" points="1219.44,-31.32 1227.66,-24.63 1217.06,-24.73 1219.44,-31.32"/>
</a>
</g>
</g>
<!-- Node9&#45;&gt;Node11 -->
<g id="edge10_Node000009_Node000011" class="edge">
<title>Node9&#45;&gt;Node11</title>
<g id="a_edge10_Node000009_Node000011"><a xlink:title=" ">
<path fill="none" stroke="#63b8ff" d="M1014.61,-71.4C1019.31,-69.54 1024.3,-67.64 1029,-66 1081.57,-47.64 1096.73,-49.19 1149,-30 1150.39,-29.49 1151.8,-28.95 1153.22,-28.39"/>
<polygon fill="#63b8ff" stroke="#63b8ff" points="1154.64,-31.59 1162.54,-24.53 1151.96,-25.13 1154.64,-31.59"/>
</a>
</g>
</g>
<!-- Node12&#45;&gt;Node10 -->
<g id="edge20_Node000012_Node000010" class="edge">
<title>Node12&#45;&gt;Node10</title>
<g id="a_edge20_Node000012_Node000010"><a xlink:title=" ">
<path fill="none" stroke="#63b8ff" d="M706.92,-71.46C717.3,-69.42 728.54,-67.42 739,-66 947.9,-37.56 1006.41,-76.71 1212,-30 1214.37,-29.46 1216.8,-28.79 1219.21,-28.04"/>
<polygon fill="#63b8ff" stroke="#63b8ff" points="1220.63,-31.25 1228.9,-24.63 1218.3,-24.65 1220.63,-31.25"/>
</a>
</g>
</g>
<!-- Node13 -->
<g id="Node000013" class="node">
<title>Node13</title>
<g id="a_Node000013"><a xlink:title=" ">
<polygon fill="#e0e0e0" stroke="#999999" points="334.5,-24.5 201.5,-24.5 201.5,-5.5 334.5,-5.5 334.5,-24.5"/>
<text text-anchor="middle" x="268" y="-12.5" font-family="Helvetica,sans-Serif" font-size="10.00">boost/mpl/bool_fwd.hpp</text>
</a>
</g>
</g>
<!-- Node12&#45;&gt;Node13 -->
<g id="edge12_Node000012_Node000013" class="edge">
<title>Node12&#45;&gt;Node13</title>
<g id="a_edge12_Node000012_Node000013"><a xlink:title=" ">
<path fill="none" stroke="#63b8ff" d="M622.44,-71.44C612.12,-69.58 601.19,-67.67 591,-66 481.52,-48.07 453.46,-48.05 344,-30 337.24,-28.89 330.15,-27.66 323.14,-26.41"/>
<polygon fill="#63b8ff" stroke="#63b8ff" points="323.42,-22.9 312.96,-24.57 322.18,-29.79 323.42,-22.9"/>
</a>
</g>
</g>
<!-- Node14 -->
<g id="Node000014" class="node">
<title>Node14</title>
<g id="a_Node000014"><a xlink:title=" ">
<polygon fill="#e0e0e0" stroke="#999999" points="477,-24.5 353,-24.5 353,-5.5 477,-5.5 477,-24.5"/>
<text text-anchor="middle" x="415" y="-12.5" font-family="Helvetica,sans-Serif" font-size="10.00">boost/mpl/greater.hpp</text>
</a>
</g>
</g>
<!-- Node12&#45;&gt;Node14 -->
<g id="edge13_Node000012_Node000014" class="edge">
<title>Node12&#45;&gt;Node14</title>
<g id="a_edge13_Node000012_Node000014"><a xlink:title=" ">
<path fill="none" stroke="#63b8ff" d="M634.14,-71.44C588.79,-59.96 508.28,-39.6 458.49,-27"/>
<polygon fill="#63b8ff" stroke="#63b8ff" points="459.21,-23.57 448.66,-24.51 457.49,-30.36 459.21,-23.57"/>
</a>
</g>
</g>
<!-- Node15 -->
<g id="Node000015" class="node">
<title>Node15</title>
<g id="a_Node000015"><a xlink:title=" ">
<polygon fill="#e0e0e0" stroke="#999999" points="597,-24.5 495,-24.5 495,-5.5 597,-5.5 597,-24.5"/>
<text text-anchor="middle" x="546" y="-12.5" font-family="Helvetica,sans-Serif" font-size="10.00">boost/mpl/int.hpp</text>
</a>
</g>
</g>
<!-- Node12&#45;&gt;Node15 -->
<g id="edge14_Node000012_Node000015" class="edge">
<title>Node12&#45;&gt;Node15</title>
<g id="a_edge14_Node000012_Node000015"><a xlink:title=" ">
<path fill="none" stroke="#63b8ff" d="M651.55,-71.37C630.99,-60.59 595.6,-42.02 571.51,-29.38"/>
<polygon fill="#63b8ff" stroke="#63b8ff" points="573.06,-26.25 562.58,-24.7 569.81,-32.44 573.06,-26.25"/>
</a>
</g>
</g>
<!-- Node16 -->
<g id="Node000016" class="node">
<title>Node16</title>
<g id="a_Node000016"><a xlink:title=" ">
<polygon fill="#e0e0e0" stroke="#999999" points="721,-30 615,-30 615,0 721,0 721,-30"/>
<text text-anchor="start" x="623" y="-18" font-family="Helvetica,sans-Serif" font-size="10.00">boost/mpl/integral</text>
<text text-anchor="middle" x="668" y="-7" font-family="Helvetica,sans-Serif" font-size="10.00">_c_tag.hpp</text>
</a>
</g>
</g>
<!-- Node12&#45;&gt;Node16 -->
<g id="edge15_Node000012_Node000016" class="edge">
<title>Node12&#45;&gt;Node16</title>
<g id="a_edge15_Node000012_Node000016"><a xlink:title=" ">
<path fill="none" stroke="#63b8ff" d="M668,-71.37C668,-63.49 668,-51.45 668,-40.6"/>
<polygon fill="#63b8ff" stroke="#63b8ff" points="671.5,-40.36 668,-30.36 664.5,-40.36 671.5,-40.36"/>
</a>
</g>
</g>
<!-- Node17 -->
<g id="Node000017" class="node">
<title>Node17</title>
<g id="a_Node000017"><a xlink:title=" ">
<polygon fill="#e0e0e0" stroke="#999999" points="890.5,-30 739.5,-30 739.5,0 890.5,0 890.5,-30"/>
<text text-anchor="start" x="747.5" y="-18" font-family="Helvetica,sans-Serif" font-size="10.00">boost/serialization</text>
<text text-anchor="middle" x="815" y="-7" font-family="Helvetica,sans-Serif" font-size="10.00">/is_bitwise_serializable.hpp</text>
</a>
</g>
</g>
<!-- Node12&#45;&gt;Node17 -->
<g id="edge16_Node000012_Node000017" class="edge">
<title>Node12&#45;&gt;Node17</title>
<g id="a_edge16_Node000012_Node000017"><a xlink:title=" ">
<path fill="none" stroke="#63b8ff" d="M687.83,-71.37C709.65,-61.87 745.36,-46.32 773.4,-34.11"/>
<polygon fill="#63b8ff" stroke="#63b8ff" points="774.81,-37.32 782.58,-30.12 772.01,-30.9 774.81,-37.32"/>
</a>
</g>
</g>
<!-- Node18 -->
<g id="Node000018" class="node">
<title>Node18</title>
<g id="a_Node000018"><a xlink:title=" ">
<polygon fill="#e0e0e0" stroke="#999999" points="1015.5,-30 908.5,-30 908.5,0 1015.5,0 1015.5,-30"/>
<text text-anchor="start" x="916.5" y="-18" font-family="Helvetica,sans-Serif" font-size="10.00">boost/serialization</text>
<text text-anchor="middle" x="962" y="-7" font-family="Helvetica,sans-Serif" font-size="10.00">/level.hpp</text>
</a>
</g>
</g>
<!-- Node12&#45;&gt;Node18 -->
<g id="edge17_Node000012_Node000018" class="edge">
<title>Node12&#45;&gt;Node18</title>
<g id="a_edge17_Node000012_Node000018"><a xlink:title=" ">
<path fill="none" stroke="#63b8ff" d="M707.66,-71.48C751.71,-62.01 825.21,-46.16 898.52,-30.1"/>
<polygon fill="#63b8ff" stroke="#63b8ff" points="899.37,-33.5 908.39,-27.93 897.87,-26.66 899.37,-33.5"/>
</a>
</g>
</g>
<!-- Node19 -->
<g id="Node000019" class="node">
<title>Node19</title>
<g id="a_Node000019"><a xlink:title=" ">
<polygon fill="#e0e0e0" stroke="#999999" points="1140.5,-30 1033.5,-30 1033.5,0 1140.5,0 1140.5,-30"/>
<text text-anchor="start" x="1041.5" y="-18" font-family="Helvetica,sans-Serif" font-size="10.00">boost/serialization</text>
<text text-anchor="middle" x="1087" y="-7" font-family="Helvetica,sans-Serif" font-size="10.00">/tracking.hpp</text>
</a>
</g>
</g>
<!-- Node12&#45;&gt;Node19 -->
<g id="edge18_Node000012_Node000019" class="edge">
<title>Node12&#45;&gt;Node19</title>
<g id="a_edge18_Node000012_Node000019"><a xlink:title=" ">
<path fill="none" stroke="#63b8ff" d="M708.84,-71.45C718.69,-69.52 729.2,-67.58 739,-66 861.84,-46.16 896.47,-51.57 1023.34,-30"/>
<polygon fill="#63b8ff" stroke="#63b8ff" points="1024.19,-33.4 1033.45,-28.26 1023,-26.5 1024.19,-33.4"/>
</a>
</g>
</g>
<!-- Node20 -->
<g id="Node000020" class="node">
<title>Node20</title>
<g id="a_Node000020"><a xlink:title=" ">
<polygon fill="#e0e0e0" stroke="#999999" points="183.5,-30 70.5,-30 70.5,0 183.5,0 183.5,-30"/>
<text text-anchor="start" x="78.5" y="-18" font-family="Helvetica,sans-Serif" font-size="10.00">boost/serialization</text>
<text text-anchor="middle" x="127" y="-7" font-family="Helvetica,sans-Serif" font-size="10.00">/tracking_enum.hpp</text>
</a>
</g>
</g>
<!-- Node12&#45;&gt;Node20 -->
<g id="edge19_Node000012_Node000020" class="edge">
<title>Node12&#45;&gt;Node20</title>
<g id="a_edge19_Node000012_Node000020"><a xlink:title=" ">
<path fill="none" stroke="#63b8ff" d="M624.94,-71.47C613.91,-69.47 602.04,-67.5 591,-66 417.84,-42.49 369.8,-56.26 193.77,-30.15"/>
<polygon fill="#63b8ff" stroke="#63b8ff" points="194.05,-26.65 183.64,-28.63 193.01,-33.58 194.05,-26.65"/>
</a>
</g>
</g>
</g>
</svg>
