<?xml version="1.0" encoding="UTF-8" standalone="no"?>
<!DOCTYPE svg PUBLIC "-//W3C//DTD SVG 1.1//EN"
 "http://www.w3.org/Graphics/SVG/1.1/DTD/svg11.dtd">
<!-- Generated by graphviz version 2.43.0 (0)
 -->
<!-- Title: RuntimeErrorStream.cpp Pages: 1 -->
<svg width="539pt" height="214pt"
 viewBox="0.00 0.00 538.76 214.00" xmlns="http://www.w3.org/2000/svg" xmlns:xlink="http://www.w3.org/1999/xlink">
<g id="graph0" class="graph" transform="scale(1 1) rotate(0) translate(4 210)">
<title>RuntimeErrorStream.cpp</title>
<!-- Node1 -->
<g id="Node000001" class="node">
<title>Node1</title>
<g id="a_Node000001"><a xlink:title=" ">
<polygon fill="#999999" stroke="#666666" points="250.96,-206 113.96,-206 113.96,-187 250.96,-187 250.96,-206"/>
<text text-anchor="middle" x="182.46" y="-194" font-family="Helvetica,sans-Serif" font-size="10.00">RuntimeErrorStream.cpp</text>
</a>
</g>
</g>
<!-- Node2 -->
<g id="Node000002" class="node">
<title>Node2</title>
<g id="a_Node000002"><a xlink:href="RuntimeErrorStream_8hpp.html" target="_top" xlink:title=" ">
<polygon fill="white" stroke="#666666" points="173.96,-151 18.96,-151 18.96,-121 173.96,-121 173.96,-151"/>
<text text-anchor="start" x="26.96" y="-139" font-family="Helvetica,sans-Serif" font-size="10.00">error_handling/RuntimeError</text>
<text text-anchor="middle" x="96.46" y="-128" font-family="Helvetica,sans-Serif" font-size="10.00">Stream.hpp</text>
</a>
</g>
</g>
<!-- Node1&#45;&gt;Node2 -->
<g id="edge1_Node000001_Node000002" class="edge">
<title>Node1&#45;&gt;Node2</title>
<g id="a_edge1_Node000001_Node000002"><a xlink:title=" ">
<path fill="none" stroke="#63b8ff" d="M169.77,-186.87C158.21,-179 140.71,-167.09 125.7,-156.89"/>
<polygon fill="#63b8ff" stroke="#63b8ff" points="127.45,-153.85 117.21,-151.11 123.51,-159.63 127.45,-153.85"/>
</a>
</g>
</g>
<!-- Node6 -->
<g id="Node000006" class="node">
<title>Node6</title>
<g id="a_Node000006"><a xlink:title=" ">
<polygon fill="#e0e0e0" stroke="#999999" points="104.46,-24.5 60.46,-24.5 60.46,-5.5 104.46,-5.5 104.46,-24.5"/>
<text text-anchor="middle" x="82.46" y="-12.5" font-family="Helvetica,sans-Serif" font-size="10.00">string</text>
</a>
</g>
</g>
<!-- Node1&#45;&gt;Node6 -->
<g id="edge15_Node000001_Node000006" class="edge">
<title>Node1&#45;&gt;Node6</title>
<g id="a_edge15_Node000001_Node000006"><a xlink:title=" ">
<path fill="none" stroke="#63b8ff" d="M116.29,-186.94C73.26,-179.86 22.77,-168.16 9.46,-151 -21.13,-111.54 32.18,-57.52 62.95,-31.39"/>
<polygon fill="#63b8ff" stroke="#63b8ff" points="65.46,-33.86 70.94,-24.8 61,-28.46 65.46,-33.86"/>
</a>
</g>
</g>
<!-- Node7 -->
<g id="Node000007" class="node">
<title>Node7</title>
<g id="a_Node000007"><a xlink:title=" ">
<polygon fill="#e0e0e0" stroke="#999999" points="504.96,-24.5 459.96,-24.5 459.96,-5.5 504.96,-5.5 504.96,-24.5"/>
<text text-anchor="middle" x="482.46" y="-12.5" font-family="Helvetica,sans-Serif" font-size="10.00">utility</text>
</a>
</g>
</g>
<!-- Node1&#45;&gt;Node7 -->
<g id="edge16_Node000001_Node000007" class="edge">
<title>Node1&#45;&gt;Node7</title>
<g id="a_edge16_Node000001_Node000007"><a xlink:title=" ">
<path fill="none" stroke="#63b8ff" d="M232.89,-186.99C320.05,-171.11 492.8,-134.08 526.46,-85 539.03,-66.68 519.82,-44.99 502.97,-30.88"/>
<polygon fill="#63b8ff" stroke="#63b8ff" points="505.05,-28.07 495.04,-24.62 500.71,-33.56 505.05,-28.07"/>
</a>
</g>
</g>
<!-- Node9 -->
<g id="Node000009" class="node">
<title>Node9</title>
<g id="a_Node000009"><a xlink:href="RuntimeErrorCollector_8hpp.html" target="_top" xlink:title=" ">
<polygon fill="white" stroke="#666666" points="346.96,-151 191.96,-151 191.96,-121 346.96,-121 346.96,-151"/>
<text text-anchor="start" x="199.96" y="-139" font-family="Helvetica,sans-Serif" font-size="10.00">error_handling/RuntimeError</text>
<text text-anchor="middle" x="269.46" y="-128" font-family="Helvetica,sans-Serif" font-size="10.00">Collector.hpp</text>
</a>
</g>
</g>
<!-- Node1&#45;&gt;Node9 -->
<g id="edge9_Node000001_Node000009" class="edge">
<title>Node1&#45;&gt;Node9</title>
<g id="a_edge9_Node000001_Node000009"><a xlink:title=" ">
<path fill="none" stroke="#63b8ff" d="M195.3,-186.87C207,-179 224.71,-167.09 239.89,-156.89"/>
<polygon fill="#63b8ff" stroke="#63b8ff" points="242.13,-159.6 248.47,-151.11 238.22,-153.79 242.13,-159.6"/>
</a>
</g>
</g>
<!-- Node3 -->
<g id="Node000003" class="node">
<title>Node3</title>
<g id="a_Node000003"><a xlink:href="RuntimeError_8hpp.html" target="_top" xlink:title=" ">
<polygon fill="white" stroke="#666666" points="275.96,-85 174.96,-85 174.96,-66 275.96,-66 275.96,-85"/>
<text text-anchor="middle" x="225.46" y="-73" font-family="Helvetica,sans-Serif" font-size="10.00">RuntimeError.hpp</text>
</a>
</g>
</g>
<!-- Node2&#45;&gt;Node3 -->
<g id="edge2_Node000002_Node000003" class="edge">
<title>Node2&#45;&gt;Node3</title>
<g id="a_edge2_Node000002_Node000003"><a xlink:title=" ">
<path fill="none" stroke="#63b8ff" d="M127.36,-120.99C148.6,-111.36 176.57,-98.67 197.21,-89.31"/>
<polygon fill="#63b8ff" stroke="#63b8ff" points="198.75,-92.46 206.41,-85.14 195.86,-86.08 198.75,-92.46"/>
</a>
</g>
</g>
<!-- Node2&#45;&gt;Node6 -->
<g id="edge8_Node000002_Node000006" class="edge">
<title>Node2&#45;&gt;Node6</title>
<g id="a_edge8_Node000002_Node000006"><a xlink:title=" ">
<path fill="none" stroke="#63b8ff" d="M79.23,-120.73C69.65,-111.63 58.64,-98.96 53.46,-85 46.79,-67.01 57.47,-46.82 67.69,-32.95"/>
<polygon fill="#63b8ff" stroke="#63b8ff" points="70.67,-34.84 74.16,-24.83 65.19,-30.47 70.67,-34.84"/>
</a>
</g>
</g>
<!-- Node8 -->
<g id="Node000008" class="node">
<title>Node8</title>
<g id="a_Node000008"><a xlink:title=" ">
<polygon fill="#e0e0e0" stroke="#999999" points="118.46,-85 62.46,-85 62.46,-66 118.46,-66 118.46,-85"/>
<text text-anchor="middle" x="90.46" y="-73" font-family="Helvetica,sans-Serif" font-size="10.00">sstream</text>
</a>
</g>
</g>
<!-- Node2&#45;&gt;Node8 -->
<g id="edge7_Node000002_Node000008" class="edge">
<title>Node2&#45;&gt;Node8</title>
<g id="a_edge7_Node000002_Node000008"><a xlink:title=" ">
<path fill="none" stroke="#63b8ff" d="M95.01,-120.84C94.23,-113.21 93.25,-103.7 92.41,-95.45"/>
<polygon fill="#63b8ff" stroke="#63b8ff" points="95.87,-94.86 91.36,-85.27 88.9,-95.57 95.87,-94.86"/>
</a>
</g>
</g>
<!-- Node4 -->
<g id="Node000004" class="node">
<title>Node4</title>
<g id="a_Node000004"><a xlink:title=" ">
<polygon fill="#e0e0e0" stroke="#999999" points="253.96,-30 146.96,-30 146.96,0 253.96,0 253.96,-30"/>
<text text-anchor="start" x="154.96" y="-18" font-family="Helvetica,sans-Serif" font-size="10.00">boost/serialization</text>
<text text-anchor="middle" x="200.46" y="-7" font-family="Helvetica,sans-Serif" font-size="10.00">/access.hpp</text>
</a>
</g>
</g>
<!-- Node3&#45;&gt;Node4 -->
<g id="edge3_Node000003_Node000004" class="edge">
<title>Node3&#45;&gt;Node4</title>
<g id="a_edge3_Node000003_Node000004"><a xlink:title=" ">
<path fill="none" stroke="#63b8ff" d="M221.78,-65.87C218.79,-58.89 214.45,-48.71 210.45,-39.38"/>
<polygon fill="#63b8ff" stroke="#63b8ff" points="213.64,-37.93 206.5,-30.11 207.21,-40.69 213.64,-37.93"/>
</a>
</g>
</g>
<!-- Node5 -->
<g id="Node000005" class="node">
<title>Node5</title>
<g id="a_Node000005"><a xlink:title=" ">
<polygon fill="#e0e0e0" stroke="#999999" points="378.96,-30 271.96,-30 271.96,0 378.96,0 378.96,-30"/>
<text text-anchor="start" x="279.96" y="-18" font-family="Helvetica,sans-Serif" font-size="10.00">boost/serialization</text>
<text text-anchor="middle" x="325.46" y="-7" font-family="Helvetica,sans-Serif" font-size="10.00">/string.hpp</text>
</a>
</g>
</g>
<!-- Node3&#45;&gt;Node5 -->
<g id="edge4_Node000003_Node000005" class="edge">
<title>Node3&#45;&gt;Node5</title>
<g id="a_edge4_Node000003_Node000005"><a xlink:title=" ">
<path fill="none" stroke="#63b8ff" d="M240.22,-65.87C253.91,-57.86 274.79,-45.65 292.45,-35.31"/>
<polygon fill="#63b8ff" stroke="#63b8ff" points="294.47,-38.19 301.34,-30.11 290.94,-32.14 294.47,-38.19"/>
</a>
</g>
</g>
<!-- Node3&#45;&gt;Node6 -->
<g id="edge5_Node000003_Node000006" class="edge">
<title>Node3&#45;&gt;Node6</title>
<g id="a_edge5_Node000003_Node000006"><a xlink:title=" ">
<path fill="none" stroke="#63b8ff" d="M204.67,-65.99C180.52,-56.12 140.48,-39.73 112.85,-28.43"/>
<polygon fill="#63b8ff" stroke="#63b8ff" points="113.86,-25.06 103.28,-24.52 111.21,-31.54 113.86,-25.06"/>
</a>
</g>
</g>
<!-- Node3&#45;&gt;Node7 -->
<g id="edge6_Node000003_Node000007" class="edge">
<title>Node3&#45;&gt;Node7</title>
<g id="a_edge6_Node000003_Node000007"><a xlink:title=" ">
<path fill="none" stroke="#63b8ff" d="M262.83,-65.99C313.29,-54.51 402.36,-34.23 450.1,-23.37"/>
<polygon fill="#63b8ff" stroke="#63b8ff" points="450.93,-26.77 459.9,-21.14 449.38,-19.94 450.93,-26.77"/>
</a>
</g>
</g>
<!-- Node9&#45;&gt;Node3 -->
<g id="edge10_Node000009_Node000003" class="edge">
<title>Node9&#45;&gt;Node3</title>
<g id="a_edge10_Node000009_Node000003"><a xlink:title=" ">
<path fill="none" stroke="#63b8ff" d="M258.81,-120.84C252.62,-112.61 244.78,-102.18 238.25,-93.51"/>
<polygon fill="#63b8ff" stroke="#63b8ff" points="240.87,-91.15 232.06,-85.27 235.27,-95.36 240.87,-91.15"/>
</a>
</g>
</g>
<!-- Node9&#45;&gt;Node6 -->
<g id="edge13_Node000009_Node000006" class="edge">
<title>Node9&#45;&gt;Node6</title>
<g id="a_edge13_Node000009_Node000006"><a xlink:title=" ">
<path fill="none" stroke="#63b8ff" d="M234.61,-120.81C213.86,-111.75 187.38,-99.07 165.46,-85 140.76,-69.13 115.2,-46.84 99.09,-31.93"/>
<polygon fill="#63b8ff" stroke="#63b8ff" points="101.27,-29.18 91.58,-24.88 96.48,-34.28 101.27,-29.18"/>
</a>
</g>
</g>
<!-- Node9&#45;&gt;Node8 -->
<g id="edge12_Node000009_Node000008" class="edge">
<title>Node9&#45;&gt;Node8</title>
<g id="a_edge12_Node000009_Node000008"><a xlink:title=" ">
<path fill="none" stroke="#63b8ff" d="M226.59,-120.99C195.97,-110.98 155.24,-97.67 126.33,-88.22"/>
<polygon fill="#63b8ff" stroke="#63b8ff" points="127.23,-84.83 116.64,-85.05 125.06,-91.49 127.23,-84.83"/>
</a>
</g>
</g>
<!-- Node10 -->
<g id="Node000010" class="node">
<title>Node10</title>
<g id="a_Node000010"><a xlink:title=" ">
<polygon fill="#e0e0e0" stroke="#999999" points="517.96,-85 358.96,-85 358.96,-66 517.96,-66 517.96,-85"/>
<text text-anchor="middle" x="438.46" y="-73" font-family="Helvetica,sans-Serif" font-size="10.00">boost/mpi/communicator.hpp</text>
</a>
</g>
</g>
<!-- Node9&#45;&gt;Node10 -->
<g id="edge11_Node000009_Node000010" class="edge">
<title>Node9&#45;&gt;Node10</title>
<g id="a_edge11_Node000009_Node000010"><a xlink:title=" ">
<path fill="none" stroke="#63b8ff" d="M309.94,-120.99C338.64,-111.05 376.74,-97.86 404,-88.43"/>
<polygon fill="#63b8ff" stroke="#63b8ff" points="405.2,-91.72 413.51,-85.14 402.91,-85.1 405.2,-91.72"/>
</a>
</g>
</g>
<!-- Node11 -->
<g id="Node000011" class="node">
<title>Node11</title>
<g id="a_Node000011"><a xlink:title=" ">
<polygon fill="#e0e0e0" stroke="#999999" points="340.96,-85 293.96,-85 293.96,-66 340.96,-66 340.96,-85"/>
<text text-anchor="middle" x="317.46" y="-73" font-family="Helvetica,sans-Serif" font-size="10.00">vector</text>
</a>
</g>
</g>
<!-- Node9&#45;&gt;Node11 -->
<g id="edge14_Node000009_Node000011" class="edge">
<title>Node9&#45;&gt;Node11</title>
<g id="a_edge14_Node000009_Node000011"><a xlink:title=" ">
<path fill="none" stroke="#63b8ff" d="M281.08,-120.84C287.91,-112.52 296.57,-101.96 303.74,-93.23"/>
<polygon fill="#63b8ff" stroke="#63b8ff" points="306.63,-95.22 310.27,-85.27 301.22,-90.78 306.63,-95.22"/>
</a>
</g>
</g>
</g>
</svg>
