<?xml version="1.0" encoding="UTF-8" standalone="no"?>
<!DOCTYPE svg PUBLIC "-//W3C//DTD SVG 1.1//EN"
 "http://www.w3.org/Graphics/SVG/1.1/DTD/svg11.dtd">
<!-- Generated by graphviz version 2.43.0 (0)
 -->
<!-- Title: RuntimeErrorStream.cpp Pages: 1 -->
<svg width="542pt" height="218pt"
 viewBox="0.00 0.00 542.06 218.00" xmlns="http://www.w3.org/2000/svg" xmlns:xlink="http://www.w3.org/1999/xlink">
<g id="graph0" class="graph" transform="scale(1 1) rotate(0) translate(4 214)">
<title>RuntimeErrorStream.cpp</title>
<!-- Node1 -->
<g id="node1" class="node">
<title>Node1</title>
<g id="a_node1"><a xlink:title=" ">
<polygon fill="#bfbfbf" stroke="black" points="114.14,-190.5 114.14,-209.5 251.14,-209.5 251.14,-190.5 114.14,-190.5"/>
<text text-anchor="middle" x="182.64" y="-197.5" font-family="Helvetica,sans-Serif" font-size="10.00">RuntimeErrorStream.cpp</text>
</a>
</g>
</g>
<!-- Node2 -->
<g id="node2" class="node">
<title>Node2</title>
<g id="a_node2"><a xlink:href="RuntimeErrorStream_8hpp.html" target="_top" xlink:title=" ">
<polygon fill="none" stroke="black" points="19.14,-123.5 19.14,-153.5 174.14,-153.5 174.14,-123.5 19.14,-123.5"/>
<text text-anchor="start" x="27.14" y="-141.5" font-family="Helvetica,sans-Serif" font-size="10.00">error_handling/RuntimeError</text>
<text text-anchor="middle" x="96.64" y="-130.5" font-family="Helvetica,sans-Serif" font-size="10.00">Stream.hpp</text>
</a>
</g>
</g>
<!-- Node1&#45;&gt;Node2 -->
<g id="edge1" class="edge">
<title>Node1&#45;&gt;Node2</title>
<path fill="none" stroke="midnightblue" d="M170.32,-190.48C158.67,-182.42 140.76,-170.02 125.51,-159.47"/>
<polygon fill="midnightblue" stroke="midnightblue" points="127.13,-156.33 116.91,-153.52 123.14,-162.09 127.13,-156.33"/>
</g>
<!-- Node6 -->
<g id="node6" class="node">
<title>Node6</title>
<g id="a_node6"><a xlink:title=" ">
<polygon fill="none" stroke="#bfbfbf" points="60.64,-6 60.64,-25 104.64,-25 104.64,-6 60.64,-6"/>
<text text-anchor="middle" x="82.64" y="-13" font-family="Helvetica,sans-Serif" font-size="10.00">string</text>
</a>
</g>
</g>
<!-- Node1&#45;&gt;Node6 -->
<g id="edge15" class="edge">
<title>Node1&#45;&gt;Node6</title>
<path fill="none" stroke="midnightblue" d="M117.84,-190.47C74.51,-183.29 23.07,-171.37 9.64,-154 -21.49,-113.74 32.67,-58.32 63.49,-31.82"/>
<polygon fill="midnightblue" stroke="midnightblue" points="66.05,-34.24 71.48,-25.15 61.56,-28.87 66.05,-34.24"/>
</g>
<!-- Node7 -->
<g id="node7" class="node">
<title>Node7</title>
<g id="a_node7"><a xlink:title=" ">
<polygon fill="none" stroke="#bfbfbf" points="461.14,-6 461.14,-25 506.14,-25 506.14,-6 461.14,-6"/>
<text text-anchor="middle" x="483.64" y="-13" font-family="Helvetica,sans-Serif" font-size="10.00">utility</text>
</a>
</g>
</g>
<!-- Node1&#45;&gt;Node7 -->
<g id="edge16" class="edge">
<title>Node1&#45;&gt;Node7</title>
<path fill="none" stroke="midnightblue" d="M232.81,-190.46C320.49,-174.36 495.56,-136.64 529.64,-87 542.65,-68.05 522.32,-45.78 504.7,-31.42"/>
<polygon fill="midnightblue" stroke="midnightblue" points="506.48,-28.37 496.42,-25.05 502.21,-33.92 506.48,-28.37"/>
</g>
<!-- Node9 -->
<g id="node9" class="node">
<title>Node9</title>
<g id="a_node9"><a xlink:href="RuntimeErrorCollector_8hpp.html" target="_top" xlink:title=" ">
<polygon fill="none" stroke="black" points="192.14,-123.5 192.14,-153.5 347.14,-153.5 347.14,-123.5 192.14,-123.5"/>
<text text-anchor="start" x="200.14" y="-141.5" font-family="Helvetica,sans-Serif" font-size="10.00">error_handling/RuntimeError</text>
<text text-anchor="middle" x="269.64" y="-130.5" font-family="Helvetica,sans-Serif" font-size="10.00">Collector.hpp</text>
</a>
</g>
</g>
<!-- Node1&#45;&gt;Node9 -->
<g id="edge9" class="edge">
<title>Node1&#45;&gt;Node9</title>
<path fill="none" stroke="midnightblue" d="M195.11,-190.48C207,-182.34 225.35,-169.79 240.87,-159.18"/>
<polygon fill="midnightblue" stroke="midnightblue" points="242.86,-162.06 249.14,-153.52 238.91,-156.28 242.86,-162.06"/>
</g>
<!-- Node3 -->
<g id="node3" class="node">
<title>Node3</title>
<g id="a_node3"><a xlink:href="RuntimeError_8hpp.html" target="_top" xlink:title=" ">
<polygon fill="none" stroke="black" points="174.64,-67.5 174.64,-86.5 276.64,-86.5 276.64,-67.5 174.64,-67.5"/>
<text text-anchor="middle" x="225.64" y="-74.5" font-family="Helvetica,sans-Serif" font-size="10.00">RuntimeError.hpp</text>
</a>
</g>
</g>
<!-- Node2&#45;&gt;Node3 -->
<g id="edge2" class="edge">
<title>Node2&#45;&gt;Node3</title>
<path fill="none" stroke="midnightblue" d="M127.21,-123.4C148.57,-113.55 176.86,-100.5 197.63,-90.92"/>
<polygon fill="midnightblue" stroke="midnightblue" points="199.26,-94.02 206.87,-86.66 196.33,-87.67 199.26,-94.02"/>
</g>
<!-- Node2&#45;&gt;Node6 -->
<g id="edge8" class="edge">
<title>Node2&#45;&gt;Node6</title>
<path fill="none" stroke="midnightblue" d="M79.85,-123.47C70.16,-114.24 58.89,-101.26 53.64,-87 46.75,-68.28 58.03,-47.17 68.47,-32.97"/>
<polygon fill="midnightblue" stroke="midnightblue" points="71.23,-35.11 74.69,-25.1 65.74,-30.77 71.23,-35.11"/>
</g>
<!-- Node8 -->
<g id="node8" class="node">
<title>Node8</title>
<g id="a_node8"><a xlink:title=" ">
<polygon fill="none" stroke="#bfbfbf" points="62.64,-67.5 62.64,-86.5 118.64,-86.5 118.64,-67.5 62.64,-67.5"/>
<text text-anchor="middle" x="90.64" y="-74.5" font-family="Helvetica,sans-Serif" font-size="10.00">sstream</text>
</a>
</g>
</g>
<!-- Node2&#45;&gt;Node8 -->
<g id="edge7" class="edge">
<title>Node2&#45;&gt;Node8</title>
<path fill="none" stroke="midnightblue" d="M95.22,-123.4C94.42,-115.47 93.41,-105.46 92.54,-96.86"/>
<polygon fill="midnightblue" stroke="midnightblue" points="96,-96.26 91.52,-86.66 89.04,-96.96 96,-96.26"/>
</g>
<!-- Node4 -->
<g id="node4" class="node">
<title>Node4</title>
<g id="a_node4"><a xlink:title=" ">
<polygon fill="none" stroke="#bfbfbf" points="147.14,-0.5 147.14,-30.5 254.14,-30.5 254.14,-0.5 147.14,-0.5"/>
<text text-anchor="start" x="155.14" y="-18.5" font-family="Helvetica,sans-Serif" font-size="10.00">boost/serialization</text>
<text text-anchor="middle" x="200.64" y="-7.5" font-family="Helvetica,sans-Serif" font-size="10.00">/access.hpp</text>
</a>
</g>
</g>
<!-- Node3&#45;&gt;Node4 -->
<g id="edge3" class="edge">
<title>Node3&#45;&gt;Node4</title>
<path fill="none" stroke="midnightblue" d="M222.06,-67.48C219.02,-60.25 214.52,-49.53 210.42,-39.78"/>
<polygon fill="midnightblue" stroke="midnightblue" points="213.64,-38.39 206.54,-30.52 207.18,-41.1 213.64,-38.39"/>
</g>
<!-- Node5 -->
<g id="node5" class="node">
<title>Node5</title>
<g id="a_node5"><a xlink:title=" ">
<polygon fill="none" stroke="#bfbfbf" points="272.14,-0.5 272.14,-30.5 379.14,-30.5 379.14,-0.5 272.14,-0.5"/>
<text text-anchor="start" x="280.14" y="-18.5" font-family="Helvetica,sans-Serif" font-size="10.00">boost/serialization</text>
<text text-anchor="middle" x="325.64" y="-7.5" font-family="Helvetica,sans-Serif" font-size="10.00">/string.hpp</text>
</a>
</g>
</g>
<!-- Node3&#45;&gt;Node5 -->
<g id="edge4" class="edge">
<title>Node3&#45;&gt;Node5</title>
<path fill="none" stroke="midnightblue" d="M239.97,-67.48C253.77,-59.27 275.13,-46.56 293.06,-35.88"/>
<polygon fill="midnightblue" stroke="midnightblue" points="295.27,-38.64 302.08,-30.52 291.69,-32.63 295.27,-38.64"/>
</g>
<!-- Node3&#45;&gt;Node6 -->
<g id="edge5" class="edge">
<title>Node3&#45;&gt;Node6</title>
<path fill="none" stroke="midnightblue" d="M205.15,-67.48C180.84,-57.36 140.09,-40.4 112.33,-28.85"/>
<polygon fill="midnightblue" stroke="midnightblue" points="113.67,-25.62 103.09,-25.01 110.98,-32.08 113.67,-25.62"/>
</g>
<!-- Node3&#45;&gt;Node7 -->
<g id="edge6" class="edge">
<title>Node3&#45;&gt;Node7</title>
<path fill="none" stroke="midnightblue" d="M262.61,-67.48C313.1,-55.83 402.86,-35.13 451,-24.03"/>
<polygon fill="midnightblue" stroke="midnightblue" points="451.93,-27.41 460.89,-21.75 450.36,-20.58 451.93,-27.41"/>
</g>
<!-- Node9&#45;&gt;Node3 -->
<g id="edge10" class="edge">
<title>Node9&#45;&gt;Node3</title>
<path fill="none" stroke="midnightblue" d="M259.22,-123.4C252.89,-114.84 244.77,-103.87 238.11,-94.86"/>
<polygon fill="midnightblue" stroke="midnightblue" points="240.81,-92.62 232.05,-86.66 235.18,-96.78 240.81,-92.62"/>
</g>
<!-- Node9&#45;&gt;Node6 -->
<g id="edge13" class="edge">
<title>Node9&#45;&gt;Node6</title>
<path fill="none" stroke="midnightblue" d="M235.22,-123.41C214.38,-114.25 187.66,-101.37 165.64,-87 140.56,-70.64 114.75,-47.53 98.7,-32.3"/>
<polygon fill="midnightblue" stroke="midnightblue" points="100.89,-29.54 91.26,-25.12 96.03,-34.58 100.89,-29.54"/>
</g>
<!-- Node9&#45;&gt;Node8 -->
<g id="edge12" class="edge">
<title>Node9&#45;&gt;Node8</title>
<path fill="none" stroke="midnightblue" d="M227.22,-123.4C196.43,-113.16 155.23,-99.47 126.17,-89.81"/>
<polygon fill="midnightblue" stroke="midnightblue" points="127.02,-86.4 116.43,-86.57 124.81,-93.05 127.02,-86.4"/>
</g>
<!-- Node10 -->
<g id="node10" class="node">
<title>Node10</title>
<g id="a_node10"><a xlink:title=" ">
<polygon fill="none" stroke="#bfbfbf" points="360.64,-67.5 360.64,-86.5 520.64,-86.5 520.64,-67.5 360.64,-67.5"/>
<text text-anchor="middle" x="440.64" y="-74.5" font-family="Helvetica,sans-Serif" font-size="10.00">boost/mpi/communicator.hpp</text>
</a>
</g>
</g>
<!-- Node9&#45;&gt;Node10 -->
<g id="edge11" class="edge">
<title>Node9&#45;&gt;Node10</title>
<path fill="none" stroke="midnightblue" d="M310.17,-123.4C339.37,-113.24 378.36,-99.67 406.09,-90.02"/>
<polygon fill="midnightblue" stroke="midnightblue" points="407.47,-93.25 415.76,-86.66 405.17,-86.64 407.47,-93.25"/>
</g>
<!-- Node11 -->
<g id="node11" class="node">
<title>Node11</title>
<g id="a_node11"><a xlink:title=" ">
<polygon fill="none" stroke="#bfbfbf" points="295.14,-67.5 295.14,-86.5 342.14,-86.5 342.14,-67.5 295.14,-67.5"/>
<text text-anchor="middle" x="318.64" y="-74.5" font-family="Helvetica,sans-Serif" font-size="10.00">vector</text>
</a>
</g>
</g>
<!-- Node9&#45;&gt;Node11 -->
<g id="edge14" class="edge">
<title>Node9&#45;&gt;Node11</title>
<path fill="none" stroke="midnightblue" d="M281.26,-123.4C288.38,-114.75 297.53,-103.64 304.99,-94.58"/>
<polygon fill="midnightblue" stroke="midnightblue" points="307.86,-96.6 311.51,-86.66 302.45,-92.15 307.86,-96.6"/>
</g>
</g>
</svg>
