<?xml version="1.0" encoding="UTF-8" standalone="no"?>
<!DOCTYPE svg PUBLIC "-//W3C//DTD SVG 1.1//EN"
 "http://www.w3.org/Graphics/SVG/1.1/DTD/svg11.dtd">
<!-- Generated by graphviz version 2.43.0 (0)
 -->
<!-- Title: VTKHandle.hpp Pages: 1 -->
<svg width="1117pt" height="357pt"
 viewBox="0.00 0.00 1117.47 357.00" xmlns="http://www.w3.org/2000/svg" xmlns:xlink="http://www.w3.org/1999/xlink">
<g id="graph0" class="graph" transform="scale(1 1) rotate(0) translate(4 353)">
<title>VTKHandle.hpp</title>
<!-- Node1 -->
<g id="Node000001" class="node">
<title>Node1</title>
<g id="a_Node000001"><a xlink:title=" ">
<polygon fill="#999999" stroke="#666666" points="545.97,-349 453.97,-349 453.97,-330 545.97,-330 545.97,-349"/>
<text text-anchor="middle" x="499.97" y="-337" font-family="Helvetica,sans-Serif" font-size="10.00">VTKHandle.hpp</text>
</a>
</g>
</g>
<!-- Node2 -->
<g id="Node000002" class="node">
<title>Node2</title>
<g id="a_Node000002"><a xlink:href="EKSpecies_8hpp.html" target="_top" xlink:title=" ">
<polygon fill="white" stroke="#666666" points="401.97,-294 313.97,-294 313.97,-275 401.97,-275 401.97,-294"/>
<text text-anchor="middle" x="357.97" y="-282" font-family="Helvetica,sans-Serif" font-size="10.00">EKSpecies.hpp</text>
</a>
</g>
</g>
<!-- Node1&#45;&gt;Node2 -->
<g id="edge1_Node000001_Node000002" class="edge">
<title>Node1&#45;&gt;Node2</title>
<g id="a_edge1_Node000001_Node000002"><a xlink:title=" ">
<path fill="none" stroke="#63b8ff" d="M467.61,-326.42C441.26,-316.59 404.72,-302.95 381.2,-294.17"/>
<polygon fill="#63b8ff" stroke="#63b8ff" points="466.57,-329.77 477.16,-329.98 469.01,-323.21 466.57,-329.77"/>
</a>
</g>
</g>
<!-- Node13 -->
<g id="Node000013" class="node">
<title>Node13</title>
<g id="a_Node000013"><a xlink:href="LBFluid_8hpp.html" target="_top" xlink:title=" ">
<polygon fill="white" stroke="#666666" points="734.97,-129 660.97,-129 660.97,-110 734.97,-110 734.97,-129"/>
<text text-anchor="middle" x="697.97" y="-117" font-family="Helvetica,sans-Serif" font-size="10.00">LBFluid.hpp</text>
</a>
</g>
</g>
<!-- Node1&#45;&gt;Node13 -->
<g id="edge19_Node000001_Node000013" class="edge">
<title>Node1&#45;&gt;Node13</title>
<g id="a_edge19_Node000001_Node000013"><a xlink:title=" ">
<path fill="none" stroke="#63b8ff" d="M515.51,-322.69C534.51,-303.25 567.55,-269.1 594.97,-239 631.69,-198.7 673.9,-149.04 690.61,-129.25"/>
<polygon fill="#63b8ff" stroke="#63b8ff" points="513,-320.25 508.5,-329.85 518,-325.15 513,-320.25"/>
</a>
</g>
</g>
<!-- Node3 -->
<g id="Node000003" class="node">
<title>Node3</title>
<g id="a_Node000003"><a xlink:href="script__interface_2walberla_2EKContainer_8hpp.html" target="_top" xlink:title=" ">
<polygon fill="white" stroke="#666666" points="439.97,-74 343.97,-74 343.97,-55 439.97,-55 439.97,-74"/>
<text text-anchor="middle" x="391.97" y="-62" font-family="Helvetica,sans-Serif" font-size="10.00">EKContainer.hpp</text>
</a>
</g>
</g>
<!-- Node2&#45;&gt;Node3 -->
<g id="edge2_Node000002_Node000003" class="edge">
<title>Node2&#45;&gt;Node3</title>
<g id="a_edge2_Node000002_Node000003"><a xlink:title=" ">
<path fill="none" stroke="#63b8ff" d="M357.16,-264.4C356.27,-232.04 356.57,-164.63 370.97,-110 374.46,-96.78 381.79,-82.7 386.8,-74"/>
<polygon fill="#63b8ff" stroke="#63b8ff" points="353.67,-264.78 357.51,-274.65 360.66,-264.53 353.67,-264.78"/>
</a>
</g>
</g>
<!-- Node4 -->
<g id="Node000004" class="node">
<title>Node4</title>
<g id="a_Node000004"><a xlink:href="walberla_2initialize_8cpp.html" target="_top" xlink:title=" ">
<polygon fill="white" stroke="#666666" points="526.47,-19 447.47,-19 447.47,0 526.47,0 526.47,-19"/>
<text text-anchor="middle" x="486.97" y="-7" font-family="Helvetica,sans-Serif" font-size="10.00">initialize.cpp</text>
</a>
</g>
</g>
<!-- Node2&#45;&gt;Node4 -->
<g id="edge18_Node000002_Node000004" class="edge">
<title>Node2&#45;&gt;Node4</title>
<g id="a_edge18_Node000002_Node000004"><a xlink:title=" ">
<path fill="none" stroke="#63b8ff" d="M303.78,-278.1C243.35,-268.73 153.97,-243.4 153.97,-175.5 153.97,-175.5 153.97,-175.5 153.97,-118.5 153.97,-57.42 359.26,-25.68 447.47,-14.86"/>
<polygon fill="#63b8ff" stroke="#63b8ff" points="303.56,-281.6 313.96,-279.57 304.56,-274.67 303.56,-281.6"/>
</a>
</g>
</g>
<!-- Node5 -->
<g id="Node000005" class="node">
<title>Node5</title>
<g id="a_Node000005"><a xlink:href="script__interface_2walberla_2EKReactant_8hpp.html" target="_top" xlink:title=" ">
<polygon fill="white" stroke="#666666" points="585.97,-239 491.97,-239 491.97,-220 585.97,-220 585.97,-239"/>
<text text-anchor="middle" x="538.97" y="-227" font-family="Helvetica,sans-Serif" font-size="10.00">EKReactant.hpp</text>
</a>
</g>
</g>
<!-- Node2&#45;&gt;Node5 -->
<g id="edge4_Node000002_Node000005" class="edge">
<title>Node2&#45;&gt;Node5</title>
<g id="a_edge4_Node000002_Node000005"><a xlink:title=" ">
<path fill="none" stroke="#63b8ff" d="M397.06,-272.06C430.88,-262.15 479.06,-248.04 509.66,-239.08"/>
<polygon fill="#63b8ff" stroke="#63b8ff" points="395.67,-268.82 387.05,-274.98 397.63,-275.53 395.67,-268.82"/>
</a>
</g>
</g>
<!-- Node8 -->
<g id="Node000008" class="node">
<title>Node8</title>
<g id="a_Node000008"><a xlink:href="EKSpecies_8cpp.html" target="_top" xlink:title=" ">
<polygon fill="white" stroke="#666666" points="473.47,-239 386.47,-239 386.47,-220 473.47,-220 473.47,-239"/>
<text text-anchor="middle" x="429.97" y="-227" font-family="Helvetica,sans-Serif" font-size="10.00">EKSpecies.cpp</text>
</a>
</g>
</g>
<!-- Node2&#45;&gt;Node8 -->
<g id="edge11_Node000002_Node000008" class="edge">
<title>Node2&#45;&gt;Node8</title>
<g id="a_edge11_Node000002_Node000008"><a xlink:title=" ">
<path fill="none" stroke="#63b8ff" d="M377.84,-268.88C390.8,-259.34 407.27,-247.21 418.19,-239.17"/>
<polygon fill="#63b8ff" stroke="#63b8ff" points="375.52,-266.24 369.54,-274.98 379.67,-271.88 375.52,-266.24"/>
</a>
</g>
</g>
<!-- Node9 -->
<g id="Node000009" class="node">
<title>Node9</title>
<g id="a_Node000009"><a xlink:href="EKSpeciesNode_8hpp.html" target="_top" xlink:title=" ">
<polygon fill="white" stroke="#666666" points="125.47,-239 12.47,-239 12.47,-220 125.47,-220 125.47,-239"/>
<text text-anchor="middle" x="68.97" y="-227" font-family="Helvetica,sans-Serif" font-size="10.00">EKSpeciesNode.hpp</text>
</a>
</g>
</g>
<!-- Node2&#45;&gt;Node9 -->
<g id="edge12_Node000002_Node000009" class="edge">
<title>Node2&#45;&gt;Node9</title>
<g id="a_edge12_Node000002_Node000009"><a xlink:title=" ">
<path fill="none" stroke="#63b8ff" d="M303.65,-273.54C249.4,-263.59 166.92,-248.46 115.57,-239.05"/>
<polygon fill="#63b8ff" stroke="#63b8ff" points="303.3,-277.03 313.77,-275.39 304.56,-270.15 303.3,-277.03"/>
</a>
</g>
</g>
<!-- Node11 -->
<g id="Node000011" class="node">
<title>Node11</title>
<g id="a_Node000011"><a xlink:href="EKSpeciesSlice_8hpp.html" target="_top" xlink:title=" ">
<polygon fill="white" stroke="#666666" points="329.47,-239 218.47,-239 218.47,-220 329.47,-220 329.47,-239"/>
<text text-anchor="middle" x="273.97" y="-227" font-family="Helvetica,sans-Serif" font-size="10.00">EKSpeciesSlice.hpp</text>
</a>
</g>
</g>
<!-- Node2&#45;&gt;Node11 -->
<g id="edge15_Node000002_Node000011" class="edge">
<title>Node2&#45;&gt;Node11</title>
<g id="a_edge15_Node000002_Node000011"><a xlink:title=" ">
<path fill="none" stroke="#63b8ff" d="M335.66,-269.42C320.42,-259.81 300.7,-247.37 287.71,-239.17"/>
<polygon fill="#63b8ff" stroke="#63b8ff" points="334.15,-272.61 344.48,-274.98 337.89,-266.69 334.15,-272.61"/>
</a>
</g>
</g>
<!-- Node3&#45;&gt;Node4 -->
<g id="edge3_Node000003_Node000004" class="edge">
<title>Node3&#45;&gt;Node4</title>
<g id="a_edge3_Node000003_Node000004"><a xlink:title=" ">
<path fill="none" stroke="#63b8ff" d="M416.23,-49.97C433.6,-40.28 456.46,-27.52 471.43,-19.17"/>
<polygon fill="#63b8ff" stroke="#63b8ff" points="414.26,-47.06 407.24,-54.98 417.67,-53.17 414.26,-47.06"/>
</a>
</g>
</g>
<!-- Node5&#45;&gt;Node4 -->
<g id="edge10_Node000005_Node000004" class="edge">
<title>Node5&#45;&gt;Node4</title>
<g id="a_edge10_Node000005_Node000004"><a xlink:title=" ">
<path fill="none" stroke="#63b8ff" d="M536.72,-209.45C532.59,-177.17 522.69,-109.86 505.97,-55 502.06,-42.14 495.61,-27.97 491.33,-19.16"/>
<polygon fill="#63b8ff" stroke="#63b8ff" points="533.28,-210.18 537.98,-219.67 540.23,-209.32 533.28,-210.18"/>
</a>
</g>
</g>
<!-- Node6 -->
<g id="Node000006" class="node">
<title>Node6</title>
<g id="a_Node000006"><a xlink:href="EKReaction_8hpp.html" target="_top" xlink:title=" ">
<polygon fill="white" stroke="#666666" points="515.47,-184 422.47,-184 422.47,-165 515.47,-165 515.47,-184"/>
<text text-anchor="middle" x="468.97" y="-172" font-family="Helvetica,sans-Serif" font-size="10.00">EKReaction.hpp</text>
</a>
</g>
</g>
<!-- Node5&#45;&gt;Node6 -->
<g id="edge5_Node000005_Node000006" class="edge">
<title>Node5&#45;&gt;Node6</title>
<g id="a_edge5_Node000005_Node000006"><a xlink:title=" ">
<path fill="none" stroke="#63b8ff" d="M519.66,-213.88C507.06,-204.34 491.04,-192.21 480.42,-184.17"/>
<polygon fill="#63b8ff" stroke="#63b8ff" points="517.64,-216.74 527.73,-219.98 521.87,-211.16 517.64,-216.74"/>
</a>
</g>
</g>
<!-- Node6&#45;&gt;Node4 -->
<g id="edge9_Node000006_Node000004" class="edge">
<title>Node6&#45;&gt;Node4</title>
<g id="a_edge9_Node000006_Node000004"><a xlink:title=" ">
<path fill="none" stroke="#63b8ff" d="M477.91,-155.9C481.49,-147.91 485.18,-138.2 486.97,-129 494.83,-88.61 490.41,-39 488.1,-19.23"/>
<polygon fill="#63b8ff" stroke="#63b8ff" points="474.75,-154.41 473.59,-164.94 481.06,-157.43 474.75,-154.41"/>
</a>
</g>
</g>
<!-- Node7 -->
<g id="Node000007" class="node">
<title>Node7</title>
<g id="a_Node000007"><a xlink:href="script__interface_2walberla_2EKReactions_8hpp.html" target="_top" xlink:title=" ">
<polygon fill="white" stroke="#666666" points="477.97,-129 379.97,-129 379.97,-110 477.97,-110 477.97,-129"/>
<text text-anchor="middle" x="428.97" y="-117" font-family="Helvetica,sans-Serif" font-size="10.00">EKReactions.hpp</text>
</a>
</g>
</g>
<!-- Node6&#45;&gt;Node7 -->
<g id="edge6_Node000006_Node000007" class="edge">
<title>Node6&#45;&gt;Node7</title>
<g id="a_edge6_Node000006_Node000007"><a xlink:title=" ">
<path fill="none" stroke="#63b8ff" d="M456.27,-156.67C449.35,-147.5 441.07,-136.52 435.46,-129.09"/>
<polygon fill="#63b8ff" stroke="#63b8ff" points="453.55,-158.87 462.37,-164.75 459.14,-154.66 453.55,-158.87"/>
</a>
</g>
</g>
<!-- Node7&#45;&gt;Node3 -->
<g id="edge7_Node000007_Node000003" class="edge">
<title>Node7&#45;&gt;Node3</title>
<g id="a_edge7_Node000007_Node000003"><a xlink:title=" ">
<path fill="none" stroke="#63b8ff" d="M417.03,-101.39C410.66,-92.27 403.11,-81.45 397.97,-74.09"/>
<polygon fill="#63b8ff" stroke="#63b8ff" points="414.27,-103.55 422.86,-109.75 420.01,-99.55 414.27,-103.55"/>
</a>
</g>
</g>
<!-- Node7&#45;&gt;Node4 -->
<g id="edge8_Node000007_Node000004" class="edge">
<title>Node7&#45;&gt;Node4</title>
<g id="a_edge8_Node000007_Node000004"><a xlink:title=" ">
<path fill="none" stroke="#63b8ff" d="M438.5,-100.76C451.11,-77.28 472.84,-36.81 482.32,-19.16"/>
<polygon fill="#63b8ff" stroke="#63b8ff" points="435.37,-99.2 433.72,-109.66 441.53,-102.51 435.37,-99.2"/>
</a>
</g>
</g>
<!-- Node9&#45;&gt;Node4 -->
<g id="edge14_Node000009_Node000004" class="edge">
<title>Node9&#45;&gt;Node4</title>
<g id="a_edge14_Node000009_Node000004"><a xlink:title=" ">
<path fill="none" stroke="#63b8ff" d="M38.16,-215.43C16.41,-204.1 -7.19,-186.2 2.97,-165 36.74,-94.59 68.11,-85.55 139.97,-55 194.68,-31.74 368.61,-18.03 447.45,-12.87"/>
<polygon fill="#63b8ff" stroke="#63b8ff" points="36.74,-218.63 47.26,-219.88 39.81,-212.34 36.74,-218.63"/>
</a>
</g>
</g>
<!-- Node10 -->
<g id="Node000010" class="node">
<title>Node10</title>
<g id="a_Node000010"><a xlink:href="EKSpeciesNode_8cpp.html" target="_top" xlink:title=" ">
<polygon fill="white" stroke="#666666" points="125.47,-184 12.47,-184 12.47,-165 125.47,-165 125.47,-184"/>
<text text-anchor="middle" x="68.97" y="-172" font-family="Helvetica,sans-Serif" font-size="10.00">EKSpeciesNode.cpp</text>
</a>
</g>
</g>
<!-- Node9&#45;&gt;Node10 -->
<g id="edge13_Node000009_Node000010" class="edge">
<title>Node9&#45;&gt;Node10</title>
<g id="a_edge13_Node000009_Node000010"><a xlink:title=" ">
<path fill="none" stroke="#63b8ff" d="M68.97,-209.66C68.97,-200.93 68.97,-190.99 68.97,-184.09"/>
<polygon fill="#63b8ff" stroke="#63b8ff" points="65.47,-209.75 68.97,-219.75 72.47,-209.75 65.47,-209.75"/>
</a>
</g>
</g>
<!-- Node11&#45;&gt;Node4 -->
<g id="edge17_Node000011_Node000004" class="edge">
<title>Node11&#45;&gt;Node4</title>
<g id="a_edge17_Node000011_Node000004"><a xlink:title=" ">
<path fill="none" stroke="#63b8ff" d="M244.8,-215.34C224.1,-203.93 201.54,-185.97 210.97,-165 253.2,-71.09 381.63,-31.87 447.33,-17.6"/>
<polygon fill="#63b8ff" stroke="#63b8ff" points="243.26,-218.49 253.75,-219.97 246.48,-212.27 243.26,-218.49"/>
</a>
</g>
</g>
<!-- Node12 -->
<g id="Node000012" class="node">
<title>Node12</title>
<g id="a_Node000012"><a xlink:href="EKSpeciesSlice_8cpp.html" target="_top" xlink:title=" ">
<polygon fill="white" stroke="#666666" points="329.97,-184 219.97,-184 219.97,-165 329.97,-165 329.97,-184"/>
<text text-anchor="middle" x="274.97" y="-172" font-family="Helvetica,sans-Serif" font-size="10.00">EKSpeciesSlice.cpp</text>
</a>
</g>
</g>
<!-- Node11&#45;&gt;Node12 -->
<g id="edge16_Node000011_Node000012" class="edge">
<title>Node11&#45;&gt;Node12</title>
<g id="a_edge16_Node000011_Node000012"><a xlink:title=" ">
<path fill="none" stroke="#63b8ff" d="M274.33,-209.66C274.49,-200.93 274.68,-190.99 274.81,-184.09"/>
<polygon fill="#63b8ff" stroke="#63b8ff" points="270.83,-209.68 274.14,-219.75 277.83,-209.82 270.83,-209.68"/>
</a>
</g>
</g>
<!-- Node13&#45;&gt;Node4 -->
<g id="edge27_Node000013_Node000004" class="edge">
<title>Node13&#45;&gt;Node4</title>
<g id="a_edge27_Node000013_Node000004"><a xlink:title=" ">
<path fill="none" stroke="#63b8ff" d="M668.84,-105.85C649.43,-97.24 623.45,-85.39 600.97,-74 564.6,-55.56 523.02,-31.66 501.53,-19.09"/>
<polygon fill="#63b8ff" stroke="#63b8ff" points="667.5,-109.08 678.06,-109.91 670.32,-102.68 667.5,-109.08"/>
</a>
</g>
</g>
<!-- Node14 -->
<g id="Node000014" class="node">
<title>Node14</title>
<g id="a_Node000014"><a xlink:href="LBFluid_8cpp.html" target="_top" xlink:title=" ">
<polygon fill="white" stroke="#666666" points="683.47,-74 610.47,-74 610.47,-55 683.47,-55 683.47,-74"/>
<text text-anchor="middle" x="646.97" y="-62" font-family="Helvetica,sans-Serif" font-size="10.00">LBFluid.cpp</text>
</a>
</g>
</g>
<!-- Node13&#45;&gt;Node14 -->
<g id="edge20_Node000013_Node000014" class="edge">
<title>Node13&#45;&gt;Node14</title>
<g id="a_edge20_Node000013_Node000014"><a xlink:title=" ">
<path fill="none" stroke="#63b8ff" d="M682.6,-102.52C673.61,-93.18 662.61,-81.75 655.24,-74.09"/>
<polygon fill="#63b8ff" stroke="#63b8ff" points="680.1,-104.97 689.55,-109.75 685.14,-100.12 680.1,-104.97"/>
</a>
</g>
</g>
<!-- Node15 -->
<g id="Node000015" class="node">
<title>Node15</title>
<g id="a_Node000015"><a xlink:href="LBFluidNode_8hpp.html" target="_top" xlink:title=" ">
<polygon fill="white" stroke="#666666" points="915.47,-74 816.47,-74 816.47,-55 915.47,-55 915.47,-74"/>
<text text-anchor="middle" x="865.97" y="-62" font-family="Helvetica,sans-Serif" font-size="10.00">LBFluidNode.hpp</text>
</a>
</g>
</g>
<!-- Node13&#45;&gt;Node15 -->
<g id="edge21_Node000013_Node000015" class="edge">
<title>Node13&#45;&gt;Node15</title>
<g id="a_edge21_Node000013_Node000015"><a xlink:title=" ">
<path fill="none" stroke="#63b8ff" d="M734.66,-106.93C766.03,-97.03 810.48,-83.01 838.77,-74.08"/>
<polygon fill="#63b8ff" stroke="#63b8ff" points="733.45,-103.64 724.97,-109.98 735.55,-110.31 733.45,-103.64"/>
</a>
</g>
</g>
<!-- Node17 -->
<g id="Node000017" class="node">
<title>Node17</title>
<g id="a_Node000017"><a xlink:href="LBFluidSlice_8hpp.html" target="_top" xlink:title=" ">
<polygon fill="white" stroke="#666666" points="798.47,-74 701.47,-74 701.47,-55 798.47,-55 798.47,-74"/>
<text text-anchor="middle" x="749.97" y="-62" font-family="Helvetica,sans-Serif" font-size="10.00">LBFluidSlice.hpp</text>
</a>
</g>
</g>
<!-- Node13&#45;&gt;Node17 -->
<g id="edge24_Node000013_Node000017" class="edge">
<title>Node13&#45;&gt;Node17</title>
<g id="a_edge24_Node000013_Node000017"><a xlink:title=" ">
<path fill="none" stroke="#63b8ff" d="M713.65,-102.52C722.82,-93.18 734.03,-81.75 741.55,-74.09"/>
<polygon fill="#63b8ff" stroke="#63b8ff" points="711.06,-100.16 706.56,-109.75 716.06,-105.06 711.06,-100.16"/>
</a>
</g>
</g>
<!-- Node19 -->
<g id="Node000019" class="node">
<title>Node19</title>
<g id="a_Node000019"><a xlink:href="script__interface_2thermostat_2thermostat_8hpp.html" target="_top" xlink:title=" ">
<polygon fill="white" stroke="#666666" points="1025.97,-74 933.97,-74 933.97,-55 1025.97,-55 1025.97,-74"/>
<text text-anchor="middle" x="979.97" y="-62" font-family="Helvetica,sans-Serif" font-size="10.00">thermostat.hpp</text>
</a>
</g>
</g>
<!-- Node13&#45;&gt;Node19 -->
<g id="edge28_Node000013_Node000019" class="edge">
<title>Node13&#45;&gt;Node19</title>
<g id="a_edge28_Node000013_Node000019"><a xlink:title=" ">
<path fill="none" stroke="#63b8ff" d="M745.21,-109.62C797.84,-99.73 882.34,-83.85 934.32,-74.08"/>
<polygon fill="#63b8ff" stroke="#63b8ff" points="744.31,-106.23 735.13,-111.52 745.6,-113.11 744.31,-106.23"/>
</a>
</g>
</g>
<!-- Node15&#45;&gt;Node4 -->
<g id="edge23_Node000015_Node000004" class="edge">
<title>Node15&#45;&gt;Node4</title>
<g id="a_edge23_Node000015_Node000004"><a xlink:title=" ">
<path fill="none" stroke="#63b8ff" d="M806.36,-54.92C698.89,-39.72 585.3,-24.03 526.64,-15.95"/>
<polygon fill="#63b8ff" stroke="#63b8ff" points="806.01,-58.4 816.4,-56.34 806.99,-51.47 806.01,-58.4"/>
</a>
</g>
</g>
<!-- Node16 -->
<g id="Node000016" class="node">
<title>Node16</title>
<g id="a_Node000016"><a xlink:href="LBFluidNode_8cpp.html" target="_top" xlink:title=" ">
<polygon fill="white" stroke="#666666" points="914.97,-19 816.97,-19 816.97,0 914.97,0 914.97,-19"/>
<text text-anchor="middle" x="865.97" y="-7" font-family="Helvetica,sans-Serif" font-size="10.00">LBFluidNode.cpp</text>
</a>
</g>
</g>
<!-- Node15&#45;&gt;Node16 -->
<g id="edge22_Node000015_Node000016" class="edge">
<title>Node15&#45;&gt;Node16</title>
<g id="a_edge22_Node000015_Node000016"><a xlink:title=" ">
<path fill="none" stroke="#63b8ff" d="M865.97,-44.66C865.97,-35.93 865.97,-25.99 865.97,-19.09"/>
<polygon fill="#63b8ff" stroke="#63b8ff" points="862.47,-44.75 865.97,-54.75 869.47,-44.75 862.47,-44.75"/>
</a>
</g>
</g>
<!-- Node17&#45;&gt;Node4 -->
<g id="edge26_Node000017_Node000004" class="edge">
<title>Node17&#45;&gt;Node4</title>
<g id="a_edge26_Node000017_Node000004"><a xlink:title=" ">
<path fill="none" stroke="#63b8ff" d="M697.67,-52.96C647.28,-42.8 572.15,-27.66 526.54,-18.47"/>
<polygon fill="#63b8ff" stroke="#63b8ff" points="697.22,-56.44 707.72,-54.98 698.61,-49.58 697.22,-56.44"/>
</a>
</g>
</g>
<!-- Node18 -->
<g id="Node000018" class="node">
<title>Node18</title>
<g id="a_Node000018"><a xlink:href="LBFluidSlice_8cpp.html" target="_top" xlink:title=" ">
<polygon fill="white" stroke="#666666" points="797.97,-19 701.97,-19 701.97,0 797.97,0 797.97,-19"/>
<text text-anchor="middle" x="749.97" y="-7" font-family="Helvetica,sans-Serif" font-size="10.00">LBFluidSlice.cpp</text>
</a>
</g>
</g>
<!-- Node17&#45;&gt;Node18 -->
<g id="edge25_Node000017_Node000018" class="edge">
<title>Node17&#45;&gt;Node18</title>
<g id="a_edge25_Node000017_Node000018"><a xlink:title=" ">
<path fill="none" stroke="#63b8ff" d="M749.97,-44.66C749.97,-35.93 749.97,-25.99 749.97,-19.09"/>
<polygon fill="#63b8ff" stroke="#63b8ff" points="746.47,-44.75 749.97,-54.75 753.47,-44.75 746.47,-44.75"/>
</a>
</g>
</g>
<!-- Node20 -->
<g id="Node000020" class="node">
<title>Node20</title>
<g id="a_Node000020"><a xlink:href="script__interface_2system_2System_8cpp.html" target="_top" xlink:title=" ">
<polygon fill="white" stroke="#666666" points="1011.97,-19 937.97,-19 937.97,0 1011.97,0 1011.97,-19"/>
<text text-anchor="middle" x="974.97" y="-7" font-family="Helvetica,sans-Serif" font-size="10.00">System.cpp</text>
</a>
</g>
</g>
<!-- Node19&#45;&gt;Node20 -->
<g id="edge29_Node000019_Node000020" class="edge">
<title>Node19&#45;&gt;Node20</title>
<g id="a_edge29_Node000019_Node000020"><a xlink:title=" ">
<path fill="none" stroke="#63b8ff" d="M978.2,-44.66C977.37,-35.93 976.43,-25.99 975.78,-19.09"/>
<polygon fill="#63b8ff" stroke="#63b8ff" points="974.72,-45.12 979.15,-54.75 981.69,-44.46 974.72,-45.12"/>
</a>
</g>
</g>
<!-- Node21 -->
<g id="Node000021" class="node">
<title>Node21</title>
<g id="a_Node000021"><a xlink:href="thermostat_2initialize_8cpp.html" target="_top" xlink:title=" ">
<polygon fill="white" stroke="#666666" points="1109.47,-19 1030.47,-19 1030.47,0 1109.47,0 1109.47,-19"/>
<text text-anchor="middle" x="1069.97" y="-7" font-family="Helvetica,sans-Serif" font-size="10.00">initialize.cpp</text>
</a>
</g>
</g>
<!-- Node19&#45;&gt;Node21 -->
<g id="edge30_Node000019_Node000021" class="edge">
<title>Node19&#45;&gt;Node21</title>
<g id="a_edge30_Node000019_Node000021"><a xlink:title=" ">
<path fill="none" stroke="#63b8ff" d="M1003.41,-49.7C1019.81,-40.04 1041.2,-27.44 1055.25,-19.17"/>
<polygon fill="#63b8ff" stroke="#63b8ff" points="1001.27,-46.89 994.43,-54.98 1004.83,-52.93 1001.27,-46.89"/>
</a>
</g>
</g>
</g>
</svg>
