<?xml version="1.0" encoding="UTF-8" standalone="no"?>
<!DOCTYPE svg PUBLIC "-//W3C//DTD SVG 1.1//EN"
 "http://www.w3.org/Graphics/SVG/1.1/DTD/svg11.dtd">
<!-- Generated by graphviz version 2.43.0 (0)
 -->
<!-- Title: send_mesh.hpp Pages: 1 -->
<!--zoomable 397 -->
<svg id="main" version="1.1" xmlns="http://www.w3.org/2000/svg" xmlns:xlink="http://www.w3.org/1999/xlink" xml:space="preserve" onload="init(evt)">
<style type="text/css"><![CDATA[
.edge:hover path { stroke: red; }
.edge:hover polygon { stroke: red; fill: red; }
]]></style>
<script type="text/javascript"><![CDATA[
var edges = document.getElementsByTagName('g');
if (edges && edges.length) {
  for (var i=0;i<edges.length;i++) {
    if (edges[i].id.substr(0,4)=='edge') {
      edges[i].setAttribute('class','edge');
    }
  }
}
]]></script>
        <defs>
                <circle id="rim" cx="0" cy="0" r="7"/>
                <circle id="rim2" cx="0" cy="0" r="3.5"/>
                <g id="zoomPlus">
                        <use xlink:href="#rim" fill="#404040">
                                <set attributeName="fill" to="#808080" begin="zoomplus.mouseover" end="zoomplus.mouseout"/>
                        </use>
                        <path d="M-4,0h8M0,-4v8" fill="none" stroke="white" stroke-width="1.5" pointer-events="none"/>
                </g>
                <g id="zoomMin">
                        <use xlink:href="#rim" fill="#404040">
                                <set attributeName="fill" to="#808080" begin="zoomminus.mouseover" end="zoomminus.mouseout"/>
                        </use>
                        <path d="M-4,0h8" fill="none" stroke="white" stroke-width="1.5" pointer-events="none"/>
                </g>
                <g id="dirArrow">
                        <path fill="none" stroke="white" stroke-width="1.5" d="M0,-3.0v7 M-2.5,-0.5L0,-3.0L2.5,-0.5"/>
                </g>
               <g id="resetDef">
                       <use xlink:href="#rim2" fill="#404040">
                               <set attributeName="fill" to="#808080" begin="reset.mouseover" end="reset.mouseout"/>
                       </use>
               </g>
        </defs>

<script type="text/javascript">
var viewWidth = 1472;
var viewHeight = 397;
var sectionId = 'dynsection-0';
</script>
<script xlink:href="svgpan.js"/>
<svg id="graph" class="graph">
<g id="viewport">
<title>send_mesh.hpp</title>
<!-- Node1 -->
<g id="node1" class="node">
<title>Node1</title>
<g id="a_node1"><a xlink:title=" ">
<polygon fill="#bfbfbf" stroke="black" points="952.5,-369.5 952.5,-388.5 1045.5,-388.5 1045.5,-369.5 952.5,-369.5"/>
<text text-anchor="middle" x="999" y="-376.5" font-family="Helvetica,sans-Serif" font-size="10.00">send_mesh.hpp</text>
</a>
</g>
</g>
<!-- Node2 -->
<g id="node2" class="node">
<title>Node2</title>
<g id="a_node2"><a xlink:href="config_8hpp.html" target="_top" xlink:title=" ">
<polygon fill="none" stroke="black" points="800,-257.5 800,-276.5 868,-276.5 868,-257.5 800,-257.5"/>
<text text-anchor="middle" x="834" y="-264.5" font-family="Helvetica,sans-Serif" font-size="10.00">config.hpp</text>
</a>
</g>
</g>
<!-- Node1&#45;&gt;Node2 -->
<g id="edge1" class="edge">
<title>Node1&#45;&gt;Node2</title>
<path fill="none" stroke="midnightblue" d="M961.5,-369.43C937.09,-362.51 905.55,-350.93 882,-333 865.32,-320.29 851.75,-300.26 843.35,-285.79"/>
<polygon fill="midnightblue" stroke="midnightblue" points="846.29,-283.87 838.38,-276.82 840.16,-287.27 846.29,-283.87"/>
</g>
<!-- Node4 -->
<g id="node4" class="node">
<title>Node4</title>
<g id="a_node4"><a xlink:href="common_8hpp.html" target="_top" xlink:title=" ">
<polygon fill="none" stroke="black" points="1000.5,-313.5 1000.5,-332.5 1105.5,-332.5 1105.5,-313.5 1000.5,-313.5"/>
<text text-anchor="middle" x="1053" y="-320.5" font-family="Helvetica,sans-Serif" font-size="10.00">p3m/common.hpp</text>
</a>
</g>
</g>
<!-- Node1&#45;&gt;Node4 -->
<g id="edge3" class="edge">
<title>Node1&#45;&gt;Node4</title>
<path fill="none" stroke="midnightblue" d="M1007.92,-369.08C1015.78,-361.22 1027.43,-349.57 1036.92,-340.08"/>
<polygon fill="midnightblue" stroke="midnightblue" points="1039.65,-342.3 1044.25,-332.75 1034.7,-337.35 1039.65,-342.3"/>
</g>
<!-- Node5 -->
<g id="node5" class="node">
<title>Node5</title>
<g id="a_node5"><a xlink:href="Vector_8hpp.html" target="_top" xlink:title="Vector implementation and trait types for boost qvm interoperability.">
<polygon fill="none" stroke="black" points="782.5,-196 782.5,-215 875.5,-215 875.5,-196 782.5,-196"/>
<text text-anchor="middle" x="829" y="-203" font-family="Helvetica,sans-Serif" font-size="10.00">utils/Vector.hpp</text>
</a>
</g>
</g>
<!-- Node1&#45;&gt;Node5 -->
<g id="edge55" class="edge">
<title>Node1&#45;&gt;Node5</title>
<path fill="none" stroke="midnightblue" d="M990.34,-369.26C963.28,-341.96 880.05,-258 844.91,-222.55"/>
<polygon fill="midnightblue" stroke="midnightblue" points="846.97,-219.66 837.44,-215.02 842,-224.59 846.97,-219.66"/>
</g>
<!-- Node33 -->
<g id="node33" class="node">
<title>Node33</title>
<g id="a_node33"><a xlink:title=" ">
<polygon fill="none" stroke="#bfbfbf" points="1168.5,-134.5 1168.5,-153.5 1215.5,-153.5 1215.5,-134.5 1168.5,-134.5"/>
<text text-anchor="middle" x="1192" y="-141.5" font-family="Helvetica,sans-Serif" font-size="10.00">vector</text>
</a>
</g>
</g>
<!-- Node1&#45;&gt;Node33 -->
<g id="edge57" class="edge">
<title>Node1&#45;&gt;Node33</title>
<path fill="none" stroke="midnightblue" d="M1045.66,-374.99C1106.17,-368.3 1209.57,-346.69 1257,-277 1283.69,-237.79 1237.47,-186.02 1210.06,-160.54"/>
<polygon fill="midnightblue" stroke="midnightblue" points="1212.36,-157.89 1202.59,-153.79 1207.67,-163.09 1212.36,-157.89"/>
</g>
<!-- Node37 -->
<g id="node37" class="node">
<title>Node37</title>
<g id="a_node37"><a xlink:href="Span_8hpp.html" target="_top" xlink:title=" ">
<polygon fill="none" stroke="black" points="114,-134.5 114,-153.5 200,-153.5 200,-134.5 114,-134.5"/>
<text text-anchor="middle" x="157" y="-141.5" font-family="Helvetica,sans-Serif" font-size="10.00">utils/Span.hpp</text>
</a>
</g>
</g>
<!-- Node1&#45;&gt;Node37 -->
<g id="edge48" class="edge">
<title>Node1&#45;&gt;Node37</title>
<path fill="none" stroke="midnightblue" d="M968.03,-369.43C838.95,-333.71 343.65,-196.65 197.7,-156.26"/>
<polygon fill="midnightblue" stroke="midnightblue" points="198.37,-152.82 187.8,-153.52 196.51,-159.56 198.37,-152.82"/>
</g>
<!-- Node38 -->
<g id="node38" class="node">
<title>Node38</title>
<g id="a_node38"><a xlink:title=" ">
<polygon fill="none" stroke="#bfbfbf" points="1304,-313.5 1304,-332.5 1464,-332.5 1464,-313.5 1304,-313.5"/>
<text text-anchor="middle" x="1384" y="-320.5" font-family="Helvetica,sans-Serif" font-size="10.00">boost/mpi/communicator.hpp</text>
</a>
</g>
</g>
<!-- Node1&#45;&gt;Node38 -->
<g id="edge56" class="edge">
<title>Node1&#45;&gt;Node38</title>
<path fill="none" stroke="midnightblue" d="M1045.82,-371.43C1112.47,-362.08 1235.22,-344.87 1313.07,-333.95"/>
<polygon fill="midnightblue" stroke="midnightblue" points="1313.85,-337.37 1323.27,-332.52 1312.88,-330.44 1313.85,-337.37"/>
</g>
<!-- Node3 -->
<g id="node3" class="node">
<title>Node3</title>
<g id="a_node3"><a xlink:title=" ">
<polygon fill="none" stroke="#bfbfbf" points="652,-196 652,-215 764,-215 764,-196 652,-196"/>
<text text-anchor="middle" x="708" y="-203" font-family="Helvetica,sans-Serif" font-size="10.00">config&#45;features.hpp</text>
</a>
</g>
</g>
<!-- Node2&#45;&gt;Node3 -->
<g id="edge2" class="edge">
<title>Node2&#45;&gt;Node3</title>
<path fill="none" stroke="midnightblue" d="M815.95,-257.48C794.8,-247.49 759.56,-230.85 735.12,-219.31"/>
<polygon fill="midnightblue" stroke="midnightblue" points="736.56,-216.11 726.02,-215.01 733.57,-222.44 736.56,-216.11"/>
</g>
<!-- Node4&#45;&gt;Node2 -->
<g id="edge4" class="edge">
<title>Node4&#45;&gt;Node2</title>
<path fill="none" stroke="midnightblue" d="M1018.3,-313.44C980.3,-304.07 919.29,-289.03 877.97,-278.84"/>
<polygon fill="midnightblue" stroke="midnightblue" points="878.73,-275.42 868.18,-276.43 877.05,-282.22 878.73,-275.42"/>
</g>
<!-- Node4&#45;&gt;Node5 -->
<g id="edge5" class="edge">
<title>Node4&#45;&gt;Node5</title>
<path fill="none" stroke="midnightblue" d="M1032.43,-313.42C1012.03,-304.75 979.99,-290.71 953,-277 916.98,-258.7 876.5,-235.09 851.88,-220.37"/>
<polygon fill="midnightblue" stroke="midnightblue" points="853.64,-217.35 843.27,-215.2 850.04,-223.35 853.64,-217.35"/>
</g>
<!-- Node12 -->
<g id="node12" class="node">
<title>Node12</title>
<g id="a_node12"><a xlink:title=" ">
<polygon fill="none" stroke="#bfbfbf" points="1161.5,-6 1161.5,-25 1214.5,-25 1214.5,-6 1161.5,-6"/>
<text text-anchor="middle" x="1188" y="-13" font-family="Helvetica,sans-Serif" font-size="10.00">cstddef</text>
</a>
</g>
</g>
<!-- Node4&#45;&gt;Node12 -->
<g id="edge45" class="edge">
<title>Node4&#45;&gt;Node12</title>
<path fill="none" stroke="midnightblue" d="M1075.41,-313.36C1093.4,-305.68 1118.6,-293.16 1137,-277 1187.5,-232.64 1204.46,-218 1225,-154 1238.66,-111.42 1214.54,-60.36 1199.21,-34.07"/>
<polygon fill="midnightblue" stroke="midnightblue" points="1202.05,-32 1193.87,-25.27 1196.07,-35.63 1202.05,-32"/>
</g>
<!-- Node26 -->
<g id="node26" class="node">
<title>Node26</title>
<g id="a_node26"><a xlink:title=" ">
<polygon fill="none" stroke="#bfbfbf" points="1094.5,-73 1094.5,-92 1159.5,-92 1159.5,-73 1094.5,-73"/>
<text text-anchor="middle" x="1127" y="-80" font-family="Helvetica,sans-Serif" font-size="10.00">stdexcept</text>
</a>
</g>
</g>
<!-- Node4&#45;&gt;Node26 -->
<g id="edge46" class="edge">
<title>Node4&#45;&gt;Node26</title>
<path fill="none" stroke="midnightblue" d="M1055.72,-313.23C1066.51,-278.46 1106.41,-149.85 1121.33,-101.78"/>
<polygon fill="midnightblue" stroke="midnightblue" points="1124.71,-102.69 1124.33,-92.1 1118.03,-100.61 1124.71,-102.69"/>
</g>
<!-- Node4&#45;&gt;Node33 -->
<g id="edge47" class="edge">
<title>Node4&#45;&gt;Node33</title>
<path fill="none" stroke="midnightblue" d="M1068.68,-313.41C1082.38,-305.33 1102.19,-292.24 1116,-277 1148.3,-241.37 1173.06,-189.75 1184.7,-162.84"/>
<polygon fill="midnightblue" stroke="midnightblue" points="1187.96,-164.1 1188.62,-153.52 1181.51,-161.38 1187.96,-164.1"/>
</g>
<!-- Node34 -->
<g id="node34" class="node">
<title>Node34</title>
<g id="a_node34"><a xlink:href="LocalBox_8hpp.html" target="_top" xlink:title=" ">
<polygon fill="none" stroke="black" points="962,-257.5 962,-276.5 1044,-276.5 1044,-257.5 962,-257.5"/>
<text text-anchor="middle" x="1003" y="-264.5" font-family="Helvetica,sans-Serif" font-size="10.00">LocalBox.hpp</text>
</a>
</g>
</g>
<!-- Node4&#45;&gt;Node34 -->
<g id="edge40" class="edge">
<title>Node4&#45;&gt;Node34</title>
<path fill="none" stroke="midnightblue" d="M1044.74,-313.08C1037.54,-305.3 1026.89,-293.8 1018.15,-284.37"/>
<polygon fill="midnightblue" stroke="midnightblue" points="1020.47,-281.71 1011.1,-276.75 1015.33,-286.47 1020.47,-281.71"/>
</g>
<!-- Node36 -->
<g id="node36" class="node">
<title>Node36</title>
<g id="a_node36"><a xlink:title=" ">
<polygon fill="none" stroke="#bfbfbf" points="1206,-257.5 1206,-276.5 1248,-276.5 1248,-257.5 1206,-257.5"/>
<text text-anchor="middle" x="1227" y="-264.5" font-family="Helvetica,sans-Serif" font-size="10.00">array</text>
</a>
</g>
</g>
<!-- Node4&#45;&gt;Node36 -->
<g id="edge44" class="edge">
<title>Node4&#45;&gt;Node36</title>
<path fill="none" stroke="midnightblue" d="M1080.57,-313.44C1111.96,-303.7 1163.12,-287.83 1195.9,-277.65"/>
<polygon fill="midnightblue" stroke="midnightblue" points="1197.34,-280.87 1205.85,-274.56 1195.26,-274.18 1197.34,-280.87"/>
</g>
<!-- Node6 -->
<g id="node6" class="node">
<title>Node6</title>
<g id="a_node6"><a xlink:title=" ">
<polygon fill="none" stroke="#bfbfbf" points="542,-134.5 542,-153.5 692,-153.5 692,-134.5 542,-134.5"/>
<text text-anchor="middle" x="617" y="-141.5" font-family="Helvetica,sans-Serif" font-size="10.00">boost/qvm/deduce_vec.hpp</text>
</a>
</g>
</g>
<!-- Node5&#45;&gt;Node6 -->
<g id="edge6" class="edge">
<title>Node5&#45;&gt;Node6</title>
<path fill="none" stroke="midnightblue" d="M798.63,-195.98C761.39,-185.53 698.19,-167.79 657.02,-156.23"/>
<polygon fill="midnightblue" stroke="midnightblue" points="657.89,-152.84 647.32,-153.51 656,-159.58 657.89,-152.84"/>
</g>
<!-- Node7 -->
<g id="node7" class="node">
<title>Node7</title>
<g id="a_node7"><a xlink:title=" ">
<polygon fill="none" stroke="#bfbfbf" points="710,-134.5 710,-153.5 850,-153.5 850,-134.5 710,-134.5"/>
<text text-anchor="middle" x="780" y="-141.5" font-family="Helvetica,sans-Serif" font-size="10.00">boost/qvm/vec_traits.hpp</text>
</a>
</g>
</g>
<!-- Node5&#45;&gt;Node7 -->
<g id="edge7" class="edge">
<title>Node5&#45;&gt;Node7</title>
<path fill="none" stroke="midnightblue" d="M821.98,-195.98C814.56,-186.96 802.67,-172.52 793.43,-161.31"/>
<polygon fill="midnightblue" stroke="midnightblue" points="796.07,-159 787.01,-153.51 790.66,-163.45 796.07,-159"/>
</g>
<!-- Node8 -->
<g id="node8" class="node">
<title>Node8</title>
<g id="a_node8"><a xlink:href="Array_8hpp.html" target="_top" xlink:title="Array implementation with CUDA support.">
<polygon fill="none" stroke="black" points="988,-134.5 988,-153.5 1074,-153.5 1074,-134.5 988,-134.5"/>
<text text-anchor="middle" x="1031" y="-141.5" font-family="Helvetica,sans-Serif" font-size="10.00">utils/Array.hpp</text>
</a>
</g>
</g>
<!-- Node5&#45;&gt;Node8 -->
<g id="edge8" class="edge">
<title>Node5&#45;&gt;Node8</title>
<path fill="none" stroke="midnightblue" d="M857.94,-195.98C893.27,-185.57 953.13,-167.94 992.36,-156.38"/>
<polygon fill="midnightblue" stroke="midnightblue" points="993.51,-159.69 1002.11,-153.51 991.53,-152.98 993.51,-159.69"/>
</g>
<!-- Node10 -->
<g id="node10" class="node">
<title>Node10</title>
<g id="a_node10"><a xlink:title=" ">
<polygon fill="none" stroke="#bfbfbf" points="0,-6 0,-25 52,-25 52,-6 0,-6"/>
<text text-anchor="middle" x="26" y="-13" font-family="Helvetica,sans-Serif" font-size="10.00">cassert</text>
</a>
</g>
</g>
<!-- Node5&#45;&gt;Node10 -->
<g id="edge31" class="edge">
<title>Node5&#45;&gt;Node10</title>
<path fill="none" stroke="midnightblue" d="M800.45,-195.93C791.72,-193.63 782.03,-191.4 773,-190 698.55,-178.5 159.15,-195.06 96,-154 54,-126.69 36.01,-65.89 29.36,-35.12"/>
<polygon fill="midnightblue" stroke="midnightblue" points="32.78,-34.38 27.4,-25.25 25.92,-35.74 32.78,-34.38"/>
</g>
<!-- Node5&#45;&gt;Node12 -->
<g id="edge33" class="edge">
<title>Node5&#45;&gt;Node12</title>
<path fill="none" stroke="midnightblue" d="M875.58,-197.41C938.23,-187.51 1046.04,-169.05 1083,-154 1125.24,-136.8 1142.82,-135.35 1169,-98 1182.07,-79.36 1186.25,-53.01 1187.54,-35.37"/>
<polygon fill="midnightblue" stroke="midnightblue" points="1191.04,-35.36 1188.03,-25.2 1184.05,-35.02 1191.04,-35.36"/>
</g>
<!-- Node24 -->
<g id="node24" class="node">
<title>Node24</title>
<g id="a_node24"><a xlink:title=" ">
<polygon fill="none" stroke="#bfbfbf" points="121.5,-73 121.5,-92 174.5,-92 174.5,-73 121.5,-73"/>
<text text-anchor="middle" x="148" y="-80" font-family="Helvetica,sans-Serif" font-size="10.00">iterator</text>
</a>
</g>
</g>
<!-- Node5&#45;&gt;Node24 -->
<g id="edge36" class="edge">
<title>Node5&#45;&gt;Node24</title>
<path fill="none" stroke="midnightblue" d="M800.45,-195.94C791.72,-193.63 782.03,-191.4 773,-190 699.55,-178.63 156.13,-207.95 105,-154 89.09,-137.21 110.3,-113.59 128.17,-98.41"/>
<polygon fill="midnightblue" stroke="midnightblue" points="130.42,-101.1 136,-92.09 126.02,-95.65 130.42,-101.1"/>
</g>
<!-- Node27 -->
<g id="node27" class="node">
<title>Node27</title>
<g id="a_node27"><a xlink:title=" ">
<polygon fill="none" stroke="#bfbfbf" points="868,-134.5 868,-153.5 932,-153.5 932,-134.5 868,-134.5"/>
<text text-anchor="middle" x="900" y="-141.5" font-family="Helvetica,sans-Serif" font-size="10.00">algorithm</text>
</a>
</g>
</g>
<!-- Node5&#45;&gt;Node27 -->
<g id="edge30" class="edge">
<title>Node5&#45;&gt;Node27</title>
<path fill="none" stroke="midnightblue" d="M839.17,-195.98C850.35,-186.61 868.52,-171.38 882.09,-160.01"/>
<polygon fill="midnightblue" stroke="midnightblue" points="884.43,-162.61 889.85,-153.51 879.93,-157.25 884.43,-162.61"/>
</g>
<!-- Node28 -->
<g id="node28" class="node">
<title>Node28</title>
<g id="a_node28"><a xlink:title=" ">
<polygon fill="none" stroke="#bfbfbf" points="218.5,-134.5 218.5,-153.5 265.5,-153.5 265.5,-134.5 218.5,-134.5"/>
<text text-anchor="middle" x="242" y="-141.5" font-family="Helvetica,sans-Serif" font-size="10.00">cmath</text>
</a>
</g>
</g>
<!-- Node5&#45;&gt;Node28 -->
<g id="edge32" class="edge">
<title>Node5&#45;&gt;Node28</title>
<path fill="none" stroke="midnightblue" d="M800.15,-195.96C791.49,-193.69 781.92,-191.46 773,-190 556.8,-154.51 494.84,-191.19 275.53,-153.94"/>
<polygon fill="midnightblue" stroke="midnightblue" points="276.09,-150.48 265.64,-152.22 274.9,-157.38 276.09,-150.48"/>
</g>
<!-- Node29 -->
<g id="node29" class="node">
<title>Node29</title>
<g id="a_node29"><a xlink:title=" ">
<polygon fill="none" stroke="#bfbfbf" points="283.5,-134.5 283.5,-153.5 348.5,-153.5 348.5,-134.5 283.5,-134.5"/>
<text text-anchor="middle" x="316" y="-141.5" font-family="Helvetica,sans-Serif" font-size="10.00">functional</text>
</a>
</g>
</g>
<!-- Node5&#45;&gt;Node29 -->
<g id="edge34" class="edge">
<title>Node5&#45;&gt;Node29</title>
<path fill="none" stroke="midnightblue" d="M799.85,-195.97C791.26,-193.72 781.81,-191.51 773,-190 593.31,-159.18 542.25,-181.15 358.59,-154.06"/>
<polygon fill="midnightblue" stroke="midnightblue" points="359.01,-150.58 348.6,-152.56 357.97,-157.5 359.01,-150.58"/>
</g>
<!-- Node30 -->
<g id="node30" class="node">
<title>Node30</title>
<g id="a_node30"><a xlink:title=" ">
<polygon fill="none" stroke="#bfbfbf" points="366.5,-134.5 366.5,-153.5 449.5,-153.5 449.5,-134.5 366.5,-134.5"/>
<text text-anchor="middle" x="408" y="-141.5" font-family="Helvetica,sans-Serif" font-size="10.00">initializer_list</text>
</a>
</g>
</g>
<!-- Node5&#45;&gt;Node30 -->
<g id="edge35" class="edge">
<title>Node5&#45;&gt;Node30</title>
<path fill="none" stroke="midnightblue" d="M799.24,-195.97C790.81,-193.78 781.59,-191.6 773,-190 638.13,-164.93 599.79,-173.77 459.96,-154.04"/>
<polygon fill="midnightblue" stroke="midnightblue" points="460.11,-150.53 449.72,-152.57 459.12,-157.46 460.11,-150.53"/>
</g>
<!-- Node31 -->
<g id="node31" class="node">
<title>Node31</title>
<g id="a_node31"><a xlink:title=" ">
<polygon fill="none" stroke="#bfbfbf" points="468,-134.5 468,-153.5 524,-153.5 524,-134.5 468,-134.5"/>
<text text-anchor="middle" x="496" y="-141.5" font-family="Helvetica,sans-Serif" font-size="10.00">numeric</text>
</a>
</g>
</g>
<!-- Node5&#45;&gt;Node31 -->
<g id="edge37" class="edge">
<title>Node5&#45;&gt;Node31</title>
<path fill="none" stroke="midnightblue" d="M798.33,-195.94C790.14,-193.83 781.27,-191.69 773,-190 670.41,-169.08 640.58,-174.42 534.08,-154.06"/>
<polygon fill="midnightblue" stroke="midnightblue" points="534.71,-150.61 524.22,-152.14 533.37,-157.49 534.71,-150.61"/>
</g>
<!-- Node32 -->
<g id="node32" class="node">
<title>Node32</title>
<g id="a_node32"><a xlink:title=" ">
<polygon fill="none" stroke="#bfbfbf" points="192.5,-73 192.5,-92 261.5,-92 261.5,-73 192.5,-73"/>
<text text-anchor="middle" x="227" y="-80" font-family="Helvetica,sans-Serif" font-size="10.00">type_traits</text>
</a>
</g>
</g>
<!-- Node5&#45;&gt;Node32 -->
<g id="edge38" class="edge">
<title>Node5&#45;&gt;Node32</title>
<path fill="none" stroke="midnightblue" d="M866.04,-195.97C908.28,-184.65 968.18,-162.68 941,-134 889.72,-79.89 344.27,-111.79 271,-98 267.02,-97.25 262.91,-96.24 258.87,-95.09"/>
<polygon fill="midnightblue" stroke="midnightblue" points="259.67,-91.68 249.08,-92.04 257.59,-98.36 259.67,-91.68"/>
</g>
<!-- Node5&#45;&gt;Node33 -->
<g id="edge39" class="edge">
<title>Node5&#45;&gt;Node33</title>
<path fill="none" stroke="midnightblue" d="M875.76,-197.28C964.07,-183.65 1147.21,-155.33 1154,-154 1155.46,-153.72 1156.94,-153.41 1158.44,-153.1"/>
<polygon fill="midnightblue" stroke="midnightblue" points="1159.34,-156.48 1168.35,-150.91 1157.83,-149.65 1159.34,-156.48"/>
</g>
<!-- Node9 -->
<g id="node9" class="node">
<title>Node9</title>
<g id="a_node9"><a xlink:href="device__qualifier_8hpp.html" target="_top" xlink:title=" ">
<polygon fill="none" stroke="black" points="280,-73 280,-92 396,-92 396,-73 280,-73"/>
<text text-anchor="middle" x="338" y="-80" font-family="Helvetica,sans-Serif" font-size="10.00">device_qualifier.hpp</text>
</a>
</g>
</g>
<!-- Node8&#45;&gt;Node9 -->
<g id="edge9" class="edge">
<title>Node8&#45;&gt;Node9</title>
<path fill="none" stroke="midnightblue" d="M987.79,-135.79C983.14,-135.13 978.48,-134.51 974,-134 753.54,-108.67 697.04,-117.6 476,-98 453.21,-95.98 428.34,-93.46 406.07,-91.1"/>
<polygon fill="midnightblue" stroke="midnightblue" points="406.36,-87.61 396.04,-90.02 405.61,-94.57 406.36,-87.61"/>
</g>
<!-- Node8&#45;&gt;Node10 -->
<g id="edge25" class="edge">
<title>Node8&#45;&gt;Node10</title>
<path fill="none" stroke="midnightblue" d="M987.79,-137.5C978,-136.3 967.65,-135.07 958,-134 795.98,-116.03 754.62,-119.27 593,-98 509.04,-86.95 488.93,-78.3 405,-67 252.65,-46.49 210,-68.81 61,-31 58.49,-30.36 55.92,-29.58 53.38,-28.71"/>
<polygon fill="midnightblue" stroke="midnightblue" points="54.42,-25.36 43.83,-25.05 51.91,-31.89 54.42,-25.36"/>
</g>
<!-- Node11 -->
<g id="node11" class="node">
<title>Node11</title>
<g id="a_node11"><a xlink:href="get_8hpp.html" target="_top" xlink:title=" ">
<polygon fill="none" stroke="black" points="1023.5,-73 1023.5,-92 1076.5,-92 1076.5,-73 1023.5,-73"/>
<text text-anchor="middle" x="1050" y="-80" font-family="Helvetica,sans-Serif" font-size="10.00">get.hpp</text>
</a>
</g>
</g>
<!-- Node8&#45;&gt;Node11 -->
<g id="edge11" class="edge">
<title>Node8&#45;&gt;Node11</title>
<path fill="none" stroke="midnightblue" d="M1033.72,-134.48C1036.43,-125.99 1040.67,-112.7 1044.15,-101.82"/>
<polygon fill="midnightblue" stroke="midnightblue" points="1047.57,-102.6 1047.28,-92.01 1040.91,-100.47 1047.57,-102.6"/>
</g>
<!-- Node8&#45;&gt;Node12 -->
<g id="edge26" class="edge">
<title>Node8&#45;&gt;Node12</title>
<path fill="none" stroke="midnightblue" d="M1025.23,-134.49C1015.74,-119.32 999.34,-87.27 1015,-67 1053.75,-16.84 1092.91,-51.18 1153,-31 1154.92,-30.36 1156.88,-29.66 1158.85,-28.93"/>
<polygon fill="midnightblue" stroke="midnightblue" points="1160.53,-32.03 1168.56,-25.11 1157.97,-25.51 1160.53,-32.03"/>
</g>
<!-- Node14 -->
<g id="node14" class="node">
<title>Node14</title>
<g id="a_node14"><a xlink:href="array_8hpp.html" target="_top" xlink:title=" ">
<polygon fill="none" stroke="black" points="602.5,-73 602.5,-92 727.5,-92 727.5,-73 602.5,-73"/>
<text text-anchor="middle" x="665" y="-80" font-family="Helvetica,sans-Serif" font-size="10.00">serialization/array.hpp</text>
</a>
</g>
</g>
<!-- Node8&#45;&gt;Node14 -->
<g id="edge14" class="edge">
<title>Node8&#45;&gt;Node14</title>
<path fill="none" stroke="midnightblue" d="M987.94,-136C923.51,-125.53 801.68,-105.72 727.47,-93.66"/>
<polygon fill="midnightblue" stroke="midnightblue" points="727.75,-90.16 717.32,-92.01 726.63,-97.07 727.75,-90.16"/>
</g>
<!-- Node23 -->
<g id="node23" class="node">
<title>Node23</title>
<g id="a_node23"><a xlink:title=" ">
<polygon fill="none" stroke="#bfbfbf" points="784.5,-67.5 784.5,-97.5 891.5,-97.5 891.5,-67.5 784.5,-67.5"/>
<text text-anchor="start" x="792.5" y="-85.5" font-family="Helvetica,sans-Serif" font-size="10.00">boost/serialization</text>
<text text-anchor="middle" x="838" y="-74.5" font-family="Helvetica,sans-Serif" font-size="10.00">/access.hpp</text>
</a>
</g>
</g>
<!-- Node8&#45;&gt;Node23 -->
<g id="edge24" class="edge">
<title>Node8&#45;&gt;Node23</title>
<path fill="none" stroke="midnightblue" d="M1003.35,-134.48C974.77,-125.66 929.37,-111.67 893.37,-100.57"/>
<polygon fill="midnightblue" stroke="midnightblue" points="894.07,-97.12 883.49,-97.52 892.01,-103.81 894.07,-97.12"/>
</g>
<!-- Node8&#45;&gt;Node24 -->
<g id="edge27" class="edge">
<title>Node8&#45;&gt;Node24</title>
<path fill="none" stroke="midnightblue" d="M987.55,-138.19C972.79,-136.68 956.19,-135.12 941,-134 772.82,-121.61 347.57,-134.82 183,-98 180.32,-97.4 177.59,-96.61 174.89,-95.71"/>
<polygon fill="midnightblue" stroke="midnightblue" points="176.01,-92.39 165.42,-92.1 173.52,-98.93 176.01,-92.39"/>
</g>
<!-- Node25 -->
<g id="node25" class="node">
<title>Node25</title>
<g id="a_node25"><a xlink:title=" ">
<polygon fill="none" stroke="#bfbfbf" points="909.5,-73 909.5,-92 966.5,-92 966.5,-73 909.5,-73"/>
<text text-anchor="middle" x="938" y="-80" font-family="Helvetica,sans-Serif" font-size="10.00">ostream</text>
</a>
</g>
</g>
<!-- Node8&#45;&gt;Node25 -->
<g id="edge28" class="edge">
<title>Node8&#45;&gt;Node25</title>
<path fill="none" stroke="midnightblue" d="M1017.68,-134.48C1002.62,-124.84 977.88,-109.02 959.96,-97.55"/>
<polygon fill="midnightblue" stroke="midnightblue" points="961.61,-94.45 951.3,-92.01 957.84,-100.35 961.61,-94.45"/>
</g>
<!-- Node8&#45;&gt;Node26 -->
<g id="edge29" class="edge">
<title>Node8&#45;&gt;Node26</title>
<path fill="none" stroke="midnightblue" d="M1044.75,-134.48C1060.37,-124.8 1086.06,-108.87 1104.58,-97.39"/>
<polygon fill="midnightblue" stroke="midnightblue" points="1106.62,-100.25 1113.27,-92.01 1102.93,-94.3 1106.62,-100.25"/>
</g>
<!-- Node9&#45;&gt;Node10 -->
<g id="edge10" class="edge">
<title>Node9&#45;&gt;Node10</title>
<path fill="none" stroke="midnightblue" d="M299.22,-72.95C289.68,-70.93 279.48,-68.83 270,-67 177.45,-49.17 151.54,-57.2 61,-31 58.71,-30.34 56.36,-29.57 54.02,-28.74"/>
<polygon fill="midnightblue" stroke="midnightblue" points="55.21,-25.45 44.62,-25.11 52.68,-31.98 55.21,-25.45"/>
</g>
<!-- Node11&#45;&gt;Node12 -->
<g id="edge12" class="edge">
<title>Node11&#45;&gt;Node12</title>
<path fill="none" stroke="midnightblue" d="M1068.33,-72.87C1091.94,-61.75 1133.19,-42.32 1160.55,-29.43"/>
<polygon fill="midnightblue" stroke="midnightblue" points="1162.04,-32.59 1169.6,-25.17 1159.06,-26.26 1162.04,-32.59"/>
</g>
<!-- Node13 -->
<g id="node13" class="node">
<title>Node13</title>
<g id="a_node13"><a xlink:title=" ">
<polygon fill="none" stroke="#bfbfbf" points="1232.5,-6 1232.5,-25 1273.5,-25 1273.5,-6 1232.5,-6"/>
<text text-anchor="middle" x="1253" y="-13" font-family="Helvetica,sans-Serif" font-size="10.00">tuple</text>
</a>
</g>
</g>
<!-- Node11&#45;&gt;Node13 -->
<g id="edge13" class="edge">
<title>Node11&#45;&gt;Node13</title>
<path fill="none" stroke="midnightblue" d="M1070.01,-72.91C1075.17,-70.84 1080.75,-68.73 1086,-67 1146.19,-47.12 1164.66,-53.29 1224,-31 1225.38,-30.48 1226.79,-29.91 1228.19,-29.32"/>
<polygon fill="midnightblue" stroke="midnightblue" points="1229.71,-32.47 1237.31,-25.09 1226.77,-26.12 1229.71,-32.47"/>
</g>
<!-- Node14&#45;&gt;Node12 -->
<g id="edge23" class="edge">
<title>Node14&#45;&gt;Node12</title>
<path fill="none" stroke="midnightblue" d="M706.04,-73C717.63,-70.8 730.28,-68.61 742,-67 923.65,-42 974.89,-74.6 1153,-31 1155.52,-30.38 1158.09,-29.61 1160.63,-28.75"/>
<polygon fill="midnightblue" stroke="midnightblue" points="1162.09,-31.94 1170.19,-25.11 1159.6,-25.4 1162.09,-31.94"/>
</g>
<!-- Node15 -->
<g id="node15" class="node">
<title>Node15</title>
<g id="a_node15"><a xlink:title=" ">
<polygon fill="none" stroke="#bfbfbf" points="202,-6 202,-25 336,-25 336,-6 202,-6"/>
<text text-anchor="middle" x="269" y="-13" font-family="Helvetica,sans-Serif" font-size="10.00">boost/mpl/bool_fwd.hpp</text>
</a>
</g>
</g>
<!-- Node14&#45;&gt;Node15 -->
<g id="edge15" class="edge">
<title>Node14&#45;&gt;Node15</title>
<path fill="none" stroke="midnightblue" d="M607.39,-72.98C543.25,-63.35 436.56,-46.96 345,-31 337.64,-29.72 329.89,-28.31 322.27,-26.89"/>
<polygon fill="midnightblue" stroke="midnightblue" points="322.84,-23.43 312.36,-25.02 321.54,-30.31 322.84,-23.43"/>
</g>
<!-- Node16 -->
<g id="node16" class="node">
<title>Node16</title>
<g id="a_node16"><a xlink:title=" ">
<polygon fill="none" stroke="#bfbfbf" points="354.5,-6 354.5,-25 479.5,-25 479.5,-6 354.5,-6"/>
<text text-anchor="middle" x="417" y="-13" font-family="Helvetica,sans-Serif" font-size="10.00">boost/mpl/greater.hpp</text>
</a>
</g>
</g>
<!-- Node14&#45;&gt;Node16 -->
<g id="edge16" class="edge">
<title>Node14&#45;&gt;Node16</title>
<path fill="none" stroke="midnightblue" d="M632.32,-72.94C587.99,-61.32 508.73,-40.54 459.72,-27.7"/>
<polygon fill="midnightblue" stroke="midnightblue" points="460.31,-24.23 449.75,-25.08 458.53,-31 460.31,-24.23"/>
</g>
<!-- Node17 -->
<g id="node17" class="node">
<title>Node17</title>
<g id="a_node17"><a xlink:title=" ">
<polygon fill="none" stroke="#bfbfbf" points="498,-6 498,-25 600,-25 600,-6 498,-6"/>
<text text-anchor="middle" x="549" y="-13" font-family="Helvetica,sans-Serif" font-size="10.00">boost/mpl/int.hpp</text>
</a>
</g>
</g>
<!-- Node14&#45;&gt;Node17 -->
<g id="edge17" class="edge">
<title>Node14&#45;&gt;Node17</title>
<path fill="none" stroke="midnightblue" d="M649.36,-72.73C629.79,-61.77 596.08,-42.88 573.18,-30.05"/>
<polygon fill="midnightblue" stroke="midnightblue" points="574.83,-26.96 564.4,-25.13 571.41,-33.07 574.83,-26.96"/>
</g>
<!-- Node18 -->
<g id="node18" class="node">
<title>Node18</title>
<g id="a_node18"><a xlink:title=" ">
<polygon fill="none" stroke="#bfbfbf" points="618,-0.5 618,-30.5 724,-30.5 724,-0.5 618,-0.5"/>
<text text-anchor="start" x="626" y="-18.5" font-family="Helvetica,sans-Serif" font-size="10.00">boost/mpl/integral</text>
<text text-anchor="middle" x="671" y="-7.5" font-family="Helvetica,sans-Serif" font-size="10.00">_c_tag.hpp</text>
</a>
</g>
</g>
<!-- Node14&#45;&gt;Node18 -->
<g id="edge18" class="edge">
<title>Node14&#45;&gt;Node18</title>
<path fill="none" stroke="midnightblue" d="M665.81,-72.73C666.57,-64.54 667.73,-51.92 668.76,-40.71"/>
<polygon fill="midnightblue" stroke="midnightblue" points="672.27,-40.87 669.7,-30.59 665.3,-40.22 672.27,-40.87"/>
</g>
<!-- Node19 -->
<g id="node19" class="node">
<title>Node19</title>
<g id="a_node19"><a xlink:title=" ">
<polygon fill="none" stroke="#bfbfbf" points="742.5,-0.5 742.5,-30.5 893.5,-30.5 893.5,-0.5 742.5,-0.5"/>
<text text-anchor="start" x="750.5" y="-18.5" font-family="Helvetica,sans-Serif" font-size="10.00">boost/serialization</text>
<text text-anchor="middle" x="818" y="-7.5" font-family="Helvetica,sans-Serif" font-size="10.00">/is_bitwise_serializable.hpp</text>
</a>
</g>
</g>
<!-- Node14&#45;&gt;Node19 -->
<g id="edge19" class="edge">
<title>Node14&#45;&gt;Node19</title>
<path fill="none" stroke="midnightblue" d="M685.32,-72.87C708.28,-63.12 746.28,-46.97 775.74,-34.45"/>
<polygon fill="midnightblue" stroke="midnightblue" points="777.14,-37.66 784.98,-30.53 774.41,-31.22 777.14,-37.66"/>
</g>
<!-- Node20 -->
<g id="node20" class="node">
<title>Node20</title>
<g id="a_node20"><a xlink:title=" ">
<polygon fill="none" stroke="#bfbfbf" points="911.5,-0.5 911.5,-30.5 1018.5,-30.5 1018.5,-0.5 911.5,-0.5"/>
<text text-anchor="start" x="919.5" y="-18.5" font-family="Helvetica,sans-Serif" font-size="10.00">boost/serialization</text>
<text text-anchor="middle" x="965" y="-7.5" font-family="Helvetica,sans-Serif" font-size="10.00">/level.hpp</text>
</a>
</g>
</g>
<!-- Node14&#45;&gt;Node20 -->
<g id="edge20" class="edge">
<title>Node14&#45;&gt;Node20</title>
<path fill="none" stroke="midnightblue" d="M706.15,-72.94C751.42,-63.48 826.6,-47.64 901.34,-31.13"/>
<polygon fill="midnightblue" stroke="midnightblue" points="902.39,-34.48 911.4,-28.9 900.88,-27.64 902.39,-34.48"/>
</g>
<!-- Node21 -->
<g id="node21" class="node">
<title>Node21</title>
<g id="a_node21"><a xlink:title=" ">
<polygon fill="none" stroke="#bfbfbf" points="1036.5,-0.5 1036.5,-30.5 1143.5,-30.5 1143.5,-0.5 1036.5,-0.5"/>
<text text-anchor="start" x="1044.5" y="-18.5" font-family="Helvetica,sans-Serif" font-size="10.00">boost/serialization</text>
<text text-anchor="middle" x="1090" y="-7.5" font-family="Helvetica,sans-Serif" font-size="10.00">/tracking.hpp</text>
</a>
</g>
</g>
<!-- Node14&#45;&gt;Node21 -->
<g id="edge21" class="edge">
<title>Node14&#45;&gt;Node21</title>
<path fill="none" stroke="midnightblue" d="M707.68,-72.98C718.83,-70.89 730.85,-68.75 742,-67 865.35,-47.64 900.15,-53.31 1026.26,-31.21"/>
<polygon fill="midnightblue" stroke="midnightblue" points="1027.07,-34.62 1036.3,-29.42 1025.84,-27.72 1027.07,-34.62"/>
</g>
<!-- Node22 -->
<g id="node22" class="node">
<title>Node22</title>
<g id="a_node22"><a xlink:title=" ">
<polygon fill="none" stroke="#bfbfbf" points="70.5,-0.5 70.5,-30.5 183.5,-30.5 183.5,-0.5 70.5,-0.5"/>
<text text-anchor="start" x="78.5" y="-18.5" font-family="Helvetica,sans-Serif" font-size="10.00">boost/serialization</text>
<text text-anchor="middle" x="127" y="-7.5" font-family="Helvetica,sans-Serif" font-size="10.00">/tracking_enum.hpp</text>
</a>
</g>
</g>
<!-- Node14&#45;&gt;Node22 -->
<g id="edge22" class="edge">
<title>Node14&#45;&gt;Node22</title>
<path fill="none" stroke="midnightblue" d="M602.47,-75.67C496.8,-65.68 286.21,-45.14 193.7,-30.96"/>
<polygon fill="midnightblue" stroke="midnightblue" points="194.23,-27.5 183.81,-29.39 193.14,-34.42 194.23,-27.5"/>
</g>
<!-- Node34&#45;&gt;Node5 -->
<g id="edge43" class="edge">
<title>Node34&#45;&gt;Node5</title>
<path fill="none" stroke="midnightblue" d="M978.07,-257.48C947.96,-247.18 897.17,-229.81 863.36,-218.25"/>
<polygon fill="midnightblue" stroke="midnightblue" points="864.48,-214.93 853.88,-215.01 862.21,-221.56 864.48,-214.93"/>
</g>
<!-- Node34&#45;&gt;Node8 -->
<g id="edge42" class="edge">
<title>Node34&#45;&gt;Node8</title>
<path fill="none" stroke="midnightblue" d="M972.75,-257.49C954.87,-250.73 933.7,-239.29 923,-221 916.04,-209.11 915.36,-201.46 923,-190 935.45,-171.32 957.27,-160.39 978.06,-153.99"/>
<polygon fill="midnightblue" stroke="midnightblue" points="979.12,-157.33 987.82,-151.28 977.24,-150.58 979.12,-157.33"/>
</g>
<!-- Node35 -->
<g id="node35" class="node">
<title>Node35</title>
<g id="a_node35"><a xlink:href="CellStructureType_8hpp.html" target="_top" xlink:title=" ">
<polygon fill="none" stroke="black" points="932.5,-190.5 932.5,-220.5 1073.5,-220.5 1073.5,-190.5 932.5,-190.5"/>
<text text-anchor="start" x="940.5" y="-208.5" font-family="Helvetica,sans-Serif" font-size="10.00">cell_system/CellStructure</text>
<text text-anchor="middle" x="1003" y="-197.5" font-family="Helvetica,sans-Serif" font-size="10.00">Type.hpp</text>
</a>
</g>
</g>
<!-- Node34&#45;&gt;Node35 -->
<g id="edge41" class="edge">
<title>Node34&#45;&gt;Node35</title>
<path fill="none" stroke="midnightblue" d="M1003,-257.48C1003,-250.47 1003,-240.19 1003,-230.7"/>
<polygon fill="midnightblue" stroke="midnightblue" points="1006.5,-230.52 1003,-220.52 999.5,-230.52 1006.5,-230.52"/>
</g>
<!-- Node37&#45;&gt;Node9 -->
<g id="edge49" class="edge">
<title>Node37&#45;&gt;Node9</title>
<path fill="none" stroke="midnightblue" d="M182.93,-134.48C214.25,-124.18 267.09,-106.81 302.26,-95.25"/>
<polygon fill="midnightblue" stroke="midnightblue" points="303.71,-98.46 312.12,-92.01 301.52,-91.81 303.71,-98.46"/>
</g>
<!-- Node37&#45;&gt;Node10 -->
<g id="edge50" class="edge">
<title>Node37&#45;&gt;Node10</title>
<path fill="none" stroke="midnightblue" d="M148,-134.31C126.21,-113.27 70.42,-59.39 42.47,-32.4"/>
<polygon fill="midnightblue" stroke="midnightblue" points="44.69,-29.68 35.07,-25.26 39.83,-34.72 44.69,-29.68"/>
</g>
<!-- Node37&#45;&gt;Node12 -->
<g id="edge51" class="edge">
<title>Node37&#45;&gt;Node12</title>
<path fill="none" stroke="midnightblue" d="M200.08,-135.19C203.09,-134.75 206.09,-134.35 209,-134 325.54,-119.97 626.56,-140.44 736,-98 756.64,-90 754.46,-75.28 775,-67 931.52,-3.89 989.23,-71.75 1153,-31 1155.51,-30.37 1158.08,-29.6 1160.63,-28.73"/>
<polygon fill="midnightblue" stroke="midnightblue" points="1162.09,-31.92 1170.18,-25.08 1159.59,-25.38 1162.09,-31.92"/>
</g>
<!-- Node37&#45;&gt;Node24 -->
<g id="edge52" class="edge">
<title>Node37&#45;&gt;Node24</title>
<path fill="none" stroke="midnightblue" d="M155.71,-134.48C154.44,-126.08 152.46,-112.98 150.82,-102.16"/>
<polygon fill="midnightblue" stroke="midnightblue" points="154.24,-101.37 149.29,-92.01 147.32,-102.42 154.24,-101.37"/>
</g>
<!-- Node37&#45;&gt;Node26 -->
<g id="edge53" class="edge">
<title>Node37&#45;&gt;Node26</title>
<path fill="none" stroke="midnightblue" d="M200.07,-135.1C203.09,-134.68 206.08,-134.31 209,-134 596.91,-92.65 702.95,-171.86 1086,-98 1089.52,-97.32 1093.14,-96.4 1096.7,-95.34"/>
<polygon fill="midnightblue" stroke="midnightblue" points="1098.08,-98.57 1106.48,-92.11 1095.88,-91.93 1098.08,-98.57"/>
</g>
<!-- Node37&#45;&gt;Node32 -->
<g id="edge54" class="edge">
<title>Node37&#45;&gt;Node32</title>
<path fill="none" stroke="midnightblue" d="M167.03,-134.48C178.05,-125.11 195.96,-109.88 209.34,-98.51"/>
<polygon fill="midnightblue" stroke="midnightblue" points="211.64,-101.15 216.99,-92.01 207.1,-95.82 211.64,-101.15"/>
</g>
</g>
</svg>
        <g id="navigator" transform="translate(0 0)" fill="#404254">
                <rect fill="#f2f5e9" fill-opacity="0.5" stroke="#606060" stroke-width=".5" x="0" y="0" width="60" height="60"/>
                <use id="zoomplus" xlink:href="#zoomPlus" x="17" y="9" onmousedown="handleZoom(evt,'in')"/>
                <use id="zoomminus" xlink:href="#zoomMin" x="42" y="9" onmousedown="handleZoom(evt,'out')"/>
                <use id="reset" xlink:href="#resetDef" x="30" y="36" onmousedown="handleReset()"/>
                <g id="arrowUp" xlink:href="#dirArrow" transform="translate(30 24)" onmousedown="handlePan(0,-1)">
                  <use xlink:href="#rim" fill="#404040">
                        <set attributeName="fill" to="#808080" begin="arrowUp.mouseover" end="arrowUp.mouseout"/>
                  </use>
                  <path fill="none" stroke="white" stroke-width="1.5" d="M0,-3.0v7 M-2.5,-0.5L0,-3.0L2.5,-0.5"/>
                </g>
                <g id="arrowRight" xlink:href="#dirArrow" transform="rotate(90) translate(36 -43)" onmousedown="handlePan(1,0)">
                  <use xlink:href="#rim" fill="#404040">
                        <set attributeName="fill" to="#808080" begin="arrowRight.mouseover" end="arrowRight.mouseout"/>
                  </use>
                  <path fill="none" stroke="white" stroke-width="1.5" d="M0,-3.0v7 M-2.5,-0.5L0,-3.0L2.5,-0.5"/>
                </g>
                <g id="arrowDown" xlink:href="#dirArrow" transform="rotate(180) translate(-30 -48)" onmousedown="handlePan(0,1)">
                  <use xlink:href="#rim" fill="#404040">
                        <set attributeName="fill" to="#808080" begin="arrowDown.mouseover" end="arrowDown.mouseout"/>
                  </use>
                  <path fill="none" stroke="white" stroke-width="1.5" d="M0,-3.0v7 M-2.5,-0.5L0,-3.0L2.5,-0.5"/>
                </g>
                <g id="arrowLeft" xlink:href="#dirArrow" transform="rotate(270) translate(-36 17)" onmousedown="handlePan(-1,0)">
                  <use xlink:href="#rim" fill="#404040">
                        <set attributeName="fill" to="#808080" begin="arrowLeft.mouseover" end="arrowLeft.mouseout"/>
                  </use>
                  <path fill="none" stroke="white" stroke-width="1.5" d="M0,-3.0v7 M-2.5,-0.5L0,-3.0L2.5,-0.5"/>
                </g>
        </g>
        <svg viewBox="0 0 15 15" width="100%" height="30px" preserveAspectRatio="xMaxYMin meet">
         <g id="arrow_out" transform="scale(0.3 0.3)">
          <a xlink:href="send__mesh_8hpp__incl_org.svg" target="_base">
           <rect id="button" ry="5" rx="5" y="6" x="6" height="38" width="38"
                fill="#f2f5e9" fill-opacity="0.5" stroke="#606060" stroke-width="1.0"/>
           <path id="arrow"
             d="M 11.500037,31.436501 C 11.940474,20.09759 22.043105,11.32322 32.158766,21.979434 L 37.068811,17.246167 C 37.068811,17.246167 37.088388,32 37.088388,32 L 22.160133,31.978069 C 22.160133,31.978069 26.997745,27.140456 26.997745,27.140456 C 18.528582,18.264221 13.291696,25.230495 11.500037,31.436501 z"
             style="fill:#404040;"/>
          </a>
         </g>
        </svg>
</svg>
