<?xml version="1.0" encoding="UTF-8" standalone="no"?>
<!DOCTYPE svg PUBLIC "-//W3C//DTD SVG 1.1//EN"
 "http://www.w3.org/Graphics/SVG/1.1/DTD/svg11.dtd">
<!-- Generated by graphviz version 2.43.0 (0)
 -->
<!-- Title: send_mesh.hpp Pages: 1 -->
<!--zoomable 390 -->

<svg id="main" version="1.1" xmlns="http://www.w3.org/2000/svg" xmlns:xlink="http://www.w3.org/1999/xlink" xml:space="preserve" onload="init(evt)">
<style type="text/css"><![CDATA[
.node, .edge {opacity: 0.7;}
.node.selected, .edge.selected {opacity: 1;}
.edge:hover path { stroke: red; }
.edge:hover polygon { stroke: red; fill: red; }
]]></style>

<defs>
  <circle id="rim" cx="0" cy="0" r="7"/>
  <circle id="rim2" cx="0" cy="0" r="3.5"/>
  <g id="zoomPlus">
    <use xlink:href="#rim" fill="#404040"><set attributeName="fill" to="#808080" begin="zoomplus.mouseover" end="zoomplus.mouseout"/></use>
    <path d="M-4,0h8M0,-4v8" fill="none" stroke="white" stroke-width="1.5" pointer-events="none"/>
  </g>
  <g id="zoomMin">
    <use xlink:href="#rim" fill="#404040"><set attributeName="fill" to="#808080" begin="zoomminus.mouseover" end="zoomminus.mouseout"/></use>
    <path d="M-4,0h8" fill="none" stroke="white" stroke-width="1.5" pointer-events="none"/>
  </g>
  <g id="arrowUp" transform="translate(30 24)">
    <use xlink:href="#rim"/>
    <path pointer-events="none" fill="none" stroke="white" stroke-width="1.5" d="M0,-3.0v7 M-2.5,-0.5L0,-3.0L2.5,-0.5"/>
  </g>
  <g id="arrowRight" transform="rotate(90) translate(36 -43)">
    <use xlink:href="#rim"/>
    <path pointer-events="none" fill="none" stroke="white" stroke-width="1.5" d="M0,-3.0v7 M-2.5,-0.5L0,-3.0L2.5,-0.5"/>
  </g>
  <g id="arrowDown" transform="rotate(180) translate(-30 -48)">
    <use xlink:href="#rim"/>
    <path pointer-events="none" fill="none" stroke="white" stroke-width="1.5" d="M0,-3.0v7 M-2.5,-0.5L0,-3.0L2.5,-0.5"/>
  </g>
  <g id="arrowLeft" transform="rotate(270) translate(-36 17)">
    <use xlink:href="#rim"/>
    <path pointer-events="none" fill="none" stroke="white" stroke-width="1.5" d="M0,-3.0v7 M-2.5,-0.5L0,-3.0L2.5,-0.5"/>
  </g>
  <g id="resetDef">
    <use xlink:href="#rim2" fill="#404040"><set attributeName="fill" to="#808080" begin="reset.mouseover" end="reset.mouseout"/></use>
  </g>
</defs>
<script type="application/ecmascript">
var viewWidth = 1580;
var viewHeight = 390;
var sectionId = 'dynsection-0';
</script>
<script type="application/ecmascript" xlink:href="svg.min.js"/>
<svg id="graph" class="graph">
<g id="viewport">
<title>send_mesh.hpp</title>
<!-- Node1 -->
<g id="Node000001" class="node">
<title>Node1</title>
<g id="a_Node000001"><a xlink:title=" ">
<polygon fill="#999999" stroke="#666666" points="1311.5,-382 1218.5,-382 1218.5,-363 1311.5,-363 1311.5,-382"/>
<text text-anchor="middle" x="1265" y="-370" font-family="Helvetica,sans-Serif" font-size="10.00">send_mesh.hpp</text>
</a>
</g>
</g>
<!-- Node2 -->
<g id="Node000002" class="node">
<title>Node2</title>
<g id="a_Node000002"><a xlink:href="config_8hpp.html" target="_top" xlink:title="This file contains the defaults for ESPResSo.">
<polygon fill="white" stroke="#666666" points="820.5,-272 721.5,-272 721.5,-253 820.5,-253 820.5,-272"/>
<text text-anchor="middle" x="771" y="-260" font-family="Helvetica,sans-Serif" font-size="10.00">config/config.hpp</text>
</a>
</g>
</g>
<!-- Node1&#45;&gt;Node2 -->
<g id="edge1_Node000001_Node000002" class="edge">
<title>Node1&#45;&gt;Node2</title>
<g id="a_edge1_Node000001_Node000002"><a xlink:title=" ">
<path fill="none" stroke="#63b8ff" d="M1218.44,-369.9C1150.4,-366.61 1020.35,-356.66 914,-327 870.47,-314.86 823.11,-291.68 795.3,-276.93"/>
<polygon fill="#63b8ff" stroke="#63b8ff" points="796.78,-273.75 786.31,-272.1 793.46,-279.92 796.78,-273.75"/>
</a>
</g>
</g>
<!-- Node4 -->
<g id="Node000004" class="node">
<title>Node4</title>
<g id="a_Node000004"><a xlink:href="common_8hpp.html" target="_top" xlink:title="Common functions for dipolar and charge P3M.">
<polygon fill="white" stroke="#666666" points="1211.5,-327 1106.5,-327 1106.5,-308 1211.5,-308 1211.5,-327"/>
<text text-anchor="middle" x="1159" y="-315" font-family="Helvetica,sans-Serif" font-size="10.00">p3m/common.hpp</text>
</a>
</g>
</g>
<!-- Node1&#45;&gt;Node4 -->
<g id="edge3_Node000001_Node000004" class="edge">
<title>Node1&#45;&gt;Node4</title>
<g id="a_edge3_Node000001_Node000004"><a xlink:title=" ">
<path fill="none" stroke="#63b8ff" d="M1247.97,-362.98C1231.07,-354.54 1204.94,-341.47 1185.36,-331.68"/>
<polygon fill="#63b8ff" stroke="#63b8ff" points="1186.85,-328.51 1176.34,-327.17 1183.72,-334.77 1186.85,-328.51"/>
</a>
</g>
</g>
<!-- Node5 -->
<g id="Node000005" class="node">
<title>Node5</title>
<g id="a_Node000005"><a xlink:href="Vector_8hpp.html" target="_top" xlink:title="Vector implementation and trait types for boost qvm interoperability.">
<polygon fill="white" stroke="#666666" points="969,-211.5 877,-211.5 877,-192.5 969,-192.5 969,-211.5"/>
<text text-anchor="middle" x="923" y="-199.5" font-family="Helvetica,sans-Serif" font-size="10.00">utils/Vector.hpp</text>
</a>
</g>
</g>
<!-- Node1&#45;&gt;Node5 -->
<g id="edge51_Node000001_Node000005" class="edge">
<title>Node1&#45;&gt;Node5</title>
<g id="a_edge51_Node000001_Node000005"><a xlink:title=" ">
<path fill="none" stroke="#63b8ff" d="M1218.38,-365.23C1157.12,-354.97 1048.81,-329.64 976,-272 957.93,-257.69 942.57,-235.93 933.11,-220.68"/>
<polygon fill="#63b8ff" stroke="#63b8ff" points="935.91,-218.54 927.78,-211.74 929.9,-222.12 935.91,-218.54"/>
</a>
</g>
</g>
<!-- Node32 -->
<g id="Node000032" class="node">
<title>Node32</title>
<g id="a_Node000032"><a xlink:title=" ">
<polygon fill="#e0e0e0" stroke="#999999" points="1291,-151 1251,-151 1251,-132 1291,-132 1291,-151"/>
<text text-anchor="middle" x="1271" y="-139" font-family="Helvetica,sans-Serif" font-size="10.00">span</text>
</a>
</g>
</g>
<!-- Node1&#45;&gt;Node32 -->
<g id="edge53_Node000001_Node000032" class="edge">
<title>Node1&#45;&gt;Node32</title>
<g id="a_edge53_Node000001_Node000032"><a xlink:title=" ">
<path fill="none" stroke="#63b8ff" d="M1265.23,-362.8C1266.1,-329.36 1269.27,-208.59 1270.5,-161.49"/>
<polygon fill="#63b8ff" stroke="#63b8ff" points="1274.01,-161.29 1270.77,-151.21 1267.01,-161.11 1274.01,-161.29"/>
</a>
</g>
</g>
<!-- Node34 -->
<g id="Node000034" class="node">
<title>Node34</title>
<g id="a_Node000034"><a xlink:title=" ">
<polygon fill="#e0e0e0" stroke="#999999" points="1356.5,-151 1309.5,-151 1309.5,-132 1356.5,-132 1356.5,-151"/>
<text text-anchor="middle" x="1333" y="-139" font-family="Helvetica,sans-Serif" font-size="10.00">vector</text>
</a>
</g>
</g>
<!-- Node1&#45;&gt;Node34 -->
<g id="edge54_Node000001_Node000034" class="edge">
<title>Node1&#45;&gt;Node34</title>
<g id="a_edge54_Node000001_Node000034"><a xlink:title=" ">
<path fill="none" stroke="#63b8ff" d="M1268.11,-362.67C1271.23,-353.72 1276.11,-339.45 1280,-327 1298.91,-266.4 1319.02,-193.84 1328.08,-160.67"/>
<polygon fill="#63b8ff" stroke="#63b8ff" points="1331.46,-161.57 1330.71,-151 1324.7,-159.73 1331.46,-161.57"/>
</a>
</g>
</g>
<!-- Node38 -->
<g id="Node000038" class="node">
<title>Node38</title>
<g id="a_Node000038"><a xlink:title=" ">
<polygon fill="#e0e0e0" stroke="#999999" points="1571.5,-327 1412.5,-327 1412.5,-308 1571.5,-308 1571.5,-327"/>
<text text-anchor="middle" x="1492" y="-315" font-family="Helvetica,sans-Serif" font-size="10.00">boost/mpi/communicator.hpp</text>
</a>
</g>
</g>
<!-- Node1&#45;&gt;Node38 -->
<g id="edge52_Node000001_Node000038" class="edge">
<title>Node1&#45;&gt;Node38</title>
<g id="a_edge52_Node000001_Node000038"><a xlink:title=" ">
<path fill="none" stroke="#63b8ff" d="M1301.47,-362.98C1340.57,-353.86 1402.77,-339.33 1445.39,-329.38"/>
<polygon fill="#63b8ff" stroke="#63b8ff" points="1446.3,-332.76 1455.24,-327.08 1444.71,-325.95 1446.3,-332.76"/>
</a>
</g>
</g>
<!-- Node3 -->
<g id="Node000003" class="node">
<title>Node3</title>
<g id="a_Node000003"><a xlink:title=" ">
<polygon fill="#e0e0e0" stroke="#999999" points="820.5,-211.5 677.5,-211.5 677.5,-192.5 820.5,-192.5 820.5,-211.5"/>
<text text-anchor="middle" x="749" y="-199.5" font-family="Helvetica,sans-Serif" font-size="10.00">config/config&#45;features.hpp</text>
</a>
</g>
</g>
<!-- Node2&#45;&gt;Node3 -->
<g id="edge2_Node000002_Node000003" class="edge">
<title>Node2&#45;&gt;Node3</title>
<g id="a_edge2_Node000002_Node000003"><a xlink:title=" ">
<path fill="none" stroke="#63b8ff" d="M767.75,-252.87C764.63,-244.57 759.82,-231.78 755.85,-221.22"/>
<polygon fill="#63b8ff" stroke="#63b8ff" points="759.06,-219.8 752.26,-211.67 752.5,-222.26 759.06,-219.8"/>
</a>
</g>
</g>
<!-- Node4&#45;&gt;Node2 -->
<g id="edge4_Node000004_Node000002" class="edge">
<title>Node4&#45;&gt;Node2</title>
<g id="a_edge4_Node000004_Node000002"><a xlink:title=" ">
<path fill="none" stroke="#63b8ff" d="M1106.27,-309.3C1034.43,-299.48 906.16,-281.96 830.81,-271.67"/>
<polygon fill="#63b8ff" stroke="#63b8ff" points="830.93,-268.15 820.55,-270.27 829.98,-275.09 830.93,-268.15"/>
</a>
</g>
</g>
<!-- Node4&#45;&gt;Node5 -->
<g id="edge5_Node000004_Node000005" class="edge">
<title>Node4&#45;&gt;Node5</title>
<g id="a_edge5_Node000004_Node000005"><a xlink:title=" ">
<path fill="none" stroke="#63b8ff" d="M1112.25,-307.93C1081.19,-301.03 1040.18,-289.54 1007,-272 980.29,-257.88 954.13,-234.44 938.29,-218.85"/>
<polygon fill="#63b8ff" stroke="#63b8ff" points="940.52,-216.14 930.99,-211.51 935.56,-221.07 940.52,-216.14"/>
</a>
</g>
</g>
<!-- Node12 -->
<g id="Node000012" class="node">
<title>Node12</title>
<g id="a_Node000012"><a xlink:title=" ">
<polygon fill="#e0e0e0" stroke="#999999" points="1270.5,-24.5 1217.5,-24.5 1217.5,-5.5 1270.5,-5.5 1270.5,-24.5"/>
<text text-anchor="middle" x="1244" y="-12.5" font-family="Helvetica,sans-Serif" font-size="10.00">cstddef</text>
</a>
</g>
</g>
<!-- Node4&#45;&gt;Node12 -->
<g id="edge48_Node000004_Node000012" class="edge">
<title>Node4&#45;&gt;Node12</title>
<g id="a_edge48_Node000004_Node000012"><a xlink:title=" ">
<path fill="none" stroke="#63b8ff" d="M1156.41,-307.68C1153.17,-295.25 1148.67,-271.95 1154,-253 1159.08,-234.95 1167.74,-233.84 1176,-217 1201.33,-165.34 1204.13,-150.69 1222,-96 1228.76,-75.31 1235.21,-51.17 1239.35,-34.86"/>
<polygon fill="#63b8ff" stroke="#63b8ff" points="1242.8,-35.51 1241.83,-24.96 1236.01,-33.81 1242.8,-35.51"/>
</a>
</g>
</g>
<!-- Node26 -->
<g id="Node000026" class="node">
<title>Node26</title>
<g id="a_Node000026"><a xlink:title=" ">
<polygon fill="#e0e0e0" stroke="#999999" points="1177.5,-90.5 1112.5,-90.5 1112.5,-71.5 1177.5,-71.5 1177.5,-90.5"/>
<text text-anchor="middle" x="1145" y="-78.5" font-family="Helvetica,sans-Serif" font-size="10.00">stdexcept</text>
</a>
</g>
</g>
<!-- Node4&#45;&gt;Node26 -->
<g id="edge50_Node000004_Node000026" class="edge">
<title>Node4&#45;&gt;Node26</title>
<g id="a_edge50_Node000004_Node000026"><a xlink:title=" ">
<path fill="none" stroke="#63b8ff" d="M1184.21,-307.9C1251.94,-283.48 1428.66,-210.42 1366,-132 1344.15,-104.66 1245.92,-91.17 1188.03,-85.49"/>
<polygon fill="#63b8ff" stroke="#63b8ff" points="1188.01,-81.97 1177.72,-84.51 1187.35,-88.94 1188.01,-81.97"/>
</a>
</g>
</g>
<!-- Node27 -->
<g id="Node000027" class="node">
<title>Node27</title>
<g id="a_Node000027"><a xlink:title=" ">
<polygon fill="#e0e0e0" stroke="#999999" points="214,-151 150,-151 150,-132 214,-132 214,-151"/>
<text text-anchor="middle" x="182" y="-139" font-family="Helvetica,sans-Serif" font-size="10.00">algorithm</text>
</a>
</g>
</g>
<!-- Node4&#45;&gt;Node27 -->
<g id="edge41_Node000004_Node000027" class="edge">
<title>Node4&#45;&gt;Node27</title>
<g id="a_edge41_Node000004_Node000027"><a xlink:title=" ">
<path fill="none" stroke="#63b8ff" d="M1110.7,-307.95C1073.26,-300.56 1020.46,-288.47 976,-272 925.49,-253.29 913.54,-245.77 868,-217 849.51,-205.32 849.48,-194.66 829,-187 704.52,-140.43 364.04,-166.16 232,-151 229.47,-150.71 226.88,-150.38 224.27,-150.02"/>
<polygon fill="#63b8ff" stroke="#63b8ff" points="224.61,-146.53 214.2,-148.5 223.57,-153.45 224.61,-146.53"/>
</a>
</g>
</g>
<!-- Node4&#45;&gt;Node32 -->
<g id="edge49_Node000004_Node000032" class="edge">
<title>Node4&#45;&gt;Node32</title>
<g id="a_edge49_Node000004_Node000032"><a xlink:title=" ">
<path fill="none" stroke="#63b8ff" d="M1173.24,-307.78C1185.4,-299.74 1202.66,-286.83 1214,-272 1228.08,-253.58 1252.38,-191.93 1264.18,-160.8"/>
<polygon fill="#63b8ff" stroke="#63b8ff" points="1267.55,-161.78 1267.79,-151.19 1261,-159.32 1267.55,-161.78"/>
</a>
</g>
</g>
<!-- Node4&#45;&gt;Node34 -->
<g id="edge43_Node000004_Node000034" class="edge">
<title>Node4&#45;&gt;Node34</title>
<g id="a_edge43_Node000004_Node000034"><a xlink:title=" ">
<path fill="none" stroke="#63b8ff" d="M1177.29,-307.94C1193.08,-300 1215.98,-287.15 1233,-272 1271.74,-237.52 1306.09,-186.35 1322.6,-159.84"/>
<polygon fill="#63b8ff" stroke="#63b8ff" points="1325.62,-161.62 1327.85,-151.26 1319.65,-157.96 1325.62,-161.62"/>
</a>
</g>
</g>
<!-- Node35 -->
<g id="Node000035" class="node">
<title>Node35</title>
<g id="a_Node000035"><a xlink:title=" ">
<polygon fill="#e0e0e0" stroke="#999999" points="1205,-272 1163,-272 1163,-253 1205,-253 1205,-272"/>
<text text-anchor="middle" x="1184" y="-260" font-family="Helvetica,sans-Serif" font-size="10.00">array</text>
</a>
</g>
</g>
<!-- Node4&#45;&gt;Node35 -->
<g id="edge42_Node000004_Node000035" class="edge">
<title>Node4&#45;&gt;Node35</title>
<g id="a_edge42_Node000004_Node000035"><a xlink:title=" ">
<path fill="none" stroke="#63b8ff" d="M1163.13,-307.75C1166.51,-300.57 1171.42,-290.18 1175.62,-281.27"/>
<polygon fill="#63b8ff" stroke="#63b8ff" points="1178.85,-282.63 1179.95,-272.09 1172.52,-279.64 1178.85,-282.63"/>
</a>
</g>
</g>
<!-- Node36 -->
<g id="Node000036" class="node">
<title>Node36</title>
<g id="a_Node000036"><a xlink:href="LocalBox_8hpp.html" target="_top" xlink:title=" ">
<polygon fill="white" stroke="#666666" points="1098,-272 1016,-272 1016,-253 1098,-253 1098,-272"/>
<text text-anchor="middle" x="1057" y="-260" font-family="Helvetica,sans-Serif" font-size="10.00">LocalBox.hpp</text>
</a>
</g>
</g>
<!-- Node4&#45;&gt;Node36 -->
<g id="edge44_Node000004_Node000036" class="edge">
<title>Node4&#45;&gt;Node36</title>
<g id="a_edge44_Node000004_Node000036"><a xlink:title=" ">
<path fill="none" stroke="#63b8ff" d="M1142.61,-307.98C1126.43,-299.57 1101.43,-286.59 1082.62,-276.81"/>
<polygon fill="#63b8ff" stroke="#63b8ff" points="1084.17,-273.68 1073.69,-272.17 1080.95,-279.89 1084.17,-273.68"/>
</a>
</g>
</g>
<!-- Node6 -->
<g id="Node000006" class="node">
<title>Node6</title>
<g id="a_Node000006"><a xlink:title=" ">
<polygon fill="#e0e0e0" stroke="#999999" points="1028,-151 878,-151 878,-132 1028,-132 1028,-151"/>
<text text-anchor="middle" x="953" y="-139" font-family="Helvetica,sans-Serif" font-size="10.00">boost/qvm/deduce_vec.hpp</text>
</a>
</g>
</g>
<!-- Node5&#45;&gt;Node6 -->
<g id="edge6_Node000005_Node000006" class="edge">
<title>Node5&#45;&gt;Node6</title>
<g id="a_edge6_Node000005_Node000006"><a xlink:title=" ">
<path fill="none" stroke="#63b8ff" d="M927.43,-192.37C931.77,-183.9 938.52,-170.74 943.99,-160.07"/>
<polygon fill="#63b8ff" stroke="#63b8ff" points="947.11,-161.66 948.56,-151.17 940.88,-158.47 947.11,-161.66"/>
</a>
</g>
</g>
<!-- Node7 -->
<g id="Node000007" class="node">
<title>Node7</title>
<g id="a_Node000007"><a xlink:title=" ">
<polygon fill="#e0e0e0" stroke="#999999" points="860,-151 720,-151 720,-132 860,-132 860,-151"/>
<text text-anchor="middle" x="790" y="-139" font-family="Helvetica,sans-Serif" font-size="10.00">boost/qvm/vec_traits.hpp</text>
</a>
</g>
</g>
<!-- Node5&#45;&gt;Node7 -->
<g id="edge7_Node000005_Node000007" class="edge">
<title>Node5&#45;&gt;Node7</title>
<g id="a_edge7_Node000005_Node000007"><a xlink:title=" ">
<path fill="none" stroke="#63b8ff" d="M903.66,-192.49C881.3,-182.66 844.29,-166.38 818.6,-155.08"/>
<polygon fill="#63b8ff" stroke="#63b8ff" points="819.93,-151.84 809.36,-151.02 817.11,-158.25 819.93,-151.84"/>
</a>
</g>
</g>
<!-- Node8 -->
<g id="Node000008" class="node">
<title>Node8</title>
<g id="a_Node000008"><a xlink:href="Array_8hpp.html" target="_top" xlink:title="Array implementation with CUDA support.">
<polygon fill="white" stroke="#666666" points="1132,-151 1046,-151 1046,-132 1132,-132 1132,-151"/>
<text text-anchor="middle" x="1089" y="-139" font-family="Helvetica,sans-Serif" font-size="10.00">utils/Array.hpp</text>
</a>
</g>
</g>
<!-- Node5&#45;&gt;Node8 -->
<g id="edge8_Node000005_Node000008" class="edge">
<title>Node5&#45;&gt;Node8</title>
<g id="a_edge8_Node000005_Node000008"><a xlink:title=" ">
<path fill="none" stroke="#63b8ff" d="M947.14,-192.49C975.54,-182.49 1022.88,-165.8 1054.99,-154.49"/>
<polygon fill="#63b8ff" stroke="#63b8ff" points="1056.56,-157.64 1064.83,-151.02 1054.24,-151.04 1056.56,-157.64"/>
</a>
</g>
</g>
<!-- Node10 -->
<g id="Node000010" class="node">
<title>Node10</title>
<g id="a_Node000010"><a xlink:title=" ">
<polygon fill="#e0e0e0" stroke="#999999" points="52,-24.5 0,-24.5 0,-5.5 52,-5.5 52,-24.5"/>
<text text-anchor="middle" x="26" y="-12.5" font-family="Helvetica,sans-Serif" font-size="10.00">cassert</text>
</a>
</g>
</g>
<!-- Node5&#45;&gt;Node10 -->
<g id="edge31_Node000005_Node000010" class="edge">
<title>Node5&#45;&gt;Node10</title>
<g id="a_edge31_Node000005_Node000010"><a xlink:title=" ">
<path fill="none" stroke="#63b8ff" d="M890.8,-192.45C881.86,-190.36 872.1,-188.34 863,-187 610.55,-149.88 536.08,-218.5 290,-151 192.64,-124.29 89.52,-59.28 46.6,-30.32"/>
<polygon fill="#63b8ff" stroke="#63b8ff" points="48.38,-27.3 38.15,-24.56 44.44,-33.09 48.38,-27.3"/>
</a>
</g>
</g>
<!-- Node5&#45;&gt;Node12 -->
<g id="edge33_Node000005_Node000012" class="edge">
<title>Node5&#45;&gt;Node12</title>
<g id="a_edge33_Node000005_Node000012"><a xlink:title=" ">
<path fill="none" stroke="#63b8ff" d="M969.3,-193.94C1024.42,-184.93 1112.61,-168.4 1141,-151 1187.99,-122.2 1221.28,-63.46 1235.82,-33.88"/>
<polygon fill="#63b8ff" stroke="#63b8ff" points="1239.04,-35.26 1240.17,-24.72 1232.72,-32.25 1239.04,-35.26"/>
</a>
</g>
</g>
<!-- Node24 -->
<g id="Node000024" class="node">
<title>Node24</title>
<g id="a_Node000024"><a xlink:title=" ">
<polygon fill="#e0e0e0" stroke="#999999" points="399.5,-90.5 346.5,-90.5 346.5,-71.5 399.5,-71.5 399.5,-90.5"/>
<text text-anchor="middle" x="373" y="-78.5" font-family="Helvetica,sans-Serif" font-size="10.00">iterator</text>
</a>
</g>
</g>
<!-- Node5&#45;&gt;Node24 -->
<g id="edge36_Node000005_Node000024" class="edge">
<title>Node5&#45;&gt;Node24</title>
<g id="a_edge36_Node000005_Node000024"><a xlink:title=" ">
<path fill="none" stroke="#63b8ff" d="M890.8,-192.45C881.86,-190.36 872.1,-188.34 863,-187 800.88,-177.83 341.96,-196.79 299,-151 279.56,-130.28 314.21,-108.21 342.37,-94.75"/>
<polygon fill="#63b8ff" stroke="#63b8ff" points="343.95,-97.88 351.59,-90.54 341.04,-91.52 343.95,-97.88"/>
</a>
</g>
</g>
<!-- Node5&#45;&gt;Node27 -->
<g id="edge30_Node000005_Node000027" class="edge">
<title>Node5&#45;&gt;Node27</title>
<g id="a_edge30_Node000005_Node000027"><a xlink:title=" ">
<path fill="none" stroke="#63b8ff" d="M891.12,-192.48C882.09,-190.37 872.21,-188.33 863,-187 583.21,-146.73 508.65,-184.75 228,-151 226.73,-150.85 225.44,-150.68 224.14,-150.5"/>
<polygon fill="#63b8ff" stroke="#63b8ff" points="224.51,-147.02 214.09,-148.96 223.45,-153.94 224.51,-147.02"/>
</a>
</g>
</g>
<!-- Node28 -->
<g id="Node000028" class="node">
<title>Node28</title>
<g id="a_Node000028"><a xlink:title=" ">
<polygon fill="#e0e0e0" stroke="#999999" points="355.5,-151 308.5,-151 308.5,-132 355.5,-132 355.5,-151"/>
<text text-anchor="middle" x="332" y="-139" font-family="Helvetica,sans-Serif" font-size="10.00">cmath</text>
</a>
</g>
</g>
<!-- Node5&#45;&gt;Node28 -->
<g id="edge32_Node000005_Node000028" class="edge">
<title>Node5&#45;&gt;Node28</title>
<g id="a_edge32_Node000005_Node000028"><a xlink:title=" ">
<path fill="none" stroke="#63b8ff" d="M890.48,-192.43C881.62,-190.37 871.99,-188.36 863,-187 646.38,-154.12 585.09,-186.72 365.55,-150.95"/>
<polygon fill="#63b8ff" stroke="#63b8ff" points="366.1,-147.5 355.66,-149.31 364.95,-154.4 366.1,-147.5"/>
</a>
</g>
</g>
<!-- Node29 -->
<g id="Node000029" class="node">
<title>Node29</title>
<g id="a_Node000029"><a xlink:title=" ">
<polygon fill="#e0e0e0" stroke="#999999" points="438.5,-151 373.5,-151 373.5,-132 438.5,-132 438.5,-151"/>
<text text-anchor="middle" x="406" y="-139" font-family="Helvetica,sans-Serif" font-size="10.00">functional</text>
</a>
</g>
</g>
<!-- Node5&#45;&gt;Node29 -->
<g id="edge34_Node000005_Node000029" class="edge">
<title>Node5&#45;&gt;Node29</title>
<g id="a_edge34_Node000005_Node000029"><a xlink:title=" ">
<path fill="none" stroke="#63b8ff" d="M890.16,-192.44C881.38,-190.4 871.87,-188.41 863,-187 682.95,-158.35 632.39,-177.19 448.61,-151.07"/>
<polygon fill="#63b8ff" stroke="#63b8ff" points="449.01,-147.59 438.61,-149.62 448.01,-154.52 449.01,-147.59"/>
</a>
</g>
</g>
<!-- Node30 -->
<g id="Node000030" class="node">
<title>Node30</title>
<g id="a_Node000030"><a xlink:title=" ">
<polygon fill="#e0e0e0" stroke="#999999" points="539.5,-151 456.5,-151 456.5,-132 539.5,-132 539.5,-151"/>
<text text-anchor="middle" x="498" y="-139" font-family="Helvetica,sans-Serif" font-size="10.00">initializer_list</text>
</a>
</g>
</g>
<!-- Node5&#45;&gt;Node30 -->
<g id="edge35_Node000005_Node000030" class="edge">
<title>Node5&#45;&gt;Node30</title>
<g id="a_edge35_Node000005_Node000030"><a xlink:title=" ">
<path fill="none" stroke="#63b8ff" d="M889.5,-192.47C880.9,-190.47 871.64,-188.5 863,-187 727.84,-163.56 689.87,-170.22 549.97,-151.06"/>
<polygon fill="#63b8ff" stroke="#63b8ff" points="550.11,-147.54 539.72,-149.63 549.14,-154.48 550.11,-147.54"/>
</a>
</g>
</g>
<!-- Node31 -->
<g id="Node000031" class="node">
<title>Node31</title>
<g id="a_Node000031"><a xlink:title=" ">
<polygon fill="#e0e0e0" stroke="#999999" points="614,-151 558,-151 558,-132 614,-132 614,-151"/>
<text text-anchor="middle" x="586" y="-139" font-family="Helvetica,sans-Serif" font-size="10.00">numeric</text>
</a>
</g>
</g>
<!-- Node5&#45;&gt;Node31 -->
<g id="edge37_Node000005_Node000031" class="edge">
<title>Node5&#45;&gt;Node31</title>
<g id="a_edge37_Node000005_Node000031"><a xlink:title=" ">
<path fill="none" stroke="#63b8ff" d="M888.52,-192.45C880.19,-190.53 871.3,-188.59 863,-187 760.17,-167.32 730.69,-170.86 624.1,-151.08"/>
<polygon fill="#63b8ff" stroke="#63b8ff" points="624.71,-147.63 614.23,-149.22 623.42,-154.51 624.71,-147.63"/>
</a>
</g>
</g>
<!-- Node5&#45;&gt;Node32 -->
<g id="edge38_Node000005_Node000032" class="edge">
<title>Node5&#45;&gt;Node32</title>
<g id="a_edge38_Node000005_Node000032"><a xlink:title=" ">
<path fill="none" stroke="#63b8ff" d="M969.21,-193.23C1041.59,-181.06 1179.73,-157.84 1240.75,-147.59"/>
<polygon fill="#63b8ff" stroke="#63b8ff" points="1241.59,-150.99 1250.87,-145.88 1240.43,-144.09 1241.59,-150.99"/>
</a>
</g>
</g>
<!-- Node33 -->
<g id="Node000033" class="node">
<title>Node33</title>
<g id="a_Node000033"><a xlink:title=" ">
<polygon fill="#e0e0e0" stroke="#999999" points="701.5,-151 632.5,-151 632.5,-132 701.5,-132 701.5,-151"/>
<text text-anchor="middle" x="667" y="-139" font-family="Helvetica,sans-Serif" font-size="10.00">type_traits</text>
</a>
</g>
</g>
<!-- Node5&#45;&gt;Node33 -->
<g id="edge39_Node000005_Node000033" class="edge">
<title>Node5&#45;&gt;Node33</title>
<g id="a_edge39_Node000005_Node000033"><a xlink:title=" ">
<path fill="none" stroke="#63b8ff" d="M886.52,-192.45C878.76,-190.64 870.61,-188.75 863,-187 811.07,-175.05 751.35,-161.52 711.62,-152.55"/>
<polygon fill="#63b8ff" stroke="#63b8ff" points="712.24,-149.1 701.71,-150.32 710.7,-155.93 712.24,-149.1"/>
</a>
</g>
</g>
<!-- Node5&#45;&gt;Node34 -->
<g id="edge40_Node000005_Node000034" class="edge">
<title>Node5&#45;&gt;Node34</title>
<g id="a_edge40_Node000005_Node000034"><a xlink:title=" ">
<path fill="none" stroke="#63b8ff" d="M969.35,-193.9C984.52,-191.62 1001.47,-189.14 1017,-187 1139.41,-170.1 1173.74,-174.61 1299.29,-150.9"/>
<polygon fill="#63b8ff" stroke="#63b8ff" points="1300.12,-154.3 1309.29,-148.99 1298.81,-147.43 1300.12,-154.3"/>
</a>
</g>
</g>
<!-- Node9 -->
<g id="Node000009" class="node">
<title>Node9</title>
<g id="a_Node000009"><a xlink:href="device__qualifier_8hpp.html" target="_top" xlink:title=" ">
<polygon fill="white" stroke="#666666" points="613,-90.5 499,-90.5 499,-71.5 613,-71.5 613,-90.5"/>
<text text-anchor="middle" x="556" y="-78.5" font-family="Helvetica,sans-Serif" font-size="10.00">device_qualifier.hpp</text>
</a>
</g>
</g>
<!-- Node8&#45;&gt;Node9 -->
<g id="edge9_Node000008_Node000009" class="edge">
<title>Node8&#45;&gt;Node9</title>
<g id="a_edge9_Node000008_Node000009"><a xlink:title=" ">
<path fill="none" stroke="#63b8ff" d="M1045.9,-133.21C1042.89,-132.78 1039.9,-132.37 1037,-132 861.68,-109.73 816.3,-118.38 641,-96 632.27,-94.89 623.06,-93.54 614.05,-92.14"/>
<polygon fill="#63b8ff" stroke="#63b8ff" points="614.44,-88.65 604.01,-90.53 613.33,-95.57 614.44,-88.65"/>
</a>
</g>
</g>
<!-- Node8&#45;&gt;Node10 -->
<g id="edge25_Node000008_Node000010" class="edge">
<title>Node8&#45;&gt;Node10</title>
<g id="a_edge25_Node000008_Node000010"><a xlink:title=" ">
<path fill="none" stroke="#63b8ff" d="M1045.91,-133.13C1042.9,-132.71 1039.91,-132.33 1037,-132 794.94,-104.32 728.37,-146.37 490,-96 452.03,-87.98 445.81,-74.74 408,-66 256.93,-31.1 211.53,-67.15 61,-30 58.69,-29.43 56.34,-28.74 54,-27.98"/>
<polygon fill="#63b8ff" stroke="#63b8ff" points="55.17,-24.68 44.58,-24.54 52.77,-31.26 55.17,-24.68"/>
</a>
</g>
</g>
<!-- Node11 -->
<g id="Node000011" class="node">
<title>Node11</title>
<g id="a_Node000011"><a xlink:href="get_8hpp.html" target="_top" xlink:title=" ">
<polygon fill="white" stroke="#666666" points="1055.5,-90.5 1002.5,-90.5 1002.5,-71.5 1055.5,-71.5 1055.5,-90.5"/>
<text text-anchor="middle" x="1029" y="-78.5" font-family="Helvetica,sans-Serif" font-size="10.00">get.hpp</text>
</a>
</g>
</g>
<!-- Node8&#45;&gt;Node11 -->
<g id="edge11_Node000008_Node000011" class="edge">
<title>Node8&#45;&gt;Node11</title>
<g id="a_edge11_Node000008_Node000011"><a xlink:title=" ">
<path fill="none" stroke="#63b8ff" d="M1080.15,-131.87C1071.02,-122.97 1056.58,-108.89 1045.36,-97.95"/>
<polygon fill="#63b8ff" stroke="#63b8ff" points="1047.49,-95.14 1037.89,-90.67 1042.61,-100.15 1047.49,-95.14"/>
</a>
</g>
</g>
<!-- Node8&#45;&gt;Node12 -->
<g id="edge26_Node000008_Node000012" class="edge">
<title>Node8&#45;&gt;Node12</title>
<g id="a_edge26_Node000008_Node000012"><a xlink:title=" ">
<path fill="none" stroke="#63b8ff" d="M1088.18,-131.96C1087.22,-116.76 1087.48,-84.85 1104,-66 1136.51,-28.9 1162.75,-47.17 1209,-30 1210.42,-29.47 1211.87,-28.93 1213.33,-28.37"/>
<polygon fill="#63b8ff" stroke="#63b8ff" points="1214.92,-31.51 1222.97,-24.61 1212.38,-24.98 1214.92,-31.51"/>
</a>
</g>
</g>
<!-- Node14 -->
<g id="Node000014" class="node">
<title>Node14</title>
<g id="a_Node000014"><a xlink:href="array_8hpp.html" target="_top" xlink:title=" ">
<polygon fill="white" stroke="#666666" points="775.5,-90.5 650.5,-90.5 650.5,-71.5 775.5,-71.5 775.5,-90.5"/>
<text text-anchor="middle" x="713" y="-78.5" font-family="Helvetica,sans-Serif" font-size="10.00">serialization/array.hpp</text>
</a>
</g>
</g>
<!-- Node8&#45;&gt;Node14 -->
<g id="edge14_Node000008_Node000014" class="edge">
<title>Node8&#45;&gt;Node14</title>
<g id="a_edge14_Node000008_Node000014"><a xlink:title=" ">
<path fill="none" stroke="#63b8ff" d="M1045.88,-133.4C1042.87,-132.92 1039.89,-132.45 1037,-132 928.68,-115.16 901.22,-113.45 793,-96 785.64,-94.81 777.92,-93.52 770.28,-92.22"/>
<polygon fill="#63b8ff" stroke="#63b8ff" points="770.79,-88.75 760.34,-90.5 769.6,-95.65 770.79,-88.75"/>
</a>
</g>
</g>
<!-- Node23 -->
<g id="Node000023" class="node">
<title>Node23</title>
<g id="a_Node000023"><a xlink:title=" ">
<polygon fill="#e0e0e0" stroke="#999999" points="909.5,-96 802.5,-96 802.5,-66 909.5,-66 909.5,-96"/>
<text text-anchor="start" x="810.5" y="-84" font-family="Helvetica,sans-Serif" font-size="10.00">boost/serialization</text>
<text text-anchor="middle" x="856" y="-73" font-family="Helvetica,sans-Serif" font-size="10.00">/access.hpp</text>
</a>
</g>
</g>
<!-- Node8&#45;&gt;Node23 -->
<g id="edge24_Node000008_Node000023" class="edge">
<title>Node8&#45;&gt;Node23</title>
<g id="a_edge24_Node000008_Node000023"><a xlink:title=" ">
<path fill="none" stroke="#63b8ff" d="M1055.12,-131.99C1019.76,-123.12 963.47,-108.98 919.75,-98.01"/>
<polygon fill="#63b8ff" stroke="#63b8ff" points="920.33,-94.54 909.78,-95.5 918.62,-101.33 920.33,-94.54"/>
</a>
</g>
</g>
<!-- Node8&#45;&gt;Node24 -->
<g id="edge27_Node000008_Node000024" class="edge">
<title>Node8&#45;&gt;Node24</title>
<g id="a_edge27_Node000008_Node000024"><a xlink:title=" ">
<path fill="none" stroke="#63b8ff" d="M1045.92,-133.1C1042.9,-132.7 1039.91,-132.32 1037,-132 763.53,-101.77 689.84,-144.39 419,-96 415.05,-95.29 410.95,-94.36 406.91,-93.3"/>
<polygon fill="#63b8ff" stroke="#63b8ff" points="407.66,-89.88 397.09,-90.51 405.75,-96.61 407.66,-89.88"/>
</a>
</g>
</g>
<!-- Node25 -->
<g id="Node000025" class="node">
<title>Node25</title>
<g id="a_Node000025"><a xlink:title=" ">
<polygon fill="#e0e0e0" stroke="#999999" points="984.5,-90.5 927.5,-90.5 927.5,-71.5 984.5,-71.5 984.5,-90.5"/>
<text text-anchor="middle" x="956" y="-78.5" font-family="Helvetica,sans-Serif" font-size="10.00">ostream</text>
</a>
</g>
</g>
<!-- Node8&#45;&gt;Node25 -->
<g id="edge28_Node000008_Node000025" class="edge">
<title>Node8&#45;&gt;Node25</title>
<g id="a_edge28_Node000008_Node000025"><a xlink:title=" ">
<path fill="none" stroke="#63b8ff" d="M1069.66,-131.99C1047.3,-122.16 1010.29,-105.88 984.6,-94.58"/>
<polygon fill="#63b8ff" stroke="#63b8ff" points="985.93,-91.34 975.36,-90.52 983.11,-97.75 985.93,-91.34"/>
</a>
</g>
</g>
<!-- Node8&#45;&gt;Node26 -->
<g id="edge29_Node000008_Node000026" class="edge">
<title>Node8&#45;&gt;Node26</title>
<g id="a_edge29_Node000008_Node000026"><a xlink:title=" ">
<path fill="none" stroke="#63b8ff" d="M1097.26,-131.87C1105.78,-122.97 1119.26,-108.89 1129.73,-97.95"/>
<polygon fill="#63b8ff" stroke="#63b8ff" points="1132.32,-100.31 1136.7,-90.67 1127.26,-95.47 1132.32,-100.31"/>
</a>
</g>
</g>
<!-- Node9&#45;&gt;Node10 -->
<g id="edge10_Node000009_Node000010" class="edge">
<title>Node9&#45;&gt;Node10</title>
<g id="a_edge10_Node000009_Node000010"><a xlink:title=" ">
<path fill="none" stroke="#63b8ff" d="M498.91,-72.29C482.19,-70.13 463.88,-67.87 447,-66 275.75,-47.02 228.49,-70.41 61,-30 58.69,-29.44 56.33,-28.76 53.99,-28.01"/>
<polygon fill="#63b8ff" stroke="#63b8ff" points="55.16,-24.71 44.57,-24.58 52.77,-31.28 55.16,-24.71"/>
</a>
</g>
</g>
<!-- Node11&#45;&gt;Node12 -->
<g id="edge12_Node000011_Node000012" class="edge">
<title>Node11&#45;&gt;Node12</title>
<g id="a_edge12_Node000011_Node000012"><a xlink:title=" ">
<path fill="none" stroke="#63b8ff" d="M1053.18,-71.4C1058.69,-69.54 1064.52,-67.64 1070,-66 1131.13,-47.68 1148.36,-49.89 1209,-30 1210.67,-29.45 1212.37,-28.87 1214.08,-28.26"/>
<polygon fill="#63b8ff" stroke="#63b8ff" points="1215.68,-31.39 1223.8,-24.59 1213.21,-24.84 1215.68,-31.39"/>
</a>
</g>
</g>
<!-- Node13 -->
<g id="Node000013" class="node">
<title>Node13</title>
<g id="a_Node000013"><a xlink:title=" ">
<polygon fill="#e0e0e0" stroke="#999999" points="1199.5,-24.5 1158.5,-24.5 1158.5,-5.5 1199.5,-5.5 1199.5,-24.5"/>
<text text-anchor="middle" x="1179" y="-12.5" font-family="Helvetica,sans-Serif" font-size="10.00">tuple</text>
</a>
</g>
</g>
<!-- Node11&#45;&gt;Node13 -->
<g id="edge13_Node000011_Node000013" class="edge">
<title>Node11&#45;&gt;Node13</title>
<g id="a_edge13_Node000011_Node000013"><a xlink:title=" ">
<path fill="none" stroke="#63b8ff" d="M1050.36,-71.42C1074.44,-61.66 1114.73,-45.13 1149,-30 1149.85,-29.62 1150.71,-29.24 1151.59,-28.85"/>
<polygon fill="#63b8ff" stroke="#63b8ff" points="1153.33,-31.9 1160.97,-24.56 1150.42,-25.53 1153.33,-31.9"/>
</a>
</g>
</g>
<!-- Node14&#45;&gt;Node12 -->
<g id="edge23_Node000014_Node000012" class="edge">
<title>Node14&#45;&gt;Node12</title>
<g id="a_edge23_Node000014_Node000012"><a xlink:title=" ">
<path fill="none" stroke="#63b8ff" d="M757.74,-71.46C769.21,-69.47 781.54,-67.5 793,-66 977.02,-41.98 1028.45,-72.92 1209,-30 1211.31,-29.45 1213.67,-28.78 1216.01,-28.02"/>
<polygon fill="#63b8ff" stroke="#63b8ff" points="1217.24,-31.3 1225.44,-24.6 1214.85,-24.72 1217.24,-31.3"/>
</a>
</g>
</g>
<!-- Node15 -->
<g id="Node000015" class="node">
<title>Node15</title>
<g id="a_Node000015"><a xlink:title=" ">
<polygon fill="#e0e0e0" stroke="#999999" points="877.5,-24.5 744.5,-24.5 744.5,-5.5 877.5,-5.5 877.5,-24.5"/>
<text text-anchor="middle" x="811" y="-12.5" font-family="Helvetica,sans-Serif" font-size="10.00">boost/mpl/bool_fwd.hpp</text>
</a>
</g>
</g>
<!-- Node14&#45;&gt;Node15 -->
<g id="edge15_Node000014_Node000015" class="edge">
<title>Node14&#45;&gt;Node15</title>
<g id="a_edge15_Node000014_Node000015"><a xlink:title=" ">
<path fill="none" stroke="#63b8ff" d="M726.22,-71.37C742.36,-60.82 769.91,-42.84 789.21,-30.23"/>
<polygon fill="#63b8ff" stroke="#63b8ff" points="791.22,-33.1 797.68,-24.7 787.39,-27.24 791.22,-33.1"/>
</a>
</g>
</g>
<!-- Node16 -->
<g id="Node000016" class="node">
<title>Node16</title>
<g id="a_Node000016"><a xlink:title=" ">
<polygon fill="#e0e0e0" stroke="#999999" points="1020,-24.5 896,-24.5 896,-5.5 1020,-5.5 1020,-24.5"/>
<text text-anchor="middle" x="958" y="-12.5" font-family="Helvetica,sans-Serif" font-size="10.00">boost/mpl/greater.hpp</text>
</a>
</g>
</g>
<!-- Node14&#45;&gt;Node16 -->
<g id="edge16_Node000014_Node000016" class="edge">
<title>Node14&#45;&gt;Node16</title>
<g id="a_edge16_Node000014_Node000016"><a xlink:title=" ">
<path fill="none" stroke="#63b8ff" d="M745.79,-71.44C789.61,-59.99 867.34,-39.68 915.58,-27.08"/>
<polygon fill="#63b8ff" stroke="#63b8ff" points="916.62,-30.43 925.41,-24.51 914.85,-23.66 916.62,-30.43"/>
</a>
</g>
</g>
<!-- Node17 -->
<g id="Node000017" class="node">
<title>Node17</title>
<g id="a_Node000017"><a xlink:title=" ">
<polygon fill="#e0e0e0" stroke="#999999" points="1140,-24.5 1038,-24.5 1038,-5.5 1140,-5.5 1140,-24.5"/>
<text text-anchor="middle" x="1089" y="-12.5" font-family="Helvetica,sans-Serif" font-size="10.00">boost/mpl/int.hpp</text>
</a>
</g>
</g>
<!-- Node14&#45;&gt;Node17 -->
<g id="edge17_Node000014_Node000017" class="edge">
<title>Node14&#45;&gt;Node17</title>
<g id="a_edge17_Node000014_Node000017"><a xlink:title=" ">
<path fill="none" stroke="#63b8ff" d="M760.77,-71.46C771.38,-69.62 782.56,-67.71 793,-66 897.71,-48.85 924.81,-50.07 1029,-30 1034.06,-29.03 1039.33,-27.92 1044.57,-26.77"/>
<polygon fill="#63b8ff" stroke="#63b8ff" points="1045.53,-30.15 1054.51,-24.53 1043.99,-23.32 1045.53,-30.15"/>
</a>
</g>
</g>
<!-- Node18 -->
<g id="Node000018" class="node">
<title>Node18</title>
<g id="a_Node000018"><a xlink:title=" ">
<polygon fill="#e0e0e0" stroke="#999999" points="176,-30 70,-30 70,0 176,0 176,-30"/>
<text text-anchor="start" x="78" y="-18" font-family="Helvetica,sans-Serif" font-size="10.00">boost/mpl/integral</text>
<text text-anchor="middle" x="123" y="-7" font-family="Helvetica,sans-Serif" font-size="10.00">_c_tag.hpp</text>
</a>
</g>
</g>
<!-- Node14&#45;&gt;Node18 -->
<g id="edge18_Node000014_Node000018" class="edge">
<title>Node14&#45;&gt;Node18</title>
<g id="a_edge18_Node000014_Node000018"><a xlink:title=" ">
<path fill="none" stroke="#63b8ff" d="M661.59,-71.44C648.69,-69.48 634.86,-67.52 622,-66 431.67,-43.55 379.36,-59 185.93,-29.99"/>
<polygon fill="#63b8ff" stroke="#63b8ff" points="186.42,-26.52 176.01,-28.48 185.37,-33.44 186.42,-26.52"/>
</a>
</g>
</g>
<!-- Node19 -->
<g id="Node000019" class="node">
<title>Node19</title>
<g id="a_Node000019"><a xlink:title=" ">
<polygon fill="#e0e0e0" stroke="#999999" points="345.5,-30 194.5,-30 194.5,0 345.5,0 345.5,-30"/>
<text text-anchor="start" x="202.5" y="-18" font-family="Helvetica,sans-Serif" font-size="10.00">boost/serialization</text>
<text text-anchor="middle" x="270" y="-7" font-family="Helvetica,sans-Serif" font-size="10.00">/is_bitwise_serializable.hpp</text>
</a>
</g>
</g>
<!-- Node14&#45;&gt;Node19 -->
<g id="edge19_Node000014_Node000019" class="edge">
<title>Node14&#45;&gt;Node19</title>
<g id="a_edge19_Node000014_Node000019"><a xlink:title=" ">
<path fill="none" stroke="#63b8ff" d="M658.65,-71.46C646.59,-69.62 633.87,-67.71 622,-66 506.3,-49.33 474.56,-47.95 355.77,-30.24"/>
<polygon fill="#63b8ff" stroke="#63b8ff" points="355.95,-26.73 345.54,-28.71 354.91,-33.65 355.95,-26.73"/>
</a>
</g>
</g>
<!-- Node20 -->
<g id="Node000020" class="node">
<title>Node20</title>
<g id="a_Node000020"><a xlink:title=" ">
<polygon fill="#e0e0e0" stroke="#999999" points="470.5,-30 363.5,-30 363.5,0 470.5,0 470.5,-30"/>
<text text-anchor="start" x="371.5" y="-18" font-family="Helvetica,sans-Serif" font-size="10.00">boost/serialization</text>
<text text-anchor="middle" x="417" y="-7" font-family="Helvetica,sans-Serif" font-size="10.00">/level.hpp</text>
</a>
</g>
</g>
<!-- Node14&#45;&gt;Node20 -->
<g id="edge20_Node000014_Node000020" class="edge">
<title>Node14&#45;&gt;Node20</title>
<g id="a_edge20_Node000014_Node000020"><a xlink:title=" ">
<path fill="none" stroke="#63b8ff" d="M672.39,-71.47C627.7,-62.05 553.48,-46.31 480.57,-30.33"/>
<polygon fill="#63b8ff" stroke="#63b8ff" points="481.28,-26.91 470.76,-28.18 479.78,-33.74 481.28,-26.91"/>
</a>
</g>
</g>
<!-- Node21 -->
<g id="Node000021" class="node">
<title>Node21</title>
<g id="a_Node000021"><a xlink:title=" ">
<polygon fill="#e0e0e0" stroke="#999999" points="595.5,-30 488.5,-30 488.5,0 595.5,0 595.5,-30"/>
<text text-anchor="start" x="496.5" y="-18" font-family="Helvetica,sans-Serif" font-size="10.00">boost/serialization</text>
<text text-anchor="middle" x="542" y="-7" font-family="Helvetica,sans-Serif" font-size="10.00">/tracking.hpp</text>
</a>
</g>
</g>
<!-- Node14&#45;&gt;Node21 -->
<g id="edge21_Node000014_Node000021" class="edge">
<title>Node14&#45;&gt;Node21</title>
<g id="a_edge21_Node000014_Node000021"><a xlink:title=" ">
<path fill="none" stroke="#63b8ff" d="M689.94,-71.37C664.22,-61.74 621.92,-45.91 589.12,-33.64"/>
<polygon fill="#63b8ff" stroke="#63b8ff" points="590.31,-30.34 579.72,-30.12 587.85,-36.9 590.31,-30.34"/>
</a>
</g>
</g>
<!-- Node22 -->
<g id="Node000022" class="node">
<title>Node22</title>
<g id="a_Node000022"><a xlink:title=" ">
<polygon fill="#e0e0e0" stroke="#999999" points="726.5,-30 613.5,-30 613.5,0 726.5,0 726.5,-30"/>
<text text-anchor="start" x="621.5" y="-18" font-family="Helvetica,sans-Serif" font-size="10.00">boost/serialization</text>
<text text-anchor="middle" x="670" y="-7" font-family="Helvetica,sans-Serif" font-size="10.00">/tracking_enum.hpp</text>
</a>
</g>
</g>
<!-- Node14&#45;&gt;Node22 -->
<g id="edge22_Node000014_Node000022" class="edge">
<title>Node14&#45;&gt;Node22</title>
<g id="a_edge22_Node000014_Node000022"><a xlink:title=" ">
<path fill="none" stroke="#63b8ff" d="M707.2,-71.37C701.63,-63.08 692.97,-50.18 685.4,-38.92"/>
<polygon fill="#63b8ff" stroke="#63b8ff" points="688.13,-36.71 679.65,-30.36 682.32,-40.61 688.13,-36.71"/>
</a>
</g>
</g>
<!-- Node36&#45;&gt;Node5 -->
<g id="edge47_Node000036_Node000005" class="edge">
<title>Node36&#45;&gt;Node5</title>
<g id="a_edge47_Node000036_Node000005"><a xlink:title=" ">
<path fill="none" stroke="#63b8ff" d="M1037.52,-252.99C1014.99,-243.16 977.69,-226.88 951.81,-215.58"/>
<polygon fill="#63b8ff" stroke="#63b8ff" points="953.07,-212.31 942.51,-211.52 950.27,-218.73 953.07,-212.31"/>
</a>
</g>
</g>
<!-- Node36&#45;&gt;Node8 -->
<g id="edge46_Node000036_Node000008" class="edge">
<title>Node36&#45;&gt;Node8</title>
<g id="a_edge46_Node000036_Node000008"><a xlink:title=" ">
<path fill="none" stroke="#63b8ff" d="M1045.36,-252.73C1035.69,-244.67 1022.65,-231.74 1017,-217 1012.23,-204.55 1010.51,-198.65 1017,-187 1025.04,-172.58 1039.9,-162.24 1054.04,-155.18"/>
<polygon fill="#63b8ff" stroke="#63b8ff" points="1055.51,-158.36 1063.15,-151.01 1052.6,-151.99 1055.51,-158.36"/>
</a>
</g>
</g>
<!-- Node37 -->
<g id="Node000037" class="node">
<title>Node37</title>
<g id="a_Node000037"><a xlink:href="CellStructureType_8hpp.html" target="_top" xlink:title=" ">
<polygon fill="white" stroke="#666666" points="1166.5,-217 1025.5,-217 1025.5,-187 1166.5,-187 1166.5,-217"/>
<text text-anchor="start" x="1033.5" y="-205" font-family="Helvetica,sans-Serif" font-size="10.00">cell_system/CellStructure</text>
<text text-anchor="middle" x="1096" y="-194" font-family="Helvetica,sans-Serif" font-size="10.00">Type.hpp</text>
</a>
</g>
</g>
<!-- Node36&#45;&gt;Node37 -->
<g id="edge45_Node000036_Node000037" class="edge">
<title>Node36&#45;&gt;Node37</title>
<g id="a_edge45_Node000036_Node000037"><a xlink:title=" ">
<path fill="none" stroke="#63b8ff" d="M1062.75,-252.87C1067.56,-245.67 1074.62,-235.07 1081,-225.49"/>
<polygon fill="#63b8ff" stroke="#63b8ff" points="1083.96,-227.38 1086.59,-217.11 1078.13,-223.49 1083.96,-227.38"/>
</a>
</g>
</g>
</g>
</svg>

<g id="navigator" transform="translate(0 0)" fill="#404254">
  <rect fill="#f2f5e9" fill-opacity="0.5" stroke="#606060" stroke-width=".5" x="0" y="0" width="60" height="60"/>
  <use id="zoomplus" xlink:href="#zoomPlus" x="17" y="9" onmousedown="handleZoom(evt,'in')"/>
  <use id="zoomminus" xlink:href="#zoomMin" x="42" y="9" onmousedown="handleZoom(evt,'out')"/>
  <use id="reset" xlink:href="#resetDef" x="30" y="36" onmousedown="handleReset()"/>
   <use id="arrowup" xlink:href="#arrowUp" x="0" y="0" onmousedown="handlePan(0,-1)"/>
  <use id="arrowright" xlink:href="#arrowRight" x="0" y="0" onmousedown="handlePan(1,0)"/>
  <use id="arrowdown" xlink:href="#arrowDown" x="0" y="0" onmousedown="handlePan(0,1)"/>
  <use id="arrowleft" xlink:href="#arrowLeft" x="0" y="0" onmousedown="handlePan(-1,0)"/>
</g>
<svg viewBox="0 0 15 15" width="100%" height="30px" preserveAspectRatio="xMaxYMin meet">
 <g id="arrow_out" transform="scale(0.3 0.3)">
  <a xlink:href="send__mesh_8hpp__incl_org.svg" target="_base">
   <rect id="button" ry="5" rx="5" y="6" x="6" height="38" width="38"
        fill="#f2f5e9" fill-opacity="0.5" stroke="#606060" stroke-width="1.0"/>
   <path id="arrow"
     d="M 11.500037,31.436501 C 11.940474,20.09759 22.043105,11.32322 32.158766,21.979434 L 37.068811,17.246167 C 37.068811,17.246167 37.088388,32 37.088388,32 L 22.160133,31.978069 C 22.160133,31.978069 26.997745,27.140456 26.997745,27.140456 C 18.528582,18.264221 13.291696,25.230495 11.500037,31.436501 z"
     style="fill:#404040;"/>
  </a>
 </g>
</svg>

<style type='text/css'>
<![CDATA[
[data-mouse-over-selected='false'] { opacity: 0.7; }
[data-mouse-over-selected='true']  { opacity: 1.0; }
]]>
</style>
<script type="application/ecmascript"><![CDATA[
document.addEventListener('DOMContentLoaded', (event) => {
  highlightEdges();
  highlightAdjacentNodes();
});
]]></script>
</svg>
