<?xml version="1.0" encoding="UTF-8" standalone="no"?>
<!DOCTYPE svg PUBLIC "-//W3C//DTD SVG 1.1//EN"
 "http://www.w3.org/Graphics/SVG/1.1/DTD/svg11.dtd">
<!-- Generated by graphviz version 2.43.0 (0)
 -->
<!-- Title: HollowConicalFrustum.hpp Pages: 1 -->
<!--zoomable 401 -->

<svg id="main" version="1.1" xmlns="http://www.w3.org/2000/svg" xmlns:xlink="http://www.w3.org/1999/xlink" xml:space="preserve" onload="init(evt)">
<style type="text/css"><![CDATA[
.node, .edge {opacity: 0.7;}
.node.selected, .edge.selected {opacity: 1;}
.edge:hover path { stroke: red; }
.edge:hover polygon { stroke: red; fill: red; }
]]></style>

<defs>
  <circle id="rim" cx="0" cy="0" r="7"/>
  <circle id="rim2" cx="0" cy="0" r="3.5"/>
  <g id="zoomPlus">
    <use xlink:href="#rim" fill="#404040"><set attributeName="fill" to="#808080" begin="zoomplus.mouseover" end="zoomplus.mouseout"/></use>
    <path d="M-4,0h8M0,-4v8" fill="none" stroke="white" stroke-width="1.5" pointer-events="none"/>
  </g>
  <g id="zoomMin">
    <use xlink:href="#rim" fill="#404040"><set attributeName="fill" to="#808080" begin="zoomminus.mouseover" end="zoomminus.mouseout"/></use>
    <path d="M-4,0h8" fill="none" stroke="white" stroke-width="1.5" pointer-events="none"/>
  </g>
  <g id="arrowUp" transform="translate(30 24)">
    <use xlink:href="#rim"/>
    <path pointer-events="none" fill="none" stroke="white" stroke-width="1.5" d="M0,-3.0v7 M-2.5,-0.5L0,-3.0L2.5,-0.5"/>
  </g>
  <g id="arrowRight" transform="rotate(90) translate(36 -43)">
    <use xlink:href="#rim"/>
    <path pointer-events="none" fill="none" stroke="white" stroke-width="1.5" d="M0,-3.0v7 M-2.5,-0.5L0,-3.0L2.5,-0.5"/>
  </g>
  <g id="arrowDown" transform="rotate(180) translate(-30 -48)">
    <use xlink:href="#rim"/>
    <path pointer-events="none" fill="none" stroke="white" stroke-width="1.5" d="M0,-3.0v7 M-2.5,-0.5L0,-3.0L2.5,-0.5"/>
  </g>
  <g id="arrowLeft" transform="rotate(270) translate(-36 17)">
    <use xlink:href="#rim"/>
    <path pointer-events="none" fill="none" stroke="white" stroke-width="1.5" d="M0,-3.0v7 M-2.5,-0.5L0,-3.0L2.5,-0.5"/>
  </g>
  <g id="resetDef">
    <use xlink:href="#rim2" fill="#404040"><set attributeName="fill" to="#808080" begin="reset.mouseover" end="reset.mouseout"/></use>
  </g>
</defs>
<script type="application/ecmascript">
var viewWidth = 1461;
var viewHeight = 401;
var sectionId = 'dynsection-0';
</script>
<script type="application/ecmascript" xlink:href="svg.min.js"/>
<svg id="graph" class="graph">
<g id="viewport">
<title>HollowConicalFrustum.hpp</title>
<!-- Node1 -->
<g id="Node000001" class="node">
<title>Node1</title>
<g id="a_Node000001"><a xlink:title=" ">
<polygon fill="#999999" stroke="#666666" points="1164,-393 1017,-393 1017,-374 1164,-374 1164,-393"/>
<text text-anchor="middle" x="1090.5" y="-381" font-family="Helvetica,sans-Serif" font-size="10.00">HollowConicalFrustum.hpp</text>
</a>
</g>
</g>
<!-- Node2 -->
<g id="Node000002" class="node">
<title>Node2</title>
<g id="a_Node000002"><a xlink:href="shapes_2include_2shapes_2Shape_8hpp.html" target="_top" xlink:title=" ">
<polygon fill="white" stroke="#666666" points="828.5,-266.5 760.5,-266.5 760.5,-247.5 828.5,-247.5 828.5,-266.5"/>
<text text-anchor="middle" x="794.5" y="-254.5" font-family="Helvetica,sans-Serif" font-size="10.00">Shape.hpp</text>
</a>
</g>
</g>
<!-- Node1&#45;&gt;Node2 -->
<g id="edge1_Node000001_Node000002" class="edge">
<title>Node1&#45;&gt;Node2</title>
<g id="a_edge1_Node000001_Node000002"><a xlink:title=" ">
<path fill="none" stroke="#63b8ff" d="M1070.15,-373.94C1018.93,-352.4 884.46,-295.84 824.31,-270.54"/>
<polygon fill="#63b8ff" stroke="#63b8ff" points="825.56,-267.27 814.99,-266.62 822.85,-273.72 825.56,-267.27"/>
</a>
</g>
</g>
<!-- Node3 -->
<g id="Node000003" class="node">
<title>Node3</title>
<g id="a_Node000003"><a xlink:href="Vector_8hpp.html" target="_top" xlink:title="Vector implementation and trait types for boost qvm interoperability.">
<polygon fill="white" stroke="#666666" points="840.5,-206 748.5,-206 748.5,-187 840.5,-187 840.5,-206"/>
<text text-anchor="middle" x="794.5" y="-194" font-family="Helvetica,sans-Serif" font-size="10.00">utils/Vector.hpp</text>
</a>
</g>
</g>
<!-- Node1&#45;&gt;Node3 -->
<g id="edge40_Node000001_Node000003" class="edge">
<title>Node1&#45;&gt;Node3</title>
<g id="a_edge40_Node000001_Node000003"><a xlink:title=" ">
<path fill="none" stroke="#63b8ff" d="M1076.62,-373.83C1029.52,-344.39 875.5,-248.13 817.17,-211.67"/>
<polygon fill="#63b8ff" stroke="#63b8ff" points="818.68,-208.49 808.35,-206.16 814.97,-214.42 818.68,-208.49"/>
</a>
</g>
</g>
<!-- Node24 -->
<g id="Node000024" class="node">
<title>Node24</title>
<g id="a_Node000024"><a xlink:title=" ">
<polygon fill="#e0e0e0" stroke="#999999" points="1132,-90.5 1087,-90.5 1087,-71.5 1132,-71.5 1132,-90.5"/>
<text text-anchor="middle" x="1109.5" y="-78.5" font-family="Helvetica,sans-Serif" font-size="10.00">utility</text>
</a>
</g>
</g>
<!-- Node1&#45;&gt;Node24 -->
<g id="edge51_Node000001_Node000024" class="edge">
<title>Node1&#45;&gt;Node24</title>
<g id="a_edge51_Node000001_Node000024"><a xlink:title=" ">
<path fill="none" stroke="#63b8ff" d="M1089.56,-373.85C1087.46,-350.65 1084.47,-285.86 1110.5,-242 1145.03,-183.83 1202.17,-211.46 1232.5,-151 1261.28,-93.63 1160.54,-103.93 1141.5,-96 1140.33,-95.51 1139.15,-95.02 1137.95,-94.51"/>
<polygon fill="#63b8ff" stroke="#63b8ff" points="1139.31,-91.29 1128.74,-90.55 1136.55,-97.72 1139.31,-91.29"/>
</a>
</g>
</g>
<!-- Node35 -->
<g id="Node000035" class="node">
<title>Node35</title>
<g id="a_Node000035"><a xlink:href="cylindrical__transformation__parameters_8hpp.html" target="_top" xlink:title=" ">
<polygon fill="white" stroke="#666666" points="1377,-338 1200,-338 1200,-308 1377,-308 1377,-338"/>
<text text-anchor="start" x="1208" y="-326" font-family="Helvetica,sans-Serif" font-size="10.00">utils/math/cylindrical</text>
<text text-anchor="middle" x="1288.5" y="-315" font-family="Helvetica,sans-Serif" font-size="10.00">_transformation_parameters.hpp</text>
</a>
</g>
</g>
<!-- Node1&#45;&gt;Node35 -->
<g id="edge41_Node000001_Node000035" class="edge">
<title>Node1&#45;&gt;Node35</title>
<g id="a_edge41_Node000001_Node000035"><a xlink:title=" ">
<path fill="none" stroke="#63b8ff" d="M1119.29,-373.99C1148.53,-365.35 1194.61,-351.74 1231.3,-340.9"/>
<polygon fill="#63b8ff" stroke="#63b8ff" points="1232.3,-344.25 1240.9,-338.06 1230.32,-337.54 1232.3,-344.25"/>
</a>
</g>
</g>
<!-- Node40 -->
<g id="Node000040" class="node">
<title>Node40</title>
<g id="a_Node000040"><a xlink:title=" ">
<polygon fill="#e0e0e0" stroke="#999999" points="1452.5,-332.5 1394.5,-332.5 1394.5,-313.5 1452.5,-313.5 1452.5,-332.5"/>
<text text-anchor="middle" x="1423.5" y="-320.5" font-family="Helvetica,sans-Serif" font-size="10.00">memory</text>
</a>
</g>
</g>
<!-- Node1&#45;&gt;Node40 -->
<g id="edge50_Node000001_Node000040" class="edge">
<title>Node1&#45;&gt;Node40</title>
<g id="a_edge50_Node000001_Node000040"><a xlink:title=" ">
<path fill="none" stroke="#63b8ff" d="M1164.06,-375.83C1224.49,-369.31 1311.96,-357.47 1386.5,-338 1388.8,-337.4 1391.15,-336.71 1393.5,-335.95"/>
<polygon fill="#63b8ff" stroke="#63b8ff" points="1394.72,-339.24 1403.01,-332.64 1392.41,-332.63 1394.72,-339.24"/>
</a>
</g>
</g>
<!-- Node2&#45;&gt;Node3 -->
<g id="edge2_Node000002_Node000003" class="edge">
<title>Node2&#45;&gt;Node3</title>
<g id="a_edge2_Node000002_Node000003"><a xlink:title=" ">
<path fill="none" stroke="#63b8ff" d="M794.5,-247.37C794.5,-239.25 794.5,-226.81 794.5,-216.39"/>
<polygon fill="#63b8ff" stroke="#63b8ff" points="798,-216.17 794.5,-206.17 791,-216.17 798,-216.17"/>
</a>
</g>
</g>
<!-- Node34 -->
<g id="Node000034" class="node">
<title>Node34</title>
<g id="a_Node000034"><a xlink:title=" ">
<polygon fill="#e0e0e0" stroke="#999999" points="47,-151 0,-151 0,-132 47,-132 47,-151"/>
<text text-anchor="middle" x="23.5" y="-139" font-family="Helvetica,sans-Serif" font-size="10.00">vector</text>
</a>
</g>
</g>
<!-- Node2&#45;&gt;Node34 -->
<g id="edge39_Node000002_Node000034" class="edge">
<title>Node2&#45;&gt;Node34</title>
<g id="a_edge39_Node000002_Node000034"><a xlink:title=" ">
<path fill="none" stroke="#63b8ff" d="M760.44,-252.51C656.39,-241.58 333.58,-205.52 57.44,-150.98"/>
<polygon fill="#63b8ff" stroke="#63b8ff" points="57.71,-147.46 47.22,-148.94 56.35,-154.33 57.71,-147.46"/>
</a>
</g>
</g>
<!-- Node4 -->
<g id="Node000004" class="node">
<title>Node4</title>
<g id="a_Node000004"><a xlink:title=" ">
<polygon fill="#e0e0e0" stroke="#999999" points="502.5,-151 352.5,-151 352.5,-132 502.5,-132 502.5,-151"/>
<text text-anchor="middle" x="427.5" y="-139" font-family="Helvetica,sans-Serif" font-size="10.00">boost/qvm/deduce_vec.hpp</text>
</a>
</g>
</g>
<!-- Node3&#45;&gt;Node4 -->
<g id="edge3_Node000003_Node000004" class="edge">
<title>Node3&#45;&gt;Node4</title>
<g id="a_edge3_Node000003_Node000004"><a xlink:title=" ">
<path fill="none" stroke="#63b8ff" d="M748.39,-188.84C684.96,-179.68 570.27,-163.12 496.57,-152.47"/>
<polygon fill="#63b8ff" stroke="#63b8ff" points="496.85,-148.98 486.45,-151.01 495.85,-155.91 496.85,-148.98"/>
</a>
</g>
</g>
<!-- Node5 -->
<g id="Node000005" class="node">
<title>Node5</title>
<g id="a_Node000005"><a xlink:title=" ">
<polygon fill="#e0e0e0" stroke="#999999" points="660.5,-151 520.5,-151 520.5,-132 660.5,-132 660.5,-151"/>
<text text-anchor="middle" x="590.5" y="-139" font-family="Helvetica,sans-Serif" font-size="10.00">boost/qvm/vec_traits.hpp</text>
</a>
</g>
</g>
<!-- Node3&#45;&gt;Node5 -->
<g id="edge4_Node000003_Node000005" class="edge">
<title>Node3&#45;&gt;Node5</title>
<g id="a_edge4_Node000003_Node000005"><a xlink:title=" ">
<path fill="none" stroke="#63b8ff" d="M761.72,-186.98C726.88,-177.93 671.63,-163.58 633.36,-153.64"/>
<polygon fill="#63b8ff" stroke="#63b8ff" points="634.09,-150.21 623.53,-151.08 632.33,-156.98 634.09,-150.21"/>
</a>
</g>
</g>
<!-- Node6 -->
<g id="Node000006" class="node">
<title>Node6</title>
<g id="a_Node000006"><a xlink:href="Array_8hpp.html" target="_top" xlink:title="Array implementation with CUDA support.">
<polygon fill="white" stroke="#666666" points="802.5,-151 716.5,-151 716.5,-132 802.5,-132 802.5,-151"/>
<text text-anchor="middle" x="759.5" y="-139" font-family="Helvetica,sans-Serif" font-size="10.00">utils/Array.hpp</text>
</a>
</g>
</g>
<!-- Node3&#45;&gt;Node6 -->
<g id="edge5_Node000003_Node000006" class="edge">
<title>Node3&#45;&gt;Node6</title>
<g id="a_edge5_Node000003_Node000006"><a xlink:title=" ">
<path fill="none" stroke="#63b8ff" d="M788.72,-186.75C783.88,-179.42 776.82,-168.73 770.86,-159.7"/>
<polygon fill="#63b8ff" stroke="#63b8ff" points="773.6,-157.5 765.17,-151.09 767.76,-161.36 773.6,-157.5"/>
</a>
</g>
</g>
<!-- Node8 -->
<g id="Node000008" class="node">
<title>Node8</title>
<g id="a_Node000008"><a xlink:title=" ">
<polygon fill="#e0e0e0" stroke="#999999" points="261.5,-24.5 209.5,-24.5 209.5,-5.5 261.5,-5.5 261.5,-24.5"/>
<text text-anchor="middle" x="235.5" y="-12.5" font-family="Helvetica,sans-Serif" font-size="10.00">cassert</text>
</a>
</g>
</g>
<!-- Node3&#45;&gt;Node8 -->
<g id="edge27_Node000003_Node000008" class="edge">
<title>Node3&#45;&gt;Node8</title>
<g id="a_edge27_Node000003_Node000008"><a xlink:title=" ">
<path fill="none" stroke="#63b8ff" d="M777.61,-186.88C743.81,-169.62 670.93,-132.44 669.5,-132 551.74,-95.56 512.33,-132.21 394.5,-96 342.79,-80.11 287.45,-48.54 257.63,-30.17"/>
<polygon fill="#63b8ff" stroke="#63b8ff" points="259.21,-27.03 248.88,-24.71 255.51,-32.97 259.21,-27.03"/>
</a>
</g>
</g>
<!-- Node18 -->
<g id="Node000018" class="node">
<title>Node18</title>
<g id="a_Node000018"><a xlink:title=" ">
<polygon fill="#e0e0e0" stroke="#999999" points="1421,-24.5 1368,-24.5 1368,-5.5 1421,-5.5 1421,-24.5"/>
<text text-anchor="middle" x="1394.5" y="-12.5" font-family="Helvetica,sans-Serif" font-size="10.00">cstddef</text>
</a>
</g>
</g>
<!-- Node3&#45;&gt;Node18 -->
<g id="edge30_Node000003_Node000018" class="edge">
<title>Node3&#45;&gt;Node18</title>
<g id="a_edge30_Node000003_Node000018"><a xlink:title=" ">
<path fill="none" stroke="#63b8ff" d="M805.73,-186.79C826.38,-170.96 869.89,-138.48 887.5,-132 1028.85,-79.96 1079.45,-136.63 1224.5,-96 1280.01,-80.45 1339.89,-48.25 1371.66,-29.79"/>
<polygon fill="#63b8ff" stroke="#63b8ff" points="1373.73,-32.63 1380.58,-24.54 1370.18,-26.6 1373.73,-32.63"/>
</a>
</g>
</g>
<!-- Node20 -->
<g id="Node000020" class="node">
<title>Node20</title>
<g id="a_Node000020"><a xlink:title=" ">
<polygon fill="#e0e0e0" stroke="#999999" points="1069,-90.5 1016,-90.5 1016,-71.5 1069,-71.5 1069,-90.5"/>
<text text-anchor="middle" x="1042.5" y="-78.5" font-family="Helvetica,sans-Serif" font-size="10.00">iterator</text>
</a>
</g>
</g>
<!-- Node3&#45;&gt;Node20 -->
<g id="edge33_Node000003_Node000020" class="edge">
<title>Node3&#45;&gt;Node20</title>
<g id="a_edge33_Node000003_Node000020"><a xlink:title=" ">
<path fill="none" stroke="#63b8ff" d="M800.34,-186.59C809.94,-172.7 830.38,-146.03 854.5,-132 912.64,-98.17 936.94,-114.89 1001.5,-96 1003.96,-95.28 1006.5,-94.5 1009.04,-93.7"/>
<polygon fill="#63b8ff" stroke="#63b8ff" points="1010.36,-96.95 1018.77,-90.5 1008.17,-90.3 1010.36,-96.95"/>
</a>
</g>
</g>
<!-- Node25 -->
<g id="Node000025" class="node">
<title>Node25</title>
<g id="a_Node000025"><a xlink:title=" ">
<polygon fill="#e0e0e0" stroke="#999999" points="960.5,-151 896.5,-151 896.5,-132 960.5,-132 960.5,-151"/>
<text text-anchor="middle" x="928.5" y="-139" font-family="Helvetica,sans-Serif" font-size="10.00">algorithm</text>
</a>
</g>
</g>
<!-- Node3&#45;&gt;Node25 -->
<g id="edge26_Node000003_Node000025" class="edge">
<title>Node3&#45;&gt;Node25</title>
<g id="a_edge26_Node000003_Node000025"><a xlink:title=" ">
<path fill="none" stroke="#63b8ff" d="M816.03,-186.98C837.97,-178.3 872.24,-164.75 897.19,-154.88"/>
<polygon fill="#63b8ff" stroke="#63b8ff" points="898.57,-158.1 906.58,-151.17 895.99,-151.59 898.57,-158.1"/>
</a>
</g>
</g>
<!-- Node26 -->
<g id="Node000026" class="node">
<title>Node26</title>
<g id="a_Node000026"><a xlink:title=" ">
<polygon fill="#e0e0e0" stroke="#999999" points="1328,-151 1281,-151 1281,-132 1328,-132 1328,-151"/>
<text text-anchor="middle" x="1304.5" y="-139" font-family="Helvetica,sans-Serif" font-size="10.00">cmath</text>
</a>
</g>
</g>
<!-- Node3&#45;&gt;Node26 -->
<g id="edge28_Node000003_Node000026" class="edge">
<title>Node3&#45;&gt;Node26</title>
<g id="a_edge28_Node000003_Node000026"><a xlink:title=" ">
<path fill="none" stroke="#63b8ff" d="M840.56,-191.07C920.4,-183.33 1089.66,-166.69 1232.5,-151 1244.98,-149.63 1258.67,-148.04 1270.73,-146.6"/>
<polygon fill="#63b8ff" stroke="#63b8ff" points="1271.33,-150.06 1280.84,-145.39 1270.49,-143.11 1271.33,-150.06"/>
</a>
</g>
</g>
<!-- Node27 -->
<g id="Node000027" class="node">
<title>Node27</title>
<g id="a_Node000027"><a xlink:title=" ">
<polygon fill="#e0e0e0" stroke="#999999" points="1038.5,-151 978.5,-151 978.5,-132 1038.5,-132 1038.5,-151"/>
<text text-anchor="middle" x="1008.5" y="-139" font-family="Helvetica,sans-Serif" font-size="10.00">concepts</text>
</a>
</g>
</g>
<!-- Node3&#45;&gt;Node27 -->
<g id="edge29_Node000003_Node000027" class="edge">
<title>Node3&#45;&gt;Node27</title>
<g id="a_edge29_Node000003_Node000027"><a xlink:title=" ">
<path fill="none" stroke="#63b8ff" d="M828.88,-186.98C867,-177.54 928.41,-162.34 968.62,-152.38"/>
<polygon fill="#63b8ff" stroke="#63b8ff" points="969.49,-155.77 978.35,-149.97 967.8,-148.97 969.49,-155.77"/>
</a>
</g>
</g>
<!-- Node28 -->
<g id="Node000028" class="node">
<title>Node28</title>
<g id="a_Node000028"><a xlink:title=" ">
<polygon fill="#e0e0e0" stroke="#999999" points="1122,-151 1057,-151 1057,-132 1122,-132 1122,-151"/>
<text text-anchor="middle" x="1089.5" y="-139" font-family="Helvetica,sans-Serif" font-size="10.00">functional</text>
</a>
</g>
</g>
<!-- Node3&#45;&gt;Node28 -->
<g id="edge31_Node000003_Node000028" class="edge">
<title>Node3&#45;&gt;Node28</title>
<g id="a_edge31_Node000003_Node000028"><a xlink:title=" ">
<path fill="none" stroke="#63b8ff" d="M840.73,-187.73C889.42,-179.47 968.59,-165.81 1046.91,-151.07"/>
<polygon fill="#63b8ff" stroke="#63b8ff" points="1047.78,-154.47 1056.96,-149.17 1046.48,-147.59 1047.78,-154.47"/>
</a>
</g>
</g>
<!-- Node29 -->
<g id="Node000029" class="node">
<title>Node29</title>
<g id="a_Node000029"><a xlink:title=" ">
<polygon fill="#e0e0e0" stroke="#999999" points="1223,-151 1140,-151 1140,-132 1223,-132 1223,-151"/>
<text text-anchor="middle" x="1181.5" y="-139" font-family="Helvetica,sans-Serif" font-size="10.00">initializer_list</text>
</a>
</g>
</g>
<!-- Node3&#45;&gt;Node29 -->
<g id="edge32_Node000003_Node000029" class="edge">
<title>Node3&#45;&gt;Node29</title>
<g id="a_edge32_Node000003_Node000029"><a xlink:title=" ">
<path fill="none" stroke="#63b8ff" d="M840.64,-189.96C903.66,-182.27 1020.43,-167.58 1129.58,-151.25"/>
<polygon fill="#63b8ff" stroke="#63b8ff" points="1130.41,-154.66 1139.78,-149.71 1129.37,-147.74 1130.41,-154.66"/>
</a>
</g>
</g>
<!-- Node30 -->
<g id="Node000030" class="node">
<title>Node30</title>
<g id="a_Node000030"><a xlink:title=" ">
<polygon fill="#e0e0e0" stroke="#999999" points="121.5,-151 65.5,-151 65.5,-132 121.5,-132 121.5,-151"/>
<text text-anchor="middle" x="93.5" y="-139" font-family="Helvetica,sans-Serif" font-size="10.00">numeric</text>
</a>
</g>
</g>
<!-- Node3&#45;&gt;Node30 -->
<g id="edge34_Node000003_Node000030" class="edge">
<title>Node3&#45;&gt;Node30</title>
<g id="a_edge34_Node000003_Node000030"><a xlink:title=" ">
<path fill="none" stroke="#63b8ff" d="M748.35,-194.92C641.47,-193.05 368.69,-185.18 131.88,-150.95"/>
<polygon fill="#63b8ff" stroke="#63b8ff" points="132.1,-147.45 121.69,-149.46 131.08,-154.38 132.1,-147.45"/>
</a>
</g>
</g>
<!-- Node31 -->
<g id="Node000031" class="node">
<title>Node31</title>
<g id="a_Node000031"><a xlink:title=" ">
<polygon fill="#e0e0e0" stroke="#999999" points="189.5,-151 139.5,-151 139.5,-132 189.5,-132 189.5,-151"/>
<text text-anchor="middle" x="164.5" y="-139" font-family="Helvetica,sans-Serif" font-size="10.00">ranges</text>
</a>
</g>
</g>
<!-- Node3&#45;&gt;Node31 -->
<g id="edge35_Node000003_Node000031" class="edge">
<title>Node3&#45;&gt;Node31</title>
<g id="a_edge35_Node000003_Node000031"><a xlink:title=" ">
<path fill="none" stroke="#63b8ff" d="M748.2,-194.72C649.13,-192.49 409.24,-183.99 199.61,-150.89"/>
<polygon fill="#63b8ff" stroke="#63b8ff" points="200.08,-147.42 189.65,-149.3 198.97,-154.33 200.08,-147.42"/>
</a>
</g>
</g>
<!-- Node32 -->
<g id="Node000032" class="node">
<title>Node32</title>
<g id="a_Node000032"><a xlink:title=" ">
<polygon fill="#e0e0e0" stroke="#999999" points="247.5,-151 207.5,-151 207.5,-132 247.5,-132 247.5,-151"/>
<text text-anchor="middle" x="227.5" y="-139" font-family="Helvetica,sans-Serif" font-size="10.00">span</text>
</a>
</g>
</g>
<!-- Node3&#45;&gt;Node32 -->
<g id="edge36_Node000003_Node000032" class="edge">
<title>Node3&#45;&gt;Node32</title>
<g id="a_edge36_Node000003_Node000032"><a xlink:title=" ">
<path fill="none" stroke="#63b8ff" d="M748.38,-194.82C656.49,-192.8 444.05,-184.74 257.64,-150.82"/>
<polygon fill="#63b8ff" stroke="#63b8ff" points="258.12,-147.35 247.65,-148.97 256.85,-154.23 258.12,-147.35"/>
</a>
</g>
</g>
<!-- Node33 -->
<g id="Node000033" class="node">
<title>Node33</title>
<g id="a_Node000033"><a xlink:title=" ">
<polygon fill="#e0e0e0" stroke="#999999" points="335,-151 266,-151 266,-132 335,-132 335,-151"/>
<text text-anchor="middle" x="300.5" y="-139" font-family="Helvetica,sans-Serif" font-size="10.00">type_traits</text>
</a>
</g>
</g>
<!-- Node3&#45;&gt;Node33 -->
<g id="edge37_Node000003_Node000033" class="edge">
<title>Node3&#45;&gt;Node33</title>
<g id="a_edge37_Node000003_Node000033"><a xlink:title=" ">
<path fill="none" stroke="#63b8ff" d="M748.22,-192.42C668.08,-186.76 498.11,-173.34 345.23,-151.13"/>
<polygon fill="#63b8ff" stroke="#63b8ff" points="345.59,-147.65 335.18,-149.66 344.57,-154.57 345.59,-147.65"/>
</a>
</g>
</g>
<!-- Node3&#45;&gt;Node34 -->
<g id="edge38_Node000003_Node000034" class="edge">
<title>Node3&#45;&gt;Node34</title>
<g id="a_edge38_Node000003_Node000034"><a xlink:title=" ">
<path fill="none" stroke="#63b8ff" d="M748.4,-195.78C633.24,-195.82 323.79,-191.93 57.43,-150.78"/>
<polygon fill="#63b8ff" stroke="#63b8ff" points="57.6,-147.27 47.18,-149.18 56.52,-154.18 57.6,-147.27"/>
</a>
</g>
</g>
<!-- Node7 -->
<g id="Node000007" class="node">
<title>Node7</title>
<g id="a_Node000007"><a xlink:href="device__qualifier_8hpp.html" target="_top" xlink:title=" ">
<polygon fill="white" stroke="#666666" points="815.5,-90.5 701.5,-90.5 701.5,-71.5 815.5,-71.5 815.5,-90.5"/>
<text text-anchor="middle" x="758.5" y="-78.5" font-family="Helvetica,sans-Serif" font-size="10.00">device_qualifier.hpp</text>
</a>
</g>
</g>
<!-- Node6&#45;&gt;Node7 -->
<g id="edge6_Node000006_Node000007" class="edge">
<title>Node6&#45;&gt;Node7</title>
<g id="a_edge6_Node000006_Node000007"><a xlink:title=" ">
<path fill="none" stroke="#63b8ff" d="M759.35,-131.87C759.21,-123.75 759,-111.31 758.82,-100.89"/>
<polygon fill="#63b8ff" stroke="#63b8ff" points="762.32,-100.61 758.65,-90.67 755.32,-100.73 762.32,-100.61"/>
</a>
</g>
</g>
<!-- Node6&#45;&gt;Node8 -->
<g id="edge19_Node000006_Node000008" class="edge">
<title>Node6&#45;&gt;Node8</title>
<g id="a_edge19_Node000006_Node000008"><a xlink:title=" ">
<path fill="none" stroke="#63b8ff" d="M745.97,-131.9C732.3,-123.13 710.67,-109 692.5,-96 674.71,-83.28 673.85,-74 653.5,-66 494.39,-3.42 436.69,-70.16 270.5,-30 268.19,-29.44 265.84,-28.76 263.49,-28"/>
<polygon fill="#63b8ff" stroke="#63b8ff" points="264.66,-24.71 254.07,-24.57 262.27,-31.28 264.66,-24.71"/>
</a>
</g>
</g>
<!-- Node9 -->
<g id="Node000009" class="node">
<title>Node9</title>
<g id="a_Node000009"><a xlink:href="array_8hpp.html" target="_top" xlink:title=" ">
<polygon fill="white" stroke="#666666" points="959,-90.5 834,-90.5 834,-71.5 959,-71.5 959,-90.5"/>
<text text-anchor="middle" x="896.5" y="-78.5" font-family="Helvetica,sans-Serif" font-size="10.00">serialization/array.hpp</text>
</a>
</g>
</g>
<!-- Node6&#45;&gt;Node9 -->
<g id="edge8_Node000006_Node000009" class="edge">
<title>Node6&#45;&gt;Node9</title>
<g id="a_edge8_Node000006_Node000009"><a xlink:title=" ">
<path fill="none" stroke="#63b8ff" d="M779.42,-131.99C802.45,-122.16 840.58,-105.88 867.04,-94.58"/>
<polygon fill="#63b8ff" stroke="#63b8ff" points="868.73,-97.66 876.55,-90.52 865.98,-91.22 868.73,-97.66"/>
</a>
</g>
</g>
<!-- Node6&#45;&gt;Node18 -->
<g id="edge20_Node000006_Node000018" class="edge">
<title>Node6&#45;&gt;Node18</title>
<g id="a_edge20_Node000006_Node000018"><a xlink:title=" ">
<path fill="none" stroke="#63b8ff" d="M802.68,-133.58C854.69,-124.84 938.68,-109.33 967.5,-96 987.35,-86.82 986.18,-74.09 1006.5,-66 1152.61,-7.84 1205.61,-66.83 1358.5,-30 1360.87,-29.43 1363.28,-28.74 1365.69,-27.98"/>
<polygon fill="#63b8ff" stroke="#63b8ff" points="1367.13,-31.18 1375.38,-24.53 1364.78,-24.59 1367.13,-31.18"/>
</a>
</g>
</g>
<!-- Node19 -->
<g id="Node000019" class="node">
<title>Node19</title>
<g id="a_Node000019"><a xlink:title=" ">
<polygon fill="#e0e0e0" stroke="#999999" points="511,-96 404,-96 404,-66 511,-66 511,-96"/>
<text text-anchor="start" x="412" y="-84" font-family="Helvetica,sans-Serif" font-size="10.00">boost/serialization</text>
<text text-anchor="middle" x="457.5" y="-73" font-family="Helvetica,sans-Serif" font-size="10.00">/access.hpp</text>
</a>
</g>
</g>
<!-- Node6&#45;&gt;Node19 -->
<g id="edge18_Node000006_Node000019" class="edge">
<title>Node6&#45;&gt;Node19</title>
<g id="a_edge18_Node000006_Node000019"><a xlink:title=" ">
<path fill="none" stroke="#63b8ff" d="M716.48,-133.04C670.44,-124.94 595.03,-111.35 521.18,-96.3"/>
<polygon fill="#63b8ff" stroke="#63b8ff" points="521.74,-92.85 511.24,-94.27 520.34,-99.7 521.74,-92.85"/>
</a>
</g>
</g>
<!-- Node6&#45;&gt;Node20 -->
<g id="edge21_Node000006_Node000020" class="edge">
<title>Node6&#45;&gt;Node20</title>
<g id="a_edge21_Node000006_Node000020"><a xlink:title=" ">
<path fill="none" stroke="#63b8ff" d="M802.96,-133.3C862.09,-123.37 964.71,-105.61 1001.5,-96 1004.14,-95.31 1006.85,-94.54 1009.57,-93.71"/>
<polygon fill="#63b8ff" stroke="#63b8ff" points="1010.82,-96.99 1019.26,-90.6 1008.67,-90.32 1010.82,-96.99"/>
</a>
</g>
</g>
<!-- Node21 -->
<g id="Node000021" class="node">
<title>Node21</title>
<g id="a_Node000021"><a xlink:title=" ">
<polygon fill="#e0e0e0" stroke="#999999" points="586,-90.5 529,-90.5 529,-71.5 586,-71.5 586,-90.5"/>
<text text-anchor="middle" x="557.5" y="-78.5" font-family="Helvetica,sans-Serif" font-size="10.00">ostream</text>
</a>
</g>
</g>
<!-- Node6&#45;&gt;Node21 -->
<g id="edge22_Node000006_Node000021" class="edge">
<title>Node6&#45;&gt;Node21</title>
<g id="a_edge22_Node000006_Node000021"><a xlink:title=" ">
<path fill="none" stroke="#63b8ff" d="M723.8,-131.95C690.18,-123.64 638.54,-110.23 594.5,-96 592.59,-95.38 590.63,-94.72 588.66,-94.04"/>
<polygon fill="#63b8ff" stroke="#63b8ff" points="589.49,-90.62 578.9,-90.5 587.11,-97.2 589.49,-90.62"/>
</a>
</g>
</g>
<!-- Node22 -->
<g id="Node000022" class="node">
<title>Node22</title>
<g id="a_Node000022"><a xlink:title=" ">
<polygon fill="#e0e0e0" stroke="#999999" points="1215,-90.5 1150,-90.5 1150,-71.5 1215,-71.5 1215,-90.5"/>
<text text-anchor="middle" x="1182.5" y="-78.5" font-family="Helvetica,sans-Serif" font-size="10.00">stdexcept</text>
</a>
</g>
</g>
<!-- Node6&#45;&gt;Node22 -->
<g id="edge23_Node000006_Node000022" class="edge">
<title>Node6&#45;&gt;Node22</title>
<g id="a_edge23_Node000006_Node000022"><a xlink:title=" ">
<path fill="none" stroke="#63b8ff" d="M802.76,-136.63C888.63,-128.76 1077.84,-110.4 1141.5,-96 1144.48,-95.32 1147.56,-94.51 1150.61,-93.62"/>
<polygon fill="#63b8ff" stroke="#63b8ff" points="1151.72,-96.94 1160.19,-90.58 1149.6,-90.27 1151.72,-96.94"/>
</a>
</g>
</g>
<!-- Node23 -->
<g id="Node000023" class="node">
<title>Node23</title>
<g id="a_Node000023"><a xlink:title=" ">
<polygon fill="#e0e0e0" stroke="#999999" points="645,-90.5 604,-90.5 604,-71.5 645,-71.5 645,-90.5"/>
<text text-anchor="middle" x="624.5" y="-78.5" font-family="Helvetica,sans-Serif" font-size="10.00">tuple</text>
</a>
</g>
</g>
<!-- Node6&#45;&gt;Node23 -->
<g id="edge24_Node000006_Node000023" class="edge">
<title>Node6&#45;&gt;Node23</title>
<g id="a_edge24_Node000006_Node000023"><a xlink:title=" ">
<path fill="none" stroke="#63b8ff" d="M739.87,-131.99C717.17,-122.16 679.6,-105.88 653.53,-94.58"/>
<polygon fill="#63b8ff" stroke="#63b8ff" points="654.72,-91.28 644.15,-90.52 651.94,-97.7 654.72,-91.28"/>
</a>
</g>
</g>
<!-- Node6&#45;&gt;Node24 -->
<g id="edge25_Node000006_Node000024" class="edge">
<title>Node6&#45;&gt;Node24</title>
<g id="a_edge25_Node000006_Node000024"><a xlink:title=" ">
<path fill="none" stroke="#63b8ff" d="M802.73,-135.93C877.24,-127.81 1026.74,-110.36 1077.5,-96 1079.18,-95.52 1080.9,-94.98 1082.61,-94.38"/>
<polygon fill="#63b8ff" stroke="#63b8ff" points="1084.2,-97.52 1092.21,-90.59 1081.63,-91.01 1084.2,-97.52"/>
</a>
</g>
</g>
<!-- Node7&#45;&gt;Node8 -->
<g id="edge7_Node000007_Node000008" class="edge">
<title>Node7&#45;&gt;Node8</title>
<g id="a_edge7_Node000007_Node000008"><a xlink:title=" ">
<path fill="none" stroke="#63b8ff" d="M719.2,-71.46C708.92,-69.44 697.83,-67.46 687.5,-66 503.31,-39.97 451.48,-73.01 270.5,-30 268.19,-29.45 265.83,-28.78 263.49,-28.02"/>
<polygon fill="#63b8ff" stroke="#63b8ff" points="264.65,-24.72 254.06,-24.6 262.26,-31.3 264.65,-24.72"/>
</a>
</g>
</g>
<!-- Node10 -->
<g id="Node000010" class="node">
<title>Node10</title>
<g id="a_Node000010"><a xlink:title=" ">
<polygon fill="#e0e0e0" stroke="#999999" points="963,-24.5 830,-24.5 830,-5.5 963,-5.5 963,-24.5"/>
<text text-anchor="middle" x="896.5" y="-12.5" font-family="Helvetica,sans-Serif" font-size="10.00">boost/mpl/bool_fwd.hpp</text>
</a>
</g>
</g>
<!-- Node9&#45;&gt;Node10 -->
<g id="edge9_Node000009_Node000010" class="edge">
<title>Node9&#45;&gt;Node10</title>
<g id="a_edge9_Node000009_Node000010"><a xlink:title=" ">
<path fill="none" stroke="#63b8ff" d="M896.5,-71.37C896.5,-62.16 896.5,-47.29 896.5,-35.27"/>
<polygon fill="#63b8ff" stroke="#63b8ff" points="900,-34.91 896.5,-24.91 893,-34.91 900,-34.91"/>
</a>
</g>
</g>
<!-- Node11 -->
<g id="Node000011" class="node">
<title>Node11</title>
<g id="a_Node000011"><a xlink:title=" ">
<polygon fill="#e0e0e0" stroke="#999999" points="1105.5,-24.5 981.5,-24.5 981.5,-5.5 1105.5,-5.5 1105.5,-24.5"/>
<text text-anchor="middle" x="1043.5" y="-12.5" font-family="Helvetica,sans-Serif" font-size="10.00">boost/mpl/greater.hpp</text>
</a>
</g>
</g>
<!-- Node9&#45;&gt;Node11 -->
<g id="edge10_Node000009_Node000011" class="edge">
<title>Node9&#45;&gt;Node11</title>
<g id="a_edge10_Node000009_Node000011"><a xlink:title=" ">
<path fill="none" stroke="#63b8ff" d="M916.33,-71.37C941.53,-60.39 985.26,-41.36 1014.29,-28.72"/>
<polygon fill="#63b8ff" stroke="#63b8ff" points="1015.75,-31.9 1023.52,-24.7 1012.95,-25.48 1015.75,-31.9"/>
</a>
</g>
</g>
<!-- Node12 -->
<g id="Node000012" class="node">
<title>Node12</title>
<g id="a_Node000012"><a xlink:title=" ">
<polygon fill="#e0e0e0" stroke="#999999" points="1225.5,-24.5 1123.5,-24.5 1123.5,-5.5 1225.5,-5.5 1225.5,-24.5"/>
<text text-anchor="middle" x="1174.5" y="-12.5" font-family="Helvetica,sans-Serif" font-size="10.00">boost/mpl/int.hpp</text>
</a>
</g>
</g>
<!-- Node9&#45;&gt;Node12 -->
<g id="edge11_Node000009_Node000012" class="edge">
<title>Node9&#45;&gt;Node12</title>
<g id="a_edge11_Node000009_Node000012"><a xlink:title=" ">
<path fill="none" stroke="#63b8ff" d="M933.93,-71.46C977.36,-61.54 1051.13,-44.66 1114.5,-30 1118.9,-28.98 1123.48,-27.92 1128.06,-26.86"/>
<polygon fill="#63b8ff" stroke="#63b8ff" points="1129.07,-30.21 1138.02,-24.54 1127.48,-23.4 1129.07,-30.21"/>
</a>
</g>
</g>
<!-- Node13 -->
<g id="Node000013" class="node">
<title>Node13</title>
<g id="a_Node000013"><a xlink:title=" ">
<polygon fill="#e0e0e0" stroke="#999999" points="1349.5,-30 1243.5,-30 1243.5,0 1349.5,0 1349.5,-30"/>
<text text-anchor="start" x="1251.5" y="-18" font-family="Helvetica,sans-Serif" font-size="10.00">boost/mpl/integral</text>
<text text-anchor="middle" x="1296.5" y="-7" font-family="Helvetica,sans-Serif" font-size="10.00">_c_tag.hpp</text>
</a>
</g>
</g>
<!-- Node9&#45;&gt;Node13 -->
<g id="edge12_Node000009_Node000013" class="edge">
<title>Node9&#45;&gt;Node13</title>
<g id="a_edge12_Node000009_Node000013"><a xlink:title=" ">
<path fill="none" stroke="#63b8ff" d="M941.64,-71.46C952.09,-69.58 963.17,-67.65 973.5,-66 1085.97,-48.03 1117.57,-50.75 1233.48,-30.09"/>
<polygon fill="#63b8ff" stroke="#63b8ff" points="1234.24,-33.51 1243.46,-28.29 1233,-26.62 1234.24,-33.51"/>
</a>
</g>
</g>
<!-- Node14 -->
<g id="Node000014" class="node">
<title>Node14</title>
<g id="a_Node000014"><a xlink:title=" ">
<polygon fill="#e0e0e0" stroke="#999999" points="431,-30 280,-30 280,0 431,0 431,-30"/>
<text text-anchor="start" x="288" y="-18" font-family="Helvetica,sans-Serif" font-size="10.00">boost/serialization</text>
<text text-anchor="middle" x="355.5" y="-7" font-family="Helvetica,sans-Serif" font-size="10.00">/is_bitwise_serializable.hpp</text>
</a>
</g>
</g>
<!-- Node9&#45;&gt;Node14 -->
<g id="edge13_Node000009_Node000014" class="edge">
<title>Node9&#45;&gt;Node14</title>
<g id="a_edge13_Node000009_Node000014"><a xlink:title=" ">
<path fill="none" stroke="#63b8ff" d="M856.25,-71.45C845.94,-69.45 834.84,-67.48 824.5,-66 657.63,-42.03 611.66,-51.75 441.09,-30.14"/>
<polygon fill="#63b8ff" stroke="#63b8ff" points="441.38,-26.65 431.02,-28.85 440.49,-33.6 441.38,-26.65"/>
</a>
</g>
</g>
<!-- Node15 -->
<g id="Node000015" class="node">
<title>Node15</title>
<g id="a_Node000015"><a xlink:title=" ">
<polygon fill="#e0e0e0" stroke="#999999" points="556,-30 449,-30 449,0 556,0 556,-30"/>
<text text-anchor="start" x="457" y="-18" font-family="Helvetica,sans-Serif" font-size="10.00">boost/serialization</text>
<text text-anchor="middle" x="502.5" y="-7" font-family="Helvetica,sans-Serif" font-size="10.00">/level.hpp</text>
</a>
</g>
</g>
<!-- Node9&#45;&gt;Node15 -->
<g id="edge14_Node000009_Node000015" class="edge">
<title>Node9&#45;&gt;Node15</title>
<g id="a_edge14_Node000009_Node000015"><a xlink:title=" ">
<path fill="none" stroke="#63b8ff" d="M854.69,-71.47C844.81,-69.57 834.3,-67.63 824.5,-66 712.57,-47.38 680.99,-50.66 566.1,-30.2"/>
<polygon fill="#63b8ff" stroke="#63b8ff" points="566.67,-26.75 556.21,-28.42 565.43,-33.64 566.67,-26.75"/>
</a>
</g>
</g>
<!-- Node16 -->
<g id="Node000016" class="node">
<title>Node16</title>
<g id="a_Node000016"><a xlink:title=" ">
<polygon fill="#e0e0e0" stroke="#999999" points="681,-30 574,-30 574,0 681,0 681,-30"/>
<text text-anchor="start" x="582" y="-18" font-family="Helvetica,sans-Serif" font-size="10.00">boost/serialization</text>
<text text-anchor="middle" x="627.5" y="-7" font-family="Helvetica,sans-Serif" font-size="10.00">/tracking.hpp</text>
</a>
</g>
</g>
<!-- Node9&#45;&gt;Node16 -->
<g id="edge15_Node000009_Node000016" class="edge">
<title>Node9&#45;&gt;Node16</title>
<g id="a_edge15_Node000009_Node000016"><a xlink:title=" ">
<path fill="none" stroke="#63b8ff" d="M860.5,-71.44C817.33,-61.16 744.18,-43.76 691.35,-31.19"/>
<polygon fill="#63b8ff" stroke="#63b8ff" points="691.94,-27.73 681.4,-28.82 690.32,-34.54 691.94,-27.73"/>
</a>
</g>
</g>
<!-- Node17 -->
<g id="Node000017" class="node">
<title>Node17</title>
<g id="a_Node000017"><a xlink:title=" ">
<polygon fill="#e0e0e0" stroke="#999999" points="812,-30 699,-30 699,0 812,0 812,-30"/>
<text text-anchor="start" x="707" y="-18" font-family="Helvetica,sans-Serif" font-size="10.00">boost/serialization</text>
<text text-anchor="middle" x="755.5" y="-7" font-family="Helvetica,sans-Serif" font-size="10.00">/tracking_enum.hpp</text>
</a>
</g>
</g>
<!-- Node9&#45;&gt;Node17 -->
<g id="edge16_Node000009_Node000017" class="edge">
<title>Node9&#45;&gt;Node17</title>
<g id="a_edge16_Node000009_Node000017"><a xlink:title=" ">
<path fill="none" stroke="#63b8ff" d="M877.48,-71.37C856.64,-61.91 822.59,-46.45 795.76,-34.27"/>
<polygon fill="#63b8ff" stroke="#63b8ff" points="797.15,-31.06 786.6,-30.12 794.26,-37.44 797.15,-31.06"/>
</a>
</g>
</g>
<!-- Node9&#45;&gt;Node18 -->
<g id="edge17_Node000009_Node000018" class="edge">
<title>Node9&#45;&gt;Node18</title>
<g id="a_edge17_Node000009_Node000018"><a xlink:title=" ">
<path fill="none" stroke="#63b8ff" d="M939.56,-71.49C950.6,-69.5 962.46,-67.52 973.5,-66 1143.76,-42.61 1191.25,-69.52 1358.5,-30 1360.87,-29.44 1363.29,-28.76 1365.7,-28"/>
<polygon fill="#63b8ff" stroke="#63b8ff" points="1367.13,-31.21 1375.38,-24.57 1364.79,-24.61 1367.13,-31.21"/>
</a>
</g>
</g>
<!-- Node35&#45;&gt;Node22 -->
<g id="edge44_Node000035_Node000022" class="edge">
<title>Node35&#45;&gt;Node22</title>
<g id="a_edge44_Node000035_Node000022"><a xlink:title=" ">
<path fill="none" stroke="#63b8ff" d="M1352.87,-307.93C1371.76,-300.49 1390.32,-289.17 1401.5,-272 1407.21,-263.23 1406.82,-202.52 1399.5,-187 1368.38,-121.04 1279.07,-96.22 1225.22,-87.1"/>
<polygon fill="#63b8ff" stroke="#63b8ff" points="1225.7,-83.63 1215.27,-85.53 1224.6,-90.55 1225.7,-83.63"/>
</a>
</g>
</g>
<!-- Node35&#45;&gt;Node26 -->
<g id="edge42_Node000035_Node000026" class="edge">
<title>Node35&#45;&gt;Node26</title>
<g id="a_edge42_Node000035_Node000026"><a xlink:title=" ">
<path fill="none" stroke="#63b8ff" d="M1336.6,-307.8C1353.87,-300.12 1371.53,-288.68 1381.5,-272 1400.88,-239.57 1400.38,-219.72 1381.5,-187 1372.11,-170.72 1354.23,-159.86 1338.07,-152.95"/>
<polygon fill="#63b8ff" stroke="#63b8ff" points="1338.91,-149.52 1328.32,-149.14 1336.36,-156.04 1338.91,-149.52"/>
</a>
</g>
</g>
<!-- Node36 -->
<g id="Node000036" class="node">
<title>Node36</title>
<g id="a_Node000036"><a xlink:title=" ">
<polygon fill="#e0e0e0" stroke="#999999" points="1310.5,-266.5 1266.5,-266.5 1266.5,-247.5 1310.5,-247.5 1310.5,-266.5"/>
<text text-anchor="middle" x="1288.5" y="-254.5" font-family="Helvetica,sans-Serif" font-size="10.00">limits</text>
</a>
</g>
</g>
<!-- Node35&#45;&gt;Node36 -->
<g id="edge43_Node000035_Node000036" class="edge">
<title>Node35&#45;&gt;Node36</title>
<g id="a_edge43_Node000035_Node000036"><a xlink:title=" ">
<path fill="none" stroke="#63b8ff" d="M1288.5,-307.8C1288.5,-298.7 1288.5,-286.79 1288.5,-276.9"/>
<polygon fill="#63b8ff" stroke="#63b8ff" points="1292,-276.84 1288.5,-266.84 1285,-276.84 1292,-276.84"/>
</a>
</g>
</g>
<!-- Node37 -->
<g id="Node000037" class="node">
<title>Node37</title>
<g id="a_Node000037"><a xlink:title=" ">
<polygon fill="#e0e0e0" stroke="#999999" points="1372.5,-266.5 1328.5,-266.5 1328.5,-247.5 1372.5,-247.5 1372.5,-266.5"/>
<text text-anchor="middle" x="1350.5" y="-254.5" font-family="Helvetica,sans-Serif" font-size="10.00">string</text>
</a>
</g>
</g>
<!-- Node35&#45;&gt;Node37 -->
<g id="edge45_Node000035_Node000037" class="edge">
<title>Node35&#45;&gt;Node37</title>
<g id="a_edge45_Node000035_Node000037"><a xlink:title=" ">
<path fill="none" stroke="#63b8ff" d="M1302.26,-307.8C1311.93,-297.82 1324.87,-284.46 1334.92,-274.09"/>
<polygon fill="#63b8ff" stroke="#63b8ff" points="1337.49,-276.46 1341.93,-266.84 1332.46,-271.59 1337.49,-276.46"/>
</a>
</g>
</g>
<!-- Node38 -->
<g id="Node000038" class="node">
<title>Node38</title>
<g id="a_Node000038"><a xlink:href="orthonormal__vec_8hpp.html" target="_top" xlink:title=" ">
<polygon fill="white" stroke="#666666" points="1248,-272 1119,-272 1119,-242 1248,-242 1248,-272"/>
<text text-anchor="start" x="1127" y="-260" font-family="Helvetica,sans-Serif" font-size="10.00">utils/math/orthonormal</text>
<text text-anchor="middle" x="1183.5" y="-249" font-family="Helvetica,sans-Serif" font-size="10.00">_vec.hpp</text>
</a>
</g>
</g>
<!-- Node35&#45;&gt;Node38 -->
<g id="edge46_Node000035_Node000038" class="edge">
<title>Node35&#45;&gt;Node38</title>
<g id="a_edge46_Node000035_Node000038"><a xlink:title=" ">
<path fill="none" stroke="#63b8ff" d="M1265.46,-307.95C1250.69,-298.95 1231.31,-287.14 1215.11,-277.27"/>
<polygon fill="#63b8ff" stroke="#63b8ff" points="1216.85,-274.23 1206.49,-272.01 1213.21,-280.21 1216.85,-274.23"/>
</a>
</g>
</g>
<!-- Node38&#45;&gt;Node3 -->
<g id="edge47_Node000038_Node000003" class="edge">
<title>Node38&#45;&gt;Node3</title>
<g id="a_edge47_Node000038_Node000003"><a xlink:title=" ">
<path fill="none" stroke="#63b8ff" d="M1118.83,-246.27C1043.98,-235.02 921.92,-216.66 850.81,-205.97"/>
<polygon fill="#63b8ff" stroke="#63b8ff" points="851.11,-202.47 840.7,-204.45 850.07,-209.4 851.11,-202.47"/>
</a>
</g>
</g>
<!-- Node38&#45;&gt;Node18 -->
<g id="edge48_Node000038_Node000018" class="edge">
<title>Node38&#45;&gt;Node18</title>
<g id="a_edge48_Node000038_Node000018"><a xlink:title=" ">
<path fill="none" stroke="#63b8ff" d="M1213.99,-241.91C1248.16,-224.76 1303.27,-192.82 1337.5,-151 1366.68,-115.36 1383.09,-62.6 1390.21,-34.77"/>
<polygon fill="#63b8ff" stroke="#63b8ff" points="1393.67,-35.34 1392.63,-24.8 1386.87,-33.69 1393.67,-35.34"/>
</a>
</g>
</g>
<!-- Node39 -->
<g id="Node000039" class="node">
<title>Node39</title>
<g id="a_Node000039"><a xlink:title=" ">
<polygon fill="#e0e0e0" stroke="#999999" points="1372,-206 1313,-206 1313,-187 1372,-187 1372,-206"/>
<text text-anchor="middle" x="1342.5" y="-194" font-family="Helvetica,sans-Serif" font-size="10.00">numbers</text>
</a>
</g>
</g>
<!-- Node38&#45;&gt;Node39 -->
<g id="edge49_Node000038_Node000039" class="edge">
<title>Node38&#45;&gt;Node39</title>
<g id="a_edge49_Node000038_Node000039"><a xlink:title=" ">
<path fill="none" stroke="#63b8ff" d="M1221.58,-241.99C1248.35,-232.14 1283.8,-219.1 1309.39,-209.68"/>
<polygon fill="#63b8ff" stroke="#63b8ff" points="1310.84,-212.88 1319.02,-206.14 1308.43,-206.31 1310.84,-212.88"/>
</a>
</g>
</g>
</g>
</svg>

<g id="navigator" transform="translate(0 0)" fill="#404254">
  <rect fill="#f2f5e9" fill-opacity="0.5" stroke="#606060" stroke-width=".5" x="0" y="0" width="60" height="60"/>
  <use id="zoomplus" xlink:href="#zoomPlus" x="17" y="9" onmousedown="handleZoom(evt,'in')"/>
  <use id="zoomminus" xlink:href="#zoomMin" x="42" y="9" onmousedown="handleZoom(evt,'out')"/>
  <use id="reset" xlink:href="#resetDef" x="30" y="36" onmousedown="handleReset()"/>
   <use id="arrowup" xlink:href="#arrowUp" x="0" y="0" onmousedown="handlePan(0,-1)"/>
  <use id="arrowright" xlink:href="#arrowRight" x="0" y="0" onmousedown="handlePan(1,0)"/>
  <use id="arrowdown" xlink:href="#arrowDown" x="0" y="0" onmousedown="handlePan(0,1)"/>
  <use id="arrowleft" xlink:href="#arrowLeft" x="0" y="0" onmousedown="handlePan(-1,0)"/>
</g>
<svg viewBox="0 0 15 15" width="100%" height="30px" preserveAspectRatio="xMaxYMin meet">
 <g id="arrow_out" transform="scale(0.3 0.3)">
  <a xlink:href="shapes_2include_2shapes_2HollowConicalFrustum_8hpp__incl_org.svg" target="_base">
   <rect id="button" ry="5" rx="5" y="6" x="6" height="38" width="38"
        fill="#f2f5e9" fill-opacity="0.5" stroke="#606060" stroke-width="1.0"/>
   <path id="arrow"
     d="M 11.500037,31.436501 C 11.940474,20.09759 22.043105,11.32322 32.158766,21.979434 L 37.068811,17.246167 C 37.068811,17.246167 37.088388,32 37.088388,32 L 22.160133,31.978069 C 22.160133,31.978069 26.997745,27.140456 26.997745,27.140456 C 18.528582,18.264221 13.291696,25.230495 11.500037,31.436501 z"
     style="fill:#404040;"/>
  </a>
 </g>
</svg>

<style type='text/css'>
<![CDATA[
[data-mouse-over-selected='false'] { opacity: 0.7; }
[data-mouse-over-selected='true']  { opacity: 1.0; }
]]>
</style>
<script type="application/ecmascript"><![CDATA[
document.addEventListener('DOMContentLoaded', (event) => {
  highlightEdges();
  highlightAdjacentNodes();
});
]]></script>
</svg>
