<?xml version="1.0" encoding="UTF-8" standalone="no"?>
<!DOCTYPE svg PUBLIC "-//W3C//DTD SVG 1.1//EN"
 "http://www.w3.org/Graphics/SVG/1.1/DTD/svg11.dtd">
<!-- Generated by graphviz version 2.43.0 (0)
 -->
<!-- Title: Ellipsoid.hpp Pages: 1 -->
<!--zoomable 330 -->
<svg id="main" version="1.1" xmlns="http://www.w3.org/2000/svg" xmlns:xlink="http://www.w3.org/1999/xlink" xml:space="preserve" onload="init(evt)">
<style type="text/css"><![CDATA[
.edge:hover path { stroke: red; }
.edge:hover polygon { stroke: red; fill: red; }
]]></style>
<script type="text/javascript"><![CDATA[
var edges = document.getElementsByTagName('g');
if (edges && edges.length) {
  for (var i=0;i<edges.length;i++) {
    if (edges[i].id.substr(0,4)=='edge') {
      edges[i].setAttribute('class','edge');
    }
  }
}
]]></script>
        <defs>
                <circle id="rim" cx="0" cy="0" r="7"/>
                <circle id="rim2" cx="0" cy="0" r="3.5"/>
                <g id="zoomPlus">
                        <use xlink:href="#rim" fill="#404040">
                                <set attributeName="fill" to="#808080" begin="zoomplus.mouseover" end="zoomplus.mouseout"/>
                        </use>
                        <path d="M-4,0h8M0,-4v8" fill="none" stroke="white" stroke-width="1.5" pointer-events="none"/>
                </g>
                <g id="zoomMin">
                        <use xlink:href="#rim" fill="#404040">
                                <set attributeName="fill" to="#808080" begin="zoomminus.mouseover" end="zoomminus.mouseout"/>
                        </use>
                        <path d="M-4,0h8" fill="none" stroke="white" stroke-width="1.5" pointer-events="none"/>
                </g>
                <g id="dirArrow">
                        <path fill="none" stroke="white" stroke-width="1.5" d="M0,-3.0v7 M-2.5,-0.5L0,-3.0L2.5,-0.5"/>
                </g>
               <g id="resetDef">
                       <use xlink:href="#rim2" fill="#404040">
                               <set attributeName="fill" to="#808080" begin="reset.mouseover" end="reset.mouseout"/>
                       </use>
               </g>
        </defs>

<script type="text/javascript">
var viewWidth = 2222;
var viewHeight = 330;
var sectionId = 'dynsection-0';
</script>
<script xlink:href="svgpan.js"/>
<svg id="graph" class="graph">
<g id="viewport">
<title>Ellipsoid.hpp</title>
<!-- Node1 -->
<g id="node1" class="node">
<title>Node1</title>
<g id="a_node1"><a xlink:title=" ">
<polygon fill="#bfbfbf" stroke="black" points="1473.5,-302.5 1473.5,-321.5 1552.5,-321.5 1552.5,-302.5 1473.5,-302.5"/>
<text text-anchor="middle" x="1513" y="-309.5" font-family="Helvetica,sans-Serif" font-size="10.00">Ellipsoid.hpp</text>
</a>
</g>
</g>
<!-- Node2 -->
<g id="node2" class="node">
<title>Node2</title>
<g id="a_node2"><a xlink:href="shapes_2include_2shapes_2Shape_8hpp.html" target="_top" xlink:title=" ">
<polygon fill="none" stroke="black" points="1479,-246.5 1479,-265.5 1547,-265.5 1547,-246.5 1479,-246.5"/>
<text text-anchor="middle" x="1513" y="-253.5" font-family="Helvetica,sans-Serif" font-size="10.00">Shape.hpp</text>
</a>
</g>
</g>
<!-- Node1&#45;&gt;Node2 -->
<g id="edge1" class="edge">
<title>Node1&#45;&gt;Node2</title>
<path fill="none" stroke="midnightblue" d="M1513,-302.08C1513,-295.01 1513,-284.86 1513,-275.99"/>
<polygon fill="midnightblue" stroke="midnightblue" points="1516.5,-275.75 1513,-265.75 1509.5,-275.75 1516.5,-275.75"/>
</g>
<!-- Node3 -->
<g id="node3" class="node">
<title>Node3</title>
<g id="a_node3"><a xlink:href="Vector_8hpp.html" target="_top" xlink:title="Vector implementation and trait types for boost qvm interoperability.">
<polygon fill="none" stroke="black" points="1529,-190.5 1529,-209.5 1621,-209.5 1621,-190.5 1529,-190.5"/>
<text text-anchor="middle" x="1575" y="-197.5" font-family="Helvetica,sans-Serif" font-size="10.00">utils/Vector.hpp</text>
</a>
</g>
</g>
<!-- Node1&#45;&gt;Node3 -->
<g id="edge38" class="edge">
<title>Node1&#45;&gt;Node3</title>
<path fill="none" stroke="midnightblue" d="M1523.7,-302.45C1533.45,-294.12 1547.57,-280.6 1556,-266 1564.36,-251.52 1569.29,-233.07 1572.03,-219.53"/>
<polygon fill="midnightblue" stroke="midnightblue" points="1575.51,-219.97 1573.84,-209.51 1568.62,-218.73 1575.51,-219.97"/>
</g>
<!-- Node6 -->
<g id="node6" class="node">
<title>Node6</title>
<g id="a_node6"><a xlink:href="Array_8hpp.html" target="_top" xlink:title="Array implementation with CUDA support.">
<polygon fill="none" stroke="black" points="1147,-134.5 1147,-153.5 1233,-153.5 1233,-134.5 1147,-134.5"/>
<text text-anchor="middle" x="1190" y="-141.5" font-family="Helvetica,sans-Serif" font-size="10.00">utils/Array.hpp</text>
</a>
</g>
</g>
<!-- Node1&#45;&gt;Node6 -->
<g id="edge37" class="edge">
<title>Node1&#45;&gt;Node6</title>
<path fill="none" stroke="midnightblue" d="M1496.09,-302.31C1443,-275.02 1279.4,-190.95 1215.73,-158.22"/>
<polygon fill="midnightblue" stroke="midnightblue" points="1217.24,-155.06 1206.74,-153.61 1214.04,-161.29 1217.24,-155.06"/>
</g>
<!-- Node2&#45;&gt;Node3 -->
<g id="edge2" class="edge">
<title>Node2&#45;&gt;Node3</title>
<path fill="none" stroke="midnightblue" d="M1522.96,-246.32C1532.13,-238.34 1545.94,-226.31 1557.03,-216.65"/>
<polygon fill="midnightblue" stroke="midnightblue" points="1559.62,-219.04 1564.86,-209.83 1555.02,-213.76 1559.62,-219.04"/>
</g>
<!-- Node4 -->
<g id="node4" class="node">
<title>Node4</title>
<g id="a_node4"><a xlink:title=" ">
<polygon fill="none" stroke="#bfbfbf" points="2064,-134.5 2064,-153.5 2214,-153.5 2214,-134.5 2064,-134.5"/>
<text text-anchor="middle" x="2139" y="-141.5" font-family="Helvetica,sans-Serif" font-size="10.00">boost/qvm/deduce_vec.hpp</text>
</a>
</g>
</g>
<!-- Node3&#45;&gt;Node4 -->
<g id="edge3" class="edge">
<title>Node3&#45;&gt;Node4</title>
<path fill="none" stroke="midnightblue" d="M1621.12,-194.91C1705.06,-187.42 1888.67,-170.82 2053.57,-154.23"/>
<polygon fill="midnightblue" stroke="midnightblue" points="2054.31,-157.68 2063.9,-153.19 2053.6,-150.71 2054.31,-157.68"/>
</g>
<!-- Node5 -->
<g id="node5" class="node">
<title>Node5</title>
<g id="a_node5"><a xlink:title=" ">
<polygon fill="none" stroke="#bfbfbf" points="1272,-134.5 1272,-153.5 1412,-153.5 1412,-134.5 1272,-134.5"/>
<text text-anchor="middle" x="1342" y="-141.5" font-family="Helvetica,sans-Serif" font-size="10.00">boost/qvm/vec_traits.hpp</text>
</a>
</g>
</g>
<!-- Node3&#45;&gt;Node5 -->
<g id="edge4" class="edge">
<title>Node3&#45;&gt;Node5</title>
<path fill="none" stroke="midnightblue" d="M1538.08,-190.44C1497.6,-181.06 1432.58,-165.99 1388.62,-155.8"/>
<polygon fill="midnightblue" stroke="midnightblue" points="1389.28,-152.36 1378.75,-153.52 1387.7,-159.18 1389.28,-152.36"/>
</g>
<!-- Node3&#45;&gt;Node6 -->
<g id="edge5" class="edge">
<title>Node3&#45;&gt;Node6</title>
<path fill="none" stroke="midnightblue" d="M1528.94,-192.54C1457.27,-182.49 1319.4,-163.15 1243.45,-152.5"/>
<polygon fill="midnightblue" stroke="midnightblue" points="1243.54,-148.98 1233.15,-151.05 1242.57,-155.91 1243.54,-148.98"/>
</g>
<!-- Node8 -->
<g id="node8" class="node">
<title>Node8</title>
<g id="a_node8"><a xlink:title=" ">
<polygon fill="none" stroke="#bfbfbf" points="1304,-6 1304,-25 1356,-25 1356,-6 1304,-6"/>
<text text-anchor="middle" x="1330" y="-13" font-family="Helvetica,sans-Serif" font-size="10.00">cassert</text>
</a>
</g>
</g>
<!-- Node3&#45;&gt;Node8 -->
<g id="edge28" class="edge">
<title>Node3&#45;&gt;Node8</title>
<path fill="none" stroke="midnightblue" d="M1550.78,-190.36C1533.58,-183.1 1511.13,-171.12 1497,-154 1470.97,-122.45 1495.61,-96.22 1467,-67 1439.99,-39.42 1396.64,-26.78 1365.94,-21.07"/>
<polygon fill="midnightblue" stroke="midnightblue" points="1366.5,-17.61 1356.06,-19.39 1365.33,-24.51 1366.5,-17.61"/>
</g>
<!-- Node10 -->
<g id="node10" class="node">
<title>Node10</title>
<g id="a_node10"><a xlink:title=" ">
<polygon fill="none" stroke="#bfbfbf" points="1087.5,-6 1087.5,-25 1140.5,-25 1140.5,-6 1087.5,-6"/>
<text text-anchor="middle" x="1114" y="-13" font-family="Helvetica,sans-Serif" font-size="10.00">cstddef</text>
</a>
</g>
</g>
<!-- Node3&#45;&gt;Node10 -->
<g id="edge30" class="edge">
<title>Node3&#45;&gt;Node10</title>
<path fill="none" stroke="midnightblue" d="M1528.97,-196.12C1376.66,-186.11 896.24,-150.57 853,-98 803.57,-37.91 871.46,-88.33 1078,-31 1080.44,-30.32 1082.95,-29.53 1085.44,-28.67"/>
<polygon fill="midnightblue" stroke="midnightblue" points="1086.71,-31.93 1094.85,-25.14 1084.25,-25.38 1086.71,-31.93"/>
</g>
<!-- Node22 -->
<g id="node22" class="node">
<title>Node22</title>
<g id="a_node22"><a xlink:title=" ">
<polygon fill="none" stroke="#bfbfbf" points="1405.5,-73 1405.5,-92 1458.5,-92 1458.5,-73 1405.5,-73"/>
<text text-anchor="middle" x="1432" y="-80" font-family="Helvetica,sans-Serif" font-size="10.00">iterator</text>
</a>
</g>
</g>
<!-- Node3&#45;&gt;Node22 -->
<g id="edge33" class="edge">
<title>Node3&#45;&gt;Node22</title>
<path fill="none" stroke="midnightblue" d="M1534.44,-190.48C1511.39,-183.86 1483.35,-172.58 1464,-154 1449.33,-139.92 1440.82,-117.86 1436.32,-102.17"/>
<polygon fill="midnightblue" stroke="midnightblue" points="1439.6,-100.88 1433.72,-92.08 1432.82,-102.63 1439.6,-100.88"/>
</g>
<!-- Node25 -->
<g id="node25" class="node">
<title>Node25</title>
<g id="a_node25"><a xlink:title=" ">
<polygon fill="none" stroke="#bfbfbf" points="1506,-134.5 1506,-153.5 1570,-153.5 1570,-134.5 1506,-134.5"/>
<text text-anchor="middle" x="1538" y="-141.5" font-family="Helvetica,sans-Serif" font-size="10.00">algorithm</text>
</a>
</g>
</g>
<!-- Node3&#45;&gt;Node25 -->
<g id="edge27" class="edge">
<title>Node3&#45;&gt;Node25</title>
<path fill="none" stroke="midnightblue" d="M1568.89,-190.08C1563.72,-182.53 1556.15,-171.49 1549.81,-162.23"/>
<polygon fill="midnightblue" stroke="midnightblue" points="1552.54,-160.02 1544,-153.75 1546.76,-163.98 1552.54,-160.02"/>
</g>
<!-- Node26 -->
<g id="node26" class="node">
<title>Node26</title>
<g id="a_node26"><a xlink:title=" ">
<polygon fill="none" stroke="#bfbfbf" points="1588.5,-134.5 1588.5,-153.5 1635.5,-153.5 1635.5,-134.5 1588.5,-134.5"/>
<text text-anchor="middle" x="1612" y="-141.5" font-family="Helvetica,sans-Serif" font-size="10.00">cmath</text>
</a>
</g>
</g>
<!-- Node3&#45;&gt;Node26 -->
<g id="edge29" class="edge">
<title>Node3&#45;&gt;Node26</title>
<path fill="none" stroke="midnightblue" d="M1581.11,-190.08C1586.28,-182.53 1593.85,-171.49 1600.19,-162.23"/>
<polygon fill="midnightblue" stroke="midnightblue" points="1603.24,-163.98 1606,-153.75 1597.46,-160.02 1603.24,-163.98"/>
</g>
<!-- Node27 -->
<g id="node27" class="node">
<title>Node27</title>
<g id="a_node27"><a xlink:title=" ">
<polygon fill="none" stroke="#bfbfbf" points="1653.5,-134.5 1653.5,-153.5 1718.5,-153.5 1718.5,-134.5 1653.5,-134.5"/>
<text text-anchor="middle" x="1686" y="-141.5" font-family="Helvetica,sans-Serif" font-size="10.00">functional</text>
</a>
</g>
</g>
<!-- Node3&#45;&gt;Node27 -->
<g id="edge31" class="edge">
<title>Node3&#45;&gt;Node27</title>
<path fill="none" stroke="midnightblue" d="M1592.83,-190.32C1610.72,-181.62 1638.48,-168.12 1659.05,-158.11"/>
<polygon fill="midnightblue" stroke="midnightblue" points="1660.75,-161.18 1668.21,-153.65 1657.69,-154.88 1660.75,-161.18"/>
</g>
<!-- Node28 -->
<g id="node28" class="node">
<title>Node28</title>
<g id="a_node28"><a xlink:title=" ">
<polygon fill="none" stroke="#bfbfbf" points="1736.5,-134.5 1736.5,-153.5 1819.5,-153.5 1819.5,-134.5 1736.5,-134.5"/>
<text text-anchor="middle" x="1778" y="-141.5" font-family="Helvetica,sans-Serif" font-size="10.00">initializer_list</text>
</a>
</g>
</g>
<!-- Node3&#45;&gt;Node28 -->
<g id="edge32" class="edge">
<title>Node3&#45;&gt;Node28</title>
<path fill="none" stroke="midnightblue" d="M1607.17,-190.44C1642.06,-181.16 1697.89,-166.31 1736.17,-156.13"/>
<polygon fill="midnightblue" stroke="midnightblue" points="1737.22,-159.47 1745.98,-153.52 1735.42,-152.7 1737.22,-159.47"/>
</g>
<!-- Node29 -->
<g id="node29" class="node">
<title>Node29</title>
<g id="a_node29"><a xlink:title=" ">
<polygon fill="none" stroke="#bfbfbf" points="1838,-134.5 1838,-153.5 1894,-153.5 1894,-134.5 1838,-134.5"/>
<text text-anchor="middle" x="1866" y="-141.5" font-family="Helvetica,sans-Serif" font-size="10.00">numeric</text>
</a>
</g>
</g>
<!-- Node3&#45;&gt;Node29 -->
<g id="edge34" class="edge">
<title>Node3&#45;&gt;Node29</title>
<path fill="none" stroke="midnightblue" d="M1621.05,-191.74C1669.98,-183.83 1749.8,-170.35 1827.77,-154.16"/>
<polygon fill="midnightblue" stroke="midnightblue" points="1828.69,-157.54 1837.76,-152.06 1827.25,-150.69 1828.69,-157.54"/>
</g>
<!-- Node30 -->
<g id="node30" class="node">
<title>Node30</title>
<g id="a_node30"><a xlink:title=" ">
<polygon fill="none" stroke="#bfbfbf" points="1912.5,-134.5 1912.5,-153.5 1981.5,-153.5 1981.5,-134.5 1912.5,-134.5"/>
<text text-anchor="middle" x="1947" y="-141.5" font-family="Helvetica,sans-Serif" font-size="10.00">type_traits</text>
</a>
</g>
</g>
<!-- Node3&#45;&gt;Node30 -->
<g id="edge35" class="edge">
<title>Node3&#45;&gt;Node30</title>
<path fill="none" stroke="midnightblue" d="M1621.05,-193.65C1682.72,-186.26 1795.75,-171.99 1902.48,-153.99"/>
<polygon fill="midnightblue" stroke="midnightblue" points="1903.18,-157.42 1912.45,-152.29 1902.01,-150.52 1903.18,-157.42"/>
</g>
<!-- Node31 -->
<g id="node31" class="node">
<title>Node31</title>
<g id="a_node31"><a xlink:title=" ">
<polygon fill="none" stroke="#bfbfbf" points="1999.5,-134.5 1999.5,-153.5 2046.5,-153.5 2046.5,-134.5 1999.5,-134.5"/>
<text text-anchor="middle" x="2023" y="-141.5" font-family="Helvetica,sans-Serif" font-size="10.00">vector</text>
</a>
</g>
</g>
<!-- Node3&#45;&gt;Node31 -->
<g id="edge36" class="edge">
<title>Node3&#45;&gt;Node31</title>
<path fill="none" stroke="midnightblue" d="M1621.23,-196.52C1696.61,-191.92 1850.72,-180.24 1989.38,-154.04"/>
<polygon fill="midnightblue" stroke="midnightblue" points="1990.18,-157.45 1999.34,-152.13 1988.86,-150.58 1990.18,-157.45"/>
</g>
<!-- Node7 -->
<g id="node7" class="node">
<title>Node7</title>
<g id="a_node7"><a xlink:href="device__qualifier_8hpp.html" target="_top" xlink:title=" ">
<polygon fill="none" stroke="black" points="1273,-73 1273,-92 1387,-92 1387,-73 1273,-73"/>
<text text-anchor="middle" x="1330" y="-80" font-family="Helvetica,sans-Serif" font-size="10.00">device_qualifier.hpp</text>
</a>
</g>
</g>
<!-- Node6&#45;&gt;Node7 -->
<g id="edge6" class="edge">
<title>Node6&#45;&gt;Node7</title>
<path fill="none" stroke="midnightblue" d="M1210.06,-134.48C1233.76,-124.4 1273.41,-107.55 1300.58,-96"/>
<polygon fill="midnightblue" stroke="midnightblue" points="1302.14,-99.14 1309.98,-92.01 1299.41,-92.7 1302.14,-99.14"/>
</g>
<!-- Node6&#45;&gt;Node8 -->
<g id="edge22" class="edge">
<title>Node6&#45;&gt;Node8</title>
<path fill="none" stroke="midnightblue" d="M1197.83,-134.16C1210.93,-119.56 1238.38,-89.74 1264,-67 1278.38,-54.24 1295.67,-41.08 1308.95,-31.39"/>
<polygon fill="midnightblue" stroke="midnightblue" points="1311.35,-33.98 1317.41,-25.29 1307.25,-28.3 1311.35,-33.98"/>
</g>
<!-- Node9 -->
<g id="node9" class="node">
<title>Node9</title>
<g id="a_node9"><a xlink:href="get_8hpp.html" target="_top" xlink:title=" ">
<polygon fill="none" stroke="black" points="1163.5,-73 1163.5,-92 1216.5,-92 1216.5,-73 1163.5,-73"/>
<text text-anchor="middle" x="1190" y="-80" font-family="Helvetica,sans-Serif" font-size="10.00">get.hpp</text>
</a>
</g>
</g>
<!-- Node6&#45;&gt;Node9 -->
<g id="edge8" class="edge">
<title>Node6&#45;&gt;Node9</title>
<path fill="none" stroke="midnightblue" d="M1190,-134.48C1190,-126.08 1190,-112.98 1190,-102.16"/>
<polygon fill="midnightblue" stroke="midnightblue" points="1193.5,-102.01 1190,-92.01 1186.5,-102.01 1193.5,-102.01"/>
</g>
<!-- Node6&#45;&gt;Node10 -->
<g id="edge23" class="edge">
<title>Node6&#45;&gt;Node10</title>
<path fill="none" stroke="midnightblue" d="M1146.76,-143.57C1068.05,-143.58 906.22,-138.53 871,-98 822.44,-42.11 893.65,-83.52 1078,-31 1080.44,-30.31 1082.94,-29.5 1085.43,-28.64"/>
<polygon fill="midnightblue" stroke="midnightblue" points="1086.71,-31.89 1094.83,-25.09 1084.24,-25.34 1086.71,-31.89"/>
</g>
<!-- Node12 -->
<g id="node12" class="node">
<title>Node12</title>
<g id="a_node12"><a xlink:href="array_8hpp.html" target="_top" xlink:title=" ">
<polygon fill="none" stroke="black" points="603.5,-73 603.5,-92 728.5,-92 728.5,-73 603.5,-73"/>
<text text-anchor="middle" x="666" y="-80" font-family="Helvetica,sans-Serif" font-size="10.00">serialization/array.hpp</text>
</a>
</g>
</g>
<!-- Node6&#45;&gt;Node12 -->
<g id="edge11" class="edge">
<title>Node6&#45;&gt;Node12</title>
<path fill="none" stroke="midnightblue" d="M1146.67,-138.08C1056.91,-127.89 849.78,-104.37 739.01,-91.79"/>
<polygon fill="midnightblue" stroke="midnightblue" points="739.25,-88.3 728.92,-90.64 738.46,-95.25 739.25,-88.3"/>
</g>
<!-- Node21 -->
<g id="node21" class="node">
<title>Node21</title>
<g id="a_node21"><a xlink:title=" ">
<polygon fill="none" stroke="#bfbfbf" points="880.5,-67.5 880.5,-97.5 987.5,-97.5 987.5,-67.5 880.5,-67.5"/>
<text text-anchor="start" x="888.5" y="-85.5" font-family="Helvetica,sans-Serif" font-size="10.00">boost/serialization</text>
<text text-anchor="middle" x="934" y="-74.5" font-family="Helvetica,sans-Serif" font-size="10.00">/access.hpp</text>
</a>
</g>
</g>
<!-- Node6&#45;&gt;Node21 -->
<g id="edge21" class="edge">
<title>Node6&#45;&gt;Node21</title>
<path fill="none" stroke="midnightblue" d="M1153.17,-134.48C1116.2,-125.92 1057.34,-112.28 997.73,-98.4"/>
<polygon fill="midnightblue" stroke="midnightblue" points="998.3,-94.94 987.77,-96.08 996.71,-101.76 998.3,-94.94"/>
</g>
<!-- Node6&#45;&gt;Node22 -->
<g id="edge24" class="edge">
<title>Node6&#45;&gt;Node22</title>
<path fill="none" stroke="midnightblue" d="M1233.15,-135.76C1275.21,-128.19 1340.73,-115.04 1396,-98 1398.28,-97.3 1400.62,-96.51 1402.96,-95.68"/>
<polygon fill="midnightblue" stroke="midnightblue" points="1404.31,-98.91 1412.41,-92.08 1401.82,-92.37 1404.31,-98.91"/>
</g>
<!-- Node23 -->
<g id="node23" class="node">
<title>Node23</title>
<g id="a_node23"><a xlink:title=" ">
<polygon fill="none" stroke="#bfbfbf" points="1005.5,-73 1005.5,-92 1062.5,-92 1062.5,-73 1005.5,-73"/>
<text text-anchor="middle" x="1034" y="-80" font-family="Helvetica,sans-Serif" font-size="10.00">ostream</text>
</a>
</g>
</g>
<!-- Node6&#45;&gt;Node23 -->
<g id="edge25" class="edge">
<title>Node6&#45;&gt;Node23</title>
<path fill="none" stroke="midnightblue" d="M1167.16,-134.45C1143.18,-125.46 1104.39,-110.86 1071,-98 1069.17,-97.29 1067.28,-96.56 1065.38,-95.83"/>
<polygon fill="midnightblue" stroke="midnightblue" points="1066.48,-92.5 1055.9,-92.13 1063.94,-99.02 1066.48,-92.5"/>
</g>
<!-- Node24 -->
<g id="node24" class="node">
<title>Node24</title>
<g id="a_node24"><a xlink:title=" ">
<polygon fill="none" stroke="#bfbfbf" points="1080.5,-73 1080.5,-92 1145.5,-92 1145.5,-73 1080.5,-73"/>
<text text-anchor="middle" x="1113" y="-80" font-family="Helvetica,sans-Serif" font-size="10.00">stdexcept</text>
</a>
</g>
</g>
<!-- Node6&#45;&gt;Node24 -->
<g id="edge26" class="edge">
<title>Node6&#45;&gt;Node24</title>
<path fill="none" stroke="midnightblue" d="M1178.97,-134.48C1166.73,-125.02 1146.77,-109.6 1132.01,-98.19"/>
<polygon fill="midnightblue" stroke="midnightblue" points="1134.06,-95.35 1124.01,-92.01 1129.78,-100.89 1134.06,-95.35"/>
</g>
<!-- Node7&#45;&gt;Node8 -->
<g id="edge7" class="edge">
<title>Node7&#45;&gt;Node8</title>
<path fill="none" stroke="midnightblue" d="M1330,-72.73C1330,-63.18 1330,-47.62 1330,-35.28"/>
<polygon fill="midnightblue" stroke="midnightblue" points="1333.5,-35.13 1330,-25.13 1326.5,-35.13 1333.5,-35.13"/>
</g>
<!-- Node9&#45;&gt;Node10 -->
<g id="edge9" class="edge">
<title>Node9&#45;&gt;Node10</title>
<path fill="none" stroke="midnightblue" d="M1179.75,-72.73C1167.56,-62.31 1146.98,-44.71 1132.09,-31.97"/>
<polygon fill="midnightblue" stroke="midnightblue" points="1133.96,-28.97 1124.09,-25.13 1129.41,-34.29 1133.96,-28.97"/>
</g>
<!-- Node11 -->
<g id="node11" class="node">
<title>Node11</title>
<g id="a_node11"><a xlink:title=" ">
<polygon fill="none" stroke="#bfbfbf" points="1169.5,-6 1169.5,-25 1210.5,-25 1210.5,-6 1169.5,-6"/>
<text text-anchor="middle" x="1190" y="-13" font-family="Helvetica,sans-Serif" font-size="10.00">tuple</text>
</a>
</g>
</g>
<!-- Node9&#45;&gt;Node11 -->
<g id="edge10" class="edge">
<title>Node9&#45;&gt;Node11</title>
<path fill="none" stroke="midnightblue" d="M1190,-72.73C1190,-63.18 1190,-47.62 1190,-35.28"/>
<polygon fill="midnightblue" stroke="midnightblue" points="1193.5,-35.13 1190,-25.13 1186.5,-35.13 1193.5,-35.13"/>
</g>
<!-- Node12&#45;&gt;Node10 -->
<g id="edge20" class="edge">
<title>Node12&#45;&gt;Node10</title>
<path fill="none" stroke="midnightblue" d="M728.69,-74.73C835.62,-63.04 1044.99,-39.52 1078,-31 1080.51,-30.35 1083.08,-29.57 1085.64,-28.71"/>
<polygon fill="midnightblue" stroke="midnightblue" points="1087.11,-31.9 1095.26,-25.12 1084.66,-25.34 1087.11,-31.9"/>
</g>
<!-- Node13 -->
<g id="node13" class="node">
<title>Node13</title>
<g id="a_node13"><a xlink:title=" ">
<polygon fill="none" stroke="#bfbfbf" points="936.5,-6 936.5,-25 1069.5,-25 1069.5,-6 936.5,-6"/>
<text text-anchor="middle" x="1003" y="-13" font-family="Helvetica,sans-Serif" font-size="10.00">boost/mpl/bool_fwd.hpp</text>
</a>
</g>
</g>
<!-- Node12&#45;&gt;Node13 -->
<g id="edge12" class="edge">
<title>Node12&#45;&gt;Node13</title>
<path fill="none" stroke="midnightblue" d="M710.4,-72.94C771.86,-61.08 882.74,-39.7 948.94,-26.93"/>
<polygon fill="midnightblue" stroke="midnightblue" points="949.61,-30.36 958.77,-25.03 948.28,-23.49 949.61,-30.36"/>
</g>
<!-- Node14 -->
<g id="node14" class="node">
<title>Node14</title>
<g id="a_node14"><a xlink:title=" ">
<polygon fill="none" stroke="#bfbfbf" points="0,-6 0,-25 124,-25 124,-6 0,-6"/>
<text text-anchor="middle" x="62" y="-13" font-family="Helvetica,sans-Serif" font-size="10.00">boost/mpl/greater.hpp</text>
</a>
</g>
</g>
<!-- Node12&#45;&gt;Node14 -->
<g id="edge13" class="edge">
<title>Node12&#45;&gt;Node14</title>
<path fill="none" stroke="midnightblue" d="M603.37,-77.75C503.5,-71.27 302.16,-56.21 133,-31 125.47,-29.88 117.54,-28.48 109.81,-26.99"/>
<polygon fill="midnightblue" stroke="midnightblue" points="110.31,-23.52 99.82,-25 108.95,-30.39 110.31,-23.52"/>
</g>
<!-- Node15 -->
<g id="node15" class="node">
<title>Node15</title>
<g id="a_node15"><a xlink:title=" ">
<polygon fill="none" stroke="#bfbfbf" points="142,-6 142,-25 244,-25 244,-6 142,-6"/>
<text text-anchor="middle" x="193" y="-13" font-family="Helvetica,sans-Serif" font-size="10.00">boost/mpl/int.hpp</text>
</a>
</g>
</g>
<!-- Node12&#45;&gt;Node15 -->
<g id="edge14" class="edge">
<title>Node12&#45;&gt;Node15</title>
<path fill="none" stroke="midnightblue" d="M603.39,-76.11C522.18,-68.61 376.32,-53.36 253,-31 247.19,-29.95 241.1,-28.67 235.13,-27.33"/>
<polygon fill="midnightblue" stroke="midnightblue" points="235.77,-23.88 225.24,-25.01 234.18,-30.7 235.77,-23.88"/>
</g>
<!-- Node16 -->
<g id="node16" class="node">
<title>Node16</title>
<g id="a_node16"><a xlink:title=" ">
<polygon fill="none" stroke="#bfbfbf" points="262,-0.5 262,-30.5 368,-30.5 368,-0.5 262,-0.5"/>
<text text-anchor="start" x="270" y="-18.5" font-family="Helvetica,sans-Serif" font-size="10.00">boost/mpl/integral</text>
<text text-anchor="middle" x="315" y="-7.5" font-family="Helvetica,sans-Serif" font-size="10.00">_c_tag.hpp</text>
</a>
</g>
</g>
<!-- Node12&#45;&gt;Node16 -->
<g id="edge15" class="edge">
<title>Node12&#45;&gt;Node16</title>
<path fill="none" stroke="midnightblue" d="M611.76,-72.97C555.66,-63.93 465.29,-48.78 377.87,-31.11"/>
<polygon fill="midnightblue" stroke="midnightblue" points="378.55,-27.68 368.06,-29.12 377.16,-34.54 378.55,-27.68"/>
</g>
<!-- Node17 -->
<g id="node17" class="node">
<title>Node17</title>
<g id="a_node17"><a xlink:title=" ">
<polygon fill="none" stroke="#bfbfbf" points="386.5,-0.5 386.5,-30.5 537.5,-30.5 537.5,-0.5 386.5,-0.5"/>
<text text-anchor="start" x="394.5" y="-18.5" font-family="Helvetica,sans-Serif" font-size="10.00">boost/serialization</text>
<text text-anchor="middle" x="462" y="-7.5" font-family="Helvetica,sans-Serif" font-size="10.00">/is_bitwise_serializable.hpp</text>
</a>
</g>
</g>
<!-- Node12&#45;&gt;Node17 -->
<g id="edge16" class="edge">
<title>Node12&#45;&gt;Node17</title>
<path fill="none" stroke="midnightblue" d="M638.91,-72.87C607.57,-62.88 555.2,-46.2 515.56,-33.56"/>
<polygon fill="midnightblue" stroke="midnightblue" points="516.62,-30.23 506.03,-30.53 514.49,-36.9 516.62,-30.23"/>
</g>
<!-- Node18 -->
<g id="node18" class="node">
<title>Node18</title>
<g id="a_node18"><a xlink:title=" ">
<polygon fill="none" stroke="#bfbfbf" points="555.5,-0.5 555.5,-30.5 662.5,-30.5 662.5,-0.5 555.5,-0.5"/>
<text text-anchor="start" x="563.5" y="-18.5" font-family="Helvetica,sans-Serif" font-size="10.00">boost/serialization</text>
<text text-anchor="middle" x="609" y="-7.5" font-family="Helvetica,sans-Serif" font-size="10.00">/level.hpp</text>
</a>
</g>
</g>
<!-- Node12&#45;&gt;Node18 -->
<g id="edge17" class="edge">
<title>Node12&#45;&gt;Node18</title>
<path fill="none" stroke="midnightblue" d="M658.31,-72.73C650.61,-63.95 638.45,-50.08 628.13,-38.31"/>
<polygon fill="midnightblue" stroke="midnightblue" points="630.58,-35.8 621.35,-30.59 625.32,-40.42 630.58,-35.8"/>
</g>
<!-- Node19 -->
<g id="node19" class="node">
<title>Node19</title>
<g id="a_node19"><a xlink:title=" ">
<polygon fill="none" stroke="#bfbfbf" points="680.5,-0.5 680.5,-30.5 787.5,-30.5 787.5,-0.5 680.5,-0.5"/>
<text text-anchor="start" x="688.5" y="-18.5" font-family="Helvetica,sans-Serif" font-size="10.00">boost/serialization</text>
<text text-anchor="middle" x="734" y="-7.5" font-family="Helvetica,sans-Serif" font-size="10.00">/tracking.hpp</text>
</a>
</g>
</g>
<!-- Node12&#45;&gt;Node19 -->
<g id="edge18" class="edge">
<title>Node12&#45;&gt;Node19</title>
<path fill="none" stroke="midnightblue" d="M675.17,-72.73C684.54,-63.78 699.43,-49.54 711.89,-37.63"/>
<polygon fill="midnightblue" stroke="midnightblue" points="714.45,-40.03 719.26,-30.59 709.61,-34.97 714.45,-40.03"/>
</g>
<!-- Node20 -->
<g id="node20" class="node">
<title>Node20</title>
<g id="a_node20"><a xlink:title=" ">
<polygon fill="none" stroke="#bfbfbf" points="805.5,-0.5 805.5,-30.5 918.5,-30.5 918.5,-0.5 805.5,-0.5"/>
<text text-anchor="start" x="813.5" y="-18.5" font-family="Helvetica,sans-Serif" font-size="10.00">boost/serialization</text>
<text text-anchor="middle" x="862" y="-7.5" font-family="Helvetica,sans-Serif" font-size="10.00">/tracking_enum.hpp</text>
</a>
</g>
</g>
<!-- Node12&#45;&gt;Node20 -->
<g id="edge19" class="edge">
<title>Node12&#45;&gt;Node20</title>
<path fill="none" stroke="midnightblue" d="M692.03,-72.87C721.95,-62.95 771.81,-46.41 809.82,-33.81"/>
<polygon fill="midnightblue" stroke="midnightblue" points="811.31,-37 819.7,-30.53 809.11,-30.35 811.31,-37"/>
</g>
</g>
</svg>
        <g id="navigator" transform="translate(0 0)" fill="#404254">
                <rect fill="#f2f5e9" fill-opacity="0.5" stroke="#606060" stroke-width=".5" x="0" y="0" width="60" height="60"/>
                <use id="zoomplus" xlink:href="#zoomPlus" x="17" y="9" onmousedown="handleZoom(evt,'in')"/>
                <use id="zoomminus" xlink:href="#zoomMin" x="42" y="9" onmousedown="handleZoom(evt,'out')"/>
                <use id="reset" xlink:href="#resetDef" x="30" y="36" onmousedown="handleReset()"/>
                <g id="arrowUp" xlink:href="#dirArrow" transform="translate(30 24)" onmousedown="handlePan(0,-1)">
                  <use xlink:href="#rim" fill="#404040">
                        <set attributeName="fill" to="#808080" begin="arrowUp.mouseover" end="arrowUp.mouseout"/>
                  </use>
                  <path fill="none" stroke="white" stroke-width="1.5" d="M0,-3.0v7 M-2.5,-0.5L0,-3.0L2.5,-0.5"/>
                </g>
                <g id="arrowRight" xlink:href="#dirArrow" transform="rotate(90) translate(36 -43)" onmousedown="handlePan(1,0)">
                  <use xlink:href="#rim" fill="#404040">
                        <set attributeName="fill" to="#808080" begin="arrowRight.mouseover" end="arrowRight.mouseout"/>
                  </use>
                  <path fill="none" stroke="white" stroke-width="1.5" d="M0,-3.0v7 M-2.5,-0.5L0,-3.0L2.5,-0.5"/>
                </g>
                <g id="arrowDown" xlink:href="#dirArrow" transform="rotate(180) translate(-30 -48)" onmousedown="handlePan(0,1)">
                  <use xlink:href="#rim" fill="#404040">
                        <set attributeName="fill" to="#808080" begin="arrowDown.mouseover" end="arrowDown.mouseout"/>
                  </use>
                  <path fill="none" stroke="white" stroke-width="1.5" d="M0,-3.0v7 M-2.5,-0.5L0,-3.0L2.5,-0.5"/>
                </g>
                <g id="arrowLeft" xlink:href="#dirArrow" transform="rotate(270) translate(-36 17)" onmousedown="handlePan(-1,0)">
                  <use xlink:href="#rim" fill="#404040">
                        <set attributeName="fill" to="#808080" begin="arrowLeft.mouseover" end="arrowLeft.mouseout"/>
                  </use>
                  <path fill="none" stroke="white" stroke-width="1.5" d="M0,-3.0v7 M-2.5,-0.5L0,-3.0L2.5,-0.5"/>
                </g>
        </g>
        <svg viewBox="0 0 15 15" width="100%" height="30px" preserveAspectRatio="xMaxYMin meet">
         <g id="arrow_out" transform="scale(0.3 0.3)">
          <a xlink:href="shapes_2include_2shapes_2Ellipsoid_8hpp__incl_org.svg" target="_base">
           <rect id="button" ry="5" rx="5" y="6" x="6" height="38" width="38"
                fill="#f2f5e9" fill-opacity="0.5" stroke="#606060" stroke-width="1.0"/>
           <path id="arrow"
             d="M 11.500037,31.436501 C 11.940474,20.09759 22.043105,11.32322 32.158766,21.979434 L 37.068811,17.246167 C 37.068811,17.246167 37.088388,32 37.088388,32 L 22.160133,31.978069 C 22.160133,31.978069 26.997745,27.140456 26.997745,27.140456 C 18.528582,18.264221 13.291696,25.230495 11.500037,31.436501 z"
             style="fill:#404040;"/>
          </a>
         </g>
        </svg>
</svg>
