<?xml version="1.0" encoding="UTF-8" standalone="no"?>
<!DOCTYPE svg PUBLIC "-//W3C//DTD SVG 1.1//EN"
 "http://www.w3.org/Graphics/SVG/1.1/DTD/svg11.dtd">
<!-- Generated by graphviz version 2.43.0 (0)
 -->
<!-- Title: short_range_loop.hpp Pages: 1 -->
<svg width="259pt" height="84pt"
 viewBox="0.00 0.00 259.00 84.00" xmlns="http://www.w3.org/2000/svg" xmlns:xlink="http://www.w3.org/1999/xlink">
<g id="graph0" class="graph" transform="scale(1 1) rotate(0) translate(4 80)">
<title>short_range_loop.hpp</title>
<!-- Node1 -->
<g id="node1" class="node">
<title>Node1</title>
<g id="a_node1"><a xlink:title=" ">
<polygon fill="#bfbfbf" stroke="black" points="59.5,-56.5 59.5,-75.5 181.5,-75.5 181.5,-56.5 59.5,-56.5"/>
<text text-anchor="middle" x="120.5" y="-63.5" font-family="Helvetica,sans-Serif" font-size="10.00">short_range_loop.hpp</text>
</a>
</g>
</g>
<!-- Node2 -->
<g id="node2" class="node">
<title>Node2</title>
<g id="a_node2"><a xlink:href="energy_8cpp.html" target="_top" xlink:title=" ">
<polygon fill="none" stroke="black" points="0,-0.5 0,-19.5 69,-19.5 69,-0.5 0,-0.5"/>
<text text-anchor="middle" x="34.5" y="-7.5" font-family="Helvetica,sans-Serif" font-size="10.00">energy.cpp</text>
</a>
</g>
</g>
<!-- Node1&#45;&gt;Node2 -->
<g id="edge1" class="edge">
<title>Node1&#45;&gt;Node2</title>
<path fill="none" stroke="midnightblue" d="M98.05,-50.9C82.28,-41 61.69,-28.07 48.28,-19.65"/>
<polygon fill="midnightblue" stroke="midnightblue" points="96.35,-53.97 106.68,-56.32 100.07,-48.04 96.35,-53.97"/>
</g>
<!-- Node3 -->
<g id="node3" class="node">
<title>Node3</title>
<g id="a_node3"><a xlink:href="forces_8cpp.html" target="_top" xlink:title=" ">
<polygon fill="none" stroke="black" points="87,-0.5 87,-19.5 154,-19.5 154,-0.5 87,-0.5"/>
<text text-anchor="middle" x="120.5" y="-7.5" font-family="Helvetica,sans-Serif" font-size="10.00">forces.cpp</text>
</a>
</g>
</g>
<!-- Node1&#45;&gt;Node3 -->
<g id="edge2" class="edge">
<title>Node1&#45;&gt;Node3</title>
<path fill="none" stroke="midnightblue" d="M120.5,-45.8C120.5,-36.91 120.5,-26.78 120.5,-19.75"/>
<polygon fill="midnightblue" stroke="midnightblue" points="117,-46.08 120.5,-56.08 124,-46.08 117,-46.08"/>
</g>
<!-- Node4 -->
<g id="node4" class="node">
<title>Node4</title>
<g id="a_node4"><a xlink:href="pressure_8cpp.html" target="_top" xlink:title=" ">
<polygon fill="none" stroke="black" points="172,-0.5 172,-19.5 251,-19.5 251,-0.5 172,-0.5"/>
<text text-anchor="middle" x="211.5" y="-7.5" font-family="Helvetica,sans-Serif" font-size="10.00">pressure.cpp</text>
</a>
</g>
</g>
<!-- Node1&#45;&gt;Node4 -->
<g id="edge3" class="edge">
<title>Node1&#45;&gt;Node4</title>
<path fill="none" stroke="midnightblue" d="M143.79,-51.18C160.54,-41.24 182.6,-28.15 196.92,-19.65"/>
<polygon fill="midnightblue" stroke="midnightblue" points="141.93,-48.21 135.12,-56.32 145.51,-54.23 141.93,-48.21"/>
</g>
</g>
</svg>
