<?xml version="1.0" encoding="UTF-8" standalone="no"?>
<!DOCTYPE svg PUBLIC "-//W3C//DTD SVG 1.1//EN"
 "http://www.w3.org/Graphics/SVG/1.1/DTD/svg11.dtd">
<!-- Generated by graphviz version 2.43.0 (0)
 -->
<!-- Title: sinc.hpp Pages: 1 -->
<svg width="588pt" height="151pt"
 viewBox="0.00 0.00 588.48 151.00" xmlns="http://www.w3.org/2000/svg" xmlns:xlink="http://www.w3.org/1999/xlink">
<g id="graph0" class="graph" transform="scale(1 1) rotate(0) translate(4 147)">
<title>sinc.hpp</title>
<!-- Node1 -->
<g id="node1" class="node">
<title>Node1</title>
<g id="a_node1"><a xlink:title=" ">
<polygon fill="#bfbfbf" stroke="black" points="251.98,-123.5 251.98,-142.5 308.98,-142.5 308.98,-123.5 251.98,-123.5"/>
<text text-anchor="middle" x="280.48" y="-130.5" font-family="Helvetica,sans-Serif" font-size="10.00">sinc.hpp</text>
</a>
</g>
</g>
<!-- Node2 -->
<g id="node2" class="node">
<title>Node2</title>
<g id="a_node2"><a xlink:href="p3m_8cpp.html" target="_top" xlink:title="The corresponding header file is p3m.hpp.">
<polygon fill="none" stroke="black" points="142.98,-0.5 142.98,-19.5 201.98,-19.5 201.98,-0.5 142.98,-0.5"/>
<text text-anchor="middle" x="172.48" y="-7.5" font-family="Helvetica,sans-Serif" font-size="10.00">p3m.cpp</text>
</a>
</g>
</g>
<!-- Node1&#45;&gt;Node2 -->
<g id="edge1" class="edge">
<title>Node1&#45;&gt;Node2</title>
<path fill="none" stroke="midnightblue" d="M241.26,-131.48C173.25,-129.66 37.86,-121.65 8.48,-87 -31.21,-40.21 85.36,-20.56 142.68,-13.89"/>
<polygon fill="midnightblue" stroke="midnightblue" points="241.49,-134.99 251.57,-131.72 241.65,-127.99 241.49,-134.99"/>
</g>
<!-- Node3 -->
<g id="node3" class="node">
<title>Node3</title>
<g id="a_node3"><a xlink:href="p3m__gpu__cuda_8cu.html" target="_top" xlink:title="P3M electrostatics on GPU.">
<polygon fill="none" stroke="black" points="17.48,-62 17.48,-81 121.48,-81 121.48,-62 17.48,-62"/>
<text text-anchor="middle" x="69.48" y="-69" font-family="Helvetica,sans-Serif" font-size="10.00">p3m_gpu_cuda.cu</text>
</a>
</g>
</g>
<!-- Node1&#45;&gt;Node3 -->
<g id="edge2" class="edge">
<title>Node1&#45;&gt;Node3</title>
<path fill="none" stroke="midnightblue" d="M241.95,-121.14C201.03,-109.6 137.18,-91.59 99.73,-81.03"/>
<polygon fill="midnightblue" stroke="midnightblue" points="241.01,-124.51 251.58,-123.85 242.91,-117.77 241.01,-124.51"/>
</g>
<!-- Node4 -->
<g id="node4" class="node">
<title>Node4</title>
<g id="a_node4"><a xlink:href="p3m__gpu__error__cuda_8cu.html" target="_top" xlink:title="P3M electrostatics on GPU.">
<polygon fill="none" stroke="black" points="139.98,-62 139.98,-81 272.98,-81 272.98,-62 139.98,-62"/>
<text text-anchor="middle" x="206.48" y="-69" font-family="Helvetica,sans-Serif" font-size="10.00">p3m_gpu_error_cuda.cu</text>
</a>
</g>
</g>
<!-- Node1&#45;&gt;Node4 -->
<g id="edge3" class="edge">
<title>Node1&#45;&gt;Node4</title>
<path fill="none" stroke="midnightblue" d="M261.79,-116.97C247.63,-105.59 228.7,-90.37 217.06,-81.01"/>
<polygon fill="midnightblue" stroke="midnightblue" points="259.89,-119.94 269.87,-123.48 264.27,-114.48 259.89,-119.94"/>
</g>
<!-- Node5 -->
<g id="node5" class="node">
<title>Node5</title>
<g id="a_node5"><a xlink:href="dp3m_8cpp.html" target="_top" xlink:title="P3M algorithm for long&#45;range magnetic dipole&#45;dipole interaction.">
<polygon fill="none" stroke="black" points="453.98,-0.5 453.98,-19.5 518.98,-19.5 518.98,-0.5 453.98,-0.5"/>
<text text-anchor="middle" x="486.48" y="-7.5" font-family="Helvetica,sans-Serif" font-size="10.00">dp3m.cpp</text>
</a>
</g>
</g>
<!-- Node1&#45;&gt;Node5 -->
<g id="edge4" class="edge">
<title>Node1&#45;&gt;Node5</title>
<path fill="none" stroke="midnightblue" d="M319.06,-126.61C350.21,-120.8 394.04,-109.23 426.48,-87 452.96,-68.85 473.33,-35.48 481.96,-19.7"/>
<polygon fill="midnightblue" stroke="midnightblue" points="318.27,-123.19 309.02,-128.36 319.47,-130.09 318.27,-123.19"/>
</g>
<!-- Node6 -->
<g id="node6" class="node">
<title>Node6</title>
<g id="a_node6"><a xlink:href="influence__function_8hpp.html" target="_top" xlink:title=" ">
<polygon fill="none" stroke="black" points="290.98,-62 290.98,-81 417.98,-81 417.98,-62 290.98,-62"/>
<text text-anchor="middle" x="354.48" y="-69" font-family="Helvetica,sans-Serif" font-size="10.00">influence_function.hpp</text>
</a>
</g>
</g>
<!-- Node1&#45;&gt;Node6 -->
<g id="edge5" class="edge">
<title>Node1&#45;&gt;Node6</title>
<path fill="none" stroke="midnightblue" d="M299.17,-116.97C313.32,-105.59 332.25,-90.37 343.89,-81.01"/>
<polygon fill="midnightblue" stroke="midnightblue" points="296.68,-114.48 291.08,-123.48 301.06,-119.94 296.68,-114.48"/>
</g>
<!-- Node7 -->
<g id="node7" class="node">
<title>Node7</title>
<g id="a_node7"><a xlink:href="influence__function__dipolar_8hpp.html" target="_top" xlink:title=" ">
<polygon fill="none" stroke="black" points="474.48,-56.5 474.48,-86.5 580.48,-86.5 580.48,-56.5 474.48,-56.5"/>
<text text-anchor="start" x="482.48" y="-74.5" font-family="Helvetica,sans-Serif" font-size="10.00">influence_function</text>
<text text-anchor="middle" x="527.48" y="-63.5" font-family="Helvetica,sans-Serif" font-size="10.00">_dipolar.hpp</text>
</a>
</g>
</g>
<!-- Node1&#45;&gt;Node7 -->
<g id="edge7" class="edge">
<title>Node1&#45;&gt;Node7</title>
<path fill="none" stroke="midnightblue" d="M319.07,-122.7C360.77,-112.66 427.51,-96.58 474.19,-85.34"/>
<polygon fill="midnightblue" stroke="midnightblue" points="318.2,-119.31 309.29,-125.06 319.83,-126.12 318.2,-119.31"/>
</g>
<!-- Node6&#45;&gt;Node2 -->
<g id="edge6" class="edge">
<title>Node6&#45;&gt;Node2</title>
<path fill="none" stroke="midnightblue" d="M318.48,-58.73C283.1,-47.17 229.97,-29.8 198.5,-19.51"/>
<polygon fill="midnightblue" stroke="midnightblue" points="317.81,-62.19 328.4,-61.98 319.98,-55.54 317.81,-62.19"/>
</g>
<!-- Node7&#45;&gt;Node5 -->
<g id="edge8" class="edge">
<title>Node7&#45;&gt;Node5</title>
<path fill="none" stroke="midnightblue" d="M512.04,-48.1C505.21,-38.19 497.57,-27.11 492.44,-19.66"/>
<polygon fill="midnightblue" stroke="midnightblue" points="509.2,-50.15 517.76,-56.4 514.97,-46.18 509.2,-50.15"/>
</g>
</g>
</svg>
