<?xml version="1.0" encoding="UTF-8" standalone="no"?>
<!DOCTYPE svg PUBLIC "-//W3C//DTD SVG 1.1//EN"
 "http://www.w3.org/Graphics/SVG/1.1/DTD/svg11.dtd">
<!-- Generated by graphviz version 2.43.0 (0)
 -->
<!-- Title: StreamSweepSinglePrecisionAVX.cpp Pages: 1 -->
<svg width="925pt" height="173pt"
 viewBox="0.00 0.00 924.50 173.00" xmlns="http://www.w3.org/2000/svg" xmlns:xlink="http://www.w3.org/1999/xlink">
<g id="graph0" class="graph" transform="scale(1 1) rotate(0) translate(4 169)">
<title>StreamSweepSinglePrecisionAVX.cpp</title>
<!-- Node1 -->
<g id="node1" class="node">
<title>Node1</title>
<g id="a_node1"><a xlink:title=" ">
<polygon fill="#bfbfbf" stroke="black" points="331.5,-134.5 331.5,-164.5 489.5,-164.5 489.5,-134.5 331.5,-134.5"/>
<text text-anchor="start" x="339.5" y="-152.5" font-family="Helvetica,sans-Serif" font-size="10.00">StreamSweepSinglePrecision</text>
<text text-anchor="middle" x="410.5" y="-141.5" font-family="Helvetica,sans-Serif" font-size="10.00">AVX.cpp</text>
</a>
</g>
</g>
<!-- Node2 -->
<g id="node2" class="node">
<title>Node2</title>
<g id="a_node2"><a xlink:title=" ">
<polygon fill="none" stroke="#bfbfbf" points="228,-73 228,-92 275,-92 275,-73 228,-73"/>
<text text-anchor="middle" x="251.5" y="-80" font-family="Helvetica,sans-Serif" font-size="10.00">cmath</text>
</a>
</g>
</g>
<!-- Node1&#45;&gt;Node2 -->
<g id="edge1" class="edge">
<title>Node1&#45;&gt;Node2</title>
<path fill="none" stroke="midnightblue" d="M376,-134.4C347.85,-122.89 308.49,-106.8 281.61,-95.81"/>
<polygon fill="midnightblue" stroke="midnightblue" points="282.89,-92.55 272.31,-92.01 280.24,-99.03 282.89,-92.55"/>
</g>
<!-- Node3 -->
<g id="node3" class="node">
<title>Node3</title>
<g id="a_node3"><a xlink:href="StreamSweepSinglePrecisionAVX_8h.html" target="_top" xlink:title=" ">
<polygon fill="none" stroke="black" points="331.5,-67.5 331.5,-97.5 489.5,-97.5 489.5,-67.5 331.5,-67.5"/>
<text text-anchor="start" x="339.5" y="-85.5" font-family="Helvetica,sans-Serif" font-size="10.00">StreamSweepSinglePrecision</text>
<text text-anchor="middle" x="410.5" y="-74.5" font-family="Helvetica,sans-Serif" font-size="10.00">AVX.h</text>
</a>
</g>
</g>
<!-- Node1&#45;&gt;Node3 -->
<g id="edge2" class="edge">
<title>Node1&#45;&gt;Node3</title>
<path fill="none" stroke="midnightblue" d="M410.5,-134.4C410.5,-126.64 410.5,-116.81 410.5,-107.86"/>
<polygon fill="midnightblue" stroke="midnightblue" points="414,-107.58 410.5,-97.58 407,-107.58 414,-107.58"/>
</g>
<!-- Node4 -->
<g id="node4" class="node">
<title>Node4</title>
<g id="a_node4"><a xlink:title=" ">
<polygon fill="none" stroke="#bfbfbf" points="0,-6 0,-25 101,-25 101,-6 0,-6"/>
<text text-anchor="middle" x="50.5" y="-13" font-family="Helvetica,sans-Serif" font-size="10.00">core/DataTypes.h</text>
</a>
</g>
</g>
<!-- Node1&#45;&gt;Node4 -->
<g id="edge10" class="edge">
<title>Node1&#45;&gt;Node4</title>
<path fill="none" stroke="midnightblue" d="M383.24,-134.35C365.49,-124.79 342.09,-111.48 322.5,-98 304.54,-85.65 304.19,-76.35 284.5,-67 212.78,-32.92 186.96,-48.48 109.5,-31 104.48,-29.87 99.24,-28.64 94.03,-27.4"/>
<polygon fill="midnightblue" stroke="midnightblue" points="94.69,-23.95 84.14,-25 93.04,-30.76 94.69,-23.95"/>
</g>
<!-- Node11 -->
<g id="node11" class="node">
<title>Node11</title>
<g id="a_node11"><a xlink:title=" ">
<polygon fill="none" stroke="#bfbfbf" points="508,-73 508,-92 593,-92 593,-73 508,-73"/>
<text text-anchor="middle" x="550.5" y="-80" font-family="Helvetica,sans-Serif" font-size="10.00">core/Macros.h</text>
</a>
</g>
</g>
<!-- Node1&#45;&gt;Node11 -->
<g id="edge11" class="edge">
<title>Node1&#45;&gt;Node11</title>
<path fill="none" stroke="midnightblue" d="M440.88,-134.4C465.33,-123.04 499.41,-107.22 523.05,-96.24"/>
<polygon fill="midnightblue" stroke="midnightblue" points="524.58,-99.39 532.18,-92.01 521.63,-93.04 524.58,-99.39"/>
</g>
<!-- Node12 -->
<g id="node12" class="node">
<title>Node12</title>
<g id="a_node12"><a xlink:title=" ">
<polygon fill="none" stroke="#bfbfbf" points="611.5,-73 611.5,-92 685.5,-92 685.5,-73 611.5,-73"/>
<text text-anchor="middle" x="648.5" y="-80" font-family="Helvetica,sans-Serif" font-size="10.00">immintrin.h</text>
</a>
</g>
</g>
<!-- Node1&#45;&gt;Node12 -->
<g id="edge12" class="edge">
<title>Node1&#45;&gt;Node12</title>
<path fill="none" stroke="midnightblue" d="M466.98,-134.41C505.34,-124.65 557.14,-111.11 602.5,-98 605.82,-97.04 609.26,-96.01 612.7,-94.97"/>
<polygon fill="midnightblue" stroke="midnightblue" points="613.78,-98.3 622.29,-92 611.71,-91.61 613.78,-98.3"/>
</g>
<!-- Node3&#45;&gt;Node4 -->
<g id="edge3" class="edge">
<title>Node3&#45;&gt;Node4</title>
<path fill="none" stroke="midnightblue" d="M331.37,-68.91C256.88,-56.94 150.75,-39.52 109.5,-31 104.34,-29.93 98.94,-28.73 93.6,-27.49"/>
<polygon fill="midnightblue" stroke="midnightblue" points="94.02,-23.99 83.48,-25.07 92.39,-30.8 94.02,-23.99"/>
</g>
<!-- Node5 -->
<g id="node5" class="node">
<title>Node5</title>
<g id="a_node5"><a xlink:title=" ">
<polygon fill="none" stroke="#bfbfbf" points="119,-0.5 119,-30.5 250,-30.5 250,-0.5 119,-0.5"/>
<text text-anchor="start" x="127" y="-18.5" font-family="Helvetica,sans-Serif" font-size="10.00">domain_decomposition</text>
<text text-anchor="middle" x="184.5" y="-7.5" font-family="Helvetica,sans-Serif" font-size="10.00">/BlockDataID.h</text>
</a>
</g>
</g>
<!-- Node3&#45;&gt;Node5 -->
<g id="edge4" class="edge">
<title>Node3&#45;&gt;Node5</title>
<path fill="none" stroke="midnightblue" d="M361.74,-67.48C326.96,-57.47 280.02,-43.97 243.18,-33.38"/>
<polygon fill="midnightblue" stroke="midnightblue" points="244.14,-30.01 233.56,-30.61 242.21,-36.74 244.14,-30.01"/>
</g>
<!-- Node6 -->
<g id="node6" class="node">
<title>Node6</title>
<g id="a_node6"><a xlink:title=" ">
<polygon fill="none" stroke="#bfbfbf" points="268,-0.5 268,-30.5 399,-30.5 399,-0.5 268,-0.5"/>
<text text-anchor="start" x="276" y="-18.5" font-family="Helvetica,sans-Serif" font-size="10.00">domain_decomposition</text>
<text text-anchor="middle" x="333.5" y="-7.5" font-family="Helvetica,sans-Serif" font-size="10.00">/IBlock.h</text>
</a>
</g>
</g>
<!-- Node3&#45;&gt;Node6 -->
<g id="edge5" class="edge">
<title>Node3&#45;&gt;Node6</title>
<path fill="none" stroke="midnightblue" d="M393.79,-67.4C383.3,-58.54 369.58,-46.96 357.89,-37.09"/>
<polygon fill="midnightblue" stroke="midnightblue" points="360.07,-34.35 350.18,-30.58 355.56,-39.7 360.07,-34.35"/>
</g>
<!-- Node7 -->
<g id="node7" class="node">
<title>Node7</title>
<g id="a_node7"><a xlink:title=" ">
<polygon fill="none" stroke="#bfbfbf" points="417,-0.5 417,-30.5 560,-30.5 560,-0.5 417,-0.5"/>
<text text-anchor="start" x="425" y="-18.5" font-family="Helvetica,sans-Serif" font-size="10.00">domain_decomposition</text>
<text text-anchor="middle" x="488.5" y="-7.5" font-family="Helvetica,sans-Serif" font-size="10.00">/StructuredBlockStorage.h</text>
</a>
</g>
</g>
<!-- Node3&#45;&gt;Node7 -->
<g id="edge6" class="edge">
<title>Node3&#45;&gt;Node7</title>
<path fill="none" stroke="midnightblue" d="M427.42,-67.4C438.05,-58.54 451.95,-46.96 463.8,-37.09"/>
<polygon fill="midnightblue" stroke="midnightblue" points="466.17,-39.67 471.61,-30.58 461.69,-34.29 466.17,-39.67"/>
</g>
<!-- Node8 -->
<g id="node8" class="node">
<title>Node8</title>
<g id="a_node8"><a xlink:title=" ">
<polygon fill="none" stroke="#bfbfbf" points="578.5,-6 578.5,-25 706.5,-25 706.5,-6 578.5,-6"/>
<text text-anchor="middle" x="642.5" y="-13" font-family="Helvetica,sans-Serif" font-size="10.00">field/GhostLayerField.h</text>
</a>
</g>
</g>
<!-- Node3&#45;&gt;Node8 -->
<g id="edge7" class="edge">
<title>Node3&#45;&gt;Node8</title>
<path fill="none" stroke="midnightblue" d="M460.55,-67.48C502.95,-55.6 562.95,-38.79 602.28,-27.77"/>
<polygon fill="midnightblue" stroke="midnightblue" points="603.37,-31.1 612.06,-25.03 601.49,-24.36 603.37,-31.1"/>
</g>
<!-- Node9 -->
<g id="node9" class="node">
<title>Node9</title>
<g id="a_node9"><a xlink:title=" ">
<polygon fill="none" stroke="#bfbfbf" points="725,-6 725,-25 866,-25 866,-6 725,-6"/>
<text text-anchor="middle" x="795.5" y="-13" font-family="Helvetica,sans-Serif" font-size="10.00">field/SwapableCompare.h</text>
</a>
</g>
</g>
<!-- Node3&#45;&gt;Node9 -->
<g id="edge8" class="edge">
<title>Node3&#45;&gt;Node9</title>
<path fill="none" stroke="midnightblue" d="M489.51,-68.56C564.97,-56.17 673.26,-38.32 715.5,-31 723.13,-29.68 731.16,-28.26 739.07,-26.84"/>
<polygon fill="midnightblue" stroke="midnightblue" points="739.77,-30.27 748.99,-25.05 738.53,-23.38 739.77,-30.27"/>
</g>
<!-- Node10 -->
<g id="node10" class="node">
<title>Node10</title>
<g id="a_node10"><a xlink:title=" ">
<polygon fill="none" stroke="#bfbfbf" points="884.5,-6 884.5,-25 916.5,-25 916.5,-6 884.5,-6"/>
<text text-anchor="middle" x="900.5" y="-13" font-family="Helvetica,sans-Serif" font-size="10.00">set</text>
</a>
</g>
</g>
<!-- Node3&#45;&gt;Node10 -->
<g id="edge9" class="edge">
<title>Node3&#45;&gt;Node10</title>
<path fill="none" stroke="midnightblue" d="M489.56,-68.34C492.92,-67.87 496.24,-67.42 499.5,-67 665.99,-45.49 715.65,-82.29 875.5,-31 876.57,-30.66 877.65,-30.26 878.73,-29.82"/>
<polygon fill="midnightblue" stroke="midnightblue" points="880.66,-32.77 888.02,-25.14 877.52,-26.51 880.66,-32.77"/>
</g>
</g>
</svg>
