<?xml version="1.0" encoding="UTF-8" standalone="no"?>
<!DOCTYPE svg PUBLIC "-//W3C//DTD SVG 1.1//EN"
 "http://www.w3.org/Graphics/SVG/1.1/DTD/svg11.dtd">
<!-- Generated by graphviz version 2.43.0 (0)
 -->
<!-- Title: StreamSweepSinglePrecision.h Pages: 1 -->
<svg width="925pt" height="95pt"
 viewBox="0.00 0.00 924.50 95.00" xmlns="http://www.w3.org/2000/svg" xmlns:xlink="http://www.w3.org/1999/xlink">
<g id="graph0" class="graph" transform="scale(1 1) rotate(0) translate(4 91)">
<title>StreamSweepSinglePrecision.h</title>
<!-- Node1 -->
<g id="node1" class="node">
<title>Node1</title>
<g id="a_node1"><a xlink:title=" ">
<polygon fill="#bfbfbf" stroke="black" points="405,-67.5 405,-86.5 572,-86.5 572,-67.5 405,-67.5"/>
<text text-anchor="middle" x="488.5" y="-74.5" font-family="Helvetica,sans-Serif" font-size="10.00">StreamSweepSinglePrecision.h</text>
</a>
</g>
</g>
<!-- Node2 -->
<g id="node2" class="node">
<title>Node2</title>
<g id="a_node2"><a xlink:title=" ">
<polygon fill="none" stroke="#bfbfbf" points="0,-6 0,-25 101,-25 101,-6 0,-6"/>
<text text-anchor="middle" x="50.5" y="-13" font-family="Helvetica,sans-Serif" font-size="10.00">core/DataTypes.h</text>
</a>
</g>
</g>
<!-- Node1&#45;&gt;Node2 -->
<g id="edge1" class="edge">
<title>Node1&#45;&gt;Node2</title>
<path fill="none" stroke="midnightblue" d="M404.88,-69.05C327.8,-61.93 210.39,-49.32 109.5,-31 103.92,-29.99 98.08,-28.76 92.34,-27.45"/>
<polygon fill="midnightblue" stroke="midnightblue" points="92.73,-23.95 82.19,-25.05 91.11,-30.76 92.73,-23.95"/>
</g>
<!-- Node3 -->
<g id="node3" class="node">
<title>Node3</title>
<g id="a_node3"><a xlink:title=" ">
<polygon fill="none" stroke="#bfbfbf" points="119,-0.5 119,-30.5 250,-30.5 250,-0.5 119,-0.5"/>
<text text-anchor="start" x="127" y="-18.5" font-family="Helvetica,sans-Serif" font-size="10.00">domain_decomposition</text>
<text text-anchor="middle" x="184.5" y="-7.5" font-family="Helvetica,sans-Serif" font-size="10.00">/BlockDataID.h</text>
</a>
</g>
</g>
<!-- Node1&#45;&gt;Node3 -->
<g id="edge2" class="edge">
<title>Node1&#45;&gt;Node3</title>
<path fill="none" stroke="midnightblue" d="M444.83,-67.46C400.65,-58.82 330.08,-45.01 260.13,-31.32"/>
<polygon fill="midnightblue" stroke="midnightblue" points="260.75,-27.87 250.27,-29.39 259.41,-34.74 260.75,-27.87"/>
</g>
<!-- Node4 -->
<g id="node4" class="node">
<title>Node4</title>
<g id="a_node4"><a xlink:title=" ">
<polygon fill="none" stroke="#bfbfbf" points="268,-0.5 268,-30.5 399,-30.5 399,-0.5 268,-0.5"/>
<text text-anchor="start" x="276" y="-18.5" font-family="Helvetica,sans-Serif" font-size="10.00">domain_decomposition</text>
<text text-anchor="middle" x="333.5" y="-7.5" font-family="Helvetica,sans-Serif" font-size="10.00">/IBlock.h</text>
</a>
</g>
</g>
<!-- Node1&#45;&gt;Node4 -->
<g id="edge3" class="edge">
<title>Node1&#45;&gt;Node4</title>
<path fill="none" stroke="midnightblue" d="M466.29,-67.48C443.73,-58.81 408.12,-45.15 379.46,-34.14"/>
<polygon fill="midnightblue" stroke="midnightblue" points="380.62,-30.84 370.03,-30.52 378.11,-37.37 380.62,-30.84"/>
</g>
<!-- Node5 -->
<g id="node5" class="node">
<title>Node5</title>
<g id="a_node5"><a xlink:title=" ">
<polygon fill="none" stroke="#bfbfbf" points="417,-0.5 417,-30.5 560,-30.5 560,-0.5 417,-0.5"/>
<text text-anchor="start" x="425" y="-18.5" font-family="Helvetica,sans-Serif" font-size="10.00">domain_decomposition</text>
<text text-anchor="middle" x="488.5" y="-7.5" font-family="Helvetica,sans-Serif" font-size="10.00">/StructuredBlockStorage.h</text>
</a>
</g>
</g>
<!-- Node1&#45;&gt;Node5 -->
<g id="edge4" class="edge">
<title>Node1&#45;&gt;Node5</title>
<path fill="none" stroke="midnightblue" d="M488.5,-67.48C488.5,-60.47 488.5,-50.19 488.5,-40.7"/>
<polygon fill="midnightblue" stroke="midnightblue" points="492,-40.52 488.5,-30.52 485,-40.52 492,-40.52"/>
</g>
<!-- Node6 -->
<g id="node6" class="node">
<title>Node6</title>
<g id="a_node6"><a xlink:title=" ">
<polygon fill="none" stroke="#bfbfbf" points="578.5,-6 578.5,-25 706.5,-25 706.5,-6 578.5,-6"/>
<text text-anchor="middle" x="642.5" y="-13" font-family="Helvetica,sans-Serif" font-size="10.00">field/GhostLayerField.h</text>
</a>
</g>
</g>
<!-- Node1&#45;&gt;Node6 -->
<g id="edge5" class="edge">
<title>Node1&#45;&gt;Node6</title>
<path fill="none" stroke="midnightblue" d="M510.56,-67.48C536.87,-57.31 581.01,-40.26 610.92,-28.7"/>
<polygon fill="midnightblue" stroke="midnightblue" points="612.41,-31.88 620.48,-25.01 609.89,-25.35 612.41,-31.88"/>
</g>
<!-- Node7 -->
<g id="node7" class="node">
<title>Node7</title>
<g id="a_node7"><a xlink:title=" ">
<polygon fill="none" stroke="#bfbfbf" points="725,-6 725,-25 866,-25 866,-6 725,-6"/>
<text text-anchor="middle" x="795.5" y="-13" font-family="Helvetica,sans-Serif" font-size="10.00">field/SwapableCompare.h</text>
</a>
</g>
</g>
<!-- Node1&#45;&gt;Node7 -->
<g id="edge6" class="edge">
<title>Node1&#45;&gt;Node7</title>
<path fill="none" stroke="midnightblue" d="M532.49,-67.48C587.65,-56.78 682.2,-38.46 741.65,-26.94"/>
<polygon fill="midnightblue" stroke="midnightblue" points="742.44,-30.35 751.6,-25.01 741.11,-23.48 742.44,-30.35"/>
</g>
<!-- Node8 -->
<g id="node8" class="node">
<title>Node8</title>
<g id="a_node8"><a xlink:title=" ">
<polygon fill="none" stroke="#bfbfbf" points="884.5,-6 884.5,-25 916.5,-25 916.5,-6 884.5,-6"/>
<text text-anchor="middle" x="900.5" y="-13" font-family="Helvetica,sans-Serif" font-size="10.00">set</text>
</a>
</g>
</g>
<!-- Node1&#45;&gt;Node8 -->
<g id="edge7" class="edge">
<title>Node1&#45;&gt;Node8</title>
<path fill="none" stroke="midnightblue" d="M572.15,-76.03C652,-73.81 774.72,-64.47 875.5,-31 876.57,-30.64 877.65,-30.24 878.72,-29.8"/>
<polygon fill="midnightblue" stroke="midnightblue" points="880.67,-32.73 888,-25.09 877.5,-26.49 880.67,-32.73"/>
</g>
</g>
</svg>
