<?xml version="1.0" encoding="UTF-8" standalone="no"?>
<!DOCTYPE svg PUBLIC "-//W3C//DTD SVG 1.1//EN"
 "http://www.w3.org/Graphics/SVG/1.1/DTD/svg11.dtd">
<!-- Generated by graphviz version 2.43.0 (0)
 -->
<!-- Title: StreamCollideSweepDoublePrecisionThermalizedCUDA.h Pages: 1 -->
<svg width="276pt" height="104pt"
 viewBox="0.00 0.00 276.00 104.00" xmlns="http://www.w3.org/2000/svg" xmlns:xlink="http://www.w3.org/1999/xlink">
<g id="graph0" class="graph" transform="scale(1 1) rotate(0) translate(4 100)">
<title>StreamCollideSweepDoublePrecisionThermalizedCUDA.h</title>
<!-- Node1 -->
<g id="Node000001" class="node">
<title>Node1</title>
<g id="a_Node000001"><a xlink:title=" ">
<polygon fill="#999999" stroke="#666666" points="232.5,-96 73.5,-96 73.5,-66 232.5,-66 232.5,-96"/>
<text text-anchor="start" x="81.5" y="-84" font-family="Helvetica,sans-Serif" font-size="10.00">StreamCollideSweepDouble</text>
<text text-anchor="middle" x="153" y="-73" font-family="Helvetica,sans-Serif" font-size="10.00">PrecisionThermalizedCUDA.h</text>
</a>
</g>
</g>
<!-- Node2 -->
<g id="Node000002" class="node">
<title>Node2</title>
<g id="a_Node000002"><a xlink:href="StreamCollideSweepDoublePrecisionThermalizedCUDA_8cu.html" target="_top" xlink:title=" ">
<polygon fill="white" stroke="#666666" points="164,-30 0,-30 0,0 164,0 164,-30"/>
<text text-anchor="start" x="8" y="-18" font-family="Helvetica,sans-Serif" font-size="10.00">StreamCollideSweepDouble</text>
<text text-anchor="middle" x="82" y="-7" font-family="Helvetica,sans-Serif" font-size="10.00">PrecisionThermalizedCUDA.cu</text>
</a>
</g>
</g>
<!-- Node1&#45;&gt;Node2 -->
<g id="edge1_Node000001_Node000002" class="edge">
<title>Node1&#45;&gt;Node2</title>
<g id="a_edge1_Node000001_Node000002"><a xlink:title=" ">
<path fill="none" stroke="#63b8ff" d="M129.62,-58.92C119.15,-49.49 107.08,-38.61 97.71,-30.16"/>
<polygon fill="#63b8ff" stroke="#63b8ff" points="127.47,-61.7 137.24,-65.8 132.16,-56.5 127.47,-61.7"/>
</a>
</g>
</g>
<!-- Node3 -->
<g id="Node000003" class="node">
<title>Node3</title>
<g id="a_Node000003"><a xlink:href="lb__kernels_8cuh.html" target="_top" xlink:title=" ">
<polygon fill="white" stroke="#666666" points="268,-24.5 182,-24.5 182,-5.5 268,-5.5 268,-24.5"/>
<text text-anchor="middle" x="225" y="-12.5" font-family="Helvetica,sans-Serif" font-size="10.00">lb_kernels.cuh</text>
</a>
</g>
</g>
<!-- Node1&#45;&gt;Node3 -->
<g id="edge2_Node000001_Node000003" class="edge">
<title>Node1&#45;&gt;Node3</title>
<g id="a_edge2_Node000001_Node000003"><a xlink:title=" ">
<path fill="none" stroke="#63b8ff" d="M176.7,-58.93C189.73,-47.35 205.19,-33.61 215.05,-24.84"/>
<polygon fill="#63b8ff" stroke="#63b8ff" points="174.13,-56.54 168.98,-65.8 178.78,-61.77 174.13,-56.54"/>
</a>
</g>
</g>
</g>
</svg>
