<?xml version="1.0" encoding="UTF-8" standalone="no"?>
<!DOCTYPE svg PUBLIC "-//W3C//DTD SVG 1.1//EN"
 "http://www.w3.org/Graphics/SVG/1.1/DTD/svg11.dtd">
<!-- Generated by graphviz version 2.43.0 (0)
 -->
<!-- Title: ICCStar Pages: 1 -->
<svg width="305pt" height="319pt"
 viewBox="0.00 0.00 304.50 319.00" xmlns="http://www.w3.org/2000/svg" xmlns:xlink="http://www.w3.org/1999/xlink">
<g id="graph0" class="graph" transform="scale(1 1) rotate(0) translate(4 315)">
<title>ICCStar</title>
<!-- Node1 -->
<g id="node1" class="node">
<title>Node1</title>
<g id="a_node1"><a xlink:title=" ">
<polygon fill="#bfbfbf" stroke="black" points="80,-0.5 80,-19.5 133,-19.5 133,-0.5 80,-0.5"/>
<text text-anchor="middle" x="106.5" y="-7.5" font-family="Helvetica,sans-Serif" font-size="10.00">ICCStar</text>
</a>
</g>
</g>
<!-- Node2 -->
<g id="node2" class="node">
<title>Node2</title>
<g id="a_node2"><a xlink:href="classSystem_1_1Leaf.html" target="_top" xlink:title=" ">
<polygon fill="none" stroke="black" points="0,-67.5 0,-86.5 139,-86.5 139,-67.5 0,-67.5"/>
<text text-anchor="middle" x="69.5" y="-74.5" font-family="Helvetica,sans-Serif" font-size="10.00">System::Leaf&lt; ICCStar &gt;</text>
</a>
</g>
</g>
<!-- Node2&#45;&gt;Node1 -->
<g id="edge1" class="edge">
<title>Node2&#45;&gt;Node1</title>
<path fill="none" stroke="midnightblue" d="M79.44,-58.53C86.61,-45.95 95.97,-29.51 101.59,-19.63"/>
<polygon fill="midnightblue" stroke="midnightblue" points="76.4,-56.81 74.49,-67.23 82.48,-60.27 76.4,-56.81"/>
</g>
<!-- Node3 -->
<g id="node3" class="node">
<title>Node3</title>
<g id="a_node3"><a xlink:href="structicc__data.html" target="_top" xlink:title="ICC data structure.">
<polygon fill="none" stroke="black" points="157,-67.5 157,-86.5 214,-86.5 214,-67.5 157,-67.5"/>
<text text-anchor="middle" x="185.5" y="-74.5" font-family="Helvetica,sans-Serif" font-size="10.00">icc_data</text>
</a>
</g>
</g>
<!-- Node3&#45;&gt;Node1 -->
<g id="edge2" class="edge">
<title>Node3&#45;&gt;Node1</title>
<path fill="none" stroke="#9a32cd" stroke-dasharray="5,2" d="M166.92,-60.71C151.36,-47.91 129.7,-30.09 116.99,-19.63"/>
<polygon fill="#9a32cd" stroke="#9a32cd" points="164.9,-63.58 174.85,-67.23 169.35,-58.18 164.9,-63.58"/>
<text text-anchor="middle" x="169" y="-41" font-family="Helvetica,sans-Serif" font-size="10.00"> icc_cfg</text>
</g>
<!-- Node4 -->
<g id="node4" class="node">
<title>Node4</title>
<g id="a_node4"><a xlink:title=" ">
<polygon fill="none" stroke="#bfbfbf" points="52.5,-156.5 52.5,-186.5 154.5,-186.5 154.5,-156.5 52.5,-156.5"/>
<text text-anchor="start" x="60.5" y="-174.5" font-family="Helvetica,sans-Serif" font-size="10.00">std::vector&lt; Utils</text>
<text text-anchor="middle" x="103.5" y="-163.5" font-family="Helvetica,sans-Serif" font-size="10.00">::Vector &gt;</text>
</a>
</g>
</g>
<!-- Node4&#45;&gt;Node3 -->
<g id="edge3" class="edge">
<title>Node4&#45;&gt;Node3</title>
<path fill="none" stroke="#9a32cd" stroke-dasharray="5,2" d="M118.32,-147.96C127.45,-134.81 139.81,-118.25 152.5,-105 158.95,-98.26 167.05,-91.62 173.6,-86.6"/>
<polygon fill="#9a32cd" stroke="#9a32cd" points="115.28,-146.2 112.55,-156.44 121.07,-150.14 115.28,-146.2"/>
<text text-anchor="middle" x="174" y="-119" font-family="Helvetica,sans-Serif" font-size="10.00"> normals</text>
</g>
<!-- Node5 -->
<g id="node5" class="node">
<title>Node5</title>
<g id="a_node5"><a xlink:href="classUtils_1_1Vector.html" target="_top" xlink:title=" ">
<polygon fill="none" stroke="black" points="44.5,-234.5 44.5,-253.5 162.5,-253.5 162.5,-234.5 44.5,-234.5"/>
<text text-anchor="middle" x="103.5" y="-241.5" font-family="Helvetica,sans-Serif" font-size="10.00">Utils::Vector&lt; T, N &gt;</text>
</a>
</g>
</g>
<!-- Node5&#45;&gt;Node4 -->
<g id="edge4" class="edge">
<title>Node5&#45;&gt;Node4</title>
<path fill="none" stroke="#9a32cd" stroke-dasharray="5,2" d="M103.5,-224.24C103.5,-212.41 103.5,-197.38 103.5,-186.58"/>
<polygon fill="#9a32cd" stroke="#9a32cd" points="100,-224.36 103.5,-234.36 107,-224.36 100,-224.36"/>
<text text-anchor="middle" x="128" y="-208" font-family="Helvetica,sans-Serif" font-size="10.00"> elements</text>
</g>
<!-- Node6 -->
<g id="node6" class="node">
<title>Node6</title>
<g id="a_node6"><a xlink:href="structUtils_1_1Array.html" target="_top" xlink:title=" ">
<polygon fill="none" stroke="black" points="47,-291.5 47,-310.5 160,-310.5 160,-291.5 47,-291.5"/>
<text text-anchor="middle" x="103.5" y="-298.5" font-family="Helvetica,sans-Serif" font-size="10.00">Utils::Array&lt; T, N &gt;</text>
</a>
</g>
</g>
<!-- Node6&#45;&gt;Node5 -->
<g id="edge5" class="edge">
<title>Node6&#45;&gt;Node5</title>
<path fill="none" stroke="midnightblue" d="M103.5,-281.12C103.5,-271.82 103.5,-261.06 103.5,-253.71"/>
<polygon fill="midnightblue" stroke="midnightblue" points="100,-281.41 103.5,-291.41 107,-281.41 100,-281.41"/>
</g>
<!-- Node7 -->
<g id="node7" class="node">
<title>Node7</title>
<g id="a_node7"><a xlink:title=" ">
<polygon fill="none" stroke="#bfbfbf" points="172.5,-162 172.5,-181 296.5,-181 296.5,-162 172.5,-162"/>
<text text-anchor="middle" x="234.5" y="-169" font-family="Helvetica,sans-Serif" font-size="10.00">std::vector&lt; double &gt;</text>
</a>
</g>
</g>
<!-- Node7&#45;&gt;Node3 -->
<g id="edge6" class="edge">
<title>Node7&#45;&gt;Node3</title>
<path fill="none" stroke="#9a32cd" stroke-dasharray="5,2" d="M225.25,-153.04C214.73,-133.19 197.99,-101.58 190.01,-86.52"/>
<polygon fill="#9a32cd" stroke="#9a32cd" points="222.2,-154.77 229.98,-161.96 228.39,-151.49 222.2,-154.77"/>
<text text-anchor="middle" x="237" y="-130" font-family="Helvetica,sans-Serif" font-size="10.00"> areas</text>
<text text-anchor="middle" x="237" y="-119" font-family="Helvetica,sans-Serif" font-size="10.00">epsilons</text>
<text text-anchor="middle" x="237" y="-108" font-family="Helvetica,sans-Serif" font-size="10.00">sigmas</text>
</g>
</g>
</svg>
