<?xml version="1.0" encoding="UTF-8" standalone="no"?>
<!DOCTYPE svg PUBLIC "-//W3C//DTD SVG 1.1//EN"
 "http://www.w3.org/Graphics/SVG/1.1/DTD/svg11.dtd">
<!-- Generated by graphviz version 2.43.0 (0)
 -->
<!-- Title: IA_parameters Pages: 1 -->
<svg width="553pt" height="646pt"
 viewBox="0.00 0.00 553.00 646.00" xmlns="http://www.w3.org/2000/svg" xmlns:xlink="http://www.w3.org/1999/xlink">
<g id="graph0" class="graph" transform="scale(1 1) rotate(0) translate(4 642)">
<title>IA_parameters</title>
<!-- Node1 -->
<g id="node1" class="node">
<title>Node1</title>
<g id="a_node1"><a xlink:title="Data structure containing the interaction parameters for non&#45;bonded interactions.">
<polygon fill="#bfbfbf" stroke="black" points="457,-304.5 457,-323.5 545,-323.5 545,-304.5 457,-304.5"/>
<text text-anchor="middle" x="501" y="-311.5" font-family="Helvetica,sans-Serif" font-size="10.00">IA_parameters</text>
</a>
</g>
</g>
<!-- Node2 -->
<g id="node2" class="node">
<title>Node2</title>
<g id="a_node2"><a xlink:href="structGaussian__Parameters.html" target="_top" xlink:title="Gaussian potential.">
<polygon fill="none" stroke="black" points="223,-613.5 223,-632.5 346,-632.5 346,-613.5 223,-613.5"/>
<text text-anchor="middle" x="284.5" y="-620.5" font-family="Helvetica,sans-Serif" font-size="10.00">Gaussian_Parameters</text>
</a>
</g>
</g>
<!-- Node2&#45;&gt;Node1 -->
<g id="edge1" class="edge">
<title>Node2&#45;&gt;Node1</title>
<path fill="none" stroke="#9a32cd" stroke-dasharray="5,2" d="M356.19,-628.96C385.25,-627.58 417.14,-620.56 439,-600 480.7,-560.78 496.27,-368.74 499.38,-323.54"/>
<polygon fill="#9a32cd" stroke="#9a32cd" points="355.96,-625.46 346.05,-629.22 356.14,-632.46 355.96,-625.46"/>
<text text-anchor="middle" x="405.5" y="-630" font-family="Helvetica,sans-Serif" font-size="10.00"> gaussian</text>
</g>
<!-- Node3 -->
<g id="node3" class="node">
<title>Node3</title>
<g id="a_node3"><a xlink:href="structDPDParameters.html" target="_top" xlink:title="DPD potential.">
<polygon fill="none" stroke="black" points="237.5,-570.5 237.5,-589.5 331.5,-589.5 331.5,-570.5 237.5,-570.5"/>
<text text-anchor="middle" x="284.5" y="-577.5" font-family="Helvetica,sans-Serif" font-size="10.00">DPDParameters</text>
</a>
</g>
</g>
<!-- Node3&#45;&gt;Node1 -->
<g id="edge2" class="edge">
<title>Node3&#45;&gt;Node1</title>
<path fill="none" stroke="#9a32cd" stroke-dasharray="5,2" d="M342.28,-577.57C379.96,-574.77 424.97,-568.79 439,-556 474.61,-523.52 494.4,-364.69 498.97,-323.68"/>
<polygon fill="#9a32cd" stroke="#9a32cd" points="341.62,-574.1 331.88,-578.27 342.09,-581.09 341.62,-574.1"/>
<text text-anchor="middle" x="405.5" y="-588" font-family="Helvetica,sans-Serif" font-size="10.00"> dpd_radial</text>
<text text-anchor="middle" x="405.5" y="-577" font-family="Helvetica,sans-Serif" font-size="10.00">dpd_trans</text>
</g>
<!-- Node4 -->
<g id="node4" class="node">
<title>Node4</title>
<g id="a_node4"><a xlink:href="structBuckingham__Parameters.html" target="_top" xlink:title="Buckingham potential.">
<polygon fill="none" stroke="black" points="215,-532.5 215,-551.5 354,-551.5 354,-532.5 215,-532.5"/>
<text text-anchor="middle" x="284.5" y="-539.5" font-family="Helvetica,sans-Serif" font-size="10.00">Buckingham_Parameters</text>
</a>
</g>
</g>
<!-- Node4&#45;&gt;Node1 -->
<g id="edge3" class="edge">
<title>Node4&#45;&gt;Node1</title>
<path fill="none" stroke="#9a32cd" stroke-dasharray="5,2" d="M364.29,-544.73C390.76,-541.79 418.69,-533.91 439,-516 498.08,-463.91 500.95,-356.84 500.35,-323.88"/>
<polygon fill="#9a32cd" stroke="#9a32cd" points="363.88,-541.26 354.24,-545.63 364.51,-548.23 363.88,-541.26"/>
<text text-anchor="middle" x="405.5" y="-546" font-family="Helvetica,sans-Serif" font-size="10.00"> buckingham</text>
</g>
<!-- Node5 -->
<g id="node5" class="node">
<title>Node5</title>
<g id="a_node5"><a xlink:href="structLJ__Parameters.html" target="_top" xlink:title="Lennard&#45;Jones with shift.">
<polygon fill="none" stroke="black" points="241.5,-494.5 241.5,-513.5 327.5,-513.5 327.5,-494.5 241.5,-494.5"/>
<text text-anchor="middle" x="284.5" y="-501.5" font-family="Helvetica,sans-Serif" font-size="10.00">LJ_Parameters</text>
</a>
</g>
</g>
<!-- Node5&#45;&gt;Node1 -->
<g id="edge4" class="edge">
<title>Node5&#45;&gt;Node1</title>
<path fill="none" stroke="#9a32cd" stroke-dasharray="5,2" d="M337.89,-506.02C370.41,-504.56 411.17,-497.43 439,-474 486.76,-433.79 497.21,-351.88 499.43,-323.75"/>
<polygon fill="#9a32cd" stroke="#9a32cd" points="337.55,-502.53 327.65,-506.31 337.75,-509.53 337.55,-502.53"/>
<text text-anchor="middle" x="405.5" y="-504" font-family="Helvetica,sans-Serif" font-size="10.00"> lj</text>
</g>
<!-- Node6 -->
<g id="node6" class="node">
<title>Node6</title>
<g id="a_node6"><a xlink:href="structWCA__Parameters.html" target="_top" xlink:title="WCA potential.">
<polygon fill="none" stroke="black" points="234,-456.5 234,-475.5 335,-475.5 335,-456.5 234,-456.5"/>
<text text-anchor="middle" x="284.5" y="-463.5" font-family="Helvetica,sans-Serif" font-size="10.00">WCA_Parameters</text>
</a>
</g>
</g>
<!-- Node6&#45;&gt;Node1 -->
<g id="edge5" class="edge">
<title>Node6&#45;&gt;Node1</title>
<path fill="none" stroke="#9a32cd" stroke-dasharray="5,2" d="M345.46,-464.07C376.12,-460.37 412.46,-451.48 439,-431 475.63,-402.73 492.44,-346.23 497.89,-323.65"/>
<polygon fill="#9a32cd" stroke="#9a32cd" points="344.89,-460.61 335.31,-465.14 345.62,-467.58 344.89,-460.61"/>
<text text-anchor="middle" x="405.5" y="-462" font-family="Helvetica,sans-Serif" font-size="10.00"> wca</text>
</g>
<!-- Node7 -->
<g id="node7" class="node">
<title>Node7</title>
<g id="a_node7"><a xlink:href="structLJcos__Parameters.html" target="_top" xlink:title="Lennard&#45;Jones+Cos potential.">
<polygon fill="none" stroke="black" points="233,-418.5 233,-437.5 336,-437.5 336,-418.5 233,-418.5"/>
<text text-anchor="middle" x="284.5" y="-425.5" font-family="Helvetica,sans-Serif" font-size="10.00">LJcos_Parameters</text>
</a>
</g>
</g>
<!-- Node7&#45;&gt;Node1 -->
<g id="edge6" class="edge">
<title>Node7&#45;&gt;Node1</title>
<path fill="none" stroke="#9a32cd" stroke-dasharray="5,2" d="M346.4,-422.7C376.16,-417.86 411.42,-408.63 439,-391 466.02,-373.73 486.25,-340.3 495.09,-323.76"/>
<polygon fill="#9a32cd" stroke="#9a32cd" points="345.5,-419.29 336.12,-424.23 346.53,-426.22 345.5,-419.29"/>
<text text-anchor="middle" x="405.5" y="-419" font-family="Helvetica,sans-Serif" font-size="10.00"> ljcos</text>
</g>
<!-- Node8 -->
<g id="node8" class="node">
<title>Node8</title>
<g id="a_node8"><a xlink:href="structTabulatedPotential.html" target="_top" xlink:title="Evaluate forces and energies using a custom potential profile.">
<polygon fill="none" stroke="black" points="231,-380.5 231,-399.5 338,-399.5 338,-380.5 231,-380.5"/>
<text text-anchor="middle" x="284.5" y="-387.5" font-family="Helvetica,sans-Serif" font-size="10.00">TabulatedPotential</text>
</a>
</g>
</g>
<!-- Node8&#45;&gt;Node1 -->
<g id="edge7" class="edge">
<title>Node8&#45;&gt;Node1</title>
<path fill="none" stroke="#9a32cd" stroke-dasharray="5,2" d="M348.02,-381.12C376.54,-375.73 410.27,-367.42 439,-355 457.74,-346.9 476.88,-332.91 488.61,-323.56"/>
<polygon fill="#9a32cd" stroke="#9a32cd" points="347.38,-377.68 338.16,-382.91 348.63,-384.57 347.38,-377.68"/>
<text text-anchor="middle" x="405.5" y="-379" font-family="Helvetica,sans-Serif" font-size="10.00"> tab</text>
</g>
<!-- Node9 -->
<g id="node9" class="node">
<title>Node9</title>
<g id="a_node9"><a xlink:title=" ">
<polygon fill="none" stroke="#bfbfbf" points="0,-380.5 0,-399.5 124,-399.5 124,-380.5 0,-380.5"/>
<text text-anchor="middle" x="62" y="-387.5" font-family="Helvetica,sans-Serif" font-size="10.00">std::vector&lt; double &gt;</text>
</a>
</g>
</g>
<!-- Node9&#45;&gt;Node8 -->
<g id="edge8" class="edge">
<title>Node9&#45;&gt;Node8</title>
<path fill="none" stroke="#9a32cd" stroke-dasharray="5,2" d="M134.15,-390C165.6,-390 201.92,-390 230.87,-390"/>
<polygon fill="#9a32cd" stroke="#9a32cd" points="134.13,-386.5 124.13,-390 134.13,-393.5 134.13,-386.5"/>
<text text-anchor="middle" x="169.5" y="-404" font-family="Helvetica,sans-Serif" font-size="10.00"> force_tab</text>
<text text-anchor="middle" x="169.5" y="-393" font-family="Helvetica,sans-Serif" font-size="10.00">energy_tab</text>
</g>
<!-- Node10 -->
<g id="node10" class="node">
<title>Node10</title>
<g id="a_node10"><a xlink:href="structLJGen__Parameters.html" target="_top" xlink:title="Generic Lennard&#45;Jones with shift.">
<polygon fill="none" stroke="black" points="231.5,-342.5 231.5,-361.5 337.5,-361.5 337.5,-342.5 231.5,-342.5"/>
<text text-anchor="middle" x="284.5" y="-349.5" font-family="Helvetica,sans-Serif" font-size="10.00">LJGen_Parameters</text>
</a>
</g>
</g>
<!-- Node10&#45;&gt;Node1 -->
<g id="edge9" class="edge">
<title>Node10&#45;&gt;Node1</title>
<path fill="none" stroke="#9a32cd" stroke-dasharray="5,2" d="M347.63,-344.02C375.65,-340.08 409.1,-334.9 439,-329 447.02,-327.42 455.58,-325.47 463.67,-323.52"/>
<polygon fill="#9a32cd" stroke="#9a32cd" points="347,-340.57 337.57,-345.41 347.96,-347.51 347,-340.57"/>
<text text-anchor="middle" x="405.5" y="-343" font-family="Helvetica,sans-Serif" font-size="10.00"> ljgen</text>
</g>
<!-- Node11 -->
<g id="node11" class="node">
<title>Node11</title>
<g id="a_node11"><a xlink:href="structHertzian__Parameters.html" target="_top" xlink:title="Hertzian potential.">
<polygon fill="none" stroke="black" points="225,-304.5 225,-323.5 344,-323.5 344,-304.5 225,-304.5"/>
<text text-anchor="middle" x="284.5" y="-311.5" font-family="Helvetica,sans-Serif" font-size="10.00">Hertzian_Parameters</text>
</a>
</g>
</g>
<!-- Node11&#45;&gt;Node1 -->
<g id="edge10" class="edge">
<title>Node11&#45;&gt;Node1</title>
<path fill="none" stroke="#9a32cd" stroke-dasharray="5,2" d="M354.35,-314C387.98,-314 427.42,-314 456.77,-314"/>
<polygon fill="#9a32cd" stroke="#9a32cd" points="354.11,-310.5 344.11,-314 354.11,-317.5 354.11,-310.5"/>
<text text-anchor="middle" x="405.5" y="-317" font-family="Helvetica,sans-Serif" font-size="10.00"> hertzian</text>
</g>
<!-- Node12 -->
<g id="node12" class="node">
<title>Node12</title>
<g id="a_node12"><a xlink:href="structLJcos2__Parameters.html" target="_top" xlink:title="Lennard&#45;Jones with a different Cos potential.">
<polygon fill="none" stroke="black" points="230,-266.5 230,-285.5 339,-285.5 339,-266.5 230,-266.5"/>
<text text-anchor="middle" x="284.5" y="-273.5" font-family="Helvetica,sans-Serif" font-size="10.00">LJcos2_Parameters</text>
</a>
</g>
</g>
<!-- Node12&#45;&gt;Node1 -->
<g id="edge11" class="edge">
<title>Node12&#45;&gt;Node1</title>
<path fill="none" stroke="#9a32cd" stroke-dasharray="5,2" d="M349.3,-284.21C376.97,-288.12 409.69,-293.21 439,-299 447.02,-300.58 455.58,-302.53 463.67,-304.48"/>
<polygon fill="#9a32cd" stroke="#9a32cd" points="349.73,-280.74 339.34,-282.83 348.77,-287.67 349.73,-280.74"/>
<text text-anchor="middle" x="405.5" y="-302" font-family="Helvetica,sans-Serif" font-size="10.00"> ljcos2</text>
</g>
<!-- Node13 -->
<g id="node13" class="node">
<title>Node13</title>
<g id="a_node13"><a xlink:href="structMorse__Parameters.html" target="_top" xlink:title="Morse potential.">
<polygon fill="none" stroke="black" points="230.5,-228.5 230.5,-247.5 338.5,-247.5 338.5,-228.5 230.5,-228.5"/>
<text text-anchor="middle" x="284.5" y="-235.5" font-family="Helvetica,sans-Serif" font-size="10.00">Morse_Parameters</text>
</a>
</g>
</g>
<!-- Node13&#45;&gt;Node1 -->
<g id="edge12" class="edge">
<title>Node13&#45;&gt;Node1</title>
<path fill="none" stroke="#9a32cd" stroke-dasharray="5,2" d="M348.99,-247.71C377.27,-253.34 410.55,-261.79 439,-274 457.39,-281.89 476.31,-295.28 488.11,-304.37"/>
<polygon fill="#9a32cd" stroke="#9a32cd" points="349.29,-244.21 338.81,-245.77 347.98,-251.08 349.29,-244.21"/>
<text text-anchor="middle" x="405.5" y="-277" font-family="Helvetica,sans-Serif" font-size="10.00"> morse</text>
</g>
<!-- Node14 -->
<g id="node14" class="node">
<title>Node14</title>
<g id="a_node14"><a xlink:href="structHat__Parameters.html" target="_top" xlink:title="hat potential">
<polygon fill="none" stroke="black" points="237,-190.5 237,-209.5 332,-209.5 332,-190.5 237,-190.5"/>
<text text-anchor="middle" x="284.5" y="-197.5" font-family="Helvetica,sans-Serif" font-size="10.00">Hat_Parameters</text>
</a>
</g>
</g>
<!-- Node14&#45;&gt;Node1 -->
<g id="edge13" class="edge">
<title>Node14&#45;&gt;Node1</title>
<path fill="none" stroke="#9a32cd" stroke-dasharray="5,2" d="M342.28,-205.67C372.83,-210.79 410.06,-220.52 439,-239 465.45,-255.89 485.81,-288.13 494.86,-304.27"/>
<polygon fill="#9a32cd" stroke="#9a32cd" points="342.62,-202.18 332.2,-204.1 341.54,-209.09 342.62,-202.18"/>
<text text-anchor="middle" x="405.5" y="-242" font-family="Helvetica,sans-Serif" font-size="10.00"> hat</text>
</g>
<!-- Node15 -->
<g id="node15" class="node">
<title>Node15</title>
<g id="a_node15"><a xlink:href="structThole__Parameters.html" target="_top" xlink:title="Thole potential.">
<polygon fill="none" stroke="black" points="232,-152.5 232,-171.5 337,-171.5 337,-152.5 232,-152.5"/>
<text text-anchor="middle" x="284.5" y="-159.5" font-family="Helvetica,sans-Serif" font-size="10.00">Thole_Parameters</text>
</a>
</g>
</g>
<!-- Node15&#45;&gt;Node1 -->
<g id="edge14" class="edge">
<title>Node15&#45;&gt;Node1</title>
<path fill="none" stroke="#9a32cd" stroke-dasharray="5,2" d="M347.15,-164.63C377.44,-168.67 412.94,-177.83 439,-198 475.35,-226.13 492.32,-282.09 497.85,-304.45"/>
<polygon fill="#9a32cd" stroke="#9a32cd" points="347.43,-161.14 337.09,-163.44 346.61,-168.09 347.43,-161.14"/>
<text text-anchor="middle" x="405.5" y="-201" font-family="Helvetica,sans-Serif" font-size="10.00"> thole</text>
</g>
<!-- Node16 -->
<g id="node16" class="node">
<title>Node16</title>
<g id="a_node16"><a xlink:href="structSoftSphere__Parameters.html" target="_top" xlink:title="soft&#45;sphere potential">
<polygon fill="none" stroke="black" points="219,-114.5 219,-133.5 350,-133.5 350,-114.5 219,-114.5"/>
<text text-anchor="middle" x="284.5" y="-121.5" font-family="Helvetica,sans-Serif" font-size="10.00">SoftSphere_Parameters</text>
</a>
</g>
</g>
<!-- Node16&#45;&gt;Node1 -->
<g id="edge15" class="edge">
<title>Node16&#45;&gt;Node1</title>
<path fill="none" stroke="#9a32cd" stroke-dasharray="5,2" d="M360.24,-124.43C387.66,-128.1 417.27,-136.63 439,-155 486.41,-195.09 497.09,-276.4 499.39,-304.33"/>
<polygon fill="#9a32cd" stroke="#9a32cd" points="360.58,-120.95 350.25,-123.29 359.79,-127.9 360.58,-120.95"/>
<text text-anchor="middle" x="405.5" y="-158" font-family="Helvetica,sans-Serif" font-size="10.00"> soft_sphere</text>
</g>
<!-- Node17 -->
<g id="node17" class="node">
<title>Node17</title>
<g id="a_node17"><a xlink:href="structBMHTF__Parameters.html" target="_top" xlink:title="BMHTF NaCl potential.">
<polygon fill="none" stroke="black" points="228,-76.5 228,-95.5 341,-95.5 341,-76.5 228,-76.5"/>
<text text-anchor="middle" x="284.5" y="-83.5" font-family="Helvetica,sans-Serif" font-size="10.00">BMHTF_Parameters</text>
</a>
</g>
</g>
<!-- Node17&#45;&gt;Node1 -->
<g id="edge16" class="edge">
<title>Node17&#45;&gt;Node1</title>
<path fill="none" stroke="#9a32cd" stroke-dasharray="5,2" d="M351.3,-82.18C381.3,-83.88 415.32,-91.12 439,-112 498.08,-164.09 500.95,-271.16 500.35,-304.12"/>
<polygon fill="#9a32cd" stroke="#9a32cd" points="351.42,-78.68 341.3,-81.81 351.16,-85.68 351.42,-78.68"/>
<text text-anchor="middle" x="405.5" y="-115" font-family="Helvetica,sans-Serif" font-size="10.00"> bmhtf</text>
</g>
<!-- Node18 -->
<g id="node18" class="node">
<title>Node18</title>
<g id="a_node18"><a xlink:href="structSmoothStep__Parameters.html" target="_top" xlink:title="smooth step potential">
<polygon fill="none" stroke="black" points="216,-38.5 216,-57.5 353,-57.5 353,-38.5 216,-38.5"/>
<text text-anchor="middle" x="284.5" y="-45.5" font-family="Helvetica,sans-Serif" font-size="10.00">SmoothStep_Parameters</text>
</a>
</g>
</g>
<!-- Node18&#45;&gt;Node1 -->
<g id="edge17" class="edge">
<title>Node18&#45;&gt;Node1</title>
<path fill="none" stroke="#9a32cd" stroke-dasharray="5,2" d="M363.55,-42.36C390.37,-44.44 418.71,-51.69 439,-70 475.07,-102.54 494.52,-262.84 498.99,-304.23"/>
<polygon fill="#9a32cd" stroke="#9a32cd" points="363.55,-38.86 353.37,-41.81 363.17,-45.85 363.55,-38.86"/>
<text text-anchor="middle" x="405.5" y="-73" font-family="Helvetica,sans-Serif" font-size="10.00"> smooth_step</text>
</g>
<!-- Node19 -->
<g id="node19" class="node">
<title>Node19</title>
<g id="a_node19"><a xlink:href="structGayBerne__Parameters.html" target="_top" xlink:title="Gay&#45;Berne potential.">
<polygon fill="none" stroke="black" points="221.5,-0.5 221.5,-19.5 347.5,-19.5 347.5,-0.5 221.5,-0.5"/>
<text text-anchor="middle" x="284.5" y="-7.5" font-family="Helvetica,sans-Serif" font-size="10.00">GayBerne_Parameters</text>
</a>
</g>
</g>
<!-- Node19&#45;&gt;Node1 -->
<g id="edge18" class="edge">
<title>Node19&#45;&gt;Node1</title>
<path fill="none" stroke="#9a32cd" stroke-dasharray="5,2" d="M358.13,-2.05C386.58,-2.89 417.48,-9.29 439,-29 481.07,-67.53 496.36,-259.32 499.4,-304.47"/>
<polygon fill="#9a32cd" stroke="#9a32cd" points="357.81,1.45 347.79,-1.98 357.76,-5.55 357.81,1.45"/>
<text text-anchor="middle" x="405.5" y="-32" font-family="Helvetica,sans-Serif" font-size="10.00"> gay_berne</text>
</g>
</g>
</svg>
