<?xml version="1.0" encoding="UTF-8" standalone="no"?>
<!DOCTYPE svg PUBLIC "-//W3C//DTD SVG 1.1//EN"
 "http://www.w3.org/Graphics/SVG/1.1/DTD/svg11.dtd">
<!-- Generated by graphviz version 2.43.0 (0)
 -->
<!-- Title: RegularDecomposition Pages: 1 -->
<svg width="1441pt" height="240pt"
 viewBox="0.00 0.00 1441.00 239.50" xmlns="http://www.w3.org/2000/svg" xmlns:xlink="http://www.w3.org/1999/xlink">
<g id="graph0" class="graph" transform="scale(1 1) rotate(0) translate(4 235.5)">
<title>RegularDecomposition</title>
<!-- Node1 -->
<g id="node1" class="node">
<title>Node1</title>
<g id="a_node1"><a xlink:title="Regular decomposition cell system.">
<polygon fill="#bfbfbf" stroke="black" points="1305,-115 1305,-134 1433,-134 1433,-115 1305,-115"/>
<text text-anchor="middle" x="1369" y="-122" font-family="Helvetica,sans-Serif" font-size="10.00">RegularDecomposition</text>
</a>
</g>
</g>
<!-- Node2 -->
<g id="node2" class="node">
<title>Node2</title>
<g id="a_node2"><a xlink:href="classParticleDecomposition.html" target="_top" xlink:title="A distributed particle decomposition.">
<polygon fill="none" stroke="black" points="1006,-212 1006,-231 1133,-231 1133,-212 1006,-212"/>
<text text-anchor="middle" x="1069.5" y="-219" font-family="Helvetica,sans-Serif" font-size="10.00">ParticleDecomposition</text>
</a>
</g>
</g>
<!-- Node2&#45;&gt;Node1 -->
<g id="edge1" class="edge">
<title>Node2&#45;&gt;Node1</title>
<path fill="none" stroke="midnightblue" d="M1143.55,-224.41C1186.96,-223.51 1242.12,-217.65 1287,-197.5 1319.47,-182.92 1347.93,-150.39 1360.76,-134.13"/>
<polygon fill="midnightblue" stroke="midnightblue" points="1143.3,-220.92 1133.34,-224.54 1143.39,-227.92 1143.3,-220.92"/>
</g>
<!-- Node3 -->
<g id="node3" class="node">
<title>Node3</title>
<g id="a_node3"><a xlink:title=" ">
<polygon fill="none" stroke="#bfbfbf" points="1014.5,-174 1014.5,-193 1124.5,-193 1124.5,-174 1014.5,-174"/>
<text text-anchor="middle" x="1069.5" y="-181" font-family="Helvetica,sans-Serif" font-size="10.00">std::vector&lt; Cell &gt;</text>
</a>
</g>
</g>
<!-- Node3&#45;&gt;Node1 -->
<g id="edge2" class="edge">
<title>Node3&#45;&gt;Node1</title>
<path fill="none" stroke="#9a32cd" stroke-dasharray="5,2" d="M1135.07,-184.04C1178.71,-182.91 1237.22,-178.44 1287,-164.5 1311.31,-157.69 1337.08,-143.62 1352.86,-134.12"/>
<polygon fill="#9a32cd" stroke="#9a32cd" points="1134.8,-180.54 1124.87,-184.25 1134.94,-187.54 1134.8,-180.54"/>
<text text-anchor="middle" x="1219" y="-185.5" font-family="Helvetica,sans-Serif" font-size="10.00"> cells</text>
</g>
<!-- Node4 -->
<g id="node4" class="node">
<title>Node4</title>
<g id="a_node4"><a xlink:href="classCell.html" target="_top" xlink:title=" ">
<polygon fill="none" stroke="black" points="769,-154 769,-173 804,-173 804,-154 769,-154"/>
<text text-anchor="middle" x="786.5" y="-161" font-family="Helvetica,sans-Serif" font-size="10.00">Cell</text>
</a>
</g>
</g>
<!-- Node4&#45;&gt;Node3 -->
<g id="edge3" class="edge">
<title>Node4&#45;&gt;Node3</title>
<path fill="none" stroke="#9a32cd" stroke-dasharray="5,2" d="M814.28,-165.41C860.1,-168.67 954.4,-175.38 1014.38,-179.65"/>
<polygon fill="#9a32cd" stroke="#9a32cd" points="814.46,-161.91 804.24,-164.69 813.96,-168.89 814.46,-161.91"/>
<text text-anchor="middle" x="945.5" y="-180.5" font-family="Helvetica,sans-Serif" font-size="10.00"> elements</text>
</g>
<!-- Node8 -->
<g id="node8" class="node">
<title>Node8</title>
<g id="a_node8"><a xlink:title=" ">
<polygon fill="none" stroke="#bfbfbf" points="1010.5,-136 1010.5,-155 1128.5,-155 1128.5,-136 1010.5,-136"/>
<text text-anchor="middle" x="1069.5" y="-143" font-family="Helvetica,sans-Serif" font-size="10.00">std::vector&lt; Cell * &gt;</text>
</a>
</g>
</g>
<!-- Node4&#45;&gt;Node8 -->
<g id="edge8" class="edge">
<title>Node4&#45;&gt;Node8</title>
<path fill="none" stroke="#9a32cd" stroke-dasharray="5,2" d="M814.46,-159.48C837.83,-156.18 872.56,-151.71 903,-149.5 938.55,-146.92 978.49,-145.9 1010.22,-145.54"/>
<polygon fill="#9a32cd" stroke="#9a32cd" points="813.68,-156.06 804.28,-160.95 814.68,-162.99 813.68,-156.06"/>
<text text-anchor="middle" x="945.5" y="-152.5" font-family="Helvetica,sans-Serif" font-size="10.00"> elements</text>
</g>
<!-- Node5 -->
<g id="node5" class="node">
<title>Node5</title>
<g id="a_node5"><a xlink:title=" ">
<polygon fill="none" stroke="#bfbfbf" points="439,-170.5 439,-200.5 585,-200.5 585,-170.5 439,-170.5"/>
<text text-anchor="start" x="447" y="-188.5" font-family="Helvetica,sans-Serif" font-size="10.00">std::vector&lt; std::pair</text>
<text text-anchor="middle" x="512" y="-177.5" font-family="Helvetica,sans-Serif" font-size="10.00">&lt; Particle *, Particle * &gt; &gt;</text>
</a>
</g>
</g>
<!-- Node5&#45;&gt;Node4 -->
<g id="edge4" class="edge">
<title>Node5&#45;&gt;Node4</title>
<path fill="none" stroke="#9a32cd" stroke-dasharray="5,2" d="M595.37,-178.85C656.64,-173.9 735.23,-167.56 768.94,-164.84"/>
<polygon fill="#9a32cd" stroke="#9a32cd" points="595,-175.37 585.31,-179.66 595.56,-182.35 595,-175.37"/>
<text text-anchor="middle" x="636.5" y="-180.5" font-family="Helvetica,sans-Serif" font-size="10.00"> m_verlet_list</text>
</g>
<!-- Node6 -->
<g id="node6" class="node">
<title>Node6</title>
<g id="a_node6"><a xlink:href="classNeighbors.html" target="_top" xlink:title=" ">
<polygon fill="none" stroke="black" points="454,-132 454,-151 570,-151 570,-132 454,-132"/>
<text text-anchor="middle" x="512" y="-139" font-family="Helvetica,sans-Serif" font-size="10.00">Neighbors&lt; Cell * &gt;</text>
</a>
</g>
</g>
<!-- Node6&#45;&gt;Node4 -->
<g id="edge5" class="edge">
<title>Node6&#45;&gt;Node4</title>
<path fill="none" stroke="#9a32cd" stroke-dasharray="5,2" d="M580.35,-146.94C643.12,-152.01 732.37,-159.21 768.92,-162.16"/>
<polygon fill="#9a32cd" stroke="#9a32cd" points="580.37,-143.43 570.12,-146.11 579.81,-150.41 580.37,-143.43"/>
<text text-anchor="middle" x="636.5" y="-156.5" font-family="Helvetica,sans-Serif" font-size="10.00"> m_neighbors</text>
</g>
<!-- Node7 -->
<g id="node7" class="node">
<title>Node7</title>
<g id="a_node7"><a xlink:href="classBoxGeometry.html" target="_top" xlink:title=" ">
<polygon fill="none" stroke="black" points="1027.5,-98 1027.5,-117 1111.5,-117 1111.5,-98 1027.5,-98"/>
<text text-anchor="middle" x="1069.5" y="-105" font-family="Helvetica,sans-Serif" font-size="10.00">BoxGeometry</text>
</a>
</g>
</g>
<!-- Node7&#45;&gt;Node1 -->
<g id="edge6" class="edge">
<title>Node7&#45;&gt;Node1</title>
<path fill="none" stroke="#9a32cd" stroke-dasharray="5,2" d="M1121.88,-105C1165.83,-103.51 1230.74,-102.86 1287,-108.5 1300.26,-109.83 1314.58,-112.3 1327.44,-114.92"/>
<polygon fill="#9a32cd" stroke="#9a32cd" points="1121.59,-101.5 1111.72,-105.37 1121.84,-108.5 1121.59,-101.5"/>
<text text-anchor="middle" x="1219" y="-111.5" font-family="Helvetica,sans-Serif" font-size="10.00"> m_box</text>
</g>
<!-- Node8&#45;&gt;Node1 -->
<g id="edge7" class="edge">
<title>Node8&#45;&gt;Node1</title>
<path fill="none" stroke="#9a32cd" stroke-dasharray="5,2" d="M1138.65,-140.69C1188.68,-137.16 1256.14,-132.4 1304.94,-128.95"/>
<polygon fill="#9a32cd" stroke="#9a32cd" points="1138.3,-137.21 1128.57,-141.4 1138.79,-144.19 1138.3,-137.21"/>
<text text-anchor="middle" x="1219" y="-152.5" font-family="Helvetica,sans-Serif" font-size="10.00"> m_ghost_cells</text>
<text text-anchor="middle" x="1219" y="-141.5" font-family="Helvetica,sans-Serif" font-size="10.00">m_local_cells</text>
</g>
<!-- Node9 -->
<g id="node9" class="node">
<title>Node9</title>
<g id="a_node9"><a xlink:href="classLocalBox.html" target="_top" xlink:title=" ">
<polygon fill="none" stroke="black" points="1011.5,-60 1011.5,-79 1127.5,-79 1127.5,-60 1011.5,-60"/>
<text text-anchor="middle" x="1069.5" y="-67" font-family="Helvetica,sans-Serif" font-size="10.00">LocalBox&lt; double &gt;</text>
</a>
</g>
</g>
<!-- Node9&#45;&gt;Node1 -->
<g id="edge9" class="edge">
<title>Node9&#45;&gt;Node1</title>
<path fill="none" stroke="#9a32cd" stroke-dasharray="5,2" d="M1138.01,-69.72C1181.22,-71.25 1238.13,-75.87 1287,-88.5 1310.09,-94.47 1334.92,-106.41 1350.91,-114.9"/>
<polygon fill="#9a32cd" stroke="#9a32cd" points="1138,-66.22 1127.89,-69.41 1137.78,-73.22 1138,-66.22"/>
<text text-anchor="middle" x="1219" y="-91.5" font-family="Helvetica,sans-Serif" font-size="10.00"> m_local_box</text>
</g>
<!-- Node10 -->
<g id="node10" class="node">
<title>Node10</title>
<g id="a_node10"><a xlink:href="structGhostCommunicator.html" target="_top" xlink:title="Properties for a ghost communication.">
<polygon fill="none" stroke="black" points="1011,-6 1011,-25 1128,-25 1128,-6 1011,-6"/>
<text text-anchor="middle" x="1069.5" y="-13" font-family="Helvetica,sans-Serif" font-size="10.00">GhostCommunicator</text>
</a>
</g>
</g>
<!-- Node10&#45;&gt;Node1 -->
<g id="edge10" class="edge">
<title>Node10&#45;&gt;Node1</title>
<path fill="none" stroke="#9a32cd" stroke-dasharray="5,2" d="M1138.47,-8.09C1182.98,-6.21 1241.17,-9.58 1287,-32.5 1324.31,-51.15 1351.97,-95.17 1362.89,-114.78"/>
<polygon fill="#9a32cd" stroke="#9a32cd" points="1138.13,-4.6 1128.33,-8.61 1138.5,-11.59 1138.13,-4.6"/>
<text text-anchor="start" x="1151" y="-57.5" font-family="Helvetica,sans-Serif" font-size="10.00"> m_collect_ghost_force</text>
<text text-anchor="middle" x="1219" y="-46.5" font-family="Helvetica,sans-Serif" font-size="10.00">_comm</text>
<text text-anchor="middle" x="1219" y="-35.5" font-family="Helvetica,sans-Serif" font-size="10.00">m_exchange_ghosts_comm</text>
</g>
<!-- Node11 -->
<g id="node11" class="node">
<title>Node11</title>
<g id="a_node11"><a xlink:title=" ">
<polygon fill="none" stroke="#bfbfbf" points="688,-6 688,-25 885,-25 885,-6 688,-6"/>
<text text-anchor="middle" x="786.5" y="-13" font-family="Helvetica,sans-Serif" font-size="10.00">std::vector&lt; GhostCommunication &gt;</text>
</a>
</g>
</g>
<!-- Node11&#45;&gt;Node10 -->
<g id="edge11" class="edge">
<title>Node11&#45;&gt;Node10</title>
<path fill="none" stroke="#9a32cd" stroke-dasharray="5,2" d="M895.78,-15.5C934.9,-15.5 977.54,-15.5 1010.67,-15.5"/>
<polygon fill="#9a32cd" stroke="#9a32cd" points="895.39,-12 885.39,-15.5 895.39,-19 895.39,-12"/>
<text text-anchor="middle" x="945.5" y="-18.5" font-family="Helvetica,sans-Serif" font-size="10.00"> communications</text>
</g>
<!-- Node12 -->
<g id="node12" class="node">
<title>Node12</title>
<g id="a_node12"><a xlink:href="structGhostCommunication.html" target="_top" xlink:title=" ">
<polygon fill="none" stroke="black" points="451,-6 451,-25 573,-25 573,-6 451,-6"/>
<text text-anchor="middle" x="512" y="-13" font-family="Helvetica,sans-Serif" font-size="10.00">GhostCommunication</text>
</a>
</g>
</g>
<!-- Node12&#45;&gt;Node11 -->
<g id="edge12" class="edge">
<title>Node12&#45;&gt;Node11</title>
<path fill="none" stroke="#9a32cd" stroke-dasharray="5,2" d="M583.24,-15.5C615.06,-15.5 653.22,-15.5 687.78,-15.5"/>
<polygon fill="#9a32cd" stroke="#9a32cd" points="583.14,-12 573.14,-15.5 583.14,-19 583.14,-12"/>
<text text-anchor="middle" x="636.5" y="-18.5" font-family="Helvetica,sans-Serif" font-size="10.00"> elements</text>
</g>
<!-- Node13 -->
<g id="node13" class="node">
<title>Node13</title>
<g id="a_node13"><a xlink:title=" ">
<polygon fill="none" stroke="#bfbfbf" points="208,-0.5 208,-30.5 354,-30.5 354,-0.5 208,-0.5"/>
<text text-anchor="start" x="216" y="-18.5" font-family="Helvetica,sans-Serif" font-size="10.00">std::vector&lt; Bag&lt; Particle</text>
<text text-anchor="middle" x="281" y="-7.5" font-family="Helvetica,sans-Serif" font-size="10.00"> &gt; * &gt;</text>
</a>
</g>
</g>
<!-- Node13&#45;&gt;Node12 -->
<g id="edge13" class="edge">
<title>Node13&#45;&gt;Node12</title>
<path fill="none" stroke="#9a32cd" stroke-dasharray="5,2" d="M364.5,-15.5C393,-15.5 424.37,-15.5 450.75,-15.5"/>
<polygon fill="#9a32cd" stroke="#9a32cd" points="364.14,-12 354.14,-15.5 364.14,-19 364.14,-12"/>
<text text-anchor="middle" x="396.5" y="-18.5" font-family="Helvetica,sans-Serif" font-size="10.00"> part_lists</text>
</g>
<!-- Node14 -->
<g id="node14" class="node">
<title>Node14</title>
<g id="a_node14"><a xlink:href="classUtils_1_1Bag.html" target="_top" xlink:title=" ">
<polygon fill="none" stroke="black" points="0,-6 0,-25 123,-25 123,-6 0,-6"/>
<text text-anchor="middle" x="61.5" y="-13" font-family="Helvetica,sans-Serif" font-size="10.00">Utils::Bag&lt; Particle &gt;</text>
</a>
</g>
</g>
<!-- Node14&#45;&gt;Node13 -->
<g id="edge14" class="edge">
<title>Node14&#45;&gt;Node13</title>
<path fill="none" stroke="#9a32cd" stroke-dasharray="5,2" d="M133.14,-15.5C157.04,-15.5 183.76,-15.5 207.78,-15.5"/>
<polygon fill="#9a32cd" stroke="#9a32cd" points="133.09,-12 123.09,-15.5 133.09,-19 133.09,-12"/>
<text text-anchor="middle" x="165.5" y="-18.5" font-family="Helvetica,sans-Serif" font-size="10.00"> elements</text>
</g>
</g>
</svg>
