<?xml version="1.0" encoding="UTF-8" standalone="no"?>
<!DOCTYPE svg PUBLIC "-//W3C//DTD SVG 1.1//EN"
 "http://www.w3.org/Graphics/SVG/1.1/DTD/svg11.dtd">
<!-- Generated by graphviz version 2.43.0 (0)
 -->
<!-- Title: CoulombP3MState&lt; FloatType, FFTConfig &gt; Pages: 1 -->
<svg width="961pt" height="473pt"
 viewBox="0.00 0.00 961.00 473.00" xmlns="http://www.w3.org/2000/svg" xmlns:xlink="http://www.w3.org/1999/xlink">
<g id="graph0" class="graph" transform="scale(1 1) rotate(0) translate(4 469)">
<title>CoulombP3MState&lt; FloatType, FFTConfig &gt;</title>
<!-- Node1 -->
<g id="Node000001" class="node">
<title>Node1</title>
<g id="a_Node000001"><a xlink:title="Base class for the electrostatics P3M algorithm.">
<polygon fill="#999999" stroke="#666666" points="953,-207.5 785,-207.5 785,-177.5 953,-177.5 953,-207.5"/>
<text text-anchor="start" x="793" y="-195.5" font-family="Helvetica,sans-Serif" font-size="10.00">CoulombP3MState&lt; FloatType,</text>
<text text-anchor="middle" x="869" y="-184.5" font-family="Helvetica,sans-Serif" font-size="10.00"> FFTConfig &gt;</text>
</a>
</g>
</g>
<!-- Node2 -->
<g id="Node000002" class="node">
<title>Node2</title>
<g id="a_Node000002"><a xlink:href="structP3MStateCommon.html" target="_top" xlink:title="State of the p3m methods, the part which applies to both, electrostatic and dipolar p3m.">
<polygon fill="white" stroke="#666666" points="618,-394 441,-394 441,-375 618,-375 618,-394"/>
<text text-anchor="middle" x="529.5" y="-382" font-family="Helvetica,sans-Serif" font-size="10.00">P3MStateCommon&lt; FloatType &gt;</text>
</a>
</g>
</g>
<!-- Node2&#45;&gt;Node1 -->
<g id="edge1_Node000001_Node000002" class="edge">
<title>Node2&#45;&gt;Node1</title>
<g id="a_edge1_Node000001_Node000002"><a xlink:title=" ">
<path fill="none" stroke="#63b8ff" d="M624.62,-373.15C670.46,-364.24 724.67,-348.45 767,-320.5 811.88,-290.87 845.78,-234.71 860.27,-207.73"/>
<polygon fill="#63b8ff" stroke="#63b8ff" points="623.86,-369.73 614.67,-375 625.14,-376.61 623.86,-369.73"/>
</a>
</g>
</g>
<!-- Node3 -->
<g id="Node000003" class="node">
<title>Node3</title>
<g id="a_Node000003"><a xlink:href="structP3MParameters.html" target="_top" xlink:title="Structure to hold P3M parameters and some dependent variables.">
<polygon fill="white" stroke="#666666" points="314,-465 221,-465 221,-446 314,-446 314,-465"/>
<text text-anchor="middle" x="267.5" y="-453" font-family="Helvetica,sans-Serif" font-size="10.00">P3MParameters</text>
</a>
</g>
</g>
<!-- Node3&#45;&gt;Node2 -->
<g id="edge2_Node000002_Node000003" class="edge">
<title>Node3&#45;&gt;Node2</title>
<g id="a_edge2_Node000002_Node000003"><a xlink:title=" ">
<path fill="none" stroke="#9a32cd" stroke-dasharray="5,2" d="M324.24,-444.37C353.78,-438.09 390.57,-429.68 423,-420.5 450.56,-412.7 481.51,-401.89 502.73,-394.15"/>
<polygon fill="#9a32cd" stroke="#9a32cd" points="323.18,-441.01 314.11,-446.49 324.62,-447.86 323.18,-441.01"/>
</a>
</g>
<text text-anchor="middle" x="393.5" y="-437.5" font-family="Helvetica,sans-Serif" font-size="10.00" fill="grey"> params</text>
</g>
<!-- Node4 -->
<g id="Node000004" class="node">
<title>Node4</title>
<g id="a_Node000004"><a xlink:href="structP3MLocalMesh.html" target="_top" xlink:title="Properties of the local mesh.">
<polygon fill="white" stroke="#666666" points="312,-428 223,-428 223,-409 312,-409 312,-428"/>
<text text-anchor="middle" x="267.5" y="-416" font-family="Helvetica,sans-Serif" font-size="10.00">P3MLocalMesh</text>
</a>
</g>
</g>
<!-- Node4&#45;&gt;Node2 -->
<g id="edge3_Node000002_Node000004" class="edge">
<title>Node4&#45;&gt;Node2</title>
<g id="a_edge3_Node000002_Node000004"><a xlink:title=" ">
<path fill="none" stroke="#9a32cd" stroke-dasharray="5,2" d="M322.03,-411.5C360.69,-406.44 413.34,-399.56 455.8,-394.01"/>
<polygon fill="#9a32cd" stroke="#9a32cd" points="321.48,-408.04 312.02,-412.81 322.39,-414.98 321.48,-408.04"/>
</a>
</g>
<text text-anchor="middle" x="393.5" y="-408.5" font-family="Helvetica,sans-Serif" font-size="10.00" fill="grey"> local_mesh</text>
</g>
<!-- Node5 -->
<g id="Node000005" class="node">
<title>Node5</title>
<g id="a_Node000005"><a xlink:title=" ">
<polygon fill="white" stroke="#666666" points="330.5,-390.5 204.5,-390.5 204.5,-360.5 330.5,-360.5 330.5,-390.5"/>
<text text-anchor="start" x="212.5" y="-378.5" font-family="Helvetica,sans-Serif" font-size="10.00">std::array&lt; std::vector</text>
<text text-anchor="middle" x="267.5" y="-367.5" font-family="Helvetica,sans-Serif" font-size="10.00">&lt; int &gt;, 3 &gt;</text>
</a>
</g>
</g>
<!-- Node5&#45;&gt;Node2 -->
<g id="edge4_Node000002_Node000005" class="edge">
<title>Node5&#45;&gt;Node2</title>
<g id="a_edge4_Node000002_Node000005"><a xlink:title=" ">
<path fill="none" stroke="#9a32cd" stroke-dasharray="5,2" d="M341.04,-378.01C371.94,-379.08 408.27,-380.34 440.68,-381.46"/>
<polygon fill="#9a32cd" stroke="#9a32cd" points="340.89,-374.5 330.78,-377.66 340.65,-381.5 340.89,-374.5"/>
</a>
</g>
<text text-anchor="middle" x="393.5" y="-383.5" font-family="Helvetica,sans-Serif" font-size="10.00" fill="grey"> d_op</text>
</g>
<!-- Node6 -->
<g id="Node000006" class="node">
<title>Node6</title>
<g id="a_Node000006"><a xlink:title=" ">
<polygon fill="white" stroke="#666666" points="104,-385 0,-385 0,-366 104,-366 104,-385"/>
<text text-anchor="middle" x="52" y="-373" font-family="Helvetica,sans-Serif" font-size="10.00">std::vector&lt; int &gt;</text>
</a>
</g>
</g>
<!-- Node6&#45;&gt;Node5 -->
<g id="edge5_Node000005_Node000006" class="edge">
<title>Node6&#45;&gt;Node5</title>
<g id="a_edge5_Node000005_Node000006"><a xlink:title=" ">
<path fill="none" stroke="#9a32cd" stroke-dasharray="5,2" d="M114.29,-375.5C142.54,-375.5 176.01,-375.5 204.36,-375.5"/>
<polygon fill="#9a32cd" stroke="#9a32cd" points="114.14,-372 104.14,-375.5 114.14,-379 114.14,-372"/>
</a>
</g>
<text text-anchor="middle" x="146.5" y="-378.5" font-family="Helvetica,sans-Serif" font-size="10.00" fill="grey"> elements</text>
</g>
<!-- Node7 -->
<g id="Node000007" class="node">
<title>Node7</title>
<g id="a_Node000007"><a xlink:title=" ">
<polygon fill="white" stroke="#666666" points="336.5,-316 198.5,-316 198.5,-297 336.5,-297 336.5,-316"/>
<text text-anchor="middle" x="267.5" y="-304" font-family="Helvetica,sans-Serif" font-size="10.00">std::vector&lt; FloatType &gt;</text>
</a>
</g>
</g>
<!-- Node7&#45;&gt;Node1 -->
<g id="edge8_Node000001_Node000007" class="edge">
<title>Node7&#45;&gt;Node1</title>
<g id="a_edge8_Node000001_Node000007"><a xlink:title=" ">
<path fill="none" stroke="#9a32cd" stroke-dasharray="5,2" d="M346.87,-313.49C447.57,-319.57 626.18,-320.43 767,-267.5 801.75,-254.44 834.89,-225.65 853.23,-207.78"/>
<polygon fill="#9a32cd" stroke="#9a32cd" points="346.98,-309.99 336.78,-312.85 346.53,-316.98 346.98,-309.99"/>
</a>
</g>
<text text-anchor="middle" x="529.5" y="-318.5" font-family="Helvetica,sans-Serif" font-size="10.00" fill="grey"> rs_charge_density</text>
</g>
<!-- Node7&#45;&gt;Node2 -->
<g id="edge6_Node000002_Node000007" class="edge">
<title>Node7&#45;&gt;Node2</title>
<g id="a_edge6_Node000002_Node000007"><a xlink:title=" ">
<path fill="none" stroke="#9a32cd" stroke-dasharray="5,2" d="M310.41,-318.91C341.49,-328.14 384.91,-341.05 423,-352.5 447.93,-359.99 476.15,-368.55 497.12,-374.94"/>
<polygon fill="#9a32cd" stroke="#9a32cd" points="311.35,-315.54 300.77,-316.06 309.36,-322.25 311.35,-315.54"/>
</a>
</g>
<text text-anchor="middle" x="393.5" y="-366.5" font-family="Helvetica,sans-Serif" font-size="10.00" fill="grey"> g_energy</text>
<text text-anchor="middle" x="393.5" y="-355.5" font-family="Helvetica,sans-Serif" font-size="10.00" fill="grey">g_force</text>
</g>
<!-- Node11 -->
<g id="Node000011" class="node">
<title>Node11</title>
<g id="a_Node000011"><a xlink:title=" ">
<polygon fill="white" stroke="#666666" points="592.5,-270.5 466.5,-270.5 466.5,-240.5 592.5,-240.5 592.5,-270.5"/>
<text text-anchor="start" x="474.5" y="-258.5" font-family="Helvetica,sans-Serif" font-size="10.00">std::array&lt; std::vector</text>
<text text-anchor="middle" x="529.5" y="-247.5" font-family="Helvetica,sans-Serif" font-size="10.00">&lt; FloatType &gt;, 3 &gt;</text>
</a>
</g>
</g>
<!-- Node7&#45;&gt;Node11 -->
<g id="edge12_Node000011_Node000007" class="edge">
<title>Node7&#45;&gt;Node11</title>
<g id="a_edge12_Node000011_Node000007"><a xlink:title=" ">
<path fill="none" stroke="#9a32cd" stroke-dasharray="5,2" d="M311.7,-294.22C328,-289.84 346.77,-285.11 364,-281.5 397.54,-274.48 435.27,-268.39 466.13,-263.87"/>
<polygon fill="#9a32cd" stroke="#9a32cd" points="310.63,-290.88 301.9,-296.89 312.46,-297.64 310.63,-290.88"/>
</a>
</g>
<text text-anchor="middle" x="393.5" y="-284.5" font-family="Helvetica,sans-Serif" font-size="10.00" fill="grey"> elements</text>
</g>
<!-- Node8 -->
<g id="Node000008" class="node">
<title>Node8</title>
<g id="a_Node000008"><a xlink:href="classp3m__interpolation__cache.html" target="_top" xlink:title="Cache for interpolation weights.">
<polygon fill="white" stroke="#666666" points="599.5,-222 459.5,-222 459.5,-203 599.5,-203 599.5,-222"/>
<text text-anchor="middle" x="529.5" y="-210" font-family="Helvetica,sans-Serif" font-size="10.00">p3m_interpolation_cache</text>
</a>
</g>
</g>
<!-- Node8&#45;&gt;Node1 -->
<g id="edge7_Node000001_Node000008" class="edge">
<title>Node8&#45;&gt;Node1</title>
<g id="a_edge7_Node000001_Node000008"><a xlink:title=" ">
<path fill="none" stroke="#9a32cd" stroke-dasharray="5,2" d="M609.92,-207.79C662.59,-204.67 731.57,-200.58 784.96,-197.42"/>
<polygon fill="#9a32cd" stroke="#9a32cd" points="609.39,-204.32 599.61,-208.4 609.8,-211.31 609.39,-204.32"/>
</a>
</g>
<text text-anchor="middle" x="701.5" y="-208.5" font-family="Helvetica,sans-Serif" font-size="10.00" fill="grey"> inter_weights</text>
</g>
<!-- Node9 -->
<g id="Node000009" class="node">
<title>Node9</title>
<g id="a_Node000009"><a xlink:title=" ">
<polygon fill="white" stroke="#666666" points="346,-164 189,-164 189,-145 346,-145 346,-164"/>
<text text-anchor="middle" x="267.5" y="-152" font-family="Helvetica,sans-Serif" font-size="10.00">std::vector&lt; ComplexType &gt;</text>
</a>
</g>
</g>
<!-- Node9&#45;&gt;Node1 -->
<g id="edge9_Node000001_Node000009" class="edge">
<title>Node9&#45;&gt;Node1</title>
<g id="a_edge9_Node000001_Node000009"><a xlink:title=" ">
<path fill="none" stroke="#9a32cd" stroke-dasharray="5,2" d="M356.44,-160.07C471.53,-167.37 671.8,-180.06 784.6,-187.21"/>
<polygon fill="#9a32cd" stroke="#9a32cd" points="356.46,-156.57 346.26,-159.43 356.02,-163.55 356.46,-156.57"/>
</a>
</g>
<text text-anchor="middle" x="529.5" y="-178.5" font-family="Helvetica,sans-Serif" font-size="10.00" fill="grey"> ks_charge_density</text>
</g>
<!-- Node12 -->
<g id="Node000012" class="node">
<title>Node12</title>
<g id="a_Node000012"><a xlink:title=" ">
<polygon fill="white" stroke="#666666" points="593.5,-137.5 465.5,-137.5 465.5,-107.5 593.5,-107.5 593.5,-137.5"/>
<text text-anchor="start" x="473.5" y="-125.5" font-family="Helvetica,sans-Serif" font-size="10.00">std::array&lt; std::vector</text>
<text text-anchor="middle" x="529.5" y="-114.5" font-family="Helvetica,sans-Serif" font-size="10.00">&lt; ComplexType &gt;, 3 &gt;</text>
</a>
</g>
</g>
<!-- Node9&#45;&gt;Node12 -->
<g id="edge14_Node000012_Node000009" class="edge">
<title>Node9&#45;&gt;Node12</title>
<g id="a_edge14_Node000012_Node000009"><a xlink:title=" ">
<path fill="none" stroke="#9a32cd" stroke-dasharray="5,2" d="M355.8,-143.76C391.72,-139.33 432.54,-134.31 465.47,-130.26"/>
<polygon fill="#9a32cd" stroke="#9a32cd" points="355.3,-140.29 345.8,-144.99 356.16,-147.24 355.3,-140.29"/>
</a>
</g>
<text text-anchor="middle" x="393.5" y="-144.5" font-family="Helvetica,sans-Serif" font-size="10.00" fill="grey"> elements</text>
</g>
<!-- Node10 -->
<g id="Node000010" class="node">
<title>Node10</title>
<g id="a_Node000010"><a xlink:title=" ">
<polygon fill="white" stroke="#666666" points="92,-164 12,-164 12,-145 92,-145 92,-164"/>
<text text-anchor="middle" x="52" y="-152" font-family="Helvetica,sans-Serif" font-size="10.00">std::complex</text>
</a>
</g>
</g>
<!-- Node10&#45;&gt;Node9 -->
<g id="edge10_Node000009_Node000010" class="edge">
<title>Node10&#45;&gt;Node9</title>
<g id="a_edge10_Node000009_Node000010"><a xlink:title=" ">
<path fill="none" stroke="#9a32cd" stroke-dasharray="5,2" d="M102.36,-154.5C127.97,-154.5 159.84,-154.5 188.67,-154.5"/>
<polygon fill="#9a32cd" stroke="#9a32cd" points="102.16,-151 92.16,-154.5 102.16,-158 102.16,-151"/>
</a>
</g>
<text text-anchor="middle" x="146.5" y="-157.5" font-family="Helvetica,sans-Serif" font-size="10.00" fill="grey"> elements</text>
</g>
<!-- Node11&#45;&gt;Node1 -->
<g id="edge11_Node000001_Node000011" class="edge">
<title>Node11&#45;&gt;Node1</title>
<g id="a_edge11_Node000001_Node000011"><a xlink:title=" ">
<path fill="none" stroke="#9a32cd" stroke-dasharray="5,2" d="M602.72,-247.16C649.76,-241.16 712.34,-232.08 767,-220.5 783.91,-216.92 802.18,-212.14 818.47,-207.54"/>
<polygon fill="#9a32cd" stroke="#9a32cd" points="602.1,-243.71 592.62,-248.44 602.98,-250.66 602.1,-243.71"/>
</a>
</g>
<text text-anchor="middle" x="701.5" y="-255.5" font-family="Helvetica,sans-Serif" font-size="10.00" fill="grey"> rs_E_fields</text>
<text text-anchor="middle" x="701.5" y="-244.5" font-family="Helvetica,sans-Serif" font-size="10.00" fill="grey">rs_E_fields_no_halo</text>
</g>
<!-- Node12&#45;&gt;Node1 -->
<g id="edge13_Node000001_Node000012" class="edge">
<title>Node12&#45;&gt;Node1</title>
<g id="a_edge13_Node000001_Node000012"><a xlink:title=" ">
<path fill="none" stroke="#9a32cd" stroke-dasharray="5,2" d="M603.83,-124.87C651.08,-127.79 713.45,-134.24 767,-148.5 792.51,-155.29 819.86,-167.55 839.66,-177.4"/>
<polygon fill="#9a32cd" stroke="#9a32cd" points="603.87,-121.37 593.69,-124.29 603.47,-128.36 603.87,-121.37"/>
</a>
</g>
<text text-anchor="middle" x="701.5" y="-151.5" font-family="Helvetica,sans-Serif" font-size="10.00" fill="grey"> ks_E_fields</text>
</g>
<!-- Node13 -->
<g id="Node000013" class="node">
<title>Node13</title>
<g id="a_Node000013"><a xlink:title=" ">
<polygon fill="white" stroke="#666666" points="605,-89.5 454,-89.5 454,-59.5 605,-59.5 605,-89.5"/>
<text text-anchor="start" x="462" y="-77.5" font-family="Helvetica,sans-Serif" font-size="10.00">std::shared_ptr&lt; P3MFFT</text>
<text text-anchor="middle" x="529.5" y="-66.5" font-family="Helvetica,sans-Serif" font-size="10.00">&lt; FloatType, FFTConfig &gt; &gt;</text>
</a>
</g>
</g>
<!-- Node13&#45;&gt;Node1 -->
<g id="edge15_Node000001_Node000013" class="edge">
<title>Node13&#45;&gt;Node1</title>
<g id="a_edge15_Node000001_Node000013"><a xlink:title=" ">
<path fill="none" stroke="#9a32cd" stroke-dasharray="5,2" d="M615.19,-77.69C661.64,-81.96 719.31,-91.51 767,-112.5 802.21,-128 835.7,-158.78 853.89,-177.32"/>
<polygon fill="#9a32cd" stroke="#9a32cd" points="615.42,-74.19 605.16,-76.83 614.82,-81.17 615.42,-74.19"/>
</a>
</g>
<text text-anchor="middle" x="701.5" y="-115.5" font-family="Helvetica,sans-Serif" font-size="10.00" fill="grey"> fft</text>
</g>
<!-- Node14 -->
<g id="Node000014" class="node">
<title>Node14</title>
<g id="a_Node000014"><a xlink:href="classKokkos_1_1View.html" target="_top" xlink:title=" ">
<polygon fill="white" stroke="#666666" points="599.5,-41 459.5,-41 459.5,0 599.5,0 599.5,-41"/>
<text text-anchor="start" x="467.5" y="-29" font-family="Helvetica,sans-Serif" font-size="10.00">Kokkos::View&lt; FloatType</text>
<text text-anchor="start" x="467.5" y="-18" font-family="Helvetica,sans-Serif" font-size="10.00"> **, Kokkos::LayoutRight,</text>
<text text-anchor="middle" x="529.5" y="-7" font-family="Helvetica,sans-Serif" font-size="10.00"> Kokkos::HostSpace &gt;</text>
</a>
</g>
</g>
<!-- Node14&#45;&gt;Node1 -->
<g id="edge16_Node000001_Node000014" class="edge">
<title>Node14&#45;&gt;Node1</title>
<g id="a_edge16_Node000001_Node000014"><a xlink:title=" ">
<path fill="none" stroke="#9a32cd" stroke-dasharray="5,2" d="M609.86,-21.86C658.28,-25.88 719.74,-36.95 767,-65.5 813.05,-93.32 846.61,-150.32 860.68,-177.48"/>
<polygon fill="#9a32cd" stroke="#9a32cd" points="609.97,-18.35 599.73,-21.1 609.44,-25.33 609.97,-18.35"/>
</a>
</g>
<text text-anchor="middle" x="701.5" y="-68.5" font-family="Helvetica,sans-Serif" font-size="10.00" fill="grey"> rs_charge_density_kokkos</text>
</g>
</g>
</svg>
