<?xml version="1.0" encoding="UTF-8" standalone="no"?>
<!DOCTYPE svg PUBLIC "-//W3C//DTD SVG 1.1//EN"
 "http://www.w3.org/Graphics/SVG/1.1/DTD/svg11.dtd">
<!-- Generated by graphviz version 2.43.0 (0)
 -->
<!-- Title: IA_parameters Pages: 1 -->
<!--zoomable 641 -->
<svg id="main" version="1.1" xmlns="http://www.w3.org/2000/svg" xmlns:xlink="http://www.w3.org/1999/xlink" xml:space="preserve" onload="init(evt)">
<style type="text/css"><![CDATA[
.edge:hover path { stroke: red; }
.edge:hover polygon { stroke: red; fill: red; }
]]></style>
<script type="text/javascript"><![CDATA[
var edges = document.getElementsByTagName('g');
if (edges && edges.length) {
  for (var i=0;i<edges.length;i++) {
    if (edges[i].id.substr(0,4)=='edge') {
      edges[i].setAttribute('class','edge');
    }
  }
}
]]></script>
        <defs>
                <circle id="rim" cx="0" cy="0" r="7"/>
                <circle id="rim2" cx="0" cy="0" r="3.5"/>
                <g id="zoomPlus">
                        <use xlink:href="#rim" fill="#404040">
                                <set attributeName="fill" to="#808080" begin="zoomplus.mouseover" end="zoomplus.mouseout"/>
                        </use>
                        <path d="M-4,0h8M0,-4v8" fill="none" stroke="white" stroke-width="1.5" pointer-events="none"/>
                </g>
                <g id="zoomMin">
                        <use xlink:href="#rim" fill="#404040">
                                <set attributeName="fill" to="#808080" begin="zoomminus.mouseover" end="zoomminus.mouseout"/>
                        </use>
                        <path d="M-4,0h8" fill="none" stroke="white" stroke-width="1.5" pointer-events="none"/>
                </g>
                <g id="dirArrow">
                        <path fill="none" stroke="white" stroke-width="1.5" d="M0,-3.0v7 M-2.5,-0.5L0,-3.0L2.5,-0.5"/>
                </g>
               <g id="resetDef">
                       <use xlink:href="#rim2" fill="#404040">
                               <set attributeName="fill" to="#808080" begin="reset.mouseover" end="reset.mouseout"/>
                       </use>
               </g>
        </defs>

<script type="text/javascript">
var viewWidth = 555;
var viewHeight = 641;
var sectionId = 'dynsection-0';
</script>
<script xlink:href="svgpan.js"/>
<svg id="graph" class="graph">
<g id="viewport">
<title>IA_parameters</title>
<!-- Node1 -->
<g id="node1" class="node">
<title>Node1</title>
<g id="a_node1"><a xlink:title="Parameters for non&#45;bonded interactions.">
<polygon fill="#bfbfbf" stroke="black" points="459,-304.5 459,-323.5 547,-323.5 547,-304.5 459,-304.5"/>
<text text-anchor="middle" x="503" y="-311.5" font-family="Helvetica,sans-Serif" font-size="10.00">IA_parameters</text>
</a>
</g>
</g>
<!-- Node2 -->
<g id="node2" class="node">
<title>Node2</title>
<g id="a_node2"><a xlink:href="structGaussian__Parameters.html" target="_top" xlink:title="Gaussian potential.">
<polygon fill="none" stroke="black" points="226,-608.5 226,-627.5 348,-627.5 348,-608.5 226,-608.5"/>
<text text-anchor="middle" x="287" y="-615.5" font-family="Helvetica,sans-Serif" font-size="10.00">Gaussian_Parameters</text>
</a>
</g>
</g>
<!-- Node2&#45;&gt;Node1 -->
<g id="edge1" class="edge">
<title>Node2&#45;&gt;Node1</title>
<path fill="none" stroke="#9a32cd" stroke-dasharray="5,2" d="M358.39,-624.38C387.34,-623.19 419.14,-616.38 441,-596 482.22,-557.58 498.1,-368.86 501.35,-323.71"/>
<polygon fill="#9a32cd" stroke="#9a32cd" points="358.22,-620.88 348.29,-624.58 358.36,-627.88 358.22,-620.88"/>
<text text-anchor="middle" x="407.5" y="-625" font-family="Helvetica,sans-Serif" font-size="10.00"> gaussian</text>
</g>
<!-- Node3 -->
<g id="node3" class="node">
<title>Node3</title>
<g id="a_node3"><a xlink:href="structDPD__Parameters.html" target="_top" xlink:title=" ">
<polygon fill="none" stroke="black" points="238,-570.5 238,-589.5 336,-589.5 336,-570.5 238,-570.5"/>
<text text-anchor="middle" x="287" y="-577.5" font-family="Helvetica,sans-Serif" font-size="10.00">DPD_Parameters</text>
</a>
</g>
</g>
<!-- Node3&#45;&gt;Node1 -->
<g id="edge2" class="edge">
<title>Node3&#45;&gt;Node1</title>
<path fill="none" stroke="#9a32cd" stroke-dasharray="5,2" d="M346.35,-585.39C378.06,-585.08 415.82,-578.98 441,-556 476.6,-523.51 496.4,-364.69 500.97,-323.68"/>
<polygon fill="#9a32cd" stroke="#9a32cd" points="346.32,-581.89 336.29,-585.3 346.26,-588.89 346.32,-581.89"/>
<text text-anchor="middle" x="407.5" y="-586" font-family="Helvetica,sans-Serif" font-size="10.00"> dpd</text>
</g>
<!-- Node4 -->
<g id="node4" class="node">
<title>Node4</title>
<g id="a_node4"><a xlink:href="structDPDParameters.html" target="_top" xlink:title="DPD potential.">
<polygon fill="none" stroke="black" points="15.5,-570.5 15.5,-589.5 108.5,-589.5 108.5,-570.5 15.5,-570.5"/>
<text text-anchor="middle" x="62" y="-577.5" font-family="Helvetica,sans-Serif" font-size="10.00">DPDParameters</text>
</a>
</g>
</g>
<!-- Node4&#45;&gt;Node3 -->
<g id="edge3" class="edge">
<title>Node4&#45;&gt;Node3</title>
<path fill="none" stroke="#9a32cd" stroke-dasharray="5,2" d="M118.68,-580C155.28,-580 202.69,-580 237.69,-580"/>
<polygon fill="#9a32cd" stroke="#9a32cd" points="118.67,-576.5 108.67,-580 118.67,-583.5 118.67,-576.5"/>
<text text-anchor="middle" x="171" y="-594" font-family="Helvetica,sans-Serif" font-size="10.00"> radial</text>
<text text-anchor="middle" x="171" y="-583" font-family="Helvetica,sans-Serif" font-size="10.00">trans</text>
</g>
<!-- Node5 -->
<g id="node5" class="node">
<title>Node5</title>
<g id="a_node5"><a xlink:href="structBuckingham__Parameters.html" target="_top" xlink:title="Buckingham potential.">
<polygon fill="none" stroke="black" points="218,-532.5 218,-551.5 356,-551.5 356,-532.5 218,-532.5"/>
<text text-anchor="middle" x="287" y="-539.5" font-family="Helvetica,sans-Serif" font-size="10.00">Buckingham_Parameters</text>
</a>
</g>
</g>
<!-- Node5&#45;&gt;Node1 -->
<g id="edge4" class="edge">
<title>Node5&#45;&gt;Node1</title>
<path fill="none" stroke="#9a32cd" stroke-dasharray="5,2" d="M366.16,-545.3C392.65,-542.55 420.64,-534.87 441,-517 500.46,-464.8 503.07,-357.1 502.38,-323.94"/>
<polygon fill="#9a32cd" stroke="#9a32cd" points="365.79,-541.82 356.1,-546.12 366.35,-548.79 365.79,-541.82"/>
<text text-anchor="middle" x="407.5" y="-546" font-family="Helvetica,sans-Serif" font-size="10.00"> buckingham</text>
</g>
<!-- Node6 -->
<g id="node6" class="node">
<title>Node6</title>
<g id="a_node6"><a xlink:href="structLJ__Parameters.html" target="_top" xlink:title="Lennard&#45;Jones with shift.">
<polygon fill="none" stroke="black" points="244,-494.5 244,-513.5 330,-513.5 330,-494.5 244,-494.5"/>
<text text-anchor="middle" x="287" y="-501.5" font-family="Helvetica,sans-Serif" font-size="10.00">LJ_Parameters</text>
</a>
</g>
</g>
<!-- Node6&#45;&gt;Node1 -->
<g id="edge5" class="edge">
<title>Node6&#45;&gt;Node1</title>
<path fill="none" stroke="#9a32cd" stroke-dasharray="5,2" d="M340.22,-506.38C372.63,-505.14 413.24,-498.28 441,-475 489.09,-434.66 499.33,-352.16 501.46,-323.82"/>
<polygon fill="#9a32cd" stroke="#9a32cd" points="339.93,-502.89 330.01,-506.6 340.08,-509.89 339.93,-502.89"/>
<text text-anchor="middle" x="407.5" y="-505" font-family="Helvetica,sans-Serif" font-size="10.00"> lj</text>
</g>
<!-- Node7 -->
<g id="node7" class="node">
<title>Node7</title>
<g id="a_node7"><a xlink:href="structWCA__Parameters.html" target="_top" xlink:title="WCA potential.">
<polygon fill="none" stroke="black" points="236.5,-456.5 236.5,-475.5 337.5,-475.5 337.5,-456.5 236.5,-456.5"/>
<text text-anchor="middle" x="287" y="-463.5" font-family="Helvetica,sans-Serif" font-size="10.00">WCA_Parameters</text>
</a>
</g>
</g>
<!-- Node7&#45;&gt;Node1 -->
<g id="edge6" class="edge">
<title>Node7&#45;&gt;Node1</title>
<path fill="none" stroke="#9a32cd" stroke-dasharray="5,2" d="M347.78,-464.51C378.34,-461.01 414.56,-452.36 441,-432 477.91,-403.58 494.55,-346.54 499.93,-323.74"/>
<polygon fill="#9a32cd" stroke="#9a32cd" points="347.26,-461.04 337.65,-465.5 347.95,-468.01 347.26,-461.04"/>
<text text-anchor="middle" x="407.5" y="-463" font-family="Helvetica,sans-Serif" font-size="10.00"> wca</text>
</g>
<!-- Node8 -->
<g id="node8" class="node">
<title>Node8</title>
<g id="a_node8"><a xlink:href="structLJcos__Parameters.html" target="_top" xlink:title="Lennard&#45;Jones+Cos potential.">
<polygon fill="none" stroke="black" points="236,-418.5 236,-437.5 338,-437.5 338,-418.5 236,-418.5"/>
<text text-anchor="middle" x="287" y="-425.5" font-family="Helvetica,sans-Serif" font-size="10.00">LJcos_Parameters</text>
</a>
</g>
</g>
<!-- Node8&#45;&gt;Node1 -->
<g id="edge7" class="edge">
<title>Node8&#45;&gt;Node1</title>
<path fill="none" stroke="#9a32cd" stroke-dasharray="5,2" d="M348.41,-423.24C378.15,-418.64 413.45,-409.63 441,-392 468.37,-374.49 488.58,-340.32 497.28,-323.63"/>
<polygon fill="#9a32cd" stroke="#9a32cd" points="347.55,-419.83 338.14,-424.69 348.53,-426.76 347.55,-419.83"/>
<text text-anchor="middle" x="407.5" y="-420" font-family="Helvetica,sans-Serif" font-size="10.00"> ljcos</text>
</g>
<!-- Node9 -->
<g id="node9" class="node">
<title>Node9</title>
<g id="a_node9"><a xlink:href="structTabulatedPotential.html" target="_top" xlink:title="Evaluate forces and energies using a custom potential profile.">
<polygon fill="none" stroke="black" points="233.5,-380.5 233.5,-399.5 340.5,-399.5 340.5,-380.5 233.5,-380.5"/>
<text text-anchor="middle" x="287" y="-387.5" font-family="Helvetica,sans-Serif" font-size="10.00">TabulatedPotential</text>
</a>
</g>
</g>
<!-- Node9&#45;&gt;Node1 -->
<g id="edge8" class="edge">
<title>Node9&#45;&gt;Node1</title>
<path fill="none" stroke="#9a32cd" stroke-dasharray="5,2" d="M350.75,-381.66C379.11,-376.49 412.56,-368.39 441,-356 459.86,-347.78 478.97,-333.43 490.66,-323.82"/>
<polygon fill="#9a32cd" stroke="#9a32cd" points="349.8,-378.27 340.55,-383.43 351,-385.17 349.8,-378.27"/>
<text text-anchor="middle" x="407.5" y="-380" font-family="Helvetica,sans-Serif" font-size="10.00"> tab</text>
</g>
<!-- Node10 -->
<g id="node10" class="node">
<title>Node10</title>
<g id="a_node10"><a xlink:title=" ">
<polygon fill="none" stroke="#bfbfbf" points="0,-380.5 0,-399.5 124,-399.5 124,-380.5 0,-380.5"/>
<text text-anchor="middle" x="62" y="-387.5" font-family="Helvetica,sans-Serif" font-size="10.00">std::vector&lt; double &gt;</text>
</a>
</g>
</g>
<!-- Node10&#45;&gt;Node9 -->
<g id="edge9" class="edge">
<title>Node10&#45;&gt;Node9</title>
<path fill="none" stroke="#9a32cd" stroke-dasharray="5,2" d="M134.45,-390C166.54,-390 203.73,-390 233.24,-390"/>
<polygon fill="#9a32cd" stroke="#9a32cd" points="134.23,-386.5 124.23,-390 134.23,-393.5 134.23,-386.5"/>
<text text-anchor="middle" x="171" y="-404" font-family="Helvetica,sans-Serif" font-size="10.00"> energy_tab</text>
<text text-anchor="middle" x="171" y="-393" font-family="Helvetica,sans-Serif" font-size="10.00">force_tab</text>
</g>
<!-- Node11 -->
<g id="node11" class="node">
<title>Node11</title>
<g id="a_node11"><a xlink:href="structLJGen__Parameters.html" target="_top" xlink:title="Generic Lennard&#45;Jones with shift.">
<polygon fill="none" stroke="black" points="234.5,-342.5 234.5,-361.5 339.5,-361.5 339.5,-342.5 234.5,-342.5"/>
<text text-anchor="middle" x="287" y="-349.5" font-family="Helvetica,sans-Serif" font-size="10.00">LJGen_Parameters</text>
</a>
</g>
</g>
<!-- Node11&#45;&gt;Node1 -->
<g id="edge10" class="edge">
<title>Node11&#45;&gt;Node1</title>
<path fill="none" stroke="#9a32cd" stroke-dasharray="5,2" d="M349.6,-344.06C377.6,-340.11 411.08,-334.92 441,-329 449.02,-327.41 457.58,-325.47 465.67,-323.51"/>
<polygon fill="#9a32cd" stroke="#9a32cd" points="348.98,-340.61 339.55,-345.45 349.94,-347.54 348.98,-340.61"/>
<text text-anchor="middle" x="407.5" y="-344" font-family="Helvetica,sans-Serif" font-size="10.00"> ljgen</text>
</g>
<!-- Node12 -->
<g id="node12" class="node">
<title>Node12</title>
<g id="a_node12"><a xlink:href="structHertzian__Parameters.html" target="_top" xlink:title="Hertzian potential.">
<polygon fill="none" stroke="black" points="227.5,-304.5 227.5,-323.5 346.5,-323.5 346.5,-304.5 227.5,-304.5"/>
<text text-anchor="middle" x="287" y="-311.5" font-family="Helvetica,sans-Serif" font-size="10.00">Hertzian_Parameters</text>
</a>
</g>
</g>
<!-- Node12&#45;&gt;Node1 -->
<g id="edge11" class="edge">
<title>Node12&#45;&gt;Node1</title>
<path fill="none" stroke="#9a32cd" stroke-dasharray="5,2" d="M356.97,-314C390.5,-314 429.77,-314 458.98,-314"/>
<polygon fill="#9a32cd" stroke="#9a32cd" points="356.76,-310.5 346.76,-314 356.76,-317.5 356.76,-310.5"/>
<text text-anchor="middle" x="407.5" y="-317" font-family="Helvetica,sans-Serif" font-size="10.00"> hertzian</text>
</g>
<!-- Node13 -->
<g id="node13" class="node">
<title>Node13</title>
<g id="a_node13"><a xlink:href="structLJcos2__Parameters.html" target="_top" xlink:title="Lennard&#45;Jones with a different Cos potential.">
<polygon fill="none" stroke="black" points="233,-266.5 233,-285.5 341,-285.5 341,-266.5 233,-266.5"/>
<text text-anchor="middle" x="287" y="-273.5" font-family="Helvetica,sans-Serif" font-size="10.00">LJcos2_Parameters</text>
</a>
</g>
</g>
<!-- Node13&#45;&gt;Node1 -->
<g id="edge12" class="edge">
<title>Node13&#45;&gt;Node1</title>
<path fill="none" stroke="#9a32cd" stroke-dasharray="5,2" d="M351.25,-284.18C378.91,-288.1 411.66,-293.2 441,-299 449.02,-300.59 457.58,-302.53 465.67,-304.49"/>
<polygon fill="#9a32cd" stroke="#9a32cd" points="351.7,-280.71 341.31,-282.79 350.73,-287.64 351.7,-280.71"/>
<text text-anchor="middle" x="407.5" y="-302" font-family="Helvetica,sans-Serif" font-size="10.00"> ljcos2</text>
</g>
<!-- Node14 -->
<g id="node14" class="node">
<title>Node14</title>
<g id="a_node14"><a xlink:href="structMorse__Parameters.html" target="_top" xlink:title="Morse potential.">
<polygon fill="none" stroke="black" points="233.5,-228.5 233.5,-247.5 340.5,-247.5 340.5,-228.5 233.5,-228.5"/>
<text text-anchor="middle" x="287" y="-235.5" font-family="Helvetica,sans-Serif" font-size="10.00">Morse_Parameters</text>
</a>
</g>
</g>
<!-- Node14&#45;&gt;Node1 -->
<g id="edge13" class="edge">
<title>Node14&#45;&gt;Node1</title>
<path fill="none" stroke="#9a32cd" stroke-dasharray="5,2" d="M351.02,-247.04C379.29,-252.44 412.6,-260.71 441,-273 459.74,-281.11 478.88,-295.1 490.6,-304.45"/>
<polygon fill="#9a32cd" stroke="#9a32cd" points="351.31,-243.53 340.85,-245.18 350.05,-250.42 351.31,-243.53"/>
<text text-anchor="middle" x="407.5" y="-276" font-family="Helvetica,sans-Serif" font-size="10.00"> morse</text>
</g>
<!-- Node15 -->
<g id="node15" class="node">
<title>Node15</title>
<g id="a_node15"><a xlink:href="structHat__Parameters.html" target="_top" xlink:title="hat potential">
<polygon fill="none" stroke="black" points="239.5,-190.5 239.5,-209.5 334.5,-209.5 334.5,-190.5 239.5,-190.5"/>
<text text-anchor="middle" x="287" y="-197.5" font-family="Helvetica,sans-Serif" font-size="10.00">Hat_Parameters</text>
</a>
</g>
</g>
<!-- Node15&#45;&gt;Node1 -->
<g id="edge14" class="edge">
<title>Node15&#45;&gt;Node1</title>
<path fill="none" stroke="#9a32cd" stroke-dasharray="5,2" d="M344.63,-205.2C375.09,-210.09 412.2,-219.59 441,-238 467.8,-255.14 488.13,-288.09 497.05,-304.39"/>
<polygon fill="#9a32cd" stroke="#9a32cd" points="344.98,-201.72 334.58,-203.71 343.96,-208.64 344.98,-201.72"/>
<text text-anchor="middle" x="407.5" y="-241" font-family="Helvetica,sans-Serif" font-size="10.00"> hat</text>
</g>
<!-- Node16 -->
<g id="node16" class="node">
<title>Node16</title>
<g id="a_node16"><a xlink:href="structThole__Parameters.html" target="_top" xlink:title="Thole potential.">
<polygon fill="none" stroke="black" points="235,-152.5 235,-171.5 339,-171.5 339,-152.5 235,-152.5"/>
<text text-anchor="middle" x="287" y="-159.5" font-family="Helvetica,sans-Serif" font-size="10.00">Thole_Parameters</text>
</a>
</g>
</g>
<!-- Node16&#45;&gt;Node1 -->
<g id="edge15" class="edge">
<title>Node16&#45;&gt;Node1</title>
<path fill="none" stroke="#9a32cd" stroke-dasharray="5,2" d="M349.11,-164.63C379.38,-168.66 414.93,-177.81 441,-198 477.34,-226.14 494.31,-282.1 499.85,-304.45"/>
<polygon fill="#9a32cd" stroke="#9a32cd" points="349.41,-161.14 339.07,-163.45 348.59,-168.09 349.41,-161.14"/>
<text text-anchor="middle" x="407.5" y="-201" font-family="Helvetica,sans-Serif" font-size="10.00"> thole</text>
</g>
<!-- Node17 -->
<g id="node17" class="node">
<title>Node17</title>
<g id="a_node17"><a xlink:href="structSoftSphere__Parameters.html" target="_top" xlink:title="soft&#45;sphere potential">
<polygon fill="none" stroke="black" points="222,-114.5 222,-133.5 352,-133.5 352,-114.5 222,-114.5"/>
<text text-anchor="middle" x="287" y="-121.5" font-family="Helvetica,sans-Serif" font-size="10.00">SoftSphere_Parameters</text>
</a>
</g>
</g>
<!-- Node17&#45;&gt;Node1 -->
<g id="edge16" class="edge">
<title>Node17&#45;&gt;Node1</title>
<path fill="none" stroke="#9a32cd" stroke-dasharray="5,2" d="M362.15,-124.44C389.58,-128.09 419.26,-136.6 441,-155 488.4,-195.1 499.08,-276.4 501.39,-304.33"/>
<polygon fill="#9a32cd" stroke="#9a32cd" points="362.49,-120.96 352.16,-123.31 361.7,-127.91 362.49,-120.96"/>
<text text-anchor="middle" x="407.5" y="-158" font-family="Helvetica,sans-Serif" font-size="10.00"> soft_sphere</text>
</g>
<!-- Node18 -->
<g id="node18" class="node">
<title>Node18</title>
<g id="a_node18"><a xlink:href="structBMHTF__Parameters.html" target="_top" xlink:title="BMHTF NaCl potential.">
<polygon fill="none" stroke="black" points="230.5,-76.5 230.5,-95.5 343.5,-95.5 343.5,-76.5 230.5,-76.5"/>
<text text-anchor="middle" x="287" y="-83.5" font-family="Helvetica,sans-Serif" font-size="10.00">BMHTF_Parameters</text>
</a>
</g>
</g>
<!-- Node18&#45;&gt;Node1 -->
<g id="edge17" class="edge">
<title>Node18&#45;&gt;Node1</title>
<path fill="none" stroke="#9a32cd" stroke-dasharray="5,2" d="M353.98,-82.26C383.78,-84.01 417.5,-91.27 441,-112 500.06,-164.11 502.94,-271.17 502.35,-304.13"/>
<polygon fill="#9a32cd" stroke="#9a32cd" points="353.75,-78.75 343.62,-81.85 353.48,-85.74 353.75,-78.75"/>
<text text-anchor="middle" x="407.5" y="-115" font-family="Helvetica,sans-Serif" font-size="10.00"> bmhtf</text>
</g>
<!-- Node19 -->
<g id="node19" class="node">
<title>Node19</title>
<g id="a_node19"><a xlink:href="structSmoothStep__Parameters.html" target="_top" xlink:title="smooth step potential">
<polygon fill="none" stroke="black" points="218.5,-38.5 218.5,-57.5 355.5,-57.5 355.5,-38.5 218.5,-38.5"/>
<text text-anchor="middle" x="287" y="-45.5" font-family="Helvetica,sans-Serif" font-size="10.00">SmoothStep_Parameters</text>
</a>
</g>
</g>
<!-- Node19&#45;&gt;Node1 -->
<g id="edge18" class="edge">
<title>Node19&#45;&gt;Node1</title>
<path fill="none" stroke="#9a32cd" stroke-dasharray="5,2" d="M365.8,-42.42C392.53,-44.51 420.78,-51.74 441,-70 477.06,-102.55 496.52,-262.84 500.99,-304.23"/>
<polygon fill="#9a32cd" stroke="#9a32cd" points="365.83,-38.92 355.65,-41.86 365.45,-45.91 365.83,-38.92"/>
<text text-anchor="middle" x="407.5" y="-73" font-family="Helvetica,sans-Serif" font-size="10.00"> smooth_step</text>
</g>
<!-- Node20 -->
<g id="node20" class="node">
<title>Node20</title>
<g id="a_node20"><a xlink:href="structGayBerne__Parameters.html" target="_top" xlink:title="Gay&#45;Berne potential.">
<polygon fill="none" stroke="black" points="224.5,-0.5 224.5,-19.5 349.5,-19.5 349.5,-0.5 224.5,-0.5"/>
<text text-anchor="middle" x="287" y="-7.5" font-family="Helvetica,sans-Serif" font-size="10.00">GayBerne_Parameters</text>
</a>
</g>
</g>
<!-- Node20&#45;&gt;Node1 -->
<g id="edge19" class="edge">
<title>Node20&#45;&gt;Node1</title>
<path fill="none" stroke="#9a32cd" stroke-dasharray="5,2" d="M360.05,-2.1C388.5,-2.91 419.47,-9.27 441,-29 483.06,-67.54 498.35,-259.32 501.4,-304.47"/>
<polygon fill="#9a32cd" stroke="#9a32cd" points="359.73,1.4 349.7,-2.04 359.68,-5.6 359.73,1.4"/>
<text text-anchor="middle" x="407.5" y="-32" font-family="Helvetica,sans-Serif" font-size="10.00"> gay_berne</text>
</g>
</g>
</svg>
        <g id="navigator" transform="translate(0 0)" fill="#404254">
                <rect fill="#f2f5e9" fill-opacity="0.5" stroke="#606060" stroke-width=".5" x="0" y="0" width="60" height="60"/>
                <use id="zoomplus" xlink:href="#zoomPlus" x="17" y="9" onmousedown="handleZoom(evt,'in')"/>
                <use id="zoomminus" xlink:href="#zoomMin" x="42" y="9" onmousedown="handleZoom(evt,'out')"/>
                <use id="reset" xlink:href="#resetDef" x="30" y="36" onmousedown="handleReset()"/>
                <g id="arrowUp" xlink:href="#dirArrow" transform="translate(30 24)" onmousedown="handlePan(0,-1)">
                  <use xlink:href="#rim" fill="#404040">
                        <set attributeName="fill" to="#808080" begin="arrowUp.mouseover" end="arrowUp.mouseout"/>
                  </use>
                  <path fill="none" stroke="white" stroke-width="1.5" d="M0,-3.0v7 M-2.5,-0.5L0,-3.0L2.5,-0.5"/>
                </g>
                <g id="arrowRight" xlink:href="#dirArrow" transform="rotate(90) translate(36 -43)" onmousedown="handlePan(1,0)">
                  <use xlink:href="#rim" fill="#404040">
                        <set attributeName="fill" to="#808080" begin="arrowRight.mouseover" end="arrowRight.mouseout"/>
                  </use>
                  <path fill="none" stroke="white" stroke-width="1.5" d="M0,-3.0v7 M-2.5,-0.5L0,-3.0L2.5,-0.5"/>
                </g>
                <g id="arrowDown" xlink:href="#dirArrow" transform="rotate(180) translate(-30 -48)" onmousedown="handlePan(0,1)">
                  <use xlink:href="#rim" fill="#404040">
                        <set attributeName="fill" to="#808080" begin="arrowDown.mouseover" end="arrowDown.mouseout"/>
                  </use>
                  <path fill="none" stroke="white" stroke-width="1.5" d="M0,-3.0v7 M-2.5,-0.5L0,-3.0L2.5,-0.5"/>
                </g>
                <g id="arrowLeft" xlink:href="#dirArrow" transform="rotate(270) translate(-36 17)" onmousedown="handlePan(-1,0)">
                  <use xlink:href="#rim" fill="#404040">
                        <set attributeName="fill" to="#808080" begin="arrowLeft.mouseover" end="arrowLeft.mouseout"/>
                  </use>
                  <path fill="none" stroke="white" stroke-width="1.5" d="M0,-3.0v7 M-2.5,-0.5L0,-3.0L2.5,-0.5"/>
                </g>
        </g>
        <svg viewBox="0 0 15 15" width="100%" height="30px" preserveAspectRatio="xMaxYMin meet">
         <g id="arrow_out" transform="scale(0.3 0.3)">
          <a xlink:href="structIA__parameters__coll__graph_org.svg" target="_base">
           <rect id="button" ry="5" rx="5" y="6" x="6" height="38" width="38"
                fill="#f2f5e9" fill-opacity="0.5" stroke="#606060" stroke-width="1.0"/>
           <path id="arrow"
             d="M 11.500037,31.436501 C 11.940474,20.09759 22.043105,11.32322 32.158766,21.979434 L 37.068811,17.246167 C 37.068811,17.246167 37.088388,32 37.088388,32 L 22.160133,31.978069 C 22.160133,31.978069 26.997745,27.140456 26.997745,27.140456 C 18.528582,18.264221 13.291696,25.230495 11.500037,31.436501 z"
             style="fill:#404040;"/>
          </a>
         </g>
        </svg>
</svg>
