<?xml version="1.0" encoding="UTF-8" standalone="no"?>
<!DOCTYPE svg PUBLIC "-//W3C//DTD SVG 1.1//EN"
 "http://www.w3.org/Graphics/SVG/1.1/DTD/svg11.dtd">
<!-- Generated by graphviz version 2.43.0 (0)
 -->
<!-- Title: P3MGpuParams Pages: 1 -->
<svg width="213pt" height="95pt"
 viewBox="0.00 0.00 212.50 95.00" xmlns="http://www.w3.org/2000/svg" xmlns:xlink="http://www.w3.org/1999/xlink">
<g id="graph0" class="graph" transform="scale(1 1) rotate(0) translate(4 91)">
<title>P3MGpuParams</title>
<!-- Node1 -->
<g id="node1" class="node">
<title>Node1</title>
<g id="a_node1"><a xlink:title=" ">
<polygon fill="#bfbfbf" stroke="black" points="51,-0.5 51,-19.5 144,-19.5 144,-0.5 51,-0.5"/>
<text text-anchor="middle" x="97.5" y="-7.5" font-family="Helvetica,sans-Serif" font-size="10.00">P3MGpuParams</text>
</a>
</g>
</g>
<!-- Node2 -->
<g id="node2" class="node">
<title>Node2</title>
<g id="a_node2"><a xlink:href="structP3MGpuFftPlan.html" target="_top" xlink:title=" ">
<polygon fill="none" stroke="black" points="0,-67.5 0,-86.5 91,-86.5 91,-67.5 0,-67.5"/>
<text text-anchor="middle" x="45.5" y="-74.5" font-family="Helvetica,sans-Serif" font-size="10.00">P3MGpuFftPlan</text>
</a>
</g>
</g>
<!-- Node2&#45;&gt;Node1 -->
<g id="edge1" class="edge">
<title>Node2&#45;&gt;Node1</title>
<path fill="none" stroke="#9a32cd" stroke-dasharray="5,2" d="M58.88,-59.27C69.02,-46.6 82.54,-29.7 90.6,-19.63"/>
<polygon fill="#9a32cd" stroke="#9a32cd" points="56.03,-57.24 52.51,-67.23 61.49,-61.61 56.03,-57.24"/>
<text text-anchor="middle" x="96" y="-41" font-family="Helvetica,sans-Serif" font-size="10.00"> p3m_fft</text>
</g>
<!-- Node3 -->
<g id="node3" class="node">
<title>Node3</title>
<g id="a_node3"><a xlink:href="structP3MGpuData.html" target="_top" xlink:title=" ">
<polygon fill="none" stroke="black" points="109.5,-67.5 109.5,-86.5 189.5,-86.5 189.5,-67.5 109.5,-67.5"/>
<text text-anchor="middle" x="149.5" y="-74.5" font-family="Helvetica,sans-Serif" font-size="10.00">P3MGpuData</text>
</a>
</g>
</g>
<!-- Node3&#45;&gt;Node1 -->
<g id="edge2" class="edge">
<title>Node3&#45;&gt;Node1</title>
<path fill="none" stroke="#9a32cd" stroke-dasharray="5,2" d="M136.97,-59.18C131.93,-52.52 126.02,-44.84 120.5,-38 115.55,-31.86 109.8,-25.11 105.29,-19.9"/>
<polygon fill="#9a32cd" stroke="#9a32cd" points="134.37,-61.55 143.18,-67.45 139.97,-57.35 134.37,-61.55"/>
<text text-anchor="middle" x="166.5" y="-41" font-family="Helvetica,sans-Serif" font-size="10.00"> p3m_gpu_data</text>
</g>
</g>
</svg>
