<?xml version="1.0" encoding="UTF-8" standalone="no"?>
<!DOCTYPE svg PUBLIC "-//W3C//DTD SVG 1.1//EN"
 "http://www.w3.org/Graphics/SVG/1.1/DTD/svg11.dtd">
<!-- Generated by graphviz version 2.43.0 (0)
 -->
<!-- Title: Utils::Mpi::CartInfo&lt; dim &gt; Pages: 1 -->
<svg width="128pt" height="274pt"
 viewBox="0.00 0.00 128.00 274.00" xmlns="http://www.w3.org/2000/svg" xmlns:xlink="http://www.w3.org/1999/xlink">
<g id="graph0" class="graph" transform="scale(1 1) rotate(0) translate(4 270)">
<title>Utils::Mpi::CartInfo&lt; dim &gt;</title>
<!-- Node1 -->
<g id="node1" class="node">
<title>Node1</title>
<g id="a_node1"><a xlink:title="Information about a cartesian communicator.">
<polygon fill="#bfbfbf" stroke="black" points="6,-0.5 6,-30.5 114,-30.5 114,-0.5 6,-0.5"/>
<text text-anchor="start" x="14" y="-18.5" font-family="Helvetica,sans-Serif" font-size="10.00">Utils::Mpi::CartInfo</text>
<text text-anchor="middle" x="60" y="-7.5" font-family="Helvetica,sans-Serif" font-size="10.00">&lt; dim &gt;</text>
</a>
</g>
</g>
<!-- Node2 -->
<g id="node2" class="node">
<title>Node2</title>
<g id="a_node2"><a xlink:href="classUtils_1_1Vector.html" target="_top" xlink:title=" ">
<polygon fill="none" stroke="black" points="8,-100.5 8,-130.5 112,-130.5 112,-100.5 8,-100.5"/>
<text text-anchor="start" x="16" y="-118.5" font-family="Helvetica,sans-Serif" font-size="10.00">Utils::Vector&lt; int,</text>
<text text-anchor="middle" x="60" y="-107.5" font-family="Helvetica,sans-Serif" font-size="10.00"> dim &gt;</text>
</a>
</g>
</g>
<!-- Node2&#45;&gt;Node1 -->
<g id="edge1" class="edge">
<title>Node2&#45;&gt;Node1</title>
<path fill="none" stroke="#9a32cd" stroke-dasharray="5,2" d="M60,-90.28C60,-71.48 60,-46.08 60,-30.51"/>
<polygon fill="#9a32cd" stroke="#9a32cd" points="56.5,-90.46 60,-100.46 63.5,-90.46 56.5,-90.46"/>
<text text-anchor="middle" x="78.5" y="-74" font-family="Helvetica,sans-Serif" font-size="10.00"> dims</text>
<text text-anchor="middle" x="78.5" y="-63" font-family="Helvetica,sans-Serif" font-size="10.00">coords</text>
<text text-anchor="middle" x="78.5" y="-52" font-family="Helvetica,sans-Serif" font-size="10.00">periods</text>
</g>
<!-- Node3 -->
<g id="node3" class="node">
<title>Node3</title>
<g id="a_node3"><a xlink:href="structUtils_1_1Array.html" target="_top" xlink:title=" ">
<polygon fill="none" stroke="black" points="0,-168.5 0,-187.5 120,-187.5 120,-168.5 0,-168.5"/>
<text text-anchor="middle" x="60" y="-175.5" font-family="Helvetica,sans-Serif" font-size="10.00">Utils::Array&lt; int, N &gt;</text>
</a>
</g>
</g>
<!-- Node3&#45;&gt;Node2 -->
<g id="edge2" class="edge">
<title>Node3&#45;&gt;Node2</title>
<path fill="none" stroke="midnightblue" d="M60,-158.22C60,-149.36 60,-138.96 60,-130.76"/>
<polygon fill="midnightblue" stroke="midnightblue" points="56.5,-158.33 60,-168.33 63.5,-158.33 56.5,-158.33"/>
</g>
<!-- Node4 -->
<g id="node4" class="node">
<title>Node4</title>
<g id="a_node4"><a xlink:title=" ">
<polygon fill="none" stroke="#bfbfbf" points="2,-235.5 2,-265.5 118,-265.5 118,-235.5 2,-235.5"/>
<text text-anchor="start" x="10" y="-253.5" font-family="Helvetica,sans-Serif" font-size="10.00">Utils::detail::Storage</text>
<text text-anchor="middle" x="60" y="-242.5" font-family="Helvetica,sans-Serif" font-size="10.00">&lt; int, N &gt;</text>
</a>
</g>
</g>
<!-- Node4&#45;&gt;Node3 -->
<g id="edge3" class="edge">
<title>Node4&#45;&gt;Node3</title>
<path fill="none" stroke="#9a32cd" stroke-dasharray="5,2" d="M60,-225.09C60,-212.21 60,-197.2 60,-187.89"/>
<polygon fill="#9a32cd" stroke="#9a32cd" points="56.5,-225.23 60,-235.23 63.5,-225.23 56.5,-225.23"/>
<text text-anchor="middle" x="87.5" y="-209" font-family="Helvetica,sans-Serif" font-size="10.00"> m_storage</text>
</g>
</g>
</svg>
