<?xml version="1.0" encoding="UTF-8" standalone="no"?>
<!DOCTYPE svg PUBLIC "-//W3C//DTD SVG 1.1//EN"
 "http://www.w3.org/Graphics/SVG/1.1/DTD/svg11.dtd">
<!-- Generated by graphviz version 2.43.0 (0)
 -->
<!-- Title: CoulombScafacosImpl Pages: 1 -->
<svg width="472pt" height="288pt"
 viewBox="0.00 0.00 471.50 288.00" xmlns="http://www.w3.org/2000/svg" xmlns:xlink="http://www.w3.org/1999/xlink">
<g id="graph0" class="graph" transform="scale(1 1) rotate(0) translate(4 284)">
<title>CoulombScafacosImpl</title>
<!-- Node1 -->
<g id="node1" class="node">
<title>Node1</title>
<g id="a_node1"><a xlink:title=" ">
<polygon fill="#bfbfbf" stroke="black" points="244,-0.5 244,-19.5 369,-19.5 369,-0.5 244,-0.5"/>
<text text-anchor="middle" x="306.5" y="-7.5" font-family="Helvetica,sans-Serif" font-size="10.00">CoulombScafacosImpl</text>
</a>
</g>
</g>
<!-- Node2 -->
<g id="node2" class="node">
<title>Node2</title>
<g id="a_node2"><a xlink:href="structCoulombScafacos.html" target="_top" xlink:title=" ">
<polygon fill="none" stroke="black" points="181.5,-63 181.5,-82 285.5,-82 285.5,-63 181.5,-63"/>
<text text-anchor="middle" x="233.5" y="-70" font-family="Helvetica,sans-Serif" font-size="10.00">CoulombScafacos</text>
</a>
</g>
</g>
<!-- Node2&#45;&gt;Node1 -->
<g id="edge1" class="edge">
<title>Node2&#45;&gt;Node1</title>
<path fill="none" stroke="midnightblue" d="M251.94,-56.22C265.9,-44.65 284.58,-29.17 296.06,-19.65"/>
<polygon fill="midnightblue" stroke="midnightblue" points="249.43,-53.76 243.96,-62.83 253.89,-59.15 249.43,-53.76"/>
</g>
<!-- Node3 -->
<g id="node3" class="node">
<title>Node3</title>
<g id="a_node3"><a xlink:href="structScafacosContextBase.html" target="_top" xlink:title="Public interface to the ScaFaCoS context.">
<polygon fill="none" stroke="black" points="219.5,-125.5 219.5,-144.5 341.5,-144.5 341.5,-125.5 219.5,-125.5"/>
<text text-anchor="middle" x="280.5" y="-132.5" font-family="Helvetica,sans-Serif" font-size="10.00">ScafacosContextBase</text>
</a>
</g>
</g>
<!-- Node3&#45;&gt;Node2 -->
<g id="edge2" class="edge">
<title>Node3&#45;&gt;Node2</title>
<path fill="none" stroke="midnightblue" d="M267.6,-117.39C258.74,-105.99 247.34,-91.31 240.22,-82.15"/>
<polygon fill="midnightblue" stroke="midnightblue" points="264.87,-119.58 273.77,-125.33 270.4,-115.29 264.87,-119.58"/>
</g>
<!-- Node7 -->
<g id="node7" class="node">
<title>Node7</title>
<g id="a_node7"><a xlink:href="structScafacosContext.html" target="_top" xlink:title=" ">
<polygon fill="none" stroke="black" points="303.5,-57.5 303.5,-87.5 459.5,-87.5 459.5,-57.5 303.5,-57.5"/>
<text text-anchor="start" x="311.5" y="-75.5" font-family="Helvetica,sans-Serif" font-size="10.00">ScafacosContext&lt;::Scafacos</text>
<text text-anchor="middle" x="381.5" y="-64.5" font-family="Helvetica,sans-Serif" font-size="10.00">::Coulomb &gt;</text>
</a>
</g>
</g>
<!-- Node3&#45;&gt;Node7 -->
<g id="edge7" class="edge">
<title>Node3&#45;&gt;Node7</title>
<path fill="none" stroke="midnightblue" d="M303.86,-120.01C320.14,-110.25 341.79,-97.29 358.08,-87.53"/>
<polygon fill="midnightblue" stroke="midnightblue" points="301.75,-117.19 294.97,-125.33 305.35,-123.2 301.75,-117.19"/>
</g>
<!-- Node4 -->
<g id="node4" class="node">
<title>Node4</title>
<g id="a_node4"><a xlink:href="classCoulomb_1_1Actor.html" target="_top" xlink:title=" ">
<polygon fill="none" stroke="black" points="0,-125.5 0,-144.5 201,-144.5 201,-125.5 0,-125.5"/>
<text text-anchor="middle" x="100.5" y="-132.5" font-family="Helvetica,sans-Serif" font-size="10.00">Coulomb::Actor&lt; CoulombScafacos &gt;</text>
</a>
</g>
</g>
<!-- Node4&#45;&gt;Node2 -->
<g id="edge3" class="edge">
<title>Node4&#45;&gt;Node2</title>
<path fill="none" stroke="midnightblue" d="M128.53,-121.25C154.32,-109.52 191.89,-92.43 214.39,-82.19"/>
<polygon fill="midnightblue" stroke="midnightblue" points="126.93,-118.13 119.27,-125.46 129.83,-124.51 126.93,-118.13"/>
</g>
<!-- Node5 -->
<g id="node5" class="node">
<title>Node5</title>
<g id="a_node5"><a xlink:href="classSystem_1_1Leaf.html" target="_top" xlink:title="Abstract class that represents a component of the system.">
<polygon fill="none" stroke="black" points="36,-182.5 36,-201.5 165,-201.5 165,-182.5 36,-182.5"/>
<text text-anchor="middle" x="100.5" y="-189.5" font-family="Helvetica,sans-Serif" font-size="10.00">System::Leaf&lt; Class &gt;</text>
</a>
</g>
</g>
<!-- Node5&#45;&gt;Node4 -->
<g id="edge4" class="edge">
<title>Node5&#45;&gt;Node4</title>
<path fill="none" stroke="midnightblue" d="M100.5,-172.12C100.5,-162.82 100.5,-152.06 100.5,-144.71"/>
<polygon fill="midnightblue" stroke="midnightblue" points="97,-172.41 100.5,-182.41 104,-172.41 97,-172.41"/>
</g>
<!-- Node6 -->
<g id="node6" class="node">
<title>Node6</title>
<g id="a_node6"><a xlink:title=" ">
<polygon fill="none" stroke="#bfbfbf" points="35,-249.5 35,-279.5 166,-279.5 166,-249.5 35,-249.5"/>
<text text-anchor="start" x="43" y="-267.5" font-family="Helvetica,sans-Serif" font-size="10.00">std::weak_ptr&lt; System</text>
<text text-anchor="middle" x="100.5" y="-256.5" font-family="Helvetica,sans-Serif" font-size="10.00">::System &gt;</text>
</a>
</g>
</g>
<!-- Node6&#45;&gt;Node5 -->
<g id="edge5" class="edge">
<title>Node6&#45;&gt;Node5</title>
<path fill="none" stroke="#9a32cd" stroke-dasharray="5,2" d="M100.5,-239.09C100.5,-226.21 100.5,-211.2 100.5,-201.89"/>
<polygon fill="#9a32cd" stroke="#9a32cd" points="97,-239.23 100.5,-249.23 104,-239.23 97,-239.23"/>
<text text-anchor="middle" x="128" y="-223" font-family="Helvetica,sans-Serif" font-size="10.00"> m_system</text>
</g>
<!-- Node7&#45;&gt;Node1 -->
<g id="edge6" class="edge">
<title>Node7&#45;&gt;Node1</title>
<path fill="none" stroke="midnightblue" d="M356.17,-51.07C342.84,-40.31 327.2,-27.7 317.09,-19.54"/>
<polygon fill="midnightblue" stroke="midnightblue" points="354.12,-53.91 364.1,-57.47 358.52,-48.47 354.12,-53.91"/>
</g>
<!-- Node8 -->
<g id="node8" class="node">
<title>Node8</title>
<g id="a_node8"><a xlink:title=" ">
<polygon fill="none" stroke="#bfbfbf" points="359.5,-125.5 359.5,-144.5 463.5,-144.5 463.5,-125.5 359.5,-125.5"/>
<text text-anchor="middle" x="411.5" y="-132.5" font-family="Helvetica,sans-Serif" font-size="10.00">ScafacosInterface</text>
</a>
</g>
</g>
<!-- Node8&#45;&gt;Node7 -->
<g id="edge8" class="edge">
<title>Node8&#45;&gt;Node7</title>
<path fill="none" stroke="midnightblue" d="M402.62,-116.1C398.14,-107.05 392.77,-96.23 388.57,-87.76"/>
<polygon fill="midnightblue" stroke="midnightblue" points="399.62,-117.93 407.2,-125.33 405.89,-114.82 399.62,-117.93"/>
</g>
</g>
</svg>
