<?xml version="1.0" encoding="UTF-8" standalone="no"?>
<!DOCTYPE svg PUBLIC "-//W3C//DTD SVG 1.1//EN"
 "http://www.w3.org/Graphics/SVG/1.1/DTD/svg11.dtd">
<!-- Generated by graphviz version 2.43.0 (0)
 -->
<!-- Title: LB_parameters_gpu Pages: 1 -->
<svg width="282pt" height="184pt"
 viewBox="0.00 0.00 281.50 184.00" xmlns="http://www.w3.org/2000/svg" xmlns:xlink="http://www.w3.org/1999/xlink">
<g id="graph0" class="graph" transform="scale(1 1) rotate(0) translate(4 180)">
<title>LB_parameters_gpu</title>
<!-- Node1 -->
<g id="node1" class="node">
<title>Node1</title>
<g id="a_node1"><a xlink:title="Parameters for the lattice Boltzmann system for GPU.">
<polygon fill="#bfbfbf" stroke="black" points="79,-0.5 79,-19.5 192,-19.5 192,-0.5 79,-0.5"/>
<text text-anchor="middle" x="135.5" y="-7.5" font-family="Helvetica,sans-Serif" font-size="10.00">LB_parameters_gpu</text>
</a>
</g>
</g>
<!-- Node2 -->
<g id="node2" class="node">
<title>Node2</title>
<g id="a_node2"><a xlink:href="structUtils_1_1Array.html" target="_top" xlink:title=" ">
<polygon fill="none" stroke="black" points="0,-67.5 0,-97.5 127,-97.5 127,-67.5 0,-67.5"/>
<text text-anchor="start" x="8" y="-85.5" font-family="Helvetica,sans-Serif" font-size="10.00">Utils::Array&lt; unsigned</text>
<text text-anchor="middle" x="63.5" y="-74.5" font-family="Helvetica,sans-Serif" font-size="10.00"> int, 3 &gt;</text>
</a>
</g>
</g>
<!-- Node2&#45;&gt;Node1 -->
<g id="edge1" class="edge">
<title>Node2&#45;&gt;Node1</title>
<path fill="none" stroke="#9a32cd" stroke-dasharray="5,2" d="M85.32,-60.14C99.09,-46.65 116.16,-29.94 126.42,-19.89"/>
<polygon fill="#9a32cd" stroke="#9a32cd" points="82.77,-57.74 78.07,-67.23 87.66,-62.74 82.77,-57.74"/>
<text text-anchor="middle" x="117.5" y="-41" font-family="Helvetica,sans-Serif" font-size="10.00"> dim</text>
</g>
<!-- Node3 -->
<g id="node3" class="node">
<title>Node3</title>
<g id="a_node3"><a xlink:title=" ">
<polygon fill="none" stroke="#bfbfbf" points="5.5,-145.5 5.5,-175.5 121.5,-175.5 121.5,-145.5 5.5,-145.5"/>
<text text-anchor="start" x="13.5" y="-163.5" font-family="Helvetica,sans-Serif" font-size="10.00">Utils::detail::Storage</text>
<text text-anchor="middle" x="63.5" y="-152.5" font-family="Helvetica,sans-Serif" font-size="10.00">&lt; unsigned int, N &gt;</text>
</a>
</g>
</g>
<!-- Node3&#45;&gt;Node2 -->
<g id="edge2" class="edge">
<title>Node3&#45;&gt;Node2</title>
<path fill="none" stroke="#9a32cd" stroke-dasharray="5,2" d="M63.5,-135.09C63.5,-122.76 63.5,-108.22 63.5,-97.73"/>
<polygon fill="#9a32cd" stroke="#9a32cd" points="60,-135.2 63.5,-145.2 67,-135.21 60,-135.2"/>
<text text-anchor="middle" x="91" y="-119" font-family="Helvetica,sans-Serif" font-size="10.00"> m_storage</text>
</g>
<!-- Node4 -->
<g id="node4" class="node">
<title>Node4</title>
<g id="a_node4"><a xlink:href="structUtils_1_1Array.html" target="_top" xlink:title=" ">
<polygon fill="none" stroke="black" points="145.5,-73 145.5,-92 273.5,-92 273.5,-73 145.5,-73"/>
<text text-anchor="middle" x="209.5" y="-80" font-family="Helvetica,sans-Serif" font-size="10.00">Utils::Array&lt; float, 3 &gt;</text>
</a>
</g>
</g>
<!-- Node4&#45;&gt;Node1 -->
<g id="edge3" class="edge">
<title>Node4&#45;&gt;Node1</title>
<path fill="none" stroke="#9a32cd" stroke-dasharray="5,2" d="M192.91,-65.69C178,-51.49 156.67,-31.17 144.65,-19.72"/>
<polygon fill="#9a32cd" stroke="#9a32cd" points="190.77,-68.49 200.43,-72.86 195.6,-63.42 190.77,-68.49"/>
<text text-anchor="middle" x="221" y="-41" font-family="Helvetica,sans-Serif" font-size="10.00"> ext_force_density</text>
</g>
<!-- Node5 -->
<g id="node5" class="node">
<title>Node5</title>
<g id="a_node5"><a xlink:title=" ">
<polygon fill="none" stroke="#bfbfbf" points="151.5,-145.5 151.5,-175.5 267.5,-175.5 267.5,-145.5 151.5,-145.5"/>
<text text-anchor="start" x="159.5" y="-163.5" font-family="Helvetica,sans-Serif" font-size="10.00">Utils::detail::Storage</text>
<text text-anchor="middle" x="209.5" y="-152.5" font-family="Helvetica,sans-Serif" font-size="10.00">&lt; float, N &gt;</text>
</a>
</g>
</g>
<!-- Node5&#45;&gt;Node4 -->
<g id="edge4" class="edge">
<title>Node5&#45;&gt;Node4</title>
<path fill="none" stroke="#9a32cd" stroke-dasharray="5,2" d="M209.5,-135.17C209.5,-120.4 209.5,-102.45 209.5,-92.06"/>
<polygon fill="#9a32cd" stroke="#9a32cd" points="206,-135.2 209.5,-145.2 213,-135.21 206,-135.2"/>
<text text-anchor="middle" x="237" y="-119" font-family="Helvetica,sans-Serif" font-size="10.00"> m_storage</text>
</g>
</g>
</svg>
