<?xml version="1.0" encoding="UTF-8" standalone="no"?>
<!DOCTYPE svg PUBLIC "-//W3C//DTD SVG 1.1//EN"
 "http://www.w3.org/Graphics/SVG/1.1/DTD/svg11.dtd">
<!-- Generated by graphviz version 2.43.0 (0)
 -->
<!-- Title: tensor_product.hpp Pages: 1 -->
<!--zoomable 324 -->

<svg id="main" version="1.1" xmlns="http://www.w3.org/2000/svg" xmlns:xlink="http://www.w3.org/1999/xlink" xml:space="preserve" onload="init(evt)">
<style type="text/css"><![CDATA[
.node, .edge {opacity: 0.7;}
.node.selected, .edge.selected {opacity: 1;}
.edge:hover path { stroke: red; }
.edge:hover polygon { stroke: red; fill: red; }
]]></style>

<defs>
  <circle id="rim" cx="0" cy="0" r="7"/>
  <circle id="rim2" cx="0" cy="0" r="3.5"/>
  <g id="zoomPlus">
    <use xlink:href="#rim" fill="#404040"><set attributeName="fill" to="#808080" begin="zoomplus.mouseover" end="zoomplus.mouseout"/></use>
    <path d="M-4,0h8M0,-4v8" fill="none" stroke="white" stroke-width="1.5" pointer-events="none"/>
  </g>
  <g id="zoomMin">
    <use xlink:href="#rim" fill="#404040"><set attributeName="fill" to="#808080" begin="zoomminus.mouseover" end="zoomminus.mouseout"/></use>
    <path d="M-4,0h8" fill="none" stroke="white" stroke-width="1.5" pointer-events="none"/>
  </g>
  <g id="arrowUp" transform="translate(30 24)">
    <use xlink:href="#rim"/>
    <path pointer-events="none" fill="none" stroke="white" stroke-width="1.5" d="M0,-3.0v7 M-2.5,-0.5L0,-3.0L2.5,-0.5"/>
  </g>
  <g id="arrowRight" transform="rotate(90) translate(36 -43)">
    <use xlink:href="#rim"/>
    <path pointer-events="none" fill="none" stroke="white" stroke-width="1.5" d="M0,-3.0v7 M-2.5,-0.5L0,-3.0L2.5,-0.5"/>
  </g>
  <g id="arrowDown" transform="rotate(180) translate(-30 -48)">
    <use xlink:href="#rim"/>
    <path pointer-events="none" fill="none" stroke="white" stroke-width="1.5" d="M0,-3.0v7 M-2.5,-0.5L0,-3.0L2.5,-0.5"/>
  </g>
  <g id="arrowLeft" transform="rotate(270) translate(-36 17)">
    <use xlink:href="#rim"/>
    <path pointer-events="none" fill="none" stroke="white" stroke-width="1.5" d="M0,-3.0v7 M-2.5,-0.5L0,-3.0L2.5,-0.5"/>
  </g>
  <g id="resetDef">
    <use xlink:href="#rim2" fill="#404040"><set attributeName="fill" to="#808080" begin="reset.mouseover" end="reset.mouseout"/></use>
  </g>
</defs>
<script type="application/ecmascript">
var viewWidth = 3187;
var viewHeight = 324;
var sectionId = 'dynsection-0';
</script>
<script type="application/ecmascript" xlink:href="svg.min.js"/>
<svg id="graph" class="graph">
<g id="viewport">
<title>tensor_product.hpp</title>
<!-- Node1 -->
<g id="Node000001" class="node">
<title>Node1</title>
<g id="a_Node000001"><a xlink:title=" ">
<polygon fill="#999999" stroke="#666666" points="3013.5,-316 2903.5,-316 2903.5,-297 3013.5,-297 3013.5,-316"/>
<text text-anchor="middle" x="2958.5" y="-304" font-family="Helvetica,sans-Serif" font-size="10.00">tensor_product.hpp</text>
</a>
</g>
</g>
<!-- Node2 -->
<g id="Node000002" class="node">
<title>Node2</title>
<g id="a_Node000002"><a xlink:href="Vector_8hpp.html" target="_top" xlink:title="Vector implementation and trait types for boost qvm interoperability.">
<polygon fill="white" stroke="#666666" points="2695.5,-206 2603.5,-206 2603.5,-187 2695.5,-187 2695.5,-206"/>
<text text-anchor="middle" x="2649.5" y="-194" font-family="Helvetica,sans-Serif" font-size="10.00">utils/Vector.hpp</text>
</a>
</g>
</g>
<!-- Node1&#45;&gt;Node2 -->
<g id="edge1_Node000001_Node000002" class="edge">
<title>Node1&#45;&gt;Node2</title>
<g id="a_edge1_Node000001_Node000002"><a xlink:title=" ">
<path fill="none" stroke="#63b8ff" d="M2934,-296.94C2879.12,-277.76 2746.26,-231.32 2683.46,-209.37"/>
<polygon fill="#63b8ff" stroke="#63b8ff" points="2684.6,-206.06 2674.01,-206.07 2682.29,-212.67 2684.6,-206.06"/>
</a>
</g>
</g>
<!-- Node9 -->
<g id="Node000009" class="node">
<title>Node9</title>
<g id="a_Node000009"><a xlink:title=" ">
<polygon fill="#e0e0e0" stroke="#999999" points="2823,-24.5 2770,-24.5 2770,-5.5 2823,-5.5 2823,-24.5"/>
<text text-anchor="middle" x="2796.5" y="-12.5" font-family="Helvetica,sans-Serif" font-size="10.00">cstddef</text>
</a>
</g>
</g>
<!-- Node1&#45;&gt;Node9 -->
<g id="edge62_Node000001_Node000009" class="edge">
<title>Node1&#45;&gt;Node9</title>
<g id="a_edge62_Node000001_Node000009"><a xlink:title=" ">
<path fill="none" stroke="#63b8ff" d="M3013.73,-301.92C3078.9,-294.35 3178.5,-270.79 3178.5,-197.5 3178.5,-197.5 3178.5,-197.5 3178.5,-140.5 3178.5,-68.31 2928.76,-31.47 2833.14,-20"/>
<polygon fill="#63b8ff" stroke="#63b8ff" points="2833.4,-16.51 2823.06,-18.82 2832.58,-23.46 2833.4,-16.51"/>
</a>
</g>
</g>
<!-- Node24 -->
<g id="Node000024" class="node">
<title>Node24</title>
<g id="a_Node000024"><a xlink:title=" ">
<polygon fill="#e0e0e0" stroke="#999999" points="3150.5,-151 3086.5,-151 3086.5,-132 3150.5,-132 3150.5,-151"/>
<text text-anchor="middle" x="3118.5" y="-139" font-family="Helvetica,sans-Serif" font-size="10.00">algorithm</text>
</a>
</g>
</g>
<!-- Node1&#45;&gt;Node24 -->
<g id="edge61_Node000001_Node000024" class="edge">
<title>Node1&#45;&gt;Node24</title>
<g id="a_edge61_Node000001_Node000024"><a xlink:title=" ">
<path fill="none" stroke="#63b8ff" d="M2967.1,-296.74C2992.82,-270.53 3069.41,-192.51 3102.72,-158.57"/>
<polygon fill="#63b8ff" stroke="#63b8ff" points="3105.35,-160.9 3109.86,-151.31 3100.35,-155.99 3105.35,-160.9"/>
</a>
</g>
</g>
<!-- Node32 -->
<g id="Node000032" class="node">
<title>Node32</title>
<g id="a_Node000032"><a xlink:href="matrix_8hpp.html" target="_top" xlink:title="Matrix implementation and trait types for boost qvm interoperability.">
<polygon fill="white" stroke="#666666" points="1939.5,-261 1845.5,-261 1845.5,-242 1939.5,-242 1939.5,-261"/>
<text text-anchor="middle" x="1892.5" y="-249" font-family="Helvetica,sans-Serif" font-size="10.00">utils/matrix.hpp</text>
</a>
</g>
</g>
<!-- Node1&#45;&gt;Node32 -->
<g id="edge37_Node000001_Node000032" class="edge">
<title>Node1&#45;&gt;Node32</title>
<g id="a_edge37_Node000001_Node000032"><a xlink:title=" ">
<path fill="none" stroke="#63b8ff" d="M2903.43,-302.76C2720.68,-293.68 2135.36,-264.57 1949.63,-255.34"/>
<polygon fill="#63b8ff" stroke="#63b8ff" points="1949.69,-251.84 1939.53,-254.84 1949.34,-258.83 1949.69,-251.84"/>
</a>
</g>
</g>
<!-- Node3 -->
<g id="Node000003" class="node">
<title>Node3</title>
<g id="a_Node000003"><a xlink:title=" ">
<polygon fill="#e0e0e0" stroke="#999999" points="2205.5,-151 2055.5,-151 2055.5,-132 2205.5,-132 2205.5,-151"/>
<text text-anchor="middle" x="2130.5" y="-139" font-family="Helvetica,sans-Serif" font-size="10.00">boost/qvm/deduce_vec.hpp</text>
</a>
</g>
</g>
<!-- Node2&#45;&gt;Node3 -->
<g id="edge2_Node000002_Node000003" class="edge">
<title>Node2&#45;&gt;Node3</title>
<g id="a_edge2_Node000002_Node000003"><a xlink:title=" ">
<path fill="none" stroke="#63b8ff" d="M2603.44,-190.8C2516.48,-181.92 2326.89,-162.56 2215.97,-151.23"/>
<polygon fill="#63b8ff" stroke="#63b8ff" points="2216.13,-147.73 2205.82,-150.19 2215.41,-154.69 2216.13,-147.73"/>
</a>
</g>
</g>
<!-- Node4 -->
<g id="Node000004" class="node">
<title>Node4</title>
<g id="a_Node000004"><a xlink:title=" ">
<polygon fill="#e0e0e0" stroke="#999999" points="2581.5,-151 2441.5,-151 2441.5,-132 2581.5,-132 2581.5,-151"/>
<text text-anchor="middle" x="2511.5" y="-139" font-family="Helvetica,sans-Serif" font-size="10.00">boost/qvm/vec_traits.hpp</text>
</a>
</g>
</g>
<!-- Node2&#45;&gt;Node4 -->
<g id="edge3_Node000002_Node000004" class="edge">
<title>Node2&#45;&gt;Node4</title>
<g id="a_edge3_Node000002_Node000004"><a xlink:title=" ">
<path fill="none" stroke="#63b8ff" d="M2627.33,-186.98C2604.73,-178.3 2569.44,-164.75 2543.75,-154.88"/>
<polygon fill="#63b8ff" stroke="#63b8ff" points="2544.67,-151.49 2534.08,-151.17 2542.16,-158.02 2544.67,-151.49"/>
</a>
</g>
</g>
<!-- Node5 -->
<g id="Node000005" class="node">
<title>Node5</title>
<g id="a_Node000005"><a xlink:href="Array_8hpp.html" target="_top" xlink:title="Array implementation with CUDA support.">
<polygon fill="white" stroke="#666666" points="2385.5,-151 2299.5,-151 2299.5,-132 2385.5,-132 2385.5,-151"/>
<text text-anchor="middle" x="2342.5" y="-139" font-family="Helvetica,sans-Serif" font-size="10.00">utils/Array.hpp</text>
</a>
</g>
</g>
<!-- Node2&#45;&gt;Node5 -->
<g id="edge4_Node000002_Node000005" class="edge">
<title>Node2&#45;&gt;Node5</title>
<g id="a_edge4_Node000002_Node000005"><a xlink:title=" ">
<path fill="none" stroke="#63b8ff" d="M2603.21,-187.51C2547.58,-177.91 2454.45,-161.83 2395.86,-151.71"/>
<polygon fill="#63b8ff" stroke="#63b8ff" points="2396.14,-148.21 2385.69,-149.96 2394.95,-155.11 2396.14,-148.21"/>
</a>
</g>
</g>
<!-- Node7 -->
<g id="Node000007" class="node">
<title>Node7</title>
<g id="a_Node000007"><a xlink:title=" ">
<polygon fill="#e0e0e0" stroke="#999999" points="1605.5,-24.5 1553.5,-24.5 1553.5,-5.5 1605.5,-5.5 1605.5,-24.5"/>
<text text-anchor="middle" x="1579.5" y="-12.5" font-family="Helvetica,sans-Serif" font-size="10.00">cassert</text>
</a>
</g>
</g>
<!-- Node2&#45;&gt;Node7 -->
<g id="edge27_Node000002_Node000007" class="edge">
<title>Node2&#45;&gt;Node7</title>
<g id="a_edge27_Node000002_Node000007"><a xlink:title=" ">
<path fill="none" stroke="#63b8ff" d="M2603.37,-190.9C2501.34,-180.67 2264.23,-156.47 2247.5,-151 2231.42,-145.74 2230.56,-137.35 2214.5,-132 2088.77,-90.1 2042.29,-143.32 1918.5,-96 1896.73,-87.68 1897.2,-74.49 1875.5,-66 1766.46,-23.32 1727.7,-59.97 1614.5,-30 1612.34,-29.43 1610.14,-28.76 1607.93,-28.03"/>
<polygon fill="#63b8ff" stroke="#63b8ff" points="1609.06,-24.72 1598.47,-24.56 1606.65,-31.29 1609.06,-24.72"/>
</a>
</g>
</g>
<!-- Node2&#45;&gt;Node9 -->
<g id="edge29_Node000002_Node000009" class="edge">
<title>Node2&#45;&gt;Node9</title>
<g id="a_edge29_Node000002_Node000009"><a xlink:title=" ">
<path fill="none" stroke="#63b8ff" d="M2654.93,-186.98C2663.02,-174.49 2678.95,-150.7 2694.5,-132 2708.77,-114.85 2714.55,-112.57 2729.5,-96 2748.75,-74.67 2769.87,-49.06 2783.15,-32.66"/>
<polygon fill="#63b8ff" stroke="#63b8ff" points="2786.11,-34.57 2789.66,-24.58 2780.66,-30.17 2786.11,-34.57"/>
</a>
</g>
</g>
<!-- Node21 -->
<g id="Node000021" class="node">
<title>Node21</title>
<g id="a_Node000021"><a xlink:title=" ">
<polygon fill="#e0e0e0" stroke="#999999" points="1981,-90.5 1928,-90.5 1928,-71.5 1981,-71.5 1981,-90.5"/>
<text text-anchor="middle" x="1954.5" y="-78.5" font-family="Helvetica,sans-Serif" font-size="10.00">iterator</text>
</a>
</g>
</g>
<!-- Node2&#45;&gt;Node21 -->
<g id="edge32_Node000002_Node000021" class="edge">
<title>Node2&#45;&gt;Node21</title>
<g id="a_edge32_Node000002_Node000021"><a xlink:title=" ">
<path fill="none" stroke="#63b8ff" d="M2603.33,-191.47C2520.14,-183.93 2348.38,-167 2290.5,-151 2270.36,-145.43 2267.59,-137.73 2247.5,-132 2136.58,-100.39 2102.11,-125.1 1990.5,-96 1988.2,-95.4 1985.85,-94.7 1983.5,-93.93"/>
<polygon fill="#63b8ff" stroke="#63b8ff" points="1984.63,-90.62 1974.03,-90.54 1982.27,-97.21 1984.63,-90.62"/>
</a>
</g>
</g>
<!-- Node2&#45;&gt;Node24 -->
<g id="edge26_Node000002_Node000024" class="edge">
<title>Node2&#45;&gt;Node24</title>
<g id="a_edge26_Node000002_Node000024"><a xlink:title=" ">
<path fill="none" stroke="#63b8ff" d="M2695.81,-192.14C2774.39,-186.1 2938.72,-172.07 3076.5,-151 3076.6,-150.98 3076.7,-150.97 3076.8,-150.95"/>
<polygon fill="#63b8ff" stroke="#63b8ff" points="3077.18,-154.44 3086.45,-149.31 3076.01,-147.54 3077.18,-154.44"/>
</a>
</g>
</g>
<!-- Node25 -->
<g id="Node000025" class="node">
<title>Node25</title>
<g id="a_Node000025"><a xlink:title=" ">
<polygon fill="#e0e0e0" stroke="#999999" points="2647,-151 2600,-151 2600,-132 2647,-132 2647,-151"/>
<text text-anchor="middle" x="2623.5" y="-139" font-family="Helvetica,sans-Serif" font-size="10.00">cmath</text>
</a>
</g>
</g>
<!-- Node2&#45;&gt;Node25 -->
<g id="edge28_Node000002_Node000025" class="edge">
<title>Node2&#45;&gt;Node25</title>
<g id="a_edge28_Node000002_Node000025"><a xlink:title=" ">
<path fill="none" stroke="#63b8ff" d="M2645.21,-186.75C2641.69,-179.57 2636.59,-169.18 2632.22,-160.27"/>
<polygon fill="#63b8ff" stroke="#63b8ff" points="2635.26,-158.53 2627.71,-151.09 2628.98,-161.61 2635.26,-158.53"/>
</a>
</g>
</g>
<!-- Node26 -->
<g id="Node000026" class="node">
<title>Node26</title>
<g id="a_Node000026"><a xlink:title=" ">
<polygon fill="#e0e0e0" stroke="#999999" points="2769,-151 2704,-151 2704,-132 2769,-132 2769,-151"/>
<text text-anchor="middle" x="2736.5" y="-139" font-family="Helvetica,sans-Serif" font-size="10.00">functional</text>
</a>
</g>
</g>
<!-- Node2&#45;&gt;Node26 -->
<g id="edge30_Node000002_Node000026" class="edge">
<title>Node2&#45;&gt;Node26</title>
<g id="a_edge30_Node000002_Node000026"><a xlink:title=" ">
<path fill="none" stroke="#63b8ff" d="M2663.48,-186.98C2676.97,-178.77 2697.63,-166.18 2713.54,-156.49"/>
<polygon fill="#63b8ff" stroke="#63b8ff" points="2715.55,-159.36 2722.27,-151.17 2711.91,-153.38 2715.55,-159.36"/>
</a>
</g>
</g>
<!-- Node27 -->
<g id="Node000027" class="node">
<title>Node27</title>
<g id="a_Node000027"><a xlink:title=" ">
<polygon fill="#e0e0e0" stroke="#999999" points="2870,-151 2787,-151 2787,-132 2870,-132 2870,-151"/>
<text text-anchor="middle" x="2828.5" y="-139" font-family="Helvetica,sans-Serif" font-size="10.00">initializer_list</text>
</a>
</g>
</g>
<!-- Node2&#45;&gt;Node27 -->
<g id="edge31_Node000002_Node000027" class="edge">
<title>Node2&#45;&gt;Node27</title>
<g id="a_edge31_Node000002_Node000027"><a xlink:title=" ">
<path fill="none" stroke="#63b8ff" d="M2678.26,-186.98C2708.44,-178.05 2756.07,-163.94 2789.6,-154.02"/>
<polygon fill="#63b8ff" stroke="#63b8ff" points="2790.92,-157.28 2799.52,-151.08 2788.93,-150.57 2790.92,-157.28"/>
</a>
</g>
</g>
<!-- Node28 -->
<g id="Node000028" class="node">
<title>Node28</title>
<g id="a_Node000028"><a xlink:title=" ">
<polygon fill="#e0e0e0" stroke="#999999" points="2944.5,-151 2888.5,-151 2888.5,-132 2944.5,-132 2944.5,-151"/>
<text text-anchor="middle" x="2916.5" y="-139" font-family="Helvetica,sans-Serif" font-size="10.00">numeric</text>
</a>
</g>
</g>
<!-- Node2&#45;&gt;Node28 -->
<g id="edge33_Node000002_Node000028" class="edge">
<title>Node2&#45;&gt;Node28</title>
<g id="a_edge33_Node000002_Node000028"><a xlink:title=" ">
<path fill="none" stroke="#63b8ff" d="M2695.63,-186.93C2741.93,-178.24 2815.27,-164.21 2878.5,-151 2878.6,-150.98 2878.7,-150.96 2878.8,-150.94"/>
<polygon fill="#63b8ff" stroke="#63b8ff" points="2879.25,-154.42 2888.3,-148.9 2877.79,-147.58 2879.25,-154.42"/>
</a>
</g>
</g>
<!-- Node29 -->
<g id="Node000029" class="node">
<title>Node29</title>
<g id="a_Node000029"><a xlink:title=" ">
<polygon fill="#e0e0e0" stroke="#999999" points="3002.5,-151 2962.5,-151 2962.5,-132 3002.5,-132 3002.5,-151"/>
<text text-anchor="middle" x="2982.5" y="-139" font-family="Helvetica,sans-Serif" font-size="10.00">span</text>
</a>
</g>
</g>
<!-- Node2&#45;&gt;Node29 -->
<g id="edge34_Node000002_Node000029" class="edge">
<title>Node2&#45;&gt;Node29</title>
<g id="a_edge34_Node000002_Node000029"><a xlink:title=" ">
<path fill="none" stroke="#63b8ff" d="M2695.7,-190.77C2753.6,-184.4 2856,-171.65 2952.4,-150.97"/>
<polygon fill="#63b8ff" stroke="#63b8ff" points="2953.29,-154.36 2962.31,-148.81 2951.8,-147.52 2953.29,-154.36"/>
</a>
</g>
</g>
<!-- Node30 -->
<g id="Node000030" class="node">
<title>Node30</title>
<g id="a_Node000030"><a xlink:title=" ">
<polygon fill="#e0e0e0" stroke="#999999" points="2038,-151 1969,-151 1969,-132 2038,-132 2038,-151"/>
<text text-anchor="middle" x="2003.5" y="-139" font-family="Helvetica,sans-Serif" font-size="10.00">type_traits</text>
</a>
</g>
</g>
<!-- Node2&#45;&gt;Node30 -->
<g id="edge35_Node000002_Node000030" class="edge">
<title>Node2&#45;&gt;Node30</title>
<g id="a_edge35_Node000002_Node000030"><a xlink:title=" ">
<path fill="none" stroke="#63b8ff" d="M2603.14,-191.13C2587.96,-189.74 2571.02,-188.25 2555.5,-187 2332.76,-169.05 2273.03,-180.7 2048.3,-151.09"/>
<polygon fill="#63b8ff" stroke="#63b8ff" points="2048.55,-147.59 2038.17,-149.74 2047.62,-154.53 2048.55,-147.59"/>
</a>
</g>
</g>
<!-- Node31 -->
<g id="Node000031" class="node">
<title>Node31</title>
<g id="a_Node000031"><a xlink:title=" ">
<polygon fill="#e0e0e0" stroke="#999999" points="3068,-151 3021,-151 3021,-132 3068,-132 3068,-151"/>
<text text-anchor="middle" x="3044.5" y="-139" font-family="Helvetica,sans-Serif" font-size="10.00">vector</text>
</a>
</g>
</g>
<!-- Node2&#45;&gt;Node31 -->
<g id="edge36_Node000002_Node000031" class="edge">
<title>Node2&#45;&gt;Node31</title>
<g id="a_edge36_Node000002_Node000031"><a xlink:title=" ">
<path fill="none" stroke="#63b8ff" d="M2695.51,-191.77C2762.67,-185.91 2891.6,-173.06 3010.76,-150.89"/>
<polygon fill="#63b8ff" stroke="#63b8ff" points="3011.61,-154.29 3020.79,-149 3010.31,-147.41 3011.61,-154.29"/>
</a>
</g>
</g>
<!-- Node6 -->
<g id="Node000006" class="node">
<title>Node6</title>
<g id="a_Node000006"><a xlink:href="device__qualifier_8hpp.html" target="_top" xlink:title=" ">
<polygon fill="white" stroke="#666666" points="2113.5,-90.5 1999.5,-90.5 1999.5,-71.5 2113.5,-71.5 2113.5,-90.5"/>
<text text-anchor="middle" x="2056.5" y="-78.5" font-family="Helvetica,sans-Serif" font-size="10.00">device_qualifier.hpp</text>
</a>
</g>
</g>
<!-- Node5&#45;&gt;Node6 -->
<g id="edge5_Node000005_Node000006" class="edge">
<title>Node5&#45;&gt;Node6</title>
<g id="a_edge5_Node000005_Node000006"><a xlink:title=" ">
<path fill="none" stroke="#63b8ff" d="M2300.91,-131.99C2249.87,-121.55 2163.3,-103.85 2108.07,-92.55"/>
<polygon fill="#63b8ff" stroke="#63b8ff" points="2108.64,-89.09 2098.14,-90.52 2107.23,-95.95 2108.64,-89.09"/>
</a>
</g>
</g>
<!-- Node5&#45;&gt;Node7 -->
<g id="edge21_Node000005_Node000007" class="edge">
<title>Node5&#45;&gt;Node7</title>
<g id="a_edge21_Node000005_Node000007"><a xlink:title=" ">
<path fill="none" stroke="#63b8ff" d="M2299.42,-132.17C2253.67,-122.95 2184.69,-107.81 2160.5,-96 2141.16,-86.56 2142.57,-73.77 2122.5,-66 1911.43,15.75 1835.11,-80.64 1614.5,-30 1612.13,-29.46 1609.71,-28.78 1607.31,-28.01"/>
<polygon fill="#63b8ff" stroke="#63b8ff" points="1608.28,-24.64 1597.68,-24.51 1605.89,-31.22 1608.28,-24.64"/>
</a>
</g>
</g>
<!-- Node8 -->
<g id="Node000008" class="node">
<title>Node8</title>
<g id="a_Node000008"><a xlink:href="get_8hpp.html" target="_top" xlink:title=" ">
<polygon fill="white" stroke="#666666" points="2649,-90.5 2596,-90.5 2596,-71.5 2649,-71.5 2649,-90.5"/>
<text text-anchor="middle" x="2622.5" y="-78.5" font-family="Helvetica,sans-Serif" font-size="10.00">get.hpp</text>
</a>
</g>
</g>
<!-- Node5&#45;&gt;Node8 -->
<g id="edge7_Node000005_Node000008" class="edge">
<title>Node5&#45;&gt;Node8</title>
<g id="a_edge7_Node000005_Node000008"><a xlink:title=" ">
<path fill="none" stroke="#63b8ff" d="M2385.88,-133.61C2445.48,-123.97 2549.52,-106.46 2586.5,-96 2588.65,-95.39 2590.85,-94.71 2593.05,-93.97"/>
<polygon fill="#63b8ff" stroke="#63b8ff" points="2594.33,-97.23 2602.55,-90.54 2591.95,-90.64 2594.33,-97.23"/>
</a>
</g>
</g>
<!-- Node5&#45;&gt;Node9 -->
<g id="edge22_Node000005_Node000009" class="edge">
<title>Node5&#45;&gt;Node9</title>
<g id="a_edge22_Node000005_Node000009"><a xlink:title=" ">
<path fill="none" stroke="#63b8ff" d="M2385.75,-134.01C2390.39,-133.32 2395.04,-132.64 2399.5,-132 2514.09,-115.46 2549.5,-137.71 2657.5,-96 2679.58,-87.47 2681.22,-78.2 2701.5,-66 2723.91,-52.52 2750.29,-38.8 2769.56,-29.15"/>
<polygon fill="#63b8ff" stroke="#63b8ff" points="2771.26,-32.21 2778.66,-24.63 2768.15,-25.94 2771.26,-32.21"/>
</a>
</g>
</g>
<!-- Node11 -->
<g id="Node000011" class="node">
<title>Node11</title>
<g id="a_Node000011"><a xlink:href="array_8hpp.html" target="_top" xlink:title=" ">
<polygon fill="white" stroke="#666666" points="2295,-90.5 2170,-90.5 2170,-71.5 2295,-71.5 2295,-90.5"/>
<text text-anchor="middle" x="2232.5" y="-78.5" font-family="Helvetica,sans-Serif" font-size="10.00">serialization/array.hpp</text>
</a>
</g>
</g>
<!-- Node5&#45;&gt;Node11 -->
<g id="edge10_Node000005_Node000011" class="edge">
<title>Node5&#45;&gt;Node11</title>
<g id="a_edge10_Node000005_Node000011"><a xlink:title=" ">
<path fill="none" stroke="#63b8ff" d="M2326.27,-131.87C2308.23,-122.28 2278.88,-106.67 2257.82,-95.47"/>
<polygon fill="#63b8ff" stroke="#63b8ff" points="2259.27,-92.27 2248.8,-90.67 2255.98,-98.45 2259.27,-92.27"/>
</a>
</g>
</g>
<!-- Node20 -->
<g id="Node000020" class="node">
<title>Node20</title>
<g id="a_Node000020"><a xlink:title=" ">
<polygon fill="#e0e0e0" stroke="#999999" points="2420,-96 2313,-96 2313,-66 2420,-66 2420,-96"/>
<text text-anchor="start" x="2321" y="-84" font-family="Helvetica,sans-Serif" font-size="10.00">boost/serialization</text>
<text text-anchor="middle" x="2366.5" y="-73" font-family="Helvetica,sans-Serif" font-size="10.00">/access.hpp</text>
</a>
</g>
</g>
<!-- Node5&#45;&gt;Node20 -->
<g id="edge20_Node000005_Node000020" class="edge">
<title>Node5&#45;&gt;Node20</title>
<g id="a_edge20_Node000005_Node000020"><a xlink:title=" ">
<path fill="none" stroke="#63b8ff" d="M2346.04,-131.87C2348.91,-124.89 2353.08,-114.71 2356.91,-105.38"/>
<polygon fill="#63b8ff" stroke="#63b8ff" points="2360.15,-106.69 2360.71,-96.11 2353.68,-104.04 2360.15,-106.69"/>
</a>
</g>
</g>
<!-- Node5&#45;&gt;Node21 -->
<g id="edge23_Node000005_Node000021" class="edge">
<title>Node5&#45;&gt;Node21</title>
<g id="a_edge23_Node000005_Node000021"><a xlink:title=" ">
<path fill="none" stroke="#63b8ff" d="M2299.26,-133.93C2294.62,-133.26 2289.96,-132.6 2285.5,-132 2154.61,-114.26 2118.6,-128.19 1990.5,-96 1988.2,-95.42 1985.84,-94.73 1983.49,-93.98"/>
<polygon fill="#63b8ff" stroke="#63b8ff" points="1984.61,-90.66 1974.02,-90.61 1982.26,-97.26 1984.61,-90.66"/>
</a>
</g>
</g>
<!-- Node22 -->
<g id="Node000022" class="node">
<title>Node22</title>
<g id="a_Node000022"><a xlink:title=" ">
<polygon fill="#e0e0e0" stroke="#999999" points="2495,-90.5 2438,-90.5 2438,-71.5 2495,-71.5 2495,-90.5"/>
<text text-anchor="middle" x="2466.5" y="-78.5" font-family="Helvetica,sans-Serif" font-size="10.00">ostream</text>
</a>
</g>
</g>
<!-- Node5&#45;&gt;Node22 -->
<g id="edge24_Node000005_Node000022" class="edge">
<title>Node5&#45;&gt;Node22</title>
<g id="a_edge24_Node000005_Node000022"><a xlink:title=" ">
<path fill="none" stroke="#63b8ff" d="M2360.53,-131.99C2381.19,-122.25 2415.28,-106.16 2439.2,-94.88"/>
<polygon fill="#63b8ff" stroke="#63b8ff" points="2440.9,-97.95 2448.45,-90.52 2437.91,-91.62 2440.9,-97.95"/>
</a>
</g>
</g>
<!-- Node23 -->
<g id="Node000023" class="node">
<title>Node23</title>
<g id="a_Node000023"><a xlink:title=" ">
<polygon fill="#e0e0e0" stroke="#999999" points="2578,-90.5 2513,-90.5 2513,-71.5 2578,-71.5 2578,-90.5"/>
<text text-anchor="middle" x="2545.5" y="-78.5" font-family="Helvetica,sans-Serif" font-size="10.00">stdexcept</text>
</a>
</g>
</g>
<!-- Node5&#45;&gt;Node23 -->
<g id="edge25_Node000005_Node000023" class="edge">
<title>Node5&#45;&gt;Node23</title>
<g id="a_edge25_Node000005_Node000023"><a xlink:title=" ">
<path fill="none" stroke="#63b8ff" d="M2375.33,-131.96C2407.97,-123.35 2459.39,-109.44 2503.5,-96 2505.94,-95.26 2508.46,-94.47 2510.99,-93.66"/>
<polygon fill="#63b8ff" stroke="#63b8ff" points="2512.27,-96.93 2520.69,-90.51 2510.1,-90.27 2512.27,-96.93"/>
</a>
</g>
</g>
<!-- Node6&#45;&gt;Node7 -->
<g id="edge6_Node000006_Node000007" class="edge">
<title>Node6&#45;&gt;Node7</title>
<g id="a_edge6_Node000006_Node000007"><a xlink:title=" ">
<path fill="none" stroke="#63b8ff" d="M2019.42,-71.49C2009.72,-69.47 1999.25,-67.48 1989.5,-66 1823.97,-40.84 1777.21,-69.49 1614.5,-30 1612.19,-29.44 1609.84,-28.76 1607.49,-28"/>
<polygon fill="#63b8ff" stroke="#63b8ff" points="1608.66,-24.7 1598.07,-24.57 1606.27,-31.28 1608.66,-24.7"/>
</a>
</g>
</g>
<!-- Node8&#45;&gt;Node9 -->
<g id="edge8_Node000008_Node000009" class="edge">
<title>Node8&#45;&gt;Node9</title>
<g id="a_edge8_Node000008_Node000009"><a xlink:title=" ">
<path fill="none" stroke="#63b8ff" d="M2646.5,-71.5C2674.07,-61.68 2720.66,-44.96 2760.5,-30 2762.1,-29.4 2763.73,-28.78 2765.38,-28.15"/>
<polygon fill="#63b8ff" stroke="#63b8ff" points="2766.75,-31.38 2774.83,-24.52 2764.24,-24.84 2766.75,-31.38"/>
</a>
</g>
</g>
<!-- Node10 -->
<g id="Node000010" class="node">
<title>Node10</title>
<g id="a_Node000010"><a xlink:title=" ">
<polygon fill="#e0e0e0" stroke="#999999" points="2752,-24.5 2711,-24.5 2711,-5.5 2752,-5.5 2752,-24.5"/>
<text text-anchor="middle" x="2731.5" y="-12.5" font-family="Helvetica,sans-Serif" font-size="10.00">tuple</text>
</a>
</g>
</g>
<!-- Node8&#45;&gt;Node10 -->
<g id="edge9_Node000008_Node000010" class="edge">
<title>Node8&#45;&gt;Node10</title>
<g id="a_edge9_Node000008_Node000010"><a xlink:title=" ">
<path fill="none" stroke="#63b8ff" d="M2637.2,-71.37C2655.32,-60.73 2686.35,-42.51 2707.84,-29.89"/>
<polygon fill="#63b8ff" stroke="#63b8ff" points="2709.83,-32.78 2716.68,-24.7 2706.29,-26.74 2709.83,-32.78"/>
</a>
</g>
</g>
<!-- Node11&#45;&gt;Node9 -->
<g id="edge19_Node000011_Node000009" class="edge">
<title>Node11&#45;&gt;Node9</title>
<g id="a_edge19_Node000011_Node000009"><a xlink:title=" ">
<path fill="none" stroke="#63b8ff" d="M2271.42,-71.48C2281.81,-69.44 2293.04,-67.44 2303.5,-66 2505.34,-38.25 2561.88,-75.41 2760.5,-30 2762.87,-29.46 2765.29,-28.79 2767.71,-28.04"/>
<polygon fill="#63b8ff" stroke="#63b8ff" points="2769.13,-31.25 2777.4,-24.62 2766.8,-24.65 2769.13,-31.25"/>
</a>
</g>
</g>
<!-- Node12 -->
<g id="Node000012" class="node">
<title>Node12</title>
<g id="a_Node000012"><a xlink:title=" ">
<polygon fill="#e0e0e0" stroke="#999999" points="2693,-24.5 2560,-24.5 2560,-5.5 2693,-5.5 2693,-24.5"/>
<text text-anchor="middle" x="2626.5" y="-12.5" font-family="Helvetica,sans-Serif" font-size="10.00">boost/mpl/bool_fwd.hpp</text>
</a>
</g>
</g>
<!-- Node11&#45;&gt;Node12 -->
<g id="edge11_Node000011_Node000012" class="edge">
<title>Node11&#45;&gt;Node12</title>
<g id="a_edge11_Node000011_Node000012"><a xlink:title=" ">
<path fill="none" stroke="#63b8ff" d="M2274.11,-71.43C2283.74,-69.55 2293.96,-67.63 2303.5,-66 2412.84,-47.26 2441.04,-48.05 2550.5,-30 2557.26,-28.89 2564.35,-27.66 2571.36,-26.41"/>
<polygon fill="#63b8ff" stroke="#63b8ff" points="2572.32,-29.79 2581.54,-24.57 2571.08,-22.9 2572.32,-29.79"/>
</a>
</g>
</g>
<!-- Node13 -->
<g id="Node000013" class="node">
<title>Node13</title>
<g id="a_Node000013"><a xlink:title=" ">
<polygon fill="#e0e0e0" stroke="#999999" points="1747.5,-24.5 1623.5,-24.5 1623.5,-5.5 1747.5,-5.5 1747.5,-24.5"/>
<text text-anchor="middle" x="1685.5" y="-12.5" font-family="Helvetica,sans-Serif" font-size="10.00">boost/mpl/greater.hpp</text>
</a>
</g>
</g>
<!-- Node11&#45;&gt;Node13 -->
<g id="edge12_Node000011_Node000013" class="edge">
<title>Node11&#45;&gt;Node13</title>
<g id="a_edge12_Node000011_Node000013"><a xlink:title=" ">
<path fill="none" stroke="#63b8ff" d="M2189.44,-71.47C2178.41,-69.47 2166.54,-67.5 2155.5,-66 1979.06,-42.05 1932.75,-55.26 1756.5,-30 1749.4,-28.98 1741.94,-27.72 1734.63,-26.38"/>
<polygon fill="#63b8ff" stroke="#63b8ff" points="1735.29,-22.94 1724.81,-24.51 1733.98,-29.82 1735.29,-22.94"/>
</a>
</g>
</g>
<!-- Node14 -->
<g id="Node000014" class="node">
<title>Node14</title>
<g id="a_Node000014"><a xlink:title=" ">
<polygon fill="#e0e0e0" stroke="#999999" points="1867.5,-24.5 1765.5,-24.5 1765.5,-5.5 1867.5,-5.5 1867.5,-24.5"/>
<text text-anchor="middle" x="1816.5" y="-12.5" font-family="Helvetica,sans-Serif" font-size="10.00">boost/mpl/int.hpp</text>
</a>
</g>
</g>
<!-- Node11&#45;&gt;Node14 -->
<g id="edge13_Node000011_Node000014" class="edge">
<title>Node11&#45;&gt;Node14</title>
<g id="a_edge13_Node000011_Node000014"><a xlink:title=" ">
<path fill="none" stroke="#63b8ff" d="M2187.78,-71.47C2177.21,-69.56 2165.97,-67.63 2155.5,-66 2031.95,-46.81 1999.54,-52.23 1876.5,-30 1871.17,-29.04 1865.6,-27.91 1860.1,-26.71"/>
<polygon fill="#63b8ff" stroke="#63b8ff" points="1860.85,-23.3 1850.33,-24.52 1859.32,-30.13 1860.85,-23.3"/>
</a>
</g>
</g>
<!-- Node15 -->
<g id="Node000015" class="node">
<title>Node15</title>
<g id="a_Node000015"><a xlink:title=" ">
<polygon fill="#e0e0e0" stroke="#999999" points="1991.5,-30 1885.5,-30 1885.5,0 1991.5,0 1991.5,-30"/>
<text text-anchor="start" x="1893.5" y="-18" font-family="Helvetica,sans-Serif" font-size="10.00">boost/mpl/integral</text>
<text text-anchor="middle" x="1938.5" y="-7" font-family="Helvetica,sans-Serif" font-size="10.00">_c_tag.hpp</text>
</a>
</g>
</g>
<!-- Node11&#45;&gt;Node15 -->
<g id="edge14_Node000011_Node000015" class="edge">
<title>Node11&#45;&gt;Node15</title>
<g id="a_edge14_Node000011_Node000015"><a xlink:title=" ">
<path fill="none" stroke="#63b8ff" d="M2192.24,-71.45C2147.94,-62.01 2074.36,-46.25 2001.41,-30.19"/>
<polygon fill="#63b8ff" stroke="#63b8ff" points="2002.11,-26.76 1991.59,-28.02 2000.6,-33.6 2002.11,-26.76"/>
</a>
</g>
</g>
<!-- Node16 -->
<g id="Node000016" class="node">
<title>Node16</title>
<g id="a_Node000016"><a xlink:title=" ">
<polygon fill="#e0e0e0" stroke="#999999" points="2161,-30 2010,-30 2010,0 2161,0 2161,-30"/>
<text text-anchor="start" x="2018" y="-18" font-family="Helvetica,sans-Serif" font-size="10.00">boost/serialization</text>
<text text-anchor="middle" x="2085.5" y="-7" font-family="Helvetica,sans-Serif" font-size="10.00">/is_bitwise_serializable.hpp</text>
</a>
</g>
</g>
<!-- Node11&#45;&gt;Node16 -->
<g id="edge15_Node000011_Node000016" class="edge">
<title>Node11&#45;&gt;Node16</title>
<g id="a_edge15_Node000011_Node000016"><a xlink:title=" ">
<path fill="none" stroke="#63b8ff" d="M2212.67,-71.37C2190.85,-61.87 2155.14,-46.32 2127.1,-34.11"/>
<polygon fill="#63b8ff" stroke="#63b8ff" points="2128.49,-30.9 2117.92,-30.12 2125.69,-37.32 2128.49,-30.9"/>
</a>
</g>
</g>
<!-- Node17 -->
<g id="Node000017" class="node">
<title>Node17</title>
<g id="a_Node000017"><a xlink:title=" ">
<polygon fill="#e0e0e0" stroke="#999999" points="2286,-30 2179,-30 2179,0 2286,0 2286,-30"/>
<text text-anchor="start" x="2187" y="-18" font-family="Helvetica,sans-Serif" font-size="10.00">boost/serialization</text>
<text text-anchor="middle" x="2232.5" y="-7" font-family="Helvetica,sans-Serif" font-size="10.00">/level.hpp</text>
</a>
</g>
</g>
<!-- Node11&#45;&gt;Node17 -->
<g id="edge16_Node000011_Node000017" class="edge">
<title>Node11&#45;&gt;Node17</title>
<g id="a_edge16_Node000011_Node000017"><a xlink:title=" ">
<path fill="none" stroke="#63b8ff" d="M2232.5,-71.37C2232.5,-63.49 2232.5,-51.45 2232.5,-40.6"/>
<polygon fill="#63b8ff" stroke="#63b8ff" points="2236,-40.36 2232.5,-30.36 2229,-40.36 2236,-40.36"/>
</a>
</g>
</g>
<!-- Node18 -->
<g id="Node000018" class="node">
<title>Node18</title>
<g id="a_Node000018"><a xlink:title=" ">
<polygon fill="#e0e0e0" stroke="#999999" points="2411,-30 2304,-30 2304,0 2411,0 2411,-30"/>
<text text-anchor="start" x="2312" y="-18" font-family="Helvetica,sans-Serif" font-size="10.00">boost/serialization</text>
<text text-anchor="middle" x="2357.5" y="-7" font-family="Helvetica,sans-Serif" font-size="10.00">/tracking.hpp</text>
</a>
</g>
</g>
<!-- Node11&#45;&gt;Node18 -->
<g id="edge17_Node000011_Node000018" class="edge">
<title>Node11&#45;&gt;Node18</title>
<g id="a_edge17_Node000011_Node000018"><a xlink:title=" ">
<path fill="none" stroke="#63b8ff" d="M2249.36,-71.37C2267.6,-62.03 2297.23,-46.86 2320.87,-34.75"/>
<polygon fill="#63b8ff" stroke="#63b8ff" points="2322.62,-37.79 2329.93,-30.12 2319.43,-31.56 2322.62,-37.79"/>
</a>
</g>
</g>
<!-- Node19 -->
<g id="Node000019" class="node">
<title>Node19</title>
<g id="a_Node000019"><a xlink:title=" ">
<polygon fill="#e0e0e0" stroke="#999999" points="2542,-30 2429,-30 2429,0 2542,0 2542,-30"/>
<text text-anchor="start" x="2437" y="-18" font-family="Helvetica,sans-Serif" font-size="10.00">boost/serialization</text>
<text text-anchor="middle" x="2485.5" y="-7" font-family="Helvetica,sans-Serif" font-size="10.00">/tracking_enum.hpp</text>
</a>
</g>
</g>
<!-- Node11&#45;&gt;Node19 -->
<g id="edge18_Node000011_Node000019" class="edge">
<title>Node11&#45;&gt;Node19</title>
<g id="a_edge18_Node000011_Node000019"><a xlink:title=" ">
<path fill="none" stroke="#63b8ff" d="M2266.36,-71.44C2305.53,-61.52 2370.95,-44.98 2420.14,-32.53"/>
<polygon fill="#63b8ff" stroke="#63b8ff" points="2421.22,-35.87 2430.06,-30.02 2419.51,-29.08 2421.22,-35.87"/>
</a>
</g>
</g>
<!-- Node32&#45;&gt;Node2 -->
<g id="edge39_Node000032_Node000002" class="edge">
<title>Node32&#45;&gt;Node2</title>
<g id="a_edge39_Node000032_Node000002"><a xlink:title=" ">
<path fill="none" stroke="#63b8ff" d="M1939.55,-247.72C2048.14,-241.21 2324.62,-224.18 2555.5,-206 2567.62,-205.05 2580.62,-203.93 2592.96,-202.83"/>
<polygon fill="#63b8ff" stroke="#63b8ff" points="2593.5,-206.29 2603.14,-201.91 2592.87,-199.32 2593.5,-206.29"/>
</a>
</g>
</g>
<!-- Node32&#45;&gt;Node3 -->
<g id="edge54_Node000032_Node000003" class="edge">
<title>Node32&#45;&gt;Node3</title>
<g id="a_edge54_Node000032_Node000003"><a xlink:title=" ">
<path fill="none" stroke="#63b8ff" d="M1939.91,-249.69C1982.53,-246.81 2045.09,-237.03 2089.5,-206 2105.6,-194.75 2116.89,-174.95 2123.49,-160.44"/>
<polygon fill="#63b8ff" stroke="#63b8ff" points="2126.81,-161.59 2127.47,-151.01 2120.36,-158.86 2126.81,-161.59"/>
</a>
</g>
</g>
<!-- Node32&#45;&gt;Node5 -->
<g id="edge38_Node000032_Node000005" class="edge">
<title>Node32&#45;&gt;Node5</title>
<g id="a_edge38_Node000032_Node000005"><a xlink:title=" ">
<path fill="none" stroke="#63b8ff" d="M1939.71,-242.01C1984.6,-233.7 2053.93,-220.24 2113.5,-206 2181.21,-189.82 2259.15,-167.38 2304.42,-153.96"/>
<polygon fill="#63b8ff" stroke="#63b8ff" points="2305.52,-157.29 2314.11,-151.08 2303.53,-150.58 2305.52,-157.29"/>
</a>
</g>
</g>
<!-- Node32&#45;&gt;Node7 -->
<g id="edge45_Node000032_Node000007" class="edge">
<title>Node32&#45;&gt;Node7</title>
<g id="a_edge45_Node000032_Node000007"><a xlink:title=" ">
<path fill="none" stroke="#63b8ff" d="M1901.92,-241.97C1914.53,-229.47 1934.05,-205.66 1922.5,-187 1904.28,-157.56 1689.03,-62.99 1609.12,-28.63"/>
<polygon fill="#63b8ff" stroke="#63b8ff" points="1610.2,-25.29 1599.63,-24.56 1607.44,-31.72 1610.2,-25.29"/>
</a>
</g>
</g>
<!-- Node32&#45;&gt;Node9 -->
<g id="edge46_Node000032_Node000009" class="edge">
<title>Node32&#45;&gt;Node9</title>
<g id="a_edge46_Node000032_Node000009"><a xlink:title=" ">
<path fill="none" stroke="#63b8ff" d="M1939.51,-243.76C1993.52,-235.79 2084.71,-221.61 2162.5,-206 2266.4,-185.15 2294.89,-187.16 2394.5,-151 2412.25,-144.56 2414.46,-137.59 2432.5,-132 2544.36,-97.36 2586.38,-143.31 2693.5,-96 2712.55,-87.59 2713.15,-78.9 2729.5,-66 2745.02,-53.76 2762.98,-40.39 2776.4,-30.56"/>
<polygon fill="#63b8ff" stroke="#63b8ff" points="2778.48,-33.38 2784.49,-24.66 2774.35,-27.73 2778.48,-33.38"/>
</a>
</g>
</g>
<!-- Node32&#45;&gt;Node24 -->
<g id="edge43_Node000032_Node000024" class="edge">
<title>Node32&#45;&gt;Node24</title>
<g id="a_edge43_Node000032_Node000024"><a xlink:title=" ">
<path fill="none" stroke="#63b8ff" d="M1939.76,-249.43C2064.83,-246.27 2414.79,-235.29 2704.5,-206 2870.78,-189.19 2911.87,-179.81 3076.5,-151 3076.6,-150.98 3076.7,-150.96 3076.8,-150.95"/>
<polygon fill="#63b8ff" stroke="#63b8ff" points="3077.23,-154.43 3086.43,-149.17 3075.96,-147.54 3077.23,-154.43"/>
</a>
</g>
</g>
<!-- Node32&#45;&gt;Node30 -->
<g id="edge47_Node000032_Node000030" class="edge">
<title>Node32&#45;&gt;Node30</title>
<g id="a_edge47_Node000032_Node000030"><a xlink:title=" ">
<path fill="none" stroke="#63b8ff" d="M1939.66,-245.38C1987.35,-239.13 2056.28,-226.72 2072.5,-206 2087.98,-186.22 2059.74,-167.22 2034.85,-155.24"/>
<polygon fill="#63b8ff" stroke="#63b8ff" points="2036.13,-151.97 2025.58,-151.01 2033.22,-158.34 2036.13,-151.97"/>
</a>
</g>
</g>
<!-- Node33 -->
<g id="Node000033" class="node">
<title>Node33</title>
<g id="a_Node000033"><a xlink:href="flatten_8hpp.html" target="_top" xlink:title=" ">
<polygon fill="white" stroke="#666666" points="2064,-206 1971,-206 1971,-187 2064,-187 2064,-206"/>
<text text-anchor="middle" x="2017.5" y="-194" font-family="Helvetica,sans-Serif" font-size="10.00">utils/flatten.hpp</text>
</a>
</g>
</g>
<!-- Node32&#45;&gt;Node33 -->
<g id="edge40_Node000032_Node000033" class="edge">
<title>Node32&#45;&gt;Node33</title>
<g id="a_edge40_Node000032_Node000033"><a xlink:title=" ">
<path fill="none" stroke="#63b8ff" d="M1912.58,-241.98C1932.87,-233.38 1964.46,-219.99 1987.67,-210.15"/>
<polygon fill="#63b8ff" stroke="#63b8ff" points="1989.21,-213.3 1997.05,-206.17 1986.48,-206.85 1989.21,-213.3"/>
</a>
</g>
</g>
<!-- Node34 -->
<g id="Node000034" class="node">
<title>Node34</title>
<g id="a_Node000034"><a xlink:title=" ">
<polygon fill="#e0e0e0" stroke="#999999" points="2483.5,-206 2441.5,-206 2441.5,-187 2483.5,-187 2483.5,-206"/>
<text text-anchor="middle" x="2462.5" y="-194" font-family="Helvetica,sans-Serif" font-size="10.00">array</text>
</a>
</g>
</g>
<!-- Node32&#45;&gt;Node34 -->
<g id="edge44_Node000032_Node000034" class="edge">
<title>Node32&#45;&gt;Node34</title>
<g id="a_edge44_Node000032_Node000034"><a xlink:title=" ">
<path fill="none" stroke="#63b8ff" d="M1939.67,-249.04C2033.25,-245.59 2248.78,-234.95 2427.5,-206 2428.75,-205.8 2430.02,-205.57 2431.3,-205.33"/>
<polygon fill="#63b8ff" stroke="#63b8ff" points="2432.08,-208.75 2441.14,-203.25 2430.63,-201.9 2432.08,-208.75"/>
</a>
</g>
</g>
<!-- Node35 -->
<g id="Node000035" class="node">
<title>Node35</title>
<g id="a_Node000035"><a xlink:title=" ">
<polygon fill="#e0e0e0" stroke="#999999" points="2547,-206 2502,-206 2502,-187 2547,-187 2547,-206"/>
<text text-anchor="middle" x="2524.5" y="-194" font-family="Helvetica,sans-Serif" font-size="10.00">utility</text>
</a>
</g>
</g>
<!-- Node32&#45;&gt;Node35 -->
<g id="edge48_Node000032_Node000035" class="edge">
<title>Node32&#45;&gt;Node35</title>
<g id="a_edge48_Node000032_Node000035"><a xlink:title=" ">
<path fill="none" stroke="#63b8ff" d="M1939.53,-249.97C2039.58,-248.21 2280.86,-240.59 2491.86,-205.74"/>
<polygon fill="#63b8ff" stroke="#63b8ff" points="2492.6,-209.17 2501.89,-204.06 2491.45,-202.26 2492.6,-209.17"/>
</a>
</g>
</g>
<!-- Node36 -->
<g id="Node000036" class="node">
<title>Node36</title>
<g id="a_Node000036"><a xlink:title=" ">
<polygon fill="#e0e0e0" stroke="#999999" points="169,-206 0,-206 0,-187 169,-187 169,-206"/>
<text text-anchor="middle" x="84.5" y="-194" font-family="Helvetica,sans-Serif" font-size="10.00">boost/qvm/mat_operations.hpp</text>
</a>
</g>
</g>
<!-- Node32&#45;&gt;Node36 -->
<g id="edge49_Node000032_Node000036" class="edge">
<title>Node32&#45;&gt;Node36</title>
<g id="a_edge49_Node000032_Node000036"><a xlink:title=" ">
<path fill="none" stroke="#63b8ff" d="M1845.39,-250.4C1645.38,-249.76 846.57,-244.78 179.43,-206.07"/>
<polygon fill="#63b8ff" stroke="#63b8ff" points="179.32,-202.56 169.13,-205.47 178.91,-209.55 179.32,-202.56"/>
</a>
</g>
</g>
<!-- Node37 -->
<g id="Node000037" class="node">
<title>Node37</title>
<g id="a_Node000037"><a xlink:title=" ">
<polygon fill="#e0e0e0" stroke="#999999" points="378,-206 187,-206 187,-187 378,-187 378,-206"/>
<text text-anchor="middle" x="282.5" y="-194" font-family="Helvetica,sans-Serif" font-size="10.00">boost/qvm/vec_mat_operations.hpp</text>
</a>
</g>
</g>
<!-- Node32&#45;&gt;Node37 -->
<g id="edge50_Node000032_Node000037" class="edge">
<title>Node32&#45;&gt;Node37</title>
<g id="a_edge50_Node000032_Node000037"><a xlink:title=" ">
<path fill="none" stroke="#63b8ff" d="M1845.3,-250C1660.61,-247.85 968.92,-238.04 388.51,-206.08"/>
<polygon fill="#63b8ff" stroke="#63b8ff" points="388.44,-202.57 378.26,-205.51 388.05,-209.56 388.44,-202.57"/>
</a>
</g>
</g>
<!-- Node38 -->
<g id="Node000038" class="node">
<title>Node38</title>
<g id="a_Node000038"><a xlink:title=" ">
<polygon fill="#e0e0e0" stroke="#999999" points="563,-206 396,-206 396,-187 563,-187 563,-206"/>
<text text-anchor="middle" x="479.5" y="-194" font-family="Helvetica,sans-Serif" font-size="10.00">boost/qvm/vec_operations.hpp</text>
</a>
</g>
</g>
<!-- Node32&#45;&gt;Node38 -->
<g id="edge51_Node000032_Node000038" class="edge">
<title>Node32&#45;&gt;Node38</title>
<g id="a_edge51_Node000032_Node000038"><a xlink:title=" ">
<path fill="none" stroke="#63b8ff" d="M1845.39,-249.89C1675.47,-247.48 1077.91,-237.23 573.17,-206"/>
<polygon fill="#63b8ff" stroke="#63b8ff" points="573.33,-202.5 563.13,-205.37 572.9,-209.49 573.33,-202.5"/>
</a>
</g>
</g>
<!-- Node39 -->
<g id="Node000039" class="node">
<title>Node39</title>
<g id="a_Node000039"><a xlink:title=" ">
<polygon fill="#e0e0e0" stroke="#999999" points="733.5,-206 581.5,-206 581.5,-187 733.5,-187 733.5,-206"/>
<text text-anchor="middle" x="657.5" y="-194" font-family="Helvetica,sans-Serif" font-size="10.00">boost/qvm/deduce_mat.hpp</text>
</a>
</g>
</g>
<!-- Node32&#45;&gt;Node39 -->
<g id="edge52_Node000032_Node000039" class="edge">
<title>Node32&#45;&gt;Node39</title>
<g id="a_edge52_Node000032_Node000039"><a xlink:title=" ">
<path fill="none" stroke="#63b8ff" d="M1845.34,-249.71C1689.72,-246.87 1178.13,-235.8 744.17,-206.07"/>
<polygon fill="#63b8ff" stroke="#63b8ff" points="744.15,-202.56 733.94,-205.37 743.67,-209.55 744.15,-202.56"/>
</a>
</g>
</g>
<!-- Node40 -->
<g id="Node000040" class="node">
<title>Node40</title>
<g id="a_Node000040"><a xlink:title=" ">
<polygon fill="#e0e0e0" stroke="#999999" points="913,-206 752,-206 752,-187 913,-187 913,-206"/>
<text text-anchor="middle" x="832.5" y="-194" font-family="Helvetica,sans-Serif" font-size="10.00">boost/qvm/deduce_scalar.hpp</text>
</a>
</g>
</g>
<!-- Node32&#45;&gt;Node40 -->
<g id="edge53_Node000032_Node000040" class="edge">
<title>Node32&#45;&gt;Node40</title>
<g id="a_edge53_Node000032_Node000040"><a xlink:title=" ">
<path fill="none" stroke="#63b8ff" d="M1845.26,-249.14C1705.98,-244.97 1284.62,-231.1 923.56,-206.04"/>
<polygon fill="#63b8ff" stroke="#63b8ff" points="923.66,-202.54 913.44,-205.33 923.17,-209.52 923.66,-202.54"/>
</a>
</g>
</g>
<!-- Node41 -->
<g id="Node000041" class="node">
<title>Node41</title>
<g id="a_Node000041"><a xlink:title=" ">
<polygon fill="#e0e0e0" stroke="#999999" points="1095.5,-206 931.5,-206 931.5,-187 1095.5,-187 1095.5,-206"/>
<text text-anchor="middle" x="1013.5" y="-194" font-family="Helvetica,sans-Serif" font-size="10.00">boost/qvm/map_mat_mat.hpp</text>
</a>
</g>
</g>
<!-- Node32&#45;&gt;Node41 -->
<g id="edge55_Node000032_Node000041" class="edge">
<title>Node32&#45;&gt;Node41</title>
<g id="a_edge55_Node000032_Node000041"><a xlink:title=" ">
<path fill="none" stroke="#63b8ff" d="M1845.39,-248.44C1724.49,-243.04 1393.18,-227.41 1106.02,-206.09"/>
<polygon fill="#63b8ff" stroke="#63b8ff" points="1106.06,-202.58 1095.83,-205.33 1105.54,-209.56 1106.06,-202.58"/>
</a>
</g>
</g>
<!-- Node42 -->
<g id="Node000042" class="node">
<title>Node42</title>
<g id="a_Node000042"><a xlink:title=" ">
<polygon fill="#e0e0e0" stroke="#999999" points="1275,-206 1114,-206 1114,-187 1275,-187 1275,-206"/>
<text text-anchor="middle" x="1194.5" y="-194" font-family="Helvetica,sans-Serif" font-size="10.00">boost/qvm/map_mat_vec.hpp</text>
</a>
</g>
</g>
<!-- Node32&#45;&gt;Node42 -->
<g id="edge56_Node000032_Node000042" class="edge">
<title>Node32&#45;&gt;Node42</title>
<g id="a_edge56_Node000032_Node000042"><a xlink:title=" ">
<path fill="none" stroke="#63b8ff" d="M1845.48,-247.42C1744.81,-240.76 1500.71,-224.18 1285.26,-206.13"/>
<polygon fill="#63b8ff" stroke="#63b8ff" points="1285.28,-202.62 1275.02,-205.27 1284.69,-209.6 1285.28,-202.62"/>
</a>
</g>
</g>
<!-- Node43 -->
<g id="Node000043" class="node">
<title>Node43</title>
<g id="a_Node000043"><a xlink:title=" ">
<polygon fill="#e0e0e0" stroke="#999999" points="1454,-206 1293,-206 1293,-187 1454,-187 1454,-206"/>
<text text-anchor="middle" x="1373.5" y="-194" font-family="Helvetica,sans-Serif" font-size="10.00">boost/qvm/map_vec_mat.hpp</text>
</a>
</g>
</g>
<!-- Node32&#45;&gt;Node43 -->
<g id="edge57_Node000032_Node000043" class="edge">
<title>Node32&#45;&gt;Node43</title>
<g id="a_edge57_Node000032_Node000043"><a xlink:title=" ">
<path fill="none" stroke="#63b8ff" d="M1845.07,-245.66C1758.92,-236.86 1575.43,-218.12 1464.45,-206.79"/>
<polygon fill="#63b8ff" stroke="#63b8ff" points="1464.57,-203.28 1454.27,-205.75 1463.86,-210.25 1464.57,-203.28"/>
</a>
</g>
</g>
<!-- Node44 -->
<g id="Node000044" class="node">
<title>Node44</title>
<g id="a_Node000044"><a xlink:title=" ">
<polygon fill="#e0e0e0" stroke="#999999" points="1584.5,-206 1472.5,-206 1472.5,-187 1584.5,-187 1584.5,-206"/>
<text text-anchor="middle" x="1528.5" y="-194" font-family="Helvetica,sans-Serif" font-size="10.00">boost/qvm/mat.hpp</text>
</a>
</g>
</g>
<!-- Node32&#45;&gt;Node44 -->
<g id="edge58_Node000032_Node000044" class="edge">
<title>Node32&#45;&gt;Node44</title>
<g id="a_edge58_Node000032_Node000044"><a xlink:title=" ">
<path fill="none" stroke="#63b8ff" d="M1845.29,-243.63C1781.35,-234.32 1666.93,-217.66 1594.51,-207.11"/>
<polygon fill="#63b8ff" stroke="#63b8ff" points="1594.98,-203.64 1584.58,-205.67 1593.97,-210.57 1594.98,-203.64"/>
</a>
</g>
</g>
<!-- Node45 -->
<g id="Node000045" class="node">
<title>Node45</title>
<g id="a_Node000045"><a xlink:title=" ">
<polygon fill="#e0e0e0" stroke="#999999" points="1752.5,-206 1602.5,-206 1602.5,-187 1752.5,-187 1752.5,-206"/>
<text text-anchor="middle" x="1677.5" y="-194" font-family="Helvetica,sans-Serif" font-size="10.00">boost/qvm/mat_access.hpp</text>
</a>
</g>
</g>
<!-- Node32&#45;&gt;Node45 -->
<g id="edge59_Node000032_Node000045" class="edge">
<title>Node32&#45;&gt;Node45</title>
<g id="a_edge59_Node000032_Node000045"><a xlink:title=" ">
<path fill="none" stroke="#63b8ff" d="M1857.96,-241.98C1821.08,-232.89 1762.51,-218.46 1722.16,-208.51"/>
<polygon fill="#63b8ff" stroke="#63b8ff" points="1722.86,-205.08 1712.31,-206.08 1721.19,-211.87 1722.86,-205.08"/>
</a>
</g>
</g>
<!-- Node46 -->
<g id="Node000046" class="node">
<title>Node46</title>
<g id="a_Node000046"><a xlink:title=" ">
<polygon fill="#e0e0e0" stroke="#999999" points="1914,-206 1771,-206 1771,-187 1914,-187 1914,-206"/>
<text text-anchor="middle" x="1842.5" y="-194" font-family="Helvetica,sans-Serif" font-size="10.00">boost/qvm/mat_traits.hpp</text>
</a>
</g>
</g>
<!-- Node32&#45;&gt;Node46 -->
<g id="edge60_Node000032_Node000046" class="edge">
<title>Node32&#45;&gt;Node46</title>
<g id="a_edge60_Node000032_Node000046"><a xlink:title=" ">
<path fill="none" stroke="#63b8ff" d="M1884.24,-241.75C1877.04,-234.11 1866.39,-222.82 1857.65,-213.56"/>
<polygon fill="#63b8ff" stroke="#63b8ff" points="1860.01,-210.96 1850.6,-206.09 1854.92,-215.76 1860.01,-210.96"/>
</a>
</g>
</g>
<!-- Node33&#45;&gt;Node21 -->
<g id="edge41_Node000033_Node000021" class="edge">
<title>Node33&#45;&gt;Node21</title>
<g id="a_edge41_Node000033_Node000021"><a xlink:title=" ">
<path fill="none" stroke="#63b8ff" d="M1999.45,-186.95C1985.92,-179.49 1968.29,-167.31 1959.5,-151 1951.23,-135.65 1950.73,-115.52 1951.85,-100.96"/>
<polygon fill="#63b8ff" stroke="#63b8ff" points="1955.36,-101.01 1952.98,-90.69 1948.41,-100.25 1955.36,-101.01"/>
</a>
</g>
</g>
<!-- Node33&#45;&gt;Node30 -->
<g id="edge42_Node000033_Node000030" class="edge">
<title>Node33&#45;&gt;Node30</title>
<g id="a_edge42_Node000033_Node000030"><a xlink:title=" ">
<path fill="none" stroke="#63b8ff" d="M2015.19,-186.75C2013.33,-179.72 2010.66,-169.62 2008.35,-160.84"/>
<polygon fill="#63b8ff" stroke="#63b8ff" points="2011.71,-159.86 2005.77,-151.09 2004.94,-161.65 2011.71,-159.86"/>
</a>
</g>
</g>
</g>
</svg>

<g id="navigator" transform="translate(0 0)" fill="#404254">
  <rect fill="#f2f5e9" fill-opacity="0.5" stroke="#606060" stroke-width=".5" x="0" y="0" width="60" height="60"/>
  <use id="zoomplus" xlink:href="#zoomPlus" x="17" y="9" onmousedown="handleZoom(evt,'in')"/>
  <use id="zoomminus" xlink:href="#zoomMin" x="42" y="9" onmousedown="handleZoom(evt,'out')"/>
  <use id="reset" xlink:href="#resetDef" x="30" y="36" onmousedown="handleReset()"/>
   <use id="arrowup" xlink:href="#arrowUp" x="0" y="0" onmousedown="handlePan(0,-1)"/>
  <use id="arrowright" xlink:href="#arrowRight" x="0" y="0" onmousedown="handlePan(1,0)"/>
  <use id="arrowdown" xlink:href="#arrowDown" x="0" y="0" onmousedown="handlePan(0,1)"/>
  <use id="arrowleft" xlink:href="#arrowLeft" x="0" y="0" onmousedown="handlePan(-1,0)"/>
</g>
<svg viewBox="0 0 15 15" width="100%" height="30px" preserveAspectRatio="xMaxYMin meet">
 <g id="arrow_out" transform="scale(0.3 0.3)">
  <a xlink:href="tensor__product_8hpp__incl_org.svg" target="_base">
   <rect id="button" ry="5" rx="5" y="6" x="6" height="38" width="38"
        fill="#f2f5e9" fill-opacity="0.5" stroke="#606060" stroke-width="1.0"/>
   <path id="arrow"
     d="M 11.500037,31.436501 C 11.940474,20.09759 22.043105,11.32322 32.158766,21.979434 L 37.068811,17.246167 C 37.068811,17.246167 37.088388,32 37.088388,32 L 22.160133,31.978069 C 22.160133,31.978069 26.997745,27.140456 26.997745,27.140456 C 18.528582,18.264221 13.291696,25.230495 11.500037,31.436501 z"
     style="fill:#404040;"/>
  </a>
 </g>
</svg>

<style type='text/css'>
<![CDATA[
[data-mouse-over-selected='false'] { opacity: 0.7; }
[data-mouse-over-selected='true']  { opacity: 1.0; }
]]>
</style>
<script type="application/ecmascript"><![CDATA[
document.addEventListener('DOMContentLoaded', (event) => {
  highlightEdges();
  highlightAdjacentNodes();
});
]]></script>
</svg>
