<?xml version="1.0" encoding="UTF-8" standalone="no"?>
<!DOCTYPE svg PUBLIC "-//W3C//DTD SVG 1.1//EN"
 "http://www.w3.org/Graphics/SVG/1.1/DTD/svg11.dtd">
<!-- Generated by graphviz version 2.43.0 (0)
 -->
<!-- Title: tensor_product.hpp Pages: 1 -->
<!--zoomable 324 -->

<svg id="main" version="1.1" xmlns="http://www.w3.org/2000/svg" xmlns:xlink="http://www.w3.org/1999/xlink" xml:space="preserve" onload="init(evt)">
<style type="text/css"><![CDATA[
.node, .edge {opacity: 0.7;}
.node.selected, .edge.selected {opacity: 1;}
.edge:hover path { stroke: red; }
.edge:hover polygon { stroke: red; fill: red; }
]]></style>

<defs>
  <circle id="rim" cx="0" cy="0" r="7"/>
  <circle id="rim2" cx="0" cy="0" r="3.5"/>
  <g id="zoomPlus">
    <use xlink:href="#rim" fill="#404040"><set attributeName="fill" to="#808080" begin="zoomplus.mouseover" end="zoomplus.mouseout"/></use>
    <path d="M-4,0h8M0,-4v8" fill="none" stroke="white" stroke-width="1.5" pointer-events="none"/>
  </g>
  <g id="zoomMin">
    <use xlink:href="#rim" fill="#404040"><set attributeName="fill" to="#808080" begin="zoomminus.mouseover" end="zoomminus.mouseout"/></use>
    <path d="M-4,0h8" fill="none" stroke="white" stroke-width="1.5" pointer-events="none"/>
  </g>
  <g id="arrowUp" transform="translate(30 24)">
    <use xlink:href="#rim"/>
    <path pointer-events="none" fill="none" stroke="white" stroke-width="1.5" d="M0,-3.0v7 M-2.5,-0.5L0,-3.0L2.5,-0.5"/>
  </g>
  <g id="arrowRight" transform="rotate(90) translate(36 -43)">
    <use xlink:href="#rim"/>
    <path pointer-events="none" fill="none" stroke="white" stroke-width="1.5" d="M0,-3.0v7 M-2.5,-0.5L0,-3.0L2.5,-0.5"/>
  </g>
  <g id="arrowDown" transform="rotate(180) translate(-30 -48)">
    <use xlink:href="#rim"/>
    <path pointer-events="none" fill="none" stroke="white" stroke-width="1.5" d="M0,-3.0v7 M-2.5,-0.5L0,-3.0L2.5,-0.5"/>
  </g>
  <g id="arrowLeft" transform="rotate(270) translate(-36 17)">
    <use xlink:href="#rim"/>
    <path pointer-events="none" fill="none" stroke="white" stroke-width="1.5" d="M0,-3.0v7 M-2.5,-0.5L0,-3.0L2.5,-0.5"/>
  </g>
  <g id="resetDef">
    <use xlink:href="#rim2" fill="#404040"><set attributeName="fill" to="#808080" begin="reset.mouseover" end="reset.mouseout"/></use>
  </g>
</defs>
<script type="application/ecmascript">
var viewWidth = 3969;
var viewHeight = 324;
var sectionId = 'dynsection-0';
</script>
<script type="application/ecmascript" xlink:href="svg.min.js"/>
<svg id="graph" class="graph">
<g id="viewport">
<title>tensor_product.hpp</title>
<!-- Node1 -->
<g id="Node000001" class="node">
<title>Node1</title>
<g id="a_Node000001"><a xlink:title=" ">
<polygon fill="#999999" stroke="#666666" points="1537.5,-316 1427.5,-316 1427.5,-297 1537.5,-297 1537.5,-316"/>
<text text-anchor="middle" x="1482.5" y="-304" font-family="Helvetica,sans-Serif" font-size="10.00">tensor_product.hpp</text>
</a>
</g>
</g>
<!-- Node2 -->
<g id="Node000002" class="node">
<title>Node2</title>
<g id="a_Node000002"><a xlink:href="Vector_8hpp.html" target="_top" xlink:title="Vector implementation and trait types for boost qvm interoperability.">
<polygon fill="white" stroke="#666666" points="3289.5,-206 3197.5,-206 3197.5,-187 3289.5,-187 3289.5,-206"/>
<text text-anchor="middle" x="3243.5" y="-194" font-family="Helvetica,sans-Serif" font-size="10.00">utils/Vector.hpp</text>
</a>
</g>
</g>
<!-- Node1&#45;&gt;Node2 -->
<g id="edge1_Node000001_Node000002" class="edge">
<title>Node1&#45;&gt;Node2</title>
<g id="a_edge1_Node000001_Node000002"><a xlink:title=" ">
<path fill="none" stroke="#63b8ff" d="M1537.51,-303.46C1682.19,-297.97 2085.31,-281.88 2420.5,-261 2709.05,-243.03 3053.93,-213.95 3187.15,-202.43"/>
<polygon fill="#63b8ff" stroke="#63b8ff" points="3187.47,-205.91 3197.13,-201.56 3186.86,-198.94 3187.47,-205.91"/>
</a>
</g>
</g>
<!-- Node17 -->
<g id="Node000017" class="node">
<title>Node17</title>
<g id="a_Node000017"><a xlink:title=" ">
<polygon fill="#e0e0e0" stroke="#999999" points="2642,-24.5 2589,-24.5 2589,-5.5 2642,-5.5 2642,-24.5"/>
<text text-anchor="middle" x="2615.5" y="-12.5" font-family="Helvetica,sans-Serif" font-size="10.00">cstddef</text>
</a>
</g>
</g>
<!-- Node1&#45;&gt;Node17 -->
<g id="edge63_Node000001_Node000017" class="edge">
<title>Node1&#45;&gt;Node17</title>
<g id="a_edge63_Node000001_Node000017"><a xlink:title=" ">
<path fill="none" stroke="#63b8ff" d="M1427.21,-304.26C1262.16,-300.28 780.36,-286.59 714.5,-261 672.83,-244.81 636.5,-242.2 636.5,-197.5 636.5,-197.5 636.5,-197.5 636.5,-140.5 636.5,-39.27 2307.44,-18.96 2578.54,-16.33"/>
<polygon fill="#63b8ff" stroke="#63b8ff" points="2578.68,-19.83 2588.65,-16.23 2578.62,-12.83 2578.68,-19.83"/>
</a>
</g>
</g>
<!-- Node24 -->
<g id="Node000024" class="node">
<title>Node24</title>
<g id="a_Node000024"><a xlink:title=" ">
<polygon fill="#e0e0e0" stroke="#999999" points="2587.5,-151 2523.5,-151 2523.5,-132 2587.5,-132 2587.5,-151"/>
<text text-anchor="middle" x="2555.5" y="-139" font-family="Helvetica,sans-Serif" font-size="10.00">algorithm</text>
</a>
</g>
</g>
<!-- Node1&#45;&gt;Node24 -->
<g id="edge62_Node000001_Node000024" class="edge">
<title>Node1&#45;&gt;Node24</title>
<g id="a_edge62_Node000001_Node000024"><a xlink:title=" ">
<path fill="none" stroke="#63b8ff" d="M1427.19,-305.58C1231.38,-304.96 588.26,-294.78 693.5,-187 726.36,-153.34 2238.81,-144.1 2513.08,-142.7"/>
<polygon fill="#63b8ff" stroke="#63b8ff" points="2513.42,-146.2 2523.4,-142.65 2513.39,-139.2 2513.42,-146.2"/>
</a>
</g>
</g>
<!-- Node34 -->
<g id="Node000034" class="node">
<title>Node34</title>
<g id="a_Node000034"><a xlink:href="matrix_8hpp.html" target="_top" xlink:title="Matrix implementation and trait types for boost qvm interoperability.">
<polygon fill="white" stroke="#666666" points="2411.5,-261 2317.5,-261 2317.5,-242 2411.5,-242 2411.5,-261"/>
<text text-anchor="middle" x="2364.5" y="-249" font-family="Helvetica,sans-Serif" font-size="10.00">utils/matrix.hpp</text>
</a>
</g>
</g>
<!-- Node1&#45;&gt;Node34 -->
<g id="edge38_Node000001_Node000034" class="edge">
<title>Node1&#45;&gt;Node34</title>
<g id="a_edge38_Node000001_Node000034"><a xlink:title=" ">
<path fill="none" stroke="#63b8ff" d="M1537.67,-302.18C1695.34,-292.71 2146.81,-265.58 2307.15,-255.95"/>
<polygon fill="#63b8ff" stroke="#63b8ff" points="2307.51,-259.43 2317.28,-255.34 2307.09,-252.44 2307.51,-259.43"/>
</a>
</g>
</g>
<!-- Node3 -->
<g id="Node000003" class="node">
<title>Node3</title>
<g id="a_Node000003"><a xlink:title=" ">
<polygon fill="#e0e0e0" stroke="#999999" points="3061.5,-151 2911.5,-151 2911.5,-132 3061.5,-132 3061.5,-151"/>
<text text-anchor="middle" x="2986.5" y="-139" font-family="Helvetica,sans-Serif" font-size="10.00">boost/qvm/deduce_vec.hpp</text>
</a>
</g>
</g>
<!-- Node2&#45;&gt;Node3 -->
<g id="edge2_Node000002_Node000003" class="edge">
<title>Node2&#45;&gt;Node3</title>
<g id="a_edge2_Node000002_Node000003"><a xlink:title=" ">
<path fill="none" stroke="#63b8ff" d="M3202.21,-186.98C3157.57,-177.78 3086.34,-163.09 3038.05,-153.13"/>
<polygon fill="#63b8ff" stroke="#63b8ff" points="3038.62,-149.67 3028.12,-151.08 3037.2,-156.53 3038.62,-149.67"/>
</a>
</g>
</g>
<!-- Node4 -->
<g id="Node000004" class="node">
<title>Node4</title>
<g id="a_Node000004"><a xlink:title=" ">
<polygon fill="#e0e0e0" stroke="#999999" points="3257.5,-151 3117.5,-151 3117.5,-132 3257.5,-132 3257.5,-151"/>
<text text-anchor="middle" x="3187.5" y="-139" font-family="Helvetica,sans-Serif" font-size="10.00">boost/qvm/vec_traits.hpp</text>
</a>
</g>
</g>
<!-- Node2&#45;&gt;Node4 -->
<g id="edge3_Node000002_Node000004" class="edge">
<title>Node2&#45;&gt;Node4</title>
<g id="a_edge3_Node000002_Node000004"><a xlink:title=" ">
<path fill="none" stroke="#63b8ff" d="M3234.5,-186.98C3226.31,-179.23 3213.99,-167.58 3204.03,-158.14"/>
<polygon fill="#63b8ff" stroke="#63b8ff" points="3206.33,-155.5 3196.66,-151.17 3201.52,-160.59 3206.33,-155.5"/>
</a>
</g>
</g>
<!-- Node5 -->
<g id="Node000005" class="node">
<title>Node5</title>
<g id="a_Node000005"><a xlink:href="Array_8hpp.html" target="_top" xlink:title="Array implementation with CUDA support.">
<polygon fill="white" stroke="#666666" points="2855.5,-151 2769.5,-151 2769.5,-132 2855.5,-132 2855.5,-151"/>
<text text-anchor="middle" x="2812.5" y="-139" font-family="Helvetica,sans-Serif" font-size="10.00">utils/Array.hpp</text>
</a>
</g>
</g>
<!-- Node2&#45;&gt;Node5 -->
<g id="edge4_Node000002_Node000005" class="edge">
<title>Node2&#45;&gt;Node5</title>
<g id="a_edge4_Node000002_Node000005"><a xlink:title=" ">
<path fill="none" stroke="#63b8ff" d="M3197.38,-189.83C3116.83,-179.92 2950.99,-159.53 2865.71,-149.04"/>
<polygon fill="#63b8ff" stroke="#63b8ff" points="2866.08,-145.56 2855.72,-147.82 2865.22,-152.51 2866.08,-145.56"/>
</a>
</g>
</g>
<!-- Node7 -->
<g id="Node000007" class="node">
<title>Node7</title>
<g id="a_Node000007"><a xlink:title=" ">
<polygon fill="#e0e0e0" stroke="#999999" points="3538.5,-24.5 3486.5,-24.5 3486.5,-5.5 3538.5,-5.5 3538.5,-24.5"/>
<text text-anchor="middle" x="3512.5" y="-12.5" font-family="Helvetica,sans-Serif" font-size="10.00">cassert</text>
</a>
</g>
</g>
<!-- Node2&#45;&gt;Node7 -->
<g id="edge26_Node000002_Node000007" class="edge">
<title>Node2&#45;&gt;Node7</title>
<g id="a_edge26_Node000002_Node000007"><a xlink:title=" ">
<path fill="none" stroke="#63b8ff" d="M3289.52,-195.71C3426.21,-195.85 3822.75,-192.64 3861.5,-151 3955.19,-50.32 3655.26,-23.83 3548.65,-17.68"/>
<polygon fill="#63b8ff" stroke="#63b8ff" points="3548.84,-14.19 3538.67,-17.14 3548.46,-21.18 3548.84,-14.19"/>
</a>
</g>
</g>
<!-- Node2&#45;&gt;Node17 -->
<g id="edge29_Node000002_Node000017" class="edge">
<title>Node2&#45;&gt;Node17</title>
<g id="a_edge29_Node000002_Node000017"><a xlink:title=" ">
<path fill="none" stroke="#63b8ff" d="M3197.34,-193.86C3092.83,-189.71 2840.96,-177.25 2760.5,-151 2749.18,-147.31 2677.11,-104.22 2668.5,-96 2649.26,-77.63 2633.4,-51.06 2624.19,-33.66"/>
<polygon fill="#63b8ff" stroke="#63b8ff" points="2627.23,-31.91 2619.56,-24.6 2621,-35.1 2627.23,-31.91"/>
</a>
</g>
</g>
<!-- Node19 -->
<g id="Node000019" class="node">
<title>Node19</title>
<g id="a_Node000019"><a xlink:title=" ">
<polygon fill="#e0e0e0" stroke="#999999" points="3286,-90.5 3233,-90.5 3233,-71.5 3286,-71.5 3286,-90.5"/>
<text text-anchor="middle" x="3259.5" y="-78.5" font-family="Helvetica,sans-Serif" font-size="10.00">iterator</text>
</a>
</g>
</g>
<!-- Node2&#45;&gt;Node19 -->
<g id="edge32_Node000002_Node000019" class="edge">
<title>Node2&#45;&gt;Node19</title>
<g id="a_edge32_Node000002_Node000019"><a xlink:title=" ">
<path fill="none" stroke="#63b8ff" d="M3197.48,-190.58C3148.93,-183.45 3082.73,-167.06 3108.5,-132 3140.21,-88.84 3172.96,-113.72 3223.5,-96 3225.15,-95.42 3226.84,-94.81 3228.55,-94.19"/>
<polygon fill="#63b8ff" stroke="#63b8ff" points="3230.14,-97.33 3238.27,-90.53 3227.68,-90.78 3230.14,-97.33"/>
</a>
</g>
</g>
<!-- Node2&#45;&gt;Node24 -->
<g id="edge25_Node000002_Node000024" class="edge">
<title>Node2&#45;&gt;Node24</title>
<g id="a_edge25_Node000002_Node000024"><a xlink:title=" ">
<path fill="none" stroke="#63b8ff" d="M3197.31,-192.64C3095.68,-186.23 2845.01,-169.79 2635.5,-151 2623.34,-149.91 2610.16,-148.57 2598.07,-147.29"/>
<polygon fill="#63b8ff" stroke="#63b8ff" points="2598.1,-143.77 2587.78,-146.17 2597.35,-150.73 2598.1,-143.77"/>
</a>
</g>
</g>
<!-- Node25 -->
<g id="Node000025" class="node">
<title>Node25</title>
<g id="a_Node000025"><a xlink:title=" ">
<polygon fill="#e0e0e0" stroke="#999999" points="3323,-151 3276,-151 3276,-132 3323,-132 3323,-151"/>
<text text-anchor="middle" x="3299.5" y="-139" font-family="Helvetica,sans-Serif" font-size="10.00">cmath</text>
</a>
</g>
</g>
<!-- Node2&#45;&gt;Node25 -->
<g id="edge27_Node000002_Node000025" class="edge">
<title>Node2&#45;&gt;Node25</title>
<g id="a_edge27_Node000002_Node000025"><a xlink:title=" ">
<path fill="none" stroke="#63b8ff" d="M3252.5,-186.98C3260.69,-179.23 3273.01,-167.58 3282.97,-158.14"/>
<polygon fill="#63b8ff" stroke="#63b8ff" points="3285.48,-160.59 3290.34,-151.17 3280.67,-155.5 3285.48,-160.59"/>
</a>
</g>
</g>
<!-- Node26 -->
<g id="Node000026" class="node">
<title>Node26</title>
<g id="a_Node000026"><a xlink:title=" ">
<polygon fill="#e0e0e0" stroke="#999999" points="3401.5,-151 3341.5,-151 3341.5,-132 3401.5,-132 3401.5,-151"/>
<text text-anchor="middle" x="3371.5" y="-139" font-family="Helvetica,sans-Serif" font-size="10.00">concepts</text>
</a>
</g>
</g>
<!-- Node2&#45;&gt;Node26 -->
<g id="edge28_Node000002_Node000026" class="edge">
<title>Node2&#45;&gt;Node26</title>
<g id="a_edge28_Node000002_Node000026"><a xlink:title=" ">
<path fill="none" stroke="#63b8ff" d="M3264.07,-186.98C3284.93,-178.34 3317.47,-164.87 3341.27,-155.02"/>
<polygon fill="#63b8ff" stroke="#63b8ff" points="3342.66,-158.23 3350.56,-151.17 3339.98,-151.76 3342.66,-158.23"/>
</a>
</g>
</g>
<!-- Node27 -->
<g id="Node000027" class="node">
<title>Node27</title>
<g id="a_Node000027"><a xlink:title=" ">
<polygon fill="#e0e0e0" stroke="#999999" points="3485,-151 3420,-151 3420,-132 3485,-132 3485,-151"/>
<text text-anchor="middle" x="3452.5" y="-139" font-family="Helvetica,sans-Serif" font-size="10.00">functional</text>
</a>
</g>
</g>
<!-- Node2&#45;&gt;Node27 -->
<g id="edge30_Node000002_Node000027" class="edge">
<title>Node2&#45;&gt;Node27</title>
<g id="a_edge30_Node000002_Node000027"><a xlink:title=" ">
<path fill="none" stroke="#63b8ff" d="M3277.08,-186.98C3313.17,-177.83 3370.63,-163.26 3409.88,-153.31"/>
<polygon fill="#63b8ff" stroke="#63b8ff" points="3410.86,-156.67 3419.69,-150.82 3409.14,-149.89 3410.86,-156.67"/>
</a>
</g>
</g>
<!-- Node28 -->
<g id="Node000028" class="node">
<title>Node28</title>
<g id="a_Node000028"><a xlink:title=" ">
<polygon fill="#e0e0e0" stroke="#999999" points="3586,-151 3503,-151 3503,-132 3586,-132 3586,-151"/>
<text text-anchor="middle" x="3544.5" y="-139" font-family="Helvetica,sans-Serif" font-size="10.00">initializer_list</text>
</a>
</g>
</g>
<!-- Node2&#45;&gt;Node28 -->
<g id="edge31_Node000002_Node000028" class="edge">
<title>Node2&#45;&gt;Node28</title>
<g id="a_edge31_Node000002_Node000028"><a xlink:title=" ">
<path fill="none" stroke="#63b8ff" d="M3289.54,-187.39C3344.38,-177.74 3435.74,-161.65 3492.91,-151.58"/>
<polygon fill="#63b8ff" stroke="#63b8ff" points="3493.59,-155.02 3502.83,-149.84 3492.37,-148.13 3493.59,-155.02"/>
</a>
</g>
</g>
<!-- Node29 -->
<g id="Node000029" class="node">
<title>Node29</title>
<g id="a_Node000029"><a xlink:title=" ">
<polygon fill="#e0e0e0" stroke="#999999" points="3660.5,-151 3604.5,-151 3604.5,-132 3660.5,-132 3660.5,-151"/>
<text text-anchor="middle" x="3632.5" y="-139" font-family="Helvetica,sans-Serif" font-size="10.00">numeric</text>
</a>
</g>
</g>
<!-- Node2&#45;&gt;Node29 -->
<g id="edge33_Node000002_Node000029" class="edge">
<title>Node2&#45;&gt;Node29</title>
<g id="a_edge33_Node000002_Node000029"><a xlink:title=" ">
<path fill="none" stroke="#63b8ff" d="M3289.57,-191.16C3355.11,-184.66 3479.2,-171.16 3594.24,-151.06"/>
<polygon fill="#63b8ff" stroke="#63b8ff" points="3595.04,-154.48 3604.28,-149.29 3593.82,-147.58 3595.04,-154.48"/>
</a>
</g>
</g>
<!-- Node30 -->
<g id="Node000030" class="node">
<title>Node30</title>
<g id="a_Node000030"><a xlink:title=" ">
<polygon fill="#e0e0e0" stroke="#999999" points="3728.5,-151 3678.5,-151 3678.5,-132 3728.5,-132 3728.5,-151"/>
<text text-anchor="middle" x="3703.5" y="-139" font-family="Helvetica,sans-Serif" font-size="10.00">ranges</text>
</a>
</g>
</g>
<!-- Node2&#45;&gt;Node30 -->
<g id="edge34_Node000002_Node000030" class="edge">
<title>Node2&#45;&gt;Node30</title>
<g id="a_edge34_Node000002_Node000030"><a xlink:title=" ">
<path fill="none" stroke="#63b8ff" d="M3289.5,-192.83C3366.17,-187.91 3525.03,-175.74 3668.47,-150.94"/>
<polygon fill="#63b8ff" stroke="#63b8ff" points="3669.09,-154.39 3678.33,-149.21 3667.88,-147.49 3669.09,-154.39"/>
</a>
</g>
</g>
<!-- Node31 -->
<g id="Node000031" class="node">
<title>Node31</title>
<g id="a_Node000031"><a xlink:title=" ">
<polygon fill="#e0e0e0" stroke="#999999" points="3786.5,-151 3746.5,-151 3746.5,-132 3786.5,-132 3786.5,-151"/>
<text text-anchor="middle" x="3766.5" y="-139" font-family="Helvetica,sans-Serif" font-size="10.00">span</text>
</a>
</g>
</g>
<!-- Node2&#45;&gt;Node31 -->
<g id="edge35_Node000002_Node000031" class="edge">
<title>Node2&#45;&gt;Node31</title>
<g id="a_edge35_Node000002_Node000031"><a xlink:title=" ">
<path fill="none" stroke="#63b8ff" d="M3289.54,-194.35C3375.71,-191.54 3567.17,-182.26 3736.51,-150.81"/>
<polygon fill="#63b8ff" stroke="#63b8ff" points="3737.16,-154.25 3746.34,-148.96 3735.87,-147.37 3737.16,-154.25"/>
</a>
</g>
</g>
<!-- Node32 -->
<g id="Node000032" class="node">
<title>Node32</title>
<g id="a_Node000032"><a xlink:title=" ">
<polygon fill="#e0e0e0" stroke="#999999" points="2713,-151 2644,-151 2644,-132 2713,-132 2713,-151"/>
<text text-anchor="middle" x="2678.5" y="-139" font-family="Helvetica,sans-Serif" font-size="10.00">type_traits</text>
</a>
</g>
</g>
<!-- Node2&#45;&gt;Node32 -->
<g id="edge36_Node000002_Node000032" class="edge">
<title>Node2&#45;&gt;Node32</title>
<g id="a_edge36_Node000002_Node000032"><a xlink:title=" ">
<path fill="none" stroke="#63b8ff" d="M3197.45,-192.86C3107.09,-187.38 2900.27,-173.39 2727.5,-151 2726.2,-150.83 2724.88,-150.65 2723.55,-150.47"/>
<polygon fill="#63b8ff" stroke="#63b8ff" points="2723.65,-146.94 2713.24,-148.91 2722.61,-153.86 2723.65,-146.94"/>
</a>
</g>
</g>
<!-- Node33 -->
<g id="Node000033" class="node">
<title>Node33</title>
<g id="a_Node000033"><a xlink:title=" ">
<polygon fill="#e0e0e0" stroke="#999999" points="3852,-151 3805,-151 3805,-132 3852,-132 3852,-151"/>
<text text-anchor="middle" x="3828.5" y="-139" font-family="Helvetica,sans-Serif" font-size="10.00">vector</text>
</a>
</g>
</g>
<!-- Node2&#45;&gt;Node33 -->
<g id="edge37_Node000002_Node000033" class="edge">
<title>Node2&#45;&gt;Node33</title>
<g id="a_edge37_Node000002_Node000033"><a xlink:title=" ">
<path fill="none" stroke="#63b8ff" d="M3289.63,-194.45C3383.19,-191.75 3602.01,-182.51 3794.78,-150.8"/>
<polygon fill="#63b8ff" stroke="#63b8ff" points="3795.52,-154.22 3804.81,-149.12 3794.37,-147.32 3795.52,-154.22"/>
</a>
</g>
</g>
<!-- Node6 -->
<g id="Node000006" class="node">
<title>Node6</title>
<g id="a_Node000006"><a xlink:href="device__qualifier_8hpp.html" target="_top" xlink:title=" ">
<polygon fill="white" stroke="#666666" points="3214.5,-90.5 3100.5,-90.5 3100.5,-71.5 3214.5,-71.5 3214.5,-90.5"/>
<text text-anchor="middle" x="3157.5" y="-78.5" font-family="Helvetica,sans-Serif" font-size="10.00">device_qualifier.hpp</text>
</a>
</g>
</g>
<!-- Node5&#45;&gt;Node6 -->
<g id="edge5_Node000005_Node000006" class="edge">
<title>Node5&#45;&gt;Node6</title>
<g id="a_edge5_Node000005_Node000006"><a xlink:title=" ">
<path fill="none" stroke="#63b8ff" d="M2855.76,-133.93C2909.83,-125.62 3005.15,-110.62 3086.5,-96 3092.67,-94.89 3099.13,-93.68 3105.53,-92.46"/>
<polygon fill="#63b8ff" stroke="#63b8ff" points="3106.34,-95.86 3115.5,-90.53 3105.01,-88.99 3106.34,-95.86"/>
</a>
</g>
</g>
<!-- Node5&#45;&gt;Node7 -->
<g id="edge18_Node000005_Node000007" class="edge">
<title>Node5&#45;&gt;Node7</title>
<g id="a_edge18_Node000005_Node000007"><a xlink:title=" ">
<path fill="none" stroke="#63b8ff" d="M2855.88,-135.04C2915.39,-127.12 3018.91,-111.67 3053.5,-96 3073.1,-87.12 3071.62,-74.25 3091.5,-66 3160.91,-37.2 3387.45,-22.53 3476.29,-17.78"/>
<polygon fill="#63b8ff" stroke="#63b8ff" points="3476.62,-21.26 3486.42,-17.24 3476.25,-14.27 3476.62,-21.26"/>
</a>
</g>
</g>
<!-- Node8 -->
<g id="Node000008" class="node">
<title>Node8</title>
<g id="a_Node000008"><a xlink:href="array_8hpp.html" target="_top" xlink:title=" ">
<polygon fill="white" stroke="#666666" points="608,-90.5 483,-90.5 483,-71.5 608,-71.5 608,-90.5"/>
<text text-anchor="middle" x="545.5" y="-78.5" font-family="Helvetica,sans-Serif" font-size="10.00">serialization/array.hpp</text>
</a>
</g>
</g>
<!-- Node5&#45;&gt;Node8 -->
<g id="edge7_Node000005_Node000008" class="edge">
<title>Node5&#45;&gt;Node8</title>
<g id="a_edge7_Node000005_Node000008"><a xlink:title=" ">
<path fill="none" stroke="#63b8ff" d="M2769.06,-135.77C2754.3,-134.33 2737.7,-132.89 2722.5,-132 1897.63,-83.64 894.4,-81.41 618.63,-81.79"/>
<polygon fill="#63b8ff" stroke="#63b8ff" points="618.35,-78.29 608.35,-81.81 618.36,-85.29 618.35,-78.29"/>
</a>
</g>
</g>
<!-- Node5&#45;&gt;Node17 -->
<g id="edge19_Node000005_Node000017" class="edge">
<title>Node5&#45;&gt;Node17</title>
<g id="a_edge19_Node000005_Node000017"><a xlink:title=" ">
<path fill="none" stroke="#63b8ff" d="M2787.88,-131.88C2766.81,-123.99 2736.09,-111.24 2711.5,-96 2680.96,-77.07 2649.75,-49.15 2631.52,-31.79"/>
<polygon fill="#63b8ff" stroke="#63b8ff" points="2633.74,-29.06 2624.11,-24.63 2628.87,-34.1 2633.74,-29.06"/>
</a>
</g>
</g>
<!-- Node18 -->
<g id="Node000018" class="node">
<title>Node18</title>
<g id="a_Node000018"><a xlink:title=" ">
<polygon fill="#e0e0e0" stroke="#999999" points="2969,-96 2862,-96 2862,-66 2969,-66 2969,-96"/>
<text text-anchor="start" x="2870" y="-84" font-family="Helvetica,sans-Serif" font-size="10.00">boost/serialization</text>
<text text-anchor="middle" x="2915.5" y="-73" font-family="Helvetica,sans-Serif" font-size="10.00">/access.hpp</text>
</a>
</g>
</g>
<!-- Node5&#45;&gt;Node18 -->
<g id="edge17_Node000005_Node000018" class="edge">
<title>Node5&#45;&gt;Node18</title>
<g id="a_edge17_Node000005_Node000018"><a xlink:title=" ">
<path fill="none" stroke="#63b8ff" d="M2827.7,-131.87C2841.8,-123.86 2863.3,-111.65 2881.49,-101.31"/>
<polygon fill="#63b8ff" stroke="#63b8ff" points="2883.68,-104.1 2890.65,-96.11 2880.22,-98.01 2883.68,-104.1"/>
</a>
</g>
</g>
<!-- Node5&#45;&gt;Node19 -->
<g id="edge20_Node000005_Node000019" class="edge">
<title>Node5&#45;&gt;Node19</title>
<g id="a_edge20_Node000005_Node000019"><a xlink:title=" ">
<path fill="none" stroke="#63b8ff" d="M2855.73,-133.84C2860.37,-133.19 2865.03,-132.56 2869.5,-132 3026.42,-112.33 3069.74,-132.99 3223.5,-96 3225.87,-95.43 3228.28,-94.74 3230.69,-93.98"/>
<polygon fill="#63b8ff" stroke="#63b8ff" points="3232.13,-97.18 3240.38,-90.54 3229.78,-90.59 3232.13,-97.18"/>
</a>
</g>
</g>
<!-- Node20 -->
<g id="Node000020" class="node">
<title>Node20</title>
<g id="a_Node000020"><a xlink:title=" ">
<polygon fill="#e0e0e0" stroke="#999999" points="3044,-90.5 2987,-90.5 2987,-71.5 3044,-71.5 3044,-90.5"/>
<text text-anchor="middle" x="3015.5" y="-78.5" font-family="Helvetica,sans-Serif" font-size="10.00">ostream</text>
</a>
</g>
</g>
<!-- Node5&#45;&gt;Node20 -->
<g id="edge21_Node000005_Node000020" class="edge">
<title>Node5&#45;&gt;Node20</title>
<g id="a_edge21_Node000005_Node000020"><a xlink:title=" ">
<path fill="none" stroke="#63b8ff" d="M2848.42,-131.97C2882.25,-123.68 2934.2,-110.28 2978.5,-96 2980.41,-95.38 2982.37,-94.73 2984.34,-94.04"/>
<polygon fill="#63b8ff" stroke="#63b8ff" points="2985.89,-97.2 2994.11,-90.51 2983.51,-90.62 2985.89,-97.2"/>
</a>
</g>
</g>
<!-- Node21 -->
<g id="Node000021" class="node">
<title>Node21</title>
<g id="a_Node000021"><a xlink:title=" ">
<polygon fill="#e0e0e0" stroke="#999999" points="2785,-90.5 2720,-90.5 2720,-71.5 2785,-71.5 2785,-90.5"/>
<text text-anchor="middle" x="2752.5" y="-78.5" font-family="Helvetica,sans-Serif" font-size="10.00">stdexcept</text>
</a>
</g>
</g>
<!-- Node5&#45;&gt;Node21 -->
<g id="edge22_Node000005_Node000021" class="edge">
<title>Node5&#45;&gt;Node21</title>
<g id="a_edge22_Node000005_Node000021"><a xlink:title=" ">
<path fill="none" stroke="#63b8ff" d="M2803.65,-131.87C2794.52,-122.97 2780.08,-108.89 2768.86,-97.95"/>
<polygon fill="#63b8ff" stroke="#63b8ff" points="2770.99,-95.14 2761.39,-90.67 2766.11,-100.15 2770.99,-95.14"/>
</a>
</g>
</g>
<!-- Node22 -->
<g id="Node000022" class="node">
<title>Node22</title>
<g id="a_Node000022"><a xlink:title=" ">
<polygon fill="#e0e0e0" stroke="#999999" points="2844,-90.5 2803,-90.5 2803,-71.5 2844,-71.5 2844,-90.5"/>
<text text-anchor="middle" x="2823.5" y="-78.5" font-family="Helvetica,sans-Serif" font-size="10.00">tuple</text>
</a>
</g>
</g>
<!-- Node5&#45;&gt;Node22 -->
<g id="edge23_Node000005_Node000022" class="edge">
<title>Node5&#45;&gt;Node22</title>
<g id="a_edge23_Node000005_Node000022"><a xlink:title=" ">
<path fill="none" stroke="#63b8ff" d="M2814.12,-131.87C2815.67,-123.66 2818.04,-111.04 2820.01,-100.55"/>
<polygon fill="#63b8ff" stroke="#63b8ff" points="2823.46,-101.14 2821.87,-90.67 2816.58,-99.85 2823.46,-101.14"/>
</a>
</g>
</g>
<!-- Node23 -->
<g id="Node000023" class="node">
<title>Node23</title>
<g id="a_Node000023"><a xlink:title=" ">
<polygon fill="#e0e0e0" stroke="#999999" points="3941,-90.5 3896,-90.5 3896,-71.5 3941,-71.5 3941,-90.5"/>
<text text-anchor="middle" x="3918.5" y="-78.5" font-family="Helvetica,sans-Serif" font-size="10.00">utility</text>
</a>
</g>
</g>
<!-- Node5&#45;&gt;Node23 -->
<g id="edge24_Node000005_Node000023" class="edge">
<title>Node5&#45;&gt;Node23</title>
<g id="a_edge24_Node000005_Node000023"><a xlink:title=" ">
<path fill="none" stroke="#63b8ff" d="M2855.96,-136C2870.72,-134.57 2887.32,-133.09 2902.5,-132 3288.89,-104.26 3759.08,-87.35 3885.76,-83.07"/>
<polygon fill="#63b8ff" stroke="#63b8ff" points="3886.07,-86.57 3895.95,-82.73 3885.84,-79.57 3886.07,-86.57"/>
</a>
</g>
</g>
<!-- Node6&#45;&gt;Node7 -->
<g id="edge6_Node000006_Node000007" class="edge">
<title>Node6&#45;&gt;Node7</title>
<g id="a_edge6_Node000006_Node000007"><a xlink:title=" ">
<path fill="none" stroke="#63b8ff" d="M3197.13,-71.48C3206.12,-69.62 3215.63,-67.7 3224.5,-66 3314.88,-48.72 3421.7,-30.83 3476.34,-21.87"/>
<polygon fill="#63b8ff" stroke="#63b8ff" points="3476.93,-25.32 3486.24,-20.25 3475.8,-18.41 3476.93,-25.32"/>
</a>
</g>
</g>
<!-- Node9 -->
<g id="Node000009" class="node">
<title>Node9</title>
<g id="a_Node000009"><a xlink:title=" ">
<polygon fill="#e0e0e0" stroke="#999999" points="683,-24.5 550,-24.5 550,-5.5 683,-5.5 683,-24.5"/>
<text text-anchor="middle" x="616.5" y="-12.5" font-family="Helvetica,sans-Serif" font-size="10.00">boost/mpl/bool_fwd.hpp</text>
</a>
</g>
</g>
<!-- Node8&#45;&gt;Node9 -->
<g id="edge8_Node000008_Node000009" class="edge">
<title>Node8&#45;&gt;Node9</title>
<g id="a_edge8_Node000008_Node000009"><a xlink:title=" ">
<path fill="none" stroke="#63b8ff" d="M555.08,-71.37C566.34,-61.21 585.26,-44.16 599.13,-31.65"/>
<polygon fill="#63b8ff" stroke="#63b8ff" points="601.54,-34.2 606.62,-24.91 596.85,-29 601.54,-34.2"/>
</a>
</g>
</g>
<!-- Node10 -->
<g id="Node000010" class="node">
<title>Node10</title>
<g id="a_Node000010"><a xlink:title=" ">
<polygon fill="#e0e0e0" stroke="#999999" points="825.5,-24.5 701.5,-24.5 701.5,-5.5 825.5,-5.5 825.5,-24.5"/>
<text text-anchor="middle" x="763.5" y="-12.5" font-family="Helvetica,sans-Serif" font-size="10.00">boost/mpl/greater.hpp</text>
</a>
</g>
</g>
<!-- Node8&#45;&gt;Node10 -->
<g id="edge9_Node000008_Node000010" class="edge">
<title>Node8&#45;&gt;Node10</title>
<g id="a_edge9_Node000008_Node000010"><a xlink:title=" ">
<path fill="none" stroke="#63b8ff" d="M574.9,-71.37C613.53,-60.03 681.48,-40.08 724.4,-27.48"/>
<polygon fill="#63b8ff" stroke="#63b8ff" points="725.61,-30.77 734.22,-24.6 723.64,-24.06 725.61,-30.77"/>
</a>
</g>
</g>
<!-- Node11 -->
<g id="Node000011" class="node">
<title>Node11</title>
<g id="a_Node000011"><a xlink:title=" ">
<polygon fill="#e0e0e0" stroke="#999999" points="945.5,-24.5 843.5,-24.5 843.5,-5.5 945.5,-5.5 945.5,-24.5"/>
<text text-anchor="middle" x="894.5" y="-12.5" font-family="Helvetica,sans-Serif" font-size="10.00">boost/mpl/int.hpp</text>
</a>
</g>
</g>
<!-- Node8&#45;&gt;Node11 -->
<g id="edge10_Node000008_Node000011" class="edge">
<title>Node8&#45;&gt;Node11</title>
<g id="a_edge10_Node000008_Node000011"><a xlink:title=" ">
<path fill="none" stroke="#63b8ff" d="M591.9,-71.47C601.99,-69.65 612.6,-67.74 622.5,-66 716.63,-49.45 740.81,-48.87 834.5,-30 839.48,-29 844.69,-27.88 849.85,-26.73"/>
<polygon fill="#63b8ff" stroke="#63b8ff" points="850.7,-30.13 859.68,-24.5 849.15,-23.3 850.7,-30.13"/>
</a>
</g>
</g>
<!-- Node12 -->
<g id="Node000012" class="node">
<title>Node12</title>
<g id="a_Node000012"><a xlink:title=" ">
<polygon fill="#e0e0e0" stroke="#999999" points="1069.5,-30 963.5,-30 963.5,0 1069.5,0 1069.5,-30"/>
<text text-anchor="start" x="971.5" y="-18" font-family="Helvetica,sans-Serif" font-size="10.00">boost/mpl/integral</text>
<text text-anchor="middle" x="1016.5" y="-7" font-family="Helvetica,sans-Serif" font-size="10.00">_c_tag.hpp</text>
</a>
</g>
</g>
<!-- Node8&#45;&gt;Node12 -->
<g id="edge11_Node000008_Node000012" class="edge">
<title>Node8&#45;&gt;Node12</title>
<g id="a_edge11_Node000008_Node000012"><a xlink:title=" ">
<path fill="none" stroke="#63b8ff" d="M589.39,-71.46C600.19,-69.51 611.74,-67.56 622.5,-66 766.09,-45.19 806.3,-53.97 953.18,-30.09"/>
<polygon fill="#63b8ff" stroke="#63b8ff" points="954.18,-33.47 963.48,-28.39 953.04,-26.56 954.18,-33.47"/>
</a>
</g>
</g>
<!-- Node13 -->
<g id="Node000013" class="node">
<title>Node13</title>
<g id="a_Node000013"><a xlink:title=" ">
<polygon fill="#e0e0e0" stroke="#999999" points="151,-30 0,-30 0,0 151,0 151,-30"/>
<text text-anchor="start" x="8" y="-18" font-family="Helvetica,sans-Serif" font-size="10.00">boost/serialization</text>
<text text-anchor="middle" x="75.5" y="-7" font-family="Helvetica,sans-Serif" font-size="10.00">/is_bitwise_serializable.hpp</text>
</a>
</g>
</g>
<!-- Node8&#45;&gt;Node13 -->
<g id="edge12_Node000008_Node000013" class="edge">
<title>Node8&#45;&gt;Node13</title>
<g id="a_edge12_Node000008_Node000013"><a xlink:title=" ">
<path fill="none" stroke="#63b8ff" d="M482.89,-72.6C408.55,-63.65 280.54,-47.75 161.09,-30.21"/>
<polygon fill="#63b8ff" stroke="#63b8ff" points="161.44,-26.72 151.04,-28.72 160.42,-33.64 161.44,-26.72"/>
</a>
</g>
</g>
<!-- Node14 -->
<g id="Node000014" class="node">
<title>Node14</title>
<g id="a_Node000014"><a xlink:title=" ">
<polygon fill="#e0e0e0" stroke="#999999" points="276,-30 169,-30 169,0 276,0 276,-30"/>
<text text-anchor="start" x="177" y="-18" font-family="Helvetica,sans-Serif" font-size="10.00">boost/serialization</text>
<text text-anchor="middle" x="222.5" y="-7" font-family="Helvetica,sans-Serif" font-size="10.00">/level.hpp</text>
</a>
</g>
</g>
<!-- Node8&#45;&gt;Node14 -->
<g id="edge13_Node000008_Node000014" class="edge">
<title>Node8&#45;&gt;Node14</title>
<g id="a_edge13_Node000008_Node000014"><a xlink:title=" ">
<path fill="none" stroke="#63b8ff" d="M498.26,-71.43C448.05,-62.22 366.09,-46.87 286.45,-30.37"/>
<polygon fill="#63b8ff" stroke="#63b8ff" points="286.75,-26.86 276.25,-28.25 285.32,-33.71 286.75,-26.86"/>
</a>
</g>
</g>
<!-- Node15 -->
<g id="Node000015" class="node">
<title>Node15</title>
<g id="a_Node000015"><a xlink:title=" ">
<polygon fill="#e0e0e0" stroke="#999999" points="401,-30 294,-30 294,0 401,0 401,-30"/>
<text text-anchor="start" x="302" y="-18" font-family="Helvetica,sans-Serif" font-size="10.00">boost/serialization</text>
<text text-anchor="middle" x="347.5" y="-7" font-family="Helvetica,sans-Serif" font-size="10.00">/tracking.hpp</text>
</a>
</g>
</g>
<!-- Node8&#45;&gt;Node15 -->
<g id="edge14_Node000008_Node000015" class="edge">
<title>Node8&#45;&gt;Node15</title>
<g id="a_edge14_Node000008_Node000015"><a xlink:title=" ">
<path fill="none" stroke="#63b8ff" d="M518.8,-71.37C488.76,-61.66 439.19,-45.64 401.09,-33.32"/>
<polygon fill="#63b8ff" stroke="#63b8ff" points="401.76,-29.86 391.17,-30.12 399.61,-36.52 401.76,-29.86"/>
</a>
</g>
</g>
<!-- Node16 -->
<g id="Node000016" class="node">
<title>Node16</title>
<g id="a_Node000016"><a xlink:title=" ">
<polygon fill="#e0e0e0" stroke="#999999" points="532,-30 419,-30 419,0 532,0 532,-30"/>
<text text-anchor="start" x="427" y="-18" font-family="Helvetica,sans-Serif" font-size="10.00">boost/serialization</text>
<text text-anchor="middle" x="475.5" y="-7" font-family="Helvetica,sans-Serif" font-size="10.00">/tracking_enum.hpp</text>
</a>
</g>
</g>
<!-- Node8&#45;&gt;Node16 -->
<g id="edge15_Node000008_Node000016" class="edge">
<title>Node8&#45;&gt;Node16</title>
<g id="a_edge15_Node000008_Node000016"><a xlink:title=" ">
<path fill="none" stroke="#63b8ff" d="M536.06,-71.37C526.48,-62.61 511.28,-48.71 498.51,-37.04"/>
<polygon fill="#63b8ff" stroke="#63b8ff" points="500.68,-34.28 490.94,-30.12 495.96,-39.45 500.68,-34.28"/>
</a>
</g>
</g>
<!-- Node8&#45;&gt;Node17 -->
<g id="edge16_Node000008_Node000017" class="edge">
<title>Node8&#45;&gt;Node17</title>
<g id="a_edge16_Node000008_Node000017"><a xlink:title=" ">
<path fill="none" stroke="#63b8ff" d="M585.69,-71.48C597.5,-69.31 610.47,-67.24 622.5,-66 1022.84,-24.83 2340.45,-17.2 2578.47,-16.15"/>
<polygon fill="#63b8ff" stroke="#63b8ff" points="2578.69,-19.64 2588.68,-16.1 2578.66,-12.64 2578.69,-19.64"/>
</a>
</g>
</g>
<!-- Node34&#45;&gt;Node2 -->
<g id="edge40_Node000034_Node000002" class="edge">
<title>Node34&#45;&gt;Node2</title>
<g id="a_edge40_Node000034_Node000002"><a xlink:title=" ">
<path fill="none" stroke="#63b8ff" d="M2411.76,-247.65C2561.54,-238.62 3025.33,-210.65 3187.13,-200.9"/>
<polygon fill="#63b8ff" stroke="#63b8ff" points="3187.57,-204.38 3197.34,-200.28 3187.15,-197.39 3187.57,-204.38"/>
</a>
</g>
</g>
<!-- Node34&#45;&gt;Node3 -->
<g id="edge55_Node000034_Node000003" class="edge">
<title>Node34&#45;&gt;Node3</title>
<g id="a_edge55_Node000034_Node000003"><a xlink:title=" ">
<path fill="none" stroke="#63b8ff" d="M2411.85,-249.41C2543.03,-246.03 2904.4,-234.25 2949.5,-206 2965.68,-195.86 2975.59,-175.87 2981.03,-161.02"/>
<polygon fill="#63b8ff" stroke="#63b8ff" points="2984.42,-161.91 2984.22,-151.32 2977.77,-159.72 2984.42,-161.91"/>
</a>
</g>
</g>
<!-- Node34&#45;&gt;Node5 -->
<g id="edge39_Node000034_Node000005" class="edge">
<title>Node34&#45;&gt;Node5</title>
<g id="a_edge39_Node000034_Node000005"><a xlink:title=" ">
<path fill="none" stroke="#63b8ff" d="M2411.83,-250.41C2506.11,-249.42 2713.36,-242.96 2772.5,-206 2789.04,-195.66 2799.91,-175.71 2806.09,-160.91"/>
<polygon fill="#63b8ff" stroke="#63b8ff" points="2809.48,-161.86 2809.77,-151.27 2802.94,-159.36 2809.48,-161.86"/>
</a>
</g>
</g>
<!-- Node34&#45;&gt;Node7 -->
<g id="edge46_Node000034_Node000007" class="edge">
<title>Node34&#45;&gt;Node7</title>
<g id="a_edge46_Node000034_Node000007"><a xlink:title=" ">
<path fill="none" stroke="#63b8ff" d="M2411.81,-250.21C2616.43,-248.75 3426.39,-240.84 3678.5,-206 3780.05,-191.97 3814.95,-204.32 3902.5,-151 3939.55,-128.43 3979.39,-98.37 3950.5,-66 3923.89,-36.18 3649.08,-21.73 3548.84,-17.43"/>
<polygon fill="#63b8ff" stroke="#63b8ff" points="3548.73,-13.92 3538.6,-17 3548.44,-20.91 3548.73,-13.92"/>
</a>
</g>
</g>
<!-- Node34&#45;&gt;Node17 -->
<g id="edge47_Node000034_Node000017" class="edge">
<title>Node34&#45;&gt;Node17</title>
<g id="a_edge47_Node000034_Node000017"><a xlink:title=" ">
<path fill="none" stroke="#63b8ff" d="M2411.54,-242.73C2413.21,-242.48 2414.87,-242.24 2416.5,-242 2479.46,-232.87 2658.44,-253.73 2700.5,-206 2731.43,-170.9 2662.42,-189.85 2635.5,-151 2611.06,-115.73 2611.19,-62.79 2613.36,-34.84"/>
<polygon fill="#63b8ff" stroke="#63b8ff" points="2616.88,-34.8 2614.35,-24.51 2609.91,-34.13 2616.88,-34.8"/>
</a>
</g>
</g>
<!-- Node34&#45;&gt;Node23 -->
<g id="edge49_Node000034_Node000023" class="edge">
<title>Node34&#45;&gt;Node23</title>
<g id="a_edge49_Node000034_Node000023"><a xlink:title=" ">
<path fill="none" stroke="#63b8ff" d="M2411.62,-250.14C2654.12,-247.92 3755.02,-233.36 3880.5,-151 3898.15,-139.42 3908.33,-116.71 3913.63,-100.51"/>
<polygon fill="#63b8ff" stroke="#63b8ff" points="3917.1,-101.13 3916.56,-90.55 3910.38,-99.16 3917.1,-101.13"/>
</a>
</g>
</g>
<!-- Node34&#45;&gt;Node24 -->
<g id="edge44_Node000034_Node000024" class="edge">
<title>Node34&#45;&gt;Node24</title>
<g id="a_edge44_Node000034_Node000024"><a xlink:title=" ">
<path fill="none" stroke="#63b8ff" d="M2411.78,-251.19C2492.26,-251.24 2650.58,-246.09 2685.5,-206 2691.05,-199.63 2690.41,-193.87 2685.5,-187 2675,-172.31 2631.48,-159.44 2597.65,-151.37"/>
<polygon fill="#63b8ff" stroke="#63b8ff" points="2598.04,-147.87 2587.51,-149.02 2596.47,-154.68 2598.04,-147.87"/>
</a>
</g>
</g>
<!-- Node34&#45;&gt;Node32 -->
<g id="edge48_Node000034_Node000032" class="edge">
<title>Node34&#45;&gt;Node32</title>
<g id="a_edge48_Node000034_Node000032"><a xlink:title=" ">
<path fill="none" stroke="#63b8ff" d="M2411.52,-248.61C2510.65,-244.14 2733.86,-231.35 2756.5,-206 2774.58,-185.76 2741.95,-166.69 2713.53,-154.83"/>
<polygon fill="#63b8ff" stroke="#63b8ff" points="2714.71,-151.53 2704.13,-151.09 2712.13,-158.04 2714.71,-151.53"/>
</a>
</g>
</g>
<!-- Node35 -->
<g id="Node000035" class="node">
<title>Node35</title>
<g id="a_Node000035"><a xlink:href="flatten_8hpp.html" target="_top" xlink:title=" ">
<polygon fill="white" stroke="#666666" points="2940,-206 2847,-206 2847,-187 2940,-187 2940,-206"/>
<text text-anchor="middle" x="2893.5" y="-194" font-family="Helvetica,sans-Serif" font-size="10.00">utils/flatten.hpp</text>
</a>
</g>
</g>
<!-- Node34&#45;&gt;Node35 -->
<g id="edge41_Node000034_Node000035" class="edge">
<title>Node34&#45;&gt;Node35</title>
<g id="a_edge41_Node000034_Node000035"><a xlink:title=" ">
<path fill="none" stroke="#63b8ff" d="M2411.74,-246.69C2496.25,-239.73 2678.89,-224 2832.5,-206 2833.96,-205.83 2835.44,-205.65 2836.93,-205.47"/>
<polygon fill="#63b8ff" stroke="#63b8ff" points="2837.42,-208.94 2846.9,-204.21 2836.54,-201.99 2837.42,-208.94"/>
</a>
</g>
</g>
<!-- Node36 -->
<g id="Node000036" class="node">
<title>Node36</title>
<g id="a_Node000036"><a xlink:title=" ">
<polygon fill="#e0e0e0" stroke="#999999" points="744.5,-206 702.5,-206 702.5,-187 744.5,-187 744.5,-206"/>
<text text-anchor="middle" x="723.5" y="-194" font-family="Helvetica,sans-Serif" font-size="10.00">array</text>
</a>
</g>
</g>
<!-- Node34&#45;&gt;Node36 -->
<g id="edge45_Node000034_Node000036" class="edge">
<title>Node34&#45;&gt;Node36</title>
<g id="a_edge45_Node000034_Node000036"><a xlink:title=" ">
<path fill="none" stroke="#63b8ff" d="M2317.35,-250.77C2088.04,-251.87 1087.36,-253.87 754.78,-205.71"/>
<polygon fill="#63b8ff" stroke="#63b8ff" points="755.07,-202.22 744.66,-204.2 754.03,-209.14 755.07,-202.22"/>
</a>
</g>
</g>
<!-- Node37 -->
<g id="Node000037" class="node">
<title>Node37</title>
<g id="a_Node000037"><a xlink:title=" ">
<polygon fill="#e0e0e0" stroke="#999999" points="931,-206 762,-206 762,-187 931,-187 931,-206"/>
<text text-anchor="middle" x="846.5" y="-194" font-family="Helvetica,sans-Serif" font-size="10.00">boost/qvm/mat_operations.hpp</text>
</a>
</g>
</g>
<!-- Node34&#45;&gt;Node37 -->
<g id="edge50_Node000034_Node000037" class="edge">
<title>Node34&#45;&gt;Node37</title>
<g id="a_edge50_Node000034_Node000037"><a xlink:title=" ">
<path fill="none" stroke="#63b8ff" d="M2317.44,-250.04C2139.26,-248.07 1488.88,-238.96 941.11,-205.99"/>
<polygon fill="#63b8ff" stroke="#63b8ff" points="941.23,-202.49 931.03,-205.38 940.8,-209.48 941.23,-202.49"/>
</a>
</g>
</g>
<!-- Node38 -->
<g id="Node000038" class="node">
<title>Node38</title>
<g id="a_Node000038"><a xlink:title=" ">
<polygon fill="#e0e0e0" stroke="#999999" points="1140,-206 949,-206 949,-187 1140,-187 1140,-206"/>
<text text-anchor="middle" x="1044.5" y="-194" font-family="Helvetica,sans-Serif" font-size="10.00">boost/qvm/vec_mat_operations.hpp</text>
</a>
</g>
</g>
<!-- Node34&#45;&gt;Node38 -->
<g id="edge51_Node000034_Node000038" class="edge">
<title>Node34&#45;&gt;Node38</title>
<g id="a_edge51_Node000034_Node000038"><a xlink:title=" ">
<path fill="none" stroke="#63b8ff" d="M2317.27,-249.52C2155.98,-246.02 1611.9,-232.89 1150.26,-206.01"/>
<polygon fill="#63b8ff" stroke="#63b8ff" points="1150.24,-202.51 1140.06,-205.42 1149.84,-209.49 1150.24,-202.51"/>
</a>
</g>
</g>
<!-- Node39 -->
<g id="Node000039" class="node">
<title>Node39</title>
<g id="a_Node000039"><a xlink:title=" ">
<polygon fill="#e0e0e0" stroke="#999999" points="1325,-206 1158,-206 1158,-187 1325,-187 1325,-206"/>
<text text-anchor="middle" x="1241.5" y="-194" font-family="Helvetica,sans-Serif" font-size="10.00">boost/qvm/vec_operations.hpp</text>
</a>
</g>
</g>
<!-- Node34&#45;&gt;Node39 -->
<g id="edge52_Node000034_Node000039" class="edge">
<title>Node34&#45;&gt;Node39</title>
<g id="a_edge52_Node000034_Node000039"><a xlink:title=" ">
<path fill="none" stroke="#63b8ff" d="M2317.49,-249.27C2172.83,-245.32 1721.35,-231.72 1335.39,-206.02"/>
<polygon fill="#63b8ff" stroke="#63b8ff" points="1335.35,-202.51 1325.14,-205.33 1334.88,-209.5 1335.35,-202.51"/>
</a>
</g>
</g>
<!-- Node40 -->
<g id="Node000040" class="node">
<title>Node40</title>
<g id="a_Node000040"><a xlink:title=" ">
<polygon fill="#e0e0e0" stroke="#999999" points="1495.5,-206 1343.5,-206 1343.5,-187 1495.5,-187 1495.5,-206"/>
<text text-anchor="middle" x="1419.5" y="-194" font-family="Helvetica,sans-Serif" font-size="10.00">boost/qvm/deduce_mat.hpp</text>
</a>
</g>
</g>
<!-- Node34&#45;&gt;Node40 -->
<g id="edge53_Node000034_Node000040" class="edge">
<title>Node34&#45;&gt;Node40</title>
<g id="a_edge53_Node000034_Node000040"><a xlink:title=" ">
<path fill="none" stroke="#63b8ff" d="M2317.43,-248.84C2189.22,-244.14 1822.85,-229.61 1506.21,-206.01"/>
<polygon fill="#63b8ff" stroke="#63b8ff" points="1506.15,-202.5 1495.92,-205.24 1505.63,-209.48 1506.15,-202.5"/>
</a>
</g>
</g>
<!-- Node41 -->
<g id="Node000041" class="node">
<title>Node41</title>
<g id="a_Node000041"><a xlink:title=" ">
<polygon fill="#e0e0e0" stroke="#999999" points="1675,-206 1514,-206 1514,-187 1675,-187 1675,-206"/>
<text text-anchor="middle" x="1594.5" y="-194" font-family="Helvetica,sans-Serif" font-size="10.00">boost/qvm/deduce_scalar.hpp</text>
</a>
</g>
</g>
<!-- Node34&#45;&gt;Node41 -->
<g id="edge54_Node000034_Node000041" class="edge">
<title>Node34&#45;&gt;Node41</title>
<g id="a_edge54_Node000034_Node000041"><a xlink:title=" ">
<path fill="none" stroke="#63b8ff" d="M2317.47,-247.89C2208.48,-241.74 1929.89,-225.45 1685.58,-206.06"/>
<polygon fill="#63b8ff" stroke="#63b8ff" points="1685.69,-202.56 1675.44,-205.26 1685.13,-209.54 1685.69,-202.56"/>
</a>
</g>
</g>
<!-- Node42 -->
<g id="Node000042" class="node">
<title>Node42</title>
<g id="a_Node000042"><a xlink:title=" ">
<polygon fill="#e0e0e0" stroke="#999999" points="1857.5,-206 1693.5,-206 1693.5,-187 1857.5,-187 1857.5,-206"/>
<text text-anchor="middle" x="1775.5" y="-194" font-family="Helvetica,sans-Serif" font-size="10.00">boost/qvm/map_mat_mat.hpp</text>
</a>
</g>
</g>
<!-- Node34&#45;&gt;Node42 -->
<g id="edge56_Node000034_Node000042" class="edge">
<title>Node34&#45;&gt;Node42</title>
<g id="a_edge56_Node000034_Node000042"><a xlink:title=" ">
<path fill="none" stroke="#63b8ff" d="M2317.21,-246.31C2230.54,-238.62 2040.15,-221.69 1867.77,-206.02"/>
<polygon fill="#63b8ff" stroke="#63b8ff" points="1868.03,-202.53 1857.76,-205.11 1867.4,-209.5 1868.03,-202.53"/>
</a>
</g>
</g>
<!-- Node43 -->
<g id="Node000043" class="node">
<title>Node43</title>
<g id="a_Node000043"><a xlink:title=" ">
<polygon fill="#e0e0e0" stroke="#999999" points="2037,-206 1876,-206 1876,-187 2037,-187 2037,-206"/>
<text text-anchor="middle" x="1956.5" y="-194" font-family="Helvetica,sans-Serif" font-size="10.00">boost/qvm/map_mat_vec.hpp</text>
</a>
</g>
</g>
<!-- Node34&#45;&gt;Node43 -->
<g id="edge57_Node000034_Node000043" class="edge">
<title>Node34&#45;&gt;Node43</title>
<g id="a_edge57_Node000034_Node000043"><a xlink:title=" ">
<path fill="none" stroke="#63b8ff" d="M2317.3,-244.37C2247.35,-235.28 2115.48,-218.15 2032.02,-207.31"/>
<polygon fill="#63b8ff" stroke="#63b8ff" points="2032.45,-203.84 2022.08,-206.02 2031.55,-210.78 2032.45,-203.84"/>
</a>
</g>
</g>
<!-- Node44 -->
<g id="Node000044" class="node">
<title>Node44</title>
<g id="a_Node000044"><a xlink:title=" ">
<polygon fill="#e0e0e0" stroke="#999999" points="2216,-206 2055,-206 2055,-187 2216,-187 2216,-206"/>
<text text-anchor="middle" x="2135.5" y="-194" font-family="Helvetica,sans-Serif" font-size="10.00">boost/qvm/map_vec_mat.hpp</text>
</a>
</g>
</g>
<!-- Node34&#45;&gt;Node44 -->
<g id="edge58_Node000034_Node000044" class="edge">
<title>Node34&#45;&gt;Node44</title>
<g id="a_edge58_Node000034_Node000044"><a xlink:title=" ">
<path fill="none" stroke="#63b8ff" d="M2327.71,-241.98C2288.26,-232.86 2225.52,-218.33 2182.52,-208.38"/>
<polygon fill="#63b8ff" stroke="#63b8ff" points="2183.11,-204.93 2172.58,-206.08 2181.53,-211.75 2183.11,-204.93"/>
</a>
</g>
</g>
<!-- Node45 -->
<g id="Node000045" class="node">
<title>Node45</title>
<g id="a_Node000045"><a xlink:title=" ">
<polygon fill="#e0e0e0" stroke="#999999" points="2346.5,-206 2234.5,-206 2234.5,-187 2346.5,-187 2346.5,-206"/>
<text text-anchor="middle" x="2290.5" y="-194" font-family="Helvetica,sans-Serif" font-size="10.00">boost/qvm/mat.hpp</text>
</a>
</g>
</g>
<!-- Node34&#45;&gt;Node45 -->
<g id="edge59_Node000034_Node000045" class="edge">
<title>Node34&#45;&gt;Node45</title>
<g id="a_edge59_Node000034_Node000045"><a xlink:title=" ">
<path fill="none" stroke="#63b8ff" d="M2352.61,-241.98C2341.35,-233.92 2324.21,-221.65 2310.79,-212.03"/>
<polygon fill="#63b8ff" stroke="#63b8ff" points="2312.77,-209.15 2302.61,-206.17 2308.7,-214.84 2312.77,-209.15"/>
</a>
</g>
</g>
<!-- Node46 -->
<g id="Node000046" class="node">
<title>Node46</title>
<g id="a_Node000046"><a xlink:title=" ">
<polygon fill="#e0e0e0" stroke="#999999" points="2514.5,-206 2364.5,-206 2364.5,-187 2514.5,-187 2514.5,-206"/>
<text text-anchor="middle" x="2439.5" y="-194" font-family="Helvetica,sans-Serif" font-size="10.00">boost/qvm/mat_access.hpp</text>
</a>
</g>
</g>
<!-- Node34&#45;&gt;Node46 -->
<g id="edge60_Node000034_Node000046" class="edge">
<title>Node34&#45;&gt;Node46</title>
<g id="a_edge60_Node000034_Node000046"><a xlink:title=" ">
<path fill="none" stroke="#63b8ff" d="M2376.55,-241.98C2387.96,-233.92 2405.33,-221.65 2418.93,-212.03"/>
<polygon fill="#63b8ff" stroke="#63b8ff" points="2421.08,-214.8 2427.23,-206.17 2417.04,-209.08 2421.08,-214.8"/>
</a>
</g>
</g>
<!-- Node47 -->
<g id="Node000047" class="node">
<title>Node47</title>
<g id="a_Node000047"><a xlink:title=" ">
<polygon fill="#e0e0e0" stroke="#999999" points="2676,-206 2533,-206 2533,-187 2676,-187 2676,-206"/>
<text text-anchor="middle" x="2604.5" y="-194" font-family="Helvetica,sans-Serif" font-size="10.00">boost/qvm/mat_traits.hpp</text>
</a>
</g>
</g>
<!-- Node34&#45;&gt;Node47 -->
<g id="edge61_Node000034_Node000047" class="edge">
<title>Node34&#45;&gt;Node47</title>
<g id="a_edge61_Node000034_Node000047"><a xlink:title=" ">
<path fill="none" stroke="#63b8ff" d="M2403.06,-241.98C2444.57,-232.82 2510.71,-218.21 2555.79,-208.26"/>
<polygon fill="#63b8ff" stroke="#63b8ff" points="2556.63,-211.66 2565.64,-206.08 2555.12,-204.82 2556.63,-211.66"/>
</a>
</g>
</g>
<!-- Node35&#45;&gt;Node19 -->
<g id="edge42_Node000035_Node000019" class="edge">
<title>Node35&#45;&gt;Node19</title>
<g id="a_edge42_Node000035_Node000019"><a xlink:title=" ">
<path fill="none" stroke="#63b8ff" d="M2891.75,-186.64C2889.58,-172.83 2887.8,-146.27 2902.5,-132 2953.99,-81.99 3153.8,-113.15 3223.5,-96 3225.81,-95.43 3228.17,-94.75 3230.52,-94"/>
<polygon fill="#63b8ff" stroke="#63b8ff" points="3231.74,-97.29 3239.99,-90.64 3229.4,-90.69 3231.74,-97.29"/>
</a>
</g>
</g>
<!-- Node35&#45;&gt;Node32 -->
<g id="edge43_Node000035_Node000032" class="edge">
<title>Node35&#45;&gt;Node32</title>
<g id="a_edge43_Node000035_Node000032"><a xlink:title=" ">
<path fill="none" stroke="#63b8ff" d="M2858.96,-186.98C2822.08,-177.89 2763.51,-163.46 2723.16,-153.51"/>
<polygon fill="#63b8ff" stroke="#63b8ff" points="2723.86,-150.08 2713.31,-151.08 2722.19,-156.87 2723.86,-150.08"/>
</a>
</g>
</g>
</g>
</svg>

<g id="navigator" transform="translate(0 0)" fill="#404254">
  <rect fill="#f2f5e9" fill-opacity="0.5" stroke="#606060" stroke-width=".5" x="0" y="0" width="60" height="60"/>
  <use id="zoomplus" xlink:href="#zoomPlus" x="17" y="9" onmousedown="handleZoom(evt,'in')"/>
  <use id="zoomminus" xlink:href="#zoomMin" x="42" y="9" onmousedown="handleZoom(evt,'out')"/>
  <use id="reset" xlink:href="#resetDef" x="30" y="36" onmousedown="handleReset()"/>
   <use id="arrowup" xlink:href="#arrowUp" x="0" y="0" onmousedown="handlePan(0,-1)"/>
  <use id="arrowright" xlink:href="#arrowRight" x="0" y="0" onmousedown="handlePan(1,0)"/>
  <use id="arrowdown" xlink:href="#arrowDown" x="0" y="0" onmousedown="handlePan(0,1)"/>
  <use id="arrowleft" xlink:href="#arrowLeft" x="0" y="0" onmousedown="handlePan(-1,0)"/>
</g>
<svg viewBox="0 0 15 15" width="100%" height="30px" preserveAspectRatio="xMaxYMin meet">
 <g id="arrow_out" transform="scale(0.3 0.3)">
  <a xlink:href="tensor__product_8hpp__incl_org.svg" target="_base">
   <rect id="button" ry="5" rx="5" y="6" x="6" height="38" width="38"
        fill="#f2f5e9" fill-opacity="0.5" stroke="#606060" stroke-width="1.0"/>
   <path id="arrow"
     d="M 11.500037,31.436501 C 11.940474,20.09759 22.043105,11.32322 32.158766,21.979434 L 37.068811,17.246167 C 37.068811,17.246167 37.088388,32 37.088388,32 L 22.160133,31.978069 C 22.160133,31.978069 26.997745,27.140456 26.997745,27.140456 C 18.528582,18.264221 13.291696,25.230495 11.500037,31.436501 z"
     style="fill:#404040;"/>
  </a>
 </g>
</svg>

<style type='text/css'>
<![CDATA[
[data-mouse-over-selected='false'] { opacity: 0.7; }
[data-mouse-over-selected='true']  { opacity: 1.0; }
]]>
</style>
<script type="application/ecmascript"><![CDATA[
document.addEventListener('DOMContentLoaded', (event) => {
  highlightEdges();
  highlightAdjacentNodes();
});
]]></script>
</svg>
