<?xml version="1.0" encoding="UTF-8" standalone="no"?>
<!DOCTYPE svg PUBLIC "-//W3C//DTD SVG 1.1//EN"
 "http://www.w3.org/Graphics/SVG/1.1/DTD/svg11.dtd">
<!-- Generated by graphviz version 2.43.0 (0)
 -->
<!-- Title: Torus.cpp Pages: 1 -->
<svg width="1842pt" height="269pt"
 viewBox="0.00 0.00 1841.50 269.00" xmlns="http://www.w3.org/2000/svg" xmlns:xlink="http://www.w3.org/1999/xlink">
<g id="graph0" class="graph" transform="scale(1 1) rotate(0) translate(4 265)">
<title>Torus.cpp</title>
<!-- Node1 -->
<g id="Node000001" class="node">
<title>Node1</title>
<g id="a_Node000001"><a xlink:title=" ">
<polygon fill="#999999" stroke="#666666" points="510.5,-261 448.5,-261 448.5,-242 510.5,-242 510.5,-261"/>
<text text-anchor="middle" x="479.5" y="-249" font-family="Helvetica,sans-Serif" font-size="10.00">Torus.cpp</text>
</a>
</g>
</g>
<!-- Node2 -->
<g id="Node000002" class="node">
<title>Node2</title>
<g id="a_Node000002"><a xlink:title=" ">
<polygon fill="#e0e0e0" stroke="#999999" points="47,-151 0,-151 0,-132 47,-132 47,-151"/>
<text text-anchor="middle" x="23.5" y="-139" font-family="Helvetica,sans-Serif" font-size="10.00">cmath</text>
</a>
</g>
</g>
<!-- Node1&#45;&gt;Node2 -->
<g id="edge1_Node000001_Node000002" class="edge">
<title>Node1&#45;&gt;Node2</title>
<g id="a_edge1_Node000001_Node000002"><a xlink:title=" ">
<path fill="none" stroke="#63b8ff" d="M448.16,-243.08C365.48,-223.5 142.04,-170.57 56.99,-150.43"/>
<polygon fill="#63b8ff" stroke="#63b8ff" points="57.62,-146.99 47.09,-148.09 56.01,-153.8 57.62,-146.99"/>
</a>
</g>
</g>
<!-- Node3 -->
<g id="Node000003" class="node">
<title>Node3</title>
<g id="a_Node000003"><a xlink:title=" ">
<polygon fill="#e0e0e0" stroke="#999999" points="473,-206 372,-206 372,-187 473,-187 473,-206"/>
<text text-anchor="middle" x="422.5" y="-194" font-family="Helvetica,sans-Serif" font-size="10.00">shapes/Torus.hpp</text>
</a>
</g>
</g>
<!-- Node1&#45;&gt;Node3 -->
<g id="edge2_Node000001_Node000003" class="edge">
<title>Node1&#45;&gt;Node3</title>
<g id="a_edge2_Node000001_Node000003"><a xlink:title=" ">
<path fill="none" stroke="#63b8ff" d="M470.34,-241.98C462,-234.23 449.47,-222.58 439.32,-213.14"/>
<polygon fill="#63b8ff" stroke="#63b8ff" points="441.53,-210.42 431.82,-206.17 436.76,-215.54 441.53,-210.42"/>
</a>
</g>
</g>
<!-- Node4 -->
<g id="Node000004" class="node">
<title>Node4</title>
<g id="a_Node000004"><a xlink:href="Vector_8hpp.html" target="_top" xlink:title="Vector implementation and trait types for boost qvm interoperability.">
<polygon fill="white" stroke="#666666" points="583.5,-206 491.5,-206 491.5,-187 583.5,-187 583.5,-206"/>
<text text-anchor="middle" x="537.5" y="-194" font-family="Helvetica,sans-Serif" font-size="10.00">utils/Vector.hpp</text>
</a>
</g>
</g>
<!-- Node1&#45;&gt;Node4 -->
<g id="edge3_Node000001_Node000004" class="edge">
<title>Node1&#45;&gt;Node4</title>
<g id="a_edge3_Node000001_Node000004"><a xlink:title=" ">
<path fill="none" stroke="#63b8ff" d="M488.82,-241.98C497.31,-234.23 510.06,-222.58 520.38,-213.14"/>
<polygon fill="#63b8ff" stroke="#63b8ff" points="522.99,-215.5 528.01,-206.17 518.27,-210.33 522.99,-215.5"/>
</a>
</g>
</g>
<!-- Node33 -->
<g id="Node000033" class="node">
<title>Node33</title>
<g id="a_Node000033"><a xlink:href="sqr_8hpp.html" target="_top" xlink:title=" ">
<polygon fill="white" stroke="#666666" points="1097.5,-206 993.5,-206 993.5,-187 1097.5,-187 1097.5,-206"/>
<text text-anchor="middle" x="1045.5" y="-194" font-family="Helvetica,sans-Serif" font-size="10.00">utils/math/sqr.hpp</text>
</a>
</g>
</g>
<!-- Node1&#45;&gt;Node33 -->
<g id="edge41_Node000001_Node000033" class="edge">
<title>Node1&#45;&gt;Node33</title>
<g id="a_edge41_Node000001_Node000033"><a xlink:title=" ">
<path fill="none" stroke="#63b8ff" d="M510.74,-247.57C600.81,-239.14 862.3,-214.65 983.04,-203.35"/>
<polygon fill="#63b8ff" stroke="#63b8ff" points="983.6,-206.81 993.24,-202.39 982.95,-199.84 983.6,-206.81"/>
</a>
</g>
</g>
<!-- Node4&#45;&gt;Node2 -->
<g id="edge32_Node000004_Node000002" class="edge">
<title>Node4&#45;&gt;Node2</title>
<g id="a_edge32_Node000004_Node000002"><a xlink:title=" ">
<path fill="none" stroke="#63b8ff" d="M491.39,-188.26C488.04,-187.81 484.72,-187.38 481.5,-187 295.45,-164.93 246.67,-179.51 61.5,-151 60.04,-150.77 58.55,-150.53 57.05,-150.26"/>
<polygon fill="#63b8ff" stroke="#63b8ff" points="57.61,-146.8 47.12,-148.3 56.26,-153.67 57.61,-146.8"/>
</a>
</g>
</g>
<!-- Node5 -->
<g id="Node000005" class="node">
<title>Node5</title>
<g id="a_Node000005"><a xlink:title=" ">
<polygon fill="#e0e0e0" stroke="#999999" points="804.5,-151 654.5,-151 654.5,-132 804.5,-132 804.5,-151"/>
<text text-anchor="middle" x="729.5" y="-139" font-family="Helvetica,sans-Serif" font-size="10.00">boost/qvm/deduce_vec.hpp</text>
</a>
</g>
</g>
<!-- Node4&#45;&gt;Node5 -->
<g id="edge4_Node000004_Node000005" class="edge">
<title>Node4&#45;&gt;Node5</title>
<g id="a_edge4_Node000004_Node000005"><a xlink:title=" ">
<path fill="none" stroke="#63b8ff" d="M568.35,-186.98C601,-177.97 652.7,-163.7 688.7,-153.76"/>
<polygon fill="#63b8ff" stroke="#63b8ff" points="689.7,-157.12 698.41,-151.08 687.84,-150.37 689.7,-157.12"/>
</a>
</g>
</g>
<!-- Node6 -->
<g id="Node000006" class="node">
<title>Node6</title>
<g id="a_Node000006"><a xlink:title=" ">
<polygon fill="#e0e0e0" stroke="#999999" points="962.5,-151 822.5,-151 822.5,-132 962.5,-132 962.5,-151"/>
<text text-anchor="middle" x="892.5" y="-139" font-family="Helvetica,sans-Serif" font-size="10.00">boost/qvm/vec_traits.hpp</text>
</a>
</g>
</g>
<!-- Node4&#45;&gt;Node6 -->
<g id="edge5_Node000004_Node000006" class="edge">
<title>Node4&#45;&gt;Node6</title>
<g id="a_edge5_Node000004_Node000006"><a xlink:title=" ">
<path fill="none" stroke="#63b8ff" d="M583.55,-188.63C645.06,-179.44 754.49,-163.1 825.24,-152.54"/>
<polygon fill="#63b8ff" stroke="#63b8ff" points="826.01,-155.97 835.38,-151.03 824.98,-149.04 826.01,-155.97"/>
</a>
</g>
</g>
<!-- Node7 -->
<g id="Node000007" class="node">
<title>Node7</title>
<g id="a_Node000007"><a xlink:href="Array_8hpp.html" target="_top" xlink:title="Array implementation with CUDA support.">
<polygon fill="white" stroke="#666666" points="1066.5,-151 980.5,-151 980.5,-132 1066.5,-132 1066.5,-151"/>
<text text-anchor="middle" x="1023.5" y="-139" font-family="Helvetica,sans-Serif" font-size="10.00">utils/Array.hpp</text>
</a>
</g>
</g>
<!-- Node4&#45;&gt;Node7 -->
<g id="edge6_Node000004_Node000007" class="edge">
<title>Node4&#45;&gt;Node7</title>
<g id="a_edge6_Node000004_Node000007"><a xlink:title=" ">
<path fill="none" stroke="#63b8ff" d="M583.54,-191.69C661.12,-185.07 823.05,-170.41 970.28,-151.09"/>
<polygon fill="#63b8ff" stroke="#63b8ff" points="970.94,-154.53 980.4,-149.75 970.03,-147.59 970.94,-154.53"/>
</a>
</g>
</g>
<!-- Node9 -->
<g id="Node000009" class="node">
<title>Node9</title>
<g id="a_Node000009"><a xlink:title=" ">
<polygon fill="#e0e0e0" stroke="#999999" points="1833.5,-24.5 1781.5,-24.5 1781.5,-5.5 1833.5,-5.5 1833.5,-24.5"/>
<text text-anchor="middle" x="1807.5" y="-12.5" font-family="Helvetica,sans-Serif" font-size="10.00">cassert</text>
</a>
</g>
</g>
<!-- Node4&#45;&gt;Node9 -->
<g id="edge31_Node000004_Node000009" class="edge">
<title>Node4&#45;&gt;Node9</title>
<g id="a_edge31_Node000004_Node000009"><a xlink:title=" ">
<path fill="none" stroke="#63b8ff" d="M583.71,-195.39C687.13,-194.45 944.8,-188.21 1156.5,-151 1244.77,-135.48 1270.69,-136.77 1350.5,-96 1369.66,-86.21 1368.52,-74 1388.5,-66 1547.63,-2.28 1605.88,-70.24 1772.5,-30 1774.81,-29.44 1777.16,-28.76 1779.51,-28"/>
<polygon fill="#63b8ff" stroke="#63b8ff" points="1780.73,-31.28 1788.93,-24.57 1778.34,-24.71 1780.73,-31.28"/>
</a>
</g>
</g>
<!-- Node10 -->
<g id="Node000010" class="node">
<title>Node10</title>
<g id="a_Node000010"><a xlink:href="get_8hpp.html" target="_top" xlink:title=" ">
<polygon fill="white" stroke="#666666" points="641,-90.5 588,-90.5 588,-71.5 641,-71.5 641,-90.5"/>
<text text-anchor="middle" x="614.5" y="-78.5" font-family="Helvetica,sans-Serif" font-size="10.00">get.hpp</text>
</a>
</g>
</g>
<!-- Node4&#45;&gt;Node10 -->
<g id="edge29_Node000004_Node000010" class="edge">
<title>Node4&#45;&gt;Node10</title>
<g id="a_edge29_Node000004_Node000010"><a xlink:title=" ">
<path fill="none" stroke="#63b8ff" d="M491.38,-188.28C488.04,-187.83 484.72,-187.39 481.5,-187 395.28,-176.46 36.09,-196.29 94.5,-132 126.92,-96.31 464.25,-85.41 577.59,-82.75"/>
<polygon fill="#63b8ff" stroke="#63b8ff" points="577.92,-86.24 587.84,-82.51 577.77,-79.24 577.92,-86.24"/>
</a>
</g>
</g>
<!-- Node11 -->
<g id="Node000011" class="node">
<title>Node11</title>
<g id="a_Node000011"><a xlink:title=" ">
<polygon fill="#e0e0e0" stroke="#999999" points="675,-24.5 622,-24.5 622,-5.5 675,-5.5 675,-24.5"/>
<text text-anchor="middle" x="648.5" y="-12.5" font-family="Helvetica,sans-Serif" font-size="10.00">cstddef</text>
</a>
</g>
</g>
<!-- Node4&#45;&gt;Node11 -->
<g id="edge33_Node000004_Node000011" class="edge">
<title>Node4&#45;&gt;Node11</title>
<g id="a_edge33_Node000004_Node000011"><a xlink:title=" ">
<path fill="none" stroke="#63b8ff" d="M583.67,-195.17C707.96,-193.82 1042.49,-186.85 1075.5,-151 1100.28,-124.09 1085.5,-96.55 1039.5,-66 973.45,-22.13 761.6,-48.54 684.5,-30 682.13,-29.43 679.72,-28.74 677.31,-27.98"/>
<polygon fill="#63b8ff" stroke="#63b8ff" points="678.22,-24.59 667.62,-24.54 675.87,-31.18 678.22,-24.59"/>
</a>
</g>
</g>
<!-- Node23 -->
<g id="Node000023" class="node">
<title>Node23</title>
<g id="a_Node000023"><a xlink:title=" ">
<polygon fill="#e0e0e0" stroke="#999999" points="1341,-90.5 1288,-90.5 1288,-71.5 1341,-71.5 1341,-90.5"/>
<text text-anchor="middle" x="1314.5" y="-78.5" font-family="Helvetica,sans-Serif" font-size="10.00">iterator</text>
</a>
</g>
</g>
<!-- Node4&#45;&gt;Node23 -->
<g id="edge36_Node000004_Node000023" class="edge">
<title>Node4&#45;&gt;Node23</title>
<g id="a_edge36_Node000004_Node000023"><a xlink:title=" ">
<path fill="none" stroke="#63b8ff" d="M583.54,-195.69C681.28,-195.28 916.27,-189.92 1108.5,-151 1173.25,-137.89 1245.83,-110.42 1285.22,-94.38"/>
<polygon fill="#63b8ff" stroke="#63b8ff" points="1286.57,-97.6 1294.49,-90.56 1283.91,-91.13 1286.57,-97.6"/>
</a>
</g>
</g>
<!-- Node26 -->
<g id="Node000026" class="node">
<title>Node26</title>
<g id="a_Node000026"><a xlink:title=" ">
<polygon fill="#e0e0e0" stroke="#999999" points="167.5,-151 103.5,-151 103.5,-132 167.5,-132 167.5,-151"/>
<text text-anchor="middle" x="135.5" y="-139" font-family="Helvetica,sans-Serif" font-size="10.00">algorithm</text>
</a>
</g>
</g>
<!-- Node4&#45;&gt;Node26 -->
<g id="edge30_Node000004_Node000026" class="edge">
<title>Node4&#45;&gt;Node26</title>
<g id="a_edge30_Node000004_Node000026"><a xlink:title=" ">
<path fill="none" stroke="#63b8ff" d="M491.37,-188.37C488.03,-187.9 484.72,-187.43 481.5,-187 349.4,-169.18 312.93,-172.69 177.6,-151.05"/>
<polygon fill="#63b8ff" stroke="#63b8ff" points="178.11,-147.59 167.68,-149.45 176.99,-154.5 178.11,-147.59"/>
</a>
</g>
</g>
<!-- Node27 -->
<g id="Node000027" class="node">
<title>Node27</title>
<g id="a_Node000027"><a xlink:title=" ">
<polygon fill="#e0e0e0" stroke="#999999" points="251,-151 186,-151 186,-132 251,-132 251,-151"/>
<text text-anchor="middle" x="218.5" y="-139" font-family="Helvetica,sans-Serif" font-size="10.00">functional</text>
</a>
</g>
</g>
<!-- Node4&#45;&gt;Node27 -->
<g id="edge34_Node000004_Node000027" class="edge">
<title>Node4&#45;&gt;Node27</title>
<g id="a_edge34_Node000004_Node000027"><a xlink:title=" ">
<path fill="none" stroke="#63b8ff" d="M491.38,-188.38C428.36,-178.61 317.55,-161.27 261.31,-151.25"/>
<polygon fill="#63b8ff" stroke="#63b8ff" points="261.61,-147.75 251.15,-149.41 260.36,-154.63 261.61,-147.75"/>
</a>
</g>
</g>
<!-- Node28 -->
<g id="Node000028" class="node">
<title>Node28</title>
<g id="a_Node000028"><a xlink:title=" ">
<polygon fill="#e0e0e0" stroke="#999999" points="352,-151 269,-151 269,-132 352,-132 352,-151"/>
<text text-anchor="middle" x="310.5" y="-139" font-family="Helvetica,sans-Serif" font-size="10.00">initializer_list</text>
</a>
</g>
</g>
<!-- Node4&#45;&gt;Node28 -->
<g id="edge35_Node000004_Node000028" class="edge">
<title>Node4&#45;&gt;Node28</title>
<g id="a_edge35_Node000004_Node000028"><a xlink:title=" ">
<path fill="none" stroke="#63b8ff" d="M501.03,-186.98C461.93,-177.86 399.73,-163.33 357.11,-153.38"/>
<polygon fill="#63b8ff" stroke="#63b8ff" points="357.79,-149.95 347.26,-151.08 356.2,-156.76 357.79,-149.95"/>
</a>
</g>
</g>
<!-- Node29 -->
<g id="Node000029" class="node">
<title>Node29</title>
<g id="a_Node000029"><a xlink:title=" ">
<polygon fill="#e0e0e0" stroke="#999999" points="426.5,-151 370.5,-151 370.5,-132 426.5,-132 426.5,-151"/>
<text text-anchor="middle" x="398.5" y="-139" font-family="Helvetica,sans-Serif" font-size="10.00">numeric</text>
</a>
</g>
</g>
<!-- Node4&#45;&gt;Node29 -->
<g id="edge37_Node000004_Node000029" class="edge">
<title>Node4&#45;&gt;Node29</title>
<g id="a_edge37_Node000004_Node000029"><a xlink:title=" ">
<path fill="none" stroke="#63b8ff" d="M515.17,-186.98C492.3,-178.27 456.54,-164.63 430.64,-154.75"/>
<polygon fill="#63b8ff" stroke="#63b8ff" points="431.83,-151.46 421.24,-151.17 429.34,-158 431.83,-151.46"/>
</a>
</g>
</g>
<!-- Node30 -->
<g id="Node000030" class="node">
<title>Node30</title>
<g id="a_Node000030"><a xlink:title=" ">
<polygon fill="#e0e0e0" stroke="#999999" points="484.5,-151 444.5,-151 444.5,-132 484.5,-132 484.5,-151"/>
<text text-anchor="middle" x="464.5" y="-139" font-family="Helvetica,sans-Serif" font-size="10.00">span</text>
</a>
</g>
</g>
<!-- Node4&#45;&gt;Node30 -->
<g id="edge38_Node000004_Node000030" class="edge">
<title>Node4&#45;&gt;Node30</title>
<g id="a_edge38_Node000004_Node000030"><a xlink:title=" ">
<path fill="none" stroke="#63b8ff" d="M525.77,-186.98C514.77,-179 498.08,-166.88 484.9,-157.31"/>
<polygon fill="#63b8ff" stroke="#63b8ff" points="486.59,-154.21 476.44,-151.17 482.48,-159.88 486.59,-154.21"/>
</a>
</g>
</g>
<!-- Node31 -->
<g id="Node000031" class="node">
<title>Node31</title>
<g id="a_Node000031"><a xlink:title=" ">
<polygon fill="#e0e0e0" stroke="#999999" points="572,-151 503,-151 503,-132 572,-132 572,-151"/>
<text text-anchor="middle" x="537.5" y="-139" font-family="Helvetica,sans-Serif" font-size="10.00">type_traits</text>
</a>
</g>
</g>
<!-- Node4&#45;&gt;Node31 -->
<g id="edge39_Node000004_Node000031" class="edge">
<title>Node4&#45;&gt;Node31</title>
<g id="a_edge39_Node000004_Node000031"><a xlink:title=" ">
<path fill="none" stroke="#63b8ff" d="M537.5,-186.75C537.5,-179.8 537.5,-169.85 537.5,-161.13"/>
<polygon fill="#63b8ff" stroke="#63b8ff" points="541,-161.09 537.5,-151.09 534,-161.09 541,-161.09"/>
</a>
</g>
</g>
<!-- Node32 -->
<g id="Node000032" class="node">
<title>Node32</title>
<g id="a_Node000032"><a xlink:title=" ">
<polygon fill="#e0e0e0" stroke="#999999" points="637,-151 590,-151 590,-132 637,-132 637,-151"/>
<text text-anchor="middle" x="613.5" y="-139" font-family="Helvetica,sans-Serif" font-size="10.00">vector</text>
</a>
</g>
</g>
<!-- Node4&#45;&gt;Node32 -->
<g id="edge40_Node000004_Node000032" class="edge">
<title>Node4&#45;&gt;Node32</title>
<g id="a_edge40_Node000004_Node000032"><a xlink:title=" ">
<path fill="none" stroke="#63b8ff" d="M549.71,-186.98C561.28,-178.92 578.88,-166.65 592.66,-157.03"/>
<polygon fill="#63b8ff" stroke="#63b8ff" points="594.87,-159.76 601.07,-151.17 590.86,-154.02 594.87,-159.76"/>
</a>
</g>
</g>
<!-- Node8 -->
<g id="Node000008" class="node">
<title>Node8</title>
<g id="a_Node000008"><a xlink:href="device__qualifier_8hpp.html" target="_top" xlink:title=" ">
<polygon fill="white" stroke="#666666" points="1511.5,-90.5 1397.5,-90.5 1397.5,-71.5 1511.5,-71.5 1511.5,-90.5"/>
<text text-anchor="middle" x="1454.5" y="-78.5" font-family="Helvetica,sans-Serif" font-size="10.00">device_qualifier.hpp</text>
</a>
</g>
</g>
<!-- Node7&#45;&gt;Node8 -->
<g id="edge7_Node000007_Node000008" class="edge">
<title>Node7&#45;&gt;Node8</title>
<g id="a_edge7_Node000007_Node000008"><a xlink:title=" ">
<path fill="none" stroke="#63b8ff" d="M1066.8,-134.62C1142.13,-124.4 1297.8,-103.27 1387.28,-91.12"/>
<polygon fill="#63b8ff" stroke="#63b8ff" points="1387.88,-94.57 1397.32,-89.76 1386.94,-87.64 1387.88,-94.57"/>
</a>
</g>
</g>
<!-- Node7&#45;&gt;Node9 -->
<g id="edge23_Node000007_Node000009" class="edge">
<title>Node7&#45;&gt;Node9</title>
<g id="a_edge23_Node000007_Node000009"><a xlink:title=" ">
<path fill="none" stroke="#63b8ff" d="M1066.66,-134.01C1120.76,-125.47 1210.07,-109.92 1240.5,-96 1260.39,-86.9 1259.07,-73.79 1279.5,-66 1484.78,12.27 1558.43,-79.38 1772.5,-30 1774.87,-29.45 1777.28,-28.77 1779.69,-28"/>
<polygon fill="#63b8ff" stroke="#63b8ff" points="1781.11,-31.21 1789.31,-24.5 1778.72,-24.63 1781.11,-31.21"/>
</a>
</g>
</g>
<!-- Node7&#45;&gt;Node10 -->
<g id="edge9_Node000007_Node000010" class="edge">
<title>Node7&#45;&gt;Node10</title>
<g id="a_edge9_Node000007_Node000010"><a xlink:title=" ">
<path fill="none" stroke="#63b8ff" d="M980.39,-133.32C977.38,-132.86 974.4,-132.42 971.5,-132 842.06,-113.45 808.43,-117.79 679.5,-96 670.32,-94.45 660.47,-92.49 651.29,-90.52"/>
<polygon fill="#63b8ff" stroke="#63b8ff" points="651.79,-87.05 641.28,-88.33 650.3,-93.89 651.79,-87.05"/>
</a>
</g>
</g>
<!-- Node7&#45;&gt;Node11 -->
<g id="edge24_Node000007_Node000011" class="edge">
<title>Node7&#45;&gt;Node11</title>
<g id="a_edge24_Node000007_Node000011"><a xlink:title=" ">
<path fill="none" stroke="#63b8ff" d="M1026.36,-131.78C1030.82,-116.3 1037.3,-83.96 1020.5,-66 969.19,-11.16 757.46,-47.76 684.5,-30 682.14,-29.42 679.72,-28.73 677.31,-27.96"/>
<polygon fill="#63b8ff" stroke="#63b8ff" points="678.22,-24.57 667.63,-24.52 675.88,-31.17 678.22,-24.57"/>
</a>
</g>
</g>
<!-- Node12 -->
<g id="Node000012" class="node">
<title>Node12</title>
<g id="a_Node000012"><a xlink:title=" ">
<polygon fill="#e0e0e0" stroke="#999999" points="604,-24.5 559,-24.5 559,-5.5 604,-5.5 604,-24.5"/>
<text text-anchor="middle" x="581.5" y="-12.5" font-family="Helvetica,sans-Serif" font-size="10.00">utility</text>
</a>
</g>
</g>
<!-- Node7&#45;&gt;Node12 -->
<g id="edge28_Node000007_Node000012" class="edge">
<title>Node7&#45;&gt;Node12</title>
<g id="a_edge28_Node000007_Node000012"><a xlink:title=" ">
<path fill="none" stroke="#63b8ff" d="M980.37,-133.42C977.37,-132.94 974.39,-132.46 971.5,-132 867.58,-115.51 837.6,-128.42 737.5,-96 686.81,-79.58 632.5,-48.21 603.22,-30.01"/>
<polygon fill="#63b8ff" stroke="#63b8ff" points="604.96,-26.97 594.63,-24.6 601.23,-32.89 604.96,-26.97"/>
</a>
</g>
</g>
<!-- Node13 -->
<g id="Node000013" class="node">
<title>Node13</title>
<g id="a_Node000013"><a xlink:href="array_8hpp.html" target="_top" xlink:title=" ">
<polygon fill="white" stroke="#666666" points="1231,-90.5 1106,-90.5 1106,-71.5 1231,-71.5 1231,-90.5"/>
<text text-anchor="middle" x="1168.5" y="-78.5" font-family="Helvetica,sans-Serif" font-size="10.00">serialization/array.hpp</text>
</a>
</g>
</g>
<!-- Node7&#45;&gt;Node13 -->
<g id="edge12_Node000007_Node000013" class="edge">
<title>Node7&#45;&gt;Node13</title>
<g id="a_edge12_Node000007_Node000013"><a xlink:title=" ">
<path fill="none" stroke="#63b8ff" d="M1044.58,-131.99C1069.18,-122.07 1110.03,-105.59 1138.06,-94.28"/>
<polygon fill="#63b8ff" stroke="#63b8ff" points="1139.43,-97.5 1147.39,-90.52 1136.81,-91.01 1139.43,-97.5"/>
</a>
</g>
</g>
<!-- Node22 -->
<g id="Node000022" class="node">
<title>Node22</title>
<g id="a_Node000022"><a xlink:title=" ">
<polygon fill="#e0e0e0" stroke="#999999" points="853,-96 746,-96 746,-66 853,-66 853,-96"/>
<text text-anchor="start" x="754" y="-84" font-family="Helvetica,sans-Serif" font-size="10.00">boost/serialization</text>
<text text-anchor="middle" x="799.5" y="-73" font-family="Helvetica,sans-Serif" font-size="10.00">/access.hpp</text>
</a>
</g>
</g>
<!-- Node7&#45;&gt;Node22 -->
<g id="edge22_Node000007_Node000022" class="edge">
<title>Node7&#45;&gt;Node22</title>
<g id="a_edge22_Node000007_Node000022"><a xlink:title=" ">
<path fill="none" stroke="#63b8ff" d="M990.93,-131.99C957.57,-123.28 904.83,-109.51 863.15,-98.62"/>
<polygon fill="#63b8ff" stroke="#63b8ff" points="863.91,-95.2 853.35,-96.06 862.14,-101.98 863.91,-95.2"/>
</a>
</g>
</g>
<!-- Node7&#45;&gt;Node23 -->
<g id="edge25_Node000007_Node000023" class="edge">
<title>Node7&#45;&gt;Node23</title>
<g id="a_edge25_Node000007_Node000023"><a xlink:title=" ">
<path fill="none" stroke="#63b8ff" d="M1066.84,-134.84C1117.04,-127.81 1202,-114.46 1273.5,-96 1276.14,-95.32 1278.85,-94.55 1281.57,-93.73"/>
<polygon fill="#63b8ff" stroke="#63b8ff" points="1282.82,-97.01 1291.27,-90.62 1280.68,-90.34 1282.82,-97.01"/>
</a>
</g>
</g>
<!-- Node24 -->
<g id="Node000024" class="node">
<title>Node24</title>
<g id="a_Node000024"><a xlink:title=" ">
<polygon fill="#e0e0e0" stroke="#999999" points="928,-90.5 871,-90.5 871,-71.5 928,-71.5 928,-90.5"/>
<text text-anchor="middle" x="899.5" y="-78.5" font-family="Helvetica,sans-Serif" font-size="10.00">ostream</text>
</a>
</g>
</g>
<!-- Node7&#45;&gt;Node24 -->
<g id="edge26_Node000007_Node000024" class="edge">
<title>Node7&#45;&gt;Node24</title>
<g id="a_edge26_Node000007_Node000024"><a xlink:title=" ">
<path fill="none" stroke="#63b8ff" d="M1005.47,-131.99C984.81,-122.25 950.72,-106.16 926.8,-94.88"/>
<polygon fill="#63b8ff" stroke="#63b8ff" points="928.09,-91.62 917.55,-90.52 925.1,-97.95 928.09,-91.62"/>
</a>
</g>
</g>
<!-- Node25 -->
<g id="Node000025" class="node">
<title>Node25</title>
<g id="a_Node000025"><a xlink:title=" ">
<polygon fill="#e0e0e0" stroke="#999999" points="1011,-90.5 946,-90.5 946,-71.5 1011,-71.5 1011,-90.5"/>
<text text-anchor="middle" x="978.5" y="-78.5" font-family="Helvetica,sans-Serif" font-size="10.00">stdexcept</text>
</a>
</g>
</g>
<!-- Node7&#45;&gt;Node25 -->
<g id="edge27_Node000007_Node000025" class="edge">
<title>Node7&#45;&gt;Node25</title>
<g id="a_edge27_Node000007_Node000025"><a xlink:title=" ">
<path fill="none" stroke="#63b8ff" d="M1016.86,-131.87C1010.21,-123.23 999.81,-109.7 991.51,-98.92"/>
<polygon fill="#63b8ff" stroke="#63b8ff" points="994.04,-96.46 985.17,-90.67 988.49,-100.73 994.04,-96.46"/>
</a>
</g>
</g>
<!-- Node8&#45;&gt;Node9 -->
<g id="edge8_Node000008_Node000009" class="edge">
<title>Node8&#45;&gt;Node9</title>
<g id="a_edge8_Node000008_Node000009"><a xlink:title=" ">
<path fill="none" stroke="#63b8ff" d="M1511.61,-74.92C1575.89,-68.31 1683.05,-54.59 1772.5,-30 1774.44,-29.47 1776.42,-28.86 1778.4,-28.2"/>
<polygon fill="#63b8ff" stroke="#63b8ff" points="1779.95,-31.36 1788.14,-24.64 1777.55,-24.79 1779.95,-31.36"/>
</a>
</g>
</g>
<!-- Node10&#45;&gt;Node11 -->
<g id="edge10_Node000010_Node000011" class="edge">
<title>Node10&#45;&gt;Node11</title>
<g id="a_edge10_Node000010_Node000011"><a xlink:title=" ">
<path fill="none" stroke="#63b8ff" d="M619.09,-71.37C624.18,-61.78 632.54,-46.05 639.04,-33.8"/>
<polygon fill="#63b8ff" stroke="#63b8ff" points="642.17,-35.38 643.77,-24.91 635.99,-32.09 642.17,-35.38"/>
</a>
</g>
</g>
<!-- Node10&#45;&gt;Node12 -->
<g id="edge11_Node000010_Node000012" class="edge">
<title>Node10&#45;&gt;Node12</title>
<g id="a_edge11_Node000010_Node000012"><a xlink:title=" ">
<path fill="none" stroke="#63b8ff" d="M610.05,-71.37C605.11,-61.78 596.99,-46.05 590.68,-33.8"/>
<polygon fill="#63b8ff" stroke="#63b8ff" points="593.79,-32.19 586.09,-24.91 587.56,-35.4 593.79,-32.19"/>
</a>
</g>
</g>
<!-- Node13&#45;&gt;Node11 -->
<g id="edge21_Node000013_Node000011" class="edge">
<title>Node13&#45;&gt;Node11</title>
<g id="a_edge21_Node000013_Node000011"><a xlink:title=" ">
<path fill="none" stroke="#63b8ff" d="M1125.44,-71.45C1114.41,-69.46 1102.54,-67.49 1091.5,-66 911.53,-41.73 861.33,-71.32 684.5,-30 682.13,-29.45 679.71,-28.77 677.3,-28.01"/>
<polygon fill="#63b8ff" stroke="#63b8ff" points="678.21,-24.62 667.61,-24.59 675.87,-31.22 678.21,-24.62"/>
</a>
</g>
</g>
<!-- Node14 -->
<g id="Node000014" class="node">
<title>Node14</title>
<g id="a_Node000014"><a xlink:title=" ">
<polygon fill="#e0e0e0" stroke="#999999" points="957,-24.5 824,-24.5 824,-5.5 957,-5.5 957,-24.5"/>
<text text-anchor="middle" x="890.5" y="-12.5" font-family="Helvetica,sans-Serif" font-size="10.00">boost/mpl/bool_fwd.hpp</text>
</a>
</g>
</g>
<!-- Node13&#45;&gt;Node14 -->
<g id="edge13_Node000013_Node000014" class="edge">
<title>Node13&#45;&gt;Node14</title>
<g id="a_edge13_Node000013_Node000014"><a xlink:title=" ">
<path fill="none" stroke="#63b8ff" d="M1131.3,-71.44C1081.15,-59.89 991.89,-39.34 937.26,-26.77"/>
<polygon fill="#63b8ff" stroke="#63b8ff" points="938.01,-23.35 927.48,-24.51 936.44,-30.17 938.01,-23.35"/>
</a>
</g>
</g>
<!-- Node15 -->
<g id="Node000015" class="node">
<title>Node15</title>
<g id="a_Node000015"><a xlink:title=" ">
<polygon fill="#e0e0e0" stroke="#999999" points="1099.5,-24.5 975.5,-24.5 975.5,-5.5 1099.5,-5.5 1099.5,-24.5"/>
<text text-anchor="middle" x="1037.5" y="-12.5" font-family="Helvetica,sans-Serif" font-size="10.00">boost/mpl/greater.hpp</text>
</a>
</g>
</g>
<!-- Node13&#45;&gt;Node15 -->
<g id="edge14_Node000013_Node000015" class="edge">
<title>Node13&#45;&gt;Node15</title>
<g id="a_edge14_Node000013_Node000015"><a xlink:title=" ">
<path fill="none" stroke="#63b8ff" d="M1150.83,-71.37C1128.66,-60.54 1090.42,-41.85 1064.55,-29.22"/>
<polygon fill="#63b8ff" stroke="#63b8ff" points="1065.83,-25.94 1055.31,-24.7 1062.75,-32.23 1065.83,-25.94"/>
</a>
</g>
</g>
<!-- Node16 -->
<g id="Node000016" class="node">
<title>Node16</title>
<g id="a_Node000016"><a xlink:title=" ">
<polygon fill="#e0e0e0" stroke="#999999" points="1219.5,-24.5 1117.5,-24.5 1117.5,-5.5 1219.5,-5.5 1219.5,-24.5"/>
<text text-anchor="middle" x="1168.5" y="-12.5" font-family="Helvetica,sans-Serif" font-size="10.00">boost/mpl/int.hpp</text>
</a>
</g>
</g>
<!-- Node13&#45;&gt;Node16 -->
<g id="edge15_Node000013_Node000016" class="edge">
<title>Node13&#45;&gt;Node16</title>
<g id="a_edge15_Node000013_Node000016"><a xlink:title=" ">
<path fill="none" stroke="#63b8ff" d="M1168.5,-71.37C1168.5,-62.16 1168.5,-47.29 1168.5,-35.27"/>
<polygon fill="#63b8ff" stroke="#63b8ff" points="1172,-34.91 1168.5,-24.91 1165,-34.91 1172,-34.91"/>
</a>
</g>
</g>
<!-- Node17 -->
<g id="Node000017" class="node">
<title>Node17</title>
<g id="a_Node000017"><a xlink:title=" ">
<polygon fill="#e0e0e0" stroke="#999999" points="1343.5,-30 1237.5,-30 1237.5,0 1343.5,0 1343.5,-30"/>
<text text-anchor="start" x="1245.5" y="-18" font-family="Helvetica,sans-Serif" font-size="10.00">boost/mpl/integral</text>
<text text-anchor="middle" x="1290.5" y="-7" font-family="Helvetica,sans-Serif" font-size="10.00">_c_tag.hpp</text>
</a>
</g>
</g>
<!-- Node13&#45;&gt;Node17 -->
<g id="edge16_Node000013_Node000017" class="edge">
<title>Node13&#45;&gt;Node17</title>
<g id="a_edge16_Node000013_Node000017"><a xlink:title=" ">
<path fill="none" stroke="#63b8ff" d="M1184.95,-71.37C1202.67,-62.07 1231.42,-46.99 1254.45,-34.91"/>
<polygon fill="#63b8ff" stroke="#63b8ff" points="1256.36,-37.86 1263.59,-30.12 1253.11,-31.66 1256.36,-37.86"/>
</a>
</g>
</g>
<!-- Node18 -->
<g id="Node000018" class="node">
<title>Node18</title>
<g id="a_Node000018"><a xlink:title=" ">
<polygon fill="#e0e0e0" stroke="#999999" points="1513,-30 1362,-30 1362,0 1513,0 1513,-30"/>
<text text-anchor="start" x="1370" y="-18" font-family="Helvetica,sans-Serif" font-size="10.00">boost/serialization</text>
<text text-anchor="middle" x="1437.5" y="-7" font-family="Helvetica,sans-Serif" font-size="10.00">/is_bitwise_serializable.hpp</text>
</a>
</g>
</g>
<!-- Node13&#45;&gt;Node18 -->
<g id="edge17_Node000013_Node000018" class="edge">
<title>Node13&#45;&gt;Node18</title>
<g id="a_edge17_Node000013_Node000018"><a xlink:title=" ">
<path fill="none" stroke="#63b8ff" d="M1204.5,-71.44C1246.33,-61.48 1316.29,-44.84 1368.66,-32.38"/>
<polygon fill="#63b8ff" stroke="#63b8ff" points="1369.63,-35.74 1378.55,-30.02 1368.01,-28.93 1369.63,-35.74"/>
</a>
</g>
</g>
<!-- Node19 -->
<g id="Node000019" class="node">
<title>Node19</title>
<g id="a_Node000019"><a xlink:title=" ">
<polygon fill="#e0e0e0" stroke="#999999" points="1638,-30 1531,-30 1531,0 1638,0 1638,-30"/>
<text text-anchor="start" x="1539" y="-18" font-family="Helvetica,sans-Serif" font-size="10.00">boost/serialization</text>
<text text-anchor="middle" x="1584.5" y="-7" font-family="Helvetica,sans-Serif" font-size="10.00">/level.hpp</text>
</a>
</g>
</g>
<!-- Node13&#45;&gt;Node19 -->
<g id="edge18_Node000013_Node000019" class="edge">
<title>Node13&#45;&gt;Node19</title>
<g id="a_edge18_Node000013_Node000019"><a xlink:title=" ">
<path fill="none" stroke="#63b8ff" d="M1213.22,-71.47C1223.79,-69.57 1235.03,-67.63 1245.5,-66 1364.93,-47.39 1398.51,-51.46 1520.67,-30.23"/>
<polygon fill="#63b8ff" stroke="#63b8ff" points="1521.55,-33.63 1530.79,-28.45 1520.34,-26.73 1521.55,-33.63"/>
</a>
</g>
</g>
<!-- Node20 -->
<g id="Node000020" class="node">
<title>Node20</title>
<g id="a_Node000020"><a xlink:title=" ">
<polygon fill="#e0e0e0" stroke="#999999" points="1763,-30 1656,-30 1656,0 1763,0 1763,-30"/>
<text text-anchor="start" x="1664" y="-18" font-family="Helvetica,sans-Serif" font-size="10.00">boost/serialization</text>
<text text-anchor="middle" x="1709.5" y="-7" font-family="Helvetica,sans-Serif" font-size="10.00">/tracking.hpp</text>
</a>
</g>
</g>
<!-- Node13&#45;&gt;Node20 -->
<g id="edge19_Node000013_Node000020" class="edge">
<title>Node13&#45;&gt;Node20</title>
<g id="a_edge19_Node000013_Node000020"><a xlink:title=" ">
<path fill="none" stroke="#63b8ff" d="M1211.56,-71.46C1222.59,-69.47 1234.46,-67.49 1245.5,-66 1420.05,-42.37 1468.55,-57.26 1645.89,-30.12"/>
<polygon fill="#63b8ff" stroke="#63b8ff" points="1646.47,-33.57 1655.82,-28.58 1645.4,-26.66 1646.47,-33.57"/>
</a>
</g>
</g>
<!-- Node21 -->
<g id="Node000021" class="node">
<title>Node21</title>
<g id="a_Node000021"><a xlink:title=" ">
<polygon fill="#e0e0e0" stroke="#999999" points="806,-30 693,-30 693,0 806,0 806,-30"/>
<text text-anchor="start" x="701" y="-18" font-family="Helvetica,sans-Serif" font-size="10.00">boost/serialization</text>
<text text-anchor="middle" x="749.5" y="-7" font-family="Helvetica,sans-Serif" font-size="10.00">/tracking_enum.hpp</text>
</a>
</g>
</g>
<!-- Node13&#45;&gt;Node21 -->
<g id="edge20_Node000013_Node000021" class="edge">
<title>Node13&#45;&gt;Node21</title>
<g id="a_edge20_Node000013_Node000021"><a xlink:title=" ">
<path fill="none" stroke="#63b8ff" d="M1123.78,-71.48C1113.21,-69.57 1101.97,-67.63 1091.5,-66 972.5,-47.43 939.18,-50.66 816.49,-30.08"/>
<polygon fill="#63b8ff" stroke="#63b8ff" points="816.77,-26.58 806.33,-28.35 815.6,-33.48 816.77,-26.58"/>
</a>
</g>
</g>
<!-- Node33&#45;&gt;Node8 -->
<g id="edge42_Node000033_Node000008" class="edge">
<title>Node33&#45;&gt;Node8</title>
<g id="a_edge42_Node000033_Node000008"><a xlink:title=" ">
<path fill="none" stroke="#63b8ff" d="M1097.7,-192.64C1179.65,-187.48 1334.23,-174.86 1383.5,-151 1408.3,-138.99 1429.88,-114.96 1442.55,-98.68"/>
<polygon fill="#63b8ff" stroke="#63b8ff" points="1445.44,-100.66 1448.64,-90.56 1439.84,-96.46 1445.44,-100.66"/>
</a>
</g>
</g>
</g>
</svg>
