<?xml version="1.0" encoding="UTF-8" standalone="no"?>
<!DOCTYPE svg PUBLIC "-//W3C//DTD SVG 1.1//EN"
 "http://www.w3.org/Graphics/SVG/1.1/DTD/svg11.dtd">
<!-- Generated by graphviz version 2.43.0 (0)
 -->
<!-- Title: Torus.cpp Pages: 1 -->
<!--zoomable 269 -->

<svg id="main" version="1.1" xmlns="http://www.w3.org/2000/svg" xmlns:xlink="http://www.w3.org/1999/xlink" xml:space="preserve" onload="init(evt)">
<style type="text/css"><![CDATA[
.node, .edge {opacity: 0.7;}
.node.selected, .edge.selected {opacity: 1;}
.edge:hover path { stroke: red; }
.edge:hover polygon { stroke: red; fill: red; }
]]></style>

<defs>
  <circle id="rim" cx="0" cy="0" r="7"/>
  <circle id="rim2" cx="0" cy="0" r="3.5"/>
  <g id="zoomPlus">
    <use xlink:href="#rim" fill="#404040"><set attributeName="fill" to="#808080" begin="zoomplus.mouseover" end="zoomplus.mouseout"/></use>
    <path d="M-4,0h8M0,-4v8" fill="none" stroke="white" stroke-width="1.5" pointer-events="none"/>
  </g>
  <g id="zoomMin">
    <use xlink:href="#rim" fill="#404040"><set attributeName="fill" to="#808080" begin="zoomminus.mouseover" end="zoomminus.mouseout"/></use>
    <path d="M-4,0h8" fill="none" stroke="white" stroke-width="1.5" pointer-events="none"/>
  </g>
  <g id="arrowUp" transform="translate(30 24)">
    <use xlink:href="#rim"/>
    <path pointer-events="none" fill="none" stroke="white" stroke-width="1.5" d="M0,-3.0v7 M-2.5,-0.5L0,-3.0L2.5,-0.5"/>
  </g>
  <g id="arrowRight" transform="rotate(90) translate(36 -43)">
    <use xlink:href="#rim"/>
    <path pointer-events="none" fill="none" stroke="white" stroke-width="1.5" d="M0,-3.0v7 M-2.5,-0.5L0,-3.0L2.5,-0.5"/>
  </g>
  <g id="arrowDown" transform="rotate(180) translate(-30 -48)">
    <use xlink:href="#rim"/>
    <path pointer-events="none" fill="none" stroke="white" stroke-width="1.5" d="M0,-3.0v7 M-2.5,-0.5L0,-3.0L2.5,-0.5"/>
  </g>
  <g id="arrowLeft" transform="rotate(270) translate(-36 17)">
    <use xlink:href="#rim"/>
    <path pointer-events="none" fill="none" stroke="white" stroke-width="1.5" d="M0,-3.0v7 M-2.5,-0.5L0,-3.0L2.5,-0.5"/>
  </g>
  <g id="resetDef">
    <use xlink:href="#rim2" fill="#404040"><set attributeName="fill" to="#808080" begin="reset.mouseover" end="reset.mouseout"/></use>
  </g>
</defs>
<script type="application/ecmascript">
var viewWidth = 1816;
var viewHeight = 269;
var sectionId = 'dynsection-0';
</script>
<script type="application/ecmascript" xlink:href="svg.min.js"/>
<svg id="graph" class="graph">
<g id="viewport">
<title>Torus.cpp</title>
<!-- Node1 -->
<g id="Node000001" class="node">
<title>Node1</title>
<g id="a_Node000001"><a xlink:title=" ">
<polygon fill="#999999" stroke="#666666" points="926,-261 864,-261 864,-242 926,-242 926,-261"/>
<text text-anchor="middle" x="895" y="-249" font-family="Helvetica,sans-Serif" font-size="10.00">Torus.cpp</text>
</a>
</g>
</g>
<!-- Node2 -->
<g id="Node000002" class="node">
<title>Node2</title>
<g id="a_Node000002"><a xlink:title=" ">
<polygon fill="#e0e0e0" stroke="#999999" points="356.5,-151 309.5,-151 309.5,-132 356.5,-132 356.5,-151"/>
<text text-anchor="middle" x="333" y="-139" font-family="Helvetica,sans-Serif" font-size="10.00">cmath</text>
</a>
</g>
</g>
<!-- Node1&#45;&gt;Node2 -->
<g id="edge1_Node000001_Node000002" class="edge">
<title>Node1&#45;&gt;Node2</title>
<g id="a_edge1_Node000001_Node000002"><a xlink:title=" ">
<path fill="none" stroke="#63b8ff" d="M868.03,-241.93C824.49,-228.4 735.82,-202.06 659,-187 532.41,-162.18 498.09,-173.1 371,-151 369.54,-150.75 368.06,-150.47 366.56,-150.19"/>
<polygon fill="#63b8ff" stroke="#63b8ff" points="367.15,-146.74 356.65,-148.16 365.74,-153.59 367.15,-146.74"/>
</a>
</g>
</g>
<!-- Node3 -->
<g id="Node000003" class="node">
<title>Node3</title>
<g id="a_Node000003"><a xlink:title=" ">
<polygon fill="#e0e0e0" stroke="#999999" points="1187.5,-206 1086.5,-206 1086.5,-187 1187.5,-187 1187.5,-206"/>
<text text-anchor="middle" x="1137" y="-194" font-family="Helvetica,sans-Serif" font-size="10.00">shapes/Torus.hpp</text>
</a>
</g>
</g>
<!-- Node1&#45;&gt;Node3 -->
<g id="edge2_Node000001_Node000003" class="edge">
<title>Node1&#45;&gt;Node3</title>
<g id="a_edge2_Node000001_Node000003"><a xlink:title=" ">
<path fill="none" stroke="#63b8ff" d="M926.14,-243.68C967.14,-234.7 1039.67,-218.82 1088.04,-208.22"/>
<polygon fill="#63b8ff" stroke="#63b8ff" points="1088.96,-211.61 1097.98,-206.05 1087.46,-204.77 1088.96,-211.61"/>
</a>
</g>
</g>
<!-- Node4 -->
<g id="Node000004" class="node">
<title>Node4</title>
<g id="a_Node000004"><a xlink:href="Vector_8hpp.html" target="_top" xlink:title="Vector implementation and trait types for boost qvm interoperability.">
<polygon fill="white" stroke="#666666" points="1068,-206 976,-206 976,-187 1068,-187 1068,-206"/>
<text text-anchor="middle" x="1022" y="-194" font-family="Helvetica,sans-Serif" font-size="10.00">utils/Vector.hpp</text>
</a>
</g>
</g>
<!-- Node1&#45;&gt;Node4 -->
<g id="edge3_Node000001_Node000004" class="edge">
<title>Node1&#45;&gt;Node4</title>
<g id="a_edge3_Node000001_Node000004"><a xlink:title=" ">
<path fill="none" stroke="#63b8ff" d="M915.4,-241.98C936.02,-233.38 968.11,-219.99 991.69,-210.15"/>
<polygon fill="#63b8ff" stroke="#63b8ff" points="993.34,-213.25 1001.22,-206.17 990.65,-206.79 993.34,-213.25"/>
</a>
</g>
</g>
<!-- Node33 -->
<g id="Node000033" class="node">
<title>Node33</title>
<g id="a_Node000033"><a xlink:href="sqr_8hpp.html" target="_top" xlink:title=" ">
<polygon fill="white" stroke="#666666" points="650,-206 546,-206 546,-187 650,-187 650,-206"/>
<text text-anchor="middle" x="598" y="-194" font-family="Helvetica,sans-Serif" font-size="10.00">utils/math/sqr.hpp</text>
</a>
</g>
</g>
<!-- Node1&#45;&gt;Node33 -->
<g id="edge39_Node000001_Node000033" class="edge">
<title>Node1&#45;&gt;Node33</title>
<g id="a_edge39_Node000001_Node000033"><a xlink:title=" ">
<path fill="none" stroke="#63b8ff" d="M863.78,-244.93C814.54,-236.14 718.08,-218.93 655.91,-207.83"/>
<polygon fill="#63b8ff" stroke="#63b8ff" points="656.32,-204.35 645.86,-206.04 655.09,-211.24 656.32,-204.35"/>
</a>
</g>
</g>
<!-- Node4&#45;&gt;Node2 -->
<g id="edge30_Node000004_Node000002" class="edge">
<title>Node4&#45;&gt;Node2</title>
<g id="a_edge30_Node000004_Node000002"><a xlink:title=" ">
<path fill="none" stroke="#63b8ff" d="M975.69,-192.74C836.91,-184.42 430.35,-159.62 371,-151 369.54,-150.79 368.05,-150.55 366.54,-150.29"/>
<polygon fill="#63b8ff" stroke="#63b8ff" points="367.1,-146.83 356.61,-148.36 365.76,-153.71 367.1,-146.83"/>
</a>
</g>
</g>
<!-- Node5 -->
<g id="Node000005" class="node">
<title>Node5</title>
<g id="a_Node000005"><a xlink:title=" ">
<polygon fill="#e0e0e0" stroke="#999999" points="1650,-151 1500,-151 1500,-132 1650,-132 1650,-151"/>
<text text-anchor="middle" x="1575" y="-139" font-family="Helvetica,sans-Serif" font-size="10.00">boost/qvm/deduce_vec.hpp</text>
</a>
</g>
</g>
<!-- Node4&#45;&gt;Node5 -->
<g id="edge4_Node000004_Node000005" class="edge">
<title>Node4&#45;&gt;Node5</title>
<g id="a_edge4_Node000004_Node000005"><a xlink:title=" ">
<path fill="none" stroke="#63b8ff" d="M1068.18,-188.13C1071.16,-187.73 1074.12,-187.35 1077,-187 1257.58,-165.24 1305.99,-168.31 1489.9,-151.18"/>
<polygon fill="#63b8ff" stroke="#63b8ff" points="1490.27,-154.66 1499.9,-150.24 1489.62,-147.69 1490.27,-154.66"/>
</a>
</g>
</g>
<!-- Node6 -->
<g id="Node000006" class="node">
<title>Node6</title>
<g id="a_Node000006"><a xlink:title=" ">
<polygon fill="#e0e0e0" stroke="#999999" points="1808,-151 1668,-151 1668,-132 1808,-132 1808,-151"/>
<text text-anchor="middle" x="1738" y="-139" font-family="Helvetica,sans-Serif" font-size="10.00">boost/qvm/vec_traits.hpp</text>
</a>
</g>
</g>
<!-- Node4&#45;&gt;Node6 -->
<g id="edge5_Node000004_Node000006" class="edge">
<title>Node4&#45;&gt;Node6</title>
<g id="a_edge5_Node000004_Node000006"><a xlink:title=" ">
<path fill="none" stroke="#63b8ff" d="M1068.17,-188.05C1071.16,-187.67 1074.12,-187.31 1077,-187 1331.39,-159.53 1399.05,-172.53 1657.73,-151.07"/>
<polygon fill="#63b8ff" stroke="#63b8ff" points="1658.13,-154.54 1667.8,-150.22 1657.55,-147.57 1658.13,-154.54"/>
</a>
</g>
</g>
<!-- Node7 -->
<g id="Node000007" class="node">
<title>Node7</title>
<g id="a_Node000007"><a xlink:href="Array_8hpp.html" target="_top" xlink:title="Array implementation with CUDA support.">
<polygon fill="white" stroke="#666666" points="726,-151 640,-151 640,-132 726,-132 726,-151"/>
<text text-anchor="middle" x="683" y="-139" font-family="Helvetica,sans-Serif" font-size="10.00">utils/Array.hpp</text>
</a>
</g>
</g>
<!-- Node4&#45;&gt;Node7 -->
<g id="edge6_Node000004_Node000007" class="edge">
<title>Node4&#45;&gt;Node7</title>
<g id="a_edge6_Node000004_Node000007"><a xlink:title=" ">
<path fill="none" stroke="#63b8ff" d="M975.93,-188.3C913.46,-178.53 802.16,-161.13 736.21,-150.82"/>
<polygon fill="#63b8ff" stroke="#63b8ff" points="736.44,-147.31 726.02,-149.23 735.36,-154.23 736.44,-147.31"/>
</a>
</g>
</g>
<!-- Node9 -->
<g id="Node000009" class="node">
<title>Node9</title>
<g id="a_Node000009"><a xlink:title=" ">
<polygon fill="#e0e0e0" stroke="#999999" points="52,-24.5 0,-24.5 0,-5.5 52,-5.5 52,-24.5"/>
<text text-anchor="middle" x="26" y="-12.5" font-family="Helvetica,sans-Serif" font-size="10.00">cassert</text>
</a>
</g>
</g>
<!-- Node4&#45;&gt;Node9 -->
<g id="edge29_Node000004_Node000009" class="edge">
<title>Node4&#45;&gt;Node9</title>
<g id="a_edge29_Node000004_Node000009"><a xlink:title=" ">
<path fill="none" stroke="#63b8ff" d="M975.61,-194.4C850.57,-190.45 496.94,-172.8 215,-96 154.04,-79.39 86.85,-47.41 51.31,-29.32"/>
<polygon fill="#63b8ff" stroke="#63b8ff" points="52.65,-26.07 42.15,-24.61 49.44,-32.3 52.65,-26.07"/>
</a>
</g>
</g>
<!-- Node11 -->
<g id="Node000011" class="node">
<title>Node11</title>
<g id="a_Node000011"><a xlink:title=" ">
<polygon fill="#e0e0e0" stroke="#999999" points="1211.5,-24.5 1158.5,-24.5 1158.5,-5.5 1211.5,-5.5 1211.5,-24.5"/>
<text text-anchor="middle" x="1185" y="-12.5" font-family="Helvetica,sans-Serif" font-size="10.00">cstddef</text>
</a>
</g>
</g>
<!-- Node4&#45;&gt;Node11 -->
<g id="edge31_Node000004_Node000011" class="edge">
<title>Node4&#45;&gt;Node11</title>
<g id="a_edge31_Node000004_Node000011"><a xlink:title=" ">
<path fill="none" stroke="#63b8ff" d="M993.06,-186.93C963.48,-176.57 923.97,-157.33 940,-132 952.42,-112.37 1091.41,-54.02 1154.35,-28.35"/>
<polygon fill="#63b8ff" stroke="#63b8ff" points="1155.82,-31.53 1163.77,-24.52 1153.19,-25.05 1155.82,-31.53"/>
</a>
</g>
</g>
<!-- Node23 -->
<g id="Node000023" class="node">
<title>Node23</title>
<g id="a_Node000023"><a xlink:title=" ">
<polygon fill="#e0e0e0" stroke="#999999" points="983.5,-90.5 930.5,-90.5 930.5,-71.5 983.5,-71.5 983.5,-90.5"/>
<text text-anchor="middle" x="957" y="-78.5" font-family="Helvetica,sans-Serif" font-size="10.00">iterator</text>
</a>
</g>
</g>
<!-- Node4&#45;&gt;Node23 -->
<g id="edge34_Node000004_Node000023" class="edge">
<title>Node4&#45;&gt;Node23</title>
<g id="a_edge34_Node000004_Node000023"><a xlink:title=" ">
<path fill="none" stroke="#63b8ff" d="M975.83,-190.14C951.02,-184.64 922.43,-173.52 907,-151 893.87,-131.85 915.64,-110.24 934.45,-96.39"/>
<polygon fill="#63b8ff" stroke="#63b8ff" points="936.54,-99.2 942.74,-90.61 932.54,-93.46 936.54,-99.2"/>
</a>
</g>
</g>
<!-- Node26 -->
<g id="Node000026" class="node">
<title>Node26</title>
<g id="a_Node000026"><a xlink:title=" ">
<polygon fill="#e0e0e0" stroke="#999999" points="1013,-151 949,-151 949,-132 1013,-132 1013,-151"/>
<text text-anchor="middle" x="981" y="-139" font-family="Helvetica,sans-Serif" font-size="10.00">algorithm</text>
</a>
</g>
</g>
<!-- Node4&#45;&gt;Node26 -->
<g id="edge28_Node000004_Node000026" class="edge">
<title>Node4&#45;&gt;Node26</title>
<g id="a_edge28_Node000004_Node000026"><a xlink:title=" ">
<path fill="none" stroke="#63b8ff" d="M1015.23,-186.75C1009.44,-179.26 1000.94,-168.28 993.86,-159.13"/>
<polygon fill="#63b8ff" stroke="#63b8ff" points="996.53,-156.86 987.64,-151.09 990.99,-161.14 996.53,-156.86"/>
</a>
</g>
</g>
<!-- Node27 -->
<g id="Node000027" class="node">
<title>Node27</title>
<g id="a_Node000027"><a xlink:title=" ">
<polygon fill="#e0e0e0" stroke="#999999" points="1096.5,-151 1031.5,-151 1031.5,-132 1096.5,-132 1096.5,-151"/>
<text text-anchor="middle" x="1064" y="-139" font-family="Helvetica,sans-Serif" font-size="10.00">functional</text>
</a>
</g>
</g>
<!-- Node4&#45;&gt;Node27 -->
<g id="edge32_Node000004_Node000027" class="edge">
<title>Node4&#45;&gt;Node27</title>
<g id="a_edge32_Node000004_Node000027"><a xlink:title=" ">
<path fill="none" stroke="#63b8ff" d="M1028.94,-186.75C1034.87,-179.26 1043.57,-168.28 1050.82,-159.13"/>
<polygon fill="#63b8ff" stroke="#63b8ff" points="1053.73,-161.1 1057.19,-151.09 1048.24,-156.75 1053.73,-161.1"/>
</a>
</g>
</g>
<!-- Node28 -->
<g id="Node000028" class="node">
<title>Node28</title>
<g id="a_Node000028"><a xlink:title=" ">
<polygon fill="#e0e0e0" stroke="#999999" points="1197.5,-151 1114.5,-151 1114.5,-132 1197.5,-132 1197.5,-151"/>
<text text-anchor="middle" x="1156" y="-139" font-family="Helvetica,sans-Serif" font-size="10.00">initializer_list</text>
</a>
</g>
</g>
<!-- Node4&#45;&gt;Node28 -->
<g id="edge33_Node000004_Node000028" class="edge">
<title>Node4&#45;&gt;Node28</title>
<g id="a_edge33_Node000004_Node000028"><a xlink:title=" ">
<path fill="none" stroke="#63b8ff" d="M1043.53,-186.98C1065.47,-178.3 1099.74,-164.75 1124.69,-154.88"/>
<polygon fill="#63b8ff" stroke="#63b8ff" points="1126.07,-158.1 1134.08,-151.17 1123.49,-151.59 1126.07,-158.1"/>
</a>
</g>
</g>
<!-- Node29 -->
<g id="Node000029" class="node">
<title>Node29</title>
<g id="a_Node000029"><a xlink:title=" ">
<polygon fill="#e0e0e0" stroke="#999999" points="1272,-151 1216,-151 1216,-132 1272,-132 1272,-151"/>
<text text-anchor="middle" x="1244" y="-139" font-family="Helvetica,sans-Serif" font-size="10.00">numeric</text>
</a>
</g>
</g>
<!-- Node4&#45;&gt;Node29 -->
<g id="edge35_Node000004_Node000029" class="edge">
<title>Node4&#45;&gt;Node29</title>
<g id="a_edge35_Node000004_Node000029"><a xlink:title=" ">
<path fill="none" stroke="#63b8ff" d="M1057.67,-186.98C1098.32,-177.28 1164.49,-161.48 1206.06,-151.56"/>
<polygon fill="#63b8ff" stroke="#63b8ff" points="1206.9,-154.96 1215.81,-149.23 1205.28,-148.15 1206.9,-154.96"/>
</a>
</g>
</g>
<!-- Node30 -->
<g id="Node000030" class="node">
<title>Node30</title>
<g id="a_Node000030"><a xlink:title=" ">
<polygon fill="#e0e0e0" stroke="#999999" points="1330,-151 1290,-151 1290,-132 1330,-132 1330,-151"/>
<text text-anchor="middle" x="1310" y="-139" font-family="Helvetica,sans-Serif" font-size="10.00">span</text>
</a>
</g>
</g>
<!-- Node4&#45;&gt;Node30 -->
<g id="edge36_Node000004_Node000030" class="edge">
<title>Node4&#45;&gt;Node30</title>
<g id="a_edge36_Node000004_Node000030"><a xlink:title=" ">
<path fill="none" stroke="#63b8ff" d="M1068.2,-188.22C1127.42,-178.78 1227.82,-162.39 1280.02,-150.96"/>
<polygon fill="#63b8ff" stroke="#63b8ff" points="1280.82,-154.37 1289.8,-148.74 1279.27,-147.54 1280.82,-154.37"/>
</a>
</g>
</g>
<!-- Node31 -->
<g id="Node000031" class="node">
<title>Node31</title>
<g id="a_Node000031"><a xlink:title=" ">
<polygon fill="#e0e0e0" stroke="#999999" points="1417.5,-151 1348.5,-151 1348.5,-132 1417.5,-132 1417.5,-151"/>
<text text-anchor="middle" x="1383" y="-139" font-family="Helvetica,sans-Serif" font-size="10.00">type_traits</text>
</a>
</g>
</g>
<!-- Node4&#45;&gt;Node31 -->
<g id="edge37_Node000004_Node000031" class="edge">
<title>Node4&#45;&gt;Node31</title>
<g id="a_edge37_Node000004_Node000031"><a xlink:title=" ">
<path fill="none" stroke="#63b8ff" d="M1068.21,-188.3C1071.18,-187.86 1074.13,-187.42 1077,-187 1190.13,-170.49 1221.34,-170.16 1338.37,-151.02"/>
<polygon fill="#63b8ff" stroke="#63b8ff" points="1339.15,-154.44 1348.44,-149.36 1338.01,-147.53 1339.15,-154.44"/>
</a>
</g>
</g>
<!-- Node32 -->
<g id="Node000032" class="node">
<title>Node32</title>
<g id="a_Node000032"><a xlink:title=" ">
<polygon fill="#e0e0e0" stroke="#999999" points="1482.5,-151 1435.5,-151 1435.5,-132 1482.5,-132 1482.5,-151"/>
<text text-anchor="middle" x="1459" y="-139" font-family="Helvetica,sans-Serif" font-size="10.00">vector</text>
</a>
</g>
</g>
<!-- Node4&#45;&gt;Node32 -->
<g id="edge38_Node000004_Node000032" class="edge">
<title>Node4&#45;&gt;Node32</title>
<g id="a_edge38_Node000004_Node000032"><a xlink:title=" ">
<path fill="none" stroke="#63b8ff" d="M1068.19,-188.19C1071.17,-187.77 1074.13,-187.37 1077,-187 1228.77,-167.48 1271.36,-178.65 1425.04,-151.1"/>
<polygon fill="#63b8ff" stroke="#63b8ff" points="1426.12,-154.47 1435.33,-149.23 1424.86,-147.58 1426.12,-154.47"/>
</a>
</g>
</g>
<!-- Node8 -->
<g id="Node000008" class="node">
<title>Node8</title>
<g id="a_Node000008"><a xlink:href="device__qualifier_8hpp.html" target="_top" xlink:title=" ">
<polygon fill="white" stroke="#666666" points="338,-90.5 224,-90.5 224,-71.5 338,-71.5 338,-90.5"/>
<text text-anchor="middle" x="281" y="-78.5" font-family="Helvetica,sans-Serif" font-size="10.00">device_qualifier.hpp</text>
</a>
</g>
</g>
<!-- Node7&#45;&gt;Node8 -->
<g id="edge7_Node000007_Node000008" class="edge">
<title>Node7&#45;&gt;Node8</title>
<g id="a_edge7_Node000007_Node000008"><a xlink:title=" ">
<path fill="none" stroke="#63b8ff" d="M639.76,-135.54C576.44,-128.09 454.82,-113.03 352,-96 345.66,-94.95 339.01,-93.76 332.44,-92.53"/>
<polygon fill="#63b8ff" stroke="#63b8ff" points="332.7,-89.01 322.22,-90.57 331.38,-95.89 332.7,-89.01"/>
</a>
</g>
</g>
<!-- Node7&#45;&gt;Node9 -->
<g id="edge23_Node000007_Node000009" class="edge">
<title>Node7&#45;&gt;Node9</title>
<g id="a_edge23_Node000007_Node000009"><a xlink:title=" ">
<path fill="none" stroke="#63b8ff" d="M639.91,-140.91C580.22,-139.98 470.1,-132.81 385,-96 365.25,-87.46 366.85,-74.31 347,-66 228.84,-16.49 185.04,-62.05 61,-30 58.84,-29.44 56.63,-28.78 54.43,-28.06"/>
<polygon fill="#63b8ff" stroke="#63b8ff" points="55.55,-24.75 44.96,-24.6 53.15,-31.32 55.55,-24.75"/>
</a>
</g>
</g>
<!-- Node10 -->
<g id="Node000010" class="node">
<title>Node10</title>
<g id="a_Node000010"><a xlink:href="get_8hpp.html" target="_top" xlink:title=" ">
<polygon fill="white" stroke="#666666" points="912.5,-90.5 859.5,-90.5 859.5,-71.5 912.5,-71.5 912.5,-90.5"/>
<text text-anchor="middle" x="886" y="-78.5" font-family="Helvetica,sans-Serif" font-size="10.00">get.hpp</text>
</a>
</g>
</g>
<!-- Node7&#45;&gt;Node10 -->
<g id="edge9_Node000007_Node000010" class="edge">
<title>Node7&#45;&gt;Node10</title>
<g id="a_edge9_Node000007_Node000010"><a xlink:title=" ">
<path fill="none" stroke="#63b8ff" d="M716.37,-131.97C749.24,-123.42 800.82,-109.6 845,-96 847.3,-95.29 849.68,-94.54 852.06,-93.77"/>
<polygon fill="#63b8ff" stroke="#63b8ff" points="853.41,-97.01 861.8,-90.54 851.2,-90.36 853.41,-97.01"/>
</a>
</g>
</g>
<!-- Node7&#45;&gt;Node11 -->
<g id="edge24_Node000007_Node000011" class="edge">
<title>Node7&#45;&gt;Node11</title>
<g id="a_edge24_Node000007_Node000011"><a xlink:title=" ">
<path fill="none" stroke="#63b8ff" d="M716.85,-131.95C743.39,-124.5 780.78,-112.32 811,-96 830.24,-85.61 829.76,-74.27 850,-66 973.91,-15.39 1019.16,-62.51 1149,-30 1151.31,-29.42 1153.66,-28.74 1156.01,-27.98"/>
<polygon fill="#63b8ff" stroke="#63b8ff" points="1157.24,-31.26 1165.48,-24.61 1154.89,-24.67 1157.24,-31.26"/>
</a>
</g>
</g>
<!-- Node13 -->
<g id="Node000013" class="node">
<title>Node13</title>
<g id="a_Node000013"><a xlink:href="array_8hpp.html" target="_top" xlink:title=" ">
<polygon fill="white" stroke="#666666" points="802.5,-90.5 677.5,-90.5 677.5,-71.5 802.5,-71.5 802.5,-90.5"/>
<text text-anchor="middle" x="740" y="-78.5" font-family="Helvetica,sans-Serif" font-size="10.00">serialization/array.hpp</text>
</a>
</g>
</g>
<!-- Node7&#45;&gt;Node13 -->
<g id="edge12_Node000007_Node000013" class="edge">
<title>Node7&#45;&gt;Node13</title>
<g id="a_edge12_Node000007_Node000013"><a xlink:title=" ">
<path fill="none" stroke="#63b8ff" d="M691.41,-131.87C700.08,-122.97 713.8,-108.89 724.46,-97.95"/>
<polygon fill="#63b8ff" stroke="#63b8ff" points="727.08,-100.27 731.55,-90.67 722.07,-95.39 727.08,-100.27"/>
</a>
</g>
</g>
<!-- Node22 -->
<g id="Node000022" class="node">
<title>Node22</title>
<g id="a_Node000022"><a xlink:title=" ">
<polygon fill="#e0e0e0" stroke="#999999" points="501.5,-96 394.5,-96 394.5,-66 501.5,-66 501.5,-96"/>
<text text-anchor="start" x="402.5" y="-84" font-family="Helvetica,sans-Serif" font-size="10.00">boost/serialization</text>
<text text-anchor="middle" x="448" y="-73" font-family="Helvetica,sans-Serif" font-size="10.00">/access.hpp</text>
</a>
</g>
</g>
<!-- Node7&#45;&gt;Node22 -->
<g id="edge22_Node000007_Node000022" class="edge">
<title>Node7&#45;&gt;Node22</title>
<g id="a_edge22_Node000007_Node000022"><a xlink:title=" ">
<path fill="none" stroke="#63b8ff" d="M648.83,-131.99C612.97,-123.07 555.78,-108.83 511.58,-97.83"/>
<polygon fill="#63b8ff" stroke="#63b8ff" points="512.34,-94.41 501.79,-95.39 510.65,-101.2 512.34,-94.41"/>
</a>
</g>
</g>
<!-- Node7&#45;&gt;Node23 -->
<g id="edge25_Node000007_Node000023" class="edge">
<title>Node7&#45;&gt;Node23</title>
<g id="a_edge25_Node000007_Node000023"><a xlink:title=" ">
<path fill="none" stroke="#63b8ff" d="M726.12,-134.9C774.23,-128.09 854.1,-115.08 921,-96 923.15,-95.39 925.35,-94.7 927.55,-93.96"/>
<polygon fill="#63b8ff" stroke="#63b8ff" points="928.83,-97.22 937.04,-90.52 926.45,-90.63 928.83,-97.22"/>
</a>
</g>
</g>
<!-- Node24 -->
<g id="Node000024" class="node">
<title>Node24</title>
<g id="a_Node000024"><a xlink:title=" ">
<polygon fill="#e0e0e0" stroke="#999999" points="576.5,-90.5 519.5,-90.5 519.5,-71.5 576.5,-71.5 576.5,-90.5"/>
<text text-anchor="middle" x="548" y="-78.5" font-family="Helvetica,sans-Serif" font-size="10.00">ostream</text>
</a>
</g>
</g>
<!-- Node7&#45;&gt;Node24 -->
<g id="edge26_Node000007_Node000024" class="edge">
<title>Node7&#45;&gt;Node24</title>
<g id="a_edge26_Node000007_Node000024"><a xlink:title=" ">
<path fill="none" stroke="#63b8ff" d="M663.37,-131.99C640.67,-122.16 603.1,-105.88 577.03,-94.58"/>
<polygon fill="#63b8ff" stroke="#63b8ff" points="578.22,-91.28 567.65,-90.52 575.44,-97.7 578.22,-91.28"/>
</a>
</g>
</g>
<!-- Node25 -->
<g id="Node000025" class="node">
<title>Node25</title>
<g id="a_Node000025"><a xlink:title=" ">
<polygon fill="#e0e0e0" stroke="#999999" points="659.5,-90.5 594.5,-90.5 594.5,-71.5 659.5,-71.5 659.5,-90.5"/>
<text text-anchor="middle" x="627" y="-78.5" font-family="Helvetica,sans-Serif" font-size="10.00">stdexcept</text>
</a>
</g>
</g>
<!-- Node7&#45;&gt;Node25 -->
<g id="edge27_Node000007_Node000025" class="edge">
<title>Node7&#45;&gt;Node25</title>
<g id="a_edge27_Node000007_Node000025"><a xlink:title=" ">
<path fill="none" stroke="#63b8ff" d="M674.74,-131.87C666.22,-122.97 652.74,-108.89 642.27,-97.95"/>
<polygon fill="#63b8ff" stroke="#63b8ff" points="644.74,-95.47 635.3,-90.67 639.68,-100.31 644.74,-95.47"/>
</a>
</g>
</g>
<!-- Node8&#45;&gt;Node9 -->
<g id="edge8_Node000008_Node000009" class="edge">
<title>Node8&#45;&gt;Node9</title>
<g id="a_edge8_Node000008_Node000009"><a xlink:title=" ">
<path fill="none" stroke="#63b8ff" d="M239.62,-71.41C185.55,-60.04 93.91,-40.25 61,-30 59.13,-29.42 57.21,-28.78 55.29,-28.1"/>
<polygon fill="#63b8ff" stroke="#63b8ff" points="56.39,-24.78 45.79,-24.54 53.93,-31.33 56.39,-24.78"/>
</a>
</g>
</g>
<!-- Node10&#45;&gt;Node11 -->
<g id="edge10_Node000010_Node000011" class="edge">
<title>Node10&#45;&gt;Node11</title>
<g id="a_edge10_Node000010_Node000011"><a xlink:title=" ">
<path fill="none" stroke="#63b8ff" d="M905.36,-71.36C910.38,-69.37 915.83,-67.42 921,-66 1019.91,-38.78 1049.96,-56.74 1149,-30 1151.16,-29.42 1153.36,-28.75 1155.57,-28.03"/>
<polygon fill="#63b8ff" stroke="#63b8ff" points="1156.84,-31.29 1165.07,-24.62 1154.48,-24.7 1156.84,-31.29"/>
</a>
</g>
</g>
<!-- Node12 -->
<g id="Node000012" class="node">
<title>Node12</title>
<g id="a_Node000012"><a xlink:title=" ">
<polygon fill="#e0e0e0" stroke="#999999" points="1270.5,-24.5 1229.5,-24.5 1229.5,-5.5 1270.5,-5.5 1270.5,-24.5"/>
<text text-anchor="middle" x="1250" y="-12.5" font-family="Helvetica,sans-Serif" font-size="10.00">tuple</text>
</a>
</g>
</g>
<!-- Node10&#45;&gt;Node12 -->
<g id="edge11_Node000010_Node000012" class="edge">
<title>Node10&#45;&gt;Node12</title>
<g id="a_edge11_Node000010_Node000012"><a xlink:title=" ">
<path fill="none" stroke="#63b8ff" d="M904.95,-71.37C910.07,-69.33 915.67,-67.36 921,-66 1051.12,-32.78 1092.11,-67.7 1221,-30 1222.44,-29.58 1223.9,-29.09 1225.36,-28.56"/>
<polygon fill="#63b8ff" stroke="#63b8ff" points="1226.92,-31.7 1234.72,-24.54 1224.15,-25.26 1226.92,-31.7"/>
</a>
</g>
</g>
<!-- Node13&#45;&gt;Node11 -->
<g id="edge21_Node000013_Node000011" class="edge">
<title>Node13&#45;&gt;Node11</title>
<g id="a_edge21_Node000013_Node000011"><a xlink:title=" ">
<path fill="none" stroke="#63b8ff" d="M783.89,-71.46C794.69,-69.51 806.24,-67.56 817,-66 963.89,-44.71 1004.81,-65.2 1149,-30 1151.36,-29.42 1153.78,-28.73 1156.19,-27.96"/>
<polygon fill="#63b8ff" stroke="#63b8ff" points="1157.62,-31.16 1165.87,-24.51 1155.28,-24.57 1157.62,-31.16"/>
</a>
</g>
</g>
<!-- Node14 -->
<g id="Node000014" class="node">
<title>Node14</title>
<g id="a_Node000014"><a xlink:title=" ">
<polygon fill="#e0e0e0" stroke="#999999" points="877.5,-24.5 744.5,-24.5 744.5,-5.5 877.5,-5.5 877.5,-24.5"/>
<text text-anchor="middle" x="811" y="-12.5" font-family="Helvetica,sans-Serif" font-size="10.00">boost/mpl/bool_fwd.hpp</text>
</a>
</g>
</g>
<!-- Node13&#45;&gt;Node14 -->
<g id="edge13_Node000013_Node000014" class="edge">
<title>Node13&#45;&gt;Node14</title>
<g id="a_edge13_Node000013_Node000014"><a xlink:title=" ">
<path fill="none" stroke="#63b8ff" d="M749.58,-71.37C760.84,-61.21 779.76,-44.16 793.63,-31.65"/>
<polygon fill="#63b8ff" stroke="#63b8ff" points="796.04,-34.2 801.12,-24.91 791.35,-29 796.04,-34.2"/>
</a>
</g>
</g>
<!-- Node15 -->
<g id="Node000015" class="node">
<title>Node15</title>
<g id="a_Node000015"><a xlink:title=" ">
<polygon fill="#e0e0e0" stroke="#999999" points="1020,-24.5 896,-24.5 896,-5.5 1020,-5.5 1020,-24.5"/>
<text text-anchor="middle" x="958" y="-12.5" font-family="Helvetica,sans-Serif" font-size="10.00">boost/mpl/greater.hpp</text>
</a>
</g>
</g>
<!-- Node13&#45;&gt;Node15 -->
<g id="edge14_Node000013_Node000015" class="edge">
<title>Node13&#45;&gt;Node15</title>
<g id="a_edge14_Node000013_Node000015"><a xlink:title=" ">
<path fill="none" stroke="#63b8ff" d="M769.4,-71.37C808.03,-60.03 875.98,-40.08 918.9,-27.48"/>
<polygon fill="#63b8ff" stroke="#63b8ff" points="920.11,-30.77 928.72,-24.6 918.14,-24.06 920.11,-30.77"/>
</a>
</g>
</g>
<!-- Node16 -->
<g id="Node000016" class="node">
<title>Node16</title>
<g id="a_Node000016"><a xlink:title=" ">
<polygon fill="#e0e0e0" stroke="#999999" points="1140,-24.5 1038,-24.5 1038,-5.5 1140,-5.5 1140,-24.5"/>
<text text-anchor="middle" x="1089" y="-12.5" font-family="Helvetica,sans-Serif" font-size="10.00">boost/mpl/int.hpp</text>
</a>
</g>
</g>
<!-- Node13&#45;&gt;Node16 -->
<g id="edge15_Node000013_Node000016" class="edge">
<title>Node13&#45;&gt;Node16</title>
<g id="a_edge15_Node000013_Node000016"><a xlink:title=" ">
<path fill="none" stroke="#63b8ff" d="M786.4,-71.47C796.49,-69.65 807.1,-67.74 817,-66 911.13,-49.45 935.31,-48.87 1029,-30 1033.98,-29 1039.19,-27.88 1044.35,-26.73"/>
<polygon fill="#63b8ff" stroke="#63b8ff" points="1045.2,-30.13 1054.18,-24.5 1043.65,-23.3 1045.2,-30.13"/>
</a>
</g>
</g>
<!-- Node17 -->
<g id="Node000017" class="node">
<title>Node17</title>
<g id="a_Node000017"><a xlink:title=" ">
<polygon fill="#e0e0e0" stroke="#999999" points="176,-30 70,-30 70,0 176,0 176,-30"/>
<text text-anchor="start" x="78" y="-18" font-family="Helvetica,sans-Serif" font-size="10.00">boost/mpl/integral</text>
<text text-anchor="middle" x="123" y="-7" font-family="Helvetica,sans-Serif" font-size="10.00">_c_tag.hpp</text>
</a>
</g>
</g>
<!-- Node13&#45;&gt;Node17 -->
<g id="edge16_Node000013_Node000017" class="edge">
<title>Node13&#45;&gt;Node17</title>
<g id="a_edge16_Node000013_Node000017"><a xlink:title=" ">
<path fill="none" stroke="#63b8ff" d="M700.53,-71.46C690,-69.42 678.6,-67.42 668,-66 457.87,-37.84 399.65,-61.07 185.97,-29.98"/>
<polygon fill="#63b8ff" stroke="#63b8ff" points="186.41,-26.51 176,-28.51 185.38,-33.43 186.41,-26.51"/>
</a>
</g>
</g>
<!-- Node18 -->
<g id="Node000018" class="node">
<title>Node18</title>
<g id="a_Node000018"><a xlink:title=" ">
<polygon fill="#e0e0e0" stroke="#999999" points="345.5,-30 194.5,-30 194.5,0 345.5,0 345.5,-30"/>
<text text-anchor="start" x="202.5" y="-18" font-family="Helvetica,sans-Serif" font-size="10.00">boost/serialization</text>
<text text-anchor="middle" x="270" y="-7" font-family="Helvetica,sans-Serif" font-size="10.00">/is_bitwise_serializable.hpp</text>
</a>
</g>
</g>
<!-- Node13&#45;&gt;Node18 -->
<g id="edge17_Node000013_Node000018" class="edge">
<title>Node13&#45;&gt;Node18</title>
<g id="a_edge17_Node000013_Node000018"><a xlink:title=" ">
<path fill="none" stroke="#63b8ff" d="M698.98,-71.45C688.87,-69.5 678.07,-67.55 668,-66 532.43,-45.08 494.85,-49.33 355.72,-30.19"/>
<polygon fill="#63b8ff" stroke="#63b8ff" points="355.92,-26.69 345.53,-28.77 354.95,-33.62 355.92,-26.69"/>
</a>
</g>
</g>
<!-- Node19 -->
<g id="Node000019" class="node">
<title>Node19</title>
<g id="a_Node000019"><a xlink:title=" ">
<polygon fill="#e0e0e0" stroke="#999999" points="470.5,-30 363.5,-30 363.5,0 470.5,0 470.5,-30"/>
<text text-anchor="start" x="371.5" y="-18" font-family="Helvetica,sans-Serif" font-size="10.00">boost/serialization</text>
<text text-anchor="middle" x="417" y="-7" font-family="Helvetica,sans-Serif" font-size="10.00">/level.hpp</text>
</a>
</g>
</g>
<!-- Node13&#45;&gt;Node19 -->
<g id="edge18_Node000013_Node000019" class="edge">
<title>Node13&#45;&gt;Node19</title>
<g id="a_edge18_Node000013_Node000019"><a xlink:title=" ">
<path fill="none" stroke="#63b8ff" d="M696.22,-71.46C686.91,-69.65 677.13,-67.76 668,-66 587.15,-50.44 564.39,-47.62 480.7,-30.32"/>
<polygon fill="#63b8ff" stroke="#63b8ff" points="481.25,-26.86 470.74,-28.25 479.82,-33.71 481.25,-26.86"/>
</a>
</g>
</g>
<!-- Node20 -->
<g id="Node000020" class="node">
<title>Node20</title>
<g id="a_Node000020"><a xlink:title=" ">
<polygon fill="#e0e0e0" stroke="#999999" points="595.5,-30 488.5,-30 488.5,0 595.5,0 595.5,-30"/>
<text text-anchor="start" x="496.5" y="-18" font-family="Helvetica,sans-Serif" font-size="10.00">boost/serialization</text>
<text text-anchor="middle" x="542" y="-7" font-family="Helvetica,sans-Serif" font-size="10.00">/tracking.hpp</text>
</a>
</g>
</g>
<!-- Node13&#45;&gt;Node20 -->
<g id="edge19_Node000013_Node000020" class="edge">
<title>Node13&#45;&gt;Node20</title>
<g id="a_edge19_Node000013_Node000020"><a xlink:title=" ">
<path fill="none" stroke="#63b8ff" d="M713.3,-71.37C683.26,-61.66 633.69,-45.64 595.59,-33.32"/>
<polygon fill="#63b8ff" stroke="#63b8ff" points="596.26,-29.86 585.67,-30.12 594.11,-36.52 596.26,-29.86"/>
</a>
</g>
</g>
<!-- Node21 -->
<g id="Node000021" class="node">
<title>Node21</title>
<g id="a_Node000021"><a xlink:title=" ">
<polygon fill="#e0e0e0" stroke="#999999" points="726.5,-30 613.5,-30 613.5,0 726.5,0 726.5,-30"/>
<text text-anchor="start" x="621.5" y="-18" font-family="Helvetica,sans-Serif" font-size="10.00">boost/serialization</text>
<text text-anchor="middle" x="670" y="-7" font-family="Helvetica,sans-Serif" font-size="10.00">/tracking_enum.hpp</text>
</a>
</g>
</g>
<!-- Node13&#45;&gt;Node21 -->
<g id="edge20_Node000013_Node000021" class="edge">
<title>Node13&#45;&gt;Node21</title>
<g id="a_edge20_Node000013_Node000021"><a xlink:title=" ">
<path fill="none" stroke="#63b8ff" d="M730.56,-71.37C720.98,-62.61 705.78,-48.71 693.01,-37.04"/>
<polygon fill="#63b8ff" stroke="#63b8ff" points="695.18,-34.28 685.44,-30.12 690.46,-39.45 695.18,-34.28"/>
</a>
</g>
</g>
<!-- Node33&#45;&gt;Node8 -->
<g id="edge40_Node000033_Node000008" class="edge">
<title>Node33&#45;&gt;Node8</title>
<g id="a_edge40_Node000033_Node000008"><a xlink:title=" ">
<path fill="none" stroke="#63b8ff" d="M545.69,-194.38C470.1,-191.67 335.48,-182.44 300,-151 285.93,-138.53 281.86,-116.7 280.88,-100.93"/>
<polygon fill="#63b8ff" stroke="#63b8ff" points="284.37,-100.64 280.61,-90.74 277.37,-100.83 284.37,-100.64"/>
</a>
</g>
</g>
</g>
</svg>

<g id="navigator" transform="translate(0 0)" fill="#404254">
  <rect fill="#f2f5e9" fill-opacity="0.5" stroke="#606060" stroke-width=".5" x="0" y="0" width="60" height="60"/>
  <use id="zoomplus" xlink:href="#zoomPlus" x="17" y="9" onmousedown="handleZoom(evt,'in')"/>
  <use id="zoomminus" xlink:href="#zoomMin" x="42" y="9" onmousedown="handleZoom(evt,'out')"/>
  <use id="reset" xlink:href="#resetDef" x="30" y="36" onmousedown="handleReset()"/>
   <use id="arrowup" xlink:href="#arrowUp" x="0" y="0" onmousedown="handlePan(0,-1)"/>
  <use id="arrowright" xlink:href="#arrowRight" x="0" y="0" onmousedown="handlePan(1,0)"/>
  <use id="arrowdown" xlink:href="#arrowDown" x="0" y="0" onmousedown="handlePan(0,1)"/>
  <use id="arrowleft" xlink:href="#arrowLeft" x="0" y="0" onmousedown="handlePan(-1,0)"/>
</g>
<svg viewBox="0 0 15 15" width="100%" height="30px" preserveAspectRatio="xMaxYMin meet">
 <g id="arrow_out" transform="scale(0.3 0.3)">
  <a xlink:href="Torus_8cpp__incl_org.svg" target="_base">
   <rect id="button" ry="5" rx="5" y="6" x="6" height="38" width="38"
        fill="#f2f5e9" fill-opacity="0.5" stroke="#606060" stroke-width="1.0"/>
   <path id="arrow"
     d="M 11.500037,31.436501 C 11.940474,20.09759 22.043105,11.32322 32.158766,21.979434 L 37.068811,17.246167 C 37.068811,17.246167 37.088388,32 37.088388,32 L 22.160133,31.978069 C 22.160133,31.978069 26.997745,27.140456 26.997745,27.140456 C 18.528582,18.264221 13.291696,25.230495 11.500037,31.436501 z"
     style="fill:#404040;"/>
  </a>
 </g>
</svg>

<style type='text/css'>
<![CDATA[
[data-mouse-over-selected='false'] { opacity: 0.7; }
[data-mouse-over-selected='true']  { opacity: 1.0; }
]]>
</style>
<script type="application/ecmascript"><![CDATA[
document.addEventListener('DOMContentLoaded', (event) => {
  highlightEdges();
  highlightAdjacentNodes();
});
]]></script>
</svg>
