<?xml version="1.0" encoding="UTF-8" standalone="no"?>
<!DOCTYPE svg PUBLIC "-//W3C//DTD SVG 1.1//EN"
 "http://www.w3.org/Graphics/SVG/1.1/DTD/svg11.dtd">
<!-- Generated by graphviz version 2.43.0 (0)
 -->
<!-- Title: traits.hpp Pages: 1 -->
<svg width="2194pt" height="487pt"
 viewBox="0.00 0.00 2194.00 487.00" xmlns="http://www.w3.org/2000/svg" xmlns:xlink="http://www.w3.org/1999/xlink">
<g id="graph0" class="graph" transform="scale(1 1) rotate(0) translate(4 483)">
<title>traits.hpp</title>
<!-- Node1 -->
<g id="node1" class="node">
<title>Node1</title>
<g id="a_node1"><a xlink:title=" ">
<polygon fill="#bfbfbf" stroke="black" points="1462.5,-459.5 1462.5,-478.5 1525.5,-478.5 1525.5,-459.5 1462.5,-459.5"/>
<text text-anchor="middle" x="1494" y="-466.5" font-family="Helvetica,sans-Serif" font-size="10.00">traits.hpp</text>
</a>
</g>
</g>
<!-- Node2 -->
<g id="node2" class="node">
<title>Node2</title>
<g id="a_node2"><a xlink:href="visitors_8hpp.html" target="_top" xlink:title=" ">
<polygon fill="none" stroke="black" points="1457,-403.5 1457,-422.5 1531,-422.5 1531,-403.5 1457,-403.5"/>
<text text-anchor="middle" x="1494" y="-410.5" font-family="Helvetica,sans-Serif" font-size="10.00">visitors.hpp</text>
</a>
</g>
</g>
<!-- Node1&#45;&gt;Node2 -->
<g id="edge1" class="edge">
<title>Node1&#45;&gt;Node2</title>
<path fill="none" stroke="midnightblue" d="M1494,-448.8C1494,-439.91 1494,-429.78 1494,-422.75"/>
<polygon fill="midnightblue" stroke="midnightblue" points="1490.5,-449.08 1494,-459.08 1497.5,-449.08 1490.5,-449.08"/>
</g>
<!-- Node15 -->
<g id="node15" class="node">
<title>Node15</title>
<g id="a_node15"><a xlink:href="dipoles__inline_8hpp.html" target="_top" xlink:title=" ">
<polygon fill="none" stroke="black" points="1367.5,-286 1367.5,-305 1472.5,-305 1472.5,-286 1367.5,-286"/>
<text text-anchor="middle" x="1420" y="-293" font-family="Helvetica,sans-Serif" font-size="10.00">dipoles_inline.hpp</text>
</a>
</g>
</g>
<!-- Node1&#45;&gt;Node15 -->
<g id="edge64" class="edge">
<title>Node1&#45;&gt;Node15</title>
<path fill="none" stroke="midnightblue" d="M1473.87,-452.9C1464.66,-444.97 1454.4,-434.51 1448,-423 1425.72,-382.89 1421.17,-326.38 1420.24,-305.07"/>
<polygon fill="midnightblue" stroke="midnightblue" points="1471.93,-455.83 1481.89,-459.42 1476.34,-450.4 1471.93,-455.83"/>
</g>
<!-- Node26 -->
<g id="node26" class="node">
<title>Node26</title>
<g id="a_node26"><a xlink:href="dipoles_8cpp.html" target="_top" xlink:title=" ">
<polygon fill="none" stroke="black" points="1943,-286 1943,-305 2015,-305 2015,-286 1943,-286"/>
<text text-anchor="middle" x="1979" y="-293" font-family="Helvetica,sans-Serif" font-size="10.00">dipoles.cpp</text>
</a>
</g>
</g>
<!-- Node1&#45;&gt;Node26 -->
<g id="edge78" class="edge">
<title>Node1&#45;&gt;Node26</title>
<path fill="none" stroke="midnightblue" d="M1535.84,-459.51C1603.77,-444.99 1741.54,-412.52 1852,-367 1895.6,-349.03 1943.27,-319.7 1965.8,-305.19"/>
<polygon fill="midnightblue" stroke="midnightblue" points="1535.01,-456.11 1525.95,-461.6 1536.46,-462.95 1535.01,-456.11"/>
</g>
<!-- Node27 -->
<g id="node27" class="node">
<title>Node27</title>
<g id="a_node27"><a xlink:href="coulomb_8hpp.html" target="_top" xlink:title=" ">
<polygon fill="none" stroke="black" points="719,-347.5 719,-366.5 799,-366.5 799,-347.5 719,-347.5"/>
<text text-anchor="middle" x="759" y="-354.5" font-family="Helvetica,sans-Serif" font-size="10.00">coulomb.hpp</text>
</a>
</g>
</g>
<!-- Node1&#45;&gt;Node27 -->
<g id="edge33" class="edge">
<title>Node1&#45;&gt;Node27</title>
<path fill="none" stroke="midnightblue" d="M1452.49,-461.79C1322.9,-442.39 926.9,-383.13 799.17,-364.01"/>
<polygon fill="midnightblue" stroke="midnightblue" points="1452.01,-465.25 1462.42,-463.27 1453.05,-458.33 1452.01,-465.25"/>
</g>
<!-- Node37 -->
<g id="node37" class="node">
<title>Node37</title>
<g id="a_node37"><a xlink:href="elc_8hpp.html" target="_top" xlink:title="ELC algorithm for long&#45;range Coulomb interactions.">
<polygon fill="none" stroke="black" points="216,-403.5 216,-422.5 268,-422.5 268,-403.5 216,-403.5"/>
<text text-anchor="middle" x="242" y="-410.5" font-family="Helvetica,sans-Serif" font-size="10.00">elc.hpp</text>
</a>
</g>
</g>
<!-- Node1&#45;&gt;Node37 -->
<g id="edge58" class="edge">
<title>Node1&#45;&gt;Node37</title>
<path fill="none" stroke="midnightblue" d="M1452.23,-466.2C1255.7,-457.72 426.02,-421.94 268.04,-415.12"/>
<polygon fill="midnightblue" stroke="midnightblue" points="1452.28,-469.7 1462.43,-466.64 1452.59,-462.71 1452.28,-469.7"/>
</g>
<!-- Node39 -->
<g id="node39" class="node">
<title>Node39</title>
<g id="a_node39"><a xlink:href="dipoles_8hpp.html" target="_top" xlink:title=" ">
<polygon fill="none" stroke="black" points="1727.5,-347.5 1727.5,-366.5 1800.5,-366.5 1800.5,-347.5 1727.5,-347.5"/>
<text text-anchor="middle" x="1764" y="-354.5" font-family="Helvetica,sans-Serif" font-size="10.00">dipoles.hpp</text>
</a>
</g>
</g>
<!-- Node1&#45;&gt;Node39 -->
<g id="edge65" class="edge">
<title>Node1&#45;&gt;Node39</title>
<path fill="none" stroke="midnightblue" d="M1524.47,-455.59C1579.79,-433.05 1695.39,-385.95 1742.91,-366.59"/>
<polygon fill="midnightblue" stroke="midnightblue" points="1523.13,-452.35 1515.19,-459.37 1525.77,-458.84 1523.13,-452.35"/>
</g>
<!-- Node41 -->
<g id="node41" class="node">
<title>Node41</title>
<g id="a_node41"><a xlink:href="dlc_8hpp.html" target="_top" xlink:title=" ">
<polygon fill="none" stroke="black" points="1934,-403.5 1934,-422.5 1986,-422.5 1986,-403.5 1934,-403.5"/>
<text text-anchor="middle" x="1960" y="-410.5" font-family="Helvetica,sans-Serif" font-size="10.00">dlc.hpp</text>
</a>
</g>
</g>
<!-- Node1&#45;&gt;Node41 -->
<g id="edge79" class="edge">
<title>Node1&#45;&gt;Node41</title>
<path fill="none" stroke="midnightblue" d="M1535.95,-463.79C1609.41,-456.32 1766.06,-439.92 1898,-423 1909.76,-421.49 1922.74,-419.64 1933.78,-418"/>
<polygon fill="midnightblue" stroke="midnightblue" points="1535.33,-460.34 1525.73,-464.83 1536.03,-467.3 1535.33,-460.34"/>
</g>
<!-- Node3 -->
<g id="node3" class="node">
<title>Node3</title>
<g id="a_node3"><a xlink:href="actor_2registration_8hpp.html" target="_top" xlink:title=" ">
<polygon fill="none" stroke="black" points="1567,-347.5 1567,-366.5 1661,-366.5 1661,-347.5 1567,-347.5"/>
<text text-anchor="middle" x="1614" y="-354.5" font-family="Helvetica,sans-Serif" font-size="10.00">registration.hpp</text>
</a>
</g>
</g>
<!-- Node2&#45;&gt;Node3 -->
<g id="edge2" class="edge">
<title>Node2&#45;&gt;Node3</title>
<path fill="none" stroke="midnightblue" d="M1522.37,-399.23C1544.82,-389.13 1575.54,-375.31 1595.07,-366.52"/>
<polygon fill="midnightblue" stroke="midnightblue" points="1520.7,-396.15 1513.01,-403.44 1523.57,-402.53 1520.7,-396.15"/>
</g>
<!-- Node4 -->
<g id="node4" class="node">
<title>Node4</title>
<g id="a_node4"><a xlink:href="electrostatics_2registration_8hpp.html" target="_top" xlink:title=" ">
<polygon fill="none" stroke="black" points="1529,-286 1529,-305 1623,-305 1623,-286 1529,-286"/>
<text text-anchor="middle" x="1576" y="-293" font-family="Helvetica,sans-Serif" font-size="10.00">registration.hpp</text>
</a>
</g>
</g>
<!-- Node2&#45;&gt;Node4 -->
<g id="edge17" class="edge">
<title>Node2&#45;&gt;Node4</title>
<path fill="none" stroke="midnightblue" d="M1506.18,-394.84C1523.92,-369.86 1556.22,-324.36 1569.77,-305.28"/>
<polygon fill="midnightblue" stroke="midnightblue" points="1503.1,-393.14 1500.16,-403.32 1508.81,-397.19 1503.1,-393.14"/>
</g>
<!-- Node8 -->
<g id="node8" class="node">
<title>Node8</title>
<g id="a_node8"><a xlink:href="magnetostatics_2registration_8hpp.html" target="_top" xlink:title=" ">
<polygon fill="none" stroke="black" points="1641,-286 1641,-305 1735,-305 1735,-286 1641,-286"/>
<text text-anchor="middle" x="1688" y="-293" font-family="Helvetica,sans-Serif" font-size="10.00">registration.hpp</text>
</a>
</g>
</g>
<!-- Node2&#45;&gt;Node8 -->
<g id="edge32" class="edge">
<title>Node2&#45;&gt;Node8</title>
<path fill="none" stroke="midnightblue" d="M1541.05,-405.47C1586.82,-398.17 1652.02,-384.99 1670,-367 1686.79,-350.2 1688.63,-320.06 1688.42,-305.23"/>
<polygon fill="midnightblue" stroke="midnightblue" points="1540.37,-402.03 1531.03,-407.02 1541.45,-408.95 1540.37,-402.03"/>
</g>
<!-- Node11 -->
<g id="node11" class="node">
<title>Node11</title>
<g id="a_node11"><a xlink:href="coulomb_8cpp.html" target="_top" xlink:title=" ">
<polygon fill="none" stroke="black" points="863.5,-286 863.5,-305 942.5,-305 942.5,-286 863.5,-286"/>
<text text-anchor="middle" x="903" y="-293" font-family="Helvetica,sans-Serif" font-size="10.00">coulomb.cpp</text>
</a>
</g>
</g>
<!-- Node2&#45;&gt;Node11 -->
<g id="edge13" class="edge">
<title>Node2&#45;&gt;Node11</title>
<path fill="none" stroke="midnightblue" d="M1446.4,-405.49C1389.17,-397.44 1290.28,-382.86 1206,-367 1092.39,-345.62 1063.94,-339.86 952,-311 945.04,-309.21 937.58,-307.1 930.63,-305.05"/>
<polygon fill="midnightblue" stroke="midnightblue" points="1446.2,-408.99 1456.59,-406.91 1447.17,-402.06 1446.2,-408.99"/>
</g>
<!-- Node12 -->
<g id="node12" class="node">
<title>Node12</title>
<g id="a_node12"><a xlink:href="icc_8cpp.html" target="_top" xlink:title=" ">
<polygon fill="none" stroke="black" points="519,-224.5 519,-243.5 569,-243.5 569,-224.5 519,-224.5"/>
<text text-anchor="middle" x="544" y="-231.5" font-family="Helvetica,sans-Serif" font-size="10.00">icc.cpp</text>
</a>
</g>
</g>
<!-- Node2&#45;&gt;Node12 -->
<g id="edge14" class="edge">
<title>Node2&#45;&gt;Node12</title>
<path fill="none" stroke="midnightblue" d="M1474.28,-397.53C1447.86,-378.07 1399.61,-342.32 1359,-311 1341.47,-297.48 1340.69,-287.9 1320,-280 1248.53,-252.71 694.87,-238.46 569.28,-235.56"/>
<polygon fill="midnightblue" stroke="midnightblue" points="1472.23,-400.36 1482.36,-403.47 1476.37,-394.72 1472.23,-400.36"/>
</g>
<!-- Node13 -->
<g id="node13" class="node">
<title>Node13</title>
<g id="a_node13"><a xlink:href="p3m_8cpp.html" target="_top" xlink:title=" ">
<polygon fill="none" stroke="black" points="185.5,-286 185.5,-305 244.5,-305 244.5,-286 185.5,-286"/>
<text text-anchor="middle" x="215" y="-293" font-family="Helvetica,sans-Serif" font-size="10.00">p3m.cpp</text>
</a>
</g>
</g>
<!-- Node2&#45;&gt;Node13 -->
<g id="edge15" class="edge">
<title>Node2&#45;&gt;Node13</title>
<path fill="none" stroke="midnightblue" d="M1446.66,-410.44C1324.5,-406.15 988.66,-392.78 710,-367 514.58,-348.92 464.79,-347.7 272,-311 263.07,-309.3 253.46,-307.03 244.73,-304.79"/>
<polygon fill="midnightblue" stroke="midnightblue" points="1446.68,-413.94 1456.8,-410.79 1446.92,-406.94 1446.68,-413.94"/>
</g>
<!-- Node14 -->
<g id="node14" class="node">
<title>Node14</title>
<g id="a_node14"><a xlink:href="p3m__gpu_8cpp.html" target="_top" xlink:title=" ">
<polygon fill="none" stroke="black" points="961,-286 961,-305 1043,-305 1043,-286 961,-286"/>
<text text-anchor="middle" x="1002" y="-293" font-family="Helvetica,sans-Serif" font-size="10.00">p3m_gpu.cpp</text>
</a>
</g>
</g>
<!-- Node2&#45;&gt;Node14 -->
<g id="edge16" class="edge">
<title>Node2&#45;&gt;Node14</title>
<path fill="none" stroke="midnightblue" d="M1447.1,-402.1C1366.31,-384.85 1195.82,-347.63 1053,-311 1045.87,-309.17 1038.21,-307.07 1031.06,-305.04"/>
<polygon fill="midnightblue" stroke="midnightblue" points="1446.45,-405.54 1456.96,-404.2 1447.91,-398.69 1446.45,-405.54"/>
</g>
<!-- Node2&#45;&gt;Node15 -->
<g id="edge18" class="edge">
<title>Node2&#45;&gt;Node15</title>
<path fill="none" stroke="midnightblue" d="M1483.01,-394.84C1467,-369.86 1437.85,-324.36 1425.63,-305.28"/>
<polygon fill="midnightblue" stroke="midnightblue" points="1480.1,-396.79 1488.44,-403.32 1485.99,-393.01 1480.1,-396.79"/>
</g>
<!-- Node22 -->
<g id="node22" class="node">
<title>Node22</title>
<g id="a_node22"><a xlink:href="forces__inline_8hpp.html" target="_top" xlink:title=" ">
<polygon fill="none" stroke="black" points="749,-168.5 749,-187.5 849,-187.5 849,-168.5 749,-168.5"/>
<text text-anchor="middle" x="799" y="-175.5" font-family="Helvetica,sans-Serif" font-size="10.00">forces_inline.hpp</text>
</a>
</g>
</g>
<!-- Node2&#45;&gt;Node22 -->
<g id="edge30" class="edge">
<title>Node2&#45;&gt;Node22</title>
<path fill="none" stroke="midnightblue" d="M1498.68,-393.29C1504.58,-364.82 1510.76,-310.68 1482,-280 1438.58,-233.68 999.19,-194.85 849.01,-182.84"/>
<polygon fill="midnightblue" stroke="midnightblue" points="1495.24,-392.63 1496.43,-403.16 1502.07,-394.19 1495.24,-392.63"/>
</g>
<!-- Node2&#45;&gt;Node26 -->
<g id="edge31" class="edge">
<title>Node2&#45;&gt;Node26</title>
<path fill="none" stroke="midnightblue" d="M1541.44,-409.01C1603.93,-404.22 1716.81,-392.62 1810,-367 1867.93,-351.07 1932.44,-320.24 1962.24,-305.19"/>
<polygon fill="midnightblue" stroke="midnightblue" points="1540.83,-405.54 1531.11,-409.77 1541.34,-412.53 1540.83,-405.54"/>
</g>
<!-- Node3&#45;&gt;Node4 -->
<g id="edge3" class="edge">
<title>Node3&#45;&gt;Node4</title>
<path fill="none" stroke="midnightblue" d="M1603.15,-339.01C1596.05,-327.89 1587.07,-313.84 1581.43,-305.01"/>
<polygon fill="midnightblue" stroke="midnightblue" points="1600.22,-340.93 1608.56,-347.48 1606.12,-337.16 1600.22,-340.93"/>
</g>
<!-- Node3&#45;&gt;Node8 -->
<g id="edge9" class="edge">
<title>Node3&#45;&gt;Node8</title>
<path fill="none" stroke="midnightblue" d="M1632.69,-340.97C1646.84,-329.59 1665.78,-314.37 1677.42,-305.01"/>
<polygon fill="midnightblue" stroke="midnightblue" points="1630.2,-338.48 1624.6,-347.48 1634.59,-343.94 1630.2,-338.48"/>
</g>
<!-- Node5 -->
<g id="node5" class="node">
<title>Node5</title>
<g id="a_node5"><a xlink:href="electrostatics_2Actor__impl_8hpp.html" target="_top" xlink:title=" ">
<polygon fill="none" stroke="black" points="1407,-224.5 1407,-243.5 1497,-243.5 1497,-224.5 1407,-224.5"/>
<text text-anchor="middle" x="1452" y="-231.5" font-family="Helvetica,sans-Serif" font-size="10.00">Actor_impl.hpp</text>
</a>
</g>
</g>
<!-- Node4&#45;&gt;Node5 -->
<g id="edge4" class="edge">
<title>Node4&#45;&gt;Node5</title>
<path fill="none" stroke="midnightblue" d="M1548.95,-281.52C1524.9,-269.98 1490.44,-253.44 1469.73,-243.51"/>
<polygon fill="midnightblue" stroke="midnightblue" points="1547.7,-284.8 1558.23,-285.98 1550.73,-278.49 1547.7,-284.8"/>
</g>
<!-- Node6 -->
<g id="node6" class="node">
<title>Node6</title>
<g id="a_node6"><a xlink:href="electrostatics_2initialize_8cpp.html" target="_top" xlink:title=" ">
<polygon fill="none" stroke="black" points="1412.5,-168.5 1412.5,-187.5 1491.5,-187.5 1491.5,-168.5 1412.5,-168.5"/>
<text text-anchor="middle" x="1452" y="-175.5" font-family="Helvetica,sans-Serif" font-size="10.00">initialize.cpp</text>
</a>
</g>
</g>
<!-- Node4&#45;&gt;Node6 -->
<g id="edge8" class="edge">
<title>Node4&#45;&gt;Node6</title>
<path fill="none" stroke="midnightblue" d="M1589.27,-277.42C1599.38,-262.18 1609.73,-239.89 1598,-224 1573.74,-191.14 1525.83,-181.53 1491.51,-179.09"/>
<polygon fill="midnightblue" stroke="midnightblue" points="1586.19,-275.71 1583.21,-285.87 1591.88,-279.78 1586.19,-275.71"/>
</g>
<!-- Node7 -->
<g id="node7" class="node">
<title>Node7</title>
<g id="a_node7"><a xlink:href="ICCStar_8hpp.html" target="_top" xlink:title=" ">
<polygon fill="none" stroke="black" points="1515,-224.5 1515,-243.5 1589,-243.5 1589,-224.5 1515,-224.5"/>
<text text-anchor="middle" x="1552" y="-231.5" font-family="Helvetica,sans-Serif" font-size="10.00">ICCStar.hpp</text>
</a>
</g>
</g>
<!-- Node4&#45;&gt;Node7 -->
<g id="edge6" class="edge">
<title>Node4&#45;&gt;Node7</title>
<path fill="none" stroke="midnightblue" d="M1568.74,-276.5C1564.32,-265.55 1558.89,-252.07 1555.43,-243.51"/>
<polygon fill="midnightblue" stroke="midnightblue" points="1565.57,-278.01 1572.56,-285.98 1572.07,-275.39 1565.57,-278.01"/>
</g>
<!-- Node5&#45;&gt;Node6 -->
<g id="edge5" class="edge">
<title>Node5&#45;&gt;Node6</title>
<path fill="none" stroke="midnightblue" d="M1452,-213.8C1452,-204.91 1452,-194.78 1452,-187.75"/>
<polygon fill="midnightblue" stroke="midnightblue" points="1448.5,-214.08 1452,-224.08 1455.5,-214.08 1448.5,-214.08"/>
</g>
<!-- Node7&#45;&gt;Node6 -->
<g id="edge7" class="edge">
<title>Node7&#45;&gt;Node6</title>
<path fill="none" stroke="midnightblue" d="M1526.91,-219.45C1508.45,-209.48 1483.9,-196.23 1468.03,-187.65"/>
<polygon fill="midnightblue" stroke="midnightblue" points="1525.47,-222.65 1535.93,-224.32 1528.8,-216.49 1525.47,-222.65"/>
</g>
<!-- Node9 -->
<g id="node9" class="node">
<title>Node9</title>
<g id="a_node9"><a xlink:href="magnetostatics_2Actor__impl_8hpp.html" target="_top" xlink:title=" ">
<polygon fill="none" stroke="black" points="1721,-224.5 1721,-243.5 1811,-243.5 1811,-224.5 1721,-224.5"/>
<text text-anchor="middle" x="1766" y="-231.5" font-family="Helvetica,sans-Serif" font-size="10.00">Actor_impl.hpp</text>
</a>
</g>
</g>
<!-- Node8&#45;&gt;Node9 -->
<g id="edge10" class="edge">
<title>Node8&#45;&gt;Node9</title>
<path fill="none" stroke="midnightblue" d="M1707.28,-279.79C1722.24,-268.38 1742.46,-252.96 1754.85,-243.51"/>
<polygon fill="midnightblue" stroke="midnightblue" points="1705,-277.13 1699.18,-285.98 1709.25,-282.69 1705,-277.13"/>
</g>
<!-- Node10 -->
<g id="node10" class="node">
<title>Node10</title>
<g id="a_node10"><a xlink:href="magnetostatics_2initialize_8cpp.html" target="_top" xlink:title=" ">
<polygon fill="none" stroke="black" points="1747.5,-168.5 1747.5,-187.5 1826.5,-187.5 1826.5,-168.5 1747.5,-168.5"/>
<text text-anchor="middle" x="1787" y="-175.5" font-family="Helvetica,sans-Serif" font-size="10.00">initialize.cpp</text>
</a>
</g>
</g>
<!-- Node8&#45;&gt;Node10 -->
<g id="edge12" class="edge">
<title>Node8&#45;&gt;Node10</title>
<path fill="none" stroke="midnightblue" d="M1690.78,-275.46C1693.82,-260.19 1699.96,-238.91 1712,-224 1725.74,-206.99 1747.75,-194.88 1764.38,-187.53"/>
<polygon fill="midnightblue" stroke="midnightblue" points="1687.25,-275.32 1689.01,-285.77 1694.15,-276.5 1687.25,-275.32"/>
</g>
<!-- Node9&#45;&gt;Node10 -->
<g id="edge11" class="edge">
<title>Node9&#45;&gt;Node10</title>
<path fill="none" stroke="midnightblue" d="M1773.12,-214.69C1776.66,-205.59 1780.77,-195.01 1783.6,-187.75"/>
<polygon fill="midnightblue" stroke="midnightblue" points="1769.83,-213.49 1769.47,-224.08 1776.35,-216.03 1769.83,-213.49"/>
</g>
<!-- Node16 -->
<g id="node16" class="node">
<title>Node16</title>
<g id="a_node16"><a xlink:href="energy__inline_8hpp.html" target="_top" xlink:title=" ">
<polygon fill="none" stroke="black" points="456,-168.5 456,-187.5 560,-187.5 560,-168.5 456,-168.5"/>
<text text-anchor="middle" x="508" y="-175.5" font-family="Helvetica,sans-Serif" font-size="10.00">energy_inline.hpp</text>
</a>
</g>
</g>
<!-- Node15&#45;&gt;Node16 -->
<g id="edge19" class="edge">
<title>Node15&#45;&gt;Node16</title>
<path fill="none" stroke="midnightblue" d="M1373.65,-283.88C1366.75,-282.47 1359.7,-281.12 1353,-280 1313.63,-273.4 738.47,-205.96 560.25,-185.11"/>
<polygon fill="midnightblue" stroke="midnightblue" points="1373.1,-287.34 1383.61,-285.97 1374.54,-280.49 1373.1,-287.34"/>
</g>
<!-- Node15&#45;&gt;Node22 -->
<g id="edge25" class="edge">
<title>Node15&#45;&gt;Node22</title>
<path fill="none" stroke="midnightblue" d="M1371.23,-283.75C1365.1,-282.46 1358.91,-281.18 1353,-280 1167.47,-243.02 945.9,-204.24 848.76,-187.51"/>
<polygon fill="midnightblue" stroke="midnightblue" points="1370.92,-287.26 1381.43,-285.93 1372.38,-280.42 1370.92,-287.26"/>
</g>
<!-- Node17 -->
<g id="node17" class="node">
<title>Node17</title>
<g id="a_node17"><a xlink:href="ShapeBasedConstraint_8cpp.html" target="_top" xlink:title=" ">
<polygon fill="none" stroke="black" points="489.5,-112.5 489.5,-131.5 636.5,-131.5 636.5,-112.5 489.5,-112.5"/>
<text text-anchor="middle" x="563" y="-119.5" font-family="Helvetica,sans-Serif" font-size="10.00">ShapeBasedConstraint.cpp</text>
</a>
</g>
</g>
<!-- Node16&#45;&gt;Node17 -->
<g id="edge20" class="edge">
<title>Node16&#45;&gt;Node17</title>
<path fill="none" stroke="midnightblue" d="M524.29,-161C534.04,-151.43 546.05,-139.64 554.09,-131.75"/>
<polygon fill="midnightblue" stroke="midnightblue" points="521.77,-158.58 517.08,-168.08 526.67,-163.57 521.77,-158.58"/>
</g>
<!-- Node18 -->
<g id="node18" class="node">
<title>Node18</title>
<g id="a_node18"><a xlink:href="energy_8cpp.html" target="_top" xlink:title=" ">
<polygon fill="none" stroke="black" points="654.5,-112.5 654.5,-131.5 723.5,-131.5 723.5,-112.5 654.5,-112.5"/>
<text text-anchor="middle" x="689" y="-119.5" font-family="Helvetica,sans-Serif" font-size="10.00">energy.cpp</text>
</a>
</g>
</g>
<!-- Node16&#45;&gt;Node18 -->
<g id="edge21" class="edge">
<title>Node16&#45;&gt;Node18</title>
<path fill="none" stroke="midnightblue" d="M546.32,-165.57C580.46,-155.38 629.66,-140.7 660.45,-131.52"/>
<polygon fill="midnightblue" stroke="midnightblue" points="545.26,-162.23 536.68,-168.44 547.26,-168.94 545.26,-162.23"/>
</g>
<!-- Node19 -->
<g id="node19" class="node">
<title>Node19</title>
<g id="a_node19"><a xlink:href="core_2pair__criteria_2EnergyCriterion_8hpp.html" target="_top" xlink:title=" ">
<polygon fill="none" stroke="black" points="358.5,-112.5 358.5,-131.5 471.5,-131.5 471.5,-112.5 358.5,-112.5"/>
<text text-anchor="middle" x="415" y="-119.5" font-family="Helvetica,sans-Serif" font-size="10.00">EnergyCriterion.hpp</text>
</a>
</g>
</g>
<!-- Node16&#45;&gt;Node19 -->
<g id="edge22" class="edge">
<title>Node16&#45;&gt;Node19</title>
<path fill="none" stroke="midnightblue" d="M484.19,-163.18C467.08,-153.24 444.53,-140.15 429.9,-131.65"/>
<polygon fill="midnightblue" stroke="midnightblue" points="482.65,-166.33 493.06,-168.32 486.17,-160.28 482.65,-166.33"/>
</g>
<!-- Node20 -->
<g id="node20" class="node">
<title>Node20</title>
<g id="a_node20"><a xlink:href="script__interface_2pair__criteria_2EnergyCriterion_8hpp.html" target="_top" xlink:title=" ">
<polygon fill="none" stroke="black" points="358.5,-56.5 358.5,-75.5 471.5,-75.5 471.5,-56.5 358.5,-56.5"/>
<text text-anchor="middle" x="415" y="-63.5" font-family="Helvetica,sans-Serif" font-size="10.00">EnergyCriterion.hpp</text>
</a>
</g>
</g>
<!-- Node19&#45;&gt;Node20 -->
<g id="edge23" class="edge">
<title>Node19&#45;&gt;Node20</title>
<path fill="none" stroke="midnightblue" d="M415,-101.8C415,-92.91 415,-82.78 415,-75.75"/>
<polygon fill="midnightblue" stroke="midnightblue" points="411.5,-102.08 415,-112.08 418.5,-102.08 411.5,-102.08"/>
</g>
<!-- Node21 -->
<g id="node21" class="node">
<title>Node21</title>
<g id="a_node21"><a xlink:href="pair__criteria_2initialize_8cpp.html" target="_top" xlink:title=" ">
<polygon fill="none" stroke="black" points="375.5,-0.5 375.5,-19.5 454.5,-19.5 454.5,-0.5 375.5,-0.5"/>
<text text-anchor="middle" x="415" y="-7.5" font-family="Helvetica,sans-Serif" font-size="10.00">initialize.cpp</text>
</a>
</g>
</g>
<!-- Node20&#45;&gt;Node21 -->
<g id="edge24" class="edge">
<title>Node20&#45;&gt;Node21</title>
<path fill="none" stroke="midnightblue" d="M415,-45.8C415,-36.91 415,-26.78 415,-19.75"/>
<polygon fill="midnightblue" stroke="midnightblue" points="411.5,-46.08 415,-56.08 418.5,-46.08 411.5,-46.08"/>
</g>
<!-- Node22&#45;&gt;Node17 -->
<g id="edge26" class="edge">
<title>Node22&#45;&gt;Node17</title>
<path fill="none" stroke="midnightblue" d="M751.59,-166.15C707,-155.95 641.15,-140.88 600.22,-131.52"/>
<polygon fill="midnightblue" stroke="midnightblue" points="751.08,-169.62 761.61,-168.44 752.64,-162.8 751.08,-169.62"/>
</g>
<!-- Node23 -->
<g id="node23" class="node">
<title>Node23</title>
<g id="a_node23"><a xlink:href="forces_8cpp.html" target="_top" xlink:title=" ">
<polygon fill="none" stroke="black" points="1365.5,-112.5 1365.5,-131.5 1432.5,-131.5 1432.5,-112.5 1365.5,-112.5"/>
<text text-anchor="middle" x="1399" y="-119.5" font-family="Helvetica,sans-Serif" font-size="10.00">forces.cpp</text>
</a>
</g>
</g>
<!-- Node22&#45;&gt;Node23 -->
<g id="edge27" class="edge">
<title>Node22&#45;&gt;Node23</title>
<path fill="none" stroke="midnightblue" d="M859.28,-171.58C984.22,-160.33 1267.9,-134.8 1365.38,-126.03"/>
<polygon fill="midnightblue" stroke="midnightblue" points="858.77,-168.11 849.12,-172.49 859.4,-175.08 858.77,-168.11"/>
</g>
<!-- Node24 -->
<g id="node24" class="node">
<title>Node24</title>
<g id="a_node24"><a xlink:href="pressure__inline_8hpp.html" target="_top" xlink:title=" ">
<polygon fill="none" stroke="black" points="742,-112.5 742,-131.5 854,-131.5 854,-112.5 742,-112.5"/>
<text text-anchor="middle" x="798" y="-119.5" font-family="Helvetica,sans-Serif" font-size="10.00">pressure_inline.hpp</text>
</a>
</g>
</g>
<!-- Node22&#45;&gt;Node24 -->
<g id="edge28" class="edge">
<title>Node22&#45;&gt;Node24</title>
<path fill="none" stroke="midnightblue" d="M798.64,-157.8C798.48,-148.91 798.29,-138.78 798.16,-131.75"/>
<polygon fill="midnightblue" stroke="midnightblue" points="795.15,-158.15 798.83,-168.08 802.15,-158.02 795.15,-158.15"/>
</g>
<!-- Node25 -->
<g id="node25" class="node">
<title>Node25</title>
<g id="a_node25"><a xlink:href="pressure_8cpp.html" target="_top" xlink:title=" ">
<polygon fill="none" stroke="black" points="842.5,-56.5 842.5,-75.5 921.5,-75.5 921.5,-56.5 842.5,-56.5"/>
<text text-anchor="middle" x="882" y="-63.5" font-family="Helvetica,sans-Serif" font-size="10.00">pressure.cpp</text>
</a>
</g>
</g>
<!-- Node24&#45;&gt;Node25 -->
<g id="edge29" class="edge">
<title>Node24&#45;&gt;Node25</title>
<path fill="none" stroke="midnightblue" d="M819.93,-106.9C835.34,-97 855.45,-84.07 868.54,-75.65"/>
<polygon fill="midnightblue" stroke="midnightblue" points="818.02,-103.97 811.5,-112.32 821.8,-109.86 818.02,-103.97"/>
</g>
<!-- Node27&#45;&gt;Node4 -->
<g id="edge48" class="edge">
<title>Node27&#45;&gt;Node4</title>
<path fill="none" stroke="midnightblue" d="M809.23,-354.45C927.03,-350.46 1230.15,-338.21 1482,-311 1497.27,-309.35 1513.85,-306.99 1528.77,-304.64"/>
<polygon fill="midnightblue" stroke="midnightblue" points="808.96,-350.95 799.08,-354.78 809.19,-357.95 808.96,-350.95"/>
</g>
<!-- Node27&#45;&gt;Node5 -->
<g id="edge56" class="edge">
<title>Node27&#45;&gt;Node5</title>
<path fill="none" stroke="midnightblue" d="M776.94,-340.69C801.93,-319.51 845.17,-283.47 854,-280 954.51,-240.44 1284.96,-235.45 1406.56,-234.97"/>
<polygon fill="midnightblue" stroke="midnightblue" points="774.59,-338.09 769.24,-347.24 779.12,-343.43 774.59,-338.09"/>
</g>
<!-- Node27&#45;&gt;Node6 -->
<g id="edge57" class="edge">
<title>Node27&#45;&gt;Node6</title>
<path fill="none" stroke="midnightblue" d="M766.49,-337.88C774.84,-320.09 790.11,-293.7 812,-280 913.55,-216.45 1289.17,-188.73 1412.49,-181.21"/>
<polygon fill="midnightblue" stroke="midnightblue" points="763.21,-336.64 762.37,-347.2 769.61,-339.46 763.21,-336.64"/>
</g>
<!-- Node27&#45;&gt;Node11 -->
<g id="edge34" class="edge">
<title>Node27&#45;&gt;Node11</title>
<path fill="none" stroke="midnightblue" d="M788.93,-343.63C816.91,-332.07 857.94,-315.12 882.41,-305.01"/>
<polygon fill="midnightblue" stroke="midnightblue" points="787.54,-340.42 779.63,-347.48 790.21,-346.89 787.54,-340.42"/>
</g>
<!-- Node27&#45;&gt;Node12 -->
<g id="edge44" class="edge">
<title>Node27&#45;&gt;Node12</title>
<path fill="none" stroke="midnightblue" d="M708.47,-351.26C655.28,-345.19 576.46,-332.76 556,-311 538.52,-292.41 540.44,-259.26 542.55,-243.62"/>
<polygon fill="midnightblue" stroke="midnightblue" points="708.42,-354.78 718.74,-352.39 709.18,-347.82 708.42,-354.78"/>
</g>
<!-- Node27&#45;&gt;Node13 -->
<g id="edge46" class="edge">
<title>Node27&#45;&gt;Node13</title>
<path fill="none" stroke="midnightblue" d="M708.67,-355.26C617.89,-353.08 421.1,-344.54 259,-311 251.91,-309.53 244.37,-307.31 237.57,-305.03"/>
<polygon fill="midnightblue" stroke="midnightblue" points="708.61,-358.76 718.69,-355.48 708.77,-351.76 708.61,-358.76"/>
</g>
<!-- Node27&#45;&gt;Node14 -->
<g id="edge47" class="edge">
<title>Node27&#45;&gt;Node14</title>
<path fill="none" stroke="midnightblue" d="M807.75,-345.24C846.65,-336.49 902.48,-323.58 951,-311 958.13,-309.15 965.78,-307.04 972.94,-305.02"/>
<polygon fill="midnightblue" stroke="midnightblue" points="806.74,-341.88 797.74,-347.48 808.27,-348.71 806.74,-341.88"/>
</g>
<!-- Node27&#45;&gt;Node18 -->
<g id="edge50" class="edge">
<title>Node27&#45;&gt;Node18</title>
<path fill="none" stroke="midnightblue" d="M753.27,-337.76C750.72,-329.59 747.68,-319.82 745,-311 723.97,-241.93 699.37,-158.33 691.53,-131.63"/>
<polygon fill="midnightblue" stroke="midnightblue" points="749.96,-338.89 756.29,-347.38 756.64,-336.79 749.96,-338.89"/>
</g>
<!-- Node27&#45;&gt;Node25 -->
<g id="edge55" class="edge">
<title>Node27&#45;&gt;Node25</title>
<path fill="none" stroke="midnightblue" d="M761.57,-336.92C764.28,-321 769.51,-298.08 779,-280 804.05,-232.28 834.43,-236.47 858,-188 876.92,-149.1 880.92,-96.25 881.77,-75.69"/>
<polygon fill="midnightblue" stroke="midnightblue" points="758.07,-336.69 760.02,-347.1 764.99,-337.74 758.07,-336.69"/>
</g>
<!-- Node28 -->
<g id="node28" class="node">
<title>Node28</title>
<g id="a_node28"><a xlink:href="coulomb__inline_8hpp.html" target="_top" xlink:title=" ">
<polygon fill="none" stroke="black" points="397,-286 397,-305 509,-305 509,-286 397,-286"/>
<text text-anchor="middle" x="453" y="-293" font-family="Helvetica,sans-Serif" font-size="10.00">coulomb_inline.hpp</text>
</a>
</g>
</g>
<!-- Node27&#45;&gt;Node28 -->
<g id="edge35" class="edge">
<title>Node27&#45;&gt;Node28</title>
<path fill="none" stroke="midnightblue" d="M708.79,-346.66C660.98,-337.72 587.03,-323.74 523,-311 513.51,-309.11 503.3,-307.03 493.69,-305.04"/>
<polygon fill="midnightblue" stroke="midnightblue" points="708.4,-350.15 718.88,-348.55 709.69,-343.27 708.4,-350.15"/>
</g>
<!-- Node29 -->
<g id="node29" class="node">
<title>Node29</title>
<g id="a_node29"><a xlink:href="thole_8hpp.html" target="_top" xlink:title=" ">
<polygon fill="none" stroke="black" points="242,-224.5 242,-243.5 304,-243.5 304,-224.5 242,-224.5"/>
<text text-anchor="middle" x="273" y="-231.5" font-family="Helvetica,sans-Serif" font-size="10.00">thole.hpp</text>
</a>
</g>
</g>
<!-- Node27&#45;&gt;Node29 -->
<g id="edge49" class="edge">
<title>Node27&#45;&gt;Node29</title>
<path fill="none" stroke="midnightblue" d="M708.68,-354.39C594.46,-350.27 323.09,-337.77 292,-311 272.21,-293.96 271.42,-259.73 272.26,-243.68"/>
<polygon fill="midnightblue" stroke="midnightblue" points="708.78,-357.89 718.9,-354.75 709.03,-350.9 708.78,-357.89"/>
</g>
<!-- Node31 -->
<g id="node31" class="node">
<title>Node31</title>
<g id="a_node31"><a xlink:href="elc_8cpp.html" target="_top" xlink:title=" ">
<polygon fill="none" stroke="black" points="116.5,-286 116.5,-305 167.5,-305 167.5,-286 116.5,-286"/>
<text text-anchor="middle" x="142" y="-293" font-family="Helvetica,sans-Serif" font-size="10.00">elc.cpp</text>
</a>
</g>
</g>
<!-- Node27&#45;&gt;Node31 -->
<g id="edge43" class="edge">
<title>Node27&#45;&gt;Node31</title>
<path fill="none" stroke="midnightblue" d="M708.72,-354.22C586.49,-349.55 276.48,-335.6 176,-311 170.39,-309.63 164.52,-307.43 159.27,-305.15"/>
<polygon fill="midnightblue" stroke="midnightblue" points="708.79,-357.72 718.92,-354.6 709.05,-350.73 708.79,-357.72"/>
</g>
<!-- Node32 -->
<g id="node32" class="node">
<title>Node32</title>
<g id="a_node32"><a xlink:href="mmm1d_8cpp.html" target="_top" xlink:title=" ">
<polygon fill="none" stroke="black" points="301,-286 301,-305 379,-305 379,-286 301,-286"/>
<text text-anchor="middle" x="340" y="-293" font-family="Helvetica,sans-Serif" font-size="10.00">mmm1d.cpp</text>
</a>
</g>
</g>
<!-- Node27&#45;&gt;Node32 -->
<g id="edge45" class="edge">
<title>Node27&#45;&gt;Node32</title>
<path fill="none" stroke="midnightblue" d="M708.71,-352.67C636.96,-347.29 501.32,-334.8 388,-311 380.5,-309.43 372.49,-307.22 365.2,-305"/>
<polygon fill="midnightblue" stroke="midnightblue" points="708.6,-356.17 718.83,-353.41 709.11,-349.19 708.6,-356.17"/>
</g>
<!-- Node33 -->
<g id="node33" class="node">
<title>Node33</title>
<g id="a_node33"><a xlink:href="event_8cpp.html" target="_top" xlink:title=" ">
<polygon fill="none" stroke="black" points="1061.5,-286 1061.5,-305 1126.5,-305 1126.5,-286 1061.5,-286"/>
<text text-anchor="middle" x="1094" y="-293" font-family="Helvetica,sans-Serif" font-size="10.00">event.cpp</text>
</a>
</g>
</g>
<!-- Node27&#45;&gt;Node33 -->
<g id="edge51" class="edge">
<title>Node27&#45;&gt;Node33</title>
<path fill="none" stroke="midnightblue" d="M809.4,-351.05C868.21,-344.64 968.11,-331.74 1052,-311 1058.44,-309.41 1065.29,-307.25 1071.55,-305.08"/>
<polygon fill="midnightblue" stroke="midnightblue" points="808.83,-347.59 799.26,-352.14 809.58,-354.55 808.83,-347.59"/>
</g>
<!-- Node34 -->
<g id="node34" class="node">
<title>Node34</title>
<g id="a_node34"><a xlink:href="interactions_8cpp.html" target="_top" xlink:title=" ">
<polygon fill="none" stroke="black" points="1144.5,-286 1144.5,-305 1239.5,-305 1239.5,-286 1144.5,-286"/>
<text text-anchor="middle" x="1192" y="-293" font-family="Helvetica,sans-Serif" font-size="10.00">interactions.cpp</text>
</a>
</g>
</g>
<!-- Node27&#45;&gt;Node34 -->
<g id="edge52" class="edge">
<title>Node27&#45;&gt;Node34</title>
<path fill="none" stroke="midnightblue" d="M809.39,-352.16C882.01,-346.12 1020.08,-332.82 1136,-311 1144.59,-309.38 1153.8,-307.19 1162.23,-305"/>
<polygon fill="midnightblue" stroke="midnightblue" points="808.85,-348.69 799.17,-352.99 809.42,-355.66 808.85,-348.69"/>
</g>
<!-- Node35 -->
<g id="node35" class="node">
<title>Node35</title>
<g id="a_node35"><a xlink:href="nonbonded__interaction__data_8cpp.html" target="_top" xlink:title=" ">
<polygon fill="none" stroke="black" points="565,-280.5 565,-310.5 693,-310.5 693,-280.5 565,-280.5"/>
<text text-anchor="start" x="573" y="-298.5" font-family="Helvetica,sans-Serif" font-size="10.00">nonbonded_interaction</text>
<text text-anchor="middle" x="629" y="-287.5" font-family="Helvetica,sans-Serif" font-size="10.00">_data.cpp</text>
</a>
</g>
</g>
<!-- Node27&#45;&gt;Node35 -->
<g id="edge53" class="edge">
<title>Node27&#45;&gt;Node35</title>
<path fill="none" stroke="midnightblue" d="M731.03,-343.2C710.03,-333.58 681.27,-320.42 659.64,-310.52"/>
<polygon fill="midnightblue" stroke="midnightblue" points="729.82,-346.5 740.37,-347.48 732.74,-340.13 729.82,-346.5"/>
</g>
<!-- Node36 -->
<g id="node36" class="node">
<title>Node36</title>
<g id="a_node36"><a xlink:href="npt_8cpp.html" target="_top" xlink:title=" ">
<polygon fill="none" stroke="black" points="1257.5,-286 1257.5,-305 1310.5,-305 1310.5,-286 1257.5,-286"/>
<text text-anchor="middle" x="1284" y="-293" font-family="Helvetica,sans-Serif" font-size="10.00">npt.cpp</text>
</a>
</g>
</g>
<!-- Node27&#45;&gt;Node36 -->
<g id="edge54" class="edge">
<title>Node27&#45;&gt;Node36</title>
<path fill="none" stroke="midnightblue" d="M809.2,-356.33C898.86,-355.83 1091.84,-349.82 1249,-311 1254.75,-309.58 1260.78,-307.37 1266.19,-305.09"/>
<polygon fill="midnightblue" stroke="midnightblue" points="809.04,-352.83 799.05,-356.36 809.06,-359.83 809.04,-352.83"/>
</g>
<!-- Node28&#45;&gt;Node12 -->
<g id="edge36" class="edge">
<title>Node28&#45;&gt;Node12</title>
<path fill="none" stroke="midnightblue" d="M474.52,-280.43C492.06,-268.96 516.27,-253.13 530.99,-243.51"/>
<polygon fill="midnightblue" stroke="midnightblue" points="472.49,-277.57 466.04,-285.98 476.32,-283.43 472.49,-277.57"/>
</g>
<!-- Node28&#45;&gt;Node16 -->
<g id="edge37" class="edge">
<title>Node28&#45;&gt;Node16</title>
<path fill="none" stroke="midnightblue" d="M457.74,-276.17C461.85,-261.6 468.49,-240.94 477,-224 483.82,-210.44 494.22,-196.25 501.07,-187.52"/>
<polygon fill="midnightblue" stroke="midnightblue" points="454.32,-275.38 455.09,-285.95 461.08,-277.21 454.32,-275.38"/>
</g>
<!-- Node28&#45;&gt;Node22 -->
<g id="edge42" class="edge">
<title>Node28&#45;&gt;Node22</title>
<path fill="none" stroke="midnightblue" d="M462.31,-276.67C471.93,-260.16 488.54,-236.36 510,-224 549.71,-201.12 677.09,-188.13 748.78,-182.46"/>
<polygon fill="midnightblue" stroke="midnightblue" points="459.02,-275.39 457.25,-285.84 465.14,-278.77 459.02,-275.39"/>
</g>
<!-- Node28&#45;&gt;Node29 -->
<g id="edge38" class="edge">
<title>Node28&#45;&gt;Node29</title>
<path fill="none" stroke="midnightblue" d="M417.4,-282.73C382.41,-271.17 329.86,-253.8 298.74,-243.51"/>
<polygon fill="midnightblue" stroke="midnightblue" points="416.62,-286.16 427.21,-285.98 418.81,-279.51 416.62,-286.16"/>
</g>
<!-- Node29&#45;&gt;Node16 -->
<g id="edge39" class="edge">
<title>Node29&#45;&gt;Node16</title>
<path fill="none" stroke="midnightblue" d="M314.06,-223.56C358.32,-213.39 428.16,-197.35 470.85,-187.54"/>
<polygon fill="midnightblue" stroke="midnightblue" points="313.17,-220.18 304.21,-225.83 314.74,-227 313.17,-220.18"/>
</g>
<!-- Node29&#45;&gt;Node22 -->
<g id="edge40" class="edge">
<title>Node29&#45;&gt;Node22</title>
<path fill="none" stroke="midnightblue" d="M314.65,-224.51C315.78,-224.33 316.9,-224.16 318,-224 474.43,-201.1 661.28,-187.53 748.94,-181.96"/>
<polygon fill="midnightblue" stroke="midnightblue" points="313.65,-221.13 304.4,-226.29 314.85,-228.03 313.65,-221.13"/>
</g>
<!-- Node30 -->
<g id="node30" class="node">
<title>Node30</title>
<g id="a_node30"><a xlink:href="thole_8cpp.html" target="_top" xlink:title=" ">
<polygon fill="none" stroke="black" points="242,-168.5 242,-187.5 304,-187.5 304,-168.5 242,-168.5"/>
<text text-anchor="middle" x="273" y="-175.5" font-family="Helvetica,sans-Serif" font-size="10.00">thole.cpp</text>
</a>
</g>
</g>
<!-- Node29&#45;&gt;Node30 -->
<g id="edge41" class="edge">
<title>Node29&#45;&gt;Node30</title>
<path fill="none" stroke="midnightblue" d="M273,-213.8C273,-204.91 273,-194.78 273,-187.75"/>
<polygon fill="midnightblue" stroke="midnightblue" points="269.5,-214.08 273,-224.08 276.5,-214.08 269.5,-214.08"/>
</g>
<!-- Node37&#45;&gt;Node13 -->
<g id="edge61" class="edge">
<title>Node37&#45;&gt;Node13</title>
<path fill="none" stroke="midnightblue" d="M237.68,-393.5C231.78,-368.26 221.43,-324.02 217.05,-305.28"/>
<polygon fill="midnightblue" stroke="midnightblue" points="234.29,-394.38 239.97,-403.32 241.1,-392.78 234.29,-394.38"/>
</g>
<!-- Node37&#45;&gt;Node27 -->
<g id="edge59" class="edge">
<title>Node37&#45;&gt;Node27</title>
<path fill="none" stroke="midnightblue" d="M278.48,-408.19C372.22,-398.4 621,-372.41 718.76,-362.2"/>
<polygon fill="midnightblue" stroke="midnightblue" points="277.93,-404.73 268.35,-409.25 278.66,-411.69 277.93,-404.73"/>
</g>
<!-- Node37&#45;&gt;Node31 -->
<g id="edge60" class="edge">
<title>Node37&#45;&gt;Node31</title>
<path fill="none" stroke="midnightblue" d="M227.71,-395.5C206.21,-370.66 166.26,-324.52 149.6,-305.28"/>
<polygon fill="midnightblue" stroke="midnightblue" points="225.29,-398.05 234.48,-403.32 230.58,-393.47 225.29,-398.05"/>
</g>
<!-- Node38 -->
<g id="node38" class="node">
<title>Node38</title>
<g id="a_node38"><a xlink:href="ElectrostaticLayerCorrection_8hpp.html" target="_top" xlink:title=" ">
<polygon fill="none" stroke="black" points="0,-347.5 0,-366.5 176,-366.5 176,-347.5 0,-347.5"/>
<text text-anchor="middle" x="88" y="-354.5" font-family="Helvetica,sans-Serif" font-size="10.00">ElectrostaticLayerCorrection.hpp</text>
</a>
</g>
</g>
<!-- Node37&#45;&gt;Node38 -->
<g id="edge62" class="edge">
<title>Node37&#45;&gt;Node38</title>
<path fill="none" stroke="midnightblue" d="M207.89,-400.04C178.91,-389.88 138.04,-375.55 112.29,-366.52"/>
<polygon fill="midnightblue" stroke="midnightblue" points="207,-403.44 217.6,-403.44 209.32,-396.83 207,-403.44"/>
</g>
<!-- Node38&#45;&gt;Node6 -->
<g id="edge63" class="edge">
<title>Node38&#45;&gt;Node6</title>
<path fill="none" stroke="midnightblue" d="M87.2,-337.26C87.55,-319.78 91.07,-294.32 107,-280 123.81,-264.89 487.49,-226.1 510,-224 858.87,-191.5 1282.73,-181.89 1412.42,-179.61"/>
<polygon fill="midnightblue" stroke="midnightblue" points="83.7,-337.44 87.33,-347.4 90.7,-337.35 83.7,-337.44"/>
</g>
<!-- Node39&#45;&gt;Node8 -->
<g id="edge73" class="edge">
<title>Node39&#45;&gt;Node8</title>
<path fill="none" stroke="midnightblue" d="M1745.22,-341.29C1730.64,-329.88 1710.94,-314.46 1698.87,-305.01"/>
<polygon fill="midnightblue" stroke="midnightblue" points="1743.08,-344.07 1753.11,-347.48 1747.39,-338.55 1743.08,-344.07"/>
</g>
<!-- Node39&#45;&gt;Node9 -->
<g id="edge76" class="edge">
<title>Node39&#45;&gt;Node9</title>
<path fill="none" stroke="midnightblue" d="M1770.55,-337.7C1773.11,-329.63 1775.73,-319.96 1777,-311 1778.93,-297.36 1778.65,-293.68 1777,-280 1775.44,-267.06 1771.45,-252.48 1768.73,-243.51"/>
<polygon fill="midnightblue" stroke="midnightblue" points="1767.23,-336.6 1767.34,-347.2 1773.86,-338.84 1767.23,-336.6"/>
</g>
<!-- Node39&#45;&gt;Node10 -->
<g id="edge77" class="edge">
<title>Node39&#45;&gt;Node10</title>
<path fill="none" stroke="midnightblue" d="M1776.18,-338.81C1790.28,-317.69 1812.51,-280.18 1820,-244 1821.8,-235.3 1822.77,-232.45 1820,-224 1815.3,-209.64 1804.07,-196.07 1796.02,-187.66"/>
<polygon fill="midnightblue" stroke="midnightblue" points="1773.13,-337.08 1770.36,-347.3 1778.9,-341.03 1773.13,-337.08"/>
</g>
<!-- Node39&#45;&gt;Node15 -->
<g id="edge66" class="edge">
<title>Node39&#45;&gt;Node15</title>
<path fill="none" stroke="midnightblue" d="M1717.23,-347.91C1652.31,-336.68 1535.43,-316.47 1469.23,-305.02"/>
<polygon fill="midnightblue" stroke="midnightblue" points="1716.74,-351.38 1727.19,-349.63 1717.93,-344.48 1716.74,-351.38"/>
</g>
<!-- Node39&#45;&gt;Node18 -->
<g id="edge67" class="edge">
<title>Node39&#45;&gt;Node18</title>
<path fill="none" stroke="midnightblue" d="M1763.45,-337.21C1762.02,-320.45 1757.54,-296.13 1744,-280 1667.56,-188.9 1616.53,-196.19 1501,-168 1169.03,-86.99 1072.07,-174.37 733,-132 729.91,-131.61 726.7,-131.13 723.5,-130.58"/>
<polygon fill="midnightblue" stroke="midnightblue" points="1759.97,-337.62 1764.02,-347.41 1766.95,-337.23 1759.97,-337.62"/>
</g>
<!-- Node39&#45;&gt;Node23 -->
<g id="edge69" class="edge">
<title>Node39&#45;&gt;Node23</title>
<path fill="none" stroke="midnightblue" d="M1784.92,-341.48C1794.99,-333.53 1806.49,-322.87 1814,-311 1848.38,-256.66 1879.08,-215.74 1836,-168 1809.08,-138.17 1530.32,-126.96 1432.61,-123.92"/>
<polygon fill="midnightblue" stroke="midnightblue" points="1782.8,-338.7 1776.91,-347.5 1787.01,-344.29 1782.8,-338.7"/>
</g>
<!-- Node39&#45;&gt;Node25 -->
<g id="edge75" class="edge">
<title>Node39&#45;&gt;Node25</title>
<path fill="none" stroke="midnightblue" d="M1802.19,-344.1C1846.93,-327.49 1915,-292.74 1915,-235 1915,-235 1915,-235 1915,-177 1915,-75.16 1110.81,-67.4 921.55,-66.98"/>
<polygon fill="midnightblue" stroke="midnightblue" points="1801,-340.81 1792.76,-347.46 1803.35,-347.4 1801,-340.81"/>
</g>
<!-- Node39&#45;&gt;Node26 -->
<g id="edge71" class="edge">
<title>Node39&#45;&gt;Node26</title>
<path fill="none" stroke="midnightblue" d="M1805.85,-344.78C1839.24,-335.79 1887.17,-322.77 1929,-311 1935.79,-309.09 1943.08,-307 1949.94,-305.01"/>
<polygon fill="midnightblue" stroke="midnightblue" points="1804.73,-341.46 1795.98,-347.44 1806.55,-348.22 1804.73,-341.46"/>
</g>
<!-- Node39&#45;&gt;Node33 -->
<g id="edge68" class="edge">
<title>Node39&#45;&gt;Node33</title>
<path fill="none" stroke="midnightblue" d="M1717.29,-351.27C1702.2,-349.81 1685.4,-348.26 1670,-347 1432.92,-327.66 1369.14,-358.23 1136,-311 1129.2,-309.62 1121.98,-307.42 1115.49,-305.14"/>
<polygon fill="midnightblue" stroke="midnightblue" points="1717.12,-354.77 1727.42,-352.26 1717.8,-347.8 1717.12,-354.77"/>
</g>
<!-- Node39&#45;&gt;Node34 -->
<g id="edge70" class="edge">
<title>Node39&#45;&gt;Node34</title>
<path fill="none" stroke="midnightblue" d="M1717.27,-351.43C1702.19,-349.98 1685.39,-348.39 1670,-347 1482.97,-330.05 1434.18,-342.25 1249,-311 1240.04,-309.49 1230.42,-307.27 1221.68,-305.03"/>
<polygon fill="midnightblue" stroke="midnightblue" points="1717.11,-354.93 1727.4,-352.41 1717.79,-347.96 1717.11,-354.93"/>
</g>
<!-- Node39&#45;&gt;Node36 -->
<g id="edge74" class="edge">
<title>Node39&#45;&gt;Node36</title>
<path fill="none" stroke="midnightblue" d="M1717.23,-351.28C1625.96,-341.99 1427.1,-321.35 1359,-311 1342.87,-308.55 1324.93,-305.11 1310.64,-302.19"/>
<polygon fill="midnightblue" stroke="midnightblue" points="1716.99,-354.77 1727.29,-352.3 1717.69,-347.81 1716.99,-354.77"/>
</g>
<!-- Node40 -->
<g id="node40" class="node">
<title>Node40</title>
<g id="a_node40"><a xlink:href="dlc_8cpp.html" target="_top" xlink:title=" ">
<polygon fill="none" stroke="black" points="2033.5,-286 2033.5,-305 2084.5,-305 2084.5,-286 2033.5,-286"/>
<text text-anchor="middle" x="2059" y="-293" font-family="Helvetica,sans-Serif" font-size="10.00">dlc.cpp</text>
</a>
</g>
</g>
<!-- Node39&#45;&gt;Node40 -->
<g id="edge72" class="edge">
<title>Node39&#45;&gt;Node40</title>
<path fill="none" stroke="midnightblue" d="M1810.79,-351.07C1863.39,-344.79 1950.99,-332.16 2024,-311 2029.43,-309.43 2035.17,-307.27 2040.38,-305.11"/>
<polygon fill="midnightblue" stroke="midnightblue" points="1810.28,-347.6 1800.75,-352.24 1811.09,-354.56 1810.28,-347.6"/>
</g>
<!-- Node41&#45;&gt;Node39 -->
<g id="edge80" class="edge">
<title>Node41&#45;&gt;Node39</title>
<path fill="none" stroke="midnightblue" d="M1924.11,-402.11C1887.12,-391.92 1830.06,-376.2 1794.99,-366.54"/>
<polygon fill="midnightblue" stroke="midnightblue" points="1923.4,-405.55 1933.97,-404.83 1925.26,-398.8 1923.4,-405.55"/>
</g>
<!-- Node41&#45;&gt;Node40 -->
<g id="edge81" class="edge">
<title>Node41&#45;&gt;Node40</title>
<path fill="none" stroke="midnightblue" d="M1974.14,-395.5C1995.43,-370.66 2034.98,-324.52 2051.47,-305.28"/>
<polygon fill="midnightblue" stroke="midnightblue" points="1971.29,-393.45 1967.44,-403.32 1976.61,-398 1971.29,-393.45"/>
</g>
<!-- Node42 -->
<g id="node42" class="node">
<title>Node42</title>
<g id="a_node42"><a xlink:href="DipolarLayerCorrection_8hpp.html" target="_top" xlink:title=" ">
<polygon fill="none" stroke="black" points="2036,-347.5 2036,-366.5 2186,-366.5 2186,-347.5 2036,-347.5"/>
<text text-anchor="middle" x="2111" y="-354.5" font-family="Helvetica,sans-Serif" font-size="10.00">DipolarLayerCorrection.hpp</text>
</a>
</g>
</g>
<!-- Node41&#45;&gt;Node42 -->
<g id="edge82" class="edge">
<title>Node41&#45;&gt;Node42</title>
<path fill="none" stroke="midnightblue" d="M1993.45,-400.04C2021.86,-389.88 2061.94,-375.55 2087.19,-366.52"/>
<polygon fill="midnightblue" stroke="midnightblue" points="1992.16,-396.78 1983.93,-403.44 1994.52,-403.37 1992.16,-396.78"/>
</g>
<!-- Node42&#45;&gt;Node10 -->
<g id="edge83" class="edge">
<title>Node42&#45;&gt;Node10</title>
<path fill="none" stroke="midnightblue" d="M2111.72,-336.89C2111.31,-319.91 2108.02,-295.46 2094,-280 2023.52,-202.27 1892.2,-184.21 1826.53,-180.12"/>
<polygon fill="midnightblue" stroke="midnightblue" points="2108.22,-337.22 2111.63,-347.24 2115.22,-337.27 2108.22,-337.22"/>
</g>
</g>
</svg>
