<?xml version="1.0" encoding="UTF-8" standalone="no"?>
<!DOCTYPE svg PUBLIC "-//W3C//DTD SVG 1.1//EN"
 "http://www.w3.org/Graphics/SVG/1.1/DTD/svg11.dtd">
<!-- Generated by graphviz version 2.43.0 (0)
 -->
<!-- Title: types_conversion.hpp Pages: 1 -->
<!--zoomable 196 -->
<svg id="main" version="1.1" xmlns="http://www.w3.org/2000/svg" xmlns:xlink="http://www.w3.org/1999/xlink" xml:space="preserve" onload="init(evt)">
<style type="text/css"><![CDATA[
.edge:hover path { stroke: red; }
.edge:hover polygon { stroke: red; fill: red; }
]]></style>
<script type="text/javascript"><![CDATA[
var edges = document.getElementsByTagName('g');
if (edges && edges.length) {
  for (var i=0;i<edges.length;i++) {
    if (edges[i].id.substr(0,4)=='edge') {
      edges[i].setAttribute('class','edge');
    }
  }
}
]]></script>
        <defs>
                <circle id="rim" cx="0" cy="0" r="7"/>
                <circle id="rim2" cx="0" cy="0" r="3.5"/>
                <g id="zoomPlus">
                        <use xlink:href="#rim" fill="#404040">
                                <set attributeName="fill" to="#808080" begin="zoomplus.mouseover" end="zoomplus.mouseout"/>
                        </use>
                        <path d="M-4,0h8M0,-4v8" fill="none" stroke="white" stroke-width="1.5" pointer-events="none"/>
                </g>
                <g id="zoomMin">
                        <use xlink:href="#rim" fill="#404040">
                                <set attributeName="fill" to="#808080" begin="zoomminus.mouseover" end="zoomminus.mouseout"/>
                        </use>
                        <path d="M-4,0h8" fill="none" stroke="white" stroke-width="1.5" pointer-events="none"/>
                </g>
                <g id="dirArrow">
                        <path fill="none" stroke="white" stroke-width="1.5" d="M0,-3.0v7 M-2.5,-0.5L0,-3.0L2.5,-0.5"/>
                </g>
               <g id="resetDef">
                       <use xlink:href="#rim2" fill="#404040">
                               <set attributeName="fill" to="#808080" begin="reset.mouseover" end="reset.mouseout"/>
                       </use>
               </g>
        </defs>

<script type="text/javascript">
var viewWidth = 530;
var viewHeight = 196;
var sectionId = 'dynsection-1';
</script>
<script xlink:href="svgpan.js"/>
<svg id="graph" class="graph">
<g id="viewport">
<title>types_conversion.hpp</title>
<!-- Node1 -->
<g id="node1" class="node">
<title>Node1</title>
<g id="a_node1"><a xlink:title=" ">
<polygon fill="#bfbfbf" stroke="black" points="173.54,-168.5 173.54,-187.5 296.54,-187.5 296.54,-168.5 173.54,-168.5"/>
<text text-anchor="middle" x="235.04" y="-175.5" font-family="Helvetica,sans-Serif" font-size="10.00">types_conversion.hpp</text>
</a>
</g>
</g>
<!-- Node2 -->
<g id="node2" class="node">
<title>Node2</title>
<g id="a_node2"><a xlink:href="BoundaryHandling_8hpp.html" target="_top" xlink:title=" ">
<polygon fill="none" stroke="black" points="14.04,-112.5 14.04,-131.5 142.04,-131.5 142.04,-112.5 14.04,-112.5"/>
<text text-anchor="middle" x="78.04" y="-119.5" font-family="Helvetica,sans-Serif" font-size="10.00">BoundaryHandling.hpp</text>
</a>
</g>
</g>
<!-- Node1&#45;&gt;Node2 -->
<g id="edge1" class="edge">
<title>Node1&#45;&gt;Node2</title>
<path fill="none" stroke="midnightblue" d="M200.65,-165.17C171.09,-155 129.17,-140.59 102.8,-131.52"/>
<polygon fill="midnightblue" stroke="midnightblue" points="199.57,-168.5 210.16,-168.44 201.85,-161.88 199.57,-168.5"/>
</g>
<!-- Node3 -->
<g id="node3" class="node">
<title>Node3</title>
<g id="a_node3"><a xlink:href="EKinWalberlaImpl_8hpp.html" target="_top" xlink:title=" ">
<polygon fill="none" stroke="black" points="16.04,-56.5 16.04,-75.5 140.04,-75.5 140.04,-56.5 16.04,-56.5"/>
<text text-anchor="middle" x="78.04" y="-63.5" font-family="Helvetica,sans-Serif" font-size="10.00">EKinWalberlaImpl.hpp</text>
</a>
</g>
</g>
<!-- Node1&#45;&gt;Node3 -->
<g id="edge6" class="edge">
<title>Node1&#45;&gt;Node3</title>
<path fill="none" stroke="midnightblue" d="M163.35,-172.72C103.5,-167.47 24.87,-156.09 5.04,-132 -13.83,-109.07 27.21,-87.12 55.07,-75.52"/>
<polygon fill="midnightblue" stroke="midnightblue" points="163.28,-176.22 173.54,-173.57 163.86,-169.25 163.28,-176.22"/>
</g>
<!-- Node5 -->
<g id="node5" class="node">
<title>Node5</title>
<g id="a_node5"><a xlink:href="LBWalberlaImpl_8hpp.html" target="_top" xlink:title="walberla::LBWalberlaImpl implements the interface of the LB waLBerla bridge using sweeps generated by...">
<polygon fill="none" stroke="black" points="185.04,-56.5 185.04,-75.5 299.04,-75.5 299.04,-56.5 185.04,-56.5"/>
<text text-anchor="middle" x="242.04" y="-63.5" font-family="Helvetica,sans-Serif" font-size="10.00">LBWalberlaImpl.hpp</text>
</a>
</g>
</g>
<!-- Node1&#45;&gt;Node5 -->
<g id="edge7" class="edge">
<title>Node1&#45;&gt;Node5</title>
<path fill="none" stroke="midnightblue" d="M243.1,-158.83C246.25,-150.78 249.47,-141.09 251.04,-132 254.49,-112.02 248.79,-88.4 245,-75.86"/>
<polygon fill="midnightblue" stroke="midnightblue" points="239.78,-157.7 239.15,-168.28 246.24,-160.4 239.78,-157.7"/>
</g>
<!-- Node7 -->
<g id="node7" class="node">
<title>Node7</title>
<g id="a_node7"><a xlink:href="ResetForce_8hpp.html" target="_top" xlink:title=" ">
<polygon fill="none" stroke="black" points="298.04,-112.5 298.04,-131.5 390.04,-131.5 390.04,-112.5 298.04,-112.5"/>
<text text-anchor="middle" x="344.04" y="-119.5" font-family="Helvetica,sans-Serif" font-size="10.00">ResetForce.hpp</text>
</a>
</g>
</g>
<!-- Node1&#45;&gt;Node7 -->
<g id="edge8" class="edge">
<title>Node1&#45;&gt;Node7</title>
<path fill="none" stroke="midnightblue" d="M261.56,-163.86C281.77,-153.85 309.03,-140.35 326.57,-131.65"/>
<polygon fill="midnightblue" stroke="midnightblue" points="259.96,-160.75 252.55,-168.32 263.07,-167.02 259.96,-160.75"/>
</g>
<!-- Node8 -->
<g id="node8" class="node">
<title>Node8</title>
<g id="a_node8"><a xlink:href="LatticeWalberla_8cpp.html" target="_top" xlink:title=" ">
<polygon fill="none" stroke="black" points="408.54,-112.5 408.54,-131.5 521.54,-131.5 521.54,-112.5 408.54,-112.5"/>
<text text-anchor="middle" x="465.04" y="-119.5" font-family="Helvetica,sans-Serif" font-size="10.00">LatticeWalberla.cpp</text>
</a>
</g>
</g>
<!-- Node1&#45;&gt;Node8 -->
<g id="edge10" class="edge">
<title>Node1&#45;&gt;Node8</title>
<path fill="none" stroke="midnightblue" d="M281.24,-166.15C324.7,-155.95 388.88,-140.88 428.77,-131.52"/>
<polygon fill="midnightblue" stroke="midnightblue" points="280.42,-162.75 271.49,-168.44 282.02,-169.57 280.42,-162.75"/>
</g>
<!-- Node9 -->
<g id="node9" class="node">
<title>Node9</title>
<g id="a_node9"><a xlink:href="boundary_8hpp.html" target="_top" xlink:title=" ">
<polygon fill="none" stroke="black" points="160.04,-112.5 160.04,-131.5 242.04,-131.5 242.04,-112.5 160.04,-112.5"/>
<text text-anchor="middle" x="201.04" y="-119.5" font-family="Helvetica,sans-Serif" font-size="10.00">boundary.hpp</text>
</a>
</g>
</g>
<!-- Node1&#45;&gt;Node9 -->
<g id="edge11" class="edge">
<title>Node1&#45;&gt;Node9</title>
<path fill="none" stroke="midnightblue" d="M224.06,-159.57C218.22,-150.27 211.27,-139.25 206.55,-131.75"/>
<polygon fill="midnightblue" stroke="midnightblue" points="221.14,-161.49 229.43,-168.08 227.06,-157.76 221.14,-161.49"/>
</g>
<!-- Node2&#45;&gt;Node3 -->
<g id="edge2" class="edge">
<title>Node2&#45;&gt;Node3</title>
<path fill="none" stroke="midnightblue" d="M78.04,-101.8C78.04,-92.91 78.04,-82.78 78.04,-75.75"/>
<polygon fill="midnightblue" stroke="midnightblue" points="74.54,-102.08 78.04,-112.08 81.54,-102.08 74.54,-102.08"/>
</g>
<!-- Node2&#45;&gt;Node5 -->
<g id="edge4" class="edge">
<title>Node2&#45;&gt;Node5</title>
<path fill="none" stroke="midnightblue" d="M113.56,-109.3C144.46,-99.13 188.52,-84.62 216.18,-75.52"/>
<polygon fill="midnightblue" stroke="midnightblue" points="112.43,-105.99 104.03,-112.44 114.62,-112.64 112.43,-105.99"/>
</g>
<!-- Node4 -->
<g id="node4" class="node">
<title>Node4</title>
<g id="a_node4"><a xlink:href="ek__walberla__init_8cpp.html" target="_top" xlink:title=" ">
<polygon fill="none" stroke="black" points="19.54,-0.5 19.54,-19.5 136.54,-19.5 136.54,-0.5 19.54,-0.5"/>
<text text-anchor="middle" x="78.04" y="-7.5" font-family="Helvetica,sans-Serif" font-size="10.00">ek_walberla_init.cpp</text>
</a>
</g>
</g>
<!-- Node3&#45;&gt;Node4 -->
<g id="edge3" class="edge">
<title>Node3&#45;&gt;Node4</title>
<path fill="none" stroke="midnightblue" d="M78.04,-45.8C78.04,-36.91 78.04,-26.78 78.04,-19.75"/>
<polygon fill="midnightblue" stroke="midnightblue" points="74.54,-46.08 78.04,-56.08 81.54,-46.08 74.54,-46.08"/>
</g>
<!-- Node6 -->
<g id="node6" class="node">
<title>Node6</title>
<g id="a_node6"><a xlink:href="lb__walberla__init_8cpp.html" target="_top" xlink:title=" ">
<polygon fill="none" stroke="black" points="185.04,-0.5 185.04,-19.5 299.04,-19.5 299.04,-0.5 185.04,-0.5"/>
<text text-anchor="middle" x="242.04" y="-7.5" font-family="Helvetica,sans-Serif" font-size="10.00">lb_walberla_init.cpp</text>
</a>
</g>
</g>
<!-- Node5&#45;&gt;Node6 -->
<g id="edge5" class="edge">
<title>Node5&#45;&gt;Node6</title>
<path fill="none" stroke="midnightblue" d="M242.04,-45.8C242.04,-36.91 242.04,-26.78 242.04,-19.75"/>
<polygon fill="midnightblue" stroke="midnightblue" points="238.54,-46.08 242.04,-56.08 245.54,-46.08 238.54,-46.08"/>
</g>
<!-- Node7&#45;&gt;Node5 -->
<g id="edge9" class="edge">
<title>Node7&#45;&gt;Node5</title>
<path fill="none" stroke="midnightblue" d="M318.71,-107.59C299.85,-97.61 274.66,-84.27 258.39,-75.65"/>
<polygon fill="midnightblue" stroke="midnightblue" points="317.18,-110.74 327.65,-112.32 320.45,-104.55 317.18,-110.74"/>
</g>
<!-- Node9&#45;&gt;Node3 -->
<g id="edge12" class="edge">
<title>Node9&#45;&gt;Node3</title>
<path fill="none" stroke="midnightblue" d="M172.27,-108.37C149.23,-98.26 117.56,-84.35 97.44,-75.52"/>
<polygon fill="midnightblue" stroke="midnightblue" points="170.99,-111.63 181.55,-112.44 173.8,-105.22 170.99,-111.63"/>
</g>
<!-- Node9&#45;&gt;Node5 -->
<g id="edge13" class="edge">
<title>Node9&#45;&gt;Node5</title>
<path fill="none" stroke="midnightblue" d="M214.06,-103.86C221.16,-94.5 229.65,-83.33 235.4,-75.75"/>
<polygon fill="midnightblue" stroke="midnightblue" points="211.07,-102 207.81,-112.08 216.65,-106.24 211.07,-102"/>
</g>
</g>
</svg>
        <g id="navigator" transform="translate(0 0)" fill="#404254">
                <rect fill="#f2f5e9" fill-opacity="0.5" stroke="#606060" stroke-width=".5" x="0" y="0" width="60" height="60"/>
                <use id="zoomplus" xlink:href="#zoomPlus" x="17" y="9" onmousedown="handleZoom(evt,'in')"/>
                <use id="zoomminus" xlink:href="#zoomMin" x="42" y="9" onmousedown="handleZoom(evt,'out')"/>
                <use id="reset" xlink:href="#resetDef" x="30" y="36" onmousedown="handleReset()"/>
                <g id="arrowUp" xlink:href="#dirArrow" transform="translate(30 24)" onmousedown="handlePan(0,-1)">
                  <use xlink:href="#rim" fill="#404040">
                        <set attributeName="fill" to="#808080" begin="arrowUp.mouseover" end="arrowUp.mouseout"/>
                  </use>
                  <path fill="none" stroke="white" stroke-width="1.5" d="M0,-3.0v7 M-2.5,-0.5L0,-3.0L2.5,-0.5"/>
                </g>
                <g id="arrowRight" xlink:href="#dirArrow" transform="rotate(90) translate(36 -43)" onmousedown="handlePan(1,0)">
                  <use xlink:href="#rim" fill="#404040">
                        <set attributeName="fill" to="#808080" begin="arrowRight.mouseover" end="arrowRight.mouseout"/>
                  </use>
                  <path fill="none" stroke="white" stroke-width="1.5" d="M0,-3.0v7 M-2.5,-0.5L0,-3.0L2.5,-0.5"/>
                </g>
                <g id="arrowDown" xlink:href="#dirArrow" transform="rotate(180) translate(-30 -48)" onmousedown="handlePan(0,1)">
                  <use xlink:href="#rim" fill="#404040">
                        <set attributeName="fill" to="#808080" begin="arrowDown.mouseover" end="arrowDown.mouseout"/>
                  </use>
                  <path fill="none" stroke="white" stroke-width="1.5" d="M0,-3.0v7 M-2.5,-0.5L0,-3.0L2.5,-0.5"/>
                </g>
                <g id="arrowLeft" xlink:href="#dirArrow" transform="rotate(270) translate(-36 17)" onmousedown="handlePan(-1,0)">
                  <use xlink:href="#rim" fill="#404040">
                        <set attributeName="fill" to="#808080" begin="arrowLeft.mouseover" end="arrowLeft.mouseout"/>
                  </use>
                  <path fill="none" stroke="white" stroke-width="1.5" d="M0,-3.0v7 M-2.5,-0.5L0,-3.0L2.5,-0.5"/>
                </g>
        </g>
        <svg viewBox="0 0 15 15" width="100%" height="30px" preserveAspectRatio="xMaxYMin meet">
         <g id="arrow_out" transform="scale(0.3 0.3)">
          <a xlink:href="types__conversion_8hpp__dep__incl_org.svg" target="_base">
           <rect id="button" ry="5" rx="5" y="6" x="6" height="38" width="38"
                fill="#f2f5e9" fill-opacity="0.5" stroke="#606060" stroke-width="1.0"/>
           <path id="arrow"
             d="M 11.500037,31.436501 C 11.940474,20.09759 22.043105,11.32322 32.158766,21.979434 L 37.068811,17.246167 C 37.068811,17.246167 37.088388,32 37.088388,32 L 22.160133,31.978069 C 22.160133,31.978069 26.997745,27.140456 26.997745,27.140456 C 18.528582,18.264221 13.291696,25.230495 11.500037,31.436501 z"
             style="fill:#404040;"/>
          </a>
         </g>
        </svg>
</svg>
