<?xml version="1.0" encoding="UTF-8" standalone="no"?>
<!DOCTYPE svg PUBLIC "-//W3C//DTD SVG 1.1//EN"
 "http://www.w3.org/Graphics/SVG/1.1/DTD/svg11.dtd">
<!-- Generated by graphviz version 2.43.0 (0)
 -->
<!-- Title: EKContainer.hpp Pages: 1 -->
<svg width="1814pt" height="390pt"
 viewBox="0.00 0.00 1814.00 390.00" xmlns="http://www.w3.org/2000/svg" xmlns:xlink="http://www.w3.org/1999/xlink">
<g id="graph0" class="graph" transform="scale(1 1) rotate(0) translate(4 386)">
<title>EKContainer.hpp</title>
<!-- Node1 -->
<g id="Node000001" class="node">
<title>Node1</title>
<g id="a_Node000001"><a xlink:title=" ">
<polygon fill="#999999" stroke="#666666" points="1669,-382 1573,-382 1573,-363 1669,-363 1669,-382"/>
<text text-anchor="middle" x="1621" y="-370" font-family="Helvetica,sans-Serif" font-size="10.00">EKContainer.hpp</text>
</a>
</g>
</g>
<!-- Node2 -->
<g id="Node000002" class="node">
<title>Node2</title>
<g id="a_Node000002"><a xlink:href="walberla__bridge_2include_2walberla__bridge_2LatticeWalberla_8hpp.html" target="_top" xlink:title=" ">
<polygon fill="white" stroke="#666666" points="251,-261 57,-261 57,-242 251,-242 251,-261"/>
<text text-anchor="middle" x="154" y="-249" font-family="Helvetica,sans-Serif" font-size="10.00">walberla_bridge/LatticeWalberla.hpp</text>
</a>
</g>
</g>
<!-- Node1&#45;&gt;Node2 -->
<g id="edge1_Node000001_Node000002" class="edge">
<title>Node1&#45;&gt;Node2</title>
<g id="a_edge1_Node000001_Node000002"><a xlink:title=" ">
<path fill="none" stroke="#63b8ff" d="M1572.73,-371.53C1328.39,-371.51 237.33,-369.06 180,-327 162.6,-314.24 156.77,-288.98 154.86,-271.43"/>
<polygon fill="#63b8ff" stroke="#63b8ff" points="158.33,-270.93 154.09,-261.22 151.35,-271.46 158.33,-270.93"/>
</a>
</g>
</g>
<!-- Node8 -->
<g id="Node000008" class="node">
<title>Node8</title>
<g id="a_Node000008"><a xlink:title=" ">
<polygon fill="#e0e0e0" stroke="#999999" points="1806,-24.5 1754,-24.5 1754,-5.5 1806,-5.5 1806,-24.5"/>
<text text-anchor="middle" x="1780" y="-12.5" font-family="Helvetica,sans-Serif" font-size="10.00">cassert</text>
</a>
</g>
</g>
<!-- Node1&#45;&gt;Node8 -->
<g id="edge51_Node000001_Node000008" class="edge">
<title>Node1&#45;&gt;Node8</title>
<g id="a_edge51_Node000001_Node000008"><a xlink:title=" ">
<path fill="none" stroke="#63b8ff" d="M1669.21,-365.84C1696.96,-360.24 1730.65,-349.11 1753,-327 1777.93,-302.33 1779,-287.57 1779,-252.5 1779,-252.5 1779,-252.5 1779,-140.5 1779,-102.99 1779.46,-59.13 1779.76,-34.76"/>
<polygon fill="#63b8ff" stroke="#63b8ff" points="1783.26,-34.8 1779.88,-24.75 1776.26,-34.71 1783.26,-34.8"/>
</a>
</g>
</g>
<!-- Node10 -->
<g id="Node000010" class="node">
<title>Node10</title>
<g id="a_Node000010"><a xlink:title=" ">
<polygon fill="#e0e0e0" stroke="#999999" points="647.5,-24.5 594.5,-24.5 594.5,-5.5 647.5,-5.5 647.5,-24.5"/>
<text text-anchor="middle" x="621" y="-12.5" font-family="Helvetica,sans-Serif" font-size="10.00">cstddef</text>
</a>
</g>
</g>
<!-- Node1&#45;&gt;Node10 -->
<g id="edge52_Node000001_Node000010" class="edge">
<title>Node1&#45;&gt;Node10</title>
<g id="a_edge52_Node000001_Node000010"><a xlink:title=" ">
<path fill="none" stroke="#63b8ff" d="M1640.49,-362.87C1674,-346.55 1739,-307.78 1739,-252.5 1739,-252.5 1739,-252.5 1739,-195.5 1739,-163.06 1730.35,-149.45 1703,-132 1619.36,-78.64 1350.56,-131.71 1258,-96 1237.6,-88.13 1239.47,-73.7 1219,-66 1101.66,-21.86 778.28,-57.63 656,-30 653.63,-29.46 651.21,-28.79 648.81,-28.03"/>
<polygon fill="#63b8ff" stroke="#63b8ff" points="649.77,-24.65 639.18,-24.53 647.39,-31.24 649.77,-24.65"/>
</a>
</g>
</g>
<!-- Node24 -->
<g id="Node000024" class="node">
<title>Node24</title>
<g id="a_Node000024"><a xlink:title=" ">
<polygon fill="#e0e0e0" stroke="#999999" points="1210.5,-90.5 1145.5,-90.5 1145.5,-71.5 1210.5,-71.5 1210.5,-90.5"/>
<text text-anchor="middle" x="1178" y="-78.5" font-family="Helvetica,sans-Serif" font-size="10.00">stdexcept</text>
</a>
</g>
</g>
<!-- Node1&#45;&gt;Node24 -->
<g id="edge54_Node000001_Node000024" class="edge">
<title>Node1&#45;&gt;Node24</title>
<g id="a_edge54_Node000001_Node000024"><a xlink:title=" ">
<path fill="none" stroke="#63b8ff" d="M1632.12,-362.99C1654.11,-345.13 1701,-301.29 1701,-252.5 1701,-252.5 1701,-252.5 1701,-195.5 1701,-166.04 1704.92,-150.51 1682,-132 1602.75,-68 1325.15,-114.64 1225,-96 1221.06,-95.27 1216.99,-94.33 1212.95,-93.29"/>
<polygon fill="#63b8ff" stroke="#63b8ff" points="1213.7,-89.87 1203.13,-90.55 1211.82,-96.61 1213.7,-89.87"/>
</a>
</g>
</g>
<!-- Node26 -->
<g id="Node000026" class="node">
<title>Node26</title>
<g id="a_Node000026"><a xlink:title=" ">
<polygon fill="#e0e0e0" stroke="#999999" points="1607,-151 1543,-151 1543,-132 1607,-132 1607,-151"/>
<text text-anchor="middle" x="1575" y="-139" font-family="Helvetica,sans-Serif" font-size="10.00">algorithm</text>
</a>
</g>
</g>
<!-- Node1&#45;&gt;Node26 -->
<g id="edge50_Node000001_Node000026" class="edge">
<title>Node1&#45;&gt;Node26</title>
<g id="a_edge50_Node000001_Node000026"><a xlink:title=" ">
<path fill="none" stroke="#63b8ff" d="M1619.25,-362.8C1612.52,-329.29 1588.17,-208.08 1578.76,-161.2"/>
<polygon fill="#63b8ff" stroke="#63b8ff" points="1582.15,-160.32 1576.75,-151.21 1575.29,-161.7 1582.15,-160.32"/>
</a>
</g>
</g>
<!-- Node35 -->
<g id="Node000035" class="node">
<title>Node35</title>
<g id="a_Node000035"><a xlink:title=" ">
<polygon fill="#e0e0e0" stroke="#999999" points="1672.5,-151 1625.5,-151 1625.5,-132 1672.5,-132 1672.5,-151"/>
<text text-anchor="middle" x="1649" y="-139" font-family="Helvetica,sans-Serif" font-size="10.00">vector</text>
</a>
</g>
</g>
<!-- Node1&#45;&gt;Node35 -->
<g id="edge55_Node000001_Node000035" class="edge">
<title>Node1&#45;&gt;Node35</title>
<g id="a_edge55_Node000001_Node000035"><a xlink:title=" ">
<path fill="none" stroke="#63b8ff" d="M1622.06,-362.8C1626.16,-329.29 1640.98,-208.08 1646.71,-161.2"/>
<polygon fill="#63b8ff" stroke="#63b8ff" points="1650.2,-161.56 1647.94,-151.21 1643.25,-160.71 1650.2,-161.56"/>
</a>
</g>
</g>
<!-- Node36 -->
<g id="Node000036" class="node">
<title>Node36</title>
<g id="a_Node000036"><a xlink:title=" ">
<polygon fill="#e0e0e0" stroke="#999999" points="58,-206 0,-206 0,-187 58,-187 58,-206"/>
<text text-anchor="middle" x="29" y="-194" font-family="Helvetica,sans-Serif" font-size="10.00">memory</text>
</a>
</g>
</g>
<!-- Node1&#45;&gt;Node36 -->
<g id="edge53_Node000001_Node000036" class="edge">
<title>Node1&#45;&gt;Node36</title>
<g id="a_edge53_Node000001_Node000036"><a xlink:title=" ">
<path fill="none" stroke="#63b8ff" d="M1572.7,-371.34C1335.11,-370.36 296.16,-363.98 157,-327 96.66,-310.96 66.81,-313.48 33,-261 24.49,-247.8 24.2,-229.67 25.63,-216.16"/>
<polygon fill="#63b8ff" stroke="#63b8ff" points="29.11,-216.51 27.08,-206.11 22.18,-215.51 29.11,-216.51"/>
</a>
</g>
</g>
<!-- Node37 -->
<g id="Node000037" class="node">
<title>Node37</title>
<g id="a_Node000037"><a xlink:href="PoissonSolver_8hpp.html" target="_top" xlink:title=" ">
<polygon fill="white" stroke="#666666" points="368.5,-327 189.5,-327 189.5,-297 368.5,-297 368.5,-327"/>
<text text-anchor="start" x="197.5" y="-315" font-family="Helvetica,sans-Serif" font-size="10.00">walberla_bridge/electrokinetics</text>
<text text-anchor="middle" x="279" y="-304" font-family="Helvetica,sans-Serif" font-size="10.00">/PoissonSolver/PoissonSolver.hpp</text>
</a>
</g>
</g>
<!-- Node1&#45;&gt;Node37 -->
<g id="edge45_Node000001_Node000037" class="edge">
<title>Node1&#45;&gt;Node37</title>
<g id="a_edge45_Node000001_Node000037"><a xlink:title=" ">
<path fill="none" stroke="#63b8ff" d="M1572.84,-369.4C1378.26,-360.92 647.71,-329.07 379,-317.36"/>
<polygon fill="#63b8ff" stroke="#63b8ff" points="379,-313.86 368.86,-316.92 378.7,-320.85 379,-313.86"/>
</a>
</g>
</g>
<!-- Node3 -->
<g id="Node000003" class="node">
<title>Node3</title>
<g id="a_Node000003"><a xlink:href="Vector_8hpp.html" target="_top" xlink:title="Vector implementation and trait types for boost qvm interoperability.">
<polygon fill="white" stroke="#666666" points="1091,-206 999,-206 999,-187 1091,-187 1091,-206"/>
<text text-anchor="middle" x="1045" y="-194" font-family="Helvetica,sans-Serif" font-size="10.00">utils/Vector.hpp</text>
</a>
</g>
</g>
<!-- Node2&#45;&gt;Node3 -->
<g id="edge2_Node000002_Node000003" class="edge">
<title>Node2&#45;&gt;Node3</title>
<g id="a_edge2_Node000002_Node000003"><a xlink:title=" ">
<path fill="none" stroke="#63b8ff" d="M251.05,-244.73C437.36,-233.64 839.85,-209.7 988.41,-200.87"/>
<polygon fill="#63b8ff" stroke="#63b8ff" points="988.89,-204.34 998.66,-200.26 988.47,-197.36 988.89,-204.34"/>
</a>
</g>
</g>
<!-- Node11 -->
<g id="Node000011" class="node">
<title>Node11</title>
<g id="a_Node000011"><a xlink:title=" ">
<polygon fill="#e0e0e0" stroke="#999999" points="439.5,-24.5 394.5,-24.5 394.5,-5.5 439.5,-5.5 439.5,-24.5"/>
<text text-anchor="middle" x="417" y="-12.5" font-family="Helvetica,sans-Serif" font-size="10.00">utility</text>
</a>
</g>
</g>
<!-- Node2&#45;&gt;Node11 -->
<g id="edge44_Node000002_Node000011" class="edge">
<title>Node2&#45;&gt;Node11</title>
<g id="a_edge44_Node000002_Node000011"><a xlink:title=" ">
<path fill="none" stroke="#63b8ff" d="M156.8,-241.68C166.59,-212.19 202.18,-116.13 265,-66 299.97,-38.09 351.11,-25.51 384.22,-20.01"/>
<polygon fill="#63b8ff" stroke="#63b8ff" points="384.95,-23.44 394.3,-18.47 383.88,-16.53 384.95,-23.44"/>
</a>
</g>
</g>
<!-- Node2&#45;&gt;Node36 -->
<g id="edge43_Node000002_Node000036" class="edge">
<title>Node2&#45;&gt;Node36</title>
<g id="a_edge43_Node000002_Node000036"><a xlink:title=" ">
<path fill="none" stroke="#63b8ff" d="M133.92,-241.98C113.63,-233.38 82.04,-219.99 58.83,-210.15"/>
<polygon fill="#63b8ff" stroke="#63b8ff" points="60.02,-206.85 49.45,-206.17 57.29,-213.3 60.02,-206.85"/>
</a>
</g>
</g>
<!-- Node4 -->
<g id="Node000004" class="node">
<title>Node4</title>
<g id="a_Node000004"><a xlink:title=" ">
<polygon fill="#e0e0e0" stroke="#999999" points="746,-151 596,-151 596,-132 746,-132 746,-151"/>
<text text-anchor="middle" x="671" y="-139" font-family="Helvetica,sans-Serif" font-size="10.00">boost/qvm/deduce_vec.hpp</text>
</a>
</g>
</g>
<!-- Node3&#45;&gt;Node4 -->
<g id="edge3_Node000003_Node000004" class="edge">
<title>Node3&#45;&gt;Node4</title>
<g id="a_edge3_Node000003_Node000004"><a xlink:title=" ">
<path fill="none" stroke="#63b8ff" d="M998.77,-188.95C934.27,-179.81 816.77,-163.16 741.37,-152.47"/>
<polygon fill="#63b8ff" stroke="#63b8ff" points="741.41,-148.94 731.02,-151.01 740.43,-155.87 741.41,-148.94"/>
</a>
</g>
</g>
<!-- Node5 -->
<g id="Node000005" class="node">
<title>Node5</title>
<g id="a_Node000005"><a xlink:title=" ">
<polygon fill="#e0e0e0" stroke="#999999" points="904,-151 764,-151 764,-132 904,-132 904,-151"/>
<text text-anchor="middle" x="834" y="-139" font-family="Helvetica,sans-Serif" font-size="10.00">boost/qvm/vec_traits.hpp</text>
</a>
</g>
</g>
<!-- Node3&#45;&gt;Node5 -->
<g id="edge4_Node000003_Node000005" class="edge">
<title>Node3&#45;&gt;Node5</title>
<g id="a_edge4_Node000003_Node000005"><a xlink:title=" ">
<path fill="none" stroke="#63b8ff" d="M1011.1,-186.98C974.98,-177.91 917.68,-163.52 878.08,-153.57"/>
<polygon fill="#63b8ff" stroke="#63b8ff" points="878.72,-150.12 868.17,-151.08 877.01,-156.91 878.72,-150.12"/>
</a>
</g>
</g>
<!-- Node6 -->
<g id="Node000006" class="node">
<title>Node6</title>
<g id="a_Node000006"><a xlink:href="Array_8hpp.html" target="_top" xlink:title="Array implementation with CUDA support.">
<polygon fill="white" stroke="#666666" points="1046,-151 960,-151 960,-132 1046,-132 1046,-151"/>
<text text-anchor="middle" x="1003" y="-139" font-family="Helvetica,sans-Serif" font-size="10.00">utils/Array.hpp</text>
</a>
</g>
</g>
<!-- Node3&#45;&gt;Node6 -->
<g id="edge5_Node000003_Node000006" class="edge">
<title>Node3&#45;&gt;Node6</title>
<g id="a_edge5_Node000003_Node000006"><a xlink:title=" ">
<path fill="none" stroke="#63b8ff" d="M1038.06,-186.75C1032.13,-179.26 1023.43,-168.28 1016.18,-159.13"/>
<polygon fill="#63b8ff" stroke="#63b8ff" points="1018.76,-156.75 1009.81,-151.09 1013.27,-161.1 1018.76,-156.75"/>
</a>
</g>
</g>
<!-- Node3&#45;&gt;Node8 -->
<g id="edge31_Node000003_Node000008" class="edge">
<title>Node3&#45;&gt;Node8</title>
<g id="a_edge31_Node000003_Node000008"><a xlink:title=" ">
<path fill="none" stroke="#63b8ff" d="M1091.04,-195.42C1170.66,-194.26 1338.64,-187.26 1475,-151 1531.71,-135.92 1689.77,-60.11 1753.18,-29.18"/>
<polygon fill="#63b8ff" stroke="#63b8ff" points="1755.07,-32.15 1762.51,-24.61 1751.99,-25.86 1755.07,-32.15"/>
</a>
</g>
</g>
<!-- Node9 -->
<g id="Node000009" class="node">
<title>Node9</title>
<g id="a_Node000009"><a xlink:href="get_8hpp.html" target="_top" xlink:title=" ">
<polygon fill="white" stroke="#666666" points="545.5,-90.5 492.5,-90.5 492.5,-71.5 545.5,-71.5 545.5,-90.5"/>
<text text-anchor="middle" x="519" y="-78.5" font-family="Helvetica,sans-Serif" font-size="10.00">get.hpp</text>
</a>
</g>
</g>
<!-- Node3&#45;&gt;Node9 -->
<g id="edge29_Node000003_Node000009" class="edge">
<title>Node3&#45;&gt;Node9</title>
<g id="a_edge29_Node000003_Node000009"><a xlink:title=" ">
<path fill="none" stroke="#63b8ff" d="M998.93,-195.99C854.33,-197.06 416.56,-196.47 374,-151 339.09,-113.69 428.49,-94.44 482.1,-86.51"/>
<polygon fill="#63b8ff" stroke="#63b8ff" points="482.88,-89.93 492.29,-85.07 481.9,-83 482.88,-89.93"/>
</a>
</g>
</g>
<!-- Node3&#45;&gt;Node10 -->
<g id="edge34_Node000003_Node000010" class="edge">
<title>Node3&#45;&gt;Node10</title>
<g id="a_edge34_Node000003_Node000010"><a xlink:title=" ">
<path fill="none" stroke="#63b8ff" d="M1026.57,-186.92C1007.58,-178.04 977.14,-163.72 951,-151 934.02,-142.74 930.76,-138.42 913,-132 846.89,-108.12 824.34,-121.91 759,-96 714.56,-78.38 667.29,-48.14 641.23,-30.32"/>
<polygon fill="#63b8ff" stroke="#63b8ff" points="643.15,-27.39 632.93,-24.57 639.16,-33.14 643.15,-27.39"/>
</a>
</g>
</g>
<!-- Node22 -->
<g id="Node000022" class="node">
<title>Node22</title>
<g id="a_Node000022"><a xlink:title=" ">
<polygon fill="#e0e0e0" stroke="#999999" points="1127.5,-90.5 1074.5,-90.5 1074.5,-71.5 1127.5,-71.5 1127.5,-90.5"/>
<text text-anchor="middle" x="1101" y="-78.5" font-family="Helvetica,sans-Serif" font-size="10.00">iterator</text>
</a>
</g>
</g>
<!-- Node3&#45;&gt;Node22 -->
<g id="edge37_Node000003_Node000022" class="edge">
<title>Node3&#45;&gt;Node22</title>
<g id="a_edge37_Node000003_Node000022"><a xlink:title=" ">
<path fill="none" stroke="#63b8ff" d="M1091.03,-193.94C1193.59,-189.99 1433.82,-177.93 1458,-151 1463.64,-144.72 1463.63,-138.29 1458,-132 1410,-78.33 1205.84,-113.53 1136,-96 1133.7,-95.42 1131.34,-94.73 1129,-93.96"/>
<polygon fill="#63b8ff" stroke="#63b8ff" points="1130.18,-90.66 1119.58,-90.51 1127.77,-97.23 1130.18,-90.66"/>
</a>
</g>
</g>
<!-- Node3&#45;&gt;Node26 -->
<g id="edge30_Node000003_Node000026" class="edge">
<title>Node3&#45;&gt;Node26</title>
<g id="a_edge30_Node000003_Node000026"><a xlink:title=" ">
<path fill="none" stroke="#63b8ff" d="M1091.21,-192.66C1177.5,-187.04 1368.93,-173.1 1529,-151 1530.27,-150.83 1531.55,-150.64 1532.85,-150.45"/>
<polygon fill="#63b8ff" stroke="#63b8ff" points="1533.58,-153.87 1542.89,-148.82 1532.46,-146.96 1533.58,-153.87"/>
</a>
</g>
</g>
<!-- Node27 -->
<g id="Node000027" class="node">
<title>Node27</title>
<g id="a_Node000027"><a xlink:title=" ">
<polygon fill="#e0e0e0" stroke="#999999" points="1111.5,-151 1064.5,-151 1064.5,-132 1111.5,-132 1111.5,-151"/>
<text text-anchor="middle" x="1088" y="-139" font-family="Helvetica,sans-Serif" font-size="10.00">cmath</text>
</a>
</g>
</g>
<!-- Node3&#45;&gt;Node27 -->
<g id="edge32_Node000003_Node000027" class="edge">
<title>Node3&#45;&gt;Node27</title>
<g id="a_edge32_Node000003_Node000027"><a xlink:title=" ">
<path fill="none" stroke="#63b8ff" d="M1052.1,-186.75C1058.17,-179.26 1067.09,-168.28 1074.51,-159.13"/>
<polygon fill="#63b8ff" stroke="#63b8ff" points="1077.45,-161.06 1081.03,-151.09 1072.01,-156.65 1077.45,-161.06"/>
</a>
</g>
</g>
<!-- Node28 -->
<g id="Node000028" class="node">
<title>Node28</title>
<g id="a_Node000028"><a xlink:title=" ">
<polygon fill="#e0e0e0" stroke="#999999" points="1190,-151 1130,-151 1130,-132 1190,-132 1190,-151"/>
<text text-anchor="middle" x="1160" y="-139" font-family="Helvetica,sans-Serif" font-size="10.00">concepts</text>
</a>
</g>
</g>
<!-- Node3&#45;&gt;Node28 -->
<g id="edge33_Node000003_Node000028" class="edge">
<title>Node3&#45;&gt;Node28</title>
<g id="a_edge33_Node000003_Node000028"><a xlink:title=" ">
<path fill="none" stroke="#63b8ff" d="M1063.48,-186.98C1081.98,-178.46 1110.68,-165.23 1131.98,-155.41"/>
<polygon fill="#63b8ff" stroke="#63b8ff" points="1133.57,-158.53 1141.19,-151.17 1130.64,-152.18 1133.57,-158.53"/>
</a>
</g>
</g>
<!-- Node29 -->
<g id="Node000029" class="node">
<title>Node29</title>
<g id="a_Node000029"><a xlink:title=" ">
<polygon fill="#e0e0e0" stroke="#999999" points="1273.5,-151 1208.5,-151 1208.5,-132 1273.5,-132 1273.5,-151"/>
<text text-anchor="middle" x="1241" y="-139" font-family="Helvetica,sans-Serif" font-size="10.00">functional</text>
</a>
</g>
</g>
<!-- Node3&#45;&gt;Node29 -->
<g id="edge35_Node000003_Node000029" class="edge">
<title>Node3&#45;&gt;Node29</title>
<g id="a_edge35_Node000003_Node000029"><a xlink:title=" ">
<path fill="none" stroke="#63b8ff" d="M1076.49,-186.98C1109.82,-177.97 1162.6,-163.7 1199.35,-153.76"/>
<polygon fill="#63b8ff" stroke="#63b8ff" points="1200.52,-157.07 1209.26,-151.08 1198.7,-150.31 1200.52,-157.07"/>
</a>
</g>
</g>
<!-- Node30 -->
<g id="Node000030" class="node">
<title>Node30</title>
<g id="a_Node000030"><a xlink:title=" ">
<polygon fill="#e0e0e0" stroke="#999999" points="1374.5,-151 1291.5,-151 1291.5,-132 1374.5,-132 1374.5,-151"/>
<text text-anchor="middle" x="1333" y="-139" font-family="Helvetica,sans-Serif" font-size="10.00">initializer_list</text>
</a>
</g>
</g>
<!-- Node3&#45;&gt;Node30 -->
<g id="edge36_Node000003_Node000030" class="edge">
<title>Node3&#45;&gt;Node30</title>
<g id="a_edge36_Node000003_Node000030"><a xlink:title=" ">
<path fill="none" stroke="#63b8ff" d="M1091.27,-186.98C1143.11,-177.45 1226.93,-162.02 1280.99,-152.07"/>
<polygon fill="#63b8ff" stroke="#63b8ff" points="1281.86,-155.47 1291.06,-150.22 1280.59,-148.59 1281.86,-155.47"/>
</a>
</g>
</g>
<!-- Node31 -->
<g id="Node000031" class="node">
<title>Node31</title>
<g id="a_Node000031"><a xlink:title=" ">
<polygon fill="#e0e0e0" stroke="#999999" points="1449,-151 1393,-151 1393,-132 1449,-132 1449,-151"/>
<text text-anchor="middle" x="1421" y="-139" font-family="Helvetica,sans-Serif" font-size="10.00">numeric</text>
</a>
</g>
</g>
<!-- Node3&#45;&gt;Node31 -->
<g id="edge38_Node000003_Node000031" class="edge">
<title>Node3&#45;&gt;Node31</title>
<g id="a_edge38_Node000003_Node000031"><a xlink:title=" ">
<path fill="none" stroke="#63b8ff" d="M1091.12,-190.75C1156.38,-183.72 1279.27,-169.39 1383,-151 1383.1,-150.98 1383.2,-150.96 1383.3,-150.95"/>
<polygon fill="#63b8ff" stroke="#63b8ff" points="1383.69,-154.44 1392.83,-149.09 1382.35,-147.57 1383.69,-154.44"/>
</a>
</g>
</g>
<!-- Node32 -->
<g id="Node000032" class="node">
<title>Node32</title>
<g id="a_Node000032"><a xlink:title=" ">
<polygon fill="#e0e0e0" stroke="#999999" points="433,-151 383,-151 383,-132 433,-132 433,-151"/>
<text text-anchor="middle" x="408" y="-139" font-family="Helvetica,sans-Serif" font-size="10.00">ranges</text>
</a>
</g>
</g>
<!-- Node3&#45;&gt;Node32 -->
<g id="edge39_Node000003_Node000032" class="edge">
<title>Node3&#45;&gt;Node32</title>
<g id="a_edge39_Node000003_Node000032"><a xlink:title=" ">
<path fill="none" stroke="#63b8ff" d="M998.92,-194.78C899.17,-192.66 655.75,-184.36 443.25,-150.91"/>
<polygon fill="#63b8ff" stroke="#63b8ff" points="443.58,-147.42 433.15,-149.3 442.47,-154.33 443.58,-147.42"/>
</a>
</g>
</g>
<!-- Node33 -->
<g id="Node000033" class="node">
<title>Node33</title>
<g id="a_Node000033"><a xlink:title=" ">
<polygon fill="#e0e0e0" stroke="#999999" points="491,-151 451,-151 451,-132 491,-132 491,-151"/>
<text text-anchor="middle" x="471" y="-139" font-family="Helvetica,sans-Serif" font-size="10.00">span</text>
</a>
</g>
</g>
<!-- Node3&#45;&gt;Node33 -->
<g id="edge40_Node000003_Node000033" class="edge">
<title>Node3&#45;&gt;Node33</title>
<g id="a_edge40_Node000003_Node000033"><a xlink:title=" ">
<path fill="none" stroke="#63b8ff" d="M998.65,-194.89C905.71,-192.97 690.02,-185.1 500.99,-150.79"/>
<polygon fill="#63b8ff" stroke="#63b8ff" points="501.62,-147.35 491.15,-148.98 500.35,-154.23 501.62,-147.35"/>
</a>
</g>
</g>
<!-- Node34 -->
<g id="Node000034" class="node">
<title>Node34</title>
<g id="a_Node000034"><a xlink:title=" ">
<polygon fill="#e0e0e0" stroke="#999999" points="578.5,-151 509.5,-151 509.5,-132 578.5,-132 578.5,-151"/>
<text text-anchor="middle" x="544" y="-139" font-family="Helvetica,sans-Serif" font-size="10.00">type_traits</text>
</a>
</g>
</g>
<!-- Node3&#45;&gt;Node34 -->
<g id="edge41_Node000003_Node000034" class="edge">
<title>Node3&#45;&gt;Node34</title>
<g id="a_edge41_Node000003_Node000034"><a xlink:title=" ">
<path fill="none" stroke="#63b8ff" d="M998.99,-192.53C918.02,-186.98 744.63,-173.64 588.91,-151.15"/>
<polygon fill="#63b8ff" stroke="#63b8ff" points="589.08,-147.64 578.68,-149.66 588.07,-154.57 589.08,-147.64"/>
</a>
</g>
</g>
<!-- Node3&#45;&gt;Node35 -->
<g id="edge42_Node000003_Node000035" class="edge">
<title>Node3&#45;&gt;Node35</title>
<g id="a_edge42_Node000003_Node000035"><a xlink:title=" ">
<path fill="none" stroke="#63b8ff" d="M1091.22,-194.62C1187.18,-192.22 1415.05,-183.46 1615.2,-150.8"/>
<polygon fill="#63b8ff" stroke="#63b8ff" points="1616.02,-154.21 1625.31,-149.13 1614.88,-147.31 1616.02,-154.21"/>
</a>
</g>
</g>
<!-- Node7 -->
<g id="Node000007" class="node">
<title>Node7</title>
<g id="a_Node000007"><a xlink:href="device__qualifier_8hpp.html" target="_top" xlink:title=" ">
<polygon fill="white" stroke="#666666" points="1563,-90.5 1449,-90.5 1449,-71.5 1563,-71.5 1563,-90.5"/>
<text text-anchor="middle" x="1506" y="-78.5" font-family="Helvetica,sans-Serif" font-size="10.00">device_qualifier.hpp</text>
</a>
</g>
</g>
<!-- Node6&#45;&gt;Node7 -->
<g id="edge6_Node000006_Node000007" class="edge">
<title>Node6&#45;&gt;Node7</title>
<g id="a_edge6_Node000006_Node000007"><a xlink:title=" ">
<path fill="none" stroke="#63b8ff" d="M1046.1,-133.23C1049.11,-132.79 1052.1,-132.37 1055,-132 1223.25,-110.3 1267.12,-120.44 1435,-96 1441.85,-95 1449.04,-93.79 1456.11,-92.49"/>
<polygon fill="#63b8ff" stroke="#63b8ff" points="1457.14,-95.86 1466.32,-90.55 1455.84,-88.98 1457.14,-95.86"/>
</a>
</g>
</g>
<!-- Node6&#45;&gt;Node8 -->
<g id="edge22_Node000006_Node000008" class="edge">
<title>Node6&#45;&gt;Node8</title>
<g id="a_edge22_Node000006_Node000008"><a xlink:title=" ">
<path fill="none" stroke="#63b8ff" d="M1046.1,-133.26C1049.11,-132.81 1052.1,-132.39 1055,-132 1208.25,-111.52 1257.4,-153.3 1401,-96 1421.31,-87.9 1419.75,-74.25 1440,-66 1566.42,-14.54 1612.71,-63.64 1745,-30 1747.16,-29.45 1749.37,-28.8 1751.58,-28.08"/>
<polygon fill="#63b8ff" stroke="#63b8ff" points="1752.85,-31.34 1761.05,-24.63 1750.45,-24.76 1752.85,-31.34"/>
</a>
</g>
</g>
<!-- Node6&#45;&gt;Node9 -->
<g id="edge8_Node000006_Node000009" class="edge">
<title>Node6&#45;&gt;Node9</title>
<g id="a_edge8_Node000006_Node000009"><a xlink:title=" ">
<path fill="none" stroke="#63b8ff" d="M959.62,-135.26C865.42,-123.87 643.56,-97.05 555.73,-86.44"/>
<polygon fill="#63b8ff" stroke="#63b8ff" points="556.05,-82.95 545.7,-85.23 555.21,-89.9 556.05,-82.95"/>
</a>
</g>
</g>
<!-- Node6&#45;&gt;Node10 -->
<g id="edge23_Node000006_Node000010" class="edge">
<title>Node6&#45;&gt;Node10</title>
<g id="a_edge23_Node000006_Node000010"><a xlink:title=" ">
<path fill="none" stroke="#63b8ff" d="M959.6,-132.72C910.28,-123.53 833.11,-107.96 806,-96 784.68,-86.59 783.81,-76.49 763,-66 718.19,-43.42 703.09,-47.32 656,-30 654.58,-29.48 653.13,-28.94 651.67,-28.38"/>
<polygon fill="#63b8ff" stroke="#63b8ff" points="652.61,-24.99 642.03,-24.63 650.08,-31.52 652.61,-24.99"/>
</a>
</g>
</g>
<!-- Node6&#45;&gt;Node11 -->
<g id="edge28_Node000006_Node000011" class="edge">
<title>Node6&#45;&gt;Node11</title>
<g id="a_edge28_Node000006_Node000011"><a xlink:title=" ">
<path fill="none" stroke="#63b8ff" d="M959.97,-133.11C911.85,-124.71 831.66,-110.3 763,-96 647.17,-71.88 510.57,-38.97 449.43,-24"/>
<polygon fill="#63b8ff" stroke="#63b8ff" points="450.14,-20.57 439.59,-21.59 448.47,-27.37 450.14,-20.57"/>
</a>
</g>
</g>
<!-- Node12 -->
<g id="Node000012" class="node">
<title>Node12</title>
<g id="a_Node000012"><a xlink:href="array_8hpp.html" target="_top" xlink:title=" ">
<polygon fill="white" stroke="#666666" points="1392.5,-90.5 1267.5,-90.5 1267.5,-71.5 1392.5,-71.5 1392.5,-90.5"/>
<text text-anchor="middle" x="1330" y="-78.5" font-family="Helvetica,sans-Serif" font-size="10.00">serialization/array.hpp</text>
</a>
</g>
</g>
<!-- Node6&#45;&gt;Node12 -->
<g id="edge11_Node000006_Node000012" class="edge">
<title>Node6&#45;&gt;Node12</title>
<g id="a_edge11_Node000006_Node000012"><a xlink:title=" ">
<path fill="none" stroke="#63b8ff" d="M1046.09,-132.79C1104.11,-122.41 1207.55,-103.91 1272.27,-92.33"/>
<polygon fill="#63b8ff" stroke="#63b8ff" points="1273.08,-95.74 1282.31,-90.53 1271.85,-88.85 1273.08,-95.74"/>
</a>
</g>
</g>
<!-- Node21 -->
<g id="Node000021" class="node">
<title>Node21</title>
<g id="a_Node000021"><a xlink:title=" ">
<polygon fill="#e0e0e0" stroke="#999999" points="922.5,-96 815.5,-96 815.5,-66 922.5,-66 922.5,-96"/>
<text text-anchor="start" x="823.5" y="-84" font-family="Helvetica,sans-Serif" font-size="10.00">boost/serialization</text>
<text text-anchor="middle" x="869" y="-73" font-family="Helvetica,sans-Serif" font-size="10.00">/access.hpp</text>
</a>
</g>
</g>
<!-- Node6&#45;&gt;Node21 -->
<g id="edge21_Node000006_Node000021" class="edge">
<title>Node6&#45;&gt;Node21</title>
<g id="a_edge21_Node000006_Node000021"><a xlink:title=" ">
<path fill="none" stroke="#63b8ff" d="M983.52,-131.99C964.48,-123.68 934.91,-110.78 910.59,-100.16"/>
<polygon fill="#63b8ff" stroke="#63b8ff" points="911.78,-96.86 901.22,-96.06 908.98,-103.27 911.78,-96.86"/>
</a>
</g>
</g>
<!-- Node6&#45;&gt;Node22 -->
<g id="edge24_Node000006_Node000022" class="edge">
<title>Node6&#45;&gt;Node22</title>
<g id="a_edge24_Node000006_Node000022"><a xlink:title=" ">
<path fill="none" stroke="#63b8ff" d="M1017.46,-131.87C1033.31,-122.41 1058.97,-107.09 1077.68,-95.92"/>
<polygon fill="#63b8ff" stroke="#63b8ff" points="1079.69,-98.8 1086.48,-90.67 1076.1,-92.79 1079.69,-98.8"/>
</a>
</g>
</g>
<!-- Node23 -->
<g id="Node000023" class="node">
<title>Node23</title>
<g id="a_Node000023"><a xlink:title=" ">
<polygon fill="#e0e0e0" stroke="#999999" points="997.5,-90.5 940.5,-90.5 940.5,-71.5 997.5,-71.5 997.5,-90.5"/>
<text text-anchor="middle" x="969" y="-78.5" font-family="Helvetica,sans-Serif" font-size="10.00">ostream</text>
</a>
</g>
</g>
<!-- Node6&#45;&gt;Node23 -->
<g id="edge25_Node000006_Node000023" class="edge">
<title>Node6&#45;&gt;Node23</title>
<g id="a_edge25_Node000006_Node000023"><a xlink:title=" ">
<path fill="none" stroke="#63b8ff" d="M997.98,-131.87C993.06,-123.4 985.41,-110.24 979.21,-99.57"/>
<polygon fill="#63b8ff" stroke="#63b8ff" points="982.09,-97.55 974.04,-90.67 976.04,-101.07 982.09,-97.55"/>
</a>
</g>
</g>
<!-- Node6&#45;&gt;Node24 -->
<g id="edge26_Node000006_Node000024" class="edge">
<title>Node6&#45;&gt;Node24</title>
<g id="a_edge26_Node000006_Node000024"><a xlink:title=" ">
<path fill="none" stroke="#63b8ff" d="M1028.45,-131.99C1058.64,-121.9 1109.16,-105.01 1143.02,-93.69"/>
<polygon fill="#63b8ff" stroke="#63b8ff" points="1144.15,-97.01 1152.52,-90.52 1141.93,-90.37 1144.15,-97.01"/>
</a>
</g>
</g>
<!-- Node25 -->
<g id="Node000025" class="node">
<title>Node25</title>
<g id="a_Node000025"><a xlink:title=" ">
<polygon fill="#e0e0e0" stroke="#999999" points="1056.5,-90.5 1015.5,-90.5 1015.5,-71.5 1056.5,-71.5 1056.5,-90.5"/>
<text text-anchor="middle" x="1036" y="-78.5" font-family="Helvetica,sans-Serif" font-size="10.00">tuple</text>
</a>
</g>
</g>
<!-- Node6&#45;&gt;Node25 -->
<g id="edge27_Node000006_Node000025" class="edge">
<title>Node6&#45;&gt;Node25</title>
<g id="a_edge27_Node000006_Node000025"><a xlink:title=" ">
<path fill="none" stroke="#63b8ff" d="M1007.87,-131.87C1012.65,-123.4 1020.07,-110.24 1026.09,-99.57"/>
<polygon fill="#63b8ff" stroke="#63b8ff" points="1029.25,-101.1 1031.11,-90.67 1023.15,-97.66 1029.25,-101.1"/>
</a>
</g>
</g>
<!-- Node7&#45;&gt;Node8 -->
<g id="edge7_Node000007_Node000008" class="edge">
<title>Node7&#45;&gt;Node8</title>
<g id="a_edge7_Node000007_Node000008"><a xlink:title=" ">
<path fill="none" stroke="#63b8ff" d="M1548.69,-71.49C1612.28,-58.75 1726.43,-35.61 1745,-30 1746.88,-29.43 1748.8,-28.81 1750.72,-28.14"/>
<polygon fill="#63b8ff" stroke="#63b8ff" points="1752.07,-31.37 1760.22,-24.61 1749.63,-24.81 1752.07,-31.37"/>
</a>
</g>
</g>
<!-- Node9&#45;&gt;Node10 -->
<g id="edge9_Node000009_Node000010" class="edge">
<title>Node9&#45;&gt;Node10</title>
<g id="a_edge9_Node000009_Node000010"><a xlink:title=" ">
<path fill="none" stroke="#63b8ff" d="M532.76,-71.37C549.64,-60.78 578.49,-42.67 598.59,-30.06"/>
<polygon fill="#63b8ff" stroke="#63b8ff" points="600.53,-32.98 607.14,-24.7 596.81,-27.05 600.53,-32.98"/>
</a>
</g>
</g>
<!-- Node9&#45;&gt;Node11 -->
<g id="edge10_Node000009_Node000011" class="edge">
<title>Node9&#45;&gt;Node11</title>
<g id="a_edge10_Node000009_Node000011"><a xlink:title=" ">
<path fill="none" stroke="#63b8ff" d="M505.24,-71.37C488.36,-60.78 459.51,-42.67 439.41,-30.06"/>
<polygon fill="#63b8ff" stroke="#63b8ff" points="441.19,-27.05 430.86,-24.7 437.47,-32.98 441.19,-27.05"/>
</a>
</g>
</g>
<!-- Node12&#45;&gt;Node10 -->
<g id="edge20_Node000012_Node000010" class="edge">
<title>Node12&#45;&gt;Node10</title>
<g id="a_edge20_Node000012_Node000010"><a xlink:title=" ">
<path fill="none" stroke="#63b8ff" d="M1288.18,-71.46C1276.81,-69.39 1264.47,-67.38 1253,-66 989.1,-34.17 915.39,-88.1 656,-30 653.63,-29.47 651.21,-28.8 648.81,-28.04"/>
<polygon fill="#63b8ff" stroke="#63b8ff" points="649.77,-24.66 639.18,-24.55 647.38,-31.25 649.77,-24.66"/>
</a>
</g>
</g>
<!-- Node13 -->
<g id="Node000013" class="node">
<title>Node13</title>
<g id="a_Node000013"><a xlink:title=" ">
<polygon fill="#e0e0e0" stroke="#999999" points="1179.5,-24.5 1046.5,-24.5 1046.5,-5.5 1179.5,-5.5 1179.5,-24.5"/>
<text text-anchor="middle" x="1113" y="-12.5" font-family="Helvetica,sans-Serif" font-size="10.00">boost/mpl/bool_fwd.hpp</text>
</a>
</g>
</g>
<!-- Node12&#45;&gt;Node13 -->
<g id="edge12_Node000012_Node000013" class="edge">
<title>Node12&#45;&gt;Node13</title>
<g id="a_edge12_Node000012_Node000013"><a xlink:title=" ">
<path fill="none" stroke="#63b8ff" d="M1300.73,-71.37C1262.29,-60.03 1194.65,-40.08 1151.92,-27.48"/>
<polygon fill="#63b8ff" stroke="#63b8ff" points="1152.73,-24.07 1142.15,-24.6 1150.75,-30.78 1152.73,-24.07"/>
</a>
</g>
</g>
<!-- Node14 -->
<g id="Node000014" class="node">
<title>Node14</title>
<g id="a_Node000014"><a xlink:title=" ">
<polygon fill="#e0e0e0" stroke="#999999" points="1322,-24.5 1198,-24.5 1198,-5.5 1322,-5.5 1322,-24.5"/>
<text text-anchor="middle" x="1260" y="-12.5" font-family="Helvetica,sans-Serif" font-size="10.00">boost/mpl/greater.hpp</text>
</a>
</g>
</g>
<!-- Node12&#45;&gt;Node14 -->
<g id="edge13_Node000012_Node000014" class="edge">
<title>Node12&#45;&gt;Node14</title>
<g id="a_edge13_Node000012_Node000014"><a xlink:title=" ">
<path fill="none" stroke="#63b8ff" d="M1320.56,-71.37C1309.45,-61.21 1290.8,-44.16 1277.12,-31.65"/>
<polygon fill="#63b8ff" stroke="#63b8ff" points="1279.48,-29.07 1269.74,-24.91 1274.76,-34.24 1279.48,-29.07"/>
</a>
</g>
</g>
<!-- Node15 -->
<g id="Node000015" class="node">
<title>Node15</title>
<g id="a_Node000015"><a xlink:title=" ">
<polygon fill="#e0e0e0" stroke="#999999" points="1442,-24.5 1340,-24.5 1340,-5.5 1442,-5.5 1442,-24.5"/>
<text text-anchor="middle" x="1391" y="-12.5" font-family="Helvetica,sans-Serif" font-size="10.00">boost/mpl/int.hpp</text>
</a>
</g>
</g>
<!-- Node12&#45;&gt;Node15 -->
<g id="edge14_Node000012_Node000015" class="edge">
<title>Node12&#45;&gt;Node15</title>
<g id="a_edge14_Node000012_Node000015"><a xlink:title=" ">
<path fill="none" stroke="#63b8ff" d="M1338.23,-71.37C1347.72,-61.4 1363.56,-44.79 1375.41,-32.36"/>
<polygon fill="#63b8ff" stroke="#63b8ff" points="1378.15,-34.56 1382.51,-24.91 1373.08,-29.73 1378.15,-34.56"/>
</a>
</g>
</g>
<!-- Node16 -->
<g id="Node000016" class="node">
<title>Node16</title>
<g id="a_Node000016"><a xlink:title=" ">
<polygon fill="#e0e0e0" stroke="#999999" points="1566,-30 1460,-30 1460,0 1566,0 1566,-30"/>
<text text-anchor="start" x="1468" y="-18" font-family="Helvetica,sans-Serif" font-size="10.00">boost/mpl/integral</text>
<text text-anchor="middle" x="1513" y="-7" font-family="Helvetica,sans-Serif" font-size="10.00">_c_tag.hpp</text>
</a>
</g>
</g>
<!-- Node12&#45;&gt;Node16 -->
<g id="edge15_Node000012_Node000016" class="edge">
<title>Node12&#45;&gt;Node16</title>
<g id="a_edge15_Node000012_Node000016"><a xlink:title=" ">
<path fill="none" stroke="#63b8ff" d="M1354.68,-71.37C1382.32,-61.7 1427.86,-45.77 1463.02,-33.48"/>
<polygon fill="#63b8ff" stroke="#63b8ff" points="1464.35,-36.72 1472.64,-30.12 1462.04,-30.11 1464.35,-36.72"/>
</a>
</g>
</g>
<!-- Node17 -->
<g id="Node000017" class="node">
<title>Node17</title>
<g id="a_Node000017"><a xlink:title=" ">
<polygon fill="#e0e0e0" stroke="#999999" points="1735.5,-30 1584.5,-30 1584.5,0 1735.5,0 1735.5,-30"/>
<text text-anchor="start" x="1592.5" y="-18" font-family="Helvetica,sans-Serif" font-size="10.00">boost/serialization</text>
<text text-anchor="middle" x="1660" y="-7" font-family="Helvetica,sans-Serif" font-size="10.00">/is_bitwise_serializable.hpp</text>
</a>
</g>
</g>
<!-- Node12&#45;&gt;Node17 -->
<g id="edge16_Node000012_Node000017" class="edge">
<title>Node12&#45;&gt;Node17</title>
<g id="a_edge16_Node000012_Node000017"><a xlink:title=" ">
<path fill="none" stroke="#63b8ff" d="M1374.16,-71.44C1426.01,-61.38 1513.09,-44.49 1577.54,-31.99"/>
<polygon fill="#63b8ff" stroke="#63b8ff" points="1578.53,-35.36 1587.68,-30.02 1577.2,-28.49 1578.53,-35.36"/>
</a>
</g>
</g>
<!-- Node18 -->
<g id="Node000018" class="node">
<title>Node18</title>
<g id="a_Node000018"><a xlink:title=" ">
<polygon fill="#e0e0e0" stroke="#999999" points="772.5,-30 665.5,-30 665.5,0 772.5,0 772.5,-30"/>
<text text-anchor="start" x="673.5" y="-18" font-family="Helvetica,sans-Serif" font-size="10.00">boost/serialization</text>
<text text-anchor="middle" x="719" y="-7" font-family="Helvetica,sans-Serif" font-size="10.00">/level.hpp</text>
</a>
</g>
</g>
<!-- Node12&#45;&gt;Node18 -->
<g id="edge17_Node000012_Node000018" class="edge">
<title>Node12&#45;&gt;Node18</title>
<g id="a_edge17_Node000012_Node000018"><a xlink:title=" ">
<path fill="none" stroke="#63b8ff" d="M1287.36,-71.43C1276.21,-69.42 1264.19,-67.44 1253,-66 1047.59,-39.57 990.82,-60.57 782.7,-30.11"/>
<polygon fill="#63b8ff" stroke="#63b8ff" points="783.08,-26.63 772.68,-28.62 782.05,-33.56 783.08,-26.63"/>
</a>
</g>
</g>
<!-- Node19 -->
<g id="Node000019" class="node">
<title>Node19</title>
<g id="a_Node000019"><a xlink:title=" ">
<polygon fill="#e0e0e0" stroke="#999999" points="897.5,-30 790.5,-30 790.5,0 897.5,0 897.5,-30"/>
<text text-anchor="start" x="798.5" y="-18" font-family="Helvetica,sans-Serif" font-size="10.00">boost/serialization</text>
<text text-anchor="middle" x="844" y="-7" font-family="Helvetica,sans-Serif" font-size="10.00">/tracking.hpp</text>
</a>
</g>
</g>
<!-- Node12&#45;&gt;Node19 -->
<g id="edge18_Node000012_Node000019" class="edge">
<title>Node12&#45;&gt;Node19</title>
<g id="a_edge18_Node000012_Node000019"><a xlink:title=" ">
<path fill="none" stroke="#63b8ff" d="M1286.52,-71.5C1275.6,-69.53 1263.9,-67.55 1253,-66 1102.8,-44.59 1060.79,-54.66 907.92,-30.2"/>
<polygon fill="#63b8ff" stroke="#63b8ff" points="908.12,-26.68 897.69,-28.53 907,-33.59 908.12,-26.68"/>
</a>
</g>
</g>
<!-- Node20 -->
<g id="Node000020" class="node">
<title>Node20</title>
<g id="a_Node000020"><a xlink:title=" ">
<polygon fill="#e0e0e0" stroke="#999999" points="1028.5,-30 915.5,-30 915.5,0 1028.5,0 1028.5,-30"/>
<text text-anchor="start" x="923.5" y="-18" font-family="Helvetica,sans-Serif" font-size="10.00">boost/serialization</text>
<text text-anchor="middle" x="972" y="-7" font-family="Helvetica,sans-Serif" font-size="10.00">/tracking_enum.hpp</text>
</a>
</g>
</g>
<!-- Node12&#45;&gt;Node20 -->
<g id="edge19_Node000012_Node000020" class="edge">
<title>Node12&#45;&gt;Node20</title>
<g id="a_edge19_Node000012_Node000020"><a xlink:title=" ">
<path fill="none" stroke="#63b8ff" d="M1283.6,-71.45C1273.52,-69.62 1262.91,-67.73 1253,-66 1160.3,-49.85 1134.3,-48.34 1038.78,-30.29"/>
<polygon fill="#63b8ff" stroke="#63b8ff" points="1039.17,-26.8 1028.69,-28.37 1037.86,-33.68 1039.17,-26.8"/>
</a>
</g>
</g>
<!-- Node37&#45;&gt;Node2 -->
<g id="edge46_Node000037_Node000002" class="edge">
<title>Node37&#45;&gt;Node2</title>
<g id="a_edge46_Node000037_Node000002"><a xlink:title=" ">
<path fill="none" stroke="#63b8ff" d="M249.06,-296.99C228.58,-287.4 201.62,-274.79 181.65,-265.44"/>
<polygon fill="#63b8ff" stroke="#63b8ff" points="183,-262.21 172.46,-261.14 180.03,-268.55 183,-262.21"/>
</a>
</g>
</g>
<!-- Node37&#45;&gt;Node10 -->
<g id="edge47_Node000037_Node000010" class="edge">
<title>Node37&#45;&gt;Node10</title>
<g id="a_edge47_Node000037_Node000010"><a xlink:title=" ">
<path fill="none" stroke="#63b8ff" d="M287.06,-296.82C298.21,-275.82 317,-234.9 317,-197.5 317,-197.5 317,-197.5 317,-140.5 317,-83.39 503.03,-39.45 584.04,-23.02"/>
<polygon fill="#63b8ff" stroke="#63b8ff" points="585.17,-26.36 594.29,-20.97 583.8,-19.49 585.17,-26.36"/>
</a>
</g>
</g>
<!-- Node37&#45;&gt;Node11 -->
<g id="edge49_Node000037_Node000011" class="edge">
<title>Node37&#45;&gt;Node11</title>
<g id="a_edge49_Node000037_Node000011"><a xlink:title=" ">
<path fill="none" stroke="#63b8ff" d="M279,-296.67C279,-275.14 279,-233.17 279,-197.5 279,-197.5 279,-197.5 279,-140.5 279,-105.71 279.68,-91.82 303,-66 324.39,-42.32 359.03,-29.32 384.52,-22.56"/>
<polygon fill="#63b8ff" stroke="#63b8ff" points="385.6,-25.9 394.48,-20.11 383.93,-19.1 385.6,-25.9"/>
</a>
</g>
</g>
<!-- Node37&#45;&gt;Node36 -->
<g id="edge48_Node000037_Node000036" class="edge">
<title>Node37&#45;&gt;Node36</title>
<g id="a_edge48_Node000037_Node000036"><a xlink:title=" ">
<path fill="none" stroke="#63b8ff" d="M189.34,-301.05C133.57,-293.11 68.67,-280.12 48,-261 35.74,-249.65 31.27,-230.75 29.71,-216.52"/>
<polygon fill="#63b8ff" stroke="#63b8ff" points="33.18,-216.06 28.98,-206.33 26.2,-216.56 33.18,-216.06"/>
</a>
</g>
</g>
</g>
</svg>
