<?xml version="1.0" encoding="UTF-8" standalone="no"?>
<!DOCTYPE svg PUBLIC "-//W3C//DTD SVG 1.1//EN"
 "http://www.w3.org/Graphics/SVG/1.1/DTD/svg11.dtd">
<!-- Generated by graphviz version 2.43.0 (0)
 -->
<!-- Title: walberla_init.cpp Pages: 1 -->
<!--zoomable 218 -->
<svg id="main" version="1.1" xmlns="http://www.w3.org/2000/svg" xmlns:xlink="http://www.w3.org/1999/xlink" xml:space="preserve" onload="init(evt)">
<style type="text/css"><![CDATA[
.edge:hover path { stroke: red; }
.edge:hover polygon { stroke: red; fill: red; }
]]></style>
<script type="text/javascript"><![CDATA[
var edges = document.getElementsByTagName('g');
if (edges && edges.length) {
  for (var i=0;i<edges.length;i++) {
    if (edges[i].id.substr(0,4)=='edge') {
      edges[i].setAttribute('class','edge');
    }
  }
}
]]></script>
        <defs>
                <circle id="rim" cx="0" cy="0" r="7"/>
                <circle id="rim2" cx="0" cy="0" r="3.5"/>
                <g id="zoomPlus">
                        <use xlink:href="#rim" fill="#404040">
                                <set attributeName="fill" to="#808080" begin="zoomplus.mouseover" end="zoomplus.mouseout"/>
                        </use>
                        <path d="M-4,0h8M0,-4v8" fill="none" stroke="white" stroke-width="1.5" pointer-events="none"/>
                </g>
                <g id="zoomMin">
                        <use xlink:href="#rim" fill="#404040">
                                <set attributeName="fill" to="#808080" begin="zoomminus.mouseover" end="zoomminus.mouseout"/>
                        </use>
                        <path d="M-4,0h8" fill="none" stroke="white" stroke-width="1.5" pointer-events="none"/>
                </g>
                <g id="dirArrow">
                        <path fill="none" stroke="white" stroke-width="1.5" d="M0,-3.0v7 M-2.5,-0.5L0,-3.0L2.5,-0.5"/>
                </g>
               <g id="resetDef">
                       <use xlink:href="#rim2" fill="#404040">
                               <set attributeName="fill" to="#808080" begin="reset.mouseover" end="reset.mouseout"/>
                       </use>
               </g>
        </defs>

<script type="text/javascript">
var viewWidth = 579;
var viewHeight = 218;
var sectionId = 'dynsection-0';
</script>
<script xlink:href="svgpan.js"/>
<svg id="graph" class="graph">
<g id="viewport">
<title>walberla_init.cpp</title>
<!-- Node1 -->
<g id="node1" class="node">
<title>Node1</title>
<g id="a_node1"><a xlink:title=" ">
<polygon fill="#bfbfbf" stroke="black" points="185.94,-190.5 185.94,-209.5 285.94,-209.5 285.94,-190.5 185.94,-190.5"/>
<text text-anchor="middle" x="235.94" y="-197.5" font-family="Helvetica,sans-Serif" font-size="10.00">walberla_init.cpp</text>
</a>
</g>
</g>
<!-- Node2 -->
<g id="node2" class="node">
<title>Node2</title>
<g id="a_node2"><a xlink:href="ResourceManager_8hpp.html" target="_top" xlink:title=" ">
<polygon fill="none" stroke="black" points="101.94,-56.5 101.94,-86.5 229.94,-86.5 229.94,-56.5 101.94,-56.5"/>
<text text-anchor="start" x="109.94" y="-74.5" font-family="Helvetica,sans-Serif" font-size="10.00">walberla_bridge/utils</text>
<text text-anchor="middle" x="165.94" y="-63.5" font-family="Helvetica,sans-Serif" font-size="10.00">/ResourceManager.hpp</text>
</a>
</g>
</g>
<!-- Node1&#45;&gt;Node2 -->
<g id="edge1" class="edge">
<title>Node1&#45;&gt;Node2</title>
<path fill="none" stroke="midnightblue" d="M230.36,-190.5C224.55,-181.54 215.29,-166.96 207.94,-154 197,-134.74 185.55,-112.34 177.37,-95.91"/>
<polygon fill="midnightblue" stroke="midnightblue" points="180.3,-93.94 172.73,-86.53 174.03,-97.04 180.3,-93.94"/>
</g>
<!-- Node4 -->
<g id="node4" class="node">
<title>Node4</title>
<g id="a_node4"><a xlink:title=" ">
<polygon fill="none" stroke="#bfbfbf" points="24.94,-0.5 24.94,-19.5 82.94,-19.5 82.94,-0.5 24.94,-0.5"/>
<text text-anchor="middle" x="53.94" y="-7.5" font-family="Helvetica,sans-Serif" font-size="10.00">memory</text>
</a>
</g>
</g>
<!-- Node1&#45;&gt;Node4 -->
<g id="edge12" class="edge">
<title>Node1&#45;&gt;Node4</title>
<path fill="none" stroke="midnightblue" d="M185.88,-196.13C126.69,-191.57 33.49,-180.31 11.94,-154 -18.97,-116.27 18.41,-56.57 40.27,-27.71"/>
<polygon fill="midnightblue" stroke="midnightblue" points="43.05,-29.84 46.46,-19.81 37.54,-25.52 43.05,-29.84"/>
</g>
<!-- Node7 -->
<g id="node7" class="node">
<title>Node7</title>
<g id="a_node7"><a xlink:href="walberla__init_8hpp.html" target="_top" xlink:title=" ">
<polygon fill="none" stroke="black" points="20.94,-123.5 20.94,-153.5 160.94,-153.5 160.94,-123.5 20.94,-123.5"/>
<text text-anchor="start" x="28.94" y="-141.5" font-family="Helvetica,sans-Serif" font-size="10.00">walberla_bridge/walberla</text>
<text text-anchor="middle" x="90.94" y="-130.5" font-family="Helvetica,sans-Serif" font-size="10.00">_init.hpp</text>
</a>
</g>
</g>
<!-- Node1&#45;&gt;Node7 -->
<g id="edge6" class="edge">
<title>Node1&#45;&gt;Node7</title>
<path fill="none" stroke="midnightblue" d="M215.16,-190.48C194.24,-181.89 161.32,-168.38 134.63,-157.43"/>
<polygon fill="midnightblue" stroke="midnightblue" points="135.69,-154.08 125.11,-153.52 133.03,-160.56 135.69,-154.08"/>
</g>
<!-- Node8 -->
<g id="node8" class="node">
<title>Node8</title>
<g id="a_node8"><a xlink:title=" ">
<polygon fill="none" stroke="#bfbfbf" points="216.94,-129 216.94,-148 350.94,-148 350.94,-129 216.94,-129"/>
<text text-anchor="middle" x="283.94" y="-136" font-family="Helvetica,sans-Serif" font-size="10.00">core/mpi/Environment.h</text>
</a>
</g>
</g>
<!-- Node1&#45;&gt;Node8 -->
<g id="edge9" class="edge">
<title>Node1&#45;&gt;Node8</title>
<path fill="none" stroke="midnightblue" d="M242.81,-190.48C250.08,-181.46 261.73,-167.02 270.78,-155.81"/>
<polygon fill="midnightblue" stroke="midnightblue" points="273.52,-157.99 277.07,-148.01 268.07,-153.59 273.52,-157.99"/>
</g>
<!-- Node9 -->
<g id="node9" class="node">
<title>Node9</title>
<g id="a_node9"><a xlink:title=" ">
<polygon fill="none" stroke="#bfbfbf" points="369.44,-129 369.44,-148 500.44,-148 500.44,-129 369.44,-129"/>
<text text-anchor="middle" x="434.94" y="-136" font-family="Helvetica,sans-Serif" font-size="10.00">core/mpi/MPIManager.h</text>
</a>
</g>
</g>
<!-- Node1&#45;&gt;Node9 -->
<g id="edge10" class="edge">
<title>Node1&#45;&gt;Node9</title>
<path fill="none" stroke="midnightblue" d="M264.45,-190.48C299.17,-180.09 357.97,-162.51 396.63,-150.95"/>
<polygon fill="midnightblue" stroke="midnightblue" points="397.9,-154.23 406.48,-148.01 395.89,-147.52 397.9,-154.23"/>
</g>
<!-- Node10 -->
<g id="node10" class="node">
<title>Node10</title>
<g id="a_node10"><a xlink:title=" ">
<polygon fill="none" stroke="#bfbfbf" points="518.94,-129 518.94,-148 570.94,-148 570.94,-129 518.94,-129"/>
<text text-anchor="middle" x="544.94" y="-136" font-family="Helvetica,sans-Serif" font-size="10.00">cassert</text>
</a>
</g>
</g>
<!-- Node1&#45;&gt;Node10 -->
<g id="edge11" class="edge">
<title>Node1&#45;&gt;Node10</title>
<path fill="none" stroke="midnightblue" d="M285.94,-194.28C341.45,-188.24 433.33,-175.84 509.94,-154 512.23,-153.35 514.58,-152.59 516.92,-151.76"/>
<polygon fill="midnightblue" stroke="midnightblue" points="518.25,-155 526.33,-148.14 515.74,-148.47 518.25,-155"/>
</g>
<!-- Node3 -->
<g id="node3" class="node">
<title>Node3</title>
<g id="a_node3"><a xlink:title=" ">
<polygon fill="none" stroke="#bfbfbf" points="100.94,-0.5 100.94,-19.5 132.94,-19.5 132.94,-0.5 100.94,-0.5"/>
<text text-anchor="middle" x="116.94" y="-7.5" font-family="Helvetica,sans-Serif" font-size="10.00">list</text>
</a>
</g>
</g>
<!-- Node2&#45;&gt;Node3 -->
<g id="edge2" class="edge">
<title>Node2&#45;&gt;Node3</title>
<path fill="none" stroke="midnightblue" d="M154.32,-56.4C147.2,-47.75 138.05,-36.64 130.59,-27.58"/>
<polygon fill="midnightblue" stroke="midnightblue" points="133.12,-25.15 124.07,-19.66 127.72,-29.6 133.12,-25.15"/>
</g>
<!-- Node2&#45;&gt;Node4 -->
<g id="edge3" class="edge">
<title>Node2&#45;&gt;Node4</title>
<path fill="none" stroke="midnightblue" d="M139.39,-56.4C121.27,-46.77 97.4,-34.09 79.49,-24.58"/>
<polygon fill="midnightblue" stroke="midnightblue" points="80.71,-21.26 70.23,-19.66 77.42,-27.44 80.71,-21.26"/>
</g>
<!-- Node5 -->
<g id="node5" class="node">
<title>Node5</title>
<g id="a_node5"><a xlink:title=" ">
<polygon fill="none" stroke="#bfbfbf" points="151.44,-0.5 151.44,-19.5 194.44,-19.5 194.44,-0.5 151.44,-0.5"/>
<text text-anchor="middle" x="172.94" y="-7.5" font-family="Helvetica,sans-Serif" font-size="10.00">stack</text>
</a>
</g>
</g>
<!-- Node2&#45;&gt;Node5 -->
<g id="edge4" class="edge">
<title>Node2&#45;&gt;Node5</title>
<path fill="none" stroke="midnightblue" d="M167.59,-56.4C168.53,-48.47 169.71,-38.46 170.72,-29.86"/>
<polygon fill="midnightblue" stroke="midnightblue" points="174.22,-30 171.92,-19.66 167.27,-29.18 174.22,-30"/>
</g>
<!-- Node6 -->
<g id="node6" class="node">
<title>Node6</title>
<g id="a_node6"><a xlink:title=" ">
<polygon fill="none" stroke="#bfbfbf" points="212.44,-0.5 212.44,-19.5 257.44,-19.5 257.44,-0.5 212.44,-0.5"/>
<text text-anchor="middle" x="234.94" y="-7.5" font-family="Helvetica,sans-Serif" font-size="10.00">utility</text>
</a>
</g>
</g>
<!-- Node2&#45;&gt;Node6 -->
<g id="edge5" class="edge">
<title>Node2&#45;&gt;Node6</title>
<path fill="none" stroke="midnightblue" d="M182.29,-56.4C192.83,-47.31 206.54,-35.49 217.32,-26.19"/>
<polygon fill="midnightblue" stroke="midnightblue" points="219.61,-28.84 224.9,-19.66 215.04,-23.54 219.61,-28.84"/>
</g>
<!-- Node7&#45;&gt;Node2 -->
<g id="edge7" class="edge">
<title>Node7&#45;&gt;Node2</title>
<path fill="none" stroke="midnightblue" d="M107.21,-123.4C117.33,-114.62 130.53,-103.18 141.85,-93.37"/>
<polygon fill="midnightblue" stroke="midnightblue" points="144.43,-95.77 149.69,-86.58 139.84,-90.48 144.43,-95.77"/>
</g>
<!-- Node7&#45;&gt;Node4 -->
<g id="edge8" class="edge">
<title>Node7&#45;&gt;Node4</title>
<path fill="none" stroke="midnightblue" d="M86.83,-123.48C80.15,-100.62 66.89,-55.3 59.41,-29.71"/>
<polygon fill="midnightblue" stroke="midnightblue" points="62.67,-28.4 56.51,-19.79 55.95,-30.37 62.67,-28.4"/>
</g>
</g>
</svg>
        <g id="navigator" transform="translate(0 0)" fill="#404254">
                <rect fill="#f2f5e9" fill-opacity="0.5" stroke="#606060" stroke-width=".5" x="0" y="0" width="60" height="60"/>
                <use id="zoomplus" xlink:href="#zoomPlus" x="17" y="9" onmousedown="handleZoom(evt,'in')"/>
                <use id="zoomminus" xlink:href="#zoomMin" x="42" y="9" onmousedown="handleZoom(evt,'out')"/>
                <use id="reset" xlink:href="#resetDef" x="30" y="36" onmousedown="handleReset()"/>
                <g id="arrowUp" xlink:href="#dirArrow" transform="translate(30 24)" onmousedown="handlePan(0,-1)">
                  <use xlink:href="#rim" fill="#404040">
                        <set attributeName="fill" to="#808080" begin="arrowUp.mouseover" end="arrowUp.mouseout"/>
                  </use>
                  <path fill="none" stroke="white" stroke-width="1.5" d="M0,-3.0v7 M-2.5,-0.5L0,-3.0L2.5,-0.5"/>
                </g>
                <g id="arrowRight" xlink:href="#dirArrow" transform="rotate(90) translate(36 -43)" onmousedown="handlePan(1,0)">
                  <use xlink:href="#rim" fill="#404040">
                        <set attributeName="fill" to="#808080" begin="arrowRight.mouseover" end="arrowRight.mouseout"/>
                  </use>
                  <path fill="none" stroke="white" stroke-width="1.5" d="M0,-3.0v7 M-2.5,-0.5L0,-3.0L2.5,-0.5"/>
                </g>
                <g id="arrowDown" xlink:href="#dirArrow" transform="rotate(180) translate(-30 -48)" onmousedown="handlePan(0,1)">
                  <use xlink:href="#rim" fill="#404040">
                        <set attributeName="fill" to="#808080" begin="arrowDown.mouseover" end="arrowDown.mouseout"/>
                  </use>
                  <path fill="none" stroke="white" stroke-width="1.5" d="M0,-3.0v7 M-2.5,-0.5L0,-3.0L2.5,-0.5"/>
                </g>
                <g id="arrowLeft" xlink:href="#dirArrow" transform="rotate(270) translate(-36 17)" onmousedown="handlePan(-1,0)">
                  <use xlink:href="#rim" fill="#404040">
                        <set attributeName="fill" to="#808080" begin="arrowLeft.mouseover" end="arrowLeft.mouseout"/>
                  </use>
                  <path fill="none" stroke="white" stroke-width="1.5" d="M0,-3.0v7 M-2.5,-0.5L0,-3.0L2.5,-0.5"/>
                </g>
        </g>
        <svg viewBox="0 0 15 15" width="100%" height="30px" preserveAspectRatio="xMaxYMin meet">
         <g id="arrow_out" transform="scale(0.3 0.3)">
          <a xlink:href="walberla__init_8cpp__incl_org.svg" target="_base">
           <rect id="button" ry="5" rx="5" y="6" x="6" height="38" width="38"
                fill="#f2f5e9" fill-opacity="0.5" stroke="#606060" stroke-width="1.0"/>
           <path id="arrow"
             d="M 11.500037,31.436501 C 11.940474,20.09759 22.043105,11.32322 32.158766,21.979434 L 37.068811,17.246167 C 37.068811,17.246167 37.088388,32 37.088388,32 L 22.160133,31.978069 C 22.160133,31.978069 26.997745,27.140456 26.997745,27.140456 C 18.528582,18.264221 13.291696,25.230495 11.500037,31.436501 z"
             style="fill:#404040;"/>
          </a>
         </g>
        </svg>
</svg>
