<?xml version="1.0" encoding="UTF-8" standalone="no"?>
<!DOCTYPE svg PUBLIC "-//W3C//DTD SVG 1.1//EN"
 "http://www.w3.org/Graphics/SVG/1.1/DTD/svg11.dtd">
<!-- Generated by graphviz version 2.43.0 (0)
 -->
<!-- Title: EKContainer.hpp Pages: 1 -->
<!--zoomable 390 -->

<svg id="main" version="1.1" xmlns="http://www.w3.org/2000/svg" xmlns:xlink="http://www.w3.org/1999/xlink" xml:space="preserve" onload="init(evt)">
<style type="text/css"><![CDATA[
.node, .edge {opacity: 0.7;}
.node.selected, .edge.selected {opacity: 1;}
.edge:hover path { stroke: red; }
.edge:hover polygon { stroke: red; fill: red; }
]]></style>

<defs>
  <circle id="rim" cx="0" cy="0" r="7"/>
  <circle id="rim2" cx="0" cy="0" r="3.5"/>
  <g id="zoomPlus">
    <use xlink:href="#rim" fill="#404040"><set attributeName="fill" to="#808080" begin="zoomplus.mouseover" end="zoomplus.mouseout"/></use>
    <path d="M-4,0h8M0,-4v8" fill="none" stroke="white" stroke-width="1.5" pointer-events="none"/>
  </g>
  <g id="zoomMin">
    <use xlink:href="#rim" fill="#404040"><set attributeName="fill" to="#808080" begin="zoomminus.mouseover" end="zoomminus.mouseout"/></use>
    <path d="M-4,0h8" fill="none" stroke="white" stroke-width="1.5" pointer-events="none"/>
  </g>
  <g id="arrowUp" transform="translate(30 24)">
    <use xlink:href="#rim"/>
    <path pointer-events="none" fill="none" stroke="white" stroke-width="1.5" d="M0,-3.0v7 M-2.5,-0.5L0,-3.0L2.5,-0.5"/>
  </g>
  <g id="arrowRight" transform="rotate(90) translate(36 -43)">
    <use xlink:href="#rim"/>
    <path pointer-events="none" fill="none" stroke="white" stroke-width="1.5" d="M0,-3.0v7 M-2.5,-0.5L0,-3.0L2.5,-0.5"/>
  </g>
  <g id="arrowDown" transform="rotate(180) translate(-30 -48)">
    <use xlink:href="#rim"/>
    <path pointer-events="none" fill="none" stroke="white" stroke-width="1.5" d="M0,-3.0v7 M-2.5,-0.5L0,-3.0L2.5,-0.5"/>
  </g>
  <g id="arrowLeft" transform="rotate(270) translate(-36 17)">
    <use xlink:href="#rim"/>
    <path pointer-events="none" fill="none" stroke="white" stroke-width="1.5" d="M0,-3.0v7 M-2.5,-0.5L0,-3.0L2.5,-0.5"/>
  </g>
  <g id="resetDef">
    <use xlink:href="#rim2" fill="#404040"><set attributeName="fill" to="#808080" begin="reset.mouseover" end="reset.mouseout"/></use>
  </g>
</defs>
<script type="application/ecmascript">
var viewWidth = 1504;
var viewHeight = 390;
var sectionId = 'dynsection-0';
</script>
<script type="application/ecmascript" xlink:href="svg.min.js"/>
<svg id="graph" class="graph">
<g id="viewport">
<title>EKContainer.hpp</title>
<!-- Node1 -->
<g id="Node000001" class="node">
<title>Node1</title>
<g id="a_Node000001"><a xlink:title=" ">
<polygon fill="#999999" stroke="#666666" points="1047.5,-382 951.5,-382 951.5,-363 1047.5,-363 1047.5,-382"/>
<text text-anchor="middle" x="999.5" y="-370" font-family="Helvetica,sans-Serif" font-size="10.00">EKContainer.hpp</text>
</a>
</g>
</g>
<!-- Node2 -->
<g id="Node000002" class="node">
<title>Node2</title>
<g id="a_Node000002"><a xlink:href="walberla__bridge_2include_2walberla__bridge_2LatticeWalberla_8hpp.html" target="_top" xlink:title=" ">
<polygon fill="white" stroke="#666666" points="406.5,-261 212.5,-261 212.5,-242 406.5,-242 406.5,-261"/>
<text text-anchor="middle" x="309.5" y="-249" font-family="Helvetica,sans-Serif" font-size="10.00">walberla_bridge/LatticeWalberla.hpp</text>
</a>
</g>
</g>
<!-- Node1&#45;&gt;Node2 -->
<g id="edge1_Node000001_Node000002" class="edge">
<title>Node1&#45;&gt;Node2</title>
<g id="a_edge1_Node000001_Node000002"><a xlink:title=" ">
<path fill="none" stroke="#63b8ff" d="M951.3,-371.31C862.83,-370.03 669.09,-362.94 510.5,-327 446.36,-312.47 375,-282.5 336.94,-265.33"/>
<polygon fill="#63b8ff" stroke="#63b8ff" points="338.12,-262.02 327.57,-261.05 335.22,-268.39 338.12,-262.02"/>
</a>
</g>
</g>
<!-- Node8 -->
<g id="Node000008" class="node">
<title>Node8</title>
<g id="a_Node000008"><a xlink:title=" ">
<polygon fill="#e0e0e0" stroke="#999999" points="124.5,-24.5 72.5,-24.5 72.5,-5.5 124.5,-5.5 124.5,-24.5"/>
<text text-anchor="middle" x="98.5" y="-12.5" font-family="Helvetica,sans-Serif" font-size="10.00">cassert</text>
</a>
</g>
</g>
<!-- Node1&#45;&gt;Node8 -->
<g id="edge47_Node000001_Node000008" class="edge">
<title>Node1&#45;&gt;Node8</title>
<g id="a_edge47_Node000001_Node000008"><a xlink:title=" ">
<path fill="none" stroke="#63b8ff" d="M958.47,-362.98C796.05,-328.99 203.64,-202.46 135.5,-151 99.39,-123.73 96.24,-64.7 97.2,-34.55"/>
<polygon fill="#63b8ff" stroke="#63b8ff" points="100.7,-34.7 97.71,-24.53 93.71,-34.34 100.7,-34.7"/>
</a>
</g>
</g>
<!-- Node18 -->
<g id="Node000018" class="node">
<title>Node18</title>
<g id="a_Node000018"><a xlink:title=" ">
<polygon fill="#e0e0e0" stroke="#999999" points="1284,-24.5 1231,-24.5 1231,-5.5 1284,-5.5 1284,-24.5"/>
<text text-anchor="middle" x="1257.5" y="-12.5" font-family="Helvetica,sans-Serif" font-size="10.00">cstddef</text>
</a>
</g>
</g>
<!-- Node1&#45;&gt;Node18 -->
<g id="edge48_Node000001_Node000018" class="edge">
<title>Node1&#45;&gt;Node18</title>
<g id="a_edge48_Node000001_Node000018"><a xlink:title=" ">
<path fill="none" stroke="#63b8ff" d="M1047.51,-370.15C1171.99,-365.34 1495.5,-344.04 1495.5,-252.5 1495.5,-252.5 1495.5,-252.5 1495.5,-140.5 1495.5,-50.87 1361.32,-25.65 1294.46,-18.64"/>
<polygon fill="#63b8ff" stroke="#63b8ff" points="1294.63,-15.14 1284.34,-17.67 1293.96,-22.11 1294.63,-15.14"/>
</a>
</g>
</g>
<!-- Node22 -->
<g id="Node000022" class="node">
<title>Node22</title>
<g id="a_Node000022"><a xlink:title=" ">
<polygon fill="#e0e0e0" stroke="#999999" points="1171,-90.5 1106,-90.5 1106,-71.5 1171,-71.5 1171,-90.5"/>
<text text-anchor="middle" x="1138.5" y="-78.5" font-family="Helvetica,sans-Serif" font-size="10.00">stdexcept</text>
</a>
</g>
</g>
<!-- Node1&#45;&gt;Node22 -->
<g id="edge50_Node000001_Node000022" class="edge">
<title>Node1&#45;&gt;Node22</title>
<g id="a_edge50_Node000001_Node000022"><a xlink:title=" ">
<path fill="none" stroke="#63b8ff" d="M1047.68,-368.07C1158,-358.88 1419.5,-329.04 1419.5,-252.5 1419.5,-252.5 1419.5,-252.5 1419.5,-195.5 1419.5,-166.04 1422.37,-151.74 1400.5,-132 1368.85,-103.43 1247.17,-90.09 1181.35,-84.85"/>
<polygon fill="#63b8ff" stroke="#63b8ff" points="1181.53,-81.36 1171.29,-84.08 1180.99,-88.34 1181.53,-81.36"/>
</a>
</g>
</g>
<!-- Node25 -->
<g id="Node000025" class="node">
<title>Node25</title>
<g id="a_Node000025"><a xlink:title=" ">
<polygon fill="#e0e0e0" stroke="#999999" points="1325.5,-151 1261.5,-151 1261.5,-132 1325.5,-132 1325.5,-151"/>
<text text-anchor="middle" x="1293.5" y="-139" font-family="Helvetica,sans-Serif" font-size="10.00">algorithm</text>
</a>
</g>
</g>
<!-- Node1&#45;&gt;Node25 -->
<g id="edge46_Node000001_Node000025" class="edge">
<title>Node1&#45;&gt;Node25</title>
<g id="a_edge46_Node000001_Node000025"><a xlink:title=" ">
<path fill="none" stroke="#63b8ff" d="M1010.67,-362.8C1054.87,-328.37 1217.94,-201.35 1274.24,-157.5"/>
<polygon fill="#63b8ff" stroke="#63b8ff" points="1276.58,-160.11 1282.32,-151.21 1272.28,-154.59 1276.58,-160.11"/>
</a>
</g>
</g>
<!-- Node34 -->
<g id="Node000034" class="node">
<title>Node34</title>
<g id="a_Node000034"><a xlink:title=" ">
<polygon fill="#e0e0e0" stroke="#999999" points="1391,-151 1344,-151 1344,-132 1391,-132 1391,-151"/>
<text text-anchor="middle" x="1367.5" y="-139" font-family="Helvetica,sans-Serif" font-size="10.00">vector</text>
</a>
</g>
</g>
<!-- Node1&#45;&gt;Node34 -->
<g id="edge51_Node000001_Node000034" class="edge">
<title>Node1&#45;&gt;Node34</title>
<g id="a_edge51_Node000001_Node000034"><a xlink:title=" ">
<path fill="none" stroke="#63b8ff" d="M1019.06,-362.85C1037.75,-354.37 1066.56,-340.75 1090.5,-327 1190.35,-269.67 1302.59,-189.8 1347.43,-157.22"/>
<polygon fill="#63b8ff" stroke="#63b8ff" points="1349.7,-159.9 1355.71,-151.18 1345.57,-154.24 1349.7,-159.9"/>
</a>
</g>
</g>
<!-- Node35 -->
<g id="Node000035" class="node">
<title>Node35</title>
<g id="a_Node000035"><a xlink:title=" ">
<polygon fill="#e0e0e0" stroke="#999999" points="83.5,-206 25.5,-206 25.5,-187 83.5,-187 83.5,-206"/>
<text text-anchor="middle" x="54.5" y="-194" font-family="Helvetica,sans-Serif" font-size="10.00">memory</text>
</a>
</g>
</g>
<!-- Node1&#45;&gt;Node35 -->
<g id="edge49_Node000001_Node000035" class="edge">
<title>Node1&#45;&gt;Node35</title>
<g id="a_edge49_Node000001_Node000035"><a xlink:title=" ">
<path fill="none" stroke="#63b8ff" d="M951.39,-370.54C790.77,-367.08 279.25,-354.03 210.5,-327 148.45,-302.61 92.82,-243.42 68.08,-214.28"/>
<polygon fill="#63b8ff" stroke="#63b8ff" points="70.51,-211.72 61.42,-206.27 65.12,-216.2 70.51,-211.72"/>
</a>
</g>
</g>
<!-- Node36 -->
<g id="Node000036" class="node">
<title>Node36</title>
<g id="a_Node000036"><a xlink:href="PoissonSolver_8hpp.html" target="_top" xlink:title=" ">
<polygon fill="white" stroke="#666666" points="399,-327 220,-327 220,-297 399,-297 399,-327"/>
<text text-anchor="start" x="228" y="-315" font-family="Helvetica,sans-Serif" font-size="10.00">walberla_bridge/electrokinetics</text>
<text text-anchor="middle" x="309.5" y="-304" font-family="Helvetica,sans-Serif" font-size="10.00">/PoissonSolver/PoissonSolver.hpp</text>
</a>
</g>
</g>
<!-- Node1&#45;&gt;Node36 -->
<g id="edge41_Node000001_Node000036" class="edge">
<title>Node1&#45;&gt;Node36</title>
<g id="a_edge41_Node000001_Node000036"><a xlink:title=" ">
<path fill="none" stroke="#63b8ff" d="M951.43,-368.71C851.61,-362.73 614.65,-347.51 416.5,-327 414.1,-326.75 411.68,-326.49 409.23,-326.23"/>
<polygon fill="#63b8ff" stroke="#63b8ff" points="409.4,-322.72 399.08,-325.08 408.62,-329.68 409.4,-322.72"/>
</a>
</g>
</g>
<!-- Node3 -->
<g id="Node000003" class="node">
<title>Node3</title>
<g id="a_Node000003"><a xlink:href="Vector_8hpp.html" target="_top" xlink:title="Vector implementation and trait types for boost qvm interoperability.">
<polygon fill="white" stroke="#666666" points="671.5,-206 579.5,-206 579.5,-187 671.5,-187 671.5,-206"/>
<text text-anchor="middle" x="625.5" y="-194" font-family="Helvetica,sans-Serif" font-size="10.00">utils/Vector.hpp</text>
</a>
</g>
</g>
<!-- Node2&#45;&gt;Node3 -->
<g id="edge2_Node000002_Node000003" class="edge">
<title>Node2&#45;&gt;Node3</title>
<g id="a_edge2_Node000002_Node000003"><a xlink:title=" ">
<path fill="none" stroke="#63b8ff" d="M360.27,-241.98C417.5,-232.39 510.26,-216.83 569.54,-206.89"/>
<polygon fill="#63b8ff" stroke="#63b8ff" points="570.2,-210.32 579.48,-205.22 569.04,-203.42 570.2,-210.32"/>
</a>
</g>
</g>
<!-- Node24 -->
<g id="Node000024" class="node">
<title>Node24</title>
<g id="a_Node000024"><a xlink:title=" ">
<polygon fill="#e0e0e0" stroke="#999999" points="45,-90.5 0,-90.5 0,-71.5 45,-71.5 45,-90.5"/>
<text text-anchor="middle" x="22.5" y="-78.5" font-family="Helvetica,sans-Serif" font-size="10.00">utility</text>
</a>
</g>
</g>
<!-- Node2&#45;&gt;Node24 -->
<g id="edge40_Node000002_Node000024" class="edge">
<title>Node2&#45;&gt;Node24</title>
<g id="a_edge40_Node000002_Node000024"><a xlink:title=" ">
<path fill="none" stroke="#63b8ff" d="M262.43,-241.94C207.95,-229.94 118.22,-203.41 59.5,-151 44.17,-137.32 34.05,-115.75 28.33,-100.37"/>
<polygon fill="#63b8ff" stroke="#63b8ff" points="31.62,-99.19 25.06,-90.88 25.01,-101.47 31.62,-99.19"/>
</a>
</g>
</g>
<!-- Node2&#45;&gt;Node35 -->
<g id="edge39_Node000002_Node000035" class="edge">
<title>Node2&#45;&gt;Node35</title>
<g id="a_edge39_Node000002_Node000035"><a xlink:title=" ">
<path fill="none" stroke="#63b8ff" d="M268.53,-241.98C220.39,-231.98 141.1,-215.5 93.73,-205.65"/>
<polygon fill="#63b8ff" stroke="#63b8ff" points="94.35,-202.21 83.84,-203.6 92.92,-209.06 94.35,-202.21"/>
</a>
</g>
</g>
<!-- Node4 -->
<g id="Node000004" class="node">
<title>Node4</title>
<g id="a_Node000004"><a xlink:title=" ">
<polygon fill="#e0e0e0" stroke="#999999" points="981.5,-151 831.5,-151 831.5,-132 981.5,-132 981.5,-151"/>
<text text-anchor="middle" x="906.5" y="-139" font-family="Helvetica,sans-Serif" font-size="10.00">boost/qvm/deduce_vec.hpp</text>
</a>
</g>
</g>
<!-- Node3&#45;&gt;Node4 -->
<g id="edge3_Node000003_Node000004" class="edge">
<title>Node3&#45;&gt;Node4</title>
<g id="a_edge3_Node000003_Node000004"><a xlink:title=" ">
<path fill="none" stroke="#63b8ff" d="M670.65,-186.98C719.76,-177.72 798.32,-162.9 851.12,-152.94"/>
<polygon fill="#63b8ff" stroke="#63b8ff" points="851.82,-156.37 861,-151.08 850.52,-149.5 851.82,-156.37"/>
</a>
</g>
</g>
<!-- Node5 -->
<g id="Node000005" class="node">
<title>Node5</title>
<g id="a_Node000005"><a xlink:title=" ">
<polygon fill="#e0e0e0" stroke="#999999" points="1139.5,-151 999.5,-151 999.5,-132 1139.5,-132 1139.5,-151"/>
<text text-anchor="middle" x="1069.5" y="-139" font-family="Helvetica,sans-Serif" font-size="10.00">boost/qvm/vec_traits.hpp</text>
</a>
</g>
</g>
<!-- Node3&#45;&gt;Node5 -->
<g id="edge4_Node000003_Node000005" class="edge">
<title>Node3&#45;&gt;Node5</title>
<g id="a_edge4_Node000003_Node000005"><a xlink:title=" ">
<path fill="none" stroke="#63b8ff" d="M671.76,-189.98C746.9,-181.01 896.4,-163.16 989.19,-152.09"/>
<polygon fill="#63b8ff" stroke="#63b8ff" points="989.86,-155.53 999.37,-150.87 989.03,-148.58 989.86,-155.53"/>
</a>
</g>
</g>
<!-- Node6 -->
<g id="Node000006" class="node">
<title>Node6</title>
<g id="a_Node000006"><a xlink:href="Array_8hpp.html" target="_top" xlink:title="Array implementation with CUDA support.">
<polygon fill="white" stroke="#666666" points="668.5,-151 582.5,-151 582.5,-132 668.5,-132 668.5,-151"/>
<text text-anchor="middle" x="625.5" y="-139" font-family="Helvetica,sans-Serif" font-size="10.00">utils/Array.hpp</text>
</a>
</g>
</g>
<!-- Node3&#45;&gt;Node6 -->
<g id="edge5_Node000003_Node000006" class="edge">
<title>Node3&#45;&gt;Node6</title>
<g id="a_edge5_Node000003_Node000006"><a xlink:title=" ">
<path fill="none" stroke="#63b8ff" d="M625.5,-186.75C625.5,-179.8 625.5,-169.85 625.5,-161.13"/>
<polygon fill="#63b8ff" stroke="#63b8ff" points="629,-161.09 625.5,-151.09 622,-161.09 629,-161.09"/>
</a>
</g>
</g>
<!-- Node3&#45;&gt;Node8 -->
<g id="edge27_Node000003_Node000008" class="edge">
<title>Node3&#45;&gt;Node8</title>
<g id="a_edge27_Node000003_Node000008"><a xlink:title=" ">
<path fill="none" stroke="#63b8ff" d="M579.18,-193.74C467.7,-189.14 191.17,-175.38 157.5,-151 119.11,-123.2 105.38,-64.9 100.73,-34.83"/>
<polygon fill="#63b8ff" stroke="#63b8ff" points="104.18,-34.24 99.36,-24.81 97.25,-35.19 104.18,-34.24"/>
</a>
</g>
</g>
<!-- Node3&#45;&gt;Node18 -->
<g id="edge30_Node000003_Node000018" class="edge">
<title>Node3&#45;&gt;Node18</title>
<g id="a_edge30_Node000003_Node000018"><a xlink:title=" ">
<path fill="none" stroke="#63b8ff" d="M671.54,-194.92C802.64,-192.87 1171.23,-184.19 1213.5,-151 1249.27,-122.91 1256.34,-65.19 1257.49,-35.13"/>
<polygon fill="#63b8ff" stroke="#63b8ff" points="1261,-34.83 1257.69,-24.76 1254,-34.69 1261,-34.83"/>
</a>
</g>
</g>
<!-- Node20 -->
<g id="Node000020" class="node">
<title>Node20</title>
<g id="a_Node000020"><a xlink:title=" ">
<polygon fill="#e0e0e0" stroke="#999999" points="205,-90.5 152,-90.5 152,-71.5 205,-71.5 205,-90.5"/>
<text text-anchor="middle" x="178.5" y="-78.5" font-family="Helvetica,sans-Serif" font-size="10.00">iterator</text>
</a>
</g>
</g>
<!-- Node3&#45;&gt;Node20 -->
<g id="edge33_Node000003_Node000020" class="edge">
<title>Node3&#45;&gt;Node20</title>
<g id="a_edge33_Node000003_Node000020"><a xlink:title=" ">
<path fill="none" stroke="#63b8ff" d="M579.16,-194.44C468.46,-191.44 195.75,-181.03 168.5,-151 156.09,-137.32 162.02,-115.44 168.85,-99.99"/>
<polygon fill="#63b8ff" stroke="#63b8ff" points="172.03,-101.44 173.27,-90.92 165.74,-98.37 172.03,-101.44"/>
</a>
</g>
</g>
<!-- Node3&#45;&gt;Node25 -->
<g id="edge26_Node000003_Node000025" class="edge">
<title>Node3&#45;&gt;Node25</title>
<g id="a_edge26_Node000003_Node000025"><a xlink:title=" ">
<path fill="none" stroke="#63b8ff" d="M671.71,-193.95C775.19,-190.11 1033.26,-178.37 1247.5,-151 1248.77,-150.84 1250.06,-150.66 1251.35,-150.48"/>
<polygon fill="#63b8ff" stroke="#63b8ff" points="1252.06,-153.91 1261.4,-148.9 1250.98,-147 1252.06,-153.91"/>
</a>
</g>
</g>
<!-- Node26 -->
<g id="Node000026" class="node">
<title>Node26</title>
<g id="a_Node000026"><a xlink:title=" ">
<polygon fill="#e0e0e0" stroke="#999999" points="1205,-151 1158,-151 1158,-132 1205,-132 1205,-151"/>
<text text-anchor="middle" x="1181.5" y="-139" font-family="Helvetica,sans-Serif" font-size="10.00">cmath</text>
</a>
</g>
</g>
<!-- Node3&#45;&gt;Node26 -->
<g id="edge28_Node000003_Node000026" class="edge">
<title>Node3&#45;&gt;Node26</title>
<g id="a_edge28_Node000003_Node000026"><a xlink:title=" ">
<path fill="none" stroke="#63b8ff" d="M671.65,-194.16C761.54,-191 966.42,-181.05 1147.82,-150.8"/>
<polygon fill="#63b8ff" stroke="#63b8ff" points="1148.53,-154.23 1157.81,-149.11 1147.37,-147.33 1148.53,-154.23"/>
</a>
</g>
</g>
<!-- Node27 -->
<g id="Node000027" class="node">
<title>Node27</title>
<g id="a_Node000027"><a xlink:title=" ">
<polygon fill="#e0e0e0" stroke="#999999" points="237.5,-151 177.5,-151 177.5,-132 237.5,-132 237.5,-151"/>
<text text-anchor="middle" x="207.5" y="-139" font-family="Helvetica,sans-Serif" font-size="10.00">concepts</text>
</a>
</g>
</g>
<!-- Node3&#45;&gt;Node27 -->
<g id="edge29_Node000003_Node000027" class="edge">
<title>Node3&#45;&gt;Node27</title>
<g id="a_edge29_Node000003_Node000027"><a xlink:title=" ">
<path fill="none" stroke="#63b8ff" d="M579.5,-191.56C509.86,-185.28 373.36,-171.71 247.85,-151.07"/>
<polygon fill="#63b8ff" stroke="#63b8ff" points="248.12,-147.57 237.68,-149.38 246.97,-154.48 248.12,-147.57"/>
</a>
</g>
</g>
<!-- Node28 -->
<g id="Node000028" class="node">
<title>Node28</title>
<g id="a_Node000028"><a xlink:title=" ">
<polygon fill="#e0e0e0" stroke="#999999" points="321,-151 256,-151 256,-132 321,-132 321,-151"/>
<text text-anchor="middle" x="288.5" y="-139" font-family="Helvetica,sans-Serif" font-size="10.00">functional</text>
</a>
</g>
</g>
<!-- Node3&#45;&gt;Node28 -->
<g id="edge31_Node000003_Node000028" class="edge">
<title>Node3&#45;&gt;Node28</title>
<g id="a_edge31_Node000003_Node000028"><a xlink:title=" ">
<path fill="none" stroke="#63b8ff" d="M579.48,-189.38C523.16,-181.72 424.64,-167.74 331.06,-151.2"/>
<polygon fill="#63b8ff" stroke="#63b8ff" points="331.6,-147.74 321.14,-149.44 330.37,-154.64 331.6,-147.74"/>
</a>
</g>
</g>
<!-- Node29 -->
<g id="Node000029" class="node">
<title>Node29</title>
<g id="a_Node000029"><a xlink:title=" ">
<polygon fill="#e0e0e0" stroke="#999999" points="422,-151 339,-151 339,-132 422,-132 422,-151"/>
<text text-anchor="middle" x="380.5" y="-139" font-family="Helvetica,sans-Serif" font-size="10.00">initializer_list</text>
</a>
</g>
</g>
<!-- Node3&#45;&gt;Node29 -->
<g id="edge32_Node000003_Node000029" class="edge">
<title>Node3&#45;&gt;Node29</title>
<g id="a_edge32_Node000003_Node000029"><a xlink:title=" ">
<path fill="none" stroke="#63b8ff" d="M586.14,-186.98C543.76,-177.82 476.24,-163.21 430.22,-153.26"/>
<polygon fill="#63b8ff" stroke="#63b8ff" points="430.69,-149.78 420.17,-151.08 429.21,-156.62 430.69,-149.78"/>
</a>
</g>
</g>
<!-- Node30 -->
<g id="Node000030" class="node">
<title>Node30</title>
<g id="a_Node000030"><a xlink:title=" ">
<polygon fill="#e0e0e0" stroke="#999999" points="496.5,-151 440.5,-151 440.5,-132 496.5,-132 496.5,-151"/>
<text text-anchor="middle" x="468.5" y="-139" font-family="Helvetica,sans-Serif" font-size="10.00">numeric</text>
</a>
</g>
</g>
<!-- Node3&#45;&gt;Node30 -->
<g id="edge34_Node000003_Node000030" class="edge">
<title>Node3&#45;&gt;Node30</title>
<g id="a_edge34_Node000003_Node000030"><a xlink:title=" ">
<path fill="none" stroke="#63b8ff" d="M600.28,-186.98C574.14,-178.16 533.1,-164.31 503.77,-154.41"/>
<polygon fill="#63b8ff" stroke="#63b8ff" points="504.52,-150.96 493.92,-151.08 502.28,-157.6 504.52,-150.96"/>
</a>
</g>
</g>
<!-- Node31 -->
<g id="Node000031" class="node">
<title>Node31</title>
<g id="a_Node000031"><a xlink:title=" ">
<polygon fill="#e0e0e0" stroke="#999999" points="564.5,-151 514.5,-151 514.5,-132 564.5,-132 564.5,-151"/>
<text text-anchor="middle" x="539.5" y="-139" font-family="Helvetica,sans-Serif" font-size="10.00">ranges</text>
</a>
</g>
</g>
<!-- Node3&#45;&gt;Node31 -->
<g id="edge35_Node000003_Node000031" class="edge">
<title>Node3&#45;&gt;Node31</title>
<g id="a_edge35_Node000003_Node000031"><a xlink:title=" ">
<path fill="none" stroke="#63b8ff" d="M611.68,-186.98C598.35,-178.77 577.92,-166.18 562.19,-156.49"/>
<polygon fill="#63b8ff" stroke="#63b8ff" points="563.92,-153.44 553.57,-151.17 560.25,-159.4 563.92,-153.44"/>
</a>
</g>
</g>
<!-- Node32 -->
<g id="Node000032" class="node">
<title>Node32</title>
<g id="a_Node000032"><a xlink:title=" ">
<polygon fill="#e0e0e0" stroke="#999999" points="726.5,-151 686.5,-151 686.5,-132 726.5,-132 726.5,-151"/>
<text text-anchor="middle" x="706.5" y="-139" font-family="Helvetica,sans-Serif" font-size="10.00">span</text>
</a>
</g>
</g>
<!-- Node3&#45;&gt;Node32 -->
<g id="edge36_Node000003_Node000032" class="edge">
<title>Node3&#45;&gt;Node32</title>
<g id="a_edge36_Node000003_Node000032"><a xlink:title=" ">
<path fill="none" stroke="#63b8ff" d="M638.51,-186.98C650.96,-178.84 669.96,-166.41 684.71,-156.76"/>
<polygon fill="#63b8ff" stroke="#63b8ff" points="686.8,-159.57 693.25,-151.17 682.96,-153.72 686.8,-159.57"/>
</a>
</g>
</g>
<!-- Node33 -->
<g id="Node000033" class="node">
<title>Node33</title>
<g id="a_Node000033"><a xlink:title=" ">
<polygon fill="#e0e0e0" stroke="#999999" points="814,-151 745,-151 745,-132 814,-132 814,-151"/>
<text text-anchor="middle" x="779.5" y="-139" font-family="Helvetica,sans-Serif" font-size="10.00">type_traits</text>
</a>
</g>
</g>
<!-- Node3&#45;&gt;Node33 -->
<g id="edge37_Node000003_Node000033" class="edge">
<title>Node3&#45;&gt;Node33</title>
<g id="a_edge37_Node000003_Node000033"><a xlink:title=" ">
<path fill="none" stroke="#63b8ff" d="M650.24,-186.98C675.87,-178.16 716.13,-164.31 744.91,-154.41"/>
<polygon fill="#63b8ff" stroke="#63b8ff" points="746.25,-157.65 754.56,-151.08 743.97,-151.03 746.25,-157.65"/>
</a>
</g>
</g>
<!-- Node3&#45;&gt;Node34 -->
<g id="edge38_Node000003_Node000034" class="edge">
<title>Node3&#45;&gt;Node34</title>
<g id="a_edge38_Node000003_Node000034"><a xlink:title=" ">
<path fill="none" stroke="#63b8ff" d="M671.87,-195.62C784.06,-195.25 1079.01,-190.42 1333.64,-150.78"/>
<polygon fill="#63b8ff" stroke="#63b8ff" points="1334.49,-154.19 1343.82,-149.17 1333.4,-147.27 1334.49,-154.19"/>
</a>
</g>
</g>
<!-- Node7 -->
<g id="Node000007" class="node">
<title>Node7</title>
<g id="a_Node000007"><a xlink:href="device__qualifier_8hpp.html" target="_top" xlink:title=" ">
<polygon fill="white" stroke="#666666" points="510.5,-90.5 396.5,-90.5 396.5,-71.5 510.5,-71.5 510.5,-90.5"/>
<text text-anchor="middle" x="453.5" y="-78.5" font-family="Helvetica,sans-Serif" font-size="10.00">device_qualifier.hpp</text>
</a>
</g>
</g>
<!-- Node6&#45;&gt;Node7 -->
<g id="edge6_Node000006_Node000007" class="edge">
<title>Node6&#45;&gt;Node7</title>
<g id="a_edge6_Node000006_Node000007"><a xlink:title=" ">
<path fill="none" stroke="#63b8ff" d="M600.49,-131.99C570.94,-121.94 521.59,-105.16 488.31,-93.84"/>
<polygon fill="#63b8ff" stroke="#63b8ff" points="489.13,-90.42 478.54,-90.52 486.88,-97.05 489.13,-90.42"/>
</a>
</g>
</g>
<!-- Node6&#45;&gt;Node8 -->
<g id="edge19_Node000006_Node000008" class="edge">
<title>Node6&#45;&gt;Node8</title>
<g id="a_edge19_Node000006_Node000008"><a xlink:title=" ">
<path fill="none" stroke="#63b8ff" d="M582.32,-133.35C534.5,-125.22 455.19,-111.1 387.5,-96 273.66,-70.6 244.31,-66.4 133.5,-30 131.83,-29.45 130.13,-28.87 128.42,-28.25"/>
<polygon fill="#63b8ff" stroke="#63b8ff" points="129.29,-24.84 118.7,-24.58 126.82,-31.39 129.29,-24.84"/>
</a>
</g>
</g>
<!-- Node9 -->
<g id="Node000009" class="node">
<title>Node9</title>
<g id="a_Node000009"><a xlink:href="array_8hpp.html" target="_top" xlink:title=" ">
<polygon fill="white" stroke="#666666" points="677,-90.5 552,-90.5 552,-71.5 677,-71.5 677,-90.5"/>
<text text-anchor="middle" x="614.5" y="-78.5" font-family="Helvetica,sans-Serif" font-size="10.00">serialization/array.hpp</text>
</a>
</g>
</g>
<!-- Node6&#45;&gt;Node9 -->
<g id="edge8_Node000006_Node000009" class="edge">
<title>Node6&#45;&gt;Node9</title>
<g id="a_edge8_Node000006_Node000009"><a xlink:title=" ">
<path fill="none" stroke="#63b8ff" d="M623.88,-131.87C622.33,-123.66 619.96,-111.04 617.99,-100.55"/>
<polygon fill="#63b8ff" stroke="#63b8ff" points="621.42,-99.85 616.13,-90.67 614.54,-101.14 621.42,-99.85"/>
</a>
</g>
</g>
<!-- Node6&#45;&gt;Node18 -->
<g id="edge20_Node000006_Node000018" class="edge">
<title>Node6&#45;&gt;Node18</title>
<g id="a_edge20_Node000006_Node000018"><a xlink:title=" ">
<path fill="none" stroke="#63b8ff" d="M668.62,-133.36C671.62,-132.89 674.6,-132.43 677.5,-132 920.8,-95.72 986.67,-103.26 1221.5,-30 1223.37,-29.42 1225.29,-28.78 1227.21,-28.12"/>
<polygon fill="#63b8ff" stroke="#63b8ff" points="1228.54,-31.36 1236.73,-24.63 1226.14,-24.78 1228.54,-31.36"/>
</a>
</g>
</g>
<!-- Node19 -->
<g id="Node000019" class="node">
<title>Node19</title>
<g id="a_Node000019"><a xlink:title=" ">
<polygon fill="#e0e0e0" stroke="#999999" points="936,-96 829,-96 829,-66 936,-66 936,-96"/>
<text text-anchor="start" x="837" y="-84" font-family="Helvetica,sans-Serif" font-size="10.00">boost/serialization</text>
<text text-anchor="middle" x="882.5" y="-73" font-family="Helvetica,sans-Serif" font-size="10.00">/access.hpp</text>
</a>
</g>
</g>
<!-- Node6&#45;&gt;Node19 -->
<g id="edge18_Node000006_Node000019" class="edge">
<title>Node6&#45;&gt;Node19</title>
<g id="a_edge18_Node000006_Node000019"><a xlink:title=" ">
<path fill="none" stroke="#63b8ff" d="M662.87,-131.99C703.77,-122.68 770.03,-107.6 819.1,-96.43"/>
<polygon fill="#63b8ff" stroke="#63b8ff" points="820,-99.82 828.98,-94.18 818.45,-92.99 820,-99.82"/>
</a>
</g>
</g>
<!-- Node6&#45;&gt;Node20 -->
<g id="edge21_Node000006_Node000020" class="edge">
<title>Node6&#45;&gt;Node20</title>
<g id="a_edge21_Node000006_Node000020"><a xlink:title=" ">
<path fill="none" stroke="#63b8ff" d="M582.39,-133.33C579.38,-132.87 576.4,-132.42 573.5,-132 442.06,-112.94 285.42,-94.33 215.44,-86.22"/>
<polygon fill="#63b8ff" stroke="#63b8ff" points="215.7,-82.73 205.37,-85.06 214.9,-89.69 215.7,-82.73"/>
</a>
</g>
</g>
<!-- Node21 -->
<g id="Node000021" class="node">
<title>Node21</title>
<g id="a_Node000021"><a xlink:title=" ">
<polygon fill="#e0e0e0" stroke="#999999" points="752,-90.5 695,-90.5 695,-71.5 752,-71.5 752,-90.5"/>
<text text-anchor="middle" x="723.5" y="-78.5" font-family="Helvetica,sans-Serif" font-size="10.00">ostream</text>
</a>
</g>
</g>
<!-- Node6&#45;&gt;Node21 -->
<g id="edge22_Node000006_Node000021" class="edge">
<title>Node6&#45;&gt;Node21</title>
<g id="a_edge22_Node000006_Node000021"><a xlink:title=" ">
<path fill="none" stroke="#63b8ff" d="M639.96,-131.87C655.81,-122.41 681.47,-107.09 700.18,-95.92"/>
<polygon fill="#63b8ff" stroke="#63b8ff" points="702.19,-98.8 708.98,-90.67 698.6,-92.79 702.19,-98.8"/>
</a>
</g>
</g>
<!-- Node6&#45;&gt;Node22 -->
<g id="edge23_Node000006_Node000022" class="edge">
<title>Node6&#45;&gt;Node22</title>
<g id="a_edge23_Node000006_Node000022"><a xlink:title=" ">
<path fill="none" stroke="#63b8ff" d="M668.6,-133.26C671.61,-132.81 674.6,-132.39 677.5,-132 830.75,-111.52 869.87,-113.34 1023.5,-96 1047.37,-93.31 1074.01,-90.08 1095.63,-87.4"/>
<polygon fill="#63b8ff" stroke="#63b8ff" points="1096.31,-90.84 1105.8,-86.13 1095.45,-83.9 1096.31,-90.84"/>
</a>
</g>
</g>
<!-- Node23 -->
<g id="Node000023" class="node">
<title>Node23</title>
<g id="a_Node000023"><a xlink:title=" ">
<polygon fill="#e0e0e0" stroke="#999999" points="811,-90.5 770,-90.5 770,-71.5 811,-71.5 811,-90.5"/>
<text text-anchor="middle" x="790.5" y="-78.5" font-family="Helvetica,sans-Serif" font-size="10.00">tuple</text>
</a>
</g>
</g>
<!-- Node6&#45;&gt;Node23 -->
<g id="edge24_Node000006_Node000023" class="edge">
<title>Node6&#45;&gt;Node23</title>
<g id="a_edge24_Node000006_Node000023"><a xlink:title=" ">
<path fill="none" stroke="#63b8ff" d="M654.82,-131.93C682.41,-123.61 724.71,-110.19 760.5,-96 761.52,-95.6 762.54,-95.18 763.58,-94.75"/>
<polygon fill="#63b8ff" stroke="#63b8ff" points="765.15,-97.88 772.88,-90.64 762.32,-91.48 765.15,-97.88"/>
</a>
</g>
</g>
<!-- Node6&#45;&gt;Node24 -->
<g id="edge25_Node000006_Node000024" class="edge">
<title>Node6&#45;&gt;Node24</title>
<g id="a_edge25_Node000006_Node000024"><a xlink:title=" ">
<path fill="none" stroke="#63b8ff" d="M582.41,-133.19C579.4,-132.76 576.41,-132.36 573.5,-132 382.72,-108.48 333.77,-115.14 142.5,-96 112.87,-93.03 79.19,-89.05 55.07,-86.09"/>
<polygon fill="#63b8ff" stroke="#63b8ff" points="55.39,-82.61 45.04,-84.85 54.53,-89.55 55.39,-82.61"/>
</a>
</g>
</g>
<!-- Node7&#45;&gt;Node8 -->
<g id="edge7_Node000007_Node000008" class="edge">
<title>Node7&#45;&gt;Node8</title>
<g id="a_edge7_Node000007_Node000008"><a xlink:title=" ">
<path fill="none" stroke="#63b8ff" d="M396.25,-72.63C318,-62.29 181.83,-43.26 133.5,-30 131.56,-29.47 129.58,-28.86 127.6,-28.21"/>
<polygon fill="#63b8ff" stroke="#63b8ff" points="128.45,-24.79 117.85,-24.64 126.04,-31.36 128.45,-24.79"/>
</a>
</g>
</g>
<!-- Node10 -->
<g id="Node000010" class="node">
<title>Node10</title>
<g id="a_Node000010"><a xlink:title=" ">
<polygon fill="#e0e0e0" stroke="#999999" points="950,-24.5 817,-24.5 817,-5.5 950,-5.5 950,-24.5"/>
<text text-anchor="middle" x="883.5" y="-12.5" font-family="Helvetica,sans-Serif" font-size="10.00">boost/mpl/bool_fwd.hpp</text>
</a>
</g>
</g>
<!-- Node9&#45;&gt;Node10 -->
<g id="edge9_Node000009_Node000010" class="edge">
<title>Node9&#45;&gt;Node10</title>
<g id="a_edge9_Node000009_Node000010"><a xlink:title=" ">
<path fill="none" stroke="#63b8ff" d="M650.5,-71.44C698.92,-59.92 785.04,-39.43 837.92,-26.84"/>
<polygon fill="#63b8ff" stroke="#63b8ff" points="838.8,-30.23 847.71,-24.51 837.18,-23.42 838.8,-30.23"/>
</a>
</g>
</g>
<!-- Node11 -->
<g id="Node000011" class="node">
<title>Node11</title>
<g id="a_Node000011"><a xlink:title=" ">
<polygon fill="#e0e0e0" stroke="#999999" points="1092.5,-24.5 968.5,-24.5 968.5,-5.5 1092.5,-5.5 1092.5,-24.5"/>
<text text-anchor="middle" x="1030.5" y="-12.5" font-family="Helvetica,sans-Serif" font-size="10.00">boost/mpl/greater.hpp</text>
</a>
</g>
</g>
<!-- Node9&#45;&gt;Node11 -->
<g id="edge10_Node000009_Node000011" class="edge">
<title>Node9&#45;&gt;Node11</title>
<g id="a_edge10_Node000009_Node000011"><a xlink:title=" ">
<path fill="none" stroke="#63b8ff" d="M655.34,-71.49C665.2,-69.56 675.71,-67.61 685.5,-66 806.26,-46.15 837.71,-49.69 958.5,-30 965.17,-28.91 972.17,-27.67 979.08,-26.39"/>
<polygon fill="#63b8ff" stroke="#63b8ff" points="979.9,-29.8 989.08,-24.5 978.6,-22.92 979.9,-29.8"/>
</a>
</g>
</g>
<!-- Node12 -->
<g id="Node000012" class="node">
<title>Node12</title>
<g id="a_Node000012"><a xlink:title=" ">
<polygon fill="#e0e0e0" stroke="#999999" points="1212.5,-24.5 1110.5,-24.5 1110.5,-5.5 1212.5,-5.5 1212.5,-24.5"/>
<text text-anchor="middle" x="1161.5" y="-12.5" font-family="Helvetica,sans-Serif" font-size="10.00">boost/mpl/int.hpp</text>
</a>
</g>
</g>
<!-- Node9&#45;&gt;Node12 -->
<g id="edge11_Node000009_Node000012" class="edge">
<title>Node9&#45;&gt;Node12</title>
<g id="a_edge11_Node000009_Node000012"><a xlink:title=" ">
<path fill="none" stroke="#63b8ff" d="M653.8,-71.46C664.08,-69.45 675.17,-67.46 685.5,-66 869.25,-40.01 918.23,-59.16 1101.5,-30 1107.05,-29.12 1112.84,-28.01 1118.55,-26.8"/>
<polygon fill="#63b8ff" stroke="#63b8ff" points="1119.66,-30.14 1128.66,-24.56 1118.14,-23.31 1119.66,-30.14"/>
</a>
</g>
</g>
<!-- Node13 -->
<g id="Node000013" class="node">
<title>Node13</title>
<g id="a_Node000013"><a xlink:title=" ">
<polygon fill="#e0e0e0" stroke="#999999" points="248.5,-30 142.5,-30 142.5,0 248.5,0 248.5,-30"/>
<text text-anchor="start" x="150.5" y="-18" font-family="Helvetica,sans-Serif" font-size="10.00">boost/mpl/integral</text>
<text text-anchor="middle" x="195.5" y="-7" font-family="Helvetica,sans-Serif" font-size="10.00">_c_tag.hpp</text>
</a>
</g>
</g>
<!-- Node9&#45;&gt;Node13 -->
<g id="edge12_Node000009_Node000013" class="edge">
<title>Node9&#45;&gt;Node13</title>
<g id="a_edge12_Node000009_Node000013"><a xlink:title=" ">
<path fill="none" stroke="#63b8ff" d="M557.24,-71.47C544.8,-69.64 531.71,-67.74 519.5,-66 406.32,-49.88 374.86,-50.89 258.55,-30.1"/>
<polygon fill="#63b8ff" stroke="#63b8ff" points="259,-26.62 248.54,-28.29 257.76,-33.51 259,-26.62"/>
</a>
</g>
</g>
<!-- Node14 -->
<g id="Node000014" class="node">
<title>Node14</title>
<g id="a_Node000014"><a xlink:title=" ">
<polygon fill="#e0e0e0" stroke="#999999" points="418,-30 267,-30 267,0 418,0 418,-30"/>
<text text-anchor="start" x="275" y="-18" font-family="Helvetica,sans-Serif" font-size="10.00">boost/serialization</text>
<text text-anchor="middle" x="342.5" y="-7" font-family="Helvetica,sans-Serif" font-size="10.00">/is_bitwise_serializable.hpp</text>
</a>
</g>
</g>
<!-- Node9&#45;&gt;Node14 -->
<g id="edge13_Node000009_Node000014" class="edge">
<title>Node9&#45;&gt;Node14</title>
<g id="a_edge13_Node000009_Node000014"><a xlink:title=" ">
<path fill="none" stroke="#63b8ff" d="M578.1,-71.44C535.8,-61.48 465.06,-44.84 412.11,-32.38"/>
<polygon fill="#63b8ff" stroke="#63b8ff" points="412.64,-28.91 402.11,-30.02 411.04,-35.72 412.64,-28.91"/>
</a>
</g>
</g>
<!-- Node15 -->
<g id="Node000015" class="node">
<title>Node15</title>
<g id="a_Node000015"><a xlink:title=" ">
<polygon fill="#e0e0e0" stroke="#999999" points="543,-30 436,-30 436,0 543,0 543,-30"/>
<text text-anchor="start" x="444" y="-18" font-family="Helvetica,sans-Serif" font-size="10.00">boost/serialization</text>
<text text-anchor="middle" x="489.5" y="-7" font-family="Helvetica,sans-Serif" font-size="10.00">/level.hpp</text>
</a>
</g>
</g>
<!-- Node9&#45;&gt;Node15 -->
<g id="edge14_Node000009_Node000015" class="edge">
<title>Node9&#45;&gt;Node15</title>
<g id="a_edge14_Node000009_Node000015"><a xlink:title=" ">
<path fill="none" stroke="#63b8ff" d="M597.64,-71.37C579.4,-62.03 549.77,-46.86 526.13,-34.75"/>
<polygon fill="#63b8ff" stroke="#63b8ff" points="527.57,-31.56 517.07,-30.12 524.38,-37.79 527.57,-31.56"/>
</a>
</g>
</g>
<!-- Node16 -->
<g id="Node000016" class="node">
<title>Node16</title>
<g id="a_Node000016"><a xlink:title=" ">
<polygon fill="#e0e0e0" stroke="#999999" points="668,-30 561,-30 561,0 668,0 668,-30"/>
<text text-anchor="start" x="569" y="-18" font-family="Helvetica,sans-Serif" font-size="10.00">boost/serialization</text>
<text text-anchor="middle" x="614.5" y="-7" font-family="Helvetica,sans-Serif" font-size="10.00">/tracking.hpp</text>
</a>
</g>
</g>
<!-- Node9&#45;&gt;Node16 -->
<g id="edge15_Node000009_Node000016" class="edge">
<title>Node9&#45;&gt;Node16</title>
<g id="a_edge15_Node000009_Node000016"><a xlink:title=" ">
<path fill="none" stroke="#63b8ff" d="M614.5,-71.37C614.5,-63.49 614.5,-51.45 614.5,-40.6"/>
<polygon fill="#63b8ff" stroke="#63b8ff" points="618,-40.36 614.5,-30.36 611,-40.36 618,-40.36"/>
</a>
</g>
</g>
<!-- Node17 -->
<g id="Node000017" class="node">
<title>Node17</title>
<g id="a_Node000017"><a xlink:title=" ">
<polygon fill="#e0e0e0" stroke="#999999" points="799,-30 686,-30 686,0 799,0 799,-30"/>
<text text-anchor="start" x="694" y="-18" font-family="Helvetica,sans-Serif" font-size="10.00">boost/serialization</text>
<text text-anchor="middle" x="742.5" y="-7" font-family="Helvetica,sans-Serif" font-size="10.00">/tracking_enum.hpp</text>
</a>
</g>
</g>
<!-- Node9&#45;&gt;Node17 -->
<g id="edge16_Node000009_Node000017" class="edge">
<title>Node9&#45;&gt;Node17</title>
<g id="a_edge16_Node000009_Node000017"><a xlink:title=" ">
<path fill="none" stroke="#63b8ff" d="M631.76,-71.37C650.52,-61.99 681.06,-46.72 705.32,-34.59"/>
<polygon fill="#63b8ff" stroke="#63b8ff" points="706.89,-37.72 714.27,-30.12 703.76,-31.46 706.89,-37.72"/>
</a>
</g>
</g>
<!-- Node9&#45;&gt;Node18 -->
<g id="edge17_Node000009_Node000018" class="edge">
<title>Node9&#45;&gt;Node18</title>
<g id="a_edge17_Node000009_Node000018"><a xlink:title=" ">
<path fill="none" stroke="#63b8ff" d="M653.04,-71.47C663.53,-69.41 674.91,-67.39 685.5,-66 922.22,-34.84 988.44,-81.87 1221.5,-30 1224.02,-29.44 1226.6,-28.73 1229.16,-27.93"/>
<polygon fill="#63b8ff" stroke="#63b8ff" points="1230.52,-31.16 1238.78,-24.52 1228.18,-24.56 1230.52,-31.16"/>
</a>
</g>
</g>
<!-- Node36&#45;&gt;Node2 -->
<g id="edge42_Node000036_Node000002" class="edge">
<title>Node36&#45;&gt;Node2</title>
<g id="a_edge42_Node000036_Node000002"><a xlink:title=" ">
<path fill="none" stroke="#63b8ff" d="M309.5,-296.84C309.5,-289.21 309.5,-279.7 309.5,-271.45"/>
<polygon fill="#63b8ff" stroke="#63b8ff" points="313,-271.27 309.5,-261.27 306,-271.27 313,-271.27"/>
</a>
</g>
</g>
<!-- Node36&#45;&gt;Node18 -->
<g id="edge43_Node000036_Node000018" class="edge">
<title>Node36&#45;&gt;Node18</title>
<g id="a_edge43_Node000036_Node000018"><a xlink:title=" ">
<path fill="none" stroke="#63b8ff" d="M399.26,-304.49C648.49,-285.5 1335.06,-226.73 1400.5,-151 1442.95,-101.87 1343.43,-51.24 1289.43,-28.45"/>
<polygon fill="#63b8ff" stroke="#63b8ff" points="1290.5,-25.1 1279.92,-24.52 1287.83,-31.57 1290.5,-25.1"/>
</a>
</g>
</g>
<!-- Node36&#45;&gt;Node24 -->
<g id="edge45_Node000036_Node000024" class="edge">
<title>Node36&#45;&gt;Node24</title>
<g id="a_edge45_Node000036_Node000024"><a xlink:title=" ">
<path fill="none" stroke="#63b8ff" d="M219.67,-305.83C151.14,-296.56 61.15,-271.69 16.5,-206 -5.13,-174.18 6.32,-126.45 15.24,-100.46"/>
<polygon fill="#63b8ff" stroke="#63b8ff" points="18.64,-101.36 18.8,-90.77 12.06,-98.95 18.64,-101.36"/>
</a>
</g>
</g>
<!-- Node36&#45;&gt;Node35 -->
<g id="edge44_Node000036_Node000035" class="edge">
<title>Node36&#45;&gt;Node35</title>
<g id="a_edge44_Node000036_Node000035"><a xlink:title=" ">
<path fill="none" stroke="#63b8ff" d="M277.98,-296.97C227.99,-274.72 131.27,-231.67 83.15,-210.25"/>
<polygon fill="#63b8ff" stroke="#63b8ff" points="84.48,-207.01 73.92,-206.14 81.63,-213.41 84.48,-207.01"/>
</a>
</g>
</g>
</g>
</svg>

<g id="navigator" transform="translate(0 0)" fill="#404254">
  <rect fill="#f2f5e9" fill-opacity="0.5" stroke="#606060" stroke-width=".5" x="0" y="0" width="60" height="60"/>
  <use id="zoomplus" xlink:href="#zoomPlus" x="17" y="9" onmousedown="handleZoom(evt,'in')"/>
  <use id="zoomminus" xlink:href="#zoomMin" x="42" y="9" onmousedown="handleZoom(evt,'out')"/>
  <use id="reset" xlink:href="#resetDef" x="30" y="36" onmousedown="handleReset()"/>
   <use id="arrowup" xlink:href="#arrowUp" x="0" y="0" onmousedown="handlePan(0,-1)"/>
  <use id="arrowright" xlink:href="#arrowRight" x="0" y="0" onmousedown="handlePan(1,0)"/>
  <use id="arrowdown" xlink:href="#arrowDown" x="0" y="0" onmousedown="handlePan(0,1)"/>
  <use id="arrowleft" xlink:href="#arrowLeft" x="0" y="0" onmousedown="handlePan(-1,0)"/>
</g>
<svg viewBox="0 0 15 15" width="100%" height="30px" preserveAspectRatio="xMaxYMin meet">
 <g id="arrow_out" transform="scale(0.3 0.3)">
  <a xlink:href="walberla__bridge_2include_2walberla__bridge_2electrokinetics_2EKContainer_8hpp__incl_org.svg" target="_base">
   <rect id="button" ry="5" rx="5" y="6" x="6" height="38" width="38"
        fill="#f2f5e9" fill-opacity="0.5" stroke="#606060" stroke-width="1.0"/>
   <path id="arrow"
     d="M 11.500037,31.436501 C 11.940474,20.09759 22.043105,11.32322 32.158766,21.979434 L 37.068811,17.246167 C 37.068811,17.246167 37.088388,32 37.088388,32 L 22.160133,31.978069 C 22.160133,31.978069 26.997745,27.140456 26.997745,27.140456 C 18.528582,18.264221 13.291696,25.230495 11.500037,31.436501 z"
     style="fill:#404040;"/>
  </a>
 </g>
</svg>

<style type='text/css'>
<![CDATA[
[data-mouse-over-selected='false'] { opacity: 0.7; }
[data-mouse-over-selected='true']  { opacity: 1.0; }
]]>
</style>
<script type="application/ecmascript"><![CDATA[
document.addEventListener('DOMContentLoaded', (event) => {
  highlightEdges();
  highlightAdjacentNodes();
});
]]></script>
</svg>
